<?xml version="1.0" encoding="utf-8"?>
<svg xmlns="http://www.w3.org/2000/svg" xmlns:xlink="http://www.w3.org/1999/xlink" width="600" height="400" viewBox="0 0 2400 1600">
<defs>
  <clipPath id="clip060">
    <rect x="0" y="0" width="2400" height="1600"/>
  </clipPath>
</defs>
<path clip-path="url(#clip060)" d="
M0 1600 L2400 1600 L2400 0 L0 0  Z
  " fill="#ffffff" fill-rule="evenodd" fill-opacity="1"/>
<defs>
  <clipPath id="clip061">
    <rect x="480" y="0" width="1681" height="1600"/>
  </clipPath>
</defs>
<path clip-path="url(#clip060)" d="
M166.205 1486.45 L2352.76 1486.45 L2352.76 47.2441 L166.205 47.2441  Z
  " fill="#ffffff" fill-rule="evenodd" fill-opacity="1"/>
<defs>
  <clipPath id="clip062">
    <rect x="166" y="47" width="2188" height="1440"/>
  </clipPath>
</defs>
<polyline clip-path="url(#clip062)" style="stroke:#000000; stroke-width:2; stroke-opacity:0.1; fill:none" points="
  371.079,1486.45 371.079,47.2441 
  "/>
<polyline clip-path="url(#clip062)" style="stroke:#000000; stroke-width:2; stroke-opacity:0.1; fill:none" points="
  794.127,1486.45 794.127,47.2441 
  "/>
<polyline clip-path="url(#clip062)" style="stroke:#000000; stroke-width:2; stroke-opacity:0.1; fill:none" points="
  1217.18,1486.45 1217.18,47.2441 
  "/>
<polyline clip-path="url(#clip062)" style="stroke:#000000; stroke-width:2; stroke-opacity:0.1; fill:none" points="
  1640.22,1486.45 1640.22,47.2441 
  "/>
<polyline clip-path="url(#clip062)" style="stroke:#000000; stroke-width:2; stroke-opacity:0.1; fill:none" points="
  2063.27,1486.45 2063.27,47.2441 
  "/>
<polyline clip-path="url(#clip062)" style="stroke:#000000; stroke-width:2; stroke-opacity:0.1; fill:none" points="
  166.205,1445.72 2352.76,1445.72 
  "/>
<polyline clip-path="url(#clip062)" style="stroke:#000000; stroke-width:2; stroke-opacity:0.1; fill:none" points="
  166.205,1117.36 2352.76,1117.36 
  "/>
<polyline clip-path="url(#clip062)" style="stroke:#000000; stroke-width:2; stroke-opacity:0.1; fill:none" points="
  166.205,789.01 2352.76,789.01 
  "/>
<polyline clip-path="url(#clip062)" style="stroke:#000000; stroke-width:2; stroke-opacity:0.1; fill:none" points="
  166.205,460.657 2352.76,460.657 
  "/>
<polyline clip-path="url(#clip062)" style="stroke:#000000; stroke-width:2; stroke-opacity:0.1; fill:none" points="
  166.205,132.304 2352.76,132.304 
  "/>
<polyline clip-path="url(#clip060)" style="stroke:#000000; stroke-width:4; stroke-opacity:1; fill:none" points="
  166.205,1486.45 2352.76,1486.45 
  "/>
<polyline clip-path="url(#clip060)" style="stroke:#000000; stroke-width:4; stroke-opacity:1; fill:none" points="
  166.205,1486.45 166.205,47.2441 
  "/>
<polyline clip-path="url(#clip060)" style="stroke:#000000; stroke-width:4; stroke-opacity:1; fill:none" points="
  371.079,1486.45 371.079,1469.18 
  "/>
<polyline clip-path="url(#clip060)" style="stroke:#000000; stroke-width:4; stroke-opacity:1; fill:none" points="
  794.127,1486.45 794.127,1469.18 
  "/>
<polyline clip-path="url(#clip060)" style="stroke:#000000; stroke-width:4; stroke-opacity:1; fill:none" points="
  1217.18,1486.45 1217.18,1469.18 
  "/>
<polyline clip-path="url(#clip060)" style="stroke:#000000; stroke-width:4; stroke-opacity:1; fill:none" points="
  1640.22,1486.45 1640.22,1469.18 
  "/>
<polyline clip-path="url(#clip060)" style="stroke:#000000; stroke-width:4; stroke-opacity:1; fill:none" points="
  2063.27,1486.45 2063.27,1469.18 
  "/>
<polyline clip-path="url(#clip060)" style="stroke:#000000; stroke-width:4; stroke-opacity:1; fill:none" points="
  166.205,1445.72 192.443,1445.72 
  "/>
<polyline clip-path="url(#clip060)" style="stroke:#000000; stroke-width:4; stroke-opacity:1; fill:none" points="
  166.205,1117.36 192.443,1117.36 
  "/>
<polyline clip-path="url(#clip060)" style="stroke:#000000; stroke-width:4; stroke-opacity:1; fill:none" points="
  166.205,789.01 192.443,789.01 
  "/>
<polyline clip-path="url(#clip060)" style="stroke:#000000; stroke-width:4; stroke-opacity:1; fill:none" points="
  166.205,460.657 192.443,460.657 
  "/>
<polyline clip-path="url(#clip060)" style="stroke:#000000; stroke-width:4; stroke-opacity:1; fill:none" points="
  166.205,132.304 192.443,132.304 
  "/>
<path clip-path="url(#clip060)" d="M 0 0 M351.252 1525.04 L363.729 1525.04 L363.729 1528.83 L351.252 1528.83 L351.252 1525.04 Z" fill="#000000" fill-rule="evenodd" fill-opacity="1" /><path clip-path="url(#clip060)" d="M 0 0 M379.377 1520.78 Q376.229 1520.78 374.377 1522.93 Q372.548 1525.08 372.548 1528.83 Q372.548 1532.56 374.377 1534.73 Q376.229 1536.89 379.377 1536.89 Q382.525 1536.89 384.354 1534.73 Q386.206 1532.56 386.206 1528.83 Q386.206 1525.08 384.354 1522.93 Q382.525 1520.78 379.377 1520.78 M388.659 1506.12 L388.659 1510.38 Q386.9 1509.55 385.095 1509.11 Q383.312 1508.67 381.553 1508.67 Q376.923 1508.67 374.47 1511.8 Q372.039 1514.92 371.692 1521.24 Q373.058 1519.23 375.118 1518.16 Q377.178 1517.07 379.655 1517.07 Q384.863 1517.07 387.872 1520.24 Q390.905 1523.39 390.905 1528.83 Q390.905 1534.16 387.757 1537.37 Q384.609 1540.59 379.377 1540.59 Q373.382 1540.59 370.211 1536.01 Q367.039 1531.4 367.039 1522.67 Q367.039 1514.48 370.928 1509.62 Q374.817 1504.73 381.368 1504.73 Q383.127 1504.73 384.91 1505.08 Q386.715 1505.43 388.659 1506.12 Z" fill="#000000" fill-rule="evenodd" fill-opacity="1" /><path clip-path="url(#clip060)" d="M 0 0 M774.706 1525.04 L787.183 1525.04 L787.183 1528.83 L774.706 1528.83 L774.706 1525.04 Z" fill="#000000" fill-rule="evenodd" fill-opacity="1" /><path clip-path="url(#clip060)" d="M 0 0 M806.419 1521.29 Q809.775 1522 811.65 1524.27 Q813.548 1526.54 813.548 1529.87 Q813.548 1534.99 810.03 1537.79 Q806.511 1540.59 800.03 1540.59 Q797.854 1540.59 795.539 1540.15 Q793.247 1539.73 790.794 1538.88 L790.794 1534.36 Q792.738 1535.5 795.053 1536.08 Q797.368 1536.66 799.891 1536.66 Q804.289 1536.66 806.581 1534.92 Q808.895 1533.18 808.895 1529.87 Q808.895 1526.82 806.743 1525.11 Q804.613 1523.37 800.794 1523.37 L796.766 1523.37 L796.766 1519.53 L800.979 1519.53 Q804.428 1519.53 806.257 1518.16 Q808.085 1516.77 808.085 1514.18 Q808.085 1511.52 806.187 1510.11 Q804.312 1508.67 800.794 1508.67 Q798.872 1508.67 796.673 1509.09 Q794.474 1509.5 791.835 1510.38 L791.835 1506.22 Q794.497 1505.48 796.812 1505.11 Q799.15 1504.73 801.21 1504.73 Q806.534 1504.73 809.636 1507.17 Q812.738 1509.57 812.738 1513.69 Q812.738 1516.56 811.095 1518.55 Q809.451 1520.52 806.419 1521.29 Z" fill="#000000" fill-rule="evenodd" fill-opacity="1" /><path clip-path="url(#clip060)" d="M 0 0 M1217.18 1508.44 Q1213.56 1508.44 1211.74 1512 Q1209.93 1515.55 1209.93 1522.67 Q1209.93 1529.78 1211.74 1533.35 Q1213.56 1536.89 1217.18 1536.89 Q1220.81 1536.89 1222.62 1533.35 Q1224.44 1529.78 1224.44 1522.67 Q1224.44 1515.55 1222.62 1512 Q1220.81 1508.44 1217.18 1508.44 M1217.18 1504.73 Q1222.99 1504.73 1226.04 1509.34 Q1229.12 1513.92 1229.12 1522.67 Q1229.12 1531.4 1226.04 1536.01 Q1222.99 1540.59 1217.18 1540.59 Q1211.37 1540.59 1208.29 1536.01 Q1205.23 1531.4 1205.23 1522.67 Q1205.23 1513.92 1208.29 1509.34 Q1211.37 1504.73 1217.18 1504.73 Z" fill="#000000" fill-rule="evenodd" fill-opacity="1" /><path clip-path="url(#clip060)" d="M 0 0 M1644.47 1521.29 Q1647.83 1522 1649.7 1524.27 Q1651.6 1526.54 1651.6 1529.87 Q1651.6 1534.99 1648.08 1537.79 Q1644.56 1540.59 1638.08 1540.59 Q1635.91 1540.59 1633.59 1540.15 Q1631.3 1539.73 1628.85 1538.88 L1628.85 1534.36 Q1630.79 1535.5 1633.11 1536.08 Q1635.42 1536.66 1637.94 1536.66 Q1642.34 1536.66 1644.63 1534.92 Q1646.95 1533.18 1646.95 1529.87 Q1646.95 1526.82 1644.8 1525.11 Q1642.67 1523.37 1638.85 1523.37 L1634.82 1523.37 L1634.82 1519.53 L1639.03 1519.53 Q1642.48 1519.53 1644.31 1518.16 Q1646.14 1516.77 1646.14 1514.18 Q1646.14 1511.52 1644.24 1510.11 Q1642.37 1508.67 1638.85 1508.67 Q1636.93 1508.67 1634.73 1509.09 Q1632.53 1509.5 1629.89 1510.38 L1629.89 1506.22 Q1632.55 1505.48 1634.87 1505.11 Q1637.2 1504.73 1639.26 1504.73 Q1644.59 1504.73 1647.69 1507.17 Q1650.79 1509.57 1650.79 1513.69 Q1650.79 1516.56 1649.15 1518.55 Q1647.5 1520.52 1644.47 1521.29 Z" fill="#000000" fill-rule="evenodd" fill-opacity="1" /><path clip-path="url(#clip060)" d="M 0 0 M2063.68 1520.78 Q2060.53 1520.78 2058.68 1522.93 Q2056.85 1525.08 2056.85 1528.83 Q2056.85 1532.56 2058.68 1534.73 Q2060.53 1536.89 2063.68 1536.89 Q2066.83 1536.89 2068.65 1534.73 Q2070.51 1532.56 2070.51 1528.83 Q2070.51 1525.08 2068.65 1522.93 Q2066.83 1520.78 2063.68 1520.78 M2072.96 1506.12 L2072.96 1510.38 Q2071.2 1509.55 2069.39 1509.11 Q2067.61 1508.67 2065.85 1508.67 Q2061.22 1508.67 2058.77 1511.8 Q2056.34 1514.92 2055.99 1521.24 Q2057.36 1519.23 2059.42 1518.16 Q2061.48 1517.07 2063.96 1517.07 Q2069.16 1517.07 2072.17 1520.24 Q2075.21 1523.39 2075.21 1528.83 Q2075.21 1534.16 2072.06 1537.37 Q2068.91 1540.59 2063.68 1540.59 Q2057.68 1540.59 2054.51 1536.01 Q2051.34 1531.4 2051.34 1522.67 Q2051.34 1514.48 2055.23 1509.62 Q2059.12 1504.73 2065.67 1504.73 Q2067.43 1504.73 2069.21 1505.08 Q2071.02 1505.43 2072.96 1506.12 Z" fill="#000000" fill-rule="evenodd" fill-opacity="1" /><path clip-path="url(#clip060)" d="M 0 0 M130.26 1431.51 Q126.649 1431.51 124.82 1435.08 Q123.015 1438.62 123.015 1445.75 Q123.015 1452.86 124.82 1456.42 Q126.649 1459.96 130.26 1459.96 Q133.895 1459.96 135.7 1456.42 Q137.529 1452.86 137.529 1445.75 Q137.529 1438.62 135.7 1435.08 Q133.895 1431.51 130.26 1431.51 M130.26 1427.81 Q136.07 1427.81 139.126 1432.42 Q142.205 1437 142.205 1445.75 Q142.205 1454.48 139.126 1459.08 Q136.07 1463.67 130.26 1463.67 Q124.45 1463.67 121.371 1459.08 Q118.316 1454.48 118.316 1445.75 Q118.316 1437 121.371 1432.42 Q124.45 1427.81 130.26 1427.81 Z" fill="#000000" fill-rule="evenodd" fill-opacity="1" /><path clip-path="url(#clip060)" d="M 0 0 M71.8578 1130.71 L88.1772 1130.71 L88.1772 1134.64 L66.2328 1134.64 L66.2328 1130.71 Q68.8949 1127.95 73.4782 1123.32 Q78.0846 1118.67 79.2652 1117.33 Q81.5105 1114.8 82.3902 1113.07 Q83.2929 1111.31 83.2929 1109.62 Q83.2929 1106.87 81.3485 1105.13 Q79.4272 1103.39 76.3254 1103.39 Q74.1263 1103.39 71.6726 1104.16 Q69.2421 1104.92 66.4643 1106.47 L66.4643 1101.75 Q69.2884 1100.62 71.7421 1100.04 Q74.1958 1099.46 76.2328 1099.46 Q81.6031 1099.46 84.7976 1102.14 Q87.992 1104.83 87.992 1109.32 Q87.992 1111.45 87.1818 1113.37 Q86.3948 1115.27 84.2883 1117.86 Q83.7096 1118.53 80.6078 1121.75 Q77.5059 1124.94 71.8578 1130.71 Z" fill="#000000" fill-rule="evenodd" fill-opacity="1" /><path clip-path="url(#clip060)" d="M 0 0 M103.247 1103.16 Q99.6354 1103.16 97.8068 1106.73 Q96.0012 1110.27 96.0012 1117.4 Q96.0012 1124.5 97.8068 1128.07 Q99.6354 1131.61 103.247 1131.61 Q106.881 1131.61 108.686 1128.07 Q110.515 1124.5 110.515 1117.4 Q110.515 1110.27 108.686 1106.73 Q106.881 1103.16 103.247 1103.16 M103.247 1099.46 Q109.057 1099.46 112.112 1104.06 Q115.191 1108.65 115.191 1117.4 Q115.191 1126.12 112.112 1130.73 Q109.057 1135.31 103.247 1135.31 Q97.4364 1135.31 94.3577 1130.73 Q91.3022 1126.12 91.3022 1117.4 Q91.3022 1108.65 94.3577 1104.06 Q97.4364 1099.46 103.247 1099.46 Z" fill="#000000" fill-rule="evenodd" fill-opacity="1" /><path clip-path="url(#clip060)" d="M 0 0 M130.26 1103.16 Q126.649 1103.16 124.82 1106.73 Q123.015 1110.27 123.015 1117.4 Q123.015 1124.5 124.82 1128.07 Q126.649 1131.61 130.26 1131.61 Q133.895 1131.61 135.7 1128.07 Q137.529 1124.5 137.529 1117.4 Q137.529 1110.27 135.7 1106.73 Q133.895 1103.16 130.26 1103.16 M130.26 1099.46 Q136.07 1099.46 139.126 1104.06 Q142.205 1108.65 142.205 1117.4 Q142.205 1126.12 139.126 1130.73 Q136.07 1135.31 130.26 1135.31 Q124.45 1135.31 121.371 1130.73 Q118.316 1126.12 118.316 1117.4 Q118.316 1108.65 121.371 1104.06 Q124.45 1099.46 130.26 1099.46 Z" fill="#000000" fill-rule="evenodd" fill-opacity="1" /><path clip-path="url(#clip060)" d="M 0 0 M78.5939 775.804 L66.7884 794.253 L78.5939 794.253 L78.5939 775.804 M77.367 771.73 L83.2466 771.73 L83.2466 794.253 L88.1772 794.253 L88.1772 798.142 L83.2466 798.142 L83.2466 806.29 L78.5939 806.29 L78.5939 798.142 L62.9921 798.142 L62.9921 793.628 L77.367 771.73 Z" fill="#000000" fill-rule="evenodd" fill-opacity="1" /><path clip-path="url(#clip060)" d="M 0 0 M103.247 774.808 Q99.6354 774.808 97.8068 778.373 Q96.0012 781.915 96.0012 789.045 Q96.0012 796.151 97.8068 799.716 Q99.6354 803.257 103.247 803.257 Q106.881 803.257 108.686 799.716 Q110.515 796.151 110.515 789.045 Q110.515 781.915 108.686 778.373 Q106.881 774.808 103.247 774.808 M103.247 771.105 Q109.057 771.105 112.112 775.711 Q115.191 780.295 115.191 789.045 Q115.191 797.771 112.112 802.378 Q109.057 806.961 103.247 806.961 Q97.4364 806.961 94.3577 802.378 Q91.3022 797.771 91.3022 789.045 Q91.3022 780.295 94.3577 775.711 Q97.4364 771.105 103.247 771.105 Z" fill="#000000" fill-rule="evenodd" fill-opacity="1" /><path clip-path="url(#clip060)" d="M 0 0 M130.26 774.808 Q126.649 774.808 124.82 778.373 Q123.015 781.915 123.015 789.045 Q123.015 796.151 124.82 799.716 Q126.649 803.257 130.26 803.257 Q133.895 803.257 135.7 799.716 Q137.529 796.151 137.529 789.045 Q137.529 781.915 135.7 778.373 Q133.895 774.808 130.26 774.808 M130.26 771.105 Q136.07 771.105 139.126 775.711 Q142.205 780.295 142.205 789.045 Q142.205 797.771 139.126 802.378 Q136.07 806.961 130.26 806.961 Q124.45 806.961 121.371 802.378 Q118.316 797.771 118.316 789.045 Q118.316 780.295 121.371 775.711 Q124.45 771.105 130.26 771.105 Z" fill="#000000" fill-rule="evenodd" fill-opacity="1" /><path clip-path="url(#clip060)" d="M 0 0 M76.6495 458.793 Q73.5013 458.793 71.6495 460.946 Q69.8208 463.099 69.8208 466.849 Q69.8208 470.576 71.6495 472.752 Q73.5013 474.904 76.6495 474.904 Q79.7976 474.904 81.6263 472.752 Q83.4781 470.576 83.4781 466.849 Q83.4781 463.099 81.6263 460.946 Q79.7976 458.793 76.6495 458.793 M85.9318 444.141 L85.9318 448.4 Q84.1726 447.567 82.367 447.127 Q80.5846 446.687 78.8254 446.687 Q74.1958 446.687 71.7421 449.812 Q69.3115 452.937 68.9643 459.256 Q70.33 457.243 72.3902 456.178 Q74.4504 455.09 76.9272 455.09 Q82.1355 455.09 85.1448 458.261 Q88.1772 461.409 88.1772 466.849 Q88.1772 472.173 85.029 475.391 Q81.8809 478.608 76.6495 478.608 Q70.6541 478.608 67.4828 474.025 Q64.3116 469.418 64.3116 460.692 Q64.3116 452.497 68.2004 447.636 Q72.0893 442.752 78.6402 442.752 Q80.3994 442.752 82.1818 443.099 Q83.9874 443.446 85.9318 444.141 Z" fill="#000000" fill-rule="evenodd" fill-opacity="1" /><path clip-path="url(#clip060)" d="M 0 0 M103.247 446.456 Q99.6354 446.456 97.8068 450.02 Q96.0012 453.562 96.0012 460.692 Q96.0012 467.798 97.8068 471.363 Q99.6354 474.904 103.247 474.904 Q106.881 474.904 108.686 471.363 Q110.515 467.798 110.515 460.692 Q110.515 453.562 108.686 450.02 Q106.881 446.456 103.247 446.456 M103.247 442.752 Q109.057 442.752 112.112 447.358 Q115.191 451.942 115.191 460.692 Q115.191 469.418 112.112 474.025 Q109.057 478.608 103.247 478.608 Q97.4364 478.608 94.3577 474.025 Q91.3022 469.418 91.3022 460.692 Q91.3022 451.942 94.3577 447.358 Q97.4364 442.752 103.247 442.752 Z" fill="#000000" fill-rule="evenodd" fill-opacity="1" /><path clip-path="url(#clip060)" d="M 0 0 M130.26 446.456 Q126.649 446.456 124.82 450.02 Q123.015 453.562 123.015 460.692 Q123.015 467.798 124.82 471.363 Q126.649 474.904 130.26 474.904 Q133.895 474.904 135.7 471.363 Q137.529 467.798 137.529 460.692 Q137.529 453.562 135.7 450.02 Q133.895 446.456 130.26 446.456 M130.26 442.752 Q136.07 442.752 139.126 447.358 Q142.205 451.942 142.205 460.692 Q142.205 469.418 139.126 474.025 Q136.07 478.608 130.26 478.608 Q124.45 478.608 121.371 474.025 Q118.316 469.418 118.316 460.692 Q118.316 451.942 121.371 447.358 Q124.45 442.752 130.26 442.752 Z" fill="#000000" fill-rule="evenodd" fill-opacity="1" /><path clip-path="url(#clip060)" d="M 0 0 M76.3254 133.172 Q72.9921 133.172 71.0708 134.954 Q69.1726 136.737 69.1726 139.862 Q69.1726 142.987 71.0708 144.769 Q72.9921 146.552 76.3254 146.552 Q79.6587 146.552 81.58 144.769 Q83.5013 142.964 83.5013 139.862 Q83.5013 136.737 81.58 134.954 Q79.6819 133.172 76.3254 133.172 M71.6495 131.181 Q68.6402 130.441 66.9504 128.38 Q65.2838 126.32 65.2838 123.357 Q65.2838 119.214 68.2236 116.806 Q71.1865 114.399 76.3254 114.399 Q81.4874 114.399 84.4272 116.806 Q87.367 119.214 87.367 123.357 Q87.367 126.32 85.6772 128.38 Q84.0105 130.441 81.0244 131.181 Q84.404 131.968 86.279 134.26 Q88.1772 136.552 88.1772 139.862 Q88.1772 144.885 85.0985 147.57 Q82.0429 150.255 76.3254 150.255 Q70.6078 150.255 67.5291 147.57 Q64.4736 144.885 64.4736 139.862 Q64.4736 136.552 66.3717 134.26 Q68.2699 131.968 71.6495 131.181 M69.9365 123.797 Q69.9365 126.482 71.6032 127.987 Q73.293 129.491 76.3254 129.491 Q79.3346 129.491 81.0244 127.987 Q82.7374 126.482 82.7374 123.797 Q82.7374 121.112 81.0244 119.607 Q79.3346 118.103 76.3254 118.103 Q73.293 118.103 71.6032 119.607 Q69.9365 121.112 69.9365 123.797 Z" fill="#000000" fill-rule="evenodd" fill-opacity="1" /><path clip-path="url(#clip060)" d="M 0 0 M103.247 118.103 Q99.6354 118.103 97.8068 121.667 Q96.0012 125.209 96.0012 132.339 Q96.0012 139.445 97.8068 143.01 Q99.6354 146.552 103.247 146.552 Q106.881 146.552 108.686 143.01 Q110.515 139.445 110.515 132.339 Q110.515 125.209 108.686 121.667 Q106.881 118.103 103.247 118.103 M103.247 114.399 Q109.057 114.399 112.112 119.005 Q115.191 123.589 115.191 132.339 Q115.191 141.065 112.112 145.672 Q109.057 150.255 103.247 150.255 Q97.4364 150.255 94.3577 145.672 Q91.3022 141.065 91.3022 132.339 Q91.3022 123.589 94.3577 119.005 Q97.4364 114.399 103.247 114.399 Z" fill="#000000" fill-rule="evenodd" fill-opacity="1" /><path clip-path="url(#clip060)" d="M 0 0 M130.26 118.103 Q126.649 118.103 124.82 121.667 Q123.015 125.209 123.015 132.339 Q123.015 139.445 124.82 143.01 Q126.649 146.552 130.26 146.552 Q133.895 146.552 135.7 143.01 Q137.529 139.445 137.529 132.339 Q137.529 125.209 135.7 121.667 Q133.895 118.103 130.26 118.103 M130.26 114.399 Q136.07 114.399 139.126 119.005 Q142.205 123.589 142.205 132.339 Q142.205 141.065 139.126 145.672 Q136.07 150.255 130.26 150.255 Q124.45 150.255 121.371 145.672 Q118.316 141.065 118.316 132.339 Q118.316 123.589 121.371 119.005 Q124.45 114.399 130.26 114.399 Z" fill="#000000" fill-rule="evenodd" fill-opacity="1" /><path clip-path="url(#clip062)" d="
M286.469 1444.07 L286.469 1445.72 L314.672 1445.72 L314.672 1444.07 L286.469 1444.07 L286.469 1444.07  Z
  " fill="#009af9" fill-rule="evenodd" fill-opacity="1"/>
<polyline clip-path="url(#clip062)" style="stroke:#000000; stroke-width:4; stroke-opacity:1; fill:none" points="
  286.469,1444.07 286.469,1445.72 314.672,1445.72 314.672,1444.07 286.469,1444.07 
  "/>
<path clip-path="url(#clip062)" d="
M314.672 1445.72 L314.672 1445.72 L342.875 1445.72 L342.875 1445.72 L314.672 1445.72 L314.672 1445.72  Z
  " fill="#009af9" fill-rule="evenodd" fill-opacity="1"/>
<polyline clip-path="url(#clip062)" style="stroke:#000000; stroke-width:4; stroke-opacity:1; fill:none" points="
  314.672,1445.72 314.672,1445.72 342.875,1445.72 314.672,1445.72 
  "/>
<path clip-path="url(#clip062)" d="
M342.875 1444.07 L342.875 1445.72 L371.079 1445.72 L371.079 1444.07 L342.875 1444.07 L342.875 1444.07  Z
  " fill="#009af9" fill-rule="evenodd" fill-opacity="1"/>
<polyline clip-path="url(#clip062)" style="stroke:#000000; stroke-width:4; stroke-opacity:1; fill:none" points="
  342.875,1444.07 342.875,1445.72 371.079,1445.72 371.079,1444.07 342.875,1444.07 
  "/>
<path clip-path="url(#clip062)" d="
M371.079 1445.72 L371.079 1445.72 L399.282 1445.72 L399.282 1445.72 L371.079 1445.72 L371.079 1445.72  Z
  " fill="#009af9" fill-rule="evenodd" fill-opacity="1"/>
<polyline clip-path="url(#clip062)" style="stroke:#000000; stroke-width:4; stroke-opacity:1; fill:none" points="
  371.079,1445.72 371.079,1445.72 399.282,1445.72 371.079,1445.72 
  "/>
<path clip-path="url(#clip062)" d="
M399.282 1444.07 L399.282 1445.72 L427.485 1445.72 L427.485 1444.07 L399.282 1444.07 L399.282 1444.07  Z
  " fill="#009af9" fill-rule="evenodd" fill-opacity="1"/>
<polyline clip-path="url(#clip062)" style="stroke:#000000; stroke-width:4; stroke-opacity:1; fill:none" points="
  399.282,1444.07 399.282,1445.72 427.485,1445.72 427.485,1444.07 399.282,1444.07 
  "/>
<path clip-path="url(#clip062)" d="
M427.485 1444.07 L427.485 1445.72 L455.688 1445.72 L455.688 1444.07 L427.485 1444.07 L427.485 1444.07  Z
  " fill="#009af9" fill-rule="evenodd" fill-opacity="1"/>
<polyline clip-path="url(#clip062)" style="stroke:#000000; stroke-width:4; stroke-opacity:1; fill:none" points="
  427.485,1444.07 427.485,1445.72 455.688,1445.72 455.688,1444.07 427.485,1444.07 
  "/>
<path clip-path="url(#clip062)" d="
M455.688 1442.43 L455.688 1445.72 L483.891 1445.72 L483.891 1442.43 L455.688 1442.43 L455.688 1442.43  Z
  " fill="#009af9" fill-rule="evenodd" fill-opacity="1"/>
<polyline clip-path="url(#clip062)" style="stroke:#000000; stroke-width:4; stroke-opacity:1; fill:none" points="
  455.688,1442.43 455.688,1445.72 483.891,1445.72 483.891,1442.43 455.688,1442.43 
  "/>
<path clip-path="url(#clip062)" d="
M483.891 1440.79 L483.891 1445.72 L512.095 1445.72 L512.095 1440.79 L483.891 1440.79 L483.891 1440.79  Z
  " fill="#009af9" fill-rule="evenodd" fill-opacity="1"/>
<polyline clip-path="url(#clip062)" style="stroke:#000000; stroke-width:4; stroke-opacity:1; fill:none" points="
  483.891,1440.79 483.891,1445.72 512.095,1445.72 512.095,1440.79 483.891,1440.79 
  "/>
<path clip-path="url(#clip062)" d="
M512.095 1430.94 L512.095 1445.72 L540.298 1445.72 L540.298 1430.94 L512.095 1430.94 L512.095 1430.94  Z
  " fill="#009af9" fill-rule="evenodd" fill-opacity="1"/>
<polyline clip-path="url(#clip062)" style="stroke:#000000; stroke-width:4; stroke-opacity:1; fill:none" points="
  512.095,1430.94 512.095,1445.72 540.298,1445.72 540.298,1430.94 512.095,1430.94 
  "/>
<path clip-path="url(#clip062)" d="
M540.298 1434.22 L540.298 1445.72 L568.501 1445.72 L568.501 1434.22 L540.298 1434.22 L540.298 1434.22  Z
  " fill="#009af9" fill-rule="evenodd" fill-opacity="1"/>
<polyline clip-path="url(#clip062)" style="stroke:#000000; stroke-width:4; stroke-opacity:1; fill:none" points="
  540.298,1434.22 540.298,1445.72 568.501,1445.72 568.501,1434.22 540.298,1434.22 
  "/>
<path clip-path="url(#clip062)" d="
M568.501 1434.22 L568.501 1445.72 L596.704 1445.72 L596.704 1434.22 L568.501 1434.22 L568.501 1434.22  Z
  " fill="#009af9" fill-rule="evenodd" fill-opacity="1"/>
<polyline clip-path="url(#clip062)" style="stroke:#000000; stroke-width:4; stroke-opacity:1; fill:none" points="
  568.501,1434.22 568.501,1445.72 596.704,1445.72 596.704,1434.22 568.501,1434.22 
  "/>
<path clip-path="url(#clip062)" d="
M596.704 1398.1 L596.704 1445.72 L624.908 1445.72 L624.908 1398.1 L596.704 1398.1 L596.704 1398.1  Z
  " fill="#009af9" fill-rule="evenodd" fill-opacity="1"/>
<polyline clip-path="url(#clip062)" style="stroke:#000000; stroke-width:4; stroke-opacity:1; fill:none" points="
  596.704,1398.1 596.704,1445.72 624.908,1445.72 624.908,1398.1 596.704,1398.1 
  "/>
<path clip-path="url(#clip062)" d="
M624.908 1419.45 L624.908 1445.72 L653.111 1445.72 L653.111 1419.45 L624.908 1419.45 L624.908 1419.45  Z
  " fill="#009af9" fill-rule="evenodd" fill-opacity="1"/>
<polyline clip-path="url(#clip062)" style="stroke:#000000; stroke-width:4; stroke-opacity:1; fill:none" points="
  624.908,1419.45 624.908,1445.72 653.111,1445.72 653.111,1419.45 624.908,1419.45 
  "/>
<path clip-path="url(#clip062)" d="
M653.111 1429.3 L653.111 1445.72 L681.314 1445.72 L681.314 1429.3 L653.111 1429.3 L653.111 1429.3  Z
  " fill="#009af9" fill-rule="evenodd" fill-opacity="1"/>
<polyline clip-path="url(#clip062)" style="stroke:#000000; stroke-width:4; stroke-opacity:1; fill:none" points="
  653.111,1429.3 653.111,1445.72 681.314,1445.72 681.314,1429.3 653.111,1429.3 
  "/>
<path clip-path="url(#clip062)" d="
M681.314 1396.46 L681.314 1445.72 L709.517 1445.72 L709.517 1396.46 L681.314 1396.46 L681.314 1396.46  Z
  " fill="#009af9" fill-rule="evenodd" fill-opacity="1"/>
<polyline clip-path="url(#clip062)" style="stroke:#000000; stroke-width:4; stroke-opacity:1; fill:none" points="
  681.314,1396.46 681.314,1445.72 709.517,1445.72 709.517,1396.46 681.314,1396.46 
  "/>
<path clip-path="url(#clip062)" d="
M709.517 1412.88 L709.517 1445.72 L737.721 1445.72 L737.721 1412.88 L709.517 1412.88 L709.517 1412.88  Z
  " fill="#009af9" fill-rule="evenodd" fill-opacity="1"/>
<polyline clip-path="url(#clip062)" style="stroke:#000000; stroke-width:4; stroke-opacity:1; fill:none" points="
  709.517,1412.88 709.517,1445.72 737.721,1445.72 737.721,1412.88 709.517,1412.88 
  "/>
<path clip-path="url(#clip062)" d="
M737.721 1388.25 L737.721 1445.72 L765.924 1445.72 L765.924 1388.25 L737.721 1388.25 L737.721 1388.25  Z
  " fill="#009af9" fill-rule="evenodd" fill-opacity="1"/>
<polyline clip-path="url(#clip062)" style="stroke:#000000; stroke-width:4; stroke-opacity:1; fill:none" points="
  737.721,1388.25 737.721,1445.72 765.924,1445.72 765.924,1388.25 737.721,1388.25 
  "/>
<path clip-path="url(#clip062)" d="
M765.924 1371.84 L765.924 1445.72 L794.127 1445.72 L794.127 1371.84 L765.924 1371.84 L765.924 1371.84  Z
  " fill="#009af9" fill-rule="evenodd" fill-opacity="1"/>
<polyline clip-path="url(#clip062)" style="stroke:#000000; stroke-width:4; stroke-opacity:1; fill:none" points="
  765.924,1371.84 765.924,1445.72 794.127,1445.72 794.127,1371.84 765.924,1371.84 
  "/>
<path clip-path="url(#clip062)" d="
M794.127 1370.19 L794.127 1445.72 L822.33 1445.72 L822.33 1370.19 L794.127 1370.19 L794.127 1370.19  Z
  " fill="#009af9" fill-rule="evenodd" fill-opacity="1"/>
<polyline clip-path="url(#clip062)" style="stroke:#000000; stroke-width:4; stroke-opacity:1; fill:none" points="
  794.127,1370.19 794.127,1445.72 822.33,1445.72 822.33,1370.19 794.127,1370.19 
  "/>
<path clip-path="url(#clip062)" d="
M822.33 1360.34 L822.33 1445.72 L850.533 1445.72 L850.533 1360.34 L822.33 1360.34 L822.33 1360.34  Z
  " fill="#009af9" fill-rule="evenodd" fill-opacity="1"/>
<polyline clip-path="url(#clip062)" style="stroke:#000000; stroke-width:4; stroke-opacity:1; fill:none" points="
  822.33,1360.34 822.33,1445.72 850.533,1445.72 850.533,1360.34 822.33,1360.34 
  "/>
<path clip-path="url(#clip062)" d="
M850.533 1352.14 L850.533 1445.72 L878.737 1445.72 L878.737 1352.14 L850.533 1352.14 L850.533 1352.14  Z
  " fill="#009af9" fill-rule="evenodd" fill-opacity="1"/>
<polyline clip-path="url(#clip062)" style="stroke:#000000; stroke-width:4; stroke-opacity:1; fill:none" points="
  850.533,1352.14 850.533,1445.72 878.737,1445.72 878.737,1352.14 850.533,1352.14 
  "/>
<path clip-path="url(#clip062)" d="
M878.737 1361.99 L878.737 1445.72 L906.94 1445.72 L906.94 1361.99 L878.737 1361.99 L878.737 1361.99  Z
  " fill="#009af9" fill-rule="evenodd" fill-opacity="1"/>
<polyline clip-path="url(#clip062)" style="stroke:#000000; stroke-width:4; stroke-opacity:1; fill:none" points="
  878.737,1361.99 878.737,1445.72 906.94,1445.72 906.94,1361.99 878.737,1361.99 
  "/>
<path clip-path="url(#clip062)" d="
M906.94 1352.14 L906.94 1445.72 L935.143 1445.72 L935.143 1352.14 L906.94 1352.14 L906.94 1352.14  Z
  " fill="#009af9" fill-rule="evenodd" fill-opacity="1"/>
<polyline clip-path="url(#clip062)" style="stroke:#000000; stroke-width:4; stroke-opacity:1; fill:none" points="
  906.94,1352.14 906.94,1445.72 935.143,1445.72 935.143,1352.14 906.94,1352.14 
  "/>
<path clip-path="url(#clip062)" d="
M935.143 1312.73 L935.143 1445.72 L963.346 1445.72 L963.346 1312.73 L935.143 1312.73 L935.143 1312.73  Z
  " fill="#009af9" fill-rule="evenodd" fill-opacity="1"/>
<polyline clip-path="url(#clip062)" style="stroke:#000000; stroke-width:4; stroke-opacity:1; fill:none" points="
  935.143,1312.73 935.143,1445.72 963.346,1445.72 963.346,1312.73 935.143,1312.73 
  "/>
<path clip-path="url(#clip062)" d="
M963.346 1296.32 L963.346 1445.72 L991.55 1445.72 L991.55 1296.32 L963.346 1296.32 L963.346 1296.32  Z
  " fill="#009af9" fill-rule="evenodd" fill-opacity="1"/>
<polyline clip-path="url(#clip062)" style="stroke:#000000; stroke-width:4; stroke-opacity:1; fill:none" points="
  963.346,1296.32 963.346,1445.72 991.55,1445.72 991.55,1296.32 963.346,1296.32 
  "/>
<path clip-path="url(#clip062)" d="
M991.55 1284.82 L991.55 1445.72 L1019.75 1445.72 L1019.75 1284.82 L991.55 1284.82 L991.55 1284.82  Z
  " fill="#009af9" fill-rule="evenodd" fill-opacity="1"/>
<polyline clip-path="url(#clip062)" style="stroke:#000000; stroke-width:4; stroke-opacity:1; fill:none" points="
  991.55,1284.82 991.55,1445.72 1019.75,1445.72 1019.75,1284.82 991.55,1284.82 
  "/>
<path clip-path="url(#clip062)" d="
M1019.75 1317.66 L1019.75 1445.72 L1047.96 1445.72 L1047.96 1317.66 L1019.75 1317.66 L1019.75 1317.66  Z
  " fill="#009af9" fill-rule="evenodd" fill-opacity="1"/>
<polyline clip-path="url(#clip062)" style="stroke:#000000; stroke-width:4; stroke-opacity:1; fill:none" points="
  1019.75,1317.66 1019.75,1445.72 1047.96,1445.72 1047.96,1317.66 1019.75,1317.66 
  "/>
<path clip-path="url(#clip062)" d="
M1047.96 1274.97 L1047.96 1445.72 L1076.16 1445.72 L1076.16 1274.97 L1047.96 1274.97 L1047.96 1274.97  Z
  " fill="#009af9" fill-rule="evenodd" fill-opacity="1"/>
<polyline clip-path="url(#clip062)" style="stroke:#000000; stroke-width:4; stroke-opacity:1; fill:none" points="
  1047.96,1274.97 1047.96,1445.72 1076.16,1445.72 1076.16,1274.97 1047.96,1274.97 
  "/>
<path clip-path="url(#clip062)" d="
M1076.16 1293.03 L1076.16 1445.72 L1104.36 1445.72 L1104.36 1293.03 L1076.16 1293.03 L1076.16 1293.03  Z
  " fill="#009af9" fill-rule="evenodd" fill-opacity="1"/>
<polyline clip-path="url(#clip062)" style="stroke:#000000; stroke-width:4; stroke-opacity:1; fill:none" points="
  1076.16,1293.03 1076.16,1445.72 1104.36,1445.72 1104.36,1293.03 1076.16,1293.03 
  "/>
<path clip-path="url(#clip062)" d="
M1104.36 1271.69 L1104.36 1445.72 L1132.57 1445.72 L1132.57 1271.69 L1104.36 1271.69 L1104.36 1271.69  Z
  " fill="#009af9" fill-rule="evenodd" fill-opacity="1"/>
<polyline clip-path="url(#clip062)" style="stroke:#000000; stroke-width:4; stroke-opacity:1; fill:none" points="
  1104.36,1271.69 1104.36,1445.72 1132.57,1445.72 1132.57,1271.69 1104.36,1271.69 
  "/>
<path clip-path="url(#clip062)" d="
M1132.57 1253.63 L1132.57 1445.72 L1160.77 1445.72 L1160.77 1253.63 L1132.57 1253.63 L1132.57 1253.63  Z
  " fill="#009af9" fill-rule="evenodd" fill-opacity="1"/>
<polyline clip-path="url(#clip062)" style="stroke:#000000; stroke-width:4; stroke-opacity:1; fill:none" points="
  1132.57,1253.63 1132.57,1445.72 1160.77,1445.72 1160.77,1253.63 1132.57,1253.63 
  "/>
<path clip-path="url(#clip062)" d="
M1160.77 1243.78 L1160.77 1445.72 L1188.97 1445.72 L1188.97 1243.78 L1160.77 1243.78 L1160.77 1243.78  Z
  " fill="#009af9" fill-rule="evenodd" fill-opacity="1"/>
<polyline clip-path="url(#clip062)" style="stroke:#000000; stroke-width:4; stroke-opacity:1; fill:none" points="
  1160.77,1243.78 1160.77,1445.72 1188.97,1445.72 1188.97,1243.78 1160.77,1243.78 
  "/>
<path clip-path="url(#clip062)" d="
M1188.97 1250.35 L1188.97 1445.72 L1217.18 1445.72 L1217.18 1250.35 L1188.97 1250.35 L1188.97 1250.35  Z
  " fill="#009af9" fill-rule="evenodd" fill-opacity="1"/>
<polyline clip-path="url(#clip062)" style="stroke:#000000; stroke-width:4; stroke-opacity:1; fill:none" points="
  1188.97,1250.35 1188.97,1445.72 1217.18,1445.72 1217.18,1250.35 1188.97,1250.35 
  "/>
<path clip-path="url(#clip062)" d="
M1217.18 1219.15 L1217.18 1445.72 L1245.38 1445.72 L1245.38 1219.15 L1217.18 1219.15 L1217.18 1219.15  Z
  " fill="#009af9" fill-rule="evenodd" fill-opacity="1"/>
<polyline clip-path="url(#clip062)" style="stroke:#000000; stroke-width:4; stroke-opacity:1; fill:none" points="
  1217.18,1219.15 1217.18,1445.72 1245.38,1445.72 1245.38,1219.15 1217.18,1219.15 
  "/>
<path clip-path="url(#clip062)" d="
M1245.38 1242.14 L1245.38 1445.72 L1273.58 1445.72 L1273.58 1242.14 L1245.38 1242.14 L1245.38 1242.14  Z
  " fill="#009af9" fill-rule="evenodd" fill-opacity="1"/>
<polyline clip-path="url(#clip062)" style="stroke:#000000; stroke-width:4; stroke-opacity:1; fill:none" points="
  1245.38,1242.14 1245.38,1445.72 1273.58,1445.72 1273.58,1242.14 1245.38,1242.14 
  "/>
<path clip-path="url(#clip062)" d="
M1273.58 1209.3 L1273.58 1445.72 L1301.79 1445.72 L1301.79 1209.3 L1273.58 1209.3 L1273.58 1209.3  Z
  " fill="#009af9" fill-rule="evenodd" fill-opacity="1"/>
<polyline clip-path="url(#clip062)" style="stroke:#000000; stroke-width:4; stroke-opacity:1; fill:none" points="
  1273.58,1209.3 1273.58,1445.72 1301.79,1445.72 1301.79,1209.3 1273.58,1209.3 
  "/>
<path clip-path="url(#clip062)" d="
M1301.79 816.92 L1301.79 1445.72 L1329.99 1445.72 L1329.99 816.92 L1301.79 816.92 L1301.79 816.92  Z
  " fill="#009af9" fill-rule="evenodd" fill-opacity="1"/>
<polyline clip-path="url(#clip062)" style="stroke:#000000; stroke-width:4; stroke-opacity:1; fill:none" points="
  1301.79,816.92 1301.79,1445.72 1329.99,1445.72 1329.99,816.92 1301.79,816.92 
  "/>
<path clip-path="url(#clip062)" d="
M1329.99 120.812 L1329.99 1445.72 L1358.19 1445.72 L1358.19 120.812 L1329.99 120.812 L1329.99 120.812  Z
  " fill="#009af9" fill-rule="evenodd" fill-opacity="1"/>
<polyline clip-path="url(#clip062)" style="stroke:#000000; stroke-width:4; stroke-opacity:1; fill:none" points="
  1329.99,120.812 1329.99,1445.72 1358.19,1445.72 1358.19,120.812 1329.99,120.812 
  "/>
<path clip-path="url(#clip062)" d="
M1358.19 87.9763 L1358.19 1445.72 L1386.39 1445.72 L1386.39 87.9763 L1358.19 87.9763 L1358.19 87.9763  Z
  " fill="#009af9" fill-rule="evenodd" fill-opacity="1"/>
<polyline clip-path="url(#clip062)" style="stroke:#000000; stroke-width:4; stroke-opacity:1; fill:none" points="
  1358.19,87.9763 1358.19,1445.72 1386.39,1445.72 1386.39,87.9763 1358.19,87.9763 
  "/>
<path clip-path="url(#clip062)" d="
M1386.39 917.067 L1386.39 1445.72 L1414.6 1445.72 L1414.6 917.067 L1386.39 917.067 L1386.39 917.067  Z
  " fill="#009af9" fill-rule="evenodd" fill-opacity="1"/>
<polyline clip-path="url(#clip062)" style="stroke:#000000; stroke-width:4; stroke-opacity:1; fill:none" points="
  1386.39,917.067 1386.39,1445.72 1414.6,1445.72 1414.6,917.067 1386.39,917.067 
  "/>
<path clip-path="url(#clip062)" d="
M1414.6 1225.72 L1414.6 1445.72 L1442.8 1445.72 L1442.8 1225.72 L1414.6 1225.72 L1414.6 1225.72  Z
  " fill="#009af9" fill-rule="evenodd" fill-opacity="1"/>
<polyline clip-path="url(#clip062)" style="stroke:#000000; stroke-width:4; stroke-opacity:1; fill:none" points="
  1414.6,1225.72 1414.6,1445.72 1442.8,1445.72 1442.8,1225.72 1414.6,1225.72 
  "/>
<path clip-path="url(#clip062)" d="
M1442.8 1296.32 L1442.8 1445.72 L1471 1445.72 L1471 1296.32 L1442.8 1296.32 L1442.8 1296.32  Z
  " fill="#009af9" fill-rule="evenodd" fill-opacity="1"/>
<polyline clip-path="url(#clip062)" style="stroke:#000000; stroke-width:4; stroke-opacity:1; fill:none" points="
  1442.8,1296.32 1442.8,1445.72 1471,1445.72 1471,1296.32 1442.8,1296.32 
  "/>
<path clip-path="url(#clip062)" d="
M1471 1311.09 L1471 1445.72 L1499.21 1445.72 L1499.21 1311.09 L1471 1311.09 L1471 1311.09  Z
  " fill="#009af9" fill-rule="evenodd" fill-opacity="1"/>
<polyline clip-path="url(#clip062)" style="stroke:#000000; stroke-width:4; stroke-opacity:1; fill:none" points="
  1471,1311.09 1471,1445.72 1499.21,1445.72 1499.21,1311.09 1471,1311.09 
  "/>
<path clip-path="url(#clip062)" d="
M1499.21 1327.51 L1499.21 1445.72 L1527.41 1445.72 L1527.41 1327.51 L1499.21 1327.51 L1499.21 1327.51  Z
  " fill="#009af9" fill-rule="evenodd" fill-opacity="1"/>
<polyline clip-path="url(#clip062)" style="stroke:#000000; stroke-width:4; stroke-opacity:1; fill:none" points="
  1499.21,1327.51 1499.21,1445.72 1527.41,1445.72 1527.41,1327.51 1499.21,1327.51 
  "/>
<path clip-path="url(#clip062)" d="
M1527.41 1345.57 L1527.41 1445.72 L1555.61 1445.72 L1555.61 1345.57 L1527.41 1345.57 L1527.41 1345.57  Z
  " fill="#009af9" fill-rule="evenodd" fill-opacity="1"/>
<polyline clip-path="url(#clip062)" style="stroke:#000000; stroke-width:4; stroke-opacity:1; fill:none" points="
  1527.41,1345.57 1527.41,1445.72 1555.61,1445.72 1555.61,1345.57 1527.41,1345.57 
  "/>
<path clip-path="url(#clip062)" d="
M1555.61 1366.91 L1555.61 1445.72 L1583.82 1445.72 L1583.82 1366.91 L1555.61 1366.91 L1555.61 1366.91  Z
  " fill="#009af9" fill-rule="evenodd" fill-opacity="1"/>
<polyline clip-path="url(#clip062)" style="stroke:#000000; stroke-width:4; stroke-opacity:1; fill:none" points="
  1555.61,1366.91 1555.61,1445.72 1583.82,1445.72 1583.82,1366.91 1555.61,1366.91 
  "/>
<path clip-path="url(#clip062)" d="
M1583.82 1375.12 L1583.82 1445.72 L1612.02 1445.72 L1612.02 1375.12 L1583.82 1375.12 L1583.82 1375.12  Z
  " fill="#009af9" fill-rule="evenodd" fill-opacity="1"/>
<polyline clip-path="url(#clip062)" style="stroke:#000000; stroke-width:4; stroke-opacity:1; fill:none" points="
  1583.82,1375.12 1583.82,1445.72 1612.02,1445.72 1612.02,1375.12 1583.82,1375.12 
  "/>
<path clip-path="url(#clip062)" d="
M1612.02 1376.76 L1612.02 1445.72 L1640.22 1445.72 L1640.22 1376.76 L1612.02 1376.76 L1612.02 1376.76  Z
  " fill="#009af9" fill-rule="evenodd" fill-opacity="1"/>
<polyline clip-path="url(#clip062)" style="stroke:#000000; stroke-width:4; stroke-opacity:1; fill:none" points="
  1612.02,1376.76 1612.02,1445.72 1640.22,1445.72 1640.22,1376.76 1612.02,1376.76 
  "/>
<path clip-path="url(#clip062)" d="
M1640.22 1376.76 L1640.22 1445.72 L1668.43 1445.72 L1668.43 1376.76 L1640.22 1376.76 L1640.22 1376.76  Z
  " fill="#009af9" fill-rule="evenodd" fill-opacity="1"/>
<polyline clip-path="url(#clip062)" style="stroke:#000000; stroke-width:4; stroke-opacity:1; fill:none" points="
  1640.22,1376.76 1640.22,1445.72 1668.43,1445.72 1668.43,1376.76 1640.22,1376.76 
  "/>
<path clip-path="url(#clip062)" d="
M1668.43 1391.54 L1668.43 1445.72 L1696.63 1445.72 L1696.63 1391.54 L1668.43 1391.54 L1668.43 1391.54  Z
  " fill="#009af9" fill-rule="evenodd" fill-opacity="1"/>
<polyline clip-path="url(#clip062)" style="stroke:#000000; stroke-width:4; stroke-opacity:1; fill:none" points="
  1668.43,1391.54 1668.43,1445.72 1696.63,1445.72 1696.63,1391.54 1668.43,1391.54 
  "/>
<path clip-path="url(#clip062)" d="
M1696.63 1417.81 L1696.63 1445.72 L1724.83 1445.72 L1724.83 1417.81 L1696.63 1417.81 L1696.63 1417.81  Z
  " fill="#009af9" fill-rule="evenodd" fill-opacity="1"/>
<polyline clip-path="url(#clip062)" style="stroke:#000000; stroke-width:4; stroke-opacity:1; fill:none" points="
  1696.63,1417.81 1696.63,1445.72 1724.83,1445.72 1724.83,1417.81 1696.63,1417.81 
  "/>
<path clip-path="url(#clip062)" d="
M1724.83 1409.6 L1724.83 1445.72 L1753.04 1445.72 L1753.04 1409.6 L1724.83 1409.6 L1724.83 1409.6  Z
  " fill="#009af9" fill-rule="evenodd" fill-opacity="1"/>
<polyline clip-path="url(#clip062)" style="stroke:#000000; stroke-width:4; stroke-opacity:1; fill:none" points="
  1724.83,1409.6 1724.83,1445.72 1753.04,1445.72 1753.04,1409.6 1724.83,1409.6 
  "/>
<path clip-path="url(#clip062)" d="
M1753.04 1412.88 L1753.04 1445.72 L1781.24 1445.72 L1781.24 1412.88 L1753.04 1412.88 L1753.04 1412.88  Z
  " fill="#009af9" fill-rule="evenodd" fill-opacity="1"/>
<polyline clip-path="url(#clip062)" style="stroke:#000000; stroke-width:4; stroke-opacity:1; fill:none" points="
  1753.04,1412.88 1753.04,1445.72 1781.24,1445.72 1781.24,1412.88 1753.04,1412.88 
  "/>
<path clip-path="url(#clip062)" d="
M1781.24 1416.16 L1781.24 1445.72 L1809.44 1445.72 L1809.44 1416.16 L1781.24 1416.16 L1781.24 1416.16  Z
  " fill="#009af9" fill-rule="evenodd" fill-opacity="1"/>
<polyline clip-path="url(#clip062)" style="stroke:#000000; stroke-width:4; stroke-opacity:1; fill:none" points="
  1781.24,1416.16 1781.24,1445.72 1809.44,1445.72 1809.44,1416.16 1781.24,1416.16 
  "/>
<path clip-path="url(#clip062)" d="
M1809.44 1426.01 L1809.44 1445.72 L1837.65 1445.72 L1837.65 1426.01 L1809.44 1426.01 L1809.44 1426.01  Z
  " fill="#009af9" fill-rule="evenodd" fill-opacity="1"/>
<polyline clip-path="url(#clip062)" style="stroke:#000000; stroke-width:4; stroke-opacity:1; fill:none" points="
  1809.44,1426.01 1809.44,1445.72 1837.65,1445.72 1837.65,1426.01 1809.44,1426.01 
  "/>
<path clip-path="url(#clip062)" d="
M1837.65 1435.87 L1837.65 1445.72 L1865.85 1445.72 L1865.85 1435.87 L1837.65 1435.87 L1837.65 1435.87  Z
  " fill="#009af9" fill-rule="evenodd" fill-opacity="1"/>
<polyline clip-path="url(#clip062)" style="stroke:#000000; stroke-width:4; stroke-opacity:1; fill:none" points="
  1837.65,1435.87 1837.65,1445.72 1865.85,1445.72 1865.85,1435.87 1837.65,1435.87 
  "/>
<path clip-path="url(#clip062)" d="
M1865.85 1437.51 L1865.85 1445.72 L1894.05 1445.72 L1894.05 1437.51 L1865.85 1437.51 L1865.85 1437.51  Z
  " fill="#009af9" fill-rule="evenodd" fill-opacity="1"/>
<polyline clip-path="url(#clip062)" style="stroke:#000000; stroke-width:4; stroke-opacity:1; fill:none" points="
  1865.85,1437.51 1865.85,1445.72 1894.05,1445.72 1894.05,1437.51 1865.85,1437.51 
  "/>
<path clip-path="url(#clip062)" d="
M1894.05 1439.15 L1894.05 1445.72 L1922.26 1445.72 L1922.26 1439.15 L1894.05 1439.15 L1894.05 1439.15  Z
  " fill="#009af9" fill-rule="evenodd" fill-opacity="1"/>
<polyline clip-path="url(#clip062)" style="stroke:#000000; stroke-width:4; stroke-opacity:1; fill:none" points="
  1894.05,1439.15 1894.05,1445.72 1922.26,1445.72 1922.26,1439.15 1894.05,1439.15 
  "/>
<path clip-path="url(#clip062)" d="
M1922.26 1444.07 L1922.26 1445.72 L1950.46 1445.72 L1950.46 1444.07 L1922.26 1444.07 L1922.26 1444.07  Z
  " fill="#009af9" fill-rule="evenodd" fill-opacity="1"/>
<polyline clip-path="url(#clip062)" style="stroke:#000000; stroke-width:4; stroke-opacity:1; fill:none" points="
  1922.26,1444.07 1922.26,1445.72 1950.46,1445.72 1950.46,1444.07 1922.26,1444.07 
  "/>
<path clip-path="url(#clip062)" d="
M1950.46 1442.43 L1950.46 1445.72 L1978.66 1445.72 L1978.66 1442.43 L1950.46 1442.43 L1950.46 1442.43  Z
  " fill="#009af9" fill-rule="evenodd" fill-opacity="1"/>
<polyline clip-path="url(#clip062)" style="stroke:#000000; stroke-width:4; stroke-opacity:1; fill:none" points="
  1950.46,1442.43 1950.46,1445.72 1978.66,1445.72 1978.66,1442.43 1950.46,1442.43 
  "/>
<path clip-path="url(#clip062)" d="
M1978.66 1442.43 L1978.66 1445.72 L2006.87 1445.72 L2006.87 1442.43 L1978.66 1442.43 L1978.66 1442.43  Z
  " fill="#009af9" fill-rule="evenodd" fill-opacity="1"/>
<polyline clip-path="url(#clip062)" style="stroke:#000000; stroke-width:4; stroke-opacity:1; fill:none" points="
  1978.66,1442.43 1978.66,1445.72 2006.87,1445.72 2006.87,1442.43 1978.66,1442.43 
  "/>
<path clip-path="url(#clip062)" d="
M2006.87 1440.79 L2006.87 1445.72 L2035.07 1445.72 L2035.07 1440.79 L2006.87 1440.79 L2006.87 1440.79  Z
  " fill="#009af9" fill-rule="evenodd" fill-opacity="1"/>
<polyline clip-path="url(#clip062)" style="stroke:#000000; stroke-width:4; stroke-opacity:1; fill:none" points="
  2006.87,1440.79 2006.87,1445.72 2035.07,1445.72 2035.07,1440.79 2006.87,1440.79 
  "/>
<path clip-path="url(#clip062)" d="
M2035.07 1444.07 L2035.07 1445.72 L2063.27 1445.72 L2063.27 1444.07 L2035.07 1444.07 L2035.07 1444.07  Z
  " fill="#009af9" fill-rule="evenodd" fill-opacity="1"/>
<polyline clip-path="url(#clip062)" style="stroke:#000000; stroke-width:4; stroke-opacity:1; fill:none" points="
  2035.07,1444.07 2035.07,1445.72 2063.27,1445.72 2063.27,1444.07 2035.07,1444.07 
  "/>
<path clip-path="url(#clip062)" d="
M2063.27 1442.43 L2063.27 1445.72 L2091.48 1445.72 L2091.48 1442.43 L2063.27 1442.43 L2063.27 1442.43  Z
  " fill="#009af9" fill-rule="evenodd" fill-opacity="1"/>
<polyline clip-path="url(#clip062)" style="stroke:#000000; stroke-width:4; stroke-opacity:1; fill:none" points="
  2063.27,1442.43 2063.27,1445.72 2091.48,1445.72 2091.48,1442.43 2063.27,1442.43 
  "/>
<path clip-path="url(#clip062)" d="
M2091.48 1445.72 L2091.48 1445.72 L2119.68 1445.72 L2119.68 1445.72 L2091.48 1445.72 L2091.48 1445.72  Z
  " fill="#009af9" fill-rule="evenodd" fill-opacity="1"/>
<polyline clip-path="url(#clip062)" style="stroke:#000000; stroke-width:4; stroke-opacity:1; fill:none" points="
  2091.48,1445.72 2091.48,1445.72 2119.68,1445.72 2091.48,1445.72 
  "/>
<path clip-path="url(#clip062)" d="
M2119.68 1444.07 L2119.68 1445.72 L2147.88 1445.72 L2147.88 1444.07 L2119.68 1444.07 L2119.68 1444.07  Z
  " fill="#009af9" fill-rule="evenodd" fill-opacity="1"/>
<polyline clip-path="url(#clip062)" style="stroke:#000000; stroke-width:4; stroke-opacity:1; fill:none" points="
  2119.68,1444.07 2119.68,1445.72 2147.88,1445.72 2147.88,1444.07 2119.68,1444.07 
  "/>
<path clip-path="url(#clip062)" d="
M2147.88 1445.72 L2147.88 1445.72 L2176.09 1445.72 L2176.09 1445.72 L2147.88 1445.72 L2147.88 1445.72  Z
  " fill="#009af9" fill-rule="evenodd" fill-opacity="1"/>
<polyline clip-path="url(#clip062)" style="stroke:#000000; stroke-width:4; stroke-opacity:1; fill:none" points="
  2147.88,1445.72 2147.88,1445.72 2176.09,1445.72 2147.88,1445.72 
  "/>
<path clip-path="url(#clip062)" d="
M2176.09 1445.72 L2176.09 1445.72 L2204.29 1445.72 L2204.29 1445.72 L2176.09 1445.72 L2176.09 1445.72  Z
  " fill="#009af9" fill-rule="evenodd" fill-opacity="1"/>
<polyline clip-path="url(#clip062)" style="stroke:#000000; stroke-width:4; stroke-opacity:1; fill:none" points="
  2176.09,1445.72 2176.09,1445.72 2204.29,1445.72 2176.09,1445.72 
  "/>
<path clip-path="url(#clip062)" d="
M2204.29 1444.07 L2204.29 1445.72 L2232.49 1445.72 L2232.49 1444.07 L2204.29 1444.07 L2204.29 1444.07  Z
  " fill="#009af9" fill-rule="evenodd" fill-opacity="1"/>
<polyline clip-path="url(#clip062)" style="stroke:#000000; stroke-width:4; stroke-opacity:1; fill:none" points="
  2204.29,1444.07 2204.29,1445.72 2232.49,1445.72 2232.49,1444.07 2204.29,1444.07 
  "/>
<path clip-path="url(#clip060)" d="
M1989.74 251.724 L2280.76 251.724 L2280.76 130.764 L1989.74 130.764  Z
  " fill="#ffffff" fill-rule="evenodd" fill-opacity="1"/>
<polyline clip-path="url(#clip060)" style="stroke:#000000; stroke-width:4; stroke-opacity:1; fill:none" points="
  1989.74,251.724 2280.76,251.724 2280.76,130.764 1989.74,130.764 1989.74,251.724 
  "/>
<path clip-path="url(#clip060)" d="
M2013.74 215.436 L2157.74 215.436 L2157.74 167.052 L2013.74 167.052 L2013.74 215.436  Z
  " fill="#009af9" fill-rule="evenodd" fill-opacity="1"/>
<polyline clip-path="url(#clip060)" style="stroke:#000000; stroke-width:4; stroke-opacity:1; fill:none" points="
  2013.74,215.436 2157.74,215.436 2157.74,167.052 2013.74,167.052 2013.74,215.436 
  "/>
<path clip-path="url(#clip060)" d="M 0 0 M2195.58 210.931 Q2193.77 215.561 2192.06 216.973 Q2190.35 218.385 2187.48 218.385 L2184.08 218.385 L2184.08 214.82 L2186.58 214.82 Q2188.33 214.82 2189.31 213.987 Q2190.28 213.154 2191.46 210.052 L2192.22 208.107 L2181.74 182.598 L2186.25 182.598 L2194.35 202.876 L2202.46 182.598 L2206.97 182.598 L2195.58 210.931 Z" fill="#000000" fill-rule="evenodd" fill-opacity="1" /><path clip-path="url(#clip060)" d="M 0 0 M2212.85 204.589 L2220.49 204.589 L2220.49 178.223 L2212.18 179.89 L2212.18 175.631 L2220.44 173.964 L2225.12 173.964 L2225.12 204.589 L2232.76 204.589 L2232.76 208.524 L2212.85 208.524 L2212.85 204.589 Z" fill="#000000" fill-rule="evenodd" fill-opacity="1" /></svg>
