<?xml version="1.0" encoding="utf-8"?>
<svg xmlns="http://www.w3.org/2000/svg" xmlns:xlink="http://www.w3.org/1999/xlink" width="600" height="400" viewBox="0 0 2400 1600">
<defs>
  <clipPath id="clip980">
    <rect x="0" y="0" width="2400" height="1600"/>
  </clipPath>
</defs>
<path clip-path="url(#clip980)" d="
M0 1600 L2400 1600 L2400 0 L0 0  Z
  " fill="#ffffff" fill-rule="evenodd" fill-opacity="1"/>
<defs>
  <clipPath id="clip981">
    <rect x="480" y="0" width="1681" height="1600"/>
  </clipPath>
</defs>
<path clip-path="url(#clip980)" d="
M166.205 1486.45 L2352.76 1486.45 L2352.76 47.2441 L166.205 47.2441  Z
  " fill="#ffffff" fill-rule="evenodd" fill-opacity="1"/>
<defs>
  <clipPath id="clip982">
    <rect x="166" y="47" width="2188" height="1440"/>
  </clipPath>
</defs>
<polyline clip-path="url(#clip982)" style="stroke:#000000; stroke-width:2; stroke-opacity:0.1; fill:none" points="
  344.559,1486.45 344.559,47.2441 
  "/>
<polyline clip-path="url(#clip982)" style="stroke:#000000; stroke-width:2; stroke-opacity:0.1; fill:none" points="
  635.01,1486.45 635.01,47.2441 
  "/>
<polyline clip-path="url(#clip982)" style="stroke:#000000; stroke-width:2; stroke-opacity:0.1; fill:none" points="
  925.461,1486.45 925.461,47.2441 
  "/>
<polyline clip-path="url(#clip982)" style="stroke:#000000; stroke-width:2; stroke-opacity:0.1; fill:none" points="
  1215.91,1486.45 1215.91,47.2441 
  "/>
<polyline clip-path="url(#clip982)" style="stroke:#000000; stroke-width:2; stroke-opacity:0.1; fill:none" points="
  1506.36,1486.45 1506.36,47.2441 
  "/>
<polyline clip-path="url(#clip982)" style="stroke:#000000; stroke-width:2; stroke-opacity:0.1; fill:none" points="
  1796.81,1486.45 1796.81,47.2441 
  "/>
<polyline clip-path="url(#clip982)" style="stroke:#000000; stroke-width:2; stroke-opacity:0.1; fill:none" points="
  2087.27,1486.45 2087.27,47.2441 
  "/>
<polyline clip-path="url(#clip982)" style="stroke:#000000; stroke-width:2; stroke-opacity:0.1; fill:none" points="
  166.205,1445.72 2352.76,1445.72 
  "/>
<polyline clip-path="url(#clip982)" style="stroke:#000000; stroke-width:2; stroke-opacity:0.1; fill:none" points="
  166.205,1104.15 2352.76,1104.15 
  "/>
<polyline clip-path="url(#clip982)" style="stroke:#000000; stroke-width:2; stroke-opacity:0.1; fill:none" points="
  166.205,762.576 2352.76,762.576 
  "/>
<polyline clip-path="url(#clip982)" style="stroke:#000000; stroke-width:2; stroke-opacity:0.1; fill:none" points="
  166.205,421.007 2352.76,421.007 
  "/>
<polyline clip-path="url(#clip982)" style="stroke:#000000; stroke-width:2; stroke-opacity:0.1; fill:none" points="
  166.205,79.437 2352.76,79.437 
  "/>
<polyline clip-path="url(#clip980)" style="stroke:#000000; stroke-width:4; stroke-opacity:1; fill:none" points="
  166.205,1486.45 2352.76,1486.45 
  "/>
<polyline clip-path="url(#clip980)" style="stroke:#000000; stroke-width:4; stroke-opacity:1; fill:none" points="
  166.205,1486.45 166.205,47.2441 
  "/>
<polyline clip-path="url(#clip980)" style="stroke:#000000; stroke-width:4; stroke-opacity:1; fill:none" points="
  344.559,1486.45 344.559,1469.18 
  "/>
<polyline clip-path="url(#clip980)" style="stroke:#000000; stroke-width:4; stroke-opacity:1; fill:none" points="
  635.01,1486.45 635.01,1469.18 
  "/>
<polyline clip-path="url(#clip980)" style="stroke:#000000; stroke-width:4; stroke-opacity:1; fill:none" points="
  925.461,1486.45 925.461,1469.18 
  "/>
<polyline clip-path="url(#clip980)" style="stroke:#000000; stroke-width:4; stroke-opacity:1; fill:none" points="
  1215.91,1486.45 1215.91,1469.18 
  "/>
<polyline clip-path="url(#clip980)" style="stroke:#000000; stroke-width:4; stroke-opacity:1; fill:none" points="
  1506.36,1486.45 1506.36,1469.18 
  "/>
<polyline clip-path="url(#clip980)" style="stroke:#000000; stroke-width:4; stroke-opacity:1; fill:none" points="
  1796.81,1486.45 1796.81,1469.18 
  "/>
<polyline clip-path="url(#clip980)" style="stroke:#000000; stroke-width:4; stroke-opacity:1; fill:none" points="
  2087.27,1486.45 2087.27,1469.18 
  "/>
<polyline clip-path="url(#clip980)" style="stroke:#000000; stroke-width:4; stroke-opacity:1; fill:none" points="
  166.205,1445.72 192.443,1445.72 
  "/>
<polyline clip-path="url(#clip980)" style="stroke:#000000; stroke-width:4; stroke-opacity:1; fill:none" points="
  166.205,1104.15 192.443,1104.15 
  "/>
<polyline clip-path="url(#clip980)" style="stroke:#000000; stroke-width:4; stroke-opacity:1; fill:none" points="
  166.205,762.576 192.443,762.576 
  "/>
<polyline clip-path="url(#clip980)" style="stroke:#000000; stroke-width:4; stroke-opacity:1; fill:none" points="
  166.205,421.007 192.443,421.007 
  "/>
<polyline clip-path="url(#clip980)" style="stroke:#000000; stroke-width:4; stroke-opacity:1; fill:none" points="
  166.205,79.437 192.443,79.437 
  "/>
<path clip-path="url(#clip980)" d="M 0 0 M316.133 1523.09 L345.809 1523.09 L345.809 1527.03 L316.133 1527.03 L316.133 1523.09 Z" fill="#000000" fill-rule="evenodd" fill-opacity="1" /><path clip-path="url(#clip980)" d="M 0 0 M361.457 1520.78 Q358.309 1520.78 356.457 1522.93 Q354.628 1525.08 354.628 1528.83 Q354.628 1532.56 356.457 1534.73 Q358.309 1536.89 361.457 1536.89 Q364.605 1536.89 366.434 1534.73 Q368.286 1532.56 368.286 1528.83 Q368.286 1525.08 366.434 1522.93 Q364.605 1520.78 361.457 1520.78 M370.74 1506.12 L370.74 1510.38 Q368.98 1509.55 367.175 1509.11 Q365.392 1508.67 363.633 1508.67 Q359.003 1508.67 356.55 1511.8 Q354.119 1514.92 353.772 1521.24 Q355.138 1519.23 357.198 1518.16 Q359.258 1517.07 361.735 1517.07 Q366.943 1517.07 369.952 1520.24 Q372.985 1523.39 372.985 1528.83 Q372.985 1534.16 369.837 1537.37 Q366.689 1540.59 361.457 1540.59 Q355.462 1540.59 352.291 1536.01 Q349.119 1531.4 349.119 1522.67 Q349.119 1514.48 353.008 1509.62 Q356.897 1504.73 363.448 1504.73 Q365.207 1504.73 366.99 1505.08 Q368.795 1505.43 370.74 1506.12 Z" fill="#000000" fill-rule="evenodd" fill-opacity="1" /><path clip-path="url(#clip980)" d="M 0 0 M606.422 1523.09 L636.098 1523.09 L636.098 1527.03 L606.422 1527.03 L606.422 1523.09 Z" fill="#000000" fill-rule="evenodd" fill-opacity="1" /><path clip-path="url(#clip980)" d="M 0 0 M654.015 1509.43 L642.209 1527.88 L654.015 1527.88 L654.015 1509.43 M652.788 1505.36 L658.668 1505.36 L658.668 1527.88 L663.598 1527.88 L663.598 1531.77 L658.668 1531.77 L658.668 1539.92 L654.015 1539.92 L654.015 1531.77 L638.413 1531.77 L638.413 1527.26 L652.788 1505.36 Z" fill="#000000" fill-rule="evenodd" fill-opacity="1" /><path clip-path="url(#clip980)" d="M 0 0 M897.915 1523.09 L927.591 1523.09 L927.591 1527.03 L897.915 1527.03 L897.915 1523.09 Z" fill="#000000" fill-rule="evenodd" fill-opacity="1" /><path clip-path="url(#clip980)" d="M 0 0 M936.688 1535.98 L953.008 1535.98 L953.008 1539.92 L931.063 1539.92 L931.063 1535.98 Q933.725 1533.23 938.309 1528.6 Q942.915 1523.95 944.096 1522.61 Q946.341 1520.08 947.221 1518.35 Q948.123 1516.59 948.123 1514.9 Q948.123 1512.14 946.179 1510.41 Q944.258 1508.67 941.156 1508.67 Q938.957 1508.67 936.503 1509.43 Q934.073 1510.2 931.295 1511.75 L931.295 1507.03 Q934.119 1505.89 936.572 1505.31 Q939.026 1504.73 941.063 1504.73 Q946.434 1504.73 949.628 1507.42 Q952.822 1510.11 952.822 1514.6 Q952.822 1516.73 952.012 1518.65 Q951.225 1520.54 949.119 1523.14 Q948.54 1523.81 945.438 1527.03 Q942.336 1530.22 936.688 1535.98 Z" fill="#000000" fill-rule="evenodd" fill-opacity="1" /><path clip-path="url(#clip980)" d="M 0 0 M1215.91 1508.44 Q1212.3 1508.44 1210.47 1512 Q1208.67 1515.55 1208.67 1522.67 Q1208.67 1529.78 1210.47 1533.35 Q1212.3 1536.89 1215.91 1536.89 Q1219.55 1536.89 1221.35 1533.35 Q1223.18 1529.78 1223.18 1522.67 Q1223.18 1515.55 1221.35 1512 Q1219.55 1508.44 1215.91 1508.44 M1215.91 1504.73 Q1221.72 1504.73 1224.78 1509.34 Q1227.86 1513.92 1227.86 1522.67 Q1227.86 1531.4 1224.78 1536.01 Q1221.72 1540.59 1215.91 1540.59 Q1210.1 1540.59 1207.02 1536.01 Q1203.97 1531.4 1203.97 1522.67 Q1203.97 1513.92 1207.02 1509.34 Q1210.1 1504.73 1215.91 1504.73 Z" fill="#000000" fill-rule="evenodd" fill-opacity="1" /><path clip-path="url(#clip980)" d="M 0 0 M1501.02 1535.98 L1517.34 1535.98 L1517.34 1539.92 L1495.39 1539.92 L1495.39 1535.98 Q1498.05 1533.23 1502.64 1528.6 Q1507.24 1523.95 1508.42 1522.61 Q1510.67 1520.08 1511.55 1518.35 Q1512.45 1516.59 1512.45 1514.9 Q1512.45 1512.14 1510.51 1510.41 Q1508.59 1508.67 1505.48 1508.67 Q1503.29 1508.67 1500.83 1509.43 Q1498.4 1510.2 1495.62 1511.75 L1495.62 1507.03 Q1498.45 1505.89 1500.9 1505.31 Q1503.35 1504.73 1505.39 1504.73 Q1510.76 1504.73 1513.96 1507.42 Q1517.15 1510.11 1517.15 1514.6 Q1517.15 1516.73 1516.34 1518.65 Q1515.55 1520.54 1513.45 1523.14 Q1512.87 1523.81 1509.77 1527.03 Q1506.66 1530.22 1501.02 1535.98 Z" fill="#000000" fill-rule="evenodd" fill-opacity="1" /><path clip-path="url(#clip980)" d="M 0 0 M1799.82 1509.43 L1788.02 1527.88 L1799.82 1527.88 L1799.82 1509.43 M1798.6 1505.36 L1804.48 1505.36 L1804.48 1527.88 L1809.41 1527.88 L1809.41 1531.77 L1804.48 1531.77 L1804.48 1539.92 L1799.82 1539.92 L1799.82 1531.77 L1784.22 1531.77 L1784.22 1527.26 L1798.6 1505.36 Z" fill="#000000" fill-rule="evenodd" fill-opacity="1" /><path clip-path="url(#clip980)" d="M 0 0 M2087.67 1520.78 Q2084.52 1520.78 2082.67 1522.93 Q2080.84 1525.08 2080.84 1528.83 Q2080.84 1532.56 2082.67 1534.73 Q2084.52 1536.89 2087.67 1536.89 Q2090.82 1536.89 2092.65 1534.73 Q2094.5 1532.56 2094.5 1528.83 Q2094.5 1525.08 2092.65 1522.93 Q2090.82 1520.78 2087.67 1520.78 M2096.95 1506.12 L2096.95 1510.38 Q2095.19 1509.55 2093.39 1509.11 Q2091.61 1508.67 2089.85 1508.67 Q2085.22 1508.67 2082.76 1511.8 Q2080.33 1514.92 2079.99 1521.24 Q2081.35 1519.23 2083.41 1518.16 Q2085.47 1517.07 2087.95 1517.07 Q2093.16 1517.07 2096.17 1520.24 Q2099.2 1523.39 2099.2 1528.83 Q2099.2 1534.16 2096.05 1537.37 Q2092.9 1540.59 2087.67 1540.59 Q2081.68 1540.59 2078.5 1536.01 Q2075.33 1531.4 2075.33 1522.67 Q2075.33 1514.48 2079.22 1509.62 Q2083.11 1504.73 2089.66 1504.73 Q2091.42 1504.73 2093.2 1505.08 Q2095.01 1505.43 2096.95 1506.12 Z" fill="#000000" fill-rule="evenodd" fill-opacity="1" /><path clip-path="url(#clip980)" d="M 0 0 M130.26 1431.51 Q126.649 1431.51 124.82 1435.08 Q123.015 1438.62 123.015 1445.75 Q123.015 1452.86 124.82 1456.42 Q126.649 1459.96 130.26 1459.96 Q133.895 1459.96 135.7 1456.42 Q137.529 1452.86 137.529 1445.75 Q137.529 1438.62 135.7 1435.08 Q133.895 1431.51 130.26 1431.51 M130.26 1427.81 Q136.07 1427.81 139.126 1432.42 Q142.205 1437 142.205 1445.75 Q142.205 1454.48 139.126 1459.08 Q136.07 1463.67 130.26 1463.67 Q124.45 1463.67 121.371 1459.08 Q118.316 1454.48 118.316 1445.75 Q118.316 1437 121.371 1432.42 Q124.45 1427.81 130.26 1427.81 Z" fill="#000000" fill-rule="evenodd" fill-opacity="1" /><path clip-path="url(#clip980)" d="M 0 0 M71.8578 1117.49 L88.1772 1117.49 L88.1772 1121.43 L66.2328 1121.43 L66.2328 1117.49 Q68.8949 1114.74 73.4782 1110.11 Q78.0846 1105.45 79.2652 1104.11 Q81.5105 1101.59 82.3902 1099.85 Q83.2929 1098.09 83.2929 1096.4 Q83.2929 1093.65 81.3485 1091.91 Q79.4272 1090.18 76.3254 1090.18 Q74.1263 1090.18 71.6726 1090.94 Q69.2421 1091.7 66.4643 1093.25 L66.4643 1088.53 Q69.2884 1087.4 71.7421 1086.82 Q74.1958 1086.24 76.2328 1086.24 Q81.6031 1086.24 84.7976 1088.93 Q87.992 1091.61 87.992 1096.1 Q87.992 1098.23 87.1818 1100.15 Q86.3948 1102.05 84.2883 1104.64 Q83.7096 1105.32 80.6078 1108.53 Q77.5059 1111.73 71.8578 1117.49 Z" fill="#000000" fill-rule="evenodd" fill-opacity="1" /><path clip-path="url(#clip980)" d="M 0 0 M103.247 1089.94 Q99.6354 1089.94 97.8068 1093.51 Q96.0012 1097.05 96.0012 1104.18 Q96.0012 1111.29 97.8068 1114.85 Q99.6354 1118.39 103.247 1118.39 Q106.881 1118.39 108.686 1114.85 Q110.515 1111.29 110.515 1104.18 Q110.515 1097.05 108.686 1093.51 Q106.881 1089.94 103.247 1089.94 M103.247 1086.24 Q109.057 1086.24 112.112 1090.85 Q115.191 1095.43 115.191 1104.18 Q115.191 1112.91 112.112 1117.51 Q109.057 1122.1 103.247 1122.1 Q97.4364 1122.1 94.3577 1117.51 Q91.3022 1112.91 91.3022 1104.18 Q91.3022 1095.43 94.3577 1090.85 Q97.4364 1086.24 103.247 1086.24 Z" fill="#000000" fill-rule="evenodd" fill-opacity="1" /><path clip-path="url(#clip980)" d="M 0 0 M130.26 1089.94 Q126.649 1089.94 124.82 1093.51 Q123.015 1097.05 123.015 1104.18 Q123.015 1111.29 124.82 1114.85 Q126.649 1118.39 130.26 1118.39 Q133.895 1118.39 135.7 1114.85 Q137.529 1111.29 137.529 1104.18 Q137.529 1097.05 135.7 1093.51 Q133.895 1089.94 130.26 1089.94 M130.26 1086.24 Q136.07 1086.24 139.126 1090.85 Q142.205 1095.43 142.205 1104.18 Q142.205 1112.91 139.126 1117.51 Q136.07 1122.1 130.26 1122.1 Q124.45 1122.1 121.371 1117.51 Q118.316 1112.91 118.316 1104.18 Q118.316 1095.43 121.371 1090.85 Q124.45 1086.24 130.26 1086.24 Z" fill="#000000" fill-rule="evenodd" fill-opacity="1" /><path clip-path="url(#clip980)" d="M 0 0 M78.5939 749.37 L66.7884 767.819 L78.5939 767.819 L78.5939 749.37 M77.367 745.296 L83.2466 745.296 L83.2466 767.819 L88.1772 767.819 L88.1772 771.708 L83.2466 771.708 L83.2466 779.856 L78.5939 779.856 L78.5939 771.708 L62.9921 771.708 L62.9921 767.194 L77.367 745.296 Z" fill="#000000" fill-rule="evenodd" fill-opacity="1" /><path clip-path="url(#clip980)" d="M 0 0 M103.247 748.375 Q99.6354 748.375 97.8068 751.94 Q96.0012 755.481 96.0012 762.611 Q96.0012 769.718 97.8068 773.282 Q99.6354 776.824 103.247 776.824 Q106.881 776.824 108.686 773.282 Q110.515 769.718 110.515 762.611 Q110.515 755.481 108.686 751.94 Q106.881 748.375 103.247 748.375 M103.247 744.671 Q109.057 744.671 112.112 749.278 Q115.191 753.861 115.191 762.611 Q115.191 771.338 112.112 775.944 Q109.057 780.528 103.247 780.528 Q97.4364 780.528 94.3577 775.944 Q91.3022 771.338 91.3022 762.611 Q91.3022 753.861 94.3577 749.278 Q97.4364 744.671 103.247 744.671 Z" fill="#000000" fill-rule="evenodd" fill-opacity="1" /><path clip-path="url(#clip980)" d="M 0 0 M130.26 748.375 Q126.649 748.375 124.82 751.94 Q123.015 755.481 123.015 762.611 Q123.015 769.718 124.82 773.282 Q126.649 776.824 130.26 776.824 Q133.895 776.824 135.7 773.282 Q137.529 769.718 137.529 762.611 Q137.529 755.481 135.7 751.94 Q133.895 748.375 130.26 748.375 M130.26 744.671 Q136.07 744.671 139.126 749.278 Q142.205 753.861 142.205 762.611 Q142.205 771.338 139.126 775.944 Q136.07 780.528 130.26 780.528 Q124.45 780.528 121.371 775.944 Q118.316 771.338 118.316 762.611 Q118.316 753.861 121.371 749.278 Q124.45 744.671 130.26 744.671 Z" fill="#000000" fill-rule="evenodd" fill-opacity="1" /><path clip-path="url(#clip980)" d="M 0 0 M76.6495 419.143 Q73.5013 419.143 71.6495 421.296 Q69.8208 423.449 69.8208 427.199 Q69.8208 430.926 71.6495 433.102 Q73.5013 435.254 76.6495 435.254 Q79.7976 435.254 81.6263 433.102 Q83.4781 430.926 83.4781 427.199 Q83.4781 423.449 81.6263 421.296 Q79.7976 419.143 76.6495 419.143 M85.9318 404.491 L85.9318 408.75 Q84.1726 407.916 82.367 407.477 Q80.5846 407.037 78.8254 407.037 Q74.1958 407.037 71.7421 410.162 Q69.3115 413.287 68.9643 419.606 Q70.33 417.592 72.3902 416.528 Q74.4504 415.44 76.9272 415.44 Q82.1355 415.44 85.1448 418.611 Q88.1772 421.759 88.1772 427.199 Q88.1772 432.523 85.029 435.74 Q81.8809 438.958 76.6495 438.958 Q70.6541 438.958 67.4828 434.375 Q64.3116 429.768 64.3116 421.041 Q64.3116 412.847 68.2004 407.986 Q72.0893 403.102 78.6402 403.102 Q80.3994 403.102 82.1818 403.449 Q83.9874 403.796 85.9318 404.491 Z" fill="#000000" fill-rule="evenodd" fill-opacity="1" /><path clip-path="url(#clip980)" d="M 0 0 M103.247 406.805 Q99.6354 406.805 97.8068 410.37 Q96.0012 413.912 96.0012 421.041 Q96.0012 428.148 97.8068 431.713 Q99.6354 435.254 103.247 435.254 Q106.881 435.254 108.686 431.713 Q110.515 428.148 110.515 421.041 Q110.515 413.912 108.686 410.37 Q106.881 406.805 103.247 406.805 M103.247 403.102 Q109.057 403.102 112.112 407.708 Q115.191 412.291 115.191 421.041 Q115.191 429.768 112.112 434.375 Q109.057 438.958 103.247 438.958 Q97.4364 438.958 94.3577 434.375 Q91.3022 429.768 91.3022 421.041 Q91.3022 412.291 94.3577 407.708 Q97.4364 403.102 103.247 403.102 Z" fill="#000000" fill-rule="evenodd" fill-opacity="1" /><path clip-path="url(#clip980)" d="M 0 0 M130.26 406.805 Q126.649 406.805 124.82 410.37 Q123.015 413.912 123.015 421.041 Q123.015 428.148 124.82 431.713 Q126.649 435.254 130.26 435.254 Q133.895 435.254 135.7 431.713 Q137.529 428.148 137.529 421.041 Q137.529 413.912 135.7 410.37 Q133.895 406.805 130.26 406.805 M130.26 403.102 Q136.07 403.102 139.126 407.708 Q142.205 412.291 142.205 421.041 Q142.205 429.768 139.126 434.375 Q136.07 438.958 130.26 438.958 Q124.45 438.958 121.371 434.375 Q118.316 429.768 118.316 421.041 Q118.316 412.291 121.371 407.708 Q124.45 403.102 130.26 403.102 Z" fill="#000000" fill-rule="evenodd" fill-opacity="1" /><path clip-path="url(#clip980)" d="M 0 0 M76.3254 80.3051 Q72.9921 80.3051 71.0708 82.0875 Q69.1726 83.8699 69.1726 86.9949 Q69.1726 90.1198 71.0708 91.9022 Q72.9921 93.6846 76.3254 93.6846 Q79.6587 93.6846 81.58 91.9022 Q83.5013 90.0967 83.5013 86.9949 Q83.5013 83.8699 81.58 82.0875 Q79.6819 80.3051 76.3254 80.3051 M71.6495 78.3144 Q68.6402 77.5736 66.9504 75.5134 Q65.2838 73.4533 65.2838 70.4903 Q65.2838 66.3468 68.2236 63.9394 Q71.1865 61.532 76.3254 61.532 Q81.4874 61.532 84.4272 63.9394 Q87.367 66.3468 87.367 70.4903 Q87.367 73.4533 85.6772 75.5134 Q84.0105 77.5736 81.0244 78.3144 Q84.404 79.1014 86.279 81.393 Q88.1772 83.6847 88.1772 86.9949 Q88.1772 92.018 85.0985 94.7032 Q82.0429 97.3883 76.3254 97.3883 Q70.6078 97.3883 67.5291 94.7032 Q64.4736 92.018 64.4736 86.9949 Q64.4736 83.6847 66.3717 81.393 Q68.2699 79.1014 71.6495 78.3144 M69.9365 70.9301 Q69.9365 73.6153 71.6032 75.1199 Q73.293 76.6246 76.3254 76.6246 Q79.3346 76.6246 81.0244 75.1199 Q82.7374 73.6153 82.7374 70.9301 Q82.7374 68.245 81.0244 66.7403 Q79.3346 65.2357 76.3254 65.2357 Q73.293 65.2357 71.6032 66.7403 Q69.9365 68.245 69.9365 70.9301 Z" fill="#000000" fill-rule="evenodd" fill-opacity="1" /><path clip-path="url(#clip980)" d="M 0 0 M103.247 65.2357 Q99.6354 65.2357 97.8068 68.8005 Q96.0012 72.3422 96.0012 79.4718 Q96.0012 86.5782 97.8068 90.143 Q99.6354 93.6846 103.247 93.6846 Q106.881 93.6846 108.686 90.143 Q110.515 86.5782 110.515 79.4718 Q110.515 72.3422 108.686 68.8005 Q106.881 65.2357 103.247 65.2357 M103.247 61.532 Q109.057 61.532 112.112 66.1385 Q115.191 70.7218 115.191 79.4718 Q115.191 88.1986 112.112 92.805 Q109.057 97.3883 103.247 97.3883 Q97.4364 97.3883 94.3577 92.805 Q91.3022 88.1986 91.3022 79.4718 Q91.3022 70.7218 94.3577 66.1385 Q97.4364 61.532 103.247 61.532 Z" fill="#000000" fill-rule="evenodd" fill-opacity="1" /><path clip-path="url(#clip980)" d="M 0 0 M130.26 65.2357 Q126.649 65.2357 124.82 68.8005 Q123.015 72.3422 123.015 79.4718 Q123.015 86.5782 124.82 90.143 Q126.649 93.6846 130.26 93.6846 Q133.895 93.6846 135.7 90.143 Q137.529 86.5782 137.529 79.4718 Q137.529 72.3422 135.7 68.8005 Q133.895 65.2357 130.26 65.2357 M130.26 61.532 Q136.07 61.532 139.126 66.1385 Q142.205 70.7218 142.205 79.4718 Q142.205 88.1986 139.126 92.805 Q136.07 97.3883 130.26 97.3883 Q124.45 97.3883 121.371 92.805 Q118.316 88.1986 118.316 79.4718 Q118.316 70.7218 121.371 66.1385 Q124.45 61.532 130.26 61.532 Z" fill="#000000" fill-rule="evenodd" fill-opacity="1" /><path clip-path="url(#clip982)" d="
M286.469 1444.01 L286.469 1445.72 L315.514 1445.72 L315.514 1444.01 L286.469 1444.01 L286.469 1444.01  Z
  " fill="#009af9" fill-rule="evenodd" fill-opacity="1"/>
<polyline clip-path="url(#clip982)" style="stroke:#000000; stroke-width:4; stroke-opacity:1; fill:none" points="
  286.469,1444.01 286.469,1445.72 315.514,1445.72 315.514,1444.01 286.469,1444.01 
  "/>
<path clip-path="url(#clip982)" d="
M315.514 1442.3 L315.514 1445.72 L344.559 1445.72 L344.559 1442.3 L315.514 1442.3 L315.514 1442.3  Z
  " fill="#009af9" fill-rule="evenodd" fill-opacity="1"/>
<polyline clip-path="url(#clip982)" style="stroke:#000000; stroke-width:4; stroke-opacity:1; fill:none" points="
  315.514,1442.3 315.514,1445.72 344.559,1445.72 344.559,1442.3 315.514,1442.3 
  "/>
<path clip-path="url(#clip982)" d="
M344.559 1440.59 L344.559 1445.72 L373.604 1445.72 L373.604 1440.59 L344.559 1440.59 L344.559 1440.59  Z
  " fill="#009af9" fill-rule="evenodd" fill-opacity="1"/>
<polyline clip-path="url(#clip982)" style="stroke:#000000; stroke-width:4; stroke-opacity:1; fill:none" points="
  344.559,1440.59 344.559,1445.72 373.604,1445.72 373.604,1440.59 344.559,1440.59 
  "/>
<path clip-path="url(#clip982)" d="
M373.604 1444.01 L373.604 1445.72 L402.649 1445.72 L402.649 1444.01 L373.604 1444.01 L373.604 1444.01  Z
  " fill="#009af9" fill-rule="evenodd" fill-opacity="1"/>
<polyline clip-path="url(#clip982)" style="stroke:#000000; stroke-width:4; stroke-opacity:1; fill:none" points="
  373.604,1444.01 373.604,1445.72 402.649,1445.72 402.649,1444.01 373.604,1444.01 
  "/>
<path clip-path="url(#clip982)" d="
M402.649 1440.59 L402.649 1445.72 L431.694 1445.72 L431.694 1440.59 L402.649 1440.59 L402.649 1440.59  Z
  " fill="#009af9" fill-rule="evenodd" fill-opacity="1"/>
<polyline clip-path="url(#clip982)" style="stroke:#000000; stroke-width:4; stroke-opacity:1; fill:none" points="
  402.649,1440.59 402.649,1445.72 431.694,1445.72 431.694,1440.59 402.649,1440.59 
  "/>
<path clip-path="url(#clip982)" d="
M431.694 1440.59 L431.694 1445.72 L460.74 1445.72 L460.74 1440.59 L431.694 1440.59 L431.694 1440.59  Z
  " fill="#009af9" fill-rule="evenodd" fill-opacity="1"/>
<polyline clip-path="url(#clip982)" style="stroke:#000000; stroke-width:4; stroke-opacity:1; fill:none" points="
  431.694,1440.59 431.694,1445.72 460.74,1445.72 460.74,1440.59 431.694,1440.59 
  "/>
<path clip-path="url(#clip982)" d="
M460.74 1433.76 L460.74 1445.72 L489.785 1445.72 L489.785 1433.76 L460.74 1433.76 L460.74 1433.76  Z
  " fill="#009af9" fill-rule="evenodd" fill-opacity="1"/>
<polyline clip-path="url(#clip982)" style="stroke:#000000; stroke-width:4; stroke-opacity:1; fill:none" points="
  460.74,1433.76 460.74,1445.72 489.785,1445.72 489.785,1433.76 460.74,1433.76 
  "/>
<path clip-path="url(#clip982)" d="
M489.785 1444.01 L489.785 1445.72 L518.83 1445.72 L518.83 1444.01 L489.785 1444.01 L489.785 1444.01  Z
  " fill="#009af9" fill-rule="evenodd" fill-opacity="1"/>
<polyline clip-path="url(#clip982)" style="stroke:#000000; stroke-width:4; stroke-opacity:1; fill:none" points="
  489.785,1444.01 489.785,1445.72 518.83,1445.72 518.83,1444.01 489.785,1444.01 
  "/>
<path clip-path="url(#clip982)" d="
M518.83 1435.47 L518.83 1445.72 L547.875 1445.72 L547.875 1435.47 L518.83 1435.47 L518.83 1435.47  Z
  " fill="#009af9" fill-rule="evenodd" fill-opacity="1"/>
<polyline clip-path="url(#clip982)" style="stroke:#000000; stroke-width:4; stroke-opacity:1; fill:none" points="
  518.83,1435.47 518.83,1445.72 547.875,1445.72 547.875,1435.47 518.83,1435.47 
  "/>
<path clip-path="url(#clip982)" d="
M547.875 1428.64 L547.875 1445.72 L576.92 1445.72 L576.92 1428.64 L547.875 1428.64 L547.875 1428.64  Z
  " fill="#009af9" fill-rule="evenodd" fill-opacity="1"/>
<polyline clip-path="url(#clip982)" style="stroke:#000000; stroke-width:4; stroke-opacity:1; fill:none" points="
  547.875,1428.64 547.875,1445.72 576.92,1445.72 576.92,1428.64 547.875,1428.64 
  "/>
<path clip-path="url(#clip982)" d="
M576.92 1426.93 L576.92 1445.72 L605.965 1445.72 L605.965 1426.93 L576.92 1426.93 L576.92 1426.93  Z
  " fill="#009af9" fill-rule="evenodd" fill-opacity="1"/>
<polyline clip-path="url(#clip982)" style="stroke:#000000; stroke-width:4; stroke-opacity:1; fill:none" points="
  576.92,1426.93 576.92,1445.72 605.965,1445.72 605.965,1426.93 576.92,1426.93 
  "/>
<path clip-path="url(#clip982)" d="
M605.965 1426.93 L605.965 1445.72 L635.01 1445.72 L635.01 1426.93 L605.965 1426.93 L605.965 1426.93  Z
  " fill="#009af9" fill-rule="evenodd" fill-opacity="1"/>
<polyline clip-path="url(#clip982)" style="stroke:#000000; stroke-width:4; stroke-opacity:1; fill:none" points="
  605.965,1426.93 605.965,1445.72 635.01,1445.72 635.01,1426.93 605.965,1426.93 
  "/>
<path clip-path="url(#clip982)" d="
M635.01 1406.44 L635.01 1445.72 L664.055 1445.72 L664.055 1406.44 L635.01 1406.44 L635.01 1406.44  Z
  " fill="#009af9" fill-rule="evenodd" fill-opacity="1"/>
<polyline clip-path="url(#clip982)" style="stroke:#000000; stroke-width:4; stroke-opacity:1; fill:none" points="
  635.01,1406.44 635.01,1445.72 664.055,1445.72 664.055,1406.44 635.01,1406.44 
  "/>
<path clip-path="url(#clip982)" d="
M664.055 1428.64 L664.055 1445.72 L693.101 1445.72 L693.101 1428.64 L664.055 1428.64 L664.055 1428.64  Z
  " fill="#009af9" fill-rule="evenodd" fill-opacity="1"/>
<polyline clip-path="url(#clip982)" style="stroke:#000000; stroke-width:4; stroke-opacity:1; fill:none" points="
  664.055,1428.64 664.055,1445.72 693.101,1445.72 693.101,1428.64 664.055,1428.64 
  "/>
<path clip-path="url(#clip982)" d="
M693.101 1397.9 L693.101 1445.72 L722.146 1445.72 L722.146 1397.9 L693.101 1397.9 L693.101 1397.9  Z
  " fill="#009af9" fill-rule="evenodd" fill-opacity="1"/>
<polyline clip-path="url(#clip982)" style="stroke:#000000; stroke-width:4; stroke-opacity:1; fill:none" points="
  693.101,1397.9 693.101,1445.72 722.146,1445.72 722.146,1397.9 693.101,1397.9 
  "/>
<path clip-path="url(#clip982)" d="
M722.146 1401.31 L722.146 1445.72 L751.191 1445.72 L751.191 1401.31 L722.146 1401.31 L722.146 1401.31  Z
  " fill="#009af9" fill-rule="evenodd" fill-opacity="1"/>
<polyline clip-path="url(#clip982)" style="stroke:#000000; stroke-width:4; stroke-opacity:1; fill:none" points="
  722.146,1401.31 722.146,1445.72 751.191,1445.72 751.191,1401.31 722.146,1401.31 
  "/>
<path clip-path="url(#clip982)" d="
M751.191 1396.19 L751.191 1445.72 L780.236 1445.72 L780.236 1396.19 L751.191 1396.19 L751.191 1396.19  Z
  " fill="#009af9" fill-rule="evenodd" fill-opacity="1"/>
<polyline clip-path="url(#clip982)" style="stroke:#000000; stroke-width:4; stroke-opacity:1; fill:none" points="
  751.191,1396.19 751.191,1445.72 780.236,1445.72 780.236,1396.19 751.191,1396.19 
  "/>
<path clip-path="url(#clip982)" d="
M780.236 1375.69 L780.236 1445.72 L809.281 1445.72 L809.281 1375.69 L780.236 1375.69 L780.236 1375.69  Z
  " fill="#009af9" fill-rule="evenodd" fill-opacity="1"/>
<polyline clip-path="url(#clip982)" style="stroke:#000000; stroke-width:4; stroke-opacity:1; fill:none" points="
  780.236,1375.69 780.236,1445.72 809.281,1445.72 809.281,1375.69 780.236,1375.69 
  "/>
<path clip-path="url(#clip982)" d="
M809.281 1367.15 L809.281 1445.72 L838.326 1445.72 L838.326 1367.15 L809.281 1367.15 L809.281 1367.15  Z
  " fill="#009af9" fill-rule="evenodd" fill-opacity="1"/>
<polyline clip-path="url(#clip982)" style="stroke:#000000; stroke-width:4; stroke-opacity:1; fill:none" points="
  809.281,1367.15 809.281,1445.72 838.326,1445.72 838.326,1367.15 809.281,1367.15 
  "/>
<path clip-path="url(#clip982)" d="
M838.326 1384.23 L838.326 1445.72 L867.371 1445.72 L867.371 1384.23 L838.326 1384.23 L838.326 1384.23  Z
  " fill="#009af9" fill-rule="evenodd" fill-opacity="1"/>
<polyline clip-path="url(#clip982)" style="stroke:#000000; stroke-width:4; stroke-opacity:1; fill:none" points="
  838.326,1384.23 838.326,1445.72 867.371,1445.72 867.371,1384.23 838.326,1384.23 
  "/>
<path clip-path="url(#clip982)" d="
M867.371 1339.83 L867.371 1445.72 L896.416 1445.72 L896.416 1339.83 L867.371 1339.83 L867.371 1339.83  Z
  " fill="#009af9" fill-rule="evenodd" fill-opacity="1"/>
<polyline clip-path="url(#clip982)" style="stroke:#000000; stroke-width:4; stroke-opacity:1; fill:none" points="
  867.371,1339.83 867.371,1445.72 896.416,1445.72 896.416,1339.83 867.371,1339.83 
  "/>
<path clip-path="url(#clip982)" d="
M896.416 1326.17 L896.416 1445.72 L925.461 1445.72 L925.461 1326.17 L896.416 1326.17 L896.416 1326.17  Z
  " fill="#009af9" fill-rule="evenodd" fill-opacity="1"/>
<polyline clip-path="url(#clip982)" style="stroke:#000000; stroke-width:4; stroke-opacity:1; fill:none" points="
  896.416,1326.17 896.416,1445.72 925.461,1445.72 925.461,1326.17 896.416,1326.17 
  "/>
<path clip-path="url(#clip982)" d="
M925.461 1271.52 L925.461 1445.72 L954.507 1445.72 L954.507 1271.52 L925.461 1271.52 L925.461 1271.52  Z
  " fill="#009af9" fill-rule="evenodd" fill-opacity="1"/>
<polyline clip-path="url(#clip982)" style="stroke:#000000; stroke-width:4; stroke-opacity:1; fill:none" points="
  925.461,1271.52 925.461,1445.72 954.507,1445.72 954.507,1271.52 925.461,1271.52 
  "/>
<path clip-path="url(#clip982)" d="
M954.507 1300.55 L954.507 1445.72 L983.552 1445.72 L983.552 1300.55 L954.507 1300.55 L954.507 1300.55  Z
  " fill="#009af9" fill-rule="evenodd" fill-opacity="1"/>
<polyline clip-path="url(#clip982)" style="stroke:#000000; stroke-width:4; stroke-opacity:1; fill:none" points="
  954.507,1300.55 954.507,1445.72 983.552,1445.72 983.552,1300.55 954.507,1300.55 
  "/>
<path clip-path="url(#clip982)" d="
M983.552 1298.84 L983.552 1445.72 L1012.6 1445.72 L1012.6 1298.84 L983.552 1298.84 L983.552 1298.84  Z
  " fill="#009af9" fill-rule="evenodd" fill-opacity="1"/>
<polyline clip-path="url(#clip982)" style="stroke:#000000; stroke-width:4; stroke-opacity:1; fill:none" points="
  983.552,1298.84 983.552,1445.72 1012.6,1445.72 1012.6,1298.84 983.552,1298.84 
  "/>
<path clip-path="url(#clip982)" d="
M1012.6 1271.52 L1012.6 1445.72 L1041.64 1445.72 L1041.64 1271.52 L1012.6 1271.52 L1012.6 1271.52  Z
  " fill="#009af9" fill-rule="evenodd" fill-opacity="1"/>
<polyline clip-path="url(#clip982)" style="stroke:#000000; stroke-width:4; stroke-opacity:1; fill:none" points="
  1012.6,1271.52 1012.6,1445.72 1041.64,1445.72 1041.64,1271.52 1012.6,1271.52 
  "/>
<path clip-path="url(#clip982)" d="
M1041.64 1273.22 L1041.64 1445.72 L1070.69 1445.72 L1070.69 1273.22 L1041.64 1273.22 L1041.64 1273.22  Z
  " fill="#009af9" fill-rule="evenodd" fill-opacity="1"/>
<polyline clip-path="url(#clip982)" style="stroke:#000000; stroke-width:4; stroke-opacity:1; fill:none" points="
  1041.64,1273.22 1041.64,1445.72 1070.69,1445.72 1070.69,1273.22 1041.64,1273.22 
  "/>
<path clip-path="url(#clip982)" d="
M1070.69 1232.23 L1070.69 1445.72 L1099.73 1445.72 L1099.73 1232.23 L1070.69 1232.23 L1070.69 1232.23  Z
  " fill="#009af9" fill-rule="evenodd" fill-opacity="1"/>
<polyline clip-path="url(#clip982)" style="stroke:#000000; stroke-width:4; stroke-opacity:1; fill:none" points="
  1070.69,1232.23 1070.69,1445.72 1099.73,1445.72 1099.73,1232.23 1070.69,1232.23 
  "/>
<path clip-path="url(#clip982)" d="
M1099.73 1232.23 L1099.73 1445.72 L1128.78 1445.72 L1128.78 1232.23 L1099.73 1232.23 L1099.73 1232.23  Z
  " fill="#009af9" fill-rule="evenodd" fill-opacity="1"/>
<polyline clip-path="url(#clip982)" style="stroke:#000000; stroke-width:4; stroke-opacity:1; fill:none" points="
  1099.73,1232.23 1099.73,1445.72 1128.78,1445.72 1128.78,1232.23 1099.73,1232.23 
  "/>
<path clip-path="url(#clip982)" d="
M1128.78 1244.19 L1128.78 1445.72 L1157.82 1445.72 L1157.82 1244.19 L1128.78 1244.19 L1128.78 1244.19  Z
  " fill="#009af9" fill-rule="evenodd" fill-opacity="1"/>
<polyline clip-path="url(#clip982)" style="stroke:#000000; stroke-width:4; stroke-opacity:1; fill:none" points="
  1128.78,1244.19 1128.78,1445.72 1157.82,1445.72 1157.82,1244.19 1128.78,1244.19 
  "/>
<path clip-path="url(#clip982)" d="
M1157.82 1249.31 L1157.82 1445.72 L1186.87 1445.72 L1186.87 1249.31 L1157.82 1249.31 L1157.82 1249.31  Z
  " fill="#009af9" fill-rule="evenodd" fill-opacity="1"/>
<polyline clip-path="url(#clip982)" style="stroke:#000000; stroke-width:4; stroke-opacity:1; fill:none" points="
  1157.82,1249.31 1157.82,1445.72 1186.87,1445.72 1186.87,1249.31 1157.82,1249.31 
  "/>
<path clip-path="url(#clip982)" d="
M1186.87 1225.4 L1186.87 1445.72 L1215.91 1445.72 L1215.91 1225.4 L1186.87 1225.4 L1186.87 1225.4  Z
  " fill="#009af9" fill-rule="evenodd" fill-opacity="1"/>
<polyline clip-path="url(#clip982)" style="stroke:#000000; stroke-width:4; stroke-opacity:1; fill:none" points="
  1186.87,1225.4 1186.87,1445.72 1215.91,1445.72 1215.91,1225.4 1186.87,1225.4 
  "/>
<path clip-path="url(#clip982)" d="
M1215.91 1232.23 L1215.91 1445.72 L1244.96 1445.72 L1244.96 1232.23 L1215.91 1232.23 L1215.91 1232.23  Z
  " fill="#009af9" fill-rule="evenodd" fill-opacity="1"/>
<polyline clip-path="url(#clip982)" style="stroke:#000000; stroke-width:4; stroke-opacity:1; fill:none" points="
  1215.91,1232.23 1215.91,1445.72 1244.96,1445.72 1244.96,1232.23 1215.91,1232.23 
  "/>
<path clip-path="url(#clip982)" d="
M1244.96 1210.03 L1244.96 1445.72 L1274 1445.72 L1274 1210.03 L1244.96 1210.03 L1244.96 1210.03  Z
  " fill="#009af9" fill-rule="evenodd" fill-opacity="1"/>
<polyline clip-path="url(#clip982)" style="stroke:#000000; stroke-width:4; stroke-opacity:1; fill:none" points="
  1244.96,1210.03 1244.96,1445.72 1274,1445.72 1274,1210.03 1244.96,1210.03 
  "/>
<path clip-path="url(#clip982)" d="
M1274 1175.88 L1274 1445.72 L1303.05 1445.72 L1303.05 1175.88 L1274 1175.88 L1274 1175.88  Z
  " fill="#009af9" fill-rule="evenodd" fill-opacity="1"/>
<polyline clip-path="url(#clip982)" style="stroke:#000000; stroke-width:4; stroke-opacity:1; fill:none" points="
  1274,1175.88 1274,1445.72 1303.05,1445.72 1303.05,1175.88 1274,1175.88 
  "/>
<path clip-path="url(#clip982)" d="
M1303.05 818.935 L1303.05 1445.72 L1332.09 1445.72 L1332.09 818.935 L1303.05 818.935 L1303.05 818.935  Z
  " fill="#009af9" fill-rule="evenodd" fill-opacity="1"/>
<polyline clip-path="url(#clip982)" style="stroke:#000000; stroke-width:4; stroke-opacity:1; fill:none" points="
  1303.05,818.935 1303.05,1445.72 1332.09,1445.72 1332.09,818.935 1303.05,818.935 
  "/>
<path clip-path="url(#clip982)" d="
M1332.09 87.9763 L1332.09 1445.72 L1361.14 1445.72 L1361.14 87.9763 L1332.09 87.9763 L1332.09 87.9763  Z
  " fill="#009af9" fill-rule="evenodd" fill-opacity="1"/>
<polyline clip-path="url(#clip982)" style="stroke:#000000; stroke-width:4; stroke-opacity:1; fill:none" points="
  1332.09,87.9763 1332.09,1445.72 1361.14,1445.72 1361.14,87.9763 1332.09,87.9763 
  "/>
<path clip-path="url(#clip982)" d="
M1361.14 127.257 L1361.14 1445.72 L1390.18 1445.72 L1390.18 127.257 L1361.14 127.257 L1361.14 127.257  Z
  " fill="#009af9" fill-rule="evenodd" fill-opacity="1"/>
<polyline clip-path="url(#clip982)" style="stroke:#000000; stroke-width:4; stroke-opacity:1; fill:none" points="
  1361.14,127.257 1361.14,1445.72 1390.18,1445.72 1390.18,127.257 1361.14,127.257 
  "/>
<path clip-path="url(#clip982)" d="
M1390.18 861.632 L1390.18 1445.72 L1419.23 1445.72 L1419.23 861.632 L1390.18 861.632 L1390.18 861.632  Z
  " fill="#009af9" fill-rule="evenodd" fill-opacity="1"/>
<polyline clip-path="url(#clip982)" style="stroke:#000000; stroke-width:4; stroke-opacity:1; fill:none" points="
  1390.18,861.632 1390.18,1445.72 1419.23,1445.72 1419.23,861.632 1390.18,861.632 
  "/>
<path clip-path="url(#clip982)" d="
M1419.23 1244.19 L1419.23 1445.72 L1448.27 1445.72 L1448.27 1244.19 L1419.23 1244.19 L1419.23 1244.19  Z
  " fill="#009af9" fill-rule="evenodd" fill-opacity="1"/>
<polyline clip-path="url(#clip982)" style="stroke:#000000; stroke-width:4; stroke-opacity:1; fill:none" points="
  1419.23,1244.19 1419.23,1445.72 1448.27,1445.72 1448.27,1244.19 1419.23,1244.19 
  "/>
<path clip-path="url(#clip982)" d="
M1448.27 1297.13 L1448.27 1445.72 L1477.32 1445.72 L1477.32 1297.13 L1448.27 1297.13 L1448.27 1297.13  Z
  " fill="#009af9" fill-rule="evenodd" fill-opacity="1"/>
<polyline clip-path="url(#clip982)" style="stroke:#000000; stroke-width:4; stroke-opacity:1; fill:none" points="
  1448.27,1297.13 1448.27,1445.72 1477.32,1445.72 1477.32,1297.13 1448.27,1297.13 
  "/>
<path clip-path="url(#clip982)" d="
M1477.32 1322.75 L1477.32 1445.72 L1506.36 1445.72 L1506.36 1322.75 L1477.32 1322.75 L1477.32 1322.75  Z
  " fill="#009af9" fill-rule="evenodd" fill-opacity="1"/>
<polyline clip-path="url(#clip982)" style="stroke:#000000; stroke-width:4; stroke-opacity:1; fill:none" points="
  1477.32,1322.75 1477.32,1445.72 1506.36,1445.72 1506.36,1322.75 1477.32,1322.75 
  "/>
<path clip-path="url(#clip982)" d="
M1506.36 1307.38 L1506.36 1445.72 L1535.41 1445.72 L1535.41 1307.38 L1506.36 1307.38 L1506.36 1307.38  Z
  " fill="#009af9" fill-rule="evenodd" fill-opacity="1"/>
<polyline clip-path="url(#clip982)" style="stroke:#000000; stroke-width:4; stroke-opacity:1; fill:none" points="
  1506.36,1307.38 1506.36,1445.72 1535.41,1445.72 1535.41,1307.38 1506.36,1307.38 
  "/>
<path clip-path="url(#clip982)" d="
M1535.41 1326.17 L1535.41 1445.72 L1564.45 1445.72 L1564.45 1326.17 L1535.41 1326.17 L1535.41 1326.17  Z
  " fill="#009af9" fill-rule="evenodd" fill-opacity="1"/>
<polyline clip-path="url(#clip982)" style="stroke:#000000; stroke-width:4; stroke-opacity:1; fill:none" points="
  1535.41,1326.17 1535.41,1445.72 1564.45,1445.72 1564.45,1326.17 1535.41,1326.17 
  "/>
<path clip-path="url(#clip982)" d="
M1564.45 1331.29 L1564.45 1445.72 L1593.5 1445.72 L1593.5 1331.29 L1564.45 1331.29 L1564.45 1331.29  Z
  " fill="#009af9" fill-rule="evenodd" fill-opacity="1"/>
<polyline clip-path="url(#clip982)" style="stroke:#000000; stroke-width:4; stroke-opacity:1; fill:none" points="
  1564.45,1331.29 1564.45,1445.72 1593.5,1445.72 1593.5,1331.29 1564.45,1331.29 
  "/>
<path clip-path="url(#clip982)" d="
M1593.5 1382.53 L1593.5 1445.72 L1622.54 1445.72 L1622.54 1382.53 L1593.5 1382.53 L1593.5 1382.53  Z
  " fill="#009af9" fill-rule="evenodd" fill-opacity="1"/>
<polyline clip-path="url(#clip982)" style="stroke:#000000; stroke-width:4; stroke-opacity:1; fill:none" points="
  1593.5,1382.53 1593.5,1445.72 1622.54,1445.72 1622.54,1382.53 1593.5,1382.53 
  "/>
<path clip-path="url(#clip982)" d="
M1622.54 1385.94 L1622.54 1445.72 L1651.59 1445.72 L1651.59 1385.94 L1622.54 1385.94 L1622.54 1385.94  Z
  " fill="#009af9" fill-rule="evenodd" fill-opacity="1"/>
<polyline clip-path="url(#clip982)" style="stroke:#000000; stroke-width:4; stroke-opacity:1; fill:none" points="
  1622.54,1385.94 1622.54,1445.72 1651.59,1445.72 1651.59,1385.94 1622.54,1385.94 
  "/>
<path clip-path="url(#clip982)" d="
M1651.59 1370.57 L1651.59 1445.72 L1680.63 1445.72 L1680.63 1370.57 L1651.59 1370.57 L1651.59 1370.57  Z
  " fill="#009af9" fill-rule="evenodd" fill-opacity="1"/>
<polyline clip-path="url(#clip982)" style="stroke:#000000; stroke-width:4; stroke-opacity:1; fill:none" points="
  1651.59,1370.57 1651.59,1445.72 1680.63,1445.72 1680.63,1370.57 1651.59,1370.57 
  "/>
<path clip-path="url(#clip982)" d="
M1680.63 1392.77 L1680.63 1445.72 L1709.68 1445.72 L1709.68 1392.77 L1680.63 1392.77 L1680.63 1392.77  Z
  " fill="#009af9" fill-rule="evenodd" fill-opacity="1"/>
<polyline clip-path="url(#clip982)" style="stroke:#000000; stroke-width:4; stroke-opacity:1; fill:none" points="
  1680.63,1392.77 1680.63,1445.72 1709.68,1445.72 1709.68,1392.77 1680.63,1392.77 
  "/>
<path clip-path="url(#clip982)" d="
M1709.68 1396.19 L1709.68 1445.72 L1738.72 1445.72 L1738.72 1396.19 L1709.68 1396.19 L1709.68 1396.19  Z
  " fill="#009af9" fill-rule="evenodd" fill-opacity="1"/>
<polyline clip-path="url(#clip982)" style="stroke:#000000; stroke-width:4; stroke-opacity:1; fill:none" points="
  1709.68,1396.19 1709.68,1445.72 1738.72,1445.72 1738.72,1396.19 1709.68,1396.19 
  "/>
<path clip-path="url(#clip982)" d="
M1738.72 1408.14 L1738.72 1445.72 L1767.77 1445.72 L1767.77 1408.14 L1738.72 1408.14 L1738.72 1408.14  Z
  " fill="#009af9" fill-rule="evenodd" fill-opacity="1"/>
<polyline clip-path="url(#clip982)" style="stroke:#000000; stroke-width:4; stroke-opacity:1; fill:none" points="
  1738.72,1408.14 1738.72,1445.72 1767.77,1445.72 1767.77,1408.14 1738.72,1408.14 
  "/>
<path clip-path="url(#clip982)" d="
M1767.77 1406.44 L1767.77 1445.72 L1796.81 1445.72 L1796.81 1406.44 L1767.77 1406.44 L1767.77 1406.44  Z
  " fill="#009af9" fill-rule="evenodd" fill-opacity="1"/>
<polyline clip-path="url(#clip982)" style="stroke:#000000; stroke-width:4; stroke-opacity:1; fill:none" points="
  1767.77,1406.44 1767.77,1445.72 1796.81,1445.72 1796.81,1406.44 1767.77,1406.44 
  "/>
<path clip-path="url(#clip982)" d="
M1796.81 1421.81 L1796.81 1445.72 L1825.86 1445.72 L1825.86 1421.81 L1796.81 1421.81 L1796.81 1421.81  Z
  " fill="#009af9" fill-rule="evenodd" fill-opacity="1"/>
<polyline clip-path="url(#clip982)" style="stroke:#000000; stroke-width:4; stroke-opacity:1; fill:none" points="
  1796.81,1421.81 1796.81,1445.72 1825.86,1445.72 1825.86,1421.81 1796.81,1421.81 
  "/>
<path clip-path="url(#clip982)" d="
M1825.86 1421.81 L1825.86 1445.72 L1854.91 1445.72 L1854.91 1421.81 L1825.86 1421.81 L1825.86 1421.81  Z
  " fill="#009af9" fill-rule="evenodd" fill-opacity="1"/>
<polyline clip-path="url(#clip982)" style="stroke:#000000; stroke-width:4; stroke-opacity:1; fill:none" points="
  1825.86,1421.81 1825.86,1445.72 1854.91,1445.72 1854.91,1421.81 1825.86,1421.81 
  "/>
<path clip-path="url(#clip982)" d="
M1854.91 1432.05 L1854.91 1445.72 L1883.95 1445.72 L1883.95 1432.05 L1854.91 1432.05 L1854.91 1432.05  Z
  " fill="#009af9" fill-rule="evenodd" fill-opacity="1"/>
<polyline clip-path="url(#clip982)" style="stroke:#000000; stroke-width:4; stroke-opacity:1; fill:none" points="
  1854.91,1432.05 1854.91,1445.72 1883.95,1445.72 1883.95,1432.05 1854.91,1432.05 
  "/>
<path clip-path="url(#clip982)" d="
M1883.95 1435.47 L1883.95 1445.72 L1913 1445.72 L1913 1435.47 L1883.95 1435.47 L1883.95 1435.47  Z
  " fill="#009af9" fill-rule="evenodd" fill-opacity="1"/>
<polyline clip-path="url(#clip982)" style="stroke:#000000; stroke-width:4; stroke-opacity:1; fill:none" points="
  1883.95,1435.47 1883.95,1445.72 1913,1445.72 1913,1435.47 1883.95,1435.47 
  "/>
<path clip-path="url(#clip982)" d="
M1913 1440.59 L1913 1445.72 L1942.04 1445.72 L1942.04 1440.59 L1913 1440.59 L1913 1440.59  Z
  " fill="#009af9" fill-rule="evenodd" fill-opacity="1"/>
<polyline clip-path="url(#clip982)" style="stroke:#000000; stroke-width:4; stroke-opacity:1; fill:none" points="
  1913,1440.59 1913,1445.72 1942.04,1445.72 1942.04,1440.59 1913,1440.59 
  "/>
<path clip-path="url(#clip982)" d="
M1942.04 1437.18 L1942.04 1445.72 L1971.09 1445.72 L1971.09 1437.18 L1942.04 1437.18 L1942.04 1437.18  Z
  " fill="#009af9" fill-rule="evenodd" fill-opacity="1"/>
<polyline clip-path="url(#clip982)" style="stroke:#000000; stroke-width:4; stroke-opacity:1; fill:none" points="
  1942.04,1437.18 1942.04,1445.72 1971.09,1445.72 1971.09,1437.18 1942.04,1437.18 
  "/>
<path clip-path="url(#clip982)" d="
M1971.09 1430.35 L1971.09 1445.72 L2000.13 1445.72 L2000.13 1430.35 L1971.09 1430.35 L1971.09 1430.35  Z
  " fill="#009af9" fill-rule="evenodd" fill-opacity="1"/>
<polyline clip-path="url(#clip982)" style="stroke:#000000; stroke-width:4; stroke-opacity:1; fill:none" points="
  1971.09,1430.35 1971.09,1445.72 2000.13,1445.72 2000.13,1430.35 1971.09,1430.35 
  "/>
<path clip-path="url(#clip982)" d="
M2000.13 1440.59 L2000.13 1445.72 L2029.18 1445.72 L2029.18 1440.59 L2000.13 1440.59 L2000.13 1440.59  Z
  " fill="#009af9" fill-rule="evenodd" fill-opacity="1"/>
<polyline clip-path="url(#clip982)" style="stroke:#000000; stroke-width:4; stroke-opacity:1; fill:none" points="
  2000.13,1440.59 2000.13,1445.72 2029.18,1445.72 2029.18,1440.59 2000.13,1440.59 
  "/>
<path clip-path="url(#clip982)" d="
M2029.18 1445.72 L2029.18 1445.72 L2058.22 1445.72 L2058.22 1445.72 L2029.18 1445.72 L2029.18 1445.72  Z
  " fill="#009af9" fill-rule="evenodd" fill-opacity="1"/>
<polyline clip-path="url(#clip982)" style="stroke:#000000; stroke-width:4; stroke-opacity:1; fill:none" points="
  2029.18,1445.72 2029.18,1445.72 2058.22,1445.72 2029.18,1445.72 
  "/>
<path clip-path="url(#clip982)" d="
M2058.22 1440.59 L2058.22 1445.72 L2087.27 1445.72 L2087.27 1440.59 L2058.22 1440.59 L2058.22 1440.59  Z
  " fill="#009af9" fill-rule="evenodd" fill-opacity="1"/>
<polyline clip-path="url(#clip982)" style="stroke:#000000; stroke-width:4; stroke-opacity:1; fill:none" points="
  2058.22,1440.59 2058.22,1445.72 2087.27,1445.72 2087.27,1440.59 2058.22,1440.59 
  "/>
<path clip-path="url(#clip982)" d="
M2087.27 1444.01 L2087.27 1445.72 L2116.31 1445.72 L2116.31 1444.01 L2087.27 1444.01 L2087.27 1444.01  Z
  " fill="#009af9" fill-rule="evenodd" fill-opacity="1"/>
<polyline clip-path="url(#clip982)" style="stroke:#000000; stroke-width:4; stroke-opacity:1; fill:none" points="
  2087.27,1444.01 2087.27,1445.72 2116.31,1445.72 2116.31,1444.01 2087.27,1444.01 
  "/>
<path clip-path="url(#clip982)" d="
M2116.31 1444.01 L2116.31 1445.72 L2145.36 1445.72 L2145.36 1444.01 L2116.31 1444.01 L2116.31 1444.01  Z
  " fill="#009af9" fill-rule="evenodd" fill-opacity="1"/>
<polyline clip-path="url(#clip982)" style="stroke:#000000; stroke-width:4; stroke-opacity:1; fill:none" points="
  2116.31,1444.01 2116.31,1445.72 2145.36,1445.72 2145.36,1444.01 2116.31,1444.01 
  "/>
<path clip-path="url(#clip982)" d="
M2145.36 1444.01 L2145.36 1445.72 L2174.4 1445.72 L2174.4 1444.01 L2145.36 1444.01 L2145.36 1444.01  Z
  " fill="#009af9" fill-rule="evenodd" fill-opacity="1"/>
<polyline clip-path="url(#clip982)" style="stroke:#000000; stroke-width:4; stroke-opacity:1; fill:none" points="
  2145.36,1444.01 2145.36,1445.72 2174.4,1445.72 2174.4,1444.01 2145.36,1444.01 
  "/>
<path clip-path="url(#clip982)" d="
M2174.4 1445.72 L2174.4 1445.72 L2203.45 1445.72 L2203.45 1445.72 L2174.4 1445.72 L2174.4 1445.72  Z
  " fill="#009af9" fill-rule="evenodd" fill-opacity="1"/>
<polyline clip-path="url(#clip982)" style="stroke:#000000; stroke-width:4; stroke-opacity:1; fill:none" points="
  2174.4,1445.72 2174.4,1445.72 2203.45,1445.72 2174.4,1445.72 
  "/>
<path clip-path="url(#clip982)" d="
M2203.45 1444.01 L2203.45 1445.72 L2232.49 1445.72 L2232.49 1444.01 L2203.45 1444.01 L2203.45 1444.01  Z
  " fill="#009af9" fill-rule="evenodd" fill-opacity="1"/>
<polyline clip-path="url(#clip982)" style="stroke:#000000; stroke-width:4; stroke-opacity:1; fill:none" points="
  2203.45,1444.01 2203.45,1445.72 2232.49,1445.72 2232.49,1444.01 2203.45,1444.01 
  "/>
<path clip-path="url(#clip980)" d="
M1985.9 216.178 L2279.87 216.178 L2279.87 95.2176 L1985.9 95.2176  Z
  " fill="#ffffff" fill-rule="evenodd" fill-opacity="1"/>
<polyline clip-path="url(#clip980)" style="stroke:#000000; stroke-width:4; stroke-opacity:1; fill:none" points="
  1985.9,216.178 2279.87,216.178 2279.87,95.2176 1985.9,95.2176 1985.9,216.178 
  "/>
<path clip-path="url(#clip980)" d="
M2010.2 179.89 L2155.97 179.89 L2155.97 131.506 L2010.2 131.506 L2010.2 179.89  Z
  " fill="#009af9" fill-rule="evenodd" fill-opacity="1"/>
<polyline clip-path="url(#clip980)" style="stroke:#000000; stroke-width:4; stroke-opacity:1; fill:none" points="
  2010.2,179.89 2155.97,179.89 2155.97,131.506 2010.2,131.506 2010.2,179.89 
  "/>
<path clip-path="url(#clip980)" d="M 0 0 M2194.11 175.385 Q2192.3 180.015 2190.59 181.427 Q2188.87 182.839 2186 182.839 L2182.6 182.839 L2182.6 179.274 L2185.1 179.274 Q2186.86 179.274 2187.83 178.44 Q2188.8 177.607 2189.98 174.505 L2190.75 172.561 L2180.26 147.052 L2184.78 147.052 L2192.88 167.329 L2200.98 147.052 L2205.49 147.052 L2194.11 175.385 Z" fill="#000000" fill-rule="evenodd" fill-opacity="1" /><path clip-path="url(#clip980)" d="M 0 0 M2211.37 169.042 L2219.01 169.042 L2219.01 142.677 L2210.7 144.343 L2210.7 140.084 L2218.97 138.418 L2223.64 138.418 L2223.64 169.042 L2231.28 169.042 L2231.28 172.978 L2211.37 172.978 L2211.37 169.042 Z" fill="#000000" fill-rule="evenodd" fill-opacity="1" /></svg>
