<?xml version="1.0" encoding="utf-8"?>
<svg xmlns="http://www.w3.org/2000/svg" xmlns:xlink="http://www.w3.org/1999/xlink" width="600" height="400" viewBox="0 0 2400 1600">
<defs>
  <clipPath id="clip920">
    <rect x="0" y="0" width="2400" height="1600"/>
  </clipPath>
</defs>
<path clip-path="url(#clip920)" d="
M0 1600 L2400 1600 L2400 0 L0 0  Z
  " fill="#ffffff" fill-rule="evenodd" fill-opacity="1"/>
<defs>
  <clipPath id="clip921">
    <rect x="480" y="0" width="1681" height="1600"/>
  </clipPath>
</defs>
<path clip-path="url(#clip920)" d="
M166.205 1486.45 L2352.76 1486.45 L2352.76 47.2441 L166.205 47.2441  Z
  " fill="#ffffff" fill-rule="evenodd" fill-opacity="1"/>
<defs>
  <clipPath id="clip922">
    <rect x="166" y="47" width="2188" height="1440"/>
  </clipPath>
</defs>
<polyline clip-path="url(#clip922)" style="stroke:#000000; stroke-width:2; stroke-opacity:0.1; fill:none" points="
  473.074,1486.45 473.074,47.2441 
  "/>
<polyline clip-path="url(#clip922)" style="stroke:#000000; stroke-width:2; stroke-opacity:0.1; fill:none" points="
  872.942,1486.45 872.942,47.2441 
  "/>
<polyline clip-path="url(#clip922)" style="stroke:#000000; stroke-width:2; stroke-opacity:0.1; fill:none" points="
  1272.81,1486.45 1272.81,47.2441 
  "/>
<polyline clip-path="url(#clip922)" style="stroke:#000000; stroke-width:2; stroke-opacity:0.1; fill:none" points="
  1672.68,1486.45 1672.68,47.2441 
  "/>
<polyline clip-path="url(#clip922)" style="stroke:#000000; stroke-width:2; stroke-opacity:0.1; fill:none" points="
  2072.54,1486.45 2072.54,47.2441 
  "/>
<polyline clip-path="url(#clip922)" style="stroke:#000000; stroke-width:2; stroke-opacity:0.1; fill:none" points="
  166.205,1445.72 2352.76,1445.72 
  "/>
<polyline clip-path="url(#clip922)" style="stroke:#000000; stroke-width:2; stroke-opacity:0.1; fill:none" points="
  166.205,1111.71 2352.76,1111.71 
  "/>
<polyline clip-path="url(#clip922)" style="stroke:#000000; stroke-width:2; stroke-opacity:0.1; fill:none" points="
  166.205,777.701 2352.76,777.701 
  "/>
<polyline clip-path="url(#clip922)" style="stroke:#000000; stroke-width:2; stroke-opacity:0.1; fill:none" points="
  166.205,443.694 2352.76,443.694 
  "/>
<polyline clip-path="url(#clip922)" style="stroke:#000000; stroke-width:2; stroke-opacity:0.1; fill:none" points="
  166.205,109.687 2352.76,109.687 
  "/>
<polyline clip-path="url(#clip920)" style="stroke:#000000; stroke-width:4; stroke-opacity:1; fill:none" points="
  166.205,1486.45 2352.76,1486.45 
  "/>
<polyline clip-path="url(#clip920)" style="stroke:#000000; stroke-width:4; stroke-opacity:1; fill:none" points="
  166.205,1486.45 166.205,47.2441 
  "/>
<polyline clip-path="url(#clip920)" style="stroke:#000000; stroke-width:4; stroke-opacity:1; fill:none" points="
  473.074,1486.45 473.074,1469.18 
  "/>
<polyline clip-path="url(#clip920)" style="stroke:#000000; stroke-width:4; stroke-opacity:1; fill:none" points="
  872.942,1486.45 872.942,1469.18 
  "/>
<polyline clip-path="url(#clip920)" style="stroke:#000000; stroke-width:4; stroke-opacity:1; fill:none" points="
  1272.81,1486.45 1272.81,1469.18 
  "/>
<polyline clip-path="url(#clip920)" style="stroke:#000000; stroke-width:4; stroke-opacity:1; fill:none" points="
  1672.68,1486.45 1672.68,1469.18 
  "/>
<polyline clip-path="url(#clip920)" style="stroke:#000000; stroke-width:4; stroke-opacity:1; fill:none" points="
  2072.54,1486.45 2072.54,1469.18 
  "/>
<polyline clip-path="url(#clip920)" style="stroke:#000000; stroke-width:4; stroke-opacity:1; fill:none" points="
  166.205,1445.72 192.443,1445.72 
  "/>
<polyline clip-path="url(#clip920)" style="stroke:#000000; stroke-width:4; stroke-opacity:1; fill:none" points="
  166.205,1111.71 192.443,1111.71 
  "/>
<polyline clip-path="url(#clip920)" style="stroke:#000000; stroke-width:4; stroke-opacity:1; fill:none" points="
  166.205,777.701 192.443,777.701 
  "/>
<polyline clip-path="url(#clip920)" style="stroke:#000000; stroke-width:4; stroke-opacity:1; fill:none" points="
  166.205,443.694 192.443,443.694 
  "/>
<polyline clip-path="url(#clip920)" style="stroke:#000000; stroke-width:4; stroke-opacity:1; fill:none" points="
  166.205,109.687 192.443,109.687 
  "/>
<path clip-path="url(#clip920)" d="M 0 0 M444.648 1523.09 L474.324 1523.09 L474.324 1527.03 L444.648 1527.03 L444.648 1523.09 Z" fill="#000000" fill-rule="evenodd" fill-opacity="1" /><path clip-path="url(#clip920)" d="M 0 0 M489.972 1520.78 Q486.824 1520.78 484.972 1522.93 Q483.143 1525.08 483.143 1528.83 Q483.143 1532.56 484.972 1534.73 Q486.824 1536.89 489.972 1536.89 Q493.12 1536.89 494.949 1534.73 Q496.801 1532.56 496.801 1528.83 Q496.801 1525.08 494.949 1522.93 Q493.12 1520.78 489.972 1520.78 M499.254 1506.12 L499.254 1510.38 Q497.495 1509.55 495.689 1509.11 Q493.907 1508.67 492.148 1508.67 Q487.518 1508.67 485.064 1511.8 Q482.634 1514.92 482.287 1521.24 Q483.652 1519.23 485.713 1518.16 Q487.773 1517.07 490.25 1517.07 Q495.458 1517.07 498.467 1520.24 Q501.5 1523.39 501.5 1528.83 Q501.5 1534.16 498.351 1537.37 Q495.203 1540.59 489.972 1540.59 Q483.977 1540.59 480.805 1536.01 Q477.634 1531.4 477.634 1522.67 Q477.634 1514.48 481.523 1509.62 Q485.412 1504.73 491.963 1504.73 Q493.722 1504.73 495.504 1505.08 Q497.31 1505.43 499.254 1506.12 Z" fill="#000000" fill-rule="evenodd" fill-opacity="1" /><path clip-path="url(#clip920)" d="M 0 0 M844.921 1523.09 L874.597 1523.09 L874.597 1527.03 L844.921 1527.03 L844.921 1523.09 Z" fill="#000000" fill-rule="evenodd" fill-opacity="1" /><path clip-path="url(#clip920)" d="M 0 0 M893.833 1521.29 Q897.189 1522 899.064 1524.27 Q900.962 1526.54 900.962 1529.87 Q900.962 1534.99 897.444 1537.79 Q893.925 1540.59 887.444 1540.59 Q885.268 1540.59 882.953 1540.15 Q880.661 1539.73 878.208 1538.88 L878.208 1534.36 Q880.152 1535.5 882.467 1536.08 Q884.782 1536.66 887.305 1536.66 Q891.703 1536.66 893.995 1534.92 Q896.309 1533.18 896.309 1529.87 Q896.309 1526.82 894.157 1525.11 Q892.027 1523.37 888.208 1523.37 L884.18 1523.37 L884.18 1519.53 L888.393 1519.53 Q891.842 1519.53 893.671 1518.16 Q895.499 1516.77 895.499 1514.18 Q895.499 1511.52 893.601 1510.11 Q891.726 1508.67 888.208 1508.67 Q886.286 1508.67 884.087 1509.09 Q881.888 1509.5 879.249 1510.38 L879.249 1506.22 Q881.911 1505.48 884.226 1505.11 Q886.564 1504.73 888.624 1504.73 Q893.948 1504.73 897.05 1507.17 Q900.152 1509.57 900.152 1513.69 Q900.152 1516.56 898.508 1518.55 Q896.865 1520.52 893.833 1521.29 Z" fill="#000000" fill-rule="evenodd" fill-opacity="1" /><path clip-path="url(#clip920)" d="M 0 0 M1272.81 1508.44 Q1269.2 1508.44 1267.37 1512 Q1265.56 1515.55 1265.56 1522.67 Q1265.56 1529.78 1267.37 1533.35 Q1269.2 1536.89 1272.81 1536.89 Q1276.44 1536.89 1278.25 1533.35 Q1280.08 1529.78 1280.08 1522.67 Q1280.08 1515.55 1278.25 1512 Q1276.44 1508.44 1272.81 1508.44 M1272.81 1504.73 Q1278.62 1504.73 1281.67 1509.34 Q1284.75 1513.92 1284.75 1522.67 Q1284.75 1531.4 1281.67 1536.01 Q1278.62 1540.59 1272.81 1540.59 Q1267 1540.59 1263.92 1536.01 Q1260.86 1531.4 1260.86 1522.67 Q1260.86 1513.92 1263.92 1509.34 Q1267 1504.73 1272.81 1504.73 Z" fill="#000000" fill-rule="evenodd" fill-opacity="1" /><path clip-path="url(#clip920)" d="M 0 0 M1676.92 1521.29 Q1680.28 1522 1682.16 1524.27 Q1684.05 1526.54 1684.05 1529.87 Q1684.05 1534.99 1680.54 1537.79 Q1677.02 1540.59 1670.54 1540.59 Q1668.36 1540.59 1666.05 1540.15 Q1663.75 1539.73 1661.3 1538.88 L1661.3 1534.36 Q1663.24 1535.5 1665.56 1536.08 Q1667.87 1536.66 1670.4 1536.66 Q1674.79 1536.66 1677.09 1534.92 Q1679.4 1533.18 1679.4 1529.87 Q1679.4 1526.82 1677.25 1525.11 Q1675.12 1523.37 1671.3 1523.37 L1667.27 1523.37 L1667.27 1519.53 L1671.48 1519.53 Q1674.93 1519.53 1676.76 1518.16 Q1678.59 1516.77 1678.59 1514.18 Q1678.59 1511.52 1676.69 1510.11 Q1674.82 1508.67 1671.3 1508.67 Q1669.38 1508.67 1667.18 1509.09 Q1664.98 1509.5 1662.34 1510.38 L1662.34 1506.22 Q1665 1505.48 1667.32 1505.11 Q1669.66 1504.73 1671.72 1504.73 Q1677.04 1504.73 1680.14 1507.17 Q1683.24 1509.57 1683.24 1513.69 Q1683.24 1516.56 1681.6 1518.55 Q1679.96 1520.52 1676.92 1521.29 Z" fill="#000000" fill-rule="evenodd" fill-opacity="1" /><path clip-path="url(#clip920)" d="M 0 0 M2072.95 1520.78 Q2069.8 1520.78 2067.95 1522.93 Q2066.12 1525.08 2066.12 1528.83 Q2066.12 1532.56 2067.95 1534.73 Q2069.8 1536.89 2072.95 1536.89 Q2076.1 1536.89 2077.93 1534.73 Q2079.78 1532.56 2079.78 1528.83 Q2079.78 1525.08 2077.93 1522.93 Q2076.1 1520.78 2072.95 1520.78 M2082.23 1506.12 L2082.23 1510.38 Q2080.47 1509.55 2078.67 1509.11 Q2076.88 1508.67 2075.13 1508.67 Q2070.5 1508.67 2068.04 1511.8 Q2065.61 1514.92 2065.26 1521.24 Q2066.63 1519.23 2068.69 1518.16 Q2070.75 1517.07 2073.23 1517.07 Q2078.44 1517.07 2081.45 1520.24 Q2084.48 1523.39 2084.48 1528.83 Q2084.48 1534.16 2081.33 1537.37 Q2078.18 1540.59 2072.95 1540.59 Q2066.95 1540.59 2063.78 1536.01 Q2060.61 1531.4 2060.61 1522.67 Q2060.61 1514.48 2064.5 1509.62 Q2068.39 1504.73 2074.94 1504.73 Q2076.7 1504.73 2078.48 1505.08 Q2080.29 1505.43 2082.23 1506.12 Z" fill="#000000" fill-rule="evenodd" fill-opacity="1" /><path clip-path="url(#clip920)" d="M 0 0 M130.26 1431.51 Q126.649 1431.51 124.82 1435.08 Q123.015 1438.62 123.015 1445.75 Q123.015 1452.86 124.82 1456.42 Q126.649 1459.96 130.26 1459.96 Q133.895 1459.96 135.7 1456.42 Q137.529 1452.86 137.529 1445.75 Q137.529 1438.62 135.7 1435.08 Q133.895 1431.51 130.26 1431.51 M130.26 1427.81 Q136.07 1427.81 139.126 1432.42 Q142.205 1437 142.205 1445.75 Q142.205 1454.48 139.126 1459.08 Q136.07 1463.67 130.26 1463.67 Q124.45 1463.67 121.371 1459.08 Q118.316 1454.48 118.316 1445.75 Q118.316 1437 121.371 1432.42 Q124.45 1427.81 130.26 1427.81 Z" fill="#000000" fill-rule="evenodd" fill-opacity="1" /><path clip-path="url(#clip920)" d="M 0 0 M71.8578 1125.05 L88.1772 1125.05 L88.1772 1128.99 L66.2328 1128.99 L66.2328 1125.05 Q68.8949 1122.3 73.4782 1117.67 Q78.0846 1113.02 79.2652 1111.67 Q81.5105 1109.15 82.3902 1107.41 Q83.2929 1105.66 83.2929 1103.97 Q83.2929 1101.21 81.3485 1099.47 Q79.4272 1097.74 76.3254 1097.74 Q74.1263 1097.74 71.6726 1098.5 Q69.2421 1099.27 66.4643 1100.82 L66.4643 1096.1 Q69.2884 1094.96 71.7421 1094.38 Q74.1958 1093.8 76.2328 1093.8 Q81.6031 1093.8 84.7976 1096.49 Q87.992 1099.17 87.992 1103.66 Q87.992 1105.79 87.1818 1107.72 Q86.3948 1109.61 84.2883 1112.21 Q83.7096 1112.88 80.6078 1116.1 Q77.5059 1119.29 71.8578 1125.05 Z" fill="#000000" fill-rule="evenodd" fill-opacity="1" /><path clip-path="url(#clip920)" d="M 0 0 M103.247 1097.51 Q99.6354 1097.51 97.8068 1101.07 Q96.0012 1104.61 96.0012 1111.74 Q96.0012 1118.85 97.8068 1122.41 Q99.6354 1125.96 103.247 1125.96 Q106.881 1125.96 108.686 1122.41 Q110.515 1118.85 110.515 1111.74 Q110.515 1104.61 108.686 1101.07 Q106.881 1097.51 103.247 1097.51 M103.247 1093.8 Q109.057 1093.8 112.112 1098.41 Q115.191 1102.99 115.191 1111.74 Q115.191 1120.47 112.112 1125.08 Q109.057 1129.66 103.247 1129.66 Q97.4364 1129.66 94.3577 1125.08 Q91.3022 1120.47 91.3022 1111.74 Q91.3022 1102.99 94.3577 1098.41 Q97.4364 1093.8 103.247 1093.8 Z" fill="#000000" fill-rule="evenodd" fill-opacity="1" /><path clip-path="url(#clip920)" d="M 0 0 M130.26 1097.51 Q126.649 1097.51 124.82 1101.07 Q123.015 1104.61 123.015 1111.74 Q123.015 1118.85 124.82 1122.41 Q126.649 1125.96 130.26 1125.96 Q133.895 1125.96 135.7 1122.41 Q137.529 1118.85 137.529 1111.74 Q137.529 1104.61 135.7 1101.07 Q133.895 1097.51 130.26 1097.51 M130.26 1093.8 Q136.07 1093.8 139.126 1098.41 Q142.205 1102.99 142.205 1111.74 Q142.205 1120.47 139.126 1125.08 Q136.07 1129.66 130.26 1129.66 Q124.45 1129.66 121.371 1125.08 Q118.316 1120.47 118.316 1111.74 Q118.316 1102.99 121.371 1098.41 Q124.45 1093.8 130.26 1093.8 Z" fill="#000000" fill-rule="evenodd" fill-opacity="1" /><path clip-path="url(#clip920)" d="M 0 0 M78.5939 764.495 L66.7884 782.944 L78.5939 782.944 L78.5939 764.495 M77.367 760.421 L83.2466 760.421 L83.2466 782.944 L88.1772 782.944 L88.1772 786.833 L83.2466 786.833 L83.2466 794.981 L78.5939 794.981 L78.5939 786.833 L62.9921 786.833 L62.9921 782.319 L77.367 760.421 Z" fill="#000000" fill-rule="evenodd" fill-opacity="1" /><path clip-path="url(#clip920)" d="M 0 0 M103.247 763.5 Q99.6354 763.5 97.8068 767.065 Q96.0012 770.606 96.0012 777.736 Q96.0012 784.842 97.8068 788.407 Q99.6354 791.949 103.247 791.949 Q106.881 791.949 108.686 788.407 Q110.515 784.842 110.515 777.736 Q110.515 770.606 108.686 767.065 Q106.881 763.5 103.247 763.5 M103.247 759.796 Q109.057 759.796 112.112 764.403 Q115.191 768.986 115.191 777.736 Q115.191 786.463 112.112 791.069 Q109.057 795.653 103.247 795.653 Q97.4364 795.653 94.3577 791.069 Q91.3022 786.463 91.3022 777.736 Q91.3022 768.986 94.3577 764.403 Q97.4364 759.796 103.247 759.796 Z" fill="#000000" fill-rule="evenodd" fill-opacity="1" /><path clip-path="url(#clip920)" d="M 0 0 M130.26 763.5 Q126.649 763.5 124.82 767.065 Q123.015 770.606 123.015 777.736 Q123.015 784.842 124.82 788.407 Q126.649 791.949 130.26 791.949 Q133.895 791.949 135.7 788.407 Q137.529 784.842 137.529 777.736 Q137.529 770.606 135.7 767.065 Q133.895 763.5 130.26 763.5 M130.26 759.796 Q136.07 759.796 139.126 764.403 Q142.205 768.986 142.205 777.736 Q142.205 786.463 139.126 791.069 Q136.07 795.653 130.26 795.653 Q124.45 795.653 121.371 791.069 Q118.316 786.463 118.316 777.736 Q118.316 768.986 121.371 764.403 Q124.45 759.796 130.26 759.796 Z" fill="#000000" fill-rule="evenodd" fill-opacity="1" /><path clip-path="url(#clip920)" d="M 0 0 M76.6495 441.831 Q73.5013 441.831 71.6495 443.983 Q69.8208 446.136 69.8208 449.886 Q69.8208 453.613 71.6495 455.789 Q73.5013 457.942 76.6495 457.942 Q79.7976 457.942 81.6263 455.789 Q83.4781 453.613 83.4781 449.886 Q83.4781 446.136 81.6263 443.983 Q79.7976 441.831 76.6495 441.831 M85.9318 427.178 L85.9318 431.437 Q84.1726 430.604 82.367 430.164 Q80.5846 429.724 78.8254 429.724 Q74.1958 429.724 71.7421 432.849 Q69.3115 435.974 68.9643 442.294 Q70.33 440.28 72.3902 439.215 Q74.4504 438.127 76.9272 438.127 Q82.1355 438.127 85.1448 441.298 Q88.1772 444.446 88.1772 449.886 Q88.1772 455.21 85.029 458.428 Q81.8809 461.645 76.6495 461.645 Q70.6541 461.645 67.4828 457.062 Q64.3116 452.456 64.3116 443.729 Q64.3116 435.534 68.2004 430.673 Q72.0893 425.789 78.6402 425.789 Q80.3994 425.789 82.1818 426.136 Q83.9874 426.483 85.9318 427.178 Z" fill="#000000" fill-rule="evenodd" fill-opacity="1" /><path clip-path="url(#clip920)" d="M 0 0 M103.247 429.493 Q99.6354 429.493 97.8068 433.057 Q96.0012 436.599 96.0012 443.729 Q96.0012 450.835 97.8068 454.4 Q99.6354 457.942 103.247 457.942 Q106.881 457.942 108.686 454.4 Q110.515 450.835 110.515 443.729 Q110.515 436.599 108.686 433.057 Q106.881 429.493 103.247 429.493 M103.247 425.789 Q109.057 425.789 112.112 430.395 Q115.191 434.979 115.191 443.729 Q115.191 452.456 112.112 457.062 Q109.057 461.645 103.247 461.645 Q97.4364 461.645 94.3577 457.062 Q91.3022 452.456 91.3022 443.729 Q91.3022 434.979 94.3577 430.395 Q97.4364 425.789 103.247 425.789 Z" fill="#000000" fill-rule="evenodd" fill-opacity="1" /><path clip-path="url(#clip920)" d="M 0 0 M130.26 429.493 Q126.649 429.493 124.82 433.057 Q123.015 436.599 123.015 443.729 Q123.015 450.835 124.82 454.4 Q126.649 457.942 130.26 457.942 Q133.895 457.942 135.7 454.4 Q137.529 450.835 137.529 443.729 Q137.529 436.599 135.7 433.057 Q133.895 429.493 130.26 429.493 M130.26 425.789 Q136.07 425.789 139.126 430.395 Q142.205 434.979 142.205 443.729 Q142.205 452.456 139.126 457.062 Q136.07 461.645 130.26 461.645 Q124.45 461.645 121.371 457.062 Q118.316 452.456 118.316 443.729 Q118.316 434.979 121.371 430.395 Q124.45 425.789 130.26 425.789 Z" fill="#000000" fill-rule="evenodd" fill-opacity="1" /><path clip-path="url(#clip920)" d="M 0 0 M76.3254 110.555 Q72.9921 110.555 71.0708 112.337 Q69.1726 114.12 69.1726 117.245 Q69.1726 120.37 71.0708 122.152 Q72.9921 123.934 76.3254 123.934 Q79.6587 123.934 81.58 122.152 Q83.5013 120.346 83.5013 117.245 Q83.5013 114.12 81.58 112.337 Q79.6819 110.555 76.3254 110.555 M71.6495 108.564 Q68.6402 107.823 66.9504 105.763 Q65.2838 103.703 65.2838 100.74 Q65.2838 96.5965 68.2236 94.1891 Q71.1865 91.7818 76.3254 91.7818 Q81.4874 91.7818 84.4272 94.1891 Q87.367 96.5965 87.367 100.74 Q87.367 103.703 85.6772 105.763 Q84.0105 107.823 81.0244 108.564 Q84.404 109.351 86.279 111.643 Q88.1772 113.934 88.1772 117.245 Q88.1772 122.268 85.0985 124.953 Q82.0429 127.638 76.3254 127.638 Q70.6078 127.638 67.5291 124.953 Q64.4736 122.268 64.4736 117.245 Q64.4736 113.934 66.3717 111.643 Q68.2699 109.351 71.6495 108.564 M69.9365 101.18 Q69.9365 103.865 71.6032 105.37 Q73.293 106.874 76.3254 106.874 Q79.3346 106.874 81.0244 105.37 Q82.7374 103.865 82.7374 101.18 Q82.7374 98.4947 81.0244 96.9901 Q79.3346 95.4854 76.3254 95.4854 Q73.293 95.4854 71.6032 96.9901 Q69.9365 98.4947 69.9365 101.18 Z" fill="#000000" fill-rule="evenodd" fill-opacity="1" /><path clip-path="url(#clip920)" d="M 0 0 M103.247 95.4854 Q99.6354 95.4854 97.8068 99.0502 Q96.0012 102.592 96.0012 109.721 Q96.0012 116.828 97.8068 120.393 Q99.6354 123.934 103.247 123.934 Q106.881 123.934 108.686 120.393 Q110.515 116.828 110.515 109.721 Q110.515 102.592 108.686 99.0502 Q106.881 95.4854 103.247 95.4854 M103.247 91.7818 Q109.057 91.7818 112.112 96.3882 Q115.191 100.972 115.191 109.721 Q115.191 118.448 112.112 123.055 Q109.057 127.638 103.247 127.638 Q97.4364 127.638 94.3577 123.055 Q91.3022 118.448 91.3022 109.721 Q91.3022 100.972 94.3577 96.3882 Q97.4364 91.7818 103.247 91.7818 Z" fill="#000000" fill-rule="evenodd" fill-opacity="1" /><path clip-path="url(#clip920)" d="M 0 0 M130.26 95.4854 Q126.649 95.4854 124.82 99.0502 Q123.015 102.592 123.015 109.721 Q123.015 116.828 124.82 120.393 Q126.649 123.934 130.26 123.934 Q133.895 123.934 135.7 120.393 Q137.529 116.828 137.529 109.721 Q137.529 102.592 135.7 99.0502 Q133.895 95.4854 130.26 95.4854 M130.26 91.7818 Q136.07 91.7818 139.126 96.3882 Q142.205 100.972 142.205 109.721 Q142.205 118.448 139.126 123.055 Q136.07 127.638 130.26 127.638 Q124.45 127.638 121.371 123.055 Q118.316 118.448 118.316 109.721 Q118.316 100.972 121.371 96.3882 Q124.45 91.7818 130.26 91.7818 Z" fill="#000000" fill-rule="evenodd" fill-opacity="1" /><path clip-path="url(#clip922)" d="
M286.469 1444.05 L286.469 1445.72 L313.127 1445.72 L313.127 1444.05 L286.469 1444.05 L286.469 1444.05  Z
  " fill="#009af9" fill-rule="evenodd" fill-opacity="1"/>
<polyline clip-path="url(#clip922)" style="stroke:#000000; stroke-width:4; stroke-opacity:1; fill:none" points="
  286.469,1444.05 286.469,1445.72 313.127,1445.72 313.127,1444.05 286.469,1444.05 
  "/>
<path clip-path="url(#clip922)" d="
M313.127 1444.05 L313.127 1445.72 L339.785 1445.72 L339.785 1444.05 L313.127 1444.05 L313.127 1444.05  Z
  " fill="#009af9" fill-rule="evenodd" fill-opacity="1"/>
<polyline clip-path="url(#clip922)" style="stroke:#000000; stroke-width:4; stroke-opacity:1; fill:none" points="
  313.127,1444.05 313.127,1445.72 339.785,1445.72 339.785,1444.05 313.127,1444.05 
  "/>
<path clip-path="url(#clip922)" d="
M339.785 1445.72 L339.785 1445.72 L366.442 1445.72 L366.442 1445.72 L339.785 1445.72 L339.785 1445.72  Z
  " fill="#009af9" fill-rule="evenodd" fill-opacity="1"/>
<polyline clip-path="url(#clip922)" style="stroke:#000000; stroke-width:4; stroke-opacity:1; fill:none" points="
  339.785,1445.72 339.785,1445.72 366.442,1445.72 339.785,1445.72 
  "/>
<path clip-path="url(#clip922)" d="
M366.442 1445.72 L366.442 1445.72 L393.1 1445.72 L393.1 1445.72 L366.442 1445.72 L366.442 1445.72  Z
  " fill="#009af9" fill-rule="evenodd" fill-opacity="1"/>
<polyline clip-path="url(#clip922)" style="stroke:#000000; stroke-width:4; stroke-opacity:1; fill:none" points="
  366.442,1445.72 366.442,1445.72 393.1,1445.72 366.442,1445.72 
  "/>
<path clip-path="url(#clip922)" d="
M393.1 1444.05 L393.1 1445.72 L419.758 1445.72 L419.758 1444.05 L393.1 1444.05 L393.1 1444.05  Z
  " fill="#009af9" fill-rule="evenodd" fill-opacity="1"/>
<polyline clip-path="url(#clip922)" style="stroke:#000000; stroke-width:4; stroke-opacity:1; fill:none" points="
  393.1,1444.05 393.1,1445.72 419.758,1445.72 419.758,1444.05 393.1,1444.05 
  "/>
<path clip-path="url(#clip922)" d="
M419.758 1445.72 L419.758 1445.72 L446.416 1445.72 L446.416 1445.72 L419.758 1445.72 L419.758 1445.72  Z
  " fill="#009af9" fill-rule="evenodd" fill-opacity="1"/>
<polyline clip-path="url(#clip922)" style="stroke:#000000; stroke-width:4; stroke-opacity:1; fill:none" points="
  419.758,1445.72 419.758,1445.72 446.416,1445.72 419.758,1445.72 
  "/>
<path clip-path="url(#clip922)" d="
M446.416 1444.05 L446.416 1445.72 L473.074 1445.72 L473.074 1444.05 L446.416 1444.05 L446.416 1444.05  Z
  " fill="#009af9" fill-rule="evenodd" fill-opacity="1"/>
<polyline clip-path="url(#clip922)" style="stroke:#000000; stroke-width:4; stroke-opacity:1; fill:none" points="
  446.416,1444.05 446.416,1445.72 473.074,1445.72 473.074,1444.05 446.416,1444.05 
  "/>
<path clip-path="url(#clip922)" d="
M473.074 1444.05 L473.074 1445.72 L499.732 1445.72 L499.732 1444.05 L473.074 1444.05 L473.074 1444.05  Z
  " fill="#009af9" fill-rule="evenodd" fill-opacity="1"/>
<polyline clip-path="url(#clip922)" style="stroke:#000000; stroke-width:4; stroke-opacity:1; fill:none" points="
  473.074,1444.05 473.074,1445.72 499.732,1445.72 499.732,1444.05 473.074,1444.05 
  "/>
<path clip-path="url(#clip922)" d="
M499.732 1435.7 L499.732 1445.72 L526.389 1445.72 L526.389 1435.7 L499.732 1435.7 L499.732 1435.7  Z
  " fill="#009af9" fill-rule="evenodd" fill-opacity="1"/>
<polyline clip-path="url(#clip922)" style="stroke:#000000; stroke-width:4; stroke-opacity:1; fill:none" points="
  499.732,1435.7 499.732,1445.72 526.389,1445.72 526.389,1435.7 499.732,1435.7 
  "/>
<path clip-path="url(#clip922)" d="
M526.389 1444.05 L526.389 1445.72 L553.047 1445.72 L553.047 1444.05 L526.389 1444.05 L526.389 1444.05  Z
  " fill="#009af9" fill-rule="evenodd" fill-opacity="1"/>
<polyline clip-path="url(#clip922)" style="stroke:#000000; stroke-width:4; stroke-opacity:1; fill:none" points="
  526.389,1444.05 526.389,1445.72 553.047,1445.72 553.047,1444.05 526.389,1444.05 
  "/>
<path clip-path="url(#clip922)" d="
M553.047 1440.71 L553.047 1445.72 L579.705 1445.72 L579.705 1440.71 L553.047 1440.71 L553.047 1440.71  Z
  " fill="#009af9" fill-rule="evenodd" fill-opacity="1"/>
<polyline clip-path="url(#clip922)" style="stroke:#000000; stroke-width:4; stroke-opacity:1; fill:none" points="
  553.047,1440.71 553.047,1445.72 579.705,1445.72 579.705,1440.71 553.047,1440.71 
  "/>
<path clip-path="url(#clip922)" d="
M579.705 1435.7 L579.705 1445.72 L606.363 1445.72 L606.363 1435.7 L579.705 1435.7 L579.705 1435.7  Z
  " fill="#009af9" fill-rule="evenodd" fill-opacity="1"/>
<polyline clip-path="url(#clip922)" style="stroke:#000000; stroke-width:4; stroke-opacity:1; fill:none" points="
  579.705,1435.7 579.705,1445.72 606.363,1445.72 606.363,1435.7 579.705,1435.7 
  "/>
<path clip-path="url(#clip922)" d="
M606.363 1437.37 L606.363 1445.72 L633.021 1445.72 L633.021 1437.37 L606.363 1437.37 L606.363 1437.37  Z
  " fill="#009af9" fill-rule="evenodd" fill-opacity="1"/>
<polyline clip-path="url(#clip922)" style="stroke:#000000; stroke-width:4; stroke-opacity:1; fill:none" points="
  606.363,1437.37 606.363,1445.72 633.021,1445.72 633.021,1437.37 606.363,1437.37 
  "/>
<path clip-path="url(#clip922)" d="
M633.021 1435.7 L633.021 1445.72 L659.679 1445.72 L659.679 1435.7 L633.021 1435.7 L633.021 1435.7  Z
  " fill="#009af9" fill-rule="evenodd" fill-opacity="1"/>
<polyline clip-path="url(#clip922)" style="stroke:#000000; stroke-width:4; stroke-opacity:1; fill:none" points="
  633.021,1435.7 633.021,1445.72 659.679,1445.72 659.679,1435.7 633.021,1435.7 
  "/>
<path clip-path="url(#clip922)" d="
M659.679 1442.38 L659.679 1445.72 L686.337 1445.72 L686.337 1442.38 L659.679 1442.38 L659.679 1442.38  Z
  " fill="#009af9" fill-rule="evenodd" fill-opacity="1"/>
<polyline clip-path="url(#clip922)" style="stroke:#000000; stroke-width:4; stroke-opacity:1; fill:none" points="
  659.679,1442.38 659.679,1445.72 686.337,1445.72 686.337,1442.38 659.679,1442.38 
  "/>
<path clip-path="url(#clip922)" d="
M686.337 1432.36 L686.337 1445.72 L712.994 1445.72 L712.994 1432.36 L686.337 1432.36 L686.337 1432.36  Z
  " fill="#009af9" fill-rule="evenodd" fill-opacity="1"/>
<polyline clip-path="url(#clip922)" style="stroke:#000000; stroke-width:4; stroke-opacity:1; fill:none" points="
  686.337,1432.36 686.337,1445.72 712.994,1445.72 712.994,1432.36 686.337,1432.36 
  "/>
<path clip-path="url(#clip922)" d="
M712.994 1412.31 L712.994 1445.72 L739.652 1445.72 L739.652 1412.31 L712.994 1412.31 L712.994 1412.31  Z
  " fill="#009af9" fill-rule="evenodd" fill-opacity="1"/>
<polyline clip-path="url(#clip922)" style="stroke:#000000; stroke-width:4; stroke-opacity:1; fill:none" points="
  712.994,1412.31 712.994,1445.72 739.652,1445.72 739.652,1412.31 712.994,1412.31 
  "/>
<path clip-path="url(#clip922)" d="
M739.652 1417.33 L739.652 1445.72 L766.31 1445.72 L766.31 1417.33 L739.652 1417.33 L739.652 1417.33  Z
  " fill="#009af9" fill-rule="evenodd" fill-opacity="1"/>
<polyline clip-path="url(#clip922)" style="stroke:#000000; stroke-width:4; stroke-opacity:1; fill:none" points="
  739.652,1417.33 739.652,1445.72 766.31,1445.72 766.31,1417.33 739.652,1417.33 
  "/>
<path clip-path="url(#clip922)" d="
M766.31 1419 L766.31 1445.72 L792.968 1445.72 L792.968 1419 L766.31 1419 L766.31 1419  Z
  " fill="#009af9" fill-rule="evenodd" fill-opacity="1"/>
<polyline clip-path="url(#clip922)" style="stroke:#000000; stroke-width:4; stroke-opacity:1; fill:none" points="
  766.31,1419 766.31,1445.72 792.968,1445.72 792.968,1419 766.31,1419 
  "/>
<path clip-path="url(#clip922)" d="
M792.968 1398.95 L792.968 1445.72 L819.626 1445.72 L819.626 1398.95 L792.968 1398.95 L792.968 1398.95  Z
  " fill="#009af9" fill-rule="evenodd" fill-opacity="1"/>
<polyline clip-path="url(#clip922)" style="stroke:#000000; stroke-width:4; stroke-opacity:1; fill:none" points="
  792.968,1398.95 792.968,1445.72 819.626,1445.72 819.626,1398.95 792.968,1398.95 
  "/>
<path clip-path="url(#clip922)" d="
M819.626 1403.96 L819.626 1445.72 L846.284 1445.72 L846.284 1403.96 L819.626 1403.96 L819.626 1403.96  Z
  " fill="#009af9" fill-rule="evenodd" fill-opacity="1"/>
<polyline clip-path="url(#clip922)" style="stroke:#000000; stroke-width:4; stroke-opacity:1; fill:none" points="
  819.626,1403.96 819.626,1445.72 846.284,1445.72 846.284,1403.96 819.626,1403.96 
  "/>
<path clip-path="url(#clip922)" d="
M846.284 1378.91 L846.284 1445.72 L872.942 1445.72 L872.942 1378.91 L846.284 1378.91 L846.284 1378.91  Z
  " fill="#009af9" fill-rule="evenodd" fill-opacity="1"/>
<polyline clip-path="url(#clip922)" style="stroke:#000000; stroke-width:4; stroke-opacity:1; fill:none" points="
  846.284,1378.91 846.284,1445.72 872.942,1445.72 872.942,1378.91 846.284,1378.91 
  "/>
<path clip-path="url(#clip922)" d="
M872.942 1385.59 L872.942 1445.72 L899.599 1445.72 L899.599 1385.59 L872.942 1385.59 L872.942 1385.59  Z
  " fill="#009af9" fill-rule="evenodd" fill-opacity="1"/>
<polyline clip-path="url(#clip922)" style="stroke:#000000; stroke-width:4; stroke-opacity:1; fill:none" points="
  872.942,1385.59 872.942,1445.72 899.599,1445.72 899.599,1385.59 872.942,1385.59 
  "/>
<path clip-path="url(#clip922)" d="
M899.599 1383.92 L899.599 1445.72 L926.257 1445.72 L926.257 1383.92 L899.599 1383.92 L899.599 1383.92  Z
  " fill="#009af9" fill-rule="evenodd" fill-opacity="1"/>
<polyline clip-path="url(#clip922)" style="stroke:#000000; stroke-width:4; stroke-opacity:1; fill:none" points="
  899.599,1383.92 899.599,1445.72 926.257,1445.72 926.257,1383.92 899.599,1383.92 
  "/>
<path clip-path="url(#clip922)" d="
M926.257 1365.55 L926.257 1445.72 L952.915 1445.72 L952.915 1365.55 L926.257 1365.55 L926.257 1365.55  Z
  " fill="#009af9" fill-rule="evenodd" fill-opacity="1"/>
<polyline clip-path="url(#clip922)" style="stroke:#000000; stroke-width:4; stroke-opacity:1; fill:none" points="
  926.257,1365.55 926.257,1445.72 952.915,1445.72 952.915,1365.55 926.257,1365.55 
  "/>
<path clip-path="url(#clip922)" d="
M952.915 1320.46 L952.915 1445.72 L979.573 1445.72 L979.573 1320.46 L952.915 1320.46 L952.915 1320.46  Z
  " fill="#009af9" fill-rule="evenodd" fill-opacity="1"/>
<polyline clip-path="url(#clip922)" style="stroke:#000000; stroke-width:4; stroke-opacity:1; fill:none" points="
  952.915,1320.46 952.915,1445.72 979.573,1445.72 979.573,1320.46 952.915,1320.46 
  "/>
<path clip-path="url(#clip922)" d="
M979.573 1315.45 L979.573 1445.72 L1006.23 1445.72 L1006.23 1315.45 L979.573 1315.45 L979.573 1315.45  Z
  " fill="#009af9" fill-rule="evenodd" fill-opacity="1"/>
<polyline clip-path="url(#clip922)" style="stroke:#000000; stroke-width:4; stroke-opacity:1; fill:none" points="
  979.573,1315.45 979.573,1445.72 1006.23,1445.72 1006.23,1315.45 979.573,1315.45 
  "/>
<path clip-path="url(#clip922)" d="
M1006.23 1322.13 L1006.23 1445.72 L1032.89 1445.72 L1032.89 1322.13 L1006.23 1322.13 L1006.23 1322.13  Z
  " fill="#009af9" fill-rule="evenodd" fill-opacity="1"/>
<polyline clip-path="url(#clip922)" style="stroke:#000000; stroke-width:4; stroke-opacity:1; fill:none" points="
  1006.23,1322.13 1006.23,1445.72 1032.89,1445.72 1032.89,1322.13 1006.23,1322.13 
  "/>
<path clip-path="url(#clip922)" d="
M1032.89 1288.73 L1032.89 1445.72 L1059.55 1445.72 L1059.55 1288.73 L1032.89 1288.73 L1032.89 1288.73  Z
  " fill="#009af9" fill-rule="evenodd" fill-opacity="1"/>
<polyline clip-path="url(#clip922)" style="stroke:#000000; stroke-width:4; stroke-opacity:1; fill:none" points="
  1032.89,1288.73 1032.89,1445.72 1059.55,1445.72 1059.55,1288.73 1032.89,1288.73 
  "/>
<path clip-path="url(#clip922)" d="
M1059.55 1293.74 L1059.55 1445.72 L1086.2 1445.72 L1086.2 1293.74 L1059.55 1293.74 L1059.55 1293.74  Z
  " fill="#009af9" fill-rule="evenodd" fill-opacity="1"/>
<polyline clip-path="url(#clip922)" style="stroke:#000000; stroke-width:4; stroke-opacity:1; fill:none" points="
  1059.55,1293.74 1059.55,1445.72 1086.2,1445.72 1086.2,1293.74 1059.55,1293.74 
  "/>
<path clip-path="url(#clip922)" d="
M1086.2 1263.68 L1086.2 1445.72 L1112.86 1445.72 L1112.86 1263.68 L1086.2 1263.68 L1086.2 1263.68  Z
  " fill="#009af9" fill-rule="evenodd" fill-opacity="1"/>
<polyline clip-path="url(#clip922)" style="stroke:#000000; stroke-width:4; stroke-opacity:1; fill:none" points="
  1086.2,1263.68 1086.2,1445.72 1112.86,1445.72 1112.86,1263.68 1086.2,1263.68 
  "/>
<path clip-path="url(#clip922)" d="
M1112.86 1282.05 L1112.86 1445.72 L1139.52 1445.72 L1139.52 1282.05 L1112.86 1282.05 L1112.86 1282.05  Z
  " fill="#009af9" fill-rule="evenodd" fill-opacity="1"/>
<polyline clip-path="url(#clip922)" style="stroke:#000000; stroke-width:4; stroke-opacity:1; fill:none" points="
  1112.86,1282.05 1112.86,1445.72 1139.52,1445.72 1139.52,1282.05 1112.86,1282.05 
  "/>
<path clip-path="url(#clip922)" d="
M1139.52 1288.73 L1139.52 1445.72 L1166.18 1445.72 L1166.18 1288.73 L1139.52 1288.73 L1139.52 1288.73  Z
  " fill="#009af9" fill-rule="evenodd" fill-opacity="1"/>
<polyline clip-path="url(#clip922)" style="stroke:#000000; stroke-width:4; stroke-opacity:1; fill:none" points="
  1139.52,1288.73 1139.52,1445.72 1166.18,1445.72 1166.18,1288.73 1139.52,1288.73 
  "/>
<path clip-path="url(#clip922)" d="
M1166.18 1253.66 L1166.18 1445.72 L1192.84 1445.72 L1192.84 1253.66 L1166.18 1253.66 L1166.18 1253.66  Z
  " fill="#009af9" fill-rule="evenodd" fill-opacity="1"/>
<polyline clip-path="url(#clip922)" style="stroke:#000000; stroke-width:4; stroke-opacity:1; fill:none" points="
  1166.18,1253.66 1166.18,1445.72 1192.84,1445.72 1192.84,1253.66 1166.18,1253.66 
  "/>
<path clip-path="url(#clip922)" d="
M1192.84 1260.34 L1192.84 1445.72 L1219.49 1445.72 L1219.49 1260.34 L1192.84 1260.34 L1192.84 1260.34  Z
  " fill="#009af9" fill-rule="evenodd" fill-opacity="1"/>
<polyline clip-path="url(#clip922)" style="stroke:#000000; stroke-width:4; stroke-opacity:1; fill:none" points="
  1192.84,1260.34 1192.84,1445.72 1219.49,1445.72 1219.49,1260.34 1192.84,1260.34 
  "/>
<path clip-path="url(#clip922)" d="
M1219.49 1238.63 L1219.49 1445.72 L1246.15 1445.72 L1246.15 1238.63 L1219.49 1238.63 L1219.49 1238.63  Z
  " fill="#009af9" fill-rule="evenodd" fill-opacity="1"/>
<polyline clip-path="url(#clip922)" style="stroke:#000000; stroke-width:4; stroke-opacity:1; fill:none" points="
  1219.49,1238.63 1219.49,1445.72 1246.15,1445.72 1246.15,1238.63 1219.49,1238.63 
  "/>
<path clip-path="url(#clip922)" d="
M1246.15 1201.89 L1246.15 1445.72 L1272.81 1445.72 L1272.81 1201.89 L1246.15 1201.89 L1246.15 1201.89  Z
  " fill="#009af9" fill-rule="evenodd" fill-opacity="1"/>
<polyline clip-path="url(#clip922)" style="stroke:#000000; stroke-width:4; stroke-opacity:1; fill:none" points="
  1246.15,1201.89 1246.15,1445.72 1272.81,1445.72 1272.81,1201.89 1246.15,1201.89 
  "/>
<path clip-path="url(#clip922)" d="
M1272.81 1246.98 L1272.81 1445.72 L1299.47 1445.72 L1299.47 1246.98 L1272.81 1246.98 L1272.81 1246.98  Z
  " fill="#009af9" fill-rule="evenodd" fill-opacity="1"/>
<polyline clip-path="url(#clip922)" style="stroke:#000000; stroke-width:4; stroke-opacity:1; fill:none" points="
  1272.81,1246.98 1272.81,1445.72 1299.47,1445.72 1299.47,1246.98 1272.81,1246.98 
  "/>
<path clip-path="url(#clip922)" d="
M1299.47 1190.2 L1299.47 1445.72 L1326.12 1445.72 L1326.12 1190.2 L1299.47 1190.2 L1299.47 1190.2  Z
  " fill="#009af9" fill-rule="evenodd" fill-opacity="1"/>
<polyline clip-path="url(#clip922)" style="stroke:#000000; stroke-width:4; stroke-opacity:1; fill:none" points="
  1299.47,1190.2 1299.47,1445.72 1326.12,1445.72 1326.12,1190.2 1299.47,1190.2 
  "/>
<path clip-path="url(#clip922)" d="
M1326.12 1185.19 L1326.12 1445.72 L1352.78 1445.72 L1352.78 1185.19 L1326.12 1185.19 L1326.12 1185.19  Z
  " fill="#009af9" fill-rule="evenodd" fill-opacity="1"/>
<polyline clip-path="url(#clip922)" style="stroke:#000000; stroke-width:4; stroke-opacity:1; fill:none" points="
  1326.12,1185.19 1326.12,1445.72 1352.78,1445.72 1352.78,1185.19 1326.12,1185.19 
  "/>
<path clip-path="url(#clip922)" d="
M1352.78 799.412 L1352.78 1445.72 L1379.44 1445.72 L1379.44 799.412 L1352.78 799.412 L1352.78 799.412  Z
  " fill="#009af9" fill-rule="evenodd" fill-opacity="1"/>
<polyline clip-path="url(#clip922)" style="stroke:#000000; stroke-width:4; stroke-opacity:1; fill:none" points="
  1352.78,799.412 1352.78,1445.72 1379.44,1445.72 1379.44,799.412 1352.78,799.412 
  "/>
<path clip-path="url(#clip922)" d="
M1379.44 221.579 L1379.44 1445.72 L1406.1 1445.72 L1406.1 221.579 L1379.44 221.579 L1379.44 221.579  Z
  " fill="#009af9" fill-rule="evenodd" fill-opacity="1"/>
<polyline clip-path="url(#clip922)" style="stroke:#000000; stroke-width:4; stroke-opacity:1; fill:none" points="
  1379.44,221.579 1379.44,1445.72 1406.1,1445.72 1406.1,221.579 1379.44,221.579 
  "/>
<path clip-path="url(#clip922)" d="
M1406.1 87.9763 L1406.1 1445.72 L1432.76 1445.72 L1432.76 87.9763 L1406.1 87.9763 L1406.1 87.9763  Z
  " fill="#009af9" fill-rule="evenodd" fill-opacity="1"/>
<polyline clip-path="url(#clip922)" style="stroke:#000000; stroke-width:4; stroke-opacity:1; fill:none" points="
  1406.1,87.9763 1406.1,1445.72 1432.76,1445.72 1432.76,87.9763 1406.1,87.9763 
  "/>
<path clip-path="url(#clip922)" d="
M1432.76 871.223 L1432.76 1445.72 L1459.41 1445.72 L1459.41 871.223 L1432.76 871.223 L1432.76 871.223  Z
  " fill="#009af9" fill-rule="evenodd" fill-opacity="1"/>
<polyline clip-path="url(#clip922)" style="stroke:#000000; stroke-width:4; stroke-opacity:1; fill:none" points="
  1432.76,871.223 1432.76,1445.72 1459.41,1445.72 1459.41,871.223 1432.76,871.223 
  "/>
<path clip-path="url(#clip922)" d="
M1459.41 1226.94 L1459.41 1445.72 L1486.07 1445.72 L1486.07 1226.94 L1459.41 1226.94 L1459.41 1226.94  Z
  " fill="#009af9" fill-rule="evenodd" fill-opacity="1"/>
<polyline clip-path="url(#clip922)" style="stroke:#000000; stroke-width:4; stroke-opacity:1; fill:none" points="
  1459.41,1226.94 1459.41,1445.72 1486.07,1445.72 1486.07,1226.94 1459.41,1226.94 
  "/>
<path clip-path="url(#clip922)" d="
M1486.07 1303.76 L1486.07 1445.72 L1512.73 1445.72 L1512.73 1303.76 L1486.07 1303.76 L1486.07 1303.76  Z
  " fill="#009af9" fill-rule="evenodd" fill-opacity="1"/>
<polyline clip-path="url(#clip922)" style="stroke:#000000; stroke-width:4; stroke-opacity:1; fill:none" points="
  1486.07,1303.76 1486.07,1445.72 1512.73,1445.72 1512.73,1303.76 1486.07,1303.76 
  "/>
<path clip-path="url(#clip922)" d="
M1512.73 1308.77 L1512.73 1445.72 L1539.39 1445.72 L1539.39 1308.77 L1512.73 1308.77 L1512.73 1308.77  Z
  " fill="#009af9" fill-rule="evenodd" fill-opacity="1"/>
<polyline clip-path="url(#clip922)" style="stroke:#000000; stroke-width:4; stroke-opacity:1; fill:none" points="
  1512.73,1308.77 1512.73,1445.72 1539.39,1445.72 1539.39,1308.77 1512.73,1308.77 
  "/>
<path clip-path="url(#clip922)" d="
M1539.39 1320.46 L1539.39 1445.72 L1566.05 1445.72 L1566.05 1320.46 L1539.39 1320.46 L1539.39 1320.46  Z
  " fill="#009af9" fill-rule="evenodd" fill-opacity="1"/>
<polyline clip-path="url(#clip922)" style="stroke:#000000; stroke-width:4; stroke-opacity:1; fill:none" points="
  1539.39,1320.46 1539.39,1445.72 1566.05,1445.72 1566.05,1320.46 1539.39,1320.46 
  "/>
<path clip-path="url(#clip922)" d="
M1566.05 1335.49 L1566.05 1445.72 L1592.7 1445.72 L1592.7 1335.49 L1566.05 1335.49 L1566.05 1335.49  Z
  " fill="#009af9" fill-rule="evenodd" fill-opacity="1"/>
<polyline clip-path="url(#clip922)" style="stroke:#000000; stroke-width:4; stroke-opacity:1; fill:none" points="
  1566.05,1335.49 1566.05,1445.72 1592.7,1445.72 1592.7,1335.49 1566.05,1335.49 
  "/>
<path clip-path="url(#clip922)" d="
M1592.7 1367.22 L1592.7 1445.72 L1619.36 1445.72 L1619.36 1367.22 L1592.7 1367.22 L1592.7 1367.22  Z
  " fill="#009af9" fill-rule="evenodd" fill-opacity="1"/>
<polyline clip-path="url(#clip922)" style="stroke:#000000; stroke-width:4; stroke-opacity:1; fill:none" points="
  1592.7,1367.22 1592.7,1445.72 1619.36,1445.72 1619.36,1367.22 1592.7,1367.22 
  "/>
<path clip-path="url(#clip922)" d="
M1619.36 1362.21 L1619.36 1445.72 L1646.02 1445.72 L1646.02 1362.21 L1619.36 1362.21 L1619.36 1362.21  Z
  " fill="#009af9" fill-rule="evenodd" fill-opacity="1"/>
<polyline clip-path="url(#clip922)" style="stroke:#000000; stroke-width:4; stroke-opacity:1; fill:none" points="
  1619.36,1362.21 1619.36,1445.72 1646.02,1445.72 1646.02,1362.21 1619.36,1362.21 
  "/>
<path clip-path="url(#clip922)" d="
M1646.02 1373.9 L1646.02 1445.72 L1672.68 1445.72 L1672.68 1373.9 L1646.02 1373.9 L1646.02 1373.9  Z
  " fill="#009af9" fill-rule="evenodd" fill-opacity="1"/>
<polyline clip-path="url(#clip922)" style="stroke:#000000; stroke-width:4; stroke-opacity:1; fill:none" points="
  1646.02,1373.9 1646.02,1445.72 1672.68,1445.72 1672.68,1373.9 1646.02,1373.9 
  "/>
<path clip-path="url(#clip922)" d="
M1672.68 1368.89 L1672.68 1445.72 L1699.33 1445.72 L1699.33 1368.89 L1672.68 1368.89 L1672.68 1368.89  Z
  " fill="#009af9" fill-rule="evenodd" fill-opacity="1"/>
<polyline clip-path="url(#clip922)" style="stroke:#000000; stroke-width:4; stroke-opacity:1; fill:none" points="
  1672.68,1368.89 1672.68,1445.72 1699.33,1445.72 1699.33,1368.89 1672.68,1368.89 
  "/>
<path clip-path="url(#clip922)" d="
M1699.33 1395.61 L1699.33 1445.72 L1725.99 1445.72 L1725.99 1395.61 L1699.33 1395.61 L1699.33 1395.61  Z
  " fill="#009af9" fill-rule="evenodd" fill-opacity="1"/>
<polyline clip-path="url(#clip922)" style="stroke:#000000; stroke-width:4; stroke-opacity:1; fill:none" points="
  1699.33,1395.61 1699.33,1445.72 1725.99,1445.72 1725.99,1395.61 1699.33,1395.61 
  "/>
<path clip-path="url(#clip922)" d="
M1725.99 1412.31 L1725.99 1445.72 L1752.65 1445.72 L1752.65 1412.31 L1725.99 1412.31 L1725.99 1412.31  Z
  " fill="#009af9" fill-rule="evenodd" fill-opacity="1"/>
<polyline clip-path="url(#clip922)" style="stroke:#000000; stroke-width:4; stroke-opacity:1; fill:none" points="
  1725.99,1412.31 1725.99,1445.72 1752.65,1445.72 1752.65,1412.31 1725.99,1412.31 
  "/>
<path clip-path="url(#clip922)" d="
M1752.65 1415.66 L1752.65 1445.72 L1779.31 1445.72 L1779.31 1415.66 L1752.65 1415.66 L1752.65 1415.66  Z
  " fill="#009af9" fill-rule="evenodd" fill-opacity="1"/>
<polyline clip-path="url(#clip922)" style="stroke:#000000; stroke-width:4; stroke-opacity:1; fill:none" points="
  1752.65,1415.66 1752.65,1445.72 1779.31,1445.72 1779.31,1415.66 1752.65,1415.66 
  "/>
<path clip-path="url(#clip922)" d="
M1779.31 1407.3 L1779.31 1445.72 L1805.97 1445.72 L1805.97 1407.3 L1779.31 1407.3 L1779.31 1407.3  Z
  " fill="#009af9" fill-rule="evenodd" fill-opacity="1"/>
<polyline clip-path="url(#clip922)" style="stroke:#000000; stroke-width:4; stroke-opacity:1; fill:none" points="
  1779.31,1407.3 1779.31,1445.72 1805.97,1445.72 1805.97,1407.3 1779.31,1407.3 
  "/>
<path clip-path="url(#clip922)" d="
M1805.97 1417.33 L1805.97 1445.72 L1832.62 1445.72 L1832.62 1417.33 L1805.97 1417.33 L1805.97 1417.33  Z
  " fill="#009af9" fill-rule="evenodd" fill-opacity="1"/>
<polyline clip-path="url(#clip922)" style="stroke:#000000; stroke-width:4; stroke-opacity:1; fill:none" points="
  1805.97,1417.33 1805.97,1445.72 1832.62,1445.72 1832.62,1417.33 1805.97,1417.33 
  "/>
<path clip-path="url(#clip922)" d="
M1832.62 1424.01 L1832.62 1445.72 L1859.28 1445.72 L1859.28 1424.01 L1832.62 1424.01 L1832.62 1424.01  Z
  " fill="#009af9" fill-rule="evenodd" fill-opacity="1"/>
<polyline clip-path="url(#clip922)" style="stroke:#000000; stroke-width:4; stroke-opacity:1; fill:none" points="
  1832.62,1424.01 1832.62,1445.72 1859.28,1445.72 1859.28,1424.01 1832.62,1424.01 
  "/>
<path clip-path="url(#clip922)" d="
M1859.28 1437.37 L1859.28 1445.72 L1885.94 1445.72 L1885.94 1437.37 L1859.28 1437.37 L1859.28 1437.37  Z
  " fill="#009af9" fill-rule="evenodd" fill-opacity="1"/>
<polyline clip-path="url(#clip922)" style="stroke:#000000; stroke-width:4; stroke-opacity:1; fill:none" points="
  1859.28,1437.37 1859.28,1445.72 1885.94,1445.72 1885.94,1437.37 1859.28,1437.37 
  "/>
<path clip-path="url(#clip922)" d="
M1885.94 1434.03 L1885.94 1445.72 L1912.6 1445.72 L1912.6 1434.03 L1885.94 1434.03 L1885.94 1434.03  Z
  " fill="#009af9" fill-rule="evenodd" fill-opacity="1"/>
<polyline clip-path="url(#clip922)" style="stroke:#000000; stroke-width:4; stroke-opacity:1; fill:none" points="
  1885.94,1434.03 1885.94,1445.72 1912.6,1445.72 1912.6,1434.03 1885.94,1434.03 
  "/>
<path clip-path="url(#clip922)" d="
M1912.6 1439.04 L1912.6 1445.72 L1939.26 1445.72 L1939.26 1439.04 L1912.6 1439.04 L1912.6 1439.04  Z
  " fill="#009af9" fill-rule="evenodd" fill-opacity="1"/>
<polyline clip-path="url(#clip922)" style="stroke:#000000; stroke-width:4; stroke-opacity:1; fill:none" points="
  1912.6,1439.04 1912.6,1445.72 1939.26,1445.72 1939.26,1439.04 1912.6,1439.04 
  "/>
<path clip-path="url(#clip922)" d="
M1939.26 1437.37 L1939.26 1445.72 L1965.91 1445.72 L1965.91 1437.37 L1939.26 1437.37 L1939.26 1437.37  Z
  " fill="#009af9" fill-rule="evenodd" fill-opacity="1"/>
<polyline clip-path="url(#clip922)" style="stroke:#000000; stroke-width:4; stroke-opacity:1; fill:none" points="
  1939.26,1437.37 1939.26,1445.72 1965.91,1445.72 1965.91,1437.37 1939.26,1437.37 
  "/>
<path clip-path="url(#clip922)" d="
M1965.91 1445.72 L1965.91 1445.72 L1992.57 1445.72 L1992.57 1445.72 L1965.91 1445.72 L1965.91 1445.72  Z
  " fill="#009af9" fill-rule="evenodd" fill-opacity="1"/>
<polyline clip-path="url(#clip922)" style="stroke:#000000; stroke-width:4; stroke-opacity:1; fill:none" points="
  1965.91,1445.72 1965.91,1445.72 1992.57,1445.72 1965.91,1445.72 
  "/>
<path clip-path="url(#clip922)" d="
M1992.57 1442.38 L1992.57 1445.72 L2019.23 1445.72 L2019.23 1442.38 L1992.57 1442.38 L1992.57 1442.38  Z
  " fill="#009af9" fill-rule="evenodd" fill-opacity="1"/>
<polyline clip-path="url(#clip922)" style="stroke:#000000; stroke-width:4; stroke-opacity:1; fill:none" points="
  1992.57,1442.38 1992.57,1445.72 2019.23,1445.72 2019.23,1442.38 1992.57,1442.38 
  "/>
<path clip-path="url(#clip922)" d="
M2019.23 1439.04 L2019.23 1445.72 L2045.89 1445.72 L2045.89 1439.04 L2019.23 1439.04 L2019.23 1439.04  Z
  " fill="#009af9" fill-rule="evenodd" fill-opacity="1"/>
<polyline clip-path="url(#clip922)" style="stroke:#000000; stroke-width:4; stroke-opacity:1; fill:none" points="
  2019.23,1439.04 2019.23,1445.72 2045.89,1445.72 2045.89,1439.04 2019.23,1439.04 
  "/>
<path clip-path="url(#clip922)" d="
M2045.89 1444.05 L2045.89 1445.72 L2072.54 1445.72 L2072.54 1444.05 L2045.89 1444.05 L2045.89 1444.05  Z
  " fill="#009af9" fill-rule="evenodd" fill-opacity="1"/>
<polyline clip-path="url(#clip922)" style="stroke:#000000; stroke-width:4; stroke-opacity:1; fill:none" points="
  2045.89,1444.05 2045.89,1445.72 2072.54,1445.72 2072.54,1444.05 2045.89,1444.05 
  "/>
<path clip-path="url(#clip922)" d="
M2072.54 1444.05 L2072.54 1445.72 L2099.2 1445.72 L2099.2 1444.05 L2072.54 1444.05 L2072.54 1444.05  Z
  " fill="#009af9" fill-rule="evenodd" fill-opacity="1"/>
<polyline clip-path="url(#clip922)" style="stroke:#000000; stroke-width:4; stroke-opacity:1; fill:none" points="
  2072.54,1444.05 2072.54,1445.72 2099.2,1445.72 2099.2,1444.05 2072.54,1444.05 
  "/>
<path clip-path="url(#clip922)" d="
M2099.2 1445.72 L2099.2 1445.72 L2125.86 1445.72 L2125.86 1445.72 L2099.2 1445.72 L2099.2 1445.72  Z
  " fill="#009af9" fill-rule="evenodd" fill-opacity="1"/>
<polyline clip-path="url(#clip922)" style="stroke:#000000; stroke-width:4; stroke-opacity:1; fill:none" points="
  2099.2,1445.72 2099.2,1445.72 2125.86,1445.72 2099.2,1445.72 
  "/>
<path clip-path="url(#clip922)" d="
M2125.86 1444.05 L2125.86 1445.72 L2152.52 1445.72 L2152.52 1444.05 L2125.86 1444.05 L2125.86 1444.05  Z
  " fill="#009af9" fill-rule="evenodd" fill-opacity="1"/>
<polyline clip-path="url(#clip922)" style="stroke:#000000; stroke-width:4; stroke-opacity:1; fill:none" points="
  2125.86,1444.05 2125.86,1445.72 2152.52,1445.72 2152.52,1444.05 2125.86,1444.05 
  "/>
<path clip-path="url(#clip922)" d="
M2152.52 1445.72 L2152.52 1445.72 L2179.18 1445.72 L2179.18 1445.72 L2152.52 1445.72 L2152.52 1445.72  Z
  " fill="#009af9" fill-rule="evenodd" fill-opacity="1"/>
<polyline clip-path="url(#clip922)" style="stroke:#000000; stroke-width:4; stroke-opacity:1; fill:none" points="
  2152.52,1445.72 2152.52,1445.72 2179.18,1445.72 2152.52,1445.72 
  "/>
<path clip-path="url(#clip922)" d="
M2179.18 1445.72 L2179.18 1445.72 L2205.83 1445.72 L2205.83 1445.72 L2179.18 1445.72 L2179.18 1445.72  Z
  " fill="#009af9" fill-rule="evenodd" fill-opacity="1"/>
<polyline clip-path="url(#clip922)" style="stroke:#000000; stroke-width:4; stroke-opacity:1; fill:none" points="
  2179.18,1445.72 2179.18,1445.72 2205.83,1445.72 2179.18,1445.72 
  "/>
<path clip-path="url(#clip922)" d="
M2205.83 1444.05 L2205.83 1445.72 L2232.49 1445.72 L2232.49 1444.05 L2205.83 1444.05 L2205.83 1444.05  Z
  " fill="#009af9" fill-rule="evenodd" fill-opacity="1"/>
<polyline clip-path="url(#clip922)" style="stroke:#000000; stroke-width:4; stroke-opacity:1; fill:none" points="
  2205.83,1444.05 2205.83,1445.72 2232.49,1445.72 2232.49,1444.05 2205.83,1444.05 
  "/>
<path clip-path="url(#clip920)" d="
M1985.9 216.178 L2279.87 216.178 L2279.87 95.2176 L1985.9 95.2176  Z
  " fill="#ffffff" fill-rule="evenodd" fill-opacity="1"/>
<polyline clip-path="url(#clip920)" style="stroke:#000000; stroke-width:4; stroke-opacity:1; fill:none" points="
  1985.9,216.178 2279.87,216.178 2279.87,95.2176 1985.9,95.2176 1985.9,216.178 
  "/>
<path clip-path="url(#clip920)" d="
M2010.2 179.89 L2155.97 179.89 L2155.97 131.506 L2010.2 131.506 L2010.2 179.89  Z
  " fill="#009af9" fill-rule="evenodd" fill-opacity="1"/>
<polyline clip-path="url(#clip920)" style="stroke:#000000; stroke-width:4; stroke-opacity:1; fill:none" points="
  2010.2,179.89 2155.97,179.89 2155.97,131.506 2010.2,131.506 2010.2,179.89 
  "/>
<path clip-path="url(#clip920)" d="M 0 0 M2194.11 175.385 Q2192.3 180.015 2190.59 181.427 Q2188.87 182.839 2186 182.839 L2182.6 182.839 L2182.6 179.274 L2185.1 179.274 Q2186.86 179.274 2187.83 178.44 Q2188.8 177.607 2189.98 174.505 L2190.75 172.561 L2180.26 147.052 L2184.78 147.052 L2192.88 167.329 L2200.98 147.052 L2205.49 147.052 L2194.11 175.385 Z" fill="#000000" fill-rule="evenodd" fill-opacity="1" /><path clip-path="url(#clip920)" d="M 0 0 M2211.37 169.042 L2219.01 169.042 L2219.01 142.677 L2210.7 144.343 L2210.7 140.084 L2218.97 138.418 L2223.64 138.418 L2223.64 169.042 L2231.28 169.042 L2231.28 172.978 L2211.37 172.978 L2211.37 169.042 Z" fill="#000000" fill-rule="evenodd" fill-opacity="1" /></svg>
