<?xml version="1.0" encoding="utf-8"?>
<svg xmlns="http://www.w3.org/2000/svg" xmlns:xlink="http://www.w3.org/1999/xlink" width="600" height="400" viewBox="0 0 2400 1600">
<defs>
  <clipPath id="clip950">
    <rect x="0" y="0" width="2400" height="1600"/>
  </clipPath>
</defs>
<path clip-path="url(#clip950)" d="
M0 1600 L2400 1600 L2400 0 L0 0  Z
  " fill="#ffffff" fill-rule="evenodd" fill-opacity="1"/>
<defs>
  <clipPath id="clip951">
    <rect x="480" y="0" width="1681" height="1600"/>
  </clipPath>
</defs>
<path clip-path="url(#clip950)" d="
M166.205 1486.45 L2352.76 1486.45 L2352.76 47.2441 L166.205 47.2441  Z
  " fill="#ffffff" fill-rule="evenodd" fill-opacity="1"/>
<defs>
  <clipPath id="clip952">
    <rect x="166" y="47" width="2188" height="1440"/>
  </clipPath>
</defs>
<polyline clip-path="url(#clip952)" style="stroke:#000000; stroke-width:2; stroke-opacity:0.1; fill:none" points="
  427.485,1486.45 427.485,47.2441 
  "/>
<polyline clip-path="url(#clip952)" style="stroke:#000000; stroke-width:2; stroke-opacity:0.1; fill:none" points="
  709.517,1486.45 709.517,47.2441 
  "/>
<polyline clip-path="url(#clip952)" style="stroke:#000000; stroke-width:2; stroke-opacity:0.1; fill:none" points="
  991.55,1486.45 991.55,47.2441 
  "/>
<polyline clip-path="url(#clip952)" style="stroke:#000000; stroke-width:2; stroke-opacity:0.1; fill:none" points="
  1273.58,1486.45 1273.58,47.2441 
  "/>
<polyline clip-path="url(#clip952)" style="stroke:#000000; stroke-width:2; stroke-opacity:0.1; fill:none" points="
  1555.61,1486.45 1555.61,47.2441 
  "/>
<polyline clip-path="url(#clip952)" style="stroke:#000000; stroke-width:2; stroke-opacity:0.1; fill:none" points="
  1837.65,1486.45 1837.65,47.2441 
  "/>
<polyline clip-path="url(#clip952)" style="stroke:#000000; stroke-width:2; stroke-opacity:0.1; fill:none" points="
  2119.68,1486.45 2119.68,47.2441 
  "/>
<polyline clip-path="url(#clip952)" style="stroke:#000000; stroke-width:2; stroke-opacity:0.1; fill:none" points="
  166.205,1445.72 2352.76,1445.72 
  "/>
<polyline clip-path="url(#clip952)" style="stroke:#000000; stroke-width:2; stroke-opacity:0.1; fill:none" points="
  166.205,1113.34 2352.76,1113.34 
  "/>
<polyline clip-path="url(#clip952)" style="stroke:#000000; stroke-width:2; stroke-opacity:0.1; fill:none" points="
  166.205,780.972 2352.76,780.972 
  "/>
<polyline clip-path="url(#clip952)" style="stroke:#000000; stroke-width:2; stroke-opacity:0.1; fill:none" points="
  166.205,448.6 2352.76,448.6 
  "/>
<polyline clip-path="url(#clip952)" style="stroke:#000000; stroke-width:2; stroke-opacity:0.1; fill:none" points="
  166.205,116.228 2352.76,116.228 
  "/>
<polyline clip-path="url(#clip950)" style="stroke:#000000; stroke-width:4; stroke-opacity:1; fill:none" points="
  166.205,1486.45 2352.76,1486.45 
  "/>
<polyline clip-path="url(#clip950)" style="stroke:#000000; stroke-width:4; stroke-opacity:1; fill:none" points="
  166.205,1486.45 166.205,47.2441 
  "/>
<polyline clip-path="url(#clip950)" style="stroke:#000000; stroke-width:4; stroke-opacity:1; fill:none" points="
  427.485,1486.45 427.485,1469.18 
  "/>
<polyline clip-path="url(#clip950)" style="stroke:#000000; stroke-width:4; stroke-opacity:1; fill:none" points="
  709.517,1486.45 709.517,1469.18 
  "/>
<polyline clip-path="url(#clip950)" style="stroke:#000000; stroke-width:4; stroke-opacity:1; fill:none" points="
  991.55,1486.45 991.55,1469.18 
  "/>
<polyline clip-path="url(#clip950)" style="stroke:#000000; stroke-width:4; stroke-opacity:1; fill:none" points="
  1273.58,1486.45 1273.58,1469.18 
  "/>
<polyline clip-path="url(#clip950)" style="stroke:#000000; stroke-width:4; stroke-opacity:1; fill:none" points="
  1555.61,1486.45 1555.61,1469.18 
  "/>
<polyline clip-path="url(#clip950)" style="stroke:#000000; stroke-width:4; stroke-opacity:1; fill:none" points="
  1837.65,1486.45 1837.65,1469.18 
  "/>
<polyline clip-path="url(#clip950)" style="stroke:#000000; stroke-width:4; stroke-opacity:1; fill:none" points="
  2119.68,1486.45 2119.68,1469.18 
  "/>
<polyline clip-path="url(#clip950)" style="stroke:#000000; stroke-width:4; stroke-opacity:1; fill:none" points="
  166.205,1445.72 192.443,1445.72 
  "/>
<polyline clip-path="url(#clip950)" style="stroke:#000000; stroke-width:4; stroke-opacity:1; fill:none" points="
  166.205,1113.34 192.443,1113.34 
  "/>
<polyline clip-path="url(#clip950)" style="stroke:#000000; stroke-width:4; stroke-opacity:1; fill:none" points="
  166.205,780.972 192.443,780.972 
  "/>
<polyline clip-path="url(#clip950)" style="stroke:#000000; stroke-width:4; stroke-opacity:1; fill:none" points="
  166.205,448.6 192.443,448.6 
  "/>
<polyline clip-path="url(#clip950)" style="stroke:#000000; stroke-width:4; stroke-opacity:1; fill:none" points="
  166.205,116.228 192.443,116.228 
  "/>
<path clip-path="url(#clip950)" d="M 0 0 M399.059 1523.09 L428.735 1523.09 L428.735 1527.03 L399.059 1527.03 L399.059 1523.09 Z" fill="#000000" fill-rule="evenodd" fill-opacity="1" /><path clip-path="url(#clip950)" d="M 0 0 M444.383 1520.78 Q441.235 1520.78 439.383 1522.93 Q437.554 1525.08 437.554 1528.83 Q437.554 1532.56 439.383 1534.73 Q441.235 1536.89 444.383 1536.89 Q447.531 1536.89 449.36 1534.73 Q451.212 1532.56 451.212 1528.83 Q451.212 1525.08 449.36 1522.93 Q447.531 1520.78 444.383 1520.78 M453.665 1506.12 L453.665 1510.38 Q451.906 1509.55 450.101 1509.11 Q448.318 1508.67 446.559 1508.67 Q441.929 1508.67 439.476 1511.8 Q437.045 1514.92 436.698 1521.24 Q438.064 1519.23 440.124 1518.16 Q442.184 1517.07 444.661 1517.07 Q449.869 1517.07 452.878 1520.24 Q455.911 1523.39 455.911 1528.83 Q455.911 1534.16 452.763 1537.37 Q449.615 1540.59 444.383 1540.59 Q438.388 1540.59 435.216 1536.01 Q432.045 1531.4 432.045 1522.67 Q432.045 1514.48 435.934 1509.62 Q439.823 1504.73 446.374 1504.73 Q448.133 1504.73 449.915 1505.08 Q451.721 1505.43 453.665 1506.12 Z" fill="#000000" fill-rule="evenodd" fill-opacity="1" /><path clip-path="url(#clip950)" d="M 0 0 M680.93 1523.09 L710.605 1523.09 L710.605 1527.03 L680.93 1527.03 L680.93 1523.09 Z" fill="#000000" fill-rule="evenodd" fill-opacity="1" /><path clip-path="url(#clip950)" d="M 0 0 M728.522 1509.43 L716.716 1527.88 L728.522 1527.88 L728.522 1509.43 M727.295 1505.36 L733.175 1505.36 L733.175 1527.88 L738.105 1527.88 L738.105 1531.77 L733.175 1531.77 L733.175 1539.92 L728.522 1539.92 L728.522 1531.77 L712.92 1531.77 L712.92 1527.26 L727.295 1505.36 Z" fill="#000000" fill-rule="evenodd" fill-opacity="1" /><path clip-path="url(#clip950)" d="M 0 0 M964.003 1523.09 L993.679 1523.09 L993.679 1527.03 L964.003 1527.03 L964.003 1523.09 Z" fill="#000000" fill-rule="evenodd" fill-opacity="1" /><path clip-path="url(#clip950)" d="M 0 0 M1002.78 1535.98 L1019.1 1535.98 L1019.1 1539.92 L997.151 1539.92 L997.151 1535.98 Q999.813 1533.23 1004.4 1528.6 Q1009 1523.95 1010.18 1522.61 Q1012.43 1520.08 1013.31 1518.35 Q1014.21 1516.59 1014.21 1514.9 Q1014.21 1512.14 1012.27 1510.41 Q1010.35 1508.67 1007.24 1508.67 Q1005.04 1508.67 1002.59 1509.43 Q1000.16 1510.2 997.383 1511.75 L997.383 1507.03 Q1000.21 1505.89 1002.66 1505.31 Q1005.11 1504.73 1007.15 1504.73 Q1012.52 1504.73 1015.72 1507.42 Q1018.91 1510.11 1018.91 1514.6 Q1018.91 1516.73 1018.1 1518.65 Q1017.31 1520.54 1015.21 1523.14 Q1014.63 1523.81 1011.53 1527.03 Q1008.42 1530.22 1002.78 1535.98 Z" fill="#000000" fill-rule="evenodd" fill-opacity="1" /><path clip-path="url(#clip950)" d="M 0 0 M1273.58 1508.44 Q1269.97 1508.44 1268.14 1512 Q1266.34 1515.55 1266.34 1522.67 Q1266.34 1529.78 1268.14 1533.35 Q1269.97 1536.89 1273.58 1536.89 Q1277.22 1536.89 1279.02 1533.35 Q1280.85 1529.78 1280.85 1522.67 Q1280.85 1515.55 1279.02 1512 Q1277.22 1508.44 1273.58 1508.44 M1273.58 1504.73 Q1279.39 1504.73 1282.45 1509.34 Q1285.53 1513.92 1285.53 1522.67 Q1285.53 1531.4 1282.45 1536.01 Q1279.39 1540.59 1273.58 1540.59 Q1267.77 1540.59 1264.69 1536.01 Q1261.64 1531.4 1261.64 1522.67 Q1261.64 1513.92 1264.69 1509.34 Q1267.77 1504.73 1273.58 1504.73 Z" fill="#000000" fill-rule="evenodd" fill-opacity="1" /><path clip-path="url(#clip950)" d="M 0 0 M1550.27 1535.98 L1566.59 1535.98 L1566.59 1539.92 L1544.64 1539.92 L1544.64 1535.98 Q1547.3 1533.23 1551.89 1528.6 Q1556.49 1523.95 1557.67 1522.61 Q1559.92 1520.08 1560.8 1518.35 Q1561.7 1516.59 1561.7 1514.9 Q1561.7 1512.14 1559.76 1510.41 Q1557.84 1508.67 1554.73 1508.67 Q1552.54 1508.67 1550.08 1509.43 Q1547.65 1510.2 1544.87 1511.75 L1544.87 1507.03 Q1547.7 1505.89 1550.15 1505.31 Q1552.6 1504.73 1554.64 1504.73 Q1560.01 1504.73 1563.21 1507.42 Q1566.4 1510.11 1566.4 1514.6 Q1566.4 1516.73 1565.59 1518.65 Q1564.8 1520.54 1562.7 1523.14 Q1562.12 1523.81 1559.02 1527.03 Q1555.92 1530.22 1550.27 1535.98 Z" fill="#000000" fill-rule="evenodd" fill-opacity="1" /><path clip-path="url(#clip950)" d="M 0 0 M1840.66 1509.43 L1828.85 1527.88 L1840.66 1527.88 L1840.66 1509.43 M1839.43 1505.36 L1845.31 1505.36 L1845.31 1527.88 L1850.24 1527.88 L1850.24 1531.77 L1845.31 1531.77 L1845.31 1539.92 L1840.66 1539.92 L1840.66 1531.77 L1825.05 1531.77 L1825.05 1527.26 L1839.43 1505.36 Z" fill="#000000" fill-rule="evenodd" fill-opacity="1" /><path clip-path="url(#clip950)" d="M 0 0 M2120.08 1520.78 Q2116.94 1520.78 2115.08 1522.93 Q2113.26 1525.08 2113.26 1528.83 Q2113.26 1532.56 2115.08 1534.73 Q2116.94 1536.89 2120.08 1536.89 Q2123.23 1536.89 2125.06 1534.73 Q2126.91 1532.56 2126.91 1528.83 Q2126.91 1525.08 2125.06 1522.93 Q2123.23 1520.78 2120.08 1520.78 M2129.37 1506.12 L2129.37 1510.38 Q2127.61 1509.55 2125.8 1509.11 Q2124.02 1508.67 2122.26 1508.67 Q2117.63 1508.67 2115.18 1511.8 Q2112.75 1514.92 2112.4 1521.24 Q2113.76 1519.23 2115.82 1518.16 Q2117.88 1517.07 2120.36 1517.07 Q2125.57 1517.07 2128.58 1520.24 Q2131.61 1523.39 2131.61 1528.83 Q2131.61 1534.16 2128.46 1537.37 Q2125.32 1540.59 2120.08 1540.59 Q2114.09 1540.59 2110.92 1536.01 Q2107.75 1531.4 2107.75 1522.67 Q2107.75 1514.48 2111.63 1509.62 Q2115.52 1504.73 2122.07 1504.73 Q2123.83 1504.73 2125.62 1505.08 Q2127.42 1505.43 2129.37 1506.12 Z" fill="#000000" fill-rule="evenodd" fill-opacity="1" /><path clip-path="url(#clip950)" d="M 0 0 M130.26 1431.51 Q126.649 1431.51 124.82 1435.08 Q123.015 1438.62 123.015 1445.75 Q123.015 1452.86 124.82 1456.42 Q126.649 1459.96 130.26 1459.96 Q133.895 1459.96 135.7 1456.42 Q137.529 1452.86 137.529 1445.75 Q137.529 1438.62 135.7 1435.08 Q133.895 1431.51 130.26 1431.51 M130.26 1427.81 Q136.07 1427.81 139.126 1432.42 Q142.205 1437 142.205 1445.75 Q142.205 1454.48 139.126 1459.08 Q136.07 1463.67 130.26 1463.67 Q124.45 1463.67 121.371 1459.08 Q118.316 1454.48 118.316 1445.75 Q118.316 1437 121.371 1432.42 Q124.45 1427.81 130.26 1427.81 Z" fill="#000000" fill-rule="evenodd" fill-opacity="1" /><path clip-path="url(#clip950)" d="M 0 0 M71.8578 1126.69 L88.1772 1126.69 L88.1772 1130.62 L66.2328 1130.62 L66.2328 1126.69 Q68.8949 1123.93 73.4782 1119.3 Q78.0846 1114.65 79.2652 1113.31 Q81.5105 1110.79 82.3902 1109.05 Q83.2929 1107.29 83.2929 1105.6 Q83.2929 1102.85 81.3485 1101.11 Q79.4272 1099.37 76.3254 1099.37 Q74.1263 1099.37 71.6726 1100.14 Q69.2421 1100.9 66.4643 1102.45 L66.4643 1097.73 Q69.2884 1096.6 71.7421 1096.02 Q74.1958 1095.44 76.2328 1095.44 Q81.6031 1095.44 84.7976 1098.12 Q87.992 1100.81 87.992 1105.3 Q87.992 1107.43 87.1818 1109.35 Q86.3948 1111.25 84.2883 1113.84 Q83.7096 1114.51 80.6078 1117.73 Q77.5059 1120.92 71.8578 1126.69 Z" fill="#000000" fill-rule="evenodd" fill-opacity="1" /><path clip-path="url(#clip950)" d="M 0 0 M103.247 1099.14 Q99.6354 1099.14 97.8068 1102.71 Q96.0012 1106.25 96.0012 1113.38 Q96.0012 1120.48 97.8068 1124.05 Q99.6354 1127.59 103.247 1127.59 Q106.881 1127.59 108.686 1124.05 Q110.515 1120.48 110.515 1113.38 Q110.515 1106.25 108.686 1102.71 Q106.881 1099.14 103.247 1099.14 M103.247 1095.44 Q109.057 1095.44 112.112 1100.05 Q115.191 1104.63 115.191 1113.38 Q115.191 1122.11 112.112 1126.71 Q109.057 1131.3 103.247 1131.3 Q97.4364 1131.3 94.3577 1126.71 Q91.3022 1122.11 91.3022 1113.38 Q91.3022 1104.63 94.3577 1100.05 Q97.4364 1095.44 103.247 1095.44 Z" fill="#000000" fill-rule="evenodd" fill-opacity="1" /><path clip-path="url(#clip950)" d="M 0 0 M130.26 1099.14 Q126.649 1099.14 124.82 1102.71 Q123.015 1106.25 123.015 1113.38 Q123.015 1120.48 124.82 1124.05 Q126.649 1127.59 130.26 1127.59 Q133.895 1127.59 135.7 1124.05 Q137.529 1120.48 137.529 1113.38 Q137.529 1106.25 135.7 1102.71 Q133.895 1099.14 130.26 1099.14 M130.26 1095.44 Q136.07 1095.44 139.126 1100.05 Q142.205 1104.63 142.205 1113.38 Q142.205 1122.11 139.126 1126.71 Q136.07 1131.3 130.26 1131.3 Q124.45 1131.3 121.371 1126.71 Q118.316 1122.11 118.316 1113.38 Q118.316 1104.63 121.371 1100.05 Q124.45 1095.44 130.26 1095.44 Z" fill="#000000" fill-rule="evenodd" fill-opacity="1" /><path clip-path="url(#clip950)" d="M 0 0 M78.5939 767.766 L66.7884 786.215 L78.5939 786.215 L78.5939 767.766 M77.367 763.692 L83.2466 763.692 L83.2466 786.215 L88.1772 786.215 L88.1772 790.104 L83.2466 790.104 L83.2466 798.252 L78.5939 798.252 L78.5939 790.104 L62.9921 790.104 L62.9921 785.59 L77.367 763.692 Z" fill="#000000" fill-rule="evenodd" fill-opacity="1" /><path clip-path="url(#clip950)" d="M 0 0 M103.247 766.77 Q99.6354 766.77 97.8068 770.335 Q96.0012 773.877 96.0012 781.007 Q96.0012 788.113 97.8068 791.678 Q99.6354 795.219 103.247 795.219 Q106.881 795.219 108.686 791.678 Q110.515 788.113 110.515 781.007 Q110.515 773.877 108.686 770.335 Q106.881 766.77 103.247 766.77 M103.247 763.067 Q109.057 763.067 112.112 767.673 Q115.191 772.257 115.191 781.007 Q115.191 789.733 112.112 794.34 Q109.057 798.923 103.247 798.923 Q97.4364 798.923 94.3577 794.34 Q91.3022 789.733 91.3022 781.007 Q91.3022 772.257 94.3577 767.673 Q97.4364 763.067 103.247 763.067 Z" fill="#000000" fill-rule="evenodd" fill-opacity="1" /><path clip-path="url(#clip950)" d="M 0 0 M130.26 766.77 Q126.649 766.77 124.82 770.335 Q123.015 773.877 123.015 781.007 Q123.015 788.113 124.82 791.678 Q126.649 795.219 130.26 795.219 Q133.895 795.219 135.7 791.678 Q137.529 788.113 137.529 781.007 Q137.529 773.877 135.7 770.335 Q133.895 766.77 130.26 766.77 M130.26 763.067 Q136.07 763.067 139.126 767.673 Q142.205 772.257 142.205 781.007 Q142.205 789.733 139.126 794.34 Q136.07 798.923 130.26 798.923 Q124.45 798.923 121.371 794.34 Q118.316 789.733 118.316 781.007 Q118.316 772.257 121.371 767.673 Q124.45 763.067 130.26 763.067 Z" fill="#000000" fill-rule="evenodd" fill-opacity="1" /><path clip-path="url(#clip950)" d="M 0 0 M76.6495 446.736 Q73.5013 446.736 71.6495 448.889 Q69.8208 451.042 69.8208 454.792 Q69.8208 458.519 71.6495 460.695 Q73.5013 462.847 76.6495 462.847 Q79.7976 462.847 81.6263 460.695 Q83.4781 458.519 83.4781 454.792 Q83.4781 451.042 81.6263 448.889 Q79.7976 446.736 76.6495 446.736 M85.9318 432.084 L85.9318 436.343 Q84.1726 435.51 82.367 435.07 Q80.5846 434.63 78.8254 434.63 Q74.1958 434.63 71.7421 437.755 Q69.3115 440.88 68.9643 447.199 Q70.33 445.186 72.3902 444.121 Q74.4504 443.033 76.9272 443.033 Q82.1355 443.033 85.1448 446.204 Q88.1772 449.352 88.1772 454.792 Q88.1772 460.116 85.029 463.334 Q81.8809 466.551 76.6495 466.551 Q70.6541 466.551 67.4828 461.968 Q64.3116 457.361 64.3116 448.635 Q64.3116 440.44 68.2004 435.579 Q72.0893 430.695 78.6402 430.695 Q80.3994 430.695 82.1818 431.042 Q83.9874 431.389 85.9318 432.084 Z" fill="#000000" fill-rule="evenodd" fill-opacity="1" /><path clip-path="url(#clip950)" d="M 0 0 M103.247 434.399 Q99.6354 434.399 97.8068 437.963 Q96.0012 441.505 96.0012 448.635 Q96.0012 455.741 97.8068 459.306 Q99.6354 462.847 103.247 462.847 Q106.881 462.847 108.686 459.306 Q110.515 455.741 110.515 448.635 Q110.515 441.505 108.686 437.963 Q106.881 434.399 103.247 434.399 M103.247 430.695 Q109.057 430.695 112.112 435.301 Q115.191 439.885 115.191 448.635 Q115.191 457.361 112.112 461.968 Q109.057 466.551 103.247 466.551 Q97.4364 466.551 94.3577 461.968 Q91.3022 457.361 91.3022 448.635 Q91.3022 439.885 94.3577 435.301 Q97.4364 430.695 103.247 430.695 Z" fill="#000000" fill-rule="evenodd" fill-opacity="1" /><path clip-path="url(#clip950)" d="M 0 0 M130.26 434.399 Q126.649 434.399 124.82 437.963 Q123.015 441.505 123.015 448.635 Q123.015 455.741 124.82 459.306 Q126.649 462.847 130.26 462.847 Q133.895 462.847 135.7 459.306 Q137.529 455.741 137.529 448.635 Q137.529 441.505 135.7 437.963 Q133.895 434.399 130.26 434.399 M130.26 430.695 Q136.07 430.695 139.126 435.301 Q142.205 439.885 142.205 448.635 Q142.205 457.361 139.126 461.968 Q136.07 466.551 130.26 466.551 Q124.45 466.551 121.371 461.968 Q118.316 457.361 118.316 448.635 Q118.316 439.885 121.371 435.301 Q124.45 430.695 130.26 430.695 Z" fill="#000000" fill-rule="evenodd" fill-opacity="1" /><path clip-path="url(#clip950)" d="M 0 0 M76.3254 117.096 Q72.9921 117.096 71.0708 118.878 Q69.1726 120.661 69.1726 123.786 Q69.1726 126.911 71.0708 128.693 Q72.9921 130.476 76.3254 130.476 Q79.6587 130.476 81.58 128.693 Q83.5013 126.888 83.5013 123.786 Q83.5013 120.661 81.58 118.878 Q79.6819 117.096 76.3254 117.096 M71.6495 115.105 Q68.6402 114.364 66.9504 112.304 Q65.2838 110.244 65.2838 107.281 Q65.2838 103.138 68.2236 100.73 Q71.1865 98.3229 76.3254 98.3229 Q81.4874 98.3229 84.4272 100.73 Q87.367 103.138 87.367 107.281 Q87.367 110.244 85.6772 112.304 Q84.0105 114.364 81.0244 115.105 Q84.404 115.892 86.279 118.184 Q88.1772 120.476 88.1772 123.786 Q88.1772 128.809 85.0985 131.494 Q82.0429 134.179 76.3254 134.179 Q70.6078 134.179 67.5291 131.494 Q64.4736 128.809 64.4736 123.786 Q64.4736 120.476 66.3717 118.184 Q68.2699 115.892 71.6495 115.105 M69.9365 107.721 Q69.9365 110.406 71.6032 111.911 Q73.293 113.415 76.3254 113.415 Q79.3346 113.415 81.0244 111.911 Q82.7374 110.406 82.7374 107.721 Q82.7374 105.036 81.0244 103.531 Q79.3346 102.027 76.3254 102.027 Q73.293 102.027 71.6032 103.531 Q69.9365 105.036 69.9365 107.721 Z" fill="#000000" fill-rule="evenodd" fill-opacity="1" /><path clip-path="url(#clip950)" d="M 0 0 M103.247 102.027 Q99.6354 102.027 97.8068 105.591 Q96.0012 109.133 96.0012 116.263 Q96.0012 123.369 97.8068 126.934 Q99.6354 130.476 103.247 130.476 Q106.881 130.476 108.686 126.934 Q110.515 123.369 110.515 116.263 Q110.515 109.133 108.686 105.591 Q106.881 102.027 103.247 102.027 M103.247 98.3229 Q109.057 98.3229 112.112 102.929 Q115.191 107.513 115.191 116.263 Q115.191 124.989 112.112 129.596 Q109.057 134.179 103.247 134.179 Q97.4364 134.179 94.3577 129.596 Q91.3022 124.989 91.3022 116.263 Q91.3022 107.513 94.3577 102.929 Q97.4364 98.3229 103.247 98.3229 Z" fill="#000000" fill-rule="evenodd" fill-opacity="1" /><path clip-path="url(#clip950)" d="M 0 0 M130.26 102.027 Q126.649 102.027 124.82 105.591 Q123.015 109.133 123.015 116.263 Q123.015 123.369 124.82 126.934 Q126.649 130.476 130.26 130.476 Q133.895 130.476 135.7 126.934 Q137.529 123.369 137.529 116.263 Q137.529 109.133 135.7 105.591 Q133.895 102.027 130.26 102.027 M130.26 98.3229 Q136.07 98.3229 139.126 102.929 Q142.205 107.513 142.205 116.263 Q142.205 124.989 139.126 129.596 Q136.07 134.179 130.26 134.179 Q124.45 134.179 121.371 129.596 Q118.316 124.989 118.316 116.263 Q118.316 107.513 121.371 102.929 Q124.45 98.3229 130.26 98.3229 Z" fill="#000000" fill-rule="evenodd" fill-opacity="1" /><path clip-path="url(#clip952)" d="
M286.469 1440.73 L286.469 1445.72 L314.672 1445.72 L314.672 1440.73 L286.469 1440.73 L286.469 1440.73  Z
  " fill="#009af9" fill-rule="evenodd" fill-opacity="1"/>
<polyline clip-path="url(#clip952)" style="stroke:#000000; stroke-width:4; stroke-opacity:1; fill:none" points="
  286.469,1440.73 286.469,1445.72 314.672,1445.72 314.672,1440.73 286.469,1440.73 
  "/>
<path clip-path="url(#clip952)" d="
M314.672 1445.72 L314.672 1445.72 L342.875 1445.72 L342.875 1445.72 L314.672 1445.72 L314.672 1445.72  Z
  " fill="#009af9" fill-rule="evenodd" fill-opacity="1"/>
<polyline clip-path="url(#clip952)" style="stroke:#000000; stroke-width:4; stroke-opacity:1; fill:none" points="
  314.672,1445.72 314.672,1445.72 342.875,1445.72 314.672,1445.72 
  "/>
<path clip-path="url(#clip952)" d="
M342.875 1445.72 L342.875 1445.72 L371.079 1445.72 L371.079 1445.72 L342.875 1445.72 L342.875 1445.72  Z
  " fill="#009af9" fill-rule="evenodd" fill-opacity="1"/>
<polyline clip-path="url(#clip952)" style="stroke:#000000; stroke-width:4; stroke-opacity:1; fill:none" points="
  342.875,1445.72 342.875,1445.72 371.079,1445.72 342.875,1445.72 
  "/>
<path clip-path="url(#clip952)" d="
M371.079 1444.05 L371.079 1445.72 L399.282 1445.72 L399.282 1444.05 L371.079 1444.05 L371.079 1444.05  Z
  " fill="#009af9" fill-rule="evenodd" fill-opacity="1"/>
<polyline clip-path="url(#clip952)" style="stroke:#000000; stroke-width:4; stroke-opacity:1; fill:none" points="
  371.079,1444.05 371.079,1445.72 399.282,1445.72 399.282,1444.05 371.079,1444.05 
  "/>
<path clip-path="url(#clip952)" d="
M399.282 1444.05 L399.282 1445.72 L427.485 1445.72 L427.485 1444.05 L399.282 1444.05 L399.282 1444.05  Z
  " fill="#009af9" fill-rule="evenodd" fill-opacity="1"/>
<polyline clip-path="url(#clip952)" style="stroke:#000000; stroke-width:4; stroke-opacity:1; fill:none" points="
  399.282,1444.05 399.282,1445.72 427.485,1445.72 427.485,1444.05 399.282,1444.05 
  "/>
<path clip-path="url(#clip952)" d="
M427.485 1440.73 L427.485 1445.72 L455.688 1445.72 L455.688 1440.73 L427.485 1440.73 L427.485 1440.73  Z
  " fill="#009af9" fill-rule="evenodd" fill-opacity="1"/>
<polyline clip-path="url(#clip952)" style="stroke:#000000; stroke-width:4; stroke-opacity:1; fill:none" points="
  427.485,1440.73 427.485,1445.72 455.688,1445.72 455.688,1440.73 427.485,1440.73 
  "/>
<path clip-path="url(#clip952)" d="
M455.688 1442.39 L455.688 1445.72 L483.891 1445.72 L483.891 1442.39 L455.688 1442.39 L455.688 1442.39  Z
  " fill="#009af9" fill-rule="evenodd" fill-opacity="1"/>
<polyline clip-path="url(#clip952)" style="stroke:#000000; stroke-width:4; stroke-opacity:1; fill:none" points="
  455.688,1442.39 455.688,1445.72 483.891,1445.72 483.891,1442.39 455.688,1442.39 
  "/>
<path clip-path="url(#clip952)" d="
M483.891 1442.39 L483.891 1445.72 L512.095 1445.72 L512.095 1442.39 L483.891 1442.39 L483.891 1442.39  Z
  " fill="#009af9" fill-rule="evenodd" fill-opacity="1"/>
<polyline clip-path="url(#clip952)" style="stroke:#000000; stroke-width:4; stroke-opacity:1; fill:none" points="
  483.891,1442.39 483.891,1445.72 512.095,1445.72 512.095,1442.39 483.891,1442.39 
  "/>
<path clip-path="url(#clip952)" d="
M512.095 1442.39 L512.095 1445.72 L540.298 1445.72 L540.298 1442.39 L512.095 1442.39 L512.095 1442.39  Z
  " fill="#009af9" fill-rule="evenodd" fill-opacity="1"/>
<polyline clip-path="url(#clip952)" style="stroke:#000000; stroke-width:4; stroke-opacity:1; fill:none" points="
  512.095,1442.39 512.095,1445.72 540.298,1445.72 540.298,1442.39 512.095,1442.39 
  "/>
<path clip-path="url(#clip952)" d="
M540.298 1435.74 L540.298 1445.72 L568.501 1445.72 L568.501 1435.74 L540.298 1435.74 L540.298 1435.74  Z
  " fill="#009af9" fill-rule="evenodd" fill-opacity="1"/>
<polyline clip-path="url(#clip952)" style="stroke:#000000; stroke-width:4; stroke-opacity:1; fill:none" points="
  540.298,1435.74 540.298,1445.72 568.501,1445.72 568.501,1435.74 540.298,1435.74 
  "/>
<path clip-path="url(#clip952)" d="
M568.501 1432.42 L568.501 1445.72 L596.704 1445.72 L596.704 1432.42 L568.501 1432.42 L568.501 1432.42  Z
  " fill="#009af9" fill-rule="evenodd" fill-opacity="1"/>
<polyline clip-path="url(#clip952)" style="stroke:#000000; stroke-width:4; stroke-opacity:1; fill:none" points="
  568.501,1432.42 568.501,1445.72 596.704,1445.72 596.704,1432.42 568.501,1432.42 
  "/>
<path clip-path="url(#clip952)" d="
M596.704 1434.08 L596.704 1445.72 L624.908 1445.72 L624.908 1434.08 L596.704 1434.08 L596.704 1434.08  Z
  " fill="#009af9" fill-rule="evenodd" fill-opacity="1"/>
<polyline clip-path="url(#clip952)" style="stroke:#000000; stroke-width:4; stroke-opacity:1; fill:none" points="
  596.704,1434.08 596.704,1445.72 624.908,1445.72 624.908,1434.08 596.704,1434.08 
  "/>
<path clip-path="url(#clip952)" d="
M624.908 1430.76 L624.908 1445.72 L653.111 1445.72 L653.111 1430.76 L624.908 1430.76 L624.908 1430.76  Z
  " fill="#009af9" fill-rule="evenodd" fill-opacity="1"/>
<polyline clip-path="url(#clip952)" style="stroke:#000000; stroke-width:4; stroke-opacity:1; fill:none" points="
  624.908,1430.76 624.908,1445.72 653.111,1445.72 653.111,1430.76 624.908,1430.76 
  "/>
<path clip-path="url(#clip952)" d="
M653.111 1429.1 L653.111 1445.72 L681.314 1445.72 L681.314 1429.1 L653.111 1429.1 L653.111 1429.1  Z
  " fill="#009af9" fill-rule="evenodd" fill-opacity="1"/>
<polyline clip-path="url(#clip952)" style="stroke:#000000; stroke-width:4; stroke-opacity:1; fill:none" points="
  653.111,1429.1 653.111,1445.72 681.314,1445.72 681.314,1429.1 653.111,1429.1 
  "/>
<path clip-path="url(#clip952)" d="
M681.314 1427.44 L681.314 1445.72 L709.517 1445.72 L709.517 1427.44 L681.314 1427.44 L681.314 1427.44  Z
  " fill="#009af9" fill-rule="evenodd" fill-opacity="1"/>
<polyline clip-path="url(#clip952)" style="stroke:#000000; stroke-width:4; stroke-opacity:1; fill:none" points="
  681.314,1427.44 681.314,1445.72 709.517,1445.72 709.517,1427.44 681.314,1427.44 
  "/>
<path clip-path="url(#clip952)" d="
M709.517 1420.79 L709.517 1445.72 L737.721 1445.72 L737.721 1420.79 L709.517 1420.79 L709.517 1420.79  Z
  " fill="#009af9" fill-rule="evenodd" fill-opacity="1"/>
<polyline clip-path="url(#clip952)" style="stroke:#000000; stroke-width:4; stroke-opacity:1; fill:none" points="
  709.517,1420.79 709.517,1445.72 737.721,1445.72 737.721,1420.79 709.517,1420.79 
  "/>
<path clip-path="url(#clip952)" d="
M737.721 1415.8 L737.721 1445.72 L765.924 1445.72 L765.924 1415.8 L737.721 1415.8 L737.721 1415.8  Z
  " fill="#009af9" fill-rule="evenodd" fill-opacity="1"/>
<polyline clip-path="url(#clip952)" style="stroke:#000000; stroke-width:4; stroke-opacity:1; fill:none" points="
  737.721,1415.8 737.721,1445.72 765.924,1445.72 765.924,1415.8 737.721,1415.8 
  "/>
<path clip-path="url(#clip952)" d="
M765.924 1394.2 L765.924 1445.72 L794.127 1445.72 L794.127 1394.2 L765.924 1394.2 L765.924 1394.2  Z
  " fill="#009af9" fill-rule="evenodd" fill-opacity="1"/>
<polyline clip-path="url(#clip952)" style="stroke:#000000; stroke-width:4; stroke-opacity:1; fill:none" points="
  765.924,1394.2 765.924,1445.72 794.127,1445.72 794.127,1394.2 765.924,1394.2 
  "/>
<path clip-path="url(#clip952)" d="
M794.127 1399.18 L794.127 1445.72 L822.33 1445.72 L822.33 1399.18 L794.127 1399.18 L794.127 1399.18  Z
  " fill="#009af9" fill-rule="evenodd" fill-opacity="1"/>
<polyline clip-path="url(#clip952)" style="stroke:#000000; stroke-width:4; stroke-opacity:1; fill:none" points="
  794.127,1399.18 794.127,1445.72 822.33,1445.72 822.33,1399.18 794.127,1399.18 
  "/>
<path clip-path="url(#clip952)" d="
M822.33 1382.57 L822.33 1445.72 L850.533 1445.72 L850.533 1382.57 L822.33 1382.57 L822.33 1382.57  Z
  " fill="#009af9" fill-rule="evenodd" fill-opacity="1"/>
<polyline clip-path="url(#clip952)" style="stroke:#000000; stroke-width:4; stroke-opacity:1; fill:none" points="
  822.33,1382.57 822.33,1445.72 850.533,1445.72 850.533,1382.57 822.33,1382.57 
  "/>
<path clip-path="url(#clip952)" d="
M850.533 1372.59 L850.533 1445.72 L878.737 1445.72 L878.737 1372.59 L850.533 1372.59 L850.533 1372.59  Z
  " fill="#009af9" fill-rule="evenodd" fill-opacity="1"/>
<polyline clip-path="url(#clip952)" style="stroke:#000000; stroke-width:4; stroke-opacity:1; fill:none" points="
  850.533,1372.59 850.533,1445.72 878.737,1445.72 878.737,1372.59 850.533,1372.59 
  "/>
<path clip-path="url(#clip952)" d="
M878.737 1355.98 L878.737 1445.72 L906.94 1445.72 L906.94 1355.98 L878.737 1355.98 L878.737 1355.98  Z
  " fill="#009af9" fill-rule="evenodd" fill-opacity="1"/>
<polyline clip-path="url(#clip952)" style="stroke:#000000; stroke-width:4; stroke-opacity:1; fill:none" points="
  878.737,1355.98 878.737,1445.72 906.94,1445.72 906.94,1355.98 878.737,1355.98 
  "/>
<path clip-path="url(#clip952)" d="
M906.94 1344.34 L906.94 1445.72 L935.143 1445.72 L935.143 1344.34 L906.94 1344.34 L906.94 1344.34  Z
  " fill="#009af9" fill-rule="evenodd" fill-opacity="1"/>
<polyline clip-path="url(#clip952)" style="stroke:#000000; stroke-width:4; stroke-opacity:1; fill:none" points="
  906.94,1344.34 906.94,1445.72 935.143,1445.72 935.143,1344.34 906.94,1344.34 
  "/>
<path clip-path="url(#clip952)" d="
M935.143 1337.69 L935.143 1445.72 L963.346 1445.72 L963.346 1337.69 L935.143 1337.69 L935.143 1337.69  Z
  " fill="#009af9" fill-rule="evenodd" fill-opacity="1"/>
<polyline clip-path="url(#clip952)" style="stroke:#000000; stroke-width:4; stroke-opacity:1; fill:none" points="
  935.143,1337.69 935.143,1445.72 963.346,1445.72 963.346,1337.69 935.143,1337.69 
  "/>
<path clip-path="url(#clip952)" d="
M963.346 1339.36 L963.346 1445.72 L991.55 1445.72 L991.55 1339.36 L963.346 1339.36 L963.346 1339.36  Z
  " fill="#009af9" fill-rule="evenodd" fill-opacity="1"/>
<polyline clip-path="url(#clip952)" style="stroke:#000000; stroke-width:4; stroke-opacity:1; fill:none" points="
  963.346,1339.36 963.346,1445.72 991.55,1445.72 991.55,1339.36 963.346,1339.36 
  "/>
<path clip-path="url(#clip952)" d="
M991.55 1314.43 L991.55 1445.72 L1019.75 1445.72 L1019.75 1314.43 L991.55 1314.43 L991.55 1314.43  Z
  " fill="#009af9" fill-rule="evenodd" fill-opacity="1"/>
<polyline clip-path="url(#clip952)" style="stroke:#000000; stroke-width:4; stroke-opacity:1; fill:none" points="
  991.55,1314.43 991.55,1445.72 1019.75,1445.72 1019.75,1314.43 991.55,1314.43 
  "/>
<path clip-path="url(#clip952)" d="
M1019.75 1297.81 L1019.75 1445.72 L1047.96 1445.72 L1047.96 1297.81 L1019.75 1297.81 L1019.75 1297.81  Z
  " fill="#009af9" fill-rule="evenodd" fill-opacity="1"/>
<polyline clip-path="url(#clip952)" style="stroke:#000000; stroke-width:4; stroke-opacity:1; fill:none" points="
  1019.75,1297.81 1019.75,1445.72 1047.96,1445.72 1047.96,1297.81 1019.75,1297.81 
  "/>
<path clip-path="url(#clip952)" d="
M1047.96 1291.16 L1047.96 1445.72 L1076.16 1445.72 L1076.16 1291.16 L1047.96 1291.16 L1047.96 1291.16  Z
  " fill="#009af9" fill-rule="evenodd" fill-opacity="1"/>
<polyline clip-path="url(#clip952)" style="stroke:#000000; stroke-width:4; stroke-opacity:1; fill:none" points="
  1047.96,1291.16 1047.96,1445.72 1076.16,1445.72 1076.16,1291.16 1047.96,1291.16 
  "/>
<path clip-path="url(#clip952)" d="
M1076.16 1291.16 L1076.16 1445.72 L1104.36 1445.72 L1104.36 1291.16 L1076.16 1291.16 L1076.16 1291.16  Z
  " fill="#009af9" fill-rule="evenodd" fill-opacity="1"/>
<polyline clip-path="url(#clip952)" style="stroke:#000000; stroke-width:4; stroke-opacity:1; fill:none" points="
  1076.16,1291.16 1076.16,1445.72 1104.36,1445.72 1104.36,1291.16 1076.16,1291.16 
  "/>
<path clip-path="url(#clip952)" d="
M1104.36 1287.84 L1104.36 1445.72 L1132.57 1445.72 L1132.57 1287.84 L1104.36 1287.84 L1104.36 1287.84  Z
  " fill="#009af9" fill-rule="evenodd" fill-opacity="1"/>
<polyline clip-path="url(#clip952)" style="stroke:#000000; stroke-width:4; stroke-opacity:1; fill:none" points="
  1104.36,1287.84 1104.36,1445.72 1132.57,1445.72 1132.57,1287.84 1104.36,1287.84 
  "/>
<path clip-path="url(#clip952)" d="
M1132.57 1247.95 L1132.57 1445.72 L1160.77 1445.72 L1160.77 1247.95 L1132.57 1247.95 L1132.57 1247.95  Z
  " fill="#009af9" fill-rule="evenodd" fill-opacity="1"/>
<polyline clip-path="url(#clip952)" style="stroke:#000000; stroke-width:4; stroke-opacity:1; fill:none" points="
  1132.57,1247.95 1132.57,1445.72 1160.77,1445.72 1160.77,1247.95 1132.57,1247.95 
  "/>
<path clip-path="url(#clip952)" d="
M1160.77 1264.57 L1160.77 1445.72 L1188.97 1445.72 L1188.97 1264.57 L1160.77 1264.57 L1160.77 1264.57  Z
  " fill="#009af9" fill-rule="evenodd" fill-opacity="1"/>
<polyline clip-path="url(#clip952)" style="stroke:#000000; stroke-width:4; stroke-opacity:1; fill:none" points="
  1160.77,1264.57 1160.77,1445.72 1188.97,1445.72 1188.97,1264.57 1160.77,1264.57 
  "/>
<path clip-path="url(#clip952)" d="
M1188.97 1224.69 L1188.97 1445.72 L1217.18 1445.72 L1217.18 1224.69 L1188.97 1224.69 L1188.97 1224.69  Z
  " fill="#009af9" fill-rule="evenodd" fill-opacity="1"/>
<polyline clip-path="url(#clip952)" style="stroke:#000000; stroke-width:4; stroke-opacity:1; fill:none" points="
  1188.97,1224.69 1188.97,1445.72 1217.18,1445.72 1217.18,1224.69 1188.97,1224.69 
  "/>
<path clip-path="url(#clip952)" d="
M1217.18 1213.06 L1217.18 1445.72 L1245.38 1445.72 L1245.38 1213.06 L1217.18 1213.06 L1217.18 1213.06  Z
  " fill="#009af9" fill-rule="evenodd" fill-opacity="1"/>
<polyline clip-path="url(#clip952)" style="stroke:#000000; stroke-width:4; stroke-opacity:1; fill:none" points="
  1217.18,1213.06 1217.18,1445.72 1245.38,1445.72 1245.38,1213.06 1217.18,1213.06 
  "/>
<path clip-path="url(#clip952)" d="
M1245.38 1247.95 L1245.38 1445.72 L1273.58 1445.72 L1273.58 1247.95 L1245.38 1247.95 L1245.38 1247.95  Z
  " fill="#009af9" fill-rule="evenodd" fill-opacity="1"/>
<polyline clip-path="url(#clip952)" style="stroke:#000000; stroke-width:4; stroke-opacity:1; fill:none" points="
  1245.38,1247.95 1245.38,1445.72 1273.58,1445.72 1273.58,1247.95 1245.38,1247.95 
  "/>
<path clip-path="url(#clip952)" d="
M1273.58 1279.53 L1273.58 1445.72 L1301.79 1445.72 L1301.79 1279.53 L1273.58 1279.53 L1273.58 1279.53  Z
  " fill="#009af9" fill-rule="evenodd" fill-opacity="1"/>
<polyline clip-path="url(#clip952)" style="stroke:#000000; stroke-width:4; stroke-opacity:1; fill:none" points="
  1273.58,1279.53 1273.58,1445.72 1301.79,1445.72 1301.79,1279.53 1273.58,1279.53 
  "/>
<path clip-path="url(#clip952)" d="
M1301.79 1241.31 L1301.79 1445.72 L1329.99 1445.72 L1329.99 1241.31 L1301.79 1241.31 L1301.79 1241.31  Z
  " fill="#009af9" fill-rule="evenodd" fill-opacity="1"/>
<polyline clip-path="url(#clip952)" style="stroke:#000000; stroke-width:4; stroke-opacity:1; fill:none" points="
  1301.79,1241.31 1301.79,1445.72 1329.99,1445.72 1329.99,1241.31 1301.79,1241.31 
  "/>
<path clip-path="url(#clip952)" d="
M1329.99 1201.42 L1329.99 1445.72 L1358.19 1445.72 L1358.19 1201.42 L1329.99 1201.42 L1329.99 1201.42  Z
  " fill="#009af9" fill-rule="evenodd" fill-opacity="1"/>
<polyline clip-path="url(#clip952)" style="stroke:#000000; stroke-width:4; stroke-opacity:1; fill:none" points="
  1329.99,1201.42 1329.99,1445.72 1358.19,1445.72 1358.19,1201.42 1329.99,1201.42 
  "/>
<path clip-path="url(#clip952)" d="
M1358.19 797.59 L1358.19 1445.72 L1386.39 1445.72 L1386.39 797.59 L1358.19 797.59 L1358.19 797.59  Z
  " fill="#009af9" fill-rule="evenodd" fill-opacity="1"/>
<polyline clip-path="url(#clip952)" style="stroke:#000000; stroke-width:4; stroke-opacity:1; fill:none" points="
  1358.19,797.59 1358.19,1445.72 1386.39,1445.72 1386.39,797.59 1358.19,797.59 
  "/>
<path clip-path="url(#clip952)" d="
M1386.39 87.9763 L1386.39 1445.72 L1414.6 1445.72 L1414.6 87.9763 L1386.39 87.9763 L1386.39 87.9763  Z
  " fill="#009af9" fill-rule="evenodd" fill-opacity="1"/>
<polyline clip-path="url(#clip952)" style="stroke:#000000; stroke-width:4; stroke-opacity:1; fill:none" points="
  1386.39,87.9763 1386.39,1445.72 1414.6,1445.72 1414.6,87.9763 1386.39,87.9763 
  "/>
<path clip-path="url(#clip952)" d="
M1414.6 212.616 L1414.6 1445.72 L1442.8 1445.72 L1442.8 212.616 L1414.6 212.616 L1414.6 212.616  Z
  " fill="#009af9" fill-rule="evenodd" fill-opacity="1"/>
<polyline clip-path="url(#clip952)" style="stroke:#000000; stroke-width:4; stroke-opacity:1; fill:none" points="
  1414.6,212.616 1414.6,1445.72 1442.8,1445.72 1442.8,212.616 1414.6,212.616 
  "/>
<path clip-path="url(#clip952)" d="
M1442.8 819.195 L1442.8 1445.72 L1471 1445.72 L1471 819.195 L1442.8 819.195 L1442.8 819.195  Z
  " fill="#009af9" fill-rule="evenodd" fill-opacity="1"/>
<polyline clip-path="url(#clip952)" style="stroke:#000000; stroke-width:4; stroke-opacity:1; fill:none" points="
  1442.8,819.195 1442.8,1445.72 1471,1445.72 1471,819.195 1442.8,819.195 
  "/>
<path clip-path="url(#clip952)" d="
M1471 1249.62 L1471 1445.72 L1499.21 1445.72 L1499.21 1249.62 L1471 1249.62 L1471 1249.62  Z
  " fill="#009af9" fill-rule="evenodd" fill-opacity="1"/>
<polyline clip-path="url(#clip952)" style="stroke:#000000; stroke-width:4; stroke-opacity:1; fill:none" points="
  1471,1249.62 1471,1445.72 1499.21,1445.72 1499.21,1249.62 1471,1249.62 
  "/>
<path clip-path="url(#clip952)" d="
M1499.21 1294.49 L1499.21 1445.72 L1527.41 1445.72 L1527.41 1294.49 L1499.21 1294.49 L1499.21 1294.49  Z
  " fill="#009af9" fill-rule="evenodd" fill-opacity="1"/>
<polyline clip-path="url(#clip952)" style="stroke:#000000; stroke-width:4; stroke-opacity:1; fill:none" points="
  1499.21,1294.49 1499.21,1445.72 1527.41,1445.72 1527.41,1294.49 1499.21,1294.49 
  "/>
<path clip-path="url(#clip952)" d="
M1527.41 1322.74 L1527.41 1445.72 L1555.61 1445.72 L1555.61 1322.74 L1527.41 1322.74 L1527.41 1322.74  Z
  " fill="#009af9" fill-rule="evenodd" fill-opacity="1"/>
<polyline clip-path="url(#clip952)" style="stroke:#000000; stroke-width:4; stroke-opacity:1; fill:none" points="
  1527.41,1322.74 1527.41,1445.72 1555.61,1445.72 1555.61,1322.74 1527.41,1322.74 
  "/>
<path clip-path="url(#clip952)" d="
M1555.61 1349.33 L1555.61 1445.72 L1583.82 1445.72 L1583.82 1349.33 L1555.61 1349.33 L1555.61 1349.33  Z
  " fill="#009af9" fill-rule="evenodd" fill-opacity="1"/>
<polyline clip-path="url(#clip952)" style="stroke:#000000; stroke-width:4; stroke-opacity:1; fill:none" points="
  1555.61,1349.33 1555.61,1445.72 1583.82,1445.72 1583.82,1349.33 1555.61,1349.33 
  "/>
<path clip-path="url(#clip952)" d="
M1583.82 1327.72 L1583.82 1445.72 L1612.02 1445.72 L1612.02 1327.72 L1583.82 1327.72 L1583.82 1327.72  Z
  " fill="#009af9" fill-rule="evenodd" fill-opacity="1"/>
<polyline clip-path="url(#clip952)" style="stroke:#000000; stroke-width:4; stroke-opacity:1; fill:none" points="
  1583.82,1327.72 1583.82,1445.72 1612.02,1445.72 1612.02,1327.72 1583.82,1327.72 
  "/>
<path clip-path="url(#clip952)" d="
M1612.02 1365.95 L1612.02 1445.72 L1640.22 1445.72 L1640.22 1365.95 L1612.02 1365.95 L1612.02 1365.95  Z
  " fill="#009af9" fill-rule="evenodd" fill-opacity="1"/>
<polyline clip-path="url(#clip952)" style="stroke:#000000; stroke-width:4; stroke-opacity:1; fill:none" points="
  1612.02,1365.95 1612.02,1445.72 1640.22,1445.72 1640.22,1365.95 1612.02,1365.95 
  "/>
<path clip-path="url(#clip952)" d="
M1640.22 1360.96 L1640.22 1445.72 L1668.43 1445.72 L1668.43 1360.96 L1640.22 1360.96 L1640.22 1360.96  Z
  " fill="#009af9" fill-rule="evenodd" fill-opacity="1"/>
<polyline clip-path="url(#clip952)" style="stroke:#000000; stroke-width:4; stroke-opacity:1; fill:none" points="
  1640.22,1360.96 1640.22,1445.72 1668.43,1445.72 1668.43,1360.96 1640.22,1360.96 
  "/>
<path clip-path="url(#clip952)" d="
M1668.43 1379.24 L1668.43 1445.72 L1696.63 1445.72 L1696.63 1379.24 L1668.43 1379.24 L1668.43 1379.24  Z
  " fill="#009af9" fill-rule="evenodd" fill-opacity="1"/>
<polyline clip-path="url(#clip952)" style="stroke:#000000; stroke-width:4; stroke-opacity:1; fill:none" points="
  1668.43,1379.24 1668.43,1445.72 1696.63,1445.72 1696.63,1379.24 1668.43,1379.24 
  "/>
<path clip-path="url(#clip952)" d="
M1696.63 1377.58 L1696.63 1445.72 L1724.83 1445.72 L1724.83 1377.58 L1696.63 1377.58 L1696.63 1377.58  Z
  " fill="#009af9" fill-rule="evenodd" fill-opacity="1"/>
<polyline clip-path="url(#clip952)" style="stroke:#000000; stroke-width:4; stroke-opacity:1; fill:none" points="
  1696.63,1377.58 1696.63,1445.72 1724.83,1445.72 1724.83,1377.58 1696.63,1377.58 
  "/>
<path clip-path="url(#clip952)" d="
M1724.83 1402.51 L1724.83 1445.72 L1753.04 1445.72 L1753.04 1402.51 L1724.83 1402.51 L1724.83 1402.51  Z
  " fill="#009af9" fill-rule="evenodd" fill-opacity="1"/>
<polyline clip-path="url(#clip952)" style="stroke:#000000; stroke-width:4; stroke-opacity:1; fill:none" points="
  1724.83,1402.51 1724.83,1445.72 1753.04,1445.72 1753.04,1402.51 1724.83,1402.51 
  "/>
<path clip-path="url(#clip952)" d="
M1753.04 1412.48 L1753.04 1445.72 L1781.24 1445.72 L1781.24 1412.48 L1753.04 1412.48 L1753.04 1412.48  Z
  " fill="#009af9" fill-rule="evenodd" fill-opacity="1"/>
<polyline clip-path="url(#clip952)" style="stroke:#000000; stroke-width:4; stroke-opacity:1; fill:none" points="
  1753.04,1412.48 1753.04,1445.72 1781.24,1445.72 1781.24,1412.48 1753.04,1412.48 
  "/>
<path clip-path="url(#clip952)" d="
M1781.24 1400.85 L1781.24 1445.72 L1809.44 1445.72 L1809.44 1400.85 L1781.24 1400.85 L1781.24 1400.85  Z
  " fill="#009af9" fill-rule="evenodd" fill-opacity="1"/>
<polyline clip-path="url(#clip952)" style="stroke:#000000; stroke-width:4; stroke-opacity:1; fill:none" points="
  1781.24,1400.85 1781.24,1445.72 1809.44,1445.72 1809.44,1400.85 1781.24,1400.85 
  "/>
<path clip-path="url(#clip952)" d="
M1809.44 1414.14 L1809.44 1445.72 L1837.65 1445.72 L1837.65 1414.14 L1809.44 1414.14 L1809.44 1414.14  Z
  " fill="#009af9" fill-rule="evenodd" fill-opacity="1"/>
<polyline clip-path="url(#clip952)" style="stroke:#000000; stroke-width:4; stroke-opacity:1; fill:none" points="
  1809.44,1414.14 1809.44,1445.72 1837.65,1445.72 1837.65,1414.14 1809.44,1414.14 
  "/>
<path clip-path="url(#clip952)" d="
M1837.65 1424.11 L1837.65 1445.72 L1865.85 1445.72 L1865.85 1424.11 L1837.65 1424.11 L1837.65 1424.11  Z
  " fill="#009af9" fill-rule="evenodd" fill-opacity="1"/>
<polyline clip-path="url(#clip952)" style="stroke:#000000; stroke-width:4; stroke-opacity:1; fill:none" points="
  1837.65,1424.11 1837.65,1445.72 1865.85,1445.72 1865.85,1424.11 1837.65,1424.11 
  "/>
<path clip-path="url(#clip952)" d="
M1865.85 1434.08 L1865.85 1445.72 L1894.05 1445.72 L1894.05 1434.08 L1865.85 1434.08 L1865.85 1434.08  Z
  " fill="#009af9" fill-rule="evenodd" fill-opacity="1"/>
<polyline clip-path="url(#clip952)" style="stroke:#000000; stroke-width:4; stroke-opacity:1; fill:none" points="
  1865.85,1434.08 1865.85,1445.72 1894.05,1445.72 1894.05,1434.08 1865.85,1434.08 
  "/>
<path clip-path="url(#clip952)" d="
M1894.05 1410.82 L1894.05 1445.72 L1922.26 1445.72 L1922.26 1410.82 L1894.05 1410.82 L1894.05 1410.82  Z
  " fill="#009af9" fill-rule="evenodd" fill-opacity="1"/>
<polyline clip-path="url(#clip952)" style="stroke:#000000; stroke-width:4; stroke-opacity:1; fill:none" points="
  1894.05,1410.82 1894.05,1445.72 1922.26,1445.72 1922.26,1410.82 1894.05,1410.82 
  "/>
<path clip-path="url(#clip952)" d="
M1922.26 1430.76 L1922.26 1445.72 L1950.46 1445.72 L1950.46 1430.76 L1922.26 1430.76 L1922.26 1430.76  Z
  " fill="#009af9" fill-rule="evenodd" fill-opacity="1"/>
<polyline clip-path="url(#clip952)" style="stroke:#000000; stroke-width:4; stroke-opacity:1; fill:none" points="
  1922.26,1430.76 1922.26,1445.72 1950.46,1445.72 1950.46,1430.76 1922.26,1430.76 
  "/>
<path clip-path="url(#clip952)" d="
M1950.46 1435.74 L1950.46 1445.72 L1978.66 1445.72 L1978.66 1435.74 L1950.46 1435.74 L1950.46 1435.74  Z
  " fill="#009af9" fill-rule="evenodd" fill-opacity="1"/>
<polyline clip-path="url(#clip952)" style="stroke:#000000; stroke-width:4; stroke-opacity:1; fill:none" points="
  1950.46,1435.74 1950.46,1445.72 1978.66,1445.72 1978.66,1435.74 1950.46,1435.74 
  "/>
<path clip-path="url(#clip952)" d="
M1978.66 1439.07 L1978.66 1445.72 L2006.87 1445.72 L2006.87 1439.07 L1978.66 1439.07 L1978.66 1439.07  Z
  " fill="#009af9" fill-rule="evenodd" fill-opacity="1"/>
<polyline clip-path="url(#clip952)" style="stroke:#000000; stroke-width:4; stroke-opacity:1; fill:none" points="
  1978.66,1439.07 1978.66,1445.72 2006.87,1445.72 2006.87,1439.07 1978.66,1439.07 
  "/>
<path clip-path="url(#clip952)" d="
M2006.87 1444.05 L2006.87 1445.72 L2035.07 1445.72 L2035.07 1444.05 L2006.87 1444.05 L2006.87 1444.05  Z
  " fill="#009af9" fill-rule="evenodd" fill-opacity="1"/>
<polyline clip-path="url(#clip952)" style="stroke:#000000; stroke-width:4; stroke-opacity:1; fill:none" points="
  2006.87,1444.05 2006.87,1445.72 2035.07,1445.72 2035.07,1444.05 2006.87,1444.05 
  "/>
<path clip-path="url(#clip952)" d="
M2035.07 1444.05 L2035.07 1445.72 L2063.27 1445.72 L2063.27 1444.05 L2035.07 1444.05 L2035.07 1444.05  Z
  " fill="#009af9" fill-rule="evenodd" fill-opacity="1"/>
<polyline clip-path="url(#clip952)" style="stroke:#000000; stroke-width:4; stroke-opacity:1; fill:none" points="
  2035.07,1444.05 2035.07,1445.72 2063.27,1445.72 2063.27,1444.05 2035.07,1444.05 
  "/>
<path clip-path="url(#clip952)" d="
M2063.27 1444.05 L2063.27 1445.72 L2091.48 1445.72 L2091.48 1444.05 L2063.27 1444.05 L2063.27 1444.05  Z
  " fill="#009af9" fill-rule="evenodd" fill-opacity="1"/>
<polyline clip-path="url(#clip952)" style="stroke:#000000; stroke-width:4; stroke-opacity:1; fill:none" points="
  2063.27,1444.05 2063.27,1445.72 2091.48,1445.72 2091.48,1444.05 2063.27,1444.05 
  "/>
<path clip-path="url(#clip952)" d="
M2091.48 1445.72 L2091.48 1445.72 L2119.68 1445.72 L2119.68 1445.72 L2091.48 1445.72 L2091.48 1445.72  Z
  " fill="#009af9" fill-rule="evenodd" fill-opacity="1"/>
<polyline clip-path="url(#clip952)" style="stroke:#000000; stroke-width:4; stroke-opacity:1; fill:none" points="
  2091.48,1445.72 2091.48,1445.72 2119.68,1445.72 2091.48,1445.72 
  "/>
<path clip-path="url(#clip952)" d="
M2119.68 1444.05 L2119.68 1445.72 L2147.88 1445.72 L2147.88 1444.05 L2119.68 1444.05 L2119.68 1444.05  Z
  " fill="#009af9" fill-rule="evenodd" fill-opacity="1"/>
<polyline clip-path="url(#clip952)" style="stroke:#000000; stroke-width:4; stroke-opacity:1; fill:none" points="
  2119.68,1444.05 2119.68,1445.72 2147.88,1445.72 2147.88,1444.05 2119.68,1444.05 
  "/>
<path clip-path="url(#clip952)" d="
M2147.88 1440.73 L2147.88 1445.72 L2176.09 1445.72 L2176.09 1440.73 L2147.88 1440.73 L2147.88 1440.73  Z
  " fill="#009af9" fill-rule="evenodd" fill-opacity="1"/>
<polyline clip-path="url(#clip952)" style="stroke:#000000; stroke-width:4; stroke-opacity:1; fill:none" points="
  2147.88,1440.73 2147.88,1445.72 2176.09,1445.72 2176.09,1440.73 2147.88,1440.73 
  "/>
<path clip-path="url(#clip952)" d="
M2176.09 1445.72 L2176.09 1445.72 L2204.29 1445.72 L2204.29 1445.72 L2176.09 1445.72 L2176.09 1445.72  Z
  " fill="#009af9" fill-rule="evenodd" fill-opacity="1"/>
<polyline clip-path="url(#clip952)" style="stroke:#000000; stroke-width:4; stroke-opacity:1; fill:none" points="
  2176.09,1445.72 2176.09,1445.72 2204.29,1445.72 2176.09,1445.72 
  "/>
<path clip-path="url(#clip952)" d="
M2204.29 1444.05 L2204.29 1445.72 L2232.49 1445.72 L2232.49 1444.05 L2204.29 1444.05 L2204.29 1444.05  Z
  " fill="#009af9" fill-rule="evenodd" fill-opacity="1"/>
<polyline clip-path="url(#clip952)" style="stroke:#000000; stroke-width:4; stroke-opacity:1; fill:none" points="
  2204.29,1444.05 2204.29,1445.72 2232.49,1445.72 2232.49,1444.05 2204.29,1444.05 
  "/>
<path clip-path="url(#clip950)" d="
M1985.9 216.178 L2279.87 216.178 L2279.87 95.2176 L1985.9 95.2176  Z
  " fill="#ffffff" fill-rule="evenodd" fill-opacity="1"/>
<polyline clip-path="url(#clip950)" style="stroke:#000000; stroke-width:4; stroke-opacity:1; fill:none" points="
  1985.9,216.178 2279.87,216.178 2279.87,95.2176 1985.9,95.2176 1985.9,216.178 
  "/>
<path clip-path="url(#clip950)" d="
M2010.2 179.89 L2155.97 179.89 L2155.97 131.506 L2010.2 131.506 L2010.2 179.89  Z
  " fill="#009af9" fill-rule="evenodd" fill-opacity="1"/>
<polyline clip-path="url(#clip950)" style="stroke:#000000; stroke-width:4; stroke-opacity:1; fill:none" points="
  2010.2,179.89 2155.97,179.89 2155.97,131.506 2010.2,131.506 2010.2,179.89 
  "/>
<path clip-path="url(#clip950)" d="M 0 0 M2194.11 175.385 Q2192.3 180.015 2190.59 181.427 Q2188.87 182.839 2186 182.839 L2182.6 182.839 L2182.6 179.274 L2185.1 179.274 Q2186.86 179.274 2187.83 178.44 Q2188.8 177.607 2189.98 174.505 L2190.75 172.561 L2180.26 147.052 L2184.78 147.052 L2192.88 167.329 L2200.98 147.052 L2205.49 147.052 L2194.11 175.385 Z" fill="#000000" fill-rule="evenodd" fill-opacity="1" /><path clip-path="url(#clip950)" d="M 0 0 M2211.37 169.042 L2219.01 169.042 L2219.01 142.677 L2210.7 144.343 L2210.7 140.084 L2218.97 138.418 L2223.64 138.418 L2223.64 169.042 L2231.28 169.042 L2231.28 172.978 L2211.37 172.978 L2211.37 169.042 Z" fill="#000000" fill-rule="evenodd" fill-opacity="1" /></svg>
