<?xml version="1.0" encoding="utf-8"?>
<svg xmlns="http://www.w3.org/2000/svg" xmlns:xlink="http://www.w3.org/1999/xlink" width="600" height="400" viewBox="0 0 2400 1600">
<defs>
  <clipPath id="clip940">
    <rect x="0" y="0" width="2400" height="1600"/>
  </clipPath>
</defs>
<path clip-path="url(#clip940)" d="
M0 1600 L2400 1600 L2400 0 L0 0  Z
  " fill="#ffffff" fill-rule="evenodd" fill-opacity="1"/>
<defs>
  <clipPath id="clip941">
    <rect x="480" y="0" width="1681" height="1600"/>
  </clipPath>
</defs>
<path clip-path="url(#clip940)" d="
M166.205 1486.45 L2352.76 1486.45 L2352.76 47.2441 L166.205 47.2441  Z
  " fill="#ffffff" fill-rule="evenodd" fill-opacity="1"/>
<defs>
  <clipPath id="clip942">
    <rect x="166" y="47" width="2188" height="1440"/>
  </clipPath>
</defs>
<polyline clip-path="url(#clip942)" style="stroke:#000000; stroke-width:2; stroke-opacity:0.1; fill:none" points="
  550.744,1486.45 550.744,47.2441 
  "/>
<polyline clip-path="url(#clip942)" style="stroke:#000000; stroke-width:2; stroke-opacity:0.1; fill:none" points="
  1151.37,1486.45 1151.37,47.2441 
  "/>
<polyline clip-path="url(#clip942)" style="stroke:#000000; stroke-width:2; stroke-opacity:0.1; fill:none" points="
  1751.99,1486.45 1751.99,47.2441 
  "/>
<polyline clip-path="url(#clip942)" style="stroke:#000000; stroke-width:2; stroke-opacity:0.1; fill:none" points="
  2352.62,1486.45 2352.62,47.2441 
  "/>
<polyline clip-path="url(#clip942)" style="stroke:#000000; stroke-width:2; stroke-opacity:0.1; fill:none" points="
  166.205,1445.72 2352.76,1445.72 
  "/>
<polyline clip-path="url(#clip942)" style="stroke:#000000; stroke-width:2; stroke-opacity:0.1; fill:none" points="
  166.205,1111.71 2352.76,1111.71 
  "/>
<polyline clip-path="url(#clip942)" style="stroke:#000000; stroke-width:2; stroke-opacity:0.1; fill:none" points="
  166.205,777.701 2352.76,777.701 
  "/>
<polyline clip-path="url(#clip942)" style="stroke:#000000; stroke-width:2; stroke-opacity:0.1; fill:none" points="
  166.205,443.694 2352.76,443.694 
  "/>
<polyline clip-path="url(#clip942)" style="stroke:#000000; stroke-width:2; stroke-opacity:0.1; fill:none" points="
  166.205,109.687 2352.76,109.687 
  "/>
<polyline clip-path="url(#clip940)" style="stroke:#000000; stroke-width:4; stroke-opacity:1; fill:none" points="
  166.205,1486.45 2352.76,1486.45 
  "/>
<polyline clip-path="url(#clip940)" style="stroke:#000000; stroke-width:4; stroke-opacity:1; fill:none" points="
  166.205,1486.45 166.205,47.2441 
  "/>
<polyline clip-path="url(#clip940)" style="stroke:#000000; stroke-width:4; stroke-opacity:1; fill:none" points="
  550.744,1486.45 550.744,1469.18 
  "/>
<polyline clip-path="url(#clip940)" style="stroke:#000000; stroke-width:4; stroke-opacity:1; fill:none" points="
  1151.37,1486.45 1151.37,1469.18 
  "/>
<polyline clip-path="url(#clip940)" style="stroke:#000000; stroke-width:4; stroke-opacity:1; fill:none" points="
  1751.99,1486.45 1751.99,1469.18 
  "/>
<polyline clip-path="url(#clip940)" style="stroke:#000000; stroke-width:4; stroke-opacity:1; fill:none" points="
  2352.62,1486.45 2352.62,1469.18 
  "/>
<polyline clip-path="url(#clip940)" style="stroke:#000000; stroke-width:4; stroke-opacity:1; fill:none" points="
  166.205,1445.72 192.443,1445.72 
  "/>
<polyline clip-path="url(#clip940)" style="stroke:#000000; stroke-width:4; stroke-opacity:1; fill:none" points="
  166.205,1111.71 192.443,1111.71 
  "/>
<polyline clip-path="url(#clip940)" style="stroke:#000000; stroke-width:4; stroke-opacity:1; fill:none" points="
  166.205,777.701 192.443,777.701 
  "/>
<polyline clip-path="url(#clip940)" style="stroke:#000000; stroke-width:4; stroke-opacity:1; fill:none" points="
  166.205,443.694 192.443,443.694 
  "/>
<polyline clip-path="url(#clip940)" style="stroke:#000000; stroke-width:4; stroke-opacity:1; fill:none" points="
  166.205,109.687 192.443,109.687 
  "/>
<path clip-path="url(#clip940)" d="M 0 0 M531.496 1525.04 L543.973 1525.04 L543.973 1528.83 L531.496 1528.83 L531.496 1525.04 Z" fill="#000000" fill-rule="evenodd" fill-opacity="1" /><path clip-path="url(#clip940)" d="M 0 0 M549.088 1505.36 L567.445 1505.36 L567.445 1509.3 L553.371 1509.3 L553.371 1517.77 Q554.389 1517.42 555.408 1517.26 Q556.426 1517.07 557.445 1517.07 Q563.232 1517.07 566.612 1520.24 Q569.991 1523.42 569.991 1528.83 Q569.991 1534.41 566.519 1537.51 Q563.047 1540.59 556.727 1540.59 Q554.551 1540.59 552.283 1540.22 Q550.038 1539.85 547.63 1539.11 L547.63 1534.41 Q549.713 1535.54 551.936 1536.1 Q554.158 1536.66 556.635 1536.66 Q560.639 1536.66 562.977 1534.55 Q565.315 1532.44 565.315 1528.83 Q565.315 1525.22 562.977 1523.11 Q560.639 1521.01 556.635 1521.01 Q554.76 1521.01 552.885 1521.42 Q551.033 1521.84 549.088 1522.72 L549.088 1505.36 Z" fill="#000000" fill-rule="evenodd" fill-opacity="1" /><path clip-path="url(#clip940)" d="M 0 0 M1151.37 1508.44 Q1147.76 1508.44 1145.93 1512 Q1144.12 1515.55 1144.12 1522.67 Q1144.12 1529.78 1145.93 1533.35 Q1147.76 1536.89 1151.37 1536.89 Q1155 1536.89 1156.81 1533.35 Q1158.64 1529.78 1158.64 1522.67 Q1158.64 1515.55 1156.81 1512 Q1155 1508.44 1151.37 1508.44 M1151.37 1504.73 Q1157.18 1504.73 1160.23 1509.34 Q1163.31 1513.92 1163.31 1522.67 Q1163.31 1531.4 1160.23 1536.01 Q1157.18 1540.59 1151.37 1540.59 Q1145.56 1540.59 1142.48 1536.01 Q1139.42 1531.4 1139.42 1522.67 Q1139.42 1513.92 1142.48 1509.34 Q1145.56 1504.73 1151.37 1504.73 Z" fill="#000000" fill-rule="evenodd" fill-opacity="1" /><path clip-path="url(#clip940)" d="M 0 0 M1742.27 1505.36 L1760.63 1505.36 L1760.63 1509.3 L1746.55 1509.3 L1746.55 1517.77 Q1747.57 1517.42 1748.59 1517.26 Q1749.61 1517.07 1750.63 1517.07 Q1756.41 1517.07 1759.79 1520.24 Q1763.17 1523.42 1763.17 1528.83 Q1763.17 1534.41 1759.7 1537.51 Q1756.23 1540.59 1749.91 1540.59 Q1747.73 1540.59 1745.46 1540.22 Q1743.22 1539.85 1740.81 1539.11 L1740.81 1534.41 Q1742.9 1535.54 1745.12 1536.1 Q1747.34 1536.66 1749.82 1536.66 Q1753.82 1536.66 1756.16 1534.55 Q1758.5 1532.44 1758.5 1528.83 Q1758.5 1525.22 1756.16 1523.11 Q1753.82 1521.01 1749.82 1521.01 Q1747.94 1521.01 1746.07 1521.42 Q1744.21 1521.84 1742.27 1522.72 L1742.27 1505.36 Z" fill="#000000" fill-rule="evenodd" fill-opacity="1" /><path clip-path="url(#clip940)" d="M 0 0 M2329.49 1535.98 L2337.13 1535.98 L2337.13 1509.62 L2328.82 1511.29 L2328.82 1507.03 L2337.08 1505.36 L2341.76 1505.36 L2341.76 1535.98 L2349.4 1535.98 L2349.4 1539.92 L2329.49 1539.92 L2329.49 1535.98 Z" fill="#000000" fill-rule="evenodd" fill-opacity="1" /><path clip-path="url(#clip940)" d="M 0 0 M2364.47 1508.44 Q2360.86 1508.44 2359.03 1512 Q2357.22 1515.55 2357.22 1522.67 Q2357.22 1529.78 2359.03 1533.35 Q2360.86 1536.89 2364.47 1536.89 Q2368.1 1536.89 2369.91 1533.35 Q2371.74 1529.78 2371.74 1522.67 Q2371.74 1515.55 2369.91 1512 Q2368.1 1508.44 2364.47 1508.44 M2364.47 1504.73 Q2370.28 1504.73 2373.33 1509.34 Q2376.41 1513.92 2376.41 1522.67 Q2376.41 1531.4 2373.33 1536.01 Q2370.28 1540.59 2364.47 1540.59 Q2358.66 1540.59 2355.58 1536.01 Q2352.52 1531.4 2352.52 1522.67 Q2352.52 1513.92 2355.58 1509.34 Q2358.66 1504.73 2364.47 1504.73 Z" fill="#000000" fill-rule="evenodd" fill-opacity="1" /><path clip-path="url(#clip940)" d="M 0 0 M130.26 1431.51 Q126.649 1431.51 124.82 1435.08 Q123.015 1438.62 123.015 1445.75 Q123.015 1452.86 124.82 1456.42 Q126.649 1459.96 130.26 1459.96 Q133.895 1459.96 135.7 1456.42 Q137.529 1452.86 137.529 1445.75 Q137.529 1438.62 135.7 1435.08 Q133.895 1431.51 130.26 1431.51 M130.26 1427.81 Q136.07 1427.81 139.126 1432.42 Q142.205 1437 142.205 1445.75 Q142.205 1454.48 139.126 1459.08 Q136.07 1463.67 130.26 1463.67 Q124.45 1463.67 121.371 1459.08 Q118.316 1454.48 118.316 1445.75 Q118.316 1437 121.371 1432.42 Q124.45 1427.81 130.26 1427.81 Z" fill="#000000" fill-rule="evenodd" fill-opacity="1" /><path clip-path="url(#clip940)" d="M 0 0 M71.8578 1125.05 L88.1772 1125.05 L88.1772 1128.99 L66.2328 1128.99 L66.2328 1125.05 Q68.8949 1122.3 73.4782 1117.67 Q78.0846 1113.02 79.2652 1111.67 Q81.5105 1109.15 82.3902 1107.41 Q83.2929 1105.66 83.2929 1103.97 Q83.2929 1101.21 81.3485 1099.47 Q79.4272 1097.74 76.3254 1097.74 Q74.1263 1097.74 71.6726 1098.5 Q69.2421 1099.27 66.4643 1100.82 L66.4643 1096.1 Q69.2884 1094.96 71.7421 1094.38 Q74.1958 1093.8 76.2328 1093.8 Q81.6031 1093.8 84.7976 1096.49 Q87.992 1099.17 87.992 1103.66 Q87.992 1105.79 87.1818 1107.72 Q86.3948 1109.61 84.2883 1112.21 Q83.7096 1112.88 80.6078 1116.1 Q77.5059 1119.29 71.8578 1125.05 Z" fill="#000000" fill-rule="evenodd" fill-opacity="1" /><path clip-path="url(#clip940)" d="M 0 0 M103.247 1097.51 Q99.6354 1097.51 97.8068 1101.07 Q96.0012 1104.61 96.0012 1111.74 Q96.0012 1118.85 97.8068 1122.41 Q99.6354 1125.96 103.247 1125.96 Q106.881 1125.96 108.686 1122.41 Q110.515 1118.85 110.515 1111.74 Q110.515 1104.61 108.686 1101.07 Q106.881 1097.51 103.247 1097.51 M103.247 1093.8 Q109.057 1093.8 112.112 1098.41 Q115.191 1102.99 115.191 1111.74 Q115.191 1120.47 112.112 1125.08 Q109.057 1129.66 103.247 1129.66 Q97.4364 1129.66 94.3577 1125.08 Q91.3022 1120.47 91.3022 1111.74 Q91.3022 1102.99 94.3577 1098.41 Q97.4364 1093.8 103.247 1093.8 Z" fill="#000000" fill-rule="evenodd" fill-opacity="1" /><path clip-path="url(#clip940)" d="M 0 0 M130.26 1097.51 Q126.649 1097.51 124.82 1101.07 Q123.015 1104.61 123.015 1111.74 Q123.015 1118.85 124.82 1122.41 Q126.649 1125.96 130.26 1125.96 Q133.895 1125.96 135.7 1122.41 Q137.529 1118.85 137.529 1111.74 Q137.529 1104.61 135.7 1101.07 Q133.895 1097.51 130.26 1097.51 M130.26 1093.8 Q136.07 1093.8 139.126 1098.41 Q142.205 1102.99 142.205 1111.74 Q142.205 1120.47 139.126 1125.08 Q136.07 1129.66 130.26 1129.66 Q124.45 1129.66 121.371 1125.08 Q118.316 1120.47 118.316 1111.74 Q118.316 1102.99 121.371 1098.41 Q124.45 1093.8 130.26 1093.8 Z" fill="#000000" fill-rule="evenodd" fill-opacity="1" /><path clip-path="url(#clip940)" d="M 0 0 M78.5939 764.495 L66.7884 782.944 L78.5939 782.944 L78.5939 764.495 M77.367 760.421 L83.2466 760.421 L83.2466 782.944 L88.1772 782.944 L88.1772 786.833 L83.2466 786.833 L83.2466 794.981 L78.5939 794.981 L78.5939 786.833 L62.9921 786.833 L62.9921 782.319 L77.367 760.421 Z" fill="#000000" fill-rule="evenodd" fill-opacity="1" /><path clip-path="url(#clip940)" d="M 0 0 M103.247 763.5 Q99.6354 763.5 97.8068 767.065 Q96.0012 770.606 96.0012 777.736 Q96.0012 784.842 97.8068 788.407 Q99.6354 791.949 103.247 791.949 Q106.881 791.949 108.686 788.407 Q110.515 784.842 110.515 777.736 Q110.515 770.606 108.686 767.065 Q106.881 763.5 103.247 763.5 M103.247 759.796 Q109.057 759.796 112.112 764.403 Q115.191 768.986 115.191 777.736 Q115.191 786.463 112.112 791.069 Q109.057 795.653 103.247 795.653 Q97.4364 795.653 94.3577 791.069 Q91.3022 786.463 91.3022 777.736 Q91.3022 768.986 94.3577 764.403 Q97.4364 759.796 103.247 759.796 Z" fill="#000000" fill-rule="evenodd" fill-opacity="1" /><path clip-path="url(#clip940)" d="M 0 0 M130.26 763.5 Q126.649 763.5 124.82 767.065 Q123.015 770.606 123.015 777.736 Q123.015 784.842 124.82 788.407 Q126.649 791.949 130.26 791.949 Q133.895 791.949 135.7 788.407 Q137.529 784.842 137.529 777.736 Q137.529 770.606 135.7 767.065 Q133.895 763.5 130.26 763.5 M130.26 759.796 Q136.07 759.796 139.126 764.403 Q142.205 768.986 142.205 777.736 Q142.205 786.463 139.126 791.069 Q136.07 795.653 130.26 795.653 Q124.45 795.653 121.371 791.069 Q118.316 786.463 118.316 777.736 Q118.316 768.986 121.371 764.403 Q124.45 759.796 130.26 759.796 Z" fill="#000000" fill-rule="evenodd" fill-opacity="1" /><path clip-path="url(#clip940)" d="M 0 0 M76.6495 441.831 Q73.5013 441.831 71.6495 443.983 Q69.8208 446.136 69.8208 449.886 Q69.8208 453.613 71.6495 455.789 Q73.5013 457.942 76.6495 457.942 Q79.7976 457.942 81.6263 455.789 Q83.4781 453.613 83.4781 449.886 Q83.4781 446.136 81.6263 443.983 Q79.7976 441.831 76.6495 441.831 M85.9318 427.178 L85.9318 431.437 Q84.1726 430.604 82.367 430.164 Q80.5846 429.724 78.8254 429.724 Q74.1958 429.724 71.7421 432.849 Q69.3115 435.974 68.9643 442.294 Q70.33 440.28 72.3902 439.215 Q74.4504 438.127 76.9272 438.127 Q82.1355 438.127 85.1448 441.298 Q88.1772 444.446 88.1772 449.886 Q88.1772 455.21 85.029 458.428 Q81.8809 461.645 76.6495 461.645 Q70.6541 461.645 67.4828 457.062 Q64.3116 452.456 64.3116 443.729 Q64.3116 435.534 68.2004 430.673 Q72.0893 425.789 78.6402 425.789 Q80.3994 425.789 82.1818 426.136 Q83.9874 426.483 85.9318 427.178 Z" fill="#000000" fill-rule="evenodd" fill-opacity="1" /><path clip-path="url(#clip940)" d="M 0 0 M103.247 429.493 Q99.6354 429.493 97.8068 433.057 Q96.0012 436.599 96.0012 443.729 Q96.0012 450.835 97.8068 454.4 Q99.6354 457.942 103.247 457.942 Q106.881 457.942 108.686 454.4 Q110.515 450.835 110.515 443.729 Q110.515 436.599 108.686 433.057 Q106.881 429.493 103.247 429.493 M103.247 425.789 Q109.057 425.789 112.112 430.395 Q115.191 434.979 115.191 443.729 Q115.191 452.456 112.112 457.062 Q109.057 461.645 103.247 461.645 Q97.4364 461.645 94.3577 457.062 Q91.3022 452.456 91.3022 443.729 Q91.3022 434.979 94.3577 430.395 Q97.4364 425.789 103.247 425.789 Z" fill="#000000" fill-rule="evenodd" fill-opacity="1" /><path clip-path="url(#clip940)" d="M 0 0 M130.26 429.493 Q126.649 429.493 124.82 433.057 Q123.015 436.599 123.015 443.729 Q123.015 450.835 124.82 454.4 Q126.649 457.942 130.26 457.942 Q133.895 457.942 135.7 454.4 Q137.529 450.835 137.529 443.729 Q137.529 436.599 135.7 433.057 Q133.895 429.493 130.26 429.493 M130.26 425.789 Q136.07 425.789 139.126 430.395 Q142.205 434.979 142.205 443.729 Q142.205 452.456 139.126 457.062 Q136.07 461.645 130.26 461.645 Q124.45 461.645 121.371 457.062 Q118.316 452.456 118.316 443.729 Q118.316 434.979 121.371 430.395 Q124.45 425.789 130.26 425.789 Z" fill="#000000" fill-rule="evenodd" fill-opacity="1" /><path clip-path="url(#clip940)" d="M 0 0 M76.3254 110.555 Q72.9921 110.555 71.0708 112.337 Q69.1726 114.12 69.1726 117.245 Q69.1726 120.37 71.0708 122.152 Q72.9921 123.934 76.3254 123.934 Q79.6587 123.934 81.58 122.152 Q83.5013 120.346 83.5013 117.245 Q83.5013 114.12 81.58 112.337 Q79.6819 110.555 76.3254 110.555 M71.6495 108.564 Q68.6402 107.823 66.9504 105.763 Q65.2838 103.703 65.2838 100.74 Q65.2838 96.5965 68.2236 94.1891 Q71.1865 91.7818 76.3254 91.7818 Q81.4874 91.7818 84.4272 94.1891 Q87.367 96.5965 87.367 100.74 Q87.367 103.703 85.6772 105.763 Q84.0105 107.823 81.0244 108.564 Q84.404 109.351 86.279 111.643 Q88.1772 113.934 88.1772 117.245 Q88.1772 122.268 85.0985 124.953 Q82.0429 127.638 76.3254 127.638 Q70.6078 127.638 67.5291 124.953 Q64.4736 122.268 64.4736 117.245 Q64.4736 113.934 66.3717 111.643 Q68.2699 109.351 71.6495 108.564 M69.9365 101.18 Q69.9365 103.865 71.6032 105.37 Q73.293 106.874 76.3254 106.874 Q79.3346 106.874 81.0244 105.37 Q82.7374 103.865 82.7374 101.18 Q82.7374 98.4947 81.0244 96.9901 Q79.3346 95.4854 76.3254 95.4854 Q73.293 95.4854 71.6032 96.9901 Q69.9365 98.4947 69.9365 101.18 Z" fill="#000000" fill-rule="evenodd" fill-opacity="1" /><path clip-path="url(#clip940)" d="M 0 0 M103.247 95.4854 Q99.6354 95.4854 97.8068 99.0502 Q96.0012 102.592 96.0012 109.721 Q96.0012 116.828 97.8068 120.393 Q99.6354 123.934 103.247 123.934 Q106.881 123.934 108.686 120.393 Q110.515 116.828 110.515 109.721 Q110.515 102.592 108.686 99.0502 Q106.881 95.4854 103.247 95.4854 M103.247 91.7818 Q109.057 91.7818 112.112 96.3882 Q115.191 100.972 115.191 109.721 Q115.191 118.448 112.112 123.055 Q109.057 127.638 103.247 127.638 Q97.4364 127.638 94.3577 123.055 Q91.3022 118.448 91.3022 109.721 Q91.3022 100.972 94.3577 96.3882 Q97.4364 91.7818 103.247 91.7818 Z" fill="#000000" fill-rule="evenodd" fill-opacity="1" /><path clip-path="url(#clip940)" d="M 0 0 M130.26 95.4854 Q126.649 95.4854 124.82 99.0502 Q123.015 102.592 123.015 109.721 Q123.015 116.828 124.82 120.393 Q126.649 123.934 130.26 123.934 Q133.895 123.934 135.7 120.393 Q137.529 116.828 137.529 109.721 Q137.529 102.592 135.7 99.0502 Q133.895 95.4854 130.26 95.4854 M130.26 91.7818 Q136.07 91.7818 139.126 96.3882 Q142.205 100.972 142.205 109.721 Q142.205 118.448 139.126 123.055 Q136.07 127.638 130.26 127.638 Q124.45 127.638 121.371 123.055 Q118.316 118.448 118.316 109.721 Q118.316 100.972 121.371 96.3882 Q124.45 91.7818 130.26 91.7818 Z" fill="#000000" fill-rule="evenodd" fill-opacity="1" /><path clip-path="url(#clip942)" d="
M286.469 1444.05 L286.469 1445.72 L310.494 1445.72 L310.494 1444.05 L286.469 1444.05 L286.469 1444.05  Z
  " fill="#009af9" fill-rule="evenodd" fill-opacity="1"/>
<polyline clip-path="url(#clip942)" style="stroke:#000000; stroke-width:4; stroke-opacity:1; fill:none" points="
  286.469,1444.05 286.469,1445.72 310.494,1445.72 310.494,1444.05 286.469,1444.05 
  "/>
<path clip-path="url(#clip942)" d="
M310.494 1445.72 L310.494 1445.72 L334.519 1445.72 L334.519 1445.72 L310.494 1445.72 L310.494 1445.72  Z
  " fill="#009af9" fill-rule="evenodd" fill-opacity="1"/>
<polyline clip-path="url(#clip942)" style="stroke:#000000; stroke-width:4; stroke-opacity:1; fill:none" points="
  310.494,1445.72 310.494,1445.72 334.519,1445.72 310.494,1445.72 
  "/>
<path clip-path="url(#clip942)" d="
M334.519 1445.72 L334.519 1445.72 L358.544 1445.72 L358.544 1445.72 L334.519 1445.72 L334.519 1445.72  Z
  " fill="#009af9" fill-rule="evenodd" fill-opacity="1"/>
<polyline clip-path="url(#clip942)" style="stroke:#000000; stroke-width:4; stroke-opacity:1; fill:none" points="
  334.519,1445.72 334.519,1445.72 358.544,1445.72 334.519,1445.72 
  "/>
<path clip-path="url(#clip942)" d="
M358.544 1444.05 L358.544 1445.72 L382.569 1445.72 L382.569 1444.05 L358.544 1444.05 L358.544 1444.05  Z
  " fill="#009af9" fill-rule="evenodd" fill-opacity="1"/>
<polyline clip-path="url(#clip942)" style="stroke:#000000; stroke-width:4; stroke-opacity:1; fill:none" points="
  358.544,1444.05 358.544,1445.72 382.569,1445.72 382.569,1444.05 358.544,1444.05 
  "/>
<path clip-path="url(#clip942)" d="
M382.569 1445.72 L382.569 1445.72 L406.594 1445.72 L406.594 1445.72 L382.569 1445.72 L382.569 1445.72  Z
  " fill="#009af9" fill-rule="evenodd" fill-opacity="1"/>
<polyline clip-path="url(#clip942)" style="stroke:#000000; stroke-width:4; stroke-opacity:1; fill:none" points="
  382.569,1445.72 382.569,1445.72 406.594,1445.72 382.569,1445.72 
  "/>
<path clip-path="url(#clip942)" d="
M406.594 1442.38 L406.594 1445.72 L430.619 1445.72 L430.619 1442.38 L406.594 1442.38 L406.594 1442.38  Z
  " fill="#009af9" fill-rule="evenodd" fill-opacity="1"/>
<polyline clip-path="url(#clip942)" style="stroke:#000000; stroke-width:4; stroke-opacity:1; fill:none" points="
  406.594,1442.38 406.594,1445.72 430.619,1445.72 430.619,1442.38 406.594,1442.38 
  "/>
<path clip-path="url(#clip942)" d="
M430.619 1445.72 L430.619 1445.72 L454.644 1445.72 L454.644 1445.72 L430.619 1445.72 L430.619 1445.72  Z
  " fill="#009af9" fill-rule="evenodd" fill-opacity="1"/>
<polyline clip-path="url(#clip942)" style="stroke:#000000; stroke-width:4; stroke-opacity:1; fill:none" points="
  430.619,1445.72 430.619,1445.72 454.644,1445.72 430.619,1445.72 
  "/>
<path clip-path="url(#clip942)" d="
M454.644 1442.38 L454.644 1445.72 L478.669 1445.72 L478.669 1442.38 L454.644 1442.38 L454.644 1442.38  Z
  " fill="#009af9" fill-rule="evenodd" fill-opacity="1"/>
<polyline clip-path="url(#clip942)" style="stroke:#000000; stroke-width:4; stroke-opacity:1; fill:none" points="
  454.644,1442.38 454.644,1445.72 478.669,1445.72 478.669,1442.38 454.644,1442.38 
  "/>
<path clip-path="url(#clip942)" d="
M478.669 1444.05 L478.669 1445.72 L502.694 1445.72 L502.694 1444.05 L478.669 1444.05 L478.669 1444.05  Z
  " fill="#009af9" fill-rule="evenodd" fill-opacity="1"/>
<polyline clip-path="url(#clip942)" style="stroke:#000000; stroke-width:4; stroke-opacity:1; fill:none" points="
  478.669,1444.05 478.669,1445.72 502.694,1445.72 502.694,1444.05 478.669,1444.05 
  "/>
<path clip-path="url(#clip942)" d="
M502.694 1442.38 L502.694 1445.72 L526.719 1445.72 L526.719 1442.38 L502.694 1442.38 L502.694 1442.38  Z
  " fill="#009af9" fill-rule="evenodd" fill-opacity="1"/>
<polyline clip-path="url(#clip942)" style="stroke:#000000; stroke-width:4; stroke-opacity:1; fill:none" points="
  502.694,1442.38 502.694,1445.72 526.719,1445.72 526.719,1442.38 502.694,1442.38 
  "/>
<path clip-path="url(#clip942)" d="
M526.719 1430.69 L526.719 1445.72 L550.744 1445.72 L550.744 1430.69 L526.719 1430.69 L526.719 1430.69  Z
  " fill="#009af9" fill-rule="evenodd" fill-opacity="1"/>
<polyline clip-path="url(#clip942)" style="stroke:#000000; stroke-width:4; stroke-opacity:1; fill:none" points="
  526.719,1430.69 526.719,1445.72 550.744,1445.72 550.744,1430.69 526.719,1430.69 
  "/>
<path clip-path="url(#clip942)" d="
M550.744 1440.71 L550.744 1445.72 L574.769 1445.72 L574.769 1440.71 L550.744 1440.71 L550.744 1440.71  Z
  " fill="#009af9" fill-rule="evenodd" fill-opacity="1"/>
<polyline clip-path="url(#clip942)" style="stroke:#000000; stroke-width:4; stroke-opacity:1; fill:none" points="
  550.744,1440.71 550.744,1445.72 574.769,1445.72 574.769,1440.71 550.744,1440.71 
  "/>
<path clip-path="url(#clip942)" d="
M574.769 1434.03 L574.769 1445.72 L598.794 1445.72 L598.794 1434.03 L574.769 1434.03 L574.769 1434.03  Z
  " fill="#009af9" fill-rule="evenodd" fill-opacity="1"/>
<polyline clip-path="url(#clip942)" style="stroke:#000000; stroke-width:4; stroke-opacity:1; fill:none" points="
  574.769,1434.03 574.769,1445.72 598.794,1445.72 598.794,1434.03 574.769,1434.03 
  "/>
<path clip-path="url(#clip942)" d="
M598.794 1437.37 L598.794 1445.72 L622.818 1445.72 L622.818 1437.37 L598.794 1437.37 L598.794 1437.37  Z
  " fill="#009af9" fill-rule="evenodd" fill-opacity="1"/>
<polyline clip-path="url(#clip942)" style="stroke:#000000; stroke-width:4; stroke-opacity:1; fill:none" points="
  598.794,1437.37 598.794,1445.72 622.818,1445.72 622.818,1437.37 598.794,1437.37 
  "/>
<path clip-path="url(#clip942)" d="
M622.818 1434.03 L622.818 1445.72 L646.843 1445.72 L646.843 1434.03 L622.818 1434.03 L622.818 1434.03  Z
  " fill="#009af9" fill-rule="evenodd" fill-opacity="1"/>
<polyline clip-path="url(#clip942)" style="stroke:#000000; stroke-width:4; stroke-opacity:1; fill:none" points="
  622.818,1434.03 622.818,1445.72 646.843,1445.72 646.843,1434.03 622.818,1434.03 
  "/>
<path clip-path="url(#clip942)" d="
M646.843 1429.02 L646.843 1445.72 L670.868 1445.72 L670.868 1429.02 L646.843 1429.02 L646.843 1429.02  Z
  " fill="#009af9" fill-rule="evenodd" fill-opacity="1"/>
<polyline clip-path="url(#clip942)" style="stroke:#000000; stroke-width:4; stroke-opacity:1; fill:none" points="
  646.843,1429.02 646.843,1445.72 670.868,1445.72 670.868,1429.02 646.843,1429.02 
  "/>
<path clip-path="url(#clip942)" d="
M670.868 1415.66 L670.868 1445.72 L694.893 1445.72 L694.893 1415.66 L670.868 1415.66 L670.868 1415.66  Z
  " fill="#009af9" fill-rule="evenodd" fill-opacity="1"/>
<polyline clip-path="url(#clip942)" style="stroke:#000000; stroke-width:4; stroke-opacity:1; fill:none" points="
  670.868,1415.66 670.868,1445.72 694.893,1445.72 694.893,1415.66 670.868,1415.66 
  "/>
<path clip-path="url(#clip942)" d="
M694.893 1405.63 L694.893 1445.72 L718.918 1445.72 L718.918 1405.63 L694.893 1405.63 L694.893 1405.63  Z
  " fill="#009af9" fill-rule="evenodd" fill-opacity="1"/>
<polyline clip-path="url(#clip942)" style="stroke:#000000; stroke-width:4; stroke-opacity:1; fill:none" points="
  694.893,1405.63 694.893,1445.72 718.918,1445.72 718.918,1405.63 694.893,1405.63 
  "/>
<path clip-path="url(#clip942)" d="
M718.918 1393.94 L718.918 1445.72 L742.943 1445.72 L742.943 1393.94 L718.918 1393.94 L718.918 1393.94  Z
  " fill="#009af9" fill-rule="evenodd" fill-opacity="1"/>
<polyline clip-path="url(#clip942)" style="stroke:#000000; stroke-width:4; stroke-opacity:1; fill:none" points="
  718.918,1393.94 718.918,1445.72 742.943,1445.72 742.943,1393.94 718.918,1393.94 
  "/>
<path clip-path="url(#clip942)" d="
M742.943 1398.95 L742.943 1445.72 L766.968 1445.72 L766.968 1398.95 L742.943 1398.95 L742.943 1398.95  Z
  " fill="#009af9" fill-rule="evenodd" fill-opacity="1"/>
<polyline clip-path="url(#clip942)" style="stroke:#000000; stroke-width:4; stroke-opacity:1; fill:none" points="
  742.943,1398.95 742.943,1445.72 766.968,1445.72 766.968,1398.95 742.943,1398.95 
  "/>
<path clip-path="url(#clip942)" d="
M766.968 1377.24 L766.968 1445.72 L790.993 1445.72 L790.993 1377.24 L766.968 1377.24 L766.968 1377.24  Z
  " fill="#009af9" fill-rule="evenodd" fill-opacity="1"/>
<polyline clip-path="url(#clip942)" style="stroke:#000000; stroke-width:4; stroke-opacity:1; fill:none" points="
  766.968,1377.24 766.968,1445.72 790.993,1445.72 790.993,1377.24 766.968,1377.24 
  "/>
<path clip-path="url(#clip942)" d="
M790.993 1380.58 L790.993 1445.72 L815.018 1445.72 L815.018 1380.58 L790.993 1380.58 L790.993 1380.58  Z
  " fill="#009af9" fill-rule="evenodd" fill-opacity="1"/>
<polyline clip-path="url(#clip942)" style="stroke:#000000; stroke-width:4; stroke-opacity:1; fill:none" points="
  790.993,1380.58 790.993,1445.72 815.018,1445.72 815.018,1380.58 790.993,1380.58 
  "/>
<path clip-path="url(#clip942)" d="
M815.018 1353.86 L815.018 1445.72 L839.043 1445.72 L839.043 1353.86 L815.018 1353.86 L815.018 1353.86  Z
  " fill="#009af9" fill-rule="evenodd" fill-opacity="1"/>
<polyline clip-path="url(#clip942)" style="stroke:#000000; stroke-width:4; stroke-opacity:1; fill:none" points="
  815.018,1353.86 815.018,1445.72 839.043,1445.72 839.043,1353.86 815.018,1353.86 
  "/>
<path clip-path="url(#clip942)" d="
M839.043 1372.23 L839.043 1445.72 L863.068 1445.72 L863.068 1372.23 L839.043 1372.23 L839.043 1372.23  Z
  " fill="#009af9" fill-rule="evenodd" fill-opacity="1"/>
<polyline clip-path="url(#clip942)" style="stroke:#000000; stroke-width:4; stroke-opacity:1; fill:none" points="
  839.043,1372.23 839.043,1445.72 863.068,1445.72 863.068,1372.23 839.043,1372.23 
  "/>
<path clip-path="url(#clip942)" d="
M863.068 1335.49 L863.068 1445.72 L887.093 1445.72 L887.093 1335.49 L863.068 1335.49 L863.068 1335.49  Z
  " fill="#009af9" fill-rule="evenodd" fill-opacity="1"/>
<polyline clip-path="url(#clip942)" style="stroke:#000000; stroke-width:4; stroke-opacity:1; fill:none" points="
  863.068,1335.49 863.068,1445.72 887.093,1445.72 887.093,1335.49 863.068,1335.49 
  "/>
<path clip-path="url(#clip942)" d="
M887.093 1318.79 L887.093 1445.72 L911.118 1445.72 L911.118 1318.79 L887.093 1318.79 L887.093 1318.79  Z
  " fill="#009af9" fill-rule="evenodd" fill-opacity="1"/>
<polyline clip-path="url(#clip942)" style="stroke:#000000; stroke-width:4; stroke-opacity:1; fill:none" points="
  887.093,1318.79 887.093,1445.72 911.118,1445.72 911.118,1318.79 887.093,1318.79 
  "/>
<path clip-path="url(#clip942)" d="
M911.118 1308.77 L911.118 1445.72 L935.143 1445.72 L935.143 1308.77 L911.118 1308.77 L911.118 1308.77  Z
  " fill="#009af9" fill-rule="evenodd" fill-opacity="1"/>
<polyline clip-path="url(#clip942)" style="stroke:#000000; stroke-width:4; stroke-opacity:1; fill:none" points="
  911.118,1308.77 911.118,1445.72 935.143,1445.72 935.143,1308.77 911.118,1308.77 
  "/>
<path clip-path="url(#clip942)" d="
M935.143 1328.81 L935.143 1445.72 L959.168 1445.72 L959.168 1328.81 L935.143 1328.81 L935.143 1328.81  Z
  " fill="#009af9" fill-rule="evenodd" fill-opacity="1"/>
<polyline clip-path="url(#clip942)" style="stroke:#000000; stroke-width:4; stroke-opacity:1; fill:none" points="
  935.143,1328.81 935.143,1445.72 959.168,1445.72 959.168,1328.81 935.143,1328.81 
  "/>
<path clip-path="url(#clip942)" d="
M959.168 1278.71 L959.168 1445.72 L983.193 1445.72 L983.193 1278.71 L959.168 1278.71 L959.168 1278.71  Z
  " fill="#009af9" fill-rule="evenodd" fill-opacity="1"/>
<polyline clip-path="url(#clip942)" style="stroke:#000000; stroke-width:4; stroke-opacity:1; fill:none" points="
  959.168,1278.71 959.168,1445.72 983.193,1445.72 983.193,1278.71 959.168,1278.71 
  "/>
<path clip-path="url(#clip942)" d="
M983.193 1285.39 L983.193 1445.72 L1007.22 1445.72 L1007.22 1285.39 L983.193 1285.39 L983.193 1285.39  Z
  " fill="#009af9" fill-rule="evenodd" fill-opacity="1"/>
<polyline clip-path="url(#clip942)" style="stroke:#000000; stroke-width:4; stroke-opacity:1; fill:none" points="
  983.193,1285.39 983.193,1445.72 1007.22,1445.72 1007.22,1285.39 983.193,1285.39 
  "/>
<path clip-path="url(#clip942)" d="
M1007.22 1255.33 L1007.22 1445.72 L1031.24 1445.72 L1031.24 1255.33 L1007.22 1255.33 L1007.22 1255.33  Z
  " fill="#009af9" fill-rule="evenodd" fill-opacity="1"/>
<polyline clip-path="url(#clip942)" style="stroke:#000000; stroke-width:4; stroke-opacity:1; fill:none" points="
  1007.22,1255.33 1007.22,1445.72 1031.24,1445.72 1031.24,1255.33 1007.22,1255.33 
  "/>
<path clip-path="url(#clip942)" d="
M1031.24 1250.32 L1031.24 1445.72 L1055.27 1445.72 L1055.27 1250.32 L1031.24 1250.32 L1031.24 1250.32  Z
  " fill="#009af9" fill-rule="evenodd" fill-opacity="1"/>
<polyline clip-path="url(#clip942)" style="stroke:#000000; stroke-width:4; stroke-opacity:1; fill:none" points="
  1031.24,1250.32 1031.24,1445.72 1055.27,1445.72 1055.27,1250.32 1031.24,1250.32 
  "/>
<path clip-path="url(#clip942)" d="
M1055.27 1245.31 L1055.27 1445.72 L1079.29 1445.72 L1079.29 1245.31 L1055.27 1245.31 L1055.27 1245.31  Z
  " fill="#009af9" fill-rule="evenodd" fill-opacity="1"/>
<polyline clip-path="url(#clip942)" style="stroke:#000000; stroke-width:4; stroke-opacity:1; fill:none" points="
  1055.27,1245.31 1055.27,1445.72 1079.29,1445.72 1079.29,1245.31 1055.27,1245.31 
  "/>
<path clip-path="url(#clip942)" d="
M1079.29 1263.68 L1079.29 1445.72 L1103.32 1445.72 L1103.32 1263.68 L1079.29 1263.68 L1079.29 1263.68  Z
  " fill="#009af9" fill-rule="evenodd" fill-opacity="1"/>
<polyline clip-path="url(#clip942)" style="stroke:#000000; stroke-width:4; stroke-opacity:1; fill:none" points="
  1079.29,1263.68 1079.29,1445.72 1103.32,1445.72 1103.32,1263.68 1079.29,1263.68 
  "/>
<path clip-path="url(#clip942)" d="
M1103.32 1231.95 L1103.32 1445.72 L1127.34 1445.72 L1127.34 1231.95 L1103.32 1231.95 L1103.32 1231.95  Z
  " fill="#009af9" fill-rule="evenodd" fill-opacity="1"/>
<polyline clip-path="url(#clip942)" style="stroke:#000000; stroke-width:4; stroke-opacity:1; fill:none" points="
  1103.32,1231.95 1103.32,1445.72 1127.34,1445.72 1127.34,1231.95 1103.32,1231.95 
  "/>
<path clip-path="url(#clip942)" d="
M1127.34 1246.98 L1127.34 1445.72 L1151.37 1445.72 L1151.37 1246.98 L1127.34 1246.98 L1127.34 1246.98  Z
  " fill="#009af9" fill-rule="evenodd" fill-opacity="1"/>
<polyline clip-path="url(#clip942)" style="stroke:#000000; stroke-width:4; stroke-opacity:1; fill:none" points="
  1127.34,1246.98 1127.34,1445.72 1151.37,1445.72 1151.37,1246.98 1127.34,1246.98 
  "/>
<path clip-path="url(#clip942)" d="
M1151.37 1226.94 L1151.37 1445.72 L1175.39 1445.72 L1175.39 1226.94 L1151.37 1226.94 L1151.37 1226.94  Z
  " fill="#009af9" fill-rule="evenodd" fill-opacity="1"/>
<polyline clip-path="url(#clip942)" style="stroke:#000000; stroke-width:4; stroke-opacity:1; fill:none" points="
  1151.37,1226.94 1151.37,1445.72 1175.39,1445.72 1175.39,1226.94 1151.37,1226.94 
  "/>
<path clip-path="url(#clip942)" d="
M1175.39 1253.66 L1175.39 1445.72 L1199.42 1445.72 L1199.42 1253.66 L1175.39 1253.66 L1175.39 1253.66  Z
  " fill="#009af9" fill-rule="evenodd" fill-opacity="1"/>
<polyline clip-path="url(#clip942)" style="stroke:#000000; stroke-width:4; stroke-opacity:1; fill:none" points="
  1175.39,1253.66 1175.39,1445.72 1199.42,1445.72 1199.42,1253.66 1175.39,1253.66 
  "/>
<path clip-path="url(#clip942)" d="
M1199.42 1168.49 L1199.42 1445.72 L1223.44 1445.72 L1223.44 1168.49 L1199.42 1168.49 L1199.42 1168.49  Z
  " fill="#009af9" fill-rule="evenodd" fill-opacity="1"/>
<polyline clip-path="url(#clip942)" style="stroke:#000000; stroke-width:4; stroke-opacity:1; fill:none" points="
  1199.42,1168.49 1199.42,1445.72 1223.44,1445.72 1223.44,1168.49 1199.42,1168.49 
  "/>
<path clip-path="url(#clip942)" d="
M1223.44 781.041 L1223.44 1445.72 L1247.47 1445.72 L1247.47 781.041 L1223.44 781.041 L1223.44 781.041  Z
  " fill="#009af9" fill-rule="evenodd" fill-opacity="1"/>
<polyline clip-path="url(#clip942)" style="stroke:#000000; stroke-width:4; stroke-opacity:1; fill:none" points="
  1223.44,781.041 1223.44,1445.72 1247.47,1445.72 1247.47,781.041 1223.44,781.041 
  "/>
<path clip-path="url(#clip942)" d="
M1247.47 87.9763 L1247.47 1445.72 L1271.49 1445.72 L1271.49 87.9763 L1247.47 87.9763 L1247.47 87.9763  Z
  " fill="#009af9" fill-rule="evenodd" fill-opacity="1"/>
<polyline clip-path="url(#clip942)" style="stroke:#000000; stroke-width:4; stroke-opacity:1; fill:none" points="
  1247.47,87.9763 1247.47,1445.72 1271.49,1445.72 1271.49,87.9763 1247.47,87.9763 
  "/>
<path clip-path="url(#clip942)" d="
M1271.49 198.199 L1271.49 1445.72 L1295.52 1445.72 L1295.52 198.199 L1271.49 198.199 L1271.49 198.199  Z
  " fill="#009af9" fill-rule="evenodd" fill-opacity="1"/>
<polyline clip-path="url(#clip942)" style="stroke:#000000; stroke-width:4; stroke-opacity:1; fill:none" points="
  1271.49,198.199 1271.49,1445.72 1295.52,1445.72 1295.52,198.199 1271.49,198.199 
  "/>
<path clip-path="url(#clip942)" d="
M1295.52 874.563 L1295.52 1445.72 L1319.54 1445.72 L1319.54 874.563 L1295.52 874.563 L1295.52 874.563  Z
  " fill="#009af9" fill-rule="evenodd" fill-opacity="1"/>
<polyline clip-path="url(#clip942)" style="stroke:#000000; stroke-width:4; stroke-opacity:1; fill:none" points="
  1295.52,874.563 1295.52,1445.72 1319.54,1445.72 1319.54,874.563 1295.52,874.563 
  "/>
<path clip-path="url(#clip942)" d="
M1319.54 1220.26 L1319.54 1445.72 L1343.57 1445.72 L1343.57 1220.26 L1319.54 1220.26 L1319.54 1220.26  Z
  " fill="#009af9" fill-rule="evenodd" fill-opacity="1"/>
<polyline clip-path="url(#clip942)" style="stroke:#000000; stroke-width:4; stroke-opacity:1; fill:none" points="
  1319.54,1220.26 1319.54,1445.72 1343.57,1445.72 1343.57,1220.26 1319.54,1220.26 
  "/>
<path clip-path="url(#clip942)" d="
M1343.57 1273.7 L1343.57 1445.72 L1367.59 1445.72 L1367.59 1273.7 L1343.57 1273.7 L1343.57 1273.7  Z
  " fill="#009af9" fill-rule="evenodd" fill-opacity="1"/>
<polyline clip-path="url(#clip942)" style="stroke:#000000; stroke-width:4; stroke-opacity:1; fill:none" points="
  1343.57,1273.7 1343.57,1445.72 1367.59,1445.72 1367.59,1273.7 1343.57,1273.7 
  "/>
<path clip-path="url(#clip942)" d="
M1367.59 1312.11 L1367.59 1445.72 L1391.62 1445.72 L1391.62 1312.11 L1367.59 1312.11 L1367.59 1312.11  Z
  " fill="#009af9" fill-rule="evenodd" fill-opacity="1"/>
<polyline clip-path="url(#clip942)" style="stroke:#000000; stroke-width:4; stroke-opacity:1; fill:none" points="
  1367.59,1312.11 1367.59,1445.72 1391.62,1445.72 1391.62,1312.11 1367.59,1312.11 
  "/>
<path clip-path="url(#clip942)" d="
M1391.62 1345.51 L1391.62 1445.72 L1415.64 1445.72 L1415.64 1345.51 L1391.62 1345.51 L1391.62 1345.51  Z
  " fill="#009af9" fill-rule="evenodd" fill-opacity="1"/>
<polyline clip-path="url(#clip942)" style="stroke:#000000; stroke-width:4; stroke-opacity:1; fill:none" points="
  1391.62,1345.51 1391.62,1445.72 1415.64,1445.72 1415.64,1345.51 1391.62,1345.51 
  "/>
<path clip-path="url(#clip942)" d="
M1415.64 1348.85 L1415.64 1445.72 L1439.67 1445.72 L1439.67 1348.85 L1415.64 1348.85 L1415.64 1348.85  Z
  " fill="#009af9" fill-rule="evenodd" fill-opacity="1"/>
<polyline clip-path="url(#clip942)" style="stroke:#000000; stroke-width:4; stroke-opacity:1; fill:none" points="
  1415.64,1348.85 1415.64,1445.72 1439.67,1445.72 1439.67,1348.85 1415.64,1348.85 
  "/>
<path clip-path="url(#clip942)" d="
M1439.67 1370.56 L1439.67 1445.72 L1463.69 1445.72 L1463.69 1370.56 L1439.67 1370.56 L1439.67 1370.56  Z
  " fill="#009af9" fill-rule="evenodd" fill-opacity="1"/>
<polyline clip-path="url(#clip942)" style="stroke:#000000; stroke-width:4; stroke-opacity:1; fill:none" points="
  1439.67,1370.56 1439.67,1445.72 1463.69,1445.72 1463.69,1370.56 1439.67,1370.56 
  "/>
<path clip-path="url(#clip942)" d="
M1463.69 1372.23 L1463.69 1445.72 L1487.72 1445.72 L1487.72 1372.23 L1463.69 1372.23 L1463.69 1372.23  Z
  " fill="#009af9" fill-rule="evenodd" fill-opacity="1"/>
<polyline clip-path="url(#clip942)" style="stroke:#000000; stroke-width:4; stroke-opacity:1; fill:none" points="
  1463.69,1372.23 1463.69,1445.72 1487.72,1445.72 1487.72,1372.23 1463.69,1372.23 
  "/>
<path clip-path="url(#clip942)" d="
M1487.72 1383.92 L1487.72 1445.72 L1511.74 1445.72 L1511.74 1383.92 L1487.72 1383.92 L1487.72 1383.92  Z
  " fill="#009af9" fill-rule="evenodd" fill-opacity="1"/>
<polyline clip-path="url(#clip942)" style="stroke:#000000; stroke-width:4; stroke-opacity:1; fill:none" points="
  1487.72,1383.92 1487.72,1445.72 1511.74,1445.72 1511.74,1383.92 1487.72,1383.92 
  "/>
<path clip-path="url(#clip942)" d="
M1511.74 1390.6 L1511.74 1445.72 L1535.77 1445.72 L1535.77 1390.6 L1511.74 1390.6 L1511.74 1390.6  Z
  " fill="#009af9" fill-rule="evenodd" fill-opacity="1"/>
<polyline clip-path="url(#clip942)" style="stroke:#000000; stroke-width:4; stroke-opacity:1; fill:none" points="
  1511.74,1390.6 1511.74,1445.72 1535.77,1445.72 1535.77,1390.6 1511.74,1390.6 
  "/>
<path clip-path="url(#clip942)" d="
M1535.77 1395.61 L1535.77 1445.72 L1559.79 1445.72 L1559.79 1395.61 L1535.77 1395.61 L1535.77 1395.61  Z
  " fill="#009af9" fill-rule="evenodd" fill-opacity="1"/>
<polyline clip-path="url(#clip942)" style="stroke:#000000; stroke-width:4; stroke-opacity:1; fill:none" points="
  1535.77,1395.61 1535.77,1445.72 1559.79,1445.72 1559.79,1395.61 1535.77,1395.61 
  "/>
<path clip-path="url(#clip942)" d="
M1559.79 1398.95 L1559.79 1445.72 L1583.82 1445.72 L1583.82 1398.95 L1559.79 1398.95 L1559.79 1398.95  Z
  " fill="#009af9" fill-rule="evenodd" fill-opacity="1"/>
<polyline clip-path="url(#clip942)" style="stroke:#000000; stroke-width:4; stroke-opacity:1; fill:none" points="
  1559.79,1398.95 1559.79,1445.72 1583.82,1445.72 1583.82,1398.95 1559.79,1398.95 
  "/>
<path clip-path="url(#clip942)" d="
M1583.82 1410.64 L1583.82 1445.72 L1607.84 1445.72 L1607.84 1410.64 L1583.82 1410.64 L1583.82 1410.64  Z
  " fill="#009af9" fill-rule="evenodd" fill-opacity="1"/>
<polyline clip-path="url(#clip942)" style="stroke:#000000; stroke-width:4; stroke-opacity:1; fill:none" points="
  1583.82,1410.64 1583.82,1445.72 1607.84,1445.72 1607.84,1410.64 1583.82,1410.64 
  "/>
<path clip-path="url(#clip942)" d="
M1607.84 1420.67 L1607.84 1445.72 L1631.87 1445.72 L1631.87 1420.67 L1607.84 1420.67 L1607.84 1420.67  Z
  " fill="#009af9" fill-rule="evenodd" fill-opacity="1"/>
<polyline clip-path="url(#clip942)" style="stroke:#000000; stroke-width:4; stroke-opacity:1; fill:none" points="
  1607.84,1420.67 1607.84,1445.72 1631.87,1445.72 1631.87,1420.67 1607.84,1420.67 
  "/>
<path clip-path="url(#clip942)" d="
M1631.87 1410.64 L1631.87 1445.72 L1655.89 1445.72 L1655.89 1410.64 L1631.87 1410.64 L1631.87 1410.64  Z
  " fill="#009af9" fill-rule="evenodd" fill-opacity="1"/>
<polyline clip-path="url(#clip942)" style="stroke:#000000; stroke-width:4; stroke-opacity:1; fill:none" points="
  1631.87,1410.64 1631.87,1445.72 1655.89,1445.72 1655.89,1410.64 1631.87,1410.64 
  "/>
<path clip-path="url(#clip942)" d="
M1655.89 1424.01 L1655.89 1445.72 L1679.92 1445.72 L1679.92 1424.01 L1655.89 1424.01 L1655.89 1424.01  Z
  " fill="#009af9" fill-rule="evenodd" fill-opacity="1"/>
<polyline clip-path="url(#clip942)" style="stroke:#000000; stroke-width:4; stroke-opacity:1; fill:none" points="
  1655.89,1424.01 1655.89,1445.72 1679.92,1445.72 1679.92,1424.01 1655.89,1424.01 
  "/>
<path clip-path="url(#clip942)" d="
M1679.92 1427.35 L1679.92 1445.72 L1703.94 1445.72 L1703.94 1427.35 L1679.92 1427.35 L1679.92 1427.35  Z
  " fill="#009af9" fill-rule="evenodd" fill-opacity="1"/>
<polyline clip-path="url(#clip942)" style="stroke:#000000; stroke-width:4; stroke-opacity:1; fill:none" points="
  1679.92,1427.35 1679.92,1445.72 1703.94,1445.72 1703.94,1427.35 1679.92,1427.35 
  "/>
<path clip-path="url(#clip942)" d="
M1703.94 1432.36 L1703.94 1445.72 L1727.97 1445.72 L1727.97 1432.36 L1703.94 1432.36 L1703.94 1432.36  Z
  " fill="#009af9" fill-rule="evenodd" fill-opacity="1"/>
<polyline clip-path="url(#clip942)" style="stroke:#000000; stroke-width:4; stroke-opacity:1; fill:none" points="
  1703.94,1432.36 1703.94,1445.72 1727.97,1445.72 1727.97,1432.36 1703.94,1432.36 
  "/>
<path clip-path="url(#clip942)" d="
M1727.97 1435.7 L1727.97 1445.72 L1751.99 1445.72 L1751.99 1435.7 L1727.97 1435.7 L1727.97 1435.7  Z
  " fill="#009af9" fill-rule="evenodd" fill-opacity="1"/>
<polyline clip-path="url(#clip942)" style="stroke:#000000; stroke-width:4; stroke-opacity:1; fill:none" points="
  1727.97,1435.7 1727.97,1445.72 1751.99,1445.72 1751.99,1435.7 1727.97,1435.7 
  "/>
<path clip-path="url(#clip942)" d="
M1751.99 1444.05 L1751.99 1445.72 L1776.02 1445.72 L1776.02 1444.05 L1751.99 1444.05 L1751.99 1444.05  Z
  " fill="#009af9" fill-rule="evenodd" fill-opacity="1"/>
<polyline clip-path="url(#clip942)" style="stroke:#000000; stroke-width:4; stroke-opacity:1; fill:none" points="
  1751.99,1444.05 1751.99,1445.72 1776.02,1445.72 1776.02,1444.05 1751.99,1444.05 
  "/>
<path clip-path="url(#clip942)" d="
M1776.02 1437.37 L1776.02 1445.72 L1800.04 1445.72 L1800.04 1437.37 L1776.02 1437.37 L1776.02 1437.37  Z
  " fill="#009af9" fill-rule="evenodd" fill-opacity="1"/>
<polyline clip-path="url(#clip942)" style="stroke:#000000; stroke-width:4; stroke-opacity:1; fill:none" points="
  1776.02,1437.37 1776.02,1445.72 1800.04,1445.72 1800.04,1437.37 1776.02,1437.37 
  "/>
<path clip-path="url(#clip942)" d="
M1800.04 1444.05 L1800.04 1445.72 L1824.07 1445.72 L1824.07 1444.05 L1800.04 1444.05 L1800.04 1444.05  Z
  " fill="#009af9" fill-rule="evenodd" fill-opacity="1"/>
<polyline clip-path="url(#clip942)" style="stroke:#000000; stroke-width:4; stroke-opacity:1; fill:none" points="
  1800.04,1444.05 1800.04,1445.72 1824.07,1445.72 1824.07,1444.05 1800.04,1444.05 
  "/>
<path clip-path="url(#clip942)" d="
M1824.07 1442.38 L1824.07 1445.72 L1848.09 1445.72 L1848.09 1442.38 L1824.07 1442.38 L1824.07 1442.38  Z
  " fill="#009af9" fill-rule="evenodd" fill-opacity="1"/>
<polyline clip-path="url(#clip942)" style="stroke:#000000; stroke-width:4; stroke-opacity:1; fill:none" points="
  1824.07,1442.38 1824.07,1445.72 1848.09,1445.72 1848.09,1442.38 1824.07,1442.38 
  "/>
<path clip-path="url(#clip942)" d="
M1848.09 1442.38 L1848.09 1445.72 L1872.12 1445.72 L1872.12 1442.38 L1848.09 1442.38 L1848.09 1442.38  Z
  " fill="#009af9" fill-rule="evenodd" fill-opacity="1"/>
<polyline clip-path="url(#clip942)" style="stroke:#000000; stroke-width:4; stroke-opacity:1; fill:none" points="
  1848.09,1442.38 1848.09,1445.72 1872.12,1445.72 1872.12,1442.38 1848.09,1442.38 
  "/>
<path clip-path="url(#clip942)" d="
M1872.12 1445.72 L1872.12 1445.72 L1896.14 1445.72 L1896.14 1445.72 L1872.12 1445.72 L1872.12 1445.72  Z
  " fill="#009af9" fill-rule="evenodd" fill-opacity="1"/>
<polyline clip-path="url(#clip942)" style="stroke:#000000; stroke-width:4; stroke-opacity:1; fill:none" points="
  1872.12,1445.72 1872.12,1445.72 1896.14,1445.72 1872.12,1445.72 
  "/>
<path clip-path="url(#clip942)" d="
M1896.14 1445.72 L1896.14 1445.72 L1920.17 1445.72 L1920.17 1445.72 L1896.14 1445.72 L1896.14 1445.72  Z
  " fill="#009af9" fill-rule="evenodd" fill-opacity="1"/>
<polyline clip-path="url(#clip942)" style="stroke:#000000; stroke-width:4; stroke-opacity:1; fill:none" points="
  1896.14,1445.72 1896.14,1445.72 1920.17,1445.72 1896.14,1445.72 
  "/>
<path clip-path="url(#clip942)" d="
M1920.17 1445.72 L1920.17 1445.72 L1944.19 1445.72 L1944.19 1445.72 L1920.17 1445.72 L1920.17 1445.72  Z
  " fill="#009af9" fill-rule="evenodd" fill-opacity="1"/>
<polyline clip-path="url(#clip942)" style="stroke:#000000; stroke-width:4; stroke-opacity:1; fill:none" points="
  1920.17,1445.72 1920.17,1445.72 1944.19,1445.72 1920.17,1445.72 
  "/>
<path clip-path="url(#clip942)" d="
M1944.19 1445.72 L1944.19 1445.72 L1968.22 1445.72 L1968.22 1445.72 L1944.19 1445.72 L1944.19 1445.72  Z
  " fill="#009af9" fill-rule="evenodd" fill-opacity="1"/>
<polyline clip-path="url(#clip942)" style="stroke:#000000; stroke-width:4; stroke-opacity:1; fill:none" points="
  1944.19,1445.72 1944.19,1445.72 1968.22,1445.72 1944.19,1445.72 
  "/>
<path clip-path="url(#clip942)" d="
M1968.22 1445.72 L1968.22 1445.72 L1992.24 1445.72 L1992.24 1445.72 L1968.22 1445.72 L1968.22 1445.72  Z
  " fill="#009af9" fill-rule="evenodd" fill-opacity="1"/>
<polyline clip-path="url(#clip942)" style="stroke:#000000; stroke-width:4; stroke-opacity:1; fill:none" points="
  1968.22,1445.72 1968.22,1445.72 1992.24,1445.72 1968.22,1445.72 
  "/>
<path clip-path="url(#clip942)" d="
M1992.24 1445.72 L1992.24 1445.72 L2016.27 1445.72 L2016.27 1445.72 L1992.24 1445.72 L1992.24 1445.72  Z
  " fill="#009af9" fill-rule="evenodd" fill-opacity="1"/>
<polyline clip-path="url(#clip942)" style="stroke:#000000; stroke-width:4; stroke-opacity:1; fill:none" points="
  1992.24,1445.72 1992.24,1445.72 2016.27,1445.72 1992.24,1445.72 
  "/>
<path clip-path="url(#clip942)" d="
M2016.27 1445.72 L2016.27 1445.72 L2040.29 1445.72 L2040.29 1445.72 L2016.27 1445.72 L2016.27 1445.72  Z
  " fill="#009af9" fill-rule="evenodd" fill-opacity="1"/>
<polyline clip-path="url(#clip942)" style="stroke:#000000; stroke-width:4; stroke-opacity:1; fill:none" points="
  2016.27,1445.72 2016.27,1445.72 2040.29,1445.72 2016.27,1445.72 
  "/>
<path clip-path="url(#clip942)" d="
M2040.29 1445.72 L2040.29 1445.72 L2064.32 1445.72 L2064.32 1445.72 L2040.29 1445.72 L2040.29 1445.72  Z
  " fill="#009af9" fill-rule="evenodd" fill-opacity="1"/>
<polyline clip-path="url(#clip942)" style="stroke:#000000; stroke-width:4; stroke-opacity:1; fill:none" points="
  2040.29,1445.72 2040.29,1445.72 2064.32,1445.72 2040.29,1445.72 
  "/>
<path clip-path="url(#clip942)" d="
M2064.32 1445.72 L2064.32 1445.72 L2088.34 1445.72 L2088.34 1445.72 L2064.32 1445.72 L2064.32 1445.72  Z
  " fill="#009af9" fill-rule="evenodd" fill-opacity="1"/>
<polyline clip-path="url(#clip942)" style="stroke:#000000; stroke-width:4; stroke-opacity:1; fill:none" points="
  2064.32,1445.72 2064.32,1445.72 2088.34,1445.72 2064.32,1445.72 
  "/>
<path clip-path="url(#clip942)" d="
M2088.34 1445.72 L2088.34 1445.72 L2112.37 1445.72 L2112.37 1445.72 L2088.34 1445.72 L2088.34 1445.72  Z
  " fill="#009af9" fill-rule="evenodd" fill-opacity="1"/>
<polyline clip-path="url(#clip942)" style="stroke:#000000; stroke-width:4; stroke-opacity:1; fill:none" points="
  2088.34,1445.72 2088.34,1445.72 2112.37,1445.72 2088.34,1445.72 
  "/>
<path clip-path="url(#clip942)" d="
M2112.37 1445.72 L2112.37 1445.72 L2136.39 1445.72 L2136.39 1445.72 L2112.37 1445.72 L2112.37 1445.72  Z
  " fill="#009af9" fill-rule="evenodd" fill-opacity="1"/>
<polyline clip-path="url(#clip942)" style="stroke:#000000; stroke-width:4; stroke-opacity:1; fill:none" points="
  2112.37,1445.72 2112.37,1445.72 2136.39,1445.72 2112.37,1445.72 
  "/>
<path clip-path="url(#clip942)" d="
M2136.39 1445.72 L2136.39 1445.72 L2160.42 1445.72 L2160.42 1445.72 L2136.39 1445.72 L2136.39 1445.72  Z
  " fill="#009af9" fill-rule="evenodd" fill-opacity="1"/>
<polyline clip-path="url(#clip942)" style="stroke:#000000; stroke-width:4; stroke-opacity:1; fill:none" points="
  2136.39,1445.72 2136.39,1445.72 2160.42,1445.72 2136.39,1445.72 
  "/>
<path clip-path="url(#clip942)" d="
M2160.42 1444.05 L2160.42 1445.72 L2184.44 1445.72 L2184.44 1444.05 L2160.42 1444.05 L2160.42 1444.05  Z
  " fill="#009af9" fill-rule="evenodd" fill-opacity="1"/>
<polyline clip-path="url(#clip942)" style="stroke:#000000; stroke-width:4; stroke-opacity:1; fill:none" points="
  2160.42,1444.05 2160.42,1445.72 2184.44,1445.72 2184.44,1444.05 2160.42,1444.05 
  "/>
<path clip-path="url(#clip942)" d="
M2184.44 1445.72 L2184.44 1445.72 L2208.47 1445.72 L2208.47 1445.72 L2184.44 1445.72 L2184.44 1445.72  Z
  " fill="#009af9" fill-rule="evenodd" fill-opacity="1"/>
<polyline clip-path="url(#clip942)" style="stroke:#000000; stroke-width:4; stroke-opacity:1; fill:none" points="
  2184.44,1445.72 2184.44,1445.72 2208.47,1445.72 2184.44,1445.72 
  "/>
<path clip-path="url(#clip942)" d="
M2208.47 1444.05 L2208.47 1445.72 L2232.49 1445.72 L2232.49 1444.05 L2208.47 1444.05 L2208.47 1444.05  Z
  " fill="#009af9" fill-rule="evenodd" fill-opacity="1"/>
<polyline clip-path="url(#clip942)" style="stroke:#000000; stroke-width:4; stroke-opacity:1; fill:none" points="
  2208.47,1444.05 2208.47,1445.72 2232.49,1445.72 2232.49,1444.05 2208.47,1444.05 
  "/>
<path clip-path="url(#clip940)" d="
M1989.74 251.724 L2280.76 251.724 L2280.76 130.764 L1989.74 130.764  Z
  " fill="#ffffff" fill-rule="evenodd" fill-opacity="1"/>
<polyline clip-path="url(#clip940)" style="stroke:#000000; stroke-width:4; stroke-opacity:1; fill:none" points="
  1989.74,251.724 2280.76,251.724 2280.76,130.764 1989.74,130.764 1989.74,251.724 
  "/>
<path clip-path="url(#clip940)" d="
M2013.74 215.436 L2157.74 215.436 L2157.74 167.052 L2013.74 167.052 L2013.74 215.436  Z
  " fill="#009af9" fill-rule="evenodd" fill-opacity="1"/>
<polyline clip-path="url(#clip940)" style="stroke:#000000; stroke-width:4; stroke-opacity:1; fill:none" points="
  2013.74,215.436 2157.74,215.436 2157.74,167.052 2013.74,167.052 2013.74,215.436 
  "/>
<path clip-path="url(#clip940)" d="M 0 0 M2195.58 210.931 Q2193.77 215.561 2192.06 216.973 Q2190.35 218.385 2187.48 218.385 L2184.08 218.385 L2184.08 214.82 L2186.58 214.82 Q2188.33 214.82 2189.31 213.987 Q2190.28 213.154 2191.46 210.052 L2192.22 208.107 L2181.74 182.598 L2186.25 182.598 L2194.35 202.876 L2202.46 182.598 L2206.97 182.598 L2195.58 210.931 Z" fill="#000000" fill-rule="evenodd" fill-opacity="1" /><path clip-path="url(#clip940)" d="M 0 0 M2212.85 204.589 L2220.49 204.589 L2220.49 178.223 L2212.18 179.89 L2212.18 175.631 L2220.44 173.964 L2225.12 173.964 L2225.12 204.589 L2232.76 204.589 L2232.76 208.524 L2212.85 208.524 L2212.85 204.589 Z" fill="#000000" fill-rule="evenodd" fill-opacity="1" /></svg>
