<?xml version="1.0" encoding="utf-8"?>
<svg xmlns="http://www.w3.org/2000/svg" xmlns:xlink="http://www.w3.org/1999/xlink" width="600" height="400" viewBox="0 0 2400 1600">
<defs>
  <clipPath id="clip560">
    <rect x="0" y="0" width="2400" height="1600"/>
  </clipPath>
</defs>
<path clip-path="url(#clip560)" d="
M0 1600 L2400 1600 L2400 0 L0 0  Z
  " fill="#ffffff" fill-rule="evenodd" fill-opacity="1"/>
<defs>
  <clipPath id="clip561">
    <rect x="480" y="0" width="1681" height="1600"/>
  </clipPath>
</defs>
<path clip-path="url(#clip560)" d="
M166.205 1486.45 L2352.76 1486.45 L2352.76 47.2441 L166.205 47.2441  Z
  " fill="#ffffff" fill-rule="evenodd" fill-opacity="1"/>
<defs>
  <clipPath id="clip562">
    <rect x="166" y="47" width="2188" height="1440"/>
  </clipPath>
</defs>
<polyline clip-path="url(#clip562)" style="stroke:#000000; stroke-width:2; stroke-opacity:0.1; fill:none" points="
  371.079,1486.45 371.079,47.2441 
  "/>
<polyline clip-path="url(#clip562)" style="stroke:#000000; stroke-width:2; stroke-opacity:0.1; fill:none" points="
  794.127,1486.45 794.127,47.2441 
  "/>
<polyline clip-path="url(#clip562)" style="stroke:#000000; stroke-width:2; stroke-opacity:0.1; fill:none" points="
  1217.18,1486.45 1217.18,47.2441 
  "/>
<polyline clip-path="url(#clip562)" style="stroke:#000000; stroke-width:2; stroke-opacity:0.1; fill:none" points="
  1640.22,1486.45 1640.22,47.2441 
  "/>
<polyline clip-path="url(#clip562)" style="stroke:#000000; stroke-width:2; stroke-opacity:0.1; fill:none" points="
  2063.27,1486.45 2063.27,47.2441 
  "/>
<polyline clip-path="url(#clip562)" style="stroke:#000000; stroke-width:2; stroke-opacity:0.1; fill:none" points="
  166.205,1445.72 2352.76,1445.72 
  "/>
<polyline clip-path="url(#clip562)" style="stroke:#000000; stroke-width:2; stroke-opacity:0.1; fill:none" points="
  166.205,1110.06 2352.76,1110.06 
  "/>
<polyline clip-path="url(#clip562)" style="stroke:#000000; stroke-width:2; stroke-opacity:0.1; fill:none" points="
  166.205,774.398 2352.76,774.398 
  "/>
<polyline clip-path="url(#clip562)" style="stroke:#000000; stroke-width:2; stroke-opacity:0.1; fill:none" points="
  166.205,438.74 2352.76,438.74 
  "/>
<polyline clip-path="url(#clip562)" style="stroke:#000000; stroke-width:2; stroke-opacity:0.1; fill:none" points="
  166.205,103.081 2352.76,103.081 
  "/>
<polyline clip-path="url(#clip560)" style="stroke:#000000; stroke-width:4; stroke-opacity:1; fill:none" points="
  166.205,1486.45 2352.76,1486.45 
  "/>
<polyline clip-path="url(#clip560)" style="stroke:#000000; stroke-width:4; stroke-opacity:1; fill:none" points="
  166.205,1486.45 166.205,47.2441 
  "/>
<polyline clip-path="url(#clip560)" style="stroke:#000000; stroke-width:4; stroke-opacity:1; fill:none" points="
  371.079,1486.45 371.079,1469.18 
  "/>
<polyline clip-path="url(#clip560)" style="stroke:#000000; stroke-width:4; stroke-opacity:1; fill:none" points="
  794.127,1486.45 794.127,1469.18 
  "/>
<polyline clip-path="url(#clip560)" style="stroke:#000000; stroke-width:4; stroke-opacity:1; fill:none" points="
  1217.18,1486.45 1217.18,1469.18 
  "/>
<polyline clip-path="url(#clip560)" style="stroke:#000000; stroke-width:4; stroke-opacity:1; fill:none" points="
  1640.22,1486.45 1640.22,1469.18 
  "/>
<polyline clip-path="url(#clip560)" style="stroke:#000000; stroke-width:4; stroke-opacity:1; fill:none" points="
  2063.27,1486.45 2063.27,1469.18 
  "/>
<polyline clip-path="url(#clip560)" style="stroke:#000000; stroke-width:4; stroke-opacity:1; fill:none" points="
  166.205,1445.72 192.443,1445.72 
  "/>
<polyline clip-path="url(#clip560)" style="stroke:#000000; stroke-width:4; stroke-opacity:1; fill:none" points="
  166.205,1110.06 192.443,1110.06 
  "/>
<polyline clip-path="url(#clip560)" style="stroke:#000000; stroke-width:4; stroke-opacity:1; fill:none" points="
  166.205,774.398 192.443,774.398 
  "/>
<polyline clip-path="url(#clip560)" style="stroke:#000000; stroke-width:4; stroke-opacity:1; fill:none" points="
  166.205,438.74 192.443,438.74 
  "/>
<polyline clip-path="url(#clip560)" style="stroke:#000000; stroke-width:4; stroke-opacity:1; fill:none" points="
  166.205,103.081 192.443,103.081 
  "/>
<path clip-path="url(#clip560)" d="M 0 0 M351.252 1525.04 L363.729 1525.04 L363.729 1528.83 L351.252 1528.83 L351.252 1525.04 Z" fill="#000000" fill-rule="evenodd" fill-opacity="1" /><path clip-path="url(#clip560)" d="M 0 0 M379.377 1520.78 Q376.229 1520.78 374.377 1522.93 Q372.548 1525.08 372.548 1528.83 Q372.548 1532.56 374.377 1534.73 Q376.229 1536.89 379.377 1536.89 Q382.525 1536.89 384.354 1534.73 Q386.206 1532.56 386.206 1528.83 Q386.206 1525.08 384.354 1522.93 Q382.525 1520.78 379.377 1520.78 M388.659 1506.12 L388.659 1510.38 Q386.9 1509.55 385.095 1509.11 Q383.312 1508.67 381.553 1508.67 Q376.923 1508.67 374.47 1511.8 Q372.039 1514.92 371.692 1521.24 Q373.058 1519.23 375.118 1518.16 Q377.178 1517.07 379.655 1517.07 Q384.863 1517.07 387.872 1520.24 Q390.905 1523.39 390.905 1528.83 Q390.905 1534.16 387.757 1537.37 Q384.609 1540.59 379.377 1540.59 Q373.382 1540.59 370.211 1536.01 Q367.039 1531.4 367.039 1522.67 Q367.039 1514.48 370.928 1509.62 Q374.817 1504.73 381.368 1504.73 Q383.127 1504.73 384.91 1505.08 Q386.715 1505.43 388.659 1506.12 Z" fill="#000000" fill-rule="evenodd" fill-opacity="1" /><path clip-path="url(#clip560)" d="M 0 0 M774.706 1525.04 L787.183 1525.04 L787.183 1528.83 L774.706 1528.83 L774.706 1525.04 Z" fill="#000000" fill-rule="evenodd" fill-opacity="1" /><path clip-path="url(#clip560)" d="M 0 0 M806.419 1521.29 Q809.775 1522 811.65 1524.27 Q813.548 1526.54 813.548 1529.87 Q813.548 1534.99 810.03 1537.79 Q806.511 1540.59 800.03 1540.59 Q797.854 1540.59 795.539 1540.15 Q793.247 1539.73 790.794 1538.88 L790.794 1534.36 Q792.738 1535.5 795.053 1536.08 Q797.368 1536.66 799.891 1536.66 Q804.289 1536.66 806.581 1534.92 Q808.895 1533.18 808.895 1529.87 Q808.895 1526.82 806.743 1525.11 Q804.613 1523.37 800.794 1523.37 L796.766 1523.37 L796.766 1519.53 L800.979 1519.53 Q804.428 1519.53 806.257 1518.16 Q808.085 1516.77 808.085 1514.18 Q808.085 1511.52 806.187 1510.11 Q804.312 1508.67 800.794 1508.67 Q798.872 1508.67 796.673 1509.09 Q794.474 1509.5 791.835 1510.38 L791.835 1506.22 Q794.497 1505.48 796.812 1505.11 Q799.15 1504.73 801.21 1504.73 Q806.534 1504.73 809.636 1507.17 Q812.738 1509.57 812.738 1513.69 Q812.738 1516.56 811.095 1518.55 Q809.451 1520.52 806.419 1521.29 Z" fill="#000000" fill-rule="evenodd" fill-opacity="1" /><path clip-path="url(#clip560)" d="M 0 0 M1217.18 1508.44 Q1213.56 1508.44 1211.74 1512 Q1209.93 1515.55 1209.93 1522.67 Q1209.93 1529.78 1211.74 1533.35 Q1213.56 1536.89 1217.18 1536.89 Q1220.81 1536.89 1222.62 1533.35 Q1224.44 1529.78 1224.44 1522.67 Q1224.44 1515.55 1222.62 1512 Q1220.81 1508.44 1217.18 1508.44 M1217.18 1504.73 Q1222.99 1504.73 1226.04 1509.34 Q1229.12 1513.92 1229.12 1522.67 Q1229.12 1531.4 1226.04 1536.01 Q1222.99 1540.59 1217.18 1540.59 Q1211.37 1540.59 1208.29 1536.01 Q1205.23 1531.4 1205.23 1522.67 Q1205.23 1513.92 1208.29 1509.34 Q1211.37 1504.73 1217.18 1504.73 Z" fill="#000000" fill-rule="evenodd" fill-opacity="1" /><path clip-path="url(#clip560)" d="M 0 0 M1644.47 1521.29 Q1647.83 1522 1649.7 1524.27 Q1651.6 1526.54 1651.6 1529.87 Q1651.6 1534.99 1648.08 1537.79 Q1644.56 1540.59 1638.08 1540.59 Q1635.91 1540.59 1633.59 1540.15 Q1631.3 1539.73 1628.85 1538.88 L1628.85 1534.36 Q1630.79 1535.5 1633.11 1536.08 Q1635.42 1536.66 1637.94 1536.66 Q1642.34 1536.66 1644.63 1534.92 Q1646.95 1533.18 1646.95 1529.87 Q1646.95 1526.82 1644.8 1525.11 Q1642.67 1523.37 1638.85 1523.37 L1634.82 1523.37 L1634.82 1519.53 L1639.03 1519.53 Q1642.48 1519.53 1644.31 1518.16 Q1646.14 1516.77 1646.14 1514.18 Q1646.14 1511.52 1644.24 1510.11 Q1642.37 1508.67 1638.85 1508.67 Q1636.93 1508.67 1634.73 1509.09 Q1632.53 1509.5 1629.89 1510.38 L1629.89 1506.22 Q1632.55 1505.48 1634.87 1505.11 Q1637.2 1504.73 1639.26 1504.73 Q1644.59 1504.73 1647.69 1507.17 Q1650.79 1509.57 1650.79 1513.69 Q1650.79 1516.56 1649.15 1518.55 Q1647.5 1520.52 1644.47 1521.29 Z" fill="#000000" fill-rule="evenodd" fill-opacity="1" /><path clip-path="url(#clip560)" d="M 0 0 M2063.68 1520.78 Q2060.53 1520.78 2058.68 1522.93 Q2056.85 1525.08 2056.85 1528.83 Q2056.85 1532.56 2058.68 1534.73 Q2060.53 1536.89 2063.68 1536.89 Q2066.83 1536.89 2068.65 1534.73 Q2070.51 1532.56 2070.51 1528.83 Q2070.51 1525.08 2068.65 1522.93 Q2066.83 1520.78 2063.68 1520.78 M2072.96 1506.12 L2072.96 1510.38 Q2071.2 1509.55 2069.39 1509.11 Q2067.61 1508.67 2065.85 1508.67 Q2061.22 1508.67 2058.77 1511.8 Q2056.34 1514.92 2055.99 1521.24 Q2057.36 1519.23 2059.42 1518.16 Q2061.48 1517.07 2063.96 1517.07 Q2069.16 1517.07 2072.17 1520.24 Q2075.21 1523.39 2075.21 1528.83 Q2075.21 1534.16 2072.06 1537.37 Q2068.91 1540.59 2063.68 1540.59 Q2057.68 1540.59 2054.51 1536.01 Q2051.34 1531.4 2051.34 1522.67 Q2051.34 1514.48 2055.23 1509.62 Q2059.12 1504.73 2065.67 1504.73 Q2067.43 1504.73 2069.21 1505.08 Q2071.02 1505.43 2072.96 1506.12 Z" fill="#000000" fill-rule="evenodd" fill-opacity="1" /><path clip-path="url(#clip560)" d="M 0 0 M130.26 1431.51 Q126.649 1431.51 124.82 1435.08 Q123.015 1438.62 123.015 1445.75 Q123.015 1452.86 124.82 1456.42 Q126.649 1459.96 130.26 1459.96 Q133.895 1459.96 135.7 1456.42 Q137.529 1452.86 137.529 1445.75 Q137.529 1438.62 135.7 1435.08 Q133.895 1431.51 130.26 1431.51 M130.26 1427.81 Q136.07 1427.81 139.126 1432.42 Q142.205 1437 142.205 1445.75 Q142.205 1454.48 139.126 1459.08 Q136.07 1463.67 130.26 1463.67 Q124.45 1463.67 121.371 1459.08 Q118.316 1454.48 118.316 1445.75 Q118.316 1437 121.371 1432.42 Q124.45 1427.81 130.26 1427.81 Z" fill="#000000" fill-rule="evenodd" fill-opacity="1" /><path clip-path="url(#clip560)" d="M 0 0 M71.8578 1123.4 L88.1772 1123.4 L88.1772 1127.34 L66.2328 1127.34 L66.2328 1123.4 Q68.8949 1120.65 73.4782 1116.02 Q78.0846 1111.36 79.2652 1110.02 Q81.5105 1107.5 82.3902 1105.76 Q83.2929 1104 83.2929 1102.31 Q83.2929 1099.56 81.3485 1097.82 Q79.4272 1096.09 76.3254 1096.09 Q74.1263 1096.09 71.6726 1096.85 Q69.2421 1097.61 66.4643 1099.17 L66.4643 1094.44 Q69.2884 1093.31 71.7421 1092.73 Q74.1958 1092.15 76.2328 1092.15 Q81.6031 1092.15 84.7976 1094.84 Q87.992 1097.52 87.992 1102.01 Q87.992 1104.14 87.1818 1106.06 Q86.3948 1107.96 84.2883 1110.55 Q83.7096 1111.23 80.6078 1114.44 Q77.5059 1117.64 71.8578 1123.4 Z" fill="#000000" fill-rule="evenodd" fill-opacity="1" /><path clip-path="url(#clip560)" d="M 0 0 M103.247 1095.86 Q99.6354 1095.86 97.8068 1099.42 Q96.0012 1102.96 96.0012 1110.09 Q96.0012 1117.2 97.8068 1120.76 Q99.6354 1124.3 103.247 1124.3 Q106.881 1124.3 108.686 1120.76 Q110.515 1117.2 110.515 1110.09 Q110.515 1102.96 108.686 1099.42 Q106.881 1095.86 103.247 1095.86 M103.247 1092.15 Q109.057 1092.15 112.112 1096.76 Q115.191 1101.34 115.191 1110.09 Q115.191 1118.82 112.112 1123.42 Q109.057 1128.01 103.247 1128.01 Q97.4364 1128.01 94.3577 1123.42 Q91.3022 1118.82 91.3022 1110.09 Q91.3022 1101.34 94.3577 1096.76 Q97.4364 1092.15 103.247 1092.15 Z" fill="#000000" fill-rule="evenodd" fill-opacity="1" /><path clip-path="url(#clip560)" d="M 0 0 M130.26 1095.86 Q126.649 1095.86 124.82 1099.42 Q123.015 1102.96 123.015 1110.09 Q123.015 1117.2 124.82 1120.76 Q126.649 1124.3 130.26 1124.3 Q133.895 1124.3 135.7 1120.76 Q137.529 1117.2 137.529 1110.09 Q137.529 1102.96 135.7 1099.42 Q133.895 1095.86 130.26 1095.86 M130.26 1092.15 Q136.07 1092.15 139.126 1096.76 Q142.205 1101.34 142.205 1110.09 Q142.205 1118.82 139.126 1123.42 Q136.07 1128.01 130.26 1128.01 Q124.45 1128.01 121.371 1123.42 Q118.316 1118.82 118.316 1110.09 Q118.316 1101.34 121.371 1096.76 Q124.45 1092.15 130.26 1092.15 Z" fill="#000000" fill-rule="evenodd" fill-opacity="1" /><path clip-path="url(#clip560)" d="M 0 0 M78.5939 761.192 L66.7884 779.641 L78.5939 779.641 L78.5939 761.192 M77.367 757.118 L83.2466 757.118 L83.2466 779.641 L88.1772 779.641 L88.1772 783.53 L83.2466 783.53 L83.2466 791.678 L78.5939 791.678 L78.5939 783.53 L62.9921 783.53 L62.9921 779.016 L77.367 757.118 Z" fill="#000000" fill-rule="evenodd" fill-opacity="1" /><path clip-path="url(#clip560)" d="M 0 0 M103.247 760.197 Q99.6354 760.197 97.8068 763.762 Q96.0012 767.303 96.0012 774.433 Q96.0012 781.539 97.8068 785.104 Q99.6354 788.646 103.247 788.646 Q106.881 788.646 108.686 785.104 Q110.515 781.539 110.515 774.433 Q110.515 767.303 108.686 763.762 Q106.881 760.197 103.247 760.197 M103.247 756.493 Q109.057 756.493 112.112 761.1 Q115.191 765.683 115.191 774.433 Q115.191 783.16 112.112 787.766 Q109.057 792.35 103.247 792.35 Q97.4364 792.35 94.3577 787.766 Q91.3022 783.16 91.3022 774.433 Q91.3022 765.683 94.3577 761.1 Q97.4364 756.493 103.247 756.493 Z" fill="#000000" fill-rule="evenodd" fill-opacity="1" /><path clip-path="url(#clip560)" d="M 0 0 M130.26 760.197 Q126.649 760.197 124.82 763.762 Q123.015 767.303 123.015 774.433 Q123.015 781.539 124.82 785.104 Q126.649 788.646 130.26 788.646 Q133.895 788.646 135.7 785.104 Q137.529 781.539 137.529 774.433 Q137.529 767.303 135.7 763.762 Q133.895 760.197 130.26 760.197 M130.26 756.493 Q136.07 756.493 139.126 761.1 Q142.205 765.683 142.205 774.433 Q142.205 783.16 139.126 787.766 Q136.07 792.35 130.26 792.35 Q124.45 792.35 121.371 787.766 Q118.316 783.16 118.316 774.433 Q118.316 765.683 121.371 761.1 Q124.45 756.493 130.26 756.493 Z" fill="#000000" fill-rule="evenodd" fill-opacity="1" /><path clip-path="url(#clip560)" d="M 0 0 M76.6495 436.876 Q73.5013 436.876 71.6495 439.029 Q69.8208 441.182 69.8208 444.932 Q69.8208 448.659 71.6495 450.834 Q73.5013 452.987 76.6495 452.987 Q79.7976 452.987 81.6263 450.834 Q83.4781 448.659 83.4781 444.932 Q83.4781 441.182 81.6263 439.029 Q79.7976 436.876 76.6495 436.876 M85.9318 422.223 L85.9318 426.483 Q84.1726 425.649 82.367 425.21 Q80.5846 424.77 78.8254 424.77 Q74.1958 424.77 71.7421 427.895 Q69.3115 431.02 68.9643 437.339 Q70.33 435.325 72.3902 434.26 Q74.4504 433.173 76.9272 433.173 Q82.1355 433.173 85.1448 436.344 Q88.1772 439.492 88.1772 444.932 Q88.1772 450.256 85.029 453.473 Q81.8809 456.691 76.6495 456.691 Q70.6541 456.691 67.4828 452.108 Q64.3116 447.501 64.3116 438.774 Q64.3116 430.58 68.2004 425.719 Q72.0893 420.835 78.6402 420.835 Q80.3994 420.835 82.1818 421.182 Q83.9874 421.529 85.9318 422.223 Z" fill="#000000" fill-rule="evenodd" fill-opacity="1" /><path clip-path="url(#clip560)" d="M 0 0 M103.247 424.538 Q99.6354 424.538 97.8068 428.103 Q96.0012 431.645 96.0012 438.774 Q96.0012 445.881 97.8068 449.446 Q99.6354 452.987 103.247 452.987 Q106.881 452.987 108.686 449.446 Q110.515 445.881 110.515 438.774 Q110.515 431.645 108.686 428.103 Q106.881 424.538 103.247 424.538 M103.247 420.835 Q109.057 420.835 112.112 425.441 Q115.191 430.024 115.191 438.774 Q115.191 447.501 112.112 452.108 Q109.057 456.691 103.247 456.691 Q97.4364 456.691 94.3577 452.108 Q91.3022 447.501 91.3022 438.774 Q91.3022 430.024 94.3577 425.441 Q97.4364 420.835 103.247 420.835 Z" fill="#000000" fill-rule="evenodd" fill-opacity="1" /><path clip-path="url(#clip560)" d="M 0 0 M130.26 424.538 Q126.649 424.538 124.82 428.103 Q123.015 431.645 123.015 438.774 Q123.015 445.881 124.82 449.446 Q126.649 452.987 130.26 452.987 Q133.895 452.987 135.7 449.446 Q137.529 445.881 137.529 438.774 Q137.529 431.645 135.7 428.103 Q133.895 424.538 130.26 424.538 M130.26 420.835 Q136.07 420.835 139.126 425.441 Q142.205 430.024 142.205 438.774 Q142.205 447.501 139.126 452.108 Q136.07 456.691 130.26 456.691 Q124.45 456.691 121.371 452.108 Q118.316 447.501 118.316 438.774 Q118.316 430.024 121.371 425.441 Q124.45 420.835 130.26 420.835 Z" fill="#000000" fill-rule="evenodd" fill-opacity="1" /><path clip-path="url(#clip560)" d="M 0 0 M76.3254 103.949 Q72.9921 103.949 71.0708 105.731 Q69.1726 107.514 69.1726 110.639 Q69.1726 113.764 71.0708 115.546 Q72.9921 117.329 76.3254 117.329 Q79.6587 117.329 81.58 115.546 Q83.5013 113.741 83.5013 110.639 Q83.5013 107.514 81.58 105.731 Q79.6819 103.949 76.3254 103.949 M71.6495 101.958 Q68.6402 101.218 66.9504 99.1573 Q65.2838 97.0972 65.2838 94.1342 Q65.2838 89.9907 68.2236 87.5833 Q71.1865 85.1759 76.3254 85.1759 Q81.4874 85.1759 84.4272 87.5833 Q87.367 89.9907 87.367 94.1342 Q87.367 97.0972 85.6772 99.1573 Q84.0105 101.218 81.0244 101.958 Q84.404 102.745 86.279 105.037 Q88.1772 107.329 88.1772 110.639 Q88.1772 115.662 85.0985 118.347 Q82.0429 121.032 76.3254 121.032 Q70.6078 121.032 67.5291 118.347 Q64.4736 115.662 64.4736 110.639 Q64.4736 107.329 66.3717 105.037 Q68.2699 102.745 71.6495 101.958 M69.9365 94.574 Q69.9365 97.2592 71.6032 98.7638 Q73.293 100.268 76.3254 100.268 Q79.3346 100.268 81.0244 98.7638 Q82.7374 97.2592 82.7374 94.574 Q82.7374 91.8888 81.0244 90.3842 Q79.3346 88.8796 76.3254 88.8796 Q73.293 88.8796 71.6032 90.3842 Q69.9365 91.8888 69.9365 94.574 Z" fill="#000000" fill-rule="evenodd" fill-opacity="1" /><path clip-path="url(#clip560)" d="M 0 0 M103.247 88.8796 Q99.6354 88.8796 97.8068 92.4444 Q96.0012 95.986 96.0012 103.116 Q96.0012 110.222 97.8068 113.787 Q99.6354 117.329 103.247 117.329 Q106.881 117.329 108.686 113.787 Q110.515 110.222 110.515 103.116 Q110.515 95.986 108.686 92.4444 Q106.881 88.8796 103.247 88.8796 M103.247 85.1759 Q109.057 85.1759 112.112 89.7824 Q115.191 94.3657 115.191 103.116 Q115.191 111.842 112.112 116.449 Q109.057 121.032 103.247 121.032 Q97.4364 121.032 94.3577 116.449 Q91.3022 111.842 91.3022 103.116 Q91.3022 94.3657 94.3577 89.7824 Q97.4364 85.1759 103.247 85.1759 Z" fill="#000000" fill-rule="evenodd" fill-opacity="1" /><path clip-path="url(#clip560)" d="M 0 0 M130.26 88.8796 Q126.649 88.8796 124.82 92.4444 Q123.015 95.986 123.015 103.116 Q123.015 110.222 124.82 113.787 Q126.649 117.329 130.26 117.329 Q133.895 117.329 135.7 113.787 Q137.529 110.222 137.529 103.116 Q137.529 95.986 135.7 92.4444 Q133.895 88.8796 130.26 88.8796 M130.26 85.1759 Q136.07 85.1759 139.126 89.7824 Q142.205 94.3657 142.205 103.116 Q142.205 111.842 139.126 116.449 Q136.07 121.032 130.26 121.032 Q124.45 121.032 121.371 116.449 Q118.316 111.842 118.316 103.116 Q118.316 94.3657 121.371 89.7824 Q124.45 85.1759 130.26 85.1759 Z" fill="#000000" fill-rule="evenodd" fill-opacity="1" /><path clip-path="url(#clip562)" d="
M286.469 1444.04 L286.469 1445.72 L314.672 1445.72 L314.672 1444.04 L286.469 1444.04 L286.469 1444.04  Z
  " fill="#009af9" fill-rule="evenodd" fill-opacity="1"/>
<polyline clip-path="url(#clip562)" style="stroke:#000000; stroke-width:4; stroke-opacity:1; fill:none" points="
  286.469,1444.04 286.469,1445.72 314.672,1445.72 314.672,1444.04 286.469,1444.04 
  "/>
<path clip-path="url(#clip562)" d="
M314.672 1445.72 L314.672 1445.72 L342.875 1445.72 L342.875 1445.72 L314.672 1445.72 L314.672 1445.72  Z
  " fill="#009af9" fill-rule="evenodd" fill-opacity="1"/>
<polyline clip-path="url(#clip562)" style="stroke:#000000; stroke-width:4; stroke-opacity:1; fill:none" points="
  314.672,1445.72 314.672,1445.72 342.875,1445.72 314.672,1445.72 
  "/>
<path clip-path="url(#clip562)" d="
M342.875 1444.04 L342.875 1445.72 L371.079 1445.72 L371.079 1444.04 L342.875 1444.04 L342.875 1444.04  Z
  " fill="#009af9" fill-rule="evenodd" fill-opacity="1"/>
<polyline clip-path="url(#clip562)" style="stroke:#000000; stroke-width:4; stroke-opacity:1; fill:none" points="
  342.875,1444.04 342.875,1445.72 371.079,1445.72 371.079,1444.04 342.875,1444.04 
  "/>
<path clip-path="url(#clip562)" d="
M371.079 1442.36 L371.079 1445.72 L399.282 1445.72 L399.282 1442.36 L371.079 1442.36 L371.079 1442.36  Z
  " fill="#009af9" fill-rule="evenodd" fill-opacity="1"/>
<polyline clip-path="url(#clip562)" style="stroke:#000000; stroke-width:4; stroke-opacity:1; fill:none" points="
  371.079,1442.36 371.079,1445.72 399.282,1445.72 399.282,1442.36 371.079,1442.36 
  "/>
<path clip-path="url(#clip562)" d="
M399.282 1442.36 L399.282 1445.72 L427.485 1445.72 L427.485 1442.36 L399.282 1442.36 L399.282 1442.36  Z
  " fill="#009af9" fill-rule="evenodd" fill-opacity="1"/>
<polyline clip-path="url(#clip562)" style="stroke:#000000; stroke-width:4; stroke-opacity:1; fill:none" points="
  399.282,1442.36 399.282,1445.72 427.485,1445.72 427.485,1442.36 399.282,1442.36 
  "/>
<path clip-path="url(#clip562)" d="
M427.485 1442.36 L427.485 1445.72 L455.688 1445.72 L455.688 1442.36 L427.485 1442.36 L427.485 1442.36  Z
  " fill="#009af9" fill-rule="evenodd" fill-opacity="1"/>
<polyline clip-path="url(#clip562)" style="stroke:#000000; stroke-width:4; stroke-opacity:1; fill:none" points="
  427.485,1442.36 427.485,1445.72 455.688,1445.72 455.688,1442.36 427.485,1442.36 
  "/>
<path clip-path="url(#clip562)" d="
M455.688 1430.61 L455.688 1445.72 L483.891 1445.72 L483.891 1430.61 L455.688 1430.61 L455.688 1430.61  Z
  " fill="#009af9" fill-rule="evenodd" fill-opacity="1"/>
<polyline clip-path="url(#clip562)" style="stroke:#000000; stroke-width:4; stroke-opacity:1; fill:none" points="
  455.688,1430.61 455.688,1445.72 483.891,1445.72 483.891,1430.61 455.688,1430.61 
  "/>
<path clip-path="url(#clip562)" d="
M483.891 1432.29 L483.891 1445.72 L512.095 1445.72 L512.095 1432.29 L483.891 1432.29 L483.891 1432.29  Z
  " fill="#009af9" fill-rule="evenodd" fill-opacity="1"/>
<polyline clip-path="url(#clip562)" style="stroke:#000000; stroke-width:4; stroke-opacity:1; fill:none" points="
  483.891,1432.29 483.891,1445.72 512.095,1445.72 512.095,1432.29 483.891,1432.29 
  "/>
<path clip-path="url(#clip562)" d="
M512.095 1427.25 L512.095 1445.72 L540.298 1445.72 L540.298 1427.25 L512.095 1427.25 L512.095 1427.25  Z
  " fill="#009af9" fill-rule="evenodd" fill-opacity="1"/>
<polyline clip-path="url(#clip562)" style="stroke:#000000; stroke-width:4; stroke-opacity:1; fill:none" points="
  512.095,1427.25 512.095,1445.72 540.298,1445.72 540.298,1427.25 512.095,1427.25 
  "/>
<path clip-path="url(#clip562)" d="
M540.298 1430.61 L540.298 1445.72 L568.501 1445.72 L568.501 1430.61 L540.298 1430.61 L540.298 1430.61  Z
  " fill="#009af9" fill-rule="evenodd" fill-opacity="1"/>
<polyline clip-path="url(#clip562)" style="stroke:#000000; stroke-width:4; stroke-opacity:1; fill:none" points="
  540.298,1430.61 540.298,1445.72 568.501,1445.72 568.501,1430.61 540.298,1430.61 
  "/>
<path clip-path="url(#clip562)" d="
M568.501 1435.65 L568.501 1445.72 L596.704 1445.72 L596.704 1435.65 L568.501 1435.65 L568.501 1435.65  Z
  " fill="#009af9" fill-rule="evenodd" fill-opacity="1"/>
<polyline clip-path="url(#clip562)" style="stroke:#000000; stroke-width:4; stroke-opacity:1; fill:none" points="
  568.501,1435.65 568.501,1445.72 596.704,1445.72 596.704,1435.65 568.501,1435.65 
  "/>
<path clip-path="url(#clip562)" d="
M596.704 1435.65 L596.704 1445.72 L624.908 1445.72 L624.908 1435.65 L596.704 1435.65 L596.704 1435.65  Z
  " fill="#009af9" fill-rule="evenodd" fill-opacity="1"/>
<polyline clip-path="url(#clip562)" style="stroke:#000000; stroke-width:4; stroke-opacity:1; fill:none" points="
  596.704,1435.65 596.704,1445.72 624.908,1445.72 624.908,1435.65 596.704,1435.65 
  "/>
<path clip-path="url(#clip562)" d="
M624.908 1422.22 L624.908 1445.72 L653.111 1445.72 L653.111 1422.22 L624.908 1422.22 L624.908 1422.22  Z
  " fill="#009af9" fill-rule="evenodd" fill-opacity="1"/>
<polyline clip-path="url(#clip562)" style="stroke:#000000; stroke-width:4; stroke-opacity:1; fill:none" points="
  624.908,1422.22 624.908,1445.72 653.111,1445.72 653.111,1422.22 624.908,1422.22 
  "/>
<path clip-path="url(#clip562)" d="
M653.111 1425.58 L653.111 1445.72 L681.314 1445.72 L681.314 1425.58 L653.111 1425.58 L653.111 1425.58  Z
  " fill="#009af9" fill-rule="evenodd" fill-opacity="1"/>
<polyline clip-path="url(#clip562)" style="stroke:#000000; stroke-width:4; stroke-opacity:1; fill:none" points="
  653.111,1425.58 653.111,1445.72 681.314,1445.72 681.314,1425.58 653.111,1425.58 
  "/>
<path clip-path="url(#clip562)" d="
M681.314 1412.15 L681.314 1445.72 L709.517 1445.72 L709.517 1412.15 L681.314 1412.15 L681.314 1412.15  Z
  " fill="#009af9" fill-rule="evenodd" fill-opacity="1"/>
<polyline clip-path="url(#clip562)" style="stroke:#000000; stroke-width:4; stroke-opacity:1; fill:none" points="
  681.314,1412.15 681.314,1445.72 709.517,1445.72 709.517,1412.15 681.314,1412.15 
  "/>
<path clip-path="url(#clip562)" d="
M709.517 1402.08 L709.517 1445.72 L737.721 1445.72 L737.721 1402.08 L709.517 1402.08 L709.517 1402.08  Z
  " fill="#009af9" fill-rule="evenodd" fill-opacity="1"/>
<polyline clip-path="url(#clip562)" style="stroke:#000000; stroke-width:4; stroke-opacity:1; fill:none" points="
  709.517,1402.08 709.517,1445.72 737.721,1445.72 737.721,1402.08 709.517,1402.08 
  "/>
<path clip-path="url(#clip562)" d="
M737.721 1375.23 L737.721 1445.72 L765.924 1445.72 L765.924 1375.23 L737.721 1375.23 L737.721 1375.23  Z
  " fill="#009af9" fill-rule="evenodd" fill-opacity="1"/>
<polyline clip-path="url(#clip562)" style="stroke:#000000; stroke-width:4; stroke-opacity:1; fill:none" points="
  737.721,1375.23 737.721,1445.72 765.924,1445.72 765.924,1375.23 737.721,1375.23 
  "/>
<path clip-path="url(#clip562)" d="
M765.924 1397.05 L765.924 1445.72 L794.127 1445.72 L794.127 1397.05 L765.924 1397.05 L765.924 1397.05  Z
  " fill="#009af9" fill-rule="evenodd" fill-opacity="1"/>
<polyline clip-path="url(#clip562)" style="stroke:#000000; stroke-width:4; stroke-opacity:1; fill:none" points="
  765.924,1397.05 765.924,1445.72 794.127,1445.72 794.127,1397.05 765.924,1397.05 
  "/>
<path clip-path="url(#clip562)" d="
M794.127 1388.65 L794.127 1445.72 L822.33 1445.72 L822.33 1388.65 L794.127 1388.65 L794.127 1388.65  Z
  " fill="#009af9" fill-rule="evenodd" fill-opacity="1"/>
<polyline clip-path="url(#clip562)" style="stroke:#000000; stroke-width:4; stroke-opacity:1; fill:none" points="
  794.127,1388.65 794.127,1445.72 822.33,1445.72 822.33,1388.65 794.127,1388.65 
  "/>
<path clip-path="url(#clip562)" d="
M822.33 1375.23 L822.33 1445.72 L850.533 1445.72 L850.533 1375.23 L822.33 1375.23 L822.33 1375.23  Z
  " fill="#009af9" fill-rule="evenodd" fill-opacity="1"/>
<polyline clip-path="url(#clip562)" style="stroke:#000000; stroke-width:4; stroke-opacity:1; fill:none" points="
  822.33,1375.23 822.33,1445.72 850.533,1445.72 850.533,1375.23 822.33,1375.23 
  "/>
<path clip-path="url(#clip562)" d="
M850.533 1370.19 L850.533 1445.72 L878.737 1445.72 L878.737 1370.19 L850.533 1370.19 L850.533 1370.19  Z
  " fill="#009af9" fill-rule="evenodd" fill-opacity="1"/>
<polyline clip-path="url(#clip562)" style="stroke:#000000; stroke-width:4; stroke-opacity:1; fill:none" points="
  850.533,1370.19 850.533,1445.72 878.737,1445.72 878.737,1370.19 850.533,1370.19 
  "/>
<path clip-path="url(#clip562)" d="
M878.737 1353.41 L878.737 1445.72 L906.94 1445.72 L906.94 1353.41 L878.737 1353.41 L878.737 1353.41  Z
  " fill="#009af9" fill-rule="evenodd" fill-opacity="1"/>
<polyline clip-path="url(#clip562)" style="stroke:#000000; stroke-width:4; stroke-opacity:1; fill:none" points="
  878.737,1353.41 878.737,1445.72 906.94,1445.72 906.94,1353.41 878.737,1353.41 
  "/>
<path clip-path="url(#clip562)" d="
M906.94 1323.2 L906.94 1445.72 L935.143 1445.72 L935.143 1323.2 L906.94 1323.2 L906.94 1323.2  Z
  " fill="#009af9" fill-rule="evenodd" fill-opacity="1"/>
<polyline clip-path="url(#clip562)" style="stroke:#000000; stroke-width:4; stroke-opacity:1; fill:none" points="
  906.94,1323.2 906.94,1445.72 935.143,1445.72 935.143,1323.2 906.94,1323.2 
  "/>
<path clip-path="url(#clip562)" d="
M935.143 1333.27 L935.143 1445.72 L963.346 1445.72 L963.346 1333.27 L935.143 1333.27 L935.143 1333.27  Z
  " fill="#009af9" fill-rule="evenodd" fill-opacity="1"/>
<polyline clip-path="url(#clip562)" style="stroke:#000000; stroke-width:4; stroke-opacity:1; fill:none" points="
  935.143,1333.27 935.143,1445.72 963.346,1445.72 963.346,1333.27 935.143,1333.27 
  "/>
<path clip-path="url(#clip562)" d="
M963.346 1284.6 L963.346 1445.72 L991.55 1445.72 L991.55 1284.6 L963.346 1284.6 L963.346 1284.6  Z
  " fill="#009af9" fill-rule="evenodd" fill-opacity="1"/>
<polyline clip-path="url(#clip562)" style="stroke:#000000; stroke-width:4; stroke-opacity:1; fill:none" points="
  963.346,1284.6 963.346,1445.72 991.55,1445.72 991.55,1284.6 963.346,1284.6 
  "/>
<path clip-path="url(#clip562)" d="
M991.55 1281.24 L991.55 1445.72 L1019.75 1445.72 L1019.75 1281.24 L991.55 1281.24 L991.55 1281.24  Z
  " fill="#009af9" fill-rule="evenodd" fill-opacity="1"/>
<polyline clip-path="url(#clip562)" style="stroke:#000000; stroke-width:4; stroke-opacity:1; fill:none" points="
  991.55,1281.24 991.55,1445.72 1019.75,1445.72 1019.75,1281.24 991.55,1281.24 
  "/>
<path clip-path="url(#clip562)" d="
M1019.75 1291.31 L1019.75 1445.72 L1047.96 1445.72 L1047.96 1291.31 L1019.75 1291.31 L1019.75 1291.31  Z
  " fill="#009af9" fill-rule="evenodd" fill-opacity="1"/>
<polyline clip-path="url(#clip562)" style="stroke:#000000; stroke-width:4; stroke-opacity:1; fill:none" points="
  1019.75,1291.31 1019.75,1445.72 1047.96,1445.72 1047.96,1291.31 1019.75,1291.31 
  "/>
<path clip-path="url(#clip562)" d="
M1047.96 1267.82 L1047.96 1445.72 L1076.16 1445.72 L1076.16 1267.82 L1047.96 1267.82 L1047.96 1267.82  Z
  " fill="#009af9" fill-rule="evenodd" fill-opacity="1"/>
<polyline clip-path="url(#clip562)" style="stroke:#000000; stroke-width:4; stroke-opacity:1; fill:none" points="
  1047.96,1267.82 1047.96,1445.72 1076.16,1445.72 1076.16,1267.82 1047.96,1267.82 
  "/>
<path clip-path="url(#clip562)" d="
M1076.16 1254.39 L1076.16 1445.72 L1104.36 1445.72 L1104.36 1254.39 L1076.16 1254.39 L1076.16 1254.39  Z
  " fill="#009af9" fill-rule="evenodd" fill-opacity="1"/>
<polyline clip-path="url(#clip562)" style="stroke:#000000; stroke-width:4; stroke-opacity:1; fill:none" points="
  1076.16,1254.39 1076.16,1445.72 1104.36,1445.72 1104.36,1254.39 1076.16,1254.39 
  "/>
<path clip-path="url(#clip562)" d="
M1104.36 1281.24 L1104.36 1445.72 L1132.57 1445.72 L1132.57 1281.24 L1104.36 1281.24 L1104.36 1281.24  Z
  " fill="#009af9" fill-rule="evenodd" fill-opacity="1"/>
<polyline clip-path="url(#clip562)" style="stroke:#000000; stroke-width:4; stroke-opacity:1; fill:none" points="
  1104.36,1281.24 1104.36,1445.72 1132.57,1445.72 1132.57,1281.24 1104.36,1281.24 
  "/>
<path clip-path="url(#clip562)" d="
M1132.57 1246 L1132.57 1445.72 L1160.77 1445.72 L1160.77 1246 L1132.57 1246 L1132.57 1246  Z
  " fill="#009af9" fill-rule="evenodd" fill-opacity="1"/>
<polyline clip-path="url(#clip562)" style="stroke:#000000; stroke-width:4; stroke-opacity:1; fill:none" points="
  1132.57,1246 1132.57,1445.72 1160.77,1445.72 1160.77,1246 1132.57,1246 
  "/>
<path clip-path="url(#clip562)" d="
M1160.77 1251.03 L1160.77 1445.72 L1188.97 1445.72 L1188.97 1251.03 L1160.77 1251.03 L1160.77 1251.03  Z
  " fill="#009af9" fill-rule="evenodd" fill-opacity="1"/>
<polyline clip-path="url(#clip562)" style="stroke:#000000; stroke-width:4; stroke-opacity:1; fill:none" points="
  1160.77,1251.03 1160.77,1445.72 1188.97,1445.72 1188.97,1251.03 1160.77,1251.03 
  "/>
<path clip-path="url(#clip562)" d="
M1188.97 1240.96 L1188.97 1445.72 L1217.18 1445.72 L1217.18 1240.96 L1188.97 1240.96 L1188.97 1240.96  Z
  " fill="#009af9" fill-rule="evenodd" fill-opacity="1"/>
<polyline clip-path="url(#clip562)" style="stroke:#000000; stroke-width:4; stroke-opacity:1; fill:none" points="
  1188.97,1240.96 1188.97,1445.72 1217.18,1445.72 1217.18,1240.96 1188.97,1240.96 
  "/>
<path clip-path="url(#clip562)" d="
M1217.18 1254.39 L1217.18 1445.72 L1245.38 1445.72 L1245.38 1254.39 L1217.18 1254.39 L1217.18 1254.39  Z
  " fill="#009af9" fill-rule="evenodd" fill-opacity="1"/>
<polyline clip-path="url(#clip562)" style="stroke:#000000; stroke-width:4; stroke-opacity:1; fill:none" points="
  1217.18,1254.39 1217.18,1445.72 1245.38,1445.72 1245.38,1254.39 1217.18,1254.39 
  "/>
<path clip-path="url(#clip562)" d="
M1245.38 1244.32 L1245.38 1445.72 L1273.58 1445.72 L1273.58 1244.32 L1245.38 1244.32 L1245.38 1244.32  Z
  " fill="#009af9" fill-rule="evenodd" fill-opacity="1"/>
<polyline clip-path="url(#clip562)" style="stroke:#000000; stroke-width:4; stroke-opacity:1; fill:none" points="
  1245.38,1244.32 1245.38,1445.72 1273.58,1445.72 1273.58,1244.32 1245.38,1244.32 
  "/>
<path clip-path="url(#clip562)" d="
M1273.58 1130.2 L1273.58 1445.72 L1301.79 1445.72 L1301.79 1130.2 L1273.58 1130.2 L1273.58 1130.2  Z
  " fill="#009af9" fill-rule="evenodd" fill-opacity="1"/>
<polyline clip-path="url(#clip562)" style="stroke:#000000; stroke-width:4; stroke-opacity:1; fill:none" points="
  1273.58,1130.2 1273.58,1445.72 1301.79,1445.72 1301.79,1130.2 1273.58,1130.2 
  "/>
<path clip-path="url(#clip562)" d="
M1301.79 797.894 L1301.79 1445.72 L1329.99 1445.72 L1329.99 797.894 L1301.79 797.894 L1301.79 797.894  Z
  " fill="#009af9" fill-rule="evenodd" fill-opacity="1"/>
<polyline clip-path="url(#clip562)" style="stroke:#000000; stroke-width:4; stroke-opacity:1; fill:none" points="
  1301.79,797.894 1301.79,1445.72 1329.99,1445.72 1329.99,797.894 1301.79,797.894 
  "/>
<path clip-path="url(#clip562)" d="
M1329.99 87.9763 L1329.99 1445.72 L1358.19 1445.72 L1358.19 87.9763 L1329.99 87.9763 L1329.99 87.9763  Z
  " fill="#009af9" fill-rule="evenodd" fill-opacity="1"/>
<polyline clip-path="url(#clip562)" style="stroke:#000000; stroke-width:4; stroke-opacity:1; fill:none" points="
  1329.99,87.9763 1329.99,1445.72 1358.19,1445.72 1358.19,87.9763 1329.99,87.9763 
  "/>
<path clip-path="url(#clip562)" d="
M1358.19 143.36 L1358.19 1445.72 L1386.39 1445.72 L1386.39 143.36 L1358.19 143.36 L1358.19 143.36  Z
  " fill="#009af9" fill-rule="evenodd" fill-opacity="1"/>
<polyline clip-path="url(#clip562)" style="stroke:#000000; stroke-width:4; stroke-opacity:1; fill:none" points="
  1358.19,143.36 1358.19,1445.72 1386.39,1445.72 1386.39,143.36 1358.19,143.36 
  "/>
<path clip-path="url(#clip562)" d="
M1386.39 776.077 L1386.39 1445.72 L1414.6 1445.72 L1414.6 776.077 L1386.39 776.077 L1386.39 776.077  Z
  " fill="#009af9" fill-rule="evenodd" fill-opacity="1"/>
<polyline clip-path="url(#clip562)" style="stroke:#000000; stroke-width:4; stroke-opacity:1; fill:none" points="
  1386.39,776.077 1386.39,1445.72 1414.6,1445.72 1414.6,776.077 1386.39,776.077 
  "/>
<path clip-path="url(#clip562)" d="
M1414.6 1210.75 L1414.6 1445.72 L1442.8 1445.72 L1442.8 1210.75 L1414.6 1210.75 L1414.6 1210.75  Z
  " fill="#009af9" fill-rule="evenodd" fill-opacity="1"/>
<polyline clip-path="url(#clip562)" style="stroke:#000000; stroke-width:4; stroke-opacity:1; fill:none" points="
  1414.6,1210.75 1414.6,1445.72 1442.8,1445.72 1442.8,1210.75 1414.6,1210.75 
  "/>
<path clip-path="url(#clip562)" d="
M1442.8 1324.88 L1442.8 1445.72 L1471 1445.72 L1471 1324.88 L1442.8 1324.88 L1442.8 1324.88  Z
  " fill="#009af9" fill-rule="evenodd" fill-opacity="1"/>
<polyline clip-path="url(#clip562)" style="stroke:#000000; stroke-width:4; stroke-opacity:1; fill:none" points="
  1442.8,1324.88 1442.8,1445.72 1471,1445.72 1471,1324.88 1442.8,1324.88 
  "/>
<path clip-path="url(#clip562)" d="
M1471 1350.05 L1471 1445.72 L1499.21 1445.72 L1499.21 1350.05 L1471 1350.05 L1471 1350.05  Z
  " fill="#009af9" fill-rule="evenodd" fill-opacity="1"/>
<polyline clip-path="url(#clip562)" style="stroke:#000000; stroke-width:4; stroke-opacity:1; fill:none" points="
  1471,1350.05 1471,1445.72 1499.21,1445.72 1499.21,1350.05 1471,1350.05 
  "/>
<path clip-path="url(#clip562)" d="
M1499.21 1339.98 L1499.21 1445.72 L1527.41 1445.72 L1527.41 1339.98 L1499.21 1339.98 L1499.21 1339.98  Z
  " fill="#009af9" fill-rule="evenodd" fill-opacity="1"/>
<polyline clip-path="url(#clip562)" style="stroke:#000000; stroke-width:4; stroke-opacity:1; fill:none" points="
  1499.21,1339.98 1499.21,1445.72 1527.41,1445.72 1527.41,1339.98 1499.21,1339.98 
  "/>
<path clip-path="url(#clip562)" d="
M1527.41 1338.3 L1527.41 1445.72 L1555.61 1445.72 L1555.61 1338.3 L1527.41 1338.3 L1527.41 1338.3  Z
  " fill="#009af9" fill-rule="evenodd" fill-opacity="1"/>
<polyline clip-path="url(#clip562)" style="stroke:#000000; stroke-width:4; stroke-opacity:1; fill:none" points="
  1527.41,1338.3 1527.41,1445.72 1555.61,1445.72 1555.61,1338.3 1527.41,1338.3 
  "/>
<path clip-path="url(#clip562)" d="
M1555.61 1358.44 L1555.61 1445.72 L1583.82 1445.72 L1583.82 1358.44 L1555.61 1358.44 L1555.61 1358.44  Z
  " fill="#009af9" fill-rule="evenodd" fill-opacity="1"/>
<polyline clip-path="url(#clip562)" style="stroke:#000000; stroke-width:4; stroke-opacity:1; fill:none" points="
  1555.61,1358.44 1555.61,1445.72 1583.82,1445.72 1583.82,1358.44 1555.61,1358.44 
  "/>
<path clip-path="url(#clip562)" d="
M1583.82 1355.09 L1583.82 1445.72 L1612.02 1445.72 L1612.02 1355.09 L1583.82 1355.09 L1583.82 1355.09  Z
  " fill="#009af9" fill-rule="evenodd" fill-opacity="1"/>
<polyline clip-path="url(#clip562)" style="stroke:#000000; stroke-width:4; stroke-opacity:1; fill:none" points="
  1583.82,1355.09 1583.82,1445.72 1612.02,1445.72 1612.02,1355.09 1583.82,1355.09 
  "/>
<path clip-path="url(#clip562)" d="
M1612.02 1366.84 L1612.02 1445.72 L1640.22 1445.72 L1640.22 1366.84 L1612.02 1366.84 L1612.02 1366.84  Z
  " fill="#009af9" fill-rule="evenodd" fill-opacity="1"/>
<polyline clip-path="url(#clip562)" style="stroke:#000000; stroke-width:4; stroke-opacity:1; fill:none" points="
  1612.02,1366.84 1612.02,1445.72 1640.22,1445.72 1640.22,1366.84 1612.02,1366.84 
  "/>
<path clip-path="url(#clip562)" d="
M1640.22 1385.3 L1640.22 1445.72 L1668.43 1445.72 L1668.43 1385.3 L1640.22 1385.3 L1640.22 1385.3  Z
  " fill="#009af9" fill-rule="evenodd" fill-opacity="1"/>
<polyline clip-path="url(#clip562)" style="stroke:#000000; stroke-width:4; stroke-opacity:1; fill:none" points="
  1640.22,1385.3 1640.22,1445.72 1668.43,1445.72 1668.43,1385.3 1640.22,1385.3 
  "/>
<path clip-path="url(#clip562)" d="
M1668.43 1412.15 L1668.43 1445.72 L1696.63 1445.72 L1696.63 1412.15 L1668.43 1412.15 L1668.43 1412.15  Z
  " fill="#009af9" fill-rule="evenodd" fill-opacity="1"/>
<polyline clip-path="url(#clip562)" style="stroke:#000000; stroke-width:4; stroke-opacity:1; fill:none" points="
  1668.43,1412.15 1668.43,1445.72 1696.63,1445.72 1696.63,1412.15 1668.43,1412.15 
  "/>
<path clip-path="url(#clip562)" d="
M1696.63 1402.08 L1696.63 1445.72 L1724.83 1445.72 L1724.83 1402.08 L1696.63 1402.08 L1696.63 1402.08  Z
  " fill="#009af9" fill-rule="evenodd" fill-opacity="1"/>
<polyline clip-path="url(#clip562)" style="stroke:#000000; stroke-width:4; stroke-opacity:1; fill:none" points="
  1696.63,1402.08 1696.63,1445.72 1724.83,1445.72 1724.83,1402.08 1696.63,1402.08 
  "/>
<path clip-path="url(#clip562)" d="
M1724.83 1410.47 L1724.83 1445.72 L1753.04 1445.72 L1753.04 1410.47 L1724.83 1410.47 L1724.83 1410.47  Z
  " fill="#009af9" fill-rule="evenodd" fill-opacity="1"/>
<polyline clip-path="url(#clip562)" style="stroke:#000000; stroke-width:4; stroke-opacity:1; fill:none" points="
  1724.83,1410.47 1724.83,1445.72 1753.04,1445.72 1753.04,1410.47 1724.83,1410.47 
  "/>
<path clip-path="url(#clip562)" d="
M1753.04 1420.54 L1753.04 1445.72 L1781.24 1445.72 L1781.24 1420.54 L1753.04 1420.54 L1753.04 1420.54  Z
  " fill="#009af9" fill-rule="evenodd" fill-opacity="1"/>
<polyline clip-path="url(#clip562)" style="stroke:#000000; stroke-width:4; stroke-opacity:1; fill:none" points="
  1753.04,1420.54 1753.04,1445.72 1781.24,1445.72 1781.24,1420.54 1753.04,1420.54 
  "/>
<path clip-path="url(#clip562)" d="
M1781.24 1413.83 L1781.24 1445.72 L1809.44 1445.72 L1809.44 1413.83 L1781.24 1413.83 L1781.24 1413.83  Z
  " fill="#009af9" fill-rule="evenodd" fill-opacity="1"/>
<polyline clip-path="url(#clip562)" style="stroke:#000000; stroke-width:4; stroke-opacity:1; fill:none" points="
  1781.24,1413.83 1781.24,1445.72 1809.44,1445.72 1809.44,1413.83 1781.24,1413.83 
  "/>
<path clip-path="url(#clip562)" d="
M1809.44 1432.29 L1809.44 1445.72 L1837.65 1445.72 L1837.65 1432.29 L1809.44 1432.29 L1809.44 1432.29  Z
  " fill="#009af9" fill-rule="evenodd" fill-opacity="1"/>
<polyline clip-path="url(#clip562)" style="stroke:#000000; stroke-width:4; stroke-opacity:1; fill:none" points="
  1809.44,1432.29 1809.44,1445.72 1837.65,1445.72 1837.65,1432.29 1809.44,1432.29 
  "/>
<path clip-path="url(#clip562)" d="
M1837.65 1427.25 L1837.65 1445.72 L1865.85 1445.72 L1865.85 1427.25 L1837.65 1427.25 L1837.65 1427.25  Z
  " fill="#009af9" fill-rule="evenodd" fill-opacity="1"/>
<polyline clip-path="url(#clip562)" style="stroke:#000000; stroke-width:4; stroke-opacity:1; fill:none" points="
  1837.65,1427.25 1837.65,1445.72 1865.85,1445.72 1865.85,1427.25 1837.65,1427.25 
  "/>
<path clip-path="url(#clip562)" d="
M1865.85 1435.65 L1865.85 1445.72 L1894.05 1445.72 L1894.05 1435.65 L1865.85 1435.65 L1865.85 1435.65  Z
  " fill="#009af9" fill-rule="evenodd" fill-opacity="1"/>
<polyline clip-path="url(#clip562)" style="stroke:#000000; stroke-width:4; stroke-opacity:1; fill:none" points="
  1865.85,1435.65 1865.85,1445.72 1894.05,1445.72 1894.05,1435.65 1865.85,1435.65 
  "/>
<path clip-path="url(#clip562)" d="
M1894.05 1435.65 L1894.05 1445.72 L1922.26 1445.72 L1922.26 1435.65 L1894.05 1435.65 L1894.05 1435.65  Z
  " fill="#009af9" fill-rule="evenodd" fill-opacity="1"/>
<polyline clip-path="url(#clip562)" style="stroke:#000000; stroke-width:4; stroke-opacity:1; fill:none" points="
  1894.05,1435.65 1894.05,1445.72 1922.26,1445.72 1922.26,1435.65 1894.05,1435.65 
  "/>
<path clip-path="url(#clip562)" d="
M1922.26 1442.36 L1922.26 1445.72 L1950.46 1445.72 L1950.46 1442.36 L1922.26 1442.36 L1922.26 1442.36  Z
  " fill="#009af9" fill-rule="evenodd" fill-opacity="1"/>
<polyline clip-path="url(#clip562)" style="stroke:#000000; stroke-width:4; stroke-opacity:1; fill:none" points="
  1922.26,1442.36 1922.26,1445.72 1950.46,1445.72 1950.46,1442.36 1922.26,1442.36 
  "/>
<path clip-path="url(#clip562)" d="
M1950.46 1437.32 L1950.46 1445.72 L1978.66 1445.72 L1978.66 1437.32 L1950.46 1437.32 L1950.46 1437.32  Z
  " fill="#009af9" fill-rule="evenodd" fill-opacity="1"/>
<polyline clip-path="url(#clip562)" style="stroke:#000000; stroke-width:4; stroke-opacity:1; fill:none" points="
  1950.46,1437.32 1950.46,1445.72 1978.66,1445.72 1978.66,1437.32 1950.46,1437.32 
  "/>
<path clip-path="url(#clip562)" d="
M1978.66 1440.68 L1978.66 1445.72 L2006.87 1445.72 L2006.87 1440.68 L1978.66 1440.68 L1978.66 1440.68  Z
  " fill="#009af9" fill-rule="evenodd" fill-opacity="1"/>
<polyline clip-path="url(#clip562)" style="stroke:#000000; stroke-width:4; stroke-opacity:1; fill:none" points="
  1978.66,1440.68 1978.66,1445.72 2006.87,1445.72 2006.87,1440.68 1978.66,1440.68 
  "/>
<path clip-path="url(#clip562)" d="
M2006.87 1445.72 L2006.87 1445.72 L2035.07 1445.72 L2035.07 1445.72 L2006.87 1445.72 L2006.87 1445.72  Z
  " fill="#009af9" fill-rule="evenodd" fill-opacity="1"/>
<polyline clip-path="url(#clip562)" style="stroke:#000000; stroke-width:4; stroke-opacity:1; fill:none" points="
  2006.87,1445.72 2006.87,1445.72 2035.07,1445.72 2006.87,1445.72 
  "/>
<path clip-path="url(#clip562)" d="
M2035.07 1442.36 L2035.07 1445.72 L2063.27 1445.72 L2063.27 1442.36 L2035.07 1442.36 L2035.07 1442.36  Z
  " fill="#009af9" fill-rule="evenodd" fill-opacity="1"/>
<polyline clip-path="url(#clip562)" style="stroke:#000000; stroke-width:4; stroke-opacity:1; fill:none" points="
  2035.07,1442.36 2035.07,1445.72 2063.27,1445.72 2063.27,1442.36 2035.07,1442.36 
  "/>
<path clip-path="url(#clip562)" d="
M2063.27 1445.72 L2063.27 1445.72 L2091.48 1445.72 L2091.48 1445.72 L2063.27 1445.72 L2063.27 1445.72  Z
  " fill="#009af9" fill-rule="evenodd" fill-opacity="1"/>
<polyline clip-path="url(#clip562)" style="stroke:#000000; stroke-width:4; stroke-opacity:1; fill:none" points="
  2063.27,1445.72 2063.27,1445.72 2091.48,1445.72 2063.27,1445.72 
  "/>
<path clip-path="url(#clip562)" d="
M2091.48 1445.72 L2091.48 1445.72 L2119.68 1445.72 L2119.68 1445.72 L2091.48 1445.72 L2091.48 1445.72  Z
  " fill="#009af9" fill-rule="evenodd" fill-opacity="1"/>
<polyline clip-path="url(#clip562)" style="stroke:#000000; stroke-width:4; stroke-opacity:1; fill:none" points="
  2091.48,1445.72 2091.48,1445.72 2119.68,1445.72 2091.48,1445.72 
  "/>
<path clip-path="url(#clip562)" d="
M2119.68 1445.72 L2119.68 1445.72 L2147.88 1445.72 L2147.88 1445.72 L2119.68 1445.72 L2119.68 1445.72  Z
  " fill="#009af9" fill-rule="evenodd" fill-opacity="1"/>
<polyline clip-path="url(#clip562)" style="stroke:#000000; stroke-width:4; stroke-opacity:1; fill:none" points="
  2119.68,1445.72 2119.68,1445.72 2147.88,1445.72 2119.68,1445.72 
  "/>
<path clip-path="url(#clip562)" d="
M2147.88 1445.72 L2147.88 1445.72 L2176.09 1445.72 L2176.09 1445.72 L2147.88 1445.72 L2147.88 1445.72  Z
  " fill="#009af9" fill-rule="evenodd" fill-opacity="1"/>
<polyline clip-path="url(#clip562)" style="stroke:#000000; stroke-width:4; stroke-opacity:1; fill:none" points="
  2147.88,1445.72 2147.88,1445.72 2176.09,1445.72 2147.88,1445.72 
  "/>
<path clip-path="url(#clip562)" d="
M2176.09 1444.04 L2176.09 1445.72 L2204.29 1445.72 L2204.29 1444.04 L2176.09 1444.04 L2176.09 1444.04  Z
  " fill="#009af9" fill-rule="evenodd" fill-opacity="1"/>
<polyline clip-path="url(#clip562)" style="stroke:#000000; stroke-width:4; stroke-opacity:1; fill:none" points="
  2176.09,1444.04 2176.09,1445.72 2204.29,1445.72 2204.29,1444.04 2176.09,1444.04 
  "/>
<path clip-path="url(#clip562)" d="
M2204.29 1444.04 L2204.29 1445.72 L2232.49 1445.72 L2232.49 1444.04 L2204.29 1444.04 L2204.29 1444.04  Z
  " fill="#009af9" fill-rule="evenodd" fill-opacity="1"/>
<polyline clip-path="url(#clip562)" style="stroke:#000000; stroke-width:4; stroke-opacity:1; fill:none" points="
  2204.29,1444.04 2204.29,1445.72 2232.49,1445.72 2232.49,1444.04 2204.29,1444.04 
  "/>
<path clip-path="url(#clip560)" d="
M1989.74 251.724 L2280.76 251.724 L2280.76 130.764 L1989.74 130.764  Z
  " fill="#ffffff" fill-rule="evenodd" fill-opacity="1"/>
<polyline clip-path="url(#clip560)" style="stroke:#000000; stroke-width:4; stroke-opacity:1; fill:none" points="
  1989.74,251.724 2280.76,251.724 2280.76,130.764 1989.74,130.764 1989.74,251.724 
  "/>
<path clip-path="url(#clip560)" d="
M2013.74 215.436 L2157.74 215.436 L2157.74 167.052 L2013.74 167.052 L2013.74 215.436  Z
  " fill="#009af9" fill-rule="evenodd" fill-opacity="1"/>
<polyline clip-path="url(#clip560)" style="stroke:#000000; stroke-width:4; stroke-opacity:1; fill:none" points="
  2013.74,215.436 2157.74,215.436 2157.74,167.052 2013.74,167.052 2013.74,215.436 
  "/>
<path clip-path="url(#clip560)" d="M 0 0 M2195.58 210.931 Q2193.77 215.561 2192.06 216.973 Q2190.35 218.385 2187.48 218.385 L2184.08 218.385 L2184.08 214.82 L2186.58 214.82 Q2188.33 214.82 2189.31 213.987 Q2190.28 213.154 2191.46 210.052 L2192.22 208.107 L2181.74 182.598 L2186.25 182.598 L2194.35 202.876 L2202.46 182.598 L2206.97 182.598 L2195.58 210.931 Z" fill="#000000" fill-rule="evenodd" fill-opacity="1" /><path clip-path="url(#clip560)" d="M 0 0 M2212.85 204.589 L2220.49 204.589 L2220.49 178.223 L2212.18 179.89 L2212.18 175.631 L2220.44 173.964 L2225.12 173.964 L2225.12 204.589 L2232.76 204.589 L2232.76 208.524 L2212.85 208.524 L2212.85 204.589 Z" fill="#000000" fill-rule="evenodd" fill-opacity="1" /></svg>
