<?xml version="1.0" encoding="utf-8"?>
<svg xmlns="http://www.w3.org/2000/svg" xmlns:xlink="http://www.w3.org/1999/xlink" width="600" height="400" viewBox="0 0 2400 1600">
<defs>
  <clipPath id="clip490">
    <rect x="0" y="0" width="2400" height="1600"/>
  </clipPath>
</defs>
<path clip-path="url(#clip490)" d="
M0 1600 L2400 1600 L2400 0 L0 0  Z
  " fill="#ffffff" fill-rule="evenodd" fill-opacity="1"/>
<defs>
  <clipPath id="clip491">
    <rect x="480" y="0" width="1681" height="1600"/>
  </clipPath>
</defs>
<path clip-path="url(#clip490)" d="
M166.205 1486.45 L2352.76 1486.45 L2352.76 47.2441 L166.205 47.2441  Z
  " fill="#ffffff" fill-rule="evenodd" fill-opacity="1"/>
<defs>
  <clipPath id="clip492">
    <rect x="166" y="47" width="2188" height="1440"/>
  </clipPath>
</defs>
<polyline clip-path="url(#clip492)" style="stroke:#000000; stroke-width:2; stroke-opacity:0.1; fill:none" points="
  560.557,1486.45 560.557,47.2441 
  "/>
<polyline clip-path="url(#clip492)" style="stroke:#000000; stroke-width:2; stroke-opacity:0.1; fill:none" points="
  971.688,1486.45 971.688,47.2441 
  "/>
<polyline clip-path="url(#clip492)" style="stroke:#000000; stroke-width:2; stroke-opacity:0.1; fill:none" points="
  1382.82,1486.45 1382.82,47.2441 
  "/>
<polyline clip-path="url(#clip492)" style="stroke:#000000; stroke-width:2; stroke-opacity:0.1; fill:none" points="
  1793.95,1486.45 1793.95,47.2441 
  "/>
<polyline clip-path="url(#clip492)" style="stroke:#000000; stroke-width:2; stroke-opacity:0.1; fill:none" points="
  2205.08,1486.45 2205.08,47.2441 
  "/>
<polyline clip-path="url(#clip492)" style="stroke:#000000; stroke-width:2; stroke-opacity:0.1; fill:none" points="
  166.205,1445.72 2352.76,1445.72 
  "/>
<polyline clip-path="url(#clip492)" style="stroke:#000000; stroke-width:2; stroke-opacity:0.1; fill:none" points="
  166.205,1091.68 2352.76,1091.68 
  "/>
<polyline clip-path="url(#clip492)" style="stroke:#000000; stroke-width:2; stroke-opacity:0.1; fill:none" points="
  166.205,737.638 2352.76,737.638 
  "/>
<polyline clip-path="url(#clip492)" style="stroke:#000000; stroke-width:2; stroke-opacity:0.1; fill:none" points="
  166.205,383.599 2352.76,383.599 
  "/>
<polyline clip-path="url(#clip490)" style="stroke:#000000; stroke-width:4; stroke-opacity:1; fill:none" points="
  166.205,1486.45 2352.76,1486.45 
  "/>
<polyline clip-path="url(#clip490)" style="stroke:#000000; stroke-width:4; stroke-opacity:1; fill:none" points="
  166.205,1486.45 166.205,47.2441 
  "/>
<polyline clip-path="url(#clip490)" style="stroke:#000000; stroke-width:4; stroke-opacity:1; fill:none" points="
  560.557,1486.45 560.557,1469.18 
  "/>
<polyline clip-path="url(#clip490)" style="stroke:#000000; stroke-width:4; stroke-opacity:1; fill:none" points="
  971.688,1486.45 971.688,1469.18 
  "/>
<polyline clip-path="url(#clip490)" style="stroke:#000000; stroke-width:4; stroke-opacity:1; fill:none" points="
  1382.82,1486.45 1382.82,1469.18 
  "/>
<polyline clip-path="url(#clip490)" style="stroke:#000000; stroke-width:4; stroke-opacity:1; fill:none" points="
  1793.95,1486.45 1793.95,1469.18 
  "/>
<polyline clip-path="url(#clip490)" style="stroke:#000000; stroke-width:4; stroke-opacity:1; fill:none" points="
  2205.08,1486.45 2205.08,1469.18 
  "/>
<polyline clip-path="url(#clip490)" style="stroke:#000000; stroke-width:4; stroke-opacity:1; fill:none" points="
  166.205,1445.72 192.443,1445.72 
  "/>
<polyline clip-path="url(#clip490)" style="stroke:#000000; stroke-width:4; stroke-opacity:1; fill:none" points="
  166.205,1091.68 192.443,1091.68 
  "/>
<polyline clip-path="url(#clip490)" style="stroke:#000000; stroke-width:4; stroke-opacity:1; fill:none" points="
  166.205,737.638 192.443,737.638 
  "/>
<polyline clip-path="url(#clip490)" style="stroke:#000000; stroke-width:4; stroke-opacity:1; fill:none" points="
  166.205,383.599 192.443,383.599 
  "/>
<path clip-path="url(#clip490)" d="M 0 0 M540.73 1525.04 L553.207 1525.04 L553.207 1528.83 L540.73 1528.83 L540.73 1525.04 Z" fill="#000000" fill-rule="evenodd" fill-opacity="1" /><path clip-path="url(#clip490)" d="M 0 0 M568.855 1520.78 Q565.707 1520.78 563.855 1522.93 Q562.026 1525.08 562.026 1528.83 Q562.026 1532.56 563.855 1534.73 Q565.707 1536.89 568.855 1536.89 Q572.003 1536.89 573.832 1534.73 Q575.684 1532.56 575.684 1528.83 Q575.684 1525.08 573.832 1522.93 Q572.003 1520.78 568.855 1520.78 M578.138 1506.12 L578.138 1510.38 Q576.378 1509.55 574.573 1509.11 Q572.79 1508.67 571.031 1508.67 Q566.401 1508.67 563.948 1511.8 Q561.517 1514.92 561.17 1521.24 Q562.536 1519.23 564.596 1518.16 Q566.656 1517.07 569.133 1517.07 Q574.341 1517.07 577.35 1520.24 Q580.383 1523.39 580.383 1528.83 Q580.383 1534.16 577.235 1537.37 Q574.087 1540.59 568.855 1540.59 Q562.86 1540.59 559.689 1536.01 Q556.517 1531.4 556.517 1522.67 Q556.517 1514.48 560.406 1509.62 Q564.295 1504.73 570.846 1504.73 Q572.605 1504.73 574.388 1505.08 Q576.193 1505.43 578.138 1506.12 Z" fill="#000000" fill-rule="evenodd" fill-opacity="1" /><path clip-path="url(#clip490)" d="M 0 0 M952.267 1525.04 L964.744 1525.04 L964.744 1528.83 L952.267 1528.83 L952.267 1525.04 Z" fill="#000000" fill-rule="evenodd" fill-opacity="1" /><path clip-path="url(#clip490)" d="M 0 0 M983.98 1521.29 Q987.336 1522 989.211 1524.27 Q991.109 1526.54 991.109 1529.87 Q991.109 1534.99 987.591 1537.79 Q984.072 1540.59 977.591 1540.59 Q975.415 1540.59 973.1 1540.15 Q970.809 1539.73 968.355 1538.88 L968.355 1534.36 Q970.299 1535.5 972.614 1536.08 Q974.929 1536.66 977.452 1536.66 Q981.85 1536.66 984.142 1534.92 Q986.457 1533.18 986.457 1529.87 Q986.457 1526.82 984.304 1525.11 Q982.174 1523.37 978.355 1523.37 L974.327 1523.37 L974.327 1519.53 L978.54 1519.53 Q981.989 1519.53 983.818 1518.16 Q985.646 1516.77 985.646 1514.18 Q985.646 1511.52 983.748 1510.11 Q981.873 1508.67 978.355 1508.67 Q976.434 1508.67 974.234 1509.09 Q972.035 1509.5 969.397 1510.38 L969.397 1506.22 Q972.059 1505.48 974.373 1505.11 Q976.711 1504.73 978.771 1504.73 Q984.096 1504.73 987.197 1507.17 Q990.299 1509.57 990.299 1513.69 Q990.299 1516.56 988.656 1518.55 Q987.012 1520.52 983.98 1521.29 Z" fill="#000000" fill-rule="evenodd" fill-opacity="1" /><path clip-path="url(#clip490)" d="M 0 0 M1382.82 1508.44 Q1379.21 1508.44 1377.38 1512 Q1375.57 1515.55 1375.57 1522.67 Q1375.57 1529.78 1377.38 1533.35 Q1379.21 1536.89 1382.82 1536.89 Q1386.45 1536.89 1388.26 1533.35 Q1390.09 1529.78 1390.09 1522.67 Q1390.09 1515.55 1388.26 1512 Q1386.45 1508.44 1382.82 1508.44 M1382.82 1504.73 Q1388.63 1504.73 1391.69 1509.34 Q1394.76 1513.92 1394.76 1522.67 Q1394.76 1531.4 1391.69 1536.01 Q1388.63 1540.59 1382.82 1540.59 Q1377.01 1540.59 1373.93 1536.01 Q1370.88 1531.4 1370.88 1522.67 Q1370.88 1513.92 1373.93 1509.34 Q1377.01 1504.73 1382.82 1504.73 Z" fill="#000000" fill-rule="evenodd" fill-opacity="1" /><path clip-path="url(#clip490)" d="M 0 0 M1798.2 1521.29 Q1801.56 1522 1803.43 1524.27 Q1805.33 1526.54 1805.33 1529.87 Q1805.33 1534.99 1801.81 1537.79 Q1798.29 1540.59 1791.81 1540.59 Q1789.63 1540.59 1787.32 1540.15 Q1785.03 1539.73 1782.57 1538.88 L1782.57 1534.36 Q1784.52 1535.5 1786.83 1536.08 Q1789.15 1536.66 1791.67 1536.66 Q1796.07 1536.66 1798.36 1534.92 Q1800.68 1533.18 1800.68 1529.87 Q1800.68 1526.82 1798.52 1525.11 Q1796.39 1523.37 1792.57 1523.37 L1788.55 1523.37 L1788.55 1519.53 L1792.76 1519.53 Q1796.21 1519.53 1798.04 1518.16 Q1799.87 1516.77 1799.87 1514.18 Q1799.87 1511.52 1797.97 1510.11 Q1796.09 1508.67 1792.57 1508.67 Q1790.65 1508.67 1788.45 1509.09 Q1786.25 1509.5 1783.62 1510.38 L1783.62 1506.22 Q1786.28 1505.48 1788.59 1505.11 Q1790.93 1504.73 1792.99 1504.73 Q1798.31 1504.73 1801.42 1507.17 Q1804.52 1509.57 1804.52 1513.69 Q1804.52 1516.56 1802.87 1518.55 Q1801.23 1520.52 1798.2 1521.29 Z" fill="#000000" fill-rule="evenodd" fill-opacity="1" /><path clip-path="url(#clip490)" d="M 0 0 M2205.49 1520.78 Q2202.34 1520.78 2200.49 1522.93 Q2198.66 1525.08 2198.66 1528.83 Q2198.66 1532.56 2200.49 1534.73 Q2202.34 1536.89 2205.49 1536.89 Q2208.64 1536.89 2210.46 1534.73 Q2212.32 1532.56 2212.32 1528.83 Q2212.32 1525.08 2210.46 1522.93 Q2208.64 1520.78 2205.49 1520.78 M2214.77 1506.12 L2214.77 1510.38 Q2213.01 1509.55 2211.21 1509.11 Q2209.42 1508.67 2207.66 1508.67 Q2203.03 1508.67 2200.58 1511.8 Q2198.15 1514.92 2197.8 1521.24 Q2199.17 1519.23 2201.23 1518.16 Q2203.29 1517.07 2205.77 1517.07 Q2210.97 1517.07 2213.98 1520.24 Q2217.02 1523.39 2217.02 1528.83 Q2217.02 1534.16 2213.87 1537.37 Q2210.72 1540.59 2205.49 1540.59 Q2199.49 1540.59 2196.32 1536.01 Q2193.15 1531.4 2193.15 1522.67 Q2193.15 1514.48 2197.04 1509.62 Q2200.93 1504.73 2207.48 1504.73 Q2209.24 1504.73 2211.02 1505.08 Q2212.83 1505.43 2214.77 1506.12 Z" fill="#000000" fill-rule="evenodd" fill-opacity="1" /><path clip-path="url(#clip490)" d="M 0 0 M130.26 1431.51 Q126.649 1431.51 124.82 1435.08 Q123.015 1438.62 123.015 1445.75 Q123.015 1452.86 124.82 1456.42 Q126.649 1459.96 130.26 1459.96 Q133.895 1459.96 135.7 1456.42 Q137.529 1452.86 137.529 1445.75 Q137.529 1438.62 135.7 1435.08 Q133.895 1431.51 130.26 1431.51 M130.26 1427.81 Q136.07 1427.81 139.126 1432.42 Q142.205 1437 142.205 1445.75 Q142.205 1454.48 139.126 1459.08 Q136.07 1463.67 130.26 1463.67 Q124.45 1463.67 121.371 1459.08 Q118.316 1454.48 118.316 1445.75 Q118.316 1437 121.371 1432.42 Q124.45 1427.81 130.26 1427.81 Z" fill="#000000" fill-rule="evenodd" fill-opacity="1" /><path clip-path="url(#clip490)" d="M 0 0 M71.8578 1105.02 L88.1772 1105.02 L88.1772 1108.96 L66.2328 1108.96 L66.2328 1105.02 Q68.8949 1102.27 73.4782 1097.64 Q78.0846 1092.98 79.2652 1091.64 Q81.5105 1089.12 82.3902 1087.38 Q83.2929 1085.62 83.2929 1083.93 Q83.2929 1081.18 81.3485 1079.44 Q79.4272 1077.71 76.3254 1077.71 Q74.1263 1077.71 71.6726 1078.47 Q69.2421 1079.23 66.4643 1080.79 L66.4643 1076.06 Q69.2884 1074.93 71.7421 1074.35 Q74.1958 1073.77 76.2328 1073.77 Q81.6031 1073.77 84.7976 1076.46 Q87.992 1079.14 87.992 1083.63 Q87.992 1085.76 87.1818 1087.68 Q86.3948 1089.58 84.2883 1092.17 Q83.7096 1092.85 80.6078 1096.06 Q77.5059 1099.26 71.8578 1105.02 Z" fill="#000000" fill-rule="evenodd" fill-opacity="1" /><path clip-path="url(#clip490)" d="M 0 0 M103.247 1077.48 Q99.6354 1077.48 97.8068 1081.04 Q96.0012 1084.58 96.0012 1091.71 Q96.0012 1098.82 97.8068 1102.38 Q99.6354 1105.92 103.247 1105.92 Q106.881 1105.92 108.686 1102.38 Q110.515 1098.82 110.515 1091.71 Q110.515 1084.58 108.686 1081.04 Q106.881 1077.48 103.247 1077.48 M103.247 1073.77 Q109.057 1073.77 112.112 1078.38 Q115.191 1082.96 115.191 1091.71 Q115.191 1100.44 112.112 1105.04 Q109.057 1109.63 103.247 1109.63 Q97.4364 1109.63 94.3577 1105.04 Q91.3022 1100.44 91.3022 1091.71 Q91.3022 1082.96 94.3577 1078.38 Q97.4364 1073.77 103.247 1073.77 Z" fill="#000000" fill-rule="evenodd" fill-opacity="1" /><path clip-path="url(#clip490)" d="M 0 0 M130.26 1077.48 Q126.649 1077.48 124.82 1081.04 Q123.015 1084.58 123.015 1091.71 Q123.015 1098.82 124.82 1102.38 Q126.649 1105.92 130.26 1105.92 Q133.895 1105.92 135.7 1102.38 Q137.529 1098.82 137.529 1091.71 Q137.529 1084.58 135.7 1081.04 Q133.895 1077.48 130.26 1077.48 M130.26 1073.77 Q136.07 1073.77 139.126 1078.38 Q142.205 1082.96 142.205 1091.71 Q142.205 1100.44 139.126 1105.04 Q136.07 1109.63 130.26 1109.63 Q124.45 1109.63 121.371 1105.04 Q118.316 1100.44 118.316 1091.71 Q118.316 1082.96 121.371 1078.38 Q124.45 1073.77 130.26 1073.77 Z" fill="#000000" fill-rule="evenodd" fill-opacity="1" /><path clip-path="url(#clip490)" d="M 0 0 M78.5939 724.432 L66.7884 742.881 L78.5939 742.881 L78.5939 724.432 M77.367 720.358 L83.2466 720.358 L83.2466 742.881 L88.1772 742.881 L88.1772 746.77 L83.2466 746.77 L83.2466 754.918 L78.5939 754.918 L78.5939 746.77 L62.9921 746.77 L62.9921 742.256 L77.367 720.358 Z" fill="#000000" fill-rule="evenodd" fill-opacity="1" /><path clip-path="url(#clip490)" d="M 0 0 M103.247 723.436 Q99.6354 723.436 97.8068 727.001 Q96.0012 730.543 96.0012 737.672 Q96.0012 744.779 97.8068 748.344 Q99.6354 751.885 103.247 751.885 Q106.881 751.885 108.686 748.344 Q110.515 744.779 110.515 737.672 Q110.515 730.543 108.686 727.001 Q106.881 723.436 103.247 723.436 M103.247 719.733 Q109.057 719.733 112.112 724.339 Q115.191 728.923 115.191 737.672 Q115.191 746.399 112.112 751.006 Q109.057 755.589 103.247 755.589 Q97.4364 755.589 94.3577 751.006 Q91.3022 746.399 91.3022 737.672 Q91.3022 728.923 94.3577 724.339 Q97.4364 719.733 103.247 719.733 Z" fill="#000000" fill-rule="evenodd" fill-opacity="1" /><path clip-path="url(#clip490)" d="M 0 0 M130.26 723.436 Q126.649 723.436 124.82 727.001 Q123.015 730.543 123.015 737.672 Q123.015 744.779 124.82 748.344 Q126.649 751.885 130.26 751.885 Q133.895 751.885 135.7 748.344 Q137.529 744.779 137.529 737.672 Q137.529 730.543 135.7 727.001 Q133.895 723.436 130.26 723.436 M130.26 719.733 Q136.07 719.733 139.126 724.339 Q142.205 728.923 142.205 737.672 Q142.205 746.399 139.126 751.006 Q136.07 755.589 130.26 755.589 Q124.45 755.589 121.371 751.006 Q118.316 746.399 118.316 737.672 Q118.316 728.923 121.371 724.339 Q124.45 719.733 130.26 719.733 Z" fill="#000000" fill-rule="evenodd" fill-opacity="1" /><path clip-path="url(#clip490)" d="M 0 0 M76.6495 381.735 Q73.5013 381.735 71.6495 383.888 Q69.8208 386.041 69.8208 389.791 Q69.8208 393.518 71.6495 395.694 Q73.5013 397.846 76.6495 397.846 Q79.7976 397.846 81.6263 395.694 Q83.4781 393.518 83.4781 389.791 Q83.4781 386.041 81.6263 383.888 Q79.7976 381.735 76.6495 381.735 M85.9318 367.083 L85.9318 371.342 Q84.1726 370.509 82.367 370.069 Q80.5846 369.629 78.8254 369.629 Q74.1958 369.629 71.7421 372.754 Q69.3115 375.879 68.9643 382.198 Q70.33 380.184 72.3902 379.12 Q74.4504 378.032 76.9272 378.032 Q82.1355 378.032 85.1448 381.203 Q88.1772 384.351 88.1772 389.791 Q88.1772 395.115 85.029 398.333 Q81.8809 401.55 76.6495 401.55 Q70.6541 401.55 67.4828 396.967 Q64.3116 392.36 64.3116 383.634 Q64.3116 375.439 68.2004 370.578 Q72.0893 365.694 78.6402 365.694 Q80.3994 365.694 82.1818 366.041 Q83.9874 366.388 85.9318 367.083 Z" fill="#000000" fill-rule="evenodd" fill-opacity="1" /><path clip-path="url(#clip490)" d="M 0 0 M103.247 369.397 Q99.6354 369.397 97.8068 372.962 Q96.0012 376.504 96.0012 383.634 Q96.0012 390.74 97.8068 394.305 Q99.6354 397.846 103.247 397.846 Q106.881 397.846 108.686 394.305 Q110.515 390.74 110.515 383.634 Q110.515 376.504 108.686 372.962 Q106.881 369.397 103.247 369.397 M103.247 365.694 Q109.057 365.694 112.112 370.3 Q115.191 374.884 115.191 383.634 Q115.191 392.36 112.112 396.967 Q109.057 401.55 103.247 401.55 Q97.4364 401.55 94.3577 396.967 Q91.3022 392.36 91.3022 383.634 Q91.3022 374.884 94.3577 370.3 Q97.4364 365.694 103.247 365.694 Z" fill="#000000" fill-rule="evenodd" fill-opacity="1" /><path clip-path="url(#clip490)" d="M 0 0 M130.26 369.397 Q126.649 369.397 124.82 372.962 Q123.015 376.504 123.015 383.634 Q123.015 390.74 124.82 394.305 Q126.649 397.846 130.26 397.846 Q133.895 397.846 135.7 394.305 Q137.529 390.74 137.529 383.634 Q137.529 376.504 135.7 372.962 Q133.895 369.397 130.26 369.397 M130.26 365.694 Q136.07 365.694 139.126 370.3 Q142.205 374.884 142.205 383.634 Q142.205 392.36 139.126 396.967 Q136.07 401.55 130.26 401.55 Q124.45 401.55 121.371 396.967 Q118.316 392.36 118.316 383.634 Q118.316 374.884 121.371 370.3 Q124.45 365.694 130.26 365.694 Z" fill="#000000" fill-rule="evenodd" fill-opacity="1" /><path clip-path="url(#clip492)" d="
M286.469 1443.95 L286.469 1445.72 L313.878 1445.72 L313.878 1443.95 L286.469 1443.95 L286.469 1443.95  Z
  " fill="#009af9" fill-rule="evenodd" fill-opacity="1"/>
<polyline clip-path="url(#clip492)" style="stroke:#000000; stroke-width:4; stroke-opacity:1; fill:none" points="
  286.469,1443.95 286.469,1445.72 313.878,1445.72 313.878,1443.95 286.469,1443.95 
  "/>
<path clip-path="url(#clip492)" d="
M313.878 1445.72 L313.878 1445.72 L341.286 1445.72 L341.286 1445.72 L313.878 1445.72 L313.878 1445.72  Z
  " fill="#009af9" fill-rule="evenodd" fill-opacity="1"/>
<polyline clip-path="url(#clip492)" style="stroke:#000000; stroke-width:4; stroke-opacity:1; fill:none" points="
  313.878,1445.72 313.878,1445.72 341.286,1445.72 313.878,1445.72 
  "/>
<path clip-path="url(#clip492)" d="
M341.286 1445.72 L341.286 1445.72 L368.695 1445.72 L368.695 1445.72 L341.286 1445.72 L341.286 1445.72  Z
  " fill="#009af9" fill-rule="evenodd" fill-opacity="1"/>
<polyline clip-path="url(#clip492)" style="stroke:#000000; stroke-width:4; stroke-opacity:1; fill:none" points="
  341.286,1445.72 341.286,1445.72 368.695,1445.72 341.286,1445.72 
  "/>
<path clip-path="url(#clip492)" d="
M368.695 1445.72 L368.695 1445.72 L396.104 1445.72 L396.104 1445.72 L368.695 1445.72 L368.695 1445.72  Z
  " fill="#009af9" fill-rule="evenodd" fill-opacity="1"/>
<polyline clip-path="url(#clip492)" style="stroke:#000000; stroke-width:4; stroke-opacity:1; fill:none" points="
  368.695,1445.72 368.695,1445.72 396.104,1445.72 368.695,1445.72 
  "/>
<path clip-path="url(#clip492)" d="
M396.104 1443.95 L396.104 1445.72 L423.513 1445.72 L423.513 1443.95 L396.104 1443.95 L396.104 1443.95  Z
  " fill="#009af9" fill-rule="evenodd" fill-opacity="1"/>
<polyline clip-path="url(#clip492)" style="stroke:#000000; stroke-width:4; stroke-opacity:1; fill:none" points="
  396.104,1443.95 396.104,1445.72 423.513,1445.72 423.513,1443.95 396.104,1443.95 
  "/>
<path clip-path="url(#clip492)" d="
M423.513 1445.72 L423.513 1445.72 L450.922 1445.72 L450.922 1445.72 L423.513 1445.72 L423.513 1445.72  Z
  " fill="#009af9" fill-rule="evenodd" fill-opacity="1"/>
<polyline clip-path="url(#clip492)" style="stroke:#000000; stroke-width:4; stroke-opacity:1; fill:none" points="
  423.513,1445.72 423.513,1445.72 450.922,1445.72 423.513,1445.72 
  "/>
<path clip-path="url(#clip492)" d="
M450.922 1443.95 L450.922 1445.72 L478.33 1445.72 L478.33 1443.95 L450.922 1443.95 L450.922 1443.95  Z
  " fill="#009af9" fill-rule="evenodd" fill-opacity="1"/>
<polyline clip-path="url(#clip492)" style="stroke:#000000; stroke-width:4; stroke-opacity:1; fill:none" points="
  450.922,1443.95 450.922,1445.72 478.33,1445.72 478.33,1443.95 450.922,1443.95 
  "/>
<path clip-path="url(#clip492)" d="
M478.33 1445.72 L478.33 1445.72 L505.739 1445.72 L505.739 1445.72 L478.33 1445.72 L478.33 1445.72  Z
  " fill="#009af9" fill-rule="evenodd" fill-opacity="1"/>
<polyline clip-path="url(#clip492)" style="stroke:#000000; stroke-width:4; stroke-opacity:1; fill:none" points="
  478.33,1445.72 478.33,1445.72 505.739,1445.72 478.33,1445.72 
  "/>
<path clip-path="url(#clip492)" d="
M505.739 1443.95 L505.739 1445.72 L533.148 1445.72 L533.148 1443.95 L505.739 1443.95 L505.739 1443.95  Z
  " fill="#009af9" fill-rule="evenodd" fill-opacity="1"/>
<polyline clip-path="url(#clip492)" style="stroke:#000000; stroke-width:4; stroke-opacity:1; fill:none" points="
  505.739,1443.95 505.739,1445.72 533.148,1445.72 533.148,1443.95 505.739,1443.95 
  "/>
<path clip-path="url(#clip492)" d="
M533.148 1443.95 L533.148 1445.72 L560.557 1445.72 L560.557 1443.95 L533.148 1443.95 L533.148 1443.95  Z
  " fill="#009af9" fill-rule="evenodd" fill-opacity="1"/>
<polyline clip-path="url(#clip492)" style="stroke:#000000; stroke-width:4; stroke-opacity:1; fill:none" points="
  533.148,1443.95 533.148,1445.72 560.557,1445.72 560.557,1443.95 533.148,1443.95 
  "/>
<path clip-path="url(#clip492)" d="
M560.557 1438.63 L560.557 1445.72 L587.965 1445.72 L587.965 1438.63 L560.557 1438.63 L560.557 1438.63  Z
  " fill="#009af9" fill-rule="evenodd" fill-opacity="1"/>
<polyline clip-path="url(#clip492)" style="stroke:#000000; stroke-width:4; stroke-opacity:1; fill:none" points="
  560.557,1438.63 560.557,1445.72 587.965,1445.72 587.965,1438.63 560.557,1438.63 
  "/>
<path clip-path="url(#clip492)" d="
M587.965 1440.41 L587.965 1445.72 L615.374 1445.72 L615.374 1440.41 L587.965 1440.41 L587.965 1440.41  Z
  " fill="#009af9" fill-rule="evenodd" fill-opacity="1"/>
<polyline clip-path="url(#clip492)" style="stroke:#000000; stroke-width:4; stroke-opacity:1; fill:none" points="
  587.965,1440.41 587.965,1445.72 615.374,1445.72 615.374,1440.41 587.965,1440.41 
  "/>
<path clip-path="url(#clip492)" d="
M615.374 1436.86 L615.374 1445.72 L642.783 1445.72 L642.783 1436.86 L615.374 1436.86 L615.374 1436.86  Z
  " fill="#009af9" fill-rule="evenodd" fill-opacity="1"/>
<polyline clip-path="url(#clip492)" style="stroke:#000000; stroke-width:4; stroke-opacity:1; fill:none" points="
  615.374,1436.86 615.374,1445.72 642.783,1445.72 642.783,1436.86 615.374,1436.86 
  "/>
<path clip-path="url(#clip492)" d="
M642.783 1438.63 L642.783 1445.72 L670.192 1445.72 L670.192 1438.63 L642.783 1438.63 L642.783 1438.63  Z
  " fill="#009af9" fill-rule="evenodd" fill-opacity="1"/>
<polyline clip-path="url(#clip492)" style="stroke:#000000; stroke-width:4; stroke-opacity:1; fill:none" points="
  642.783,1438.63 642.783,1445.72 670.192,1445.72 670.192,1438.63 642.783,1438.63 
  "/>
<path clip-path="url(#clip492)" d="
M670.192 1429.78 L670.192 1445.72 L697.6 1445.72 L697.6 1429.78 L670.192 1429.78 L670.192 1429.78  Z
  " fill="#009af9" fill-rule="evenodd" fill-opacity="1"/>
<polyline clip-path="url(#clip492)" style="stroke:#000000; stroke-width:4; stroke-opacity:1; fill:none" points="
  670.192,1429.78 670.192,1445.72 697.6,1445.72 697.6,1429.78 670.192,1429.78 
  "/>
<path clip-path="url(#clip492)" d="
M697.6 1440.41 L697.6 1445.72 L725.009 1445.72 L725.009 1440.41 L697.6 1440.41 L697.6 1440.41  Z
  " fill="#009af9" fill-rule="evenodd" fill-opacity="1"/>
<polyline clip-path="url(#clip492)" style="stroke:#000000; stroke-width:4; stroke-opacity:1; fill:none" points="
  697.6,1440.41 697.6,1445.72 725.009,1445.72 725.009,1440.41 697.6,1440.41 
  "/>
<path clip-path="url(#clip492)" d="
M725.009 1428.01 L725.009 1445.72 L752.418 1445.72 L752.418 1428.01 L725.009 1428.01 L725.009 1428.01  Z
  " fill="#009af9" fill-rule="evenodd" fill-opacity="1"/>
<polyline clip-path="url(#clip492)" style="stroke:#000000; stroke-width:4; stroke-opacity:1; fill:none" points="
  725.009,1428.01 725.009,1445.72 752.418,1445.72 752.418,1428.01 725.009,1428.01 
  "/>
<path clip-path="url(#clip492)" d="
M752.418 1429.78 L752.418 1445.72 L779.827 1445.72 L779.827 1429.78 L752.418 1429.78 L752.418 1429.78  Z
  " fill="#009af9" fill-rule="evenodd" fill-opacity="1"/>
<polyline clip-path="url(#clip492)" style="stroke:#000000; stroke-width:4; stroke-opacity:1; fill:none" points="
  752.418,1429.78 752.418,1445.72 779.827,1445.72 779.827,1429.78 752.418,1429.78 
  "/>
<path clip-path="url(#clip492)" d="
M779.827 1422.7 L779.827 1445.72 L807.236 1445.72 L807.236 1422.7 L779.827 1422.7 L779.827 1422.7  Z
  " fill="#009af9" fill-rule="evenodd" fill-opacity="1"/>
<polyline clip-path="url(#clip492)" style="stroke:#000000; stroke-width:4; stroke-opacity:1; fill:none" points="
  779.827,1422.7 779.827,1445.72 807.236,1445.72 807.236,1422.7 779.827,1422.7 
  "/>
<path clip-path="url(#clip492)" d="
M807.236 1428.01 L807.236 1445.72 L834.644 1445.72 L834.644 1428.01 L807.236 1428.01 L807.236 1428.01  Z
  " fill="#009af9" fill-rule="evenodd" fill-opacity="1"/>
<polyline clip-path="url(#clip492)" style="stroke:#000000; stroke-width:4; stroke-opacity:1; fill:none" points="
  807.236,1428.01 807.236,1445.72 834.644,1445.72 834.644,1428.01 807.236,1428.01 
  "/>
<path clip-path="url(#clip492)" d="
M834.644 1399.69 L834.644 1445.72 L862.053 1445.72 L862.053 1399.69 L834.644 1399.69 L834.644 1399.69  Z
  " fill="#009af9" fill-rule="evenodd" fill-opacity="1"/>
<polyline clip-path="url(#clip492)" style="stroke:#000000; stroke-width:4; stroke-opacity:1; fill:none" points="
  834.644,1399.69 834.644,1445.72 862.053,1445.72 862.053,1399.69 834.644,1399.69 
  "/>
<path clip-path="url(#clip492)" d="
M862.053 1401.46 L862.053 1445.72 L889.462 1445.72 L889.462 1401.46 L862.053 1401.46 L862.053 1401.46  Z
  " fill="#009af9" fill-rule="evenodd" fill-opacity="1"/>
<polyline clip-path="url(#clip492)" style="stroke:#000000; stroke-width:4; stroke-opacity:1; fill:none" points="
  862.053,1401.46 862.053,1445.72 889.462,1445.72 889.462,1401.46 862.053,1401.46 
  "/>
<path clip-path="url(#clip492)" d="
M889.462 1397.92 L889.462 1445.72 L916.871 1445.72 L916.871 1397.92 L889.462 1397.92 L889.462 1397.92  Z
  " fill="#009af9" fill-rule="evenodd" fill-opacity="1"/>
<polyline clip-path="url(#clip492)" style="stroke:#000000; stroke-width:4; stroke-opacity:1; fill:none" points="
  889.462,1397.92 889.462,1445.72 916.871,1445.72 916.871,1397.92 889.462,1397.92 
  "/>
<path clip-path="url(#clip492)" d="
M916.871 1390.84 L916.871 1445.72 L944.279 1445.72 L944.279 1390.84 L916.871 1390.84 L916.871 1390.84  Z
  " fill="#009af9" fill-rule="evenodd" fill-opacity="1"/>
<polyline clip-path="url(#clip492)" style="stroke:#000000; stroke-width:4; stroke-opacity:1; fill:none" points="
  916.871,1390.84 916.871,1445.72 944.279,1445.72 944.279,1390.84 916.871,1390.84 
  "/>
<path clip-path="url(#clip492)" d="
M944.279 1381.99 L944.279 1445.72 L971.688 1445.72 L971.688 1381.99 L944.279 1381.99 L944.279 1381.99  Z
  " fill="#009af9" fill-rule="evenodd" fill-opacity="1"/>
<polyline clip-path="url(#clip492)" style="stroke:#000000; stroke-width:4; stroke-opacity:1; fill:none" points="
  944.279,1381.99 944.279,1445.72 971.688,1445.72 971.688,1381.99 944.279,1381.99 
  "/>
<path clip-path="url(#clip492)" d="
M971.688 1380.22 L971.688 1445.72 L999.097 1445.72 L999.097 1380.22 L971.688 1380.22 L971.688 1380.22  Z
  " fill="#009af9" fill-rule="evenodd" fill-opacity="1"/>
<polyline clip-path="url(#clip492)" style="stroke:#000000; stroke-width:4; stroke-opacity:1; fill:none" points="
  971.688,1380.22 971.688,1445.72 999.097,1445.72 999.097,1380.22 971.688,1380.22 
  "/>
<path clip-path="url(#clip492)" d="
M999.097 1360.75 L999.097 1445.72 L1026.51 1445.72 L1026.51 1360.75 L999.097 1360.75 L999.097 1360.75  Z
  " fill="#009af9" fill-rule="evenodd" fill-opacity="1"/>
<polyline clip-path="url(#clip492)" style="stroke:#000000; stroke-width:4; stroke-opacity:1; fill:none" points="
  999.097,1360.75 999.097,1445.72 1026.51,1445.72 1026.51,1360.75 999.097,1360.75 
  "/>
<path clip-path="url(#clip492)" d="
M1026.51 1343.04 L1026.51 1445.72 L1053.91 1445.72 L1053.91 1343.04 L1026.51 1343.04 L1026.51 1343.04  Z
  " fill="#009af9" fill-rule="evenodd" fill-opacity="1"/>
<polyline clip-path="url(#clip492)" style="stroke:#000000; stroke-width:4; stroke-opacity:1; fill:none" points="
  1026.51,1343.04 1026.51,1445.72 1053.91,1445.72 1053.91,1343.04 1026.51,1343.04 
  "/>
<path clip-path="url(#clip492)" d="
M1053.91 1344.81 L1053.91 1445.72 L1081.32 1445.72 L1081.32 1344.81 L1053.91 1344.81 L1053.91 1344.81  Z
  " fill="#009af9" fill-rule="evenodd" fill-opacity="1"/>
<polyline clip-path="url(#clip492)" style="stroke:#000000; stroke-width:4; stroke-opacity:1; fill:none" points="
  1053.91,1344.81 1053.91,1445.72 1081.32,1445.72 1081.32,1344.81 1053.91,1344.81 
  "/>
<path clip-path="url(#clip492)" d="
M1081.32 1305.87 L1081.32 1445.72 L1108.73 1445.72 L1108.73 1305.87 L1081.32 1305.87 L1081.32 1305.87  Z
  " fill="#009af9" fill-rule="evenodd" fill-opacity="1"/>
<polyline clip-path="url(#clip492)" style="stroke:#000000; stroke-width:4; stroke-opacity:1; fill:none" points="
  1081.32,1305.87 1081.32,1445.72 1108.73,1445.72 1108.73,1305.87 1081.32,1305.87 
  "/>
<path clip-path="url(#clip492)" d="
M1108.73 1288.17 L1108.73 1445.72 L1136.14 1445.72 L1136.14 1288.17 L1108.73 1288.17 L1108.73 1288.17  Z
  " fill="#009af9" fill-rule="evenodd" fill-opacity="1"/>
<polyline clip-path="url(#clip492)" style="stroke:#000000; stroke-width:4; stroke-opacity:1; fill:none" points="
  1108.73,1288.17 1108.73,1445.72 1136.14,1445.72 1136.14,1288.17 1108.73,1288.17 
  "/>
<path clip-path="url(#clip492)" d="
M1136.14 1311.18 L1136.14 1445.72 L1163.55 1445.72 L1163.55 1311.18 L1136.14 1311.18 L1136.14 1311.18  Z
  " fill="#009af9" fill-rule="evenodd" fill-opacity="1"/>
<polyline clip-path="url(#clip492)" style="stroke:#000000; stroke-width:4; stroke-opacity:1; fill:none" points="
  1136.14,1311.18 1136.14,1445.72 1163.55,1445.72 1163.55,1311.18 1136.14,1311.18 
  "/>
<path clip-path="url(#clip492)" d="
M1163.55 1293.48 L1163.55 1445.72 L1190.96 1445.72 L1190.96 1293.48 L1163.55 1293.48 L1163.55 1293.48  Z
  " fill="#009af9" fill-rule="evenodd" fill-opacity="1"/>
<polyline clip-path="url(#clip492)" style="stroke:#000000; stroke-width:4; stroke-opacity:1; fill:none" points="
  1163.55,1293.48 1163.55,1445.72 1190.96,1445.72 1190.96,1293.48 1163.55,1293.48 
  "/>
<path clip-path="url(#clip492)" d="
M1190.96 1270.47 L1190.96 1445.72 L1218.37 1445.72 L1218.37 1270.47 L1190.96 1270.47 L1190.96 1270.47  Z
  " fill="#009af9" fill-rule="evenodd" fill-opacity="1"/>
<polyline clip-path="url(#clip492)" style="stroke:#000000; stroke-width:4; stroke-opacity:1; fill:none" points="
  1190.96,1270.47 1190.96,1445.72 1218.37,1445.72 1218.37,1270.47 1190.96,1270.47 
  "/>
<path clip-path="url(#clip492)" d="
M1218.37 1236.83 L1218.37 1445.72 L1245.78 1445.72 L1245.78 1236.83 L1218.37 1236.83 L1218.37 1236.83  Z
  " fill="#009af9" fill-rule="evenodd" fill-opacity="1"/>
<polyline clip-path="url(#clip492)" style="stroke:#000000; stroke-width:4; stroke-opacity:1; fill:none" points="
  1218.37,1236.83 1218.37,1445.72 1245.78,1445.72 1245.78,1236.83 1218.37,1236.83 
  "/>
<path clip-path="url(#clip492)" d="
M1245.78 1250.99 L1245.78 1445.72 L1273.18 1445.72 L1273.18 1250.99 L1245.78 1250.99 L1245.78 1250.99  Z
  " fill="#009af9" fill-rule="evenodd" fill-opacity="1"/>
<polyline clip-path="url(#clip492)" style="stroke:#000000; stroke-width:4; stroke-opacity:1; fill:none" points="
  1245.78,1250.99 1245.78,1445.72 1273.18,1445.72 1273.18,1250.99 1245.78,1250.99 
  "/>
<path clip-path="url(#clip492)" d="
M1273.18 1236.83 L1273.18 1445.72 L1300.59 1445.72 L1300.59 1236.83 L1273.18 1236.83 L1273.18 1236.83  Z
  " fill="#009af9" fill-rule="evenodd" fill-opacity="1"/>
<polyline clip-path="url(#clip492)" style="stroke:#000000; stroke-width:4; stroke-opacity:1; fill:none" points="
  1273.18,1236.83 1273.18,1445.72 1300.59,1445.72 1300.59,1236.83 1273.18,1236.83 
  "/>
<path clip-path="url(#clip492)" d="
M1300.59 1263.39 L1300.59 1445.72 L1328 1445.72 L1328 1263.39 L1300.59 1263.39 L1300.59 1263.39  Z
  " fill="#009af9" fill-rule="evenodd" fill-opacity="1"/>
<polyline clip-path="url(#clip492)" style="stroke:#000000; stroke-width:4; stroke-opacity:1; fill:none" points="
  1300.59,1263.39 1300.59,1445.72 1328,1445.72 1328,1263.39 1300.59,1263.39 
  "/>
<path clip-path="url(#clip492)" d="
M1328 1213.82 L1328 1445.72 L1355.41 1445.72 L1355.41 1213.82 L1328 1213.82 L1328 1213.82  Z
  " fill="#009af9" fill-rule="evenodd" fill-opacity="1"/>
<polyline clip-path="url(#clip492)" style="stroke:#000000; stroke-width:4; stroke-opacity:1; fill:none" points="
  1328,1213.82 1328,1445.72 1355.41,1445.72 1355.41,1213.82 1328,1213.82 
  "/>
<path clip-path="url(#clip492)" d="
M1355.41 1226.21 L1355.41 1445.72 L1382.82 1445.72 L1382.82 1226.21 L1355.41 1226.21 L1355.41 1226.21  Z
  " fill="#009af9" fill-rule="evenodd" fill-opacity="1"/>
<polyline clip-path="url(#clip492)" style="stroke:#000000; stroke-width:4; stroke-opacity:1; fill:none" points="
  1355.41,1226.21 1355.41,1445.72 1382.82,1445.72 1382.82,1226.21 1355.41,1226.21 
  "/>
<path clip-path="url(#clip492)" d="
M1382.82 1212.05 L1382.82 1445.72 L1410.23 1445.72 L1410.23 1212.05 L1382.82 1212.05 L1382.82 1212.05  Z
  " fill="#009af9" fill-rule="evenodd" fill-opacity="1"/>
<polyline clip-path="url(#clip492)" style="stroke:#000000; stroke-width:4; stroke-opacity:1; fill:none" points="
  1382.82,1212.05 1382.82,1445.72 1410.23,1445.72 1410.23,1212.05 1382.82,1212.05 
  "/>
<path clip-path="url(#clip492)" d="
M1410.23 1227.98 L1410.23 1445.72 L1437.64 1445.72 L1437.64 1227.98 L1410.23 1227.98 L1410.23 1227.98  Z
  " fill="#009af9" fill-rule="evenodd" fill-opacity="1"/>
<polyline clip-path="url(#clip492)" style="stroke:#000000; stroke-width:4; stroke-opacity:1; fill:none" points="
  1410.23,1227.98 1410.23,1445.72 1437.64,1445.72 1437.64,1227.98 1410.23,1227.98 
  "/>
<path clip-path="url(#clip492)" d="
M1437.64 1162.48 L1437.64 1445.72 L1465.05 1445.72 L1465.05 1162.48 L1437.64 1162.48 L1437.64 1162.48  Z
  " fill="#009af9" fill-rule="evenodd" fill-opacity="1"/>
<polyline clip-path="url(#clip492)" style="stroke:#000000; stroke-width:4; stroke-opacity:1; fill:none" points="
  1437.64,1162.48 1437.64,1445.72 1465.05,1445.72 1465.05,1162.48 1437.64,1162.48 
  "/>
<path clip-path="url(#clip492)" d="
M1465.05 799.595 L1465.05 1445.72 L1492.45 1445.72 L1492.45 799.595 L1465.05 799.595 L1465.05 799.595  Z
  " fill="#009af9" fill-rule="evenodd" fill-opacity="1"/>
<polyline clip-path="url(#clip492)" style="stroke:#000000; stroke-width:4; stroke-opacity:1; fill:none" points="
  1465.05,799.595 1465.05,1445.72 1492.45,1445.72 1492.45,799.595 1465.05,799.595 
  "/>
<path clip-path="url(#clip492)" d="
M1492.45 87.9763 L1492.45 1445.72 L1519.86 1445.72 L1519.86 87.9763 L1492.45 87.9763 L1492.45 87.9763  Z
  " fill="#009af9" fill-rule="evenodd" fill-opacity="1"/>
<polyline clip-path="url(#clip492)" style="stroke:#000000; stroke-width:4; stroke-opacity:1; fill:none" points="
  1492.45,87.9763 1492.45,1445.72 1519.86,1445.72 1519.86,87.9763 1492.45,87.9763 
  "/>
<path clip-path="url(#clip492)" d="
M1519.86 128.691 L1519.86 1445.72 L1547.27 1445.72 L1547.27 128.691 L1519.86 128.691 L1519.86 128.691  Z
  " fill="#009af9" fill-rule="evenodd" fill-opacity="1"/>
<polyline clip-path="url(#clip492)" style="stroke:#000000; stroke-width:4; stroke-opacity:1; fill:none" points="
  1519.86,128.691 1519.86,1445.72 1547.27,1445.72 1547.27,128.691 1519.86,128.691 
  "/>
<path clip-path="url(#clip492)" d="
M1547.27 776.582 L1547.27 1445.72 L1574.68 1445.72 L1574.68 776.582 L1547.27 776.582 L1547.27 776.582  Z
  " fill="#009af9" fill-rule="evenodd" fill-opacity="1"/>
<polyline clip-path="url(#clip492)" style="stroke:#000000; stroke-width:4; stroke-opacity:1; fill:none" points="
  1547.27,776.582 1547.27,1445.72 1574.68,1445.72 1574.68,776.582 1547.27,776.582 
  "/>
<path clip-path="url(#clip492)" d="
M1574.68 1206.74 L1574.68 1445.72 L1602.09 1445.72 L1602.09 1206.74 L1574.68 1206.74 L1574.68 1206.74  Z
  " fill="#009af9" fill-rule="evenodd" fill-opacity="1"/>
<polyline clip-path="url(#clip492)" style="stroke:#000000; stroke-width:4; stroke-opacity:1; fill:none" points="
  1574.68,1206.74 1574.68,1445.72 1602.09,1445.72 1602.09,1206.74 1574.68,1206.74 
  "/>
<path clip-path="url(#clip492)" d="
M1602.09 1282.86 L1602.09 1445.72 L1629.5 1445.72 L1629.5 1282.86 L1602.09 1282.86 L1602.09 1282.86  Z
  " fill="#009af9" fill-rule="evenodd" fill-opacity="1"/>
<polyline clip-path="url(#clip492)" style="stroke:#000000; stroke-width:4; stroke-opacity:1; fill:none" points="
  1602.09,1282.86 1602.09,1445.72 1629.5,1445.72 1629.5,1282.86 1602.09,1282.86 
  "/>
<path clip-path="url(#clip492)" d="
M1629.5 1334.19 L1629.5 1445.72 L1656.91 1445.72 L1656.91 1334.19 L1629.5 1334.19 L1629.5 1334.19  Z
  " fill="#009af9" fill-rule="evenodd" fill-opacity="1"/>
<polyline clip-path="url(#clip492)" style="stroke:#000000; stroke-width:4; stroke-opacity:1; fill:none" points="
  1629.5,1334.19 1629.5,1445.72 1656.91,1445.72 1656.91,1334.19 1629.5,1334.19 
  "/>
<path clip-path="url(#clip492)" d="
M1656.91 1302.33 L1656.91 1445.72 L1684.32 1445.72 L1684.32 1302.33 L1656.91 1302.33 L1656.91 1302.33  Z
  " fill="#009af9" fill-rule="evenodd" fill-opacity="1"/>
<polyline clip-path="url(#clip492)" style="stroke:#000000; stroke-width:4; stroke-opacity:1; fill:none" points="
  1656.91,1302.33 1656.91,1445.72 1684.32,1445.72 1684.32,1302.33 1656.91,1302.33 
  "/>
<path clip-path="url(#clip492)" d="
M1684.32 1316.49 L1684.32 1445.72 L1711.73 1445.72 L1711.73 1316.49 L1684.32 1316.49 L1684.32 1316.49  Z
  " fill="#009af9" fill-rule="evenodd" fill-opacity="1"/>
<polyline clip-path="url(#clip492)" style="stroke:#000000; stroke-width:4; stroke-opacity:1; fill:none" points="
  1684.32,1316.49 1684.32,1445.72 1711.73,1445.72 1711.73,1316.49 1684.32,1316.49 
  "/>
<path clip-path="url(#clip492)" d="
M1711.73 1366.06 L1711.73 1445.72 L1739.13 1445.72 L1739.13 1366.06 L1711.73 1366.06 L1711.73 1366.06  Z
  " fill="#009af9" fill-rule="evenodd" fill-opacity="1"/>
<polyline clip-path="url(#clip492)" style="stroke:#000000; stroke-width:4; stroke-opacity:1; fill:none" points="
  1711.73,1366.06 1711.73,1445.72 1739.13,1445.72 1739.13,1366.06 1711.73,1366.06 
  "/>
<path clip-path="url(#clip492)" d="
M1739.13 1362.52 L1739.13 1445.72 L1766.54 1445.72 L1766.54 1362.52 L1739.13 1362.52 L1739.13 1362.52  Z
  " fill="#009af9" fill-rule="evenodd" fill-opacity="1"/>
<polyline clip-path="url(#clip492)" style="stroke:#000000; stroke-width:4; stroke-opacity:1; fill:none" points="
  1739.13,1362.52 1739.13,1445.72 1766.54,1445.72 1766.54,1362.52 1739.13,1362.52 
  "/>
<path clip-path="url(#clip492)" d="
M1766.54 1353.67 L1766.54 1445.72 L1793.95 1445.72 L1793.95 1353.67 L1766.54 1353.67 L1766.54 1353.67  Z
  " fill="#009af9" fill-rule="evenodd" fill-opacity="1"/>
<polyline clip-path="url(#clip492)" style="stroke:#000000; stroke-width:4; stroke-opacity:1; fill:none" points="
  1766.54,1353.67 1766.54,1445.72 1793.95,1445.72 1793.95,1353.67 1766.54,1353.67 
  "/>
<path clip-path="url(#clip492)" d="
M1793.95 1389.07 L1793.95 1445.72 L1821.36 1445.72 L1821.36 1389.07 L1793.95 1389.07 L1793.95 1389.07  Z
  " fill="#009af9" fill-rule="evenodd" fill-opacity="1"/>
<polyline clip-path="url(#clip492)" style="stroke:#000000; stroke-width:4; stroke-opacity:1; fill:none" points="
  1793.95,1389.07 1793.95,1445.72 1821.36,1445.72 1821.36,1389.07 1793.95,1389.07 
  "/>
<path clip-path="url(#clip492)" d="
M1821.36 1397.92 L1821.36 1445.72 L1848.77 1445.72 L1848.77 1397.92 L1821.36 1397.92 L1821.36 1397.92  Z
  " fill="#009af9" fill-rule="evenodd" fill-opacity="1"/>
<polyline clip-path="url(#clip492)" style="stroke:#000000; stroke-width:4; stroke-opacity:1; fill:none" points="
  1821.36,1397.92 1821.36,1445.72 1848.77,1445.72 1848.77,1397.92 1821.36,1397.92 
  "/>
<path clip-path="url(#clip492)" d="
M1848.77 1396.15 L1848.77 1445.72 L1876.18 1445.72 L1876.18 1396.15 L1848.77 1396.15 L1848.77 1396.15  Z
  " fill="#009af9" fill-rule="evenodd" fill-opacity="1"/>
<polyline clip-path="url(#clip492)" style="stroke:#000000; stroke-width:4; stroke-opacity:1; fill:none" points="
  1848.77,1396.15 1848.77,1445.72 1876.18,1445.72 1876.18,1396.15 1848.77,1396.15 
  "/>
<path clip-path="url(#clip492)" d="
M1876.18 1405 L1876.18 1445.72 L1903.59 1445.72 L1903.59 1405 L1876.18 1405 L1876.18 1405  Z
  " fill="#009af9" fill-rule="evenodd" fill-opacity="1"/>
<polyline clip-path="url(#clip492)" style="stroke:#000000; stroke-width:4; stroke-opacity:1; fill:none" points="
  1876.18,1405 1876.18,1445.72 1903.59,1445.72 1903.59,1405 1876.18,1405 
  "/>
<path clip-path="url(#clip492)" d="
M1903.59 1422.7 L1903.59 1445.72 L1931 1445.72 L1931 1422.7 L1903.59 1422.7 L1903.59 1422.7  Z
  " fill="#009af9" fill-rule="evenodd" fill-opacity="1"/>
<polyline clip-path="url(#clip492)" style="stroke:#000000; stroke-width:4; stroke-opacity:1; fill:none" points="
  1903.59,1422.7 1903.59,1445.72 1931,1445.72 1931,1422.7 1903.59,1422.7 
  "/>
<path clip-path="url(#clip492)" d="
M1931 1420.93 L1931 1445.72 L1958.4 1445.72 L1958.4 1420.93 L1931 1420.93 L1931 1420.93  Z
  " fill="#009af9" fill-rule="evenodd" fill-opacity="1"/>
<polyline clip-path="url(#clip492)" style="stroke:#000000; stroke-width:4; stroke-opacity:1; fill:none" points="
  1931,1420.93 1931,1445.72 1958.4,1445.72 1958.4,1420.93 1931,1420.93 
  "/>
<path clip-path="url(#clip492)" d="
M1958.4 1426.24 L1958.4 1445.72 L1985.81 1445.72 L1985.81 1426.24 L1958.4 1426.24 L1958.4 1426.24  Z
  " fill="#009af9" fill-rule="evenodd" fill-opacity="1"/>
<polyline clip-path="url(#clip492)" style="stroke:#000000; stroke-width:4; stroke-opacity:1; fill:none" points="
  1958.4,1426.24 1958.4,1445.72 1985.81,1445.72 1985.81,1426.24 1958.4,1426.24 
  "/>
<path clip-path="url(#clip492)" d="
M1985.81 1424.47 L1985.81 1445.72 L2013.22 1445.72 L2013.22 1424.47 L1985.81 1424.47 L1985.81 1424.47  Z
  " fill="#009af9" fill-rule="evenodd" fill-opacity="1"/>
<polyline clip-path="url(#clip492)" style="stroke:#000000; stroke-width:4; stroke-opacity:1; fill:none" points="
  1985.81,1424.47 1985.81,1445.72 2013.22,1445.72 2013.22,1424.47 1985.81,1424.47 
  "/>
<path clip-path="url(#clip492)" d="
M2013.22 1436.86 L2013.22 1445.72 L2040.63 1445.72 L2040.63 1436.86 L2013.22 1436.86 L2013.22 1436.86  Z
  " fill="#009af9" fill-rule="evenodd" fill-opacity="1"/>
<polyline clip-path="url(#clip492)" style="stroke:#000000; stroke-width:4; stroke-opacity:1; fill:none" points="
  2013.22,1436.86 2013.22,1445.72 2040.63,1445.72 2040.63,1436.86 2013.22,1436.86 
  "/>
<path clip-path="url(#clip492)" d="
M2040.63 1431.55 L2040.63 1445.72 L2068.04 1445.72 L2068.04 1431.55 L2040.63 1431.55 L2040.63 1431.55  Z
  " fill="#009af9" fill-rule="evenodd" fill-opacity="1"/>
<polyline clip-path="url(#clip492)" style="stroke:#000000; stroke-width:4; stroke-opacity:1; fill:none" points="
  2040.63,1431.55 2040.63,1445.72 2068.04,1445.72 2068.04,1431.55 2040.63,1431.55 
  "/>
<path clip-path="url(#clip492)" d="
M2068.04 1435.09 L2068.04 1445.72 L2095.45 1445.72 L2095.45 1435.09 L2068.04 1435.09 L2068.04 1435.09  Z
  " fill="#009af9" fill-rule="evenodd" fill-opacity="1"/>
<polyline clip-path="url(#clip492)" style="stroke:#000000; stroke-width:4; stroke-opacity:1; fill:none" points="
  2068.04,1435.09 2068.04,1445.72 2095.45,1445.72 2095.45,1435.09 2068.04,1435.09 
  "/>
<path clip-path="url(#clip492)" d="
M2095.45 1440.41 L2095.45 1445.72 L2122.86 1445.72 L2122.86 1440.41 L2095.45 1440.41 L2095.45 1440.41  Z
  " fill="#009af9" fill-rule="evenodd" fill-opacity="1"/>
<polyline clip-path="url(#clip492)" style="stroke:#000000; stroke-width:4; stroke-opacity:1; fill:none" points="
  2095.45,1440.41 2095.45,1445.72 2122.86,1445.72 2122.86,1440.41 2095.45,1440.41 
  "/>
<path clip-path="url(#clip492)" d="
M2122.86 1438.63 L2122.86 1445.72 L2150.27 1445.72 L2150.27 1438.63 L2122.86 1438.63 L2122.86 1438.63  Z
  " fill="#009af9" fill-rule="evenodd" fill-opacity="1"/>
<polyline clip-path="url(#clip492)" style="stroke:#000000; stroke-width:4; stroke-opacity:1; fill:none" points="
  2122.86,1438.63 2122.86,1445.72 2150.27,1445.72 2150.27,1438.63 2122.86,1438.63 
  "/>
<path clip-path="url(#clip492)" d="
M2150.27 1442.18 L2150.27 1445.72 L2177.67 1445.72 L2177.67 1442.18 L2150.27 1442.18 L2150.27 1442.18  Z
  " fill="#009af9" fill-rule="evenodd" fill-opacity="1"/>
<polyline clip-path="url(#clip492)" style="stroke:#000000; stroke-width:4; stroke-opacity:1; fill:none" points="
  2150.27,1442.18 2150.27,1445.72 2177.67,1445.72 2177.67,1442.18 2150.27,1442.18 
  "/>
<path clip-path="url(#clip492)" d="
M2177.67 1443.95 L2177.67 1445.72 L2205.08 1445.72 L2205.08 1443.95 L2177.67 1443.95 L2177.67 1443.95  Z
  " fill="#009af9" fill-rule="evenodd" fill-opacity="1"/>
<polyline clip-path="url(#clip492)" style="stroke:#000000; stroke-width:4; stroke-opacity:1; fill:none" points="
  2177.67,1443.95 2177.67,1445.72 2205.08,1445.72 2205.08,1443.95 2177.67,1443.95 
  "/>
<path clip-path="url(#clip492)" d="
M2205.08 1443.95 L2205.08 1445.72 L2232.49 1445.72 L2232.49 1443.95 L2205.08 1443.95 L2205.08 1443.95  Z
  " fill="#009af9" fill-rule="evenodd" fill-opacity="1"/>
<polyline clip-path="url(#clip492)" style="stroke:#000000; stroke-width:4; stroke-opacity:1; fill:none" points="
  2205.08,1443.95 2205.08,1445.72 2232.49,1445.72 2232.49,1443.95 2205.08,1443.95 
  "/>
<path clip-path="url(#clip490)" d="
M1989.74 251.724 L2280.76 251.724 L2280.76 130.764 L1989.74 130.764  Z
  " fill="#ffffff" fill-rule="evenodd" fill-opacity="1"/>
<polyline clip-path="url(#clip490)" style="stroke:#000000; stroke-width:4; stroke-opacity:1; fill:none" points="
  1989.74,251.724 2280.76,251.724 2280.76,130.764 1989.74,130.764 1989.74,251.724 
  "/>
<path clip-path="url(#clip490)" d="
M2013.74 215.436 L2157.74 215.436 L2157.74 167.052 L2013.74 167.052 L2013.74 215.436  Z
  " fill="#009af9" fill-rule="evenodd" fill-opacity="1"/>
<polyline clip-path="url(#clip490)" style="stroke:#000000; stroke-width:4; stroke-opacity:1; fill:none" points="
  2013.74,215.436 2157.74,215.436 2157.74,167.052 2013.74,167.052 2013.74,215.436 
  "/>
<path clip-path="url(#clip490)" d="M 0 0 M2195.58 210.931 Q2193.77 215.561 2192.06 216.973 Q2190.35 218.385 2187.48 218.385 L2184.08 218.385 L2184.08 214.82 L2186.58 214.82 Q2188.33 214.82 2189.31 213.987 Q2190.28 213.154 2191.46 210.052 L2192.22 208.107 L2181.74 182.598 L2186.25 182.598 L2194.35 202.876 L2202.46 182.598 L2206.97 182.598 L2195.58 210.931 Z" fill="#000000" fill-rule="evenodd" fill-opacity="1" /><path clip-path="url(#clip490)" d="M 0 0 M2212.85 204.589 L2220.49 204.589 L2220.49 178.223 L2212.18 179.89 L2212.18 175.631 L2220.44 173.964 L2225.12 173.964 L2225.12 204.589 L2232.76 204.589 L2232.76 208.524 L2212.85 208.524 L2212.85 204.589 Z" fill="#000000" fill-rule="evenodd" fill-opacity="1" /></svg>
