<?xml version="1.0" encoding="utf-8"?>
<svg xmlns="http://www.w3.org/2000/svg" xmlns:xlink="http://www.w3.org/1999/xlink" width="600" height="400" viewBox="0 0 2400 1600">
<defs>
  <clipPath id="clip160">
    <rect x="0" y="0" width="2400" height="1600"/>
  </clipPath>
</defs>
<path clip-path="url(#clip160)" d="
M0 1600 L2400 1600 L2400 0 L0 0  Z
  " fill="#ffffff" fill-rule="evenodd" fill-opacity="1"/>
<defs>
  <clipPath id="clip161">
    <rect x="480" y="0" width="1681" height="1600"/>
  </clipPath>
</defs>
<path clip-path="url(#clip160)" d="
M166.205 1486.45 L2352.76 1486.45 L2352.76 47.2441 L166.205 47.2441  Z
  " fill="#ffffff" fill-rule="evenodd" fill-opacity="1"/>
<defs>
  <clipPath id="clip162">
    <rect x="166" y="47" width="2188" height="1440"/>
  </clipPath>
</defs>
<polyline clip-path="url(#clip162)" style="stroke:#000000; stroke-width:2; stroke-opacity:0.1; fill:none" points="
  399.282,1486.45 399.282,47.2441 
  "/>
<polyline clip-path="url(#clip162)" style="stroke:#000000; stroke-width:2; stroke-opacity:0.1; fill:none" points="
  681.314,1486.45 681.314,47.2441 
  "/>
<polyline clip-path="url(#clip162)" style="stroke:#000000; stroke-width:2; stroke-opacity:0.1; fill:none" points="
  963.346,1486.45 963.346,47.2441 
  "/>
<polyline clip-path="url(#clip162)" style="stroke:#000000; stroke-width:2; stroke-opacity:0.1; fill:none" points="
  1245.38,1486.45 1245.38,47.2441 
  "/>
<polyline clip-path="url(#clip162)" style="stroke:#000000; stroke-width:2; stroke-opacity:0.1; fill:none" points="
  1527.41,1486.45 1527.41,47.2441 
  "/>
<polyline clip-path="url(#clip162)" style="stroke:#000000; stroke-width:2; stroke-opacity:0.1; fill:none" points="
  1809.44,1486.45 1809.44,47.2441 
  "/>
<polyline clip-path="url(#clip162)" style="stroke:#000000; stroke-width:2; stroke-opacity:0.1; fill:none" points="
  2091.48,1486.45 2091.48,47.2441 
  "/>
<polyline clip-path="url(#clip162)" style="stroke:#000000; stroke-width:2; stroke-opacity:0.1; fill:none" points="
  166.205,1445.72 2352.76,1445.72 
  "/>
<polyline clip-path="url(#clip162)" style="stroke:#000000; stroke-width:2; stroke-opacity:0.1; fill:none" points="
  166.205,1107.13 2352.76,1107.13 
  "/>
<polyline clip-path="url(#clip162)" style="stroke:#000000; stroke-width:2; stroke-opacity:0.1; fill:none" points="
  166.205,768.539 2352.76,768.539 
  "/>
<polyline clip-path="url(#clip162)" style="stroke:#000000; stroke-width:2; stroke-opacity:0.1; fill:none" points="
  166.205,429.951 2352.76,429.951 
  "/>
<polyline clip-path="url(#clip162)" style="stroke:#000000; stroke-width:2; stroke-opacity:0.1; fill:none" points="
  166.205,91.3622 2352.76,91.3622 
  "/>
<polyline clip-path="url(#clip160)" style="stroke:#000000; stroke-width:4; stroke-opacity:1; fill:none" points="
  166.205,1486.45 2352.76,1486.45 
  "/>
<polyline clip-path="url(#clip160)" style="stroke:#000000; stroke-width:4; stroke-opacity:1; fill:none" points="
  166.205,1486.45 166.205,47.2441 
  "/>
<polyline clip-path="url(#clip160)" style="stroke:#000000; stroke-width:4; stroke-opacity:1; fill:none" points="
  399.282,1486.45 399.282,1469.18 
  "/>
<polyline clip-path="url(#clip160)" style="stroke:#000000; stroke-width:4; stroke-opacity:1; fill:none" points="
  681.314,1486.45 681.314,1469.18 
  "/>
<polyline clip-path="url(#clip160)" style="stroke:#000000; stroke-width:4; stroke-opacity:1; fill:none" points="
  963.346,1486.45 963.346,1469.18 
  "/>
<polyline clip-path="url(#clip160)" style="stroke:#000000; stroke-width:4; stroke-opacity:1; fill:none" points="
  1245.38,1486.45 1245.38,1469.18 
  "/>
<polyline clip-path="url(#clip160)" style="stroke:#000000; stroke-width:4; stroke-opacity:1; fill:none" points="
  1527.41,1486.45 1527.41,1469.18 
  "/>
<polyline clip-path="url(#clip160)" style="stroke:#000000; stroke-width:4; stroke-opacity:1; fill:none" points="
  1809.44,1486.45 1809.44,1469.18 
  "/>
<polyline clip-path="url(#clip160)" style="stroke:#000000; stroke-width:4; stroke-opacity:1; fill:none" points="
  2091.48,1486.45 2091.48,1469.18 
  "/>
<polyline clip-path="url(#clip160)" style="stroke:#000000; stroke-width:4; stroke-opacity:1; fill:none" points="
  166.205,1445.72 192.443,1445.72 
  "/>
<polyline clip-path="url(#clip160)" style="stroke:#000000; stroke-width:4; stroke-opacity:1; fill:none" points="
  166.205,1107.13 192.443,1107.13 
  "/>
<polyline clip-path="url(#clip160)" style="stroke:#000000; stroke-width:4; stroke-opacity:1; fill:none" points="
  166.205,768.539 192.443,768.539 
  "/>
<polyline clip-path="url(#clip160)" style="stroke:#000000; stroke-width:4; stroke-opacity:1; fill:none" points="
  166.205,429.951 192.443,429.951 
  "/>
<polyline clip-path="url(#clip160)" style="stroke:#000000; stroke-width:4; stroke-opacity:1; fill:none" points="
  166.205,91.3622 192.443,91.3622 
  "/>
<path clip-path="url(#clip160)" d="M 0 0 M379.456 1525.04 L391.932 1525.04 L391.932 1528.83 L379.456 1528.83 L379.456 1525.04 Z" fill="#000000" fill-rule="evenodd" fill-opacity="1" /><path clip-path="url(#clip160)" d="M 0 0 M407.58 1520.78 Q404.432 1520.78 402.58 1522.93 Q400.752 1525.08 400.752 1528.83 Q400.752 1532.56 402.58 1534.73 Q404.432 1536.89 407.58 1536.89 Q410.728 1536.89 412.557 1534.73 Q414.409 1532.56 414.409 1528.83 Q414.409 1525.08 412.557 1522.93 Q410.728 1520.78 407.58 1520.78 M416.863 1506.12 L416.863 1510.38 Q415.103 1509.55 413.298 1509.11 Q411.516 1508.67 409.756 1508.67 Q405.127 1508.67 402.673 1511.8 Q400.242 1514.92 399.895 1521.24 Q401.261 1519.23 403.321 1518.16 Q405.381 1517.07 407.858 1517.07 Q413.066 1517.07 416.076 1520.24 Q419.108 1523.39 419.108 1528.83 Q419.108 1534.16 415.96 1537.37 Q412.812 1540.59 407.58 1540.59 Q401.585 1540.59 398.414 1536.01 Q395.242 1531.4 395.242 1522.67 Q395.242 1514.48 399.131 1509.62 Q403.02 1504.73 409.571 1504.73 Q411.33 1504.73 413.113 1505.08 Q414.918 1505.43 416.863 1506.12 Z" fill="#000000" fill-rule="evenodd" fill-opacity="1" /><path clip-path="url(#clip160)" d="M 0 0 M661.326 1525.04 L673.803 1525.04 L673.803 1528.83 L661.326 1528.83 L661.326 1525.04 Z" fill="#000000" fill-rule="evenodd" fill-opacity="1" /><path clip-path="url(#clip160)" d="M 0 0 M691.719 1509.43 L679.914 1527.88 L691.719 1527.88 L691.719 1509.43 M690.492 1505.36 L696.372 1505.36 L696.372 1527.88 L701.302 1527.88 L701.302 1531.77 L696.372 1531.77 L696.372 1539.92 L691.719 1539.92 L691.719 1531.77 L676.117 1531.77 L676.117 1527.26 L690.492 1505.36 Z" fill="#000000" fill-rule="evenodd" fill-opacity="1" /><path clip-path="url(#clip160)" d="M 0 0 M944.4 1525.04 L956.877 1525.04 L956.877 1528.83 L944.4 1528.83 L944.4 1525.04 Z" fill="#000000" fill-rule="evenodd" fill-opacity="1" /><path clip-path="url(#clip160)" d="M 0 0 M965.974 1535.98 L982.293 1535.98 L982.293 1539.92 L960.349 1539.92 L960.349 1535.98 Q963.011 1533.23 967.594 1528.6 Q972.2 1523.95 973.381 1522.61 Q975.626 1520.08 976.506 1518.35 Q977.409 1516.59 977.409 1514.9 Q977.409 1512.14 975.464 1510.41 Q973.543 1508.67 970.441 1508.67 Q968.242 1508.67 965.788 1509.43 Q963.358 1510.2 960.58 1511.75 L960.58 1507.03 Q963.404 1505.89 965.858 1505.31 Q968.312 1504.73 970.349 1504.73 Q975.719 1504.73 978.913 1507.42 Q982.108 1510.11 982.108 1514.6 Q982.108 1516.73 981.298 1518.65 Q980.511 1520.54 978.404 1523.14 Q977.825 1523.81 974.724 1527.03 Q971.622 1530.22 965.974 1535.98 Z" fill="#000000" fill-rule="evenodd" fill-opacity="1" /><path clip-path="url(#clip160)" d="M 0 0 M1245.38 1508.44 Q1241.77 1508.44 1239.94 1512 Q1238.13 1515.55 1238.13 1522.67 Q1238.13 1529.78 1239.94 1533.35 Q1241.77 1536.89 1245.38 1536.89 Q1249.01 1536.89 1250.82 1533.35 Q1252.65 1529.78 1252.65 1522.67 Q1252.65 1515.55 1250.82 1512 Q1249.01 1508.44 1245.38 1508.44 M1245.38 1504.73 Q1251.19 1504.73 1254.24 1509.34 Q1257.32 1513.92 1257.32 1522.67 Q1257.32 1531.4 1254.24 1536.01 Q1251.19 1540.59 1245.38 1540.59 Q1239.57 1540.59 1236.49 1536.01 Q1233.43 1531.4 1233.43 1522.67 Q1233.43 1513.92 1236.49 1509.34 Q1239.57 1504.73 1245.38 1504.73 Z" fill="#000000" fill-rule="evenodd" fill-opacity="1" /><path clip-path="url(#clip160)" d="M 0 0 M1522.06 1535.98 L1538.38 1535.98 L1538.38 1539.92 L1516.44 1539.92 L1516.44 1535.98 Q1519.1 1533.23 1523.68 1528.6 Q1528.29 1523.95 1529.47 1522.61 Q1531.72 1520.08 1532.6 1518.35 Q1533.5 1516.59 1533.5 1514.9 Q1533.5 1512.14 1531.55 1510.41 Q1529.63 1508.67 1526.53 1508.67 Q1524.33 1508.67 1521.88 1509.43 Q1519.45 1510.2 1516.67 1511.75 L1516.67 1507.03 Q1519.49 1505.89 1521.95 1505.31 Q1524.4 1504.73 1526.44 1504.73 Q1531.81 1504.73 1535 1507.42 Q1538.2 1510.11 1538.2 1514.6 Q1538.2 1516.73 1537.39 1518.65 Q1536.6 1520.54 1534.49 1523.14 Q1533.92 1523.81 1530.81 1527.03 Q1527.71 1530.22 1522.06 1535.98 Z" fill="#000000" fill-rule="evenodd" fill-opacity="1" /><path clip-path="url(#clip160)" d="M 0 0 M1812.45 1509.43 L1800.65 1527.88 L1812.45 1527.88 L1812.45 1509.43 M1811.23 1505.36 L1817.11 1505.36 L1817.11 1527.88 L1822.04 1527.88 L1822.04 1531.77 L1817.11 1531.77 L1817.11 1539.92 L1812.45 1539.92 L1812.45 1531.77 L1796.85 1531.77 L1796.85 1527.26 L1811.23 1505.36 Z" fill="#000000" fill-rule="evenodd" fill-opacity="1" /><path clip-path="url(#clip160)" d="M 0 0 M2091.88 1520.78 Q2088.73 1520.78 2086.88 1522.93 Q2085.05 1525.08 2085.05 1528.83 Q2085.05 1532.56 2086.88 1534.73 Q2088.73 1536.89 2091.88 1536.89 Q2095.03 1536.89 2096.86 1534.73 Q2098.71 1532.56 2098.71 1528.83 Q2098.71 1525.08 2096.86 1522.93 Q2095.03 1520.78 2091.88 1520.78 M2101.16 1506.12 L2101.16 1510.38 Q2099.4 1509.55 2097.6 1509.11 Q2095.82 1508.67 2094.06 1508.67 Q2089.43 1508.67 2086.97 1511.8 Q2084.54 1514.92 2084.2 1521.24 Q2085.56 1519.23 2087.62 1518.16 Q2089.68 1517.07 2092.16 1517.07 Q2097.37 1517.07 2100.38 1520.24 Q2103.41 1523.39 2103.41 1528.83 Q2103.41 1534.16 2100.26 1537.37 Q2097.11 1540.59 2091.88 1540.59 Q2085.89 1540.59 2082.71 1536.01 Q2079.54 1531.4 2079.54 1522.67 Q2079.54 1514.48 2083.43 1509.62 Q2087.32 1504.73 2093.87 1504.73 Q2095.63 1504.73 2097.41 1505.08 Q2099.22 1505.43 2101.16 1506.12 Z" fill="#000000" fill-rule="evenodd" fill-opacity="1" /><path clip-path="url(#clip160)" d="M 0 0 M130.26 1431.51 Q126.649 1431.51 124.82 1435.08 Q123.015 1438.62 123.015 1445.75 Q123.015 1452.86 124.82 1456.42 Q126.649 1459.96 130.26 1459.96 Q133.895 1459.96 135.7 1456.42 Q137.529 1452.86 137.529 1445.75 Q137.529 1438.62 135.7 1435.08 Q133.895 1431.51 130.26 1431.51 M130.26 1427.81 Q136.07 1427.81 139.126 1432.42 Q142.205 1437 142.205 1445.75 Q142.205 1454.48 139.126 1459.08 Q136.07 1463.67 130.26 1463.67 Q124.45 1463.67 121.371 1459.08 Q118.316 1454.48 118.316 1445.75 Q118.316 1437 121.371 1432.42 Q124.45 1427.81 130.26 1427.81 Z" fill="#000000" fill-rule="evenodd" fill-opacity="1" /><path clip-path="url(#clip160)" d="M 0 0 M71.8578 1120.47 L88.1772 1120.47 L88.1772 1124.41 L66.2328 1124.41 L66.2328 1120.47 Q68.8949 1117.72 73.4782 1113.09 Q78.0846 1108.44 79.2652 1107.09 Q81.5105 1104.57 82.3902 1102.83 Q83.2929 1101.07 83.2929 1099.38 Q83.2929 1096.63 81.3485 1094.89 Q79.4272 1093.16 76.3254 1093.16 Q74.1263 1093.16 71.6726 1093.92 Q69.2421 1094.69 66.4643 1096.24 L66.4643 1091.51 Q69.2884 1090.38 71.7421 1089.8 Q74.1958 1089.22 76.2328 1089.22 Q81.6031 1089.22 84.7976 1091.91 Q87.992 1094.59 87.992 1099.08 Q87.992 1101.21 87.1818 1103.13 Q86.3948 1105.03 84.2883 1107.62 Q83.7096 1108.3 80.6078 1111.51 Q77.5059 1114.71 71.8578 1120.47 Z" fill="#000000" fill-rule="evenodd" fill-opacity="1" /><path clip-path="url(#clip160)" d="M 0 0 M103.247 1092.93 Q99.6354 1092.93 97.8068 1096.49 Q96.0012 1100.03 96.0012 1107.16 Q96.0012 1114.27 97.8068 1117.83 Q99.6354 1121.37 103.247 1121.37 Q106.881 1121.37 108.686 1117.83 Q110.515 1114.27 110.515 1107.16 Q110.515 1100.03 108.686 1096.49 Q106.881 1092.93 103.247 1092.93 M103.247 1089.22 Q109.057 1089.22 112.112 1093.83 Q115.191 1098.41 115.191 1107.16 Q115.191 1115.89 112.112 1120.5 Q109.057 1125.08 103.247 1125.08 Q97.4364 1125.08 94.3577 1120.5 Q91.3022 1115.89 91.3022 1107.16 Q91.3022 1098.41 94.3577 1093.83 Q97.4364 1089.22 103.247 1089.22 Z" fill="#000000" fill-rule="evenodd" fill-opacity="1" /><path clip-path="url(#clip160)" d="M 0 0 M130.26 1092.93 Q126.649 1092.93 124.82 1096.49 Q123.015 1100.03 123.015 1107.16 Q123.015 1114.27 124.82 1117.83 Q126.649 1121.37 130.26 1121.37 Q133.895 1121.37 135.7 1117.83 Q137.529 1114.27 137.529 1107.16 Q137.529 1100.03 135.7 1096.49 Q133.895 1092.93 130.26 1092.93 M130.26 1089.22 Q136.07 1089.22 139.126 1093.83 Q142.205 1098.41 142.205 1107.16 Q142.205 1115.89 139.126 1120.5 Q136.07 1125.08 130.26 1125.08 Q124.45 1125.08 121.371 1120.5 Q118.316 1115.89 118.316 1107.16 Q118.316 1098.41 121.371 1093.83 Q124.45 1089.22 130.26 1089.22 Z" fill="#000000" fill-rule="evenodd" fill-opacity="1" /><path clip-path="url(#clip160)" d="M 0 0 M78.5939 755.333 L66.7884 773.782 L78.5939 773.782 L78.5939 755.333 M77.367 751.259 L83.2466 751.259 L83.2466 773.782 L88.1772 773.782 L88.1772 777.671 L83.2466 777.671 L83.2466 785.819 L78.5939 785.819 L78.5939 777.671 L62.9921 777.671 L62.9921 773.157 L77.367 751.259 Z" fill="#000000" fill-rule="evenodd" fill-opacity="1" /><path clip-path="url(#clip160)" d="M 0 0 M103.247 754.338 Q99.6354 754.338 97.8068 757.902 Q96.0012 761.444 96.0012 768.574 Q96.0012 775.68 97.8068 779.245 Q99.6354 782.787 103.247 782.787 Q106.881 782.787 108.686 779.245 Q110.515 775.68 110.515 768.574 Q110.515 761.444 108.686 757.902 Q106.881 754.338 103.247 754.338 M103.247 750.634 Q109.057 750.634 112.112 755.24 Q115.191 759.824 115.191 768.574 Q115.191 777.3 112.112 781.907 Q109.057 786.49 103.247 786.49 Q97.4364 786.49 94.3577 781.907 Q91.3022 777.3 91.3022 768.574 Q91.3022 759.824 94.3577 755.24 Q97.4364 750.634 103.247 750.634 Z" fill="#000000" fill-rule="evenodd" fill-opacity="1" /><path clip-path="url(#clip160)" d="M 0 0 M130.26 754.338 Q126.649 754.338 124.82 757.902 Q123.015 761.444 123.015 768.574 Q123.015 775.68 124.82 779.245 Q126.649 782.787 130.26 782.787 Q133.895 782.787 135.7 779.245 Q137.529 775.68 137.529 768.574 Q137.529 761.444 135.7 757.902 Q133.895 754.338 130.26 754.338 M130.26 750.634 Q136.07 750.634 139.126 755.24 Q142.205 759.824 142.205 768.574 Q142.205 777.3 139.126 781.907 Q136.07 786.49 130.26 786.49 Q124.45 786.49 121.371 781.907 Q118.316 777.3 118.316 768.574 Q118.316 759.824 121.371 755.24 Q124.45 750.634 130.26 750.634 Z" fill="#000000" fill-rule="evenodd" fill-opacity="1" /><path clip-path="url(#clip160)" d="M 0 0 M76.6495 428.087 Q73.5013 428.087 71.6495 430.24 Q69.8208 432.393 69.8208 436.143 Q69.8208 439.869 71.6495 442.045 Q73.5013 444.198 76.6495 444.198 Q79.7976 444.198 81.6263 442.045 Q83.4781 439.869 83.4781 436.143 Q83.4781 432.393 81.6263 430.24 Q79.7976 428.087 76.6495 428.087 M85.9318 413.434 L85.9318 417.694 Q84.1726 416.86 82.367 416.421 Q80.5846 415.981 78.8254 415.981 Q74.1958 415.981 71.7421 419.106 Q69.3115 422.231 68.9643 428.55 Q70.33 426.536 72.3902 425.471 Q74.4504 424.383 76.9272 424.383 Q82.1355 424.383 85.1448 427.555 Q88.1772 430.703 88.1772 436.143 Q88.1772 441.467 85.029 444.684 Q81.8809 447.902 76.6495 447.902 Q70.6541 447.902 67.4828 443.319 Q64.3116 438.712 64.3116 429.985 Q64.3116 421.791 68.2004 416.93 Q72.0893 412.046 78.6402 412.046 Q80.3994 412.046 82.1818 412.393 Q83.9874 412.74 85.9318 413.434 Z" fill="#000000" fill-rule="evenodd" fill-opacity="1" /><path clip-path="url(#clip160)" d="M 0 0 M103.247 415.749 Q99.6354 415.749 97.8068 419.314 Q96.0012 422.856 96.0012 429.985 Q96.0012 437.092 97.8068 440.657 Q99.6354 444.198 103.247 444.198 Q106.881 444.198 108.686 440.657 Q110.515 437.092 110.515 429.985 Q110.515 422.856 108.686 419.314 Q106.881 415.749 103.247 415.749 M103.247 412.046 Q109.057 412.046 112.112 416.652 Q115.191 421.235 115.191 429.985 Q115.191 438.712 112.112 443.319 Q109.057 447.902 103.247 447.902 Q97.4364 447.902 94.3577 443.319 Q91.3022 438.712 91.3022 429.985 Q91.3022 421.235 94.3577 416.652 Q97.4364 412.046 103.247 412.046 Z" fill="#000000" fill-rule="evenodd" fill-opacity="1" /><path clip-path="url(#clip160)" d="M 0 0 M130.26 415.749 Q126.649 415.749 124.82 419.314 Q123.015 422.856 123.015 429.985 Q123.015 437.092 124.82 440.657 Q126.649 444.198 130.26 444.198 Q133.895 444.198 135.7 440.657 Q137.529 437.092 137.529 429.985 Q137.529 422.856 135.7 419.314 Q133.895 415.749 130.26 415.749 M130.26 412.046 Q136.07 412.046 139.126 416.652 Q142.205 421.235 142.205 429.985 Q142.205 438.712 139.126 443.319 Q136.07 447.902 130.26 447.902 Q124.45 447.902 121.371 443.319 Q118.316 438.712 118.316 429.985 Q118.316 421.235 121.371 416.652 Q124.45 412.046 130.26 412.046 Z" fill="#000000" fill-rule="evenodd" fill-opacity="1" /><path clip-path="url(#clip160)" d="M 0 0 M76.3254 92.2302 Q72.9921 92.2302 71.0708 94.0126 Q69.1726 95.795 69.1726 98.92 Q69.1726 102.045 71.0708 103.827 Q72.9921 105.61 76.3254 105.61 Q79.6587 105.61 81.58 103.827 Q83.5013 102.022 83.5013 98.92 Q83.5013 95.795 81.58 94.0126 Q79.6819 92.2302 76.3254 92.2302 M71.6495 90.2395 Q68.6402 89.4987 66.9504 87.4386 Q65.2838 85.3784 65.2838 82.4154 Q65.2838 78.272 68.2236 75.8646 Q71.1865 73.4572 76.3254 73.4572 Q81.4874 73.4572 84.4272 75.8646 Q87.367 78.272 87.367 82.4154 Q87.367 85.3784 85.6772 87.4386 Q84.0105 89.4987 81.0244 90.2395 Q84.404 91.0265 86.279 93.3182 Q88.1772 95.6098 88.1772 98.92 Q88.1772 103.943 85.0985 106.628 Q82.0429 109.313 76.3254 109.313 Q70.6078 109.313 67.5291 106.628 Q64.4736 103.943 64.4736 98.92 Q64.4736 95.6098 66.3717 93.3182 Q68.2699 91.0265 71.6495 90.2395 M69.9365 82.8553 Q69.9365 85.5404 71.6032 87.0451 Q73.293 88.5497 76.3254 88.5497 Q79.3346 88.5497 81.0244 87.0451 Q82.7374 85.5404 82.7374 82.8553 Q82.7374 80.1701 81.0244 78.6655 Q79.3346 77.1608 76.3254 77.1608 Q73.293 77.1608 71.6032 78.6655 Q69.9365 80.1701 69.9365 82.8553 Z" fill="#000000" fill-rule="evenodd" fill-opacity="1" /><path clip-path="url(#clip160)" d="M 0 0 M103.247 77.1608 Q99.6354 77.1608 97.8068 80.7256 Q96.0012 84.2673 96.0012 91.3969 Q96.0012 98.5033 97.8068 102.068 Q99.6354 105.61 103.247 105.61 Q106.881 105.61 108.686 102.068 Q110.515 98.5033 110.515 91.3969 Q110.515 84.2673 108.686 80.7256 Q106.881 77.1608 103.247 77.1608 M103.247 73.4572 Q109.057 73.4572 112.112 78.0636 Q115.191 82.6469 115.191 91.3969 Q115.191 100.124 112.112 104.73 Q109.057 109.313 103.247 109.313 Q97.4364 109.313 94.3577 104.73 Q91.3022 100.124 91.3022 91.3969 Q91.3022 82.6469 94.3577 78.0636 Q97.4364 73.4572 103.247 73.4572 Z" fill="#000000" fill-rule="evenodd" fill-opacity="1" /><path clip-path="url(#clip160)" d="M 0 0 M130.26 77.1608 Q126.649 77.1608 124.82 80.7256 Q123.015 84.2673 123.015 91.3969 Q123.015 98.5033 124.82 102.068 Q126.649 105.61 130.26 105.61 Q133.895 105.61 135.7 102.068 Q137.529 98.5033 137.529 91.3969 Q137.529 84.2673 135.7 80.7256 Q133.895 77.1608 130.26 77.1608 M130.26 73.4572 Q136.07 73.4572 139.126 78.0636 Q142.205 82.6469 142.205 91.3969 Q142.205 100.124 139.126 104.73 Q136.07 109.313 130.26 109.313 Q124.45 109.313 121.371 104.73 Q118.316 100.124 118.316 91.3969 Q118.316 82.6469 121.371 78.0636 Q124.45 73.4572 130.26 73.4572 Z" fill="#000000" fill-rule="evenodd" fill-opacity="1" /><path clip-path="url(#clip162)" d="
M286.469 1444.02 L286.469 1445.72 L314.672 1445.72 L314.672 1444.02 L286.469 1444.02 L286.469 1444.02  Z
  " fill="#009af9" fill-rule="evenodd" fill-opacity="1"/>
<polyline clip-path="url(#clip162)" style="stroke:#000000; stroke-width:4; stroke-opacity:1; fill:none" points="
  286.469,1444.02 286.469,1445.72 314.672,1445.72 314.672,1444.02 286.469,1444.02 
  "/>
<path clip-path="url(#clip162)" d="
M314.672 1444.02 L314.672 1445.72 L342.875 1445.72 L342.875 1444.02 L314.672 1444.02 L314.672 1444.02  Z
  " fill="#009af9" fill-rule="evenodd" fill-opacity="1"/>
<polyline clip-path="url(#clip162)" style="stroke:#000000; stroke-width:4; stroke-opacity:1; fill:none" points="
  314.672,1444.02 314.672,1445.72 342.875,1445.72 342.875,1444.02 314.672,1444.02 
  "/>
<path clip-path="url(#clip162)" d="
M342.875 1442.33 L342.875 1445.72 L371.079 1445.72 L371.079 1442.33 L342.875 1442.33 L342.875 1442.33  Z
  " fill="#009af9" fill-rule="evenodd" fill-opacity="1"/>
<polyline clip-path="url(#clip162)" style="stroke:#000000; stroke-width:4; stroke-opacity:1; fill:none" points="
  342.875,1442.33 342.875,1445.72 371.079,1445.72 371.079,1442.33 342.875,1442.33 
  "/>
<path clip-path="url(#clip162)" d="
M371.079 1444.02 L371.079 1445.72 L399.282 1445.72 L399.282 1444.02 L371.079 1444.02 L371.079 1444.02  Z
  " fill="#009af9" fill-rule="evenodd" fill-opacity="1"/>
<polyline clip-path="url(#clip162)" style="stroke:#000000; stroke-width:4; stroke-opacity:1; fill:none" points="
  371.079,1444.02 371.079,1445.72 399.282,1445.72 399.282,1444.02 371.079,1444.02 
  "/>
<path clip-path="url(#clip162)" d="
M399.282 1444.02 L399.282 1445.72 L427.485 1445.72 L427.485 1444.02 L399.282 1444.02 L399.282 1444.02  Z
  " fill="#009af9" fill-rule="evenodd" fill-opacity="1"/>
<polyline clip-path="url(#clip162)" style="stroke:#000000; stroke-width:4; stroke-opacity:1; fill:none" points="
  399.282,1444.02 399.282,1445.72 427.485,1445.72 427.485,1444.02 399.282,1444.02 
  "/>
<path clip-path="url(#clip162)" d="
M427.485 1444.02 L427.485 1445.72 L455.688 1445.72 L455.688 1444.02 L427.485 1444.02 L427.485 1444.02  Z
  " fill="#009af9" fill-rule="evenodd" fill-opacity="1"/>
<polyline clip-path="url(#clip162)" style="stroke:#000000; stroke-width:4; stroke-opacity:1; fill:none" points="
  427.485,1444.02 427.485,1445.72 455.688,1445.72 455.688,1444.02 427.485,1444.02 
  "/>
<path clip-path="url(#clip162)" d="
M455.688 1445.72 L455.688 1445.72 L483.891 1445.72 L483.891 1445.72 L455.688 1445.72 L455.688 1445.72  Z
  " fill="#009af9" fill-rule="evenodd" fill-opacity="1"/>
<polyline clip-path="url(#clip162)" style="stroke:#000000; stroke-width:4; stroke-opacity:1; fill:none" points="
  455.688,1445.72 455.688,1445.72 483.891,1445.72 455.688,1445.72 
  "/>
<path clip-path="url(#clip162)" d="
M483.891 1440.64 L483.891 1445.72 L512.095 1445.72 L512.095 1440.64 L483.891 1440.64 L483.891 1440.64  Z
  " fill="#009af9" fill-rule="evenodd" fill-opacity="1"/>
<polyline clip-path="url(#clip162)" style="stroke:#000000; stroke-width:4; stroke-opacity:1; fill:none" points="
  483.891,1440.64 483.891,1445.72 512.095,1445.72 512.095,1440.64 483.891,1440.64 
  "/>
<path clip-path="url(#clip162)" d="
M512.095 1437.25 L512.095 1445.72 L540.298 1445.72 L540.298 1437.25 L512.095 1437.25 L512.095 1437.25  Z
  " fill="#009af9" fill-rule="evenodd" fill-opacity="1"/>
<polyline clip-path="url(#clip162)" style="stroke:#000000; stroke-width:4; stroke-opacity:1; fill:none" points="
  512.095,1437.25 512.095,1445.72 540.298,1445.72 540.298,1437.25 512.095,1437.25 
  "/>
<path clip-path="url(#clip162)" d="
M540.298 1437.25 L540.298 1445.72 L568.501 1445.72 L568.501 1437.25 L540.298 1437.25 L540.298 1437.25  Z
  " fill="#009af9" fill-rule="evenodd" fill-opacity="1"/>
<polyline clip-path="url(#clip162)" style="stroke:#000000; stroke-width:4; stroke-opacity:1; fill:none" points="
  540.298,1437.25 540.298,1445.72 568.501,1445.72 568.501,1437.25 540.298,1437.25 
  "/>
<path clip-path="url(#clip162)" d="
M568.501 1428.79 L568.501 1445.72 L596.704 1445.72 L596.704 1428.79 L568.501 1428.79 L568.501 1428.79  Z
  " fill="#009af9" fill-rule="evenodd" fill-opacity="1"/>
<polyline clip-path="url(#clip162)" style="stroke:#000000; stroke-width:4; stroke-opacity:1; fill:none" points="
  568.501,1428.79 568.501,1445.72 596.704,1445.72 596.704,1428.79 568.501,1428.79 
  "/>
<path clip-path="url(#clip162)" d="
M596.704 1422.01 L596.704 1445.72 L624.908 1445.72 L624.908 1422.01 L596.704 1422.01 L596.704 1422.01  Z
  " fill="#009af9" fill-rule="evenodd" fill-opacity="1"/>
<polyline clip-path="url(#clip162)" style="stroke:#000000; stroke-width:4; stroke-opacity:1; fill:none" points="
  596.704,1422.01 596.704,1445.72 624.908,1445.72 624.908,1422.01 596.704,1422.01 
  "/>
<path clip-path="url(#clip162)" d="
M624.908 1413.55 L624.908 1445.72 L653.111 1445.72 L653.111 1413.55 L624.908 1413.55 L624.908 1413.55  Z
  " fill="#009af9" fill-rule="evenodd" fill-opacity="1"/>
<polyline clip-path="url(#clip162)" style="stroke:#000000; stroke-width:4; stroke-opacity:1; fill:none" points="
  624.908,1413.55 624.908,1445.72 653.111,1445.72 653.111,1413.55 624.908,1413.55 
  "/>
<path clip-path="url(#clip162)" d="
M653.111 1413.55 L653.111 1445.72 L681.314 1445.72 L681.314 1413.55 L653.111 1413.55 L653.111 1413.55  Z
  " fill="#009af9" fill-rule="evenodd" fill-opacity="1"/>
<polyline clip-path="url(#clip162)" style="stroke:#000000; stroke-width:4; stroke-opacity:1; fill:none" points="
  653.111,1413.55 653.111,1445.72 681.314,1445.72 681.314,1413.55 653.111,1413.55 
  "/>
<path clip-path="url(#clip162)" d="
M681.314 1418.63 L681.314 1445.72 L709.517 1445.72 L709.517 1418.63 L681.314 1418.63 L681.314 1418.63  Z
  " fill="#009af9" fill-rule="evenodd" fill-opacity="1"/>
<polyline clip-path="url(#clip162)" style="stroke:#000000; stroke-width:4; stroke-opacity:1; fill:none" points="
  681.314,1418.63 681.314,1445.72 709.517,1445.72 709.517,1418.63 681.314,1418.63 
  "/>
<path clip-path="url(#clip162)" d="
M709.517 1418.63 L709.517 1445.72 L737.721 1445.72 L737.721 1418.63 L709.517 1418.63 L709.517 1418.63  Z
  " fill="#009af9" fill-rule="evenodd" fill-opacity="1"/>
<polyline clip-path="url(#clip162)" style="stroke:#000000; stroke-width:4; stroke-opacity:1; fill:none" points="
  709.517,1418.63 709.517,1445.72 737.721,1445.72 737.721,1418.63 709.517,1418.63 
  "/>
<path clip-path="url(#clip162)" d="
M737.721 1408.47 L737.721 1445.72 L765.924 1445.72 L765.924 1408.47 L737.721 1408.47 L737.721 1408.47  Z
  " fill="#009af9" fill-rule="evenodd" fill-opacity="1"/>
<polyline clip-path="url(#clip162)" style="stroke:#000000; stroke-width:4; stroke-opacity:1; fill:none" points="
  737.721,1408.47 737.721,1445.72 765.924,1445.72 765.924,1408.47 737.721,1408.47 
  "/>
<path clip-path="url(#clip162)" d="
M765.924 1381.38 L765.924 1445.72 L794.127 1445.72 L794.127 1381.38 L765.924 1381.38 L765.924 1381.38  Z
  " fill="#009af9" fill-rule="evenodd" fill-opacity="1"/>
<polyline clip-path="url(#clip162)" style="stroke:#000000; stroke-width:4; stroke-opacity:1; fill:none" points="
  765.924,1381.38 765.924,1445.72 794.127,1445.72 794.127,1381.38 765.924,1381.38 
  "/>
<path clip-path="url(#clip162)" d="
M794.127 1393.23 L794.127 1445.72 L822.33 1445.72 L822.33 1393.23 L794.127 1393.23 L794.127 1393.23  Z
  " fill="#009af9" fill-rule="evenodd" fill-opacity="1"/>
<polyline clip-path="url(#clip162)" style="stroke:#000000; stroke-width:4; stroke-opacity:1; fill:none" points="
  794.127,1393.23 794.127,1445.72 822.33,1445.72 822.33,1393.23 794.127,1393.23 
  "/>
<path clip-path="url(#clip162)" d="
M822.33 1361.07 L822.33 1445.72 L850.533 1445.72 L850.533 1361.07 L822.33 1361.07 L822.33 1361.07  Z
  " fill="#009af9" fill-rule="evenodd" fill-opacity="1"/>
<polyline clip-path="url(#clip162)" style="stroke:#000000; stroke-width:4; stroke-opacity:1; fill:none" points="
  822.33,1361.07 822.33,1445.72 850.533,1445.72 850.533,1361.07 822.33,1361.07 
  "/>
<path clip-path="url(#clip162)" d="
M850.533 1354.3 L850.533 1445.72 L878.737 1445.72 L878.737 1354.3 L850.533 1354.3 L850.533 1354.3  Z
  " fill="#009af9" fill-rule="evenodd" fill-opacity="1"/>
<polyline clip-path="url(#clip162)" style="stroke:#000000; stroke-width:4; stroke-opacity:1; fill:none" points="
  850.533,1354.3 850.533,1445.72 878.737,1445.72 878.737,1354.3 850.533,1354.3 
  "/>
<path clip-path="url(#clip162)" d="
M878.737 1345.83 L878.737 1445.72 L906.94 1445.72 L906.94 1345.83 L878.737 1345.83 L878.737 1345.83  Z
  " fill="#009af9" fill-rule="evenodd" fill-opacity="1"/>
<polyline clip-path="url(#clip162)" style="stroke:#000000; stroke-width:4; stroke-opacity:1; fill:none" points="
  878.737,1345.83 878.737,1445.72 906.94,1445.72 906.94,1345.83 878.737,1345.83 
  "/>
<path clip-path="url(#clip162)" d="
M906.94 1327.21 L906.94 1445.72 L935.143 1445.72 L935.143 1327.21 L906.94 1327.21 L906.94 1327.21  Z
  " fill="#009af9" fill-rule="evenodd" fill-opacity="1"/>
<polyline clip-path="url(#clip162)" style="stroke:#000000; stroke-width:4; stroke-opacity:1; fill:none" points="
  906.94,1327.21 906.94,1445.72 935.143,1445.72 935.143,1327.21 906.94,1327.21 
  "/>
<path clip-path="url(#clip162)" d="
M935.143 1339.06 L935.143 1445.72 L963.346 1445.72 L963.346 1339.06 L935.143 1339.06 L935.143 1339.06  Z
  " fill="#009af9" fill-rule="evenodd" fill-opacity="1"/>
<polyline clip-path="url(#clip162)" style="stroke:#000000; stroke-width:4; stroke-opacity:1; fill:none" points="
  935.143,1339.06 935.143,1445.72 963.346,1445.72 963.346,1339.06 935.143,1339.06 
  "/>
<path clip-path="url(#clip162)" d="
M963.346 1311.97 L963.346 1445.72 L991.55 1445.72 L991.55 1311.97 L963.346 1311.97 L963.346 1311.97  Z
  " fill="#009af9" fill-rule="evenodd" fill-opacity="1"/>
<polyline clip-path="url(#clip162)" style="stroke:#000000; stroke-width:4; stroke-opacity:1; fill:none" points="
  963.346,1311.97 963.346,1445.72 991.55,1445.72 991.55,1311.97 963.346,1311.97 
  "/>
<path clip-path="url(#clip162)" d="
M991.55 1308.59 L991.55 1445.72 L1019.75 1445.72 L1019.75 1308.59 L991.55 1308.59 L991.55 1308.59  Z
  " fill="#009af9" fill-rule="evenodd" fill-opacity="1"/>
<polyline clip-path="url(#clip162)" style="stroke:#000000; stroke-width:4; stroke-opacity:1; fill:none" points="
  991.55,1308.59 991.55,1445.72 1019.75,1445.72 1019.75,1308.59 991.55,1308.59 
  "/>
<path clip-path="url(#clip162)" d="
M1019.75 1284.89 L1019.75 1445.72 L1047.96 1445.72 L1047.96 1284.89 L1019.75 1284.89 L1019.75 1284.89  Z
  " fill="#009af9" fill-rule="evenodd" fill-opacity="1"/>
<polyline clip-path="url(#clip162)" style="stroke:#000000; stroke-width:4; stroke-opacity:1; fill:none" points="
  1019.75,1284.89 1019.75,1445.72 1047.96,1445.72 1047.96,1284.89 1019.75,1284.89 
  "/>
<path clip-path="url(#clip162)" d="
M1047.96 1301.82 L1047.96 1445.72 L1076.16 1445.72 L1076.16 1301.82 L1047.96 1301.82 L1047.96 1301.82  Z
  " fill="#009af9" fill-rule="evenodd" fill-opacity="1"/>
<polyline clip-path="url(#clip162)" style="stroke:#000000; stroke-width:4; stroke-opacity:1; fill:none" points="
  1047.96,1301.82 1047.96,1445.72 1076.16,1445.72 1076.16,1301.82 1047.96,1301.82 
  "/>
<path clip-path="url(#clip162)" d="
M1076.16 1256.11 L1076.16 1445.72 L1104.36 1445.72 L1104.36 1256.11 L1076.16 1256.11 L1076.16 1256.11  Z
  " fill="#009af9" fill-rule="evenodd" fill-opacity="1"/>
<polyline clip-path="url(#clip162)" style="stroke:#000000; stroke-width:4; stroke-opacity:1; fill:none" points="
  1076.16,1256.11 1076.16,1445.72 1104.36,1445.72 1104.36,1256.11 1076.16,1256.11 
  "/>
<path clip-path="url(#clip162)" d="
M1104.36 1210.4 L1104.36 1445.72 L1132.57 1445.72 L1132.57 1210.4 L1104.36 1210.4 L1104.36 1210.4  Z
  " fill="#009af9" fill-rule="evenodd" fill-opacity="1"/>
<polyline clip-path="url(#clip162)" style="stroke:#000000; stroke-width:4; stroke-opacity:1; fill:none" points="
  1104.36,1210.4 1104.36,1445.72 1132.57,1445.72 1132.57,1210.4 1104.36,1210.4 
  "/>
<path clip-path="url(#clip162)" d="
M1132.57 1273.04 L1132.57 1445.72 L1160.77 1445.72 L1160.77 1273.04 L1132.57 1273.04 L1132.57 1273.04  Z
  " fill="#009af9" fill-rule="evenodd" fill-opacity="1"/>
<polyline clip-path="url(#clip162)" style="stroke:#000000; stroke-width:4; stroke-opacity:1; fill:none" points="
  1132.57,1273.04 1132.57,1445.72 1160.77,1445.72 1160.77,1273.04 1132.57,1273.04 
  "/>
<path clip-path="url(#clip162)" d="
M1160.77 1230.71 L1160.77 1445.72 L1188.97 1445.72 L1188.97 1230.71 L1160.77 1230.71 L1160.77 1230.71  Z
  " fill="#009af9" fill-rule="evenodd" fill-opacity="1"/>
<polyline clip-path="url(#clip162)" style="stroke:#000000; stroke-width:4; stroke-opacity:1; fill:none" points="
  1160.77,1230.71 1160.77,1445.72 1188.97,1445.72 1188.97,1230.71 1160.77,1230.71 
  "/>
<path clip-path="url(#clip162)" d="
M1188.97 1257.8 L1188.97 1445.72 L1217.18 1445.72 L1217.18 1257.8 L1188.97 1257.8 L1188.97 1257.8  Z
  " fill="#009af9" fill-rule="evenodd" fill-opacity="1"/>
<polyline clip-path="url(#clip162)" style="stroke:#000000; stroke-width:4; stroke-opacity:1; fill:none" points="
  1188.97,1257.8 1188.97,1445.72 1217.18,1445.72 1217.18,1257.8 1188.97,1257.8 
  "/>
<path clip-path="url(#clip162)" d="
M1217.18 1249.33 L1217.18 1445.72 L1245.38 1445.72 L1245.38 1249.33 L1217.18 1249.33 L1217.18 1249.33  Z
  " fill="#009af9" fill-rule="evenodd" fill-opacity="1"/>
<polyline clip-path="url(#clip162)" style="stroke:#000000; stroke-width:4; stroke-opacity:1; fill:none" points="
  1217.18,1249.33 1217.18,1445.72 1245.38,1445.72 1245.38,1249.33 1217.18,1249.33 
  "/>
<path clip-path="url(#clip162)" d="
M1245.38 1230.71 L1245.38 1445.72 L1273.58 1445.72 L1273.58 1230.71 L1245.38 1230.71 L1245.38 1230.71  Z
  " fill="#009af9" fill-rule="evenodd" fill-opacity="1"/>
<polyline clip-path="url(#clip162)" style="stroke:#000000; stroke-width:4; stroke-opacity:1; fill:none" points="
  1245.38,1230.71 1245.38,1445.72 1273.58,1445.72 1273.58,1230.71 1245.38,1230.71 
  "/>
<path clip-path="url(#clip162)" d="
M1273.58 1284.89 L1273.58 1445.72 L1301.79 1445.72 L1301.79 1284.89 L1273.58 1284.89 L1273.58 1284.89  Z
  " fill="#009af9" fill-rule="evenodd" fill-opacity="1"/>
<polyline clip-path="url(#clip162)" style="stroke:#000000; stroke-width:4; stroke-opacity:1; fill:none" points="
  1273.58,1284.89 1273.58,1445.72 1301.79,1445.72 1301.79,1284.89 1273.58,1284.89 
  "/>
<path clip-path="url(#clip162)" d="
M1301.79 1157.92 L1301.79 1445.72 L1329.99 1445.72 L1329.99 1157.92 L1301.79 1157.92 L1301.79 1157.92  Z
  " fill="#009af9" fill-rule="evenodd" fill-opacity="1"/>
<polyline clip-path="url(#clip162)" style="stroke:#000000; stroke-width:4; stroke-opacity:1; fill:none" points="
  1301.79,1157.92 1301.79,1445.72 1329.99,1445.72 1329.99,1157.92 1301.79,1157.92 
  "/>
<path clip-path="url(#clip162)" d="
M1329.99 814.248 L1329.99 1445.72 L1358.19 1445.72 L1358.19 814.248 L1329.99 814.248 L1329.99 814.248  Z
  " fill="#009af9" fill-rule="evenodd" fill-opacity="1"/>
<polyline clip-path="url(#clip162)" style="stroke:#000000; stroke-width:4; stroke-opacity:1; fill:none" points="
  1329.99,814.248 1329.99,1445.72 1358.19,1445.72 1358.19,814.248 1329.99,814.248 
  "/>
<path clip-path="url(#clip162)" d="
M1358.19 87.9763 L1358.19 1445.72 L1386.39 1445.72 L1386.39 87.9763 L1358.19 87.9763 L1358.19 87.9763  Z
  " fill="#009af9" fill-rule="evenodd" fill-opacity="1"/>
<polyline clip-path="url(#clip162)" style="stroke:#000000; stroke-width:4; stroke-opacity:1; fill:none" points="
  1358.19,87.9763 1358.19,1445.72 1386.39,1445.72 1386.39,87.9763 1358.19,87.9763 
  "/>
<path clip-path="url(#clip162)" d="
M1386.39 172.623 L1386.39 1445.72 L1414.6 1445.72 L1414.6 172.623 L1386.39 172.623 L1386.39 172.623  Z
  " fill="#009af9" fill-rule="evenodd" fill-opacity="1"/>
<polyline clip-path="url(#clip162)" style="stroke:#000000; stroke-width:4; stroke-opacity:1; fill:none" points="
  1386.39,172.623 1386.39,1445.72 1414.6,1445.72 1414.6,172.623 1386.39,172.623 
  "/>
<path clip-path="url(#clip162)" d="
M1414.6 848.107 L1414.6 1445.72 L1442.8 1445.72 L1442.8 848.107 L1414.6 848.107 L1414.6 848.107  Z
  " fill="#009af9" fill-rule="evenodd" fill-opacity="1"/>
<polyline clip-path="url(#clip162)" style="stroke:#000000; stroke-width:4; stroke-opacity:1; fill:none" points="
  1414.6,848.107 1414.6,1445.72 1442.8,1445.72 1442.8,848.107 1414.6,848.107 
  "/>
<path clip-path="url(#clip162)" d="
M1442.8 1208.7 L1442.8 1445.72 L1471 1445.72 L1471 1208.7 L1442.8 1208.7 L1442.8 1208.7  Z
  " fill="#009af9" fill-rule="evenodd" fill-opacity="1"/>
<polyline clip-path="url(#clip162)" style="stroke:#000000; stroke-width:4; stroke-opacity:1; fill:none" points="
  1442.8,1208.7 1442.8,1445.72 1471,1445.72 1471,1208.7 1442.8,1208.7 
  "/>
<path clip-path="url(#clip162)" d="
M1471 1279.81 L1471 1445.72 L1499.21 1445.72 L1499.21 1279.81 L1471 1279.81 L1471 1279.81  Z
  " fill="#009af9" fill-rule="evenodd" fill-opacity="1"/>
<polyline clip-path="url(#clip162)" style="stroke:#000000; stroke-width:4; stroke-opacity:1; fill:none" points="
  1471,1279.81 1471,1445.72 1499.21,1445.72 1499.21,1279.81 1471,1279.81 
  "/>
<path clip-path="url(#clip162)" d="
M1499.21 1328.9 L1499.21 1445.72 L1527.41 1445.72 L1527.41 1328.9 L1499.21 1328.9 L1499.21 1328.9  Z
  " fill="#009af9" fill-rule="evenodd" fill-opacity="1"/>
<polyline clip-path="url(#clip162)" style="stroke:#000000; stroke-width:4; stroke-opacity:1; fill:none" points="
  1499.21,1328.9 1499.21,1445.72 1527.41,1445.72 1527.41,1328.9 1499.21,1328.9 
  "/>
<path clip-path="url(#clip162)" d="
M1527.41 1333.98 L1527.41 1445.72 L1555.61 1445.72 L1555.61 1333.98 L1527.41 1333.98 L1527.41 1333.98  Z
  " fill="#009af9" fill-rule="evenodd" fill-opacity="1"/>
<polyline clip-path="url(#clip162)" style="stroke:#000000; stroke-width:4; stroke-opacity:1; fill:none" points="
  1527.41,1333.98 1527.41,1445.72 1555.61,1445.72 1555.61,1333.98 1527.41,1333.98 
  "/>
<path clip-path="url(#clip162)" d="
M1555.61 1357.68 L1555.61 1445.72 L1583.82 1445.72 L1583.82 1357.68 L1555.61 1357.68 L1555.61 1357.68  Z
  " fill="#009af9" fill-rule="evenodd" fill-opacity="1"/>
<polyline clip-path="url(#clip162)" style="stroke:#000000; stroke-width:4; stroke-opacity:1; fill:none" points="
  1555.61,1357.68 1555.61,1445.72 1583.82,1445.72 1583.82,1357.68 1555.61,1357.68 
  "/>
<path clip-path="url(#clip162)" d="
M1583.82 1354.3 L1583.82 1445.72 L1612.02 1445.72 L1612.02 1354.3 L1583.82 1354.3 L1583.82 1354.3  Z
  " fill="#009af9" fill-rule="evenodd" fill-opacity="1"/>
<polyline clip-path="url(#clip162)" style="stroke:#000000; stroke-width:4; stroke-opacity:1; fill:none" points="
  1583.82,1354.3 1583.82,1445.72 1612.02,1445.72 1612.02,1354.3 1583.82,1354.3 
  "/>
<path clip-path="url(#clip162)" d="
M1612.02 1359.38 L1612.02 1445.72 L1640.22 1445.72 L1640.22 1359.38 L1612.02 1359.38 L1612.02 1359.38  Z
  " fill="#009af9" fill-rule="evenodd" fill-opacity="1"/>
<polyline clip-path="url(#clip162)" style="stroke:#000000; stroke-width:4; stroke-opacity:1; fill:none" points="
  1612.02,1359.38 1612.02,1445.72 1640.22,1445.72 1640.22,1359.38 1612.02,1359.38 
  "/>
<path clip-path="url(#clip162)" d="
M1640.22 1386.46 L1640.22 1445.72 L1668.43 1445.72 L1668.43 1386.46 L1640.22 1386.46 L1640.22 1386.46  Z
  " fill="#009af9" fill-rule="evenodd" fill-opacity="1"/>
<polyline clip-path="url(#clip162)" style="stroke:#000000; stroke-width:4; stroke-opacity:1; fill:none" points="
  1640.22,1386.46 1640.22,1445.72 1668.43,1445.72 1668.43,1386.46 1640.22,1386.46 
  "/>
<path clip-path="url(#clip162)" d="
M1668.43 1394.93 L1668.43 1445.72 L1696.63 1445.72 L1696.63 1394.93 L1668.43 1394.93 L1668.43 1394.93  Z
  " fill="#009af9" fill-rule="evenodd" fill-opacity="1"/>
<polyline clip-path="url(#clip162)" style="stroke:#000000; stroke-width:4; stroke-opacity:1; fill:none" points="
  1668.43,1394.93 1668.43,1445.72 1696.63,1445.72 1696.63,1394.93 1668.43,1394.93 
  "/>
<path clip-path="url(#clip162)" d="
M1696.63 1383.08 L1696.63 1445.72 L1724.83 1445.72 L1724.83 1383.08 L1696.63 1383.08 L1696.63 1383.08  Z
  " fill="#009af9" fill-rule="evenodd" fill-opacity="1"/>
<polyline clip-path="url(#clip162)" style="stroke:#000000; stroke-width:4; stroke-opacity:1; fill:none" points="
  1696.63,1383.08 1696.63,1445.72 1724.83,1445.72 1724.83,1383.08 1696.63,1383.08 
  "/>
<path clip-path="url(#clip162)" d="
M1724.83 1391.54 L1724.83 1445.72 L1753.04 1445.72 L1753.04 1391.54 L1724.83 1391.54 L1724.83 1391.54  Z
  " fill="#009af9" fill-rule="evenodd" fill-opacity="1"/>
<polyline clip-path="url(#clip162)" style="stroke:#000000; stroke-width:4; stroke-opacity:1; fill:none" points="
  1724.83,1391.54 1724.83,1445.72 1753.04,1445.72 1753.04,1391.54 1724.83,1391.54 
  "/>
<path clip-path="url(#clip162)" d="
M1753.04 1394.93 L1753.04 1445.72 L1781.24 1445.72 L1781.24 1394.93 L1753.04 1394.93 L1753.04 1394.93  Z
  " fill="#009af9" fill-rule="evenodd" fill-opacity="1"/>
<polyline clip-path="url(#clip162)" style="stroke:#000000; stroke-width:4; stroke-opacity:1; fill:none" points="
  1753.04,1394.93 1753.04,1445.72 1781.24,1445.72 1781.24,1394.93 1753.04,1394.93 
  "/>
<path clip-path="url(#clip162)" d="
M1781.24 1427.09 L1781.24 1445.72 L1809.44 1445.72 L1809.44 1427.09 L1781.24 1427.09 L1781.24 1427.09  Z
  " fill="#009af9" fill-rule="evenodd" fill-opacity="1"/>
<polyline clip-path="url(#clip162)" style="stroke:#000000; stroke-width:4; stroke-opacity:1; fill:none" points="
  1781.24,1427.09 1781.24,1445.72 1809.44,1445.72 1809.44,1427.09 1781.24,1427.09 
  "/>
<path clip-path="url(#clip162)" d="
M1809.44 1415.24 L1809.44 1445.72 L1837.65 1445.72 L1837.65 1415.24 L1809.44 1415.24 L1809.44 1415.24  Z
  " fill="#009af9" fill-rule="evenodd" fill-opacity="1"/>
<polyline clip-path="url(#clip162)" style="stroke:#000000; stroke-width:4; stroke-opacity:1; fill:none" points="
  1809.44,1415.24 1809.44,1445.72 1837.65,1445.72 1837.65,1415.24 1809.44,1415.24 
  "/>
<path clip-path="url(#clip162)" d="
M1837.65 1425.4 L1837.65 1445.72 L1865.85 1445.72 L1865.85 1425.4 L1837.65 1425.4 L1837.65 1425.4  Z
  " fill="#009af9" fill-rule="evenodd" fill-opacity="1"/>
<polyline clip-path="url(#clip162)" style="stroke:#000000; stroke-width:4; stroke-opacity:1; fill:none" points="
  1837.65,1425.4 1837.65,1445.72 1865.85,1445.72 1865.85,1425.4 1837.65,1425.4 
  "/>
<path clip-path="url(#clip162)" d="
M1865.85 1435.56 L1865.85 1445.72 L1894.05 1445.72 L1894.05 1435.56 L1865.85 1435.56 L1865.85 1435.56  Z
  " fill="#009af9" fill-rule="evenodd" fill-opacity="1"/>
<polyline clip-path="url(#clip162)" style="stroke:#000000; stroke-width:4; stroke-opacity:1; fill:none" points="
  1865.85,1435.56 1865.85,1445.72 1894.05,1445.72 1894.05,1435.56 1865.85,1435.56 
  "/>
<path clip-path="url(#clip162)" d="
M1894.05 1415.24 L1894.05 1445.72 L1922.26 1445.72 L1922.26 1415.24 L1894.05 1415.24 L1894.05 1415.24  Z
  " fill="#009af9" fill-rule="evenodd" fill-opacity="1"/>
<polyline clip-path="url(#clip162)" style="stroke:#000000; stroke-width:4; stroke-opacity:1; fill:none" points="
  1894.05,1415.24 1894.05,1445.72 1922.26,1445.72 1922.26,1415.24 1894.05,1415.24 
  "/>
<path clip-path="url(#clip162)" d="
M1922.26 1435.56 L1922.26 1445.72 L1950.46 1445.72 L1950.46 1435.56 L1922.26 1435.56 L1922.26 1435.56  Z
  " fill="#009af9" fill-rule="evenodd" fill-opacity="1"/>
<polyline clip-path="url(#clip162)" style="stroke:#000000; stroke-width:4; stroke-opacity:1; fill:none" points="
  1922.26,1435.56 1922.26,1445.72 1950.46,1445.72 1950.46,1435.56 1922.26,1435.56 
  "/>
<path clip-path="url(#clip162)" d="
M1950.46 1437.25 L1950.46 1445.72 L1978.66 1445.72 L1978.66 1437.25 L1950.46 1437.25 L1950.46 1437.25  Z
  " fill="#009af9" fill-rule="evenodd" fill-opacity="1"/>
<polyline clip-path="url(#clip162)" style="stroke:#000000; stroke-width:4; stroke-opacity:1; fill:none" points="
  1950.46,1437.25 1950.46,1445.72 1978.66,1445.72 1978.66,1437.25 1950.46,1437.25 
  "/>
<path clip-path="url(#clip162)" d="
M1978.66 1437.25 L1978.66 1445.72 L2006.87 1445.72 L2006.87 1437.25 L1978.66 1437.25 L1978.66 1437.25  Z
  " fill="#009af9" fill-rule="evenodd" fill-opacity="1"/>
<polyline clip-path="url(#clip162)" style="stroke:#000000; stroke-width:4; stroke-opacity:1; fill:none" points="
  1978.66,1437.25 1978.66,1445.72 2006.87,1445.72 2006.87,1437.25 1978.66,1437.25 
  "/>
<path clip-path="url(#clip162)" d="
M2006.87 1444.02 L2006.87 1445.72 L2035.07 1445.72 L2035.07 1444.02 L2006.87 1444.02 L2006.87 1444.02  Z
  " fill="#009af9" fill-rule="evenodd" fill-opacity="1"/>
<polyline clip-path="url(#clip162)" style="stroke:#000000; stroke-width:4; stroke-opacity:1; fill:none" points="
  2006.87,1444.02 2006.87,1445.72 2035.07,1445.72 2035.07,1444.02 2006.87,1444.02 
  "/>
<path clip-path="url(#clip162)" d="
M2035.07 1444.02 L2035.07 1445.72 L2063.27 1445.72 L2063.27 1444.02 L2035.07 1444.02 L2035.07 1444.02  Z
  " fill="#009af9" fill-rule="evenodd" fill-opacity="1"/>
<polyline clip-path="url(#clip162)" style="stroke:#000000; stroke-width:4; stroke-opacity:1; fill:none" points="
  2035.07,1444.02 2035.07,1445.72 2063.27,1445.72 2063.27,1444.02 2035.07,1444.02 
  "/>
<path clip-path="url(#clip162)" d="
M2063.27 1445.72 L2063.27 1445.72 L2091.48 1445.72 L2091.48 1445.72 L2063.27 1445.72 L2063.27 1445.72  Z
  " fill="#009af9" fill-rule="evenodd" fill-opacity="1"/>
<polyline clip-path="url(#clip162)" style="stroke:#000000; stroke-width:4; stroke-opacity:1; fill:none" points="
  2063.27,1445.72 2063.27,1445.72 2091.48,1445.72 2063.27,1445.72 
  "/>
<path clip-path="url(#clip162)" d="
M2091.48 1445.72 L2091.48 1445.72 L2119.68 1445.72 L2119.68 1445.72 L2091.48 1445.72 L2091.48 1445.72  Z
  " fill="#009af9" fill-rule="evenodd" fill-opacity="1"/>
<polyline clip-path="url(#clip162)" style="stroke:#000000; stroke-width:4; stroke-opacity:1; fill:none" points="
  2091.48,1445.72 2091.48,1445.72 2119.68,1445.72 2091.48,1445.72 
  "/>
<path clip-path="url(#clip162)" d="
M2119.68 1442.33 L2119.68 1445.72 L2147.88 1445.72 L2147.88 1442.33 L2119.68 1442.33 L2119.68 1442.33  Z
  " fill="#009af9" fill-rule="evenodd" fill-opacity="1"/>
<polyline clip-path="url(#clip162)" style="stroke:#000000; stroke-width:4; stroke-opacity:1; fill:none" points="
  2119.68,1442.33 2119.68,1445.72 2147.88,1445.72 2147.88,1442.33 2119.68,1442.33 
  "/>
<path clip-path="url(#clip162)" d="
M2147.88 1445.72 L2147.88 1445.72 L2176.09 1445.72 L2176.09 1445.72 L2147.88 1445.72 L2147.88 1445.72  Z
  " fill="#009af9" fill-rule="evenodd" fill-opacity="1"/>
<polyline clip-path="url(#clip162)" style="stroke:#000000; stroke-width:4; stroke-opacity:1; fill:none" points="
  2147.88,1445.72 2147.88,1445.72 2176.09,1445.72 2147.88,1445.72 
  "/>
<path clip-path="url(#clip162)" d="
M2176.09 1445.72 L2176.09 1445.72 L2204.29 1445.72 L2204.29 1445.72 L2176.09 1445.72 L2176.09 1445.72  Z
  " fill="#009af9" fill-rule="evenodd" fill-opacity="1"/>
<polyline clip-path="url(#clip162)" style="stroke:#000000; stroke-width:4; stroke-opacity:1; fill:none" points="
  2176.09,1445.72 2176.09,1445.72 2204.29,1445.72 2176.09,1445.72 
  "/>
<path clip-path="url(#clip162)" d="
M2204.29 1444.02 L2204.29 1445.72 L2232.49 1445.72 L2232.49 1444.02 L2204.29 1444.02 L2204.29 1444.02  Z
  " fill="#009af9" fill-rule="evenodd" fill-opacity="1"/>
<polyline clip-path="url(#clip162)" style="stroke:#000000; stroke-width:4; stroke-opacity:1; fill:none" points="
  2204.29,1444.02 2204.29,1445.72 2232.49,1445.72 2232.49,1444.02 2204.29,1444.02 
  "/>
<path clip-path="url(#clip160)" d="
M1989.74 251.724 L2280.76 251.724 L2280.76 130.764 L1989.74 130.764  Z
  " fill="#ffffff" fill-rule="evenodd" fill-opacity="1"/>
<polyline clip-path="url(#clip160)" style="stroke:#000000; stroke-width:4; stroke-opacity:1; fill:none" points="
  1989.74,251.724 2280.76,251.724 2280.76,130.764 1989.74,130.764 1989.74,251.724 
  "/>
<path clip-path="url(#clip160)" d="
M2013.74 215.436 L2157.74 215.436 L2157.74 167.052 L2013.74 167.052 L2013.74 215.436  Z
  " fill="#009af9" fill-rule="evenodd" fill-opacity="1"/>
<polyline clip-path="url(#clip160)" style="stroke:#000000; stroke-width:4; stroke-opacity:1; fill:none" points="
  2013.74,215.436 2157.74,215.436 2157.74,167.052 2013.74,167.052 2013.74,215.436 
  "/>
<path clip-path="url(#clip160)" d="M 0 0 M2195.58 210.931 Q2193.77 215.561 2192.06 216.973 Q2190.35 218.385 2187.48 218.385 L2184.08 218.385 L2184.08 214.82 L2186.58 214.82 Q2188.33 214.82 2189.31 213.987 Q2190.28 213.154 2191.46 210.052 L2192.22 208.107 L2181.74 182.598 L2186.25 182.598 L2194.35 202.876 L2202.46 182.598 L2206.97 182.598 L2195.58 210.931 Z" fill="#000000" fill-rule="evenodd" fill-opacity="1" /><path clip-path="url(#clip160)" d="M 0 0 M2212.85 204.589 L2220.49 204.589 L2220.49 178.223 L2212.18 179.89 L2212.18 175.631 L2220.44 173.964 L2225.12 173.964 L2225.12 204.589 L2232.76 204.589 L2232.76 208.524 L2212.85 208.524 L2212.85 204.589 Z" fill="#000000" fill-rule="evenodd" fill-opacity="1" /></svg>
