<?xml version="1.0" encoding="utf-8"?>
<svg xmlns="http://www.w3.org/2000/svg" xmlns:xlink="http://www.w3.org/1999/xlink" width="600" height="400" viewBox="0 0 2400 1600">
<defs>
  <clipPath id="clip360">
    <rect x="0" y="0" width="2400" height="1600"/>
  </clipPath>
</defs>
<path clip-path="url(#clip360)" d="
M0 1600 L2400 1600 L2400 0 L0 0  Z
  " fill="#ffffff" fill-rule="evenodd" fill-opacity="1"/>
<defs>
  <clipPath id="clip361">
    <rect x="480" y="0" width="1681" height="1600"/>
  </clipPath>
</defs>
<path clip-path="url(#clip360)" d="
M166.205 1486.45 L2352.76 1486.45 L2352.76 47.2441 L166.205 47.2441  Z
  " fill="#ffffff" fill-rule="evenodd" fill-opacity="1"/>
<defs>
  <clipPath id="clip362">
    <rect x="166" y="47" width="2188" height="1440"/>
  </clipPath>
</defs>
<polyline clip-path="url(#clip362)" style="stroke:#000000; stroke-width:2; stroke-opacity:0.1; fill:none" points="
  416.204,1486.45 416.204,47.2441 
  "/>
<polyline clip-path="url(#clip362)" style="stroke:#000000; stroke-width:2; stroke-opacity:0.1; fill:none" points="
  805.408,1486.45 805.408,47.2441 
  "/>
<polyline clip-path="url(#clip362)" style="stroke:#000000; stroke-width:2; stroke-opacity:0.1; fill:none" points="
  1194.61,1486.45 1194.61,47.2441 
  "/>
<polyline clip-path="url(#clip362)" style="stroke:#000000; stroke-width:2; stroke-opacity:0.1; fill:none" points="
  1583.82,1486.45 1583.82,47.2441 
  "/>
<polyline clip-path="url(#clip362)" style="stroke:#000000; stroke-width:2; stroke-opacity:0.1; fill:none" points="
  1973.02,1486.45 1973.02,47.2441 
  "/>
<polyline clip-path="url(#clip362)" style="stroke:#000000; stroke-width:2; stroke-opacity:0.1; fill:none" points="
  166.205,1445.72 2352.76,1445.72 
  "/>
<polyline clip-path="url(#clip362)" style="stroke:#000000; stroke-width:2; stroke-opacity:0.1; fill:none" points="
  166.205,1106.28 2352.76,1106.28 
  "/>
<polyline clip-path="url(#clip362)" style="stroke:#000000; stroke-width:2; stroke-opacity:0.1; fill:none" points="
  166.205,766.846 2352.76,766.846 
  "/>
<polyline clip-path="url(#clip362)" style="stroke:#000000; stroke-width:2; stroke-opacity:0.1; fill:none" points="
  166.205,427.411 2352.76,427.411 
  "/>
<polyline clip-path="url(#clip362)" style="stroke:#000000; stroke-width:2; stroke-opacity:0.1; fill:none" points="
  166.205,87.9763 2352.76,87.9763 
  "/>
<polyline clip-path="url(#clip360)" style="stroke:#000000; stroke-width:4; stroke-opacity:1; fill:none" points="
  166.205,1486.45 2352.76,1486.45 
  "/>
<polyline clip-path="url(#clip360)" style="stroke:#000000; stroke-width:4; stroke-opacity:1; fill:none" points="
  166.205,1486.45 166.205,47.2441 
  "/>
<polyline clip-path="url(#clip360)" style="stroke:#000000; stroke-width:4; stroke-opacity:1; fill:none" points="
  416.204,1486.45 416.204,1469.18 
  "/>
<polyline clip-path="url(#clip360)" style="stroke:#000000; stroke-width:4; stroke-opacity:1; fill:none" points="
  805.408,1486.45 805.408,1469.18 
  "/>
<polyline clip-path="url(#clip360)" style="stroke:#000000; stroke-width:4; stroke-opacity:1; fill:none" points="
  1194.61,1486.45 1194.61,1469.18 
  "/>
<polyline clip-path="url(#clip360)" style="stroke:#000000; stroke-width:4; stroke-opacity:1; fill:none" points="
  1583.82,1486.45 1583.82,1469.18 
  "/>
<polyline clip-path="url(#clip360)" style="stroke:#000000; stroke-width:4; stroke-opacity:1; fill:none" points="
  1973.02,1486.45 1973.02,1469.18 
  "/>
<polyline clip-path="url(#clip360)" style="stroke:#000000; stroke-width:4; stroke-opacity:1; fill:none" points="
  166.205,1445.72 192.443,1445.72 
  "/>
<polyline clip-path="url(#clip360)" style="stroke:#000000; stroke-width:4; stroke-opacity:1; fill:none" points="
  166.205,1106.28 192.443,1106.28 
  "/>
<polyline clip-path="url(#clip360)" style="stroke:#000000; stroke-width:4; stroke-opacity:1; fill:none" points="
  166.205,766.846 192.443,766.846 
  "/>
<polyline clip-path="url(#clip360)" style="stroke:#000000; stroke-width:4; stroke-opacity:1; fill:none" points="
  166.205,427.411 192.443,427.411 
  "/>
<polyline clip-path="url(#clip360)" style="stroke:#000000; stroke-width:4; stroke-opacity:1; fill:none" points="
  166.205,87.9763 192.443,87.9763 
  "/>
<path clip-path="url(#clip360)" d="M 0 0 M396.377 1525.04 L408.854 1525.04 L408.854 1528.83 L396.377 1528.83 L396.377 1525.04 Z" fill="#000000" fill-rule="evenodd" fill-opacity="1" /><path clip-path="url(#clip360)" d="M 0 0 M424.502 1520.78 Q421.354 1520.78 419.502 1522.93 Q417.674 1525.08 417.674 1528.83 Q417.674 1532.56 419.502 1534.73 Q421.354 1536.89 424.502 1536.89 Q427.65 1536.89 429.479 1534.73 Q431.331 1532.56 431.331 1528.83 Q431.331 1525.08 429.479 1522.93 Q427.65 1520.78 424.502 1520.78 M433.785 1506.12 L433.785 1510.38 Q432.025 1509.55 430.22 1509.11 Q428.437 1508.67 426.678 1508.67 Q422.049 1508.67 419.595 1511.8 Q417.164 1514.92 416.817 1521.24 Q418.183 1519.23 420.243 1518.16 Q422.303 1517.07 424.78 1517.07 Q429.988 1517.07 432.998 1520.24 Q436.03 1523.39 436.03 1528.83 Q436.03 1534.16 432.882 1537.37 Q429.734 1540.59 424.502 1540.59 Q418.507 1540.59 415.336 1536.01 Q412.164 1531.4 412.164 1522.67 Q412.164 1514.48 416.053 1509.62 Q419.942 1504.73 426.493 1504.73 Q428.252 1504.73 430.035 1505.08 Q431.84 1505.43 433.785 1506.12 Z" fill="#000000" fill-rule="evenodd" fill-opacity="1" /><path clip-path="url(#clip360)" d="M 0 0 M785.987 1525.04 L798.464 1525.04 L798.464 1528.83 L785.987 1528.83 L785.987 1525.04 Z" fill="#000000" fill-rule="evenodd" fill-opacity="1" /><path clip-path="url(#clip360)" d="M 0 0 M817.7 1521.29 Q821.056 1522 822.931 1524.27 Q824.829 1526.54 824.829 1529.87 Q824.829 1534.99 821.311 1537.79 Q817.792 1540.59 811.311 1540.59 Q809.135 1540.59 806.82 1540.15 Q804.529 1539.73 802.075 1538.88 L802.075 1534.36 Q804.019 1535.5 806.334 1536.08 Q808.649 1536.66 811.172 1536.66 Q815.57 1536.66 817.862 1534.92 Q820.177 1533.18 820.177 1529.87 Q820.177 1526.82 818.024 1525.11 Q815.894 1523.37 812.075 1523.37 L808.047 1523.37 L808.047 1519.53 L812.26 1519.53 Q815.709 1519.53 817.538 1518.16 Q819.367 1516.77 819.367 1514.18 Q819.367 1511.52 817.468 1510.11 Q815.593 1508.67 812.075 1508.67 Q810.154 1508.67 807.955 1509.09 Q805.756 1509.5 803.117 1510.38 L803.117 1506.22 Q805.779 1505.48 808.093 1505.11 Q810.431 1504.73 812.492 1504.73 Q817.816 1504.73 820.917 1507.17 Q824.019 1509.57 824.019 1513.69 Q824.019 1516.56 822.376 1518.55 Q820.732 1520.52 817.7 1521.29 Z" fill="#000000" fill-rule="evenodd" fill-opacity="1" /><path clip-path="url(#clip360)" d="M 0 0 M1194.61 1508.44 Q1191 1508.44 1189.17 1512 Q1187.37 1515.55 1187.37 1522.67 Q1187.37 1529.78 1189.17 1533.35 Q1191 1536.89 1194.61 1536.89 Q1198.25 1536.89 1200.05 1533.35 Q1201.88 1529.78 1201.88 1522.67 Q1201.88 1515.55 1200.05 1512 Q1198.25 1508.44 1194.61 1508.44 M1194.61 1504.73 Q1200.42 1504.73 1203.48 1509.34 Q1206.56 1513.92 1206.56 1522.67 Q1206.56 1531.4 1203.48 1536.01 Q1200.42 1540.59 1194.61 1540.59 Q1188.8 1540.59 1185.72 1536.01 Q1182.67 1531.4 1182.67 1522.67 Q1182.67 1513.92 1185.72 1509.34 Q1188.8 1504.73 1194.61 1504.73 Z" fill="#000000" fill-rule="evenodd" fill-opacity="1" /><path clip-path="url(#clip360)" d="M 0 0 M1588.07 1521.29 Q1591.42 1522 1593.3 1524.27 Q1595.19 1526.54 1595.19 1529.87 Q1595.19 1534.99 1591.68 1537.79 Q1588.16 1540.59 1581.68 1540.59 Q1579.5 1540.59 1577.19 1540.15 Q1574.89 1539.73 1572.44 1538.88 L1572.44 1534.36 Q1574.38 1535.5 1576.7 1536.08 Q1579.01 1536.66 1581.54 1536.66 Q1585.94 1536.66 1588.23 1534.92 Q1590.54 1533.18 1590.54 1529.87 Q1590.54 1526.82 1588.39 1525.11 Q1586.26 1523.37 1582.44 1523.37 L1578.41 1523.37 L1578.41 1519.53 L1582.63 1519.53 Q1586.07 1519.53 1587.9 1518.16 Q1589.73 1516.77 1589.73 1514.18 Q1589.73 1511.52 1587.83 1510.11 Q1585.96 1508.67 1582.44 1508.67 Q1580.52 1508.67 1578.32 1509.09 Q1576.12 1509.5 1573.48 1510.38 L1573.48 1506.22 Q1576.14 1505.48 1578.46 1505.11 Q1580.8 1504.73 1582.86 1504.73 Q1588.18 1504.73 1591.28 1507.17 Q1594.38 1509.57 1594.38 1513.69 Q1594.38 1516.56 1592.74 1518.55 Q1591.1 1520.52 1588.07 1521.29 Z" fill="#000000" fill-rule="evenodd" fill-opacity="1" /><path clip-path="url(#clip360)" d="M 0 0 M1973.43 1520.78 Q1970.28 1520.78 1968.43 1522.93 Q1966.6 1525.08 1966.6 1528.83 Q1966.6 1532.56 1968.43 1534.73 Q1970.28 1536.89 1973.43 1536.89 Q1976.58 1536.89 1978.4 1534.73 Q1980.26 1532.56 1980.26 1528.83 Q1980.26 1525.08 1978.4 1522.93 Q1976.58 1520.78 1973.43 1520.78 M1982.71 1506.12 L1982.71 1510.38 Q1980.95 1509.55 1979.14 1509.11 Q1977.36 1508.67 1975.6 1508.67 Q1970.97 1508.67 1968.52 1511.8 Q1966.09 1514.92 1965.74 1521.24 Q1967.11 1519.23 1969.17 1518.16 Q1971.23 1517.07 1973.7 1517.07 Q1978.91 1517.07 1981.92 1520.24 Q1984.95 1523.39 1984.95 1528.83 Q1984.95 1534.16 1981.81 1537.37 Q1978.66 1540.59 1973.43 1540.59 Q1967.43 1540.59 1964.26 1536.01 Q1961.09 1531.4 1961.09 1522.67 Q1961.09 1514.48 1964.98 1509.62 Q1968.87 1504.73 1975.42 1504.73 Q1977.18 1504.73 1978.96 1505.08 Q1980.76 1505.43 1982.71 1506.12 Z" fill="#000000" fill-rule="evenodd" fill-opacity="1" /><path clip-path="url(#clip360)" d="M 0 0 M130.26 1431.51 Q126.649 1431.51 124.82 1435.08 Q123.015 1438.62 123.015 1445.75 Q123.015 1452.86 124.82 1456.42 Q126.649 1459.96 130.26 1459.96 Q133.895 1459.96 135.7 1456.42 Q137.529 1452.86 137.529 1445.75 Q137.529 1438.62 135.7 1435.08 Q133.895 1431.51 130.26 1431.51 M130.26 1427.81 Q136.07 1427.81 139.126 1432.42 Q142.205 1437 142.205 1445.75 Q142.205 1454.48 139.126 1459.08 Q136.07 1463.67 130.26 1463.67 Q124.45 1463.67 121.371 1459.08 Q118.316 1454.48 118.316 1445.75 Q118.316 1437 121.371 1432.42 Q124.45 1427.81 130.26 1427.81 Z" fill="#000000" fill-rule="evenodd" fill-opacity="1" /><path clip-path="url(#clip360)" d="M 0 0 M71.8578 1119.63 L88.1772 1119.63 L88.1772 1123.56 L66.2328 1123.56 L66.2328 1119.63 Q68.8949 1116.87 73.4782 1112.24 Q78.0846 1107.59 79.2652 1106.25 Q81.5105 1103.72 82.3902 1101.99 Q83.2929 1100.23 83.2929 1098.54 Q83.2929 1095.78 81.3485 1094.05 Q79.4272 1092.31 76.3254 1092.31 Q74.1263 1092.31 71.6726 1093.07 Q69.2421 1093.84 66.4643 1095.39 L66.4643 1090.67 Q69.2884 1089.53 71.7421 1088.95 Q74.1958 1088.38 76.2328 1088.38 Q81.6031 1088.38 84.7976 1091.06 Q87.992 1093.75 87.992 1098.24 Q87.992 1100.37 87.1818 1102.29 Q86.3948 1104.19 84.2883 1106.78 Q83.7096 1107.45 80.6078 1110.67 Q77.5059 1113.86 71.8578 1119.63 Z" fill="#000000" fill-rule="evenodd" fill-opacity="1" /><path clip-path="url(#clip360)" d="M 0 0 M103.247 1092.08 Q99.6354 1092.08 97.8068 1095.64 Q96.0012 1099.19 96.0012 1106.32 Q96.0012 1113.42 97.8068 1116.99 Q99.6354 1120.53 103.247 1120.53 Q106.881 1120.53 108.686 1116.99 Q110.515 1113.42 110.515 1106.32 Q110.515 1099.19 108.686 1095.64 Q106.881 1092.08 103.247 1092.08 M103.247 1088.38 Q109.057 1088.38 112.112 1092.98 Q115.191 1097.57 115.191 1106.32 Q115.191 1115.04 112.112 1119.65 Q109.057 1124.23 103.247 1124.23 Q97.4364 1124.23 94.3577 1119.65 Q91.3022 1115.04 91.3022 1106.32 Q91.3022 1097.57 94.3577 1092.98 Q97.4364 1088.38 103.247 1088.38 Z" fill="#000000" fill-rule="evenodd" fill-opacity="1" /><path clip-path="url(#clip360)" d="M 0 0 M130.26 1092.08 Q126.649 1092.08 124.82 1095.64 Q123.015 1099.19 123.015 1106.32 Q123.015 1113.42 124.82 1116.99 Q126.649 1120.53 130.26 1120.53 Q133.895 1120.53 135.7 1116.99 Q137.529 1113.42 137.529 1106.32 Q137.529 1099.19 135.7 1095.64 Q133.895 1092.08 130.26 1092.08 M130.26 1088.38 Q136.07 1088.38 139.126 1092.98 Q142.205 1097.57 142.205 1106.32 Q142.205 1115.04 139.126 1119.65 Q136.07 1124.23 130.26 1124.23 Q124.45 1124.23 121.371 1119.65 Q118.316 1115.04 118.316 1106.32 Q118.316 1097.57 121.371 1092.98 Q124.45 1088.38 130.26 1088.38 Z" fill="#000000" fill-rule="evenodd" fill-opacity="1" /><path clip-path="url(#clip360)" d="M 0 0 M78.5939 753.64 L66.7884 772.089 L78.5939 772.089 L78.5939 753.64 M77.367 749.566 L83.2466 749.566 L83.2466 772.089 L88.1772 772.089 L88.1772 775.978 L83.2466 775.978 L83.2466 784.126 L78.5939 784.126 L78.5939 775.978 L62.9921 775.978 L62.9921 771.464 L77.367 749.566 Z" fill="#000000" fill-rule="evenodd" fill-opacity="1" /><path clip-path="url(#clip360)" d="M 0 0 M103.247 752.645 Q99.6354 752.645 97.8068 756.209 Q96.0012 759.751 96.0012 766.881 Q96.0012 773.987 97.8068 777.552 Q99.6354 781.094 103.247 781.094 Q106.881 781.094 108.686 777.552 Q110.515 773.987 110.515 766.881 Q110.515 759.751 108.686 756.209 Q106.881 752.645 103.247 752.645 M103.247 748.941 Q109.057 748.941 112.112 753.547 Q115.191 758.131 115.191 766.881 Q115.191 775.608 112.112 780.214 Q109.057 784.797 103.247 784.797 Q97.4364 784.797 94.3577 780.214 Q91.3022 775.608 91.3022 766.881 Q91.3022 758.131 94.3577 753.547 Q97.4364 748.941 103.247 748.941 Z" fill="#000000" fill-rule="evenodd" fill-opacity="1" /><path clip-path="url(#clip360)" d="M 0 0 M130.26 752.645 Q126.649 752.645 124.82 756.209 Q123.015 759.751 123.015 766.881 Q123.015 773.987 124.82 777.552 Q126.649 781.094 130.26 781.094 Q133.895 781.094 135.7 777.552 Q137.529 773.987 137.529 766.881 Q137.529 759.751 135.7 756.209 Q133.895 752.645 130.26 752.645 M130.26 748.941 Q136.07 748.941 139.126 753.547 Q142.205 758.131 142.205 766.881 Q142.205 775.608 139.126 780.214 Q136.07 784.797 130.26 784.797 Q124.45 784.797 121.371 780.214 Q118.316 775.608 118.316 766.881 Q118.316 758.131 121.371 753.547 Q124.45 748.941 130.26 748.941 Z" fill="#000000" fill-rule="evenodd" fill-opacity="1" /><path clip-path="url(#clip360)" d="M 0 0 M76.6495 425.548 Q73.5013 425.548 71.6495 427.7 Q69.8208 429.853 69.8208 433.603 Q69.8208 437.33 71.6495 439.506 Q73.5013 441.659 76.6495 441.659 Q79.7976 441.659 81.6263 439.506 Q83.4781 437.33 83.4781 433.603 Q83.4781 429.853 81.6263 427.7 Q79.7976 425.548 76.6495 425.548 M85.9318 410.895 L85.9318 415.154 Q84.1726 414.321 82.367 413.881 Q80.5846 413.441 78.8254 413.441 Q74.1958 413.441 71.7421 416.566 Q69.3115 419.691 68.9643 426.011 Q70.33 423.997 72.3902 422.932 Q74.4504 421.844 76.9272 421.844 Q82.1355 421.844 85.1448 425.015 Q88.1772 428.163 88.1772 433.603 Q88.1772 438.927 85.029 442.145 Q81.8809 445.362 76.6495 445.362 Q70.6541 445.362 67.4828 440.779 Q64.3116 436.173 64.3116 427.446 Q64.3116 419.251 68.2004 414.39 Q72.0893 409.506 78.6402 409.506 Q80.3994 409.506 82.1818 409.853 Q83.9874 410.201 85.9318 410.895 Z" fill="#000000" fill-rule="evenodd" fill-opacity="1" /><path clip-path="url(#clip360)" d="M 0 0 M103.247 413.21 Q99.6354 413.21 97.8068 416.775 Q96.0012 420.316 96.0012 427.446 Q96.0012 434.552 97.8068 438.117 Q99.6354 441.659 103.247 441.659 Q106.881 441.659 108.686 438.117 Q110.515 434.552 110.515 427.446 Q110.515 420.316 108.686 416.775 Q106.881 413.21 103.247 413.21 M103.247 409.506 Q109.057 409.506 112.112 414.113 Q115.191 418.696 115.191 427.446 Q115.191 436.173 112.112 440.779 Q109.057 445.362 103.247 445.362 Q97.4364 445.362 94.3577 440.779 Q91.3022 436.173 91.3022 427.446 Q91.3022 418.696 94.3577 414.113 Q97.4364 409.506 103.247 409.506 Z" fill="#000000" fill-rule="evenodd" fill-opacity="1" /><path clip-path="url(#clip360)" d="M 0 0 M130.26 413.21 Q126.649 413.21 124.82 416.775 Q123.015 420.316 123.015 427.446 Q123.015 434.552 124.82 438.117 Q126.649 441.659 130.26 441.659 Q133.895 441.659 135.7 438.117 Q137.529 434.552 137.529 427.446 Q137.529 420.316 135.7 416.775 Q133.895 413.21 130.26 413.21 M130.26 409.506 Q136.07 409.506 139.126 414.113 Q142.205 418.696 142.205 427.446 Q142.205 436.173 139.126 440.779 Q136.07 445.362 130.26 445.362 Q124.45 445.362 121.371 440.779 Q118.316 436.173 118.316 427.446 Q118.316 418.696 121.371 414.113 Q124.45 409.506 130.26 409.506 Z" fill="#000000" fill-rule="evenodd" fill-opacity="1" /><path clip-path="url(#clip360)" d="M 0 0 M76.3254 88.8443 Q72.9921 88.8443 71.0708 90.6267 Q69.1726 92.4091 69.1726 95.5341 Q69.1726 98.6591 71.0708 100.441 Q72.9921 102.224 76.3254 102.224 Q79.6587 102.224 81.58 100.441 Q83.5013 98.6359 83.5013 95.5341 Q83.5013 92.4091 81.58 90.6267 Q79.6819 88.8443 76.3254 88.8443 M71.6495 86.8536 Q68.6402 86.1129 66.9504 84.0527 Q65.2838 81.9925 65.2838 79.0296 Q65.2838 74.8861 68.2236 72.4787 Q71.1865 70.0713 76.3254 70.0713 Q81.4874 70.0713 84.4272 72.4787 Q87.367 74.8861 87.367 79.0296 Q87.367 81.9925 85.6772 84.0527 Q84.0105 86.1129 81.0244 86.8536 Q84.404 87.6406 86.279 89.9323 Q88.1772 92.2239 88.1772 95.5341 Q88.1772 100.557 85.0985 103.242 Q82.0429 105.928 76.3254 105.928 Q70.6078 105.928 67.5291 103.242 Q64.4736 100.557 64.4736 95.5341 Q64.4736 92.2239 66.3717 89.9323 Q68.2699 87.6406 71.6495 86.8536 M69.9365 79.4694 Q69.9365 82.1545 71.6032 83.6592 Q73.293 85.1638 76.3254 85.1638 Q79.3346 85.1638 81.0244 83.6592 Q82.7374 82.1545 82.7374 79.4694 Q82.7374 76.7842 81.0244 75.2796 Q79.3346 73.775 76.3254 73.775 Q73.293 73.775 71.6032 75.2796 Q69.9365 76.7842 69.9365 79.4694 Z" fill="#000000" fill-rule="evenodd" fill-opacity="1" /><path clip-path="url(#clip360)" d="M 0 0 M103.247 73.775 Q99.6354 73.775 97.8068 77.3398 Q96.0012 80.8814 96.0012 88.011 Q96.0012 95.1174 97.8068 98.6822 Q99.6354 102.224 103.247 102.224 Q106.881 102.224 108.686 98.6822 Q110.515 95.1174 110.515 88.011 Q110.515 80.8814 108.686 77.3398 Q106.881 73.775 103.247 73.775 M103.247 70.0713 Q109.057 70.0713 112.112 74.6777 Q115.191 79.261 115.191 88.011 Q115.191 96.7378 112.112 101.344 Q109.057 105.928 103.247 105.928 Q97.4364 105.928 94.3577 101.344 Q91.3022 96.7378 91.3022 88.011 Q91.3022 79.261 94.3577 74.6777 Q97.4364 70.0713 103.247 70.0713 Z" fill="#000000" fill-rule="evenodd" fill-opacity="1" /><path clip-path="url(#clip360)" d="M 0 0 M130.26 73.775 Q126.649 73.775 124.82 77.3398 Q123.015 80.8814 123.015 88.011 Q123.015 95.1174 124.82 98.6822 Q126.649 102.224 130.26 102.224 Q133.895 102.224 135.7 98.6822 Q137.529 95.1174 137.529 88.011 Q137.529 80.8814 135.7 77.3398 Q133.895 73.775 130.26 73.775 M130.26 70.0713 Q136.07 70.0713 139.126 74.6777 Q142.205 79.261 142.205 88.011 Q142.205 96.7378 139.126 101.344 Q136.07 105.928 130.26 105.928 Q124.45 105.928 121.371 101.344 Q118.316 96.7378 118.316 88.011 Q118.316 79.261 121.371 74.6777 Q124.45 70.0713 130.26 70.0713 Z" fill="#000000" fill-rule="evenodd" fill-opacity="1" /><path clip-path="url(#clip362)" d="
M286.469 1444.02 L286.469 1445.72 L312.416 1445.72 L312.416 1444.02 L286.469 1444.02 L286.469 1444.02  Z
  " fill="#009af9" fill-rule="evenodd" fill-opacity="1"/>
<polyline clip-path="url(#clip362)" style="stroke:#000000; stroke-width:4; stroke-opacity:1; fill:none" points="
  286.469,1444.02 286.469,1445.72 312.416,1445.72 312.416,1444.02 286.469,1444.02 
  "/>
<path clip-path="url(#clip362)" d="
M312.416 1445.72 L312.416 1445.72 L338.363 1445.72 L338.363 1445.72 L312.416 1445.72 L312.416 1445.72  Z
  " fill="#009af9" fill-rule="evenodd" fill-opacity="1"/>
<polyline clip-path="url(#clip362)" style="stroke:#000000; stroke-width:4; stroke-opacity:1; fill:none" points="
  312.416,1445.72 312.416,1445.72 338.363,1445.72 312.416,1445.72 
  "/>
<path clip-path="url(#clip362)" d="
M338.363 1444.02 L338.363 1445.72 L364.31 1445.72 L364.31 1444.02 L338.363 1444.02 L338.363 1444.02  Z
  " fill="#009af9" fill-rule="evenodd" fill-opacity="1"/>
<polyline clip-path="url(#clip362)" style="stroke:#000000; stroke-width:4; stroke-opacity:1; fill:none" points="
  338.363,1444.02 338.363,1445.72 364.31,1445.72 364.31,1444.02 338.363,1444.02 
  "/>
<path clip-path="url(#clip362)" d="
M364.31 1445.72 L364.31 1445.72 L390.257 1445.72 L390.257 1445.72 L364.31 1445.72 L364.31 1445.72  Z
  " fill="#009af9" fill-rule="evenodd" fill-opacity="1"/>
<polyline clip-path="url(#clip362)" style="stroke:#000000; stroke-width:4; stroke-opacity:1; fill:none" points="
  364.31,1445.72 364.31,1445.72 390.257,1445.72 364.31,1445.72 
  "/>
<path clip-path="url(#clip362)" d="
M390.257 1444.02 L390.257 1445.72 L416.204 1445.72 L416.204 1444.02 L390.257 1444.02 L390.257 1444.02  Z
  " fill="#009af9" fill-rule="evenodd" fill-opacity="1"/>
<polyline clip-path="url(#clip362)" style="stroke:#000000; stroke-width:4; stroke-opacity:1; fill:none" points="
  390.257,1444.02 390.257,1445.72 416.204,1445.72 416.204,1444.02 390.257,1444.02 
  "/>
<path clip-path="url(#clip362)" d="
M416.204 1445.72 L416.204 1445.72 L442.151 1445.72 L442.151 1445.72 L416.204 1445.72 L416.204 1445.72  Z
  " fill="#009af9" fill-rule="evenodd" fill-opacity="1"/>
<polyline clip-path="url(#clip362)" style="stroke:#000000; stroke-width:4; stroke-opacity:1; fill:none" points="
  416.204,1445.72 416.204,1445.72 442.151,1445.72 416.204,1445.72 
  "/>
<path clip-path="url(#clip362)" d="
M442.151 1442.32 L442.151 1445.72 L468.098 1445.72 L468.098 1442.32 L442.151 1442.32 L442.151 1442.32  Z
  " fill="#009af9" fill-rule="evenodd" fill-opacity="1"/>
<polyline clip-path="url(#clip362)" style="stroke:#000000; stroke-width:4; stroke-opacity:1; fill:none" points="
  442.151,1442.32 442.151,1445.72 468.098,1445.72 468.098,1442.32 442.151,1442.32 
  "/>
<path clip-path="url(#clip362)" d="
M468.098 1437.23 L468.098 1445.72 L494.045 1445.72 L494.045 1437.23 L468.098 1437.23 L468.098 1437.23  Z
  " fill="#009af9" fill-rule="evenodd" fill-opacity="1"/>
<polyline clip-path="url(#clip362)" style="stroke:#000000; stroke-width:4; stroke-opacity:1; fill:none" points="
  468.098,1437.23 468.098,1445.72 494.045,1445.72 494.045,1437.23 468.098,1437.23 
  "/>
<path clip-path="url(#clip362)" d="
M494.045 1442.32 L494.045 1445.72 L519.992 1445.72 L519.992 1442.32 L494.045 1442.32 L494.045 1442.32  Z
  " fill="#009af9" fill-rule="evenodd" fill-opacity="1"/>
<polyline clip-path="url(#clip362)" style="stroke:#000000; stroke-width:4; stroke-opacity:1; fill:none" points="
  494.045,1442.32 494.045,1445.72 519.992,1445.72 519.992,1442.32 494.045,1442.32 
  "/>
<path clip-path="url(#clip362)" d="
M519.992 1440.62 L519.992 1445.72 L545.939 1445.72 L545.939 1440.62 L519.992 1440.62 L519.992 1440.62  Z
  " fill="#009af9" fill-rule="evenodd" fill-opacity="1"/>
<polyline clip-path="url(#clip362)" style="stroke:#000000; stroke-width:4; stroke-opacity:1; fill:none" points="
  519.992,1440.62 519.992,1445.72 545.939,1445.72 545.939,1440.62 519.992,1440.62 
  "/>
<path clip-path="url(#clip362)" d="
M545.939 1435.53 L545.939 1445.72 L571.886 1445.72 L571.886 1435.53 L545.939 1435.53 L545.939 1435.53  Z
  " fill="#009af9" fill-rule="evenodd" fill-opacity="1"/>
<polyline clip-path="url(#clip362)" style="stroke:#000000; stroke-width:4; stroke-opacity:1; fill:none" points="
  545.939,1435.53 545.939,1445.72 571.886,1445.72 571.886,1435.53 545.939,1435.53 
  "/>
<path clip-path="url(#clip362)" d="
M571.886 1430.44 L571.886 1445.72 L597.833 1445.72 L597.833 1430.44 L571.886 1430.44 L571.886 1430.44  Z
  " fill="#009af9" fill-rule="evenodd" fill-opacity="1"/>
<polyline clip-path="url(#clip362)" style="stroke:#000000; stroke-width:4; stroke-opacity:1; fill:none" points="
  571.886,1430.44 571.886,1445.72 597.833,1445.72 597.833,1430.44 571.886,1430.44 
  "/>
<path clip-path="url(#clip362)" d="
M597.833 1433.84 L597.833 1445.72 L623.779 1445.72 L623.779 1433.84 L597.833 1433.84 L597.833 1433.84  Z
  " fill="#009af9" fill-rule="evenodd" fill-opacity="1"/>
<polyline clip-path="url(#clip362)" style="stroke:#000000; stroke-width:4; stroke-opacity:1; fill:none" points="
  597.833,1433.84 597.833,1445.72 623.779,1445.72 623.779,1433.84 597.833,1433.84 
  "/>
<path clip-path="url(#clip362)" d="
M623.779 1428.74 L623.779 1445.72 L649.726 1445.72 L649.726 1428.74 L623.779 1428.74 L623.779 1428.74  Z
  " fill="#009af9" fill-rule="evenodd" fill-opacity="1"/>
<polyline clip-path="url(#clip362)" style="stroke:#000000; stroke-width:4; stroke-opacity:1; fill:none" points="
  623.779,1428.74 623.779,1445.72 649.726,1445.72 649.726,1428.74 623.779,1428.74 
  "/>
<path clip-path="url(#clip362)" d="
M649.726 1428.74 L649.726 1445.72 L675.673 1445.72 L675.673 1428.74 L649.726 1428.74 L649.726 1428.74  Z
  " fill="#009af9" fill-rule="evenodd" fill-opacity="1"/>
<polyline clip-path="url(#clip362)" style="stroke:#000000; stroke-width:4; stroke-opacity:1; fill:none" points="
  649.726,1428.74 649.726,1445.72 675.673,1445.72 675.673,1428.74 649.726,1428.74 
  "/>
<path clip-path="url(#clip362)" d="
M675.673 1410.08 L675.673 1445.72 L701.62 1445.72 L701.62 1410.08 L675.673 1410.08 L675.673 1410.08  Z
  " fill="#009af9" fill-rule="evenodd" fill-opacity="1"/>
<polyline clip-path="url(#clip362)" style="stroke:#000000; stroke-width:4; stroke-opacity:1; fill:none" points="
  675.673,1410.08 675.673,1445.72 701.62,1445.72 701.62,1410.08 675.673,1410.08 
  "/>
<path clip-path="url(#clip362)" d="
M701.62 1413.47 L701.62 1445.72 L727.567 1445.72 L727.567 1413.47 L701.62 1413.47 L701.62 1413.47  Z
  " fill="#009af9" fill-rule="evenodd" fill-opacity="1"/>
<polyline clip-path="url(#clip362)" style="stroke:#000000; stroke-width:4; stroke-opacity:1; fill:none" points="
  701.62,1413.47 701.62,1445.72 727.567,1445.72 727.567,1413.47 701.62,1413.47 
  "/>
<path clip-path="url(#clip362)" d="
M727.567 1410.08 L727.567 1445.72 L753.514 1445.72 L753.514 1410.08 L727.567 1410.08 L727.567 1410.08  Z
  " fill="#009af9" fill-rule="evenodd" fill-opacity="1"/>
<polyline clip-path="url(#clip362)" style="stroke:#000000; stroke-width:4; stroke-opacity:1; fill:none" points="
  727.567,1410.08 727.567,1445.72 753.514,1445.72 753.514,1410.08 727.567,1410.08 
  "/>
<path clip-path="url(#clip362)" d="
M753.514 1386.31 L753.514 1445.72 L779.461 1445.72 L779.461 1386.31 L753.514 1386.31 L753.514 1386.31  Z
  " fill="#009af9" fill-rule="evenodd" fill-opacity="1"/>
<polyline clip-path="url(#clip362)" style="stroke:#000000; stroke-width:4; stroke-opacity:1; fill:none" points="
  753.514,1386.31 753.514,1445.72 779.461,1445.72 779.461,1386.31 753.514,1386.31 
  "/>
<path clip-path="url(#clip362)" d="
M779.461 1386.31 L779.461 1445.72 L805.408 1445.72 L805.408 1386.31 L779.461 1386.31 L779.461 1386.31  Z
  " fill="#009af9" fill-rule="evenodd" fill-opacity="1"/>
<polyline clip-path="url(#clip362)" style="stroke:#000000; stroke-width:4; stroke-opacity:1; fill:none" points="
  779.461,1386.31 779.461,1445.72 805.408,1445.72 805.408,1386.31 779.461,1386.31 
  "/>
<path clip-path="url(#clip362)" d="
M805.408 1388.01 L805.408 1445.72 L831.355 1445.72 L831.355 1388.01 L805.408 1388.01 L805.408 1388.01  Z
  " fill="#009af9" fill-rule="evenodd" fill-opacity="1"/>
<polyline clip-path="url(#clip362)" style="stroke:#000000; stroke-width:4; stroke-opacity:1; fill:none" points="
  805.408,1388.01 805.408,1445.72 831.355,1445.72 831.355,1388.01 805.408,1388.01 
  "/>
<path clip-path="url(#clip362)" d="
M831.355 1345.58 L831.355 1445.72 L857.302 1445.72 L857.302 1345.58 L831.355 1345.58 L831.355 1345.58  Z
  " fill="#009af9" fill-rule="evenodd" fill-opacity="1"/>
<polyline clip-path="url(#clip362)" style="stroke:#000000; stroke-width:4; stroke-opacity:1; fill:none" points="
  831.355,1345.58 831.355,1445.72 857.302,1445.72 857.302,1345.58 831.355,1345.58 
  "/>
<path clip-path="url(#clip362)" d="
M857.302 1371.04 L857.302 1445.72 L883.249 1445.72 L883.249 1371.04 L857.302 1371.04 L857.302 1371.04  Z
  " fill="#009af9" fill-rule="evenodd" fill-opacity="1"/>
<polyline clip-path="url(#clip362)" style="stroke:#000000; stroke-width:4; stroke-opacity:1; fill:none" points="
  857.302,1371.04 857.302,1445.72 883.249,1445.72 883.249,1371.04 857.302,1371.04 
  "/>
<path clip-path="url(#clip362)" d="
M883.249 1364.25 L883.249 1445.72 L909.196 1445.72 L909.196 1364.25 L883.249 1364.25 L883.249 1364.25  Z
  " fill="#009af9" fill-rule="evenodd" fill-opacity="1"/>
<polyline clip-path="url(#clip362)" style="stroke:#000000; stroke-width:4; stroke-opacity:1; fill:none" points="
  883.249,1364.25 883.249,1445.72 909.196,1445.72 909.196,1364.25 883.249,1364.25 
  "/>
<path clip-path="url(#clip362)" d="
M909.196 1352.37 L909.196 1445.72 L935.143 1445.72 L935.143 1352.37 L909.196 1352.37 L909.196 1352.37  Z
  " fill="#009af9" fill-rule="evenodd" fill-opacity="1"/>
<polyline clip-path="url(#clip362)" style="stroke:#000000; stroke-width:4; stroke-opacity:1; fill:none" points="
  909.196,1352.37 909.196,1445.72 935.143,1445.72 935.143,1352.37 909.196,1352.37 
  "/>
<path clip-path="url(#clip362)" d="
M935.143 1347.28 L935.143 1445.72 L961.09 1445.72 L961.09 1347.28 L935.143 1347.28 L935.143 1347.28  Z
  " fill="#009af9" fill-rule="evenodd" fill-opacity="1"/>
<polyline clip-path="url(#clip362)" style="stroke:#000000; stroke-width:4; stroke-opacity:1; fill:none" points="
  935.143,1347.28 935.143,1445.72 961.09,1445.72 961.09,1347.28 935.143,1347.28 
  "/>
<path clip-path="url(#clip362)" d="
M961.09 1284.48 L961.09 1445.72 L987.037 1445.72 L987.037 1284.48 L961.09 1284.48 L961.09 1284.48  Z
  " fill="#009af9" fill-rule="evenodd" fill-opacity="1"/>
<polyline clip-path="url(#clip362)" style="stroke:#000000; stroke-width:4; stroke-opacity:1; fill:none" points="
  961.09,1284.48 961.09,1445.72 987.037,1445.72 987.037,1284.48 961.09,1284.48 
  "/>
<path clip-path="url(#clip362)" d="
M987.037 1303.15 L987.037 1445.72 L1012.98 1445.72 L1012.98 1303.15 L987.037 1303.15 L987.037 1303.15  Z
  " fill="#009af9" fill-rule="evenodd" fill-opacity="1"/>
<polyline clip-path="url(#clip362)" style="stroke:#000000; stroke-width:4; stroke-opacity:1; fill:none" points="
  987.037,1303.15 987.037,1445.72 1012.98,1445.72 1012.98,1303.15 987.037,1303.15 
  "/>
<path clip-path="url(#clip362)" d="
M1012.98 1274.3 L1012.98 1445.72 L1038.93 1445.72 L1038.93 1274.3 L1012.98 1274.3 L1012.98 1274.3  Z
  " fill="#009af9" fill-rule="evenodd" fill-opacity="1"/>
<polyline clip-path="url(#clip362)" style="stroke:#000000; stroke-width:4; stroke-opacity:1; fill:none" points="
  1012.98,1274.3 1012.98,1445.72 1038.93,1445.72 1038.93,1274.3 1012.98,1274.3 
  "/>
<path clip-path="url(#clip362)" d="
M1038.93 1294.67 L1038.93 1445.72 L1064.88 1445.72 L1064.88 1294.67 L1038.93 1294.67 L1038.93 1294.67  Z
  " fill="#009af9" fill-rule="evenodd" fill-opacity="1"/>
<polyline clip-path="url(#clip362)" style="stroke:#000000; stroke-width:4; stroke-opacity:1; fill:none" points="
  1038.93,1294.67 1038.93,1445.72 1064.88,1445.72 1064.88,1294.67 1038.93,1294.67 
  "/>
<path clip-path="url(#clip362)" d="
M1064.88 1252.24 L1064.88 1445.72 L1090.82 1445.72 L1090.82 1252.24 L1064.88 1252.24 L1064.88 1252.24  Z
  " fill="#009af9" fill-rule="evenodd" fill-opacity="1"/>
<polyline clip-path="url(#clip362)" style="stroke:#000000; stroke-width:4; stroke-opacity:1; fill:none" points="
  1064.88,1252.24 1064.88,1445.72 1090.82,1445.72 1090.82,1252.24 1064.88,1252.24 
  "/>
<path clip-path="url(#clip362)" d="
M1090.82 1226.78 L1090.82 1445.72 L1116.77 1445.72 L1116.77 1226.78 L1090.82 1226.78 L1090.82 1226.78  Z
  " fill="#009af9" fill-rule="evenodd" fill-opacity="1"/>
<polyline clip-path="url(#clip362)" style="stroke:#000000; stroke-width:4; stroke-opacity:1; fill:none" points="
  1090.82,1226.78 1090.82,1445.72 1116.77,1445.72 1116.77,1226.78 1090.82,1226.78 
  "/>
<path clip-path="url(#clip362)" d="
M1116.77 1257.33 L1116.77 1445.72 L1142.72 1445.72 L1142.72 1257.33 L1116.77 1257.33 L1116.77 1257.33  Z
  " fill="#009af9" fill-rule="evenodd" fill-opacity="1"/>
<polyline clip-path="url(#clip362)" style="stroke:#000000; stroke-width:4; stroke-opacity:1; fill:none" points="
  1116.77,1257.33 1116.77,1445.72 1142.72,1445.72 1142.72,1257.33 1116.77,1257.33 
  "/>
<path clip-path="url(#clip362)" d="
M1142.72 1248.84 L1142.72 1445.72 L1168.67 1445.72 L1168.67 1248.84 L1142.72 1248.84 L1142.72 1248.84  Z
  " fill="#009af9" fill-rule="evenodd" fill-opacity="1"/>
<polyline clip-path="url(#clip362)" style="stroke:#000000; stroke-width:4; stroke-opacity:1; fill:none" points="
  1142.72,1248.84 1142.72,1445.72 1168.67,1445.72 1168.67,1248.84 1142.72,1248.84 
  "/>
<path clip-path="url(#clip362)" d="
M1168.67 1214.9 L1168.67 1445.72 L1194.61 1445.72 L1194.61 1214.9 L1168.67 1214.9 L1168.67 1214.9  Z
  " fill="#009af9" fill-rule="evenodd" fill-opacity="1"/>
<polyline clip-path="url(#clip362)" style="stroke:#000000; stroke-width:4; stroke-opacity:1; fill:none" points="
  1168.67,1214.9 1168.67,1445.72 1194.61,1445.72 1194.61,1214.9 1168.67,1214.9 
  "/>
<path clip-path="url(#clip362)" d="
M1194.61 1225.08 L1194.61 1445.72 L1220.56 1445.72 L1220.56 1225.08 L1194.61 1225.08 L1194.61 1225.08  Z
  " fill="#009af9" fill-rule="evenodd" fill-opacity="1"/>
<polyline clip-path="url(#clip362)" style="stroke:#000000; stroke-width:4; stroke-opacity:1; fill:none" points="
  1194.61,1225.08 1194.61,1445.72 1220.56,1445.72 1220.56,1225.08 1194.61,1225.08 
  "/>
<path clip-path="url(#clip362)" d="
M1220.56 1218.29 L1220.56 1445.72 L1246.51 1445.72 L1246.51 1218.29 L1220.56 1218.29 L1220.56 1218.29  Z
  " fill="#009af9" fill-rule="evenodd" fill-opacity="1"/>
<polyline clip-path="url(#clip362)" style="stroke:#000000; stroke-width:4; stroke-opacity:1; fill:none" points="
  1220.56,1218.29 1220.56,1445.72 1246.51,1445.72 1246.51,1218.29 1220.56,1218.29 
  "/>
<path clip-path="url(#clip362)" d="
M1246.51 1147.01 L1246.51 1445.72 L1272.45 1445.72 L1272.45 1147.01 L1246.51 1147.01 L1246.51 1147.01  Z
  " fill="#009af9" fill-rule="evenodd" fill-opacity="1"/>
<polyline clip-path="url(#clip362)" style="stroke:#000000; stroke-width:4; stroke-opacity:1; fill:none" points="
  1246.51,1147.01 1246.51,1445.72 1272.45,1445.72 1272.45,1147.01 1246.51,1147.01 
  "/>
<path clip-path="url(#clip362)" d="
M1272.45 785.515 L1272.45 1445.72 L1298.4 1445.72 L1298.4 785.515 L1272.45 785.515 L1272.45 785.515  Z
  " fill="#009af9" fill-rule="evenodd" fill-opacity="1"/>
<polyline clip-path="url(#clip362)" style="stroke:#000000; stroke-width:4; stroke-opacity:1; fill:none" points="
  1272.45,785.515 1272.45,1445.72 1298.4,1445.72 1298.4,785.515 1272.45,785.515 
  "/>
<path clip-path="url(#clip362)" d="
M1298.4 87.9763 L1298.4 1445.72 L1324.35 1445.72 L1324.35 87.9763 L1298.4 87.9763 L1298.4 87.9763  Z
  " fill="#009af9" fill-rule="evenodd" fill-opacity="1"/>
<polyline clip-path="url(#clip362)" style="stroke:#000000; stroke-width:4; stroke-opacity:1; fill:none" points="
  1298.4,87.9763 1298.4,1445.72 1324.35,1445.72 1324.35,87.9763 1298.4,87.9763 
  "/>
<path clip-path="url(#clip362)" d="
M1324.35 143.983 L1324.35 1445.72 L1350.29 1445.72 L1350.29 143.983 L1324.35 143.983 L1324.35 143.983  Z
  " fill="#009af9" fill-rule="evenodd" fill-opacity="1"/>
<polyline clip-path="url(#clip362)" style="stroke:#000000; stroke-width:4; stroke-opacity:1; fill:none" points="
  1324.35,143.983 1324.35,1445.72 1350.29,1445.72 1350.29,143.983 1324.35,143.983 
  "/>
<path clip-path="url(#clip362)" d="
M1350.29 795.698 L1350.29 1445.72 L1376.24 1445.72 L1376.24 795.698 L1350.29 795.698 L1350.29 795.698  Z
  " fill="#009af9" fill-rule="evenodd" fill-opacity="1"/>
<polyline clip-path="url(#clip362)" style="stroke:#000000; stroke-width:4; stroke-opacity:1; fill:none" points="
  1350.29,795.698 1350.29,1445.72 1376.24,1445.72 1376.24,795.698 1350.29,795.698 
  "/>
<path clip-path="url(#clip362)" d="
M1376.24 1238.66 L1376.24 1445.72 L1402.19 1445.72 L1402.19 1238.66 L1376.24 1238.66 L1376.24 1238.66  Z
  " fill="#009af9" fill-rule="evenodd" fill-opacity="1"/>
<polyline clip-path="url(#clip362)" style="stroke:#000000; stroke-width:4; stroke-opacity:1; fill:none" points="
  1376.24,1238.66 1376.24,1445.72 1402.19,1445.72 1402.19,1238.66 1376.24,1238.66 
  "/>
<path clip-path="url(#clip362)" d="
M1402.19 1303.15 L1402.19 1445.72 L1428.14 1445.72 L1428.14 1303.15 L1402.19 1303.15 L1402.19 1303.15  Z
  " fill="#009af9" fill-rule="evenodd" fill-opacity="1"/>
<polyline clip-path="url(#clip362)" style="stroke:#000000; stroke-width:4; stroke-opacity:1; fill:none" points="
  1402.19,1303.15 1402.19,1445.72 1428.14,1445.72 1428.14,1303.15 1402.19,1303.15 
  "/>
<path clip-path="url(#clip362)" d="
M1428.14 1316.73 L1428.14 1445.72 L1454.08 1445.72 L1454.08 1316.73 L1428.14 1316.73 L1428.14 1316.73  Z
  " fill="#009af9" fill-rule="evenodd" fill-opacity="1"/>
<polyline clip-path="url(#clip362)" style="stroke:#000000; stroke-width:4; stroke-opacity:1; fill:none" points="
  1428.14,1316.73 1428.14,1445.72 1454.08,1445.72 1454.08,1316.73 1428.14,1316.73 
  "/>
<path clip-path="url(#clip362)" d="
M1454.08 1328.61 L1454.08 1445.72 L1480.03 1445.72 L1480.03 1328.61 L1454.08 1328.61 L1454.08 1328.61  Z
  " fill="#009af9" fill-rule="evenodd" fill-opacity="1"/>
<polyline clip-path="url(#clip362)" style="stroke:#000000; stroke-width:4; stroke-opacity:1; fill:none" points="
  1454.08,1328.61 1454.08,1445.72 1480.03,1445.72 1480.03,1328.61 1454.08,1328.61 
  "/>
<path clip-path="url(#clip362)" d="
M1480.03 1359.16 L1480.03 1445.72 L1505.98 1445.72 L1505.98 1359.16 L1480.03 1359.16 L1480.03 1359.16  Z
  " fill="#009af9" fill-rule="evenodd" fill-opacity="1"/>
<polyline clip-path="url(#clip362)" style="stroke:#000000; stroke-width:4; stroke-opacity:1; fill:none" points="
  1480.03,1359.16 1480.03,1445.72 1505.98,1445.72 1505.98,1359.16 1480.03,1359.16 
  "/>
<path clip-path="url(#clip362)" d="
M1505.98 1362.55 L1505.98 1445.72 L1531.92 1445.72 L1531.92 1362.55 L1505.98 1362.55 L1505.98 1362.55  Z
  " fill="#009af9" fill-rule="evenodd" fill-opacity="1"/>
<polyline clip-path="url(#clip362)" style="stroke:#000000; stroke-width:4; stroke-opacity:1; fill:none" points="
  1505.98,1362.55 1505.98,1445.72 1531.92,1445.72 1531.92,1362.55 1505.98,1362.55 
  "/>
<path clip-path="url(#clip362)" d="
M1531.92 1357.46 L1531.92 1445.72 L1557.87 1445.72 L1557.87 1357.46 L1531.92 1357.46 L1531.92 1357.46  Z
  " fill="#009af9" fill-rule="evenodd" fill-opacity="1"/>
<polyline clip-path="url(#clip362)" style="stroke:#000000; stroke-width:4; stroke-opacity:1; fill:none" points="
  1531.92,1357.46 1531.92,1445.72 1557.87,1445.72 1557.87,1357.46 1531.92,1357.46 
  "/>
<path clip-path="url(#clip362)" d="
M1557.87 1365.95 L1557.87 1445.72 L1583.82 1445.72 L1583.82 1365.95 L1557.87 1365.95 L1557.87 1365.95  Z
  " fill="#009af9" fill-rule="evenodd" fill-opacity="1"/>
<polyline clip-path="url(#clip362)" style="stroke:#000000; stroke-width:4; stroke-opacity:1; fill:none" points="
  1557.87,1365.95 1557.87,1445.72 1583.82,1445.72 1583.82,1365.95 1557.87,1365.95 
  "/>
<path clip-path="url(#clip362)" d="
M1583.82 1386.31 L1583.82 1445.72 L1609.76 1445.72 L1609.76 1386.31 L1583.82 1386.31 L1583.82 1386.31  Z
  " fill="#009af9" fill-rule="evenodd" fill-opacity="1"/>
<polyline clip-path="url(#clip362)" style="stroke:#000000; stroke-width:4; stroke-opacity:1; fill:none" points="
  1583.82,1386.31 1583.82,1445.72 1609.76,1445.72 1609.76,1386.31 1583.82,1386.31 
  "/>
<path clip-path="url(#clip362)" d="
M1609.76 1401.59 L1609.76 1445.72 L1635.71 1445.72 L1635.71 1401.59 L1609.76 1401.59 L1609.76 1401.59  Z
  " fill="#009af9" fill-rule="evenodd" fill-opacity="1"/>
<polyline clip-path="url(#clip362)" style="stroke:#000000; stroke-width:4; stroke-opacity:1; fill:none" points="
  1609.76,1401.59 1609.76,1445.72 1635.71,1445.72 1635.71,1401.59 1609.76,1401.59 
  "/>
<path clip-path="url(#clip362)" d="
M1635.71 1398.19 L1635.71 1445.72 L1661.66 1445.72 L1661.66 1398.19 L1635.71 1398.19 L1635.71 1398.19  Z
  " fill="#009af9" fill-rule="evenodd" fill-opacity="1"/>
<polyline clip-path="url(#clip362)" style="stroke:#000000; stroke-width:4; stroke-opacity:1; fill:none" points="
  1635.71,1398.19 1635.71,1445.72 1661.66,1445.72 1661.66,1398.19 1635.71,1398.19 
  "/>
<path clip-path="url(#clip362)" d="
M1661.66 1389.71 L1661.66 1445.72 L1687.61 1445.72 L1687.61 1389.71 L1661.66 1389.71 L1661.66 1389.71  Z
  " fill="#009af9" fill-rule="evenodd" fill-opacity="1"/>
<polyline clip-path="url(#clip362)" style="stroke:#000000; stroke-width:4; stroke-opacity:1; fill:none" points="
  1661.66,1389.71 1661.66,1445.72 1687.61,1445.72 1687.61,1389.71 1661.66,1389.71 
  "/>
<path clip-path="url(#clip362)" d="
M1687.61 1406.68 L1687.61 1445.72 L1713.55 1445.72 L1713.55 1406.68 L1687.61 1406.68 L1687.61 1406.68  Z
  " fill="#009af9" fill-rule="evenodd" fill-opacity="1"/>
<polyline clip-path="url(#clip362)" style="stroke:#000000; stroke-width:4; stroke-opacity:1; fill:none" points="
  1687.61,1406.68 1687.61,1445.72 1713.55,1445.72 1713.55,1406.68 1687.61,1406.68 
  "/>
<path clip-path="url(#clip362)" d="
M1713.55 1430.44 L1713.55 1445.72 L1739.5 1445.72 L1739.5 1430.44 L1713.55 1430.44 L1713.55 1430.44  Z
  " fill="#009af9" fill-rule="evenodd" fill-opacity="1"/>
<polyline clip-path="url(#clip362)" style="stroke:#000000; stroke-width:4; stroke-opacity:1; fill:none" points="
  1713.55,1430.44 1713.55,1445.72 1739.5,1445.72 1739.5,1430.44 1713.55,1430.44 
  "/>
<path clip-path="url(#clip362)" d="
M1739.5 1420.26 L1739.5 1445.72 L1765.45 1445.72 L1765.45 1420.26 L1739.5 1420.26 L1739.5 1420.26  Z
  " fill="#009af9" fill-rule="evenodd" fill-opacity="1"/>
<polyline clip-path="url(#clip362)" style="stroke:#000000; stroke-width:4; stroke-opacity:1; fill:none" points="
  1739.5,1420.26 1739.5,1445.72 1765.45,1445.72 1765.45,1420.26 1739.5,1420.26 
  "/>
<path clip-path="url(#clip362)" d="
M1765.45 1427.05 L1765.45 1445.72 L1791.39 1445.72 L1791.39 1427.05 L1765.45 1427.05 L1765.45 1427.05  Z
  " fill="#009af9" fill-rule="evenodd" fill-opacity="1"/>
<polyline clip-path="url(#clip362)" style="stroke:#000000; stroke-width:4; stroke-opacity:1; fill:none" points="
  1765.45,1427.05 1765.45,1445.72 1791.39,1445.72 1791.39,1427.05 1765.45,1427.05 
  "/>
<path clip-path="url(#clip362)" d="
M1791.39 1430.44 L1791.39 1445.72 L1817.34 1445.72 L1817.34 1430.44 L1791.39 1430.44 L1791.39 1430.44  Z
  " fill="#009af9" fill-rule="evenodd" fill-opacity="1"/>
<polyline clip-path="url(#clip362)" style="stroke:#000000; stroke-width:4; stroke-opacity:1; fill:none" points="
  1791.39,1430.44 1791.39,1445.72 1817.34,1445.72 1817.34,1430.44 1791.39,1430.44 
  "/>
<path clip-path="url(#clip362)" d="
M1817.34 1440.62 L1817.34 1445.72 L1843.29 1445.72 L1843.29 1440.62 L1817.34 1440.62 L1817.34 1440.62  Z
  " fill="#009af9" fill-rule="evenodd" fill-opacity="1"/>
<polyline clip-path="url(#clip362)" style="stroke:#000000; stroke-width:4; stroke-opacity:1; fill:none" points="
  1817.34,1440.62 1817.34,1445.72 1843.29,1445.72 1843.29,1440.62 1817.34,1440.62 
  "/>
<path clip-path="url(#clip362)" d="
M1843.29 1444.02 L1843.29 1445.72 L1869.23 1445.72 L1869.23 1444.02 L1843.29 1444.02 L1843.29 1444.02  Z
  " fill="#009af9" fill-rule="evenodd" fill-opacity="1"/>
<polyline clip-path="url(#clip362)" style="stroke:#000000; stroke-width:4; stroke-opacity:1; fill:none" points="
  1843.29,1444.02 1843.29,1445.72 1869.23,1445.72 1869.23,1444.02 1843.29,1444.02 
  "/>
<path clip-path="url(#clip362)" d="
M1869.23 1437.23 L1869.23 1445.72 L1895.18 1445.72 L1895.18 1437.23 L1869.23 1437.23 L1869.23 1437.23  Z
  " fill="#009af9" fill-rule="evenodd" fill-opacity="1"/>
<polyline clip-path="url(#clip362)" style="stroke:#000000; stroke-width:4; stroke-opacity:1; fill:none" points="
  1869.23,1437.23 1869.23,1445.72 1895.18,1445.72 1895.18,1437.23 1869.23,1437.23 
  "/>
<path clip-path="url(#clip362)" d="
M1895.18 1444.02 L1895.18 1445.72 L1921.13 1445.72 L1921.13 1444.02 L1895.18 1444.02 L1895.18 1444.02  Z
  " fill="#009af9" fill-rule="evenodd" fill-opacity="1"/>
<polyline clip-path="url(#clip362)" style="stroke:#000000; stroke-width:4; stroke-opacity:1; fill:none" points="
  1895.18,1444.02 1895.18,1445.72 1921.13,1445.72 1921.13,1444.02 1895.18,1444.02 
  "/>
<path clip-path="url(#clip362)" d="
M1921.13 1444.02 L1921.13 1445.72 L1947.08 1445.72 L1947.08 1444.02 L1921.13 1444.02 L1921.13 1444.02  Z
  " fill="#009af9" fill-rule="evenodd" fill-opacity="1"/>
<polyline clip-path="url(#clip362)" style="stroke:#000000; stroke-width:4; stroke-opacity:1; fill:none" points="
  1921.13,1444.02 1921.13,1445.72 1947.08,1445.72 1947.08,1444.02 1921.13,1444.02 
  "/>
<path clip-path="url(#clip362)" d="
M1947.08 1445.72 L1947.08 1445.72 L1973.02 1445.72 L1973.02 1445.72 L1947.08 1445.72 L1947.08 1445.72  Z
  " fill="#009af9" fill-rule="evenodd" fill-opacity="1"/>
<polyline clip-path="url(#clip362)" style="stroke:#000000; stroke-width:4; stroke-opacity:1; fill:none" points="
  1947.08,1445.72 1947.08,1445.72 1973.02,1445.72 1947.08,1445.72 
  "/>
<path clip-path="url(#clip362)" d="
M1973.02 1437.23 L1973.02 1445.72 L1998.97 1445.72 L1998.97 1437.23 L1973.02 1437.23 L1973.02 1437.23  Z
  " fill="#009af9" fill-rule="evenodd" fill-opacity="1"/>
<polyline clip-path="url(#clip362)" style="stroke:#000000; stroke-width:4; stroke-opacity:1; fill:none" points="
  1973.02,1437.23 1973.02,1445.72 1998.97,1445.72 1998.97,1437.23 1973.02,1437.23 
  "/>
<path clip-path="url(#clip362)" d="
M1998.97 1442.32 L1998.97 1445.72 L2024.92 1445.72 L2024.92 1442.32 L1998.97 1442.32 L1998.97 1442.32  Z
  " fill="#009af9" fill-rule="evenodd" fill-opacity="1"/>
<polyline clip-path="url(#clip362)" style="stroke:#000000; stroke-width:4; stroke-opacity:1; fill:none" points="
  1998.97,1442.32 1998.97,1445.72 2024.92,1445.72 2024.92,1442.32 1998.97,1442.32 
  "/>
<path clip-path="url(#clip362)" d="
M2024.92 1445.72 L2024.92 1445.72 L2050.86 1445.72 L2050.86 1445.72 L2024.92 1445.72 L2024.92 1445.72  Z
  " fill="#009af9" fill-rule="evenodd" fill-opacity="1"/>
<polyline clip-path="url(#clip362)" style="stroke:#000000; stroke-width:4; stroke-opacity:1; fill:none" points="
  2024.92,1445.72 2024.92,1445.72 2050.86,1445.72 2024.92,1445.72 
  "/>
<path clip-path="url(#clip362)" d="
M2050.86 1444.02 L2050.86 1445.72 L2076.81 1445.72 L2076.81 1444.02 L2050.86 1444.02 L2050.86 1444.02  Z
  " fill="#009af9" fill-rule="evenodd" fill-opacity="1"/>
<polyline clip-path="url(#clip362)" style="stroke:#000000; stroke-width:4; stroke-opacity:1; fill:none" points="
  2050.86,1444.02 2050.86,1445.72 2076.81,1445.72 2076.81,1444.02 2050.86,1444.02 
  "/>
<path clip-path="url(#clip362)" d="
M2076.81 1444.02 L2076.81 1445.72 L2102.76 1445.72 L2102.76 1444.02 L2076.81 1444.02 L2076.81 1444.02  Z
  " fill="#009af9" fill-rule="evenodd" fill-opacity="1"/>
<polyline clip-path="url(#clip362)" style="stroke:#000000; stroke-width:4; stroke-opacity:1; fill:none" points="
  2076.81,1444.02 2076.81,1445.72 2102.76,1445.72 2102.76,1444.02 2076.81,1444.02 
  "/>
<path clip-path="url(#clip362)" d="
M2102.76 1445.72 L2102.76 1445.72 L2128.7 1445.72 L2128.7 1445.72 L2102.76 1445.72 L2102.76 1445.72  Z
  " fill="#009af9" fill-rule="evenodd" fill-opacity="1"/>
<polyline clip-path="url(#clip362)" style="stroke:#000000; stroke-width:4; stroke-opacity:1; fill:none" points="
  2102.76,1445.72 2102.76,1445.72 2128.7,1445.72 2102.76,1445.72 
  "/>
<path clip-path="url(#clip362)" d="
M2128.7 1445.72 L2128.7 1445.72 L2154.65 1445.72 L2154.65 1445.72 L2128.7 1445.72 L2128.7 1445.72  Z
  " fill="#009af9" fill-rule="evenodd" fill-opacity="1"/>
<polyline clip-path="url(#clip362)" style="stroke:#000000; stroke-width:4; stroke-opacity:1; fill:none" points="
  2128.7,1445.72 2128.7,1445.72 2154.65,1445.72 2128.7,1445.72 
  "/>
<path clip-path="url(#clip362)" d="
M2154.65 1445.72 L2154.65 1445.72 L2180.6 1445.72 L2180.6 1445.72 L2154.65 1445.72 L2154.65 1445.72  Z
  " fill="#009af9" fill-rule="evenodd" fill-opacity="1"/>
<polyline clip-path="url(#clip362)" style="stroke:#000000; stroke-width:4; stroke-opacity:1; fill:none" points="
  2154.65,1445.72 2154.65,1445.72 2180.6,1445.72 2154.65,1445.72 
  "/>
<path clip-path="url(#clip362)" d="
M2180.6 1445.72 L2180.6 1445.72 L2206.54 1445.72 L2206.54 1445.72 L2180.6 1445.72 L2180.6 1445.72  Z
  " fill="#009af9" fill-rule="evenodd" fill-opacity="1"/>
<polyline clip-path="url(#clip362)" style="stroke:#000000; stroke-width:4; stroke-opacity:1; fill:none" points="
  2180.6,1445.72 2180.6,1445.72 2206.54,1445.72 2180.6,1445.72 
  "/>
<path clip-path="url(#clip362)" d="
M2206.54 1444.02 L2206.54 1445.72 L2232.49 1445.72 L2232.49 1444.02 L2206.54 1444.02 L2206.54 1444.02  Z
  " fill="#009af9" fill-rule="evenodd" fill-opacity="1"/>
<polyline clip-path="url(#clip362)" style="stroke:#000000; stroke-width:4; stroke-opacity:1; fill:none" points="
  2206.54,1444.02 2206.54,1445.72 2232.49,1445.72 2232.49,1444.02 2206.54,1444.02 
  "/>
<path clip-path="url(#clip360)" d="
M1989.74 251.724 L2280.76 251.724 L2280.76 130.764 L1989.74 130.764  Z
  " fill="#ffffff" fill-rule="evenodd" fill-opacity="1"/>
<polyline clip-path="url(#clip360)" style="stroke:#000000; stroke-width:4; stroke-opacity:1; fill:none" points="
  1989.74,251.724 2280.76,251.724 2280.76,130.764 1989.74,130.764 1989.74,251.724 
  "/>
<path clip-path="url(#clip360)" d="
M2013.74 215.436 L2157.74 215.436 L2157.74 167.052 L2013.74 167.052 L2013.74 215.436  Z
  " fill="#009af9" fill-rule="evenodd" fill-opacity="1"/>
<polyline clip-path="url(#clip360)" style="stroke:#000000; stroke-width:4; stroke-opacity:1; fill:none" points="
  2013.74,215.436 2157.74,215.436 2157.74,167.052 2013.74,167.052 2013.74,215.436 
  "/>
<path clip-path="url(#clip360)" d="M 0 0 M2195.58 210.931 Q2193.77 215.561 2192.06 216.973 Q2190.35 218.385 2187.48 218.385 L2184.08 218.385 L2184.08 214.82 L2186.58 214.82 Q2188.33 214.82 2189.31 213.987 Q2190.28 213.154 2191.46 210.052 L2192.22 208.107 L2181.74 182.598 L2186.25 182.598 L2194.35 202.876 L2202.46 182.598 L2206.97 182.598 L2195.58 210.931 Z" fill="#000000" fill-rule="evenodd" fill-opacity="1" /><path clip-path="url(#clip360)" d="M 0 0 M2212.85 204.589 L2220.49 204.589 L2220.49 178.223 L2212.18 179.89 L2212.18 175.631 L2220.44 173.964 L2225.12 173.964 L2225.12 204.589 L2232.76 204.589 L2232.76 208.524 L2212.85 208.524 L2212.85 204.589 Z" fill="#000000" fill-rule="evenodd" fill-opacity="1" /></svg>
