<?xml version="1.0" encoding="utf-8"?>
<svg xmlns="http://www.w3.org/2000/svg" xmlns:xlink="http://www.w3.org/1999/xlink" width="600" height="400" viewBox="0 0 2400 1600">
<defs>
  <clipPath id="clip610">
    <rect x="0" y="0" width="2400" height="1600"/>
  </clipPath>
</defs>
<path clip-path="url(#clip610)" d="
M0 1600 L2400 1600 L2400 0 L0 0  Z
  " fill="#ffffff" fill-rule="evenodd" fill-opacity="1"/>
<defs>
  <clipPath id="clip611">
    <rect x="480" y="0" width="1681" height="1600"/>
  </clipPath>
</defs>
<path clip-path="url(#clip610)" d="
M166.205 1486.45 L2352.76 1486.45 L2352.76 47.2441 L166.205 47.2441  Z
  " fill="#ffffff" fill-rule="evenodd" fill-opacity="1"/>
<defs>
  <clipPath id="clip612">
    <rect x="166" y="47" width="2188" height="1440"/>
  </clipPath>
</defs>
<polyline clip-path="url(#clip612)" style="stroke:#000000; stroke-width:2; stroke-opacity:0.1; fill:none" points="
  444.255,1486.45 444.255,47.2441 
  "/>
<polyline clip-path="url(#clip612)" style="stroke:#000000; stroke-width:2; stroke-opacity:0.1; fill:none" points="
  772.975,1486.45 772.975,47.2441 
  "/>
<polyline clip-path="url(#clip612)" style="stroke:#000000; stroke-width:2; stroke-opacity:0.1; fill:none" points="
  1101.69,1486.45 1101.69,47.2441 
  "/>
<polyline clip-path="url(#clip612)" style="stroke:#000000; stroke-width:2; stroke-opacity:0.1; fill:none" points="
  1430.41,1486.45 1430.41,47.2441 
  "/>
<polyline clip-path="url(#clip612)" style="stroke:#000000; stroke-width:2; stroke-opacity:0.1; fill:none" points="
  1759.13,1486.45 1759.13,47.2441 
  "/>
<polyline clip-path="url(#clip612)" style="stroke:#000000; stroke-width:2; stroke-opacity:0.1; fill:none" points="
  2087.85,1486.45 2087.85,47.2441 
  "/>
<polyline clip-path="url(#clip612)" style="stroke:#000000; stroke-width:2; stroke-opacity:0.1; fill:none" points="
  166.205,1445.72 2352.76,1445.72 
  "/>
<polyline clip-path="url(#clip612)" style="stroke:#000000; stroke-width:2; stroke-opacity:0.1; fill:none" points="
  166.205,1096.23 2352.76,1096.23 
  "/>
<polyline clip-path="url(#clip612)" style="stroke:#000000; stroke-width:2; stroke-opacity:0.1; fill:none" points="
  166.205,746.751 2352.76,746.751 
  "/>
<polyline clip-path="url(#clip612)" style="stroke:#000000; stroke-width:2; stroke-opacity:0.1; fill:none" points="
  166.205,397.268 2352.76,397.268 
  "/>
<polyline clip-path="url(#clip612)" style="stroke:#000000; stroke-width:2; stroke-opacity:0.1; fill:none" points="
  166.205,47.7858 2352.76,47.7858 
  "/>
<polyline clip-path="url(#clip610)" style="stroke:#000000; stroke-width:4; stroke-opacity:1; fill:none" points="
  166.205,1486.45 2352.76,1486.45 
  "/>
<polyline clip-path="url(#clip610)" style="stroke:#000000; stroke-width:4; stroke-opacity:1; fill:none" points="
  166.205,1486.45 166.205,47.2441 
  "/>
<polyline clip-path="url(#clip610)" style="stroke:#000000; stroke-width:4; stroke-opacity:1; fill:none" points="
  444.255,1486.45 444.255,1469.18 
  "/>
<polyline clip-path="url(#clip610)" style="stroke:#000000; stroke-width:4; stroke-opacity:1; fill:none" points="
  772.975,1486.45 772.975,1469.18 
  "/>
<polyline clip-path="url(#clip610)" style="stroke:#000000; stroke-width:4; stroke-opacity:1; fill:none" points="
  1101.69,1486.45 1101.69,1469.18 
  "/>
<polyline clip-path="url(#clip610)" style="stroke:#000000; stroke-width:4; stroke-opacity:1; fill:none" points="
  1430.41,1486.45 1430.41,1469.18 
  "/>
<polyline clip-path="url(#clip610)" style="stroke:#000000; stroke-width:4; stroke-opacity:1; fill:none" points="
  1759.13,1486.45 1759.13,1469.18 
  "/>
<polyline clip-path="url(#clip610)" style="stroke:#000000; stroke-width:4; stroke-opacity:1; fill:none" points="
  2087.85,1486.45 2087.85,1469.18 
  "/>
<polyline clip-path="url(#clip610)" style="stroke:#000000; stroke-width:4; stroke-opacity:1; fill:none" points="
  166.205,1445.72 192.443,1445.72 
  "/>
<polyline clip-path="url(#clip610)" style="stroke:#000000; stroke-width:4; stroke-opacity:1; fill:none" points="
  166.205,1096.23 192.443,1096.23 
  "/>
<polyline clip-path="url(#clip610)" style="stroke:#000000; stroke-width:4; stroke-opacity:1; fill:none" points="
  166.205,746.751 192.443,746.751 
  "/>
<polyline clip-path="url(#clip610)" style="stroke:#000000; stroke-width:4; stroke-opacity:1; fill:none" points="
  166.205,397.268 192.443,397.268 
  "/>
<polyline clip-path="url(#clip610)" style="stroke:#000000; stroke-width:4; stroke-opacity:1; fill:none" points="
  166.205,47.7858 192.443,47.7858 
  "/>
<path clip-path="url(#clip610)" d="M 0 0 M406.523 1525.04 L419 1525.04 L419 1528.83 L406.523 1528.83 L406.523 1525.04 Z" fill="#000000" fill-rule="evenodd" fill-opacity="1" /><path clip-path="url(#clip610)" d="M 0 0 M424.116 1505.36 L442.472 1505.36 L442.472 1509.3 L428.398 1509.3 L428.398 1517.77 Q429.417 1517.42 430.435 1517.26 Q431.454 1517.07 432.472 1517.07 Q438.259 1517.07 441.639 1520.24 Q445.018 1523.42 445.018 1528.83 Q445.018 1534.41 441.546 1537.51 Q438.074 1540.59 431.755 1540.59 Q429.579 1540.59 427.31 1540.22 Q425.065 1539.85 422.657 1539.11 L422.657 1534.41 Q424.741 1535.54 426.963 1536.1 Q429.185 1536.66 431.662 1536.66 Q435.667 1536.66 438.005 1534.55 Q440.342 1532.44 440.342 1528.83 Q440.342 1525.22 438.005 1523.11 Q435.667 1521.01 431.662 1521.01 Q429.787 1521.01 427.912 1521.42 Q426.06 1521.84 424.116 1522.72 L424.116 1505.36 Z" fill="#000000" fill-rule="evenodd" fill-opacity="1" /><path clip-path="url(#clip610)" d="M 0 0 M450.088 1534.04 L454.972 1534.04 L454.972 1539.92 L450.088 1539.92 L450.088 1534.04 Z" fill="#000000" fill-rule="evenodd" fill-opacity="1" /><path clip-path="url(#clip610)" d="M 0 0 M470.041 1508.44 Q466.43 1508.44 464.602 1512 Q462.796 1515.55 462.796 1522.67 Q462.796 1529.78 464.602 1533.35 Q466.43 1536.89 470.041 1536.89 Q473.676 1536.89 475.481 1533.35 Q477.31 1529.78 477.31 1522.67 Q477.31 1515.55 475.481 1512 Q473.676 1508.44 470.041 1508.44 M470.041 1504.73 Q475.852 1504.73 478.907 1509.34 Q481.986 1513.92 481.986 1522.67 Q481.986 1531.4 478.907 1536.01 Q475.852 1540.59 470.041 1540.59 Q464.231 1540.59 461.153 1536.01 Q458.097 1531.4 458.097 1522.67 Q458.097 1513.92 461.153 1509.34 Q464.231 1504.73 470.041 1504.73 Z" fill="#000000" fill-rule="evenodd" fill-opacity="1" /><path clip-path="url(#clip610)" d="M 0 0 M736.042 1525.04 L748.519 1525.04 L748.519 1528.83 L736.042 1528.83 L736.042 1525.04 Z" fill="#000000" fill-rule="evenodd" fill-opacity="1" /><path clip-path="url(#clip610)" d="M 0 0 M757.616 1535.98 L773.935 1535.98 L773.935 1539.92 L751.991 1539.92 L751.991 1535.98 Q754.653 1533.23 759.236 1528.6 Q763.843 1523.95 765.023 1522.61 Q767.269 1520.08 768.148 1518.35 Q769.051 1516.59 769.051 1514.9 Q769.051 1512.14 767.107 1510.41 Q765.185 1508.67 762.083 1508.67 Q759.884 1508.67 757.431 1509.43 Q755 1510.2 752.222 1511.75 L752.222 1507.03 Q755.046 1505.89 757.5 1505.31 Q759.954 1504.73 761.991 1504.73 Q767.361 1504.73 770.556 1507.42 Q773.75 1510.11 773.75 1514.6 Q773.75 1516.73 772.94 1518.65 Q772.153 1520.54 770.046 1523.14 Q769.468 1523.81 766.366 1527.03 Q763.264 1530.22 757.616 1535.98 Z" fill="#000000" fill-rule="evenodd" fill-opacity="1" /><path clip-path="url(#clip610)" d="M 0 0 M779.005 1534.04 L783.889 1534.04 L783.889 1539.92 L779.005 1539.92 L779.005 1534.04 Z" fill="#000000" fill-rule="evenodd" fill-opacity="1" /><path clip-path="url(#clip610)" d="M 0 0 M789.005 1505.36 L807.361 1505.36 L807.361 1509.3 L793.287 1509.3 L793.287 1517.77 Q794.305 1517.42 795.324 1517.26 Q796.343 1517.07 797.361 1517.07 Q803.148 1517.07 806.528 1520.24 Q809.907 1523.42 809.907 1528.83 Q809.907 1534.41 806.435 1537.51 Q802.963 1540.59 796.643 1540.59 Q794.468 1540.59 792.199 1540.22 Q789.954 1539.85 787.546 1539.11 L787.546 1534.41 Q789.63 1535.54 791.852 1536.1 Q794.074 1536.66 796.551 1536.66 Q800.555 1536.66 802.893 1534.55 Q805.231 1532.44 805.231 1528.83 Q805.231 1525.22 802.893 1523.11 Q800.555 1521.01 796.551 1521.01 Q794.676 1521.01 792.801 1521.42 Q790.949 1521.84 789.005 1522.72 L789.005 1505.36 Z" fill="#000000" fill-rule="evenodd" fill-opacity="1" /><path clip-path="url(#clip610)" d="M 0 0 M1083.21 1508.44 Q1079.6 1508.44 1077.77 1512 Q1075.97 1515.55 1075.97 1522.67 Q1075.97 1529.78 1077.77 1533.35 Q1079.6 1536.89 1083.21 1536.89 Q1086.85 1536.89 1088.65 1533.35 Q1090.48 1529.78 1090.48 1522.67 Q1090.48 1515.55 1088.65 1512 Q1086.85 1508.44 1083.21 1508.44 M1083.21 1504.73 Q1089.02 1504.73 1092.08 1509.34 Q1095.16 1513.92 1095.16 1522.67 Q1095.16 1531.4 1092.08 1536.01 Q1089.02 1540.59 1083.21 1540.59 Q1077.4 1540.59 1074.32 1536.01 Q1071.27 1531.4 1071.27 1522.67 Q1071.27 1513.92 1074.32 1509.34 Q1077.4 1504.73 1083.21 1504.73 Z" fill="#000000" fill-rule="evenodd" fill-opacity="1" /><path clip-path="url(#clip610)" d="M 0 0 M1100.22 1534.04 L1105.11 1534.04 L1105.11 1539.92 L1100.22 1539.92 L1100.22 1534.04 Z" fill="#000000" fill-rule="evenodd" fill-opacity="1" /><path clip-path="url(#clip610)" d="M 0 0 M1120.18 1508.44 Q1116.57 1508.44 1114.74 1512 Q1112.93 1515.55 1112.93 1522.67 Q1112.93 1529.78 1114.74 1533.35 Q1116.57 1536.89 1120.18 1536.89 Q1123.81 1536.89 1125.62 1533.35 Q1127.45 1529.78 1127.45 1522.67 Q1127.45 1515.55 1125.62 1512 Q1123.81 1508.44 1120.18 1508.44 M1120.18 1504.73 Q1125.99 1504.73 1129.04 1509.34 Q1132.12 1513.92 1132.12 1522.67 Q1132.12 1531.4 1129.04 1536.01 Q1125.99 1540.59 1120.18 1540.59 Q1114.37 1540.59 1111.29 1536.01 Q1108.23 1531.4 1108.23 1522.67 Q1108.23 1513.92 1111.29 1509.34 Q1114.37 1504.73 1120.18 1504.73 Z" fill="#000000" fill-rule="evenodd" fill-opacity="1" /><path clip-path="url(#clip610)" d="M 0 0 M1407.08 1535.98 L1423.4 1535.98 L1423.4 1539.92 L1401.46 1539.92 L1401.46 1535.98 Q1404.12 1533.23 1408.7 1528.6 Q1413.31 1523.95 1414.49 1522.61 Q1416.73 1520.08 1417.61 1518.35 Q1418.52 1516.59 1418.52 1514.9 Q1418.52 1512.14 1416.57 1510.41 Q1414.65 1508.67 1411.55 1508.67 Q1409.35 1508.67 1406.9 1509.43 Q1404.47 1510.2 1401.69 1511.75 L1401.69 1507.03 Q1404.51 1505.89 1406.97 1505.31 Q1409.42 1504.73 1411.46 1504.73 Q1416.83 1504.73 1420.02 1507.42 Q1423.22 1510.11 1423.22 1514.6 Q1423.22 1516.73 1422.41 1518.65 Q1421.62 1520.54 1419.51 1523.14 Q1418.93 1523.81 1415.83 1527.03 Q1412.73 1530.22 1407.08 1535.98 Z" fill="#000000" fill-rule="evenodd" fill-opacity="1" /><path clip-path="url(#clip610)" d="M 0 0 M1428.47 1534.04 L1433.35 1534.04 L1433.35 1539.92 L1428.47 1539.92 L1428.47 1534.04 Z" fill="#000000" fill-rule="evenodd" fill-opacity="1" /><path clip-path="url(#clip610)" d="M 0 0 M1438.47 1505.36 L1456.83 1505.36 L1456.83 1509.3 L1442.75 1509.3 L1442.75 1517.77 Q1443.77 1517.42 1444.79 1517.26 Q1445.81 1517.07 1446.83 1517.07 Q1452.61 1517.07 1455.99 1520.24 Q1459.37 1523.42 1459.37 1528.83 Q1459.37 1534.41 1455.9 1537.51 Q1452.43 1540.59 1446.11 1540.59 Q1443.93 1540.59 1441.66 1540.22 Q1439.42 1539.85 1437.01 1539.11 L1437.01 1534.41 Q1439.1 1535.54 1441.32 1536.1 Q1443.54 1536.66 1446.02 1536.66 Q1450.02 1536.66 1452.36 1534.55 Q1454.7 1532.44 1454.7 1528.83 Q1454.7 1525.22 1452.36 1523.11 Q1450.02 1521.01 1446.02 1521.01 Q1444.14 1521.01 1442.27 1521.42 Q1440.41 1521.84 1438.47 1522.72 L1438.47 1505.36 Z" fill="#000000" fill-rule="evenodd" fill-opacity="1" /><path clip-path="url(#clip610)" d="M 0 0 M1730.93 1505.36 L1749.29 1505.36 L1749.29 1509.3 L1735.21 1509.3 L1735.21 1517.77 Q1736.23 1517.42 1737.25 1517.26 Q1738.27 1517.07 1739.29 1517.07 Q1745.07 1517.07 1748.45 1520.24 Q1751.83 1523.42 1751.83 1528.83 Q1751.83 1534.41 1748.36 1537.51 Q1744.89 1540.59 1738.57 1540.59 Q1736.39 1540.59 1734.12 1540.22 Q1731.88 1539.85 1729.47 1539.11 L1729.47 1534.41 Q1731.55 1535.54 1733.78 1536.1 Q1736 1536.66 1738.48 1536.66 Q1742.48 1536.66 1744.82 1534.55 Q1747.16 1532.44 1747.16 1528.83 Q1747.16 1525.22 1744.82 1523.11 Q1742.48 1521.01 1738.48 1521.01 Q1736.6 1521.01 1734.73 1521.42 Q1732.87 1521.84 1730.93 1522.72 L1730.93 1505.36 Z" fill="#000000" fill-rule="evenodd" fill-opacity="1" /><path clip-path="url(#clip610)" d="M 0 0 M1756.9 1534.04 L1761.79 1534.04 L1761.79 1539.92 L1756.9 1539.92 L1756.9 1534.04 Z" fill="#000000" fill-rule="evenodd" fill-opacity="1" /><path clip-path="url(#clip610)" d="M 0 0 M1776.85 1508.44 Q1773.24 1508.44 1771.41 1512 Q1769.61 1515.55 1769.61 1522.67 Q1769.61 1529.78 1771.41 1533.35 Q1773.24 1536.89 1776.85 1536.89 Q1780.49 1536.89 1782.29 1533.35 Q1784.12 1529.78 1784.12 1522.67 Q1784.12 1515.55 1782.29 1512 Q1780.49 1508.44 1776.85 1508.44 M1776.85 1504.73 Q1782.66 1504.73 1785.72 1509.34 Q1788.8 1513.92 1788.8 1522.67 Q1788.8 1531.4 1785.72 1536.01 Q1782.66 1540.59 1776.85 1540.59 Q1771.04 1540.59 1767.97 1536.01 Q1764.91 1531.4 1764.91 1522.67 Q1764.91 1513.92 1767.97 1509.34 Q1771.04 1504.73 1776.85 1504.73 Z" fill="#000000" fill-rule="evenodd" fill-opacity="1" /><path clip-path="url(#clip610)" d="M 0 0 M2058.76 1505.36 L2080.98 1505.36 L2080.98 1507.35 L2068.43 1539.92 L2063.55 1539.92 L2075.35 1509.3 L2058.76 1509.3 L2058.76 1505.36 Z" fill="#000000" fill-rule="evenodd" fill-opacity="1" /><path clip-path="url(#clip610)" d="M 0 0 M2086.05 1534.04 L2090.93 1534.04 L2090.93 1539.92 L2086.05 1539.92 L2086.05 1534.04 Z" fill="#000000" fill-rule="evenodd" fill-opacity="1" /><path clip-path="url(#clip610)" d="M 0 0 M2096.05 1505.36 L2114.41 1505.36 L2114.41 1509.3 L2100.33 1509.3 L2100.33 1517.77 Q2101.35 1517.42 2102.37 1517.26 Q2103.39 1517.07 2104.41 1517.07 Q2110.19 1517.07 2113.57 1520.24 Q2116.95 1523.42 2116.95 1528.83 Q2116.95 1534.41 2113.48 1537.51 Q2110.01 1540.59 2103.69 1540.59 Q2101.51 1540.59 2099.24 1540.22 Q2097 1539.85 2094.59 1539.11 L2094.59 1534.41 Q2096.67 1535.54 2098.9 1536.1 Q2101.12 1536.66 2103.6 1536.66 Q2107.6 1536.66 2109.94 1534.55 Q2112.28 1532.44 2112.28 1528.83 Q2112.28 1525.22 2109.94 1523.11 Q2107.6 1521.01 2103.6 1521.01 Q2101.72 1521.01 2099.85 1521.42 Q2097.99 1521.84 2096.05 1522.72 L2096.05 1505.36 Z" fill="#000000" fill-rule="evenodd" fill-opacity="1" /><path clip-path="url(#clip610)" d="M 0 0 M130.26 1431.51 Q126.649 1431.51 124.82 1435.08 Q123.015 1438.62 123.015 1445.75 Q123.015 1452.86 124.82 1456.42 Q126.649 1459.96 130.26 1459.96 Q133.895 1459.96 135.7 1456.42 Q137.529 1452.86 137.529 1445.75 Q137.529 1438.62 135.7 1435.08 Q133.895 1431.51 130.26 1431.51 M130.26 1427.81 Q136.07 1427.81 139.126 1432.42 Q142.205 1437 142.205 1445.75 Q142.205 1454.48 139.126 1459.08 Q136.07 1463.67 130.26 1463.67 Q124.45 1463.67 121.371 1459.08 Q118.316 1454.48 118.316 1445.75 Q118.316 1437 121.371 1432.42 Q124.45 1427.81 130.26 1427.81 Z" fill="#000000" fill-rule="evenodd" fill-opacity="1" /><path clip-path="url(#clip610)" d="M 0 0 M71.8578 1109.58 L88.1772 1109.58 L88.1772 1113.51 L66.2328 1113.51 L66.2328 1109.58 Q68.8949 1106.82 73.4782 1102.19 Q78.0846 1097.54 79.2652 1096.2 Q81.5105 1093.68 82.3902 1091.94 Q83.2929 1090.18 83.2929 1088.49 Q83.2929 1085.74 81.3485 1084 Q79.4272 1082.26 76.3254 1082.26 Q74.1263 1082.26 71.6726 1083.03 Q69.2421 1083.79 66.4643 1085.34 L66.4643 1080.62 Q69.2884 1079.49 71.7421 1078.91 Q74.1958 1078.33 76.2328 1078.33 Q81.6031 1078.33 84.7976 1081.01 Q87.992 1083.7 87.992 1088.19 Q87.992 1090.32 87.1818 1092.24 Q86.3948 1094.14 84.2883 1096.73 Q83.7096 1097.4 80.6078 1100.62 Q77.5059 1103.81 71.8578 1109.58 Z" fill="#000000" fill-rule="evenodd" fill-opacity="1" /><path clip-path="url(#clip610)" d="M 0 0 M103.247 1082.03 Q99.6354 1082.03 97.8068 1085.6 Q96.0012 1089.14 96.0012 1096.27 Q96.0012 1103.37 97.8068 1106.94 Q99.6354 1110.48 103.247 1110.48 Q106.881 1110.48 108.686 1106.94 Q110.515 1103.37 110.515 1096.27 Q110.515 1089.14 108.686 1085.6 Q106.881 1082.03 103.247 1082.03 M103.247 1078.33 Q109.057 1078.33 112.112 1082.93 Q115.191 1087.52 115.191 1096.27 Q115.191 1104.99 112.112 1109.6 Q109.057 1114.18 103.247 1114.18 Q97.4364 1114.18 94.3577 1109.6 Q91.3022 1104.99 91.3022 1096.27 Q91.3022 1087.52 94.3577 1082.93 Q97.4364 1078.33 103.247 1078.33 Z" fill="#000000" fill-rule="evenodd" fill-opacity="1" /><path clip-path="url(#clip610)" d="M 0 0 M130.26 1082.03 Q126.649 1082.03 124.82 1085.6 Q123.015 1089.14 123.015 1096.27 Q123.015 1103.37 124.82 1106.94 Q126.649 1110.48 130.26 1110.48 Q133.895 1110.48 135.7 1106.94 Q137.529 1103.37 137.529 1096.27 Q137.529 1089.14 135.7 1085.6 Q133.895 1082.03 130.26 1082.03 M130.26 1078.33 Q136.07 1078.33 139.126 1082.93 Q142.205 1087.52 142.205 1096.27 Q142.205 1104.99 139.126 1109.6 Q136.07 1114.18 130.26 1114.18 Q124.45 1114.18 121.371 1109.6 Q118.316 1104.99 118.316 1096.27 Q118.316 1087.52 121.371 1082.93 Q124.45 1078.33 130.26 1078.33 Z" fill="#000000" fill-rule="evenodd" fill-opacity="1" /><path clip-path="url(#clip610)" d="M 0 0 M78.5939 733.545 L66.7884 751.994 L78.5939 751.994 L78.5939 733.545 M77.367 729.471 L83.2466 729.471 L83.2466 751.994 L88.1772 751.994 L88.1772 755.883 L83.2466 755.883 L83.2466 764.031 L78.5939 764.031 L78.5939 755.883 L62.9921 755.883 L62.9921 751.369 L77.367 729.471 Z" fill="#000000" fill-rule="evenodd" fill-opacity="1" /><path clip-path="url(#clip610)" d="M 0 0 M103.247 732.549 Q99.6354 732.549 97.8068 736.114 Q96.0012 739.656 96.0012 746.785 Q96.0012 753.892 97.8068 757.457 Q99.6354 760.998 103.247 760.998 Q106.881 760.998 108.686 757.457 Q110.515 753.892 110.515 746.785 Q110.515 739.656 108.686 736.114 Q106.881 732.549 103.247 732.549 M103.247 728.846 Q109.057 728.846 112.112 733.452 Q115.191 738.036 115.191 746.785 Q115.191 755.512 112.112 760.119 Q109.057 764.702 103.247 764.702 Q97.4364 764.702 94.3577 760.119 Q91.3022 755.512 91.3022 746.785 Q91.3022 738.036 94.3577 733.452 Q97.4364 728.846 103.247 728.846 Z" fill="#000000" fill-rule="evenodd" fill-opacity="1" /><path clip-path="url(#clip610)" d="M 0 0 M130.26 732.549 Q126.649 732.549 124.82 736.114 Q123.015 739.656 123.015 746.785 Q123.015 753.892 124.82 757.457 Q126.649 760.998 130.26 760.998 Q133.895 760.998 135.7 757.457 Q137.529 753.892 137.529 746.785 Q137.529 739.656 135.7 736.114 Q133.895 732.549 130.26 732.549 M130.26 728.846 Q136.07 728.846 139.126 733.452 Q142.205 738.036 142.205 746.785 Q142.205 755.512 139.126 760.119 Q136.07 764.702 130.26 764.702 Q124.45 764.702 121.371 760.119 Q118.316 755.512 118.316 746.785 Q118.316 738.036 121.371 733.452 Q124.45 728.846 130.26 728.846 Z" fill="#000000" fill-rule="evenodd" fill-opacity="1" /><path clip-path="url(#clip610)" d="M 0 0 M76.6495 395.405 Q73.5013 395.405 71.6495 397.558 Q69.8208 399.71 69.8208 403.46 Q69.8208 407.187 71.6495 409.363 Q73.5013 411.516 76.6495 411.516 Q79.7976 411.516 81.6263 409.363 Q83.4781 407.187 83.4781 403.46 Q83.4781 399.71 81.6263 397.558 Q79.7976 395.405 76.6495 395.405 M85.9318 380.752 L85.9318 385.011 Q84.1726 384.178 82.367 383.738 Q80.5846 383.298 78.8254 383.298 Q74.1958 383.298 71.7421 386.423 Q69.3115 389.548 68.9643 395.868 Q70.33 393.854 72.3902 392.789 Q74.4504 391.701 76.9272 391.701 Q82.1355 391.701 85.1448 394.872 Q88.1772 398.021 88.1772 403.46 Q88.1772 408.784 85.029 412.002 Q81.8809 415.22 76.6495 415.22 Q70.6541 415.22 67.4828 410.636 Q64.3116 406.03 64.3116 397.303 Q64.3116 389.109 68.2004 384.248 Q72.0893 379.363 78.6402 379.363 Q80.3994 379.363 82.1818 379.71 Q83.9874 380.058 85.9318 380.752 Z" fill="#000000" fill-rule="evenodd" fill-opacity="1" /><path clip-path="url(#clip610)" d="M 0 0 M103.247 383.067 Q99.6354 383.067 97.8068 386.632 Q96.0012 390.173 96.0012 397.303 Q96.0012 404.409 97.8068 407.974 Q99.6354 411.516 103.247 411.516 Q106.881 411.516 108.686 407.974 Q110.515 404.409 110.515 397.303 Q110.515 390.173 108.686 386.632 Q106.881 383.067 103.247 383.067 M103.247 379.363 Q109.057 379.363 112.112 383.97 Q115.191 388.553 115.191 397.303 Q115.191 406.03 112.112 410.636 Q109.057 415.22 103.247 415.22 Q97.4364 415.22 94.3577 410.636 Q91.3022 406.03 91.3022 397.303 Q91.3022 388.553 94.3577 383.97 Q97.4364 379.363 103.247 379.363 Z" fill="#000000" fill-rule="evenodd" fill-opacity="1" /><path clip-path="url(#clip610)" d="M 0 0 M130.26 383.067 Q126.649 383.067 124.82 386.632 Q123.015 390.173 123.015 397.303 Q123.015 404.409 124.82 407.974 Q126.649 411.516 130.26 411.516 Q133.895 411.516 135.7 407.974 Q137.529 404.409 137.529 397.303 Q137.529 390.173 135.7 386.632 Q133.895 383.067 130.26 383.067 M130.26 379.363 Q136.07 379.363 139.126 383.97 Q142.205 388.553 142.205 397.303 Q142.205 406.03 139.126 410.636 Q136.07 415.22 130.26 415.22 Q124.45 415.22 121.371 410.636 Q118.316 406.03 118.316 397.303 Q118.316 388.553 121.371 383.97 Q124.45 379.363 130.26 379.363 Z" fill="#000000" fill-rule="evenodd" fill-opacity="1" /><path clip-path="url(#clip610)" d="M 0 0 M76.3254 48.6538 Q72.9921 48.6538 71.0708 50.4362 Q69.1726 52.2186 69.1726 55.3436 Q69.1726 58.4686 71.0708 60.251 Q72.9921 62.0334 76.3254 62.0334 Q79.6587 62.0334 81.58 60.251 Q83.5013 58.4455 83.5013 55.3436 Q83.5013 52.2186 81.58 50.4362 Q79.6819 48.6538 76.3254 48.6538 M71.6495 46.6631 Q68.6402 45.9224 66.9504 43.8622 Q65.2838 41.802 65.2838 38.8391 Q65.2838 34.6956 68.2236 32.2882 Q71.1865 29.8808 76.3254 29.8808 Q81.4874 29.8808 84.4272 32.2882 Q87.367 34.6956 87.367 38.8391 Q87.367 41.802 85.6772 43.8622 Q84.0105 45.9224 81.0244 46.6631 Q84.404 47.4501 86.279 49.7418 Q88.1772 52.0335 88.1772 55.3436 Q88.1772 60.3667 85.0985 63.0519 Q82.0429 65.7371 76.3254 65.7371 Q70.6078 65.7371 67.5291 63.0519 Q64.4736 60.3667 64.4736 55.3436 Q64.4736 52.0335 66.3717 49.7418 Q68.2699 47.4501 71.6495 46.6631 M69.9365 39.2789 Q69.9365 41.9641 71.6032 43.4687 Q73.293 44.9733 76.3254 44.9733 Q79.3346 44.9733 81.0244 43.4687 Q82.7374 41.9641 82.7374 39.2789 Q82.7374 36.5937 81.0244 35.0891 Q79.3346 33.5845 76.3254 33.5845 Q73.293 33.5845 71.6032 35.0891 Q69.9365 36.5937 69.9365 39.2789 Z" fill="#000000" fill-rule="evenodd" fill-opacity="1" /><path clip-path="url(#clip610)" d="M 0 0 M103.247 33.5845 Q99.6354 33.5845 97.8068 37.1493 Q96.0012 40.6909 96.0012 47.8205 Q96.0012 54.927 97.8068 58.4918 Q99.6354 62.0334 103.247 62.0334 Q106.881 62.0334 108.686 58.4918 Q110.515 54.927 110.515 47.8205 Q110.515 40.6909 108.686 37.1493 Q106.881 33.5845 103.247 33.5845 M103.247 29.8808 Q109.057 29.8808 112.112 34.4873 Q115.191 39.0706 115.191 47.8205 Q115.191 56.5473 112.112 61.1538 Q109.057 65.7371 103.247 65.7371 Q97.4364 65.7371 94.3577 61.1538 Q91.3022 56.5473 91.3022 47.8205 Q91.3022 39.0706 94.3577 34.4873 Q97.4364 29.8808 103.247 29.8808 Z" fill="#000000" fill-rule="evenodd" fill-opacity="1" /><path clip-path="url(#clip610)" d="M 0 0 M130.26 33.5845 Q126.649 33.5845 124.82 37.1493 Q123.015 40.6909 123.015 47.8205 Q123.015 54.927 124.82 58.4918 Q126.649 62.0334 130.26 62.0334 Q133.895 62.0334 135.7 58.4918 Q137.529 54.927 137.529 47.8205 Q137.529 40.6909 135.7 37.1493 Q133.895 33.5845 130.26 33.5845 M130.26 29.8808 Q136.07 29.8808 139.126 34.4873 Q142.205 39.0706 142.205 47.8205 Q142.205 56.5473 139.126 61.1538 Q136.07 65.7371 130.26 65.7371 Q124.45 65.7371 121.371 61.1538 Q118.316 56.5473 118.316 47.8205 Q118.316 39.0706 121.371 34.4873 Q124.45 29.8808 130.26 29.8808 Z" fill="#000000" fill-rule="evenodd" fill-opacity="1" /><path clip-path="url(#clip612)" d="
M286.469 1443.97 L286.469 1445.72 L312.766 1445.72 L312.766 1443.97 L286.469 1443.97 L286.469 1443.97  Z
  " fill="#009af9" fill-rule="evenodd" fill-opacity="1"/>
<polyline clip-path="url(#clip612)" style="stroke:#000000; stroke-width:4; stroke-opacity:1; fill:none" points="
  286.469,1443.97 286.469,1445.72 312.766,1445.72 312.766,1443.97 286.469,1443.97 
  "/>
<path clip-path="url(#clip612)" d="
M312.766 1443.97 L312.766 1445.72 L339.064 1445.72 L339.064 1443.97 L312.766 1443.97 L312.766 1443.97  Z
  " fill="#009af9" fill-rule="evenodd" fill-opacity="1"/>
<polyline clip-path="url(#clip612)" style="stroke:#000000; stroke-width:4; stroke-opacity:1; fill:none" points="
  312.766,1443.97 312.766,1445.72 339.064,1445.72 339.064,1443.97 312.766,1443.97 
  "/>
<path clip-path="url(#clip612)" d="
M339.064 1443.97 L339.064 1445.72 L365.362 1445.72 L365.362 1443.97 L339.064 1443.97 L339.064 1443.97  Z
  " fill="#009af9" fill-rule="evenodd" fill-opacity="1"/>
<polyline clip-path="url(#clip612)" style="stroke:#000000; stroke-width:4; stroke-opacity:1; fill:none" points="
  339.064,1443.97 339.064,1445.72 365.362,1445.72 365.362,1443.97 339.064,1443.97 
  "/>
<path clip-path="url(#clip612)" d="
M365.362 1442.22 L365.362 1445.72 L391.659 1445.72 L391.659 1442.22 L365.362 1442.22 L365.362 1442.22  Z
  " fill="#009af9" fill-rule="evenodd" fill-opacity="1"/>
<polyline clip-path="url(#clip612)" style="stroke:#000000; stroke-width:4; stroke-opacity:1; fill:none" points="
  365.362,1442.22 365.362,1445.72 391.659,1445.72 391.659,1442.22 365.362,1442.22 
  "/>
<path clip-path="url(#clip612)" d="
M391.659 1440.47 L391.659 1445.72 L417.957 1445.72 L417.957 1440.47 L391.659 1440.47 L391.659 1440.47  Z
  " fill="#009af9" fill-rule="evenodd" fill-opacity="1"/>
<polyline clip-path="url(#clip612)" style="stroke:#000000; stroke-width:4; stroke-opacity:1; fill:none" points="
  391.659,1440.47 391.659,1445.72 417.957,1445.72 417.957,1440.47 391.659,1440.47 
  "/>
<path clip-path="url(#clip612)" d="
M417.957 1440.47 L417.957 1445.72 L444.255 1445.72 L444.255 1440.47 L417.957 1440.47 L417.957 1440.47  Z
  " fill="#009af9" fill-rule="evenodd" fill-opacity="1"/>
<polyline clip-path="url(#clip612)" style="stroke:#000000; stroke-width:4; stroke-opacity:1; fill:none" points="
  417.957,1440.47 417.957,1445.72 444.255,1445.72 444.255,1440.47 417.957,1440.47 
  "/>
<path clip-path="url(#clip612)" d="
M444.255 1428.24 L444.255 1445.72 L470.552 1445.72 L470.552 1428.24 L444.255 1428.24 L444.255 1428.24  Z
  " fill="#009af9" fill-rule="evenodd" fill-opacity="1"/>
<polyline clip-path="url(#clip612)" style="stroke:#000000; stroke-width:4; stroke-opacity:1; fill:none" points="
  444.255,1428.24 444.255,1445.72 470.552,1445.72 470.552,1428.24 444.255,1428.24 
  "/>
<path clip-path="url(#clip612)" d="
M470.552 1436.98 L470.552 1445.72 L496.85 1445.72 L496.85 1436.98 L470.552 1436.98 L470.552 1436.98  Z
  " fill="#009af9" fill-rule="evenodd" fill-opacity="1"/>
<polyline clip-path="url(#clip612)" style="stroke:#000000; stroke-width:4; stroke-opacity:1; fill:none" points="
  470.552,1436.98 470.552,1445.72 496.85,1445.72 496.85,1436.98 470.552,1436.98 
  "/>
<path clip-path="url(#clip612)" d="
M496.85 1419.5 L496.85 1445.72 L523.147 1445.72 L523.147 1419.5 L496.85 1419.5 L496.85 1419.5  Z
  " fill="#009af9" fill-rule="evenodd" fill-opacity="1"/>
<polyline clip-path="url(#clip612)" style="stroke:#000000; stroke-width:4; stroke-opacity:1; fill:none" points="
  496.85,1419.5 496.85,1445.72 523.147,1445.72 523.147,1419.5 496.85,1419.5 
  "/>
<path clip-path="url(#clip612)" d="
M523.147 1428.24 L523.147 1445.72 L549.445 1445.72 L549.445 1428.24 L523.147 1428.24 L523.147 1428.24  Z
  " fill="#009af9" fill-rule="evenodd" fill-opacity="1"/>
<polyline clip-path="url(#clip612)" style="stroke:#000000; stroke-width:4; stroke-opacity:1; fill:none" points="
  523.147,1428.24 523.147,1445.72 549.445,1445.72 549.445,1428.24 523.147,1428.24 
  "/>
<path clip-path="url(#clip612)" d="
M549.445 1414.26 L549.445 1445.72 L575.743 1445.72 L575.743 1414.26 L549.445 1414.26 L549.445 1414.26  Z
  " fill="#009af9" fill-rule="evenodd" fill-opacity="1"/>
<polyline clip-path="url(#clip612)" style="stroke:#000000; stroke-width:4; stroke-opacity:1; fill:none" points="
  549.445,1414.26 549.445,1445.72 575.743,1445.72 575.743,1414.26 549.445,1414.26 
  "/>
<path clip-path="url(#clip612)" d="
M575.743 1419.5 L575.743 1445.72 L602.04 1445.72 L602.04 1419.5 L575.743 1419.5 L575.743 1419.5  Z
  " fill="#009af9" fill-rule="evenodd" fill-opacity="1"/>
<polyline clip-path="url(#clip612)" style="stroke:#000000; stroke-width:4; stroke-opacity:1; fill:none" points="
  575.743,1419.5 575.743,1445.72 602.04,1445.72 602.04,1419.5 575.743,1419.5 
  "/>
<path clip-path="url(#clip612)" d="
M602.04 1407.27 L602.04 1445.72 L628.338 1445.72 L628.338 1407.27 L602.04 1407.27 L602.04 1407.27  Z
  " fill="#009af9" fill-rule="evenodd" fill-opacity="1"/>
<polyline clip-path="url(#clip612)" style="stroke:#000000; stroke-width:4; stroke-opacity:1; fill:none" points="
  602.04,1407.27 602.04,1445.72 628.338,1445.72 628.338,1407.27 602.04,1407.27 
  "/>
<path clip-path="url(#clip612)" d="
M628.338 1395.04 L628.338 1445.72 L654.635 1445.72 L654.635 1395.04 L628.338 1395.04 L628.338 1395.04  Z
  " fill="#009af9" fill-rule="evenodd" fill-opacity="1"/>
<polyline clip-path="url(#clip612)" style="stroke:#000000; stroke-width:4; stroke-opacity:1; fill:none" points="
  628.338,1395.04 628.338,1445.72 654.635,1445.72 654.635,1395.04 628.338,1395.04 
  "/>
<path clip-path="url(#clip612)" d="
M654.635 1389.8 L654.635 1445.72 L680.933 1445.72 L680.933 1389.8 L654.635 1389.8 L654.635 1389.8  Z
  " fill="#009af9" fill-rule="evenodd" fill-opacity="1"/>
<polyline clip-path="url(#clip612)" style="stroke:#000000; stroke-width:4; stroke-opacity:1; fill:none" points="
  654.635,1389.8 654.635,1445.72 680.933,1445.72 680.933,1389.8 654.635,1389.8 
  "/>
<path clip-path="url(#clip612)" d="
M680.933 1347.86 L680.933 1445.72 L707.231 1445.72 L707.231 1347.86 L680.933 1347.86 L680.933 1347.86  Z
  " fill="#009af9" fill-rule="evenodd" fill-opacity="1"/>
<polyline clip-path="url(#clip612)" style="stroke:#000000; stroke-width:4; stroke-opacity:1; fill:none" points="
  680.933,1347.86 680.933,1445.72 707.231,1445.72 707.231,1347.86 680.933,1347.86 
  "/>
<path clip-path="url(#clip612)" d="
M707.231 1379.31 L707.231 1445.72 L733.528 1445.72 L733.528 1379.31 L707.231 1379.31 L707.231 1379.31  Z
  " fill="#009af9" fill-rule="evenodd" fill-opacity="1"/>
<polyline clip-path="url(#clip612)" style="stroke:#000000; stroke-width:4; stroke-opacity:1; fill:none" points="
  707.231,1379.31 707.231,1445.72 733.528,1445.72 733.528,1379.31 707.231,1379.31 
  "/>
<path clip-path="url(#clip612)" d="
M733.528 1384.56 L733.528 1445.72 L759.826 1445.72 L759.826 1384.56 L733.528 1384.56 L733.528 1384.56  Z
  " fill="#009af9" fill-rule="evenodd" fill-opacity="1"/>
<polyline clip-path="url(#clip612)" style="stroke:#000000; stroke-width:4; stroke-opacity:1; fill:none" points="
  733.528,1384.56 733.528,1445.72 759.826,1445.72 759.826,1384.56 733.528,1384.56 
  "/>
<path clip-path="url(#clip612)" d="
M759.826 1319.9 L759.826 1445.72 L786.123 1445.72 L786.123 1319.9 L759.826 1319.9 L759.826 1319.9  Z
  " fill="#009af9" fill-rule="evenodd" fill-opacity="1"/>
<polyline clip-path="url(#clip612)" style="stroke:#000000; stroke-width:4; stroke-opacity:1; fill:none" points="
  759.826,1319.9 759.826,1445.72 786.123,1445.72 786.123,1319.9 759.826,1319.9 
  "/>
<path clip-path="url(#clip612)" d="
M786.123 1342.62 L786.123 1445.72 L812.421 1445.72 L812.421 1342.62 L786.123 1342.62 L786.123 1342.62  Z
  " fill="#009af9" fill-rule="evenodd" fill-opacity="1"/>
<polyline clip-path="url(#clip612)" style="stroke:#000000; stroke-width:4; stroke-opacity:1; fill:none" points="
  786.123,1342.62 786.123,1445.72 812.421,1445.72 812.421,1342.62 786.123,1342.62 
  "/>
<path clip-path="url(#clip612)" d="
M812.421 1337.38 L812.421 1445.72 L838.719 1445.72 L838.719 1337.38 L812.421 1337.38 L812.421 1337.38  Z
  " fill="#009af9" fill-rule="evenodd" fill-opacity="1"/>
<polyline clip-path="url(#clip612)" style="stroke:#000000; stroke-width:4; stroke-opacity:1; fill:none" points="
  812.421,1337.38 812.421,1445.72 838.719,1445.72 838.719,1337.38 812.421,1337.38 
  "/>
<path clip-path="url(#clip612)" d="
M838.719 1314.66 L838.719 1445.72 L865.016 1445.72 L865.016 1314.66 L838.719 1314.66 L838.719 1314.66  Z
  " fill="#009af9" fill-rule="evenodd" fill-opacity="1"/>
<polyline clip-path="url(#clip612)" style="stroke:#000000; stroke-width:4; stroke-opacity:1; fill:none" points="
  838.719,1314.66 838.719,1445.72 865.016,1445.72 865.016,1314.66 838.719,1314.66 
  "/>
<path clip-path="url(#clip612)" d="
M865.016 1290.2 L865.016 1445.72 L891.314 1445.72 L891.314 1290.2 L865.016 1290.2 L865.016 1290.2  Z
  " fill="#009af9" fill-rule="evenodd" fill-opacity="1"/>
<polyline clip-path="url(#clip612)" style="stroke:#000000; stroke-width:4; stroke-opacity:1; fill:none" points="
  865.016,1290.2 865.016,1445.72 891.314,1445.72 891.314,1290.2 865.016,1290.2 
  "/>
<path clip-path="url(#clip612)" d="
M891.314 1279.71 L891.314 1445.72 L917.611 1445.72 L917.611 1279.71 L891.314 1279.71 L891.314 1279.71  Z
  " fill="#009af9" fill-rule="evenodd" fill-opacity="1"/>
<polyline clip-path="url(#clip612)" style="stroke:#000000; stroke-width:4; stroke-opacity:1; fill:none" points="
  891.314,1279.71 891.314,1445.72 917.611,1445.72 917.611,1279.71 891.314,1279.71 
  "/>
<path clip-path="url(#clip612)" d="
M917.611 1253.5 L917.611 1445.72 L943.909 1445.72 L943.909 1253.5 L917.611 1253.5 L917.611 1253.5  Z
  " fill="#009af9" fill-rule="evenodd" fill-opacity="1"/>
<polyline clip-path="url(#clip612)" style="stroke:#000000; stroke-width:4; stroke-opacity:1; fill:none" points="
  917.611,1253.5 917.611,1445.72 943.909,1445.72 943.909,1253.5 917.611,1253.5 
  "/>
<path clip-path="url(#clip612)" d="
M943.909 1295.44 L943.909 1445.72 L970.207 1445.72 L970.207 1295.44 L943.909 1295.44 L943.909 1295.44  Z
  " fill="#009af9" fill-rule="evenodd" fill-opacity="1"/>
<polyline clip-path="url(#clip612)" style="stroke:#000000; stroke-width:4; stroke-opacity:1; fill:none" points="
  943.909,1295.44 943.909,1445.72 970.207,1445.72 970.207,1295.44 943.909,1295.44 
  "/>
<path clip-path="url(#clip612)" d="
M970.207 1239.52 L970.207 1445.72 L996.504 1445.72 L996.504 1239.52 L970.207 1239.52 L970.207 1239.52  Z
  " fill="#009af9" fill-rule="evenodd" fill-opacity="1"/>
<polyline clip-path="url(#clip612)" style="stroke:#000000; stroke-width:4; stroke-opacity:1; fill:none" points="
  970.207,1239.52 970.207,1445.72 996.504,1445.72 996.504,1239.52 970.207,1239.52 
  "/>
<path clip-path="url(#clip612)" d="
M996.504 1232.53 L996.504 1445.72 L1022.8 1445.72 L1022.8 1232.53 L996.504 1232.53 L996.504 1232.53  Z
  " fill="#009af9" fill-rule="evenodd" fill-opacity="1"/>
<polyline clip-path="url(#clip612)" style="stroke:#000000; stroke-width:4; stroke-opacity:1; fill:none" points="
  996.504,1232.53 996.504,1445.72 1022.8,1445.72 1022.8,1232.53 996.504,1232.53 
  "/>
<path clip-path="url(#clip612)" d="
M1022.8 1269.23 L1022.8 1445.72 L1049.1 1445.72 L1049.1 1269.23 L1022.8 1269.23 L1022.8 1269.23  Z
  " fill="#009af9" fill-rule="evenodd" fill-opacity="1"/>
<polyline clip-path="url(#clip612)" style="stroke:#000000; stroke-width:4; stroke-opacity:1; fill:none" points="
  1022.8,1269.23 1022.8,1445.72 1049.1,1445.72 1049.1,1269.23 1022.8,1269.23 
  "/>
<path clip-path="url(#clip612)" d="
M1049.1 1258.74 L1049.1 1445.72 L1075.4 1445.72 L1075.4 1258.74 L1049.1 1258.74 L1049.1 1258.74  Z
  " fill="#009af9" fill-rule="evenodd" fill-opacity="1"/>
<polyline clip-path="url(#clip612)" style="stroke:#000000; stroke-width:4; stroke-opacity:1; fill:none" points="
  1049.1,1258.74 1049.1,1445.72 1075.4,1445.72 1075.4,1258.74 1049.1,1258.74 
  "/>
<path clip-path="url(#clip612)" d="
M1075.4 1253.5 L1075.4 1445.72 L1101.69 1445.72 L1101.69 1253.5 L1075.4 1253.5 L1075.4 1253.5  Z
  " fill="#009af9" fill-rule="evenodd" fill-opacity="1"/>
<polyline clip-path="url(#clip612)" style="stroke:#000000; stroke-width:4; stroke-opacity:1; fill:none" points="
  1075.4,1253.5 1075.4,1445.72 1101.69,1445.72 1101.69,1253.5 1075.4,1253.5 
  "/>
<path clip-path="url(#clip612)" d="
M1101.69 1215.06 L1101.69 1445.72 L1127.99 1445.72 L1127.99 1215.06 L1101.69 1215.06 L1101.69 1215.06  Z
  " fill="#009af9" fill-rule="evenodd" fill-opacity="1"/>
<polyline clip-path="url(#clip612)" style="stroke:#000000; stroke-width:4; stroke-opacity:1; fill:none" points="
  1101.69,1215.06 1101.69,1445.72 1127.99,1445.72 1127.99,1215.06 1101.69,1215.06 
  "/>
<path clip-path="url(#clip612)" d="
M1127.99 1227.29 L1127.99 1445.72 L1154.29 1445.72 L1154.29 1227.29 L1127.99 1227.29 L1127.99 1227.29  Z
  " fill="#009af9" fill-rule="evenodd" fill-opacity="1"/>
<polyline clip-path="url(#clip612)" style="stroke:#000000; stroke-width:4; stroke-opacity:1; fill:none" points="
  1127.99,1227.29 1127.99,1445.72 1154.29,1445.72 1154.29,1227.29 1127.99,1227.29 
  "/>
<path clip-path="url(#clip612)" d="
M1154.29 1124.19 L1154.29 1445.72 L1180.59 1445.72 L1180.59 1124.19 L1154.29 1124.19 L1154.29 1124.19  Z
  " fill="#009af9" fill-rule="evenodd" fill-opacity="1"/>
<polyline clip-path="url(#clip612)" style="stroke:#000000; stroke-width:4; stroke-opacity:1; fill:none" points="
  1154.29,1124.19 1154.29,1445.72 1180.59,1445.72 1180.59,1124.19 1154.29,1124.19 
  "/>
<path clip-path="url(#clip612)" d="
M1180.59 792.183 L1180.59 1445.72 L1206.89 1445.72 L1206.89 792.183 L1180.59 792.183 L1180.59 792.183  Z
  " fill="#009af9" fill-rule="evenodd" fill-opacity="1"/>
<polyline clip-path="url(#clip612)" style="stroke:#000000; stroke-width:4; stroke-opacity:1; fill:none" points="
  1180.59,792.183 1180.59,1445.72 1206.89,1445.72 1206.89,792.183 1180.59,792.183 
  "/>
<path clip-path="url(#clip612)" d="
M1206.89 87.9763 L1206.89 1445.72 L1233.18 1445.72 L1233.18 87.9763 L1206.89 87.9763 L1206.89 87.9763  Z
  " fill="#009af9" fill-rule="evenodd" fill-opacity="1"/>
<polyline clip-path="url(#clip612)" style="stroke:#000000; stroke-width:4; stroke-opacity:1; fill:none" points="
  1206.89,87.9763 1206.89,1445.72 1233.18,1445.72 1233.18,87.9763 1206.89,87.9763 
  "/>
<path clip-path="url(#clip612)" d="
M1233.18 114.187 L1233.18 1445.72 L1259.48 1445.72 L1259.48 114.187 L1233.18 114.187 L1233.18 114.187  Z
  " fill="#009af9" fill-rule="evenodd" fill-opacity="1"/>
<polyline clip-path="url(#clip612)" style="stroke:#000000; stroke-width:4; stroke-opacity:1; fill:none" points="
  1233.18,114.187 1233.18,1445.72 1259.48,1445.72 1259.48,114.187 1233.18,114.187 
  "/>
<path clip-path="url(#clip612)" d="
M1259.48 790.436 L1259.48 1445.72 L1285.78 1445.72 L1285.78 790.436 L1259.48 790.436 L1259.48 790.436  Z
  " fill="#009af9" fill-rule="evenodd" fill-opacity="1"/>
<polyline clip-path="url(#clip612)" style="stroke:#000000; stroke-width:4; stroke-opacity:1; fill:none" points="
  1259.48,790.436 1259.48,1445.72 1285.78,1445.72 1285.78,790.436 1259.48,790.436 
  "/>
<path clip-path="url(#clip612)" d="
M1285.78 1202.83 L1285.78 1445.72 L1312.08 1445.72 L1312.08 1202.83 L1285.78 1202.83 L1285.78 1202.83  Z
  " fill="#009af9" fill-rule="evenodd" fill-opacity="1"/>
<polyline clip-path="url(#clip612)" style="stroke:#000000; stroke-width:4; stroke-opacity:1; fill:none" points="
  1285.78,1202.83 1285.78,1445.72 1312.08,1445.72 1312.08,1202.83 1285.78,1202.83 
  "/>
<path clip-path="url(#clip612)" d="
M1312.08 1288.45 L1312.08 1445.72 L1338.37 1445.72 L1338.37 1288.45 L1312.08 1288.45 L1312.08 1288.45  Z
  " fill="#009af9" fill-rule="evenodd" fill-opacity="1"/>
<polyline clip-path="url(#clip612)" style="stroke:#000000; stroke-width:4; stroke-opacity:1; fill:none" points="
  1312.08,1288.45 1312.08,1445.72 1338.37,1445.72 1338.37,1288.45 1312.08,1288.45 
  "/>
<path clip-path="url(#clip612)" d="
M1338.37 1297.19 L1338.37 1445.72 L1364.67 1445.72 L1364.67 1297.19 L1338.37 1297.19 L1338.37 1297.19  Z
  " fill="#009af9" fill-rule="evenodd" fill-opacity="1"/>
<polyline clip-path="url(#clip612)" style="stroke:#000000; stroke-width:4; stroke-opacity:1; fill:none" points="
  1338.37,1297.19 1338.37,1445.72 1364.67,1445.72 1364.67,1297.19 1338.37,1297.19 
  "/>
<path clip-path="url(#clip612)" d="
M1364.67 1347.86 L1364.67 1445.72 L1390.97 1445.72 L1390.97 1347.86 L1364.67 1347.86 L1364.67 1347.86  Z
  " fill="#009af9" fill-rule="evenodd" fill-opacity="1"/>
<polyline clip-path="url(#clip612)" style="stroke:#000000; stroke-width:4; stroke-opacity:1; fill:none" points="
  1364.67,1347.86 1364.67,1445.72 1390.97,1445.72 1390.97,1347.86 1364.67,1347.86 
  "/>
<path clip-path="url(#clip612)" d="
M1390.97 1349.61 L1390.97 1445.72 L1417.27 1445.72 L1417.27 1349.61 L1390.97 1349.61 L1390.97 1349.61  Z
  " fill="#009af9" fill-rule="evenodd" fill-opacity="1"/>
<polyline clip-path="url(#clip612)" style="stroke:#000000; stroke-width:4; stroke-opacity:1; fill:none" points="
  1390.97,1349.61 1390.97,1445.72 1417.27,1445.72 1417.27,1349.61 1390.97,1349.61 
  "/>
<path clip-path="url(#clip612)" d="
M1417.27 1351.36 L1417.27 1445.72 L1443.56 1445.72 L1443.56 1351.36 L1417.27 1351.36 L1417.27 1351.36  Z
  " fill="#009af9" fill-rule="evenodd" fill-opacity="1"/>
<polyline clip-path="url(#clip612)" style="stroke:#000000; stroke-width:4; stroke-opacity:1; fill:none" points="
  1417.27,1351.36 1417.27,1445.72 1443.56,1445.72 1443.56,1351.36 1417.27,1351.36 
  "/>
<path clip-path="url(#clip612)" d="
M1443.56 1361.84 L1443.56 1445.72 L1469.86 1445.72 L1469.86 1361.84 L1443.56 1361.84 L1443.56 1361.84  Z
  " fill="#009af9" fill-rule="evenodd" fill-opacity="1"/>
<polyline clip-path="url(#clip612)" style="stroke:#000000; stroke-width:4; stroke-opacity:1; fill:none" points="
  1443.56,1361.84 1443.56,1445.72 1469.86,1445.72 1469.86,1361.84 1443.56,1361.84 
  "/>
<path clip-path="url(#clip612)" d="
M1469.86 1375.82 L1469.86 1445.72 L1496.16 1445.72 L1496.16 1375.82 L1469.86 1375.82 L1469.86 1375.82  Z
  " fill="#009af9" fill-rule="evenodd" fill-opacity="1"/>
<polyline clip-path="url(#clip612)" style="stroke:#000000; stroke-width:4; stroke-opacity:1; fill:none" points="
  1469.86,1375.82 1469.86,1445.72 1496.16,1445.72 1496.16,1375.82 1469.86,1375.82 
  "/>
<path clip-path="url(#clip612)" d="
M1496.16 1377.57 L1496.16 1445.72 L1522.46 1445.72 L1522.46 1377.57 L1496.16 1377.57 L1496.16 1377.57  Z
  " fill="#009af9" fill-rule="evenodd" fill-opacity="1"/>
<polyline clip-path="url(#clip612)" style="stroke:#000000; stroke-width:4; stroke-opacity:1; fill:none" points="
  1496.16,1377.57 1496.16,1445.72 1522.46,1445.72 1522.46,1377.57 1496.16,1377.57 
  "/>
<path clip-path="url(#clip612)" d="
M1522.46 1396.79 L1522.46 1445.72 L1548.75 1445.72 L1548.75 1396.79 L1522.46 1396.79 L1522.46 1396.79  Z
  " fill="#009af9" fill-rule="evenodd" fill-opacity="1"/>
<polyline clip-path="url(#clip612)" style="stroke:#000000; stroke-width:4; stroke-opacity:1; fill:none" points="
  1522.46,1396.79 1522.46,1445.72 1548.75,1445.72 1548.75,1396.79 1522.46,1396.79 
  "/>
<path clip-path="url(#clip612)" d="
M1548.75 1405.53 L1548.75 1445.72 L1575.05 1445.72 L1575.05 1405.53 L1548.75 1405.53 L1548.75 1405.53  Z
  " fill="#009af9" fill-rule="evenodd" fill-opacity="1"/>
<polyline clip-path="url(#clip612)" style="stroke:#000000; stroke-width:4; stroke-opacity:1; fill:none" points="
  1548.75,1405.53 1548.75,1445.72 1575.05,1445.72 1575.05,1405.53 1548.75,1405.53 
  "/>
<path clip-path="url(#clip612)" d="
M1575.05 1410.77 L1575.05 1445.72 L1601.35 1445.72 L1601.35 1410.77 L1575.05 1410.77 L1575.05 1410.77  Z
  " fill="#009af9" fill-rule="evenodd" fill-opacity="1"/>
<polyline clip-path="url(#clip612)" style="stroke:#000000; stroke-width:4; stroke-opacity:1; fill:none" points="
  1575.05,1410.77 1575.05,1445.72 1601.35,1445.72 1601.35,1410.77 1575.05,1410.77 
  "/>
<path clip-path="url(#clip612)" d="
M1601.35 1426.49 L1601.35 1445.72 L1627.65 1445.72 L1627.65 1426.49 L1601.35 1426.49 L1601.35 1426.49  Z
  " fill="#009af9" fill-rule="evenodd" fill-opacity="1"/>
<polyline clip-path="url(#clip612)" style="stroke:#000000; stroke-width:4; stroke-opacity:1; fill:none" points="
  1601.35,1426.49 1601.35,1445.72 1627.65,1445.72 1627.65,1426.49 1601.35,1426.49 
  "/>
<path clip-path="url(#clip612)" d="
M1627.65 1419.5 L1627.65 1445.72 L1653.94 1445.72 L1653.94 1419.5 L1627.65 1419.5 L1627.65 1419.5  Z
  " fill="#009af9" fill-rule="evenodd" fill-opacity="1"/>
<polyline clip-path="url(#clip612)" style="stroke:#000000; stroke-width:4; stroke-opacity:1; fill:none" points="
  1627.65,1419.5 1627.65,1445.72 1653.94,1445.72 1653.94,1419.5 1627.65,1419.5 
  "/>
<path clip-path="url(#clip612)" d="
M1653.94 1409.02 L1653.94 1445.72 L1680.24 1445.72 L1680.24 1409.02 L1653.94 1409.02 L1653.94 1409.02  Z
  " fill="#009af9" fill-rule="evenodd" fill-opacity="1"/>
<polyline clip-path="url(#clip612)" style="stroke:#000000; stroke-width:4; stroke-opacity:1; fill:none" points="
  1653.94,1409.02 1653.94,1445.72 1680.24,1445.72 1680.24,1409.02 1653.94,1409.02 
  "/>
<path clip-path="url(#clip612)" d="
M1680.24 1431.74 L1680.24 1445.72 L1706.54 1445.72 L1706.54 1431.74 L1680.24 1431.74 L1680.24 1431.74  Z
  " fill="#009af9" fill-rule="evenodd" fill-opacity="1"/>
<polyline clip-path="url(#clip612)" style="stroke:#000000; stroke-width:4; stroke-opacity:1; fill:none" points="
  1680.24,1431.74 1680.24,1445.72 1706.54,1445.72 1706.54,1431.74 1680.24,1431.74 
  "/>
<path clip-path="url(#clip612)" d="
M1706.54 1429.99 L1706.54 1445.72 L1732.84 1445.72 L1732.84 1429.99 L1706.54 1429.99 L1706.54 1429.99  Z
  " fill="#009af9" fill-rule="evenodd" fill-opacity="1"/>
<polyline clip-path="url(#clip612)" style="stroke:#000000; stroke-width:4; stroke-opacity:1; fill:none" points="
  1706.54,1429.99 1706.54,1445.72 1732.84,1445.72 1732.84,1429.99 1706.54,1429.99 
  "/>
<path clip-path="url(#clip612)" d="
M1732.84 1438.73 L1732.84 1445.72 L1759.13 1445.72 L1759.13 1438.73 L1732.84 1438.73 L1732.84 1438.73  Z
  " fill="#009af9" fill-rule="evenodd" fill-opacity="1"/>
<polyline clip-path="url(#clip612)" style="stroke:#000000; stroke-width:4; stroke-opacity:1; fill:none" points="
  1732.84,1438.73 1732.84,1445.72 1759.13,1445.72 1759.13,1438.73 1732.84,1438.73 
  "/>
<path clip-path="url(#clip612)" d="
M1759.13 1436.98 L1759.13 1445.72 L1785.43 1445.72 L1785.43 1436.98 L1759.13 1436.98 L1759.13 1436.98  Z
  " fill="#009af9" fill-rule="evenodd" fill-opacity="1"/>
<polyline clip-path="url(#clip612)" style="stroke:#000000; stroke-width:4; stroke-opacity:1; fill:none" points="
  1759.13,1436.98 1759.13,1445.72 1785.43,1445.72 1785.43,1436.98 1759.13,1436.98 
  "/>
<path clip-path="url(#clip612)" d="
M1785.43 1438.73 L1785.43 1445.72 L1811.73 1445.72 L1811.73 1438.73 L1785.43 1438.73 L1785.43 1438.73  Z
  " fill="#009af9" fill-rule="evenodd" fill-opacity="1"/>
<polyline clip-path="url(#clip612)" style="stroke:#000000; stroke-width:4; stroke-opacity:1; fill:none" points="
  1785.43,1438.73 1785.43,1445.72 1811.73,1445.72 1811.73,1438.73 1785.43,1438.73 
  "/>
<path clip-path="url(#clip612)" d="
M1811.73 1435.23 L1811.73 1445.72 L1838.03 1445.72 L1838.03 1435.23 L1811.73 1435.23 L1811.73 1435.23  Z
  " fill="#009af9" fill-rule="evenodd" fill-opacity="1"/>
<polyline clip-path="url(#clip612)" style="stroke:#000000; stroke-width:4; stroke-opacity:1; fill:none" points="
  1811.73,1435.23 1811.73,1445.72 1838.03,1445.72 1838.03,1435.23 1811.73,1435.23 
  "/>
<path clip-path="url(#clip612)" d="
M1838.03 1443.97 L1838.03 1445.72 L1864.33 1445.72 L1864.33 1443.97 L1838.03 1443.97 L1838.03 1443.97  Z
  " fill="#009af9" fill-rule="evenodd" fill-opacity="1"/>
<polyline clip-path="url(#clip612)" style="stroke:#000000; stroke-width:4; stroke-opacity:1; fill:none" points="
  1838.03,1443.97 1838.03,1445.72 1864.33,1445.72 1864.33,1443.97 1838.03,1443.97 
  "/>
<path clip-path="url(#clip612)" d="
M1864.33 1440.47 L1864.33 1445.72 L1890.62 1445.72 L1890.62 1440.47 L1864.33 1440.47 L1864.33 1440.47  Z
  " fill="#009af9" fill-rule="evenodd" fill-opacity="1"/>
<polyline clip-path="url(#clip612)" style="stroke:#000000; stroke-width:4; stroke-opacity:1; fill:none" points="
  1864.33,1440.47 1864.33,1445.72 1890.62,1445.72 1890.62,1440.47 1864.33,1440.47 
  "/>
<path clip-path="url(#clip612)" d="
M1890.62 1443.97 L1890.62 1445.72 L1916.92 1445.72 L1916.92 1443.97 L1890.62 1443.97 L1890.62 1443.97  Z
  " fill="#009af9" fill-rule="evenodd" fill-opacity="1"/>
<polyline clip-path="url(#clip612)" style="stroke:#000000; stroke-width:4; stroke-opacity:1; fill:none" points="
  1890.62,1443.97 1890.62,1445.72 1916.92,1445.72 1916.92,1443.97 1890.62,1443.97 
  "/>
<path clip-path="url(#clip612)" d="
M1916.92 1443.97 L1916.92 1445.72 L1943.22 1445.72 L1943.22 1443.97 L1916.92 1443.97 L1916.92 1443.97  Z
  " fill="#009af9" fill-rule="evenodd" fill-opacity="1"/>
<polyline clip-path="url(#clip612)" style="stroke:#000000; stroke-width:4; stroke-opacity:1; fill:none" points="
  1916.92,1443.97 1916.92,1445.72 1943.22,1445.72 1943.22,1443.97 1916.92,1443.97 
  "/>
<path clip-path="url(#clip612)" d="
M1943.22 1445.72 L1943.22 1445.72 L1969.52 1445.72 L1969.52 1445.72 L1943.22 1445.72 L1943.22 1445.72  Z
  " fill="#009af9" fill-rule="evenodd" fill-opacity="1"/>
<polyline clip-path="url(#clip612)" style="stroke:#000000; stroke-width:4; stroke-opacity:1; fill:none" points="
  1943.22,1445.72 1943.22,1445.72 1969.52,1445.72 1943.22,1445.72 
  "/>
<path clip-path="url(#clip612)" d="
M1969.52 1445.72 L1969.52 1445.72 L1995.81 1445.72 L1995.81 1445.72 L1969.52 1445.72 L1969.52 1445.72  Z
  " fill="#009af9" fill-rule="evenodd" fill-opacity="1"/>
<polyline clip-path="url(#clip612)" style="stroke:#000000; stroke-width:4; stroke-opacity:1; fill:none" points="
  1969.52,1445.72 1969.52,1445.72 1995.81,1445.72 1969.52,1445.72 
  "/>
<path clip-path="url(#clip612)" d="
M1995.81 1445.72 L1995.81 1445.72 L2022.11 1445.72 L2022.11 1445.72 L1995.81 1445.72 L1995.81 1445.72  Z
  " fill="#009af9" fill-rule="evenodd" fill-opacity="1"/>
<polyline clip-path="url(#clip612)" style="stroke:#000000; stroke-width:4; stroke-opacity:1; fill:none" points="
  1995.81,1445.72 1995.81,1445.72 2022.11,1445.72 1995.81,1445.72 
  "/>
<path clip-path="url(#clip612)" d="
M2022.11 1443.97 L2022.11 1445.72 L2048.41 1445.72 L2048.41 1443.97 L2022.11 1443.97 L2022.11 1443.97  Z
  " fill="#009af9" fill-rule="evenodd" fill-opacity="1"/>
<polyline clip-path="url(#clip612)" style="stroke:#000000; stroke-width:4; stroke-opacity:1; fill:none" points="
  2022.11,1443.97 2022.11,1445.72 2048.41,1445.72 2048.41,1443.97 2022.11,1443.97 
  "/>
<path clip-path="url(#clip612)" d="
M2048.41 1445.72 L2048.41 1445.72 L2074.71 1445.72 L2074.71 1445.72 L2048.41 1445.72 L2048.41 1445.72  Z
  " fill="#009af9" fill-rule="evenodd" fill-opacity="1"/>
<polyline clip-path="url(#clip612)" style="stroke:#000000; stroke-width:4; stroke-opacity:1; fill:none" points="
  2048.41,1445.72 2048.41,1445.72 2074.71,1445.72 2048.41,1445.72 
  "/>
<path clip-path="url(#clip612)" d="
M2074.71 1445.72 L2074.71 1445.72 L2101 1445.72 L2101 1445.72 L2074.71 1445.72 L2074.71 1445.72  Z
  " fill="#009af9" fill-rule="evenodd" fill-opacity="1"/>
<polyline clip-path="url(#clip612)" style="stroke:#000000; stroke-width:4; stroke-opacity:1; fill:none" points="
  2074.71,1445.72 2074.71,1445.72 2101,1445.72 2074.71,1445.72 
  "/>
<path clip-path="url(#clip612)" d="
M2101 1445.72 L2101 1445.72 L2127.3 1445.72 L2127.3 1445.72 L2101 1445.72 L2101 1445.72  Z
  " fill="#009af9" fill-rule="evenodd" fill-opacity="1"/>
<polyline clip-path="url(#clip612)" style="stroke:#000000; stroke-width:4; stroke-opacity:1; fill:none" points="
  2101,1445.72 2101,1445.72 2127.3,1445.72 2101,1445.72 
  "/>
<path clip-path="url(#clip612)" d="
M2127.3 1445.72 L2127.3 1445.72 L2153.6 1445.72 L2153.6 1445.72 L2127.3 1445.72 L2127.3 1445.72  Z
  " fill="#009af9" fill-rule="evenodd" fill-opacity="1"/>
<polyline clip-path="url(#clip612)" style="stroke:#000000; stroke-width:4; stroke-opacity:1; fill:none" points="
  2127.3,1445.72 2127.3,1445.72 2153.6,1445.72 2127.3,1445.72 
  "/>
<path clip-path="url(#clip612)" d="
M2153.6 1443.97 L2153.6 1445.72 L2179.9 1445.72 L2179.9 1443.97 L2153.6 1443.97 L2153.6 1443.97  Z
  " fill="#009af9" fill-rule="evenodd" fill-opacity="1"/>
<polyline clip-path="url(#clip612)" style="stroke:#000000; stroke-width:4; stroke-opacity:1; fill:none" points="
  2153.6,1443.97 2153.6,1445.72 2179.9,1445.72 2179.9,1443.97 2153.6,1443.97 
  "/>
<path clip-path="url(#clip612)" d="
M2179.9 1445.72 L2179.9 1445.72 L2206.19 1445.72 L2206.19 1445.72 L2179.9 1445.72 L2179.9 1445.72  Z
  " fill="#009af9" fill-rule="evenodd" fill-opacity="1"/>
<polyline clip-path="url(#clip612)" style="stroke:#000000; stroke-width:4; stroke-opacity:1; fill:none" points="
  2179.9,1445.72 2179.9,1445.72 2206.19,1445.72 2179.9,1445.72 
  "/>
<path clip-path="url(#clip612)" d="
M2206.19 1443.97 L2206.19 1445.72 L2232.49 1445.72 L2232.49 1443.97 L2206.19 1443.97 L2206.19 1443.97  Z
  " fill="#009af9" fill-rule="evenodd" fill-opacity="1"/>
<polyline clip-path="url(#clip612)" style="stroke:#000000; stroke-width:4; stroke-opacity:1; fill:none" points="
  2206.19,1443.97 2206.19,1445.72 2232.49,1445.72 2232.49,1443.97 2206.19,1443.97 
  "/>
<path clip-path="url(#clip610)" d="
M1989.74 251.724 L2280.76 251.724 L2280.76 130.764 L1989.74 130.764  Z
  " fill="#ffffff" fill-rule="evenodd" fill-opacity="1"/>
<polyline clip-path="url(#clip610)" style="stroke:#000000; stroke-width:4; stroke-opacity:1; fill:none" points="
  1989.74,251.724 2280.76,251.724 2280.76,130.764 1989.74,130.764 1989.74,251.724 
  "/>
<path clip-path="url(#clip610)" d="
M2013.74 215.436 L2157.74 215.436 L2157.74 167.052 L2013.74 167.052 L2013.74 215.436  Z
  " fill="#009af9" fill-rule="evenodd" fill-opacity="1"/>
<polyline clip-path="url(#clip610)" style="stroke:#000000; stroke-width:4; stroke-opacity:1; fill:none" points="
  2013.74,215.436 2157.74,215.436 2157.74,167.052 2013.74,167.052 2013.74,215.436 
  "/>
<path clip-path="url(#clip610)" d="M 0 0 M2195.58 210.931 Q2193.77 215.561 2192.06 216.973 Q2190.35 218.385 2187.48 218.385 L2184.08 218.385 L2184.08 214.82 L2186.58 214.82 Q2188.33 214.82 2189.31 213.987 Q2190.28 213.154 2191.46 210.052 L2192.22 208.107 L2181.74 182.598 L2186.25 182.598 L2194.35 202.876 L2202.46 182.598 L2206.97 182.598 L2195.58 210.931 Z" fill="#000000" fill-rule="evenodd" fill-opacity="1" /><path clip-path="url(#clip610)" d="M 0 0 M2212.85 204.589 L2220.49 204.589 L2220.49 178.223 L2212.18 179.89 L2212.18 175.631 L2220.44 173.964 L2225.12 173.964 L2225.12 204.589 L2232.76 204.589 L2232.76 208.524 L2212.85 208.524 L2212.85 204.589 Z" fill="#000000" fill-rule="evenodd" fill-opacity="1" /></svg>
