<?xml version="1.0" encoding="utf-8"?>
<svg xmlns="http://www.w3.org/2000/svg" xmlns:xlink="http://www.w3.org/1999/xlink" width="600" height="400" viewBox="0 0 2400 1600">
<defs>
  <clipPath id="clip440">
    <rect x="0" y="0" width="2400" height="1600"/>
  </clipPath>
</defs>
<path clip-path="url(#clip440)" d="
M0 1600 L2400 1600 L2400 0 L0 0  Z
  " fill="#ffffff" fill-rule="evenodd" fill-opacity="1"/>
<defs>
  <clipPath id="clip441">
    <rect x="480" y="0" width="1681" height="1600"/>
  </clipPath>
</defs>
<path clip-path="url(#clip440)" d="
M166.205 1486.45 L2352.76 1486.45 L2352.76 47.2441 L166.205 47.2441  Z
  " fill="#ffffff" fill-rule="evenodd" fill-opacity="1"/>
<defs>
  <clipPath id="clip442">
    <rect x="166" y="47" width="2188" height="1440"/>
  </clipPath>
</defs>
<polyline clip-path="url(#clip442)" style="stroke:#000000; stroke-width:2; stroke-opacity:0.1; fill:none" points="
  473.074,1486.45 473.074,47.2441 
  "/>
<polyline clip-path="url(#clip442)" style="stroke:#000000; stroke-width:2; stroke-opacity:0.1; fill:none" points="
  872.942,1486.45 872.942,47.2441 
  "/>
<polyline clip-path="url(#clip442)" style="stroke:#000000; stroke-width:2; stroke-opacity:0.1; fill:none" points="
  1272.81,1486.45 1272.81,47.2441 
  "/>
<polyline clip-path="url(#clip442)" style="stroke:#000000; stroke-width:2; stroke-opacity:0.1; fill:none" points="
  1672.68,1486.45 1672.68,47.2441 
  "/>
<polyline clip-path="url(#clip442)" style="stroke:#000000; stroke-width:2; stroke-opacity:0.1; fill:none" points="
  2072.54,1486.45 2072.54,47.2441 
  "/>
<polyline clip-path="url(#clip442)" style="stroke:#000000; stroke-width:2; stroke-opacity:0.1; fill:none" points="
  166.205,1445.72 2352.76,1445.72 
  "/>
<polyline clip-path="url(#clip442)" style="stroke:#000000; stroke-width:2; stroke-opacity:0.1; fill:none" points="
  166.205,1102.42 2352.76,1102.42 
  "/>
<polyline clip-path="url(#clip442)" style="stroke:#000000; stroke-width:2; stroke-opacity:0.1; fill:none" points="
  166.205,759.122 2352.76,759.122 
  "/>
<polyline clip-path="url(#clip442)" style="stroke:#000000; stroke-width:2; stroke-opacity:0.1; fill:none" points="
  166.205,415.825 2352.76,415.825 
  "/>
<polyline clip-path="url(#clip442)" style="stroke:#000000; stroke-width:2; stroke-opacity:0.1; fill:none" points="
  166.205,72.5279 2352.76,72.5279 
  "/>
<polyline clip-path="url(#clip440)" style="stroke:#000000; stroke-width:4; stroke-opacity:1; fill:none" points="
  166.205,1486.45 2352.76,1486.45 
  "/>
<polyline clip-path="url(#clip440)" style="stroke:#000000; stroke-width:4; stroke-opacity:1; fill:none" points="
  166.205,1486.45 166.205,47.2441 
  "/>
<polyline clip-path="url(#clip440)" style="stroke:#000000; stroke-width:4; stroke-opacity:1; fill:none" points="
  473.074,1486.45 473.074,1469.18 
  "/>
<polyline clip-path="url(#clip440)" style="stroke:#000000; stroke-width:4; stroke-opacity:1; fill:none" points="
  872.942,1486.45 872.942,1469.18 
  "/>
<polyline clip-path="url(#clip440)" style="stroke:#000000; stroke-width:4; stroke-opacity:1; fill:none" points="
  1272.81,1486.45 1272.81,1469.18 
  "/>
<polyline clip-path="url(#clip440)" style="stroke:#000000; stroke-width:4; stroke-opacity:1; fill:none" points="
  1672.68,1486.45 1672.68,1469.18 
  "/>
<polyline clip-path="url(#clip440)" style="stroke:#000000; stroke-width:4; stroke-opacity:1; fill:none" points="
  2072.54,1486.45 2072.54,1469.18 
  "/>
<polyline clip-path="url(#clip440)" style="stroke:#000000; stroke-width:4; stroke-opacity:1; fill:none" points="
  166.205,1445.72 192.443,1445.72 
  "/>
<polyline clip-path="url(#clip440)" style="stroke:#000000; stroke-width:4; stroke-opacity:1; fill:none" points="
  166.205,1102.42 192.443,1102.42 
  "/>
<polyline clip-path="url(#clip440)" style="stroke:#000000; stroke-width:4; stroke-opacity:1; fill:none" points="
  166.205,759.122 192.443,759.122 
  "/>
<polyline clip-path="url(#clip440)" style="stroke:#000000; stroke-width:4; stroke-opacity:1; fill:none" points="
  166.205,415.825 192.443,415.825 
  "/>
<polyline clip-path="url(#clip440)" style="stroke:#000000; stroke-width:4; stroke-opacity:1; fill:none" points="
  166.205,72.5279 192.443,72.5279 
  "/>
<path clip-path="url(#clip440)" d="M 0 0 M453.248 1525.04 L465.724 1525.04 L465.724 1528.83 L453.248 1528.83 L453.248 1525.04 Z" fill="#000000" fill-rule="evenodd" fill-opacity="1" /><path clip-path="url(#clip440)" d="M 0 0 M481.372 1520.78 Q478.224 1520.78 476.372 1522.93 Q474.544 1525.08 474.544 1528.83 Q474.544 1532.56 476.372 1534.73 Q478.224 1536.89 481.372 1536.89 Q484.521 1536.89 486.349 1534.73 Q488.201 1532.56 488.201 1528.83 Q488.201 1525.08 486.349 1522.93 Q484.521 1520.78 481.372 1520.78 M490.655 1506.12 L490.655 1510.38 Q488.895 1509.55 487.09 1509.11 Q485.308 1508.67 483.548 1508.67 Q478.919 1508.67 476.465 1511.8 Q474.034 1514.92 473.687 1521.24 Q475.053 1519.23 477.113 1518.16 Q479.173 1517.07 481.65 1517.07 Q486.858 1517.07 489.868 1520.24 Q492.9 1523.39 492.9 1528.83 Q492.9 1534.16 489.752 1537.37 Q486.604 1540.59 481.372 1540.59 Q475.377 1540.59 472.206 1536.01 Q469.034 1531.4 469.034 1522.67 Q469.034 1514.48 472.923 1509.62 Q476.812 1504.73 483.363 1504.73 Q485.122 1504.73 486.905 1505.08 Q488.71 1505.43 490.655 1506.12 Z" fill="#000000" fill-rule="evenodd" fill-opacity="1" /><path clip-path="url(#clip440)" d="M 0 0 M853.52 1525.04 L865.997 1525.04 L865.997 1528.83 L853.52 1528.83 L853.52 1525.04 Z" fill="#000000" fill-rule="evenodd" fill-opacity="1" /><path clip-path="url(#clip440)" d="M 0 0 M885.233 1521.29 Q888.59 1522 890.465 1524.27 Q892.363 1526.54 892.363 1529.87 Q892.363 1534.99 888.844 1537.79 Q885.326 1540.59 878.844 1540.59 Q876.668 1540.59 874.354 1540.15 Q872.062 1539.73 869.608 1538.88 L869.608 1534.36 Q871.553 1535.5 873.867 1536.08 Q876.182 1536.66 878.705 1536.66 Q883.103 1536.66 885.395 1534.92 Q887.71 1533.18 887.71 1529.87 Q887.71 1526.82 885.557 1525.11 Q883.428 1523.37 879.608 1523.37 L875.58 1523.37 L875.58 1519.53 L879.793 1519.53 Q883.242 1519.53 885.071 1518.16 Q886.9 1516.77 886.9 1514.18 Q886.9 1511.52 885.002 1510.11 Q883.127 1508.67 879.608 1508.67 Q877.687 1508.67 875.488 1509.09 Q873.289 1509.5 870.65 1510.38 L870.65 1506.22 Q873.312 1505.48 875.627 1505.11 Q877.965 1504.73 880.025 1504.73 Q885.349 1504.73 888.451 1507.17 Q891.553 1509.57 891.553 1513.69 Q891.553 1516.56 889.909 1518.55 Q888.265 1520.52 885.233 1521.29 Z" fill="#000000" fill-rule="evenodd" fill-opacity="1" /><path clip-path="url(#clip440)" d="M 0 0 M1272.81 1508.44 Q1269.2 1508.44 1267.37 1512 Q1265.56 1515.55 1265.56 1522.67 Q1265.56 1529.78 1267.37 1533.35 Q1269.2 1536.89 1272.81 1536.89 Q1276.44 1536.89 1278.25 1533.35 Q1280.08 1529.78 1280.08 1522.67 Q1280.08 1515.55 1278.25 1512 Q1276.44 1508.44 1272.81 1508.44 M1272.81 1504.73 Q1278.62 1504.73 1281.67 1509.34 Q1284.75 1513.92 1284.75 1522.67 Q1284.75 1531.4 1281.67 1536.01 Q1278.62 1540.59 1272.81 1540.59 Q1267 1540.59 1263.92 1536.01 Q1260.86 1531.4 1260.86 1522.67 Q1260.86 1513.92 1263.92 1509.34 Q1267 1504.73 1272.81 1504.73 Z" fill="#000000" fill-rule="evenodd" fill-opacity="1" /><path clip-path="url(#clip440)" d="M 0 0 M1676.92 1521.29 Q1680.28 1522 1682.16 1524.27 Q1684.05 1526.54 1684.05 1529.87 Q1684.05 1534.99 1680.54 1537.79 Q1677.02 1540.59 1670.54 1540.59 Q1668.36 1540.59 1666.05 1540.15 Q1663.75 1539.73 1661.3 1538.88 L1661.3 1534.36 Q1663.24 1535.5 1665.56 1536.08 Q1667.87 1536.66 1670.4 1536.66 Q1674.79 1536.66 1677.09 1534.92 Q1679.4 1533.18 1679.4 1529.87 Q1679.4 1526.82 1677.25 1525.11 Q1675.12 1523.37 1671.3 1523.37 L1667.27 1523.37 L1667.27 1519.53 L1671.48 1519.53 Q1674.93 1519.53 1676.76 1518.16 Q1678.59 1516.77 1678.59 1514.18 Q1678.59 1511.52 1676.69 1510.11 Q1674.82 1508.67 1671.3 1508.67 Q1669.38 1508.67 1667.18 1509.09 Q1664.98 1509.5 1662.34 1510.38 L1662.34 1506.22 Q1665 1505.48 1667.32 1505.11 Q1669.66 1504.73 1671.72 1504.73 Q1677.04 1504.73 1680.14 1507.17 Q1683.24 1509.57 1683.24 1513.69 Q1683.24 1516.56 1681.6 1518.55 Q1679.96 1520.52 1676.92 1521.29 Z" fill="#000000" fill-rule="evenodd" fill-opacity="1" /><path clip-path="url(#clip440)" d="M 0 0 M2072.95 1520.78 Q2069.8 1520.78 2067.95 1522.93 Q2066.12 1525.08 2066.12 1528.83 Q2066.12 1532.56 2067.95 1534.73 Q2069.8 1536.89 2072.95 1536.89 Q2076.1 1536.89 2077.93 1534.73 Q2079.78 1532.56 2079.78 1528.83 Q2079.78 1525.08 2077.93 1522.93 Q2076.1 1520.78 2072.95 1520.78 M2082.23 1506.12 L2082.23 1510.38 Q2080.47 1509.55 2078.67 1509.11 Q2076.88 1508.67 2075.13 1508.67 Q2070.5 1508.67 2068.04 1511.8 Q2065.61 1514.92 2065.26 1521.24 Q2066.63 1519.23 2068.69 1518.16 Q2070.75 1517.07 2073.23 1517.07 Q2078.44 1517.07 2081.45 1520.24 Q2084.48 1523.39 2084.48 1528.83 Q2084.48 1534.16 2081.33 1537.37 Q2078.18 1540.59 2072.95 1540.59 Q2066.95 1540.59 2063.78 1536.01 Q2060.61 1531.4 2060.61 1522.67 Q2060.61 1514.48 2064.5 1509.62 Q2068.39 1504.73 2074.94 1504.73 Q2076.7 1504.73 2078.48 1505.08 Q2080.29 1505.43 2082.23 1506.12 Z" fill="#000000" fill-rule="evenodd" fill-opacity="1" /><path clip-path="url(#clip440)" d="M 0 0 M130.26 1431.51 Q126.649 1431.51 124.82 1435.08 Q123.015 1438.62 123.015 1445.75 Q123.015 1452.86 124.82 1456.42 Q126.649 1459.96 130.26 1459.96 Q133.895 1459.96 135.7 1456.42 Q137.529 1452.86 137.529 1445.75 Q137.529 1438.62 135.7 1435.08 Q133.895 1431.51 130.26 1431.51 M130.26 1427.81 Q136.07 1427.81 139.126 1432.42 Q142.205 1437 142.205 1445.75 Q142.205 1454.48 139.126 1459.08 Q136.07 1463.67 130.26 1463.67 Q124.45 1463.67 121.371 1459.08 Q118.316 1454.48 118.316 1445.75 Q118.316 1437 121.371 1432.42 Q124.45 1427.81 130.26 1427.81 Z" fill="#000000" fill-rule="evenodd" fill-opacity="1" /><path clip-path="url(#clip440)" d="M 0 0 M71.8578 1115.76 L88.1772 1115.76 L88.1772 1119.7 L66.2328 1119.7 L66.2328 1115.76 Q68.8949 1113.01 73.4782 1108.38 Q78.0846 1103.73 79.2652 1102.38 Q81.5105 1099.86 82.3902 1098.12 Q83.2929 1096.37 83.2929 1094.68 Q83.2929 1091.92 81.3485 1090.19 Q79.4272 1088.45 76.3254 1088.45 Q74.1263 1088.45 71.6726 1089.21 Q69.2421 1089.98 66.4643 1091.53 L66.4643 1086.81 Q69.2884 1085.67 71.7421 1085.09 Q74.1958 1084.51 76.2328 1084.51 Q81.6031 1084.51 84.7976 1087.2 Q87.992 1089.88 87.992 1094.37 Q87.992 1096.5 87.1818 1098.43 Q86.3948 1100.32 84.2883 1102.92 Q83.7096 1103.59 80.6078 1106.81 Q77.5059 1110 71.8578 1115.76 Z" fill="#000000" fill-rule="evenodd" fill-opacity="1" /><path clip-path="url(#clip440)" d="M 0 0 M103.247 1088.22 Q99.6354 1088.22 97.8068 1091.78 Q96.0012 1095.32 96.0012 1102.45 Q96.0012 1109.56 97.8068 1113.12 Q99.6354 1116.67 103.247 1116.67 Q106.881 1116.67 108.686 1113.12 Q110.515 1109.56 110.515 1102.45 Q110.515 1095.32 108.686 1091.78 Q106.881 1088.22 103.247 1088.22 M103.247 1084.51 Q109.057 1084.51 112.112 1089.12 Q115.191 1093.7 115.191 1102.45 Q115.191 1111.18 112.112 1115.79 Q109.057 1120.37 103.247 1120.37 Q97.4364 1120.37 94.3577 1115.79 Q91.3022 1111.18 91.3022 1102.45 Q91.3022 1093.7 94.3577 1089.12 Q97.4364 1084.51 103.247 1084.51 Z" fill="#000000" fill-rule="evenodd" fill-opacity="1" /><path clip-path="url(#clip440)" d="M 0 0 M130.26 1088.22 Q126.649 1088.22 124.82 1091.78 Q123.015 1095.32 123.015 1102.45 Q123.015 1109.56 124.82 1113.12 Q126.649 1116.67 130.26 1116.67 Q133.895 1116.67 135.7 1113.12 Q137.529 1109.56 137.529 1102.45 Q137.529 1095.32 135.7 1091.78 Q133.895 1088.22 130.26 1088.22 M130.26 1084.51 Q136.07 1084.51 139.126 1089.12 Q142.205 1093.7 142.205 1102.45 Q142.205 1111.18 139.126 1115.79 Q136.07 1120.37 130.26 1120.37 Q124.45 1120.37 121.371 1115.79 Q118.316 1111.18 118.316 1102.45 Q118.316 1093.7 121.371 1089.12 Q124.45 1084.51 130.26 1084.51 Z" fill="#000000" fill-rule="evenodd" fill-opacity="1" /><path clip-path="url(#clip440)" d="M 0 0 M78.5939 745.916 L66.7884 764.365 L78.5939 764.365 L78.5939 745.916 M77.367 741.842 L83.2466 741.842 L83.2466 764.365 L88.1772 764.365 L88.1772 768.254 L83.2466 768.254 L83.2466 776.402 L78.5939 776.402 L78.5939 768.254 L62.9921 768.254 L62.9921 763.74 L77.367 741.842 Z" fill="#000000" fill-rule="evenodd" fill-opacity="1" /><path clip-path="url(#clip440)" d="M 0 0 M103.247 744.92 Q99.6354 744.92 97.8068 748.485 Q96.0012 752.027 96.0012 759.157 Q96.0012 766.263 97.8068 769.828 Q99.6354 773.369 103.247 773.369 Q106.881 773.369 108.686 769.828 Q110.515 766.263 110.515 759.157 Q110.515 752.027 108.686 748.485 Q106.881 744.92 103.247 744.92 M103.247 741.217 Q109.057 741.217 112.112 745.823 Q115.191 750.407 115.191 759.157 Q115.191 767.883 112.112 772.49 Q109.057 777.073 103.247 777.073 Q97.4364 777.073 94.3577 772.49 Q91.3022 767.883 91.3022 759.157 Q91.3022 750.407 94.3577 745.823 Q97.4364 741.217 103.247 741.217 Z" fill="#000000" fill-rule="evenodd" fill-opacity="1" /><path clip-path="url(#clip440)" d="M 0 0 M130.26 744.92 Q126.649 744.92 124.82 748.485 Q123.015 752.027 123.015 759.157 Q123.015 766.263 124.82 769.828 Q126.649 773.369 130.26 773.369 Q133.895 773.369 135.7 769.828 Q137.529 766.263 137.529 759.157 Q137.529 752.027 135.7 748.485 Q133.895 744.92 130.26 744.92 M130.26 741.217 Q136.07 741.217 139.126 745.823 Q142.205 750.407 142.205 759.157 Q142.205 767.883 139.126 772.49 Q136.07 777.073 130.26 777.073 Q124.45 777.073 121.371 772.49 Q118.316 767.883 118.316 759.157 Q118.316 750.407 121.371 745.823 Q124.45 741.217 130.26 741.217 Z" fill="#000000" fill-rule="evenodd" fill-opacity="1" /><path clip-path="url(#clip440)" d="M 0 0 M76.6495 413.961 Q73.5013 413.961 71.6495 416.114 Q69.8208 418.267 69.8208 422.017 Q69.8208 425.744 71.6495 427.92 Q73.5013 430.072 76.6495 430.072 Q79.7976 430.072 81.6263 427.92 Q83.4781 425.744 83.4781 422.017 Q83.4781 418.267 81.6263 416.114 Q79.7976 413.961 76.6495 413.961 M85.9318 399.309 L85.9318 403.568 Q84.1726 402.735 82.367 402.295 Q80.5846 401.855 78.8254 401.855 Q74.1958 401.855 71.7421 404.98 Q69.3115 408.105 68.9643 414.424 Q70.33 412.411 72.3902 411.346 Q74.4504 410.258 76.9272 410.258 Q82.1355 410.258 85.1448 413.429 Q88.1772 416.577 88.1772 422.017 Q88.1772 427.341 85.029 430.559 Q81.8809 433.776 76.6495 433.776 Q70.6541 433.776 67.4828 429.193 Q64.3116 424.586 64.3116 415.86 Q64.3116 407.665 68.2004 402.804 Q72.0893 397.92 78.6402 397.92 Q80.3994 397.92 82.1818 398.267 Q83.9874 398.614 85.9318 399.309 Z" fill="#000000" fill-rule="evenodd" fill-opacity="1" /><path clip-path="url(#clip440)" d="M 0 0 M103.247 401.624 Q99.6354 401.624 97.8068 405.188 Q96.0012 408.73 96.0012 415.86 Q96.0012 422.966 97.8068 426.531 Q99.6354 430.072 103.247 430.072 Q106.881 430.072 108.686 426.531 Q110.515 422.966 110.515 415.86 Q110.515 408.73 108.686 405.188 Q106.881 401.624 103.247 401.624 M103.247 397.92 Q109.057 397.92 112.112 402.526 Q115.191 407.11 115.191 415.86 Q115.191 424.586 112.112 429.193 Q109.057 433.776 103.247 433.776 Q97.4364 433.776 94.3577 429.193 Q91.3022 424.586 91.3022 415.86 Q91.3022 407.11 94.3577 402.526 Q97.4364 397.92 103.247 397.92 Z" fill="#000000" fill-rule="evenodd" fill-opacity="1" /><path clip-path="url(#clip440)" d="M 0 0 M130.26 401.624 Q126.649 401.624 124.82 405.188 Q123.015 408.73 123.015 415.86 Q123.015 422.966 124.82 426.531 Q126.649 430.072 130.26 430.072 Q133.895 430.072 135.7 426.531 Q137.529 422.966 137.529 415.86 Q137.529 408.73 135.7 405.188 Q133.895 401.624 130.26 401.624 M130.26 397.92 Q136.07 397.92 139.126 402.526 Q142.205 407.11 142.205 415.86 Q142.205 424.586 139.126 429.193 Q136.07 433.776 130.26 433.776 Q124.45 433.776 121.371 429.193 Q118.316 424.586 118.316 415.86 Q118.316 407.11 121.371 402.526 Q124.45 397.92 130.26 397.92 Z" fill="#000000" fill-rule="evenodd" fill-opacity="1" /><path clip-path="url(#clip440)" d="M 0 0 M76.3254 73.396 Q72.9921 73.396 71.0708 75.1784 Q69.1726 76.9608 69.1726 80.0857 Q69.1726 83.2107 71.0708 84.9931 Q72.9921 86.7755 76.3254 86.7755 Q79.6587 86.7755 81.58 84.9931 Q83.5013 83.1876 83.5013 80.0857 Q83.5013 76.9608 81.58 75.1784 Q79.6819 73.396 76.3254 73.396 M71.6495 71.4052 Q68.6402 70.6645 66.9504 68.6043 Q65.2838 66.5442 65.2838 63.5812 Q65.2838 59.4377 68.2236 57.0303 Q71.1865 54.6229 76.3254 54.6229 Q81.4874 54.6229 84.4272 57.0303 Q87.367 59.4377 87.367 63.5812 Q87.367 66.5442 85.6772 68.6043 Q84.0105 70.6645 81.0244 71.4052 Q84.404 72.1923 86.279 74.4839 Q88.1772 76.7756 88.1772 80.0857 Q88.1772 85.1089 85.0985 87.794 Q82.0429 90.4792 76.3254 90.4792 Q70.6078 90.4792 67.5291 87.794 Q64.4736 85.1089 64.4736 80.0857 Q64.4736 76.7756 66.3717 74.4839 Q68.2699 72.1923 71.6495 71.4052 M69.9365 64.021 Q69.9365 66.7062 71.6032 68.2108 Q73.293 69.7154 76.3254 69.7154 Q79.3346 69.7154 81.0244 68.2108 Q82.7374 66.7062 82.7374 64.021 Q82.7374 61.3358 81.0244 59.8312 Q79.3346 58.3266 76.3254 58.3266 Q73.293 58.3266 71.6032 59.8312 Q69.9365 61.3358 69.9365 64.021 Z" fill="#000000" fill-rule="evenodd" fill-opacity="1" /><path clip-path="url(#clip440)" d="M 0 0 M103.247 58.3266 Q99.6354 58.3266 97.8068 61.8914 Q96.0012 65.433 96.0012 72.5626 Q96.0012 79.6691 97.8068 83.2339 Q99.6354 86.7755 103.247 86.7755 Q106.881 86.7755 108.686 83.2339 Q110.515 79.6691 110.515 72.5626 Q110.515 65.433 108.686 61.8914 Q106.881 58.3266 103.247 58.3266 M103.247 54.6229 Q109.057 54.6229 112.112 59.2294 Q115.191 63.8127 115.191 72.5626 Q115.191 81.2894 112.112 85.8959 Q109.057 90.4792 103.247 90.4792 Q97.4364 90.4792 94.3577 85.8959 Q91.3022 81.2894 91.3022 72.5626 Q91.3022 63.8127 94.3577 59.2294 Q97.4364 54.6229 103.247 54.6229 Z" fill="#000000" fill-rule="evenodd" fill-opacity="1" /><path clip-path="url(#clip440)" d="M 0 0 M130.26 58.3266 Q126.649 58.3266 124.82 61.8914 Q123.015 65.433 123.015 72.5626 Q123.015 79.6691 124.82 83.2339 Q126.649 86.7755 130.26 86.7755 Q133.895 86.7755 135.7 83.2339 Q137.529 79.6691 137.529 72.5626 Q137.529 65.433 135.7 61.8914 Q133.895 58.3266 130.26 58.3266 M130.26 54.6229 Q136.07 54.6229 139.126 59.2294 Q142.205 63.8127 142.205 72.5626 Q142.205 81.2894 139.126 85.8959 Q136.07 90.4792 130.26 90.4792 Q124.45 90.4792 121.371 85.8959 Q118.316 81.2894 118.316 72.5626 Q118.316 63.8127 121.371 59.2294 Q124.45 54.6229 130.26 54.6229 Z" fill="#000000" fill-rule="evenodd" fill-opacity="1" /><path clip-path="url(#clip442)" d="
M286.469 1442.28 L286.469 1445.72 L313.127 1445.72 L313.127 1442.28 L286.469 1442.28 L286.469 1442.28  Z
  " fill="#009af9" fill-rule="evenodd" fill-opacity="1"/>
<polyline clip-path="url(#clip442)" style="stroke:#000000; stroke-width:4; stroke-opacity:1; fill:none" points="
  286.469,1442.28 286.469,1445.72 313.127,1445.72 313.127,1442.28 286.469,1442.28 
  "/>
<path clip-path="url(#clip442)" d="
M313.127 1445.72 L313.127 1445.72 L339.785 1445.72 L339.785 1445.72 L313.127 1445.72 L313.127 1445.72  Z
  " fill="#009af9" fill-rule="evenodd" fill-opacity="1"/>
<polyline clip-path="url(#clip442)" style="stroke:#000000; stroke-width:4; stroke-opacity:1; fill:none" points="
  313.127,1445.72 313.127,1445.72 339.785,1445.72 313.127,1445.72 
  "/>
<path clip-path="url(#clip442)" d="
M339.785 1445.72 L339.785 1445.72 L366.442 1445.72 L366.442 1445.72 L339.785 1445.72 L339.785 1445.72  Z
  " fill="#009af9" fill-rule="evenodd" fill-opacity="1"/>
<polyline clip-path="url(#clip442)" style="stroke:#000000; stroke-width:4; stroke-opacity:1; fill:none" points="
  339.785,1445.72 339.785,1445.72 366.442,1445.72 339.785,1445.72 
  "/>
<path clip-path="url(#clip442)" d="
M366.442 1445.72 L366.442 1445.72 L393.1 1445.72 L393.1 1445.72 L366.442 1445.72 L366.442 1445.72  Z
  " fill="#009af9" fill-rule="evenodd" fill-opacity="1"/>
<polyline clip-path="url(#clip442)" style="stroke:#000000; stroke-width:4; stroke-opacity:1; fill:none" points="
  366.442,1445.72 366.442,1445.72 393.1,1445.72 366.442,1445.72 
  "/>
<path clip-path="url(#clip442)" d="
M393.1 1445.72 L393.1 1445.72 L419.758 1445.72 L419.758 1445.72 L393.1 1445.72 L393.1 1445.72  Z
  " fill="#009af9" fill-rule="evenodd" fill-opacity="1"/>
<polyline clip-path="url(#clip442)" style="stroke:#000000; stroke-width:4; stroke-opacity:1; fill:none" points="
  393.1,1445.72 393.1,1445.72 419.758,1445.72 393.1,1445.72 
  "/>
<path clip-path="url(#clip442)" d="
M419.758 1444 L419.758 1445.72 L446.416 1445.72 L446.416 1444 L419.758 1444 L419.758 1444  Z
  " fill="#009af9" fill-rule="evenodd" fill-opacity="1"/>
<polyline clip-path="url(#clip442)" style="stroke:#000000; stroke-width:4; stroke-opacity:1; fill:none" points="
  419.758,1444 419.758,1445.72 446.416,1445.72 446.416,1444 419.758,1444 
  "/>
<path clip-path="url(#clip442)" d="
M446.416 1445.72 L446.416 1445.72 L473.074 1445.72 L473.074 1445.72 L446.416 1445.72 L446.416 1445.72  Z
  " fill="#009af9" fill-rule="evenodd" fill-opacity="1"/>
<polyline clip-path="url(#clip442)" style="stroke:#000000; stroke-width:4; stroke-opacity:1; fill:none" points="
  446.416,1445.72 446.416,1445.72 473.074,1445.72 446.416,1445.72 
  "/>
<path clip-path="url(#clip442)" d="
M473.074 1438.85 L473.074 1445.72 L499.732 1445.72 L499.732 1438.85 L473.074 1438.85 L473.074 1438.85  Z
  " fill="#009af9" fill-rule="evenodd" fill-opacity="1"/>
<polyline clip-path="url(#clip442)" style="stroke:#000000; stroke-width:4; stroke-opacity:1; fill:none" points="
  473.074,1438.85 473.074,1445.72 499.732,1445.72 499.732,1438.85 473.074,1438.85 
  "/>
<path clip-path="url(#clip442)" d="
M499.732 1444 L499.732 1445.72 L526.389 1445.72 L526.389 1444 L499.732 1444 L499.732 1444  Z
  " fill="#009af9" fill-rule="evenodd" fill-opacity="1"/>
<polyline clip-path="url(#clip442)" style="stroke:#000000; stroke-width:4; stroke-opacity:1; fill:none" points="
  499.732,1444 499.732,1445.72 526.389,1445.72 526.389,1444 499.732,1444 
  "/>
<path clip-path="url(#clip442)" d="
M526.389 1440.57 L526.389 1445.72 L553.047 1445.72 L553.047 1440.57 L526.389 1440.57 L526.389 1440.57  Z
  " fill="#009af9" fill-rule="evenodd" fill-opacity="1"/>
<polyline clip-path="url(#clip442)" style="stroke:#000000; stroke-width:4; stroke-opacity:1; fill:none" points="
  526.389,1440.57 526.389,1445.72 553.047,1445.72 553.047,1440.57 526.389,1440.57 
  "/>
<path clip-path="url(#clip442)" d="
M553.047 1438.85 L553.047 1445.72 L579.705 1445.72 L579.705 1438.85 L553.047 1438.85 L553.047 1438.85  Z
  " fill="#009af9" fill-rule="evenodd" fill-opacity="1"/>
<polyline clip-path="url(#clip442)" style="stroke:#000000; stroke-width:4; stroke-opacity:1; fill:none" points="
  553.047,1438.85 553.047,1445.72 579.705,1445.72 579.705,1438.85 553.047,1438.85 
  "/>
<path clip-path="url(#clip442)" d="
M579.705 1437.13 L579.705 1445.72 L606.363 1445.72 L606.363 1437.13 L579.705 1437.13 L579.705 1437.13  Z
  " fill="#009af9" fill-rule="evenodd" fill-opacity="1"/>
<polyline clip-path="url(#clip442)" style="stroke:#000000; stroke-width:4; stroke-opacity:1; fill:none" points="
  579.705,1437.13 579.705,1445.72 606.363,1445.72 606.363,1437.13 579.705,1437.13 
  "/>
<path clip-path="url(#clip442)" d="
M606.363 1430.27 L606.363 1445.72 L633.021 1445.72 L633.021 1430.27 L606.363 1430.27 L606.363 1430.27  Z
  " fill="#009af9" fill-rule="evenodd" fill-opacity="1"/>
<polyline clip-path="url(#clip442)" style="stroke:#000000; stroke-width:4; stroke-opacity:1; fill:none" points="
  606.363,1430.27 606.363,1445.72 633.021,1445.72 633.021,1430.27 606.363,1430.27 
  "/>
<path clip-path="url(#clip442)" d="
M633.021 1445.72 L633.021 1445.72 L659.679 1445.72 L659.679 1445.72 L633.021 1445.72 L633.021 1445.72  Z
  " fill="#009af9" fill-rule="evenodd" fill-opacity="1"/>
<polyline clip-path="url(#clip442)" style="stroke:#000000; stroke-width:4; stroke-opacity:1; fill:none" points="
  633.021,1445.72 633.021,1445.72 659.679,1445.72 633.021,1445.72 
  "/>
<path clip-path="url(#clip442)" d="
M659.679 1428.55 L659.679 1445.72 L686.337 1445.72 L686.337 1428.55 L659.679 1428.55 L659.679 1428.55  Z
  " fill="#009af9" fill-rule="evenodd" fill-opacity="1"/>
<polyline clip-path="url(#clip442)" style="stroke:#000000; stroke-width:4; stroke-opacity:1; fill:none" points="
  659.679,1428.55 659.679,1445.72 686.337,1445.72 686.337,1428.55 659.679,1428.55 
  "/>
<path clip-path="url(#clip442)" d="
M686.337 1423.4 L686.337 1445.72 L712.994 1445.72 L712.994 1423.4 L686.337 1423.4 L686.337 1423.4  Z
  " fill="#009af9" fill-rule="evenodd" fill-opacity="1"/>
<polyline clip-path="url(#clip442)" style="stroke:#000000; stroke-width:4; stroke-opacity:1; fill:none" points="
  686.337,1423.4 686.337,1445.72 712.994,1445.72 712.994,1423.4 686.337,1423.4 
  "/>
<path clip-path="url(#clip442)" d="
M712.994 1419.97 L712.994 1445.72 L739.652 1445.72 L739.652 1419.97 L712.994 1419.97 L712.994 1419.97  Z
  " fill="#009af9" fill-rule="evenodd" fill-opacity="1"/>
<polyline clip-path="url(#clip442)" style="stroke:#000000; stroke-width:4; stroke-opacity:1; fill:none" points="
  712.994,1419.97 712.994,1445.72 739.652,1445.72 739.652,1419.97 712.994,1419.97 
  "/>
<path clip-path="url(#clip442)" d="
M739.652 1413.1 L739.652 1445.72 L766.31 1445.72 L766.31 1413.1 L739.652 1413.1 L739.652 1413.1  Z
  " fill="#009af9" fill-rule="evenodd" fill-opacity="1"/>
<polyline clip-path="url(#clip442)" style="stroke:#000000; stroke-width:4; stroke-opacity:1; fill:none" points="
  739.652,1413.1 739.652,1445.72 766.31,1445.72 766.31,1413.1 739.652,1413.1 
  "/>
<path clip-path="url(#clip442)" d="
M766.31 1411.39 L766.31 1445.72 L792.968 1445.72 L792.968 1411.39 L766.31 1411.39 L766.31 1411.39  Z
  " fill="#009af9" fill-rule="evenodd" fill-opacity="1"/>
<polyline clip-path="url(#clip442)" style="stroke:#000000; stroke-width:4; stroke-opacity:1; fill:none" points="
  766.31,1411.39 766.31,1445.72 792.968,1445.72 792.968,1411.39 766.31,1411.39 
  "/>
<path clip-path="url(#clip442)" d="
M792.968 1402.8 L792.968 1445.72 L819.626 1445.72 L819.626 1402.8 L792.968 1402.8 L792.968 1402.8  Z
  " fill="#009af9" fill-rule="evenodd" fill-opacity="1"/>
<polyline clip-path="url(#clip442)" style="stroke:#000000; stroke-width:4; stroke-opacity:1; fill:none" points="
  792.968,1402.8 792.968,1445.72 819.626,1445.72 819.626,1402.8 792.968,1402.8 
  "/>
<path clip-path="url(#clip442)" d="
M819.626 1377.06 L819.626 1445.72 L846.284 1445.72 L846.284 1377.06 L819.626 1377.06 L819.626 1377.06  Z
  " fill="#009af9" fill-rule="evenodd" fill-opacity="1"/>
<polyline clip-path="url(#clip442)" style="stroke:#000000; stroke-width:4; stroke-opacity:1; fill:none" points="
  819.626,1377.06 819.626,1445.72 846.284,1445.72 846.284,1377.06 819.626,1377.06 
  "/>
<path clip-path="url(#clip442)" d="
M846.284 1382.21 L846.284 1445.72 L872.942 1445.72 L872.942 1382.21 L846.284 1382.21 L846.284 1382.21  Z
  " fill="#009af9" fill-rule="evenodd" fill-opacity="1"/>
<polyline clip-path="url(#clip442)" style="stroke:#000000; stroke-width:4; stroke-opacity:1; fill:none" points="
  846.284,1382.21 846.284,1445.72 872.942,1445.72 872.942,1382.21 846.284,1382.21 
  "/>
<path clip-path="url(#clip442)" d="
M872.942 1365.04 L872.942 1445.72 L899.599 1445.72 L899.599 1365.04 L872.942 1365.04 L872.942 1365.04  Z
  " fill="#009af9" fill-rule="evenodd" fill-opacity="1"/>
<polyline clip-path="url(#clip442)" style="stroke:#000000; stroke-width:4; stroke-opacity:1; fill:none" points="
  872.942,1365.04 872.942,1445.72 899.599,1445.72 899.599,1365.04 872.942,1365.04 
  "/>
<path clip-path="url(#clip442)" d="
M899.599 1370.19 L899.599 1445.72 L926.257 1445.72 L926.257 1370.19 L899.599 1370.19 L899.599 1370.19  Z
  " fill="#009af9" fill-rule="evenodd" fill-opacity="1"/>
<polyline clip-path="url(#clip442)" style="stroke:#000000; stroke-width:4; stroke-opacity:1; fill:none" points="
  899.599,1370.19 899.599,1445.72 926.257,1445.72 926.257,1370.19 899.599,1370.19 
  "/>
<path clip-path="url(#clip442)" d="
M926.257 1368.47 L926.257 1445.72 L952.915 1445.72 L952.915 1368.47 L926.257 1368.47 L926.257 1368.47  Z
  " fill="#009af9" fill-rule="evenodd" fill-opacity="1"/>
<polyline clip-path="url(#clip442)" style="stroke:#000000; stroke-width:4; stroke-opacity:1; fill:none" points="
  926.257,1368.47 926.257,1445.72 952.915,1445.72 952.915,1368.47 926.257,1368.47 
  "/>
<path clip-path="url(#clip442)" d="
M952.915 1342.73 L952.915 1445.72 L979.573 1445.72 L979.573 1342.73 L952.915 1342.73 L952.915 1342.73  Z
  " fill="#009af9" fill-rule="evenodd" fill-opacity="1"/>
<polyline clip-path="url(#clip442)" style="stroke:#000000; stroke-width:4; stroke-opacity:1; fill:none" points="
  952.915,1342.73 952.915,1445.72 979.573,1445.72 979.573,1342.73 952.915,1342.73 
  "/>
<path clip-path="url(#clip442)" d="
M979.573 1341.01 L979.573 1445.72 L1006.23 1445.72 L1006.23 1341.01 L979.573 1341.01 L979.573 1341.01  Z
  " fill="#009af9" fill-rule="evenodd" fill-opacity="1"/>
<polyline clip-path="url(#clip442)" style="stroke:#000000; stroke-width:4; stroke-opacity:1; fill:none" points="
  979.573,1341.01 979.573,1445.72 1006.23,1445.72 1006.23,1341.01 979.573,1341.01 
  "/>
<path clip-path="url(#clip442)" d="
M1006.23 1325.56 L1006.23 1445.72 L1032.89 1445.72 L1032.89 1325.56 L1006.23 1325.56 L1006.23 1325.56  Z
  " fill="#009af9" fill-rule="evenodd" fill-opacity="1"/>
<polyline clip-path="url(#clip442)" style="stroke:#000000; stroke-width:4; stroke-opacity:1; fill:none" points="
  1006.23,1325.56 1006.23,1445.72 1032.89,1445.72 1032.89,1325.56 1006.23,1325.56 
  "/>
<path clip-path="url(#clip442)" d="
M1032.89 1296.38 L1032.89 1445.72 L1059.55 1445.72 L1059.55 1296.38 L1032.89 1296.38 L1032.89 1296.38  Z
  " fill="#009af9" fill-rule="evenodd" fill-opacity="1"/>
<polyline clip-path="url(#clip442)" style="stroke:#000000; stroke-width:4; stroke-opacity:1; fill:none" points="
  1032.89,1296.38 1032.89,1445.72 1059.55,1445.72 1059.55,1296.38 1032.89,1296.38 
  "/>
<path clip-path="url(#clip442)" d="
M1059.55 1286.08 L1059.55 1445.72 L1086.2 1445.72 L1086.2 1286.08 L1059.55 1286.08 L1059.55 1286.08  Z
  " fill="#009af9" fill-rule="evenodd" fill-opacity="1"/>
<polyline clip-path="url(#clip442)" style="stroke:#000000; stroke-width:4; stroke-opacity:1; fill:none" points="
  1059.55,1286.08 1059.55,1445.72 1086.2,1445.72 1086.2,1286.08 1059.55,1286.08 
  "/>
<path clip-path="url(#clip442)" d="
M1086.2 1255.19 L1086.2 1445.72 L1112.86 1445.72 L1112.86 1255.19 L1086.2 1255.19 L1086.2 1255.19  Z
  " fill="#009af9" fill-rule="evenodd" fill-opacity="1"/>
<polyline clip-path="url(#clip442)" style="stroke:#000000; stroke-width:4; stroke-opacity:1; fill:none" points="
  1086.2,1255.19 1086.2,1445.72 1112.86,1445.72 1112.86,1255.19 1086.2,1255.19 
  "/>
<path clip-path="url(#clip442)" d="
M1112.86 1292.95 L1112.86 1445.72 L1139.52 1445.72 L1139.52 1292.95 L1112.86 1292.95 L1112.86 1292.95  Z
  " fill="#009af9" fill-rule="evenodd" fill-opacity="1"/>
<polyline clip-path="url(#clip442)" style="stroke:#000000; stroke-width:4; stroke-opacity:1; fill:none" points="
  1112.86,1292.95 1112.86,1445.72 1139.52,1445.72 1139.52,1292.95 1112.86,1292.95 
  "/>
<path clip-path="url(#clip442)" d="
M1139.52 1238.02 L1139.52 1445.72 L1166.18 1445.72 L1166.18 1238.02 L1139.52 1238.02 L1139.52 1238.02  Z
  " fill="#009af9" fill-rule="evenodd" fill-opacity="1"/>
<polyline clip-path="url(#clip442)" style="stroke:#000000; stroke-width:4; stroke-opacity:1; fill:none" points="
  1139.52,1238.02 1139.52,1445.72 1166.18,1445.72 1166.18,1238.02 1139.52,1238.02 
  "/>
<path clip-path="url(#clip442)" d="
M1166.18 1253.47 L1166.18 1445.72 L1192.84 1445.72 L1192.84 1253.47 L1166.18 1253.47 L1166.18 1253.47  Z
  " fill="#009af9" fill-rule="evenodd" fill-opacity="1"/>
<polyline clip-path="url(#clip442)" style="stroke:#000000; stroke-width:4; stroke-opacity:1; fill:none" points="
  1166.18,1253.47 1166.18,1445.72 1192.84,1445.72 1192.84,1253.47 1166.18,1253.47 
  "/>
<path clip-path="url(#clip442)" d="
M1192.84 1212.27 L1192.84 1445.72 L1219.49 1445.72 L1219.49 1212.27 L1192.84 1212.27 L1192.84 1212.27  Z
  " fill="#009af9" fill-rule="evenodd" fill-opacity="1"/>
<polyline clip-path="url(#clip442)" style="stroke:#000000; stroke-width:4; stroke-opacity:1; fill:none" points="
  1192.84,1212.27 1192.84,1445.72 1219.49,1445.72 1219.49,1212.27 1192.84,1212.27 
  "/>
<path clip-path="url(#clip442)" d="
M1219.49 1234.59 L1219.49 1445.72 L1246.15 1445.72 L1246.15 1234.59 L1219.49 1234.59 L1219.49 1234.59  Z
  " fill="#009af9" fill-rule="evenodd" fill-opacity="1"/>
<polyline clip-path="url(#clip442)" style="stroke:#000000; stroke-width:4; stroke-opacity:1; fill:none" points="
  1219.49,1234.59 1219.49,1445.72 1246.15,1445.72 1246.15,1234.59 1219.49,1234.59 
  "/>
<path clip-path="url(#clip442)" d="
M1246.15 1272.35 L1246.15 1445.72 L1272.81 1445.72 L1272.81 1272.35 L1246.15 1272.35 L1246.15 1272.35  Z
  " fill="#009af9" fill-rule="evenodd" fill-opacity="1"/>
<polyline clip-path="url(#clip442)" style="stroke:#000000; stroke-width:4; stroke-opacity:1; fill:none" points="
  1246.15,1272.35 1246.15,1445.72 1272.81,1445.72 1272.81,1272.35 1246.15,1272.35 
  "/>
<path clip-path="url(#clip442)" d="
M1272.81 1229.44 L1272.81 1445.72 L1299.47 1445.72 L1299.47 1229.44 L1272.81 1229.44 L1272.81 1229.44  Z
  " fill="#009af9" fill-rule="evenodd" fill-opacity="1"/>
<polyline clip-path="url(#clip442)" style="stroke:#000000; stroke-width:4; stroke-opacity:1; fill:none" points="
  1272.81,1229.44 1272.81,1445.72 1299.47,1445.72 1299.47,1229.44 1272.81,1229.44 
  "/>
<path clip-path="url(#clip442)" d="
M1299.47 1217.42 L1299.47 1445.72 L1326.12 1445.72 L1326.12 1217.42 L1299.47 1217.42 L1299.47 1217.42  Z
  " fill="#009af9" fill-rule="evenodd" fill-opacity="1"/>
<polyline clip-path="url(#clip442)" style="stroke:#000000; stroke-width:4; stroke-opacity:1; fill:none" points="
  1299.47,1217.42 1299.47,1445.72 1326.12,1445.72 1326.12,1217.42 1299.47,1217.42 
  "/>
<path clip-path="url(#clip442)" d="
M1326.12 1160.78 L1326.12 1445.72 L1352.78 1445.72 L1352.78 1160.78 L1326.12 1160.78 L1326.12 1160.78  Z
  " fill="#009af9" fill-rule="evenodd" fill-opacity="1"/>
<polyline clip-path="url(#clip442)" style="stroke:#000000; stroke-width:4; stroke-opacity:1; fill:none" points="
  1326.12,1160.78 1326.12,1445.72 1352.78,1445.72 1352.78,1160.78 1326.12,1160.78 
  "/>
<path clip-path="url(#clip442)" d="
M1352.78 793.451 L1352.78 1445.72 L1379.44 1445.72 L1379.44 793.451 L1352.78 793.451 L1352.78 793.451  Z
  " fill="#009af9" fill-rule="evenodd" fill-opacity="1"/>
<polyline clip-path="url(#clip442)" style="stroke:#000000; stroke-width:4; stroke-opacity:1; fill:none" points="
  1352.78,793.451 1352.78,1445.72 1379.44,1445.72 1379.44,793.451 1352.78,793.451 
  "/>
<path clip-path="url(#clip442)" d="
M1379.44 110.291 L1379.44 1445.72 L1406.1 1445.72 L1406.1 110.291 L1379.44 110.291 L1379.44 110.291  Z
  " fill="#009af9" fill-rule="evenodd" fill-opacity="1"/>
<polyline clip-path="url(#clip442)" style="stroke:#000000; stroke-width:4; stroke-opacity:1; fill:none" points="
  1379.44,110.291 1379.44,1445.72 1406.1,1445.72 1406.1,110.291 1379.44,110.291 
  "/>
<path clip-path="url(#clip442)" d="
M1406.1 87.9763 L1406.1 1445.72 L1432.76 1445.72 L1432.76 87.9763 L1406.1 87.9763 L1406.1 87.9763  Z
  " fill="#009af9" fill-rule="evenodd" fill-opacity="1"/>
<polyline clip-path="url(#clip442)" style="stroke:#000000; stroke-width:4; stroke-opacity:1; fill:none" points="
  1406.1,87.9763 1406.1,1445.72 1432.76,1445.72 1432.76,87.9763 1406.1,87.9763 
  "/>
<path clip-path="url(#clip442)" d="
M1432.76 814.049 L1432.76 1445.72 L1459.41 1445.72 L1459.41 814.049 L1432.76 814.049 L1432.76 814.049  Z
  " fill="#009af9" fill-rule="evenodd" fill-opacity="1"/>
<polyline clip-path="url(#clip442)" style="stroke:#000000; stroke-width:4; stroke-opacity:1; fill:none" points="
  1432.76,814.049 1432.76,1445.72 1459.41,1445.72 1459.41,814.049 1432.76,814.049 
  "/>
<path clip-path="url(#clip442)" d="
M1459.41 1243.17 L1459.41 1445.72 L1486.07 1445.72 L1486.07 1243.17 L1459.41 1243.17 L1459.41 1243.17  Z
  " fill="#009af9" fill-rule="evenodd" fill-opacity="1"/>
<polyline clip-path="url(#clip442)" style="stroke:#000000; stroke-width:4; stroke-opacity:1; fill:none" points="
  1459.41,1243.17 1459.41,1445.72 1486.07,1445.72 1486.07,1243.17 1459.41,1243.17 
  "/>
<path clip-path="url(#clip442)" d="
M1486.07 1289.52 L1486.07 1445.72 L1512.73 1445.72 L1512.73 1289.52 L1486.07 1289.52 L1486.07 1289.52  Z
  " fill="#009af9" fill-rule="evenodd" fill-opacity="1"/>
<polyline clip-path="url(#clip442)" style="stroke:#000000; stroke-width:4; stroke-opacity:1; fill:none" points="
  1486.07,1289.52 1486.07,1445.72 1512.73,1445.72 1512.73,1289.52 1486.07,1289.52 
  "/>
<path clip-path="url(#clip442)" d="
M1512.73 1332.43 L1512.73 1445.72 L1539.39 1445.72 L1539.39 1332.43 L1512.73 1332.43 L1512.73 1332.43  Z
  " fill="#009af9" fill-rule="evenodd" fill-opacity="1"/>
<polyline clip-path="url(#clip442)" style="stroke:#000000; stroke-width:4; stroke-opacity:1; fill:none" points="
  1512.73,1332.43 1512.73,1445.72 1539.39,1445.72 1539.39,1332.43 1512.73,1332.43 
  "/>
<path clip-path="url(#clip442)" d="
M1539.39 1330.71 L1539.39 1445.72 L1566.05 1445.72 L1566.05 1330.71 L1539.39 1330.71 L1539.39 1330.71  Z
  " fill="#009af9" fill-rule="evenodd" fill-opacity="1"/>
<polyline clip-path="url(#clip442)" style="stroke:#000000; stroke-width:4; stroke-opacity:1; fill:none" points="
  1539.39,1330.71 1539.39,1445.72 1566.05,1445.72 1566.05,1330.71 1539.39,1330.71 
  "/>
<path clip-path="url(#clip442)" d="
M1566.05 1344.44 L1566.05 1445.72 L1592.7 1445.72 L1592.7 1344.44 L1566.05 1344.44 L1566.05 1344.44  Z
  " fill="#009af9" fill-rule="evenodd" fill-opacity="1"/>
<polyline clip-path="url(#clip442)" style="stroke:#000000; stroke-width:4; stroke-opacity:1; fill:none" points="
  1566.05,1344.44 1566.05,1445.72 1592.7,1445.72 1592.7,1344.44 1566.05,1344.44 
  "/>
<path clip-path="url(#clip442)" d="
M1592.7 1353.03 L1592.7 1445.72 L1619.36 1445.72 L1619.36 1353.03 L1592.7 1353.03 L1592.7 1353.03  Z
  " fill="#009af9" fill-rule="evenodd" fill-opacity="1"/>
<polyline clip-path="url(#clip442)" style="stroke:#000000; stroke-width:4; stroke-opacity:1; fill:none" points="
  1592.7,1353.03 1592.7,1445.72 1619.36,1445.72 1619.36,1353.03 1592.7,1353.03 
  "/>
<path clip-path="url(#clip442)" d="
M1619.36 1351.31 L1619.36 1445.72 L1646.02 1445.72 L1646.02 1351.31 L1619.36 1351.31 L1619.36 1351.31  Z
  " fill="#009af9" fill-rule="evenodd" fill-opacity="1"/>
<polyline clip-path="url(#clip442)" style="stroke:#000000; stroke-width:4; stroke-opacity:1; fill:none" points="
  1619.36,1351.31 1619.36,1445.72 1646.02,1445.72 1646.02,1351.31 1619.36,1351.31 
  "/>
<path clip-path="url(#clip442)" d="
M1646.02 1389.07 L1646.02 1445.72 L1672.68 1445.72 L1672.68 1389.07 L1646.02 1389.07 L1646.02 1389.07  Z
  " fill="#009af9" fill-rule="evenodd" fill-opacity="1"/>
<polyline clip-path="url(#clip442)" style="stroke:#000000; stroke-width:4; stroke-opacity:1; fill:none" points="
  1646.02,1389.07 1646.02,1445.72 1672.68,1445.72 1672.68,1389.07 1646.02,1389.07 
  "/>
<path clip-path="url(#clip442)" d="
M1672.68 1383.92 L1672.68 1445.72 L1699.33 1445.72 L1699.33 1383.92 L1672.68 1383.92 L1672.68 1383.92  Z
  " fill="#009af9" fill-rule="evenodd" fill-opacity="1"/>
<polyline clip-path="url(#clip442)" style="stroke:#000000; stroke-width:4; stroke-opacity:1; fill:none" points="
  1672.68,1383.92 1672.68,1445.72 1699.33,1445.72 1699.33,1383.92 1672.68,1383.92 
  "/>
<path clip-path="url(#clip442)" d="
M1699.33 1413.1 L1699.33 1445.72 L1725.99 1445.72 L1725.99 1413.1 L1699.33 1413.1 L1699.33 1413.1  Z
  " fill="#009af9" fill-rule="evenodd" fill-opacity="1"/>
<polyline clip-path="url(#clip442)" style="stroke:#000000; stroke-width:4; stroke-opacity:1; fill:none" points="
  1699.33,1413.1 1699.33,1445.72 1725.99,1445.72 1725.99,1413.1 1699.33,1413.1 
  "/>
<path clip-path="url(#clip442)" d="
M1725.99 1394.22 L1725.99 1445.72 L1752.65 1445.72 L1752.65 1394.22 L1725.99 1394.22 L1725.99 1394.22  Z
  " fill="#009af9" fill-rule="evenodd" fill-opacity="1"/>
<polyline clip-path="url(#clip442)" style="stroke:#000000; stroke-width:4; stroke-opacity:1; fill:none" points="
  1725.99,1394.22 1725.99,1445.72 1752.65,1445.72 1752.65,1394.22 1725.99,1394.22 
  "/>
<path clip-path="url(#clip442)" d="
M1752.65 1406.24 L1752.65 1445.72 L1779.31 1445.72 L1779.31 1406.24 L1752.65 1406.24 L1752.65 1406.24  Z
  " fill="#009af9" fill-rule="evenodd" fill-opacity="1"/>
<polyline clip-path="url(#clip442)" style="stroke:#000000; stroke-width:4; stroke-opacity:1; fill:none" points="
  1752.65,1406.24 1752.65,1445.72 1779.31,1445.72 1779.31,1406.24 1752.65,1406.24 
  "/>
<path clip-path="url(#clip442)" d="
M1779.31 1416.54 L1779.31 1445.72 L1805.97 1445.72 L1805.97 1416.54 L1779.31 1416.54 L1779.31 1416.54  Z
  " fill="#009af9" fill-rule="evenodd" fill-opacity="1"/>
<polyline clip-path="url(#clip442)" style="stroke:#000000; stroke-width:4; stroke-opacity:1; fill:none" points="
  1779.31,1416.54 1779.31,1445.72 1805.97,1445.72 1805.97,1416.54 1779.31,1416.54 
  "/>
<path clip-path="url(#clip442)" d="
M1805.97 1425.12 L1805.97 1445.72 L1832.62 1445.72 L1832.62 1425.12 L1805.97 1425.12 L1805.97 1425.12  Z
  " fill="#009af9" fill-rule="evenodd" fill-opacity="1"/>
<polyline clip-path="url(#clip442)" style="stroke:#000000; stroke-width:4; stroke-opacity:1; fill:none" points="
  1805.97,1425.12 1805.97,1445.72 1832.62,1445.72 1832.62,1425.12 1805.97,1425.12 
  "/>
<path clip-path="url(#clip442)" d="
M1832.62 1421.68 L1832.62 1445.72 L1859.28 1445.72 L1859.28 1421.68 L1832.62 1421.68 L1832.62 1421.68  Z
  " fill="#009af9" fill-rule="evenodd" fill-opacity="1"/>
<polyline clip-path="url(#clip442)" style="stroke:#000000; stroke-width:4; stroke-opacity:1; fill:none" points="
  1832.62,1421.68 1832.62,1445.72 1859.28,1445.72 1859.28,1421.68 1832.62,1421.68 
  "/>
<path clip-path="url(#clip442)" d="
M1859.28 1425.12 L1859.28 1445.72 L1885.94 1445.72 L1885.94 1425.12 L1859.28 1425.12 L1859.28 1425.12  Z
  " fill="#009af9" fill-rule="evenodd" fill-opacity="1"/>
<polyline clip-path="url(#clip442)" style="stroke:#000000; stroke-width:4; stroke-opacity:1; fill:none" points="
  1859.28,1425.12 1859.28,1445.72 1885.94,1445.72 1885.94,1425.12 1859.28,1425.12 
  "/>
<path clip-path="url(#clip442)" d="
M1885.94 1437.13 L1885.94 1445.72 L1912.6 1445.72 L1912.6 1437.13 L1885.94 1437.13 L1885.94 1437.13  Z
  " fill="#009af9" fill-rule="evenodd" fill-opacity="1"/>
<polyline clip-path="url(#clip442)" style="stroke:#000000; stroke-width:4; stroke-opacity:1; fill:none" points="
  1885.94,1437.13 1885.94,1445.72 1912.6,1445.72 1912.6,1437.13 1885.94,1437.13 
  "/>
<path clip-path="url(#clip442)" d="
M1912.6 1428.55 L1912.6 1445.72 L1939.26 1445.72 L1939.26 1428.55 L1912.6 1428.55 L1912.6 1428.55  Z
  " fill="#009af9" fill-rule="evenodd" fill-opacity="1"/>
<polyline clip-path="url(#clip442)" style="stroke:#000000; stroke-width:4; stroke-opacity:1; fill:none" points="
  1912.6,1428.55 1912.6,1445.72 1939.26,1445.72 1939.26,1428.55 1912.6,1428.55 
  "/>
<path clip-path="url(#clip442)" d="
M1939.26 1430.27 L1939.26 1445.72 L1965.91 1445.72 L1965.91 1430.27 L1939.26 1430.27 L1939.26 1430.27  Z
  " fill="#009af9" fill-rule="evenodd" fill-opacity="1"/>
<polyline clip-path="url(#clip442)" style="stroke:#000000; stroke-width:4; stroke-opacity:1; fill:none" points="
  1939.26,1430.27 1939.26,1445.72 1965.91,1445.72 1965.91,1430.27 1939.26,1430.27 
  "/>
<path clip-path="url(#clip442)" d="
M1965.91 1438.85 L1965.91 1445.72 L1992.57 1445.72 L1992.57 1438.85 L1965.91 1438.85 L1965.91 1438.85  Z
  " fill="#009af9" fill-rule="evenodd" fill-opacity="1"/>
<polyline clip-path="url(#clip442)" style="stroke:#000000; stroke-width:4; stroke-opacity:1; fill:none" points="
  1965.91,1438.85 1965.91,1445.72 1992.57,1445.72 1992.57,1438.85 1965.91,1438.85 
  "/>
<path clip-path="url(#clip442)" d="
M1992.57 1438.85 L1992.57 1445.72 L2019.23 1445.72 L2019.23 1438.85 L1992.57 1438.85 L1992.57 1438.85  Z
  " fill="#009af9" fill-rule="evenodd" fill-opacity="1"/>
<polyline clip-path="url(#clip442)" style="stroke:#000000; stroke-width:4; stroke-opacity:1; fill:none" points="
  1992.57,1438.85 1992.57,1445.72 2019.23,1445.72 2019.23,1438.85 1992.57,1438.85 
  "/>
<path clip-path="url(#clip442)" d="
M2019.23 1442.28 L2019.23 1445.72 L2045.89 1445.72 L2045.89 1442.28 L2019.23 1442.28 L2019.23 1442.28  Z
  " fill="#009af9" fill-rule="evenodd" fill-opacity="1"/>
<polyline clip-path="url(#clip442)" style="stroke:#000000; stroke-width:4; stroke-opacity:1; fill:none" points="
  2019.23,1442.28 2019.23,1445.72 2045.89,1445.72 2045.89,1442.28 2019.23,1442.28 
  "/>
<path clip-path="url(#clip442)" d="
M2045.89 1437.13 L2045.89 1445.72 L2072.54 1445.72 L2072.54 1437.13 L2045.89 1437.13 L2045.89 1437.13  Z
  " fill="#009af9" fill-rule="evenodd" fill-opacity="1"/>
<polyline clip-path="url(#clip442)" style="stroke:#000000; stroke-width:4; stroke-opacity:1; fill:none" points="
  2045.89,1437.13 2045.89,1445.72 2072.54,1445.72 2072.54,1437.13 2045.89,1437.13 
  "/>
<path clip-path="url(#clip442)" d="
M2072.54 1444 L2072.54 1445.72 L2099.2 1445.72 L2099.2 1444 L2072.54 1444 L2072.54 1444  Z
  " fill="#009af9" fill-rule="evenodd" fill-opacity="1"/>
<polyline clip-path="url(#clip442)" style="stroke:#000000; stroke-width:4; stroke-opacity:1; fill:none" points="
  2072.54,1444 2072.54,1445.72 2099.2,1445.72 2099.2,1444 2072.54,1444 
  "/>
<path clip-path="url(#clip442)" d="
M2099.2 1445.72 L2099.2 1445.72 L2125.86 1445.72 L2125.86 1445.72 L2099.2 1445.72 L2099.2 1445.72  Z
  " fill="#009af9" fill-rule="evenodd" fill-opacity="1"/>
<polyline clip-path="url(#clip442)" style="stroke:#000000; stroke-width:4; stroke-opacity:1; fill:none" points="
  2099.2,1445.72 2099.2,1445.72 2125.86,1445.72 2099.2,1445.72 
  "/>
<path clip-path="url(#clip442)" d="
M2125.86 1442.28 L2125.86 1445.72 L2152.52 1445.72 L2152.52 1442.28 L2125.86 1442.28 L2125.86 1442.28  Z
  " fill="#009af9" fill-rule="evenodd" fill-opacity="1"/>
<polyline clip-path="url(#clip442)" style="stroke:#000000; stroke-width:4; stroke-opacity:1; fill:none" points="
  2125.86,1442.28 2125.86,1445.72 2152.52,1445.72 2152.52,1442.28 2125.86,1442.28 
  "/>
<path clip-path="url(#clip442)" d="
M2152.52 1445.72 L2152.52 1445.72 L2179.18 1445.72 L2179.18 1445.72 L2152.52 1445.72 L2152.52 1445.72  Z
  " fill="#009af9" fill-rule="evenodd" fill-opacity="1"/>
<polyline clip-path="url(#clip442)" style="stroke:#000000; stroke-width:4; stroke-opacity:1; fill:none" points="
  2152.52,1445.72 2152.52,1445.72 2179.18,1445.72 2152.52,1445.72 
  "/>
<path clip-path="url(#clip442)" d="
M2179.18 1444 L2179.18 1445.72 L2205.83 1445.72 L2205.83 1444 L2179.18 1444 L2179.18 1444  Z
  " fill="#009af9" fill-rule="evenodd" fill-opacity="1"/>
<polyline clip-path="url(#clip442)" style="stroke:#000000; stroke-width:4; stroke-opacity:1; fill:none" points="
  2179.18,1444 2179.18,1445.72 2205.83,1445.72 2205.83,1444 2179.18,1444 
  "/>
<path clip-path="url(#clip442)" d="
M2205.83 1444 L2205.83 1445.72 L2232.49 1445.72 L2232.49 1444 L2205.83 1444 L2205.83 1444  Z
  " fill="#009af9" fill-rule="evenodd" fill-opacity="1"/>
<polyline clip-path="url(#clip442)" style="stroke:#000000; stroke-width:4; stroke-opacity:1; fill:none" points="
  2205.83,1444 2205.83,1445.72 2232.49,1445.72 2232.49,1444 2205.83,1444 
  "/>
<path clip-path="url(#clip440)" d="
M1989.74 251.724 L2280.76 251.724 L2280.76 130.764 L1989.74 130.764  Z
  " fill="#ffffff" fill-rule="evenodd" fill-opacity="1"/>
<polyline clip-path="url(#clip440)" style="stroke:#000000; stroke-width:4; stroke-opacity:1; fill:none" points="
  1989.74,251.724 2280.76,251.724 2280.76,130.764 1989.74,130.764 1989.74,251.724 
  "/>
<path clip-path="url(#clip440)" d="
M2013.74 215.436 L2157.74 215.436 L2157.74 167.052 L2013.74 167.052 L2013.74 215.436  Z
  " fill="#009af9" fill-rule="evenodd" fill-opacity="1"/>
<polyline clip-path="url(#clip440)" style="stroke:#000000; stroke-width:4; stroke-opacity:1; fill:none" points="
  2013.74,215.436 2157.74,215.436 2157.74,167.052 2013.74,167.052 2013.74,215.436 
  "/>
<path clip-path="url(#clip440)" d="M 0 0 M2195.58 210.931 Q2193.77 215.561 2192.06 216.973 Q2190.35 218.385 2187.48 218.385 L2184.08 218.385 L2184.08 214.82 L2186.58 214.82 Q2188.33 214.82 2189.31 213.987 Q2190.28 213.154 2191.46 210.052 L2192.22 208.107 L2181.74 182.598 L2186.25 182.598 L2194.35 202.876 L2202.46 182.598 L2206.97 182.598 L2195.58 210.931 Z" fill="#000000" fill-rule="evenodd" fill-opacity="1" /><path clip-path="url(#clip440)" d="M 0 0 M2212.85 204.589 L2220.49 204.589 L2220.49 178.223 L2212.18 179.89 L2212.18 175.631 L2220.44 173.964 L2225.12 173.964 L2225.12 204.589 L2232.76 204.589 L2232.76 208.524 L2212.85 208.524 L2212.85 204.589 Z" fill="#000000" fill-rule="evenodd" fill-opacity="1" /></svg>
