<?xml version="1.0" encoding="utf-8"?>
<svg xmlns="http://www.w3.org/2000/svg" xmlns:xlink="http://www.w3.org/1999/xlink" width="600" height="400" viewBox="0 0 2400 1600">
<defs>
  <clipPath id="clip350">
    <rect x="0" y="0" width="2400" height="1600"/>
  </clipPath>
</defs>
<path clip-path="url(#clip350)" d="
M0 1600 L2400 1600 L2400 0 L0 0  Z
  " fill="#ffffff" fill-rule="evenodd" fill-opacity="1"/>
<defs>
  <clipPath id="clip351">
    <rect x="480" y="0" width="1681" height="1600"/>
  </clipPath>
</defs>
<path clip-path="url(#clip350)" d="
M166.205 1486.45 L2352.76 1486.45 L2352.76 47.2441 L166.205 47.2441  Z
  " fill="#ffffff" fill-rule="evenodd" fill-opacity="1"/>
<defs>
  <clipPath id="clip352">
    <rect x="166" y="47" width="2188" height="1440"/>
  </clipPath>
</defs>
<polyline clip-path="url(#clip352)" style="stroke:#000000; stroke-width:2; stroke-opacity:0.1; fill:none" points="
  421.609,1486.45 421.609,47.2441 
  "/>
<polyline clip-path="url(#clip352)" style="stroke:#000000; stroke-width:2; stroke-opacity:0.1; fill:none" points="
  827.031,1486.45 827.031,47.2441 
  "/>
<polyline clip-path="url(#clip352)" style="stroke:#000000; stroke-width:2; stroke-opacity:0.1; fill:none" points="
  1232.45,1486.45 1232.45,47.2441 
  "/>
<polyline clip-path="url(#clip352)" style="stroke:#000000; stroke-width:2; stroke-opacity:0.1; fill:none" points="
  1637.87,1486.45 1637.87,47.2441 
  "/>
<polyline clip-path="url(#clip352)" style="stroke:#000000; stroke-width:2; stroke-opacity:0.1; fill:none" points="
  2043.3,1486.45 2043.3,47.2441 
  "/>
<polyline clip-path="url(#clip352)" style="stroke:#000000; stroke-width:2; stroke-opacity:0.1; fill:none" points="
  166.205,1445.72 2352.76,1445.72 
  "/>
<polyline clip-path="url(#clip352)" style="stroke:#000000; stroke-width:2; stroke-opacity:0.1; fill:none" points="
  166.205,1129.59 2352.76,1129.59 
  "/>
<polyline clip-path="url(#clip352)" style="stroke:#000000; stroke-width:2; stroke-opacity:0.1; fill:none" points="
  166.205,813.474 2352.76,813.474 
  "/>
<polyline clip-path="url(#clip352)" style="stroke:#000000; stroke-width:2; stroke-opacity:0.1; fill:none" points="
  166.205,497.353 2352.76,497.353 
  "/>
<polyline clip-path="url(#clip352)" style="stroke:#000000; stroke-width:2; stroke-opacity:0.1; fill:none" points="
  166.205,181.232 2352.76,181.232 
  "/>
<polyline clip-path="url(#clip350)" style="stroke:#000000; stroke-width:4; stroke-opacity:1; fill:none" points="
  166.205,1486.45 2352.76,1486.45 
  "/>
<polyline clip-path="url(#clip350)" style="stroke:#000000; stroke-width:4; stroke-opacity:1; fill:none" points="
  166.205,1486.45 166.205,47.2441 
  "/>
<polyline clip-path="url(#clip350)" style="stroke:#000000; stroke-width:4; stroke-opacity:1; fill:none" points="
  421.609,1486.45 421.609,1469.18 
  "/>
<polyline clip-path="url(#clip350)" style="stroke:#000000; stroke-width:4; stroke-opacity:1; fill:none" points="
  827.031,1486.45 827.031,1469.18 
  "/>
<polyline clip-path="url(#clip350)" style="stroke:#000000; stroke-width:4; stroke-opacity:1; fill:none" points="
  1232.45,1486.45 1232.45,1469.18 
  "/>
<polyline clip-path="url(#clip350)" style="stroke:#000000; stroke-width:4; stroke-opacity:1; fill:none" points="
  1637.87,1486.45 1637.87,1469.18 
  "/>
<polyline clip-path="url(#clip350)" style="stroke:#000000; stroke-width:4; stroke-opacity:1; fill:none" points="
  2043.3,1486.45 2043.3,1469.18 
  "/>
<polyline clip-path="url(#clip350)" style="stroke:#000000; stroke-width:4; stroke-opacity:1; fill:none" points="
  166.205,1445.72 192.443,1445.72 
  "/>
<polyline clip-path="url(#clip350)" style="stroke:#000000; stroke-width:4; stroke-opacity:1; fill:none" points="
  166.205,1129.59 192.443,1129.59 
  "/>
<polyline clip-path="url(#clip350)" style="stroke:#000000; stroke-width:4; stroke-opacity:1; fill:none" points="
  166.205,813.474 192.443,813.474 
  "/>
<polyline clip-path="url(#clip350)" style="stroke:#000000; stroke-width:4; stroke-opacity:1; fill:none" points="
  166.205,497.353 192.443,497.353 
  "/>
<polyline clip-path="url(#clip350)" style="stroke:#000000; stroke-width:4; stroke-opacity:1; fill:none" points="
  166.205,181.232 192.443,181.232 
  "/>
<path clip-path="url(#clip350)" d="M 0 0 M401.783 1525.04 L414.26 1525.04 L414.26 1528.83 L401.783 1528.83 L401.783 1525.04 Z" fill="#000000" fill-rule="evenodd" fill-opacity="1" /><path clip-path="url(#clip350)" d="M 0 0 M429.908 1520.78 Q426.76 1520.78 424.908 1522.93 Q423.079 1525.08 423.079 1528.83 Q423.079 1532.56 424.908 1534.73 Q426.76 1536.89 429.908 1536.89 Q433.056 1536.89 434.885 1534.73 Q436.737 1532.56 436.737 1528.83 Q436.737 1525.08 434.885 1522.93 Q433.056 1520.78 429.908 1520.78 M439.19 1506.12 L439.19 1510.38 Q437.431 1509.55 435.625 1509.11 Q433.843 1508.67 432.084 1508.67 Q427.454 1508.67 425.001 1511.8 Q422.57 1514.92 422.223 1521.24 Q423.589 1519.23 425.649 1518.16 Q427.709 1517.07 430.186 1517.07 Q435.394 1517.07 438.403 1520.24 Q441.436 1523.39 441.436 1528.83 Q441.436 1534.16 438.287 1537.37 Q435.139 1540.59 429.908 1540.59 Q423.913 1540.59 420.741 1536.01 Q417.57 1531.4 417.57 1522.67 Q417.57 1514.48 421.459 1509.62 Q425.348 1504.73 431.899 1504.73 Q433.658 1504.73 435.44 1505.08 Q437.246 1505.43 439.19 1506.12 Z" fill="#000000" fill-rule="evenodd" fill-opacity="1" /><path clip-path="url(#clip350)" d="M 0 0 M807.61 1525.04 L820.086 1525.04 L820.086 1528.83 L807.61 1528.83 L807.61 1525.04 Z" fill="#000000" fill-rule="evenodd" fill-opacity="1" /><path clip-path="url(#clip350)" d="M 0 0 M839.322 1521.29 Q842.679 1522 844.554 1524.27 Q846.452 1526.54 846.452 1529.87 Q846.452 1534.99 842.933 1537.79 Q839.415 1540.59 832.934 1540.59 Q830.758 1540.59 828.443 1540.15 Q826.151 1539.73 823.697 1538.88 L823.697 1534.36 Q825.642 1535.5 827.957 1536.08 Q830.271 1536.66 832.795 1536.66 Q837.193 1536.66 839.484 1534.92 Q841.799 1533.18 841.799 1529.87 Q841.799 1526.82 839.646 1525.11 Q837.517 1523.37 833.697 1523.37 L829.67 1523.37 L829.67 1519.53 L833.883 1519.53 Q837.332 1519.53 839.16 1518.16 Q840.989 1516.77 840.989 1514.18 Q840.989 1511.52 839.091 1510.11 Q837.216 1508.67 833.697 1508.67 Q831.776 1508.67 829.577 1509.09 Q827.378 1509.5 824.739 1510.38 L824.739 1506.22 Q827.401 1505.48 829.716 1505.11 Q832.054 1504.73 834.114 1504.73 Q839.438 1504.73 842.54 1507.17 Q845.642 1509.57 845.642 1513.69 Q845.642 1516.56 843.998 1518.55 Q842.355 1520.52 839.322 1521.29 Z" fill="#000000" fill-rule="evenodd" fill-opacity="1" /><path clip-path="url(#clip350)" d="M 0 0 M1232.45 1508.44 Q1228.84 1508.44 1227.01 1512 Q1225.21 1515.55 1225.21 1522.67 Q1225.21 1529.78 1227.01 1533.35 Q1228.84 1536.89 1232.45 1536.89 Q1236.09 1536.89 1237.89 1533.35 Q1239.72 1529.78 1239.72 1522.67 Q1239.72 1515.55 1237.89 1512 Q1236.09 1508.44 1232.45 1508.44 M1232.45 1504.73 Q1238.26 1504.73 1241.32 1509.34 Q1244.4 1513.92 1244.4 1522.67 Q1244.4 1531.4 1241.32 1536.01 Q1238.26 1540.59 1232.45 1540.59 Q1226.64 1540.59 1223.56 1536.01 Q1220.51 1531.4 1220.51 1522.67 Q1220.51 1513.92 1223.56 1509.34 Q1226.64 1504.73 1232.45 1504.73 Z" fill="#000000" fill-rule="evenodd" fill-opacity="1" /><path clip-path="url(#clip350)" d="M 0 0 M1642.12 1521.29 Q1645.48 1522 1647.35 1524.27 Q1649.25 1526.54 1649.25 1529.87 Q1649.25 1534.99 1645.73 1537.79 Q1642.21 1540.59 1635.73 1540.59 Q1633.56 1540.59 1631.24 1540.15 Q1628.95 1539.73 1626.5 1538.88 L1626.5 1534.36 Q1628.44 1535.5 1630.76 1536.08 Q1633.07 1536.66 1635.59 1536.66 Q1639.99 1536.66 1642.28 1534.92 Q1644.6 1533.18 1644.6 1529.87 Q1644.6 1526.82 1642.45 1525.11 Q1640.32 1523.37 1636.5 1523.37 L1632.47 1523.37 L1632.47 1519.53 L1636.68 1519.53 Q1640.13 1519.53 1641.96 1518.16 Q1643.79 1516.77 1643.79 1514.18 Q1643.79 1511.52 1641.89 1510.11 Q1640.01 1508.67 1636.5 1508.67 Q1634.58 1508.67 1632.38 1509.09 Q1630.18 1509.5 1627.54 1510.38 L1627.54 1506.22 Q1630.2 1505.48 1632.51 1505.11 Q1634.85 1504.73 1636.91 1504.73 Q1642.24 1504.73 1645.34 1507.17 Q1648.44 1509.57 1648.44 1513.69 Q1648.44 1516.56 1646.8 1518.55 Q1645.15 1520.52 1642.12 1521.29 Z" fill="#000000" fill-rule="evenodd" fill-opacity="1" /><path clip-path="url(#clip350)" d="M 0 0 M2043.7 1520.78 Q2040.55 1520.78 2038.7 1522.93 Q2036.87 1525.08 2036.87 1528.83 Q2036.87 1532.56 2038.7 1534.73 Q2040.55 1536.89 2043.7 1536.89 Q2046.85 1536.89 2048.68 1534.73 Q2050.53 1532.56 2050.53 1528.83 Q2050.53 1525.08 2048.68 1522.93 Q2046.85 1520.78 2043.7 1520.78 M2052.98 1506.12 L2052.98 1510.38 Q2051.22 1509.55 2049.42 1509.11 Q2047.64 1508.67 2045.88 1508.67 Q2041.25 1508.67 2038.79 1511.8 Q2036.36 1514.92 2036.01 1521.24 Q2037.38 1519.23 2039.44 1518.16 Q2041.5 1517.07 2043.98 1517.07 Q2049.19 1517.07 2052.2 1520.24 Q2055.23 1523.39 2055.23 1528.83 Q2055.23 1534.16 2052.08 1537.37 Q2048.93 1540.59 2043.7 1540.59 Q2037.7 1540.59 2034.53 1536.01 Q2031.36 1531.4 2031.36 1522.67 Q2031.36 1514.48 2035.25 1509.62 Q2039.14 1504.73 2045.69 1504.73 Q2047.45 1504.73 2049.23 1505.08 Q2051.04 1505.43 2052.98 1506.12 Z" fill="#000000" fill-rule="evenodd" fill-opacity="1" /><path clip-path="url(#clip350)" d="M 0 0 M130.26 1431.51 Q126.649 1431.51 124.82 1435.08 Q123.015 1438.62 123.015 1445.75 Q123.015 1452.86 124.82 1456.42 Q126.649 1459.96 130.26 1459.96 Q133.895 1459.96 135.7 1456.42 Q137.529 1452.86 137.529 1445.75 Q137.529 1438.62 135.7 1435.08 Q133.895 1431.51 130.26 1431.51 M130.26 1427.81 Q136.07 1427.81 139.126 1432.42 Q142.205 1437 142.205 1445.75 Q142.205 1454.48 139.126 1459.08 Q136.07 1463.67 130.26 1463.67 Q124.45 1463.67 121.371 1459.08 Q118.316 1454.48 118.316 1445.75 Q118.316 1437 121.371 1432.42 Q124.45 1427.81 130.26 1427.81 Z" fill="#000000" fill-rule="evenodd" fill-opacity="1" /><path clip-path="url(#clip350)" d="M 0 0 M71.8578 1142.94 L88.1772 1142.94 L88.1772 1146.87 L66.2328 1146.87 L66.2328 1142.94 Q68.8949 1140.18 73.4782 1135.56 Q78.0846 1130.9 79.2652 1129.56 Q81.5105 1127.04 82.3902 1125.3 Q83.2929 1123.54 83.2929 1121.85 Q83.2929 1119.1 81.3485 1117.36 Q79.4272 1115.62 76.3254 1115.62 Q74.1263 1115.62 71.6726 1116.39 Q69.2421 1117.15 66.4643 1118.7 L66.4643 1113.98 Q69.2884 1112.85 71.7421 1112.27 Q74.1958 1111.69 76.2328 1111.69 Q81.6031 1111.69 84.7976 1114.37 Q87.992 1117.06 87.992 1121.55 Q87.992 1123.68 87.1818 1125.6 Q86.3948 1127.5 84.2883 1130.09 Q83.7096 1130.76 80.6078 1133.98 Q77.5059 1137.18 71.8578 1142.94 Z" fill="#000000" fill-rule="evenodd" fill-opacity="1" /><path clip-path="url(#clip350)" d="M 0 0 M103.247 1115.39 Q99.6354 1115.39 97.8068 1118.96 Q96.0012 1122.5 96.0012 1129.63 Q96.0012 1136.74 97.8068 1140.3 Q99.6354 1143.84 103.247 1143.84 Q106.881 1143.84 108.686 1140.3 Q110.515 1136.74 110.515 1129.63 Q110.515 1122.5 108.686 1118.96 Q106.881 1115.39 103.247 1115.39 M103.247 1111.69 Q109.057 1111.69 112.112 1116.3 Q115.191 1120.88 115.191 1129.63 Q115.191 1138.36 112.112 1142.96 Q109.057 1147.55 103.247 1147.55 Q97.4364 1147.55 94.3577 1142.96 Q91.3022 1138.36 91.3022 1129.63 Q91.3022 1120.88 94.3577 1116.3 Q97.4364 1111.69 103.247 1111.69 Z" fill="#000000" fill-rule="evenodd" fill-opacity="1" /><path clip-path="url(#clip350)" d="M 0 0 M130.26 1115.39 Q126.649 1115.39 124.82 1118.96 Q123.015 1122.5 123.015 1129.63 Q123.015 1136.74 124.82 1140.3 Q126.649 1143.84 130.26 1143.84 Q133.895 1143.84 135.7 1140.3 Q137.529 1136.74 137.529 1129.63 Q137.529 1122.5 135.7 1118.96 Q133.895 1115.39 130.26 1115.39 M130.26 1111.69 Q136.07 1111.69 139.126 1116.3 Q142.205 1120.88 142.205 1129.63 Q142.205 1138.36 139.126 1142.96 Q136.07 1147.55 130.26 1147.55 Q124.45 1147.55 121.371 1142.96 Q118.316 1138.36 118.316 1129.63 Q118.316 1120.88 121.371 1116.3 Q124.45 1111.69 130.26 1111.69 Z" fill="#000000" fill-rule="evenodd" fill-opacity="1" /><path clip-path="url(#clip350)" d="M 0 0 M78.5939 800.268 L66.7884 818.717 L78.5939 818.717 L78.5939 800.268 M77.367 796.194 L83.2466 796.194 L83.2466 818.717 L88.1772 818.717 L88.1772 822.606 L83.2466 822.606 L83.2466 830.754 L78.5939 830.754 L78.5939 822.606 L62.9921 822.606 L62.9921 818.092 L77.367 796.194 Z" fill="#000000" fill-rule="evenodd" fill-opacity="1" /><path clip-path="url(#clip350)" d="M 0 0 M103.247 799.273 Q99.6354 799.273 97.8068 802.837 Q96.0012 806.379 96.0012 813.509 Q96.0012 820.615 97.8068 824.18 Q99.6354 827.721 103.247 827.721 Q106.881 827.721 108.686 824.18 Q110.515 820.615 110.515 813.509 Q110.515 806.379 108.686 802.837 Q106.881 799.273 103.247 799.273 M103.247 795.569 Q109.057 795.569 112.112 800.175 Q115.191 804.759 115.191 813.509 Q115.191 822.235 112.112 826.842 Q109.057 831.425 103.247 831.425 Q97.4364 831.425 94.3577 826.842 Q91.3022 822.235 91.3022 813.509 Q91.3022 804.759 94.3577 800.175 Q97.4364 795.569 103.247 795.569 Z" fill="#000000" fill-rule="evenodd" fill-opacity="1" /><path clip-path="url(#clip350)" d="M 0 0 M130.26 799.273 Q126.649 799.273 124.82 802.837 Q123.015 806.379 123.015 813.509 Q123.015 820.615 124.82 824.18 Q126.649 827.721 130.26 827.721 Q133.895 827.721 135.7 824.18 Q137.529 820.615 137.529 813.509 Q137.529 806.379 135.7 802.837 Q133.895 799.273 130.26 799.273 M130.26 795.569 Q136.07 795.569 139.126 800.175 Q142.205 804.759 142.205 813.509 Q142.205 822.235 139.126 826.842 Q136.07 831.425 130.26 831.425 Q124.45 831.425 121.371 826.842 Q118.316 822.235 118.316 813.509 Q118.316 804.759 121.371 800.175 Q124.45 795.569 130.26 795.569 Z" fill="#000000" fill-rule="evenodd" fill-opacity="1" /><path clip-path="url(#clip350)" d="M 0 0 M76.6495 495.489 Q73.5013 495.489 71.6495 497.642 Q69.8208 499.795 69.8208 503.545 Q69.8208 507.272 71.6495 509.448 Q73.5013 511.6 76.6495 511.6 Q79.7976 511.6 81.6263 509.448 Q83.4781 507.272 83.4781 503.545 Q83.4781 499.795 81.6263 497.642 Q79.7976 495.489 76.6495 495.489 M85.9318 480.837 L85.9318 485.096 Q84.1726 484.263 82.367 483.823 Q80.5846 483.383 78.8254 483.383 Q74.1958 483.383 71.7421 486.508 Q69.3115 489.633 68.9643 495.952 Q70.33 493.939 72.3902 492.874 Q74.4504 491.786 76.9272 491.786 Q82.1355 491.786 85.1448 494.957 Q88.1772 498.105 88.1772 503.545 Q88.1772 508.869 85.029 512.087 Q81.8809 515.304 76.6495 515.304 Q70.6541 515.304 67.4828 510.721 Q64.3116 506.114 64.3116 497.388 Q64.3116 489.193 68.2004 484.332 Q72.0893 479.448 78.6402 479.448 Q80.3994 479.448 82.1818 479.795 Q83.9874 480.142 85.9318 480.837 Z" fill="#000000" fill-rule="evenodd" fill-opacity="1" /><path clip-path="url(#clip350)" d="M 0 0 M103.247 483.152 Q99.6354 483.152 97.8068 486.716 Q96.0012 490.258 96.0012 497.388 Q96.0012 504.494 97.8068 508.059 Q99.6354 511.6 103.247 511.6 Q106.881 511.6 108.686 508.059 Q110.515 504.494 110.515 497.388 Q110.515 490.258 108.686 486.716 Q106.881 483.152 103.247 483.152 M103.247 479.448 Q109.057 479.448 112.112 484.054 Q115.191 488.638 115.191 497.388 Q115.191 506.114 112.112 510.721 Q109.057 515.304 103.247 515.304 Q97.4364 515.304 94.3577 510.721 Q91.3022 506.114 91.3022 497.388 Q91.3022 488.638 94.3577 484.054 Q97.4364 479.448 103.247 479.448 Z" fill="#000000" fill-rule="evenodd" fill-opacity="1" /><path clip-path="url(#clip350)" d="M 0 0 M130.26 483.152 Q126.649 483.152 124.82 486.716 Q123.015 490.258 123.015 497.388 Q123.015 504.494 124.82 508.059 Q126.649 511.6 130.26 511.6 Q133.895 511.6 135.7 508.059 Q137.529 504.494 137.529 497.388 Q137.529 490.258 135.7 486.716 Q133.895 483.152 130.26 483.152 M130.26 479.448 Q136.07 479.448 139.126 484.054 Q142.205 488.638 142.205 497.388 Q142.205 506.114 139.126 510.721 Q136.07 515.304 130.26 515.304 Q124.45 515.304 121.371 510.721 Q118.316 506.114 118.316 497.388 Q118.316 488.638 121.371 484.054 Q124.45 479.448 130.26 479.448 Z" fill="#000000" fill-rule="evenodd" fill-opacity="1" /><path clip-path="url(#clip350)" d="M 0 0 M76.3254 182.1 Q72.9921 182.1 71.0708 183.882 Q69.1726 185.665 69.1726 188.79 Q69.1726 191.915 71.0708 193.697 Q72.9921 195.48 76.3254 195.48 Q79.6587 195.48 81.58 193.697 Q83.5013 191.892 83.5013 188.79 Q83.5013 185.665 81.58 183.882 Q79.6819 182.1 76.3254 182.1 M71.6495 180.109 Q68.6402 179.369 66.9504 177.308 Q65.2838 175.248 65.2838 172.285 Q65.2838 168.142 68.2236 165.734 Q71.1865 163.327 76.3254 163.327 Q81.4874 163.327 84.4272 165.734 Q87.367 168.142 87.367 172.285 Q87.367 175.248 85.6772 177.308 Q84.0105 179.369 81.0244 180.109 Q84.404 180.896 86.279 183.188 Q88.1772 185.48 88.1772 188.79 Q88.1772 193.813 85.0985 196.498 Q82.0429 199.183 76.3254 199.183 Q70.6078 199.183 67.5291 196.498 Q64.4736 193.813 64.4736 188.79 Q64.4736 185.48 66.3717 183.188 Q68.2699 180.896 71.6495 180.109 M69.9365 172.725 Q69.9365 175.41 71.6032 176.915 Q73.293 178.419 76.3254 178.419 Q79.3346 178.419 81.0244 176.915 Q82.7374 175.41 82.7374 172.725 Q82.7374 170.04 81.0244 168.535 Q79.3346 167.031 76.3254 167.031 Q73.293 167.031 71.6032 168.535 Q69.9365 170.04 69.9365 172.725 Z" fill="#000000" fill-rule="evenodd" fill-opacity="1" /><path clip-path="url(#clip350)" d="M 0 0 M103.247 167.031 Q99.6354 167.031 97.8068 170.595 Q96.0012 174.137 96.0012 181.267 Q96.0012 188.373 97.8068 191.938 Q99.6354 195.48 103.247 195.48 Q106.881 195.48 108.686 191.938 Q110.515 188.373 110.515 181.267 Q110.515 174.137 108.686 170.595 Q106.881 167.031 103.247 167.031 M103.247 163.327 Q109.057 163.327 112.112 167.933 Q115.191 172.517 115.191 181.267 Q115.191 189.993 112.112 194.6 Q109.057 199.183 103.247 199.183 Q97.4364 199.183 94.3577 194.6 Q91.3022 189.993 91.3022 181.267 Q91.3022 172.517 94.3577 167.933 Q97.4364 163.327 103.247 163.327 Z" fill="#000000" fill-rule="evenodd" fill-opacity="1" /><path clip-path="url(#clip350)" d="M 0 0 M130.26 167.031 Q126.649 167.031 124.82 170.595 Q123.015 174.137 123.015 181.267 Q123.015 188.373 124.82 191.938 Q126.649 195.48 130.26 195.48 Q133.895 195.48 135.7 191.938 Q137.529 188.373 137.529 181.267 Q137.529 174.137 135.7 170.595 Q133.895 167.031 130.26 167.031 M130.26 163.327 Q136.07 163.327 139.126 167.933 Q142.205 172.517 142.205 181.267 Q142.205 189.993 139.126 194.6 Q136.07 199.183 130.26 199.183 Q124.45 199.183 121.371 194.6 Q118.316 189.993 118.316 181.267 Q118.316 172.517 121.371 167.933 Q124.45 163.327 130.26 163.327 Z" fill="#000000" fill-rule="evenodd" fill-opacity="1" /><path clip-path="url(#clip352)" d="
M286.469 1444.14 L286.469 1445.72 L313.497 1445.72 L313.497 1444.14 L286.469 1444.14 L286.469 1444.14  Z
  " fill="#009af9" fill-rule="evenodd" fill-opacity="1"/>
<polyline clip-path="url(#clip352)" style="stroke:#000000; stroke-width:4; stroke-opacity:1; fill:none" points="
  286.469,1444.14 286.469,1445.72 313.497,1445.72 313.497,1444.14 286.469,1444.14 
  "/>
<path clip-path="url(#clip352)" d="
M313.497 1445.72 L313.497 1445.72 L340.525 1445.72 L340.525 1445.72 L313.497 1445.72 L313.497 1445.72  Z
  " fill="#009af9" fill-rule="evenodd" fill-opacity="1"/>
<polyline clip-path="url(#clip352)" style="stroke:#000000; stroke-width:4; stroke-opacity:1; fill:none" points="
  313.497,1445.72 313.497,1445.72 340.525,1445.72 313.497,1445.72 
  "/>
<path clip-path="url(#clip352)" d="
M340.525 1445.72 L340.525 1445.72 L367.553 1445.72 L367.553 1445.72 L340.525 1445.72 L340.525 1445.72  Z
  " fill="#009af9" fill-rule="evenodd" fill-opacity="1"/>
<polyline clip-path="url(#clip352)" style="stroke:#000000; stroke-width:4; stroke-opacity:1; fill:none" points="
  340.525,1445.72 340.525,1445.72 367.553,1445.72 340.525,1445.72 
  "/>
<path clip-path="url(#clip352)" d="
M367.553 1444.14 L367.553 1445.72 L394.581 1445.72 L394.581 1444.14 L367.553 1444.14 L367.553 1444.14  Z
  " fill="#009af9" fill-rule="evenodd" fill-opacity="1"/>
<polyline clip-path="url(#clip352)" style="stroke:#000000; stroke-width:4; stroke-opacity:1; fill:none" points="
  367.553,1444.14 367.553,1445.72 394.581,1445.72 394.581,1444.14 367.553,1444.14 
  "/>
<path clip-path="url(#clip352)" d="
M394.581 1445.72 L394.581 1445.72 L421.609 1445.72 L421.609 1445.72 L394.581 1445.72 L394.581 1445.72  Z
  " fill="#009af9" fill-rule="evenodd" fill-opacity="1"/>
<polyline clip-path="url(#clip352)" style="stroke:#000000; stroke-width:4; stroke-opacity:1; fill:none" points="
  394.581,1445.72 394.581,1445.72 421.609,1445.72 394.581,1445.72 
  "/>
<path clip-path="url(#clip352)" d="
M421.609 1442.55 L421.609 1445.72 L448.637 1445.72 L448.637 1442.55 L421.609 1442.55 L421.609 1442.55  Z
  " fill="#009af9" fill-rule="evenodd" fill-opacity="1"/>
<polyline clip-path="url(#clip352)" style="stroke:#000000; stroke-width:4; stroke-opacity:1; fill:none" points="
  421.609,1442.55 421.609,1445.72 448.637,1445.72 448.637,1442.55 421.609,1442.55 
  "/>
<path clip-path="url(#clip352)" d="
M448.637 1440.97 L448.637 1445.72 L475.666 1445.72 L475.666 1440.97 L448.637 1440.97 L448.637 1440.97  Z
  " fill="#009af9" fill-rule="evenodd" fill-opacity="1"/>
<polyline clip-path="url(#clip352)" style="stroke:#000000; stroke-width:4; stroke-opacity:1; fill:none" points="
  448.637,1440.97 448.637,1445.72 475.666,1445.72 475.666,1440.97 448.637,1440.97 
  "/>
<path clip-path="url(#clip352)" d="
M475.666 1439.39 L475.666 1445.72 L502.694 1445.72 L502.694 1439.39 L475.666 1439.39 L475.666 1439.39  Z
  " fill="#009af9" fill-rule="evenodd" fill-opacity="1"/>
<polyline clip-path="url(#clip352)" style="stroke:#000000; stroke-width:4; stroke-opacity:1; fill:none" points="
  475.666,1439.39 475.666,1445.72 502.694,1445.72 502.694,1439.39 475.666,1439.39 
  "/>
<path clip-path="url(#clip352)" d="
M502.694 1440.97 L502.694 1445.72 L529.722 1445.72 L529.722 1440.97 L502.694 1440.97 L502.694 1440.97  Z
  " fill="#009af9" fill-rule="evenodd" fill-opacity="1"/>
<polyline clip-path="url(#clip352)" style="stroke:#000000; stroke-width:4; stroke-opacity:1; fill:none" points="
  502.694,1440.97 502.694,1445.72 529.722,1445.72 529.722,1440.97 502.694,1440.97 
  "/>
<path clip-path="url(#clip352)" d="
M529.722 1434.65 L529.722 1445.72 L556.75 1445.72 L556.75 1434.65 L529.722 1434.65 L529.722 1434.65  Z
  " fill="#009af9" fill-rule="evenodd" fill-opacity="1"/>
<polyline clip-path="url(#clip352)" style="stroke:#000000; stroke-width:4; stroke-opacity:1; fill:none" points="
  529.722,1434.65 529.722,1445.72 556.75,1445.72 556.75,1434.65 529.722,1434.65 
  "/>
<path clip-path="url(#clip352)" d="
M556.75 1439.39 L556.75 1445.72 L583.778 1445.72 L583.778 1439.39 L556.75 1439.39 L556.75 1439.39  Z
  " fill="#009af9" fill-rule="evenodd" fill-opacity="1"/>
<polyline clip-path="url(#clip352)" style="stroke:#000000; stroke-width:4; stroke-opacity:1; fill:none" points="
  556.75,1439.39 556.75,1445.72 583.778,1445.72 583.778,1439.39 556.75,1439.39 
  "/>
<path clip-path="url(#clip352)" d="
M583.778 1439.39 L583.778 1445.72 L610.806 1445.72 L610.806 1439.39 L583.778 1439.39 L583.778 1439.39  Z
  " fill="#009af9" fill-rule="evenodd" fill-opacity="1"/>
<polyline clip-path="url(#clip352)" style="stroke:#000000; stroke-width:4; stroke-opacity:1; fill:none" points="
  583.778,1439.39 583.778,1445.72 610.806,1445.72 610.806,1439.39 583.778,1439.39 
  "/>
<path clip-path="url(#clip352)" d="
M610.806 1434.65 L610.806 1445.72 L637.834 1445.72 L637.834 1434.65 L610.806 1434.65 L610.806 1434.65  Z
  " fill="#009af9" fill-rule="evenodd" fill-opacity="1"/>
<polyline clip-path="url(#clip352)" style="stroke:#000000; stroke-width:4; stroke-opacity:1; fill:none" points="
  610.806,1434.65 610.806,1445.72 637.834,1445.72 637.834,1434.65 610.806,1434.65 
  "/>
<path clip-path="url(#clip352)" d="
M637.834 1428.33 L637.834 1445.72 L664.862 1445.72 L664.862 1428.33 L637.834 1428.33 L637.834 1428.33  Z
  " fill="#009af9" fill-rule="evenodd" fill-opacity="1"/>
<polyline clip-path="url(#clip352)" style="stroke:#000000; stroke-width:4; stroke-opacity:1; fill:none" points="
  637.834,1428.33 637.834,1445.72 664.862,1445.72 664.862,1428.33 637.834,1428.33 
  "/>
<path clip-path="url(#clip352)" d="
M664.862 1409.36 L664.862 1445.72 L691.89 1445.72 L691.89 1409.36 L664.862 1409.36 L664.862 1409.36  Z
  " fill="#009af9" fill-rule="evenodd" fill-opacity="1"/>
<polyline clip-path="url(#clip352)" style="stroke:#000000; stroke-width:4; stroke-opacity:1; fill:none" points="
  664.862,1409.36 664.862,1445.72 691.89,1445.72 691.89,1409.36 664.862,1409.36 
  "/>
<path clip-path="url(#clip352)" d="
M691.89 1418.85 L691.89 1445.72 L718.918 1445.72 L718.918 1418.85 L691.89 1418.85 L691.89 1418.85  Z
  " fill="#009af9" fill-rule="evenodd" fill-opacity="1"/>
<polyline clip-path="url(#clip352)" style="stroke:#000000; stroke-width:4; stroke-opacity:1; fill:none" points="
  691.89,1418.85 691.89,1445.72 718.918,1445.72 718.918,1418.85 691.89,1418.85 
  "/>
<path clip-path="url(#clip352)" d="
M718.918 1409.36 L718.918 1445.72 L745.946 1445.72 L745.946 1409.36 L718.918 1409.36 L718.918 1409.36  Z
  " fill="#009af9" fill-rule="evenodd" fill-opacity="1"/>
<polyline clip-path="url(#clip352)" style="stroke:#000000; stroke-width:4; stroke-opacity:1; fill:none" points="
  718.918,1409.36 718.918,1445.72 745.946,1445.72 745.946,1409.36 718.918,1409.36 
  "/>
<path clip-path="url(#clip352)" d="
M745.946 1393.56 L745.946 1445.72 L772.975 1445.72 L772.975 1393.56 L745.946 1393.56 L745.946 1393.56  Z
  " fill="#009af9" fill-rule="evenodd" fill-opacity="1"/>
<polyline clip-path="url(#clip352)" style="stroke:#000000; stroke-width:4; stroke-opacity:1; fill:none" points="
  745.946,1393.56 745.946,1445.72 772.975,1445.72 772.975,1393.56 745.946,1393.56 
  "/>
<path clip-path="url(#clip352)" d="
M772.975 1401.46 L772.975 1445.72 L800.003 1445.72 L800.003 1401.46 L772.975 1401.46 L772.975 1401.46  Z
  " fill="#009af9" fill-rule="evenodd" fill-opacity="1"/>
<polyline clip-path="url(#clip352)" style="stroke:#000000; stroke-width:4; stroke-opacity:1; fill:none" points="
  772.975,1401.46 772.975,1445.72 800.003,1445.72 800.003,1401.46 772.975,1401.46 
  "/>
<path clip-path="url(#clip352)" d="
M800.003 1390.39 L800.003 1445.72 L827.031 1445.72 L827.031 1390.39 L800.003 1390.39 L800.003 1390.39  Z
  " fill="#009af9" fill-rule="evenodd" fill-opacity="1"/>
<polyline clip-path="url(#clip352)" style="stroke:#000000; stroke-width:4; stroke-opacity:1; fill:none" points="
  800.003,1390.39 800.003,1445.72 827.031,1445.72 827.031,1390.39 800.003,1390.39 
  "/>
<path clip-path="url(#clip352)" d="
M827.031 1376.17 L827.031 1445.72 L854.059 1445.72 L854.059 1376.17 L827.031 1376.17 L827.031 1376.17  Z
  " fill="#009af9" fill-rule="evenodd" fill-opacity="1"/>
<polyline clip-path="url(#clip352)" style="stroke:#000000; stroke-width:4; stroke-opacity:1; fill:none" points="
  827.031,1376.17 827.031,1445.72 854.059,1445.72 854.059,1376.17 827.031,1376.17 
  "/>
<path clip-path="url(#clip352)" d="
M854.059 1382.49 L854.059 1445.72 L881.087 1445.72 L881.087 1382.49 L854.059 1382.49 L854.059 1382.49  Z
  " fill="#009af9" fill-rule="evenodd" fill-opacity="1"/>
<polyline clip-path="url(#clip352)" style="stroke:#000000; stroke-width:4; stroke-opacity:1; fill:none" points="
  854.059,1382.49 854.059,1445.72 881.087,1445.72 881.087,1382.49 854.059,1382.49 
  "/>
<path clip-path="url(#clip352)" d="
M881.087 1371.43 L881.087 1445.72 L908.115 1445.72 L908.115 1371.43 L881.087 1371.43 L881.087 1371.43  Z
  " fill="#009af9" fill-rule="evenodd" fill-opacity="1"/>
<polyline clip-path="url(#clip352)" style="stroke:#000000; stroke-width:4; stroke-opacity:1; fill:none" points="
  881.087,1371.43 881.087,1445.72 908.115,1445.72 908.115,1371.43 881.087,1371.43 
  "/>
<path clip-path="url(#clip352)" d="
M908.115 1336.65 L908.115 1445.72 L935.143 1445.72 L935.143 1336.65 L908.115 1336.65 L908.115 1336.65  Z
  " fill="#009af9" fill-rule="evenodd" fill-opacity="1"/>
<polyline clip-path="url(#clip352)" style="stroke:#000000; stroke-width:4; stroke-opacity:1; fill:none" points="
  908.115,1336.65 908.115,1445.72 935.143,1445.72 935.143,1336.65 908.115,1336.65 
  "/>
<path clip-path="url(#clip352)" d="
M935.143 1322.43 L935.143 1445.72 L962.171 1445.72 L962.171 1322.43 L935.143 1322.43 L935.143 1322.43  Z
  " fill="#009af9" fill-rule="evenodd" fill-opacity="1"/>
<polyline clip-path="url(#clip352)" style="stroke:#000000; stroke-width:4; stroke-opacity:1; fill:none" points="
  935.143,1322.43 935.143,1445.72 962.171,1445.72 962.171,1322.43 935.143,1322.43 
  "/>
<path clip-path="url(#clip352)" d="
M962.171 1324.01 L962.171 1445.72 L989.199 1445.72 L989.199 1324.01 L962.171 1324.01 L962.171 1324.01  Z
  " fill="#009af9" fill-rule="evenodd" fill-opacity="1"/>
<polyline clip-path="url(#clip352)" style="stroke:#000000; stroke-width:4; stroke-opacity:1; fill:none" points="
  962.171,1324.01 962.171,1445.72 989.199,1445.72 989.199,1324.01 962.171,1324.01 
  "/>
<path clip-path="url(#clip352)" d="
M989.199 1303.46 L989.199 1445.72 L1016.23 1445.72 L1016.23 1303.46 L989.199 1303.46 L989.199 1303.46  Z
  " fill="#009af9" fill-rule="evenodd" fill-opacity="1"/>
<polyline clip-path="url(#clip352)" style="stroke:#000000; stroke-width:4; stroke-opacity:1; fill:none" points="
  989.199,1303.46 989.199,1445.72 1016.23,1445.72 1016.23,1303.46 989.199,1303.46 
  "/>
<path clip-path="url(#clip352)" d="
M1016.23 1324.01 L1016.23 1445.72 L1043.26 1445.72 L1043.26 1324.01 L1016.23 1324.01 L1016.23 1324.01  Z
  " fill="#009af9" fill-rule="evenodd" fill-opacity="1"/>
<polyline clip-path="url(#clip352)" style="stroke:#000000; stroke-width:4; stroke-opacity:1; fill:none" points="
  1016.23,1324.01 1016.23,1445.72 1043.26,1445.72 1043.26,1324.01 1016.23,1324.01 
  "/>
<path clip-path="url(#clip352)" d="
M1043.26 1300.3 L1043.26 1445.72 L1070.28 1445.72 L1070.28 1300.3 L1043.26 1300.3 L1043.26 1300.3  Z
  " fill="#009af9" fill-rule="evenodd" fill-opacity="1"/>
<polyline clip-path="url(#clip352)" style="stroke:#000000; stroke-width:4; stroke-opacity:1; fill:none" points="
  1043.26,1300.3 1043.26,1445.72 1070.28,1445.72 1070.28,1300.3 1043.26,1300.3 
  "/>
<path clip-path="url(#clip352)" d="
M1070.28 1300.3 L1070.28 1445.72 L1097.31 1445.72 L1097.31 1300.3 L1070.28 1300.3 L1070.28 1300.3  Z
  " fill="#009af9" fill-rule="evenodd" fill-opacity="1"/>
<polyline clip-path="url(#clip352)" style="stroke:#000000; stroke-width:4; stroke-opacity:1; fill:none" points="
  1070.28,1300.3 1070.28,1445.72 1097.31,1445.72 1097.31,1300.3 1070.28,1300.3 
  "/>
<path clip-path="url(#clip352)" d="
M1097.31 1298.72 L1097.31 1445.72 L1124.34 1445.72 L1124.34 1298.72 L1097.31 1298.72 L1097.31 1298.72  Z
  " fill="#009af9" fill-rule="evenodd" fill-opacity="1"/>
<polyline clip-path="url(#clip352)" style="stroke:#000000; stroke-width:4; stroke-opacity:1; fill:none" points="
  1097.31,1298.72 1097.31,1445.72 1124.34,1445.72 1124.34,1298.72 1097.31,1298.72 
  "/>
<path clip-path="url(#clip352)" d="
M1124.34 1300.3 L1124.34 1445.72 L1151.37 1445.72 L1151.37 1300.3 L1124.34 1300.3 L1124.34 1300.3  Z
  " fill="#009af9" fill-rule="evenodd" fill-opacity="1"/>
<polyline clip-path="url(#clip352)" style="stroke:#000000; stroke-width:4; stroke-opacity:1; fill:none" points="
  1124.34,1300.3 1124.34,1445.72 1151.37,1445.72 1151.37,1300.3 1124.34,1300.3 
  "/>
<path clip-path="url(#clip352)" d="
M1151.37 1237.08 L1151.37 1445.72 L1178.4 1445.72 L1178.4 1237.08 L1151.37 1237.08 L1151.37 1237.08  Z
  " fill="#009af9" fill-rule="evenodd" fill-opacity="1"/>
<polyline clip-path="url(#clip352)" style="stroke:#000000; stroke-width:4; stroke-opacity:1; fill:none" points="
  1151.37,1237.08 1151.37,1445.72 1178.4,1445.72 1178.4,1237.08 1151.37,1237.08 
  "/>
<path clip-path="url(#clip352)" d="
M1178.4 1243.4 L1178.4 1445.72 L1205.42 1445.72 L1205.42 1243.4 L1178.4 1243.4 L1178.4 1243.4  Z
  " fill="#009af9" fill-rule="evenodd" fill-opacity="1"/>
<polyline clip-path="url(#clip352)" style="stroke:#000000; stroke-width:4; stroke-opacity:1; fill:none" points="
  1178.4,1243.4 1178.4,1445.72 1205.42,1445.72 1205.42,1243.4 1178.4,1243.4 
  "/>
<path clip-path="url(#clip352)" d="
M1205.42 1252.88 L1205.42 1445.72 L1232.45 1445.72 L1232.45 1252.88 L1205.42 1252.88 L1205.42 1252.88  Z
  " fill="#009af9" fill-rule="evenodd" fill-opacity="1"/>
<polyline clip-path="url(#clip352)" style="stroke:#000000; stroke-width:4; stroke-opacity:1; fill:none" points="
  1205.42,1252.88 1205.42,1445.72 1232.45,1445.72 1232.45,1252.88 1205.42,1252.88 
  "/>
<path clip-path="url(#clip352)" d="
M1232.45 1256.04 L1232.45 1445.72 L1259.48 1445.72 L1259.48 1256.04 L1232.45 1256.04 L1232.45 1256.04  Z
  " fill="#009af9" fill-rule="evenodd" fill-opacity="1"/>
<polyline clip-path="url(#clip352)" style="stroke:#000000; stroke-width:4; stroke-opacity:1; fill:none" points="
  1232.45,1256.04 1232.45,1445.72 1259.48,1445.72 1259.48,1256.04 1232.45,1256.04 
  "/>
<path clip-path="url(#clip352)" d="
M1259.48 1263.95 L1259.48 1445.72 L1286.51 1445.72 L1286.51 1263.95 L1259.48 1263.95 L1259.48 1263.95  Z
  " fill="#009af9" fill-rule="evenodd" fill-opacity="1"/>
<polyline clip-path="url(#clip352)" style="stroke:#000000; stroke-width:4; stroke-opacity:1; fill:none" points="
  1259.48,1263.95 1259.48,1445.72 1286.51,1445.72 1286.51,1263.95 1259.48,1263.95 
  "/>
<path clip-path="url(#clip352)" d="
M1286.51 1240.24 L1286.51 1445.72 L1313.54 1445.72 L1313.54 1240.24 L1286.51 1240.24 L1286.51 1240.24  Z
  " fill="#009af9" fill-rule="evenodd" fill-opacity="1"/>
<polyline clip-path="url(#clip352)" style="stroke:#000000; stroke-width:4; stroke-opacity:1; fill:none" points="
  1286.51,1240.24 1286.51,1445.72 1313.54,1445.72 1313.54,1240.24 1286.51,1240.24 
  "/>
<path clip-path="url(#clip352)" d="
M1313.54 854.57 L1313.54 1445.72 L1340.56 1445.72 L1340.56 854.57 L1313.54 854.57 L1313.54 854.57  Z
  " fill="#009af9" fill-rule="evenodd" fill-opacity="1"/>
<polyline clip-path="url(#clip352)" style="stroke:#000000; stroke-width:4; stroke-opacity:1; fill:none" points="
  1313.54,854.57 1313.54,1445.72 1340.56,1445.72 1340.56,854.57 1313.54,854.57 
  "/>
<path clip-path="url(#clip352)" d="
M1340.56 87.9763 L1340.56 1445.72 L1367.59 1445.72 L1367.59 87.9763 L1340.56 87.9763 L1340.56 87.9763  Z
  " fill="#009af9" fill-rule="evenodd" fill-opacity="1"/>
<polyline clip-path="url(#clip352)" style="stroke:#000000; stroke-width:4; stroke-opacity:1; fill:none" points="
  1340.56,87.9763 1340.56,1445.72 1367.59,1445.72 1367.59,87.9763 1340.56,87.9763 
  "/>
<path clip-path="url(#clip352)" d="
M1367.59 184.393 L1367.59 1445.72 L1394.62 1445.72 L1394.62 184.393 L1367.59 184.393 L1367.59 184.393  Z
  " fill="#009af9" fill-rule="evenodd" fill-opacity="1"/>
<polyline clip-path="url(#clip352)" style="stroke:#000000; stroke-width:4; stroke-opacity:1; fill:none" points="
  1367.59,184.393 1367.59,1445.72 1394.62,1445.72 1394.62,184.393 1367.59,184.393 
  "/>
<path clip-path="url(#clip352)" d="
M1394.62 878.279 L1394.62 1445.72 L1421.65 1445.72 L1421.65 878.279 L1394.62 878.279 L1394.62 878.279  Z
  " fill="#009af9" fill-rule="evenodd" fill-opacity="1"/>
<polyline clip-path="url(#clip352)" style="stroke:#000000; stroke-width:4; stroke-opacity:1; fill:none" points="
  1394.62,878.279 1394.62,1445.72 1421.65,1445.72 1421.65,878.279 1394.62,878.279 
  "/>
<path clip-path="url(#clip352)" d="
M1421.65 1202.3 L1421.65 1445.72 L1448.68 1445.72 L1448.68 1202.3 L1421.65 1202.3 L1421.65 1202.3  Z
  " fill="#009af9" fill-rule="evenodd" fill-opacity="1"/>
<polyline clip-path="url(#clip352)" style="stroke:#000000; stroke-width:4; stroke-opacity:1; fill:none" points="
  1421.65,1202.3 1421.65,1445.72 1448.68,1445.72 1448.68,1202.3 1421.65,1202.3 
  "/>
<path clip-path="url(#clip352)" d="
M1448.68 1316.11 L1448.68 1445.72 L1475.71 1445.72 L1475.71 1316.11 L1448.68 1316.11 L1448.68 1316.11  Z
  " fill="#009af9" fill-rule="evenodd" fill-opacity="1"/>
<polyline clip-path="url(#clip352)" style="stroke:#000000; stroke-width:4; stroke-opacity:1; fill:none" points="
  1448.68,1316.11 1448.68,1445.72 1475.71,1445.72 1475.71,1316.11 1448.68,1316.11 
  "/>
<path clip-path="url(#clip352)" d="
M1475.71 1349.3 L1475.71 1445.72 L1502.73 1445.72 L1502.73 1349.3 L1475.71 1349.3 L1475.71 1349.3  Z
  " fill="#009af9" fill-rule="evenodd" fill-opacity="1"/>
<polyline clip-path="url(#clip352)" style="stroke:#000000; stroke-width:4; stroke-opacity:1; fill:none" points="
  1475.71,1349.3 1475.71,1445.72 1502.73,1445.72 1502.73,1349.3 1475.71,1349.3 
  "/>
<path clip-path="url(#clip352)" d="
M1502.73 1352.46 L1502.73 1445.72 L1529.76 1445.72 L1529.76 1352.46 L1502.73 1352.46 L1502.73 1352.46  Z
  " fill="#009af9" fill-rule="evenodd" fill-opacity="1"/>
<polyline clip-path="url(#clip352)" style="stroke:#000000; stroke-width:4; stroke-opacity:1; fill:none" points="
  1502.73,1352.46 1502.73,1445.72 1529.76,1445.72 1529.76,1352.46 1502.73,1352.46 
  "/>
<path clip-path="url(#clip352)" d="
M1529.76 1328.75 L1529.76 1445.72 L1556.79 1445.72 L1556.79 1328.75 L1529.76 1328.75 L1529.76 1328.75  Z
  " fill="#009af9" fill-rule="evenodd" fill-opacity="1"/>
<polyline clip-path="url(#clip352)" style="stroke:#000000; stroke-width:4; stroke-opacity:1; fill:none" points="
  1529.76,1328.75 1529.76,1445.72 1556.79,1445.72 1556.79,1328.75 1529.76,1328.75 
  "/>
<path clip-path="url(#clip352)" d="
M1556.79 1358.78 L1556.79 1445.72 L1583.82 1445.72 L1583.82 1358.78 L1556.79 1358.78 L1556.79 1358.78  Z
  " fill="#009af9" fill-rule="evenodd" fill-opacity="1"/>
<polyline clip-path="url(#clip352)" style="stroke:#000000; stroke-width:4; stroke-opacity:1; fill:none" points="
  1556.79,1358.78 1556.79,1445.72 1583.82,1445.72 1583.82,1358.78 1556.79,1358.78 
  "/>
<path clip-path="url(#clip352)" d="
M1583.82 1365.1 L1583.82 1445.72 L1610.85 1445.72 L1610.85 1365.1 L1583.82 1365.1 L1583.82 1365.1  Z
  " fill="#009af9" fill-rule="evenodd" fill-opacity="1"/>
<polyline clip-path="url(#clip352)" style="stroke:#000000; stroke-width:4; stroke-opacity:1; fill:none" points="
  1583.82,1365.1 1583.82,1445.72 1610.85,1445.72 1610.85,1365.1 1583.82,1365.1 
  "/>
<path clip-path="url(#clip352)" d="
M1610.85 1379.33 L1610.85 1445.72 L1637.87 1445.72 L1637.87 1379.33 L1610.85 1379.33 L1610.85 1379.33  Z
  " fill="#009af9" fill-rule="evenodd" fill-opacity="1"/>
<polyline clip-path="url(#clip352)" style="stroke:#000000; stroke-width:4; stroke-opacity:1; fill:none" points="
  1610.85,1379.33 1610.85,1445.72 1637.87,1445.72 1637.87,1379.33 1610.85,1379.33 
  "/>
<path clip-path="url(#clip352)" d="
M1637.87 1398.3 L1637.87 1445.72 L1664.9 1445.72 L1664.9 1398.3 L1637.87 1398.3 L1637.87 1398.3  Z
  " fill="#009af9" fill-rule="evenodd" fill-opacity="1"/>
<polyline clip-path="url(#clip352)" style="stroke:#000000; stroke-width:4; stroke-opacity:1; fill:none" points="
  1637.87,1398.3 1637.87,1445.72 1664.9,1445.72 1664.9,1398.3 1637.87,1398.3 
  "/>
<path clip-path="url(#clip352)" d="
M1664.9 1393.56 L1664.9 1445.72 L1691.93 1445.72 L1691.93 1393.56 L1664.9 1393.56 L1664.9 1393.56  Z
  " fill="#009af9" fill-rule="evenodd" fill-opacity="1"/>
<polyline clip-path="url(#clip352)" style="stroke:#000000; stroke-width:4; stroke-opacity:1; fill:none" points="
  1664.9,1393.56 1664.9,1445.72 1691.93,1445.72 1691.93,1393.56 1664.9,1393.56 
  "/>
<path clip-path="url(#clip352)" d="
M1691.93 1418.85 L1691.93 1445.72 L1718.96 1445.72 L1718.96 1418.85 L1691.93 1418.85 L1691.93 1418.85  Z
  " fill="#009af9" fill-rule="evenodd" fill-opacity="1"/>
<polyline clip-path="url(#clip352)" style="stroke:#000000; stroke-width:4; stroke-opacity:1; fill:none" points="
  1691.93,1418.85 1691.93,1445.72 1718.96,1445.72 1718.96,1418.85 1691.93,1418.85 
  "/>
<path clip-path="url(#clip352)" d="
M1718.96 1417.26 L1718.96 1445.72 L1745.99 1445.72 L1745.99 1417.26 L1718.96 1417.26 L1718.96 1417.26  Z
  " fill="#009af9" fill-rule="evenodd" fill-opacity="1"/>
<polyline clip-path="url(#clip352)" style="stroke:#000000; stroke-width:4; stroke-opacity:1; fill:none" points="
  1718.96,1417.26 1718.96,1445.72 1745.99,1445.72 1745.99,1417.26 1718.96,1417.26 
  "/>
<path clip-path="url(#clip352)" d="
M1745.99 1409.36 L1745.99 1445.72 L1773.01 1445.72 L1773.01 1409.36 L1745.99 1409.36 L1745.99 1409.36  Z
  " fill="#009af9" fill-rule="evenodd" fill-opacity="1"/>
<polyline clip-path="url(#clip352)" style="stroke:#000000; stroke-width:4; stroke-opacity:1; fill:none" points="
  1745.99,1409.36 1745.99,1445.72 1773.01,1445.72 1773.01,1409.36 1745.99,1409.36 
  "/>
<path clip-path="url(#clip352)" d="
M1773.01 1423.59 L1773.01 1445.72 L1800.04 1445.72 L1800.04 1423.59 L1773.01 1423.59 L1773.01 1423.59  Z
  " fill="#009af9" fill-rule="evenodd" fill-opacity="1"/>
<polyline clip-path="url(#clip352)" style="stroke:#000000; stroke-width:4; stroke-opacity:1; fill:none" points="
  1773.01,1423.59 1773.01,1445.72 1800.04,1445.72 1800.04,1423.59 1773.01,1423.59 
  "/>
<path clip-path="url(#clip352)" d="
M1800.04 1423.59 L1800.04 1445.72 L1827.07 1445.72 L1827.07 1423.59 L1800.04 1423.59 L1800.04 1423.59  Z
  " fill="#009af9" fill-rule="evenodd" fill-opacity="1"/>
<polyline clip-path="url(#clip352)" style="stroke:#000000; stroke-width:4; stroke-opacity:1; fill:none" points="
  1800.04,1423.59 1800.04,1445.72 1827.07,1445.72 1827.07,1423.59 1800.04,1423.59 
  "/>
<path clip-path="url(#clip352)" d="
M1827.07 1426.75 L1827.07 1445.72 L1854.1 1445.72 L1854.1 1426.75 L1827.07 1426.75 L1827.07 1426.75  Z
  " fill="#009af9" fill-rule="evenodd" fill-opacity="1"/>
<polyline clip-path="url(#clip352)" style="stroke:#000000; stroke-width:4; stroke-opacity:1; fill:none" points="
  1827.07,1426.75 1827.07,1445.72 1854.1,1445.72 1854.1,1426.75 1827.07,1426.75 
  "/>
<path clip-path="url(#clip352)" d="
M1854.1 1434.65 L1854.1 1445.72 L1881.13 1445.72 L1881.13 1434.65 L1854.1 1434.65 L1854.1 1434.65  Z
  " fill="#009af9" fill-rule="evenodd" fill-opacity="1"/>
<polyline clip-path="url(#clip352)" style="stroke:#000000; stroke-width:4; stroke-opacity:1; fill:none" points="
  1854.1,1434.65 1854.1,1445.72 1881.13,1445.72 1881.13,1434.65 1854.1,1434.65 
  "/>
<path clip-path="url(#clip352)" d="
M1881.13 1440.97 L1881.13 1445.72 L1908.15 1445.72 L1908.15 1440.97 L1881.13 1440.97 L1881.13 1440.97  Z
  " fill="#009af9" fill-rule="evenodd" fill-opacity="1"/>
<polyline clip-path="url(#clip352)" style="stroke:#000000; stroke-width:4; stroke-opacity:1; fill:none" points="
  1881.13,1440.97 1881.13,1445.72 1908.15,1445.72 1908.15,1440.97 1881.13,1440.97 
  "/>
<path clip-path="url(#clip352)" d="
M1908.15 1433.07 L1908.15 1445.72 L1935.18 1445.72 L1935.18 1433.07 L1908.15 1433.07 L1908.15 1433.07  Z
  " fill="#009af9" fill-rule="evenodd" fill-opacity="1"/>
<polyline clip-path="url(#clip352)" style="stroke:#000000; stroke-width:4; stroke-opacity:1; fill:none" points="
  1908.15,1433.07 1908.15,1445.72 1935.18,1445.72 1935.18,1433.07 1908.15,1433.07 
  "/>
<path clip-path="url(#clip352)" d="
M1935.18 1442.55 L1935.18 1445.72 L1962.21 1445.72 L1962.21 1442.55 L1935.18 1442.55 L1935.18 1442.55  Z
  " fill="#009af9" fill-rule="evenodd" fill-opacity="1"/>
<polyline clip-path="url(#clip352)" style="stroke:#000000; stroke-width:4; stroke-opacity:1; fill:none" points="
  1935.18,1442.55 1935.18,1445.72 1962.21,1445.72 1962.21,1442.55 1935.18,1442.55 
  "/>
<path clip-path="url(#clip352)" d="
M1962.21 1442.55 L1962.21 1445.72 L1989.24 1445.72 L1989.24 1442.55 L1962.21 1442.55 L1962.21 1442.55  Z
  " fill="#009af9" fill-rule="evenodd" fill-opacity="1"/>
<polyline clip-path="url(#clip352)" style="stroke:#000000; stroke-width:4; stroke-opacity:1; fill:none" points="
  1962.21,1442.55 1962.21,1445.72 1989.24,1445.72 1989.24,1442.55 1962.21,1442.55 
  "/>
<path clip-path="url(#clip352)" d="
M1989.24 1444.14 L1989.24 1445.72 L2016.27 1445.72 L2016.27 1444.14 L1989.24 1444.14 L1989.24 1444.14  Z
  " fill="#009af9" fill-rule="evenodd" fill-opacity="1"/>
<polyline clip-path="url(#clip352)" style="stroke:#000000; stroke-width:4; stroke-opacity:1; fill:none" points="
  1989.24,1444.14 1989.24,1445.72 2016.27,1445.72 2016.27,1444.14 1989.24,1444.14 
  "/>
<path clip-path="url(#clip352)" d="
M2016.27 1444.14 L2016.27 1445.72 L2043.3 1445.72 L2043.3 1444.14 L2016.27 1444.14 L2016.27 1444.14  Z
  " fill="#009af9" fill-rule="evenodd" fill-opacity="1"/>
<polyline clip-path="url(#clip352)" style="stroke:#000000; stroke-width:4; stroke-opacity:1; fill:none" points="
  2016.27,1444.14 2016.27,1445.72 2043.3,1445.72 2043.3,1444.14 2016.27,1444.14 
  "/>
<path clip-path="url(#clip352)" d="
M2043.3 1445.72 L2043.3 1445.72 L2070.32 1445.72 L2070.32 1445.72 L2043.3 1445.72 L2043.3 1445.72  Z
  " fill="#009af9" fill-rule="evenodd" fill-opacity="1"/>
<polyline clip-path="url(#clip352)" style="stroke:#000000; stroke-width:4; stroke-opacity:1; fill:none" points="
  2043.3,1445.72 2043.3,1445.72 2070.32,1445.72 2043.3,1445.72 
  "/>
<path clip-path="url(#clip352)" d="
M2070.32 1445.72 L2070.32 1445.72 L2097.35 1445.72 L2097.35 1445.72 L2070.32 1445.72 L2070.32 1445.72  Z
  " fill="#009af9" fill-rule="evenodd" fill-opacity="1"/>
<polyline clip-path="url(#clip352)" style="stroke:#000000; stroke-width:4; stroke-opacity:1; fill:none" points="
  2070.32,1445.72 2070.32,1445.72 2097.35,1445.72 2070.32,1445.72 
  "/>
<path clip-path="url(#clip352)" d="
M2097.35 1445.72 L2097.35 1445.72 L2124.38 1445.72 L2124.38 1445.72 L2097.35 1445.72 L2097.35 1445.72  Z
  " fill="#009af9" fill-rule="evenodd" fill-opacity="1"/>
<polyline clip-path="url(#clip352)" style="stroke:#000000; stroke-width:4; stroke-opacity:1; fill:none" points="
  2097.35,1445.72 2097.35,1445.72 2124.38,1445.72 2097.35,1445.72 
  "/>
<path clip-path="url(#clip352)" d="
M2124.38 1444.14 L2124.38 1445.72 L2151.41 1445.72 L2151.41 1444.14 L2124.38 1444.14 L2124.38 1444.14  Z
  " fill="#009af9" fill-rule="evenodd" fill-opacity="1"/>
<polyline clip-path="url(#clip352)" style="stroke:#000000; stroke-width:4; stroke-opacity:1; fill:none" points="
  2124.38,1444.14 2124.38,1445.72 2151.41,1445.72 2151.41,1444.14 2124.38,1444.14 
  "/>
<path clip-path="url(#clip352)" d="
M2151.41 1445.72 L2151.41 1445.72 L2178.44 1445.72 L2178.44 1445.72 L2151.41 1445.72 L2151.41 1445.72  Z
  " fill="#009af9" fill-rule="evenodd" fill-opacity="1"/>
<polyline clip-path="url(#clip352)" style="stroke:#000000; stroke-width:4; stroke-opacity:1; fill:none" points="
  2151.41,1445.72 2151.41,1445.72 2178.44,1445.72 2151.41,1445.72 
  "/>
<path clip-path="url(#clip352)" d="
M2178.44 1444.14 L2178.44 1445.72 L2205.46 1445.72 L2205.46 1444.14 L2178.44 1444.14 L2178.44 1444.14  Z
  " fill="#009af9" fill-rule="evenodd" fill-opacity="1"/>
<polyline clip-path="url(#clip352)" style="stroke:#000000; stroke-width:4; stroke-opacity:1; fill:none" points="
  2178.44,1444.14 2178.44,1445.72 2205.46,1445.72 2205.46,1444.14 2178.44,1444.14 
  "/>
<path clip-path="url(#clip352)" d="
M2205.46 1444.14 L2205.46 1445.72 L2232.49 1445.72 L2232.49 1444.14 L2205.46 1444.14 L2205.46 1444.14  Z
  " fill="#009af9" fill-rule="evenodd" fill-opacity="1"/>
<polyline clip-path="url(#clip352)" style="stroke:#000000; stroke-width:4; stroke-opacity:1; fill:none" points="
  2205.46,1444.14 2205.46,1445.72 2232.49,1445.72 2232.49,1444.14 2205.46,1444.14 
  "/>
<path clip-path="url(#clip350)" d="
M1989.74 251.724 L2280.76 251.724 L2280.76 130.764 L1989.74 130.764  Z
  " fill="#ffffff" fill-rule="evenodd" fill-opacity="1"/>
<polyline clip-path="url(#clip350)" style="stroke:#000000; stroke-width:4; stroke-opacity:1; fill:none" points="
  1989.74,251.724 2280.76,251.724 2280.76,130.764 1989.74,130.764 1989.74,251.724 
  "/>
<path clip-path="url(#clip350)" d="
M2013.74 215.436 L2157.74 215.436 L2157.74 167.052 L2013.74 167.052 L2013.74 215.436  Z
  " fill="#009af9" fill-rule="evenodd" fill-opacity="1"/>
<polyline clip-path="url(#clip350)" style="stroke:#000000; stroke-width:4; stroke-opacity:1; fill:none" points="
  2013.74,215.436 2157.74,215.436 2157.74,167.052 2013.74,167.052 2013.74,215.436 
  "/>
<path clip-path="url(#clip350)" d="M 0 0 M2195.58 210.931 Q2193.77 215.561 2192.06 216.973 Q2190.35 218.385 2187.48 218.385 L2184.08 218.385 L2184.08 214.82 L2186.58 214.82 Q2188.33 214.82 2189.31 213.987 Q2190.28 213.154 2191.46 210.052 L2192.22 208.107 L2181.74 182.598 L2186.25 182.598 L2194.35 202.876 L2202.46 182.598 L2206.97 182.598 L2195.58 210.931 Z" fill="#000000" fill-rule="evenodd" fill-opacity="1" /><path clip-path="url(#clip350)" d="M 0 0 M2212.85 204.589 L2220.49 204.589 L2220.49 178.223 L2212.18 179.89 L2212.18 175.631 L2220.44 173.964 L2225.12 173.964 L2225.12 204.589 L2232.76 204.589 L2232.76 208.524 L2212.85 208.524 L2212.85 204.589 Z" fill="#000000" fill-rule="evenodd" fill-opacity="1" /></svg>
