<?xml version="1.0" encoding="utf-8"?>
<svg xmlns="http://www.w3.org/2000/svg" xmlns:xlink="http://www.w3.org/1999/xlink" width="600" height="400" viewBox="0 0 2400 1600">
<defs>
  <clipPath id="clip640">
    <rect x="0" y="0" width="2400" height="1600"/>
  </clipPath>
</defs>
<path clip-path="url(#clip640)" d="
M0 1600 L2400 1600 L2400 0 L0 0  Z
  " fill="#ffffff" fill-rule="evenodd" fill-opacity="1"/>
<defs>
  <clipPath id="clip641">
    <rect x="480" y="0" width="1681" height="1600"/>
  </clipPath>
</defs>
<path clip-path="url(#clip640)" d="
M166.205 1486.45 L2352.76 1486.45 L2352.76 47.2441 L166.205 47.2441  Z
  " fill="#ffffff" fill-rule="evenodd" fill-opacity="1"/>
<defs>
  <clipPath id="clip642">
    <rect x="166" y="47" width="2188" height="1440"/>
  </clipPath>
</defs>
<polyline clip-path="url(#clip642)" style="stroke:#000000; stroke-width:2; stroke-opacity:0.1; fill:none" points="
  344.559,1486.45 344.559,47.2441 
  "/>
<polyline clip-path="url(#clip642)" style="stroke:#000000; stroke-width:2; stroke-opacity:0.1; fill:none" points="
  635.01,1486.45 635.01,47.2441 
  "/>
<polyline clip-path="url(#clip642)" style="stroke:#000000; stroke-width:2; stroke-opacity:0.1; fill:none" points="
  925.461,1486.45 925.461,47.2441 
  "/>
<polyline clip-path="url(#clip642)" style="stroke:#000000; stroke-width:2; stroke-opacity:0.1; fill:none" points="
  1215.91,1486.45 1215.91,47.2441 
  "/>
<polyline clip-path="url(#clip642)" style="stroke:#000000; stroke-width:2; stroke-opacity:0.1; fill:none" points="
  1506.36,1486.45 1506.36,47.2441 
  "/>
<polyline clip-path="url(#clip642)" style="stroke:#000000; stroke-width:2; stroke-opacity:0.1; fill:none" points="
  1796.81,1486.45 1796.81,47.2441 
  "/>
<polyline clip-path="url(#clip642)" style="stroke:#000000; stroke-width:2; stroke-opacity:0.1; fill:none" points="
  2087.27,1486.45 2087.27,47.2441 
  "/>
<polyline clip-path="url(#clip642)" style="stroke:#000000; stroke-width:2; stroke-opacity:0.1; fill:none" points="
  166.205,1445.72 2352.76,1445.72 
  "/>
<polyline clip-path="url(#clip642)" style="stroke:#000000; stroke-width:2; stroke-opacity:0.1; fill:none" points="
  166.205,1109.23 2352.76,1109.23 
  "/>
<polyline clip-path="url(#clip642)" style="stroke:#000000; stroke-width:2; stroke-opacity:0.1; fill:none" points="
  166.205,772.735 2352.76,772.735 
  "/>
<polyline clip-path="url(#clip642)" style="stroke:#000000; stroke-width:2; stroke-opacity:0.1; fill:none" points="
  166.205,436.244 2352.76,436.244 
  "/>
<polyline clip-path="url(#clip642)" style="stroke:#000000; stroke-width:2; stroke-opacity:0.1; fill:none" points="
  166.205,99.7534 2352.76,99.7534 
  "/>
<polyline clip-path="url(#clip640)" style="stroke:#000000; stroke-width:4; stroke-opacity:1; fill:none" points="
  166.205,1486.45 2352.76,1486.45 
  "/>
<polyline clip-path="url(#clip640)" style="stroke:#000000; stroke-width:4; stroke-opacity:1; fill:none" points="
  166.205,1486.45 166.205,47.2441 
  "/>
<polyline clip-path="url(#clip640)" style="stroke:#000000; stroke-width:4; stroke-opacity:1; fill:none" points="
  344.559,1486.45 344.559,1469.18 
  "/>
<polyline clip-path="url(#clip640)" style="stroke:#000000; stroke-width:4; stroke-opacity:1; fill:none" points="
  635.01,1486.45 635.01,1469.18 
  "/>
<polyline clip-path="url(#clip640)" style="stroke:#000000; stroke-width:4; stroke-opacity:1; fill:none" points="
  925.461,1486.45 925.461,1469.18 
  "/>
<polyline clip-path="url(#clip640)" style="stroke:#000000; stroke-width:4; stroke-opacity:1; fill:none" points="
  1215.91,1486.45 1215.91,1469.18 
  "/>
<polyline clip-path="url(#clip640)" style="stroke:#000000; stroke-width:4; stroke-opacity:1; fill:none" points="
  1506.36,1486.45 1506.36,1469.18 
  "/>
<polyline clip-path="url(#clip640)" style="stroke:#000000; stroke-width:4; stroke-opacity:1; fill:none" points="
  1796.81,1486.45 1796.81,1469.18 
  "/>
<polyline clip-path="url(#clip640)" style="stroke:#000000; stroke-width:4; stroke-opacity:1; fill:none" points="
  2087.27,1486.45 2087.27,1469.18 
  "/>
<polyline clip-path="url(#clip640)" style="stroke:#000000; stroke-width:4; stroke-opacity:1; fill:none" points="
  166.205,1445.72 192.443,1445.72 
  "/>
<polyline clip-path="url(#clip640)" style="stroke:#000000; stroke-width:4; stroke-opacity:1; fill:none" points="
  166.205,1109.23 192.443,1109.23 
  "/>
<polyline clip-path="url(#clip640)" style="stroke:#000000; stroke-width:4; stroke-opacity:1; fill:none" points="
  166.205,772.735 192.443,772.735 
  "/>
<polyline clip-path="url(#clip640)" style="stroke:#000000; stroke-width:4; stroke-opacity:1; fill:none" points="
  166.205,436.244 192.443,436.244 
  "/>
<polyline clip-path="url(#clip640)" style="stroke:#000000; stroke-width:4; stroke-opacity:1; fill:none" points="
  166.205,99.7534 192.443,99.7534 
  "/>
<path clip-path="url(#clip640)" d="M 0 0 M324.733 1525.04 L337.21 1525.04 L337.21 1528.83 L324.733 1528.83 L324.733 1525.04 Z" fill="#000000" fill-rule="evenodd" fill-opacity="1" /><path clip-path="url(#clip640)" d="M 0 0 M352.858 1520.78 Q349.71 1520.78 347.858 1522.93 Q346.029 1525.08 346.029 1528.83 Q346.029 1532.56 347.858 1534.73 Q349.71 1536.89 352.858 1536.89 Q356.006 1536.89 357.835 1534.73 Q359.686 1532.56 359.686 1528.83 Q359.686 1525.08 357.835 1522.93 Q356.006 1520.78 352.858 1520.78 M362.14 1506.12 L362.14 1510.38 Q360.381 1509.55 358.575 1509.11 Q356.793 1508.67 355.034 1508.67 Q350.404 1508.67 347.95 1511.8 Q345.52 1514.92 345.173 1521.24 Q346.538 1519.23 348.598 1518.16 Q350.659 1517.07 353.135 1517.07 Q358.344 1517.07 361.353 1520.24 Q364.385 1523.39 364.385 1528.83 Q364.385 1534.16 361.237 1537.37 Q358.089 1540.59 352.858 1540.59 Q346.862 1540.59 343.691 1536.01 Q340.52 1531.4 340.52 1522.67 Q340.52 1514.48 344.409 1509.62 Q348.298 1504.73 354.848 1504.73 Q356.608 1504.73 358.39 1505.08 Q360.196 1505.43 362.14 1506.12 Z" fill="#000000" fill-rule="evenodd" fill-opacity="1" /><path clip-path="url(#clip640)" d="M 0 0 M615.022 1525.04 L627.499 1525.04 L627.499 1528.83 L615.022 1528.83 L615.022 1525.04 Z" fill="#000000" fill-rule="evenodd" fill-opacity="1" /><path clip-path="url(#clip640)" d="M 0 0 M645.415 1509.43 L633.61 1527.88 L645.415 1527.88 L645.415 1509.43 M644.188 1505.36 L650.068 1505.36 L650.068 1527.88 L654.999 1527.88 L654.999 1531.77 L650.068 1531.77 L650.068 1539.92 L645.415 1539.92 L645.415 1531.77 L629.814 1531.77 L629.814 1527.26 L644.188 1505.36 Z" fill="#000000" fill-rule="evenodd" fill-opacity="1" /><path clip-path="url(#clip640)" d="M 0 0 M906.515 1525.04 L918.992 1525.04 L918.992 1528.83 L906.515 1528.83 L906.515 1525.04 Z" fill="#000000" fill-rule="evenodd" fill-opacity="1" /><path clip-path="url(#clip640)" d="M 0 0 M928.089 1535.98 L944.408 1535.98 L944.408 1539.92 L922.464 1539.92 L922.464 1535.98 Q925.126 1533.23 929.709 1528.6 Q934.316 1523.95 935.496 1522.61 Q937.741 1520.08 938.621 1518.35 Q939.524 1516.59 939.524 1514.9 Q939.524 1512.14 937.579 1510.41 Q935.658 1508.67 932.556 1508.67 Q930.357 1508.67 927.904 1509.43 Q925.473 1510.2 922.695 1511.75 L922.695 1507.03 Q925.519 1505.89 927.973 1505.31 Q930.427 1504.73 932.464 1504.73 Q937.834 1504.73 941.028 1507.42 Q944.223 1510.11 944.223 1514.6 Q944.223 1516.73 943.413 1518.65 Q942.626 1520.54 940.519 1523.14 Q939.941 1523.81 936.839 1527.03 Q933.737 1530.22 928.089 1535.98 Z" fill="#000000" fill-rule="evenodd" fill-opacity="1" /><path clip-path="url(#clip640)" d="M 0 0 M1215.91 1508.44 Q1212.3 1508.44 1210.47 1512 Q1208.67 1515.55 1208.67 1522.67 Q1208.67 1529.78 1210.47 1533.35 Q1212.3 1536.89 1215.91 1536.89 Q1219.55 1536.89 1221.35 1533.35 Q1223.18 1529.78 1223.18 1522.67 Q1223.18 1515.55 1221.35 1512 Q1219.55 1508.44 1215.91 1508.44 M1215.91 1504.73 Q1221.72 1504.73 1224.78 1509.34 Q1227.86 1513.92 1227.86 1522.67 Q1227.86 1531.4 1224.78 1536.01 Q1221.72 1540.59 1215.91 1540.59 Q1210.1 1540.59 1207.02 1536.01 Q1203.97 1531.4 1203.97 1522.67 Q1203.97 1513.92 1207.02 1509.34 Q1210.1 1504.73 1215.91 1504.73 Z" fill="#000000" fill-rule="evenodd" fill-opacity="1" /><path clip-path="url(#clip640)" d="M 0 0 M1501.02 1535.98 L1517.34 1535.98 L1517.34 1539.92 L1495.39 1539.92 L1495.39 1535.98 Q1498.05 1533.23 1502.64 1528.6 Q1507.24 1523.95 1508.42 1522.61 Q1510.67 1520.08 1511.55 1518.35 Q1512.45 1516.59 1512.45 1514.9 Q1512.45 1512.14 1510.51 1510.41 Q1508.59 1508.67 1505.48 1508.67 Q1503.29 1508.67 1500.83 1509.43 Q1498.4 1510.2 1495.62 1511.75 L1495.62 1507.03 Q1498.45 1505.89 1500.9 1505.31 Q1503.35 1504.73 1505.39 1504.73 Q1510.76 1504.73 1513.96 1507.42 Q1517.15 1510.11 1517.15 1514.6 Q1517.15 1516.73 1516.34 1518.65 Q1515.55 1520.54 1513.45 1523.14 Q1512.87 1523.81 1509.77 1527.03 Q1506.66 1530.22 1501.02 1535.98 Z" fill="#000000" fill-rule="evenodd" fill-opacity="1" /><path clip-path="url(#clip640)" d="M 0 0 M1799.82 1509.43 L1788.02 1527.88 L1799.82 1527.88 L1799.82 1509.43 M1798.6 1505.36 L1804.48 1505.36 L1804.48 1527.88 L1809.41 1527.88 L1809.41 1531.77 L1804.48 1531.77 L1804.48 1539.92 L1799.82 1539.92 L1799.82 1531.77 L1784.22 1531.77 L1784.22 1527.26 L1798.6 1505.36 Z" fill="#000000" fill-rule="evenodd" fill-opacity="1" /><path clip-path="url(#clip640)" d="M 0 0 M2087.67 1520.78 Q2084.52 1520.78 2082.67 1522.93 Q2080.84 1525.08 2080.84 1528.83 Q2080.84 1532.56 2082.67 1534.73 Q2084.52 1536.89 2087.67 1536.89 Q2090.82 1536.89 2092.65 1534.73 Q2094.5 1532.56 2094.5 1528.83 Q2094.5 1525.08 2092.65 1522.93 Q2090.82 1520.78 2087.67 1520.78 M2096.95 1506.12 L2096.95 1510.38 Q2095.19 1509.55 2093.39 1509.11 Q2091.61 1508.67 2089.85 1508.67 Q2085.22 1508.67 2082.76 1511.8 Q2080.33 1514.92 2079.99 1521.24 Q2081.35 1519.23 2083.41 1518.16 Q2085.47 1517.07 2087.95 1517.07 Q2093.16 1517.07 2096.17 1520.24 Q2099.2 1523.39 2099.2 1528.83 Q2099.2 1534.16 2096.05 1537.37 Q2092.9 1540.59 2087.67 1540.59 Q2081.68 1540.59 2078.5 1536.01 Q2075.33 1531.4 2075.33 1522.67 Q2075.33 1514.48 2079.22 1509.62 Q2083.11 1504.73 2089.66 1504.73 Q2091.42 1504.73 2093.2 1505.08 Q2095.01 1505.43 2096.95 1506.12 Z" fill="#000000" fill-rule="evenodd" fill-opacity="1" /><path clip-path="url(#clip640)" d="M 0 0 M130.26 1431.51 Q126.649 1431.51 124.82 1435.08 Q123.015 1438.62 123.015 1445.75 Q123.015 1452.86 124.82 1456.42 Q126.649 1459.96 130.26 1459.96 Q133.895 1459.96 135.7 1456.42 Q137.529 1452.86 137.529 1445.75 Q137.529 1438.62 135.7 1435.08 Q133.895 1431.51 130.26 1431.51 M130.26 1427.81 Q136.07 1427.81 139.126 1432.42 Q142.205 1437 142.205 1445.75 Q142.205 1454.48 139.126 1459.08 Q136.07 1463.67 130.26 1463.67 Q124.45 1463.67 121.371 1459.08 Q118.316 1454.48 118.316 1445.75 Q118.316 1437 121.371 1432.42 Q124.45 1427.81 130.26 1427.81 Z" fill="#000000" fill-rule="evenodd" fill-opacity="1" /><path clip-path="url(#clip640)" d="M 0 0 M71.8578 1122.57 L88.1772 1122.57 L88.1772 1126.51 L66.2328 1126.51 L66.2328 1122.57 Q68.8949 1119.82 73.4782 1115.19 Q78.0846 1110.53 79.2652 1109.19 Q81.5105 1106.67 82.3902 1104.93 Q83.2929 1103.17 83.2929 1101.48 Q83.2929 1098.73 81.3485 1096.99 Q79.4272 1095.26 76.3254 1095.26 Q74.1263 1095.26 71.6726 1096.02 Q69.2421 1096.78 66.4643 1098.33 L66.4643 1093.61 Q69.2884 1092.48 71.7421 1091.9 Q74.1958 1091.32 76.2328 1091.32 Q81.6031 1091.32 84.7976 1094.01 Q87.992 1096.69 87.992 1101.18 Q87.992 1103.31 87.1818 1105.23 Q86.3948 1107.13 84.2883 1109.72 Q83.7096 1110.39 80.6078 1113.61 Q77.5059 1116.81 71.8578 1122.57 Z" fill="#000000" fill-rule="evenodd" fill-opacity="1" /><path clip-path="url(#clip640)" d="M 0 0 M103.247 1095.02 Q99.6354 1095.02 97.8068 1098.59 Q96.0012 1102.13 96.0012 1109.26 Q96.0012 1116.37 97.8068 1119.93 Q99.6354 1123.47 103.247 1123.47 Q106.881 1123.47 108.686 1119.93 Q110.515 1116.37 110.515 1109.26 Q110.515 1102.13 108.686 1098.59 Q106.881 1095.02 103.247 1095.02 M103.247 1091.32 Q109.057 1091.32 112.112 1095.93 Q115.191 1100.51 115.191 1109.26 Q115.191 1117.99 112.112 1122.59 Q109.057 1127.18 103.247 1127.18 Q97.4364 1127.18 94.3577 1122.59 Q91.3022 1117.99 91.3022 1109.26 Q91.3022 1100.51 94.3577 1095.93 Q97.4364 1091.32 103.247 1091.32 Z" fill="#000000" fill-rule="evenodd" fill-opacity="1" /><path clip-path="url(#clip640)" d="M 0 0 M130.26 1095.02 Q126.649 1095.02 124.82 1098.59 Q123.015 1102.13 123.015 1109.26 Q123.015 1116.37 124.82 1119.93 Q126.649 1123.47 130.26 1123.47 Q133.895 1123.47 135.7 1119.93 Q137.529 1116.37 137.529 1109.26 Q137.529 1102.13 135.7 1098.59 Q133.895 1095.02 130.26 1095.02 M130.26 1091.32 Q136.07 1091.32 139.126 1095.93 Q142.205 1100.51 142.205 1109.26 Q142.205 1117.99 139.126 1122.59 Q136.07 1127.18 130.26 1127.18 Q124.45 1127.18 121.371 1122.59 Q118.316 1117.99 118.316 1109.26 Q118.316 1100.51 121.371 1095.93 Q124.45 1091.32 130.26 1091.32 Z" fill="#000000" fill-rule="evenodd" fill-opacity="1" /><path clip-path="url(#clip640)" d="M 0 0 M78.5939 759.529 L66.7884 777.978 L78.5939 777.978 L78.5939 759.529 M77.367 755.455 L83.2466 755.455 L83.2466 777.978 L88.1772 777.978 L88.1772 781.866 L83.2466 781.866 L83.2466 790.015 L78.5939 790.015 L78.5939 781.866 L62.9921 781.866 L62.9921 777.353 L77.367 755.455 Z" fill="#000000" fill-rule="evenodd" fill-opacity="1" /><path clip-path="url(#clip640)" d="M 0 0 M103.247 758.533 Q99.6354 758.533 97.8068 762.098 Q96.0012 765.64 96.0012 772.769 Q96.0012 779.876 97.8068 783.441 Q99.6354 786.982 103.247 786.982 Q106.881 786.982 108.686 783.441 Q110.515 779.876 110.515 772.769 Q110.515 765.64 108.686 762.098 Q106.881 758.533 103.247 758.533 M103.247 754.83 Q109.057 754.83 112.112 759.436 Q115.191 764.019 115.191 772.769 Q115.191 781.496 112.112 786.103 Q109.057 790.686 103.247 790.686 Q97.4364 790.686 94.3577 786.103 Q91.3022 781.496 91.3022 772.769 Q91.3022 764.019 94.3577 759.436 Q97.4364 754.83 103.247 754.83 Z" fill="#000000" fill-rule="evenodd" fill-opacity="1" /><path clip-path="url(#clip640)" d="M 0 0 M130.26 758.533 Q126.649 758.533 124.82 762.098 Q123.015 765.64 123.015 772.769 Q123.015 779.876 124.82 783.441 Q126.649 786.982 130.26 786.982 Q133.895 786.982 135.7 783.441 Q137.529 779.876 137.529 772.769 Q137.529 765.64 135.7 762.098 Q133.895 758.533 130.26 758.533 M130.26 754.83 Q136.07 754.83 139.126 759.436 Q142.205 764.019 142.205 772.769 Q142.205 781.496 139.126 786.103 Q136.07 790.686 130.26 790.686 Q124.45 790.686 121.371 786.103 Q118.316 781.496 118.316 772.769 Q118.316 764.019 121.371 759.436 Q124.45 754.83 130.26 754.83 Z" fill="#000000" fill-rule="evenodd" fill-opacity="1" /><path clip-path="url(#clip640)" d="M 0 0 M76.6495 434.381 Q73.5013 434.381 71.6495 436.533 Q69.8208 438.686 69.8208 442.436 Q69.8208 446.163 71.6495 448.339 Q73.5013 450.492 76.6495 450.492 Q79.7976 450.492 81.6263 448.339 Q83.4781 446.163 83.4781 442.436 Q83.4781 438.686 81.6263 436.533 Q79.7976 434.381 76.6495 434.381 M85.9318 419.728 L85.9318 423.987 Q84.1726 423.154 82.367 422.714 Q80.5846 422.274 78.8254 422.274 Q74.1958 422.274 71.7421 425.399 Q69.3115 428.524 68.9643 434.844 Q70.33 432.83 72.3902 431.765 Q74.4504 430.677 76.9272 430.677 Q82.1355 430.677 85.1448 433.848 Q88.1772 436.996 88.1772 442.436 Q88.1772 447.76 85.029 450.978 Q81.8809 454.195 76.6495 454.195 Q70.6541 454.195 67.4828 449.612 Q64.3116 445.006 64.3116 436.279 Q64.3116 428.084 68.2004 423.223 Q72.0893 418.339 78.6402 418.339 Q80.3994 418.339 82.1818 418.686 Q83.9874 419.033 85.9318 419.728 Z" fill="#000000" fill-rule="evenodd" fill-opacity="1" /><path clip-path="url(#clip640)" d="M 0 0 M103.247 422.043 Q99.6354 422.043 97.8068 425.607 Q96.0012 429.149 96.0012 436.279 Q96.0012 443.385 97.8068 446.95 Q99.6354 450.492 103.247 450.492 Q106.881 450.492 108.686 446.95 Q110.515 443.385 110.515 436.279 Q110.515 429.149 108.686 425.607 Q106.881 422.043 103.247 422.043 M103.247 418.339 Q109.057 418.339 112.112 422.945 Q115.191 427.529 115.191 436.279 Q115.191 445.006 112.112 449.612 Q109.057 454.195 103.247 454.195 Q97.4364 454.195 94.3577 449.612 Q91.3022 445.006 91.3022 436.279 Q91.3022 427.529 94.3577 422.945 Q97.4364 418.339 103.247 418.339 Z" fill="#000000" fill-rule="evenodd" fill-opacity="1" /><path clip-path="url(#clip640)" d="M 0 0 M130.26 422.043 Q126.649 422.043 124.82 425.607 Q123.015 429.149 123.015 436.279 Q123.015 443.385 124.82 446.95 Q126.649 450.492 130.26 450.492 Q133.895 450.492 135.7 446.95 Q137.529 443.385 137.529 436.279 Q137.529 429.149 135.7 425.607 Q133.895 422.043 130.26 422.043 M130.26 418.339 Q136.07 418.339 139.126 422.945 Q142.205 427.529 142.205 436.279 Q142.205 445.006 139.126 449.612 Q136.07 454.195 130.26 454.195 Q124.45 454.195 121.371 449.612 Q118.316 445.006 118.316 436.279 Q118.316 427.529 121.371 422.945 Q124.45 418.339 130.26 418.339 Z" fill="#000000" fill-rule="evenodd" fill-opacity="1" /><path clip-path="url(#clip640)" d="M 0 0 M76.3254 100.621 Q72.9921 100.621 71.0708 102.404 Q69.1726 104.186 69.1726 107.311 Q69.1726 110.436 71.0708 112.219 Q72.9921 114.001 76.3254 114.001 Q79.6587 114.001 81.58 112.219 Q83.5013 110.413 83.5013 107.311 Q83.5013 104.186 81.58 102.404 Q79.6819 100.621 76.3254 100.621 M71.6495 98.6308 Q68.6402 97.89 66.9504 95.8299 Q65.2838 93.7697 65.2838 90.8067 Q65.2838 86.6632 68.2236 84.2558 Q71.1865 81.8484 76.3254 81.8484 Q81.4874 81.8484 84.4272 84.2558 Q87.367 86.6632 87.367 90.8067 Q87.367 93.7697 85.6772 95.8299 Q84.0105 97.89 81.0244 98.6308 Q84.404 99.4178 86.279 101.709 Q88.1772 104.001 88.1772 107.311 Q88.1772 112.334 85.0985 115.02 Q82.0429 117.705 76.3254 117.705 Q70.6078 117.705 67.5291 115.02 Q64.4736 112.334 64.4736 107.311 Q64.4736 104.001 66.3717 101.709 Q68.2699 99.4178 71.6495 98.6308 M69.9365 91.2465 Q69.9365 93.9317 71.6032 95.4363 Q73.293 96.941 76.3254 96.941 Q79.3346 96.941 81.0244 95.4363 Q82.7374 93.9317 82.7374 91.2465 Q82.7374 88.5614 81.0244 87.0568 Q79.3346 85.5521 76.3254 85.5521 Q73.293 85.5521 71.6032 87.0568 Q69.9365 88.5614 69.9365 91.2465 Z" fill="#000000" fill-rule="evenodd" fill-opacity="1" /><path clip-path="url(#clip640)" d="M 0 0 M103.247 85.5521 Q99.6354 85.5521 97.8068 89.1169 Q96.0012 92.6586 96.0012 99.7882 Q96.0012 106.895 97.8068 110.459 Q99.6354 114.001 103.247 114.001 Q106.881 114.001 108.686 110.459 Q110.515 106.895 110.515 99.7882 Q110.515 92.6586 108.686 89.1169 Q106.881 85.5521 103.247 85.5521 M103.247 81.8484 Q109.057 81.8484 112.112 86.4549 Q115.191 91.0382 115.191 99.7882 Q115.191 108.515 112.112 113.121 Q109.057 117.705 103.247 117.705 Q97.4364 117.705 94.3577 113.121 Q91.3022 108.515 91.3022 99.7882 Q91.3022 91.0382 94.3577 86.4549 Q97.4364 81.8484 103.247 81.8484 Z" fill="#000000" fill-rule="evenodd" fill-opacity="1" /><path clip-path="url(#clip640)" d="M 0 0 M130.26 85.5521 Q126.649 85.5521 124.82 89.1169 Q123.015 92.6586 123.015 99.7882 Q123.015 106.895 124.82 110.459 Q126.649 114.001 130.26 114.001 Q133.895 114.001 135.7 110.459 Q137.529 106.895 137.529 99.7882 Q137.529 92.6586 135.7 89.1169 Q133.895 85.5521 130.26 85.5521 M130.26 81.8484 Q136.07 81.8484 139.126 86.4549 Q142.205 91.0382 142.205 99.7882 Q142.205 108.515 139.126 113.121 Q136.07 117.705 130.26 117.705 Q124.45 117.705 121.371 113.121 Q118.316 108.515 118.316 99.7882 Q118.316 91.0382 121.371 86.4549 Q124.45 81.8484 130.26 81.8484 Z" fill="#000000" fill-rule="evenodd" fill-opacity="1" /><path clip-path="url(#clip642)" d="
M286.469 1440.67 L286.469 1445.72 L315.514 1445.72 L315.514 1440.67 L286.469 1440.67 L286.469 1440.67  Z
  " fill="#009af9" fill-rule="evenodd" fill-opacity="1"/>
<polyline clip-path="url(#clip642)" style="stroke:#000000; stroke-width:4; stroke-opacity:1; fill:none" points="
  286.469,1440.67 286.469,1445.72 315.514,1445.72 315.514,1440.67 286.469,1440.67 
  "/>
<path clip-path="url(#clip642)" d="
M315.514 1444.03 L315.514 1445.72 L344.559 1445.72 L344.559 1444.03 L315.514 1444.03 L315.514 1444.03  Z
  " fill="#009af9" fill-rule="evenodd" fill-opacity="1"/>
<polyline clip-path="url(#clip642)" style="stroke:#000000; stroke-width:4; stroke-opacity:1; fill:none" points="
  315.514,1444.03 315.514,1445.72 344.559,1445.72 344.559,1444.03 315.514,1444.03 
  "/>
<path clip-path="url(#clip642)" d="
M344.559 1442.35 L344.559 1445.72 L373.604 1445.72 L373.604 1442.35 L344.559 1442.35 L344.559 1442.35  Z
  " fill="#009af9" fill-rule="evenodd" fill-opacity="1"/>
<polyline clip-path="url(#clip642)" style="stroke:#000000; stroke-width:4; stroke-opacity:1; fill:none" points="
  344.559,1442.35 344.559,1445.72 373.604,1445.72 373.604,1442.35 344.559,1442.35 
  "/>
<path clip-path="url(#clip642)" d="
M373.604 1438.99 L373.604 1445.72 L402.649 1445.72 L402.649 1438.99 L373.604 1438.99 L373.604 1438.99  Z
  " fill="#009af9" fill-rule="evenodd" fill-opacity="1"/>
<polyline clip-path="url(#clip642)" style="stroke:#000000; stroke-width:4; stroke-opacity:1; fill:none" points="
  373.604,1438.99 373.604,1445.72 402.649,1445.72 402.649,1438.99 373.604,1438.99 
  "/>
<path clip-path="url(#clip642)" d="
M402.649 1444.03 L402.649 1445.72 L431.694 1445.72 L431.694 1444.03 L402.649 1444.03 L402.649 1444.03  Z
  " fill="#009af9" fill-rule="evenodd" fill-opacity="1"/>
<polyline clip-path="url(#clip642)" style="stroke:#000000; stroke-width:4; stroke-opacity:1; fill:none" points="
  402.649,1444.03 402.649,1445.72 431.694,1445.72 431.694,1444.03 402.649,1444.03 
  "/>
<path clip-path="url(#clip642)" d="
M431.694 1440.67 L431.694 1445.72 L460.74 1445.72 L460.74 1440.67 L431.694 1440.67 L431.694 1440.67  Z
  " fill="#009af9" fill-rule="evenodd" fill-opacity="1"/>
<polyline clip-path="url(#clip642)" style="stroke:#000000; stroke-width:4; stroke-opacity:1; fill:none" points="
  431.694,1440.67 431.694,1445.72 460.74,1445.72 460.74,1440.67 431.694,1440.67 
  "/>
<path clip-path="url(#clip642)" d="
M460.74 1437.3 L460.74 1445.72 L489.785 1445.72 L489.785 1437.3 L460.74 1437.3 L460.74 1437.3  Z
  " fill="#009af9" fill-rule="evenodd" fill-opacity="1"/>
<polyline clip-path="url(#clip642)" style="stroke:#000000; stroke-width:4; stroke-opacity:1; fill:none" points="
  460.74,1437.3 460.74,1445.72 489.785,1445.72 489.785,1437.3 460.74,1437.3 
  "/>
<path clip-path="url(#clip642)" d="
M489.785 1440.67 L489.785 1445.72 L518.83 1445.72 L518.83 1440.67 L489.785 1440.67 L489.785 1440.67  Z
  " fill="#009af9" fill-rule="evenodd" fill-opacity="1"/>
<polyline clip-path="url(#clip642)" style="stroke:#000000; stroke-width:4; stroke-opacity:1; fill:none" points="
  489.785,1440.67 489.785,1445.72 518.83,1445.72 518.83,1440.67 489.785,1440.67 
  "/>
<path clip-path="url(#clip642)" d="
M518.83 1437.3 L518.83 1445.72 L547.875 1445.72 L547.875 1437.3 L518.83 1437.3 L518.83 1437.3  Z
  " fill="#009af9" fill-rule="evenodd" fill-opacity="1"/>
<polyline clip-path="url(#clip642)" style="stroke:#000000; stroke-width:4; stroke-opacity:1; fill:none" points="
  518.83,1437.3 518.83,1445.72 547.875,1445.72 547.875,1437.3 518.83,1437.3 
  "/>
<path clip-path="url(#clip642)" d="
M547.875 1427.21 L547.875 1445.72 L576.92 1445.72 L576.92 1427.21 L547.875 1427.21 L547.875 1427.21  Z
  " fill="#009af9" fill-rule="evenodd" fill-opacity="1"/>
<polyline clip-path="url(#clip642)" style="stroke:#000000; stroke-width:4; stroke-opacity:1; fill:none" points="
  547.875,1427.21 547.875,1445.72 576.92,1445.72 576.92,1427.21 547.875,1427.21 
  "/>
<path clip-path="url(#clip642)" d="
M576.92 1427.21 L576.92 1445.72 L605.965 1445.72 L605.965 1427.21 L576.92 1427.21 L576.92 1427.21  Z
  " fill="#009af9" fill-rule="evenodd" fill-opacity="1"/>
<polyline clip-path="url(#clip642)" style="stroke:#000000; stroke-width:4; stroke-opacity:1; fill:none" points="
  576.92,1427.21 576.92,1445.72 605.965,1445.72 605.965,1427.21 576.92,1427.21 
  "/>
<path clip-path="url(#clip642)" d="
M605.965 1413.75 L605.965 1445.72 L635.01 1445.72 L635.01 1413.75 L605.965 1413.75 L605.965 1413.75  Z
  " fill="#009af9" fill-rule="evenodd" fill-opacity="1"/>
<polyline clip-path="url(#clip642)" style="stroke:#000000; stroke-width:4; stroke-opacity:1; fill:none" points="
  605.965,1413.75 605.965,1445.72 635.01,1445.72 635.01,1413.75 605.965,1413.75 
  "/>
<path clip-path="url(#clip642)" d="
M635.01 1418.8 L635.01 1445.72 L664.055 1445.72 L664.055 1418.8 L635.01 1418.8 L635.01 1418.8  Z
  " fill="#009af9" fill-rule="evenodd" fill-opacity="1"/>
<polyline clip-path="url(#clip642)" style="stroke:#000000; stroke-width:4; stroke-opacity:1; fill:none" points="
  635.01,1418.8 635.01,1445.72 664.055,1445.72 664.055,1418.8 635.01,1418.8 
  "/>
<path clip-path="url(#clip642)" d="
M664.055 1395.24 L664.055 1445.72 L693.101 1445.72 L693.101 1395.24 L664.055 1395.24 L664.055 1395.24  Z
  " fill="#009af9" fill-rule="evenodd" fill-opacity="1"/>
<polyline clip-path="url(#clip642)" style="stroke:#000000; stroke-width:4; stroke-opacity:1; fill:none" points="
  664.055,1395.24 664.055,1445.72 693.101,1445.72 693.101,1395.24 664.055,1395.24 
  "/>
<path clip-path="url(#clip642)" d="
M693.101 1391.88 L693.101 1445.72 L722.146 1445.72 L722.146 1391.88 L693.101 1391.88 L693.101 1391.88  Z
  " fill="#009af9" fill-rule="evenodd" fill-opacity="1"/>
<polyline clip-path="url(#clip642)" style="stroke:#000000; stroke-width:4; stroke-opacity:1; fill:none" points="
  693.101,1391.88 693.101,1445.72 722.146,1445.72 722.146,1391.88 693.101,1391.88 
  "/>
<path clip-path="url(#clip642)" d="
M722.146 1378.42 L722.146 1445.72 L751.191 1445.72 L751.191 1378.42 L722.146 1378.42 L722.146 1378.42  Z
  " fill="#009af9" fill-rule="evenodd" fill-opacity="1"/>
<polyline clip-path="url(#clip642)" style="stroke:#000000; stroke-width:4; stroke-opacity:1; fill:none" points="
  722.146,1378.42 722.146,1445.72 751.191,1445.72 751.191,1378.42 722.146,1378.42 
  "/>
<path clip-path="url(#clip642)" d="
M751.191 1395.24 L751.191 1445.72 L780.236 1445.72 L780.236 1395.24 L751.191 1395.24 L751.191 1395.24  Z
  " fill="#009af9" fill-rule="evenodd" fill-opacity="1"/>
<polyline clip-path="url(#clip642)" style="stroke:#000000; stroke-width:4; stroke-opacity:1; fill:none" points="
  751.191,1395.24 751.191,1445.72 780.236,1445.72 780.236,1395.24 751.191,1395.24 
  "/>
<path clip-path="url(#clip642)" d="
M780.236 1359.91 L780.236 1445.72 L809.281 1445.72 L809.281 1359.91 L780.236 1359.91 L780.236 1359.91  Z
  " fill="#009af9" fill-rule="evenodd" fill-opacity="1"/>
<polyline clip-path="url(#clip642)" style="stroke:#000000; stroke-width:4; stroke-opacity:1; fill:none" points="
  780.236,1359.91 780.236,1445.72 809.281,1445.72 809.281,1359.91 780.236,1359.91 
  "/>
<path clip-path="url(#clip642)" d="
M809.281 1359.91 L809.281 1445.72 L838.326 1445.72 L838.326 1359.91 L809.281 1359.91 L809.281 1359.91  Z
  " fill="#009af9" fill-rule="evenodd" fill-opacity="1"/>
<polyline clip-path="url(#clip642)" style="stroke:#000000; stroke-width:4; stroke-opacity:1; fill:none" points="
  809.281,1359.91 809.281,1445.72 838.326,1445.72 838.326,1359.91 809.281,1359.91 
  "/>
<path clip-path="url(#clip642)" d="
M838.326 1343.09 L838.326 1445.72 L867.371 1445.72 L867.371 1343.09 L838.326 1343.09 L838.326 1343.09  Z
  " fill="#009af9" fill-rule="evenodd" fill-opacity="1"/>
<polyline clip-path="url(#clip642)" style="stroke:#000000; stroke-width:4; stroke-opacity:1; fill:none" points="
  838.326,1343.09 838.326,1445.72 867.371,1445.72 867.371,1343.09 838.326,1343.09 
  "/>
<path clip-path="url(#clip642)" d="
M867.371 1334.67 L867.371 1445.72 L896.416 1445.72 L896.416 1334.67 L867.371 1334.67 L867.371 1334.67  Z
  " fill="#009af9" fill-rule="evenodd" fill-opacity="1"/>
<polyline clip-path="url(#clip642)" style="stroke:#000000; stroke-width:4; stroke-opacity:1; fill:none" points="
  867.371,1334.67 867.371,1445.72 896.416,1445.72 896.416,1334.67 867.371,1334.67 
  "/>
<path clip-path="url(#clip642)" d="
M896.416 1334.67 L896.416 1445.72 L925.461 1445.72 L925.461 1334.67 L896.416 1334.67 L896.416 1334.67  Z
  " fill="#009af9" fill-rule="evenodd" fill-opacity="1"/>
<polyline clip-path="url(#clip642)" style="stroke:#000000; stroke-width:4; stroke-opacity:1; fill:none" points="
  896.416,1334.67 896.416,1445.72 925.461,1445.72 925.461,1334.67 896.416,1334.67 
  "/>
<path clip-path="url(#clip642)" d="
M925.461 1317.85 L925.461 1445.72 L954.507 1445.72 L954.507 1317.85 L925.461 1317.85 L925.461 1317.85  Z
  " fill="#009af9" fill-rule="evenodd" fill-opacity="1"/>
<polyline clip-path="url(#clip642)" style="stroke:#000000; stroke-width:4; stroke-opacity:1; fill:none" points="
  925.461,1317.85 925.461,1445.72 954.507,1445.72 954.507,1317.85 925.461,1317.85 
  "/>
<path clip-path="url(#clip642)" d="
M954.507 1312.8 L954.507 1445.72 L983.552 1445.72 L983.552 1312.8 L954.507 1312.8 L954.507 1312.8  Z
  " fill="#009af9" fill-rule="evenodd" fill-opacity="1"/>
<polyline clip-path="url(#clip642)" style="stroke:#000000; stroke-width:4; stroke-opacity:1; fill:none" points="
  954.507,1312.8 954.507,1445.72 983.552,1445.72 983.552,1312.8 954.507,1312.8 
  "/>
<path clip-path="url(#clip642)" d="
M983.552 1289.25 L983.552 1445.72 L1012.6 1445.72 L1012.6 1289.25 L983.552 1289.25 L983.552 1289.25  Z
  " fill="#009af9" fill-rule="evenodd" fill-opacity="1"/>
<polyline clip-path="url(#clip642)" style="stroke:#000000; stroke-width:4; stroke-opacity:1; fill:none" points="
  983.552,1289.25 983.552,1445.72 1012.6,1445.72 1012.6,1289.25 983.552,1289.25 
  "/>
<path clip-path="url(#clip642)" d="
M1012.6 1292.61 L1012.6 1445.72 L1041.64 1445.72 L1041.64 1292.61 L1012.6 1292.61 L1012.6 1292.61  Z
  " fill="#009af9" fill-rule="evenodd" fill-opacity="1"/>
<polyline clip-path="url(#clip642)" style="stroke:#000000; stroke-width:4; stroke-opacity:1; fill:none" points="
  1012.6,1292.61 1012.6,1445.72 1041.64,1445.72 1041.64,1292.61 1012.6,1292.61 
  "/>
<path clip-path="url(#clip642)" d="
M1041.64 1274.11 L1041.64 1445.72 L1070.69 1445.72 L1070.69 1274.11 L1041.64 1274.11 L1041.64 1274.11  Z
  " fill="#009af9" fill-rule="evenodd" fill-opacity="1"/>
<polyline clip-path="url(#clip642)" style="stroke:#000000; stroke-width:4; stroke-opacity:1; fill:none" points="
  1041.64,1274.11 1041.64,1445.72 1070.69,1445.72 1070.69,1274.11 1041.64,1274.11 
  "/>
<path clip-path="url(#clip642)" d="
M1070.69 1272.42 L1070.69 1445.72 L1099.73 1445.72 L1099.73 1272.42 L1070.69 1272.42 L1070.69 1272.42  Z
  " fill="#009af9" fill-rule="evenodd" fill-opacity="1"/>
<polyline clip-path="url(#clip642)" style="stroke:#000000; stroke-width:4; stroke-opacity:1; fill:none" points="
  1070.69,1272.42 1070.69,1445.72 1099.73,1445.72 1099.73,1272.42 1070.69,1272.42 
  "/>
<path clip-path="url(#clip642)" d="
M1099.73 1228.68 L1099.73 1445.72 L1128.78 1445.72 L1128.78 1228.68 L1099.73 1228.68 L1099.73 1228.68  Z
  " fill="#009af9" fill-rule="evenodd" fill-opacity="1"/>
<polyline clip-path="url(#clip642)" style="stroke:#000000; stroke-width:4; stroke-opacity:1; fill:none" points="
  1099.73,1228.68 1099.73,1445.72 1128.78,1445.72 1128.78,1228.68 1099.73,1228.68 
  "/>
<path clip-path="url(#clip642)" d="
M1128.78 1235.41 L1128.78 1445.72 L1157.82 1445.72 L1157.82 1235.41 L1128.78 1235.41 L1128.78 1235.41  Z
  " fill="#009af9" fill-rule="evenodd" fill-opacity="1"/>
<polyline clip-path="url(#clip642)" style="stroke:#000000; stroke-width:4; stroke-opacity:1; fill:none" points="
  1128.78,1235.41 1128.78,1445.72 1157.82,1445.72 1157.82,1235.41 1128.78,1235.41 
  "/>
<path clip-path="url(#clip642)" d="
M1157.82 1253.92 L1157.82 1445.72 L1186.87 1445.72 L1186.87 1253.92 L1157.82 1253.92 L1157.82 1253.92  Z
  " fill="#009af9" fill-rule="evenodd" fill-opacity="1"/>
<polyline clip-path="url(#clip642)" style="stroke:#000000; stroke-width:4; stroke-opacity:1; fill:none" points="
  1157.82,1253.92 1157.82,1445.72 1186.87,1445.72 1186.87,1253.92 1157.82,1253.92 
  "/>
<path clip-path="url(#clip642)" d="
M1186.87 1252.23 L1186.87 1445.72 L1215.91 1445.72 L1215.91 1252.23 L1186.87 1252.23 L1186.87 1252.23  Z
  " fill="#009af9" fill-rule="evenodd" fill-opacity="1"/>
<polyline clip-path="url(#clip642)" style="stroke:#000000; stroke-width:4; stroke-opacity:1; fill:none" points="
  1186.87,1252.23 1186.87,1445.72 1215.91,1445.72 1215.91,1252.23 1186.87,1252.23 
  "/>
<path clip-path="url(#clip642)" d="
M1215.91 1247.19 L1215.91 1445.72 L1244.96 1445.72 L1244.96 1247.19 L1215.91 1247.19 L1215.91 1247.19  Z
  " fill="#009af9" fill-rule="evenodd" fill-opacity="1"/>
<polyline clip-path="url(#clip642)" style="stroke:#000000; stroke-width:4; stroke-opacity:1; fill:none" points="
  1215.91,1247.19 1215.91,1445.72 1244.96,1445.72 1244.96,1247.19 1215.91,1247.19 
  "/>
<path clip-path="url(#clip642)" d="
M1244.96 1210.17 L1244.96 1445.72 L1274 1445.72 L1274 1210.17 L1244.96 1210.17 L1244.96 1210.17  Z
  " fill="#009af9" fill-rule="evenodd" fill-opacity="1"/>
<polyline clip-path="url(#clip642)" style="stroke:#000000; stroke-width:4; stroke-opacity:1; fill:none" points="
  1244.96,1210.17 1244.96,1445.72 1274,1445.72 1274,1210.17 1244.96,1210.17 
  "/>
<path clip-path="url(#clip642)" d="
M1274 1198.4 L1274 1445.72 L1303.05 1445.72 L1303.05 1198.4 L1274 1198.4 L1274 1198.4  Z
  " fill="#009af9" fill-rule="evenodd" fill-opacity="1"/>
<polyline clip-path="url(#clip642)" style="stroke:#000000; stroke-width:4; stroke-opacity:1; fill:none" points="
  1274,1198.4 1274,1445.72 1303.05,1445.72 1303.05,1198.4 1274,1198.4 
  "/>
<path clip-path="url(#clip642)" d="
M1303.05 786.194 L1303.05 1445.72 L1332.09 1445.72 L1332.09 786.194 L1303.05 786.194 L1303.05 786.194  Z
  " fill="#009af9" fill-rule="evenodd" fill-opacity="1"/>
<polyline clip-path="url(#clip642)" style="stroke:#000000; stroke-width:4; stroke-opacity:1; fill:none" points="
  1303.05,786.194 1303.05,1445.72 1332.09,1445.72 1332.09,786.194 1303.05,786.194 
  "/>
<path clip-path="url(#clip642)" d="
M1332.09 87.9763 L1332.09 1445.72 L1361.14 1445.72 L1361.14 87.9763 L1332.09 87.9763 L1332.09 87.9763  Z
  " fill="#009af9" fill-rule="evenodd" fill-opacity="1"/>
<polyline clip-path="url(#clip642)" style="stroke:#000000; stroke-width:4; stroke-opacity:1; fill:none" points="
  1332.09,87.9763 1332.09,1445.72 1361.14,1445.72 1361.14,87.9763 1332.09,87.9763 
  "/>
<path clip-path="url(#clip642)" d="
M1361.14 163.687 L1361.14 1445.72 L1390.18 1445.72 L1390.18 163.687 L1361.14 163.687 L1361.14 163.687  Z
  " fill="#009af9" fill-rule="evenodd" fill-opacity="1"/>
<polyline clip-path="url(#clip642)" style="stroke:#000000; stroke-width:4; stroke-opacity:1; fill:none" points="
  1361.14,163.687 1361.14,1445.72 1390.18,1445.72 1390.18,163.687 1361.14,163.687 
  "/>
<path clip-path="url(#clip642)" d="
M1390.18 808.066 L1390.18 1445.72 L1419.23 1445.72 L1419.23 808.066 L1390.18 808.066 L1390.18 808.066  Z
  " fill="#009af9" fill-rule="evenodd" fill-opacity="1"/>
<polyline clip-path="url(#clip642)" style="stroke:#000000; stroke-width:4; stroke-opacity:1; fill:none" points="
  1390.18,808.066 1390.18,1445.72 1419.23,1445.72 1419.23,808.066 1390.18,808.066 
  "/>
<path clip-path="url(#clip642)" d="
M1419.23 1233.73 L1419.23 1445.72 L1448.27 1445.72 L1448.27 1233.73 L1419.23 1233.73 L1419.23 1233.73  Z
  " fill="#009af9" fill-rule="evenodd" fill-opacity="1"/>
<polyline clip-path="url(#clip642)" style="stroke:#000000; stroke-width:4; stroke-opacity:1; fill:none" points="
  1419.23,1233.73 1419.23,1445.72 1448.27,1445.72 1448.27,1233.73 1419.23,1233.73 
  "/>
<path clip-path="url(#clip642)" d="
M1448.27 1314.48 L1448.27 1445.72 L1477.32 1445.72 L1477.32 1314.48 L1448.27 1314.48 L1448.27 1314.48  Z
  " fill="#009af9" fill-rule="evenodd" fill-opacity="1"/>
<polyline clip-path="url(#clip642)" style="stroke:#000000; stroke-width:4; stroke-opacity:1; fill:none" points="
  1448.27,1314.48 1448.27,1445.72 1477.32,1445.72 1477.32,1314.48 1448.27,1314.48 
  "/>
<path clip-path="url(#clip642)" d="
M1477.32 1348.13 L1477.32 1445.72 L1506.36 1445.72 L1506.36 1348.13 L1477.32 1348.13 L1477.32 1348.13  Z
  " fill="#009af9" fill-rule="evenodd" fill-opacity="1"/>
<polyline clip-path="url(#clip642)" style="stroke:#000000; stroke-width:4; stroke-opacity:1; fill:none" points="
  1477.32,1348.13 1477.32,1445.72 1506.36,1445.72 1506.36,1348.13 1477.32,1348.13 
  "/>
<path clip-path="url(#clip642)" d="
M1506.36 1329.63 L1506.36 1445.72 L1535.41 1445.72 L1535.41 1329.63 L1506.36 1329.63 L1506.36 1329.63  Z
  " fill="#009af9" fill-rule="evenodd" fill-opacity="1"/>
<polyline clip-path="url(#clip642)" style="stroke:#000000; stroke-width:4; stroke-opacity:1; fill:none" points="
  1506.36,1329.63 1506.36,1445.72 1535.41,1445.72 1535.41,1329.63 1506.36,1329.63 
  "/>
<path clip-path="url(#clip642)" d="
M1535.41 1334.67 L1535.41 1445.72 L1564.45 1445.72 L1564.45 1334.67 L1535.41 1334.67 L1535.41 1334.67  Z
  " fill="#009af9" fill-rule="evenodd" fill-opacity="1"/>
<polyline clip-path="url(#clip642)" style="stroke:#000000; stroke-width:4; stroke-opacity:1; fill:none" points="
  1535.41,1334.67 1535.41,1445.72 1564.45,1445.72 1564.45,1334.67 1535.41,1334.67 
  "/>
<path clip-path="url(#clip642)" d="
M1564.45 1368.32 L1564.45 1445.72 L1593.5 1445.72 L1593.5 1368.32 L1564.45 1368.32 L1564.45 1368.32  Z
  " fill="#009af9" fill-rule="evenodd" fill-opacity="1"/>
<polyline clip-path="url(#clip642)" style="stroke:#000000; stroke-width:4; stroke-opacity:1; fill:none" points="
  1564.45,1368.32 1564.45,1445.72 1593.5,1445.72 1593.5,1368.32 1564.45,1368.32 
  "/>
<path clip-path="url(#clip642)" d="
M1593.5 1381.78 L1593.5 1445.72 L1622.54 1445.72 L1622.54 1381.78 L1593.5 1381.78 L1593.5 1381.78  Z
  " fill="#009af9" fill-rule="evenodd" fill-opacity="1"/>
<polyline clip-path="url(#clip642)" style="stroke:#000000; stroke-width:4; stroke-opacity:1; fill:none" points="
  1593.5,1381.78 1593.5,1445.72 1622.54,1445.72 1622.54,1381.78 1593.5,1381.78 
  "/>
<path clip-path="url(#clip642)" d="
M1622.54 1370.01 L1622.54 1445.72 L1651.59 1445.72 L1651.59 1370.01 L1622.54 1370.01 L1622.54 1370.01  Z
  " fill="#009af9" fill-rule="evenodd" fill-opacity="1"/>
<polyline clip-path="url(#clip642)" style="stroke:#000000; stroke-width:4; stroke-opacity:1; fill:none" points="
  1622.54,1370.01 1622.54,1445.72 1651.59,1445.72 1651.59,1370.01 1622.54,1370.01 
  "/>
<path clip-path="url(#clip642)" d="
M1651.59 1388.51 L1651.59 1445.72 L1680.63 1445.72 L1680.63 1388.51 L1651.59 1388.51 L1651.59 1388.51  Z
  " fill="#009af9" fill-rule="evenodd" fill-opacity="1"/>
<polyline clip-path="url(#clip642)" style="stroke:#000000; stroke-width:4; stroke-opacity:1; fill:none" points="
  1651.59,1388.51 1651.59,1445.72 1680.63,1445.72 1680.63,1388.51 1651.59,1388.51 
  "/>
<path clip-path="url(#clip642)" d="
M1680.63 1401.97 L1680.63 1445.72 L1709.68 1445.72 L1709.68 1401.97 L1680.63 1401.97 L1680.63 1401.97  Z
  " fill="#009af9" fill-rule="evenodd" fill-opacity="1"/>
<polyline clip-path="url(#clip642)" style="stroke:#000000; stroke-width:4; stroke-opacity:1; fill:none" points="
  1680.63,1401.97 1680.63,1445.72 1709.68,1445.72 1709.68,1401.97 1680.63,1401.97 
  "/>
<path clip-path="url(#clip642)" d="
M1709.68 1400.29 L1709.68 1445.72 L1738.72 1445.72 L1738.72 1400.29 L1709.68 1400.29 L1709.68 1400.29  Z
  " fill="#009af9" fill-rule="evenodd" fill-opacity="1"/>
<polyline clip-path="url(#clip642)" style="stroke:#000000; stroke-width:4; stroke-opacity:1; fill:none" points="
  1709.68,1400.29 1709.68,1445.72 1738.72,1445.72 1738.72,1400.29 1709.68,1400.29 
  "/>
<path clip-path="url(#clip642)" d="
M1738.72 1408.7 L1738.72 1445.72 L1767.77 1445.72 L1767.77 1408.7 L1738.72 1408.7 L1738.72 1408.7  Z
  " fill="#009af9" fill-rule="evenodd" fill-opacity="1"/>
<polyline clip-path="url(#clip642)" style="stroke:#000000; stroke-width:4; stroke-opacity:1; fill:none" points="
  1738.72,1408.7 1738.72,1445.72 1767.77,1445.72 1767.77,1408.7 1738.72,1408.7 
  "/>
<path clip-path="url(#clip642)" d="
M1767.77 1415.43 L1767.77 1445.72 L1796.81 1445.72 L1796.81 1415.43 L1767.77 1415.43 L1767.77 1415.43  Z
  " fill="#009af9" fill-rule="evenodd" fill-opacity="1"/>
<polyline clip-path="url(#clip642)" style="stroke:#000000; stroke-width:4; stroke-opacity:1; fill:none" points="
  1767.77,1415.43 1767.77,1445.72 1796.81,1445.72 1796.81,1415.43 1767.77,1415.43 
  "/>
<path clip-path="url(#clip642)" d="
M1796.81 1420.48 L1796.81 1445.72 L1825.86 1445.72 L1825.86 1420.48 L1796.81 1420.48 L1796.81 1420.48  Z
  " fill="#009af9" fill-rule="evenodd" fill-opacity="1"/>
<polyline clip-path="url(#clip642)" style="stroke:#000000; stroke-width:4; stroke-opacity:1; fill:none" points="
  1796.81,1420.48 1796.81,1445.72 1825.86,1445.72 1825.86,1420.48 1796.81,1420.48 
  "/>
<path clip-path="url(#clip642)" d="
M1825.86 1428.89 L1825.86 1445.72 L1854.91 1445.72 L1854.91 1428.89 L1825.86 1428.89 L1825.86 1428.89  Z
  " fill="#009af9" fill-rule="evenodd" fill-opacity="1"/>
<polyline clip-path="url(#clip642)" style="stroke:#000000; stroke-width:4; stroke-opacity:1; fill:none" points="
  1825.86,1428.89 1825.86,1445.72 1854.91,1445.72 1854.91,1428.89 1825.86,1428.89 
  "/>
<path clip-path="url(#clip642)" d="
M1854.91 1432.26 L1854.91 1445.72 L1883.95 1445.72 L1883.95 1432.26 L1854.91 1432.26 L1854.91 1432.26  Z
  " fill="#009af9" fill-rule="evenodd" fill-opacity="1"/>
<polyline clip-path="url(#clip642)" style="stroke:#000000; stroke-width:4; stroke-opacity:1; fill:none" points="
  1854.91,1432.26 1854.91,1445.72 1883.95,1445.72 1883.95,1432.26 1854.91,1432.26 
  "/>
<path clip-path="url(#clip642)" d="
M1883.95 1427.21 L1883.95 1445.72 L1913 1445.72 L1913 1427.21 L1883.95 1427.21 L1883.95 1427.21  Z
  " fill="#009af9" fill-rule="evenodd" fill-opacity="1"/>
<polyline clip-path="url(#clip642)" style="stroke:#000000; stroke-width:4; stroke-opacity:1; fill:none" points="
  1883.95,1427.21 1883.95,1445.72 1913,1445.72 1913,1427.21 1883.95,1427.21 
  "/>
<path clip-path="url(#clip642)" d="
M1913 1437.3 L1913 1445.72 L1942.04 1445.72 L1942.04 1437.3 L1913 1437.3 L1913 1437.3  Z
  " fill="#009af9" fill-rule="evenodd" fill-opacity="1"/>
<polyline clip-path="url(#clip642)" style="stroke:#000000; stroke-width:4; stroke-opacity:1; fill:none" points="
  1913,1437.3 1913,1445.72 1942.04,1445.72 1942.04,1437.3 1913,1437.3 
  "/>
<path clip-path="url(#clip642)" d="
M1942.04 1440.67 L1942.04 1445.72 L1971.09 1445.72 L1971.09 1440.67 L1942.04 1440.67 L1942.04 1440.67  Z
  " fill="#009af9" fill-rule="evenodd" fill-opacity="1"/>
<polyline clip-path="url(#clip642)" style="stroke:#000000; stroke-width:4; stroke-opacity:1; fill:none" points="
  1942.04,1440.67 1942.04,1445.72 1971.09,1445.72 1971.09,1440.67 1942.04,1440.67 
  "/>
<path clip-path="url(#clip642)" d="
M1971.09 1440.67 L1971.09 1445.72 L2000.13 1445.72 L2000.13 1440.67 L1971.09 1440.67 L1971.09 1440.67  Z
  " fill="#009af9" fill-rule="evenodd" fill-opacity="1"/>
<polyline clip-path="url(#clip642)" style="stroke:#000000; stroke-width:4; stroke-opacity:1; fill:none" points="
  1971.09,1440.67 1971.09,1445.72 2000.13,1445.72 2000.13,1440.67 1971.09,1440.67 
  "/>
<path clip-path="url(#clip642)" d="
M2000.13 1442.35 L2000.13 1445.72 L2029.18 1445.72 L2029.18 1442.35 L2000.13 1442.35 L2000.13 1442.35  Z
  " fill="#009af9" fill-rule="evenodd" fill-opacity="1"/>
<polyline clip-path="url(#clip642)" style="stroke:#000000; stroke-width:4; stroke-opacity:1; fill:none" points="
  2000.13,1442.35 2000.13,1445.72 2029.18,1445.72 2029.18,1442.35 2000.13,1442.35 
  "/>
<path clip-path="url(#clip642)" d="
M2029.18 1444.03 L2029.18 1445.72 L2058.22 1445.72 L2058.22 1444.03 L2029.18 1444.03 L2029.18 1444.03  Z
  " fill="#009af9" fill-rule="evenodd" fill-opacity="1"/>
<polyline clip-path="url(#clip642)" style="stroke:#000000; stroke-width:4; stroke-opacity:1; fill:none" points="
  2029.18,1444.03 2029.18,1445.72 2058.22,1445.72 2058.22,1444.03 2029.18,1444.03 
  "/>
<path clip-path="url(#clip642)" d="
M2058.22 1444.03 L2058.22 1445.72 L2087.27 1445.72 L2087.27 1444.03 L2058.22 1444.03 L2058.22 1444.03  Z
  " fill="#009af9" fill-rule="evenodd" fill-opacity="1"/>
<polyline clip-path="url(#clip642)" style="stroke:#000000; stroke-width:4; stroke-opacity:1; fill:none" points="
  2058.22,1444.03 2058.22,1445.72 2087.27,1445.72 2087.27,1444.03 2058.22,1444.03 
  "/>
<path clip-path="url(#clip642)" d="
M2087.27 1442.35 L2087.27 1445.72 L2116.31 1445.72 L2116.31 1442.35 L2087.27 1442.35 L2087.27 1442.35  Z
  " fill="#009af9" fill-rule="evenodd" fill-opacity="1"/>
<polyline clip-path="url(#clip642)" style="stroke:#000000; stroke-width:4; stroke-opacity:1; fill:none" points="
  2087.27,1442.35 2087.27,1445.72 2116.31,1445.72 2116.31,1442.35 2087.27,1442.35 
  "/>
<path clip-path="url(#clip642)" d="
M2116.31 1444.03 L2116.31 1445.72 L2145.36 1445.72 L2145.36 1444.03 L2116.31 1444.03 L2116.31 1444.03  Z
  " fill="#009af9" fill-rule="evenodd" fill-opacity="1"/>
<polyline clip-path="url(#clip642)" style="stroke:#000000; stroke-width:4; stroke-opacity:1; fill:none" points="
  2116.31,1444.03 2116.31,1445.72 2145.36,1445.72 2145.36,1444.03 2116.31,1444.03 
  "/>
<path clip-path="url(#clip642)" d="
M2145.36 1445.72 L2145.36 1445.72 L2174.4 1445.72 L2174.4 1445.72 L2145.36 1445.72 L2145.36 1445.72  Z
  " fill="#009af9" fill-rule="evenodd" fill-opacity="1"/>
<polyline clip-path="url(#clip642)" style="stroke:#000000; stroke-width:4; stroke-opacity:1; fill:none" points="
  2145.36,1445.72 2145.36,1445.72 2174.4,1445.72 2145.36,1445.72 
  "/>
<path clip-path="url(#clip642)" d="
M2174.4 1444.03 L2174.4 1445.72 L2203.45 1445.72 L2203.45 1444.03 L2174.4 1444.03 L2174.4 1444.03  Z
  " fill="#009af9" fill-rule="evenodd" fill-opacity="1"/>
<polyline clip-path="url(#clip642)" style="stroke:#000000; stroke-width:4; stroke-opacity:1; fill:none" points="
  2174.4,1444.03 2174.4,1445.72 2203.45,1445.72 2203.45,1444.03 2174.4,1444.03 
  "/>
<path clip-path="url(#clip642)" d="
M2203.45 1444.03 L2203.45 1445.72 L2232.49 1445.72 L2232.49 1444.03 L2203.45 1444.03 L2203.45 1444.03  Z
  " fill="#009af9" fill-rule="evenodd" fill-opacity="1"/>
<polyline clip-path="url(#clip642)" style="stroke:#000000; stroke-width:4; stroke-opacity:1; fill:none" points="
  2203.45,1444.03 2203.45,1445.72 2232.49,1445.72 2232.49,1444.03 2203.45,1444.03 
  "/>
<path clip-path="url(#clip640)" d="
M1989.74 251.724 L2280.76 251.724 L2280.76 130.764 L1989.74 130.764  Z
  " fill="#ffffff" fill-rule="evenodd" fill-opacity="1"/>
<polyline clip-path="url(#clip640)" style="stroke:#000000; stroke-width:4; stroke-opacity:1; fill:none" points="
  1989.74,251.724 2280.76,251.724 2280.76,130.764 1989.74,130.764 1989.74,251.724 
  "/>
<path clip-path="url(#clip640)" d="
M2013.74 215.436 L2157.74 215.436 L2157.74 167.052 L2013.74 167.052 L2013.74 215.436  Z
  " fill="#009af9" fill-rule="evenodd" fill-opacity="1"/>
<polyline clip-path="url(#clip640)" style="stroke:#000000; stroke-width:4; stroke-opacity:1; fill:none" points="
  2013.74,215.436 2157.74,215.436 2157.74,167.052 2013.74,167.052 2013.74,215.436 
  "/>
<path clip-path="url(#clip640)" d="M 0 0 M2195.58 210.931 Q2193.77 215.561 2192.06 216.973 Q2190.35 218.385 2187.48 218.385 L2184.08 218.385 L2184.08 214.82 L2186.58 214.82 Q2188.33 214.82 2189.31 213.987 Q2190.28 213.154 2191.46 210.052 L2192.22 208.107 L2181.74 182.598 L2186.25 182.598 L2194.35 202.876 L2202.46 182.598 L2206.97 182.598 L2195.58 210.931 Z" fill="#000000" fill-rule="evenodd" fill-opacity="1" /><path clip-path="url(#clip640)" d="M 0 0 M2212.85 204.589 L2220.49 204.589 L2220.49 178.223 L2212.18 179.89 L2212.18 175.631 L2220.44 173.964 L2225.12 173.964 L2225.12 204.589 L2232.76 204.589 L2232.76 208.524 L2212.85 208.524 L2212.85 204.589 Z" fill="#000000" fill-rule="evenodd" fill-opacity="1" /></svg>
