<?xml version="1.0" encoding="utf-8"?>
<svg xmlns="http://www.w3.org/2000/svg" xmlns:xlink="http://www.w3.org/1999/xlink" width="600" height="400" viewBox="0 0 2400 1600">
<defs>
  <clipPath id="clip120">
    <rect x="0" y="0" width="2400" height="1600"/>
  </clipPath>
</defs>
<path clip-path="url(#clip120)" d="
M0 1600 L2400 1600 L2400 0 L0 0  Z
  " fill="#ffffff" fill-rule="evenodd" fill-opacity="1"/>
<defs>
  <clipPath id="clip121">
    <rect x="480" y="0" width="1681" height="1600"/>
  </clipPath>
</defs>
<path clip-path="url(#clip120)" d="
M166.205 1486.45 L2352.76 1486.45 L2352.76 47.2441 L166.205 47.2441  Z
  " fill="#ffffff" fill-rule="evenodd" fill-opacity="1"/>
<defs>
  <clipPath id="clip122">
    <rect x="166" y="47" width="2188" height="1440"/>
  </clipPath>
</defs>
<polyline clip-path="url(#clip122)" style="stroke:#000000; stroke-width:2; stroke-opacity:0.1; fill:none" points="
  470.552,1486.45 470.552,47.2441 
  "/>
<polyline clip-path="url(#clip122)" style="stroke:#000000; stroke-width:2; stroke-opacity:0.1; fill:none" points="
  799.272,1486.45 799.272,47.2441 
  "/>
<polyline clip-path="url(#clip122)" style="stroke:#000000; stroke-width:2; stroke-opacity:0.1; fill:none" points="
  1127.99,1486.45 1127.99,47.2441 
  "/>
<polyline clip-path="url(#clip122)" style="stroke:#000000; stroke-width:2; stroke-opacity:0.1; fill:none" points="
  1456.71,1486.45 1456.71,47.2441 
  "/>
<polyline clip-path="url(#clip122)" style="stroke:#000000; stroke-width:2; stroke-opacity:0.1; fill:none" points="
  1785.43,1486.45 1785.43,47.2441 
  "/>
<polyline clip-path="url(#clip122)" style="stroke:#000000; stroke-width:2; stroke-opacity:0.1; fill:none" points="
  2114.15,1486.45 2114.15,47.2441 
  "/>
<polyline clip-path="url(#clip122)" style="stroke:#000000; stroke-width:2; stroke-opacity:0.1; fill:none" points="
  166.205,1445.72 2352.76,1445.72 
  "/>
<polyline clip-path="url(#clip122)" style="stroke:#000000; stroke-width:2; stroke-opacity:0.1; fill:none" points="
  166.205,1101.55 2352.76,1101.55 
  "/>
<polyline clip-path="url(#clip122)" style="stroke:#000000; stroke-width:2; stroke-opacity:0.1; fill:none" points="
  166.205,757.381 2352.76,757.381 
  "/>
<polyline clip-path="url(#clip122)" style="stroke:#000000; stroke-width:2; stroke-opacity:0.1; fill:none" points="
  166.205,413.214 2352.76,413.214 
  "/>
<polyline clip-path="url(#clip122)" style="stroke:#000000; stroke-width:2; stroke-opacity:0.1; fill:none" points="
  166.205,69.0471 2352.76,69.0471 
  "/>
<polyline clip-path="url(#clip120)" style="stroke:#000000; stroke-width:4; stroke-opacity:1; fill:none" points="
  166.205,1486.45 2352.76,1486.45 
  "/>
<polyline clip-path="url(#clip120)" style="stroke:#000000; stroke-width:4; stroke-opacity:1; fill:none" points="
  166.205,1486.45 166.205,47.2441 
  "/>
<polyline clip-path="url(#clip120)" style="stroke:#000000; stroke-width:4; stroke-opacity:1; fill:none" points="
  470.552,1486.45 470.552,1469.18 
  "/>
<polyline clip-path="url(#clip120)" style="stroke:#000000; stroke-width:4; stroke-opacity:1; fill:none" points="
  799.272,1486.45 799.272,1469.18 
  "/>
<polyline clip-path="url(#clip120)" style="stroke:#000000; stroke-width:4; stroke-opacity:1; fill:none" points="
  1127.99,1486.45 1127.99,1469.18 
  "/>
<polyline clip-path="url(#clip120)" style="stroke:#000000; stroke-width:4; stroke-opacity:1; fill:none" points="
  1456.71,1486.45 1456.71,1469.18 
  "/>
<polyline clip-path="url(#clip120)" style="stroke:#000000; stroke-width:4; stroke-opacity:1; fill:none" points="
  1785.43,1486.45 1785.43,1469.18 
  "/>
<polyline clip-path="url(#clip120)" style="stroke:#000000; stroke-width:4; stroke-opacity:1; fill:none" points="
  2114.15,1486.45 2114.15,1469.18 
  "/>
<polyline clip-path="url(#clip120)" style="stroke:#000000; stroke-width:4; stroke-opacity:1; fill:none" points="
  166.205,1445.72 192.443,1445.72 
  "/>
<polyline clip-path="url(#clip120)" style="stroke:#000000; stroke-width:4; stroke-opacity:1; fill:none" points="
  166.205,1101.55 192.443,1101.55 
  "/>
<polyline clip-path="url(#clip120)" style="stroke:#000000; stroke-width:4; stroke-opacity:1; fill:none" points="
  166.205,757.381 192.443,757.381 
  "/>
<polyline clip-path="url(#clip120)" style="stroke:#000000; stroke-width:4; stroke-opacity:1; fill:none" points="
  166.205,413.214 192.443,413.214 
  "/>
<polyline clip-path="url(#clip120)" style="stroke:#000000; stroke-width:4; stroke-opacity:1; fill:none" points="
  166.205,69.0471 192.443,69.0471 
  "/>
<path clip-path="url(#clip120)" d="M 0 0 M432.821 1525.04 L445.298 1525.04 L445.298 1528.83 L432.821 1528.83 L432.821 1525.04 Z" fill="#000000" fill-rule="evenodd" fill-opacity="1" /><path clip-path="url(#clip120)" d="M 0 0 M450.413 1505.36 L468.77 1505.36 L468.77 1509.3 L454.696 1509.3 L454.696 1517.77 Q455.714 1517.42 456.733 1517.26 Q457.751 1517.07 458.77 1517.07 Q464.557 1517.07 467.936 1520.24 Q471.316 1523.42 471.316 1528.83 Q471.316 1534.41 467.844 1537.51 Q464.372 1540.59 458.052 1540.59 Q455.876 1540.59 453.608 1540.22 Q451.362 1539.85 448.955 1539.11 L448.955 1534.41 Q451.038 1535.54 453.261 1536.1 Q455.483 1536.66 457.96 1536.66 Q461.964 1536.66 464.302 1534.55 Q466.64 1532.44 466.64 1528.83 Q466.64 1525.22 464.302 1523.11 Q461.964 1521.01 457.96 1521.01 Q456.085 1521.01 454.21 1521.42 Q452.358 1521.84 450.413 1522.72 L450.413 1505.36 Z" fill="#000000" fill-rule="evenodd" fill-opacity="1" /><path clip-path="url(#clip120)" d="M 0 0 M476.385 1534.04 L481.27 1534.04 L481.27 1539.92 L476.385 1539.92 L476.385 1534.04 Z" fill="#000000" fill-rule="evenodd" fill-opacity="1" /><path clip-path="url(#clip120)" d="M 0 0 M496.339 1508.44 Q492.728 1508.44 490.899 1512 Q489.094 1515.55 489.094 1522.67 Q489.094 1529.78 490.899 1533.35 Q492.728 1536.89 496.339 1536.89 Q499.973 1536.89 501.779 1533.35 Q503.607 1529.78 503.607 1522.67 Q503.607 1515.55 501.779 1512 Q499.973 1508.44 496.339 1508.44 M496.339 1504.73 Q502.149 1504.73 505.205 1509.34 Q508.283 1513.92 508.283 1522.67 Q508.283 1531.4 505.205 1536.01 Q502.149 1540.59 496.339 1540.59 Q490.529 1540.59 487.45 1536.01 Q484.395 1531.4 484.395 1522.67 Q484.395 1513.92 487.45 1509.34 Q490.529 1504.73 496.339 1504.73 Z" fill="#000000" fill-rule="evenodd" fill-opacity="1" /><path clip-path="url(#clip120)" d="M 0 0 M762.34 1525.04 L774.816 1525.04 L774.816 1528.83 L762.34 1528.83 L762.34 1525.04 Z" fill="#000000" fill-rule="evenodd" fill-opacity="1" /><path clip-path="url(#clip120)" d="M 0 0 M783.913 1535.98 L800.233 1535.98 L800.233 1539.92 L778.289 1539.92 L778.289 1535.98 Q780.951 1533.23 785.534 1528.6 Q790.14 1523.95 791.321 1522.61 Q793.566 1520.08 794.446 1518.35 Q795.349 1516.59 795.349 1514.9 Q795.349 1512.14 793.404 1510.41 Q791.483 1508.67 788.381 1508.67 Q786.182 1508.67 783.728 1509.43 Q781.298 1510.2 778.52 1511.75 L778.52 1507.03 Q781.344 1505.89 783.798 1505.31 Q786.251 1504.73 788.288 1504.73 Q793.659 1504.73 796.853 1507.42 Q800.048 1510.11 800.048 1514.6 Q800.048 1516.73 799.237 1518.65 Q798.45 1520.54 796.344 1523.14 Q795.765 1523.81 792.663 1527.03 Q789.562 1530.22 783.913 1535.98 Z" fill="#000000" fill-rule="evenodd" fill-opacity="1" /><path clip-path="url(#clip120)" d="M 0 0 M805.302 1534.04 L810.186 1534.04 L810.186 1539.92 L805.302 1539.92 L805.302 1534.04 Z" fill="#000000" fill-rule="evenodd" fill-opacity="1" /><path clip-path="url(#clip120)" d="M 0 0 M815.302 1505.36 L833.659 1505.36 L833.659 1509.3 L819.585 1509.3 L819.585 1517.77 Q820.603 1517.42 821.622 1517.26 Q822.64 1517.07 823.659 1517.07 Q829.446 1517.07 832.825 1520.24 Q836.205 1523.42 836.205 1528.83 Q836.205 1534.41 832.733 1537.51 Q829.26 1540.59 822.941 1540.59 Q820.765 1540.59 818.497 1540.22 Q816.251 1539.85 813.844 1539.11 L813.844 1534.41 Q815.927 1535.54 818.149 1536.1 Q820.372 1536.66 822.848 1536.66 Q826.853 1536.66 829.191 1534.55 Q831.529 1532.44 831.529 1528.83 Q831.529 1525.22 829.191 1523.11 Q826.853 1521.01 822.848 1521.01 Q820.973 1521.01 819.098 1521.42 Q817.247 1521.84 815.302 1522.72 L815.302 1505.36 Z" fill="#000000" fill-rule="evenodd" fill-opacity="1" /><path clip-path="url(#clip120)" d="M 0 0 M1109.51 1508.44 Q1105.9 1508.44 1104.07 1512 Q1102.26 1515.55 1102.26 1522.67 Q1102.26 1529.78 1104.07 1533.35 Q1105.9 1536.89 1109.51 1536.89 Q1113.14 1536.89 1114.95 1533.35 Q1116.78 1529.78 1116.78 1522.67 Q1116.78 1515.55 1114.95 1512 Q1113.14 1508.44 1109.51 1508.44 M1109.51 1504.73 Q1115.32 1504.73 1118.37 1509.34 Q1121.45 1513.92 1121.45 1522.67 Q1121.45 1531.4 1118.37 1536.01 Q1115.32 1540.59 1109.51 1540.59 Q1103.7 1540.59 1100.62 1536.01 Q1097.56 1531.4 1097.56 1522.67 Q1097.56 1513.92 1100.62 1509.34 Q1103.7 1504.73 1109.51 1504.73 Z" fill="#000000" fill-rule="evenodd" fill-opacity="1" /><path clip-path="url(#clip120)" d="M 0 0 M1126.52 1534.04 L1131.41 1534.04 L1131.41 1539.92 L1126.52 1539.92 L1126.52 1534.04 Z" fill="#000000" fill-rule="evenodd" fill-opacity="1" /><path clip-path="url(#clip120)" d="M 0 0 M1146.48 1508.44 Q1142.86 1508.44 1141.04 1512 Q1139.23 1515.55 1139.23 1522.67 Q1139.23 1529.78 1141.04 1533.35 Q1142.86 1536.89 1146.48 1536.89 Q1150.11 1536.89 1151.92 1533.35 Q1153.74 1529.78 1153.74 1522.67 Q1153.74 1515.55 1151.92 1512 Q1150.11 1508.44 1146.48 1508.44 M1146.48 1504.73 Q1152.29 1504.73 1155.34 1509.34 Q1158.42 1513.92 1158.42 1522.67 Q1158.42 1531.4 1155.34 1536.01 Q1152.29 1540.59 1146.48 1540.59 Q1140.67 1540.59 1137.59 1536.01 Q1134.53 1531.4 1134.53 1522.67 Q1134.53 1513.92 1137.59 1509.34 Q1140.67 1504.73 1146.48 1504.73 Z" fill="#000000" fill-rule="evenodd" fill-opacity="1" /><path clip-path="url(#clip120)" d="M 0 0 M1433.38 1535.98 L1449.7 1535.98 L1449.7 1539.92 L1427.75 1539.92 L1427.75 1535.98 Q1430.42 1533.23 1435 1528.6 Q1439.61 1523.95 1440.79 1522.61 Q1443.03 1520.08 1443.91 1518.35 Q1444.81 1516.59 1444.81 1514.9 Q1444.81 1512.14 1442.87 1510.41 Q1440.95 1508.67 1437.85 1508.67 Q1435.65 1508.67 1433.19 1509.43 Q1430.76 1510.2 1427.99 1511.75 L1427.99 1507.03 Q1430.81 1505.89 1433.26 1505.31 Q1435.72 1504.73 1437.75 1504.73 Q1443.12 1504.73 1446.32 1507.42 Q1449.51 1510.11 1449.51 1514.6 Q1449.51 1516.73 1448.7 1518.65 Q1447.92 1520.54 1445.81 1523.14 Q1445.23 1523.81 1442.13 1527.03 Q1439.03 1530.22 1433.38 1535.98 Z" fill="#000000" fill-rule="evenodd" fill-opacity="1" /><path clip-path="url(#clip120)" d="M 0 0 M1454.77 1534.04 L1459.65 1534.04 L1459.65 1539.92 L1454.77 1539.92 L1454.77 1534.04 Z" fill="#000000" fill-rule="evenodd" fill-opacity="1" /><path clip-path="url(#clip120)" d="M 0 0 M1464.77 1505.36 L1483.12 1505.36 L1483.12 1509.3 L1469.05 1509.3 L1469.05 1517.77 Q1470.07 1517.42 1471.09 1517.26 Q1472.11 1517.07 1473.12 1517.07 Q1478.91 1517.07 1482.29 1520.24 Q1485.67 1523.42 1485.67 1528.83 Q1485.67 1534.41 1482.2 1537.51 Q1478.73 1540.59 1472.41 1540.59 Q1470.23 1540.59 1467.96 1540.22 Q1465.72 1539.85 1463.31 1539.11 L1463.31 1534.41 Q1465.39 1535.54 1467.62 1536.1 Q1469.84 1536.66 1472.31 1536.66 Q1476.32 1536.66 1478.66 1534.55 Q1480.99 1532.44 1480.99 1528.83 Q1480.99 1525.22 1478.66 1523.11 Q1476.32 1521.01 1472.31 1521.01 Q1470.44 1521.01 1468.56 1521.42 Q1466.71 1521.84 1464.77 1522.72 L1464.77 1505.36 Z" fill="#000000" fill-rule="evenodd" fill-opacity="1" /><path clip-path="url(#clip120)" d="M 0 0 M1757.23 1505.36 L1775.58 1505.36 L1775.58 1509.3 L1761.51 1509.3 L1761.51 1517.77 Q1762.53 1517.42 1763.55 1517.26 Q1764.56 1517.07 1765.58 1517.07 Q1771.37 1517.07 1774.75 1520.24 Q1778.13 1523.42 1778.13 1528.83 Q1778.13 1534.41 1774.66 1537.51 Q1771.18 1540.59 1764.87 1540.59 Q1762.69 1540.59 1760.42 1540.22 Q1758.18 1539.85 1755.77 1539.11 L1755.77 1534.41 Q1757.85 1535.54 1760.07 1536.1 Q1762.3 1536.66 1764.77 1536.66 Q1768.78 1536.66 1771.12 1534.55 Q1773.45 1532.44 1773.45 1528.83 Q1773.45 1525.22 1771.12 1523.11 Q1768.78 1521.01 1764.77 1521.01 Q1762.9 1521.01 1761.02 1521.42 Q1759.17 1521.84 1757.23 1522.72 L1757.23 1505.36 Z" fill="#000000" fill-rule="evenodd" fill-opacity="1" /><path clip-path="url(#clip120)" d="M 0 0 M1783.2 1534.04 L1788.08 1534.04 L1788.08 1539.92 L1783.2 1539.92 L1783.2 1534.04 Z" fill="#000000" fill-rule="evenodd" fill-opacity="1" /><path clip-path="url(#clip120)" d="M 0 0 M1803.15 1508.44 Q1799.54 1508.44 1797.71 1512 Q1795.91 1515.55 1795.91 1522.67 Q1795.91 1529.78 1797.71 1533.35 Q1799.54 1536.89 1803.15 1536.89 Q1806.79 1536.89 1808.59 1533.35 Q1810.42 1529.78 1810.42 1522.67 Q1810.42 1515.55 1808.59 1512 Q1806.79 1508.44 1803.15 1508.44 M1803.15 1504.73 Q1808.96 1504.73 1812.02 1509.34 Q1815.1 1513.92 1815.1 1522.67 Q1815.1 1531.4 1812.02 1536.01 Q1808.96 1540.59 1803.15 1540.59 Q1797.34 1540.59 1794.26 1536.01 Q1791.21 1531.4 1791.21 1522.67 Q1791.21 1513.92 1794.26 1509.34 Q1797.34 1504.73 1803.15 1504.73 Z" fill="#000000" fill-rule="evenodd" fill-opacity="1" /><path clip-path="url(#clip120)" d="M 0 0 M2085.06 1505.36 L2107.28 1505.36 L2107.28 1507.35 L2094.73 1539.92 L2089.85 1539.92 L2101.65 1509.3 L2085.06 1509.3 L2085.06 1505.36 Z" fill="#000000" fill-rule="evenodd" fill-opacity="1" /><path clip-path="url(#clip120)" d="M 0 0 M2112.35 1534.04 L2117.23 1534.04 L2117.23 1539.92 L2112.35 1539.92 L2112.35 1534.04 Z" fill="#000000" fill-rule="evenodd" fill-opacity="1" /><path clip-path="url(#clip120)" d="M 0 0 M2122.35 1505.36 L2140.7 1505.36 L2140.7 1509.3 L2126.63 1509.3 L2126.63 1517.77 Q2127.65 1517.42 2128.67 1517.26 Q2129.68 1517.07 2130.7 1517.07 Q2136.49 1517.07 2139.87 1520.24 Q2143.25 1523.42 2143.25 1528.83 Q2143.25 1534.41 2139.78 1537.51 Q2136.31 1540.59 2129.99 1540.59 Q2127.81 1540.59 2125.54 1540.22 Q2123.3 1539.85 2120.89 1539.11 L2120.89 1534.41 Q2122.97 1535.54 2125.19 1536.1 Q2127.42 1536.66 2129.89 1536.66 Q2133.9 1536.66 2136.24 1534.55 Q2138.57 1532.44 2138.57 1528.83 Q2138.57 1525.22 2136.24 1523.11 Q2133.9 1521.01 2129.89 1521.01 Q2128.02 1521.01 2126.14 1521.42 Q2124.29 1521.84 2122.35 1522.72 L2122.35 1505.36 Z" fill="#000000" fill-rule="evenodd" fill-opacity="1" /><path clip-path="url(#clip120)" d="M 0 0 M130.26 1431.51 Q126.649 1431.51 124.82 1435.08 Q123.015 1438.62 123.015 1445.75 Q123.015 1452.86 124.82 1456.42 Q126.649 1459.96 130.26 1459.96 Q133.895 1459.96 135.7 1456.42 Q137.529 1452.86 137.529 1445.75 Q137.529 1438.62 135.7 1435.08 Q133.895 1431.51 130.26 1431.51 M130.26 1427.81 Q136.07 1427.81 139.126 1432.42 Q142.205 1437 142.205 1445.75 Q142.205 1454.48 139.126 1459.08 Q136.07 1463.67 130.26 1463.67 Q124.45 1463.67 121.371 1459.08 Q118.316 1454.48 118.316 1445.75 Q118.316 1437 121.371 1432.42 Q124.45 1427.81 130.26 1427.81 Z" fill="#000000" fill-rule="evenodd" fill-opacity="1" /><path clip-path="url(#clip120)" d="M 0 0 M71.8578 1114.89 L88.1772 1114.89 L88.1772 1118.83 L66.2328 1118.83 L66.2328 1114.89 Q68.8949 1112.14 73.4782 1107.51 Q78.0846 1102.86 79.2652 1101.51 Q81.5105 1098.99 82.3902 1097.25 Q83.2929 1095.5 83.2929 1093.81 Q83.2929 1091.05 81.3485 1089.31 Q79.4272 1087.58 76.3254 1087.58 Q74.1263 1087.58 71.6726 1088.34 Q69.2421 1089.11 66.4643 1090.66 L66.4643 1085.94 Q69.2884 1084.8 71.7421 1084.22 Q74.1958 1083.64 76.2328 1083.64 Q81.6031 1083.64 84.7976 1086.33 Q87.992 1089.01 87.992 1093.5 Q87.992 1095.63 87.1818 1097.56 Q86.3948 1099.45 84.2883 1102.05 Q83.7096 1102.72 80.6078 1105.94 Q77.5059 1109.13 71.8578 1114.89 Z" fill="#000000" fill-rule="evenodd" fill-opacity="1" /><path clip-path="url(#clip120)" d="M 0 0 M103.247 1087.35 Q99.6354 1087.35 97.8068 1090.91 Q96.0012 1094.45 96.0012 1101.58 Q96.0012 1108.69 97.8068 1112.25 Q99.6354 1115.8 103.247 1115.8 Q106.881 1115.8 108.686 1112.25 Q110.515 1108.69 110.515 1101.58 Q110.515 1094.45 108.686 1090.91 Q106.881 1087.35 103.247 1087.35 M103.247 1083.64 Q109.057 1083.64 112.112 1088.25 Q115.191 1092.83 115.191 1101.58 Q115.191 1110.31 112.112 1114.92 Q109.057 1119.5 103.247 1119.5 Q97.4364 1119.5 94.3577 1114.92 Q91.3022 1110.31 91.3022 1101.58 Q91.3022 1092.83 94.3577 1088.25 Q97.4364 1083.64 103.247 1083.64 Z" fill="#000000" fill-rule="evenodd" fill-opacity="1" /><path clip-path="url(#clip120)" d="M 0 0 M130.26 1087.35 Q126.649 1087.35 124.82 1090.91 Q123.015 1094.45 123.015 1101.58 Q123.015 1108.69 124.82 1112.25 Q126.649 1115.8 130.26 1115.8 Q133.895 1115.8 135.7 1112.25 Q137.529 1108.69 137.529 1101.58 Q137.529 1094.45 135.7 1090.91 Q133.895 1087.35 130.26 1087.35 M130.26 1083.64 Q136.07 1083.64 139.126 1088.25 Q142.205 1092.83 142.205 1101.58 Q142.205 1110.31 139.126 1114.92 Q136.07 1119.5 130.26 1119.5 Q124.45 1119.5 121.371 1114.92 Q118.316 1110.31 118.316 1101.58 Q118.316 1092.83 121.371 1088.25 Q124.45 1083.64 130.26 1083.64 Z" fill="#000000" fill-rule="evenodd" fill-opacity="1" /><path clip-path="url(#clip120)" d="M 0 0 M78.5939 744.175 L66.7884 762.624 L78.5939 762.624 L78.5939 744.175 M77.367 740.101 L83.2466 740.101 L83.2466 762.624 L88.1772 762.624 L88.1772 766.513 L83.2466 766.513 L83.2466 774.661 L78.5939 774.661 L78.5939 766.513 L62.9921 766.513 L62.9921 761.999 L77.367 740.101 Z" fill="#000000" fill-rule="evenodd" fill-opacity="1" /><path clip-path="url(#clip120)" d="M 0 0 M103.247 743.18 Q99.6354 743.18 97.8068 746.745 Q96.0012 750.287 96.0012 757.416 Q96.0012 764.523 97.8068 768.087 Q99.6354 771.629 103.247 771.629 Q106.881 771.629 108.686 768.087 Q110.515 764.523 110.515 757.416 Q110.515 750.287 108.686 746.745 Q106.881 743.18 103.247 743.18 M103.247 739.476 Q109.057 739.476 112.112 744.083 Q115.191 748.666 115.191 757.416 Q115.191 766.143 112.112 770.749 Q109.057 775.333 103.247 775.333 Q97.4364 775.333 94.3577 770.749 Q91.3022 766.143 91.3022 757.416 Q91.3022 748.666 94.3577 744.083 Q97.4364 739.476 103.247 739.476 Z" fill="#000000" fill-rule="evenodd" fill-opacity="1" /><path clip-path="url(#clip120)" d="M 0 0 M130.26 743.18 Q126.649 743.18 124.82 746.745 Q123.015 750.287 123.015 757.416 Q123.015 764.523 124.82 768.087 Q126.649 771.629 130.26 771.629 Q133.895 771.629 135.7 768.087 Q137.529 764.523 137.529 757.416 Q137.529 750.287 135.7 746.745 Q133.895 743.18 130.26 743.18 M130.26 739.476 Q136.07 739.476 139.126 744.083 Q142.205 748.666 142.205 757.416 Q142.205 766.143 139.126 770.749 Q136.07 775.333 130.26 775.333 Q124.45 775.333 121.371 770.749 Q118.316 766.143 118.316 757.416 Q118.316 748.666 121.371 744.083 Q124.45 739.476 130.26 739.476 Z" fill="#000000" fill-rule="evenodd" fill-opacity="1" /><path clip-path="url(#clip120)" d="M 0 0 M76.6495 411.351 Q73.5013 411.351 71.6495 413.504 Q69.8208 415.656 69.8208 419.406 Q69.8208 423.133 71.6495 425.309 Q73.5013 427.462 76.6495 427.462 Q79.7976 427.462 81.6263 425.309 Q83.4781 423.133 83.4781 419.406 Q83.4781 415.656 81.6263 413.504 Q79.7976 411.351 76.6495 411.351 M85.9318 396.698 L85.9318 400.957 Q84.1726 400.124 82.367 399.684 Q80.5846 399.244 78.8254 399.244 Q74.1958 399.244 71.7421 402.369 Q69.3115 405.494 68.9643 411.814 Q70.33 409.8 72.3902 408.735 Q74.4504 407.647 76.9272 407.647 Q82.1355 407.647 85.1448 410.818 Q88.1772 413.967 88.1772 419.406 Q88.1772 424.73 85.029 427.948 Q81.8809 431.166 76.6495 431.166 Q70.6541 431.166 67.4828 426.582 Q64.3116 421.976 64.3116 413.249 Q64.3116 405.055 68.2004 400.193 Q72.0893 395.309 78.6402 395.309 Q80.3994 395.309 82.1818 395.656 Q83.9874 396.004 85.9318 396.698 Z" fill="#000000" fill-rule="evenodd" fill-opacity="1" /><path clip-path="url(#clip120)" d="M 0 0 M103.247 399.013 Q99.6354 399.013 97.8068 402.578 Q96.0012 406.119 96.0012 413.249 Q96.0012 420.355 97.8068 423.92 Q99.6354 427.462 103.247 427.462 Q106.881 427.462 108.686 423.92 Q110.515 420.355 110.515 413.249 Q110.515 406.119 108.686 402.578 Q106.881 399.013 103.247 399.013 M103.247 395.309 Q109.057 395.309 112.112 399.916 Q115.191 404.499 115.191 413.249 Q115.191 421.976 112.112 426.582 Q109.057 431.166 103.247 431.166 Q97.4364 431.166 94.3577 426.582 Q91.3022 421.976 91.3022 413.249 Q91.3022 404.499 94.3577 399.916 Q97.4364 395.309 103.247 395.309 Z" fill="#000000" fill-rule="evenodd" fill-opacity="1" /><path clip-path="url(#clip120)" d="M 0 0 M130.26 399.013 Q126.649 399.013 124.82 402.578 Q123.015 406.119 123.015 413.249 Q123.015 420.355 124.82 423.92 Q126.649 427.462 130.26 427.462 Q133.895 427.462 135.7 423.92 Q137.529 420.355 137.529 413.249 Q137.529 406.119 135.7 402.578 Q133.895 399.013 130.26 399.013 M130.26 395.309 Q136.07 395.309 139.126 399.916 Q142.205 404.499 142.205 413.249 Q142.205 421.976 139.126 426.582 Q136.07 431.166 130.26 431.166 Q124.45 431.166 121.371 426.582 Q118.316 421.976 118.316 413.249 Q118.316 404.499 121.371 399.916 Q124.45 395.309 130.26 395.309 Z" fill="#000000" fill-rule="evenodd" fill-opacity="1" /><path clip-path="url(#clip120)" d="M 0 0 M76.3254 69.9151 Q72.9921 69.9151 71.0708 71.6975 Q69.1726 73.4799 69.1726 76.6049 Q69.1726 79.7299 71.0708 81.5123 Q72.9921 83.2947 76.3254 83.2947 Q79.6587 83.2947 81.58 81.5123 Q83.5013 79.7067 83.5013 76.6049 Q83.5013 73.4799 81.58 71.6975 Q79.6819 69.9151 76.3254 69.9151 M71.6495 67.9244 Q68.6402 67.1837 66.9504 65.1235 Q65.2838 63.0633 65.2838 60.1004 Q65.2838 55.9569 68.2236 53.5495 Q71.1865 51.1421 76.3254 51.1421 Q81.4874 51.1421 84.4272 53.5495 Q87.367 55.9569 87.367 60.1004 Q87.367 63.0633 85.6772 65.1235 Q84.0105 67.1837 81.0244 67.9244 Q84.404 68.7114 86.279 71.0031 Q88.1772 73.2947 88.1772 76.6049 Q88.1772 81.628 85.0985 84.3132 Q82.0429 86.9984 76.3254 86.9984 Q70.6078 86.9984 67.5291 84.3132 Q64.4736 81.628 64.4736 76.6049 Q64.4736 73.2947 66.3717 71.0031 Q68.2699 68.7114 71.6495 67.9244 M69.9365 60.5402 Q69.9365 63.2254 71.6032 64.73 Q73.293 66.2346 76.3254 66.2346 Q79.3346 66.2346 81.0244 64.73 Q82.7374 63.2254 82.7374 60.5402 Q82.7374 57.855 81.0244 56.3504 Q79.3346 54.8458 76.3254 54.8458 Q73.293 54.8458 71.6032 56.3504 Q69.9365 57.855 69.9365 60.5402 Z" fill="#000000" fill-rule="evenodd" fill-opacity="1" /><path clip-path="url(#clip120)" d="M 0 0 M103.247 54.8458 Q99.6354 54.8458 97.8068 58.4106 Q96.0012 61.9522 96.0012 69.0818 Q96.0012 76.1882 97.8068 79.753 Q99.6354 83.2947 103.247 83.2947 Q106.881 83.2947 108.686 79.753 Q110.515 76.1882 110.515 69.0818 Q110.515 61.9522 108.686 58.4106 Q106.881 54.8458 103.247 54.8458 M103.247 51.1421 Q109.057 51.1421 112.112 55.7485 Q115.191 60.3319 115.191 69.0818 Q115.191 77.8086 112.112 82.4151 Q109.057 86.9984 103.247 86.9984 Q97.4364 86.9984 94.3577 82.4151 Q91.3022 77.8086 91.3022 69.0818 Q91.3022 60.3319 94.3577 55.7485 Q97.4364 51.1421 103.247 51.1421 Z" fill="#000000" fill-rule="evenodd" fill-opacity="1" /><path clip-path="url(#clip120)" d="M 0 0 M130.26 54.8458 Q126.649 54.8458 124.82 58.4106 Q123.015 61.9522 123.015 69.0818 Q123.015 76.1882 124.82 79.753 Q126.649 83.2947 130.26 83.2947 Q133.895 83.2947 135.7 79.753 Q137.529 76.1882 137.529 69.0818 Q137.529 61.9522 135.7 58.4106 Q133.895 54.8458 130.26 54.8458 M130.26 51.1421 Q136.07 51.1421 139.126 55.7485 Q142.205 60.3319 142.205 69.0818 Q142.205 77.8086 139.126 82.4151 Q136.07 86.9984 130.26 86.9984 Q124.45 86.9984 121.371 82.4151 Q118.316 77.8086 118.316 69.0818 Q118.316 60.3319 121.371 55.7485 Q124.45 51.1421 130.26 51.1421 Z" fill="#000000" fill-rule="evenodd" fill-opacity="1" /><path clip-path="url(#clip122)" d="
M286.469 1443.99 L286.469 1445.72 L312.766 1445.72 L312.766 1443.99 L286.469 1443.99 L286.469 1443.99  Z
  " fill="#009af9" fill-rule="evenodd" fill-opacity="1"/>
<polyline clip-path="url(#clip122)" style="stroke:#000000; stroke-width:4; stroke-opacity:1; fill:none" points="
  286.469,1443.99 286.469,1445.72 312.766,1445.72 312.766,1443.99 286.469,1443.99 
  "/>
<path clip-path="url(#clip122)" d="
M312.766 1443.99 L312.766 1445.72 L339.064 1445.72 L339.064 1443.99 L312.766 1443.99 L312.766 1443.99  Z
  " fill="#009af9" fill-rule="evenodd" fill-opacity="1"/>
<polyline clip-path="url(#clip122)" style="stroke:#000000; stroke-width:4; stroke-opacity:1; fill:none" points="
  312.766,1443.99 312.766,1445.72 339.064,1445.72 339.064,1443.99 312.766,1443.99 
  "/>
<path clip-path="url(#clip122)" d="
M339.064 1438.83 L339.064 1445.72 L365.362 1445.72 L365.362 1438.83 L339.064 1438.83 L339.064 1438.83  Z
  " fill="#009af9" fill-rule="evenodd" fill-opacity="1"/>
<polyline clip-path="url(#clip122)" style="stroke:#000000; stroke-width:4; stroke-opacity:1; fill:none" points="
  339.064,1438.83 339.064,1445.72 365.362,1445.72 365.362,1438.83 339.064,1438.83 
  "/>
<path clip-path="url(#clip122)" d="
M365.362 1440.55 L365.362 1445.72 L391.659 1445.72 L391.659 1440.55 L365.362 1440.55 L365.362 1440.55  Z
  " fill="#009af9" fill-rule="evenodd" fill-opacity="1"/>
<polyline clip-path="url(#clip122)" style="stroke:#000000; stroke-width:4; stroke-opacity:1; fill:none" points="
  365.362,1440.55 365.362,1445.72 391.659,1445.72 391.659,1440.55 365.362,1440.55 
  "/>
<path clip-path="url(#clip122)" d="
M391.659 1440.55 L391.659 1445.72 L417.957 1445.72 L417.957 1440.55 L391.659 1440.55 L391.659 1440.55  Z
  " fill="#009af9" fill-rule="evenodd" fill-opacity="1"/>
<polyline clip-path="url(#clip122)" style="stroke:#000000; stroke-width:4; stroke-opacity:1; fill:none" points="
  391.659,1440.55 391.659,1445.72 417.957,1445.72 417.957,1440.55 391.659,1440.55 
  "/>
<path clip-path="url(#clip122)" d="
M417.957 1440.55 L417.957 1445.72 L444.255 1445.72 L444.255 1440.55 L417.957 1440.55 L417.957 1440.55  Z
  " fill="#009af9" fill-rule="evenodd" fill-opacity="1"/>
<polyline clip-path="url(#clip122)" style="stroke:#000000; stroke-width:4; stroke-opacity:1; fill:none" points="
  417.957,1440.55 417.957,1445.72 444.255,1445.72 444.255,1440.55 417.957,1440.55 
  "/>
<path clip-path="url(#clip122)" d="
M444.255 1437.11 L444.255 1445.72 L470.552 1445.72 L470.552 1437.11 L444.255 1437.11 L444.255 1437.11  Z
  " fill="#009af9" fill-rule="evenodd" fill-opacity="1"/>
<polyline clip-path="url(#clip122)" style="stroke:#000000; stroke-width:4; stroke-opacity:1; fill:none" points="
  444.255,1437.11 444.255,1445.72 470.552,1445.72 470.552,1437.11 444.255,1437.11 
  "/>
<path clip-path="url(#clip122)" d="
M470.552 1431.95 L470.552 1445.72 L496.85 1445.72 L496.85 1431.95 L470.552 1431.95 L470.552 1431.95  Z
  " fill="#009af9" fill-rule="evenodd" fill-opacity="1"/>
<polyline clip-path="url(#clip122)" style="stroke:#000000; stroke-width:4; stroke-opacity:1; fill:none" points="
  470.552,1431.95 470.552,1445.72 496.85,1445.72 496.85,1431.95 470.552,1431.95 
  "/>
<path clip-path="url(#clip122)" d="
M496.85 1440.55 L496.85 1445.72 L523.147 1445.72 L523.147 1440.55 L496.85 1440.55 L496.85 1440.55  Z
  " fill="#009af9" fill-rule="evenodd" fill-opacity="1"/>
<polyline clip-path="url(#clip122)" style="stroke:#000000; stroke-width:4; stroke-opacity:1; fill:none" points="
  496.85,1440.55 496.85,1445.72 523.147,1445.72 523.147,1440.55 496.85,1440.55 
  "/>
<path clip-path="url(#clip122)" d="
M523.147 1430.23 L523.147 1445.72 L549.445 1445.72 L549.445 1430.23 L523.147 1430.23 L523.147 1430.23  Z
  " fill="#009af9" fill-rule="evenodd" fill-opacity="1"/>
<polyline clip-path="url(#clip122)" style="stroke:#000000; stroke-width:4; stroke-opacity:1; fill:none" points="
  523.147,1430.23 523.147,1445.72 549.445,1445.72 549.445,1430.23 523.147,1430.23 
  "/>
<path clip-path="url(#clip122)" d="
M549.445 1416.46 L549.445 1445.72 L575.743 1445.72 L575.743 1416.46 L549.445 1416.46 L549.445 1416.46  Z
  " fill="#009af9" fill-rule="evenodd" fill-opacity="1"/>
<polyline clip-path="url(#clip122)" style="stroke:#000000; stroke-width:4; stroke-opacity:1; fill:none" points="
  549.445,1416.46 549.445,1445.72 575.743,1445.72 575.743,1416.46 549.445,1416.46 
  "/>
<path clip-path="url(#clip122)" d="
M575.743 1426.79 L575.743 1445.72 L602.04 1445.72 L602.04 1426.79 L575.743 1426.79 L575.743 1426.79  Z
  " fill="#009af9" fill-rule="evenodd" fill-opacity="1"/>
<polyline clip-path="url(#clip122)" style="stroke:#000000; stroke-width:4; stroke-opacity:1; fill:none" points="
  575.743,1426.79 575.743,1445.72 602.04,1445.72 602.04,1426.79 575.743,1426.79 
  "/>
<path clip-path="url(#clip122)" d="
M602.04 1404.42 L602.04 1445.72 L628.338 1445.72 L628.338 1404.42 L602.04 1404.42 L602.04 1404.42  Z
  " fill="#009af9" fill-rule="evenodd" fill-opacity="1"/>
<polyline clip-path="url(#clip122)" style="stroke:#000000; stroke-width:4; stroke-opacity:1; fill:none" points="
  602.04,1404.42 602.04,1445.72 628.338,1445.72 628.338,1404.42 602.04,1404.42 
  "/>
<path clip-path="url(#clip122)" d="
M628.338 1404.42 L628.338 1445.72 L654.635 1445.72 L654.635 1404.42 L628.338 1404.42 L628.338 1404.42  Z
  " fill="#009af9" fill-rule="evenodd" fill-opacity="1"/>
<polyline clip-path="url(#clip122)" style="stroke:#000000; stroke-width:4; stroke-opacity:1; fill:none" points="
  628.338,1404.42 628.338,1445.72 654.635,1445.72 654.635,1404.42 628.338,1404.42 
  "/>
<path clip-path="url(#clip122)" d="
M654.635 1400.97 L654.635 1445.72 L680.933 1445.72 L680.933 1400.97 L654.635 1400.97 L654.635 1400.97  Z
  " fill="#009af9" fill-rule="evenodd" fill-opacity="1"/>
<polyline clip-path="url(#clip122)" style="stroke:#000000; stroke-width:4; stroke-opacity:1; fill:none" points="
  654.635,1400.97 654.635,1445.72 680.933,1445.72 680.933,1400.97 654.635,1400.97 
  "/>
<path clip-path="url(#clip122)" d="
M680.933 1382.04 L680.933 1445.72 L707.231 1445.72 L707.231 1382.04 L680.933 1382.04 L680.933 1382.04  Z
  " fill="#009af9" fill-rule="evenodd" fill-opacity="1"/>
<polyline clip-path="url(#clip122)" style="stroke:#000000; stroke-width:4; stroke-opacity:1; fill:none" points="
  680.933,1382.04 680.933,1445.72 707.231,1445.72 707.231,1382.04 680.933,1382.04 
  "/>
<path clip-path="url(#clip122)" d="
M707.231 1395.81 L707.231 1445.72 L733.528 1445.72 L733.528 1395.81 L707.231 1395.81 L707.231 1395.81  Z
  " fill="#009af9" fill-rule="evenodd" fill-opacity="1"/>
<polyline clip-path="url(#clip122)" style="stroke:#000000; stroke-width:4; stroke-opacity:1; fill:none" points="
  707.231,1395.81 707.231,1445.72 733.528,1445.72 733.528,1395.81 707.231,1395.81 
  "/>
<path clip-path="url(#clip122)" d="
M733.528 1368.28 L733.528 1445.72 L759.826 1445.72 L759.826 1368.28 L733.528 1368.28 L733.528 1368.28  Z
  " fill="#009af9" fill-rule="evenodd" fill-opacity="1"/>
<polyline clip-path="url(#clip122)" style="stroke:#000000; stroke-width:4; stroke-opacity:1; fill:none" points="
  733.528,1368.28 733.528,1445.72 759.826,1445.72 759.826,1368.28 733.528,1368.28 
  "/>
<path clip-path="url(#clip122)" d="
M759.826 1359.67 L759.826 1445.72 L786.123 1445.72 L786.123 1359.67 L759.826 1359.67 L759.826 1359.67  Z
  " fill="#009af9" fill-rule="evenodd" fill-opacity="1"/>
<polyline clip-path="url(#clip122)" style="stroke:#000000; stroke-width:4; stroke-opacity:1; fill:none" points="
  759.826,1359.67 759.826,1445.72 786.123,1445.72 786.123,1359.67 759.826,1359.67 
  "/>
<path clip-path="url(#clip122)" d="
M786.123 1328.7 L786.123 1445.72 L812.421 1445.72 L812.421 1328.7 L786.123 1328.7 L786.123 1328.7  Z
  " fill="#009af9" fill-rule="evenodd" fill-opacity="1"/>
<polyline clip-path="url(#clip122)" style="stroke:#000000; stroke-width:4; stroke-opacity:1; fill:none" points="
  786.123,1328.7 786.123,1445.72 812.421,1445.72 812.421,1328.7 786.123,1328.7 
  "/>
<path clip-path="url(#clip122)" d="
M812.421 1328.7 L812.421 1445.72 L838.719 1445.72 L838.719 1328.7 L812.421 1328.7 L812.421 1328.7  Z
  " fill="#009af9" fill-rule="evenodd" fill-opacity="1"/>
<polyline clip-path="url(#clip122)" style="stroke:#000000; stroke-width:4; stroke-opacity:1; fill:none" points="
  812.421,1328.7 812.421,1445.72 838.719,1445.72 838.719,1328.7 812.421,1328.7 
  "/>
<path clip-path="url(#clip122)" d="
M838.719 1347.63 L838.719 1445.72 L865.016 1445.72 L865.016 1347.63 L838.719 1347.63 L838.719 1347.63  Z
  " fill="#009af9" fill-rule="evenodd" fill-opacity="1"/>
<polyline clip-path="url(#clip122)" style="stroke:#000000; stroke-width:4; stroke-opacity:1; fill:none" points="
  838.719,1347.63 838.719,1445.72 865.016,1445.72 865.016,1347.63 838.719,1347.63 
  "/>
<path clip-path="url(#clip122)" d="
M865.016 1283.96 L865.016 1445.72 L891.314 1445.72 L891.314 1283.96 L865.016 1283.96 L865.016 1283.96  Z
  " fill="#009af9" fill-rule="evenodd" fill-opacity="1"/>
<polyline clip-path="url(#clip122)" style="stroke:#000000; stroke-width:4; stroke-opacity:1; fill:none" points="
  865.016,1283.96 865.016,1445.72 891.314,1445.72 891.314,1283.96 865.016,1283.96 
  "/>
<path clip-path="url(#clip122)" d="
M891.314 1335.58 L891.314 1445.72 L917.611 1445.72 L917.611 1335.58 L891.314 1335.58 L891.314 1335.58  Z
  " fill="#009af9" fill-rule="evenodd" fill-opacity="1"/>
<polyline clip-path="url(#clip122)" style="stroke:#000000; stroke-width:4; stroke-opacity:1; fill:none" points="
  891.314,1335.58 891.314,1445.72 917.611,1445.72 917.611,1335.58 891.314,1335.58 
  "/>
<path clip-path="url(#clip122)" d="
M917.611 1270.19 L917.611 1445.72 L943.909 1445.72 L943.909 1270.19 L917.611 1270.19 L917.611 1270.19  Z
  " fill="#009af9" fill-rule="evenodd" fill-opacity="1"/>
<polyline clip-path="url(#clip122)" style="stroke:#000000; stroke-width:4; stroke-opacity:1; fill:none" points="
  917.611,1270.19 917.611,1445.72 943.909,1445.72 943.909,1270.19 917.611,1270.19 
  "/>
<path clip-path="url(#clip122)" d="
M943.909 1268.47 L943.909 1445.72 L970.207 1445.72 L970.207 1268.47 L943.909 1268.47 L943.909 1268.47  Z
  " fill="#009af9" fill-rule="evenodd" fill-opacity="1"/>
<polyline clip-path="url(#clip122)" style="stroke:#000000; stroke-width:4; stroke-opacity:1; fill:none" points="
  943.909,1268.47 943.909,1445.72 970.207,1445.72 970.207,1268.47 943.909,1268.47 
  "/>
<path clip-path="url(#clip122)" d="
M970.207 1275.35 L970.207 1445.72 L996.504 1445.72 L996.504 1275.35 L970.207 1275.35 L970.207 1275.35  Z
  " fill="#009af9" fill-rule="evenodd" fill-opacity="1"/>
<polyline clip-path="url(#clip122)" style="stroke:#000000; stroke-width:4; stroke-opacity:1; fill:none" points="
  970.207,1275.35 970.207,1445.72 996.504,1445.72 996.504,1275.35 970.207,1275.35 
  "/>
<path clip-path="url(#clip122)" d="
M996.504 1278.79 L996.504 1445.72 L1022.8 1445.72 L1022.8 1278.79 L996.504 1278.79 L996.504 1278.79  Z
  " fill="#009af9" fill-rule="evenodd" fill-opacity="1"/>
<polyline clip-path="url(#clip122)" style="stroke:#000000; stroke-width:4; stroke-opacity:1; fill:none" points="
  996.504,1278.79 996.504,1445.72 1022.8,1445.72 1022.8,1278.79 996.504,1278.79 
  "/>
<path clip-path="url(#clip122)" d="
M1022.8 1265.03 L1022.8 1445.72 L1049.1 1445.72 L1049.1 1265.03 L1022.8 1265.03 L1022.8 1265.03  Z
  " fill="#009af9" fill-rule="evenodd" fill-opacity="1"/>
<polyline clip-path="url(#clip122)" style="stroke:#000000; stroke-width:4; stroke-opacity:1; fill:none" points="
  1022.8,1265.03 1022.8,1445.72 1049.1,1445.72 1049.1,1265.03 1022.8,1265.03 
  "/>
<path clip-path="url(#clip122)" d="
M1049.1 1230.61 L1049.1 1445.72 L1075.4 1445.72 L1075.4 1230.61 L1049.1 1230.61 L1049.1 1230.61  Z
  " fill="#009af9" fill-rule="evenodd" fill-opacity="1"/>
<polyline clip-path="url(#clip122)" style="stroke:#000000; stroke-width:4; stroke-opacity:1; fill:none" points="
  1049.1,1230.61 1049.1,1445.72 1075.4,1445.72 1075.4,1230.61 1049.1,1230.61 
  "/>
<path clip-path="url(#clip122)" d="
M1075.4 1242.66 L1075.4 1445.72 L1101.69 1445.72 L1101.69 1242.66 L1075.4 1242.66 L1075.4 1242.66  Z
  " fill="#009af9" fill-rule="evenodd" fill-opacity="1"/>
<polyline clip-path="url(#clip122)" style="stroke:#000000; stroke-width:4; stroke-opacity:1; fill:none" points="
  1075.4,1242.66 1075.4,1445.72 1101.69,1445.72 1101.69,1242.66 1075.4,1242.66 
  "/>
<path clip-path="url(#clip122)" d="
M1101.69 1249.54 L1101.69 1445.72 L1127.99 1445.72 L1127.99 1249.54 L1101.69 1249.54 L1101.69 1249.54  Z
  " fill="#009af9" fill-rule="evenodd" fill-opacity="1"/>
<polyline clip-path="url(#clip122)" style="stroke:#000000; stroke-width:4; stroke-opacity:1; fill:none" points="
  1101.69,1249.54 1101.69,1445.72 1127.99,1445.72 1127.99,1249.54 1101.69,1249.54 
  "/>
<path clip-path="url(#clip122)" d="
M1127.99 1234.05 L1127.99 1445.72 L1154.29 1445.72 L1154.29 1234.05 L1127.99 1234.05 L1127.99 1234.05  Z
  " fill="#009af9" fill-rule="evenodd" fill-opacity="1"/>
<polyline clip-path="url(#clip122)" style="stroke:#000000; stroke-width:4; stroke-opacity:1; fill:none" points="
  1127.99,1234.05 1127.99,1445.72 1154.29,1445.72 1154.29,1234.05 1127.99,1234.05 
  "/>
<path clip-path="url(#clip122)" d="
M1154.29 1232.33 L1154.29 1445.72 L1180.59 1445.72 L1180.59 1232.33 L1154.29 1232.33 L1154.29 1232.33  Z
  " fill="#009af9" fill-rule="evenodd" fill-opacity="1"/>
<polyline clip-path="url(#clip122)" style="stroke:#000000; stroke-width:4; stroke-opacity:1; fill:none" points="
  1154.29,1232.33 1154.29,1445.72 1180.59,1445.72 1180.59,1232.33 1154.29,1232.33 
  "/>
<path clip-path="url(#clip122)" d="
M1180.59 1161.78 L1180.59 1445.72 L1206.89 1445.72 L1206.89 1161.78 L1180.59 1161.78 L1180.59 1161.78  Z
  " fill="#009af9" fill-rule="evenodd" fill-opacity="1"/>
<polyline clip-path="url(#clip122)" style="stroke:#000000; stroke-width:4; stroke-opacity:1; fill:none" points="
  1180.59,1161.78 1180.59,1445.72 1206.89,1445.72 1206.89,1161.78 1180.59,1161.78 
  "/>
<path clip-path="url(#clip122)" d="
M1206.89 803.844 L1206.89 1445.72 L1233.18 1445.72 L1233.18 803.844 L1206.89 803.844 L1206.89 803.844  Z
  " fill="#009af9" fill-rule="evenodd" fill-opacity="1"/>
<polyline clip-path="url(#clip122)" style="stroke:#000000; stroke-width:4; stroke-opacity:1; fill:none" points="
  1206.89,803.844 1206.89,1445.72 1233.18,1445.72 1233.18,803.844 1206.89,803.844 
  "/>
<path clip-path="url(#clip122)" d="
M1233.18 94.8596 L1233.18 1445.72 L1259.48 1445.72 L1259.48 94.8596 L1233.18 94.8596 L1233.18 94.8596  Z
  " fill="#009af9" fill-rule="evenodd" fill-opacity="1"/>
<polyline clip-path="url(#clip122)" style="stroke:#000000; stroke-width:4; stroke-opacity:1; fill:none" points="
  1233.18,94.8596 1233.18,1445.72 1259.48,1445.72 1259.48,94.8596 1233.18,94.8596 
  "/>
<path clip-path="url(#clip122)" d="
M1259.48 87.9763 L1259.48 1445.72 L1285.78 1445.72 L1285.78 87.9763 L1259.48 87.9763 L1259.48 87.9763  Z
  " fill="#009af9" fill-rule="evenodd" fill-opacity="1"/>
<polyline clip-path="url(#clip122)" style="stroke:#000000; stroke-width:4; stroke-opacity:1; fill:none" points="
  1259.48,87.9763 1259.48,1445.72 1285.78,1445.72 1285.78,87.9763 1259.48,87.9763 
  "/>
<path clip-path="url(#clip122)" d="
M1285.78 824.494 L1285.78 1445.72 L1312.08 1445.72 L1312.08 824.494 L1285.78 824.494 L1285.78 824.494  Z
  " fill="#009af9" fill-rule="evenodd" fill-opacity="1"/>
<polyline clip-path="url(#clip122)" style="stroke:#000000; stroke-width:4; stroke-opacity:1; fill:none" points="
  1285.78,824.494 1285.78,1445.72 1312.08,1445.72 1312.08,824.494 1285.78,824.494 
  "/>
<path clip-path="url(#clip122)" d="
M1312.08 1184.15 L1312.08 1445.72 L1338.37 1445.72 L1338.37 1184.15 L1312.08 1184.15 L1312.08 1184.15  Z
  " fill="#009af9" fill-rule="evenodd" fill-opacity="1"/>
<polyline clip-path="url(#clip122)" style="stroke:#000000; stroke-width:4; stroke-opacity:1; fill:none" points="
  1312.08,1184.15 1312.08,1445.72 1338.37,1445.72 1338.37,1184.15 1312.08,1184.15 
  "/>
<path clip-path="url(#clip122)" d="
M1338.37 1299.44 L1338.37 1445.72 L1364.67 1445.72 L1364.67 1299.44 L1338.37 1299.44 L1338.37 1299.44  Z
  " fill="#009af9" fill-rule="evenodd" fill-opacity="1"/>
<polyline clip-path="url(#clip122)" style="stroke:#000000; stroke-width:4; stroke-opacity:1; fill:none" points="
  1338.37,1299.44 1338.37,1445.72 1364.67,1445.72 1364.67,1299.44 1338.37,1299.44 
  "/>
<path clip-path="url(#clip122)" d="
M1364.67 1316.65 L1364.67 1445.72 L1390.97 1445.72 L1390.97 1316.65 L1364.67 1316.65 L1364.67 1316.65  Z
  " fill="#009af9" fill-rule="evenodd" fill-opacity="1"/>
<polyline clip-path="url(#clip122)" style="stroke:#000000; stroke-width:4; stroke-opacity:1; fill:none" points="
  1364.67,1316.65 1364.67,1445.72 1390.97,1445.72 1390.97,1316.65 1364.67,1316.65 
  "/>
<path clip-path="url(#clip122)" d="
M1390.97 1339.02 L1390.97 1445.72 L1417.27 1445.72 L1417.27 1339.02 L1390.97 1339.02 L1390.97 1339.02  Z
  " fill="#009af9" fill-rule="evenodd" fill-opacity="1"/>
<polyline clip-path="url(#clip122)" style="stroke:#000000; stroke-width:4; stroke-opacity:1; fill:none" points="
  1390.97,1339.02 1390.97,1445.72 1417.27,1445.72 1417.27,1339.02 1390.97,1339.02 
  "/>
<path clip-path="url(#clip122)" d="
M1417.27 1361.39 L1417.27 1445.72 L1443.56 1445.72 L1443.56 1361.39 L1417.27 1361.39 L1417.27 1361.39  Z
  " fill="#009af9" fill-rule="evenodd" fill-opacity="1"/>
<polyline clip-path="url(#clip122)" style="stroke:#000000; stroke-width:4; stroke-opacity:1; fill:none" points="
  1417.27,1361.39 1417.27,1445.72 1443.56,1445.72 1443.56,1361.39 1417.27,1361.39 
  "/>
<path clip-path="url(#clip122)" d="
M1443.56 1351.07 L1443.56 1445.72 L1469.86 1445.72 L1469.86 1351.07 L1443.56 1351.07 L1443.56 1351.07  Z
  " fill="#009af9" fill-rule="evenodd" fill-opacity="1"/>
<polyline clip-path="url(#clip122)" style="stroke:#000000; stroke-width:4; stroke-opacity:1; fill:none" points="
  1443.56,1351.07 1443.56,1445.72 1469.86,1445.72 1469.86,1351.07 1443.56,1351.07 
  "/>
<path clip-path="url(#clip122)" d="
M1469.86 1368.28 L1469.86 1445.72 L1496.16 1445.72 L1496.16 1368.28 L1469.86 1368.28 L1469.86 1368.28  Z
  " fill="#009af9" fill-rule="evenodd" fill-opacity="1"/>
<polyline clip-path="url(#clip122)" style="stroke:#000000; stroke-width:4; stroke-opacity:1; fill:none" points="
  1469.86,1368.28 1469.86,1445.72 1496.16,1445.72 1496.16,1368.28 1469.86,1368.28 
  "/>
<path clip-path="url(#clip122)" d="
M1496.16 1373.44 L1496.16 1445.72 L1522.46 1445.72 L1522.46 1373.44 L1496.16 1373.44 L1496.16 1373.44  Z
  " fill="#009af9" fill-rule="evenodd" fill-opacity="1"/>
<polyline clip-path="url(#clip122)" style="stroke:#000000; stroke-width:4; stroke-opacity:1; fill:none" points="
  1496.16,1373.44 1496.16,1445.72 1522.46,1445.72 1522.46,1373.44 1496.16,1373.44 
  "/>
<path clip-path="url(#clip122)" d="
M1522.46 1402.69 L1522.46 1445.72 L1548.75 1445.72 L1548.75 1402.69 L1522.46 1402.69 L1522.46 1402.69  Z
  " fill="#009af9" fill-rule="evenodd" fill-opacity="1"/>
<polyline clip-path="url(#clip122)" style="stroke:#000000; stroke-width:4; stroke-opacity:1; fill:none" points="
  1522.46,1402.69 1522.46,1445.72 1548.75,1445.72 1548.75,1402.69 1522.46,1402.69 
  "/>
<path clip-path="url(#clip122)" d="
M1548.75 1395.81 L1548.75 1445.72 L1575.05 1445.72 L1575.05 1395.81 L1548.75 1395.81 L1548.75 1395.81  Z
  " fill="#009af9" fill-rule="evenodd" fill-opacity="1"/>
<polyline clip-path="url(#clip122)" style="stroke:#000000; stroke-width:4; stroke-opacity:1; fill:none" points="
  1548.75,1395.81 1548.75,1445.72 1575.05,1445.72 1575.05,1395.81 1548.75,1395.81 
  "/>
<path clip-path="url(#clip122)" d="
M1575.05 1406.14 L1575.05 1445.72 L1601.35 1445.72 L1601.35 1406.14 L1575.05 1406.14 L1575.05 1406.14  Z
  " fill="#009af9" fill-rule="evenodd" fill-opacity="1"/>
<polyline clip-path="url(#clip122)" style="stroke:#000000; stroke-width:4; stroke-opacity:1; fill:none" points="
  1575.05,1406.14 1575.05,1445.72 1601.35,1445.72 1601.35,1406.14 1575.05,1406.14 
  "/>
<path clip-path="url(#clip122)" d="
M1601.35 1407.86 L1601.35 1445.72 L1627.65 1445.72 L1627.65 1407.86 L1601.35 1407.86 L1601.35 1407.86  Z
  " fill="#009af9" fill-rule="evenodd" fill-opacity="1"/>
<polyline clip-path="url(#clip122)" style="stroke:#000000; stroke-width:4; stroke-opacity:1; fill:none" points="
  1601.35,1407.86 1601.35,1445.72 1627.65,1445.72 1627.65,1407.86 1601.35,1407.86 
  "/>
<path clip-path="url(#clip122)" d="
M1627.65 1406.14 L1627.65 1445.72 L1653.94 1445.72 L1653.94 1406.14 L1627.65 1406.14 L1627.65 1406.14  Z
  " fill="#009af9" fill-rule="evenodd" fill-opacity="1"/>
<polyline clip-path="url(#clip122)" style="stroke:#000000; stroke-width:4; stroke-opacity:1; fill:none" points="
  1627.65,1406.14 1627.65,1445.72 1653.94,1445.72 1653.94,1406.14 1627.65,1406.14 
  "/>
<path clip-path="url(#clip122)" d="
M1653.94 1423.34 L1653.94 1445.72 L1680.24 1445.72 L1680.24 1423.34 L1653.94 1423.34 L1653.94 1423.34  Z
  " fill="#009af9" fill-rule="evenodd" fill-opacity="1"/>
<polyline clip-path="url(#clip122)" style="stroke:#000000; stroke-width:4; stroke-opacity:1; fill:none" points="
  1653.94,1423.34 1653.94,1445.72 1680.24,1445.72 1680.24,1423.34 1653.94,1423.34 
  "/>
<path clip-path="url(#clip122)" d="
M1680.24 1418.18 L1680.24 1445.72 L1706.54 1445.72 L1706.54 1418.18 L1680.24 1418.18 L1680.24 1418.18  Z
  " fill="#009af9" fill-rule="evenodd" fill-opacity="1"/>
<polyline clip-path="url(#clip122)" style="stroke:#000000; stroke-width:4; stroke-opacity:1; fill:none" points="
  1680.24,1418.18 1680.24,1445.72 1706.54,1445.72 1706.54,1418.18 1680.24,1418.18 
  "/>
<path clip-path="url(#clip122)" d="
M1706.54 1428.51 L1706.54 1445.72 L1732.84 1445.72 L1732.84 1428.51 L1706.54 1428.51 L1706.54 1428.51  Z
  " fill="#009af9" fill-rule="evenodd" fill-opacity="1"/>
<polyline clip-path="url(#clip122)" style="stroke:#000000; stroke-width:4; stroke-opacity:1; fill:none" points="
  1706.54,1428.51 1706.54,1445.72 1732.84,1445.72 1732.84,1428.51 1706.54,1428.51 
  "/>
<path clip-path="url(#clip122)" d="
M1732.84 1435.39 L1732.84 1445.72 L1759.13 1445.72 L1759.13 1435.39 L1732.84 1435.39 L1732.84 1435.39  Z
  " fill="#009af9" fill-rule="evenodd" fill-opacity="1"/>
<polyline clip-path="url(#clip122)" style="stroke:#000000; stroke-width:4; stroke-opacity:1; fill:none" points="
  1732.84,1435.39 1732.84,1445.72 1759.13,1445.72 1759.13,1435.39 1732.84,1435.39 
  "/>
<path clip-path="url(#clip122)" d="
M1759.13 1437.11 L1759.13 1445.72 L1785.43 1445.72 L1785.43 1437.11 L1759.13 1437.11 L1759.13 1437.11  Z
  " fill="#009af9" fill-rule="evenodd" fill-opacity="1"/>
<polyline clip-path="url(#clip122)" style="stroke:#000000; stroke-width:4; stroke-opacity:1; fill:none" points="
  1759.13,1437.11 1759.13,1445.72 1785.43,1445.72 1785.43,1437.11 1759.13,1437.11 
  "/>
<path clip-path="url(#clip122)" d="
M1785.43 1435.39 L1785.43 1445.72 L1811.73 1445.72 L1811.73 1435.39 L1785.43 1435.39 L1785.43 1435.39  Z
  " fill="#009af9" fill-rule="evenodd" fill-opacity="1"/>
<polyline clip-path="url(#clip122)" style="stroke:#000000; stroke-width:4; stroke-opacity:1; fill:none" points="
  1785.43,1435.39 1785.43,1445.72 1811.73,1445.72 1811.73,1435.39 1785.43,1435.39 
  "/>
<path clip-path="url(#clip122)" d="
M1811.73 1438.83 L1811.73 1445.72 L1838.03 1445.72 L1838.03 1438.83 L1811.73 1438.83 L1811.73 1438.83  Z
  " fill="#009af9" fill-rule="evenodd" fill-opacity="1"/>
<polyline clip-path="url(#clip122)" style="stroke:#000000; stroke-width:4; stroke-opacity:1; fill:none" points="
  1811.73,1438.83 1811.73,1445.72 1838.03,1445.72 1838.03,1438.83 1811.73,1438.83 
  "/>
<path clip-path="url(#clip122)" d="
M1838.03 1440.55 L1838.03 1445.72 L1864.33 1445.72 L1864.33 1440.55 L1838.03 1440.55 L1838.03 1440.55  Z
  " fill="#009af9" fill-rule="evenodd" fill-opacity="1"/>
<polyline clip-path="url(#clip122)" style="stroke:#000000; stroke-width:4; stroke-opacity:1; fill:none" points="
  1838.03,1440.55 1838.03,1445.72 1864.33,1445.72 1864.33,1440.55 1838.03,1440.55 
  "/>
<path clip-path="url(#clip122)" d="
M1864.33 1440.55 L1864.33 1445.72 L1890.62 1445.72 L1890.62 1440.55 L1864.33 1440.55 L1864.33 1440.55  Z
  " fill="#009af9" fill-rule="evenodd" fill-opacity="1"/>
<polyline clip-path="url(#clip122)" style="stroke:#000000; stroke-width:4; stroke-opacity:1; fill:none" points="
  1864.33,1440.55 1864.33,1445.72 1890.62,1445.72 1890.62,1440.55 1864.33,1440.55 
  "/>
<path clip-path="url(#clip122)" d="
M1890.62 1443.99 L1890.62 1445.72 L1916.92 1445.72 L1916.92 1443.99 L1890.62 1443.99 L1890.62 1443.99  Z
  " fill="#009af9" fill-rule="evenodd" fill-opacity="1"/>
<polyline clip-path="url(#clip122)" style="stroke:#000000; stroke-width:4; stroke-opacity:1; fill:none" points="
  1890.62,1443.99 1890.62,1445.72 1916.92,1445.72 1916.92,1443.99 1890.62,1443.99 
  "/>
<path clip-path="url(#clip122)" d="
M1916.92 1442.27 L1916.92 1445.72 L1943.22 1445.72 L1943.22 1442.27 L1916.92 1442.27 L1916.92 1442.27  Z
  " fill="#009af9" fill-rule="evenodd" fill-opacity="1"/>
<polyline clip-path="url(#clip122)" style="stroke:#000000; stroke-width:4; stroke-opacity:1; fill:none" points="
  1916.92,1442.27 1916.92,1445.72 1943.22,1445.72 1943.22,1442.27 1916.92,1442.27 
  "/>
<path clip-path="url(#clip122)" d="
M1943.22 1443.99 L1943.22 1445.72 L1969.52 1445.72 L1969.52 1443.99 L1943.22 1443.99 L1943.22 1443.99  Z
  " fill="#009af9" fill-rule="evenodd" fill-opacity="1"/>
<polyline clip-path="url(#clip122)" style="stroke:#000000; stroke-width:4; stroke-opacity:1; fill:none" points="
  1943.22,1443.99 1943.22,1445.72 1969.52,1445.72 1969.52,1443.99 1943.22,1443.99 
  "/>
<path clip-path="url(#clip122)" d="
M1969.52 1445.72 L1969.52 1445.72 L1995.81 1445.72 L1995.81 1445.72 L1969.52 1445.72 L1969.52 1445.72  Z
  " fill="#009af9" fill-rule="evenodd" fill-opacity="1"/>
<polyline clip-path="url(#clip122)" style="stroke:#000000; stroke-width:4; stroke-opacity:1; fill:none" points="
  1969.52,1445.72 1969.52,1445.72 1995.81,1445.72 1969.52,1445.72 
  "/>
<path clip-path="url(#clip122)" d="
M1995.81 1442.27 L1995.81 1445.72 L2022.11 1445.72 L2022.11 1442.27 L1995.81 1442.27 L1995.81 1442.27  Z
  " fill="#009af9" fill-rule="evenodd" fill-opacity="1"/>
<polyline clip-path="url(#clip122)" style="stroke:#000000; stroke-width:4; stroke-opacity:1; fill:none" points="
  1995.81,1442.27 1995.81,1445.72 2022.11,1445.72 2022.11,1442.27 1995.81,1442.27 
  "/>
<path clip-path="url(#clip122)" d="
M2022.11 1442.27 L2022.11 1445.72 L2048.41 1445.72 L2048.41 1442.27 L2022.11 1442.27 L2022.11 1442.27  Z
  " fill="#009af9" fill-rule="evenodd" fill-opacity="1"/>
<polyline clip-path="url(#clip122)" style="stroke:#000000; stroke-width:4; stroke-opacity:1; fill:none" points="
  2022.11,1442.27 2022.11,1445.72 2048.41,1445.72 2048.41,1442.27 2022.11,1442.27 
  "/>
<path clip-path="url(#clip122)" d="
M2048.41 1445.72 L2048.41 1445.72 L2074.71 1445.72 L2074.71 1445.72 L2048.41 1445.72 L2048.41 1445.72  Z
  " fill="#009af9" fill-rule="evenodd" fill-opacity="1"/>
<polyline clip-path="url(#clip122)" style="stroke:#000000; stroke-width:4; stroke-opacity:1; fill:none" points="
  2048.41,1445.72 2048.41,1445.72 2074.71,1445.72 2048.41,1445.72 
  "/>
<path clip-path="url(#clip122)" d="
M2074.71 1443.99 L2074.71 1445.72 L2101 1445.72 L2101 1443.99 L2074.71 1443.99 L2074.71 1443.99  Z
  " fill="#009af9" fill-rule="evenodd" fill-opacity="1"/>
<polyline clip-path="url(#clip122)" style="stroke:#000000; stroke-width:4; stroke-opacity:1; fill:none" points="
  2074.71,1443.99 2074.71,1445.72 2101,1445.72 2101,1443.99 2074.71,1443.99 
  "/>
<path clip-path="url(#clip122)" d="
M2101 1445.72 L2101 1445.72 L2127.3 1445.72 L2127.3 1445.72 L2101 1445.72 L2101 1445.72  Z
  " fill="#009af9" fill-rule="evenodd" fill-opacity="1"/>
<polyline clip-path="url(#clip122)" style="stroke:#000000; stroke-width:4; stroke-opacity:1; fill:none" points="
  2101,1445.72 2101,1445.72 2127.3,1445.72 2101,1445.72 
  "/>
<path clip-path="url(#clip122)" d="
M2127.3 1445.72 L2127.3 1445.72 L2153.6 1445.72 L2153.6 1445.72 L2127.3 1445.72 L2127.3 1445.72  Z
  " fill="#009af9" fill-rule="evenodd" fill-opacity="1"/>
<polyline clip-path="url(#clip122)" style="stroke:#000000; stroke-width:4; stroke-opacity:1; fill:none" points="
  2127.3,1445.72 2127.3,1445.72 2153.6,1445.72 2127.3,1445.72 
  "/>
<path clip-path="url(#clip122)" d="
M2153.6 1445.72 L2153.6 1445.72 L2179.9 1445.72 L2179.9 1445.72 L2153.6 1445.72 L2153.6 1445.72  Z
  " fill="#009af9" fill-rule="evenodd" fill-opacity="1"/>
<polyline clip-path="url(#clip122)" style="stroke:#000000; stroke-width:4; stroke-opacity:1; fill:none" points="
  2153.6,1445.72 2153.6,1445.72 2179.9,1445.72 2153.6,1445.72 
  "/>
<path clip-path="url(#clip122)" d="
M2179.9 1445.72 L2179.9 1445.72 L2206.19 1445.72 L2206.19 1445.72 L2179.9 1445.72 L2179.9 1445.72  Z
  " fill="#009af9" fill-rule="evenodd" fill-opacity="1"/>
<polyline clip-path="url(#clip122)" style="stroke:#000000; stroke-width:4; stroke-opacity:1; fill:none" points="
  2179.9,1445.72 2179.9,1445.72 2206.19,1445.72 2179.9,1445.72 
  "/>
<path clip-path="url(#clip122)" d="
M2206.19 1443.99 L2206.19 1445.72 L2232.49 1445.72 L2232.49 1443.99 L2206.19 1443.99 L2206.19 1443.99  Z
  " fill="#009af9" fill-rule="evenodd" fill-opacity="1"/>
<polyline clip-path="url(#clip122)" style="stroke:#000000; stroke-width:4; stroke-opacity:1; fill:none" points="
  2206.19,1443.99 2206.19,1445.72 2232.49,1445.72 2232.49,1443.99 2206.19,1443.99 
  "/>
<path clip-path="url(#clip120)" d="
M1989.74 251.724 L2280.76 251.724 L2280.76 130.764 L1989.74 130.764  Z
  " fill="#ffffff" fill-rule="evenodd" fill-opacity="1"/>
<polyline clip-path="url(#clip120)" style="stroke:#000000; stroke-width:4; stroke-opacity:1; fill:none" points="
  1989.74,251.724 2280.76,251.724 2280.76,130.764 1989.74,130.764 1989.74,251.724 
  "/>
<path clip-path="url(#clip120)" d="
M2013.74 215.436 L2157.74 215.436 L2157.74 167.052 L2013.74 167.052 L2013.74 215.436  Z
  " fill="#009af9" fill-rule="evenodd" fill-opacity="1"/>
<polyline clip-path="url(#clip120)" style="stroke:#000000; stroke-width:4; stroke-opacity:1; fill:none" points="
  2013.74,215.436 2157.74,215.436 2157.74,167.052 2013.74,167.052 2013.74,215.436 
  "/>
<path clip-path="url(#clip120)" d="M 0 0 M2195.58 210.931 Q2193.77 215.561 2192.06 216.973 Q2190.35 218.385 2187.48 218.385 L2184.08 218.385 L2184.08 214.82 L2186.58 214.82 Q2188.33 214.82 2189.31 213.987 Q2190.28 213.154 2191.46 210.052 L2192.22 208.107 L2181.74 182.598 L2186.25 182.598 L2194.35 202.876 L2202.46 182.598 L2206.97 182.598 L2195.58 210.931 Z" fill="#000000" fill-rule="evenodd" fill-opacity="1" /><path clip-path="url(#clip120)" d="M 0 0 M2212.85 204.589 L2220.49 204.589 L2220.49 178.223 L2212.18 179.89 L2212.18 175.631 L2220.44 173.964 L2225.12 173.964 L2225.12 204.589 L2232.76 204.589 L2232.76 208.524 L2212.85 208.524 L2212.85 204.589 Z" fill="#000000" fill-rule="evenodd" fill-opacity="1" /></svg>
