<?xml version="1.0" encoding="utf-8"?>
<svg xmlns="http://www.w3.org/2000/svg" xmlns:xlink="http://www.w3.org/1999/xlink" width="600" height="400" viewBox="0 0 2400 1600">
<defs>
  <clipPath id="clip510">
    <rect x="0" y="0" width="2400" height="1600"/>
  </clipPath>
</defs>
<path clip-path="url(#clip510)" d="
M0 1600 L2400 1600 L2400 0 L0 0  Z
  " fill="#ffffff" fill-rule="evenodd" fill-opacity="1"/>
<defs>
  <clipPath id="clip511">
    <rect x="480" y="0" width="1681" height="1600"/>
  </clipPath>
</defs>
<path clip-path="url(#clip510)" d="
M166.205 1486.45 L2352.76 1486.45 L2352.76 47.2441 L166.205 47.2441  Z
  " fill="#ffffff" fill-rule="evenodd" fill-opacity="1"/>
<defs>
  <clipPath id="clip512">
    <rect x="166" y="47" width="2188" height="1440"/>
  </clipPath>
</defs>
<polyline clip-path="url(#clip512)" style="stroke:#000000; stroke-width:2; stroke-opacity:0.1; fill:none" points="
  541.305,1486.45 541.305,47.2441 
  "/>
<polyline clip-path="url(#clip512)" style="stroke:#000000; stroke-width:2; stroke-opacity:0.1; fill:none" points="
  1120.48,1486.45 1120.48,47.2441 
  "/>
<polyline clip-path="url(#clip512)" style="stroke:#000000; stroke-width:2; stroke-opacity:0.1; fill:none" points="
  1699.65,1486.45 1699.65,47.2441 
  "/>
<polyline clip-path="url(#clip512)" style="stroke:#000000; stroke-width:2; stroke-opacity:0.1; fill:none" points="
  2278.83,1486.45 2278.83,47.2441 
  "/>
<polyline clip-path="url(#clip512)" style="stroke:#000000; stroke-width:2; stroke-opacity:0.1; fill:none" points="
  166.205,1445.72 2352.76,1445.72 
  "/>
<polyline clip-path="url(#clip512)" style="stroke:#000000; stroke-width:2; stroke-opacity:0.1; fill:none" points="
  166.205,1110.06 2352.76,1110.06 
  "/>
<polyline clip-path="url(#clip512)" style="stroke:#000000; stroke-width:2; stroke-opacity:0.1; fill:none" points="
  166.205,774.398 2352.76,774.398 
  "/>
<polyline clip-path="url(#clip512)" style="stroke:#000000; stroke-width:2; stroke-opacity:0.1; fill:none" points="
  166.205,438.74 2352.76,438.74 
  "/>
<polyline clip-path="url(#clip512)" style="stroke:#000000; stroke-width:2; stroke-opacity:0.1; fill:none" points="
  166.205,103.081 2352.76,103.081 
  "/>
<polyline clip-path="url(#clip510)" style="stroke:#000000; stroke-width:4; stroke-opacity:1; fill:none" points="
  166.205,1486.45 2352.76,1486.45 
  "/>
<polyline clip-path="url(#clip510)" style="stroke:#000000; stroke-width:4; stroke-opacity:1; fill:none" points="
  166.205,1486.45 166.205,47.2441 
  "/>
<polyline clip-path="url(#clip510)" style="stroke:#000000; stroke-width:4; stroke-opacity:1; fill:none" points="
  541.305,1486.45 541.305,1469.18 
  "/>
<polyline clip-path="url(#clip510)" style="stroke:#000000; stroke-width:4; stroke-opacity:1; fill:none" points="
  1120.48,1486.45 1120.48,1469.18 
  "/>
<polyline clip-path="url(#clip510)" style="stroke:#000000; stroke-width:4; stroke-opacity:1; fill:none" points="
  1699.65,1486.45 1699.65,1469.18 
  "/>
<polyline clip-path="url(#clip510)" style="stroke:#000000; stroke-width:4; stroke-opacity:1; fill:none" points="
  2278.83,1486.45 2278.83,1469.18 
  "/>
<polyline clip-path="url(#clip510)" style="stroke:#000000; stroke-width:4; stroke-opacity:1; fill:none" points="
  166.205,1445.72 192.443,1445.72 
  "/>
<polyline clip-path="url(#clip510)" style="stroke:#000000; stroke-width:4; stroke-opacity:1; fill:none" points="
  166.205,1110.06 192.443,1110.06 
  "/>
<polyline clip-path="url(#clip510)" style="stroke:#000000; stroke-width:4; stroke-opacity:1; fill:none" points="
  166.205,774.398 192.443,774.398 
  "/>
<polyline clip-path="url(#clip510)" style="stroke:#000000; stroke-width:4; stroke-opacity:1; fill:none" points="
  166.205,438.74 192.443,438.74 
  "/>
<polyline clip-path="url(#clip510)" style="stroke:#000000; stroke-width:4; stroke-opacity:1; fill:none" points="
  166.205,103.081 192.443,103.081 
  "/>
<path clip-path="url(#clip510)" d="M 0 0 M522.058 1525.04 L534.534 1525.04 L534.534 1528.83 L522.058 1528.83 L522.058 1525.04 Z" fill="#000000" fill-rule="evenodd" fill-opacity="1" /><path clip-path="url(#clip510)" d="M 0 0 M539.65 1505.36 L558.006 1505.36 L558.006 1509.3 L543.932 1509.3 L543.932 1517.77 Q544.951 1517.42 545.97 1517.26 Q546.988 1517.07 548.007 1517.07 Q553.794 1517.07 557.173 1520.24 Q560.553 1523.42 560.553 1528.83 Q560.553 1534.41 557.081 1537.51 Q553.608 1540.59 547.289 1540.59 Q545.113 1540.59 542.845 1540.22 Q540.599 1539.85 538.192 1539.11 L538.192 1534.41 Q540.275 1535.54 542.497 1536.1 Q544.72 1536.66 547.196 1536.66 Q551.201 1536.66 553.539 1534.55 Q555.877 1532.44 555.877 1528.83 Q555.877 1525.22 553.539 1523.11 Q551.201 1521.01 547.196 1521.01 Q545.321 1521.01 543.446 1521.42 Q541.595 1521.84 539.65 1522.72 L539.65 1505.36 Z" fill="#000000" fill-rule="evenodd" fill-opacity="1" /><path clip-path="url(#clip510)" d="M 0 0 M1120.48 1508.44 Q1116.87 1508.44 1115.04 1512 Q1113.23 1515.55 1113.23 1522.67 Q1113.23 1529.78 1115.04 1533.35 Q1116.87 1536.89 1120.48 1536.89 Q1124.11 1536.89 1125.92 1533.35 Q1127.75 1529.78 1127.75 1522.67 Q1127.75 1515.55 1125.92 1512 Q1124.11 1508.44 1120.48 1508.44 M1120.48 1504.73 Q1126.29 1504.73 1129.34 1509.34 Q1132.42 1513.92 1132.42 1522.67 Q1132.42 1531.4 1129.34 1536.01 Q1126.29 1540.59 1120.48 1540.59 Q1114.67 1540.59 1111.59 1536.01 Q1108.53 1531.4 1108.53 1522.67 Q1108.53 1513.92 1111.59 1509.34 Q1114.67 1504.73 1120.48 1504.73 Z" fill="#000000" fill-rule="evenodd" fill-opacity="1" /><path clip-path="url(#clip510)" d="M 0 0 M1689.93 1505.36 L1708.29 1505.36 L1708.29 1509.3 L1694.21 1509.3 L1694.21 1517.77 Q1695.23 1517.42 1696.25 1517.26 Q1697.27 1517.07 1698.29 1517.07 Q1704.07 1517.07 1707.45 1520.24 Q1710.83 1523.42 1710.83 1528.83 Q1710.83 1534.41 1707.36 1537.51 Q1703.89 1540.59 1697.57 1540.59 Q1695.39 1540.59 1693.12 1540.22 Q1690.88 1539.85 1688.47 1539.11 L1688.47 1534.41 Q1690.55 1535.54 1692.78 1536.1 Q1695 1536.66 1697.48 1536.66 Q1701.48 1536.66 1703.82 1534.55 Q1706.16 1532.44 1706.16 1528.83 Q1706.16 1525.22 1703.82 1523.11 Q1701.48 1521.01 1697.48 1521.01 Q1695.6 1521.01 1693.73 1521.42 Q1691.87 1521.84 1689.93 1522.72 L1689.93 1505.36 Z" fill="#000000" fill-rule="evenodd" fill-opacity="1" /><path clip-path="url(#clip510)" d="M 0 0 M2255.7 1535.98 L2263.34 1535.98 L2263.34 1509.62 L2255.03 1511.29 L2255.03 1507.03 L2263.29 1505.36 L2267.97 1505.36 L2267.97 1535.98 L2275.61 1535.98 L2275.61 1539.92 L2255.7 1539.92 L2255.7 1535.98 Z" fill="#000000" fill-rule="evenodd" fill-opacity="1" /><path clip-path="url(#clip510)" d="M 0 0 M2290.68 1508.44 Q2287.07 1508.44 2285.24 1512 Q2283.43 1515.55 2283.43 1522.67 Q2283.43 1529.78 2285.24 1533.35 Q2287.07 1536.89 2290.68 1536.89 Q2294.31 1536.89 2296.12 1533.35 Q2297.95 1529.78 2297.95 1522.67 Q2297.95 1515.55 2296.12 1512 Q2294.31 1508.44 2290.68 1508.44 M2290.68 1504.73 Q2296.49 1504.73 2299.54 1509.34 Q2302.62 1513.92 2302.62 1522.67 Q2302.62 1531.4 2299.54 1536.01 Q2296.49 1540.59 2290.68 1540.59 Q2284.87 1540.59 2281.79 1536.01 Q2278.73 1531.4 2278.73 1522.67 Q2278.73 1513.92 2281.79 1509.34 Q2284.87 1504.73 2290.68 1504.73 Z" fill="#000000" fill-rule="evenodd" fill-opacity="1" /><path clip-path="url(#clip510)" d="M 0 0 M130.26 1431.51 Q126.649 1431.51 124.82 1435.08 Q123.015 1438.62 123.015 1445.75 Q123.015 1452.86 124.82 1456.42 Q126.649 1459.96 130.26 1459.96 Q133.895 1459.96 135.7 1456.42 Q137.529 1452.86 137.529 1445.75 Q137.529 1438.62 135.7 1435.08 Q133.895 1431.51 130.26 1431.51 M130.26 1427.81 Q136.07 1427.81 139.126 1432.42 Q142.205 1437 142.205 1445.75 Q142.205 1454.48 139.126 1459.08 Q136.07 1463.67 130.26 1463.67 Q124.45 1463.67 121.371 1459.08 Q118.316 1454.48 118.316 1445.75 Q118.316 1437 121.371 1432.42 Q124.45 1427.81 130.26 1427.81 Z" fill="#000000" fill-rule="evenodd" fill-opacity="1" /><path clip-path="url(#clip510)" d="M 0 0 M71.8578 1123.4 L88.1772 1123.4 L88.1772 1127.34 L66.2328 1127.34 L66.2328 1123.4 Q68.8949 1120.65 73.4782 1116.02 Q78.0846 1111.36 79.2652 1110.02 Q81.5105 1107.5 82.3902 1105.76 Q83.2929 1104 83.2929 1102.31 Q83.2929 1099.56 81.3485 1097.82 Q79.4272 1096.09 76.3254 1096.09 Q74.1263 1096.09 71.6726 1096.85 Q69.2421 1097.61 66.4643 1099.17 L66.4643 1094.44 Q69.2884 1093.31 71.7421 1092.73 Q74.1958 1092.15 76.2328 1092.15 Q81.6031 1092.15 84.7976 1094.84 Q87.992 1097.52 87.992 1102.01 Q87.992 1104.14 87.1818 1106.06 Q86.3948 1107.96 84.2883 1110.55 Q83.7096 1111.23 80.6078 1114.44 Q77.5059 1117.64 71.8578 1123.4 Z" fill="#000000" fill-rule="evenodd" fill-opacity="1" /><path clip-path="url(#clip510)" d="M 0 0 M103.247 1095.86 Q99.6354 1095.86 97.8068 1099.42 Q96.0012 1102.96 96.0012 1110.09 Q96.0012 1117.2 97.8068 1120.76 Q99.6354 1124.3 103.247 1124.3 Q106.881 1124.3 108.686 1120.76 Q110.515 1117.2 110.515 1110.09 Q110.515 1102.96 108.686 1099.42 Q106.881 1095.86 103.247 1095.86 M103.247 1092.15 Q109.057 1092.15 112.112 1096.76 Q115.191 1101.34 115.191 1110.09 Q115.191 1118.82 112.112 1123.42 Q109.057 1128.01 103.247 1128.01 Q97.4364 1128.01 94.3577 1123.42 Q91.3022 1118.82 91.3022 1110.09 Q91.3022 1101.34 94.3577 1096.76 Q97.4364 1092.15 103.247 1092.15 Z" fill="#000000" fill-rule="evenodd" fill-opacity="1" /><path clip-path="url(#clip510)" d="M 0 0 M130.26 1095.86 Q126.649 1095.86 124.82 1099.42 Q123.015 1102.96 123.015 1110.09 Q123.015 1117.2 124.82 1120.76 Q126.649 1124.3 130.26 1124.3 Q133.895 1124.3 135.7 1120.76 Q137.529 1117.2 137.529 1110.09 Q137.529 1102.96 135.7 1099.42 Q133.895 1095.86 130.26 1095.86 M130.26 1092.15 Q136.07 1092.15 139.126 1096.76 Q142.205 1101.34 142.205 1110.09 Q142.205 1118.82 139.126 1123.42 Q136.07 1128.01 130.26 1128.01 Q124.45 1128.01 121.371 1123.42 Q118.316 1118.82 118.316 1110.09 Q118.316 1101.34 121.371 1096.76 Q124.45 1092.15 130.26 1092.15 Z" fill="#000000" fill-rule="evenodd" fill-opacity="1" /><path clip-path="url(#clip510)" d="M 0 0 M78.5939 761.192 L66.7884 779.641 L78.5939 779.641 L78.5939 761.192 M77.367 757.118 L83.2466 757.118 L83.2466 779.641 L88.1772 779.641 L88.1772 783.53 L83.2466 783.53 L83.2466 791.678 L78.5939 791.678 L78.5939 783.53 L62.9921 783.53 L62.9921 779.016 L77.367 757.118 Z" fill="#000000" fill-rule="evenodd" fill-opacity="1" /><path clip-path="url(#clip510)" d="M 0 0 M103.247 760.197 Q99.6354 760.197 97.8068 763.762 Q96.0012 767.303 96.0012 774.433 Q96.0012 781.539 97.8068 785.104 Q99.6354 788.646 103.247 788.646 Q106.881 788.646 108.686 785.104 Q110.515 781.539 110.515 774.433 Q110.515 767.303 108.686 763.762 Q106.881 760.197 103.247 760.197 M103.247 756.493 Q109.057 756.493 112.112 761.1 Q115.191 765.683 115.191 774.433 Q115.191 783.16 112.112 787.766 Q109.057 792.35 103.247 792.35 Q97.4364 792.35 94.3577 787.766 Q91.3022 783.16 91.3022 774.433 Q91.3022 765.683 94.3577 761.1 Q97.4364 756.493 103.247 756.493 Z" fill="#000000" fill-rule="evenodd" fill-opacity="1" /><path clip-path="url(#clip510)" d="M 0 0 M130.26 760.197 Q126.649 760.197 124.82 763.762 Q123.015 767.303 123.015 774.433 Q123.015 781.539 124.82 785.104 Q126.649 788.646 130.26 788.646 Q133.895 788.646 135.7 785.104 Q137.529 781.539 137.529 774.433 Q137.529 767.303 135.7 763.762 Q133.895 760.197 130.26 760.197 M130.26 756.493 Q136.07 756.493 139.126 761.1 Q142.205 765.683 142.205 774.433 Q142.205 783.16 139.126 787.766 Q136.07 792.35 130.26 792.35 Q124.45 792.35 121.371 787.766 Q118.316 783.16 118.316 774.433 Q118.316 765.683 121.371 761.1 Q124.45 756.493 130.26 756.493 Z" fill="#000000" fill-rule="evenodd" fill-opacity="1" /><path clip-path="url(#clip510)" d="M 0 0 M76.6495 436.876 Q73.5013 436.876 71.6495 439.029 Q69.8208 441.182 69.8208 444.932 Q69.8208 448.659 71.6495 450.834 Q73.5013 452.987 76.6495 452.987 Q79.7976 452.987 81.6263 450.834 Q83.4781 448.659 83.4781 444.932 Q83.4781 441.182 81.6263 439.029 Q79.7976 436.876 76.6495 436.876 M85.9318 422.223 L85.9318 426.483 Q84.1726 425.649 82.367 425.21 Q80.5846 424.77 78.8254 424.77 Q74.1958 424.77 71.7421 427.895 Q69.3115 431.02 68.9643 437.339 Q70.33 435.325 72.3902 434.26 Q74.4504 433.173 76.9272 433.173 Q82.1355 433.173 85.1448 436.344 Q88.1772 439.492 88.1772 444.932 Q88.1772 450.256 85.029 453.473 Q81.8809 456.691 76.6495 456.691 Q70.6541 456.691 67.4828 452.108 Q64.3116 447.501 64.3116 438.774 Q64.3116 430.58 68.2004 425.719 Q72.0893 420.835 78.6402 420.835 Q80.3994 420.835 82.1818 421.182 Q83.9874 421.529 85.9318 422.223 Z" fill="#000000" fill-rule="evenodd" fill-opacity="1" /><path clip-path="url(#clip510)" d="M 0 0 M103.247 424.538 Q99.6354 424.538 97.8068 428.103 Q96.0012 431.645 96.0012 438.774 Q96.0012 445.881 97.8068 449.446 Q99.6354 452.987 103.247 452.987 Q106.881 452.987 108.686 449.446 Q110.515 445.881 110.515 438.774 Q110.515 431.645 108.686 428.103 Q106.881 424.538 103.247 424.538 M103.247 420.835 Q109.057 420.835 112.112 425.441 Q115.191 430.024 115.191 438.774 Q115.191 447.501 112.112 452.108 Q109.057 456.691 103.247 456.691 Q97.4364 456.691 94.3577 452.108 Q91.3022 447.501 91.3022 438.774 Q91.3022 430.024 94.3577 425.441 Q97.4364 420.835 103.247 420.835 Z" fill="#000000" fill-rule="evenodd" fill-opacity="1" /><path clip-path="url(#clip510)" d="M 0 0 M130.26 424.538 Q126.649 424.538 124.82 428.103 Q123.015 431.645 123.015 438.774 Q123.015 445.881 124.82 449.446 Q126.649 452.987 130.26 452.987 Q133.895 452.987 135.7 449.446 Q137.529 445.881 137.529 438.774 Q137.529 431.645 135.7 428.103 Q133.895 424.538 130.26 424.538 M130.26 420.835 Q136.07 420.835 139.126 425.441 Q142.205 430.024 142.205 438.774 Q142.205 447.501 139.126 452.108 Q136.07 456.691 130.26 456.691 Q124.45 456.691 121.371 452.108 Q118.316 447.501 118.316 438.774 Q118.316 430.024 121.371 425.441 Q124.45 420.835 130.26 420.835 Z" fill="#000000" fill-rule="evenodd" fill-opacity="1" /><path clip-path="url(#clip510)" d="M 0 0 M76.3254 103.949 Q72.9921 103.949 71.0708 105.731 Q69.1726 107.514 69.1726 110.639 Q69.1726 113.764 71.0708 115.546 Q72.9921 117.329 76.3254 117.329 Q79.6587 117.329 81.58 115.546 Q83.5013 113.741 83.5013 110.639 Q83.5013 107.514 81.58 105.731 Q79.6819 103.949 76.3254 103.949 M71.6495 101.958 Q68.6402 101.218 66.9504 99.1573 Q65.2838 97.0972 65.2838 94.1342 Q65.2838 89.9907 68.2236 87.5833 Q71.1865 85.1759 76.3254 85.1759 Q81.4874 85.1759 84.4272 87.5833 Q87.367 89.9907 87.367 94.1342 Q87.367 97.0972 85.6772 99.1573 Q84.0105 101.218 81.0244 101.958 Q84.404 102.745 86.279 105.037 Q88.1772 107.329 88.1772 110.639 Q88.1772 115.662 85.0985 118.347 Q82.0429 121.032 76.3254 121.032 Q70.6078 121.032 67.5291 118.347 Q64.4736 115.662 64.4736 110.639 Q64.4736 107.329 66.3717 105.037 Q68.2699 102.745 71.6495 101.958 M69.9365 94.574 Q69.9365 97.2592 71.6032 98.7638 Q73.293 100.268 76.3254 100.268 Q79.3346 100.268 81.0244 98.7638 Q82.7374 97.2592 82.7374 94.574 Q82.7374 91.8888 81.0244 90.3842 Q79.3346 88.8796 76.3254 88.8796 Q73.293 88.8796 71.6032 90.3842 Q69.9365 91.8888 69.9365 94.574 Z" fill="#000000" fill-rule="evenodd" fill-opacity="1" /><path clip-path="url(#clip510)" d="M 0 0 M103.247 88.8796 Q99.6354 88.8796 97.8068 92.4444 Q96.0012 95.986 96.0012 103.116 Q96.0012 110.222 97.8068 113.787 Q99.6354 117.329 103.247 117.329 Q106.881 117.329 108.686 113.787 Q110.515 110.222 110.515 103.116 Q110.515 95.986 108.686 92.4444 Q106.881 88.8796 103.247 88.8796 M103.247 85.1759 Q109.057 85.1759 112.112 89.7824 Q115.191 94.3657 115.191 103.116 Q115.191 111.842 112.112 116.449 Q109.057 121.032 103.247 121.032 Q97.4364 121.032 94.3577 116.449 Q91.3022 111.842 91.3022 103.116 Q91.3022 94.3657 94.3577 89.7824 Q97.4364 85.1759 103.247 85.1759 Z" fill="#000000" fill-rule="evenodd" fill-opacity="1" /><path clip-path="url(#clip510)" d="M 0 0 M130.26 88.8796 Q126.649 88.8796 124.82 92.4444 Q123.015 95.986 123.015 103.116 Q123.015 110.222 124.82 113.787 Q126.649 117.329 130.26 117.329 Q133.895 117.329 135.7 113.787 Q137.529 110.222 137.529 103.116 Q137.529 95.986 135.7 92.4444 Q133.895 88.8796 130.26 88.8796 M130.26 85.1759 Q136.07 85.1759 139.126 89.7824 Q142.205 94.3657 142.205 103.116 Q142.205 111.842 139.126 116.449 Q136.07 121.032 130.26 121.032 Q124.45 121.032 121.371 116.449 Q118.316 111.842 118.316 103.116 Q118.316 94.3657 121.371 89.7824 Q124.45 85.1759 130.26 85.1759 Z" fill="#000000" fill-rule="evenodd" fill-opacity="1" /><path clip-path="url(#clip512)" d="
M286.469 1442.36 L286.469 1445.72 L309.636 1445.72 L309.636 1442.36 L286.469 1442.36 L286.469 1442.36  Z
  " fill="#009af9" fill-rule="evenodd" fill-opacity="1"/>
<polyline clip-path="url(#clip512)" style="stroke:#000000; stroke-width:4; stroke-opacity:1; fill:none" points="
  286.469,1442.36 286.469,1445.72 309.636,1445.72 309.636,1442.36 286.469,1442.36 
  "/>
<path clip-path="url(#clip512)" d="
M309.636 1444.04 L309.636 1445.72 L332.803 1445.72 L332.803 1444.04 L309.636 1444.04 L309.636 1444.04  Z
  " fill="#009af9" fill-rule="evenodd" fill-opacity="1"/>
<polyline clip-path="url(#clip512)" style="stroke:#000000; stroke-width:4; stroke-opacity:1; fill:none" points="
  309.636,1444.04 309.636,1445.72 332.803,1445.72 332.803,1444.04 309.636,1444.04 
  "/>
<path clip-path="url(#clip512)" d="
M332.803 1445.72 L332.803 1445.72 L355.97 1445.72 L355.97 1445.72 L332.803 1445.72 L332.803 1445.72  Z
  " fill="#009af9" fill-rule="evenodd" fill-opacity="1"/>
<polyline clip-path="url(#clip512)" style="stroke:#000000; stroke-width:4; stroke-opacity:1; fill:none" points="
  332.803,1445.72 332.803,1445.72 355.97,1445.72 332.803,1445.72 
  "/>
<path clip-path="url(#clip512)" d="
M355.97 1444.04 L355.97 1445.72 L379.137 1445.72 L379.137 1444.04 L355.97 1444.04 L355.97 1444.04  Z
  " fill="#009af9" fill-rule="evenodd" fill-opacity="1"/>
<polyline clip-path="url(#clip512)" style="stroke:#000000; stroke-width:4; stroke-opacity:1; fill:none" points="
  355.97,1444.04 355.97,1445.72 379.137,1445.72 379.137,1444.04 355.97,1444.04 
  "/>
<path clip-path="url(#clip512)" d="
M379.137 1444.04 L379.137 1445.72 L402.304 1445.72 L402.304 1444.04 L379.137 1444.04 L379.137 1444.04  Z
  " fill="#009af9" fill-rule="evenodd" fill-opacity="1"/>
<polyline clip-path="url(#clip512)" style="stroke:#000000; stroke-width:4; stroke-opacity:1; fill:none" points="
  379.137,1444.04 379.137,1445.72 402.304,1445.72 402.304,1444.04 379.137,1444.04 
  "/>
<path clip-path="url(#clip512)" d="
M402.304 1442.36 L402.304 1445.72 L425.471 1445.72 L425.471 1442.36 L402.304 1442.36 L402.304 1442.36  Z
  " fill="#009af9" fill-rule="evenodd" fill-opacity="1"/>
<polyline clip-path="url(#clip512)" style="stroke:#000000; stroke-width:4; stroke-opacity:1; fill:none" points="
  402.304,1442.36 402.304,1445.72 425.471,1445.72 425.471,1442.36 402.304,1442.36 
  "/>
<path clip-path="url(#clip512)" d="
M425.471 1444.04 L425.471 1445.72 L448.637 1445.72 L448.637 1444.04 L425.471 1444.04 L425.471 1444.04  Z
  " fill="#009af9" fill-rule="evenodd" fill-opacity="1"/>
<polyline clip-path="url(#clip512)" style="stroke:#000000; stroke-width:4; stroke-opacity:1; fill:none" points="
  425.471,1444.04 425.471,1445.72 448.637,1445.72 448.637,1444.04 425.471,1444.04 
  "/>
<path clip-path="url(#clip512)" d="
M448.637 1445.72 L448.637 1445.72 L471.804 1445.72 L471.804 1445.72 L448.637 1445.72 L448.637 1445.72  Z
  " fill="#009af9" fill-rule="evenodd" fill-opacity="1"/>
<polyline clip-path="url(#clip512)" style="stroke:#000000; stroke-width:4; stroke-opacity:1; fill:none" points="
  448.637,1445.72 448.637,1445.72 471.804,1445.72 448.637,1445.72 
  "/>
<path clip-path="url(#clip512)" d="
M471.804 1444.04 L471.804 1445.72 L494.971 1445.72 L494.971 1444.04 L471.804 1444.04 L471.804 1444.04  Z
  " fill="#009af9" fill-rule="evenodd" fill-opacity="1"/>
<polyline clip-path="url(#clip512)" style="stroke:#000000; stroke-width:4; stroke-opacity:1; fill:none" points="
  471.804,1444.04 471.804,1445.72 494.971,1445.72 494.971,1444.04 471.804,1444.04 
  "/>
<path clip-path="url(#clip512)" d="
M494.971 1444.04 L494.971 1445.72 L518.138 1445.72 L518.138 1444.04 L494.971 1444.04 L494.971 1444.04  Z
  " fill="#009af9" fill-rule="evenodd" fill-opacity="1"/>
<polyline clip-path="url(#clip512)" style="stroke:#000000; stroke-width:4; stroke-opacity:1; fill:none" points="
  494.971,1444.04 494.971,1445.72 518.138,1445.72 518.138,1444.04 494.971,1444.04 
  "/>
<path clip-path="url(#clip512)" d="
M518.138 1439 L518.138 1445.72 L541.305 1445.72 L541.305 1439 L518.138 1439 L518.138 1439  Z
  " fill="#009af9" fill-rule="evenodd" fill-opacity="1"/>
<polyline clip-path="url(#clip512)" style="stroke:#000000; stroke-width:4; stroke-opacity:1; fill:none" points="
  518.138,1439 518.138,1445.72 541.305,1445.72 541.305,1439 518.138,1439 
  "/>
<path clip-path="url(#clip512)" d="
M541.305 1442.36 L541.305 1445.72 L564.472 1445.72 L564.472 1442.36 L541.305 1442.36 L541.305 1442.36  Z
  " fill="#009af9" fill-rule="evenodd" fill-opacity="1"/>
<polyline clip-path="url(#clip512)" style="stroke:#000000; stroke-width:4; stroke-opacity:1; fill:none" points="
  541.305,1442.36 541.305,1445.72 564.472,1445.72 564.472,1442.36 541.305,1442.36 
  "/>
<path clip-path="url(#clip512)" d="
M564.472 1437.32 L564.472 1445.72 L587.639 1445.72 L587.639 1437.32 L564.472 1437.32 L564.472 1437.32  Z
  " fill="#009af9" fill-rule="evenodd" fill-opacity="1"/>
<polyline clip-path="url(#clip512)" style="stroke:#000000; stroke-width:4; stroke-opacity:1; fill:none" points="
  564.472,1437.32 564.472,1445.72 587.639,1445.72 587.639,1437.32 564.472,1437.32 
  "/>
<path clip-path="url(#clip512)" d="
M587.639 1425.58 L587.639 1445.72 L610.806 1445.72 L610.806 1425.58 L587.639 1425.58 L587.639 1425.58  Z
  " fill="#009af9" fill-rule="evenodd" fill-opacity="1"/>
<polyline clip-path="url(#clip512)" style="stroke:#000000; stroke-width:4; stroke-opacity:1; fill:none" points="
  587.639,1425.58 587.639,1445.72 610.806,1445.72 610.806,1425.58 587.639,1425.58 
  "/>
<path clip-path="url(#clip512)" d="
M610.806 1410.47 L610.806 1445.72 L633.973 1445.72 L633.973 1410.47 L610.806 1410.47 L610.806 1410.47  Z
  " fill="#009af9" fill-rule="evenodd" fill-opacity="1"/>
<polyline clip-path="url(#clip512)" style="stroke:#000000; stroke-width:4; stroke-opacity:1; fill:none" points="
  610.806,1410.47 610.806,1445.72 633.973,1445.72 633.973,1410.47 610.806,1410.47 
  "/>
<path clip-path="url(#clip512)" d="
M633.973 1432.29 L633.973 1445.72 L657.14 1445.72 L657.14 1432.29 L633.973 1432.29 L633.973 1432.29  Z
  " fill="#009af9" fill-rule="evenodd" fill-opacity="1"/>
<polyline clip-path="url(#clip512)" style="stroke:#000000; stroke-width:4; stroke-opacity:1; fill:none" points="
  633.973,1432.29 633.973,1445.72 657.14,1445.72 657.14,1432.29 633.973,1432.29 
  "/>
<path clip-path="url(#clip512)" d="
M657.14 1425.58 L657.14 1445.72 L680.307 1445.72 L680.307 1425.58 L657.14 1425.58 L657.14 1425.58  Z
  " fill="#009af9" fill-rule="evenodd" fill-opacity="1"/>
<polyline clip-path="url(#clip512)" style="stroke:#000000; stroke-width:4; stroke-opacity:1; fill:none" points="
  657.14,1425.58 657.14,1445.72 680.307,1445.72 680.307,1425.58 657.14,1425.58 
  "/>
<path clip-path="url(#clip512)" d="
M680.307 1417.18 L680.307 1445.72 L703.474 1445.72 L703.474 1417.18 L680.307 1417.18 L680.307 1417.18  Z
  " fill="#009af9" fill-rule="evenodd" fill-opacity="1"/>
<polyline clip-path="url(#clip512)" style="stroke:#000000; stroke-width:4; stroke-opacity:1; fill:none" points="
  680.307,1417.18 680.307,1445.72 703.474,1445.72 703.474,1417.18 680.307,1417.18 
  "/>
<path clip-path="url(#clip512)" d="
M703.474 1405.44 L703.474 1445.72 L726.641 1445.72 L726.641 1405.44 L703.474 1405.44 L703.474 1405.44  Z
  " fill="#009af9" fill-rule="evenodd" fill-opacity="1"/>
<polyline clip-path="url(#clip512)" style="stroke:#000000; stroke-width:4; stroke-opacity:1; fill:none" points="
  703.474,1405.44 703.474,1445.72 726.641,1445.72 726.641,1405.44 703.474,1405.44 
  "/>
<path clip-path="url(#clip512)" d="
M726.641 1378.58 L726.641 1445.72 L749.808 1445.72 L749.808 1378.58 L726.641 1378.58 L726.641 1378.58  Z
  " fill="#009af9" fill-rule="evenodd" fill-opacity="1"/>
<polyline clip-path="url(#clip512)" style="stroke:#000000; stroke-width:4; stroke-opacity:1; fill:none" points="
  726.641,1378.58 726.641,1445.72 749.808,1445.72 749.808,1378.58 726.641,1378.58 
  "/>
<path clip-path="url(#clip512)" d="
M749.808 1393.69 L749.808 1445.72 L772.975 1445.72 L772.975 1393.69 L749.808 1393.69 L749.808 1393.69  Z
  " fill="#009af9" fill-rule="evenodd" fill-opacity="1"/>
<polyline clip-path="url(#clip512)" style="stroke:#000000; stroke-width:4; stroke-opacity:1; fill:none" points="
  749.808,1393.69 749.808,1445.72 772.975,1445.72 772.975,1393.69 749.808,1393.69 
  "/>
<path clip-path="url(#clip512)" d="
M772.975 1383.62 L772.975 1445.72 L796.142 1445.72 L796.142 1383.62 L772.975 1383.62 L772.975 1383.62  Z
  " fill="#009af9" fill-rule="evenodd" fill-opacity="1"/>
<polyline clip-path="url(#clip512)" style="stroke:#000000; stroke-width:4; stroke-opacity:1; fill:none" points="
  772.975,1383.62 772.975,1445.72 796.142,1445.72 796.142,1383.62 772.975,1383.62 
  "/>
<path clip-path="url(#clip512)" d="
M796.142 1380.26 L796.142 1445.72 L819.308 1445.72 L819.308 1380.26 L796.142 1380.26 L796.142 1380.26  Z
  " fill="#009af9" fill-rule="evenodd" fill-opacity="1"/>
<polyline clip-path="url(#clip512)" style="stroke:#000000; stroke-width:4; stroke-opacity:1; fill:none" points="
  796.142,1380.26 796.142,1445.72 819.308,1445.72 819.308,1380.26 796.142,1380.26 
  "/>
<path clip-path="url(#clip512)" d="
M819.308 1363.48 L819.308 1445.72 L842.475 1445.72 L842.475 1363.48 L819.308 1363.48 L819.308 1363.48  Z
  " fill="#009af9" fill-rule="evenodd" fill-opacity="1"/>
<polyline clip-path="url(#clip512)" style="stroke:#000000; stroke-width:4; stroke-opacity:1; fill:none" points="
  819.308,1363.48 819.308,1445.72 842.475,1445.72 842.475,1363.48 819.308,1363.48 
  "/>
<path clip-path="url(#clip512)" d="
M842.475 1346.7 L842.475 1445.72 L865.642 1445.72 L865.642 1346.7 L842.475 1346.7 L842.475 1346.7  Z
  " fill="#009af9" fill-rule="evenodd" fill-opacity="1"/>
<polyline clip-path="url(#clip512)" style="stroke:#000000; stroke-width:4; stroke-opacity:1; fill:none" points="
  842.475,1346.7 842.475,1445.72 865.642,1445.72 865.642,1346.7 842.475,1346.7 
  "/>
<path clip-path="url(#clip512)" d="
M865.642 1301.38 L865.642 1445.72 L888.809 1445.72 L888.809 1301.38 L865.642 1301.38 L865.642 1301.38  Z
  " fill="#009af9" fill-rule="evenodd" fill-opacity="1"/>
<polyline clip-path="url(#clip512)" style="stroke:#000000; stroke-width:4; stroke-opacity:1; fill:none" points="
  865.642,1301.38 865.642,1445.72 888.809,1445.72 888.809,1301.38 865.642,1301.38 
  "/>
<path clip-path="url(#clip512)" d="
M888.809 1336.63 L888.809 1445.72 L911.976 1445.72 L911.976 1336.63 L888.809 1336.63 L888.809 1336.63  Z
  " fill="#009af9" fill-rule="evenodd" fill-opacity="1"/>
<polyline clip-path="url(#clip512)" style="stroke:#000000; stroke-width:4; stroke-opacity:1; fill:none" points="
  888.809,1336.63 888.809,1445.72 911.976,1445.72 911.976,1336.63 888.809,1336.63 
  "/>
<path clip-path="url(#clip512)" d="
M911.976 1282.92 L911.976 1445.72 L935.143 1445.72 L935.143 1282.92 L911.976 1282.92 L911.976 1282.92  Z
  " fill="#009af9" fill-rule="evenodd" fill-opacity="1"/>
<polyline clip-path="url(#clip512)" style="stroke:#000000; stroke-width:4; stroke-opacity:1; fill:none" points="
  911.976,1282.92 911.976,1445.72 935.143,1445.72 935.143,1282.92 911.976,1282.92 
  "/>
<path clip-path="url(#clip512)" d="
M935.143 1303.06 L935.143 1445.72 L958.31 1445.72 L958.31 1303.06 L935.143 1303.06 L935.143 1303.06  Z
  " fill="#009af9" fill-rule="evenodd" fill-opacity="1"/>
<polyline clip-path="url(#clip512)" style="stroke:#000000; stroke-width:4; stroke-opacity:1; fill:none" points="
  935.143,1303.06 935.143,1445.72 958.31,1445.72 958.31,1303.06 935.143,1303.06 
  "/>
<path clip-path="url(#clip512)" d="
M958.31 1277.89 L958.31 1445.72 L981.477 1445.72 L981.477 1277.89 L958.31 1277.89 L958.31 1277.89  Z
  " fill="#009af9" fill-rule="evenodd" fill-opacity="1"/>
<polyline clip-path="url(#clip512)" style="stroke:#000000; stroke-width:4; stroke-opacity:1; fill:none" points="
  958.31,1277.89 958.31,1445.72 981.477,1445.72 981.477,1277.89 958.31,1277.89 
  "/>
<path clip-path="url(#clip512)" d="
M981.477 1289.63 L981.477 1445.72 L1004.64 1445.72 L1004.64 1289.63 L981.477 1289.63 L981.477 1289.63  Z
  " fill="#009af9" fill-rule="evenodd" fill-opacity="1"/>
<polyline clip-path="url(#clip512)" style="stroke:#000000; stroke-width:4; stroke-opacity:1; fill:none" points="
  981.477,1289.63 981.477,1445.72 1004.64,1445.72 1004.64,1289.63 981.477,1289.63 
  "/>
<path clip-path="url(#clip512)" d="
M1004.64 1251.03 L1004.64 1445.72 L1027.81 1445.72 L1027.81 1251.03 L1004.64 1251.03 L1004.64 1251.03  Z
  " fill="#009af9" fill-rule="evenodd" fill-opacity="1"/>
<polyline clip-path="url(#clip512)" style="stroke:#000000; stroke-width:4; stroke-opacity:1; fill:none" points="
  1004.64,1251.03 1004.64,1445.72 1027.81,1445.72 1027.81,1251.03 1004.64,1251.03 
  "/>
<path clip-path="url(#clip512)" d="
M1027.81 1262.78 L1027.81 1445.72 L1050.98 1445.72 L1050.98 1262.78 L1027.81 1262.78 L1027.81 1262.78  Z
  " fill="#009af9" fill-rule="evenodd" fill-opacity="1"/>
<polyline clip-path="url(#clip512)" style="stroke:#000000; stroke-width:4; stroke-opacity:1; fill:none" points="
  1027.81,1262.78 1027.81,1445.72 1050.98,1445.72 1050.98,1262.78 1027.81,1262.78 
  "/>
<path clip-path="url(#clip512)" d="
M1050.98 1296.35 L1050.98 1445.72 L1074.14 1445.72 L1074.14 1296.35 L1050.98 1296.35 L1050.98 1296.35  Z
  " fill="#009af9" fill-rule="evenodd" fill-opacity="1"/>
<polyline clip-path="url(#clip512)" style="stroke:#000000; stroke-width:4; stroke-opacity:1; fill:none" points="
  1050.98,1296.35 1050.98,1445.72 1074.14,1445.72 1074.14,1296.35 1050.98,1296.35 
  "/>
<path clip-path="url(#clip512)" d="
M1074.14 1232.57 L1074.14 1445.72 L1097.31 1445.72 L1097.31 1232.57 L1074.14 1232.57 L1074.14 1232.57  Z
  " fill="#009af9" fill-rule="evenodd" fill-opacity="1"/>
<polyline clip-path="url(#clip512)" style="stroke:#000000; stroke-width:4; stroke-opacity:1; fill:none" points="
  1074.14,1232.57 1074.14,1445.72 1097.31,1445.72 1097.31,1232.57 1074.14,1232.57 
  "/>
<path clip-path="url(#clip512)" d="
M1097.31 1215.79 L1097.31 1445.72 L1120.48 1445.72 L1120.48 1215.79 L1097.31 1215.79 L1097.31 1215.79  Z
  " fill="#009af9" fill-rule="evenodd" fill-opacity="1"/>
<polyline clip-path="url(#clip512)" style="stroke:#000000; stroke-width:4; stroke-opacity:1; fill:none" points="
  1097.31,1215.79 1097.31,1445.72 1120.48,1445.72 1120.48,1215.79 1097.31,1215.79 
  "/>
<path clip-path="url(#clip512)" d="
M1120.48 1193.97 L1120.48 1445.72 L1143.65 1445.72 L1143.65 1193.97 L1120.48 1193.97 L1120.48 1193.97  Z
  " fill="#009af9" fill-rule="evenodd" fill-opacity="1"/>
<polyline clip-path="url(#clip512)" style="stroke:#000000; stroke-width:4; stroke-opacity:1; fill:none" points="
  1120.48,1193.97 1120.48,1445.72 1143.65,1445.72 1143.65,1193.97 1120.48,1193.97 
  "/>
<path clip-path="url(#clip512)" d="
M1143.65 1244.32 L1143.65 1445.72 L1166.81 1445.72 L1166.81 1244.32 L1143.65 1244.32 L1143.65 1244.32  Z
  " fill="#009af9" fill-rule="evenodd" fill-opacity="1"/>
<polyline clip-path="url(#clip512)" style="stroke:#000000; stroke-width:4; stroke-opacity:1; fill:none" points="
  1143.65,1244.32 1143.65,1445.72 1166.81,1445.72 1166.81,1244.32 1143.65,1244.32 
  "/>
<path clip-path="url(#clip512)" d="
M1166.81 1168.8 L1166.81 1445.72 L1189.98 1445.72 L1189.98 1168.8 L1166.81 1168.8 L1166.81 1168.8  Z
  " fill="#009af9" fill-rule="evenodd" fill-opacity="1"/>
<polyline clip-path="url(#clip512)" style="stroke:#000000; stroke-width:4; stroke-opacity:1; fill:none" points="
  1166.81,1168.8 1166.81,1445.72 1189.98,1445.72 1189.98,1168.8 1166.81,1168.8 
  "/>
<path clip-path="url(#clip512)" d="
M1189.98 757.615 L1189.98 1445.72 L1213.15 1445.72 L1213.15 757.615 L1189.98 757.615 L1189.98 757.615  Z
  " fill="#009af9" fill-rule="evenodd" fill-opacity="1"/>
<polyline clip-path="url(#clip512)" style="stroke:#000000; stroke-width:4; stroke-opacity:1; fill:none" points="
  1189.98,757.615 1189.98,1445.72 1213.15,1445.72 1213.15,757.615 1189.98,757.615 
  "/>
<path clip-path="url(#clip512)" d="
M1213.15 87.9763 L1213.15 1445.72 L1236.31 1445.72 L1236.31 87.9763 L1213.15 87.9763 L1213.15 87.9763  Z
  " fill="#009af9" fill-rule="evenodd" fill-opacity="1"/>
<polyline clip-path="url(#clip512)" style="stroke:#000000; stroke-width:4; stroke-opacity:1; fill:none" points="
  1213.15,87.9763 1213.15,1445.72 1236.31,1445.72 1236.31,87.9763 1213.15,87.9763 
  "/>
<path clip-path="url(#clip512)" d="
M1236.31 198.744 L1236.31 1445.72 L1259.48 1445.72 L1259.48 198.744 L1236.31 198.744 L1236.31 198.744  Z
  " fill="#009af9" fill-rule="evenodd" fill-opacity="1"/>
<polyline clip-path="url(#clip512)" style="stroke:#000000; stroke-width:4; stroke-opacity:1; fill:none" points="
  1236.31,198.744 1236.31,1445.72 1259.48,1445.72 1259.48,198.744 1236.31,198.744 
  "/>
<path clip-path="url(#clip512)" d="
M1259.48 854.956 L1259.48 1445.72 L1282.65 1445.72 L1282.65 854.956 L1259.48 854.956 L1259.48 854.956  Z
  " fill="#009af9" fill-rule="evenodd" fill-opacity="1"/>
<polyline clip-path="url(#clip512)" style="stroke:#000000; stroke-width:4; stroke-opacity:1; fill:none" points="
  1259.48,854.956 1259.48,1445.72 1282.65,1445.72 1282.65,854.956 1259.48,854.956 
  "/>
<path clip-path="url(#clip512)" d="
M1282.65 1222.5 L1282.65 1445.72 L1305.81 1445.72 L1305.81 1222.5 L1282.65 1222.5 L1282.65 1222.5  Z
  " fill="#009af9" fill-rule="evenodd" fill-opacity="1"/>
<polyline clip-path="url(#clip512)" style="stroke:#000000; stroke-width:4; stroke-opacity:1; fill:none" points="
  1282.65,1222.5 1282.65,1445.72 1305.81,1445.72 1305.81,1222.5 1282.65,1222.5 
  "/>
<path clip-path="url(#clip512)" d="
M1305.81 1298.03 L1305.81 1445.72 L1328.98 1445.72 L1328.98 1298.03 L1305.81 1298.03 L1305.81 1298.03  Z
  " fill="#009af9" fill-rule="evenodd" fill-opacity="1"/>
<polyline clip-path="url(#clip512)" style="stroke:#000000; stroke-width:4; stroke-opacity:1; fill:none" points="
  1305.81,1298.03 1305.81,1445.72 1328.98,1445.72 1328.98,1298.03 1305.81,1298.03 
  "/>
<path clip-path="url(#clip512)" d="
M1328.98 1346.7 L1328.98 1445.72 L1352.15 1445.72 L1352.15 1346.7 L1328.98 1346.7 L1328.98 1346.7  Z
  " fill="#009af9" fill-rule="evenodd" fill-opacity="1"/>
<polyline clip-path="url(#clip512)" style="stroke:#000000; stroke-width:4; stroke-opacity:1; fill:none" points="
  1328.98,1346.7 1328.98,1445.72 1352.15,1445.72 1352.15,1346.7 1328.98,1346.7 
  "/>
<path clip-path="url(#clip512)" d="
M1352.15 1329.91 L1352.15 1445.72 L1375.31 1445.72 L1375.31 1329.91 L1352.15 1329.91 L1352.15 1329.91  Z
  " fill="#009af9" fill-rule="evenodd" fill-opacity="1"/>
<polyline clip-path="url(#clip512)" style="stroke:#000000; stroke-width:4; stroke-opacity:1; fill:none" points="
  1352.15,1329.91 1352.15,1445.72 1375.31,1445.72 1375.31,1329.91 1352.15,1329.91 
  "/>
<path clip-path="url(#clip512)" d="
M1375.31 1316.49 L1375.31 1445.72 L1398.48 1445.72 L1398.48 1316.49 L1375.31 1316.49 L1375.31 1316.49  Z
  " fill="#009af9" fill-rule="evenodd" fill-opacity="1"/>
<polyline clip-path="url(#clip512)" style="stroke:#000000; stroke-width:4; stroke-opacity:1; fill:none" points="
  1375.31,1316.49 1375.31,1445.72 1398.48,1445.72 1398.48,1316.49 1375.31,1316.49 
  "/>
<path clip-path="url(#clip512)" d="
M1398.48 1339.98 L1398.48 1445.72 L1421.65 1445.72 L1421.65 1339.98 L1398.48 1339.98 L1398.48 1339.98  Z
  " fill="#009af9" fill-rule="evenodd" fill-opacity="1"/>
<polyline clip-path="url(#clip512)" style="stroke:#000000; stroke-width:4; stroke-opacity:1; fill:none" points="
  1398.48,1339.98 1398.48,1445.72 1421.65,1445.72 1421.65,1339.98 1398.48,1339.98 
  "/>
<path clip-path="url(#clip512)" d="
M1421.65 1375.23 L1421.65 1445.72 L1444.82 1445.72 L1444.82 1375.23 L1421.65 1375.23 L1421.65 1375.23  Z
  " fill="#009af9" fill-rule="evenodd" fill-opacity="1"/>
<polyline clip-path="url(#clip512)" style="stroke:#000000; stroke-width:4; stroke-opacity:1; fill:none" points="
  1421.65,1375.23 1421.65,1445.72 1444.82,1445.72 1444.82,1375.23 1421.65,1375.23 
  "/>
<path clip-path="url(#clip512)" d="
M1444.82 1373.55 L1444.82 1445.72 L1467.98 1445.72 L1467.98 1373.55 L1444.82 1373.55 L1444.82 1373.55  Z
  " fill="#009af9" fill-rule="evenodd" fill-opacity="1"/>
<polyline clip-path="url(#clip512)" style="stroke:#000000; stroke-width:4; stroke-opacity:1; fill:none" points="
  1444.82,1373.55 1444.82,1445.72 1467.98,1445.72 1467.98,1373.55 1444.82,1373.55 
  "/>
<path clip-path="url(#clip512)" d="
M1467.98 1376.91 L1467.98 1445.72 L1491.15 1445.72 L1491.15 1376.91 L1467.98 1376.91 L1467.98 1376.91  Z
  " fill="#009af9" fill-rule="evenodd" fill-opacity="1"/>
<polyline clip-path="url(#clip512)" style="stroke:#000000; stroke-width:4; stroke-opacity:1; fill:none" points="
  1467.98,1376.91 1467.98,1445.72 1491.15,1445.72 1491.15,1376.91 1467.98,1376.91 
  "/>
<path clip-path="url(#clip512)" d="
M1491.15 1385.3 L1491.15 1445.72 L1514.32 1445.72 L1514.32 1385.3 L1491.15 1385.3 L1491.15 1385.3  Z
  " fill="#009af9" fill-rule="evenodd" fill-opacity="1"/>
<polyline clip-path="url(#clip512)" style="stroke:#000000; stroke-width:4; stroke-opacity:1; fill:none" points="
  1491.15,1385.3 1491.15,1445.72 1514.32,1445.72 1514.32,1385.3 1491.15,1385.3 
  "/>
<path clip-path="url(#clip512)" d="
M1514.32 1403.76 L1514.32 1445.72 L1537.48 1445.72 L1537.48 1403.76 L1514.32 1403.76 L1514.32 1403.76  Z
  " fill="#009af9" fill-rule="evenodd" fill-opacity="1"/>
<polyline clip-path="url(#clip512)" style="stroke:#000000; stroke-width:4; stroke-opacity:1; fill:none" points="
  1514.32,1403.76 1514.32,1445.72 1537.48,1445.72 1537.48,1403.76 1514.32,1403.76 
  "/>
<path clip-path="url(#clip512)" d="
M1537.48 1420.54 L1537.48 1445.72 L1560.65 1445.72 L1560.65 1420.54 L1537.48 1420.54 L1537.48 1420.54  Z
  " fill="#009af9" fill-rule="evenodd" fill-opacity="1"/>
<polyline clip-path="url(#clip512)" style="stroke:#000000; stroke-width:4; stroke-opacity:1; fill:none" points="
  1537.48,1420.54 1537.48,1445.72 1560.65,1445.72 1560.65,1420.54 1537.48,1420.54 
  "/>
<path clip-path="url(#clip512)" d="
M1560.65 1412.15 L1560.65 1445.72 L1583.82 1445.72 L1583.82 1412.15 L1560.65 1412.15 L1560.65 1412.15  Z
  " fill="#009af9" fill-rule="evenodd" fill-opacity="1"/>
<polyline clip-path="url(#clip512)" style="stroke:#000000; stroke-width:4; stroke-opacity:1; fill:none" points="
  1560.65,1412.15 1560.65,1445.72 1583.82,1445.72 1583.82,1412.15 1560.65,1412.15 
  "/>
<path clip-path="url(#clip512)" d="
M1583.82 1423.9 L1583.82 1445.72 L1606.98 1445.72 L1606.98 1423.9 L1583.82 1423.9 L1583.82 1423.9  Z
  " fill="#009af9" fill-rule="evenodd" fill-opacity="1"/>
<polyline clip-path="url(#clip512)" style="stroke:#000000; stroke-width:4; stroke-opacity:1; fill:none" points="
  1583.82,1423.9 1583.82,1445.72 1606.98,1445.72 1606.98,1423.9 1583.82,1423.9 
  "/>
<path clip-path="url(#clip512)" d="
M1606.98 1425.58 L1606.98 1445.72 L1630.15 1445.72 L1630.15 1425.58 L1606.98 1425.58 L1606.98 1425.58  Z
  " fill="#009af9" fill-rule="evenodd" fill-opacity="1"/>
<polyline clip-path="url(#clip512)" style="stroke:#000000; stroke-width:4; stroke-opacity:1; fill:none" points="
  1606.98,1425.58 1606.98,1445.72 1630.15,1445.72 1630.15,1425.58 1606.98,1425.58 
  "/>
<path clip-path="url(#clip512)" d="
M1630.15 1433.97 L1630.15 1445.72 L1653.32 1445.72 L1653.32 1433.97 L1630.15 1433.97 L1630.15 1433.97  Z
  " fill="#009af9" fill-rule="evenodd" fill-opacity="1"/>
<polyline clip-path="url(#clip512)" style="stroke:#000000; stroke-width:4; stroke-opacity:1; fill:none" points="
  1630.15,1433.97 1630.15,1445.72 1653.32,1445.72 1653.32,1433.97 1630.15,1433.97 
  "/>
<path clip-path="url(#clip512)" d="
M1653.32 1432.29 L1653.32 1445.72 L1676.49 1445.72 L1676.49 1432.29 L1653.32 1432.29 L1653.32 1432.29  Z
  " fill="#009af9" fill-rule="evenodd" fill-opacity="1"/>
<polyline clip-path="url(#clip512)" style="stroke:#000000; stroke-width:4; stroke-opacity:1; fill:none" points="
  1653.32,1432.29 1653.32,1445.72 1676.49,1445.72 1676.49,1432.29 1653.32,1432.29 
  "/>
<path clip-path="url(#clip512)" d="
M1676.49 1432.29 L1676.49 1445.72 L1699.65 1445.72 L1699.65 1432.29 L1676.49 1432.29 L1676.49 1432.29  Z
  " fill="#009af9" fill-rule="evenodd" fill-opacity="1"/>
<polyline clip-path="url(#clip512)" style="stroke:#000000; stroke-width:4; stroke-opacity:1; fill:none" points="
  1676.49,1432.29 1676.49,1445.72 1699.65,1445.72 1699.65,1432.29 1676.49,1432.29 
  "/>
<path clip-path="url(#clip512)" d="
M1699.65 1437.32 L1699.65 1445.72 L1722.82 1445.72 L1722.82 1437.32 L1699.65 1437.32 L1699.65 1437.32  Z
  " fill="#009af9" fill-rule="evenodd" fill-opacity="1"/>
<polyline clip-path="url(#clip512)" style="stroke:#000000; stroke-width:4; stroke-opacity:1; fill:none" points="
  1699.65,1437.32 1699.65,1445.72 1722.82,1445.72 1722.82,1437.32 1699.65,1437.32 
  "/>
<path clip-path="url(#clip512)" d="
M1722.82 1442.36 L1722.82 1445.72 L1745.99 1445.72 L1745.99 1442.36 L1722.82 1442.36 L1722.82 1442.36  Z
  " fill="#009af9" fill-rule="evenodd" fill-opacity="1"/>
<polyline clip-path="url(#clip512)" style="stroke:#000000; stroke-width:4; stroke-opacity:1; fill:none" points="
  1722.82,1442.36 1722.82,1445.72 1745.99,1445.72 1745.99,1442.36 1722.82,1442.36 
  "/>
<path clip-path="url(#clip512)" d="
M1745.99 1445.72 L1745.99 1445.72 L1769.15 1445.72 L1769.15 1445.72 L1745.99 1445.72 L1745.99 1445.72  Z
  " fill="#009af9" fill-rule="evenodd" fill-opacity="1"/>
<polyline clip-path="url(#clip512)" style="stroke:#000000; stroke-width:4; stroke-opacity:1; fill:none" points="
  1745.99,1445.72 1745.99,1445.72 1769.15,1445.72 1745.99,1445.72 
  "/>
<path clip-path="url(#clip512)" d="
M1769.15 1444.04 L1769.15 1445.72 L1792.32 1445.72 L1792.32 1444.04 L1769.15 1444.04 L1769.15 1444.04  Z
  " fill="#009af9" fill-rule="evenodd" fill-opacity="1"/>
<polyline clip-path="url(#clip512)" style="stroke:#000000; stroke-width:4; stroke-opacity:1; fill:none" points="
  1769.15,1444.04 1769.15,1445.72 1792.32,1445.72 1792.32,1444.04 1769.15,1444.04 
  "/>
<path clip-path="url(#clip512)" d="
M1792.32 1442.36 L1792.32 1445.72 L1815.49 1445.72 L1815.49 1442.36 L1792.32 1442.36 L1792.32 1442.36  Z
  " fill="#009af9" fill-rule="evenodd" fill-opacity="1"/>
<polyline clip-path="url(#clip512)" style="stroke:#000000; stroke-width:4; stroke-opacity:1; fill:none" points="
  1792.32,1442.36 1792.32,1445.72 1815.49,1445.72 1815.49,1442.36 1792.32,1442.36 
  "/>
<path clip-path="url(#clip512)" d="
M1815.49 1444.04 L1815.49 1445.72 L1838.65 1445.72 L1838.65 1444.04 L1815.49 1444.04 L1815.49 1444.04  Z
  " fill="#009af9" fill-rule="evenodd" fill-opacity="1"/>
<polyline clip-path="url(#clip512)" style="stroke:#000000; stroke-width:4; stroke-opacity:1; fill:none" points="
  1815.49,1444.04 1815.49,1445.72 1838.65,1445.72 1838.65,1444.04 1815.49,1444.04 
  "/>
<path clip-path="url(#clip512)" d="
M1838.65 1439 L1838.65 1445.72 L1861.82 1445.72 L1861.82 1439 L1838.65 1439 L1838.65 1439  Z
  " fill="#009af9" fill-rule="evenodd" fill-opacity="1"/>
<polyline clip-path="url(#clip512)" style="stroke:#000000; stroke-width:4; stroke-opacity:1; fill:none" points="
  1838.65,1439 1838.65,1445.72 1861.82,1445.72 1861.82,1439 1838.65,1439 
  "/>
<path clip-path="url(#clip512)" d="
M1861.82 1444.04 L1861.82 1445.72 L1884.99 1445.72 L1884.99 1444.04 L1861.82 1444.04 L1861.82 1444.04  Z
  " fill="#009af9" fill-rule="evenodd" fill-opacity="1"/>
<polyline clip-path="url(#clip512)" style="stroke:#000000; stroke-width:4; stroke-opacity:1; fill:none" points="
  1861.82,1444.04 1861.82,1445.72 1884.99,1445.72 1884.99,1444.04 1861.82,1444.04 
  "/>
<path clip-path="url(#clip512)" d="
M1884.99 1444.04 L1884.99 1445.72 L1908.15 1445.72 L1908.15 1444.04 L1884.99 1444.04 L1884.99 1444.04  Z
  " fill="#009af9" fill-rule="evenodd" fill-opacity="1"/>
<polyline clip-path="url(#clip512)" style="stroke:#000000; stroke-width:4; stroke-opacity:1; fill:none" points="
  1884.99,1444.04 1884.99,1445.72 1908.15,1445.72 1908.15,1444.04 1884.99,1444.04 
  "/>
<path clip-path="url(#clip512)" d="
M1908.15 1445.72 L1908.15 1445.72 L1931.32 1445.72 L1931.32 1445.72 L1908.15 1445.72 L1908.15 1445.72  Z
  " fill="#009af9" fill-rule="evenodd" fill-opacity="1"/>
<polyline clip-path="url(#clip512)" style="stroke:#000000; stroke-width:4; stroke-opacity:1; fill:none" points="
  1908.15,1445.72 1908.15,1445.72 1931.32,1445.72 1908.15,1445.72 
  "/>
<path clip-path="url(#clip512)" d="
M1931.32 1445.72 L1931.32 1445.72 L1954.49 1445.72 L1954.49 1445.72 L1931.32 1445.72 L1931.32 1445.72  Z
  " fill="#009af9" fill-rule="evenodd" fill-opacity="1"/>
<polyline clip-path="url(#clip512)" style="stroke:#000000; stroke-width:4; stroke-opacity:1; fill:none" points="
  1931.32,1445.72 1931.32,1445.72 1954.49,1445.72 1931.32,1445.72 
  "/>
<path clip-path="url(#clip512)" d="
M1954.49 1445.72 L1954.49 1445.72 L1977.66 1445.72 L1977.66 1445.72 L1954.49 1445.72 L1954.49 1445.72  Z
  " fill="#009af9" fill-rule="evenodd" fill-opacity="1"/>
<polyline clip-path="url(#clip512)" style="stroke:#000000; stroke-width:4; stroke-opacity:1; fill:none" points="
  1954.49,1445.72 1954.49,1445.72 1977.66,1445.72 1954.49,1445.72 
  "/>
<path clip-path="url(#clip512)" d="
M1977.66 1445.72 L1977.66 1445.72 L2000.82 1445.72 L2000.82 1445.72 L1977.66 1445.72 L1977.66 1445.72  Z
  " fill="#009af9" fill-rule="evenodd" fill-opacity="1"/>
<polyline clip-path="url(#clip512)" style="stroke:#000000; stroke-width:4; stroke-opacity:1; fill:none" points="
  1977.66,1445.72 1977.66,1445.72 2000.82,1445.72 1977.66,1445.72 
  "/>
<path clip-path="url(#clip512)" d="
M2000.82 1445.72 L2000.82 1445.72 L2023.99 1445.72 L2023.99 1445.72 L2000.82 1445.72 L2000.82 1445.72  Z
  " fill="#009af9" fill-rule="evenodd" fill-opacity="1"/>
<polyline clip-path="url(#clip512)" style="stroke:#000000; stroke-width:4; stroke-opacity:1; fill:none" points="
  2000.82,1445.72 2000.82,1445.72 2023.99,1445.72 2000.82,1445.72 
  "/>
<path clip-path="url(#clip512)" d="
M2023.99 1445.72 L2023.99 1445.72 L2047.16 1445.72 L2047.16 1445.72 L2023.99 1445.72 L2023.99 1445.72  Z
  " fill="#009af9" fill-rule="evenodd" fill-opacity="1"/>
<polyline clip-path="url(#clip512)" style="stroke:#000000; stroke-width:4; stroke-opacity:1; fill:none" points="
  2023.99,1445.72 2023.99,1445.72 2047.16,1445.72 2023.99,1445.72 
  "/>
<path clip-path="url(#clip512)" d="
M2047.16 1445.72 L2047.16 1445.72 L2070.32 1445.72 L2070.32 1445.72 L2047.16 1445.72 L2047.16 1445.72  Z
  " fill="#009af9" fill-rule="evenodd" fill-opacity="1"/>
<polyline clip-path="url(#clip512)" style="stroke:#000000; stroke-width:4; stroke-opacity:1; fill:none" points="
  2047.16,1445.72 2047.16,1445.72 2070.32,1445.72 2047.16,1445.72 
  "/>
<path clip-path="url(#clip512)" d="
M2070.32 1445.72 L2070.32 1445.72 L2093.49 1445.72 L2093.49 1445.72 L2070.32 1445.72 L2070.32 1445.72  Z
  " fill="#009af9" fill-rule="evenodd" fill-opacity="1"/>
<polyline clip-path="url(#clip512)" style="stroke:#000000; stroke-width:4; stroke-opacity:1; fill:none" points="
  2070.32,1445.72 2070.32,1445.72 2093.49,1445.72 2070.32,1445.72 
  "/>
<path clip-path="url(#clip512)" d="
M2093.49 1445.72 L2093.49 1445.72 L2116.66 1445.72 L2116.66 1445.72 L2093.49 1445.72 L2093.49 1445.72  Z
  " fill="#009af9" fill-rule="evenodd" fill-opacity="1"/>
<polyline clip-path="url(#clip512)" style="stroke:#000000; stroke-width:4; stroke-opacity:1; fill:none" points="
  2093.49,1445.72 2093.49,1445.72 2116.66,1445.72 2093.49,1445.72 
  "/>
<path clip-path="url(#clip512)" d="
M2116.66 1445.72 L2116.66 1445.72 L2139.82 1445.72 L2139.82 1445.72 L2116.66 1445.72 L2116.66 1445.72  Z
  " fill="#009af9" fill-rule="evenodd" fill-opacity="1"/>
<polyline clip-path="url(#clip512)" style="stroke:#000000; stroke-width:4; stroke-opacity:1; fill:none" points="
  2116.66,1445.72 2116.66,1445.72 2139.82,1445.72 2116.66,1445.72 
  "/>
<path clip-path="url(#clip512)" d="
M2139.82 1445.72 L2139.82 1445.72 L2162.99 1445.72 L2162.99 1445.72 L2139.82 1445.72 L2139.82 1445.72  Z
  " fill="#009af9" fill-rule="evenodd" fill-opacity="1"/>
<polyline clip-path="url(#clip512)" style="stroke:#000000; stroke-width:4; stroke-opacity:1; fill:none" points="
  2139.82,1445.72 2139.82,1445.72 2162.99,1445.72 2139.82,1445.72 
  "/>
<path clip-path="url(#clip512)" d="
M2162.99 1445.72 L2162.99 1445.72 L2186.16 1445.72 L2186.16 1445.72 L2162.99 1445.72 L2162.99 1445.72  Z
  " fill="#009af9" fill-rule="evenodd" fill-opacity="1"/>
<polyline clip-path="url(#clip512)" style="stroke:#000000; stroke-width:4; stroke-opacity:1; fill:none" points="
  2162.99,1445.72 2162.99,1445.72 2186.16,1445.72 2162.99,1445.72 
  "/>
<path clip-path="url(#clip512)" d="
M2186.16 1445.72 L2186.16 1445.72 L2209.32 1445.72 L2209.32 1445.72 L2186.16 1445.72 L2186.16 1445.72  Z
  " fill="#009af9" fill-rule="evenodd" fill-opacity="1"/>
<polyline clip-path="url(#clip512)" style="stroke:#000000; stroke-width:4; stroke-opacity:1; fill:none" points="
  2186.16,1445.72 2186.16,1445.72 2209.32,1445.72 2186.16,1445.72 
  "/>
<path clip-path="url(#clip512)" d="
M2209.32 1444.04 L2209.32 1445.72 L2232.49 1445.72 L2232.49 1444.04 L2209.32 1444.04 L2209.32 1444.04  Z
  " fill="#009af9" fill-rule="evenodd" fill-opacity="1"/>
<polyline clip-path="url(#clip512)" style="stroke:#000000; stroke-width:4; stroke-opacity:1; fill:none" points="
  2209.32,1444.04 2209.32,1445.72 2232.49,1445.72 2232.49,1444.04 2209.32,1444.04 
  "/>
<path clip-path="url(#clip510)" d="
M1989.74 251.724 L2280.76 251.724 L2280.76 130.764 L1989.74 130.764  Z
  " fill="#ffffff" fill-rule="evenodd" fill-opacity="1"/>
<polyline clip-path="url(#clip510)" style="stroke:#000000; stroke-width:4; stroke-opacity:1; fill:none" points="
  1989.74,251.724 2280.76,251.724 2280.76,130.764 1989.74,130.764 1989.74,251.724 
  "/>
<path clip-path="url(#clip510)" d="
M2013.74 215.436 L2157.74 215.436 L2157.74 167.052 L2013.74 167.052 L2013.74 215.436  Z
  " fill="#009af9" fill-rule="evenodd" fill-opacity="1"/>
<polyline clip-path="url(#clip510)" style="stroke:#000000; stroke-width:4; stroke-opacity:1; fill:none" points="
  2013.74,215.436 2157.74,215.436 2157.74,167.052 2013.74,167.052 2013.74,215.436 
  "/>
<path clip-path="url(#clip510)" d="M 0 0 M2195.58 210.931 Q2193.77 215.561 2192.06 216.973 Q2190.35 218.385 2187.48 218.385 L2184.08 218.385 L2184.08 214.82 L2186.58 214.82 Q2188.33 214.82 2189.31 213.987 Q2190.28 213.154 2191.46 210.052 L2192.22 208.107 L2181.74 182.598 L2186.25 182.598 L2194.35 202.876 L2202.46 182.598 L2206.97 182.598 L2195.58 210.931 Z" fill="#000000" fill-rule="evenodd" fill-opacity="1" /><path clip-path="url(#clip510)" d="M 0 0 M2212.85 204.589 L2220.49 204.589 L2220.49 178.223 L2212.18 179.89 L2212.18 175.631 L2220.44 173.964 L2225.12 173.964 L2225.12 204.589 L2232.76 204.589 L2232.76 208.524 L2212.85 208.524 L2212.85 204.589 Z" fill="#000000" fill-rule="evenodd" fill-opacity="1" /></svg>
