<?xml version="1.0" encoding="utf-8"?>
<svg xmlns="http://www.w3.org/2000/svg" xmlns:xlink="http://www.w3.org/1999/xlink" width="600" height="400" viewBox="0 0 2400 1600">
<defs>
  <clipPath id="clip590">
    <rect x="0" y="0" width="2400" height="1600"/>
  </clipPath>
</defs>
<path clip-path="url(#clip590)" d="
M0 1600 L2400 1600 L2400 0 L0 0  Z
  " fill="#ffffff" fill-rule="evenodd" fill-opacity="1"/>
<defs>
  <clipPath id="clip591">
    <rect x="480" y="0" width="1681" height="1600"/>
  </clipPath>
</defs>
<path clip-path="url(#clip590)" d="
M166.205 1486.45 L2352.76 1486.45 L2352.76 47.2441 L166.205 47.2441  Z
  " fill="#ffffff" fill-rule="evenodd" fill-opacity="1"/>
<defs>
  <clipPath id="clip592">
    <rect x="166" y="47" width="2188" height="1440"/>
  </clipPath>
</defs>
<polyline clip-path="url(#clip592)" style="stroke:#000000; stroke-width:2; stroke-opacity:0.1; fill:none" points="
  413.887,1486.45 413.887,47.2441 
  "/>
<polyline clip-path="url(#clip592)" style="stroke:#000000; stroke-width:2; stroke-opacity:0.1; fill:none" points="
  703.474,1486.45 703.474,47.2441 
  "/>
<polyline clip-path="url(#clip592)" style="stroke:#000000; stroke-width:2; stroke-opacity:0.1; fill:none" points="
  993.06,1486.45 993.06,47.2441 
  "/>
<polyline clip-path="url(#clip592)" style="stroke:#000000; stroke-width:2; stroke-opacity:0.1; fill:none" points="
  1282.65,1486.45 1282.65,47.2441 
  "/>
<polyline clip-path="url(#clip592)" style="stroke:#000000; stroke-width:2; stroke-opacity:0.1; fill:none" points="
  1572.23,1486.45 1572.23,47.2441 
  "/>
<polyline clip-path="url(#clip592)" style="stroke:#000000; stroke-width:2; stroke-opacity:0.1; fill:none" points="
  1861.82,1486.45 1861.82,47.2441 
  "/>
<polyline clip-path="url(#clip592)" style="stroke:#000000; stroke-width:2; stroke-opacity:0.1; fill:none" points="
  2151.41,1486.45 2151.41,47.2441 
  "/>
<polyline clip-path="url(#clip592)" style="stroke:#000000; stroke-width:2; stroke-opacity:0.1; fill:none" points="
  166.205,1445.72 2352.76,1445.72 
  "/>
<polyline clip-path="url(#clip592)" style="stroke:#000000; stroke-width:2; stroke-opacity:0.1; fill:none" points="
  166.205,1098.91 2352.76,1098.91 
  "/>
<polyline clip-path="url(#clip592)" style="stroke:#000000; stroke-width:2; stroke-opacity:0.1; fill:none" points="
  166.205,752.107 2352.76,752.107 
  "/>
<polyline clip-path="url(#clip592)" style="stroke:#000000; stroke-width:2; stroke-opacity:0.1; fill:none" points="
  166.205,405.302 2352.76,405.302 
  "/>
<polyline clip-path="url(#clip592)" style="stroke:#000000; stroke-width:2; stroke-opacity:0.1; fill:none" points="
  166.205,58.4979 2352.76,58.4979 
  "/>
<polyline clip-path="url(#clip590)" style="stroke:#000000; stroke-width:4; stroke-opacity:1; fill:none" points="
  166.205,1486.45 2352.76,1486.45 
  "/>
<polyline clip-path="url(#clip590)" style="stroke:#000000; stroke-width:4; stroke-opacity:1; fill:none" points="
  166.205,1486.45 166.205,47.2441 
  "/>
<polyline clip-path="url(#clip590)" style="stroke:#000000; stroke-width:4; stroke-opacity:1; fill:none" points="
  413.887,1486.45 413.887,1469.18 
  "/>
<polyline clip-path="url(#clip590)" style="stroke:#000000; stroke-width:4; stroke-opacity:1; fill:none" points="
  703.474,1486.45 703.474,1469.18 
  "/>
<polyline clip-path="url(#clip590)" style="stroke:#000000; stroke-width:4; stroke-opacity:1; fill:none" points="
  993.06,1486.45 993.06,1469.18 
  "/>
<polyline clip-path="url(#clip590)" style="stroke:#000000; stroke-width:4; stroke-opacity:1; fill:none" points="
  1282.65,1486.45 1282.65,1469.18 
  "/>
<polyline clip-path="url(#clip590)" style="stroke:#000000; stroke-width:4; stroke-opacity:1; fill:none" points="
  1572.23,1486.45 1572.23,1469.18 
  "/>
<polyline clip-path="url(#clip590)" style="stroke:#000000; stroke-width:4; stroke-opacity:1; fill:none" points="
  1861.82,1486.45 1861.82,1469.18 
  "/>
<polyline clip-path="url(#clip590)" style="stroke:#000000; stroke-width:4; stroke-opacity:1; fill:none" points="
  2151.41,1486.45 2151.41,1469.18 
  "/>
<polyline clip-path="url(#clip590)" style="stroke:#000000; stroke-width:4; stroke-opacity:1; fill:none" points="
  166.205,1445.72 192.443,1445.72 
  "/>
<polyline clip-path="url(#clip590)" style="stroke:#000000; stroke-width:4; stroke-opacity:1; fill:none" points="
  166.205,1098.91 192.443,1098.91 
  "/>
<polyline clip-path="url(#clip590)" style="stroke:#000000; stroke-width:4; stroke-opacity:1; fill:none" points="
  166.205,752.107 192.443,752.107 
  "/>
<polyline clip-path="url(#clip590)" style="stroke:#000000; stroke-width:4; stroke-opacity:1; fill:none" points="
  166.205,405.302 192.443,405.302 
  "/>
<polyline clip-path="url(#clip590)" style="stroke:#000000; stroke-width:4; stroke-opacity:1; fill:none" points="
  166.205,58.4979 192.443,58.4979 
  "/>
<path clip-path="url(#clip590)" d="M 0 0 M376.607 1525.04 L389.084 1525.04 L389.084 1528.83 L376.607 1528.83 L376.607 1525.04 Z" fill="#000000" fill-rule="evenodd" fill-opacity="1" /><path clip-path="url(#clip590)" d="M 0 0 M392.973 1505.36 L415.195 1505.36 L415.195 1507.35 L402.649 1539.92 L397.764 1539.92 L409.57 1509.3 L392.973 1509.3 L392.973 1505.36 Z" fill="#000000" fill-rule="evenodd" fill-opacity="1" /><path clip-path="url(#clip590)" d="M 0 0 M420.264 1534.04 L425.149 1534.04 L425.149 1539.92 L420.264 1539.92 L420.264 1534.04 Z" fill="#000000" fill-rule="evenodd" fill-opacity="1" /><path clip-path="url(#clip590)" d="M 0 0 M430.264 1505.36 L448.621 1505.36 L448.621 1509.3 L434.547 1509.3 L434.547 1517.77 Q435.565 1517.42 436.584 1517.26 Q437.602 1517.07 438.621 1517.07 Q444.408 1517.07 447.787 1520.24 Q451.167 1523.42 451.167 1528.83 Q451.167 1534.41 447.695 1537.51 Q444.223 1540.59 437.903 1540.59 Q435.727 1540.59 433.459 1540.22 Q431.213 1539.85 428.806 1539.11 L428.806 1534.41 Q430.889 1535.54 433.111 1536.1 Q435.334 1536.66 437.811 1536.66 Q441.815 1536.66 444.153 1534.55 Q446.491 1532.44 446.491 1528.83 Q446.491 1525.22 444.153 1523.11 Q441.815 1521.01 437.811 1521.01 Q435.936 1521.01 434.061 1521.42 Q432.209 1521.84 430.264 1522.72 L430.264 1505.36 Z" fill="#000000" fill-rule="evenodd" fill-opacity="1" /><path clip-path="url(#clip590)" d="M 0 0 M665.742 1525.04 L678.219 1525.04 L678.219 1528.83 L665.742 1528.83 L665.742 1525.04 Z" fill="#000000" fill-rule="evenodd" fill-opacity="1" /><path clip-path="url(#clip590)" d="M 0 0 M683.335 1505.36 L701.691 1505.36 L701.691 1509.3 L687.617 1509.3 L687.617 1517.77 Q688.636 1517.42 689.654 1517.26 Q690.673 1517.07 691.691 1517.07 Q697.478 1517.07 700.858 1520.24 Q704.238 1523.42 704.238 1528.83 Q704.238 1534.41 700.765 1537.51 Q697.293 1540.59 690.974 1540.59 Q688.798 1540.59 686.529 1540.22 Q684.284 1539.85 681.877 1539.11 L681.877 1534.41 Q683.96 1535.54 686.182 1536.1 Q688.404 1536.66 690.881 1536.66 Q694.886 1536.66 697.224 1534.55 Q699.562 1532.44 699.562 1528.83 Q699.562 1525.22 697.224 1523.11 Q694.886 1521.01 690.881 1521.01 Q689.006 1521.01 687.131 1521.42 Q685.279 1521.84 683.335 1522.72 L683.335 1505.36 Z" fill="#000000" fill-rule="evenodd" fill-opacity="1" /><path clip-path="url(#clip590)" d="M 0 0 M709.307 1534.04 L714.191 1534.04 L714.191 1539.92 L709.307 1539.92 L709.307 1534.04 Z" fill="#000000" fill-rule="evenodd" fill-opacity="1" /><path clip-path="url(#clip590)" d="M 0 0 M729.261 1508.44 Q725.65 1508.44 723.821 1512 Q722.015 1515.55 722.015 1522.67 Q722.015 1529.78 723.821 1533.35 Q725.65 1536.89 729.261 1536.89 Q732.895 1536.89 734.7 1533.35 Q736.529 1529.78 736.529 1522.67 Q736.529 1515.55 734.7 1512 Q732.895 1508.44 729.261 1508.44 M729.261 1504.73 Q735.071 1504.73 738.126 1509.34 Q741.205 1513.92 741.205 1522.67 Q741.205 1531.4 738.126 1536.01 Q735.071 1540.59 729.261 1540.59 Q723.451 1540.59 720.372 1536.01 Q717.316 1531.4 717.316 1522.67 Q717.316 1513.92 720.372 1509.34 Q723.451 1504.73 729.261 1504.73 Z" fill="#000000" fill-rule="evenodd" fill-opacity="1" /><path clip-path="url(#clip590)" d="M 0 0 M956.128 1525.04 L968.605 1525.04 L968.605 1528.83 L956.128 1528.83 L956.128 1525.04 Z" fill="#000000" fill-rule="evenodd" fill-opacity="1" /><path clip-path="url(#clip590)" d="M 0 0 M977.702 1535.98 L994.021 1535.98 L994.021 1539.92 L972.077 1539.92 L972.077 1535.98 Q974.739 1533.23 979.322 1528.6 Q983.929 1523.95 985.109 1522.61 Q987.355 1520.08 988.234 1518.35 Q989.137 1516.59 989.137 1514.9 Q989.137 1512.14 987.192 1510.41 Q985.271 1508.67 982.169 1508.67 Q979.97 1508.67 977.517 1509.43 Q975.086 1510.2 972.308 1511.75 L972.308 1507.03 Q975.132 1505.89 977.586 1505.31 Q980.04 1504.73 982.077 1504.73 Q987.447 1504.73 990.642 1507.42 Q993.836 1510.11 993.836 1514.6 Q993.836 1516.73 993.026 1518.65 Q992.239 1520.54 990.132 1523.14 Q989.554 1523.81 986.452 1527.03 Q983.35 1530.22 977.702 1535.98 Z" fill="#000000" fill-rule="evenodd" fill-opacity="1" /><path clip-path="url(#clip590)" d="M 0 0 M999.091 1534.04 L1003.97 1534.04 L1003.97 1539.92 L999.091 1539.92 L999.091 1534.04 Z" fill="#000000" fill-rule="evenodd" fill-opacity="1" /><path clip-path="url(#clip590)" d="M 0 0 M1009.09 1505.36 L1027.45 1505.36 L1027.45 1509.3 L1013.37 1509.3 L1013.37 1517.77 Q1014.39 1517.42 1015.41 1517.26 Q1016.43 1517.07 1017.45 1517.07 Q1023.23 1517.07 1026.61 1520.24 Q1029.99 1523.42 1029.99 1528.83 Q1029.99 1534.41 1026.52 1537.51 Q1023.05 1540.59 1016.73 1540.59 Q1014.55 1540.59 1012.28 1540.22 Q1010.04 1539.85 1007.63 1539.11 L1007.63 1534.41 Q1009.72 1535.54 1011.94 1536.1 Q1014.16 1536.66 1016.64 1536.66 Q1020.64 1536.66 1022.98 1534.55 Q1025.32 1532.44 1025.32 1528.83 Q1025.32 1525.22 1022.98 1523.11 Q1020.64 1521.01 1016.64 1521.01 Q1014.76 1521.01 1012.89 1521.42 Q1011.03 1521.84 1009.09 1522.72 L1009.09 1505.36 Z" fill="#000000" fill-rule="evenodd" fill-opacity="1" /><path clip-path="url(#clip590)" d="M 0 0 M1264.16 1508.44 Q1260.55 1508.44 1258.72 1512 Q1256.92 1515.55 1256.92 1522.67 Q1256.92 1529.78 1258.72 1533.35 Q1260.55 1536.89 1264.16 1536.89 Q1267.8 1536.89 1269.6 1533.35 Q1271.43 1529.78 1271.43 1522.67 Q1271.43 1515.55 1269.6 1512 Q1267.8 1508.44 1264.16 1508.44 M1264.16 1504.73 Q1269.97 1504.73 1273.03 1509.34 Q1276.11 1513.92 1276.11 1522.67 Q1276.11 1531.4 1273.03 1536.01 Q1269.97 1540.59 1264.16 1540.59 Q1258.35 1540.59 1255.27 1536.01 Q1252.22 1531.4 1252.22 1522.67 Q1252.22 1513.92 1255.27 1509.34 Q1258.35 1504.73 1264.16 1504.73 Z" fill="#000000" fill-rule="evenodd" fill-opacity="1" /><path clip-path="url(#clip590)" d="M 0 0 M1281.18 1534.04 L1286.06 1534.04 L1286.06 1539.92 L1281.18 1539.92 L1281.18 1534.04 Z" fill="#000000" fill-rule="evenodd" fill-opacity="1" /><path clip-path="url(#clip590)" d="M 0 0 M1301.13 1508.44 Q1297.52 1508.44 1295.69 1512 Q1293.89 1515.55 1293.89 1522.67 Q1293.89 1529.78 1295.69 1533.35 Q1297.52 1536.89 1301.13 1536.89 Q1304.77 1536.89 1306.57 1533.35 Q1308.4 1529.78 1308.4 1522.67 Q1308.4 1515.55 1306.57 1512 Q1304.77 1508.44 1301.13 1508.44 M1301.13 1504.73 Q1306.94 1504.73 1310 1509.34 Q1313.08 1513.92 1313.08 1522.67 Q1313.08 1531.4 1310 1536.01 Q1306.94 1540.59 1301.13 1540.59 Q1295.32 1540.59 1292.24 1536.01 Q1289.19 1531.4 1289.19 1522.67 Q1289.19 1513.92 1292.24 1509.34 Q1295.32 1504.73 1301.13 1504.73 Z" fill="#000000" fill-rule="evenodd" fill-opacity="1" /><path clip-path="url(#clip590)" d="M 0 0 M1548.9 1535.98 L1565.22 1535.98 L1565.22 1539.92 L1543.28 1539.92 L1543.28 1535.98 Q1545.94 1533.23 1550.52 1528.6 Q1555.13 1523.95 1556.31 1522.61 Q1558.55 1520.08 1559.43 1518.35 Q1560.34 1516.59 1560.34 1514.9 Q1560.34 1512.14 1558.39 1510.41 Q1556.47 1508.67 1553.37 1508.67 Q1551.17 1508.67 1548.72 1509.43 Q1546.29 1510.2 1543.51 1511.75 L1543.51 1507.03 Q1546.33 1505.89 1548.79 1505.31 Q1551.24 1504.73 1553.28 1504.73 Q1558.65 1504.73 1561.84 1507.42 Q1565.03 1510.11 1565.03 1514.6 Q1565.03 1516.73 1564.22 1518.65 Q1563.44 1520.54 1561.33 1523.14 Q1560.75 1523.81 1557.65 1527.03 Q1554.55 1530.22 1548.9 1535.98 Z" fill="#000000" fill-rule="evenodd" fill-opacity="1" /><path clip-path="url(#clip590)" d="M 0 0 M1570.29 1534.04 L1575.17 1534.04 L1575.17 1539.92 L1570.29 1539.92 L1570.29 1534.04 Z" fill="#000000" fill-rule="evenodd" fill-opacity="1" /><path clip-path="url(#clip590)" d="M 0 0 M1580.29 1505.36 L1598.65 1505.36 L1598.65 1509.3 L1584.57 1509.3 L1584.57 1517.77 Q1585.59 1517.42 1586.61 1517.26 Q1587.63 1517.07 1588.65 1517.07 Q1594.43 1517.07 1597.81 1520.24 Q1601.19 1523.42 1601.19 1528.83 Q1601.19 1534.41 1597.72 1537.51 Q1594.25 1540.59 1587.93 1540.59 Q1585.75 1540.59 1583.48 1540.22 Q1581.24 1539.85 1578.83 1539.11 L1578.83 1534.41 Q1580.91 1535.54 1583.14 1536.1 Q1585.36 1536.66 1587.84 1536.66 Q1591.84 1536.66 1594.18 1534.55 Q1596.52 1532.44 1596.52 1528.83 Q1596.52 1525.22 1594.18 1523.11 Q1591.84 1521.01 1587.84 1521.01 Q1585.96 1521.01 1584.09 1521.42 Q1582.23 1521.84 1580.29 1522.72 L1580.29 1505.36 Z" fill="#000000" fill-rule="evenodd" fill-opacity="1" /><path clip-path="url(#clip590)" d="M 0 0 M1833.61 1505.36 L1851.97 1505.36 L1851.97 1509.3 L1837.9 1509.3 L1837.9 1517.77 Q1838.92 1517.42 1839.93 1517.26 Q1840.95 1517.07 1841.97 1517.07 Q1847.76 1517.07 1851.14 1520.24 Q1854.52 1523.42 1854.52 1528.83 Q1854.52 1534.41 1851.05 1537.51 Q1847.57 1540.59 1841.25 1540.59 Q1839.08 1540.59 1836.81 1540.22 Q1834.56 1539.85 1832.16 1539.11 L1832.16 1534.41 Q1834.24 1535.54 1836.46 1536.1 Q1838.68 1536.66 1841.16 1536.66 Q1845.17 1536.66 1847.5 1534.55 Q1849.84 1532.44 1849.84 1528.83 Q1849.84 1525.22 1847.5 1523.11 Q1845.17 1521.01 1841.16 1521.01 Q1839.29 1521.01 1837.41 1521.42 Q1835.56 1521.84 1833.61 1522.72 L1833.61 1505.36 Z" fill="#000000" fill-rule="evenodd" fill-opacity="1" /><path clip-path="url(#clip590)" d="M 0 0 M1859.59 1534.04 L1864.47 1534.04 L1864.47 1539.92 L1859.59 1539.92 L1859.59 1534.04 Z" fill="#000000" fill-rule="evenodd" fill-opacity="1" /><path clip-path="url(#clip590)" d="M 0 0 M1879.54 1508.44 Q1875.93 1508.44 1874.1 1512 Q1872.3 1515.55 1872.3 1522.67 Q1872.3 1529.78 1874.1 1533.35 Q1875.93 1536.89 1879.54 1536.89 Q1883.17 1536.89 1884.98 1533.35 Q1886.81 1529.78 1886.81 1522.67 Q1886.81 1515.55 1884.98 1512 Q1883.17 1508.44 1879.54 1508.44 M1879.54 1504.73 Q1885.35 1504.73 1888.41 1509.34 Q1891.48 1513.92 1891.48 1522.67 Q1891.48 1531.4 1888.41 1536.01 Q1885.35 1540.59 1879.54 1540.59 Q1873.73 1540.59 1870.65 1536.01 Q1867.6 1531.4 1867.6 1522.67 Q1867.6 1513.92 1870.65 1509.34 Q1873.73 1504.73 1879.54 1504.73 Z" fill="#000000" fill-rule="evenodd" fill-opacity="1" /><path clip-path="url(#clip590)" d="M 0 0 M2122.31 1505.36 L2144.53 1505.36 L2144.53 1507.35 L2131.99 1539.92 L2127.1 1539.92 L2138.91 1509.3 L2122.31 1509.3 L2122.31 1505.36 Z" fill="#000000" fill-rule="evenodd" fill-opacity="1" /><path clip-path="url(#clip590)" d="M 0 0 M2149.6 1534.04 L2154.49 1534.04 L2154.49 1539.92 L2149.6 1539.92 L2149.6 1534.04 Z" fill="#000000" fill-rule="evenodd" fill-opacity="1" /><path clip-path="url(#clip590)" d="M 0 0 M2159.6 1505.36 L2177.96 1505.36 L2177.96 1509.3 L2163.88 1509.3 L2163.88 1517.77 Q2164.9 1517.42 2165.92 1517.26 Q2166.94 1517.07 2167.96 1517.07 Q2173.75 1517.07 2177.12 1520.24 Q2180.5 1523.42 2180.5 1528.83 Q2180.5 1534.41 2177.03 1537.51 Q2173.56 1540.59 2167.24 1540.59 Q2165.06 1540.59 2162.8 1540.22 Q2160.55 1539.85 2158.14 1539.11 L2158.14 1534.41 Q2160.23 1535.54 2162.45 1536.1 Q2164.67 1536.66 2167.15 1536.66 Q2171.15 1536.66 2173.49 1534.55 Q2175.83 1532.44 2175.83 1528.83 Q2175.83 1525.22 2173.49 1523.11 Q2171.15 1521.01 2167.15 1521.01 Q2165.27 1521.01 2163.4 1521.42 Q2161.55 1521.84 2159.6 1522.72 L2159.6 1505.36 Z" fill="#000000" fill-rule="evenodd" fill-opacity="1" /><path clip-path="url(#clip590)" d="M 0 0 M130.26 1431.51 Q126.649 1431.51 124.82 1435.08 Q123.015 1438.62 123.015 1445.75 Q123.015 1452.86 124.82 1456.42 Q126.649 1459.96 130.26 1459.96 Q133.895 1459.96 135.7 1456.42 Q137.529 1452.86 137.529 1445.75 Q137.529 1438.62 135.7 1435.08 Q133.895 1431.51 130.26 1431.51 M130.26 1427.81 Q136.07 1427.81 139.126 1432.42 Q142.205 1437 142.205 1445.75 Q142.205 1454.48 139.126 1459.08 Q136.07 1463.67 130.26 1463.67 Q124.45 1463.67 121.371 1459.08 Q118.316 1454.48 118.316 1445.75 Q118.316 1437 121.371 1432.42 Q124.45 1427.81 130.26 1427.81 Z" fill="#000000" fill-rule="evenodd" fill-opacity="1" /><path clip-path="url(#clip590)" d="M 0 0 M71.8578 1112.26 L88.1772 1112.26 L88.1772 1116.19 L66.2328 1116.19 L66.2328 1112.26 Q68.8949 1109.5 73.4782 1104.87 Q78.0846 1100.22 79.2652 1098.88 Q81.5105 1096.35 82.3902 1094.62 Q83.2929 1092.86 83.2929 1091.17 Q83.2929 1088.41 81.3485 1086.68 Q79.4272 1084.94 76.3254 1084.94 Q74.1263 1084.94 71.6726 1085.71 Q69.2421 1086.47 66.4643 1088.02 L66.4643 1083.3 Q69.2884 1082.16 71.7421 1081.58 Q74.1958 1081.01 76.2328 1081.01 Q81.6031 1081.01 84.7976 1083.69 Q87.992 1086.38 87.992 1090.87 Q87.992 1093 87.1818 1094.92 Q86.3948 1096.82 84.2883 1099.41 Q83.7096 1100.08 80.6078 1103.3 Q77.5059 1106.49 71.8578 1112.26 Z" fill="#000000" fill-rule="evenodd" fill-opacity="1" /><path clip-path="url(#clip590)" d="M 0 0 M103.247 1084.71 Q99.6354 1084.71 97.8068 1088.27 Q96.0012 1091.82 96.0012 1098.95 Q96.0012 1106.05 97.8068 1109.62 Q99.6354 1113.16 103.247 1113.16 Q106.881 1113.16 108.686 1109.62 Q110.515 1106.05 110.515 1098.95 Q110.515 1091.82 108.686 1088.27 Q106.881 1084.71 103.247 1084.71 M103.247 1081.01 Q109.057 1081.01 112.112 1085.61 Q115.191 1090.2 115.191 1098.95 Q115.191 1107.67 112.112 1112.28 Q109.057 1116.86 103.247 1116.86 Q97.4364 1116.86 94.3577 1112.28 Q91.3022 1107.67 91.3022 1098.95 Q91.3022 1090.2 94.3577 1085.61 Q97.4364 1081.01 103.247 1081.01 Z" fill="#000000" fill-rule="evenodd" fill-opacity="1" /><path clip-path="url(#clip590)" d="M 0 0 M130.26 1084.71 Q126.649 1084.71 124.82 1088.27 Q123.015 1091.82 123.015 1098.95 Q123.015 1106.05 124.82 1109.62 Q126.649 1113.16 130.26 1113.16 Q133.895 1113.16 135.7 1109.62 Q137.529 1106.05 137.529 1098.95 Q137.529 1091.82 135.7 1088.27 Q133.895 1084.71 130.26 1084.71 M130.26 1081.01 Q136.07 1081.01 139.126 1085.61 Q142.205 1090.2 142.205 1098.95 Q142.205 1107.67 139.126 1112.28 Q136.07 1116.86 130.26 1116.86 Q124.45 1116.86 121.371 1112.28 Q118.316 1107.67 118.316 1098.95 Q118.316 1090.2 121.371 1085.61 Q124.45 1081.01 130.26 1081.01 Z" fill="#000000" fill-rule="evenodd" fill-opacity="1" /><path clip-path="url(#clip590)" d="M 0 0 M78.5939 738.901 L66.7884 757.35 L78.5939 757.35 L78.5939 738.901 M77.367 734.827 L83.2466 734.827 L83.2466 757.35 L88.1772 757.35 L88.1772 761.239 L83.2466 761.239 L83.2466 769.387 L78.5939 769.387 L78.5939 761.239 L62.9921 761.239 L62.9921 756.725 L77.367 734.827 Z" fill="#000000" fill-rule="evenodd" fill-opacity="1" /><path clip-path="url(#clip590)" d="M 0 0 M103.247 737.905 Q99.6354 737.905 97.8068 741.47 Q96.0012 745.012 96.0012 752.142 Q96.0012 759.248 97.8068 762.813 Q99.6354 766.354 103.247 766.354 Q106.881 766.354 108.686 762.813 Q110.515 759.248 110.515 752.142 Q110.515 745.012 108.686 741.47 Q106.881 737.905 103.247 737.905 M103.247 734.202 Q109.057 734.202 112.112 738.808 Q115.191 743.392 115.191 752.142 Q115.191 760.868 112.112 765.475 Q109.057 770.058 103.247 770.058 Q97.4364 770.058 94.3577 765.475 Q91.3022 760.868 91.3022 752.142 Q91.3022 743.392 94.3577 738.808 Q97.4364 734.202 103.247 734.202 Z" fill="#000000" fill-rule="evenodd" fill-opacity="1" /><path clip-path="url(#clip590)" d="M 0 0 M130.26 737.905 Q126.649 737.905 124.82 741.47 Q123.015 745.012 123.015 752.142 Q123.015 759.248 124.82 762.813 Q126.649 766.354 130.26 766.354 Q133.895 766.354 135.7 762.813 Q137.529 759.248 137.529 752.142 Q137.529 745.012 135.7 741.47 Q133.895 737.905 130.26 737.905 M130.26 734.202 Q136.07 734.202 139.126 738.808 Q142.205 743.392 142.205 752.142 Q142.205 760.868 139.126 765.475 Q136.07 770.058 130.26 770.058 Q124.45 770.058 121.371 765.475 Q118.316 760.868 118.316 752.142 Q118.316 743.392 121.371 738.808 Q124.45 734.202 130.26 734.202 Z" fill="#000000" fill-rule="evenodd" fill-opacity="1" /><path clip-path="url(#clip590)" d="M 0 0 M76.6495 403.439 Q73.5013 403.439 71.6495 405.592 Q69.8208 407.744 69.8208 411.494 Q69.8208 415.221 71.6495 417.397 Q73.5013 419.55 76.6495 419.55 Q79.7976 419.55 81.6263 417.397 Q83.4781 415.221 83.4781 411.494 Q83.4781 407.744 81.6263 405.592 Q79.7976 403.439 76.6495 403.439 M85.9318 388.786 L85.9318 393.045 Q84.1726 392.212 82.367 391.772 Q80.5846 391.333 78.8254 391.333 Q74.1958 391.333 71.7421 394.457 Q69.3115 397.582 68.9643 403.902 Q70.33 401.888 72.3902 400.823 Q74.4504 399.735 76.9272 399.735 Q82.1355 399.735 85.1448 402.907 Q88.1772 406.055 88.1772 411.494 Q88.1772 416.818 85.029 420.036 Q81.8809 423.254 76.6495 423.254 Q70.6541 423.254 67.4828 418.67 Q64.3116 414.064 64.3116 405.337 Q64.3116 397.143 68.2004 392.282 Q72.0893 387.397 78.6402 387.397 Q80.3994 387.397 82.1818 387.745 Q83.9874 388.092 85.9318 388.786 Z" fill="#000000" fill-rule="evenodd" fill-opacity="1" /><path clip-path="url(#clip590)" d="M 0 0 M103.247 391.101 Q99.6354 391.101 97.8068 394.666 Q96.0012 398.207 96.0012 405.337 Q96.0012 412.444 97.8068 416.008 Q99.6354 419.55 103.247 419.55 Q106.881 419.55 108.686 416.008 Q110.515 412.444 110.515 405.337 Q110.515 398.207 108.686 394.666 Q106.881 391.101 103.247 391.101 M103.247 387.397 Q109.057 387.397 112.112 392.004 Q115.191 396.587 115.191 405.337 Q115.191 414.064 112.112 418.67 Q109.057 423.254 103.247 423.254 Q97.4364 423.254 94.3577 418.67 Q91.3022 414.064 91.3022 405.337 Q91.3022 396.587 94.3577 392.004 Q97.4364 387.397 103.247 387.397 Z" fill="#000000" fill-rule="evenodd" fill-opacity="1" /><path clip-path="url(#clip590)" d="M 0 0 M130.26 391.101 Q126.649 391.101 124.82 394.666 Q123.015 398.207 123.015 405.337 Q123.015 412.444 124.82 416.008 Q126.649 419.55 130.26 419.55 Q133.895 419.55 135.7 416.008 Q137.529 412.444 137.529 405.337 Q137.529 398.207 135.7 394.666 Q133.895 391.101 130.26 391.101 M130.26 387.397 Q136.07 387.397 139.126 392.004 Q142.205 396.587 142.205 405.337 Q142.205 414.064 139.126 418.67 Q136.07 423.254 130.26 423.254 Q124.45 423.254 121.371 418.67 Q118.316 414.064 118.316 405.337 Q118.316 396.587 121.371 392.004 Q124.45 387.397 130.26 387.397 Z" fill="#000000" fill-rule="evenodd" fill-opacity="1" /><path clip-path="url(#clip590)" d="M 0 0 M76.3254 59.3659 Q72.9921 59.3659 71.0708 61.1483 Q69.1726 62.9307 69.1726 66.0557 Q69.1726 69.1807 71.0708 70.9631 Q72.9921 72.7455 76.3254 72.7455 Q79.6587 72.7455 81.58 70.9631 Q83.5013 69.1576 83.5013 66.0557 Q83.5013 62.9307 81.58 61.1483 Q79.6819 59.3659 76.3254 59.3659 M71.6495 57.3752 Q68.6402 56.6345 66.9504 54.5743 Q65.2838 52.5141 65.2838 49.5512 Q65.2838 45.4077 68.2236 43.0003 Q71.1865 40.5929 76.3254 40.5929 Q81.4874 40.5929 84.4272 43.0003 Q87.367 45.4077 87.367 49.5512 Q87.367 52.5141 85.6772 54.5743 Q84.0105 56.6345 81.0244 57.3752 Q84.404 58.1623 86.279 60.4539 Q88.1772 62.7456 88.1772 66.0557 Q88.1772 71.0788 85.0985 73.764 Q82.0429 76.4492 76.3254 76.4492 Q70.6078 76.4492 67.5291 73.764 Q64.4736 71.0788 64.4736 66.0557 Q64.4736 62.7456 66.3717 60.4539 Q68.2699 58.1623 71.6495 57.3752 M69.9365 49.991 Q69.9365 52.6762 71.6032 54.1808 Q73.293 55.6854 76.3254 55.6854 Q79.3346 55.6854 81.0244 54.1808 Q82.7374 52.6762 82.7374 49.991 Q82.7374 47.3058 81.0244 45.8012 Q79.3346 44.2966 76.3254 44.2966 Q73.293 44.2966 71.6032 45.8012 Q69.9365 47.3058 69.9365 49.991 Z" fill="#000000" fill-rule="evenodd" fill-opacity="1" /><path clip-path="url(#clip590)" d="M 0 0 M103.247 44.2966 Q99.6354 44.2966 97.8068 47.8614 Q96.0012 51.403 96.0012 58.5326 Q96.0012 65.6391 97.8068 69.2039 Q99.6354 72.7455 103.247 72.7455 Q106.881 72.7455 108.686 69.2039 Q110.515 65.6391 110.515 58.5326 Q110.515 51.403 108.686 47.8614 Q106.881 44.2966 103.247 44.2966 M103.247 40.5929 Q109.057 40.5929 112.112 45.1994 Q115.191 49.7827 115.191 58.5326 Q115.191 67.2594 112.112 71.8659 Q109.057 76.4492 103.247 76.4492 Q97.4364 76.4492 94.3577 71.8659 Q91.3022 67.2594 91.3022 58.5326 Q91.3022 49.7827 94.3577 45.1994 Q97.4364 40.5929 103.247 40.5929 Z" fill="#000000" fill-rule="evenodd" fill-opacity="1" /><path clip-path="url(#clip590)" d="M 0 0 M130.26 44.2966 Q126.649 44.2966 124.82 47.8614 Q123.015 51.403 123.015 58.5326 Q123.015 65.6391 124.82 69.2039 Q126.649 72.7455 130.26 72.7455 Q133.895 72.7455 135.7 69.2039 Q137.529 65.6391 137.529 58.5326 Q137.529 51.403 135.7 47.8614 Q133.895 44.2966 130.26 44.2966 M130.26 40.5929 Q136.07 40.5929 139.126 45.1994 Q142.205 49.7827 142.205 58.5326 Q142.205 67.2594 139.126 71.8659 Q136.07 76.4492 130.26 76.4492 Q124.45 76.4492 121.371 71.8659 Q118.316 67.2594 118.316 58.5326 Q118.316 49.7827 121.371 45.1994 Q124.45 40.5929 130.26 40.5929 Z" fill="#000000" fill-rule="evenodd" fill-opacity="1" /><path clip-path="url(#clip592)" d="
M286.469 1443.98 L286.469 1445.72 L309.636 1445.72 L309.636 1443.98 L286.469 1443.98 L286.469 1443.98  Z
  " fill="#009af9" fill-rule="evenodd" fill-opacity="1"/>
<polyline clip-path="url(#clip592)" style="stroke:#000000; stroke-width:4; stroke-opacity:1; fill:none" points="
  286.469,1443.98 286.469,1445.72 309.636,1445.72 309.636,1443.98 286.469,1443.98 
  "/>
<path clip-path="url(#clip592)" d="
M309.636 1445.72 L309.636 1445.72 L332.803 1445.72 L332.803 1445.72 L309.636 1445.72 L309.636 1445.72  Z
  " fill="#009af9" fill-rule="evenodd" fill-opacity="1"/>
<polyline clip-path="url(#clip592)" style="stroke:#000000; stroke-width:4; stroke-opacity:1; fill:none" points="
  309.636,1445.72 309.636,1445.72 332.803,1445.72 309.636,1445.72 
  "/>
<path clip-path="url(#clip592)" d="
M332.803 1443.98 L332.803 1445.72 L355.97 1445.72 L355.97 1443.98 L332.803 1443.98 L332.803 1443.98  Z
  " fill="#009af9" fill-rule="evenodd" fill-opacity="1"/>
<polyline clip-path="url(#clip592)" style="stroke:#000000; stroke-width:4; stroke-opacity:1; fill:none" points="
  332.803,1443.98 332.803,1445.72 355.97,1445.72 355.97,1443.98 332.803,1443.98 
  "/>
<path clip-path="url(#clip592)" d="
M355.97 1445.72 L355.97 1445.72 L379.137 1445.72 L379.137 1445.72 L355.97 1445.72 L355.97 1445.72  Z
  " fill="#009af9" fill-rule="evenodd" fill-opacity="1"/>
<polyline clip-path="url(#clip592)" style="stroke:#000000; stroke-width:4; stroke-opacity:1; fill:none" points="
  355.97,1445.72 355.97,1445.72 379.137,1445.72 355.97,1445.72 
  "/>
<path clip-path="url(#clip592)" d="
M379.137 1445.72 L379.137 1445.72 L402.304 1445.72 L402.304 1445.72 L379.137 1445.72 L379.137 1445.72  Z
  " fill="#009af9" fill-rule="evenodd" fill-opacity="1"/>
<polyline clip-path="url(#clip592)" style="stroke:#000000; stroke-width:4; stroke-opacity:1; fill:none" points="
  379.137,1445.72 379.137,1445.72 402.304,1445.72 379.137,1445.72 
  "/>
<path clip-path="url(#clip592)" d="
M402.304 1445.72 L402.304 1445.72 L425.471 1445.72 L425.471 1445.72 L402.304 1445.72 L402.304 1445.72  Z
  " fill="#009af9" fill-rule="evenodd" fill-opacity="1"/>
<polyline clip-path="url(#clip592)" style="stroke:#000000; stroke-width:4; stroke-opacity:1; fill:none" points="
  402.304,1445.72 402.304,1445.72 425.471,1445.72 402.304,1445.72 
  "/>
<path clip-path="url(#clip592)" d="
M425.471 1445.72 L425.471 1445.72 L448.637 1445.72 L448.637 1445.72 L425.471 1445.72 L425.471 1445.72  Z
  " fill="#009af9" fill-rule="evenodd" fill-opacity="1"/>
<polyline clip-path="url(#clip592)" style="stroke:#000000; stroke-width:4; stroke-opacity:1; fill:none" points="
  425.471,1445.72 425.471,1445.72 448.637,1445.72 425.471,1445.72 
  "/>
<path clip-path="url(#clip592)" d="
M448.637 1445.72 L448.637 1445.72 L471.804 1445.72 L471.804 1445.72 L448.637 1445.72 L448.637 1445.72  Z
  " fill="#009af9" fill-rule="evenodd" fill-opacity="1"/>
<polyline clip-path="url(#clip592)" style="stroke:#000000; stroke-width:4; stroke-opacity:1; fill:none" points="
  448.637,1445.72 448.637,1445.72 471.804,1445.72 448.637,1445.72 
  "/>
<path clip-path="url(#clip592)" d="
M471.804 1443.98 L471.804 1445.72 L494.971 1445.72 L494.971 1443.98 L471.804 1443.98 L471.804 1443.98  Z
  " fill="#009af9" fill-rule="evenodd" fill-opacity="1"/>
<polyline clip-path="url(#clip592)" style="stroke:#000000; stroke-width:4; stroke-opacity:1; fill:none" points="
  471.804,1443.98 471.804,1445.72 494.971,1445.72 494.971,1443.98 471.804,1443.98 
  "/>
<path clip-path="url(#clip592)" d="
M494.971 1445.72 L494.971 1445.72 L518.138 1445.72 L518.138 1445.72 L494.971 1445.72 L494.971 1445.72  Z
  " fill="#009af9" fill-rule="evenodd" fill-opacity="1"/>
<polyline clip-path="url(#clip592)" style="stroke:#000000; stroke-width:4; stroke-opacity:1; fill:none" points="
  494.971,1445.72 494.971,1445.72 518.138,1445.72 494.971,1445.72 
  "/>
<path clip-path="url(#clip592)" d="
M518.138 1445.72 L518.138 1445.72 L541.305 1445.72 L541.305 1445.72 L518.138 1445.72 L518.138 1445.72  Z
  " fill="#009af9" fill-rule="evenodd" fill-opacity="1"/>
<polyline clip-path="url(#clip592)" style="stroke:#000000; stroke-width:4; stroke-opacity:1; fill:none" points="
  518.138,1445.72 518.138,1445.72 541.305,1445.72 518.138,1445.72 
  "/>
<path clip-path="url(#clip592)" d="
M541.305 1445.72 L541.305 1445.72 L564.472 1445.72 L564.472 1445.72 L541.305 1445.72 L541.305 1445.72  Z
  " fill="#009af9" fill-rule="evenodd" fill-opacity="1"/>
<polyline clip-path="url(#clip592)" style="stroke:#000000; stroke-width:4; stroke-opacity:1; fill:none" points="
  541.305,1445.72 541.305,1445.72 564.472,1445.72 541.305,1445.72 
  "/>
<path clip-path="url(#clip592)" d="
M564.472 1445.72 L564.472 1445.72 L587.639 1445.72 L587.639 1445.72 L564.472 1445.72 L564.472 1445.72  Z
  " fill="#009af9" fill-rule="evenodd" fill-opacity="1"/>
<polyline clip-path="url(#clip592)" style="stroke:#000000; stroke-width:4; stroke-opacity:1; fill:none" points="
  564.472,1445.72 564.472,1445.72 587.639,1445.72 564.472,1445.72 
  "/>
<path clip-path="url(#clip592)" d="
M587.639 1443.98 L587.639 1445.72 L610.806 1445.72 L610.806 1443.98 L587.639 1443.98 L587.639 1443.98  Z
  " fill="#009af9" fill-rule="evenodd" fill-opacity="1"/>
<polyline clip-path="url(#clip592)" style="stroke:#000000; stroke-width:4; stroke-opacity:1; fill:none" points="
  587.639,1443.98 587.639,1445.72 610.806,1445.72 610.806,1443.98 587.639,1443.98 
  "/>
<path clip-path="url(#clip592)" d="
M610.806 1440.51 L610.806 1445.72 L633.973 1445.72 L633.973 1440.51 L610.806 1440.51 L610.806 1440.51  Z
  " fill="#009af9" fill-rule="evenodd" fill-opacity="1"/>
<polyline clip-path="url(#clip592)" style="stroke:#000000; stroke-width:4; stroke-opacity:1; fill:none" points="
  610.806,1440.51 610.806,1445.72 633.973,1445.72 633.973,1440.51 610.806,1440.51 
  "/>
<path clip-path="url(#clip592)" d="
M633.973 1440.51 L633.973 1445.72 L657.14 1445.72 L657.14 1440.51 L633.973 1440.51 L633.973 1440.51  Z
  " fill="#009af9" fill-rule="evenodd" fill-opacity="1"/>
<polyline clip-path="url(#clip592)" style="stroke:#000000; stroke-width:4; stroke-opacity:1; fill:none" points="
  633.973,1440.51 633.973,1445.72 657.14,1445.72 657.14,1440.51 633.973,1440.51 
  "/>
<path clip-path="url(#clip592)" d="
M657.14 1438.78 L657.14 1445.72 L680.307 1445.72 L680.307 1438.78 L657.14 1438.78 L657.14 1438.78  Z
  " fill="#009af9" fill-rule="evenodd" fill-opacity="1"/>
<polyline clip-path="url(#clip592)" style="stroke:#000000; stroke-width:4; stroke-opacity:1; fill:none" points="
  657.14,1438.78 657.14,1445.72 680.307,1445.72 680.307,1438.78 657.14,1438.78 
  "/>
<path clip-path="url(#clip592)" d="
M680.307 1440.51 L680.307 1445.72 L703.474 1445.72 L703.474 1440.51 L680.307 1440.51 L680.307 1440.51  Z
  " fill="#009af9" fill-rule="evenodd" fill-opacity="1"/>
<polyline clip-path="url(#clip592)" style="stroke:#000000; stroke-width:4; stroke-opacity:1; fill:none" points="
  680.307,1440.51 680.307,1445.72 703.474,1445.72 703.474,1440.51 680.307,1440.51 
  "/>
<path clip-path="url(#clip592)" d="
M703.474 1440.51 L703.474 1445.72 L726.641 1445.72 L726.641 1440.51 L703.474 1440.51 L703.474 1440.51  Z
  " fill="#009af9" fill-rule="evenodd" fill-opacity="1"/>
<polyline clip-path="url(#clip592)" style="stroke:#000000; stroke-width:4; stroke-opacity:1; fill:none" points="
  703.474,1440.51 703.474,1445.72 726.641,1445.72 726.641,1440.51 703.474,1440.51 
  "/>
<path clip-path="url(#clip592)" d="
M726.641 1435.31 L726.641 1445.72 L749.808 1445.72 L749.808 1435.31 L726.641 1435.31 L726.641 1435.31  Z
  " fill="#009af9" fill-rule="evenodd" fill-opacity="1"/>
<polyline clip-path="url(#clip592)" style="stroke:#000000; stroke-width:4; stroke-opacity:1; fill:none" points="
  726.641,1435.31 726.641,1445.72 749.808,1445.72 749.808,1435.31 726.641,1435.31 
  "/>
<path clip-path="url(#clip592)" d="
M749.808 1433.58 L749.808 1445.72 L772.975 1445.72 L772.975 1433.58 L749.808 1433.58 L749.808 1433.58  Z
  " fill="#009af9" fill-rule="evenodd" fill-opacity="1"/>
<polyline clip-path="url(#clip592)" style="stroke:#000000; stroke-width:4; stroke-opacity:1; fill:none" points="
  749.808,1433.58 749.808,1445.72 772.975,1445.72 772.975,1433.58 749.808,1433.58 
  "/>
<path clip-path="url(#clip592)" d="
M772.975 1435.31 L772.975 1445.72 L796.142 1445.72 L796.142 1435.31 L772.975 1435.31 L772.975 1435.31  Z
  " fill="#009af9" fill-rule="evenodd" fill-opacity="1"/>
<polyline clip-path="url(#clip592)" style="stroke:#000000; stroke-width:4; stroke-opacity:1; fill:none" points="
  772.975,1435.31 772.975,1445.72 796.142,1445.72 796.142,1435.31 772.975,1435.31 
  "/>
<path clip-path="url(#clip592)" d="
M796.142 1419.71 L796.142 1445.72 L819.308 1445.72 L819.308 1419.71 L796.142 1419.71 L796.142 1419.71  Z
  " fill="#009af9" fill-rule="evenodd" fill-opacity="1"/>
<polyline clip-path="url(#clip592)" style="stroke:#000000; stroke-width:4; stroke-opacity:1; fill:none" points="
  796.142,1419.71 796.142,1445.72 819.308,1445.72 819.308,1419.71 796.142,1419.71 
  "/>
<path clip-path="url(#clip592)" d="
M819.308 1404.1 L819.308 1445.72 L842.475 1445.72 L842.475 1404.1 L819.308 1404.1 L819.308 1404.1  Z
  " fill="#009af9" fill-rule="evenodd" fill-opacity="1"/>
<polyline clip-path="url(#clip592)" style="stroke:#000000; stroke-width:4; stroke-opacity:1; fill:none" points="
  819.308,1404.1 819.308,1445.72 842.475,1445.72 842.475,1404.1 819.308,1404.1 
  "/>
<path clip-path="url(#clip592)" d="
M842.475 1398.9 L842.475 1445.72 L865.642 1445.72 L865.642 1398.9 L842.475 1398.9 L842.475 1398.9  Z
  " fill="#009af9" fill-rule="evenodd" fill-opacity="1"/>
<polyline clip-path="url(#clip592)" style="stroke:#000000; stroke-width:4; stroke-opacity:1; fill:none" points="
  842.475,1398.9 842.475,1445.72 865.642,1445.72 865.642,1398.9 842.475,1398.9 
  "/>
<path clip-path="url(#clip592)" d="
M865.642 1400.63 L865.642 1445.72 L888.809 1445.72 L888.809 1400.63 L865.642 1400.63 L865.642 1400.63  Z
  " fill="#009af9" fill-rule="evenodd" fill-opacity="1"/>
<polyline clip-path="url(#clip592)" style="stroke:#000000; stroke-width:4; stroke-opacity:1; fill:none" points="
  865.642,1400.63 865.642,1445.72 888.809,1445.72 888.809,1400.63 865.642,1400.63 
  "/>
<path clip-path="url(#clip592)" d="
M888.809 1390.23 L888.809 1445.72 L911.976 1445.72 L911.976 1390.23 L888.809 1390.23 L888.809 1390.23  Z
  " fill="#009af9" fill-rule="evenodd" fill-opacity="1"/>
<polyline clip-path="url(#clip592)" style="stroke:#000000; stroke-width:4; stroke-opacity:1; fill:none" points="
  888.809,1390.23 888.809,1445.72 911.976,1445.72 911.976,1390.23 888.809,1390.23 
  "/>
<path clip-path="url(#clip592)" d="
M911.976 1386.76 L911.976 1445.72 L935.143 1445.72 L935.143 1386.76 L911.976 1386.76 L911.976 1386.76  Z
  " fill="#009af9" fill-rule="evenodd" fill-opacity="1"/>
<polyline clip-path="url(#clip592)" style="stroke:#000000; stroke-width:4; stroke-opacity:1; fill:none" points="
  911.976,1386.76 911.976,1445.72 935.143,1445.72 935.143,1386.76 911.976,1386.76 
  "/>
<path clip-path="url(#clip592)" d="
M935.143 1378.09 L935.143 1445.72 L958.31 1445.72 L958.31 1378.09 L935.143 1378.09 L935.143 1378.09  Z
  " fill="#009af9" fill-rule="evenodd" fill-opacity="1"/>
<polyline clip-path="url(#clip592)" style="stroke:#000000; stroke-width:4; stroke-opacity:1; fill:none" points="
  935.143,1378.09 935.143,1445.72 958.31,1445.72 958.31,1378.09 935.143,1378.09 
  "/>
<path clip-path="url(#clip592)" d="
M958.31 1348.61 L958.31 1445.72 L981.477 1445.72 L981.477 1348.61 L958.31 1348.61 L958.31 1348.61  Z
  " fill="#009af9" fill-rule="evenodd" fill-opacity="1"/>
<polyline clip-path="url(#clip592)" style="stroke:#000000; stroke-width:4; stroke-opacity:1; fill:none" points="
  958.31,1348.61 958.31,1445.72 981.477,1445.72 981.477,1348.61 958.31,1348.61 
  "/>
<path clip-path="url(#clip592)" d="
M981.477 1346.88 L981.477 1445.72 L1004.64 1445.72 L1004.64 1346.88 L981.477 1346.88 L981.477 1346.88  Z
  " fill="#009af9" fill-rule="evenodd" fill-opacity="1"/>
<polyline clip-path="url(#clip592)" style="stroke:#000000; stroke-width:4; stroke-opacity:1; fill:none" points="
  981.477,1346.88 981.477,1445.72 1004.64,1445.72 1004.64,1346.88 981.477,1346.88 
  "/>
<path clip-path="url(#clip592)" d="
M1004.64 1345.14 L1004.64 1445.72 L1027.81 1445.72 L1027.81 1345.14 L1004.64 1345.14 L1004.64 1345.14  Z
  " fill="#009af9" fill-rule="evenodd" fill-opacity="1"/>
<polyline clip-path="url(#clip592)" style="stroke:#000000; stroke-width:4; stroke-opacity:1; fill:none" points="
  1004.64,1345.14 1004.64,1445.72 1027.81,1445.72 1027.81,1345.14 1004.64,1345.14 
  "/>
<path clip-path="url(#clip592)" d="
M1027.81 1315.66 L1027.81 1445.72 L1050.98 1445.72 L1050.98 1315.66 L1027.81 1315.66 L1027.81 1315.66  Z
  " fill="#009af9" fill-rule="evenodd" fill-opacity="1"/>
<polyline clip-path="url(#clip592)" style="stroke:#000000; stroke-width:4; stroke-opacity:1; fill:none" points="
  1027.81,1315.66 1027.81,1445.72 1050.98,1445.72 1050.98,1315.66 1027.81,1315.66 
  "/>
<path clip-path="url(#clip592)" d="
M1050.98 1312.2 L1050.98 1445.72 L1074.14 1445.72 L1074.14 1312.2 L1050.98 1312.2 L1050.98 1312.2  Z
  " fill="#009af9" fill-rule="evenodd" fill-opacity="1"/>
<polyline clip-path="url(#clip592)" style="stroke:#000000; stroke-width:4; stroke-opacity:1; fill:none" points="
  1050.98,1312.2 1050.98,1445.72 1074.14,1445.72 1074.14,1312.2 1050.98,1312.2 
  "/>
<path clip-path="url(#clip592)" d="
M1074.14 1284.45 L1074.14 1445.72 L1097.31 1445.72 L1097.31 1284.45 L1074.14 1284.45 L1074.14 1284.45  Z
  " fill="#009af9" fill-rule="evenodd" fill-opacity="1"/>
<polyline clip-path="url(#clip592)" style="stroke:#000000; stroke-width:4; stroke-opacity:1; fill:none" points="
  1074.14,1284.45 1074.14,1445.72 1097.31,1445.72 1097.31,1284.45 1074.14,1284.45 
  "/>
<path clip-path="url(#clip592)" d="
M1097.31 1293.12 L1097.31 1445.72 L1120.48 1445.72 L1120.48 1293.12 L1097.31 1293.12 L1097.31 1293.12  Z
  " fill="#009af9" fill-rule="evenodd" fill-opacity="1"/>
<polyline clip-path="url(#clip592)" style="stroke:#000000; stroke-width:4; stroke-opacity:1; fill:none" points="
  1097.31,1293.12 1097.31,1445.72 1120.48,1445.72 1120.48,1293.12 1097.31,1293.12 
  "/>
<path clip-path="url(#clip592)" d="
M1120.48 1256.71 L1120.48 1445.72 L1143.65 1445.72 L1143.65 1256.71 L1120.48 1256.71 L1120.48 1256.71  Z
  " fill="#009af9" fill-rule="evenodd" fill-opacity="1"/>
<polyline clip-path="url(#clip592)" style="stroke:#000000; stroke-width:4; stroke-opacity:1; fill:none" points="
  1120.48,1256.71 1120.48,1445.72 1143.65,1445.72 1143.65,1256.71 1120.48,1256.71 
  "/>
<path clip-path="url(#clip592)" d="
M1143.65 1270.58 L1143.65 1445.72 L1166.81 1445.72 L1166.81 1270.58 L1143.65 1270.58 L1143.65 1270.58  Z
  " fill="#009af9" fill-rule="evenodd" fill-opacity="1"/>
<polyline clip-path="url(#clip592)" style="stroke:#000000; stroke-width:4; stroke-opacity:1; fill:none" points="
  1143.65,1270.58 1143.65,1445.72 1166.81,1445.72 1166.81,1270.58 1143.65,1270.58 
  "/>
<path clip-path="url(#clip592)" d="
M1166.81 1268.85 L1166.81 1445.72 L1189.98 1445.72 L1189.98 1268.85 L1166.81 1268.85 L1166.81 1268.85  Z
  " fill="#009af9" fill-rule="evenodd" fill-opacity="1"/>
<polyline clip-path="url(#clip592)" style="stroke:#000000; stroke-width:4; stroke-opacity:1; fill:none" points="
  1166.81,1268.85 1166.81,1445.72 1189.98,1445.72 1189.98,1268.85 1166.81,1268.85 
  "/>
<path clip-path="url(#clip592)" d="
M1189.98 1263.64 L1189.98 1445.72 L1213.15 1445.72 L1213.15 1263.64 L1189.98 1263.64 L1189.98 1263.64  Z
  " fill="#009af9" fill-rule="evenodd" fill-opacity="1"/>
<polyline clip-path="url(#clip592)" style="stroke:#000000; stroke-width:4; stroke-opacity:1; fill:none" points="
  1189.98,1263.64 1189.98,1445.72 1213.15,1445.72 1213.15,1263.64 1189.98,1263.64 
  "/>
<path clip-path="url(#clip592)" d="
M1213.15 1235.9 L1213.15 1445.72 L1236.31 1445.72 L1236.31 1235.9 L1213.15 1235.9 L1213.15 1235.9  Z
  " fill="#009af9" fill-rule="evenodd" fill-opacity="1"/>
<polyline clip-path="url(#clip592)" style="stroke:#000000; stroke-width:4; stroke-opacity:1; fill:none" points="
  1213.15,1235.9 1213.15,1445.72 1236.31,1445.72 1236.31,1235.9 1213.15,1235.9 
  "/>
<path clip-path="url(#clip592)" d="
M1236.31 1234.16 L1236.31 1445.72 L1259.48 1445.72 L1259.48 1234.16 L1236.31 1234.16 L1236.31 1234.16  Z
  " fill="#009af9" fill-rule="evenodd" fill-opacity="1"/>
<polyline clip-path="url(#clip592)" style="stroke:#000000; stroke-width:4; stroke-opacity:1; fill:none" points="
  1236.31,1234.16 1236.31,1445.72 1259.48,1445.72 1259.48,1234.16 1236.31,1234.16 
  "/>
<path clip-path="url(#clip592)" d="
M1259.48 1251.51 L1259.48 1445.72 L1282.65 1445.72 L1282.65 1251.51 L1259.48 1251.51 L1259.48 1251.51  Z
  " fill="#009af9" fill-rule="evenodd" fill-opacity="1"/>
<polyline clip-path="url(#clip592)" style="stroke:#000000; stroke-width:4; stroke-opacity:1; fill:none" points="
  1259.48,1251.51 1259.48,1445.72 1282.65,1445.72 1282.65,1251.51 1259.48,1251.51 
  "/>
<path clip-path="url(#clip592)" d="
M1282.65 1248.04 L1282.65 1445.72 L1305.81 1445.72 L1305.81 1248.04 L1282.65 1248.04 L1282.65 1248.04  Z
  " fill="#009af9" fill-rule="evenodd" fill-opacity="1"/>
<polyline clip-path="url(#clip592)" style="stroke:#000000; stroke-width:4; stroke-opacity:1; fill:none" points="
  1282.65,1248.04 1282.65,1445.72 1305.81,1445.72 1305.81,1248.04 1282.65,1248.04 
  "/>
<path clip-path="url(#clip592)" d="
M1305.81 1218.56 L1305.81 1445.72 L1328.98 1445.72 L1328.98 1218.56 L1305.81 1218.56 L1305.81 1218.56  Z
  " fill="#009af9" fill-rule="evenodd" fill-opacity="1"/>
<polyline clip-path="url(#clip592)" style="stroke:#000000; stroke-width:4; stroke-opacity:1; fill:none" points="
  1305.81,1218.56 1305.81,1445.72 1328.98,1445.72 1328.98,1218.56 1305.81,1218.56 
  "/>
<path clip-path="url(#clip592)" d="
M1328.98 1190.81 L1328.98 1445.72 L1352.15 1445.72 L1352.15 1190.81 L1328.98 1190.81 L1328.98 1190.81  Z
  " fill="#009af9" fill-rule="evenodd" fill-opacity="1"/>
<polyline clip-path="url(#clip592)" style="stroke:#000000; stroke-width:4; stroke-opacity:1; fill:none" points="
  1328.98,1190.81 1328.98,1445.72 1352.15,1445.72 1352.15,1190.81 1328.98,1190.81 
  "/>
<path clip-path="url(#clip592)" d="
M1352.15 795.457 L1352.15 1445.72 L1375.31 1445.72 L1375.31 795.457 L1352.15 795.457 L1352.15 795.457  Z
  " fill="#009af9" fill-rule="evenodd" fill-opacity="1"/>
<polyline clip-path="url(#clip592)" style="stroke:#000000; stroke-width:4; stroke-opacity:1; fill:none" points="
  1352.15,795.457 1352.15,1445.72 1375.31,1445.72 1375.31,795.457 1352.15,795.457 
  "/>
<path clip-path="url(#clip592)" d="
M1375.31 87.9763 L1375.31 1445.72 L1398.48 1445.72 L1398.48 87.9763 L1375.31 87.9763 L1375.31 87.9763  Z
  " fill="#009af9" fill-rule="evenodd" fill-opacity="1"/>
<polyline clip-path="url(#clip592)" style="stroke:#000000; stroke-width:4; stroke-opacity:1; fill:none" points="
  1375.31,87.9763 1375.31,1445.72 1398.48,1445.72 1398.48,87.9763 1375.31,87.9763 
  "/>
<path clip-path="url(#clip592)" d="
M1398.48 124.391 L1398.48 1445.72 L1421.65 1445.72 L1421.65 124.391 L1398.48 124.391 L1398.48 124.391  Z
  " fill="#009af9" fill-rule="evenodd" fill-opacity="1"/>
<polyline clip-path="url(#clip592)" style="stroke:#000000; stroke-width:4; stroke-opacity:1; fill:none" points="
  1398.48,124.391 1398.48,1445.72 1421.65,1445.72 1421.65,124.391 1398.48,124.391 
  "/>
<path clip-path="url(#clip592)" d="
M1421.65 795.457 L1421.65 1445.72 L1444.82 1445.72 L1444.82 795.457 L1421.65 795.457 L1421.65 795.457  Z
  " fill="#009af9" fill-rule="evenodd" fill-opacity="1"/>
<polyline clip-path="url(#clip592)" style="stroke:#000000; stroke-width:4; stroke-opacity:1; fill:none" points="
  1421.65,795.457 1421.65,1445.72 1444.82,1445.72 1444.82,795.457 1421.65,795.457 
  "/>
<path clip-path="url(#clip592)" d="
M1444.82 1190.81 L1444.82 1445.72 L1467.98 1445.72 L1467.98 1190.81 L1444.82 1190.81 L1444.82 1190.81  Z
  " fill="#009af9" fill-rule="evenodd" fill-opacity="1"/>
<polyline clip-path="url(#clip592)" style="stroke:#000000; stroke-width:4; stroke-opacity:1; fill:none" points="
  1444.82,1190.81 1444.82,1445.72 1467.98,1445.72 1467.98,1190.81 1444.82,1190.81 
  "/>
<path clip-path="url(#clip592)" d="
M1467.98 1286.19 L1467.98 1445.72 L1491.15 1445.72 L1491.15 1286.19 L1467.98 1286.19 L1467.98 1286.19  Z
  " fill="#009af9" fill-rule="evenodd" fill-opacity="1"/>
<polyline clip-path="url(#clip592)" style="stroke:#000000; stroke-width:4; stroke-opacity:1; fill:none" points="
  1467.98,1286.19 1467.98,1445.72 1491.15,1445.72 1491.15,1286.19 1467.98,1286.19 
  "/>
<path clip-path="url(#clip592)" d="
M1491.15 1315.66 L1491.15 1445.72 L1514.32 1445.72 L1514.32 1315.66 L1491.15 1315.66 L1491.15 1315.66  Z
  " fill="#009af9" fill-rule="evenodd" fill-opacity="1"/>
<polyline clip-path="url(#clip592)" style="stroke:#000000; stroke-width:4; stroke-opacity:1; fill:none" points="
  1491.15,1315.66 1491.15,1445.72 1514.32,1445.72 1514.32,1315.66 1491.15,1315.66 
  "/>
<path clip-path="url(#clip592)" d="
M1514.32 1315.66 L1514.32 1445.72 L1537.48 1445.72 L1537.48 1315.66 L1514.32 1315.66 L1514.32 1315.66  Z
  " fill="#009af9" fill-rule="evenodd" fill-opacity="1"/>
<polyline clip-path="url(#clip592)" style="stroke:#000000; stroke-width:4; stroke-opacity:1; fill:none" points="
  1514.32,1315.66 1514.32,1445.72 1537.48,1445.72 1537.48,1315.66 1514.32,1315.66 
  "/>
<path clip-path="url(#clip592)" d="
M1537.48 1333 L1537.48 1445.72 L1560.65 1445.72 L1560.65 1333 L1537.48 1333 L1537.48 1333  Z
  " fill="#009af9" fill-rule="evenodd" fill-opacity="1"/>
<polyline clip-path="url(#clip592)" style="stroke:#000000; stroke-width:4; stroke-opacity:1; fill:none" points="
  1537.48,1333 1537.48,1445.72 1560.65,1445.72 1560.65,1333 1537.48,1333 
  "/>
<path clip-path="url(#clip592)" d="
M1560.65 1350.34 L1560.65 1445.72 L1583.82 1445.72 L1583.82 1350.34 L1560.65 1350.34 L1560.65 1350.34  Z
  " fill="#009af9" fill-rule="evenodd" fill-opacity="1"/>
<polyline clip-path="url(#clip592)" style="stroke:#000000; stroke-width:4; stroke-opacity:1; fill:none" points="
  1560.65,1350.34 1560.65,1445.72 1583.82,1445.72 1583.82,1350.34 1560.65,1350.34 
  "/>
<path clip-path="url(#clip592)" d="
M1583.82 1355.55 L1583.82 1445.72 L1606.98 1445.72 L1606.98 1355.55 L1583.82 1355.55 L1583.82 1355.55  Z
  " fill="#009af9" fill-rule="evenodd" fill-opacity="1"/>
<polyline clip-path="url(#clip592)" style="stroke:#000000; stroke-width:4; stroke-opacity:1; fill:none" points="
  1583.82,1355.55 1583.82,1445.72 1606.98,1445.72 1606.98,1355.55 1583.82,1355.55 
  "/>
<path clip-path="url(#clip592)" d="
M1606.98 1362.48 L1606.98 1445.72 L1630.15 1445.72 L1630.15 1362.48 L1606.98 1362.48 L1606.98 1362.48  Z
  " fill="#009af9" fill-rule="evenodd" fill-opacity="1"/>
<polyline clip-path="url(#clip592)" style="stroke:#000000; stroke-width:4; stroke-opacity:1; fill:none" points="
  1606.98,1362.48 1606.98,1445.72 1630.15,1445.72 1630.15,1362.48 1606.98,1362.48 
  "/>
<path clip-path="url(#clip592)" d="
M1630.15 1400.63 L1630.15 1445.72 L1653.32 1445.72 L1653.32 1400.63 L1630.15 1400.63 L1630.15 1400.63  Z
  " fill="#009af9" fill-rule="evenodd" fill-opacity="1"/>
<polyline clip-path="url(#clip592)" style="stroke:#000000; stroke-width:4; stroke-opacity:1; fill:none" points="
  1630.15,1400.63 1630.15,1445.72 1653.32,1445.72 1653.32,1400.63 1630.15,1400.63 
  "/>
<path clip-path="url(#clip592)" d="
M1653.32 1386.76 L1653.32 1445.72 L1676.49 1445.72 L1676.49 1386.76 L1653.32 1386.76 L1653.32 1386.76  Z
  " fill="#009af9" fill-rule="evenodd" fill-opacity="1"/>
<polyline clip-path="url(#clip592)" style="stroke:#000000; stroke-width:4; stroke-opacity:1; fill:none" points="
  1653.32,1386.76 1653.32,1445.72 1676.49,1445.72 1676.49,1386.76 1653.32,1386.76 
  "/>
<path clip-path="url(#clip592)" d="
M1676.49 1393.7 L1676.49 1445.72 L1699.65 1445.72 L1699.65 1393.7 L1676.49 1393.7 L1676.49 1393.7  Z
  " fill="#009af9" fill-rule="evenodd" fill-opacity="1"/>
<polyline clip-path="url(#clip592)" style="stroke:#000000; stroke-width:4; stroke-opacity:1; fill:none" points="
  1676.49,1393.7 1676.49,1445.72 1699.65,1445.72 1699.65,1393.7 1676.49,1393.7 
  "/>
<path clip-path="url(#clip592)" d="
M1699.65 1405.83 L1699.65 1445.72 L1722.82 1445.72 L1722.82 1405.83 L1699.65 1405.83 L1699.65 1405.83  Z
  " fill="#009af9" fill-rule="evenodd" fill-opacity="1"/>
<polyline clip-path="url(#clip592)" style="stroke:#000000; stroke-width:4; stroke-opacity:1; fill:none" points="
  1699.65,1405.83 1699.65,1445.72 1722.82,1445.72 1722.82,1405.83 1699.65,1405.83 
  "/>
<path clip-path="url(#clip592)" d="
M1722.82 1423.17 L1722.82 1445.72 L1745.99 1445.72 L1745.99 1423.17 L1722.82 1423.17 L1722.82 1423.17  Z
  " fill="#009af9" fill-rule="evenodd" fill-opacity="1"/>
<polyline clip-path="url(#clip592)" style="stroke:#000000; stroke-width:4; stroke-opacity:1; fill:none" points="
  1722.82,1423.17 1722.82,1445.72 1745.99,1445.72 1745.99,1423.17 1722.82,1423.17 
  "/>
<path clip-path="url(#clip592)" d="
M1745.99 1417.97 L1745.99 1445.72 L1769.15 1445.72 L1769.15 1417.97 L1745.99 1417.97 L1745.99 1417.97  Z
  " fill="#009af9" fill-rule="evenodd" fill-opacity="1"/>
<polyline clip-path="url(#clip592)" style="stroke:#000000; stroke-width:4; stroke-opacity:1; fill:none" points="
  1745.99,1417.97 1745.99,1445.72 1769.15,1445.72 1769.15,1417.97 1745.99,1417.97 
  "/>
<path clip-path="url(#clip592)" d="
M1769.15 1416.24 L1769.15 1445.72 L1792.32 1445.72 L1792.32 1416.24 L1769.15 1416.24 L1769.15 1416.24  Z
  " fill="#009af9" fill-rule="evenodd" fill-opacity="1"/>
<polyline clip-path="url(#clip592)" style="stroke:#000000; stroke-width:4; stroke-opacity:1; fill:none" points="
  1769.15,1416.24 1769.15,1445.72 1792.32,1445.72 1792.32,1416.24 1769.15,1416.24 
  "/>
<path clip-path="url(#clip592)" d="
M1792.32 1433.58 L1792.32 1445.72 L1815.49 1445.72 L1815.49 1433.58 L1792.32 1433.58 L1792.32 1433.58  Z
  " fill="#009af9" fill-rule="evenodd" fill-opacity="1"/>
<polyline clip-path="url(#clip592)" style="stroke:#000000; stroke-width:4; stroke-opacity:1; fill:none" points="
  1792.32,1433.58 1792.32,1445.72 1815.49,1445.72 1815.49,1433.58 1792.32,1433.58 
  "/>
<path clip-path="url(#clip592)" d="
M1815.49 1437.05 L1815.49 1445.72 L1838.65 1445.72 L1838.65 1437.05 L1815.49 1437.05 L1815.49 1437.05  Z
  " fill="#009af9" fill-rule="evenodd" fill-opacity="1"/>
<polyline clip-path="url(#clip592)" style="stroke:#000000; stroke-width:4; stroke-opacity:1; fill:none" points="
  1815.49,1437.05 1815.49,1445.72 1838.65,1445.72 1838.65,1437.05 1815.49,1437.05 
  "/>
<path clip-path="url(#clip592)" d="
M1838.65 1442.25 L1838.65 1445.72 L1861.82 1445.72 L1861.82 1442.25 L1838.65 1442.25 L1838.65 1442.25  Z
  " fill="#009af9" fill-rule="evenodd" fill-opacity="1"/>
<polyline clip-path="url(#clip592)" style="stroke:#000000; stroke-width:4; stroke-opacity:1; fill:none" points="
  1838.65,1442.25 1838.65,1445.72 1861.82,1445.72 1861.82,1442.25 1838.65,1442.25 
  "/>
<path clip-path="url(#clip592)" d="
M1861.82 1435.31 L1861.82 1445.72 L1884.99 1445.72 L1884.99 1435.31 L1861.82 1435.31 L1861.82 1435.31  Z
  " fill="#009af9" fill-rule="evenodd" fill-opacity="1"/>
<polyline clip-path="url(#clip592)" style="stroke:#000000; stroke-width:4; stroke-opacity:1; fill:none" points="
  1861.82,1435.31 1861.82,1445.72 1884.99,1445.72 1884.99,1435.31 1861.82,1435.31 
  "/>
<path clip-path="url(#clip592)" d="
M1884.99 1433.58 L1884.99 1445.72 L1908.15 1445.72 L1908.15 1433.58 L1884.99 1433.58 L1884.99 1433.58  Z
  " fill="#009af9" fill-rule="evenodd" fill-opacity="1"/>
<polyline clip-path="url(#clip592)" style="stroke:#000000; stroke-width:4; stroke-opacity:1; fill:none" points="
  1884.99,1433.58 1884.99,1445.72 1908.15,1445.72 1908.15,1433.58 1884.99,1433.58 
  "/>
<path clip-path="url(#clip592)" d="
M1908.15 1442.25 L1908.15 1445.72 L1931.32 1445.72 L1931.32 1442.25 L1908.15 1442.25 L1908.15 1442.25  Z
  " fill="#009af9" fill-rule="evenodd" fill-opacity="1"/>
<polyline clip-path="url(#clip592)" style="stroke:#000000; stroke-width:4; stroke-opacity:1; fill:none" points="
  1908.15,1442.25 1908.15,1445.72 1931.32,1445.72 1931.32,1442.25 1908.15,1442.25 
  "/>
<path clip-path="url(#clip592)" d="
M1931.32 1445.72 L1931.32 1445.72 L1954.49 1445.72 L1954.49 1445.72 L1931.32 1445.72 L1931.32 1445.72  Z
  " fill="#009af9" fill-rule="evenodd" fill-opacity="1"/>
<polyline clip-path="url(#clip592)" style="stroke:#000000; stroke-width:4; stroke-opacity:1; fill:none" points="
  1931.32,1445.72 1931.32,1445.72 1954.49,1445.72 1931.32,1445.72 
  "/>
<path clip-path="url(#clip592)" d="
M1954.49 1443.98 L1954.49 1445.72 L1977.66 1445.72 L1977.66 1443.98 L1954.49 1443.98 L1954.49 1443.98  Z
  " fill="#009af9" fill-rule="evenodd" fill-opacity="1"/>
<polyline clip-path="url(#clip592)" style="stroke:#000000; stroke-width:4; stroke-opacity:1; fill:none" points="
  1954.49,1443.98 1954.49,1445.72 1977.66,1445.72 1977.66,1443.98 1954.49,1443.98 
  "/>
<path clip-path="url(#clip592)" d="
M1977.66 1445.72 L1977.66 1445.72 L2000.82 1445.72 L2000.82 1445.72 L1977.66 1445.72 L1977.66 1445.72  Z
  " fill="#009af9" fill-rule="evenodd" fill-opacity="1"/>
<polyline clip-path="url(#clip592)" style="stroke:#000000; stroke-width:4; stroke-opacity:1; fill:none" points="
  1977.66,1445.72 1977.66,1445.72 2000.82,1445.72 1977.66,1445.72 
  "/>
<path clip-path="url(#clip592)" d="
M2000.82 1443.98 L2000.82 1445.72 L2023.99 1445.72 L2023.99 1443.98 L2000.82 1443.98 L2000.82 1443.98  Z
  " fill="#009af9" fill-rule="evenodd" fill-opacity="1"/>
<polyline clip-path="url(#clip592)" style="stroke:#000000; stroke-width:4; stroke-opacity:1; fill:none" points="
  2000.82,1443.98 2000.82,1445.72 2023.99,1445.72 2023.99,1443.98 2000.82,1443.98 
  "/>
<path clip-path="url(#clip592)" d="
M2023.99 1445.72 L2023.99 1445.72 L2047.16 1445.72 L2047.16 1445.72 L2023.99 1445.72 L2023.99 1445.72  Z
  " fill="#009af9" fill-rule="evenodd" fill-opacity="1"/>
<polyline clip-path="url(#clip592)" style="stroke:#000000; stroke-width:4; stroke-opacity:1; fill:none" points="
  2023.99,1445.72 2023.99,1445.72 2047.16,1445.72 2023.99,1445.72 
  "/>
<path clip-path="url(#clip592)" d="
M2047.16 1443.98 L2047.16 1445.72 L2070.32 1445.72 L2070.32 1443.98 L2047.16 1443.98 L2047.16 1443.98  Z
  " fill="#009af9" fill-rule="evenodd" fill-opacity="1"/>
<polyline clip-path="url(#clip592)" style="stroke:#000000; stroke-width:4; stroke-opacity:1; fill:none" points="
  2047.16,1443.98 2047.16,1445.72 2070.32,1445.72 2070.32,1443.98 2047.16,1443.98 
  "/>
<path clip-path="url(#clip592)" d="
M2070.32 1445.72 L2070.32 1445.72 L2093.49 1445.72 L2093.49 1445.72 L2070.32 1445.72 L2070.32 1445.72  Z
  " fill="#009af9" fill-rule="evenodd" fill-opacity="1"/>
<polyline clip-path="url(#clip592)" style="stroke:#000000; stroke-width:4; stroke-opacity:1; fill:none" points="
  2070.32,1445.72 2070.32,1445.72 2093.49,1445.72 2070.32,1445.72 
  "/>
<path clip-path="url(#clip592)" d="
M2093.49 1445.72 L2093.49 1445.72 L2116.66 1445.72 L2116.66 1445.72 L2093.49 1445.72 L2093.49 1445.72  Z
  " fill="#009af9" fill-rule="evenodd" fill-opacity="1"/>
<polyline clip-path="url(#clip592)" style="stroke:#000000; stroke-width:4; stroke-opacity:1; fill:none" points="
  2093.49,1445.72 2093.49,1445.72 2116.66,1445.72 2093.49,1445.72 
  "/>
<path clip-path="url(#clip592)" d="
M2116.66 1445.72 L2116.66 1445.72 L2139.82 1445.72 L2139.82 1445.72 L2116.66 1445.72 L2116.66 1445.72  Z
  " fill="#009af9" fill-rule="evenodd" fill-opacity="1"/>
<polyline clip-path="url(#clip592)" style="stroke:#000000; stroke-width:4; stroke-opacity:1; fill:none" points="
  2116.66,1445.72 2116.66,1445.72 2139.82,1445.72 2116.66,1445.72 
  "/>
<path clip-path="url(#clip592)" d="
M2139.82 1445.72 L2139.82 1445.72 L2162.99 1445.72 L2162.99 1445.72 L2139.82 1445.72 L2139.82 1445.72  Z
  " fill="#009af9" fill-rule="evenodd" fill-opacity="1"/>
<polyline clip-path="url(#clip592)" style="stroke:#000000; stroke-width:4; stroke-opacity:1; fill:none" points="
  2139.82,1445.72 2139.82,1445.72 2162.99,1445.72 2139.82,1445.72 
  "/>
<path clip-path="url(#clip592)" d="
M2162.99 1445.72 L2162.99 1445.72 L2186.16 1445.72 L2186.16 1445.72 L2162.99 1445.72 L2162.99 1445.72  Z
  " fill="#009af9" fill-rule="evenodd" fill-opacity="1"/>
<polyline clip-path="url(#clip592)" style="stroke:#000000; stroke-width:4; stroke-opacity:1; fill:none" points="
  2162.99,1445.72 2162.99,1445.72 2186.16,1445.72 2162.99,1445.72 
  "/>
<path clip-path="url(#clip592)" d="
M2186.16 1445.72 L2186.16 1445.72 L2209.32 1445.72 L2209.32 1445.72 L2186.16 1445.72 L2186.16 1445.72  Z
  " fill="#009af9" fill-rule="evenodd" fill-opacity="1"/>
<polyline clip-path="url(#clip592)" style="stroke:#000000; stroke-width:4; stroke-opacity:1; fill:none" points="
  2186.16,1445.72 2186.16,1445.72 2209.32,1445.72 2186.16,1445.72 
  "/>
<path clip-path="url(#clip592)" d="
M2209.32 1443.98 L2209.32 1445.72 L2232.49 1445.72 L2232.49 1443.98 L2209.32 1443.98 L2209.32 1443.98  Z
  " fill="#009af9" fill-rule="evenodd" fill-opacity="1"/>
<polyline clip-path="url(#clip592)" style="stroke:#000000; stroke-width:4; stroke-opacity:1; fill:none" points="
  2209.32,1443.98 2209.32,1445.72 2232.49,1445.72 2232.49,1443.98 2209.32,1443.98 
  "/>
<path clip-path="url(#clip590)" d="
M1989.74 251.724 L2280.76 251.724 L2280.76 130.764 L1989.74 130.764  Z
  " fill="#ffffff" fill-rule="evenodd" fill-opacity="1"/>
<polyline clip-path="url(#clip590)" style="stroke:#000000; stroke-width:4; stroke-opacity:1; fill:none" points="
  1989.74,251.724 2280.76,251.724 2280.76,130.764 1989.74,130.764 1989.74,251.724 
  "/>
<path clip-path="url(#clip590)" d="
M2013.74 215.436 L2157.74 215.436 L2157.74 167.052 L2013.74 167.052 L2013.74 215.436  Z
  " fill="#009af9" fill-rule="evenodd" fill-opacity="1"/>
<polyline clip-path="url(#clip590)" style="stroke:#000000; stroke-width:4; stroke-opacity:1; fill:none" points="
  2013.74,215.436 2157.74,215.436 2157.74,167.052 2013.74,167.052 2013.74,215.436 
  "/>
<path clip-path="url(#clip590)" d="M 0 0 M2195.58 210.931 Q2193.77 215.561 2192.06 216.973 Q2190.35 218.385 2187.48 218.385 L2184.08 218.385 L2184.08 214.82 L2186.58 214.82 Q2188.33 214.82 2189.31 213.987 Q2190.28 213.154 2191.46 210.052 L2192.22 208.107 L2181.74 182.598 L2186.25 182.598 L2194.35 202.876 L2202.46 182.598 L2206.97 182.598 L2195.58 210.931 Z" fill="#000000" fill-rule="evenodd" fill-opacity="1" /><path clip-path="url(#clip590)" d="M 0 0 M2212.85 204.589 L2220.49 204.589 L2220.49 178.223 L2212.18 179.89 L2212.18 175.631 L2220.44 173.964 L2225.12 173.964 L2225.12 204.589 L2232.76 204.589 L2232.76 208.524 L2212.85 208.524 L2212.85 204.589 Z" fill="#000000" fill-rule="evenodd" fill-opacity="1" /></svg>
