<?xml version="1.0" encoding="utf-8"?>
<svg xmlns="http://www.w3.org/2000/svg" xmlns:xlink="http://www.w3.org/1999/xlink" width="600" height="400" viewBox="0 0 2400 1600">
<defs>
  <clipPath id="clip130">
    <rect x="0" y="0" width="2400" height="1600"/>
  </clipPath>
</defs>
<path clip-path="url(#clip130)" d="
M0 1600 L2400 1600 L2400 0 L0 0  Z
  " fill="#ffffff" fill-rule="evenodd" fill-opacity="1"/>
<defs>
  <clipPath id="clip131">
    <rect x="480" y="0" width="1681" height="1600"/>
  </clipPath>
</defs>
<path clip-path="url(#clip130)" d="
M166.205 1486.45 L2352.76 1486.45 L2352.76 47.2441 L166.205 47.2441  Z
  " fill="#ffffff" fill-rule="evenodd" fill-opacity="1"/>
<defs>
  <clipPath id="clip132">
    <rect x="166" y="47" width="2188" height="1440"/>
  </clipPath>
</defs>
<polyline clip-path="url(#clip132)" style="stroke:#000000; stroke-width:2; stroke-opacity:0.1; fill:none" points="
  494.045,1486.45 494.045,47.2441 
  "/>
<polyline clip-path="url(#clip132)" style="stroke:#000000; stroke-width:2; stroke-opacity:0.1; fill:none" points="
  883.249,1486.45 883.249,47.2441 
  "/>
<polyline clip-path="url(#clip132)" style="stroke:#000000; stroke-width:2; stroke-opacity:0.1; fill:none" points="
  1272.45,1486.45 1272.45,47.2441 
  "/>
<polyline clip-path="url(#clip132)" style="stroke:#000000; stroke-width:2; stroke-opacity:0.1; fill:none" points="
  1661.66,1486.45 1661.66,47.2441 
  "/>
<polyline clip-path="url(#clip132)" style="stroke:#000000; stroke-width:2; stroke-opacity:0.1; fill:none" points="
  2050.86,1486.45 2050.86,47.2441 
  "/>
<polyline clip-path="url(#clip132)" style="stroke:#000000; stroke-width:2; stroke-opacity:0.1; fill:none" points="
  166.205,1445.72 2352.76,1445.72 
  "/>
<polyline clip-path="url(#clip132)" style="stroke:#000000; stroke-width:2; stroke-opacity:0.1; fill:none" points="
  166.205,1106.28 2352.76,1106.28 
  "/>
<polyline clip-path="url(#clip132)" style="stroke:#000000; stroke-width:2; stroke-opacity:0.1; fill:none" points="
  166.205,766.846 2352.76,766.846 
  "/>
<polyline clip-path="url(#clip132)" style="stroke:#000000; stroke-width:2; stroke-opacity:0.1; fill:none" points="
  166.205,427.411 2352.76,427.411 
  "/>
<polyline clip-path="url(#clip132)" style="stroke:#000000; stroke-width:2; stroke-opacity:0.1; fill:none" points="
  166.205,87.9763 2352.76,87.9763 
  "/>
<polyline clip-path="url(#clip130)" style="stroke:#000000; stroke-width:4; stroke-opacity:1; fill:none" points="
  166.205,1486.45 2352.76,1486.45 
  "/>
<polyline clip-path="url(#clip130)" style="stroke:#000000; stroke-width:4; stroke-opacity:1; fill:none" points="
  166.205,1486.45 166.205,47.2441 
  "/>
<polyline clip-path="url(#clip130)" style="stroke:#000000; stroke-width:4; stroke-opacity:1; fill:none" points="
  494.045,1486.45 494.045,1469.18 
  "/>
<polyline clip-path="url(#clip130)" style="stroke:#000000; stroke-width:4; stroke-opacity:1; fill:none" points="
  883.249,1486.45 883.249,1469.18 
  "/>
<polyline clip-path="url(#clip130)" style="stroke:#000000; stroke-width:4; stroke-opacity:1; fill:none" points="
  1272.45,1486.45 1272.45,1469.18 
  "/>
<polyline clip-path="url(#clip130)" style="stroke:#000000; stroke-width:4; stroke-opacity:1; fill:none" points="
  1661.66,1486.45 1661.66,1469.18 
  "/>
<polyline clip-path="url(#clip130)" style="stroke:#000000; stroke-width:4; stroke-opacity:1; fill:none" points="
  2050.86,1486.45 2050.86,1469.18 
  "/>
<polyline clip-path="url(#clip130)" style="stroke:#000000; stroke-width:4; stroke-opacity:1; fill:none" points="
  166.205,1445.72 192.443,1445.72 
  "/>
<polyline clip-path="url(#clip130)" style="stroke:#000000; stroke-width:4; stroke-opacity:1; fill:none" points="
  166.205,1106.28 192.443,1106.28 
  "/>
<polyline clip-path="url(#clip130)" style="stroke:#000000; stroke-width:4; stroke-opacity:1; fill:none" points="
  166.205,766.846 192.443,766.846 
  "/>
<polyline clip-path="url(#clip130)" style="stroke:#000000; stroke-width:4; stroke-opacity:1; fill:none" points="
  166.205,427.411 192.443,427.411 
  "/>
<polyline clip-path="url(#clip130)" style="stroke:#000000; stroke-width:4; stroke-opacity:1; fill:none" points="
  166.205,87.9763 192.443,87.9763 
  "/>
<path clip-path="url(#clip130)" d="M 0 0 M474.218 1525.04 L486.695 1525.04 L486.695 1528.83 L474.218 1528.83 L474.218 1525.04 Z" fill="#000000" fill-rule="evenodd" fill-opacity="1" /><path clip-path="url(#clip130)" d="M 0 0 M502.343 1520.78 Q499.195 1520.78 497.343 1522.93 Q495.515 1525.08 495.515 1528.83 Q495.515 1532.56 497.343 1534.73 Q499.195 1536.89 502.343 1536.89 Q505.491 1536.89 507.32 1534.73 Q509.172 1532.56 509.172 1528.83 Q509.172 1525.08 507.32 1522.93 Q505.491 1520.78 502.343 1520.78 M511.626 1506.12 L511.626 1510.38 Q509.866 1509.55 508.061 1509.11 Q506.278 1508.67 504.519 1508.67 Q499.89 1508.67 497.436 1511.8 Q495.005 1514.92 494.658 1521.24 Q496.024 1519.23 498.084 1518.16 Q500.144 1517.07 502.621 1517.07 Q507.829 1517.07 510.839 1520.24 Q513.871 1523.39 513.871 1528.83 Q513.871 1534.16 510.723 1537.37 Q507.575 1540.59 502.343 1540.59 Q496.348 1540.59 493.177 1536.01 Q490.005 1531.4 490.005 1522.67 Q490.005 1514.48 493.894 1509.62 Q497.783 1504.73 504.334 1504.73 Q506.093 1504.73 507.876 1505.08 Q509.681 1505.43 511.626 1506.12 Z" fill="#000000" fill-rule="evenodd" fill-opacity="1" /><path clip-path="url(#clip130)" d="M 0 0 M863.828 1525.04 L876.305 1525.04 L876.305 1528.83 L863.828 1528.83 L863.828 1525.04 Z" fill="#000000" fill-rule="evenodd" fill-opacity="1" /><path clip-path="url(#clip130)" d="M 0 0 M895.541 1521.29 Q898.897 1522 900.772 1524.27 Q902.67 1526.54 902.67 1529.87 Q902.67 1534.99 899.152 1537.79 Q895.633 1540.59 889.152 1540.59 Q886.976 1540.59 884.661 1540.15 Q882.37 1539.73 879.916 1538.88 L879.916 1534.36 Q881.86 1535.5 884.175 1536.08 Q886.49 1536.66 889.013 1536.66 Q893.411 1536.66 895.703 1534.92 Q898.018 1533.18 898.018 1529.87 Q898.018 1526.82 895.865 1525.11 Q893.735 1523.37 889.916 1523.37 L885.888 1523.37 L885.888 1519.53 L890.101 1519.53 Q893.55 1519.53 895.379 1518.16 Q897.207 1516.77 897.207 1514.18 Q897.207 1511.52 895.309 1510.11 Q893.434 1508.67 889.916 1508.67 Q887.995 1508.67 885.795 1509.09 Q883.596 1509.5 880.958 1510.38 L880.958 1506.22 Q883.62 1505.48 885.934 1505.11 Q888.272 1504.73 890.333 1504.73 Q895.657 1504.73 898.758 1507.17 Q901.86 1509.57 901.86 1513.69 Q901.86 1516.56 900.217 1518.55 Q898.573 1520.52 895.541 1521.29 Z" fill="#000000" fill-rule="evenodd" fill-opacity="1" /><path clip-path="url(#clip130)" d="M 0 0 M1272.45 1508.44 Q1268.84 1508.44 1267.01 1512 Q1265.21 1515.55 1265.21 1522.67 Q1265.21 1529.78 1267.01 1533.35 Q1268.84 1536.89 1272.45 1536.89 Q1276.09 1536.89 1277.89 1533.35 Q1279.72 1529.78 1279.72 1522.67 Q1279.72 1515.55 1277.89 1512 Q1276.09 1508.44 1272.45 1508.44 M1272.45 1504.73 Q1278.26 1504.73 1281.32 1509.34 Q1284.4 1513.92 1284.4 1522.67 Q1284.4 1531.4 1281.32 1536.01 Q1278.26 1540.59 1272.45 1540.59 Q1266.64 1540.59 1263.56 1536.01 Q1260.51 1531.4 1260.51 1522.67 Q1260.51 1513.92 1263.56 1509.34 Q1266.64 1504.73 1272.45 1504.73 Z" fill="#000000" fill-rule="evenodd" fill-opacity="1" /><path clip-path="url(#clip130)" d="M 0 0 M1665.91 1521.29 Q1669.26 1522 1671.14 1524.27 Q1673.04 1526.54 1673.04 1529.87 Q1673.04 1534.99 1669.52 1537.79 Q1666 1540.59 1659.52 1540.59 Q1657.34 1540.59 1655.03 1540.15 Q1652.73 1539.73 1650.28 1538.88 L1650.28 1534.36 Q1652.23 1535.5 1654.54 1536.08 Q1656.86 1536.66 1659.38 1536.66 Q1663.78 1536.66 1666.07 1534.92 Q1668.38 1533.18 1668.38 1529.87 Q1668.38 1526.82 1666.23 1525.11 Q1664.1 1523.37 1660.28 1523.37 L1656.25 1523.37 L1656.25 1519.53 L1660.47 1519.53 Q1663.92 1519.53 1665.74 1518.16 Q1667.57 1516.77 1667.57 1514.18 Q1667.57 1511.52 1665.67 1510.11 Q1663.8 1508.67 1660.28 1508.67 Q1658.36 1508.67 1656.16 1509.09 Q1653.96 1509.5 1651.32 1510.38 L1651.32 1506.22 Q1653.98 1505.48 1656.3 1505.11 Q1658.64 1504.73 1660.7 1504.73 Q1666.02 1504.73 1669.12 1507.17 Q1672.23 1509.57 1672.23 1513.69 Q1672.23 1516.56 1670.58 1518.55 Q1668.94 1520.52 1665.91 1521.29 Z" fill="#000000" fill-rule="evenodd" fill-opacity="1" /><path clip-path="url(#clip130)" d="M 0 0 M2051.27 1520.78 Q2048.12 1520.78 2046.27 1522.93 Q2044.44 1525.08 2044.44 1528.83 Q2044.44 1532.56 2046.27 1534.73 Q2048.12 1536.89 2051.27 1536.89 Q2054.42 1536.89 2056.24 1534.73 Q2058.1 1532.56 2058.1 1528.83 Q2058.1 1525.08 2056.24 1522.93 Q2054.42 1520.78 2051.27 1520.78 M2060.55 1506.12 L2060.55 1510.38 Q2058.79 1509.55 2056.99 1509.11 Q2055.2 1508.67 2053.44 1508.67 Q2048.81 1508.67 2046.36 1511.8 Q2043.93 1514.92 2043.58 1521.24 Q2044.95 1519.23 2047.01 1518.16 Q2049.07 1517.07 2051.55 1517.07 Q2056.75 1517.07 2059.76 1520.24 Q2062.8 1523.39 2062.8 1528.83 Q2062.8 1534.16 2059.65 1537.37 Q2056.5 1540.59 2051.27 1540.59 Q2045.27 1540.59 2042.1 1536.01 Q2038.93 1531.4 2038.93 1522.67 Q2038.93 1514.48 2042.82 1509.62 Q2046.71 1504.73 2053.26 1504.73 Q2055.02 1504.73 2056.8 1505.08 Q2058.61 1505.43 2060.55 1506.12 Z" fill="#000000" fill-rule="evenodd" fill-opacity="1" /><path clip-path="url(#clip130)" d="M 0 0 M130.26 1431.51 Q126.649 1431.51 124.82 1435.08 Q123.015 1438.62 123.015 1445.75 Q123.015 1452.86 124.82 1456.42 Q126.649 1459.96 130.26 1459.96 Q133.895 1459.96 135.7 1456.42 Q137.529 1452.86 137.529 1445.75 Q137.529 1438.62 135.7 1435.08 Q133.895 1431.51 130.26 1431.51 M130.26 1427.81 Q136.07 1427.81 139.126 1432.42 Q142.205 1437 142.205 1445.75 Q142.205 1454.48 139.126 1459.08 Q136.07 1463.67 130.26 1463.67 Q124.45 1463.67 121.371 1459.08 Q118.316 1454.48 118.316 1445.75 Q118.316 1437 121.371 1432.42 Q124.45 1427.81 130.26 1427.81 Z" fill="#000000" fill-rule="evenodd" fill-opacity="1" /><path clip-path="url(#clip130)" d="M 0 0 M71.8578 1119.63 L88.1772 1119.63 L88.1772 1123.56 L66.2328 1123.56 L66.2328 1119.63 Q68.8949 1116.87 73.4782 1112.24 Q78.0846 1107.59 79.2652 1106.25 Q81.5105 1103.72 82.3902 1101.99 Q83.2929 1100.23 83.2929 1098.54 Q83.2929 1095.78 81.3485 1094.05 Q79.4272 1092.31 76.3254 1092.31 Q74.1263 1092.31 71.6726 1093.07 Q69.2421 1093.84 66.4643 1095.39 L66.4643 1090.67 Q69.2884 1089.53 71.7421 1088.95 Q74.1958 1088.38 76.2328 1088.38 Q81.6031 1088.38 84.7976 1091.06 Q87.992 1093.75 87.992 1098.24 Q87.992 1100.37 87.1818 1102.29 Q86.3948 1104.19 84.2883 1106.78 Q83.7096 1107.45 80.6078 1110.67 Q77.5059 1113.86 71.8578 1119.63 Z" fill="#000000" fill-rule="evenodd" fill-opacity="1" /><path clip-path="url(#clip130)" d="M 0 0 M103.247 1092.08 Q99.6354 1092.08 97.8068 1095.64 Q96.0012 1099.19 96.0012 1106.32 Q96.0012 1113.42 97.8068 1116.99 Q99.6354 1120.53 103.247 1120.53 Q106.881 1120.53 108.686 1116.99 Q110.515 1113.42 110.515 1106.32 Q110.515 1099.19 108.686 1095.64 Q106.881 1092.08 103.247 1092.08 M103.247 1088.38 Q109.057 1088.38 112.112 1092.98 Q115.191 1097.57 115.191 1106.32 Q115.191 1115.04 112.112 1119.65 Q109.057 1124.23 103.247 1124.23 Q97.4364 1124.23 94.3577 1119.65 Q91.3022 1115.04 91.3022 1106.32 Q91.3022 1097.57 94.3577 1092.98 Q97.4364 1088.38 103.247 1088.38 Z" fill="#000000" fill-rule="evenodd" fill-opacity="1" /><path clip-path="url(#clip130)" d="M 0 0 M130.26 1092.08 Q126.649 1092.08 124.82 1095.64 Q123.015 1099.19 123.015 1106.32 Q123.015 1113.42 124.82 1116.99 Q126.649 1120.53 130.26 1120.53 Q133.895 1120.53 135.7 1116.99 Q137.529 1113.42 137.529 1106.32 Q137.529 1099.19 135.7 1095.64 Q133.895 1092.08 130.26 1092.08 M130.26 1088.38 Q136.07 1088.38 139.126 1092.98 Q142.205 1097.57 142.205 1106.32 Q142.205 1115.04 139.126 1119.65 Q136.07 1124.23 130.26 1124.23 Q124.45 1124.23 121.371 1119.65 Q118.316 1115.04 118.316 1106.32 Q118.316 1097.57 121.371 1092.98 Q124.45 1088.38 130.26 1088.38 Z" fill="#000000" fill-rule="evenodd" fill-opacity="1" /><path clip-path="url(#clip130)" d="M 0 0 M78.5939 753.64 L66.7884 772.089 L78.5939 772.089 L78.5939 753.64 M77.367 749.566 L83.2466 749.566 L83.2466 772.089 L88.1772 772.089 L88.1772 775.978 L83.2466 775.978 L83.2466 784.126 L78.5939 784.126 L78.5939 775.978 L62.9921 775.978 L62.9921 771.464 L77.367 749.566 Z" fill="#000000" fill-rule="evenodd" fill-opacity="1" /><path clip-path="url(#clip130)" d="M 0 0 M103.247 752.645 Q99.6354 752.645 97.8068 756.209 Q96.0012 759.751 96.0012 766.881 Q96.0012 773.987 97.8068 777.552 Q99.6354 781.094 103.247 781.094 Q106.881 781.094 108.686 777.552 Q110.515 773.987 110.515 766.881 Q110.515 759.751 108.686 756.209 Q106.881 752.645 103.247 752.645 M103.247 748.941 Q109.057 748.941 112.112 753.547 Q115.191 758.131 115.191 766.881 Q115.191 775.608 112.112 780.214 Q109.057 784.797 103.247 784.797 Q97.4364 784.797 94.3577 780.214 Q91.3022 775.608 91.3022 766.881 Q91.3022 758.131 94.3577 753.547 Q97.4364 748.941 103.247 748.941 Z" fill="#000000" fill-rule="evenodd" fill-opacity="1" /><path clip-path="url(#clip130)" d="M 0 0 M130.26 752.645 Q126.649 752.645 124.82 756.209 Q123.015 759.751 123.015 766.881 Q123.015 773.987 124.82 777.552 Q126.649 781.094 130.26 781.094 Q133.895 781.094 135.7 777.552 Q137.529 773.987 137.529 766.881 Q137.529 759.751 135.7 756.209 Q133.895 752.645 130.26 752.645 M130.26 748.941 Q136.07 748.941 139.126 753.547 Q142.205 758.131 142.205 766.881 Q142.205 775.608 139.126 780.214 Q136.07 784.797 130.26 784.797 Q124.45 784.797 121.371 780.214 Q118.316 775.608 118.316 766.881 Q118.316 758.131 121.371 753.547 Q124.45 748.941 130.26 748.941 Z" fill="#000000" fill-rule="evenodd" fill-opacity="1" /><path clip-path="url(#clip130)" d="M 0 0 M76.6495 425.548 Q73.5013 425.548 71.6495 427.7 Q69.8208 429.853 69.8208 433.603 Q69.8208 437.33 71.6495 439.506 Q73.5013 441.659 76.6495 441.659 Q79.7976 441.659 81.6263 439.506 Q83.4781 437.33 83.4781 433.603 Q83.4781 429.853 81.6263 427.7 Q79.7976 425.548 76.6495 425.548 M85.9318 410.895 L85.9318 415.154 Q84.1726 414.321 82.367 413.881 Q80.5846 413.441 78.8254 413.441 Q74.1958 413.441 71.7421 416.566 Q69.3115 419.691 68.9643 426.011 Q70.33 423.997 72.3902 422.932 Q74.4504 421.844 76.9272 421.844 Q82.1355 421.844 85.1448 425.015 Q88.1772 428.163 88.1772 433.603 Q88.1772 438.927 85.029 442.145 Q81.8809 445.362 76.6495 445.362 Q70.6541 445.362 67.4828 440.779 Q64.3116 436.173 64.3116 427.446 Q64.3116 419.251 68.2004 414.39 Q72.0893 409.506 78.6402 409.506 Q80.3994 409.506 82.1818 409.853 Q83.9874 410.201 85.9318 410.895 Z" fill="#000000" fill-rule="evenodd" fill-opacity="1" /><path clip-path="url(#clip130)" d="M 0 0 M103.247 413.21 Q99.6354 413.21 97.8068 416.775 Q96.0012 420.316 96.0012 427.446 Q96.0012 434.552 97.8068 438.117 Q99.6354 441.659 103.247 441.659 Q106.881 441.659 108.686 438.117 Q110.515 434.552 110.515 427.446 Q110.515 420.316 108.686 416.775 Q106.881 413.21 103.247 413.21 M103.247 409.506 Q109.057 409.506 112.112 414.113 Q115.191 418.696 115.191 427.446 Q115.191 436.173 112.112 440.779 Q109.057 445.362 103.247 445.362 Q97.4364 445.362 94.3577 440.779 Q91.3022 436.173 91.3022 427.446 Q91.3022 418.696 94.3577 414.113 Q97.4364 409.506 103.247 409.506 Z" fill="#000000" fill-rule="evenodd" fill-opacity="1" /><path clip-path="url(#clip130)" d="M 0 0 M130.26 413.21 Q126.649 413.21 124.82 416.775 Q123.015 420.316 123.015 427.446 Q123.015 434.552 124.82 438.117 Q126.649 441.659 130.26 441.659 Q133.895 441.659 135.7 438.117 Q137.529 434.552 137.529 427.446 Q137.529 420.316 135.7 416.775 Q133.895 413.21 130.26 413.21 M130.26 409.506 Q136.07 409.506 139.126 414.113 Q142.205 418.696 142.205 427.446 Q142.205 436.173 139.126 440.779 Q136.07 445.362 130.26 445.362 Q124.45 445.362 121.371 440.779 Q118.316 436.173 118.316 427.446 Q118.316 418.696 121.371 414.113 Q124.45 409.506 130.26 409.506 Z" fill="#000000" fill-rule="evenodd" fill-opacity="1" /><path clip-path="url(#clip130)" d="M 0 0 M76.3254 88.8443 Q72.9921 88.8443 71.0708 90.6267 Q69.1726 92.4091 69.1726 95.5341 Q69.1726 98.6591 71.0708 100.441 Q72.9921 102.224 76.3254 102.224 Q79.6587 102.224 81.58 100.441 Q83.5013 98.6359 83.5013 95.5341 Q83.5013 92.4091 81.58 90.6267 Q79.6819 88.8443 76.3254 88.8443 M71.6495 86.8536 Q68.6402 86.1129 66.9504 84.0527 Q65.2838 81.9925 65.2838 79.0296 Q65.2838 74.8861 68.2236 72.4787 Q71.1865 70.0713 76.3254 70.0713 Q81.4874 70.0713 84.4272 72.4787 Q87.367 74.8861 87.367 79.0296 Q87.367 81.9925 85.6772 84.0527 Q84.0105 86.1129 81.0244 86.8536 Q84.404 87.6406 86.279 89.9323 Q88.1772 92.2239 88.1772 95.5341 Q88.1772 100.557 85.0985 103.242 Q82.0429 105.928 76.3254 105.928 Q70.6078 105.928 67.5291 103.242 Q64.4736 100.557 64.4736 95.5341 Q64.4736 92.2239 66.3717 89.9323 Q68.2699 87.6406 71.6495 86.8536 M69.9365 79.4694 Q69.9365 82.1545 71.6032 83.6592 Q73.293 85.1638 76.3254 85.1638 Q79.3346 85.1638 81.0244 83.6592 Q82.7374 82.1545 82.7374 79.4694 Q82.7374 76.7842 81.0244 75.2796 Q79.3346 73.775 76.3254 73.775 Q73.293 73.775 71.6032 75.2796 Q69.9365 76.7842 69.9365 79.4694 Z" fill="#000000" fill-rule="evenodd" fill-opacity="1" /><path clip-path="url(#clip130)" d="M 0 0 M103.247 73.775 Q99.6354 73.775 97.8068 77.3398 Q96.0012 80.8814 96.0012 88.011 Q96.0012 95.1174 97.8068 98.6822 Q99.6354 102.224 103.247 102.224 Q106.881 102.224 108.686 98.6822 Q110.515 95.1174 110.515 88.011 Q110.515 80.8814 108.686 77.3398 Q106.881 73.775 103.247 73.775 M103.247 70.0713 Q109.057 70.0713 112.112 74.6777 Q115.191 79.261 115.191 88.011 Q115.191 96.7378 112.112 101.344 Q109.057 105.928 103.247 105.928 Q97.4364 105.928 94.3577 101.344 Q91.3022 96.7378 91.3022 88.011 Q91.3022 79.261 94.3577 74.6777 Q97.4364 70.0713 103.247 70.0713 Z" fill="#000000" fill-rule="evenodd" fill-opacity="1" /><path clip-path="url(#clip130)" d="M 0 0 M130.26 73.775 Q126.649 73.775 124.82 77.3398 Q123.015 80.8814 123.015 88.011 Q123.015 95.1174 124.82 98.6822 Q126.649 102.224 130.26 102.224 Q133.895 102.224 135.7 98.6822 Q137.529 95.1174 137.529 88.011 Q137.529 80.8814 135.7 77.3398 Q133.895 73.775 130.26 73.775 M130.26 70.0713 Q136.07 70.0713 139.126 74.6777 Q142.205 79.261 142.205 88.011 Q142.205 96.7378 139.126 101.344 Q136.07 105.928 130.26 105.928 Q124.45 105.928 121.371 101.344 Q118.316 96.7378 118.316 88.011 Q118.316 79.261 121.371 74.6777 Q124.45 70.0713 130.26 70.0713 Z" fill="#000000" fill-rule="evenodd" fill-opacity="1" /><path clip-path="url(#clip132)" d="
M286.469 1444.02 L286.469 1445.72 L312.416 1445.72 L312.416 1444.02 L286.469 1444.02 L286.469 1444.02  Z
  " fill="#009af9" fill-rule="evenodd" fill-opacity="1"/>
<polyline clip-path="url(#clip132)" style="stroke:#000000; stroke-width:4; stroke-opacity:1; fill:none" points="
  286.469,1444.02 286.469,1445.72 312.416,1445.72 312.416,1444.02 286.469,1444.02 
  "/>
<path clip-path="url(#clip132)" d="
M312.416 1445.72 L312.416 1445.72 L338.363 1445.72 L338.363 1445.72 L312.416 1445.72 L312.416 1445.72  Z
  " fill="#009af9" fill-rule="evenodd" fill-opacity="1"/>
<polyline clip-path="url(#clip132)" style="stroke:#000000; stroke-width:4; stroke-opacity:1; fill:none" points="
  312.416,1445.72 312.416,1445.72 338.363,1445.72 312.416,1445.72 
  "/>
<path clip-path="url(#clip132)" d="
M338.363 1444.02 L338.363 1445.72 L364.31 1445.72 L364.31 1444.02 L338.363 1444.02 L338.363 1444.02  Z
  " fill="#009af9" fill-rule="evenodd" fill-opacity="1"/>
<polyline clip-path="url(#clip132)" style="stroke:#000000; stroke-width:4; stroke-opacity:1; fill:none" points="
  338.363,1444.02 338.363,1445.72 364.31,1445.72 364.31,1444.02 338.363,1444.02 
  "/>
<path clip-path="url(#clip132)" d="
M364.31 1445.72 L364.31 1445.72 L390.257 1445.72 L390.257 1445.72 L364.31 1445.72 L364.31 1445.72  Z
  " fill="#009af9" fill-rule="evenodd" fill-opacity="1"/>
<polyline clip-path="url(#clip132)" style="stroke:#000000; stroke-width:4; stroke-opacity:1; fill:none" points="
  364.31,1445.72 364.31,1445.72 390.257,1445.72 364.31,1445.72 
  "/>
<path clip-path="url(#clip132)" d="
M390.257 1442.32 L390.257 1445.72 L416.204 1445.72 L416.204 1442.32 L390.257 1442.32 L390.257 1442.32  Z
  " fill="#009af9" fill-rule="evenodd" fill-opacity="1"/>
<polyline clip-path="url(#clip132)" style="stroke:#000000; stroke-width:4; stroke-opacity:1; fill:none" points="
  390.257,1442.32 390.257,1445.72 416.204,1445.72 416.204,1442.32 390.257,1442.32 
  "/>
<path clip-path="url(#clip132)" d="
M416.204 1445.72 L416.204 1445.72 L442.151 1445.72 L442.151 1445.72 L416.204 1445.72 L416.204 1445.72  Z
  " fill="#009af9" fill-rule="evenodd" fill-opacity="1"/>
<polyline clip-path="url(#clip132)" style="stroke:#000000; stroke-width:4; stroke-opacity:1; fill:none" points="
  416.204,1445.72 416.204,1445.72 442.151,1445.72 416.204,1445.72 
  "/>
<path clip-path="url(#clip132)" d="
M442.151 1445.72 L442.151 1445.72 L468.098 1445.72 L468.098 1445.72 L442.151 1445.72 L442.151 1445.72  Z
  " fill="#009af9" fill-rule="evenodd" fill-opacity="1"/>
<polyline clip-path="url(#clip132)" style="stroke:#000000; stroke-width:4; stroke-opacity:1; fill:none" points="
  442.151,1445.72 442.151,1445.72 468.098,1445.72 442.151,1445.72 
  "/>
<path clip-path="url(#clip132)" d="
M468.098 1444.02 L468.098 1445.72 L494.045 1445.72 L494.045 1444.02 L468.098 1444.02 L468.098 1444.02  Z
  " fill="#009af9" fill-rule="evenodd" fill-opacity="1"/>
<polyline clip-path="url(#clip132)" style="stroke:#000000; stroke-width:4; stroke-opacity:1; fill:none" points="
  468.098,1444.02 468.098,1445.72 494.045,1445.72 494.045,1444.02 468.098,1444.02 
  "/>
<path clip-path="url(#clip132)" d="
M494.045 1444.02 L494.045 1445.72 L519.992 1445.72 L519.992 1444.02 L494.045 1444.02 L494.045 1444.02  Z
  " fill="#009af9" fill-rule="evenodd" fill-opacity="1"/>
<polyline clip-path="url(#clip132)" style="stroke:#000000; stroke-width:4; stroke-opacity:1; fill:none" points="
  494.045,1444.02 494.045,1445.72 519.992,1445.72 519.992,1444.02 494.045,1444.02 
  "/>
<path clip-path="url(#clip132)" d="
M519.992 1440.62 L519.992 1445.72 L545.939 1445.72 L545.939 1440.62 L519.992 1440.62 L519.992 1440.62  Z
  " fill="#009af9" fill-rule="evenodd" fill-opacity="1"/>
<polyline clip-path="url(#clip132)" style="stroke:#000000; stroke-width:4; stroke-opacity:1; fill:none" points="
  519.992,1440.62 519.992,1445.72 545.939,1445.72 545.939,1440.62 519.992,1440.62 
  "/>
<path clip-path="url(#clip132)" d="
M545.939 1442.32 L545.939 1445.72 L571.886 1445.72 L571.886 1442.32 L545.939 1442.32 L545.939 1442.32  Z
  " fill="#009af9" fill-rule="evenodd" fill-opacity="1"/>
<polyline clip-path="url(#clip132)" style="stroke:#000000; stroke-width:4; stroke-opacity:1; fill:none" points="
  545.939,1442.32 545.939,1445.72 571.886,1445.72 571.886,1442.32 545.939,1442.32 
  "/>
<path clip-path="url(#clip132)" d="
M571.886 1437.23 L571.886 1445.72 L597.833 1445.72 L597.833 1437.23 L571.886 1437.23 L571.886 1437.23  Z
  " fill="#009af9" fill-rule="evenodd" fill-opacity="1"/>
<polyline clip-path="url(#clip132)" style="stroke:#000000; stroke-width:4; stroke-opacity:1; fill:none" points="
  571.886,1437.23 571.886,1445.72 597.833,1445.72 597.833,1437.23 571.886,1437.23 
  "/>
<path clip-path="url(#clip132)" d="
M597.833 1435.53 L597.833 1445.72 L623.779 1445.72 L623.779 1435.53 L597.833 1435.53 L597.833 1435.53  Z
  " fill="#009af9" fill-rule="evenodd" fill-opacity="1"/>
<polyline clip-path="url(#clip132)" style="stroke:#000000; stroke-width:4; stroke-opacity:1; fill:none" points="
  597.833,1435.53 597.833,1445.72 623.779,1445.72 623.779,1435.53 597.833,1435.53 
  "/>
<path clip-path="url(#clip132)" d="
M623.779 1444.02 L623.779 1445.72 L649.726 1445.72 L649.726 1444.02 L623.779 1444.02 L623.779 1444.02  Z
  " fill="#009af9" fill-rule="evenodd" fill-opacity="1"/>
<polyline clip-path="url(#clip132)" style="stroke:#000000; stroke-width:4; stroke-opacity:1; fill:none" points="
  623.779,1444.02 623.779,1445.72 649.726,1445.72 649.726,1444.02 623.779,1444.02 
  "/>
<path clip-path="url(#clip132)" d="
M649.726 1428.74 L649.726 1445.72 L675.673 1445.72 L675.673 1428.74 L649.726 1428.74 L649.726 1428.74  Z
  " fill="#009af9" fill-rule="evenodd" fill-opacity="1"/>
<polyline clip-path="url(#clip132)" style="stroke:#000000; stroke-width:4; stroke-opacity:1; fill:none" points="
  649.726,1428.74 649.726,1445.72 675.673,1445.72 675.673,1428.74 649.726,1428.74 
  "/>
<path clip-path="url(#clip132)" d="
M675.673 1427.05 L675.673 1445.72 L701.62 1445.72 L701.62 1427.05 L675.673 1427.05 L675.673 1427.05  Z
  " fill="#009af9" fill-rule="evenodd" fill-opacity="1"/>
<polyline clip-path="url(#clip132)" style="stroke:#000000; stroke-width:4; stroke-opacity:1; fill:none" points="
  675.673,1427.05 675.673,1445.72 701.62,1445.72 701.62,1427.05 675.673,1427.05 
  "/>
<path clip-path="url(#clip132)" d="
M701.62 1427.05 L701.62 1445.72 L727.567 1445.72 L727.567 1427.05 L701.62 1427.05 L701.62 1427.05  Z
  " fill="#009af9" fill-rule="evenodd" fill-opacity="1"/>
<polyline clip-path="url(#clip132)" style="stroke:#000000; stroke-width:4; stroke-opacity:1; fill:none" points="
  701.62,1427.05 701.62,1445.72 727.567,1445.72 727.567,1427.05 701.62,1427.05 
  "/>
<path clip-path="url(#clip132)" d="
M727.567 1416.86 L727.567 1445.72 L753.514 1445.72 L753.514 1416.86 L727.567 1416.86 L727.567 1416.86  Z
  " fill="#009af9" fill-rule="evenodd" fill-opacity="1"/>
<polyline clip-path="url(#clip132)" style="stroke:#000000; stroke-width:4; stroke-opacity:1; fill:none" points="
  727.567,1416.86 727.567,1445.72 753.514,1445.72 753.514,1416.86 727.567,1416.86 
  "/>
<path clip-path="url(#clip132)" d="
M753.514 1408.38 L753.514 1445.72 L779.461 1445.72 L779.461 1408.38 L753.514 1408.38 L753.514 1408.38  Z
  " fill="#009af9" fill-rule="evenodd" fill-opacity="1"/>
<polyline clip-path="url(#clip132)" style="stroke:#000000; stroke-width:4; stroke-opacity:1; fill:none" points="
  753.514,1408.38 753.514,1445.72 779.461,1445.72 779.461,1408.38 753.514,1408.38 
  "/>
<path clip-path="url(#clip132)" d="
M779.461 1398.19 L779.461 1445.72 L805.408 1445.72 L805.408 1398.19 L779.461 1398.19 L779.461 1398.19  Z
  " fill="#009af9" fill-rule="evenodd" fill-opacity="1"/>
<polyline clip-path="url(#clip132)" style="stroke:#000000; stroke-width:4; stroke-opacity:1; fill:none" points="
  779.461,1398.19 779.461,1445.72 805.408,1445.72 805.408,1398.19 779.461,1398.19 
  "/>
<path clip-path="url(#clip132)" d="
M805.408 1399.89 L805.408 1445.72 L831.355 1445.72 L831.355 1399.89 L805.408 1399.89 L805.408 1399.89  Z
  " fill="#009af9" fill-rule="evenodd" fill-opacity="1"/>
<polyline clip-path="url(#clip132)" style="stroke:#000000; stroke-width:4; stroke-opacity:1; fill:none" points="
  805.408,1399.89 805.408,1445.72 831.355,1445.72 831.355,1399.89 805.408,1399.89 
  "/>
<path clip-path="url(#clip132)" d="
M831.355 1413.47 L831.355 1445.72 L857.302 1445.72 L857.302 1413.47 L831.355 1413.47 L831.355 1413.47  Z
  " fill="#009af9" fill-rule="evenodd" fill-opacity="1"/>
<polyline clip-path="url(#clip132)" style="stroke:#000000; stroke-width:4; stroke-opacity:1; fill:none" points="
  831.355,1413.47 831.355,1445.72 857.302,1445.72 857.302,1413.47 831.355,1413.47 
  "/>
<path clip-path="url(#clip132)" d="
M857.302 1389.71 L857.302 1445.72 L883.249 1445.72 L883.249 1389.71 L857.302 1389.71 L857.302 1389.71  Z
  " fill="#009af9" fill-rule="evenodd" fill-opacity="1"/>
<polyline clip-path="url(#clip132)" style="stroke:#000000; stroke-width:4; stroke-opacity:1; fill:none" points="
  857.302,1389.71 857.302,1445.72 883.249,1445.72 883.249,1389.71 857.302,1389.71 
  "/>
<path clip-path="url(#clip132)" d="
M883.249 1348.98 L883.249 1445.72 L909.196 1445.72 L909.196 1348.98 L883.249 1348.98 L883.249 1348.98  Z
  " fill="#009af9" fill-rule="evenodd" fill-opacity="1"/>
<polyline clip-path="url(#clip132)" style="stroke:#000000; stroke-width:4; stroke-opacity:1; fill:none" points="
  883.249,1348.98 883.249,1445.72 909.196,1445.72 909.196,1348.98 883.249,1348.98 
  "/>
<path clip-path="url(#clip132)" d="
M909.196 1379.53 L909.196 1445.72 L935.143 1445.72 L935.143 1379.53 L909.196 1379.53 L909.196 1379.53  Z
  " fill="#009af9" fill-rule="evenodd" fill-opacity="1"/>
<polyline clip-path="url(#clip132)" style="stroke:#000000; stroke-width:4; stroke-opacity:1; fill:none" points="
  909.196,1379.53 909.196,1445.72 935.143,1445.72 935.143,1379.53 909.196,1379.53 
  "/>
<path clip-path="url(#clip132)" d="
M935.143 1342.19 L935.143 1445.72 L961.09 1445.72 L961.09 1342.19 L935.143 1342.19 L935.143 1342.19  Z
  " fill="#009af9" fill-rule="evenodd" fill-opacity="1"/>
<polyline clip-path="url(#clip132)" style="stroke:#000000; stroke-width:4; stroke-opacity:1; fill:none" points="
  935.143,1342.19 935.143,1445.72 961.09,1445.72 961.09,1342.19 935.143,1342.19 
  "/>
<path clip-path="url(#clip132)" d="
M961.09 1367.65 L961.09 1445.72 L987.037 1445.72 L987.037 1367.65 L961.09 1367.65 L961.09 1367.65  Z
  " fill="#009af9" fill-rule="evenodd" fill-opacity="1"/>
<polyline clip-path="url(#clip132)" style="stroke:#000000; stroke-width:4; stroke-opacity:1; fill:none" points="
  961.09,1367.65 961.09,1445.72 987.037,1445.72 987.037,1367.65 961.09,1367.65 
  "/>
<path clip-path="url(#clip132)" d="
M987.037 1299.76 L987.037 1445.72 L1012.98 1445.72 L1012.98 1299.76 L987.037 1299.76 L987.037 1299.76  Z
  " fill="#009af9" fill-rule="evenodd" fill-opacity="1"/>
<polyline clip-path="url(#clip132)" style="stroke:#000000; stroke-width:4; stroke-opacity:1; fill:none" points="
  987.037,1299.76 987.037,1445.72 1012.98,1445.72 1012.98,1299.76 987.037,1299.76 
  "/>
<path clip-path="url(#clip132)" d="
M1012.98 1342.19 L1012.98 1445.72 L1038.93 1445.72 L1038.93 1342.19 L1012.98 1342.19 L1012.98 1342.19  Z
  " fill="#009af9" fill-rule="evenodd" fill-opacity="1"/>
<polyline clip-path="url(#clip132)" style="stroke:#000000; stroke-width:4; stroke-opacity:1; fill:none" points="
  1012.98,1342.19 1012.98,1445.72 1038.93,1445.72 1038.93,1342.19 1012.98,1342.19 
  "/>
<path clip-path="url(#clip132)" d="
M1038.93 1284.48 L1038.93 1445.72 L1064.88 1445.72 L1064.88 1284.48 L1038.93 1284.48 L1038.93 1284.48  Z
  " fill="#009af9" fill-rule="evenodd" fill-opacity="1"/>
<polyline clip-path="url(#clip132)" style="stroke:#000000; stroke-width:4; stroke-opacity:1; fill:none" points="
  1038.93,1284.48 1038.93,1445.72 1064.88,1445.72 1064.88,1284.48 1038.93,1284.48 
  "/>
<path clip-path="url(#clip132)" d="
M1064.88 1265.82 L1064.88 1445.72 L1090.82 1445.72 L1090.82 1265.82 L1064.88 1265.82 L1064.88 1265.82  Z
  " fill="#009af9" fill-rule="evenodd" fill-opacity="1"/>
<polyline clip-path="url(#clip132)" style="stroke:#000000; stroke-width:4; stroke-opacity:1; fill:none" points="
  1064.88,1265.82 1064.88,1445.72 1090.82,1445.72 1090.82,1265.82 1064.88,1265.82 
  "/>
<path clip-path="url(#clip132)" d="
M1090.82 1289.58 L1090.82 1445.72 L1116.77 1445.72 L1116.77 1289.58 L1090.82 1289.58 L1090.82 1289.58  Z
  " fill="#009af9" fill-rule="evenodd" fill-opacity="1"/>
<polyline clip-path="url(#clip132)" style="stroke:#000000; stroke-width:4; stroke-opacity:1; fill:none" points="
  1090.82,1289.58 1090.82,1445.72 1116.77,1445.72 1116.77,1289.58 1090.82,1289.58 
  "/>
<path clip-path="url(#clip132)" d="
M1116.77 1269.21 L1116.77 1445.72 L1142.72 1445.72 L1142.72 1269.21 L1116.77 1269.21 L1116.77 1269.21  Z
  " fill="#009af9" fill-rule="evenodd" fill-opacity="1"/>
<polyline clip-path="url(#clip132)" style="stroke:#000000; stroke-width:4; stroke-opacity:1; fill:none" points="
  1116.77,1269.21 1116.77,1445.72 1142.72,1445.72 1142.72,1269.21 1116.77,1269.21 
  "/>
<path clip-path="url(#clip132)" d="
M1142.72 1277.7 L1142.72 1445.72 L1168.67 1445.72 L1168.67 1277.7 L1142.72 1277.7 L1142.72 1277.7  Z
  " fill="#009af9" fill-rule="evenodd" fill-opacity="1"/>
<polyline clip-path="url(#clip132)" style="stroke:#000000; stroke-width:4; stroke-opacity:1; fill:none" points="
  1142.72,1277.7 1142.72,1445.72 1168.67,1445.72 1168.67,1277.7 1142.72,1277.7 
  "/>
<path clip-path="url(#clip132)" d="
M1168.67 1231.87 L1168.67 1445.72 L1194.61 1445.72 L1194.61 1231.87 L1168.67 1231.87 L1168.67 1231.87  Z
  " fill="#009af9" fill-rule="evenodd" fill-opacity="1"/>
<polyline clip-path="url(#clip132)" style="stroke:#000000; stroke-width:4; stroke-opacity:1; fill:none" points="
  1168.67,1231.87 1168.67,1445.72 1194.61,1445.72 1194.61,1231.87 1168.67,1231.87 
  "/>
<path clip-path="url(#clip132)" d="
M1194.61 1269.21 L1194.61 1445.72 L1220.56 1445.72 L1220.56 1269.21 L1194.61 1269.21 L1194.61 1269.21  Z
  " fill="#009af9" fill-rule="evenodd" fill-opacity="1"/>
<polyline clip-path="url(#clip132)" style="stroke:#000000; stroke-width:4; stroke-opacity:1; fill:none" points="
  1194.61,1269.21 1194.61,1445.72 1220.56,1445.72 1220.56,1269.21 1194.61,1269.21 
  "/>
<path clip-path="url(#clip132)" d="
M1220.56 1267.51 L1220.56 1445.72 L1246.51 1445.72 L1246.51 1267.51 L1220.56 1267.51 L1220.56 1267.51  Z
  " fill="#009af9" fill-rule="evenodd" fill-opacity="1"/>
<polyline clip-path="url(#clip132)" style="stroke:#000000; stroke-width:4; stroke-opacity:1; fill:none" points="
  1220.56,1267.51 1220.56,1445.72 1246.51,1445.72 1246.51,1267.51 1220.56,1267.51 
  "/>
<path clip-path="url(#clip132)" d="
M1246.51 1260.72 L1246.51 1445.72 L1272.45 1445.72 L1272.45 1260.72 L1246.51 1260.72 L1246.51 1260.72  Z
  " fill="#009af9" fill-rule="evenodd" fill-opacity="1"/>
<polyline clip-path="url(#clip132)" style="stroke:#000000; stroke-width:4; stroke-opacity:1; fill:none" points="
  1246.51,1260.72 1246.51,1445.72 1272.45,1445.72 1272.45,1260.72 1246.51,1260.72 
  "/>
<path clip-path="url(#clip132)" d="
M1272.45 1257.33 L1272.45 1445.72 L1298.4 1445.72 L1298.4 1257.33 L1272.45 1257.33 L1272.45 1257.33  Z
  " fill="#009af9" fill-rule="evenodd" fill-opacity="1"/>
<polyline clip-path="url(#clip132)" style="stroke:#000000; stroke-width:4; stroke-opacity:1; fill:none" points="
  1272.45,1257.33 1272.45,1445.72 1298.4,1445.72 1298.4,1257.33 1272.45,1257.33 
  "/>
<path clip-path="url(#clip132)" d="
M1298.4 1265.82 L1298.4 1445.72 L1324.35 1445.72 L1324.35 1265.82 L1298.4 1265.82 L1298.4 1265.82  Z
  " fill="#009af9" fill-rule="evenodd" fill-opacity="1"/>
<polyline clip-path="url(#clip132)" style="stroke:#000000; stroke-width:4; stroke-opacity:1; fill:none" points="
  1298.4,1265.82 1298.4,1445.72 1324.35,1445.72 1324.35,1265.82 1298.4,1265.82 
  "/>
<path clip-path="url(#clip132)" d="
M1324.35 1130.04 L1324.35 1445.72 L1350.29 1445.72 L1350.29 1130.04 L1324.35 1130.04 L1324.35 1130.04  Z
  " fill="#009af9" fill-rule="evenodd" fill-opacity="1"/>
<polyline clip-path="url(#clip132)" style="stroke:#000000; stroke-width:4; stroke-opacity:1; fill:none" points="
  1324.35,1130.04 1324.35,1445.72 1350.29,1445.72 1350.29,1130.04 1324.35,1130.04 
  "/>
<path clip-path="url(#clip132)" d="
M1350.29 771.938 L1350.29 1445.72 L1376.24 1445.72 L1376.24 771.938 L1350.29 771.938 L1350.29 771.938  Z
  " fill="#009af9" fill-rule="evenodd" fill-opacity="1"/>
<polyline clip-path="url(#clip132)" style="stroke:#000000; stroke-width:4; stroke-opacity:1; fill:none" points="
  1350.29,771.938 1350.29,1445.72 1376.24,1445.72 1376.24,771.938 1350.29,771.938 
  "/>
<path clip-path="url(#clip132)" d="
M1376.24 87.9763 L1376.24 1445.72 L1402.19 1445.72 L1402.19 87.9763 L1376.24 87.9763 L1376.24 87.9763  Z
  " fill="#009af9" fill-rule="evenodd" fill-opacity="1"/>
<polyline clip-path="url(#clip132)" style="stroke:#000000; stroke-width:4; stroke-opacity:1; fill:none" points="
  1376.24,87.9763 1376.24,1445.72 1402.19,1445.72 1402.19,87.9763 1376.24,87.9763 
  "/>
<path clip-path="url(#clip132)" d="
M1402.19 135.497 L1402.19 1445.72 L1428.14 1445.72 L1428.14 135.497 L1402.19 135.497 L1402.19 135.497  Z
  " fill="#009af9" fill-rule="evenodd" fill-opacity="1"/>
<polyline clip-path="url(#clip132)" style="stroke:#000000; stroke-width:4; stroke-opacity:1; fill:none" points="
  1402.19,135.497 1402.19,1445.72 1428.14,1445.72 1428.14,135.497 1402.19,135.497 
  "/>
<path clip-path="url(#clip132)" d="
M1428.14 817.761 L1428.14 1445.72 L1454.08 1445.72 L1454.08 817.761 L1428.14 817.761 L1428.14 817.761  Z
  " fill="#009af9" fill-rule="evenodd" fill-opacity="1"/>
<polyline clip-path="url(#clip132)" style="stroke:#000000; stroke-width:4; stroke-opacity:1; fill:none" points="
  1428.14,817.761 1428.14,1445.72 1454.08,1445.72 1454.08,817.761 1428.14,817.761 
  "/>
<path clip-path="url(#clip132)" d="
M1454.08 1192.84 L1454.08 1445.72 L1480.03 1445.72 L1480.03 1192.84 L1454.08 1192.84 L1454.08 1192.84  Z
  " fill="#009af9" fill-rule="evenodd" fill-opacity="1"/>
<polyline clip-path="url(#clip132)" style="stroke:#000000; stroke-width:4; stroke-opacity:1; fill:none" points="
  1454.08,1192.84 1454.08,1445.72 1480.03,1445.72 1480.03,1192.84 1454.08,1192.84 
  "/>
<path clip-path="url(#clip132)" d="
M1480.03 1306.55 L1480.03 1445.72 L1505.98 1445.72 L1505.98 1306.55 L1480.03 1306.55 L1480.03 1306.55  Z
  " fill="#009af9" fill-rule="evenodd" fill-opacity="1"/>
<polyline clip-path="url(#clip132)" style="stroke:#000000; stroke-width:4; stroke-opacity:1; fill:none" points="
  1480.03,1306.55 1480.03,1445.72 1505.98,1445.72 1505.98,1306.55 1480.03,1306.55 
  "/>
<path clip-path="url(#clip132)" d="
M1505.98 1291.27 L1505.98 1445.72 L1531.92 1445.72 L1531.92 1291.27 L1505.98 1291.27 L1505.98 1291.27  Z
  " fill="#009af9" fill-rule="evenodd" fill-opacity="1"/>
<polyline clip-path="url(#clip132)" style="stroke:#000000; stroke-width:4; stroke-opacity:1; fill:none" points="
  1505.98,1291.27 1505.98,1445.72 1531.92,1445.72 1531.92,1291.27 1505.98,1291.27 
  "/>
<path clip-path="url(#clip132)" d="
M1531.92 1335.4 L1531.92 1445.72 L1557.87 1445.72 L1557.87 1335.4 L1531.92 1335.4 L1531.92 1335.4  Z
  " fill="#009af9" fill-rule="evenodd" fill-opacity="1"/>
<polyline clip-path="url(#clip132)" style="stroke:#000000; stroke-width:4; stroke-opacity:1; fill:none" points="
  1531.92,1335.4 1531.92,1445.72 1557.87,1445.72 1557.87,1335.4 1531.92,1335.4 
  "/>
<path clip-path="url(#clip132)" d="
M1557.87 1354.07 L1557.87 1445.72 L1583.82 1445.72 L1583.82 1354.07 L1557.87 1354.07 L1557.87 1354.07  Z
  " fill="#009af9" fill-rule="evenodd" fill-opacity="1"/>
<polyline clip-path="url(#clip132)" style="stroke:#000000; stroke-width:4; stroke-opacity:1; fill:none" points="
  1557.87,1354.07 1557.87,1445.72 1583.82,1445.72 1583.82,1354.07 1557.87,1354.07 
  "/>
<path clip-path="url(#clip132)" d="
M1583.82 1357.46 L1583.82 1445.72 L1609.76 1445.72 L1609.76 1357.46 L1583.82 1357.46 L1583.82 1357.46  Z
  " fill="#009af9" fill-rule="evenodd" fill-opacity="1"/>
<polyline clip-path="url(#clip132)" style="stroke:#000000; stroke-width:4; stroke-opacity:1; fill:none" points="
  1583.82,1357.46 1583.82,1445.72 1609.76,1445.72 1609.76,1357.46 1583.82,1357.46 
  "/>
<path clip-path="url(#clip132)" d="
M1609.76 1359.16 L1609.76 1445.72 L1635.71 1445.72 L1635.71 1359.16 L1609.76 1359.16 L1609.76 1359.16  Z
  " fill="#009af9" fill-rule="evenodd" fill-opacity="1"/>
<polyline clip-path="url(#clip132)" style="stroke:#000000; stroke-width:4; stroke-opacity:1; fill:none" points="
  1609.76,1359.16 1609.76,1445.72 1635.71,1445.72 1635.71,1359.16 1609.76,1359.16 
  "/>
<path clip-path="url(#clip132)" d="
M1635.71 1364.25 L1635.71 1445.72 L1661.66 1445.72 L1661.66 1364.25 L1635.71 1364.25 L1635.71 1364.25  Z
  " fill="#009af9" fill-rule="evenodd" fill-opacity="1"/>
<polyline clip-path="url(#clip132)" style="stroke:#000000; stroke-width:4; stroke-opacity:1; fill:none" points="
  1635.71,1364.25 1635.71,1445.72 1661.66,1445.72 1661.66,1364.25 1635.71,1364.25 
  "/>
<path clip-path="url(#clip132)" d="
M1661.66 1403.29 L1661.66 1445.72 L1687.61 1445.72 L1687.61 1403.29 L1661.66 1403.29 L1661.66 1403.29  Z
  " fill="#009af9" fill-rule="evenodd" fill-opacity="1"/>
<polyline clip-path="url(#clip132)" style="stroke:#000000; stroke-width:4; stroke-opacity:1; fill:none" points="
  1661.66,1403.29 1661.66,1445.72 1687.61,1445.72 1687.61,1403.29 1661.66,1403.29 
  "/>
<path clip-path="url(#clip132)" d="
M1687.61 1396.5 L1687.61 1445.72 L1713.55 1445.72 L1713.55 1396.5 L1687.61 1396.5 L1687.61 1396.5  Z
  " fill="#009af9" fill-rule="evenodd" fill-opacity="1"/>
<polyline clip-path="url(#clip132)" style="stroke:#000000; stroke-width:4; stroke-opacity:1; fill:none" points="
  1687.61,1396.5 1687.61,1445.72 1713.55,1445.72 1713.55,1396.5 1687.61,1396.5 
  "/>
<path clip-path="url(#clip132)" d="
M1713.55 1394.8 L1713.55 1445.72 L1739.5 1445.72 L1739.5 1394.8 L1713.55 1394.8 L1713.55 1394.8  Z
  " fill="#009af9" fill-rule="evenodd" fill-opacity="1"/>
<polyline clip-path="url(#clip132)" style="stroke:#000000; stroke-width:4; stroke-opacity:1; fill:none" points="
  1713.55,1394.8 1713.55,1445.72 1739.5,1445.72 1739.5,1394.8 1713.55,1394.8 
  "/>
<path clip-path="url(#clip132)" d="
M1739.5 1415.17 L1739.5 1445.72 L1765.45 1445.72 L1765.45 1415.17 L1739.5 1415.17 L1739.5 1415.17  Z
  " fill="#009af9" fill-rule="evenodd" fill-opacity="1"/>
<polyline clip-path="url(#clip132)" style="stroke:#000000; stroke-width:4; stroke-opacity:1; fill:none" points="
  1739.5,1415.17 1739.5,1445.72 1765.45,1445.72 1765.45,1415.17 1739.5,1415.17 
  "/>
<path clip-path="url(#clip132)" d="
M1765.45 1418.56 L1765.45 1445.72 L1791.39 1445.72 L1791.39 1418.56 L1765.45 1418.56 L1765.45 1418.56  Z
  " fill="#009af9" fill-rule="evenodd" fill-opacity="1"/>
<polyline clip-path="url(#clip132)" style="stroke:#000000; stroke-width:4; stroke-opacity:1; fill:none" points="
  1765.45,1418.56 1765.45,1445.72 1791.39,1445.72 1791.39,1418.56 1765.45,1418.56 
  "/>
<path clip-path="url(#clip132)" d="
M1791.39 1423.65 L1791.39 1445.72 L1817.34 1445.72 L1817.34 1423.65 L1791.39 1423.65 L1791.39 1423.65  Z
  " fill="#009af9" fill-rule="evenodd" fill-opacity="1"/>
<polyline clip-path="url(#clip132)" style="stroke:#000000; stroke-width:4; stroke-opacity:1; fill:none" points="
  1791.39,1423.65 1791.39,1445.72 1817.34,1445.72 1817.34,1423.65 1791.39,1423.65 
  "/>
<path clip-path="url(#clip132)" d="
M1817.34 1427.05 L1817.34 1445.72 L1843.29 1445.72 L1843.29 1427.05 L1817.34 1427.05 L1817.34 1427.05  Z
  " fill="#009af9" fill-rule="evenodd" fill-opacity="1"/>
<polyline clip-path="url(#clip132)" style="stroke:#000000; stroke-width:4; stroke-opacity:1; fill:none" points="
  1817.34,1427.05 1817.34,1445.72 1843.29,1445.72 1843.29,1427.05 1817.34,1427.05 
  "/>
<path clip-path="url(#clip132)" d="
M1843.29 1435.53 L1843.29 1445.72 L1869.23 1445.72 L1869.23 1435.53 L1843.29 1435.53 L1843.29 1435.53  Z
  " fill="#009af9" fill-rule="evenodd" fill-opacity="1"/>
<polyline clip-path="url(#clip132)" style="stroke:#000000; stroke-width:4; stroke-opacity:1; fill:none" points="
  1843.29,1435.53 1843.29,1445.72 1869.23,1445.72 1869.23,1435.53 1843.29,1435.53 
  "/>
<path clip-path="url(#clip132)" d="
M1869.23 1433.84 L1869.23 1445.72 L1895.18 1445.72 L1895.18 1433.84 L1869.23 1433.84 L1869.23 1433.84  Z
  " fill="#009af9" fill-rule="evenodd" fill-opacity="1"/>
<polyline clip-path="url(#clip132)" style="stroke:#000000; stroke-width:4; stroke-opacity:1; fill:none" points="
  1869.23,1433.84 1869.23,1445.72 1895.18,1445.72 1895.18,1433.84 1869.23,1433.84 
  "/>
<path clip-path="url(#clip132)" d="
M1895.18 1433.84 L1895.18 1445.72 L1921.13 1445.72 L1921.13 1433.84 L1895.18 1433.84 L1895.18 1433.84  Z
  " fill="#009af9" fill-rule="evenodd" fill-opacity="1"/>
<polyline clip-path="url(#clip132)" style="stroke:#000000; stroke-width:4; stroke-opacity:1; fill:none" points="
  1895.18,1433.84 1895.18,1445.72 1921.13,1445.72 1921.13,1433.84 1895.18,1433.84 
  "/>
<path clip-path="url(#clip132)" d="
M1921.13 1438.93 L1921.13 1445.72 L1947.08 1445.72 L1947.08 1438.93 L1921.13 1438.93 L1921.13 1438.93  Z
  " fill="#009af9" fill-rule="evenodd" fill-opacity="1"/>
<polyline clip-path="url(#clip132)" style="stroke:#000000; stroke-width:4; stroke-opacity:1; fill:none" points="
  1921.13,1438.93 1921.13,1445.72 1947.08,1445.72 1947.08,1438.93 1921.13,1438.93 
  "/>
<path clip-path="url(#clip132)" d="
M1947.08 1444.02 L1947.08 1445.72 L1973.02 1445.72 L1973.02 1444.02 L1947.08 1444.02 L1947.08 1444.02  Z
  " fill="#009af9" fill-rule="evenodd" fill-opacity="1"/>
<polyline clip-path="url(#clip132)" style="stroke:#000000; stroke-width:4; stroke-opacity:1; fill:none" points="
  1947.08,1444.02 1947.08,1445.72 1973.02,1445.72 1973.02,1444.02 1947.08,1444.02 
  "/>
<path clip-path="url(#clip132)" d="
M1973.02 1442.32 L1973.02 1445.72 L1998.97 1445.72 L1998.97 1442.32 L1973.02 1442.32 L1973.02 1442.32  Z
  " fill="#009af9" fill-rule="evenodd" fill-opacity="1"/>
<polyline clip-path="url(#clip132)" style="stroke:#000000; stroke-width:4; stroke-opacity:1; fill:none" points="
  1973.02,1442.32 1973.02,1445.72 1998.97,1445.72 1998.97,1442.32 1973.02,1442.32 
  "/>
<path clip-path="url(#clip132)" d="
M1998.97 1444.02 L1998.97 1445.72 L2024.92 1445.72 L2024.92 1444.02 L1998.97 1444.02 L1998.97 1444.02  Z
  " fill="#009af9" fill-rule="evenodd" fill-opacity="1"/>
<polyline clip-path="url(#clip132)" style="stroke:#000000; stroke-width:4; stroke-opacity:1; fill:none" points="
  1998.97,1444.02 1998.97,1445.72 2024.92,1445.72 2024.92,1444.02 1998.97,1444.02 
  "/>
<path clip-path="url(#clip132)" d="
M2024.92 1442.32 L2024.92 1445.72 L2050.86 1445.72 L2050.86 1442.32 L2024.92 1442.32 L2024.92 1442.32  Z
  " fill="#009af9" fill-rule="evenodd" fill-opacity="1"/>
<polyline clip-path="url(#clip132)" style="stroke:#000000; stroke-width:4; stroke-opacity:1; fill:none" points="
  2024.92,1442.32 2024.92,1445.72 2050.86,1445.72 2050.86,1442.32 2024.92,1442.32 
  "/>
<path clip-path="url(#clip132)" d="
M2050.86 1445.72 L2050.86 1445.72 L2076.81 1445.72 L2076.81 1445.72 L2050.86 1445.72 L2050.86 1445.72  Z
  " fill="#009af9" fill-rule="evenodd" fill-opacity="1"/>
<polyline clip-path="url(#clip132)" style="stroke:#000000; stroke-width:4; stroke-opacity:1; fill:none" points="
  2050.86,1445.72 2050.86,1445.72 2076.81,1445.72 2050.86,1445.72 
  "/>
<path clip-path="url(#clip132)" d="
M2076.81 1442.32 L2076.81 1445.72 L2102.76 1445.72 L2102.76 1442.32 L2076.81 1442.32 L2076.81 1442.32  Z
  " fill="#009af9" fill-rule="evenodd" fill-opacity="1"/>
<polyline clip-path="url(#clip132)" style="stroke:#000000; stroke-width:4; stroke-opacity:1; fill:none" points="
  2076.81,1442.32 2076.81,1445.72 2102.76,1445.72 2102.76,1442.32 2076.81,1442.32 
  "/>
<path clip-path="url(#clip132)" d="
M2102.76 1445.72 L2102.76 1445.72 L2128.7 1445.72 L2128.7 1445.72 L2102.76 1445.72 L2102.76 1445.72  Z
  " fill="#009af9" fill-rule="evenodd" fill-opacity="1"/>
<polyline clip-path="url(#clip132)" style="stroke:#000000; stroke-width:4; stroke-opacity:1; fill:none" points="
  2102.76,1445.72 2102.76,1445.72 2128.7,1445.72 2102.76,1445.72 
  "/>
<path clip-path="url(#clip132)" d="
M2128.7 1445.72 L2128.7 1445.72 L2154.65 1445.72 L2154.65 1445.72 L2128.7 1445.72 L2128.7 1445.72  Z
  " fill="#009af9" fill-rule="evenodd" fill-opacity="1"/>
<polyline clip-path="url(#clip132)" style="stroke:#000000; stroke-width:4; stroke-opacity:1; fill:none" points="
  2128.7,1445.72 2128.7,1445.72 2154.65,1445.72 2128.7,1445.72 
  "/>
<path clip-path="url(#clip132)" d="
M2154.65 1445.72 L2154.65 1445.72 L2180.6 1445.72 L2180.6 1445.72 L2154.65 1445.72 L2154.65 1445.72  Z
  " fill="#009af9" fill-rule="evenodd" fill-opacity="1"/>
<polyline clip-path="url(#clip132)" style="stroke:#000000; stroke-width:4; stroke-opacity:1; fill:none" points="
  2154.65,1445.72 2154.65,1445.72 2180.6,1445.72 2154.65,1445.72 
  "/>
<path clip-path="url(#clip132)" d="
M2180.6 1445.72 L2180.6 1445.72 L2206.54 1445.72 L2206.54 1445.72 L2180.6 1445.72 L2180.6 1445.72  Z
  " fill="#009af9" fill-rule="evenodd" fill-opacity="1"/>
<polyline clip-path="url(#clip132)" style="stroke:#000000; stroke-width:4; stroke-opacity:1; fill:none" points="
  2180.6,1445.72 2180.6,1445.72 2206.54,1445.72 2180.6,1445.72 
  "/>
<path clip-path="url(#clip132)" d="
M2206.54 1444.02 L2206.54 1445.72 L2232.49 1445.72 L2232.49 1444.02 L2206.54 1444.02 L2206.54 1444.02  Z
  " fill="#009af9" fill-rule="evenodd" fill-opacity="1"/>
<polyline clip-path="url(#clip132)" style="stroke:#000000; stroke-width:4; stroke-opacity:1; fill:none" points="
  2206.54,1444.02 2206.54,1445.72 2232.49,1445.72 2232.49,1444.02 2206.54,1444.02 
  "/>
<path clip-path="url(#clip130)" d="
M1989.74 251.724 L2280.76 251.724 L2280.76 130.764 L1989.74 130.764  Z
  " fill="#ffffff" fill-rule="evenodd" fill-opacity="1"/>
<polyline clip-path="url(#clip130)" style="stroke:#000000; stroke-width:4; stroke-opacity:1; fill:none" points="
  1989.74,251.724 2280.76,251.724 2280.76,130.764 1989.74,130.764 1989.74,251.724 
  "/>
<path clip-path="url(#clip130)" d="
M2013.74 215.436 L2157.74 215.436 L2157.74 167.052 L2013.74 167.052 L2013.74 215.436  Z
  " fill="#009af9" fill-rule="evenodd" fill-opacity="1"/>
<polyline clip-path="url(#clip130)" style="stroke:#000000; stroke-width:4; stroke-opacity:1; fill:none" points="
  2013.74,215.436 2157.74,215.436 2157.74,167.052 2013.74,167.052 2013.74,215.436 
  "/>
<path clip-path="url(#clip130)" d="M 0 0 M2195.58 210.931 Q2193.77 215.561 2192.06 216.973 Q2190.35 218.385 2187.48 218.385 L2184.08 218.385 L2184.08 214.82 L2186.58 214.82 Q2188.33 214.82 2189.31 213.987 Q2190.28 213.154 2191.46 210.052 L2192.22 208.107 L2181.74 182.598 L2186.25 182.598 L2194.35 202.876 L2202.46 182.598 L2206.97 182.598 L2195.58 210.931 Z" fill="#000000" fill-rule="evenodd" fill-opacity="1" /><path clip-path="url(#clip130)" d="M 0 0 M2212.85 204.589 L2220.49 204.589 L2220.49 178.223 L2212.18 179.89 L2212.18 175.631 L2220.44 173.964 L2225.12 173.964 L2225.12 204.589 L2232.76 204.589 L2232.76 208.524 L2212.85 208.524 L2212.85 204.589 Z" fill="#000000" fill-rule="evenodd" fill-opacity="1" /></svg>
