<?xml version="1.0" encoding="utf-8"?>
<svg xmlns="http://www.w3.org/2000/svg" xmlns:xlink="http://www.w3.org/1999/xlink" width="600" height="400" viewBox="0 0 2400 1600">
<defs>
  <clipPath id="clip480">
    <rect x="0" y="0" width="2400" height="1600"/>
  </clipPath>
</defs>
<path clip-path="url(#clip480)" d="
M0 1600 L2400 1600 L2400 0 L0 0  Z
  " fill="#ffffff" fill-rule="evenodd" fill-opacity="1"/>
<defs>
  <clipPath id="clip481">
    <rect x="480" y="0" width="1681" height="1600"/>
  </clipPath>
</defs>
<path clip-path="url(#clip480)" d="
M166.205 1486.45 L2352.76 1486.45 L2352.76 47.2441 L166.205 47.2441  Z
  " fill="#ffffff" fill-rule="evenodd" fill-opacity="1"/>
<defs>
  <clipPath id="clip482">
    <rect x="166" y="47" width="2188" height="1440"/>
  </clipPath>
</defs>
<polyline clip-path="url(#clip482)" style="stroke:#000000; stroke-width:2; stroke-opacity:0.1; fill:none" points="
  491.313,1486.45 491.313,47.2441 
  "/>
<polyline clip-path="url(#clip482)" style="stroke:#000000; stroke-width:2; stroke-opacity:0.1; fill:none" points="
  875.397,1486.45 875.397,47.2441 
  "/>
<polyline clip-path="url(#clip482)" style="stroke:#000000; stroke-width:2; stroke-opacity:0.1; fill:none" points="
  1259.48,1486.45 1259.48,47.2441 
  "/>
<polyline clip-path="url(#clip482)" style="stroke:#000000; stroke-width:2; stroke-opacity:0.1; fill:none" points="
  1643.56,1486.45 1643.56,47.2441 
  "/>
<polyline clip-path="url(#clip482)" style="stroke:#000000; stroke-width:2; stroke-opacity:0.1; fill:none" points="
  2027.65,1486.45 2027.65,47.2441 
  "/>
<polyline clip-path="url(#clip482)" style="stroke:#000000; stroke-width:2; stroke-opacity:0.1; fill:none" points="
  166.205,1445.72 2352.76,1445.72 
  "/>
<polyline clip-path="url(#clip482)" style="stroke:#000000; stroke-width:2; stroke-opacity:0.1; fill:none" points="
  166.205,1116.97 2352.76,1116.97 
  "/>
<polyline clip-path="url(#clip482)" style="stroke:#000000; stroke-width:2; stroke-opacity:0.1; fill:none" points="
  166.205,788.215 2352.76,788.215 
  "/>
<polyline clip-path="url(#clip482)" style="stroke:#000000; stroke-width:2; stroke-opacity:0.1; fill:none" points="
  166.205,459.464 2352.76,459.464 
  "/>
<polyline clip-path="url(#clip482)" style="stroke:#000000; stroke-width:2; stroke-opacity:0.1; fill:none" points="
  166.205,130.714 2352.76,130.714 
  "/>
<polyline clip-path="url(#clip480)" style="stroke:#000000; stroke-width:4; stroke-opacity:1; fill:none" points="
  166.205,1486.45 2352.76,1486.45 
  "/>
<polyline clip-path="url(#clip480)" style="stroke:#000000; stroke-width:4; stroke-opacity:1; fill:none" points="
  166.205,1486.45 166.205,47.2441 
  "/>
<polyline clip-path="url(#clip480)" style="stroke:#000000; stroke-width:4; stroke-opacity:1; fill:none" points="
  491.313,1486.45 491.313,1469.18 
  "/>
<polyline clip-path="url(#clip480)" style="stroke:#000000; stroke-width:4; stroke-opacity:1; fill:none" points="
  875.397,1486.45 875.397,1469.18 
  "/>
<polyline clip-path="url(#clip480)" style="stroke:#000000; stroke-width:4; stroke-opacity:1; fill:none" points="
  1259.48,1486.45 1259.48,1469.18 
  "/>
<polyline clip-path="url(#clip480)" style="stroke:#000000; stroke-width:4; stroke-opacity:1; fill:none" points="
  1643.56,1486.45 1643.56,1469.18 
  "/>
<polyline clip-path="url(#clip480)" style="stroke:#000000; stroke-width:4; stroke-opacity:1; fill:none" points="
  2027.65,1486.45 2027.65,1469.18 
  "/>
<polyline clip-path="url(#clip480)" style="stroke:#000000; stroke-width:4; stroke-opacity:1; fill:none" points="
  166.205,1445.72 192.443,1445.72 
  "/>
<polyline clip-path="url(#clip480)" style="stroke:#000000; stroke-width:4; stroke-opacity:1; fill:none" points="
  166.205,1116.97 192.443,1116.97 
  "/>
<polyline clip-path="url(#clip480)" style="stroke:#000000; stroke-width:4; stroke-opacity:1; fill:none" points="
  166.205,788.215 192.443,788.215 
  "/>
<polyline clip-path="url(#clip480)" style="stroke:#000000; stroke-width:4; stroke-opacity:1; fill:none" points="
  166.205,459.464 192.443,459.464 
  "/>
<polyline clip-path="url(#clip480)" style="stroke:#000000; stroke-width:4; stroke-opacity:1; fill:none" points="
  166.205,130.714 192.443,130.714 
  "/>
<path clip-path="url(#clip480)" d="M 0 0 M471.487 1525.04 L483.964 1525.04 L483.964 1528.83 L471.487 1528.83 L471.487 1525.04 Z" fill="#000000" fill-rule="evenodd" fill-opacity="1" /><path clip-path="url(#clip480)" d="M 0 0 M499.612 1520.78 Q496.464 1520.78 494.612 1522.93 Q492.783 1525.08 492.783 1528.83 Q492.783 1532.56 494.612 1534.73 Q496.464 1536.89 499.612 1536.89 Q502.76 1536.89 504.589 1534.73 Q506.441 1532.56 506.441 1528.83 Q506.441 1525.08 504.589 1522.93 Q502.76 1520.78 499.612 1520.78 M508.894 1506.12 L508.894 1510.38 Q507.135 1509.55 505.33 1509.11 Q503.547 1508.67 501.788 1508.67 Q497.158 1508.67 494.705 1511.8 Q492.274 1514.92 491.927 1521.24 Q493.293 1519.23 495.353 1518.16 Q497.413 1517.07 499.89 1517.07 Q505.098 1517.07 508.107 1520.24 Q511.14 1523.39 511.14 1528.83 Q511.14 1534.16 507.992 1537.37 Q504.843 1540.59 499.612 1540.59 Q493.617 1540.59 490.445 1536.01 Q487.274 1531.4 487.274 1522.67 Q487.274 1514.48 491.163 1509.62 Q495.052 1504.73 501.603 1504.73 Q503.362 1504.73 505.144 1505.08 Q506.95 1505.43 508.894 1506.12 Z" fill="#000000" fill-rule="evenodd" fill-opacity="1" /><path clip-path="url(#clip480)" d="M 0 0 M855.976 1525.04 L868.452 1525.04 L868.452 1528.83 L855.976 1528.83 L855.976 1525.04 Z" fill="#000000" fill-rule="evenodd" fill-opacity="1" /><path clip-path="url(#clip480)" d="M 0 0 M887.688 1521.29 Q891.045 1522 892.92 1524.27 Q894.818 1526.54 894.818 1529.87 Q894.818 1534.99 891.3 1537.79 Q887.781 1540.59 881.3 1540.59 Q879.124 1540.59 876.809 1540.15 Q874.517 1539.73 872.064 1538.88 L872.064 1534.36 Q874.008 1535.5 876.323 1536.08 Q878.638 1536.66 881.161 1536.66 Q885.559 1536.66 887.85 1534.92 Q890.165 1533.18 890.165 1529.87 Q890.165 1526.82 888.013 1525.11 Q885.883 1523.37 882.063 1523.37 L878.036 1523.37 L878.036 1519.53 L882.249 1519.53 Q885.698 1519.53 887.526 1518.16 Q889.355 1516.77 889.355 1514.18 Q889.355 1511.52 887.457 1510.11 Q885.582 1508.67 882.063 1508.67 Q880.142 1508.67 877.943 1509.09 Q875.744 1509.5 873.105 1510.38 L873.105 1506.22 Q875.767 1505.48 878.082 1505.11 Q880.42 1504.73 882.48 1504.73 Q887.804 1504.73 890.906 1507.17 Q894.008 1509.57 894.008 1513.69 Q894.008 1516.56 892.364 1518.55 Q890.721 1520.52 887.688 1521.29 Z" fill="#000000" fill-rule="evenodd" fill-opacity="1" /><path clip-path="url(#clip480)" d="M 0 0 M1259.48 1508.44 Q1255.87 1508.44 1254.04 1512 Q1252.23 1515.55 1252.23 1522.67 Q1252.23 1529.78 1254.04 1533.35 Q1255.87 1536.89 1259.48 1536.89 Q1263.11 1536.89 1264.92 1533.35 Q1266.75 1529.78 1266.75 1522.67 Q1266.75 1515.55 1264.92 1512 Q1263.11 1508.44 1259.48 1508.44 M1259.48 1504.73 Q1265.29 1504.73 1268.35 1509.34 Q1271.42 1513.92 1271.42 1522.67 Q1271.42 1531.4 1268.35 1536.01 Q1265.29 1540.59 1259.48 1540.59 Q1253.67 1540.59 1250.59 1536.01 Q1247.54 1531.4 1247.54 1522.67 Q1247.54 1513.92 1250.59 1509.34 Q1253.67 1504.73 1259.48 1504.73 Z" fill="#000000" fill-rule="evenodd" fill-opacity="1" /><path clip-path="url(#clip480)" d="M 0 0 M1647.81 1521.29 Q1651.17 1522 1653.04 1524.27 Q1654.94 1526.54 1654.94 1529.87 Q1654.94 1534.99 1651.42 1537.79 Q1647.9 1540.59 1641.42 1540.59 Q1639.25 1540.59 1636.93 1540.15 Q1634.64 1539.73 1632.19 1538.88 L1632.19 1534.36 Q1634.13 1535.5 1636.45 1536.08 Q1638.76 1536.66 1641.28 1536.66 Q1645.68 1536.66 1647.97 1534.92 Q1650.29 1533.18 1650.29 1529.87 Q1650.29 1526.82 1648.14 1525.11 Q1646.01 1523.37 1642.19 1523.37 L1638.16 1523.37 L1638.16 1519.53 L1642.37 1519.53 Q1645.82 1519.53 1647.65 1518.16 Q1649.48 1516.77 1649.48 1514.18 Q1649.48 1511.52 1647.58 1510.11 Q1645.7 1508.67 1642.19 1508.67 Q1640.27 1508.67 1638.07 1509.09 Q1635.87 1509.5 1633.23 1510.38 L1633.23 1506.22 Q1635.89 1505.48 1638.2 1505.11 Q1640.54 1504.73 1642.6 1504.73 Q1647.93 1504.73 1651.03 1507.17 Q1654.13 1509.57 1654.13 1513.69 Q1654.13 1516.56 1652.49 1518.55 Q1650.84 1520.52 1647.81 1521.29 Z" fill="#000000" fill-rule="evenodd" fill-opacity="1" /><path clip-path="url(#clip480)" d="M 0 0 M2028.05 1520.78 Q2024.9 1520.78 2023.05 1522.93 Q2021.22 1525.08 2021.22 1528.83 Q2021.22 1532.56 2023.05 1534.73 Q2024.9 1536.89 2028.05 1536.89 Q2031.2 1536.89 2033.03 1534.73 Q2034.88 1532.56 2034.88 1528.83 Q2034.88 1525.08 2033.03 1522.93 Q2031.2 1520.78 2028.05 1520.78 M2037.33 1506.12 L2037.33 1510.38 Q2035.58 1509.55 2033.77 1509.11 Q2031.99 1508.67 2030.23 1508.67 Q2025.6 1508.67 2023.14 1511.8 Q2020.71 1514.92 2020.37 1521.24 Q2021.73 1519.23 2023.79 1518.16 Q2025.85 1517.07 2028.33 1517.07 Q2033.54 1517.07 2036.55 1520.24 Q2039.58 1523.39 2039.58 1528.83 Q2039.58 1534.16 2036.43 1537.37 Q2033.28 1540.59 2028.05 1540.59 Q2022.06 1540.59 2018.89 1536.01 Q2015.71 1531.4 2015.71 1522.67 Q2015.71 1514.48 2019.6 1509.62 Q2023.49 1504.73 2030.04 1504.73 Q2031.8 1504.73 2033.58 1505.08 Q2035.39 1505.43 2037.33 1506.12 Z" fill="#000000" fill-rule="evenodd" fill-opacity="1" /><path clip-path="url(#clip480)" d="M 0 0 M130.26 1431.51 Q126.649 1431.51 124.82 1435.08 Q123.015 1438.62 123.015 1445.75 Q123.015 1452.86 124.82 1456.42 Q126.649 1459.96 130.26 1459.96 Q133.895 1459.96 135.7 1456.42 Q137.529 1452.86 137.529 1445.75 Q137.529 1438.62 135.7 1435.08 Q133.895 1431.51 130.26 1431.51 M130.26 1427.81 Q136.07 1427.81 139.126 1432.42 Q142.205 1437 142.205 1445.75 Q142.205 1454.48 139.126 1459.08 Q136.07 1463.67 130.26 1463.67 Q124.45 1463.67 121.371 1459.08 Q118.316 1454.48 118.316 1445.75 Q118.316 1437 121.371 1432.42 Q124.45 1427.81 130.26 1427.81 Z" fill="#000000" fill-rule="evenodd" fill-opacity="1" /><path clip-path="url(#clip480)" d="M 0 0 M71.8578 1130.31 L88.1772 1130.31 L88.1772 1134.25 L66.2328 1134.25 L66.2328 1130.31 Q68.8949 1127.56 73.4782 1122.93 Q78.0846 1118.27 79.2652 1116.93 Q81.5105 1114.41 82.3902 1112.67 Q83.2929 1110.91 83.2929 1109.22 Q83.2929 1106.47 81.3485 1104.73 Q79.4272 1103 76.3254 1103 Q74.1263 1103 71.6726 1103.76 Q69.2421 1104.52 66.4643 1106.07 L66.4643 1101.35 Q69.2884 1100.22 71.7421 1099.64 Q74.1958 1099.06 76.2328 1099.06 Q81.6031 1099.06 84.7976 1101.75 Q87.992 1104.43 87.992 1108.92 Q87.992 1111.05 87.1818 1112.97 Q86.3948 1114.87 84.2883 1117.46 Q83.7096 1118.13 80.6078 1121.35 Q77.5059 1124.55 71.8578 1130.31 Z" fill="#000000" fill-rule="evenodd" fill-opacity="1" /><path clip-path="url(#clip480)" d="M 0 0 M103.247 1102.76 Q99.6354 1102.76 97.8068 1106.33 Q96.0012 1109.87 96.0012 1117 Q96.0012 1124.11 97.8068 1127.67 Q99.6354 1131.21 103.247 1131.21 Q106.881 1131.21 108.686 1127.67 Q110.515 1124.11 110.515 1117 Q110.515 1109.87 108.686 1106.33 Q106.881 1102.76 103.247 1102.76 M103.247 1099.06 Q109.057 1099.06 112.112 1103.67 Q115.191 1108.25 115.191 1117 Q115.191 1125.73 112.112 1130.33 Q109.057 1134.92 103.247 1134.92 Q97.4364 1134.92 94.3577 1130.33 Q91.3022 1125.73 91.3022 1117 Q91.3022 1108.25 94.3577 1103.67 Q97.4364 1099.06 103.247 1099.06 Z" fill="#000000" fill-rule="evenodd" fill-opacity="1" /><path clip-path="url(#clip480)" d="M 0 0 M130.26 1102.76 Q126.649 1102.76 124.82 1106.33 Q123.015 1109.87 123.015 1117 Q123.015 1124.11 124.82 1127.67 Q126.649 1131.21 130.26 1131.21 Q133.895 1131.21 135.7 1127.67 Q137.529 1124.11 137.529 1117 Q137.529 1109.87 135.7 1106.33 Q133.895 1102.76 130.26 1102.76 M130.26 1099.06 Q136.07 1099.06 139.126 1103.67 Q142.205 1108.25 142.205 1117 Q142.205 1125.73 139.126 1130.33 Q136.07 1134.92 130.26 1134.92 Q124.45 1134.92 121.371 1130.33 Q118.316 1125.73 118.316 1117 Q118.316 1108.25 121.371 1103.67 Q124.45 1099.06 130.26 1099.06 Z" fill="#000000" fill-rule="evenodd" fill-opacity="1" /><path clip-path="url(#clip480)" d="M 0 0 M78.5939 775.009 L66.7884 793.458 L78.5939 793.458 L78.5939 775.009 M77.367 770.935 L83.2466 770.935 L83.2466 793.458 L88.1772 793.458 L88.1772 797.347 L83.2466 797.347 L83.2466 805.495 L78.5939 805.495 L78.5939 797.347 L62.9921 797.347 L62.9921 792.833 L77.367 770.935 Z" fill="#000000" fill-rule="evenodd" fill-opacity="1" /><path clip-path="url(#clip480)" d="M 0 0 M103.247 774.013 Q99.6354 774.013 97.8068 777.578 Q96.0012 781.12 96.0012 788.249 Q96.0012 795.356 97.8068 798.921 Q99.6354 802.462 103.247 802.462 Q106.881 802.462 108.686 798.921 Q110.515 795.356 110.515 788.249 Q110.515 781.12 108.686 777.578 Q106.881 774.013 103.247 774.013 M103.247 770.31 Q109.057 770.31 112.112 774.916 Q115.191 779.5 115.191 788.249 Q115.191 796.976 112.112 801.583 Q109.057 806.166 103.247 806.166 Q97.4364 806.166 94.3577 801.583 Q91.3022 796.976 91.3022 788.249 Q91.3022 779.5 94.3577 774.916 Q97.4364 770.31 103.247 770.31 Z" fill="#000000" fill-rule="evenodd" fill-opacity="1" /><path clip-path="url(#clip480)" d="M 0 0 M130.26 774.013 Q126.649 774.013 124.82 777.578 Q123.015 781.12 123.015 788.249 Q123.015 795.356 124.82 798.921 Q126.649 802.462 130.26 802.462 Q133.895 802.462 135.7 798.921 Q137.529 795.356 137.529 788.249 Q137.529 781.12 135.7 777.578 Q133.895 774.013 130.26 774.013 M130.26 770.31 Q136.07 770.31 139.126 774.916 Q142.205 779.5 142.205 788.249 Q142.205 796.976 139.126 801.583 Q136.07 806.166 130.26 806.166 Q124.45 806.166 121.371 801.583 Q118.316 796.976 118.316 788.249 Q118.316 779.5 121.371 774.916 Q124.45 770.31 130.26 770.31 Z" fill="#000000" fill-rule="evenodd" fill-opacity="1" /><path clip-path="url(#clip480)" d="M 0 0 M76.6495 457.601 Q73.5013 457.601 71.6495 459.754 Q69.8208 461.906 69.8208 465.656 Q69.8208 469.383 71.6495 471.559 Q73.5013 473.712 76.6495 473.712 Q79.7976 473.712 81.6263 471.559 Q83.4781 469.383 83.4781 465.656 Q83.4781 461.906 81.6263 459.754 Q79.7976 457.601 76.6495 457.601 M85.9318 442.948 L85.9318 447.207 Q84.1726 446.374 82.367 445.934 Q80.5846 445.494 78.8254 445.494 Q74.1958 445.494 71.7421 448.619 Q69.3115 451.744 68.9643 458.064 Q70.33 456.05 72.3902 454.985 Q74.4504 453.897 76.9272 453.897 Q82.1355 453.897 85.1448 457.068 Q88.1772 460.217 88.1772 465.656 Q88.1772 470.98 85.029 474.198 Q81.8809 477.416 76.6495 477.416 Q70.6541 477.416 67.4828 472.832 Q64.3116 468.226 64.3116 459.499 Q64.3116 451.305 68.2004 446.444 Q72.0893 441.559 78.6402 441.559 Q80.3994 441.559 82.1818 441.907 Q83.9874 442.254 85.9318 442.948 Z" fill="#000000" fill-rule="evenodd" fill-opacity="1" /><path clip-path="url(#clip480)" d="M 0 0 M103.247 445.263 Q99.6354 445.263 97.8068 448.828 Q96.0012 452.369 96.0012 459.499 Q96.0012 466.605 97.8068 470.17 Q99.6354 473.712 103.247 473.712 Q106.881 473.712 108.686 470.17 Q110.515 466.605 110.515 459.499 Q110.515 452.369 108.686 448.828 Q106.881 445.263 103.247 445.263 M103.247 441.559 Q109.057 441.559 112.112 446.166 Q115.191 450.749 115.191 459.499 Q115.191 468.226 112.112 472.832 Q109.057 477.416 103.247 477.416 Q97.4364 477.416 94.3577 472.832 Q91.3022 468.226 91.3022 459.499 Q91.3022 450.749 94.3577 446.166 Q97.4364 441.559 103.247 441.559 Z" fill="#000000" fill-rule="evenodd" fill-opacity="1" /><path clip-path="url(#clip480)" d="M 0 0 M130.26 445.263 Q126.649 445.263 124.82 448.828 Q123.015 452.369 123.015 459.499 Q123.015 466.605 124.82 470.17 Q126.649 473.712 130.26 473.712 Q133.895 473.712 135.7 470.17 Q137.529 466.605 137.529 459.499 Q137.529 452.369 135.7 448.828 Q133.895 445.263 130.26 445.263 M130.26 441.559 Q136.07 441.559 139.126 446.166 Q142.205 450.749 142.205 459.499 Q142.205 468.226 139.126 472.832 Q136.07 477.416 130.26 477.416 Q124.45 477.416 121.371 472.832 Q118.316 468.226 118.316 459.499 Q118.316 450.749 121.371 446.166 Q124.45 441.559 130.26 441.559 Z" fill="#000000" fill-rule="evenodd" fill-opacity="1" /><path clip-path="url(#clip480)" d="M 0 0 M76.3254 131.582 Q72.9921 131.582 71.0708 133.364 Q69.1726 135.147 69.1726 138.272 Q69.1726 141.397 71.0708 143.179 Q72.9921 144.961 76.3254 144.961 Q79.6587 144.961 81.58 143.179 Q83.5013 141.374 83.5013 138.272 Q83.5013 135.147 81.58 133.364 Q79.6819 131.582 76.3254 131.582 M71.6495 129.591 Q68.6402 128.85 66.9504 126.79 Q65.2838 124.73 65.2838 121.767 Q65.2838 117.624 68.2236 115.216 Q71.1865 112.809 76.3254 112.809 Q81.4874 112.809 84.4272 115.216 Q87.367 117.624 87.367 121.767 Q87.367 124.73 85.6772 126.79 Q84.0105 128.85 81.0244 129.591 Q84.404 130.378 86.279 132.67 Q88.1772 134.961 88.1772 138.272 Q88.1772 143.295 85.0985 145.98 Q82.0429 148.665 76.3254 148.665 Q70.6078 148.665 67.5291 145.98 Q64.4736 143.295 64.4736 138.272 Q64.4736 134.961 66.3717 132.67 Q68.2699 130.378 71.6495 129.591 M69.9365 122.207 Q69.9365 124.892 71.6032 126.397 Q73.293 127.901 76.3254 127.901 Q79.3346 127.901 81.0244 126.397 Q82.7374 124.892 82.7374 122.207 Q82.7374 119.522 81.0244 118.017 Q79.3346 116.513 76.3254 116.513 Q73.293 116.513 71.6032 118.017 Q69.9365 119.522 69.9365 122.207 Z" fill="#000000" fill-rule="evenodd" fill-opacity="1" /><path clip-path="url(#clip480)" d="M 0 0 M103.247 116.513 Q99.6354 116.513 97.8068 120.077 Q96.0012 123.619 96.0012 130.749 Q96.0012 137.855 97.8068 141.42 Q99.6354 144.961 103.247 144.961 Q106.881 144.961 108.686 141.42 Q110.515 137.855 110.515 130.749 Q110.515 123.619 108.686 120.077 Q106.881 116.513 103.247 116.513 M103.247 112.809 Q109.057 112.809 112.112 117.415 Q115.191 121.999 115.191 130.749 Q115.191 139.475 112.112 144.082 Q109.057 148.665 103.247 148.665 Q97.4364 148.665 94.3577 144.082 Q91.3022 139.475 91.3022 130.749 Q91.3022 121.999 94.3577 117.415 Q97.4364 112.809 103.247 112.809 Z" fill="#000000" fill-rule="evenodd" fill-opacity="1" /><path clip-path="url(#clip480)" d="M 0 0 M130.26 116.513 Q126.649 116.513 124.82 120.077 Q123.015 123.619 123.015 130.749 Q123.015 137.855 124.82 141.42 Q126.649 144.961 130.26 144.961 Q133.895 144.961 135.7 141.42 Q137.529 137.855 137.529 130.749 Q137.529 123.619 135.7 120.077 Q133.895 116.513 130.26 116.513 M130.26 112.809 Q136.07 112.809 139.126 117.415 Q142.205 121.999 142.205 130.749 Q142.205 139.475 139.126 144.082 Q136.07 148.665 130.26 148.665 Q124.45 148.665 121.371 144.082 Q118.316 139.475 118.316 130.749 Q118.316 121.999 121.371 117.415 Q124.45 112.809 130.26 112.809 Z" fill="#000000" fill-rule="evenodd" fill-opacity="1" /><path clip-path="url(#clip482)" d="
M286.469 1444.07 L286.469 1445.72 L312.074 1445.72 L312.074 1444.07 L286.469 1444.07 L286.469 1444.07  Z
  " fill="#009af9" fill-rule="evenodd" fill-opacity="1"/>
<polyline clip-path="url(#clip482)" style="stroke:#000000; stroke-width:4; stroke-opacity:1; fill:none" points="
  286.469,1444.07 286.469,1445.72 312.074,1445.72 312.074,1444.07 286.469,1444.07 
  "/>
<path clip-path="url(#clip482)" d="
M312.074 1445.72 L312.074 1445.72 L337.68 1445.72 L337.68 1445.72 L312.074 1445.72 L312.074 1445.72  Z
  " fill="#009af9" fill-rule="evenodd" fill-opacity="1"/>
<polyline clip-path="url(#clip482)" style="stroke:#000000; stroke-width:4; stroke-opacity:1; fill:none" points="
  312.074,1445.72 312.074,1445.72 337.68,1445.72 312.074,1445.72 
  "/>
<path clip-path="url(#clip482)" d="
M337.68 1445.72 L337.68 1445.72 L363.286 1445.72 L363.286 1445.72 L337.68 1445.72 L337.68 1445.72  Z
  " fill="#009af9" fill-rule="evenodd" fill-opacity="1"/>
<polyline clip-path="url(#clip482)" style="stroke:#000000; stroke-width:4; stroke-opacity:1; fill:none" points="
  337.68,1445.72 337.68,1445.72 363.286,1445.72 337.68,1445.72 
  "/>
<path clip-path="url(#clip482)" d="
M363.286 1445.72 L363.286 1445.72 L388.891 1445.72 L388.891 1445.72 L363.286 1445.72 L363.286 1445.72  Z
  " fill="#009af9" fill-rule="evenodd" fill-opacity="1"/>
<polyline clip-path="url(#clip482)" style="stroke:#000000; stroke-width:4; stroke-opacity:1; fill:none" points="
  363.286,1445.72 363.286,1445.72 388.891,1445.72 363.286,1445.72 
  "/>
<path clip-path="url(#clip482)" d="
M388.891 1445.72 L388.891 1445.72 L414.497 1445.72 L414.497 1445.72 L388.891 1445.72 L388.891 1445.72  Z
  " fill="#009af9" fill-rule="evenodd" fill-opacity="1"/>
<polyline clip-path="url(#clip482)" style="stroke:#000000; stroke-width:4; stroke-opacity:1; fill:none" points="
  388.891,1445.72 388.891,1445.72 414.497,1445.72 388.891,1445.72 
  "/>
<path clip-path="url(#clip482)" d="
M414.497 1445.72 L414.497 1445.72 L440.102 1445.72 L440.102 1445.72 L414.497 1445.72 L414.497 1445.72  Z
  " fill="#009af9" fill-rule="evenodd" fill-opacity="1"/>
<polyline clip-path="url(#clip482)" style="stroke:#000000; stroke-width:4; stroke-opacity:1; fill:none" points="
  414.497,1445.72 414.497,1445.72 440.102,1445.72 414.497,1445.72 
  "/>
<path clip-path="url(#clip482)" d="
M440.102 1444.07 L440.102 1445.72 L465.708 1445.72 L465.708 1444.07 L440.102 1444.07 L440.102 1444.07  Z
  " fill="#009af9" fill-rule="evenodd" fill-opacity="1"/>
<polyline clip-path="url(#clip482)" style="stroke:#000000; stroke-width:4; stroke-opacity:1; fill:none" points="
  440.102,1444.07 440.102,1445.72 465.708,1445.72 465.708,1444.07 440.102,1444.07 
  "/>
<path clip-path="url(#clip482)" d="
M465.708 1442.43 L465.708 1445.72 L491.313 1445.72 L491.313 1442.43 L465.708 1442.43 L465.708 1442.43  Z
  " fill="#009af9" fill-rule="evenodd" fill-opacity="1"/>
<polyline clip-path="url(#clip482)" style="stroke:#000000; stroke-width:4; stroke-opacity:1; fill:none" points="
  465.708,1442.43 465.708,1445.72 491.313,1445.72 491.313,1442.43 465.708,1442.43 
  "/>
<path clip-path="url(#clip482)" d="
M491.313 1445.72 L491.313 1445.72 L516.919 1445.72 L516.919 1445.72 L491.313 1445.72 L491.313 1445.72  Z
  " fill="#009af9" fill-rule="evenodd" fill-opacity="1"/>
<polyline clip-path="url(#clip482)" style="stroke:#000000; stroke-width:4; stroke-opacity:1; fill:none" points="
  491.313,1445.72 491.313,1445.72 516.919,1445.72 491.313,1445.72 
  "/>
<path clip-path="url(#clip482)" d="
M516.919 1442.43 L516.919 1445.72 L542.525 1445.72 L542.525 1442.43 L516.919 1442.43 L516.919 1442.43  Z
  " fill="#009af9" fill-rule="evenodd" fill-opacity="1"/>
<polyline clip-path="url(#clip482)" style="stroke:#000000; stroke-width:4; stroke-opacity:1; fill:none" points="
  516.919,1442.43 516.919,1445.72 542.525,1445.72 542.525,1442.43 516.919,1442.43 
  "/>
<path clip-path="url(#clip482)" d="
M542.525 1442.43 L542.525 1445.72 L568.13 1445.72 L568.13 1442.43 L542.525 1442.43 L542.525 1442.43  Z
  " fill="#009af9" fill-rule="evenodd" fill-opacity="1"/>
<polyline clip-path="url(#clip482)" style="stroke:#000000; stroke-width:4; stroke-opacity:1; fill:none" points="
  542.525,1442.43 542.525,1445.72 568.13,1445.72 568.13,1442.43 542.525,1442.43 
  "/>
<path clip-path="url(#clip482)" d="
M568.13 1440.78 L568.13 1445.72 L593.736 1445.72 L593.736 1440.78 L568.13 1440.78 L568.13 1440.78  Z
  " fill="#009af9" fill-rule="evenodd" fill-opacity="1"/>
<polyline clip-path="url(#clip482)" style="stroke:#000000; stroke-width:4; stroke-opacity:1; fill:none" points="
  568.13,1440.78 568.13,1445.72 593.736,1445.72 593.736,1440.78 568.13,1440.78 
  "/>
<path clip-path="url(#clip482)" d="
M593.736 1444.07 L593.736 1445.72 L619.341 1445.72 L619.341 1444.07 L593.736 1444.07 L593.736 1444.07  Z
  " fill="#009af9" fill-rule="evenodd" fill-opacity="1"/>
<polyline clip-path="url(#clip482)" style="stroke:#000000; stroke-width:4; stroke-opacity:1; fill:none" points="
  593.736,1444.07 593.736,1445.72 619.341,1445.72 619.341,1444.07 593.736,1444.07 
  "/>
<path clip-path="url(#clip482)" d="
M619.341 1434.21 L619.341 1445.72 L644.947 1445.72 L644.947 1434.21 L619.341 1434.21 L619.341 1434.21  Z
  " fill="#009af9" fill-rule="evenodd" fill-opacity="1"/>
<polyline clip-path="url(#clip482)" style="stroke:#000000; stroke-width:4; stroke-opacity:1; fill:none" points="
  619.341,1434.21 619.341,1445.72 644.947,1445.72 644.947,1434.21 619.341,1434.21 
  "/>
<path clip-path="url(#clip482)" d="
M644.947 1439.14 L644.947 1445.72 L670.552 1445.72 L670.552 1439.14 L644.947 1439.14 L644.947 1439.14  Z
  " fill="#009af9" fill-rule="evenodd" fill-opacity="1"/>
<polyline clip-path="url(#clip482)" style="stroke:#000000; stroke-width:4; stroke-opacity:1; fill:none" points="
  644.947,1439.14 644.947,1445.72 670.552,1445.72 670.552,1439.14 644.947,1439.14 
  "/>
<path clip-path="url(#clip482)" d="
M670.552 1432.57 L670.552 1445.72 L696.158 1445.72 L696.158 1432.57 L670.552 1432.57 L670.552 1432.57  Z
  " fill="#009af9" fill-rule="evenodd" fill-opacity="1"/>
<polyline clip-path="url(#clip482)" style="stroke:#000000; stroke-width:4; stroke-opacity:1; fill:none" points="
  670.552,1432.57 670.552,1445.72 696.158,1445.72 696.158,1432.57 670.552,1432.57 
  "/>
<path clip-path="url(#clip482)" d="
M696.158 1437.5 L696.158 1445.72 L721.763 1445.72 L721.763 1437.5 L696.158 1437.5 L696.158 1437.5  Z
  " fill="#009af9" fill-rule="evenodd" fill-opacity="1"/>
<polyline clip-path="url(#clip482)" style="stroke:#000000; stroke-width:4; stroke-opacity:1; fill:none" points="
  696.158,1437.5 696.158,1445.72 721.763,1445.72 721.763,1437.5 696.158,1437.5 
  "/>
<path clip-path="url(#clip482)" d="
M721.763 1414.48 L721.763 1445.72 L747.369 1445.72 L747.369 1414.48 L721.763 1414.48 L721.763 1414.48  Z
  " fill="#009af9" fill-rule="evenodd" fill-opacity="1"/>
<polyline clip-path="url(#clip482)" style="stroke:#000000; stroke-width:4; stroke-opacity:1; fill:none" points="
  721.763,1414.48 721.763,1445.72 747.369,1445.72 747.369,1414.48 721.763,1414.48 
  "/>
<path clip-path="url(#clip482)" d="
M747.369 1421.06 L747.369 1445.72 L772.975 1445.72 L772.975 1421.06 L747.369 1421.06 L747.369 1421.06  Z
  " fill="#009af9" fill-rule="evenodd" fill-opacity="1"/>
<polyline clip-path="url(#clip482)" style="stroke:#000000; stroke-width:4; stroke-opacity:1; fill:none" points="
  747.369,1421.06 747.369,1445.72 772.975,1445.72 772.975,1421.06 747.369,1421.06 
  "/>
<path clip-path="url(#clip482)" d="
M772.975 1412.84 L772.975 1445.72 L798.58 1445.72 L798.58 1412.84 L772.975 1412.84 L772.975 1412.84  Z
  " fill="#009af9" fill-rule="evenodd" fill-opacity="1"/>
<polyline clip-path="url(#clip482)" style="stroke:#000000; stroke-width:4; stroke-opacity:1; fill:none" points="
  772.975,1412.84 772.975,1445.72 798.58,1445.72 798.58,1412.84 772.975,1412.84 
  "/>
<path clip-path="url(#clip482)" d="
M798.58 1394.76 L798.58 1445.72 L824.186 1445.72 L824.186 1394.76 L798.58 1394.76 L798.58 1394.76  Z
  " fill="#009af9" fill-rule="evenodd" fill-opacity="1"/>
<polyline clip-path="url(#clip482)" style="stroke:#000000; stroke-width:4; stroke-opacity:1; fill:none" points="
  798.58,1394.76 798.58,1445.72 824.186,1445.72 824.186,1394.76 798.58,1394.76 
  "/>
<path clip-path="url(#clip482)" d="
M824.186 1411.2 L824.186 1445.72 L849.791 1445.72 L849.791 1411.2 L824.186 1411.2 L824.186 1411.2  Z
  " fill="#009af9" fill-rule="evenodd" fill-opacity="1"/>
<polyline clip-path="url(#clip482)" style="stroke:#000000; stroke-width:4; stroke-opacity:1; fill:none" points="
  824.186,1411.2 824.186,1445.72 849.791,1445.72 849.791,1411.2 824.186,1411.2 
  "/>
<path clip-path="url(#clip482)" d="
M849.791 1393.12 L849.791 1445.72 L875.397 1445.72 L875.397 1393.12 L849.791 1393.12 L849.791 1393.12  Z
  " fill="#009af9" fill-rule="evenodd" fill-opacity="1"/>
<polyline clip-path="url(#clip482)" style="stroke:#000000; stroke-width:4; stroke-opacity:1; fill:none" points="
  849.791,1393.12 849.791,1445.72 875.397,1445.72 875.397,1393.12 849.791,1393.12 
  "/>
<path clip-path="url(#clip482)" d="
M875.397 1379.97 L875.397 1445.72 L901.002 1445.72 L901.002 1379.97 L875.397 1379.97 L875.397 1379.97  Z
  " fill="#009af9" fill-rule="evenodd" fill-opacity="1"/>
<polyline clip-path="url(#clip482)" style="stroke:#000000; stroke-width:4; stroke-opacity:1; fill:none" points="
  875.397,1379.97 875.397,1445.72 901.002,1445.72 901.002,1379.97 875.397,1379.97 
  "/>
<path clip-path="url(#clip482)" d="
M901.002 1368.46 L901.002 1445.72 L926.608 1445.72 L926.608 1368.46 L901.002 1368.46 L901.002 1368.46  Z
  " fill="#009af9" fill-rule="evenodd" fill-opacity="1"/>
<polyline clip-path="url(#clip482)" style="stroke:#000000; stroke-width:4; stroke-opacity:1; fill:none" points="
  901.002,1368.46 901.002,1445.72 926.608,1445.72 926.608,1368.46 901.002,1368.46 
  "/>
<path clip-path="url(#clip482)" d="
M926.608 1353.67 L926.608 1445.72 L952.214 1445.72 L952.214 1353.67 L926.608 1353.67 L926.608 1353.67  Z
  " fill="#009af9" fill-rule="evenodd" fill-opacity="1"/>
<polyline clip-path="url(#clip482)" style="stroke:#000000; stroke-width:4; stroke-opacity:1; fill:none" points="
  926.608,1353.67 926.608,1445.72 952.214,1445.72 952.214,1353.67 926.608,1353.67 
  "/>
<path clip-path="url(#clip482)" d="
M952.214 1343.8 L952.214 1445.72 L977.819 1445.72 L977.819 1343.8 L952.214 1343.8 L952.214 1343.8  Z
  " fill="#009af9" fill-rule="evenodd" fill-opacity="1"/>
<polyline clip-path="url(#clip482)" style="stroke:#000000; stroke-width:4; stroke-opacity:1; fill:none" points="
  952.214,1343.8 952.214,1445.72 977.819,1445.72 977.819,1343.8 952.214,1343.8 
  "/>
<path clip-path="url(#clip482)" d="
M977.819 1327.37 L977.819 1445.72 L1003.42 1445.72 L1003.42 1327.37 L977.819 1327.37 L977.819 1327.37  Z
  " fill="#009af9" fill-rule="evenodd" fill-opacity="1"/>
<polyline clip-path="url(#clip482)" style="stroke:#000000; stroke-width:4; stroke-opacity:1; fill:none" points="
  977.819,1327.37 977.819,1445.72 1003.42,1445.72 1003.42,1327.37 977.819,1327.37 
  "/>
<path clip-path="url(#clip482)" d="
M1003.42 1342.16 L1003.42 1445.72 L1029.03 1445.72 L1029.03 1342.16 L1003.42 1342.16 L1003.42 1342.16  Z
  " fill="#009af9" fill-rule="evenodd" fill-opacity="1"/>
<polyline clip-path="url(#clip482)" style="stroke:#000000; stroke-width:4; stroke-opacity:1; fill:none" points="
  1003.42,1342.16 1003.42,1445.72 1029.03,1445.72 1029.03,1342.16 1003.42,1342.16 
  "/>
<path clip-path="url(#clip482)" d="
M1029.03 1297.78 L1029.03 1445.72 L1054.64 1445.72 L1054.64 1297.78 L1029.03 1297.78 L1029.03 1297.78  Z
  " fill="#009af9" fill-rule="evenodd" fill-opacity="1"/>
<polyline clip-path="url(#clip482)" style="stroke:#000000; stroke-width:4; stroke-opacity:1; fill:none" points="
  1029.03,1297.78 1029.03,1445.72 1054.64,1445.72 1054.64,1297.78 1029.03,1297.78 
  "/>
<path clip-path="url(#clip482)" d="
M1054.64 1268.19 L1054.64 1445.72 L1080.24 1445.72 L1080.24 1268.19 L1054.64 1268.19 L1054.64 1268.19  Z
  " fill="#009af9" fill-rule="evenodd" fill-opacity="1"/>
<polyline clip-path="url(#clip482)" style="stroke:#000000; stroke-width:4; stroke-opacity:1; fill:none" points="
  1054.64,1268.19 1054.64,1445.72 1080.24,1445.72 1080.24,1268.19 1054.64,1268.19 
  "/>
<path clip-path="url(#clip482)" d="
M1080.24 1268.19 L1080.24 1445.72 L1105.85 1445.72 L1105.85 1268.19 L1080.24 1268.19 L1080.24 1268.19  Z
  " fill="#009af9" fill-rule="evenodd" fill-opacity="1"/>
<polyline clip-path="url(#clip482)" style="stroke:#000000; stroke-width:4; stroke-opacity:1; fill:none" points="
  1080.24,1268.19 1080.24,1445.72 1105.85,1445.72 1105.85,1268.19 1080.24,1268.19 
  "/>
<path clip-path="url(#clip482)" d="
M1105.85 1273.12 L1105.85 1445.72 L1131.45 1445.72 L1131.45 1273.12 L1105.85 1273.12 L1105.85 1273.12  Z
  " fill="#009af9" fill-rule="evenodd" fill-opacity="1"/>
<polyline clip-path="url(#clip482)" style="stroke:#000000; stroke-width:4; stroke-opacity:1; fill:none" points="
  1105.85,1273.12 1105.85,1445.72 1131.45,1445.72 1131.45,1273.12 1105.85,1273.12 
  "/>
<path clip-path="url(#clip482)" d="
M1131.45 1292.85 L1131.45 1445.72 L1157.06 1445.72 L1157.06 1292.85 L1131.45 1292.85 L1131.45 1292.85  Z
  " fill="#009af9" fill-rule="evenodd" fill-opacity="1"/>
<polyline clip-path="url(#clip482)" style="stroke:#000000; stroke-width:4; stroke-opacity:1; fill:none" points="
  1131.45,1292.85 1131.45,1445.72 1157.06,1445.72 1157.06,1292.85 1131.45,1292.85 
  "/>
<path clip-path="url(#clip482)" d="
M1157.06 1259.97 L1157.06 1445.72 L1182.66 1445.72 L1182.66 1259.97 L1157.06 1259.97 L1157.06 1259.97  Z
  " fill="#009af9" fill-rule="evenodd" fill-opacity="1"/>
<polyline clip-path="url(#clip482)" style="stroke:#000000; stroke-width:4; stroke-opacity:1; fill:none" points="
  1157.06,1259.97 1157.06,1445.72 1182.66,1445.72 1182.66,1259.97 1157.06,1259.97 
  "/>
<path clip-path="url(#clip482)" d="
M1182.66 1271.48 L1182.66 1445.72 L1208.27 1445.72 L1208.27 1271.48 L1182.66 1271.48 L1182.66 1271.48  Z
  " fill="#009af9" fill-rule="evenodd" fill-opacity="1"/>
<polyline clip-path="url(#clip482)" style="stroke:#000000; stroke-width:4; stroke-opacity:1; fill:none" points="
  1182.66,1271.48 1182.66,1445.72 1208.27,1445.72 1208.27,1271.48 1182.66,1271.48 
  "/>
<path clip-path="url(#clip482)" d="
M1208.27 1250.11 L1208.27 1445.72 L1233.87 1445.72 L1233.87 1250.11 L1208.27 1250.11 L1208.27 1250.11  Z
  " fill="#009af9" fill-rule="evenodd" fill-opacity="1"/>
<polyline clip-path="url(#clip482)" style="stroke:#000000; stroke-width:4; stroke-opacity:1; fill:none" points="
  1208.27,1250.11 1208.27,1445.72 1233.87,1445.72 1233.87,1250.11 1208.27,1250.11 
  "/>
<path clip-path="url(#clip482)" d="
M1233.87 1274.77 L1233.87 1445.72 L1259.48 1445.72 L1259.48 1274.77 L1233.87 1274.77 L1233.87 1274.77  Z
  " fill="#009af9" fill-rule="evenodd" fill-opacity="1"/>
<polyline clip-path="url(#clip482)" style="stroke:#000000; stroke-width:4; stroke-opacity:1; fill:none" points="
  1233.87,1274.77 1233.87,1445.72 1259.48,1445.72 1259.48,1274.77 1233.87,1274.77 
  "/>
<path clip-path="url(#clip482)" d="
M1259.48 1263.26 L1259.48 1445.72 L1285.09 1445.72 L1285.09 1263.26 L1259.48 1263.26 L1259.48 1263.26  Z
  " fill="#009af9" fill-rule="evenodd" fill-opacity="1"/>
<polyline clip-path="url(#clip482)" style="stroke:#000000; stroke-width:4; stroke-opacity:1; fill:none" points="
  1259.48,1263.26 1259.48,1445.72 1285.09,1445.72 1285.09,1263.26 1259.48,1263.26 
  "/>
<path clip-path="url(#clip482)" d="
M1285.09 1238.6 L1285.09 1445.72 L1310.69 1445.72 L1310.69 1238.6 L1285.09 1238.6 L1285.09 1238.6  Z
  " fill="#009af9" fill-rule="evenodd" fill-opacity="1"/>
<polyline clip-path="url(#clip482)" style="stroke:#000000; stroke-width:4; stroke-opacity:1; fill:none" points="
  1285.09,1238.6 1285.09,1445.72 1310.69,1445.72 1310.69,1238.6 1285.09,1238.6 
  "/>
<path clip-path="url(#clip482)" d="
M1310.69 1154.77 L1310.69 1445.72 L1336.3 1445.72 L1336.3 1154.77 L1310.69 1154.77 L1310.69 1154.77  Z
  " fill="#009af9" fill-rule="evenodd" fill-opacity="1"/>
<polyline clip-path="url(#clip482)" style="stroke:#000000; stroke-width:4; stroke-opacity:1; fill:none" points="
  1310.69,1154.77 1310.69,1445.72 1336.3,1445.72 1336.3,1154.77 1310.69,1154.77 
  "/>
<path clip-path="url(#clip482)" d="
M1336.3 824.377 L1336.3 1445.72 L1361.9 1445.72 L1361.9 824.377 L1336.3 824.377 L1336.3 824.377  Z
  " fill="#009af9" fill-rule="evenodd" fill-opacity="1"/>
<polyline clip-path="url(#clip482)" style="stroke:#000000; stroke-width:4; stroke-opacity:1; fill:none" points="
  1336.3,824.377 1336.3,1445.72 1361.9,1445.72 1361.9,824.377 1336.3,824.377 
  "/>
<path clip-path="url(#clip482)" d="
M1361.9 235.914 L1361.9 1445.72 L1387.51 1445.72 L1387.51 235.914 L1361.9 235.914 L1361.9 235.914  Z
  " fill="#009af9" fill-rule="evenodd" fill-opacity="1"/>
<polyline clip-path="url(#clip482)" style="stroke:#000000; stroke-width:4; stroke-opacity:1; fill:none" points="
  1361.9,235.914 1361.9,1445.72 1387.51,1445.72 1387.51,235.914 1361.9,235.914 
  "/>
<path clip-path="url(#clip482)" d="
M1387.51 87.9763 L1387.51 1445.72 L1413.11 1445.72 L1413.11 87.9763 L1387.51 87.9763 L1387.51 87.9763  Z
  " fill="#009af9" fill-rule="evenodd" fill-opacity="1"/>
<polyline clip-path="url(#clip482)" style="stroke:#000000; stroke-width:4; stroke-opacity:1; fill:none" points="
  1387.51,87.9763 1387.51,1445.72 1413.11,1445.72 1413.11,87.9763 1387.51,87.9763 
  "/>
<path clip-path="url(#clip482)" d="
M1413.11 753.696 L1413.11 1445.72 L1438.72 1445.72 L1438.72 753.696 L1413.11 753.696 L1413.11 753.696  Z
  " fill="#009af9" fill-rule="evenodd" fill-opacity="1"/>
<polyline clip-path="url(#clip482)" style="stroke:#000000; stroke-width:4; stroke-opacity:1; fill:none" points="
  1413.11,753.696 1413.11,1445.72 1438.72,1445.72 1438.72,753.696 1413.11,753.696 
  "/>
<path clip-path="url(#clip482)" d="
M1438.72 1246.82 L1438.72 1445.72 L1464.32 1445.72 L1464.32 1246.82 L1438.72 1246.82 L1438.72 1246.82  Z
  " fill="#009af9" fill-rule="evenodd" fill-opacity="1"/>
<polyline clip-path="url(#clip482)" style="stroke:#000000; stroke-width:4; stroke-opacity:1; fill:none" points="
  1438.72,1246.82 1438.72,1445.72 1464.32,1445.72 1464.32,1246.82 1438.72,1246.82 
  "/>
<path clip-path="url(#clip482)" d="
M1464.32 1294.49 L1464.32 1445.72 L1489.93 1445.72 L1489.93 1294.49 L1464.32 1294.49 L1464.32 1294.49  Z
  " fill="#009af9" fill-rule="evenodd" fill-opacity="1"/>
<polyline clip-path="url(#clip482)" style="stroke:#000000; stroke-width:4; stroke-opacity:1; fill:none" points="
  1464.32,1294.49 1464.32,1445.72 1489.93,1445.72 1489.93,1294.49 1464.32,1294.49 
  "/>
<path clip-path="url(#clip482)" d="
M1489.93 1286.27 L1489.93 1445.72 L1515.54 1445.72 L1515.54 1286.27 L1489.93 1286.27 L1489.93 1286.27  Z
  " fill="#009af9" fill-rule="evenodd" fill-opacity="1"/>
<polyline clip-path="url(#clip482)" style="stroke:#000000; stroke-width:4; stroke-opacity:1; fill:none" points="
  1489.93,1286.27 1489.93,1445.72 1515.54,1445.72 1515.54,1286.27 1489.93,1286.27 
  "/>
<path clip-path="url(#clip482)" d="
M1515.54 1342.16 L1515.54 1445.72 L1541.14 1445.72 L1541.14 1342.16 L1515.54 1342.16 L1515.54 1342.16  Z
  " fill="#009af9" fill-rule="evenodd" fill-opacity="1"/>
<polyline clip-path="url(#clip482)" style="stroke:#000000; stroke-width:4; stroke-opacity:1; fill:none" points="
  1515.54,1342.16 1515.54,1445.72 1541.14,1445.72 1541.14,1342.16 1515.54,1342.16 
  "/>
<path clip-path="url(#clip482)" d="
M1541.14 1347.09 L1541.14 1445.72 L1566.75 1445.72 L1566.75 1347.09 L1541.14 1347.09 L1541.14 1347.09  Z
  " fill="#009af9" fill-rule="evenodd" fill-opacity="1"/>
<polyline clip-path="url(#clip482)" style="stroke:#000000; stroke-width:4; stroke-opacity:1; fill:none" points="
  1541.14,1347.09 1541.14,1445.72 1566.75,1445.72 1566.75,1347.09 1541.14,1347.09 
  "/>
<path clip-path="url(#clip482)" d="
M1566.75 1348.73 L1566.75 1445.72 L1592.35 1445.72 L1592.35 1348.73 L1566.75 1348.73 L1566.75 1348.73  Z
  " fill="#009af9" fill-rule="evenodd" fill-opacity="1"/>
<polyline clip-path="url(#clip482)" style="stroke:#000000; stroke-width:4; stroke-opacity:1; fill:none" points="
  1566.75,1348.73 1566.75,1445.72 1592.35,1445.72 1592.35,1348.73 1566.75,1348.73 
  "/>
<path clip-path="url(#clip482)" d="
M1592.35 1340.52 L1592.35 1445.72 L1617.96 1445.72 L1617.96 1340.52 L1592.35 1340.52 L1592.35 1340.52  Z
  " fill="#009af9" fill-rule="evenodd" fill-opacity="1"/>
<polyline clip-path="url(#clip482)" style="stroke:#000000; stroke-width:4; stroke-opacity:1; fill:none" points="
  1592.35,1340.52 1592.35,1445.72 1617.96,1445.72 1617.96,1340.52 1592.35,1340.52 
  "/>
<path clip-path="url(#clip482)" d="
M1617.96 1389.83 L1617.96 1445.72 L1643.56 1445.72 L1643.56 1389.83 L1617.96 1389.83 L1617.96 1389.83  Z
  " fill="#009af9" fill-rule="evenodd" fill-opacity="1"/>
<polyline clip-path="url(#clip482)" style="stroke:#000000; stroke-width:4; stroke-opacity:1; fill:none" points="
  1617.96,1389.83 1617.96,1445.72 1643.56,1445.72 1643.56,1389.83 1617.96,1389.83 
  "/>
<path clip-path="url(#clip482)" d="
M1643.56 1393.12 L1643.56 1445.72 L1669.17 1445.72 L1669.17 1393.12 L1643.56 1393.12 L1643.56 1393.12  Z
  " fill="#009af9" fill-rule="evenodd" fill-opacity="1"/>
<polyline clip-path="url(#clip482)" style="stroke:#000000; stroke-width:4; stroke-opacity:1; fill:none" points="
  1643.56,1393.12 1643.56,1445.72 1669.17,1445.72 1669.17,1393.12 1643.56,1393.12 
  "/>
<path clip-path="url(#clip482)" d="
M1669.17 1388.18 L1669.17 1445.72 L1694.77 1445.72 L1694.77 1388.18 L1669.17 1388.18 L1669.17 1388.18  Z
  " fill="#009af9" fill-rule="evenodd" fill-opacity="1"/>
<polyline clip-path="url(#clip482)" style="stroke:#000000; stroke-width:4; stroke-opacity:1; fill:none" points="
  1669.17,1388.18 1669.17,1445.72 1694.77,1445.72 1694.77,1388.18 1669.17,1388.18 
  "/>
<path clip-path="url(#clip482)" d="
M1694.77 1402.98 L1694.77 1445.72 L1720.38 1445.72 L1720.38 1402.98 L1694.77 1402.98 L1694.77 1402.98  Z
  " fill="#009af9" fill-rule="evenodd" fill-opacity="1"/>
<polyline clip-path="url(#clip482)" style="stroke:#000000; stroke-width:4; stroke-opacity:1; fill:none" points="
  1694.77,1402.98 1694.77,1445.72 1720.38,1445.72 1720.38,1402.98 1694.77,1402.98 
  "/>
<path clip-path="url(#clip482)" d="
M1720.38 1416.13 L1720.38 1445.72 L1745.99 1445.72 L1745.99 1416.13 L1720.38 1416.13 L1720.38 1416.13  Z
  " fill="#009af9" fill-rule="evenodd" fill-opacity="1"/>
<polyline clip-path="url(#clip482)" style="stroke:#000000; stroke-width:4; stroke-opacity:1; fill:none" points="
  1720.38,1416.13 1720.38,1445.72 1745.99,1445.72 1745.99,1416.13 1720.38,1416.13 
  "/>
<path clip-path="url(#clip482)" d="
M1745.99 1417.77 L1745.99 1445.72 L1771.59 1445.72 L1771.59 1417.77 L1745.99 1417.77 L1745.99 1417.77  Z
  " fill="#009af9" fill-rule="evenodd" fill-opacity="1"/>
<polyline clip-path="url(#clip482)" style="stroke:#000000; stroke-width:4; stroke-opacity:1; fill:none" points="
  1745.99,1417.77 1745.99,1445.72 1771.59,1445.72 1771.59,1417.77 1745.99,1417.77 
  "/>
<path clip-path="url(#clip482)" d="
M1771.59 1429.28 L1771.59 1445.72 L1797.2 1445.72 L1797.2 1429.28 L1771.59 1429.28 L1771.59 1429.28  Z
  " fill="#009af9" fill-rule="evenodd" fill-opacity="1"/>
<polyline clip-path="url(#clip482)" style="stroke:#000000; stroke-width:4; stroke-opacity:1; fill:none" points="
  1771.59,1429.28 1771.59,1445.72 1797.2,1445.72 1797.2,1429.28 1771.59,1429.28 
  "/>
<path clip-path="url(#clip482)" d="
M1797.2 1432.57 L1797.2 1445.72 L1822.8 1445.72 L1822.8 1432.57 L1797.2 1432.57 L1797.2 1432.57  Z
  " fill="#009af9" fill-rule="evenodd" fill-opacity="1"/>
<polyline clip-path="url(#clip482)" style="stroke:#000000; stroke-width:4; stroke-opacity:1; fill:none" points="
  1797.2,1432.57 1797.2,1445.72 1822.8,1445.72 1822.8,1432.57 1797.2,1432.57 
  "/>
<path clip-path="url(#clip482)" d="
M1822.8 1435.85 L1822.8 1445.72 L1848.41 1445.72 L1848.41 1435.85 L1822.8 1435.85 L1822.8 1435.85  Z
  " fill="#009af9" fill-rule="evenodd" fill-opacity="1"/>
<polyline clip-path="url(#clip482)" style="stroke:#000000; stroke-width:4; stroke-opacity:1; fill:none" points="
  1822.8,1435.85 1822.8,1445.72 1848.41,1445.72 1848.41,1435.85 1822.8,1435.85 
  "/>
<path clip-path="url(#clip482)" d="
M1848.41 1437.5 L1848.41 1445.72 L1874.01 1445.72 L1874.01 1437.5 L1848.41 1437.5 L1848.41 1437.5  Z
  " fill="#009af9" fill-rule="evenodd" fill-opacity="1"/>
<polyline clip-path="url(#clip482)" style="stroke:#000000; stroke-width:4; stroke-opacity:1; fill:none" points="
  1848.41,1437.5 1848.41,1445.72 1874.01,1445.72 1874.01,1437.5 1848.41,1437.5 
  "/>
<path clip-path="url(#clip482)" d="
M1874.01 1437.5 L1874.01 1445.72 L1899.62 1445.72 L1899.62 1437.5 L1874.01 1437.5 L1874.01 1437.5  Z
  " fill="#009af9" fill-rule="evenodd" fill-opacity="1"/>
<polyline clip-path="url(#clip482)" style="stroke:#000000; stroke-width:4; stroke-opacity:1; fill:none" points="
  1874.01,1437.5 1874.01,1445.72 1899.62,1445.72 1899.62,1437.5 1874.01,1437.5 
  "/>
<path clip-path="url(#clip482)" d="
M1899.62 1437.5 L1899.62 1445.72 L1925.22 1445.72 L1925.22 1437.5 L1899.62 1437.5 L1899.62 1437.5  Z
  " fill="#009af9" fill-rule="evenodd" fill-opacity="1"/>
<polyline clip-path="url(#clip482)" style="stroke:#000000; stroke-width:4; stroke-opacity:1; fill:none" points="
  1899.62,1437.5 1899.62,1445.72 1925.22,1445.72 1925.22,1437.5 1899.62,1437.5 
  "/>
<path clip-path="url(#clip482)" d="
M1925.22 1442.43 L1925.22 1445.72 L1950.83 1445.72 L1950.83 1442.43 L1925.22 1442.43 L1925.22 1442.43  Z
  " fill="#009af9" fill-rule="evenodd" fill-opacity="1"/>
<polyline clip-path="url(#clip482)" style="stroke:#000000; stroke-width:4; stroke-opacity:1; fill:none" points="
  1925.22,1442.43 1925.22,1445.72 1950.83,1445.72 1950.83,1442.43 1925.22,1442.43 
  "/>
<path clip-path="url(#clip482)" d="
M1950.83 1444.07 L1950.83 1445.72 L1976.44 1445.72 L1976.44 1444.07 L1950.83 1444.07 L1950.83 1444.07  Z
  " fill="#009af9" fill-rule="evenodd" fill-opacity="1"/>
<polyline clip-path="url(#clip482)" style="stroke:#000000; stroke-width:4; stroke-opacity:1; fill:none" points="
  1950.83,1444.07 1950.83,1445.72 1976.44,1445.72 1976.44,1444.07 1950.83,1444.07 
  "/>
<path clip-path="url(#clip482)" d="
M1976.44 1445.72 L1976.44 1445.72 L2002.04 1445.72 L2002.04 1445.72 L1976.44 1445.72 L1976.44 1445.72  Z
  " fill="#009af9" fill-rule="evenodd" fill-opacity="1"/>
<polyline clip-path="url(#clip482)" style="stroke:#000000; stroke-width:4; stroke-opacity:1; fill:none" points="
  1976.44,1445.72 1976.44,1445.72 2002.04,1445.72 1976.44,1445.72 
  "/>
<path clip-path="url(#clip482)" d="
M2002.04 1445.72 L2002.04 1445.72 L2027.65 1445.72 L2027.65 1445.72 L2002.04 1445.72 L2002.04 1445.72  Z
  " fill="#009af9" fill-rule="evenodd" fill-opacity="1"/>
<polyline clip-path="url(#clip482)" style="stroke:#000000; stroke-width:4; stroke-opacity:1; fill:none" points="
  2002.04,1445.72 2002.04,1445.72 2027.65,1445.72 2002.04,1445.72 
  "/>
<path clip-path="url(#clip482)" d="
M2027.65 1442.43 L2027.65 1445.72 L2053.25 1445.72 L2053.25 1442.43 L2027.65 1442.43 L2027.65 1442.43  Z
  " fill="#009af9" fill-rule="evenodd" fill-opacity="1"/>
<polyline clip-path="url(#clip482)" style="stroke:#000000; stroke-width:4; stroke-opacity:1; fill:none" points="
  2027.65,1442.43 2027.65,1445.72 2053.25,1445.72 2053.25,1442.43 2027.65,1442.43 
  "/>
<path clip-path="url(#clip482)" d="
M2053.25 1445.72 L2053.25 1445.72 L2078.86 1445.72 L2078.86 1445.72 L2053.25 1445.72 L2053.25 1445.72  Z
  " fill="#009af9" fill-rule="evenodd" fill-opacity="1"/>
<polyline clip-path="url(#clip482)" style="stroke:#000000; stroke-width:4; stroke-opacity:1; fill:none" points="
  2053.25,1445.72 2053.25,1445.72 2078.86,1445.72 2053.25,1445.72 
  "/>
<path clip-path="url(#clip482)" d="
M2078.86 1444.07 L2078.86 1445.72 L2104.46 1445.72 L2104.46 1444.07 L2078.86 1444.07 L2078.86 1444.07  Z
  " fill="#009af9" fill-rule="evenodd" fill-opacity="1"/>
<polyline clip-path="url(#clip482)" style="stroke:#000000; stroke-width:4; stroke-opacity:1; fill:none" points="
  2078.86,1444.07 2078.86,1445.72 2104.46,1445.72 2104.46,1444.07 2078.86,1444.07 
  "/>
<path clip-path="url(#clip482)" d="
M2104.46 1445.72 L2104.46 1445.72 L2130.07 1445.72 L2130.07 1445.72 L2104.46 1445.72 L2104.46 1445.72  Z
  " fill="#009af9" fill-rule="evenodd" fill-opacity="1"/>
<polyline clip-path="url(#clip482)" style="stroke:#000000; stroke-width:4; stroke-opacity:1; fill:none" points="
  2104.46,1445.72 2104.46,1445.72 2130.07,1445.72 2104.46,1445.72 
  "/>
<path clip-path="url(#clip482)" d="
M2130.07 1444.07 L2130.07 1445.72 L2155.68 1445.72 L2155.68 1444.07 L2130.07 1444.07 L2130.07 1444.07  Z
  " fill="#009af9" fill-rule="evenodd" fill-opacity="1"/>
<polyline clip-path="url(#clip482)" style="stroke:#000000; stroke-width:4; stroke-opacity:1; fill:none" points="
  2130.07,1444.07 2130.07,1445.72 2155.68,1445.72 2155.68,1444.07 2130.07,1444.07 
  "/>
<path clip-path="url(#clip482)" d="
M2155.68 1445.72 L2155.68 1445.72 L2181.28 1445.72 L2181.28 1445.72 L2155.68 1445.72 L2155.68 1445.72  Z
  " fill="#009af9" fill-rule="evenodd" fill-opacity="1"/>
<polyline clip-path="url(#clip482)" style="stroke:#000000; stroke-width:4; stroke-opacity:1; fill:none" points="
  2155.68,1445.72 2155.68,1445.72 2181.28,1445.72 2155.68,1445.72 
  "/>
<path clip-path="url(#clip482)" d="
M2181.28 1445.72 L2181.28 1445.72 L2206.89 1445.72 L2206.89 1445.72 L2181.28 1445.72 L2181.28 1445.72  Z
  " fill="#009af9" fill-rule="evenodd" fill-opacity="1"/>
<polyline clip-path="url(#clip482)" style="stroke:#000000; stroke-width:4; stroke-opacity:1; fill:none" points="
  2181.28,1445.72 2181.28,1445.72 2206.89,1445.72 2181.28,1445.72 
  "/>
<path clip-path="url(#clip482)" d="
M2206.89 1444.07 L2206.89 1445.72 L2232.49 1445.72 L2232.49 1444.07 L2206.89 1444.07 L2206.89 1444.07  Z
  " fill="#009af9" fill-rule="evenodd" fill-opacity="1"/>
<polyline clip-path="url(#clip482)" style="stroke:#000000; stroke-width:4; stroke-opacity:1; fill:none" points="
  2206.89,1444.07 2206.89,1445.72 2232.49,1445.72 2232.49,1444.07 2206.89,1444.07 
  "/>
<path clip-path="url(#clip480)" d="
M1989.74 251.724 L2280.76 251.724 L2280.76 130.764 L1989.74 130.764  Z
  " fill="#ffffff" fill-rule="evenodd" fill-opacity="1"/>
<polyline clip-path="url(#clip480)" style="stroke:#000000; stroke-width:4; stroke-opacity:1; fill:none" points="
  1989.74,251.724 2280.76,251.724 2280.76,130.764 1989.74,130.764 1989.74,251.724 
  "/>
<path clip-path="url(#clip480)" d="
M2013.74 215.436 L2157.74 215.436 L2157.74 167.052 L2013.74 167.052 L2013.74 215.436  Z
  " fill="#009af9" fill-rule="evenodd" fill-opacity="1"/>
<polyline clip-path="url(#clip480)" style="stroke:#000000; stroke-width:4; stroke-opacity:1; fill:none" points="
  2013.74,215.436 2157.74,215.436 2157.74,167.052 2013.74,167.052 2013.74,215.436 
  "/>
<path clip-path="url(#clip480)" d="M 0 0 M2195.58 210.931 Q2193.77 215.561 2192.06 216.973 Q2190.35 218.385 2187.48 218.385 L2184.08 218.385 L2184.08 214.82 L2186.58 214.82 Q2188.33 214.82 2189.31 213.987 Q2190.28 213.154 2191.46 210.052 L2192.22 208.107 L2181.74 182.598 L2186.25 182.598 L2194.35 202.876 L2202.46 182.598 L2206.97 182.598 L2195.58 210.931 Z" fill="#000000" fill-rule="evenodd" fill-opacity="1" /><path clip-path="url(#clip480)" d="M 0 0 M2212.85 204.589 L2220.49 204.589 L2220.49 178.223 L2212.18 179.89 L2212.18 175.631 L2220.44 173.964 L2225.12 173.964 L2225.12 204.589 L2232.76 204.589 L2232.76 208.524 L2212.85 208.524 L2212.85 204.589 Z" fill="#000000" fill-rule="evenodd" fill-opacity="1" /></svg>
