<?xml version="1.0" encoding="utf-8"?>
<svg xmlns="http://www.w3.org/2000/svg" xmlns:xlink="http://www.w3.org/1999/xlink" width="600" height="400" viewBox="0 0 2400 1600">
<defs>
  <clipPath id="clip170">
    <rect x="0" y="0" width="2400" height="1600"/>
  </clipPath>
</defs>
<path clip-path="url(#clip170)" d="
M0 1600 L2400 1600 L2400 0 L0 0  Z
  " fill="#ffffff" fill-rule="evenodd" fill-opacity="1"/>
<defs>
  <clipPath id="clip171">
    <rect x="480" y="0" width="1681" height="1600"/>
  </clipPath>
</defs>
<path clip-path="url(#clip170)" d="
M166.205 1486.45 L2352.76 1486.45 L2352.76 47.2441 L166.205 47.2441  Z
  " fill="#ffffff" fill-rule="evenodd" fill-opacity="1"/>
<defs>
  <clipPath id="clip172">
    <rect x="166" y="47" width="2188" height="1440"/>
  </clipPath>
</defs>
<polyline clip-path="url(#clip172)" style="stroke:#000000; stroke-width:2; stroke-opacity:0.1; fill:none" points="
  496.85,1486.45 496.85,47.2441 
  "/>
<polyline clip-path="url(#clip172)" style="stroke:#000000; stroke-width:2; stroke-opacity:0.1; fill:none" points="
  891.314,1486.45 891.314,47.2441 
  "/>
<polyline clip-path="url(#clip172)" style="stroke:#000000; stroke-width:2; stroke-opacity:0.1; fill:none" points="
  1285.78,1486.45 1285.78,47.2441 
  "/>
<polyline clip-path="url(#clip172)" style="stroke:#000000; stroke-width:2; stroke-opacity:0.1; fill:none" points="
  1680.24,1486.45 1680.24,47.2441 
  "/>
<polyline clip-path="url(#clip172)" style="stroke:#000000; stroke-width:2; stroke-opacity:0.1; fill:none" points="
  2074.71,1486.45 2074.71,47.2441 
  "/>
<polyline clip-path="url(#clip172)" style="stroke:#000000; stroke-width:2; stroke-opacity:0.1; fill:none" points="
  166.205,1445.72 2352.76,1445.72 
  "/>
<polyline clip-path="url(#clip172)" style="stroke:#000000; stroke-width:2; stroke-opacity:0.1; fill:none" points="
  166.205,1115.77 2352.76,1115.77 
  "/>
<polyline clip-path="url(#clip172)" style="stroke:#000000; stroke-width:2; stroke-opacity:0.1; fill:none" points="
  166.205,785.818 2352.76,785.818 
  "/>
<polyline clip-path="url(#clip172)" style="stroke:#000000; stroke-width:2; stroke-opacity:0.1; fill:none" points="
  166.205,455.869 2352.76,455.869 
  "/>
<polyline clip-path="url(#clip172)" style="stroke:#000000; stroke-width:2; stroke-opacity:0.1; fill:none" points="
  166.205,125.92 2352.76,125.92 
  "/>
<polyline clip-path="url(#clip170)" style="stroke:#000000; stroke-width:4; stroke-opacity:1; fill:none" points="
  166.205,1486.45 2352.76,1486.45 
  "/>
<polyline clip-path="url(#clip170)" style="stroke:#000000; stroke-width:4; stroke-opacity:1; fill:none" points="
  166.205,1486.45 166.205,47.2441 
  "/>
<polyline clip-path="url(#clip170)" style="stroke:#000000; stroke-width:4; stroke-opacity:1; fill:none" points="
  496.85,1486.45 496.85,1469.18 
  "/>
<polyline clip-path="url(#clip170)" style="stroke:#000000; stroke-width:4; stroke-opacity:1; fill:none" points="
  891.314,1486.45 891.314,1469.18 
  "/>
<polyline clip-path="url(#clip170)" style="stroke:#000000; stroke-width:4; stroke-opacity:1; fill:none" points="
  1285.78,1486.45 1285.78,1469.18 
  "/>
<polyline clip-path="url(#clip170)" style="stroke:#000000; stroke-width:4; stroke-opacity:1; fill:none" points="
  1680.24,1486.45 1680.24,1469.18 
  "/>
<polyline clip-path="url(#clip170)" style="stroke:#000000; stroke-width:4; stroke-opacity:1; fill:none" points="
  2074.71,1486.45 2074.71,1469.18 
  "/>
<polyline clip-path="url(#clip170)" style="stroke:#000000; stroke-width:4; stroke-opacity:1; fill:none" points="
  166.205,1445.72 192.443,1445.72 
  "/>
<polyline clip-path="url(#clip170)" style="stroke:#000000; stroke-width:4; stroke-opacity:1; fill:none" points="
  166.205,1115.77 192.443,1115.77 
  "/>
<polyline clip-path="url(#clip170)" style="stroke:#000000; stroke-width:4; stroke-opacity:1; fill:none" points="
  166.205,785.818 192.443,785.818 
  "/>
<polyline clip-path="url(#clip170)" style="stroke:#000000; stroke-width:4; stroke-opacity:1; fill:none" points="
  166.205,455.869 192.443,455.869 
  "/>
<polyline clip-path="url(#clip170)" style="stroke:#000000; stroke-width:4; stroke-opacity:1; fill:none" points="
  166.205,125.92 192.443,125.92 
  "/>
<path clip-path="url(#clip170)" d="M 0 0 M477.023 1525.04 L489.5 1525.04 L489.5 1528.83 L477.023 1528.83 L477.023 1525.04 Z" fill="#000000" fill-rule="evenodd" fill-opacity="1" /><path clip-path="url(#clip170)" d="M 0 0 M505.148 1520.78 Q502 1520.78 500.148 1522.93 Q498.32 1525.08 498.32 1528.83 Q498.32 1532.56 500.148 1534.73 Q502 1536.89 505.148 1536.89 Q508.296 1536.89 510.125 1534.73 Q511.977 1532.56 511.977 1528.83 Q511.977 1525.08 510.125 1522.93 Q508.296 1520.78 505.148 1520.78 M514.431 1506.12 L514.431 1510.38 Q512.671 1509.55 510.866 1509.11 Q509.083 1508.67 507.324 1508.67 Q502.695 1508.67 500.241 1511.8 Q497.81 1514.92 497.463 1521.24 Q498.829 1519.23 500.889 1518.16 Q502.949 1517.07 505.426 1517.07 Q510.634 1517.07 513.644 1520.24 Q516.676 1523.39 516.676 1528.83 Q516.676 1534.16 513.528 1537.37 Q510.38 1540.59 505.148 1540.59 Q499.153 1540.59 495.982 1536.01 Q492.81 1531.4 492.81 1522.67 Q492.81 1514.48 496.699 1509.62 Q500.588 1504.73 507.139 1504.73 Q508.898 1504.73 510.681 1505.08 Q512.486 1505.43 514.431 1506.12 Z" fill="#000000" fill-rule="evenodd" fill-opacity="1" /><path clip-path="url(#clip170)" d="M 0 0 M871.893 1525.04 L884.369 1525.04 L884.369 1528.83 L871.893 1528.83 L871.893 1525.04 Z" fill="#000000" fill-rule="evenodd" fill-opacity="1" /><path clip-path="url(#clip170)" d="M 0 0 M903.605 1521.29 Q906.962 1522 908.837 1524.27 Q910.735 1526.54 910.735 1529.87 Q910.735 1534.99 907.216 1537.79 Q903.698 1540.59 897.217 1540.59 Q895.041 1540.59 892.726 1540.15 Q890.434 1539.73 887.98 1538.88 L887.98 1534.36 Q889.925 1535.5 892.24 1536.08 Q894.555 1536.66 897.078 1536.66 Q901.476 1536.66 903.767 1534.92 Q906.082 1533.18 906.082 1529.87 Q906.082 1526.82 903.929 1525.11 Q901.8 1523.37 897.98 1523.37 L893.953 1523.37 L893.953 1519.53 L898.166 1519.53 Q901.615 1519.53 903.443 1518.16 Q905.272 1516.77 905.272 1514.18 Q905.272 1511.52 903.374 1510.11 Q901.499 1508.67 897.98 1508.67 Q896.059 1508.67 893.86 1509.09 Q891.661 1509.5 889.022 1510.38 L889.022 1506.22 Q891.684 1505.48 893.999 1505.11 Q896.337 1504.73 898.397 1504.73 Q903.721 1504.73 906.823 1507.17 Q909.925 1509.57 909.925 1513.69 Q909.925 1516.56 908.281 1518.55 Q906.638 1520.52 903.605 1521.29 Z" fill="#000000" fill-rule="evenodd" fill-opacity="1" /><path clip-path="url(#clip170)" d="M 0 0 M1285.78 1508.44 Q1282.17 1508.44 1280.34 1512 Q1278.53 1515.55 1278.53 1522.67 Q1278.53 1529.78 1280.34 1533.35 Q1282.17 1536.89 1285.78 1536.89 Q1289.41 1536.89 1291.22 1533.35 Q1293.05 1529.78 1293.05 1522.67 Q1293.05 1515.55 1291.22 1512 Q1289.41 1508.44 1285.78 1508.44 M1285.78 1504.73 Q1291.59 1504.73 1294.64 1509.34 Q1297.72 1513.92 1297.72 1522.67 Q1297.72 1531.4 1294.64 1536.01 Q1291.59 1540.59 1285.78 1540.59 Q1279.97 1540.59 1276.89 1536.01 Q1273.83 1531.4 1273.83 1522.67 Q1273.83 1513.92 1276.89 1509.34 Q1279.97 1504.73 1285.78 1504.73 Z" fill="#000000" fill-rule="evenodd" fill-opacity="1" /><path clip-path="url(#clip170)" d="M 0 0 M1684.49 1521.29 Q1687.85 1522 1689.72 1524.27 Q1691.62 1526.54 1691.62 1529.87 Q1691.62 1534.99 1688.1 1537.79 Q1684.58 1540.59 1678.1 1540.59 Q1675.92 1540.59 1673.61 1540.15 Q1671.32 1539.73 1668.86 1538.88 L1668.86 1534.36 Q1670.81 1535.5 1673.12 1536.08 Q1675.44 1536.66 1677.96 1536.66 Q1682.36 1536.66 1684.65 1534.92 Q1686.97 1533.18 1686.97 1529.87 Q1686.97 1526.82 1684.81 1525.11 Q1682.68 1523.37 1678.86 1523.37 L1674.84 1523.37 L1674.84 1519.53 L1679.05 1519.53 Q1682.5 1519.53 1684.33 1518.16 Q1686.16 1516.77 1686.16 1514.18 Q1686.16 1511.52 1684.26 1510.11 Q1682.38 1508.67 1678.86 1508.67 Q1676.94 1508.67 1674.74 1509.09 Q1672.55 1509.5 1669.91 1510.38 L1669.91 1506.22 Q1672.57 1505.48 1674.88 1505.11 Q1677.22 1504.73 1679.28 1504.73 Q1684.61 1504.73 1687.71 1507.17 Q1690.81 1509.57 1690.81 1513.69 Q1690.81 1516.56 1689.17 1518.55 Q1687.52 1520.52 1684.49 1521.29 Z" fill="#000000" fill-rule="evenodd" fill-opacity="1" /><path clip-path="url(#clip170)" d="M 0 0 M2075.11 1520.78 Q2071.96 1520.78 2070.11 1522.93 Q2068.28 1525.08 2068.28 1528.83 Q2068.28 1532.56 2070.11 1534.73 Q2071.96 1536.89 2075.11 1536.89 Q2078.26 1536.89 2080.09 1534.73 Q2081.94 1532.56 2081.94 1528.83 Q2081.94 1525.08 2080.09 1522.93 Q2078.26 1520.78 2075.11 1520.78 M2084.39 1506.12 L2084.39 1510.38 Q2082.63 1509.55 2080.83 1509.11 Q2079.05 1508.67 2077.29 1508.67 Q2072.66 1508.67 2070.2 1511.8 Q2067.77 1514.92 2067.43 1521.24 Q2068.79 1519.23 2070.85 1518.16 Q2072.91 1517.07 2075.39 1517.07 Q2080.6 1517.07 2083.61 1520.24 Q2086.64 1523.39 2086.64 1528.83 Q2086.64 1534.16 2083.49 1537.37 Q2080.34 1540.59 2075.11 1540.59 Q2069.12 1540.59 2065.94 1536.01 Q2062.77 1531.4 2062.77 1522.67 Q2062.77 1514.48 2066.66 1509.62 Q2070.55 1504.73 2077.1 1504.73 Q2078.86 1504.73 2080.64 1505.08 Q2082.45 1505.43 2084.39 1506.12 Z" fill="#000000" fill-rule="evenodd" fill-opacity="1" /><path clip-path="url(#clip170)" d="M 0 0 M130.26 1431.51 Q126.649 1431.51 124.82 1435.08 Q123.015 1438.62 123.015 1445.75 Q123.015 1452.86 124.82 1456.42 Q126.649 1459.96 130.26 1459.96 Q133.895 1459.96 135.7 1456.42 Q137.529 1452.86 137.529 1445.75 Q137.529 1438.62 135.7 1435.08 Q133.895 1431.51 130.26 1431.51 M130.26 1427.81 Q136.07 1427.81 139.126 1432.42 Q142.205 1437 142.205 1445.75 Q142.205 1454.48 139.126 1459.08 Q136.07 1463.67 130.26 1463.67 Q124.45 1463.67 121.371 1459.08 Q118.316 1454.48 118.316 1445.75 Q118.316 1437 121.371 1432.42 Q124.45 1427.81 130.26 1427.81 Z" fill="#000000" fill-rule="evenodd" fill-opacity="1" /><path clip-path="url(#clip170)" d="M 0 0 M71.8578 1129.11 L88.1772 1129.11 L88.1772 1133.05 L66.2328 1133.05 L66.2328 1129.11 Q68.8949 1126.36 73.4782 1121.73 Q78.0846 1117.07 79.2652 1115.73 Q81.5105 1113.21 82.3902 1111.47 Q83.2929 1109.71 83.2929 1108.02 Q83.2929 1105.27 81.3485 1103.53 Q79.4272 1101.8 76.3254 1101.8 Q74.1263 1101.8 71.6726 1102.56 Q69.2421 1103.32 66.4643 1104.88 L66.4643 1100.15 Q69.2884 1099.02 71.7421 1098.44 Q74.1958 1097.86 76.2328 1097.86 Q81.6031 1097.86 84.7976 1100.55 Q87.992 1103.23 87.992 1107.72 Q87.992 1109.85 87.1818 1111.77 Q86.3948 1113.67 84.2883 1116.26 Q83.7096 1116.94 80.6078 1120.15 Q77.5059 1123.35 71.8578 1129.11 Z" fill="#000000" fill-rule="evenodd" fill-opacity="1" /><path clip-path="url(#clip170)" d="M 0 0 M103.247 1101.57 Q99.6354 1101.57 97.8068 1105.13 Q96.0012 1108.67 96.0012 1115.8 Q96.0012 1122.91 97.8068 1126.47 Q99.6354 1130.01 103.247 1130.01 Q106.881 1130.01 108.686 1126.47 Q110.515 1122.91 110.515 1115.8 Q110.515 1108.67 108.686 1105.13 Q106.881 1101.57 103.247 1101.57 M103.247 1097.86 Q109.057 1097.86 112.112 1102.47 Q115.191 1107.05 115.191 1115.8 Q115.191 1124.53 112.112 1129.13 Q109.057 1133.72 103.247 1133.72 Q97.4364 1133.72 94.3577 1129.13 Q91.3022 1124.53 91.3022 1115.8 Q91.3022 1107.05 94.3577 1102.47 Q97.4364 1097.86 103.247 1097.86 Z" fill="#000000" fill-rule="evenodd" fill-opacity="1" /><path clip-path="url(#clip170)" d="M 0 0 M130.26 1101.57 Q126.649 1101.57 124.82 1105.13 Q123.015 1108.67 123.015 1115.8 Q123.015 1122.91 124.82 1126.47 Q126.649 1130.01 130.26 1130.01 Q133.895 1130.01 135.7 1126.47 Q137.529 1122.91 137.529 1115.8 Q137.529 1108.67 135.7 1105.13 Q133.895 1101.57 130.26 1101.57 M130.26 1097.86 Q136.07 1097.86 139.126 1102.47 Q142.205 1107.05 142.205 1115.8 Q142.205 1124.53 139.126 1129.13 Q136.07 1133.72 130.26 1133.72 Q124.45 1133.72 121.371 1129.13 Q118.316 1124.53 118.316 1115.8 Q118.316 1107.05 121.371 1102.47 Q124.45 1097.86 130.26 1097.86 Z" fill="#000000" fill-rule="evenodd" fill-opacity="1" /><path clip-path="url(#clip170)" d="M 0 0 M78.5939 772.612 L66.7884 791.061 L78.5939 791.061 L78.5939 772.612 M77.367 768.538 L83.2466 768.538 L83.2466 791.061 L88.1772 791.061 L88.1772 794.95 L83.2466 794.95 L83.2466 803.098 L78.5939 803.098 L78.5939 794.95 L62.9921 794.95 L62.9921 790.436 L77.367 768.538 Z" fill="#000000" fill-rule="evenodd" fill-opacity="1" /><path clip-path="url(#clip170)" d="M 0 0 M103.247 771.617 Q99.6354 771.617 97.8068 775.182 Q96.0012 778.723 96.0012 785.853 Q96.0012 792.959 97.8068 796.524 Q99.6354 800.066 103.247 800.066 Q106.881 800.066 108.686 796.524 Q110.515 792.959 110.515 785.853 Q110.515 778.723 108.686 775.182 Q106.881 771.617 103.247 771.617 M103.247 767.913 Q109.057 767.913 112.112 772.52 Q115.191 777.103 115.191 785.853 Q115.191 794.58 112.112 799.186 Q109.057 803.769 103.247 803.769 Q97.4364 803.769 94.3577 799.186 Q91.3022 794.58 91.3022 785.853 Q91.3022 777.103 94.3577 772.52 Q97.4364 767.913 103.247 767.913 Z" fill="#000000" fill-rule="evenodd" fill-opacity="1" /><path clip-path="url(#clip170)" d="M 0 0 M130.26 771.617 Q126.649 771.617 124.82 775.182 Q123.015 778.723 123.015 785.853 Q123.015 792.959 124.82 796.524 Q126.649 800.066 130.26 800.066 Q133.895 800.066 135.7 796.524 Q137.529 792.959 137.529 785.853 Q137.529 778.723 135.7 775.182 Q133.895 771.617 130.26 771.617 M130.26 767.913 Q136.07 767.913 139.126 772.52 Q142.205 777.103 142.205 785.853 Q142.205 794.58 139.126 799.186 Q136.07 803.769 130.26 803.769 Q124.45 803.769 121.371 799.186 Q118.316 794.58 118.316 785.853 Q118.316 777.103 121.371 772.52 Q124.45 767.913 130.26 767.913 Z" fill="#000000" fill-rule="evenodd" fill-opacity="1" /><path clip-path="url(#clip170)" d="M 0 0 M76.6495 454.006 Q73.5013 454.006 71.6495 456.159 Q69.8208 458.311 69.8208 462.061 Q69.8208 465.788 71.6495 467.964 Q73.5013 470.117 76.6495 470.117 Q79.7976 470.117 81.6263 467.964 Q83.4781 465.788 83.4781 462.061 Q83.4781 458.311 81.6263 456.159 Q79.7976 454.006 76.6495 454.006 M85.9318 439.353 L85.9318 443.612 Q84.1726 442.779 82.367 442.339 Q80.5846 441.899 78.8254 441.899 Q74.1958 441.899 71.7421 445.024 Q69.3115 448.149 68.9643 454.469 Q70.33 452.455 72.3902 451.39 Q74.4504 450.302 76.9272 450.302 Q82.1355 450.302 85.1448 453.473 Q88.1772 456.622 88.1772 462.061 Q88.1772 467.385 85.029 470.603 Q81.8809 473.821 76.6495 473.821 Q70.6541 473.821 67.4828 469.237 Q64.3116 464.631 64.3116 455.904 Q64.3116 447.71 68.2004 442.848 Q72.0893 437.964 78.6402 437.964 Q80.3994 437.964 82.1818 438.311 Q83.9874 438.659 85.9318 439.353 Z" fill="#000000" fill-rule="evenodd" fill-opacity="1" /><path clip-path="url(#clip170)" d="M 0 0 M103.247 441.668 Q99.6354 441.668 97.8068 445.233 Q96.0012 448.774 96.0012 455.904 Q96.0012 463.01 97.8068 466.575 Q99.6354 470.117 103.247 470.117 Q106.881 470.117 108.686 466.575 Q110.515 463.01 110.515 455.904 Q110.515 448.774 108.686 445.233 Q106.881 441.668 103.247 441.668 M103.247 437.964 Q109.057 437.964 112.112 442.571 Q115.191 447.154 115.191 455.904 Q115.191 464.631 112.112 469.237 Q109.057 473.821 103.247 473.821 Q97.4364 473.821 94.3577 469.237 Q91.3022 464.631 91.3022 455.904 Q91.3022 447.154 94.3577 442.571 Q97.4364 437.964 103.247 437.964 Z" fill="#000000" fill-rule="evenodd" fill-opacity="1" /><path clip-path="url(#clip170)" d="M 0 0 M130.26 441.668 Q126.649 441.668 124.82 445.233 Q123.015 448.774 123.015 455.904 Q123.015 463.01 124.82 466.575 Q126.649 470.117 130.26 470.117 Q133.895 470.117 135.7 466.575 Q137.529 463.01 137.529 455.904 Q137.529 448.774 135.7 445.233 Q133.895 441.668 130.26 441.668 M130.26 437.964 Q136.07 437.964 139.126 442.571 Q142.205 447.154 142.205 455.904 Q142.205 464.631 139.126 469.237 Q136.07 473.821 130.26 473.821 Q124.45 473.821 121.371 469.237 Q118.316 464.631 118.316 455.904 Q118.316 447.154 121.371 442.571 Q124.45 437.964 130.26 437.964 Z" fill="#000000" fill-rule="evenodd" fill-opacity="1" /><path clip-path="url(#clip170)" d="M 0 0 M76.3254 126.788 Q72.9921 126.788 71.0708 128.571 Q69.1726 130.353 69.1726 133.478 Q69.1726 136.603 71.0708 138.386 Q72.9921 140.168 76.3254 140.168 Q79.6587 140.168 81.58 138.386 Q83.5013 136.58 83.5013 133.478 Q83.5013 130.353 81.58 128.571 Q79.6819 126.788 76.3254 126.788 M71.6495 124.798 Q68.6402 124.057 66.9504 121.997 Q65.2838 119.937 65.2838 116.974 Q65.2838 112.83 68.2236 110.423 Q71.1865 108.015 76.3254 108.015 Q81.4874 108.015 84.4272 110.423 Q87.367 112.83 87.367 116.974 Q87.367 119.937 85.6772 121.997 Q84.0105 124.057 81.0244 124.798 Q84.404 125.585 86.279 127.876 Q88.1772 130.168 88.1772 133.478 Q88.1772 138.501 85.0985 141.187 Q82.0429 143.872 76.3254 143.872 Q70.6078 143.872 67.5291 141.187 Q64.4736 138.501 64.4736 133.478 Q64.4736 130.168 66.3717 127.876 Q68.2699 125.585 71.6495 124.798 M69.9365 117.413 Q69.9365 120.099 71.6032 121.603 Q73.293 123.108 76.3254 123.108 Q79.3346 123.108 81.0244 121.603 Q82.7374 120.099 82.7374 117.413 Q82.7374 114.728 81.0244 113.224 Q79.3346 111.719 76.3254 111.719 Q73.293 111.719 71.6032 113.224 Q69.9365 114.728 69.9365 117.413 Z" fill="#000000" fill-rule="evenodd" fill-opacity="1" /><path clip-path="url(#clip170)" d="M 0 0 M103.247 111.719 Q99.6354 111.719 97.8068 115.284 Q96.0012 118.826 96.0012 125.955 Q96.0012 133.062 97.8068 136.626 Q99.6354 140.168 103.247 140.168 Q106.881 140.168 108.686 136.626 Q110.515 133.062 110.515 125.955 Q110.515 118.826 108.686 115.284 Q106.881 111.719 103.247 111.719 M103.247 108.015 Q109.057 108.015 112.112 112.622 Q115.191 117.205 115.191 125.955 Q115.191 134.682 112.112 139.288 Q109.057 143.872 103.247 143.872 Q97.4364 143.872 94.3577 139.288 Q91.3022 134.682 91.3022 125.955 Q91.3022 117.205 94.3577 112.622 Q97.4364 108.015 103.247 108.015 Z" fill="#000000" fill-rule="evenodd" fill-opacity="1" /><path clip-path="url(#clip170)" d="M 0 0 M130.26 111.719 Q126.649 111.719 124.82 115.284 Q123.015 118.826 123.015 125.955 Q123.015 133.062 124.82 136.626 Q126.649 140.168 130.26 140.168 Q133.895 140.168 135.7 136.626 Q137.529 133.062 137.529 125.955 Q137.529 118.826 135.7 115.284 Q133.895 111.719 130.26 111.719 M130.26 108.015 Q136.07 108.015 139.126 112.622 Q142.205 117.205 142.205 125.955 Q142.205 134.682 139.126 139.288 Q136.07 143.872 130.26 143.872 Q124.45 143.872 121.371 139.288 Q118.316 134.682 118.316 125.955 Q118.316 117.205 121.371 112.622 Q124.45 108.015 130.26 108.015 Z" fill="#000000" fill-rule="evenodd" fill-opacity="1" /><path clip-path="url(#clip172)" d="
M286.469 1444.07 L286.469 1445.72 L312.766 1445.72 L312.766 1444.07 L286.469 1444.07 L286.469 1444.07  Z
  " fill="#009af9" fill-rule="evenodd" fill-opacity="1"/>
<polyline clip-path="url(#clip172)" style="stroke:#000000; stroke-width:4; stroke-opacity:1; fill:none" points="
  286.469,1444.07 286.469,1445.72 312.766,1445.72 312.766,1444.07 286.469,1444.07 
  "/>
<path clip-path="url(#clip172)" d="
M312.766 1445.72 L312.766 1445.72 L339.064 1445.72 L339.064 1445.72 L312.766 1445.72 L312.766 1445.72  Z
  " fill="#009af9" fill-rule="evenodd" fill-opacity="1"/>
<polyline clip-path="url(#clip172)" style="stroke:#000000; stroke-width:4; stroke-opacity:1; fill:none" points="
  312.766,1445.72 312.766,1445.72 339.064,1445.72 312.766,1445.72 
  "/>
<path clip-path="url(#clip172)" d="
M339.064 1445.72 L339.064 1445.72 L365.362 1445.72 L365.362 1445.72 L339.064 1445.72 L339.064 1445.72  Z
  " fill="#009af9" fill-rule="evenodd" fill-opacity="1"/>
<polyline clip-path="url(#clip172)" style="stroke:#000000; stroke-width:4; stroke-opacity:1; fill:none" points="
  339.064,1445.72 339.064,1445.72 365.362,1445.72 339.064,1445.72 
  "/>
<path clip-path="url(#clip172)" d="
M365.362 1445.72 L365.362 1445.72 L391.659 1445.72 L391.659 1445.72 L365.362 1445.72 L365.362 1445.72  Z
  " fill="#009af9" fill-rule="evenodd" fill-opacity="1"/>
<polyline clip-path="url(#clip172)" style="stroke:#000000; stroke-width:4; stroke-opacity:1; fill:none" points="
  365.362,1445.72 365.362,1445.72 391.659,1445.72 365.362,1445.72 
  "/>
<path clip-path="url(#clip172)" d="
M391.659 1445.72 L391.659 1445.72 L417.957 1445.72 L417.957 1445.72 L391.659 1445.72 L391.659 1445.72  Z
  " fill="#009af9" fill-rule="evenodd" fill-opacity="1"/>
<polyline clip-path="url(#clip172)" style="stroke:#000000; stroke-width:4; stroke-opacity:1; fill:none" points="
  391.659,1445.72 391.659,1445.72 417.957,1445.72 391.659,1445.72 
  "/>
<path clip-path="url(#clip172)" d="
M417.957 1444.07 L417.957 1445.72 L444.255 1445.72 L444.255 1444.07 L417.957 1444.07 L417.957 1444.07  Z
  " fill="#009af9" fill-rule="evenodd" fill-opacity="1"/>
<polyline clip-path="url(#clip172)" style="stroke:#000000; stroke-width:4; stroke-opacity:1; fill:none" points="
  417.957,1444.07 417.957,1445.72 444.255,1445.72 444.255,1444.07 417.957,1444.07 
  "/>
<path clip-path="url(#clip172)" d="
M444.255 1444.07 L444.255 1445.72 L470.552 1445.72 L470.552 1444.07 L444.255 1444.07 L444.255 1444.07  Z
  " fill="#009af9" fill-rule="evenodd" fill-opacity="1"/>
<polyline clip-path="url(#clip172)" style="stroke:#000000; stroke-width:4; stroke-opacity:1; fill:none" points="
  444.255,1444.07 444.255,1445.72 470.552,1445.72 470.552,1444.07 444.255,1444.07 
  "/>
<path clip-path="url(#clip172)" d="
M470.552 1445.72 L470.552 1445.72 L496.85 1445.72 L496.85 1445.72 L470.552 1445.72 L470.552 1445.72  Z
  " fill="#009af9" fill-rule="evenodd" fill-opacity="1"/>
<polyline clip-path="url(#clip172)" style="stroke:#000000; stroke-width:4; stroke-opacity:1; fill:none" points="
  470.552,1445.72 470.552,1445.72 496.85,1445.72 470.552,1445.72 
  "/>
<path clip-path="url(#clip172)" d="
M496.85 1444.07 L496.85 1445.72 L523.147 1445.72 L523.147 1444.07 L496.85 1444.07 L496.85 1444.07  Z
  " fill="#009af9" fill-rule="evenodd" fill-opacity="1"/>
<polyline clip-path="url(#clip172)" style="stroke:#000000; stroke-width:4; stroke-opacity:1; fill:none" points="
  496.85,1444.07 496.85,1445.72 523.147,1445.72 523.147,1444.07 496.85,1444.07 
  "/>
<path clip-path="url(#clip172)" d="
M523.147 1440.77 L523.147 1445.72 L549.445 1445.72 L549.445 1440.77 L523.147 1440.77 L523.147 1440.77  Z
  " fill="#009af9" fill-rule="evenodd" fill-opacity="1"/>
<polyline clip-path="url(#clip172)" style="stroke:#000000; stroke-width:4; stroke-opacity:1; fill:none" points="
  523.147,1440.77 523.147,1445.72 549.445,1445.72 549.445,1440.77 523.147,1440.77 
  "/>
<path clip-path="url(#clip172)" d="
M549.445 1439.12 L549.445 1445.72 L575.743 1445.72 L575.743 1439.12 L549.445 1439.12 L549.445 1439.12  Z
  " fill="#009af9" fill-rule="evenodd" fill-opacity="1"/>
<polyline clip-path="url(#clip172)" style="stroke:#000000; stroke-width:4; stroke-opacity:1; fill:none" points="
  549.445,1439.12 549.445,1445.72 575.743,1445.72 575.743,1439.12 549.445,1439.12 
  "/>
<path clip-path="url(#clip172)" d="
M575.743 1442.42 L575.743 1445.72 L602.04 1445.72 L602.04 1442.42 L575.743 1442.42 L575.743 1442.42  Z
  " fill="#009af9" fill-rule="evenodd" fill-opacity="1"/>
<polyline clip-path="url(#clip172)" style="stroke:#000000; stroke-width:4; stroke-opacity:1; fill:none" points="
  575.743,1442.42 575.743,1445.72 602.04,1445.72 602.04,1442.42 575.743,1442.42 
  "/>
<path clip-path="url(#clip172)" d="
M602.04 1432.52 L602.04 1445.72 L628.338 1445.72 L628.338 1432.52 L602.04 1432.52 L602.04 1432.52  Z
  " fill="#009af9" fill-rule="evenodd" fill-opacity="1"/>
<polyline clip-path="url(#clip172)" style="stroke:#000000; stroke-width:4; stroke-opacity:1; fill:none" points="
  602.04,1432.52 602.04,1445.72 628.338,1445.72 628.338,1432.52 602.04,1432.52 
  "/>
<path clip-path="url(#clip172)" d="
M628.338 1435.82 L628.338 1445.72 L654.635 1445.72 L654.635 1435.82 L628.338 1435.82 L628.338 1435.82  Z
  " fill="#009af9" fill-rule="evenodd" fill-opacity="1"/>
<polyline clip-path="url(#clip172)" style="stroke:#000000; stroke-width:4; stroke-opacity:1; fill:none" points="
  628.338,1435.82 628.338,1445.72 654.635,1445.72 654.635,1435.82 628.338,1435.82 
  "/>
<path clip-path="url(#clip172)" d="
M654.635 1434.17 L654.635 1445.72 L680.933 1445.72 L680.933 1434.17 L654.635 1434.17 L654.635 1434.17  Z
  " fill="#009af9" fill-rule="evenodd" fill-opacity="1"/>
<polyline clip-path="url(#clip172)" style="stroke:#000000; stroke-width:4; stroke-opacity:1; fill:none" points="
  654.635,1434.17 654.635,1445.72 680.933,1445.72 680.933,1434.17 654.635,1434.17 
  "/>
<path clip-path="url(#clip172)" d="
M680.933 1432.52 L680.933 1445.72 L707.231 1445.72 L707.231 1432.52 L680.933 1432.52 L680.933 1432.52  Z
  " fill="#009af9" fill-rule="evenodd" fill-opacity="1"/>
<polyline clip-path="url(#clip172)" style="stroke:#000000; stroke-width:4; stroke-opacity:1; fill:none" points="
  680.933,1432.52 680.933,1445.72 707.231,1445.72 707.231,1432.52 680.933,1432.52 
  "/>
<path clip-path="url(#clip172)" d="
M707.231 1424.27 L707.231 1445.72 L733.528 1445.72 L733.528 1424.27 L707.231 1424.27 L707.231 1424.27  Z
  " fill="#009af9" fill-rule="evenodd" fill-opacity="1"/>
<polyline clip-path="url(#clip172)" style="stroke:#000000; stroke-width:4; stroke-opacity:1; fill:none" points="
  707.231,1424.27 707.231,1445.72 733.528,1445.72 733.528,1424.27 707.231,1424.27 
  "/>
<path clip-path="url(#clip172)" d="
M733.528 1406.12 L733.528 1445.72 L759.826 1445.72 L759.826 1406.12 L733.528 1406.12 L733.528 1406.12  Z
  " fill="#009af9" fill-rule="evenodd" fill-opacity="1"/>
<polyline clip-path="url(#clip172)" style="stroke:#000000; stroke-width:4; stroke-opacity:1; fill:none" points="
  733.528,1406.12 733.528,1445.72 759.826,1445.72 759.826,1406.12 733.528,1406.12 
  "/>
<path clip-path="url(#clip172)" d="
M759.826 1425.92 L759.826 1445.72 L786.123 1445.72 L786.123 1425.92 L759.826 1425.92 L759.826 1425.92  Z
  " fill="#009af9" fill-rule="evenodd" fill-opacity="1"/>
<polyline clip-path="url(#clip172)" style="stroke:#000000; stroke-width:4; stroke-opacity:1; fill:none" points="
  759.826,1425.92 759.826,1445.72 786.123,1445.72 786.123,1425.92 759.826,1425.92 
  "/>
<path clip-path="url(#clip172)" d="
M786.123 1414.37 L786.123 1445.72 L812.421 1445.72 L812.421 1414.37 L786.123 1414.37 L786.123 1414.37  Z
  " fill="#009af9" fill-rule="evenodd" fill-opacity="1"/>
<polyline clip-path="url(#clip172)" style="stroke:#000000; stroke-width:4; stroke-opacity:1; fill:none" points="
  786.123,1414.37 786.123,1445.72 812.421,1445.72 812.421,1414.37 786.123,1414.37 
  "/>
<path clip-path="url(#clip172)" d="
M812.421 1404.47 L812.421 1445.72 L838.719 1445.72 L838.719 1404.47 L812.421 1404.47 L812.421 1404.47  Z
  " fill="#009af9" fill-rule="evenodd" fill-opacity="1"/>
<polyline clip-path="url(#clip172)" style="stroke:#000000; stroke-width:4; stroke-opacity:1; fill:none" points="
  812.421,1404.47 812.421,1445.72 838.719,1445.72 838.719,1404.47 812.421,1404.47 
  "/>
<path clip-path="url(#clip172)" d="
M838.719 1397.87 L838.719 1445.72 L865.016 1445.72 L865.016 1397.87 L838.719 1397.87 L838.719 1397.87  Z
  " fill="#009af9" fill-rule="evenodd" fill-opacity="1"/>
<polyline clip-path="url(#clip172)" style="stroke:#000000; stroke-width:4; stroke-opacity:1; fill:none" points="
  838.719,1397.87 838.719,1445.72 865.016,1445.72 865.016,1397.87 838.719,1397.87 
  "/>
<path clip-path="url(#clip172)" d="
M865.016 1397.87 L865.016 1445.72 L891.314 1445.72 L891.314 1397.87 L865.016 1397.87 L865.016 1397.87  Z
  " fill="#009af9" fill-rule="evenodd" fill-opacity="1"/>
<polyline clip-path="url(#clip172)" style="stroke:#000000; stroke-width:4; stroke-opacity:1; fill:none" points="
  865.016,1397.87 865.016,1445.72 891.314,1445.72 891.314,1397.87 865.016,1397.87 
  "/>
<path clip-path="url(#clip172)" d="
M891.314 1378.08 L891.314 1445.72 L917.611 1445.72 L917.611 1378.08 L891.314 1378.08 L891.314 1378.08  Z
  " fill="#009af9" fill-rule="evenodd" fill-opacity="1"/>
<polyline clip-path="url(#clip172)" style="stroke:#000000; stroke-width:4; stroke-opacity:1; fill:none" points="
  891.314,1378.08 891.314,1445.72 917.611,1445.72 917.611,1378.08 891.314,1378.08 
  "/>
<path clip-path="url(#clip172)" d="
M917.611 1376.43 L917.611 1445.72 L943.909 1445.72 L943.909 1376.43 L917.611 1376.43 L917.611 1376.43  Z
  " fill="#009af9" fill-rule="evenodd" fill-opacity="1"/>
<polyline clip-path="url(#clip172)" style="stroke:#000000; stroke-width:4; stroke-opacity:1; fill:none" points="
  917.611,1376.43 917.611,1445.72 943.909,1445.72 943.909,1376.43 917.611,1376.43 
  "/>
<path clip-path="url(#clip172)" d="
M943.909 1356.63 L943.909 1445.72 L970.207 1445.72 L970.207 1356.63 L943.909 1356.63 L943.909 1356.63  Z
  " fill="#009af9" fill-rule="evenodd" fill-opacity="1"/>
<polyline clip-path="url(#clip172)" style="stroke:#000000; stroke-width:4; stroke-opacity:1; fill:none" points="
  943.909,1356.63 943.909,1445.72 970.207,1445.72 970.207,1356.63 943.909,1356.63 
  "/>
<path clip-path="url(#clip172)" d="
M970.207 1345.08 L970.207 1445.72 L996.504 1445.72 L996.504 1345.08 L970.207 1345.08 L970.207 1345.08  Z
  " fill="#009af9" fill-rule="evenodd" fill-opacity="1"/>
<polyline clip-path="url(#clip172)" style="stroke:#000000; stroke-width:4; stroke-opacity:1; fill:none" points="
  970.207,1345.08 970.207,1445.72 996.504,1445.72 996.504,1345.08 970.207,1345.08 
  "/>
<path clip-path="url(#clip172)" d="
M996.504 1340.13 L996.504 1445.72 L1022.8 1445.72 L1022.8 1340.13 L996.504 1340.13 L996.504 1340.13  Z
  " fill="#009af9" fill-rule="evenodd" fill-opacity="1"/>
<polyline clip-path="url(#clip172)" style="stroke:#000000; stroke-width:4; stroke-opacity:1; fill:none" points="
  996.504,1340.13 996.504,1445.72 1022.8,1445.72 1022.8,1340.13 996.504,1340.13 
  "/>
<path clip-path="url(#clip172)" d="
M1022.8 1300.54 L1022.8 1445.72 L1049.1 1445.72 L1049.1 1300.54 L1022.8 1300.54 L1022.8 1300.54  Z
  " fill="#009af9" fill-rule="evenodd" fill-opacity="1"/>
<polyline clip-path="url(#clip172)" style="stroke:#000000; stroke-width:4; stroke-opacity:1; fill:none" points="
  1022.8,1300.54 1022.8,1445.72 1049.1,1445.72 1049.1,1300.54 1022.8,1300.54 
  "/>
<path clip-path="url(#clip172)" d="
M1049.1 1307.14 L1049.1 1445.72 L1075.4 1445.72 L1075.4 1307.14 L1049.1 1307.14 L1049.1 1307.14  Z
  " fill="#009af9" fill-rule="evenodd" fill-opacity="1"/>
<polyline clip-path="url(#clip172)" style="stroke:#000000; stroke-width:4; stroke-opacity:1; fill:none" points="
  1049.1,1307.14 1049.1,1445.72 1075.4,1445.72 1075.4,1307.14 1049.1,1307.14 
  "/>
<path clip-path="url(#clip172)" d="
M1075.4 1297.24 L1075.4 1445.72 L1101.69 1445.72 L1101.69 1297.24 L1075.4 1297.24 L1075.4 1297.24  Z
  " fill="#009af9" fill-rule="evenodd" fill-opacity="1"/>
<polyline clip-path="url(#clip172)" style="stroke:#000000; stroke-width:4; stroke-opacity:1; fill:none" points="
  1075.4,1297.24 1075.4,1445.72 1101.69,1445.72 1101.69,1297.24 1075.4,1297.24 
  "/>
<path clip-path="url(#clip172)" d="
M1101.69 1328.58 L1101.69 1445.72 L1127.99 1445.72 L1127.99 1328.58 L1101.69 1328.58 L1101.69 1328.58  Z
  " fill="#009af9" fill-rule="evenodd" fill-opacity="1"/>
<polyline clip-path="url(#clip172)" style="stroke:#000000; stroke-width:4; stroke-opacity:1; fill:none" points="
  1101.69,1328.58 1101.69,1445.72 1127.99,1445.72 1127.99,1328.58 1101.69,1328.58 
  "/>
<path clip-path="url(#clip172)" d="
M1127.99 1277.44 L1127.99 1445.72 L1154.29 1445.72 L1154.29 1277.44 L1127.99 1277.44 L1127.99 1277.44  Z
  " fill="#009af9" fill-rule="evenodd" fill-opacity="1"/>
<polyline clip-path="url(#clip172)" style="stroke:#000000; stroke-width:4; stroke-opacity:1; fill:none" points="
  1127.99,1277.44 1127.99,1445.72 1154.29,1445.72 1154.29,1277.44 1127.99,1277.44 
  "/>
<path clip-path="url(#clip172)" d="
M1154.29 1232.9 L1154.29 1445.72 L1180.59 1445.72 L1180.59 1232.9 L1154.29 1232.9 L1154.29 1232.9  Z
  " fill="#009af9" fill-rule="evenodd" fill-opacity="1"/>
<polyline clip-path="url(#clip172)" style="stroke:#000000; stroke-width:4; stroke-opacity:1; fill:none" points="
  1154.29,1232.9 1154.29,1445.72 1180.59,1445.72 1180.59,1232.9 1154.29,1232.9 
  "/>
<path clip-path="url(#clip172)" d="
M1180.59 1264.24 L1180.59 1445.72 L1206.89 1445.72 L1206.89 1264.24 L1180.59 1264.24 L1180.59 1264.24  Z
  " fill="#009af9" fill-rule="evenodd" fill-opacity="1"/>
<polyline clip-path="url(#clip172)" style="stroke:#000000; stroke-width:4; stroke-opacity:1; fill:none" points="
  1180.59,1264.24 1180.59,1445.72 1206.89,1445.72 1206.89,1264.24 1180.59,1264.24 
  "/>
<path clip-path="url(#clip172)" d="
M1206.89 1244.45 L1206.89 1445.72 L1233.18 1445.72 L1233.18 1244.45 L1206.89 1244.45 L1206.89 1244.45  Z
  " fill="#009af9" fill-rule="evenodd" fill-opacity="1"/>
<polyline clip-path="url(#clip172)" style="stroke:#000000; stroke-width:4; stroke-opacity:1; fill:none" points="
  1206.89,1244.45 1206.89,1445.72 1233.18,1445.72 1233.18,1244.45 1206.89,1244.45 
  "/>
<path clip-path="url(#clip172)" d="
M1233.18 1262.59 L1233.18 1445.72 L1259.48 1445.72 L1259.48 1262.59 L1233.18 1262.59 L1233.18 1262.59  Z
  " fill="#009af9" fill-rule="evenodd" fill-opacity="1"/>
<polyline clip-path="url(#clip172)" style="stroke:#000000; stroke-width:4; stroke-opacity:1; fill:none" points="
  1233.18,1262.59 1233.18,1445.72 1259.48,1445.72 1259.48,1262.59 1233.18,1262.59 
  "/>
<path clip-path="url(#clip172)" d="
M1259.48 1232.9 L1259.48 1445.72 L1285.78 1445.72 L1285.78 1232.9 L1259.48 1232.9 L1259.48 1232.9  Z
  " fill="#009af9" fill-rule="evenodd" fill-opacity="1"/>
<polyline clip-path="url(#clip172)" style="stroke:#000000; stroke-width:4; stroke-opacity:1; fill:none" points="
  1259.48,1232.9 1259.48,1445.72 1285.78,1445.72 1285.78,1232.9 1259.48,1232.9 
  "/>
<path clip-path="url(#clip172)" d="
M1285.78 1249.4 L1285.78 1445.72 L1312.08 1445.72 L1312.08 1249.4 L1285.78 1249.4 L1285.78 1249.4  Z
  " fill="#009af9" fill-rule="evenodd" fill-opacity="1"/>
<polyline clip-path="url(#clip172)" style="stroke:#000000; stroke-width:4; stroke-opacity:1; fill:none" points="
  1285.78,1249.4 1285.78,1445.72 1312.08,1445.72 1312.08,1249.4 1285.78,1249.4 
  "/>
<path clip-path="url(#clip172)" d="
M1312.08 1237.85 L1312.08 1445.72 L1338.37 1445.72 L1338.37 1237.85 L1312.08 1237.85 L1312.08 1237.85  Z
  " fill="#009af9" fill-rule="evenodd" fill-opacity="1"/>
<polyline clip-path="url(#clip172)" style="stroke:#000000; stroke-width:4; stroke-opacity:1; fill:none" points="
  1312.08,1237.85 1312.08,1445.72 1338.37,1445.72 1338.37,1237.85 1312.08,1237.85 
  "/>
<path clip-path="url(#clip172)" d="
M1338.37 1196.6 L1338.37 1445.72 L1364.67 1445.72 L1364.67 1196.6 L1338.37 1196.6 L1338.37 1196.6  Z
  " fill="#009af9" fill-rule="evenodd" fill-opacity="1"/>
<polyline clip-path="url(#clip172)" style="stroke:#000000; stroke-width:4; stroke-opacity:1; fill:none" points="
  1338.37,1196.6 1338.37,1445.72 1364.67,1445.72 1364.67,1196.6 1338.37,1196.6 
  "/>
<path clip-path="url(#clip172)" d="
M1364.67 759.422 L1364.67 1445.72 L1390.97 1445.72 L1390.97 759.422 L1364.67 759.422 L1364.67 759.422  Z
  " fill="#009af9" fill-rule="evenodd" fill-opacity="1"/>
<polyline clip-path="url(#clip172)" style="stroke:#000000; stroke-width:4; stroke-opacity:1; fill:none" points="
  1364.67,759.422 1364.67,1445.72 1390.97,1445.72 1390.97,759.422 1364.67,759.422 
  "/>
<path clip-path="url(#clip172)" d="
M1390.97 175.413 L1390.97 1445.72 L1417.27 1445.72 L1417.27 175.413 L1390.97 175.413 L1390.97 175.413  Z
  " fill="#009af9" fill-rule="evenodd" fill-opacity="1"/>
<polyline clip-path="url(#clip172)" style="stroke:#000000; stroke-width:4; stroke-opacity:1; fill:none" points="
  1390.97,175.413 1390.97,1445.72 1417.27,1445.72 1417.27,175.413 1390.97,175.413 
  "/>
<path clip-path="url(#clip172)" d="
M1417.27 87.9763 L1417.27 1445.72 L1443.56 1445.72 L1443.56 87.9763 L1417.27 87.9763 L1417.27 87.9763  Z
  " fill="#009af9" fill-rule="evenodd" fill-opacity="1"/>
<polyline clip-path="url(#clip172)" style="stroke:#000000; stroke-width:4; stroke-opacity:1; fill:none" points="
  1417.27,87.9763 1417.27,1445.72 1443.56,1445.72 1443.56,87.9763 1417.27,87.9763 
  "/>
<path clip-path="url(#clip172)" d="
M1443.56 851.808 L1443.56 1445.72 L1469.86 1445.72 L1469.86 851.808 L1443.56 851.808 L1443.56 851.808  Z
  " fill="#009af9" fill-rule="evenodd" fill-opacity="1"/>
<polyline clip-path="url(#clip172)" style="stroke:#000000; stroke-width:4; stroke-opacity:1; fill:none" points="
  1443.56,851.808 1443.56,1445.72 1469.86,1445.72 1469.86,851.808 1443.56,851.808 
  "/>
<path clip-path="url(#clip172)" d="
M1469.86 1264.24 L1469.86 1445.72 L1496.16 1445.72 L1496.16 1264.24 L1469.86 1264.24 L1469.86 1264.24  Z
  " fill="#009af9" fill-rule="evenodd" fill-opacity="1"/>
<polyline clip-path="url(#clip172)" style="stroke:#000000; stroke-width:4; stroke-opacity:1; fill:none" points="
  1469.86,1264.24 1469.86,1445.72 1496.16,1445.72 1496.16,1264.24 1469.86,1264.24 
  "/>
<path clip-path="url(#clip172)" d="
M1496.16 1308.79 L1496.16 1445.72 L1522.46 1445.72 L1522.46 1308.79 L1496.16 1308.79 L1496.16 1308.79  Z
  " fill="#009af9" fill-rule="evenodd" fill-opacity="1"/>
<polyline clip-path="url(#clip172)" style="stroke:#000000; stroke-width:4; stroke-opacity:1; fill:none" points="
  1496.16,1308.79 1496.16,1445.72 1522.46,1445.72 1522.46,1308.79 1496.16,1308.79 
  "/>
<path clip-path="url(#clip172)" d="
M1522.46 1317.04 L1522.46 1445.72 L1548.75 1445.72 L1548.75 1317.04 L1522.46 1317.04 L1522.46 1317.04  Z
  " fill="#009af9" fill-rule="evenodd" fill-opacity="1"/>
<polyline clip-path="url(#clip172)" style="stroke:#000000; stroke-width:4; stroke-opacity:1; fill:none" points="
  1522.46,1317.04 1522.46,1445.72 1548.75,1445.72 1548.75,1317.04 1522.46,1317.04 
  "/>
<path clip-path="url(#clip172)" d="
M1548.75 1323.63 L1548.75 1445.72 L1575.05 1445.72 L1575.05 1323.63 L1548.75 1323.63 L1548.75 1323.63  Z
  " fill="#009af9" fill-rule="evenodd" fill-opacity="1"/>
<polyline clip-path="url(#clip172)" style="stroke:#000000; stroke-width:4; stroke-opacity:1; fill:none" points="
  1548.75,1323.63 1548.75,1445.72 1575.05,1445.72 1575.05,1323.63 1548.75,1323.63 
  "/>
<path clip-path="url(#clip172)" d="
M1575.05 1341.78 L1575.05 1445.72 L1601.35 1445.72 L1601.35 1341.78 L1575.05 1341.78 L1575.05 1341.78  Z
  " fill="#009af9" fill-rule="evenodd" fill-opacity="1"/>
<polyline clip-path="url(#clip172)" style="stroke:#000000; stroke-width:4; stroke-opacity:1; fill:none" points="
  1575.05,1341.78 1575.05,1445.72 1601.35,1445.72 1601.35,1341.78 1575.05,1341.78 
  "/>
<path clip-path="url(#clip172)" d="
M1601.35 1361.58 L1601.35 1445.72 L1627.65 1445.72 L1627.65 1361.58 L1601.35 1361.58 L1601.35 1361.58  Z
  " fill="#009af9" fill-rule="evenodd" fill-opacity="1"/>
<polyline clip-path="url(#clip172)" style="stroke:#000000; stroke-width:4; stroke-opacity:1; fill:none" points="
  1601.35,1361.58 1601.35,1445.72 1627.65,1445.72 1627.65,1361.58 1601.35,1361.58 
  "/>
<path clip-path="url(#clip172)" d="
M1627.65 1383.03 L1627.65 1445.72 L1653.94 1445.72 L1653.94 1383.03 L1627.65 1383.03 L1627.65 1383.03  Z
  " fill="#009af9" fill-rule="evenodd" fill-opacity="1"/>
<polyline clip-path="url(#clip172)" style="stroke:#000000; stroke-width:4; stroke-opacity:1; fill:none" points="
  1627.65,1383.03 1627.65,1445.72 1653.94,1445.72 1653.94,1383.03 1627.65,1383.03 
  "/>
<path clip-path="url(#clip172)" d="
M1653.94 1376.43 L1653.94 1445.72 L1680.24 1445.72 L1680.24 1376.43 L1653.94 1376.43 L1653.94 1376.43  Z
  " fill="#009af9" fill-rule="evenodd" fill-opacity="1"/>
<polyline clip-path="url(#clip172)" style="stroke:#000000; stroke-width:4; stroke-opacity:1; fill:none" points="
  1653.94,1376.43 1653.94,1445.72 1680.24,1445.72 1680.24,1376.43 1653.94,1376.43 
  "/>
<path clip-path="url(#clip172)" d="
M1680.24 1383.03 L1680.24 1445.72 L1706.54 1445.72 L1706.54 1383.03 L1680.24 1383.03 L1680.24 1383.03  Z
  " fill="#009af9" fill-rule="evenodd" fill-opacity="1"/>
<polyline clip-path="url(#clip172)" style="stroke:#000000; stroke-width:4; stroke-opacity:1; fill:none" points="
  1680.24,1383.03 1680.24,1445.72 1706.54,1445.72 1706.54,1383.03 1680.24,1383.03 
  "/>
<path clip-path="url(#clip172)" d="
M1706.54 1386.32 L1706.54 1445.72 L1732.84 1445.72 L1732.84 1386.32 L1706.54 1386.32 L1706.54 1386.32  Z
  " fill="#009af9" fill-rule="evenodd" fill-opacity="1"/>
<polyline clip-path="url(#clip172)" style="stroke:#000000; stroke-width:4; stroke-opacity:1; fill:none" points="
  1706.54,1386.32 1706.54,1445.72 1732.84,1445.72 1732.84,1386.32 1706.54,1386.32 
  "/>
<path clip-path="url(#clip172)" d="
M1732.84 1402.82 L1732.84 1445.72 L1759.13 1445.72 L1759.13 1402.82 L1732.84 1402.82 L1732.84 1402.82  Z
  " fill="#009af9" fill-rule="evenodd" fill-opacity="1"/>
<polyline clip-path="url(#clip172)" style="stroke:#000000; stroke-width:4; stroke-opacity:1; fill:none" points="
  1732.84,1402.82 1732.84,1445.72 1759.13,1445.72 1759.13,1402.82 1732.84,1402.82 
  "/>
<path clip-path="url(#clip172)" d="
M1759.13 1414.37 L1759.13 1445.72 L1785.43 1445.72 L1785.43 1414.37 L1759.13 1414.37 L1759.13 1414.37  Z
  " fill="#009af9" fill-rule="evenodd" fill-opacity="1"/>
<polyline clip-path="url(#clip172)" style="stroke:#000000; stroke-width:4; stroke-opacity:1; fill:none" points="
  1759.13,1414.37 1759.13,1445.72 1785.43,1445.72 1785.43,1414.37 1759.13,1414.37 
  "/>
<path clip-path="url(#clip172)" d="
M1785.43 1412.72 L1785.43 1445.72 L1811.73 1445.72 L1811.73 1412.72 L1785.43 1412.72 L1785.43 1412.72  Z
  " fill="#009af9" fill-rule="evenodd" fill-opacity="1"/>
<polyline clip-path="url(#clip172)" style="stroke:#000000; stroke-width:4; stroke-opacity:1; fill:none" points="
  1785.43,1412.72 1785.43,1445.72 1811.73,1445.72 1811.73,1412.72 1785.43,1412.72 
  "/>
<path clip-path="url(#clip172)" d="
M1811.73 1427.57 L1811.73 1445.72 L1838.03 1445.72 L1838.03 1427.57 L1811.73 1427.57 L1811.73 1427.57  Z
  " fill="#009af9" fill-rule="evenodd" fill-opacity="1"/>
<polyline clip-path="url(#clip172)" style="stroke:#000000; stroke-width:4; stroke-opacity:1; fill:none" points="
  1811.73,1427.57 1811.73,1445.72 1838.03,1445.72 1838.03,1427.57 1811.73,1427.57 
  "/>
<path clip-path="url(#clip172)" d="
M1838.03 1429.22 L1838.03 1445.72 L1864.33 1445.72 L1864.33 1429.22 L1838.03 1429.22 L1838.03 1429.22  Z
  " fill="#009af9" fill-rule="evenodd" fill-opacity="1"/>
<polyline clip-path="url(#clip172)" style="stroke:#000000; stroke-width:4; stroke-opacity:1; fill:none" points="
  1838.03,1429.22 1838.03,1445.72 1864.33,1445.72 1864.33,1429.22 1838.03,1429.22 
  "/>
<path clip-path="url(#clip172)" d="
M1864.33 1429.22 L1864.33 1445.72 L1890.62 1445.72 L1890.62 1429.22 L1864.33 1429.22 L1864.33 1429.22  Z
  " fill="#009af9" fill-rule="evenodd" fill-opacity="1"/>
<polyline clip-path="url(#clip172)" style="stroke:#000000; stroke-width:4; stroke-opacity:1; fill:none" points="
  1864.33,1429.22 1864.33,1445.72 1890.62,1445.72 1890.62,1429.22 1864.33,1429.22 
  "/>
<path clip-path="url(#clip172)" d="
M1890.62 1434.17 L1890.62 1445.72 L1916.92 1445.72 L1916.92 1434.17 L1890.62 1434.17 L1890.62 1434.17  Z
  " fill="#009af9" fill-rule="evenodd" fill-opacity="1"/>
<polyline clip-path="url(#clip172)" style="stroke:#000000; stroke-width:4; stroke-opacity:1; fill:none" points="
  1890.62,1434.17 1890.62,1445.72 1916.92,1445.72 1916.92,1434.17 1890.62,1434.17 
  "/>
<path clip-path="url(#clip172)" d="
M1916.92 1435.82 L1916.92 1445.72 L1943.22 1445.72 L1943.22 1435.82 L1916.92 1435.82 L1916.92 1435.82  Z
  " fill="#009af9" fill-rule="evenodd" fill-opacity="1"/>
<polyline clip-path="url(#clip172)" style="stroke:#000000; stroke-width:4; stroke-opacity:1; fill:none" points="
  1916.92,1435.82 1916.92,1445.72 1943.22,1445.72 1943.22,1435.82 1916.92,1435.82 
  "/>
<path clip-path="url(#clip172)" d="
M1943.22 1435.82 L1943.22 1445.72 L1969.52 1445.72 L1969.52 1435.82 L1943.22 1435.82 L1943.22 1435.82  Z
  " fill="#009af9" fill-rule="evenodd" fill-opacity="1"/>
<polyline clip-path="url(#clip172)" style="stroke:#000000; stroke-width:4; stroke-opacity:1; fill:none" points="
  1943.22,1435.82 1943.22,1445.72 1969.52,1445.72 1969.52,1435.82 1943.22,1435.82 
  "/>
<path clip-path="url(#clip172)" d="
M1969.52 1440.77 L1969.52 1445.72 L1995.81 1445.72 L1995.81 1440.77 L1969.52 1440.77 L1969.52 1440.77  Z
  " fill="#009af9" fill-rule="evenodd" fill-opacity="1"/>
<polyline clip-path="url(#clip172)" style="stroke:#000000; stroke-width:4; stroke-opacity:1; fill:none" points="
  1969.52,1440.77 1969.52,1445.72 1995.81,1445.72 1995.81,1440.77 1969.52,1440.77 
  "/>
<path clip-path="url(#clip172)" d="
M1995.81 1440.77 L1995.81 1445.72 L2022.11 1445.72 L2022.11 1440.77 L1995.81 1440.77 L1995.81 1440.77  Z
  " fill="#009af9" fill-rule="evenodd" fill-opacity="1"/>
<polyline clip-path="url(#clip172)" style="stroke:#000000; stroke-width:4; stroke-opacity:1; fill:none" points="
  1995.81,1440.77 1995.81,1445.72 2022.11,1445.72 2022.11,1440.77 1995.81,1440.77 
  "/>
<path clip-path="url(#clip172)" d="
M2022.11 1444.07 L2022.11 1445.72 L2048.41 1445.72 L2048.41 1444.07 L2022.11 1444.07 L2022.11 1444.07  Z
  " fill="#009af9" fill-rule="evenodd" fill-opacity="1"/>
<polyline clip-path="url(#clip172)" style="stroke:#000000; stroke-width:4; stroke-opacity:1; fill:none" points="
  2022.11,1444.07 2022.11,1445.72 2048.41,1445.72 2048.41,1444.07 2022.11,1444.07 
  "/>
<path clip-path="url(#clip172)" d="
M2048.41 1442.42 L2048.41 1445.72 L2074.71 1445.72 L2074.71 1442.42 L2048.41 1442.42 L2048.41 1442.42  Z
  " fill="#009af9" fill-rule="evenodd" fill-opacity="1"/>
<polyline clip-path="url(#clip172)" style="stroke:#000000; stroke-width:4; stroke-opacity:1; fill:none" points="
  2048.41,1442.42 2048.41,1445.72 2074.71,1445.72 2074.71,1442.42 2048.41,1442.42 
  "/>
<path clip-path="url(#clip172)" d="
M2074.71 1440.77 L2074.71 1445.72 L2101 1445.72 L2101 1440.77 L2074.71 1440.77 L2074.71 1440.77  Z
  " fill="#009af9" fill-rule="evenodd" fill-opacity="1"/>
<polyline clip-path="url(#clip172)" style="stroke:#000000; stroke-width:4; stroke-opacity:1; fill:none" points="
  2074.71,1440.77 2074.71,1445.72 2101,1445.72 2101,1440.77 2074.71,1440.77 
  "/>
<path clip-path="url(#clip172)" d="
M2101 1442.42 L2101 1445.72 L2127.3 1445.72 L2127.3 1442.42 L2101 1442.42 L2101 1442.42  Z
  " fill="#009af9" fill-rule="evenodd" fill-opacity="1"/>
<polyline clip-path="url(#clip172)" style="stroke:#000000; stroke-width:4; stroke-opacity:1; fill:none" points="
  2101,1442.42 2101,1445.72 2127.3,1445.72 2127.3,1442.42 2101,1442.42 
  "/>
<path clip-path="url(#clip172)" d="
M2127.3 1444.07 L2127.3 1445.72 L2153.6 1445.72 L2153.6 1444.07 L2127.3 1444.07 L2127.3 1444.07  Z
  " fill="#009af9" fill-rule="evenodd" fill-opacity="1"/>
<polyline clip-path="url(#clip172)" style="stroke:#000000; stroke-width:4; stroke-opacity:1; fill:none" points="
  2127.3,1444.07 2127.3,1445.72 2153.6,1445.72 2153.6,1444.07 2127.3,1444.07 
  "/>
<path clip-path="url(#clip172)" d="
M2153.6 1445.72 L2153.6 1445.72 L2179.9 1445.72 L2179.9 1445.72 L2153.6 1445.72 L2153.6 1445.72  Z
  " fill="#009af9" fill-rule="evenodd" fill-opacity="1"/>
<polyline clip-path="url(#clip172)" style="stroke:#000000; stroke-width:4; stroke-opacity:1; fill:none" points="
  2153.6,1445.72 2153.6,1445.72 2179.9,1445.72 2153.6,1445.72 
  "/>
<path clip-path="url(#clip172)" d="
M2179.9 1445.72 L2179.9 1445.72 L2206.19 1445.72 L2206.19 1445.72 L2179.9 1445.72 L2179.9 1445.72  Z
  " fill="#009af9" fill-rule="evenodd" fill-opacity="1"/>
<polyline clip-path="url(#clip172)" style="stroke:#000000; stroke-width:4; stroke-opacity:1; fill:none" points="
  2179.9,1445.72 2179.9,1445.72 2206.19,1445.72 2179.9,1445.72 
  "/>
<path clip-path="url(#clip172)" d="
M2206.19 1444.07 L2206.19 1445.72 L2232.49 1445.72 L2232.49 1444.07 L2206.19 1444.07 L2206.19 1444.07  Z
  " fill="#009af9" fill-rule="evenodd" fill-opacity="1"/>
<polyline clip-path="url(#clip172)" style="stroke:#000000; stroke-width:4; stroke-opacity:1; fill:none" points="
  2206.19,1444.07 2206.19,1445.72 2232.49,1445.72 2232.49,1444.07 2206.19,1444.07 
  "/>
<path clip-path="url(#clip170)" d="
M1989.74 251.724 L2280.76 251.724 L2280.76 130.764 L1989.74 130.764  Z
  " fill="#ffffff" fill-rule="evenodd" fill-opacity="1"/>
<polyline clip-path="url(#clip170)" style="stroke:#000000; stroke-width:4; stroke-opacity:1; fill:none" points="
  1989.74,251.724 2280.76,251.724 2280.76,130.764 1989.74,130.764 1989.74,251.724 
  "/>
<path clip-path="url(#clip170)" d="
M2013.74 215.436 L2157.74 215.436 L2157.74 167.052 L2013.74 167.052 L2013.74 215.436  Z
  " fill="#009af9" fill-rule="evenodd" fill-opacity="1"/>
<polyline clip-path="url(#clip170)" style="stroke:#000000; stroke-width:4; stroke-opacity:1; fill:none" points="
  2013.74,215.436 2157.74,215.436 2157.74,167.052 2013.74,167.052 2013.74,215.436 
  "/>
<path clip-path="url(#clip170)" d="M 0 0 M2195.58 210.931 Q2193.77 215.561 2192.06 216.973 Q2190.35 218.385 2187.48 218.385 L2184.08 218.385 L2184.08 214.82 L2186.58 214.82 Q2188.33 214.82 2189.31 213.987 Q2190.28 213.154 2191.46 210.052 L2192.22 208.107 L2181.74 182.598 L2186.25 182.598 L2194.35 202.876 L2202.46 182.598 L2206.97 182.598 L2195.58 210.931 Z" fill="#000000" fill-rule="evenodd" fill-opacity="1" /><path clip-path="url(#clip170)" d="M 0 0 M2212.85 204.589 L2220.49 204.589 L2220.49 178.223 L2212.18 179.89 L2212.18 175.631 L2220.44 173.964 L2225.12 173.964 L2225.12 204.589 L2232.76 204.589 L2232.76 208.524 L2212.85 208.524 L2212.85 204.589 Z" fill="#000000" fill-rule="evenodd" fill-opacity="1" /></svg>
