<?xml version="1.0" encoding="utf-8"?>
<svg xmlns="http://www.w3.org/2000/svg" xmlns:xlink="http://www.w3.org/1999/xlink" width="600" height="400" viewBox="0 0 2400 1600">
<defs>
  <clipPath id="clip360">
    <rect x="0" y="0" width="2400" height="1600"/>
  </clipPath>
</defs>
<path clip-path="url(#clip360)" d="
M0 1600 L2400 1600 L2400 0 L0 0  Z
  " fill="#ffffff" fill-rule="evenodd" fill-opacity="1"/>
<defs>
  <clipPath id="clip361">
    <rect x="480" y="0" width="1681" height="1600"/>
  </clipPath>
</defs>
<path clip-path="url(#clip360)" d="
M166.205 1486.45 L2352.76 1486.45 L2352.76 47.2441 L166.205 47.2441  Z
  " fill="#ffffff" fill-rule="evenodd" fill-opacity="1"/>
<defs>
  <clipPath id="clip362">
    <rect x="166" y="47" width="2188" height="1440"/>
  </clipPath>
</defs>
<polyline clip-path="url(#clip362)" style="stroke:#000000; stroke-width:2; stroke-opacity:0.1; fill:none" points="
  446.416,1486.45 446.416,47.2441 
  "/>
<polyline clip-path="url(#clip362)" style="stroke:#000000; stroke-width:2; stroke-opacity:0.1; fill:none" points="
  846.284,1486.45 846.284,47.2441 
  "/>
<polyline clip-path="url(#clip362)" style="stroke:#000000; stroke-width:2; stroke-opacity:0.1; fill:none" points="
  1246.15,1486.45 1246.15,47.2441 
  "/>
<polyline clip-path="url(#clip362)" style="stroke:#000000; stroke-width:2; stroke-opacity:0.1; fill:none" points="
  1646.02,1486.45 1646.02,47.2441 
  "/>
<polyline clip-path="url(#clip362)" style="stroke:#000000; stroke-width:2; stroke-opacity:0.1; fill:none" points="
  2045.89,1486.45 2045.89,47.2441 
  "/>
<polyline clip-path="url(#clip362)" style="stroke:#000000; stroke-width:2; stroke-opacity:0.1; fill:none" points="
  166.205,1445.72 2352.76,1445.72 
  "/>
<polyline clip-path="url(#clip362)" style="stroke:#000000; stroke-width:2; stroke-opacity:0.1; fill:none" points="
  166.205,1112.94 2352.76,1112.94 
  "/>
<polyline clip-path="url(#clip362)" style="stroke:#000000; stroke-width:2; stroke-opacity:0.1; fill:none" points="
  166.205,780.157 2352.76,780.157 
  "/>
<polyline clip-path="url(#clip362)" style="stroke:#000000; stroke-width:2; stroke-opacity:0.1; fill:none" points="
  166.205,447.378 2352.76,447.378 
  "/>
<polyline clip-path="url(#clip362)" style="stroke:#000000; stroke-width:2; stroke-opacity:0.1; fill:none" points="
  166.205,114.599 2352.76,114.599 
  "/>
<polyline clip-path="url(#clip360)" style="stroke:#000000; stroke-width:4; stroke-opacity:1; fill:none" points="
  166.205,1486.45 2352.76,1486.45 
  "/>
<polyline clip-path="url(#clip360)" style="stroke:#000000; stroke-width:4; stroke-opacity:1; fill:none" points="
  166.205,1486.45 166.205,47.2441 
  "/>
<polyline clip-path="url(#clip360)" style="stroke:#000000; stroke-width:4; stroke-opacity:1; fill:none" points="
  446.416,1486.45 446.416,1469.18 
  "/>
<polyline clip-path="url(#clip360)" style="stroke:#000000; stroke-width:4; stroke-opacity:1; fill:none" points="
  846.284,1486.45 846.284,1469.18 
  "/>
<polyline clip-path="url(#clip360)" style="stroke:#000000; stroke-width:4; stroke-opacity:1; fill:none" points="
  1246.15,1486.45 1246.15,1469.18 
  "/>
<polyline clip-path="url(#clip360)" style="stroke:#000000; stroke-width:4; stroke-opacity:1; fill:none" points="
  1646.02,1486.45 1646.02,1469.18 
  "/>
<polyline clip-path="url(#clip360)" style="stroke:#000000; stroke-width:4; stroke-opacity:1; fill:none" points="
  2045.89,1486.45 2045.89,1469.18 
  "/>
<polyline clip-path="url(#clip360)" style="stroke:#000000; stroke-width:4; stroke-opacity:1; fill:none" points="
  166.205,1445.72 192.443,1445.72 
  "/>
<polyline clip-path="url(#clip360)" style="stroke:#000000; stroke-width:4; stroke-opacity:1; fill:none" points="
  166.205,1112.94 192.443,1112.94 
  "/>
<polyline clip-path="url(#clip360)" style="stroke:#000000; stroke-width:4; stroke-opacity:1; fill:none" points="
  166.205,780.157 192.443,780.157 
  "/>
<polyline clip-path="url(#clip360)" style="stroke:#000000; stroke-width:4; stroke-opacity:1; fill:none" points="
  166.205,447.378 192.443,447.378 
  "/>
<polyline clip-path="url(#clip360)" style="stroke:#000000; stroke-width:4; stroke-opacity:1; fill:none" points="
  166.205,114.599 192.443,114.599 
  "/>
<path clip-path="url(#clip360)" d="M 0 0 M426.59 1525.04 L439.066 1525.04 L439.066 1528.83 L426.59 1528.83 L426.59 1525.04 Z" fill="#000000" fill-rule="evenodd" fill-opacity="1" /><path clip-path="url(#clip360)" d="M 0 0 M454.715 1520.78 Q451.566 1520.78 449.715 1522.93 Q447.886 1525.08 447.886 1528.83 Q447.886 1532.56 449.715 1534.73 Q451.566 1536.89 454.715 1536.89 Q457.863 1536.89 459.691 1534.73 Q461.543 1532.56 461.543 1528.83 Q461.543 1525.08 459.691 1522.93 Q457.863 1520.78 454.715 1520.78 M463.997 1506.12 L463.997 1510.38 Q462.238 1509.55 460.432 1509.11 Q458.65 1508.67 456.89 1508.67 Q452.261 1508.67 449.807 1511.8 Q447.377 1514.92 447.029 1521.24 Q448.395 1519.23 450.455 1518.16 Q452.515 1517.07 454.992 1517.07 Q460.201 1517.07 463.21 1520.24 Q466.242 1523.39 466.242 1528.83 Q466.242 1534.16 463.094 1537.37 Q459.946 1540.59 454.715 1540.59 Q448.719 1540.59 445.548 1536.01 Q442.377 1531.4 442.377 1522.67 Q442.377 1514.48 446.265 1509.62 Q450.154 1504.73 456.705 1504.73 Q458.465 1504.73 460.247 1505.08 Q462.052 1505.43 463.997 1506.12 Z" fill="#000000" fill-rule="evenodd" fill-opacity="1" /><path clip-path="url(#clip360)" d="M 0 0 M826.862 1525.04 L839.339 1525.04 L839.339 1528.83 L826.862 1528.83 L826.862 1525.04 Z" fill="#000000" fill-rule="evenodd" fill-opacity="1" /><path clip-path="url(#clip360)" d="M 0 0 M858.575 1521.29 Q861.932 1522 863.807 1524.27 Q865.705 1526.54 865.705 1529.87 Q865.705 1534.99 862.186 1537.79 Q858.668 1540.59 852.186 1540.59 Q850.01 1540.59 847.696 1540.15 Q845.404 1539.73 842.95 1538.88 L842.95 1534.36 Q844.895 1535.5 847.21 1536.08 Q849.524 1536.66 852.048 1536.66 Q856.446 1536.66 858.737 1534.92 Q861.052 1533.18 861.052 1529.87 Q861.052 1526.82 858.899 1525.11 Q856.77 1523.37 852.95 1523.37 L848.923 1523.37 L848.923 1519.53 L853.135 1519.53 Q856.585 1519.53 858.413 1518.16 Q860.242 1516.77 860.242 1514.18 Q860.242 1511.52 858.344 1510.11 Q856.469 1508.67 852.95 1508.67 Q851.029 1508.67 848.83 1509.09 Q846.631 1509.5 843.992 1510.38 L843.992 1506.22 Q846.654 1505.48 848.969 1505.11 Q851.307 1504.73 853.367 1504.73 Q858.691 1504.73 861.793 1507.17 Q864.895 1509.57 864.895 1513.69 Q864.895 1516.56 863.251 1518.55 Q861.608 1520.52 858.575 1521.29 Z" fill="#000000" fill-rule="evenodd" fill-opacity="1" /><path clip-path="url(#clip360)" d="M 0 0 M1246.15 1508.44 Q1242.54 1508.44 1240.71 1512 Q1238.91 1515.55 1238.91 1522.67 Q1238.91 1529.78 1240.71 1533.35 Q1242.54 1536.89 1246.15 1536.89 Q1249.79 1536.89 1251.59 1533.35 Q1253.42 1529.78 1253.42 1522.67 Q1253.42 1515.55 1251.59 1512 Q1249.79 1508.44 1246.15 1508.44 M1246.15 1504.73 Q1251.96 1504.73 1255.02 1509.34 Q1258.1 1513.92 1258.1 1522.67 Q1258.1 1531.4 1255.02 1536.01 Q1251.96 1540.59 1246.15 1540.59 Q1240.34 1540.59 1237.26 1536.01 Q1234.21 1531.4 1234.21 1522.67 Q1234.21 1513.92 1237.26 1509.34 Q1240.34 1504.73 1246.15 1504.73 Z" fill="#000000" fill-rule="evenodd" fill-opacity="1" /><path clip-path="url(#clip360)" d="M 0 0 M1650.27 1521.29 Q1653.62 1522 1655.5 1524.27 Q1657.4 1526.54 1657.4 1529.87 Q1657.4 1534.99 1653.88 1537.79 Q1650.36 1540.59 1643.88 1540.59 Q1641.7 1540.59 1639.39 1540.15 Q1637.1 1539.73 1634.64 1538.88 L1634.64 1534.36 Q1636.59 1535.5 1638.9 1536.08 Q1641.22 1536.66 1643.74 1536.66 Q1648.14 1536.66 1650.43 1534.92 Q1652.74 1533.18 1652.74 1529.87 Q1652.74 1526.82 1650.59 1525.11 Q1648.46 1523.37 1644.64 1523.37 L1640.61 1523.37 L1640.61 1519.53 L1644.83 1519.53 Q1648.28 1519.53 1650.1 1518.16 Q1651.93 1516.77 1651.93 1514.18 Q1651.93 1511.52 1650.04 1510.11 Q1648.16 1508.67 1644.64 1508.67 Q1642.72 1508.67 1640.52 1509.09 Q1638.32 1509.5 1635.68 1510.38 L1635.68 1506.22 Q1638.35 1505.48 1640.66 1505.11 Q1643 1504.73 1645.06 1504.73 Q1650.38 1504.73 1653.48 1507.17 Q1656.59 1509.57 1656.59 1513.69 Q1656.59 1516.56 1654.94 1518.55 Q1653.3 1520.52 1650.27 1521.29 Z" fill="#000000" fill-rule="evenodd" fill-opacity="1" /><path clip-path="url(#clip360)" d="M 0 0 M2046.29 1520.78 Q2043.14 1520.78 2041.29 1522.93 Q2039.46 1525.08 2039.46 1528.83 Q2039.46 1532.56 2041.29 1534.73 Q2043.14 1536.89 2046.29 1536.89 Q2049.44 1536.89 2051.27 1534.73 Q2053.12 1532.56 2053.12 1528.83 Q2053.12 1525.08 2051.27 1522.93 Q2049.44 1520.78 2046.29 1520.78 M2055.57 1506.12 L2055.57 1510.38 Q2053.81 1509.55 2052.01 1509.11 Q2050.23 1508.67 2048.47 1508.67 Q2043.84 1508.67 2041.38 1511.8 Q2038.95 1514.92 2038.61 1521.24 Q2039.97 1519.23 2042.03 1518.16 Q2044.09 1517.07 2046.57 1517.07 Q2051.78 1517.07 2054.79 1520.24 Q2057.82 1523.39 2057.82 1528.83 Q2057.82 1534.16 2054.67 1537.37 Q2051.52 1540.59 2046.29 1540.59 Q2040.3 1540.59 2037.13 1536.01 Q2033.95 1531.4 2033.95 1522.67 Q2033.95 1514.48 2037.84 1509.62 Q2041.73 1504.73 2048.28 1504.73 Q2050.04 1504.73 2051.82 1505.08 Q2053.63 1505.43 2055.57 1506.12 Z" fill="#000000" fill-rule="evenodd" fill-opacity="1" /><path clip-path="url(#clip360)" d="M 0 0 M130.26 1431.51 Q126.649 1431.51 124.82 1435.08 Q123.015 1438.62 123.015 1445.75 Q123.015 1452.86 124.82 1456.42 Q126.649 1459.96 130.26 1459.96 Q133.895 1459.96 135.7 1456.42 Q137.529 1452.86 137.529 1445.75 Q137.529 1438.62 135.7 1435.08 Q133.895 1431.51 130.26 1431.51 M130.26 1427.81 Q136.07 1427.81 139.126 1432.42 Q142.205 1437 142.205 1445.75 Q142.205 1454.48 139.126 1459.08 Q136.07 1463.67 130.26 1463.67 Q124.45 1463.67 121.371 1459.08 Q118.316 1454.48 118.316 1445.75 Q118.316 1437 121.371 1432.42 Q124.45 1427.81 130.26 1427.81 Z" fill="#000000" fill-rule="evenodd" fill-opacity="1" /><path clip-path="url(#clip360)" d="M 0 0 M71.8578 1126.28 L88.1772 1126.28 L88.1772 1130.22 L66.2328 1130.22 L66.2328 1126.28 Q68.8949 1123.53 73.4782 1118.9 Q78.0846 1114.24 79.2652 1112.9 Q81.5105 1110.38 82.3902 1108.64 Q83.2929 1106.88 83.2929 1105.19 Q83.2929 1102.44 81.3485 1100.7 Q79.4272 1098.97 76.3254 1098.97 Q74.1263 1098.97 71.6726 1099.73 Q69.2421 1100.49 66.4643 1102.05 L66.4643 1097.32 Q69.2884 1096.19 71.7421 1095.61 Q74.1958 1095.03 76.2328 1095.03 Q81.6031 1095.03 84.7976 1097.72 Q87.992 1100.4 87.992 1104.89 Q87.992 1107.02 87.1818 1108.94 Q86.3948 1110.84 84.2883 1113.43 Q83.7096 1114.11 80.6078 1117.32 Q77.5059 1120.52 71.8578 1126.28 Z" fill="#000000" fill-rule="evenodd" fill-opacity="1" /><path clip-path="url(#clip360)" d="M 0 0 M103.247 1098.74 Q99.6354 1098.74 97.8068 1102.3 Q96.0012 1105.84 96.0012 1112.97 Q96.0012 1120.08 97.8068 1123.64 Q99.6354 1127.18 103.247 1127.18 Q106.881 1127.18 108.686 1123.64 Q110.515 1120.08 110.515 1112.97 Q110.515 1105.84 108.686 1102.3 Q106.881 1098.74 103.247 1098.74 M103.247 1095.03 Q109.057 1095.03 112.112 1099.64 Q115.191 1104.22 115.191 1112.97 Q115.191 1121.7 112.112 1126.3 Q109.057 1130.89 103.247 1130.89 Q97.4364 1130.89 94.3577 1126.3 Q91.3022 1121.7 91.3022 1112.97 Q91.3022 1104.22 94.3577 1099.64 Q97.4364 1095.03 103.247 1095.03 Z" fill="#000000" fill-rule="evenodd" fill-opacity="1" /><path clip-path="url(#clip360)" d="M 0 0 M130.26 1098.74 Q126.649 1098.74 124.82 1102.3 Q123.015 1105.84 123.015 1112.97 Q123.015 1120.08 124.82 1123.64 Q126.649 1127.18 130.26 1127.18 Q133.895 1127.18 135.7 1123.64 Q137.529 1120.08 137.529 1112.97 Q137.529 1105.84 135.7 1102.3 Q133.895 1098.74 130.26 1098.74 M130.26 1095.03 Q136.07 1095.03 139.126 1099.64 Q142.205 1104.22 142.205 1112.97 Q142.205 1121.7 139.126 1126.3 Q136.07 1130.89 130.26 1130.89 Q124.45 1130.89 121.371 1126.3 Q118.316 1121.7 118.316 1112.97 Q118.316 1104.22 121.371 1099.64 Q124.45 1095.03 130.26 1095.03 Z" fill="#000000" fill-rule="evenodd" fill-opacity="1" /><path clip-path="url(#clip360)" d="M 0 0 M78.5939 766.951 L66.7884 785.4 L78.5939 785.4 L78.5939 766.951 M77.367 762.877 L83.2466 762.877 L83.2466 785.4 L88.1772 785.4 L88.1772 789.289 L83.2466 789.289 L83.2466 797.437 L78.5939 797.437 L78.5939 789.289 L62.9921 789.289 L62.9921 784.775 L77.367 762.877 Z" fill="#000000" fill-rule="evenodd" fill-opacity="1" /><path clip-path="url(#clip360)" d="M 0 0 M103.247 765.956 Q99.6354 765.956 97.8068 769.521 Q96.0012 773.062 96.0012 780.192 Q96.0012 787.298 97.8068 790.863 Q99.6354 794.405 103.247 794.405 Q106.881 794.405 108.686 790.863 Q110.515 787.298 110.515 780.192 Q110.515 773.062 108.686 769.521 Q106.881 765.956 103.247 765.956 M103.247 762.252 Q109.057 762.252 112.112 766.859 Q115.191 771.442 115.191 780.192 Q115.191 788.919 112.112 793.525 Q109.057 798.108 103.247 798.108 Q97.4364 798.108 94.3577 793.525 Q91.3022 788.919 91.3022 780.192 Q91.3022 771.442 94.3577 766.859 Q97.4364 762.252 103.247 762.252 Z" fill="#000000" fill-rule="evenodd" fill-opacity="1" /><path clip-path="url(#clip360)" d="M 0 0 M130.26 765.956 Q126.649 765.956 124.82 769.521 Q123.015 773.062 123.015 780.192 Q123.015 787.298 124.82 790.863 Q126.649 794.405 130.26 794.405 Q133.895 794.405 135.7 790.863 Q137.529 787.298 137.529 780.192 Q137.529 773.062 135.7 769.521 Q133.895 765.956 130.26 765.956 M130.26 762.252 Q136.07 762.252 139.126 766.859 Q142.205 771.442 142.205 780.192 Q142.205 788.919 139.126 793.525 Q136.07 798.108 130.26 798.108 Q124.45 798.108 121.371 793.525 Q118.316 788.919 118.316 780.192 Q118.316 771.442 121.371 766.859 Q124.45 762.252 130.26 762.252 Z" fill="#000000" fill-rule="evenodd" fill-opacity="1" /><path clip-path="url(#clip360)" d="M 0 0 M76.6495 445.514 Q73.5013 445.514 71.6495 447.667 Q69.8208 449.82 69.8208 453.57 Q69.8208 457.297 71.6495 459.473 Q73.5013 461.625 76.6495 461.625 Q79.7976 461.625 81.6263 459.473 Q83.4781 457.297 83.4781 453.57 Q83.4781 449.82 81.6263 447.667 Q79.7976 445.514 76.6495 445.514 M85.9318 430.862 L85.9318 435.121 Q84.1726 434.288 82.367 433.848 Q80.5846 433.408 78.8254 433.408 Q74.1958 433.408 71.7421 436.533 Q69.3115 439.658 68.9643 445.977 Q70.33 443.964 72.3902 442.899 Q74.4504 441.811 76.9272 441.811 Q82.1355 441.811 85.1448 444.982 Q88.1772 448.13 88.1772 453.57 Q88.1772 458.894 85.029 462.112 Q81.8809 465.329 76.6495 465.329 Q70.6541 465.329 67.4828 460.746 Q64.3116 456.139 64.3116 447.413 Q64.3116 439.218 68.2004 434.357 Q72.0893 429.473 78.6402 429.473 Q80.3994 429.473 82.1818 429.82 Q83.9874 430.167 85.9318 430.862 Z" fill="#000000" fill-rule="evenodd" fill-opacity="1" /><path clip-path="url(#clip360)" d="M 0 0 M103.247 433.177 Q99.6354 433.177 97.8068 436.741 Q96.0012 440.283 96.0012 447.413 Q96.0012 454.519 97.8068 458.084 Q99.6354 461.625 103.247 461.625 Q106.881 461.625 108.686 458.084 Q110.515 454.519 110.515 447.413 Q110.515 440.283 108.686 436.741 Q106.881 433.177 103.247 433.177 M103.247 429.473 Q109.057 429.473 112.112 434.079 Q115.191 438.663 115.191 447.413 Q115.191 456.139 112.112 460.746 Q109.057 465.329 103.247 465.329 Q97.4364 465.329 94.3577 460.746 Q91.3022 456.139 91.3022 447.413 Q91.3022 438.663 94.3577 434.079 Q97.4364 429.473 103.247 429.473 Z" fill="#000000" fill-rule="evenodd" fill-opacity="1" /><path clip-path="url(#clip360)" d="M 0 0 M130.26 433.177 Q126.649 433.177 124.82 436.741 Q123.015 440.283 123.015 447.413 Q123.015 454.519 124.82 458.084 Q126.649 461.625 130.26 461.625 Q133.895 461.625 135.7 458.084 Q137.529 454.519 137.529 447.413 Q137.529 440.283 135.7 436.741 Q133.895 433.177 130.26 433.177 M130.26 429.473 Q136.07 429.473 139.126 434.079 Q142.205 438.663 142.205 447.413 Q142.205 456.139 139.126 460.746 Q136.07 465.329 130.26 465.329 Q124.45 465.329 121.371 460.746 Q118.316 456.139 118.316 447.413 Q118.316 438.663 121.371 434.079 Q124.45 429.473 130.26 429.473 Z" fill="#000000" fill-rule="evenodd" fill-opacity="1" /><path clip-path="url(#clip360)" d="M 0 0 M76.3254 115.467 Q72.9921 115.467 71.0708 117.249 Q69.1726 119.031 69.1726 122.156 Q69.1726 125.281 71.0708 127.064 Q72.9921 128.846 76.3254 128.846 Q79.6587 128.846 81.58 127.064 Q83.5013 125.258 83.5013 122.156 Q83.5013 119.031 81.58 117.249 Q79.6819 115.467 76.3254 115.467 M71.6495 113.476 Q68.6402 112.735 66.9504 110.675 Q65.2838 108.615 65.2838 105.652 Q65.2838 101.508 68.2236 99.101 Q71.1865 96.6936 76.3254 96.6936 Q81.4874 96.6936 84.4272 99.101 Q87.367 101.508 87.367 105.652 Q87.367 108.615 85.6772 110.675 Q84.0105 112.735 81.0244 113.476 Q84.404 114.263 86.279 116.555 Q88.1772 118.846 88.1772 122.156 Q88.1772 127.18 85.0985 129.865 Q82.0429 132.55 76.3254 132.55 Q70.6078 132.55 67.5291 129.865 Q64.4736 127.18 64.4736 122.156 Q64.4736 118.846 66.3717 116.555 Q68.2699 114.263 71.6495 113.476 M69.9365 106.092 Q69.9365 108.777 71.6032 110.282 Q73.293 111.786 76.3254 111.786 Q79.3346 111.786 81.0244 110.282 Q82.7374 108.777 82.7374 106.092 Q82.7374 103.407 81.0244 101.902 Q79.3346 100.397 76.3254 100.397 Q73.293 100.397 71.6032 101.902 Q69.9365 103.407 69.9365 106.092 Z" fill="#000000" fill-rule="evenodd" fill-opacity="1" /><path clip-path="url(#clip360)" d="M 0 0 M103.247 100.397 Q99.6354 100.397 97.8068 103.962 Q96.0012 107.504 96.0012 114.633 Q96.0012 121.74 97.8068 125.305 Q99.6354 128.846 103.247 128.846 Q106.881 128.846 108.686 125.305 Q110.515 121.74 110.515 114.633 Q110.515 107.504 108.686 103.962 Q106.881 100.397 103.247 100.397 M103.247 96.6936 Q109.057 96.6936 112.112 101.3 Q115.191 105.883 115.191 114.633 Q115.191 123.36 112.112 127.967 Q109.057 132.55 103.247 132.55 Q97.4364 132.55 94.3577 127.967 Q91.3022 123.36 91.3022 114.633 Q91.3022 105.883 94.3577 101.3 Q97.4364 96.6936 103.247 96.6936 Z" fill="#000000" fill-rule="evenodd" fill-opacity="1" /><path clip-path="url(#clip360)" d="M 0 0 M130.26 100.397 Q126.649 100.397 124.82 103.962 Q123.015 107.504 123.015 114.633 Q123.015 121.74 124.82 125.305 Q126.649 128.846 130.26 128.846 Q133.895 128.846 135.7 125.305 Q137.529 121.74 137.529 114.633 Q137.529 107.504 135.7 103.962 Q133.895 100.397 130.26 100.397 M130.26 96.6936 Q136.07 96.6936 139.126 101.3 Q142.205 105.883 142.205 114.633 Q142.205 123.36 139.126 127.967 Q136.07 132.55 130.26 132.55 Q124.45 132.55 121.371 127.967 Q118.316 123.36 118.316 114.633 Q118.316 105.883 121.371 101.3 Q124.45 96.6936 130.26 96.6936 Z" fill="#000000" fill-rule="evenodd" fill-opacity="1" /><path clip-path="url(#clip362)" d="
M286.469 1444.05 L286.469 1445.72 L313.127 1445.72 L313.127 1444.05 L286.469 1444.05 L286.469 1444.05  Z
  " fill="#009af9" fill-rule="evenodd" fill-opacity="1"/>
<polyline clip-path="url(#clip362)" style="stroke:#000000; stroke-width:4; stroke-opacity:1; fill:none" points="
  286.469,1444.05 286.469,1445.72 313.127,1445.72 313.127,1444.05 286.469,1444.05 
  "/>
<path clip-path="url(#clip362)" d="
M313.127 1445.72 L313.127 1445.72 L339.785 1445.72 L339.785 1445.72 L313.127 1445.72 L313.127 1445.72  Z
  " fill="#009af9" fill-rule="evenodd" fill-opacity="1"/>
<polyline clip-path="url(#clip362)" style="stroke:#000000; stroke-width:4; stroke-opacity:1; fill:none" points="
  313.127,1445.72 313.127,1445.72 339.785,1445.72 313.127,1445.72 
  "/>
<path clip-path="url(#clip362)" d="
M339.785 1445.72 L339.785 1445.72 L366.442 1445.72 L366.442 1445.72 L339.785 1445.72 L339.785 1445.72  Z
  " fill="#009af9" fill-rule="evenodd" fill-opacity="1"/>
<polyline clip-path="url(#clip362)" style="stroke:#000000; stroke-width:4; stroke-opacity:1; fill:none" points="
  339.785,1445.72 339.785,1445.72 366.442,1445.72 339.785,1445.72 
  "/>
<path clip-path="url(#clip362)" d="
M366.442 1444.05 L366.442 1445.72 L393.1 1445.72 L393.1 1444.05 L366.442 1444.05 L366.442 1444.05  Z
  " fill="#009af9" fill-rule="evenodd" fill-opacity="1"/>
<polyline clip-path="url(#clip362)" style="stroke:#000000; stroke-width:4; stroke-opacity:1; fill:none" points="
  366.442,1444.05 366.442,1445.72 393.1,1445.72 393.1,1444.05 366.442,1444.05 
  "/>
<path clip-path="url(#clip362)" d="
M393.1 1445.72 L393.1 1445.72 L419.758 1445.72 L419.758 1445.72 L393.1 1445.72 L393.1 1445.72  Z
  " fill="#009af9" fill-rule="evenodd" fill-opacity="1"/>
<polyline clip-path="url(#clip362)" style="stroke:#000000; stroke-width:4; stroke-opacity:1; fill:none" points="
  393.1,1445.72 393.1,1445.72 419.758,1445.72 393.1,1445.72 
  "/>
<path clip-path="url(#clip362)" d="
M419.758 1445.72 L419.758 1445.72 L446.416 1445.72 L446.416 1445.72 L419.758 1445.72 L419.758 1445.72  Z
  " fill="#009af9" fill-rule="evenodd" fill-opacity="1"/>
<polyline clip-path="url(#clip362)" style="stroke:#000000; stroke-width:4; stroke-opacity:1; fill:none" points="
  419.758,1445.72 419.758,1445.72 446.416,1445.72 419.758,1445.72 
  "/>
<path clip-path="url(#clip362)" d="
M446.416 1444.05 L446.416 1445.72 L473.074 1445.72 L473.074 1444.05 L446.416 1444.05 L446.416 1444.05  Z
  " fill="#009af9" fill-rule="evenodd" fill-opacity="1"/>
<polyline clip-path="url(#clip362)" style="stroke:#000000; stroke-width:4; stroke-opacity:1; fill:none" points="
  446.416,1444.05 446.416,1445.72 473.074,1445.72 473.074,1444.05 446.416,1444.05 
  "/>
<path clip-path="url(#clip362)" d="
M473.074 1444.05 L473.074 1445.72 L499.732 1445.72 L499.732 1444.05 L473.074 1444.05 L473.074 1444.05  Z
  " fill="#009af9" fill-rule="evenodd" fill-opacity="1"/>
<polyline clip-path="url(#clip362)" style="stroke:#000000; stroke-width:4; stroke-opacity:1; fill:none" points="
  473.074,1444.05 473.074,1445.72 499.732,1445.72 499.732,1444.05 473.074,1444.05 
  "/>
<path clip-path="url(#clip362)" d="
M499.732 1435.73 L499.732 1445.72 L526.389 1445.72 L526.389 1435.73 L499.732 1435.73 L499.732 1435.73  Z
  " fill="#009af9" fill-rule="evenodd" fill-opacity="1"/>
<polyline clip-path="url(#clip362)" style="stroke:#000000; stroke-width:4; stroke-opacity:1; fill:none" points="
  499.732,1435.73 499.732,1445.72 526.389,1445.72 526.389,1435.73 499.732,1435.73 
  "/>
<path clip-path="url(#clip362)" d="
M526.389 1437.4 L526.389 1445.72 L553.047 1445.72 L553.047 1437.4 L526.389 1437.4 L526.389 1437.4  Z
  " fill="#009af9" fill-rule="evenodd" fill-opacity="1"/>
<polyline clip-path="url(#clip362)" style="stroke:#000000; stroke-width:4; stroke-opacity:1; fill:none" points="
  526.389,1437.4 526.389,1445.72 553.047,1445.72 553.047,1437.4 526.389,1437.4 
  "/>
<path clip-path="url(#clip362)" d="
M553.047 1440.72 L553.047 1445.72 L579.705 1445.72 L579.705 1440.72 L553.047 1440.72 L553.047 1440.72  Z
  " fill="#009af9" fill-rule="evenodd" fill-opacity="1"/>
<polyline clip-path="url(#clip362)" style="stroke:#000000; stroke-width:4; stroke-opacity:1; fill:none" points="
  553.047,1440.72 553.047,1445.72 579.705,1445.72 579.705,1440.72 553.047,1440.72 
  "/>
<path clip-path="url(#clip362)" d="
M579.705 1432.4 L579.705 1445.72 L606.363 1445.72 L606.363 1432.4 L579.705 1432.4 L579.705 1432.4  Z
  " fill="#009af9" fill-rule="evenodd" fill-opacity="1"/>
<polyline clip-path="url(#clip362)" style="stroke:#000000; stroke-width:4; stroke-opacity:1; fill:none" points="
  579.705,1432.4 579.705,1445.72 606.363,1445.72 606.363,1432.4 579.705,1432.4 
  "/>
<path clip-path="url(#clip362)" d="
M606.363 1430.74 L606.363 1445.72 L633.021 1445.72 L633.021 1430.74 L606.363 1430.74 L606.363 1430.74  Z
  " fill="#009af9" fill-rule="evenodd" fill-opacity="1"/>
<polyline clip-path="url(#clip362)" style="stroke:#000000; stroke-width:4; stroke-opacity:1; fill:none" points="
  606.363,1430.74 606.363,1445.72 633.021,1445.72 633.021,1430.74 606.363,1430.74 
  "/>
<path clip-path="url(#clip362)" d="
M633.021 1432.4 L633.021 1445.72 L659.679 1445.72 L659.679 1432.4 L633.021 1432.4 L633.021 1432.4  Z
  " fill="#009af9" fill-rule="evenodd" fill-opacity="1"/>
<polyline clip-path="url(#clip362)" style="stroke:#000000; stroke-width:4; stroke-opacity:1; fill:none" points="
  633.021,1432.4 633.021,1445.72 659.679,1445.72 659.679,1432.4 633.021,1432.4 
  "/>
<path clip-path="url(#clip362)" d="
M659.679 1430.74 L659.679 1445.72 L686.337 1445.72 L686.337 1430.74 L659.679 1430.74 L659.679 1430.74  Z
  " fill="#009af9" fill-rule="evenodd" fill-opacity="1"/>
<polyline clip-path="url(#clip362)" style="stroke:#000000; stroke-width:4; stroke-opacity:1; fill:none" points="
  659.679,1430.74 659.679,1445.72 686.337,1445.72 686.337,1430.74 659.679,1430.74 
  "/>
<path clip-path="url(#clip362)" d="
M686.337 1415.77 L686.337 1445.72 L712.994 1445.72 L712.994 1415.77 L686.337 1415.77 L686.337 1415.77  Z
  " fill="#009af9" fill-rule="evenodd" fill-opacity="1"/>
<polyline clip-path="url(#clip362)" style="stroke:#000000; stroke-width:4; stroke-opacity:1; fill:none" points="
  686.337,1415.77 686.337,1445.72 712.994,1445.72 712.994,1415.77 686.337,1415.77 
  "/>
<path clip-path="url(#clip362)" d="
M712.994 1409.11 L712.994 1445.72 L739.652 1445.72 L739.652 1409.11 L712.994 1409.11 L712.994 1409.11  Z
  " fill="#009af9" fill-rule="evenodd" fill-opacity="1"/>
<polyline clip-path="url(#clip362)" style="stroke:#000000; stroke-width:4; stroke-opacity:1; fill:none" points="
  712.994,1409.11 712.994,1445.72 739.652,1445.72 739.652,1409.11 712.994,1409.11 
  "/>
<path clip-path="url(#clip362)" d="
M739.652 1412.44 L739.652 1445.72 L766.31 1445.72 L766.31 1412.44 L739.652 1412.44 L739.652 1412.44  Z
  " fill="#009af9" fill-rule="evenodd" fill-opacity="1"/>
<polyline clip-path="url(#clip362)" style="stroke:#000000; stroke-width:4; stroke-opacity:1; fill:none" points="
  739.652,1412.44 739.652,1445.72 766.31,1445.72 766.31,1412.44 739.652,1412.44 
  "/>
<path clip-path="url(#clip362)" d="
M766.31 1400.79 L766.31 1445.72 L792.968 1445.72 L792.968 1400.79 L766.31 1400.79 L766.31 1400.79  Z
  " fill="#009af9" fill-rule="evenodd" fill-opacity="1"/>
<polyline clip-path="url(#clip362)" style="stroke:#000000; stroke-width:4; stroke-opacity:1; fill:none" points="
  766.31,1400.79 766.31,1445.72 792.968,1445.72 792.968,1400.79 766.31,1400.79 
  "/>
<path clip-path="url(#clip362)" d="
M792.968 1392.47 L792.968 1445.72 L819.626 1445.72 L819.626 1392.47 L792.968 1392.47 L792.968 1392.47  Z
  " fill="#009af9" fill-rule="evenodd" fill-opacity="1"/>
<polyline clip-path="url(#clip362)" style="stroke:#000000; stroke-width:4; stroke-opacity:1; fill:none" points="
  792.968,1392.47 792.968,1445.72 819.626,1445.72 819.626,1392.47 792.968,1392.47 
  "/>
<path clip-path="url(#clip362)" d="
M819.626 1380.82 L819.626 1445.72 L846.284 1445.72 L846.284 1380.82 L819.626 1380.82 L819.626 1380.82  Z
  " fill="#009af9" fill-rule="evenodd" fill-opacity="1"/>
<polyline clip-path="url(#clip362)" style="stroke:#000000; stroke-width:4; stroke-opacity:1; fill:none" points="
  819.626,1380.82 819.626,1445.72 846.284,1445.72 846.284,1380.82 819.626,1380.82 
  "/>
<path clip-path="url(#clip362)" d="
M846.284 1375.83 L846.284 1445.72 L872.942 1445.72 L872.942 1375.83 L846.284 1375.83 L846.284 1375.83  Z
  " fill="#009af9" fill-rule="evenodd" fill-opacity="1"/>
<polyline clip-path="url(#clip362)" style="stroke:#000000; stroke-width:4; stroke-opacity:1; fill:none" points="
  846.284,1375.83 846.284,1445.72 872.942,1445.72 872.942,1375.83 846.284,1375.83 
  "/>
<path clip-path="url(#clip362)" d="
M872.942 1350.87 L872.942 1445.72 L899.599 1445.72 L899.599 1350.87 L872.942 1350.87 L872.942 1350.87  Z
  " fill="#009af9" fill-rule="evenodd" fill-opacity="1"/>
<polyline clip-path="url(#clip362)" style="stroke:#000000; stroke-width:4; stroke-opacity:1; fill:none" points="
  872.942,1350.87 872.942,1445.72 899.599,1445.72 899.599,1350.87 872.942,1350.87 
  "/>
<path clip-path="url(#clip362)" d="
M899.599 1359.19 L899.599 1445.72 L926.257 1445.72 L926.257 1359.19 L899.599 1359.19 L899.599 1359.19  Z
  " fill="#009af9" fill-rule="evenodd" fill-opacity="1"/>
<polyline clip-path="url(#clip362)" style="stroke:#000000; stroke-width:4; stroke-opacity:1; fill:none" points="
  899.599,1359.19 899.599,1445.72 926.257,1445.72 926.257,1359.19 899.599,1359.19 
  "/>
<path clip-path="url(#clip362)" d="
M926.257 1354.2 L926.257 1445.72 L952.915 1445.72 L952.915 1354.2 L926.257 1354.2 L926.257 1354.2  Z
  " fill="#009af9" fill-rule="evenodd" fill-opacity="1"/>
<polyline clip-path="url(#clip362)" style="stroke:#000000; stroke-width:4; stroke-opacity:1; fill:none" points="
  926.257,1354.2 926.257,1445.72 952.915,1445.72 952.915,1354.2 926.257,1354.2 
  "/>
<path clip-path="url(#clip362)" d="
M952.915 1357.53 L952.915 1445.72 L979.573 1445.72 L979.573 1357.53 L952.915 1357.53 L952.915 1357.53  Z
  " fill="#009af9" fill-rule="evenodd" fill-opacity="1"/>
<polyline clip-path="url(#clip362)" style="stroke:#000000; stroke-width:4; stroke-opacity:1; fill:none" points="
  952.915,1357.53 952.915,1445.72 979.573,1445.72 979.573,1357.53 952.915,1357.53 
  "/>
<path clip-path="url(#clip362)" d="
M979.573 1314.27 L979.573 1445.72 L1006.23 1445.72 L1006.23 1314.27 L979.573 1314.27 L979.573 1314.27  Z
  " fill="#009af9" fill-rule="evenodd" fill-opacity="1"/>
<polyline clip-path="url(#clip362)" style="stroke:#000000; stroke-width:4; stroke-opacity:1; fill:none" points="
  979.573,1314.27 979.573,1445.72 1006.23,1445.72 1006.23,1314.27 979.573,1314.27 
  "/>
<path clip-path="url(#clip362)" d="
M1006.23 1299.29 L1006.23 1445.72 L1032.89 1445.72 L1032.89 1299.29 L1006.23 1299.29 L1006.23 1299.29  Z
  " fill="#009af9" fill-rule="evenodd" fill-opacity="1"/>
<polyline clip-path="url(#clip362)" style="stroke:#000000; stroke-width:4; stroke-opacity:1; fill:none" points="
  1006.23,1299.29 1006.23,1445.72 1032.89,1445.72 1032.89,1299.29 1006.23,1299.29 
  "/>
<path clip-path="url(#clip362)" d="
M1032.89 1319.26 L1032.89 1445.72 L1059.55 1445.72 L1059.55 1319.26 L1032.89 1319.26 L1032.89 1319.26  Z
  " fill="#009af9" fill-rule="evenodd" fill-opacity="1"/>
<polyline clip-path="url(#clip362)" style="stroke:#000000; stroke-width:4; stroke-opacity:1; fill:none" points="
  1032.89,1319.26 1032.89,1445.72 1059.55,1445.72 1059.55,1319.26 1032.89,1319.26 
  "/>
<path clip-path="url(#clip362)" d="
M1059.55 1310.94 L1059.55 1445.72 L1086.2 1445.72 L1086.2 1310.94 L1059.55 1310.94 L1059.55 1310.94  Z
  " fill="#009af9" fill-rule="evenodd" fill-opacity="1"/>
<polyline clip-path="url(#clip362)" style="stroke:#000000; stroke-width:4; stroke-opacity:1; fill:none" points="
  1059.55,1310.94 1059.55,1445.72 1086.2,1445.72 1086.2,1310.94 1059.55,1310.94 
  "/>
<path clip-path="url(#clip362)" d="
M1086.2 1290.97 L1086.2 1445.72 L1112.86 1445.72 L1112.86 1290.97 L1086.2 1290.97 L1086.2 1290.97  Z
  " fill="#009af9" fill-rule="evenodd" fill-opacity="1"/>
<polyline clip-path="url(#clip362)" style="stroke:#000000; stroke-width:4; stroke-opacity:1; fill:none" points="
  1086.2,1290.97 1086.2,1445.72 1112.86,1445.72 1112.86,1290.97 1086.2,1290.97 
  "/>
<path clip-path="url(#clip362)" d="
M1112.86 1300.96 L1112.86 1445.72 L1139.52 1445.72 L1139.52 1300.96 L1112.86 1300.96 L1112.86 1300.96  Z
  " fill="#009af9" fill-rule="evenodd" fill-opacity="1"/>
<polyline clip-path="url(#clip362)" style="stroke:#000000; stroke-width:4; stroke-opacity:1; fill:none" points="
  1112.86,1300.96 1112.86,1445.72 1139.52,1445.72 1139.52,1300.96 1112.86,1300.96 
  "/>
<path clip-path="url(#clip362)" d="
M1139.52 1264.35 L1139.52 1445.72 L1166.18 1445.72 L1166.18 1264.35 L1139.52 1264.35 L1139.52 1264.35  Z
  " fill="#009af9" fill-rule="evenodd" fill-opacity="1"/>
<polyline clip-path="url(#clip362)" style="stroke:#000000; stroke-width:4; stroke-opacity:1; fill:none" points="
  1139.52,1264.35 1139.52,1445.72 1166.18,1445.72 1166.18,1264.35 1139.52,1264.35 
  "/>
<path clip-path="url(#clip362)" d="
M1166.18 1254.37 L1166.18 1445.72 L1192.84 1445.72 L1192.84 1254.37 L1166.18 1254.37 L1166.18 1254.37  Z
  " fill="#009af9" fill-rule="evenodd" fill-opacity="1"/>
<polyline clip-path="url(#clip362)" style="stroke:#000000; stroke-width:4; stroke-opacity:1; fill:none" points="
  1166.18,1254.37 1166.18,1445.72 1192.84,1445.72 1192.84,1254.37 1166.18,1254.37 
  "/>
<path clip-path="url(#clip362)" d="
M1192.84 1226.08 L1192.84 1445.72 L1219.49 1445.72 L1219.49 1226.08 L1192.84 1226.08 L1192.84 1226.08  Z
  " fill="#009af9" fill-rule="evenodd" fill-opacity="1"/>
<polyline clip-path="url(#clip362)" style="stroke:#000000; stroke-width:4; stroke-opacity:1; fill:none" points="
  1192.84,1226.08 1192.84,1445.72 1219.49,1445.72 1219.49,1226.08 1192.84,1226.08 
  "/>
<path clip-path="url(#clip362)" d="
M1219.49 1264.35 L1219.49 1445.72 L1246.15 1445.72 L1246.15 1264.35 L1219.49 1264.35 L1219.49 1264.35  Z
  " fill="#009af9" fill-rule="evenodd" fill-opacity="1"/>
<polyline clip-path="url(#clip362)" style="stroke:#000000; stroke-width:4; stroke-opacity:1; fill:none" points="
  1219.49,1264.35 1219.49,1445.72 1246.15,1445.72 1246.15,1264.35 1219.49,1264.35 
  "/>
<path clip-path="url(#clip362)" d="
M1246.15 1207.78 L1246.15 1445.72 L1272.81 1445.72 L1272.81 1207.78 L1246.15 1207.78 L1246.15 1207.78  Z
  " fill="#009af9" fill-rule="evenodd" fill-opacity="1"/>
<polyline clip-path="url(#clip362)" style="stroke:#000000; stroke-width:4; stroke-opacity:1; fill:none" points="
  1246.15,1207.78 1246.15,1445.72 1272.81,1445.72 1272.81,1207.78 1246.15,1207.78 
  "/>
<path clip-path="url(#clip362)" d="
M1272.81 1252.7 L1272.81 1445.72 L1299.47 1445.72 L1299.47 1252.7 L1272.81 1252.7 L1272.81 1252.7  Z
  " fill="#009af9" fill-rule="evenodd" fill-opacity="1"/>
<polyline clip-path="url(#clip362)" style="stroke:#000000; stroke-width:4; stroke-opacity:1; fill:none" points="
  1272.81,1252.7 1272.81,1445.72 1299.47,1445.72 1299.47,1252.7 1272.81,1252.7 
  "/>
<path clip-path="url(#clip362)" d="
M1299.47 1167.85 L1299.47 1445.72 L1326.12 1445.72 L1326.12 1167.85 L1299.47 1167.85 L1299.47 1167.85  Z
  " fill="#009af9" fill-rule="evenodd" fill-opacity="1"/>
<polyline clip-path="url(#clip362)" style="stroke:#000000; stroke-width:4; stroke-opacity:1; fill:none" points="
  1299.47,1167.85 1299.47,1445.72 1326.12,1445.72 1326.12,1167.85 1299.47,1167.85 
  "/>
<path clip-path="url(#clip362)" d="
M1326.12 831.738 L1326.12 1445.72 L1352.78 1445.72 L1352.78 831.738 L1326.12 831.738 L1326.12 831.738  Z
  " fill="#009af9" fill-rule="evenodd" fill-opacity="1"/>
<polyline clip-path="url(#clip362)" style="stroke:#000000; stroke-width:4; stroke-opacity:1; fill:none" points="
  1326.12,831.738 1326.12,1445.72 1352.78,1445.72 1352.78,831.738 1326.12,831.738 
  "/>
<path clip-path="url(#clip362)" d="
M1352.78 109.607 L1352.78 1445.72 L1379.44 1445.72 L1379.44 109.607 L1352.78 109.607 L1352.78 109.607  Z
  " fill="#009af9" fill-rule="evenodd" fill-opacity="1"/>
<polyline clip-path="url(#clip362)" style="stroke:#000000; stroke-width:4; stroke-opacity:1; fill:none" points="
  1352.78,109.607 1352.78,1445.72 1379.44,1445.72 1379.44,109.607 1352.78,109.607 
  "/>
<path clip-path="url(#clip362)" d="
M1379.44 87.9763 L1379.44 1445.72 L1406.1 1445.72 L1406.1 87.9763 L1379.44 87.9763 L1379.44 87.9763  Z
  " fill="#009af9" fill-rule="evenodd" fill-opacity="1"/>
<polyline clip-path="url(#clip362)" style="stroke:#000000; stroke-width:4; stroke-opacity:1; fill:none" points="
  1379.44,87.9763 1379.44,1445.72 1406.1,1445.72 1406.1,87.9763 1379.44,87.9763 
  "/>
<path clip-path="url(#clip362)" d="
M1406.1 860.024 L1406.1 1445.72 L1432.76 1445.72 L1432.76 860.024 L1406.1 860.024 L1406.1 860.024  Z
  " fill="#009af9" fill-rule="evenodd" fill-opacity="1"/>
<polyline clip-path="url(#clip362)" style="stroke:#000000; stroke-width:4; stroke-opacity:1; fill:none" points="
  1406.1,860.024 1406.1,1445.72 1432.76,1445.72 1432.76,860.024 1406.1,860.024 
  "/>
<path clip-path="url(#clip362)" d="
M1432.76 1202.79 L1432.76 1445.72 L1459.41 1445.72 L1459.41 1202.79 L1432.76 1202.79 L1432.76 1202.79  Z
  " fill="#009af9" fill-rule="evenodd" fill-opacity="1"/>
<polyline clip-path="url(#clip362)" style="stroke:#000000; stroke-width:4; stroke-opacity:1; fill:none" points="
  1432.76,1202.79 1432.76,1445.72 1459.41,1445.72 1459.41,1202.79 1432.76,1202.79 
  "/>
<path clip-path="url(#clip362)" d="
M1459.41 1276 L1459.41 1445.72 L1486.07 1445.72 L1486.07 1276 L1459.41 1276 L1459.41 1276  Z
  " fill="#009af9" fill-rule="evenodd" fill-opacity="1"/>
<polyline clip-path="url(#clip362)" style="stroke:#000000; stroke-width:4; stroke-opacity:1; fill:none" points="
  1459.41,1276 1459.41,1445.72 1486.07,1445.72 1486.07,1276 1459.41,1276 
  "/>
<path clip-path="url(#clip362)" d="
M1486.07 1314.27 L1486.07 1445.72 L1512.73 1445.72 L1512.73 1314.27 L1486.07 1314.27 L1486.07 1314.27  Z
  " fill="#009af9" fill-rule="evenodd" fill-opacity="1"/>
<polyline clip-path="url(#clip362)" style="stroke:#000000; stroke-width:4; stroke-opacity:1; fill:none" points="
  1486.07,1314.27 1486.07,1445.72 1512.73,1445.72 1512.73,1314.27 1486.07,1314.27 
  "/>
<path clip-path="url(#clip362)" d="
M1512.73 1344.22 L1512.73 1445.72 L1539.39 1445.72 L1539.39 1344.22 L1512.73 1344.22 L1512.73 1344.22  Z
  " fill="#009af9" fill-rule="evenodd" fill-opacity="1"/>
<polyline clip-path="url(#clip362)" style="stroke:#000000; stroke-width:4; stroke-opacity:1; fill:none" points="
  1512.73,1344.22 1512.73,1445.72 1539.39,1445.72 1539.39,1344.22 1512.73,1344.22 
  "/>
<path clip-path="url(#clip362)" d="
M1539.39 1337.56 L1539.39 1445.72 L1566.05 1445.72 L1566.05 1337.56 L1539.39 1337.56 L1539.39 1337.56  Z
  " fill="#009af9" fill-rule="evenodd" fill-opacity="1"/>
<polyline clip-path="url(#clip362)" style="stroke:#000000; stroke-width:4; stroke-opacity:1; fill:none" points="
  1539.39,1337.56 1539.39,1445.72 1566.05,1445.72 1566.05,1337.56 1539.39,1337.56 
  "/>
<path clip-path="url(#clip362)" d="
M1566.05 1360.86 L1566.05 1445.72 L1592.7 1445.72 L1592.7 1360.86 L1566.05 1360.86 L1566.05 1360.86  Z
  " fill="#009af9" fill-rule="evenodd" fill-opacity="1"/>
<polyline clip-path="url(#clip362)" style="stroke:#000000; stroke-width:4; stroke-opacity:1; fill:none" points="
  1566.05,1360.86 1566.05,1445.72 1592.7,1445.72 1592.7,1360.86 1566.05,1360.86 
  "/>
<path clip-path="url(#clip362)" d="
M1592.7 1377.5 L1592.7 1445.72 L1619.36 1445.72 L1619.36 1377.5 L1592.7 1377.5 L1592.7 1377.5  Z
  " fill="#009af9" fill-rule="evenodd" fill-opacity="1"/>
<polyline clip-path="url(#clip362)" style="stroke:#000000; stroke-width:4; stroke-opacity:1; fill:none" points="
  1592.7,1377.5 1592.7,1445.72 1619.36,1445.72 1619.36,1377.5 1592.7,1377.5 
  "/>
<path clip-path="url(#clip362)" d="
M1619.36 1392.47 L1619.36 1445.72 L1646.02 1445.72 L1646.02 1392.47 L1619.36 1392.47 L1619.36 1392.47  Z
  " fill="#009af9" fill-rule="evenodd" fill-opacity="1"/>
<polyline clip-path="url(#clip362)" style="stroke:#000000; stroke-width:4; stroke-opacity:1; fill:none" points="
  1619.36,1392.47 1619.36,1445.72 1646.02,1445.72 1646.02,1392.47 1619.36,1392.47 
  "/>
<path clip-path="url(#clip362)" d="
M1646.02 1365.85 L1646.02 1445.72 L1672.68 1445.72 L1672.68 1365.85 L1646.02 1365.85 L1646.02 1365.85  Z
  " fill="#009af9" fill-rule="evenodd" fill-opacity="1"/>
<polyline clip-path="url(#clip362)" style="stroke:#000000; stroke-width:4; stroke-opacity:1; fill:none" points="
  1646.02,1365.85 1646.02,1445.72 1672.68,1445.72 1672.68,1365.85 1646.02,1365.85 
  "/>
<path clip-path="url(#clip362)" d="
M1672.68 1397.46 L1672.68 1445.72 L1699.33 1445.72 L1699.33 1397.46 L1672.68 1397.46 L1672.68 1397.46  Z
  " fill="#009af9" fill-rule="evenodd" fill-opacity="1"/>
<polyline clip-path="url(#clip362)" style="stroke:#000000; stroke-width:4; stroke-opacity:1; fill:none" points="
  1672.68,1397.46 1672.68,1445.72 1699.33,1445.72 1699.33,1397.46 1672.68,1397.46 
  "/>
<path clip-path="url(#clip362)" d="
M1699.33 1405.78 L1699.33 1445.72 L1725.99 1445.72 L1725.99 1405.78 L1699.33 1405.78 L1699.33 1405.78  Z
  " fill="#009af9" fill-rule="evenodd" fill-opacity="1"/>
<polyline clip-path="url(#clip362)" style="stroke:#000000; stroke-width:4; stroke-opacity:1; fill:none" points="
  1699.33,1405.78 1699.33,1445.72 1725.99,1445.72 1725.99,1405.78 1699.33,1405.78 
  "/>
<path clip-path="url(#clip362)" d="
M1725.99 1407.45 L1725.99 1445.72 L1752.65 1445.72 L1752.65 1407.45 L1725.99 1407.45 L1725.99 1407.45  Z
  " fill="#009af9" fill-rule="evenodd" fill-opacity="1"/>
<polyline clip-path="url(#clip362)" style="stroke:#000000; stroke-width:4; stroke-opacity:1; fill:none" points="
  1725.99,1407.45 1725.99,1445.72 1752.65,1445.72 1752.65,1407.45 1725.99,1407.45 
  "/>
<path clip-path="url(#clip362)" d="
M1752.65 1422.42 L1752.65 1445.72 L1779.31 1445.72 L1779.31 1422.42 L1752.65 1422.42 L1752.65 1422.42  Z
  " fill="#009af9" fill-rule="evenodd" fill-opacity="1"/>
<polyline clip-path="url(#clip362)" style="stroke:#000000; stroke-width:4; stroke-opacity:1; fill:none" points="
  1752.65,1422.42 1752.65,1445.72 1779.31,1445.72 1779.31,1422.42 1752.65,1422.42 
  "/>
<path clip-path="url(#clip362)" d="
M1779.31 1414.1 L1779.31 1445.72 L1805.97 1445.72 L1805.97 1414.1 L1779.31 1414.1 L1779.31 1414.1  Z
  " fill="#009af9" fill-rule="evenodd" fill-opacity="1"/>
<polyline clip-path="url(#clip362)" style="stroke:#000000; stroke-width:4; stroke-opacity:1; fill:none" points="
  1779.31,1414.1 1779.31,1445.72 1805.97,1445.72 1805.97,1414.1 1779.31,1414.1 
  "/>
<path clip-path="url(#clip362)" d="
M1805.97 1434.07 L1805.97 1445.72 L1832.62 1445.72 L1832.62 1434.07 L1805.97 1434.07 L1805.97 1434.07  Z
  " fill="#009af9" fill-rule="evenodd" fill-opacity="1"/>
<polyline clip-path="url(#clip362)" style="stroke:#000000; stroke-width:4; stroke-opacity:1; fill:none" points="
  1805.97,1434.07 1805.97,1445.72 1832.62,1445.72 1832.62,1434.07 1805.97,1434.07 
  "/>
<path clip-path="url(#clip362)" d="
M1832.62 1414.1 L1832.62 1445.72 L1859.28 1445.72 L1859.28 1414.1 L1832.62 1414.1 L1832.62 1414.1  Z
  " fill="#009af9" fill-rule="evenodd" fill-opacity="1"/>
<polyline clip-path="url(#clip362)" style="stroke:#000000; stroke-width:4; stroke-opacity:1; fill:none" points="
  1832.62,1414.1 1832.62,1445.72 1859.28,1445.72 1859.28,1414.1 1832.62,1414.1 
  "/>
<path clip-path="url(#clip362)" d="
M1859.28 1425.75 L1859.28 1445.72 L1885.94 1445.72 L1885.94 1425.75 L1859.28 1425.75 L1859.28 1425.75  Z
  " fill="#009af9" fill-rule="evenodd" fill-opacity="1"/>
<polyline clip-path="url(#clip362)" style="stroke:#000000; stroke-width:4; stroke-opacity:1; fill:none" points="
  1859.28,1425.75 1859.28,1445.72 1885.94,1445.72 1885.94,1425.75 1859.28,1425.75 
  "/>
<path clip-path="url(#clip362)" d="
M1885.94 1435.73 L1885.94 1445.72 L1912.6 1445.72 L1912.6 1435.73 L1885.94 1435.73 L1885.94 1435.73  Z
  " fill="#009af9" fill-rule="evenodd" fill-opacity="1"/>
<polyline clip-path="url(#clip362)" style="stroke:#000000; stroke-width:4; stroke-opacity:1; fill:none" points="
  1885.94,1435.73 1885.94,1445.72 1912.6,1445.72 1912.6,1435.73 1885.94,1435.73 
  "/>
<path clip-path="url(#clip362)" d="
M1912.6 1435.73 L1912.6 1445.72 L1939.26 1445.72 L1939.26 1435.73 L1912.6 1435.73 L1912.6 1435.73  Z
  " fill="#009af9" fill-rule="evenodd" fill-opacity="1"/>
<polyline clip-path="url(#clip362)" style="stroke:#000000; stroke-width:4; stroke-opacity:1; fill:none" points="
  1912.6,1435.73 1912.6,1445.72 1939.26,1445.72 1939.26,1435.73 1912.6,1435.73 
  "/>
<path clip-path="url(#clip362)" d="
M1939.26 1439.06 L1939.26 1445.72 L1965.91 1445.72 L1965.91 1439.06 L1939.26 1439.06 L1939.26 1439.06  Z
  " fill="#009af9" fill-rule="evenodd" fill-opacity="1"/>
<polyline clip-path="url(#clip362)" style="stroke:#000000; stroke-width:4; stroke-opacity:1; fill:none" points="
  1939.26,1439.06 1939.26,1445.72 1965.91,1445.72 1965.91,1439.06 1939.26,1439.06 
  "/>
<path clip-path="url(#clip362)" d="
M1965.91 1444.05 L1965.91 1445.72 L1992.57 1445.72 L1992.57 1444.05 L1965.91 1444.05 L1965.91 1444.05  Z
  " fill="#009af9" fill-rule="evenodd" fill-opacity="1"/>
<polyline clip-path="url(#clip362)" style="stroke:#000000; stroke-width:4; stroke-opacity:1; fill:none" points="
  1965.91,1444.05 1965.91,1445.72 1992.57,1445.72 1992.57,1444.05 1965.91,1444.05 
  "/>
<path clip-path="url(#clip362)" d="
M1992.57 1439.06 L1992.57 1445.72 L2019.23 1445.72 L2019.23 1439.06 L1992.57 1439.06 L1992.57 1439.06  Z
  " fill="#009af9" fill-rule="evenodd" fill-opacity="1"/>
<polyline clip-path="url(#clip362)" style="stroke:#000000; stroke-width:4; stroke-opacity:1; fill:none" points="
  1992.57,1439.06 1992.57,1445.72 2019.23,1445.72 2019.23,1439.06 1992.57,1439.06 
  "/>
<path clip-path="url(#clip362)" d="
M2019.23 1445.72 L2019.23 1445.72 L2045.89 1445.72 L2045.89 1445.72 L2019.23 1445.72 L2019.23 1445.72  Z
  " fill="#009af9" fill-rule="evenodd" fill-opacity="1"/>
<polyline clip-path="url(#clip362)" style="stroke:#000000; stroke-width:4; stroke-opacity:1; fill:none" points="
  2019.23,1445.72 2019.23,1445.72 2045.89,1445.72 2019.23,1445.72 
  "/>
<path clip-path="url(#clip362)" d="
M2045.89 1445.72 L2045.89 1445.72 L2072.54 1445.72 L2072.54 1445.72 L2045.89 1445.72 L2045.89 1445.72  Z
  " fill="#009af9" fill-rule="evenodd" fill-opacity="1"/>
<polyline clip-path="url(#clip362)" style="stroke:#000000; stroke-width:4; stroke-opacity:1; fill:none" points="
  2045.89,1445.72 2045.89,1445.72 2072.54,1445.72 2045.89,1445.72 
  "/>
<path clip-path="url(#clip362)" d="
M2072.54 1445.72 L2072.54 1445.72 L2099.2 1445.72 L2099.2 1445.72 L2072.54 1445.72 L2072.54 1445.72  Z
  " fill="#009af9" fill-rule="evenodd" fill-opacity="1"/>
<polyline clip-path="url(#clip362)" style="stroke:#000000; stroke-width:4; stroke-opacity:1; fill:none" points="
  2072.54,1445.72 2072.54,1445.72 2099.2,1445.72 2072.54,1445.72 
  "/>
<path clip-path="url(#clip362)" d="
M2099.2 1444.05 L2099.2 1445.72 L2125.86 1445.72 L2125.86 1444.05 L2099.2 1444.05 L2099.2 1444.05  Z
  " fill="#009af9" fill-rule="evenodd" fill-opacity="1"/>
<polyline clip-path="url(#clip362)" style="stroke:#000000; stroke-width:4; stroke-opacity:1; fill:none" points="
  2099.2,1444.05 2099.2,1445.72 2125.86,1445.72 2125.86,1444.05 2099.2,1444.05 
  "/>
<path clip-path="url(#clip362)" d="
M2125.86 1445.72 L2125.86 1445.72 L2152.52 1445.72 L2152.52 1445.72 L2125.86 1445.72 L2125.86 1445.72  Z
  " fill="#009af9" fill-rule="evenodd" fill-opacity="1"/>
<polyline clip-path="url(#clip362)" style="stroke:#000000; stroke-width:4; stroke-opacity:1; fill:none" points="
  2125.86,1445.72 2125.86,1445.72 2152.52,1445.72 2125.86,1445.72 
  "/>
<path clip-path="url(#clip362)" d="
M2152.52 1444.05 L2152.52 1445.72 L2179.18 1445.72 L2179.18 1444.05 L2152.52 1444.05 L2152.52 1444.05  Z
  " fill="#009af9" fill-rule="evenodd" fill-opacity="1"/>
<polyline clip-path="url(#clip362)" style="stroke:#000000; stroke-width:4; stroke-opacity:1; fill:none" points="
  2152.52,1444.05 2152.52,1445.72 2179.18,1445.72 2179.18,1444.05 2152.52,1444.05 
  "/>
<path clip-path="url(#clip362)" d="
M2179.18 1445.72 L2179.18 1445.72 L2205.83 1445.72 L2205.83 1445.72 L2179.18 1445.72 L2179.18 1445.72  Z
  " fill="#009af9" fill-rule="evenodd" fill-opacity="1"/>
<polyline clip-path="url(#clip362)" style="stroke:#000000; stroke-width:4; stroke-opacity:1; fill:none" points="
  2179.18,1445.72 2179.18,1445.72 2205.83,1445.72 2179.18,1445.72 
  "/>
<path clip-path="url(#clip362)" d="
M2205.83 1444.05 L2205.83 1445.72 L2232.49 1445.72 L2232.49 1444.05 L2205.83 1444.05 L2205.83 1444.05  Z
  " fill="#009af9" fill-rule="evenodd" fill-opacity="1"/>
<polyline clip-path="url(#clip362)" style="stroke:#000000; stroke-width:4; stroke-opacity:1; fill:none" points="
  2205.83,1444.05 2205.83,1445.72 2232.49,1445.72 2232.49,1444.05 2205.83,1444.05 
  "/>
<path clip-path="url(#clip360)" d="
M1989.74 251.724 L2280.76 251.724 L2280.76 130.764 L1989.74 130.764  Z
  " fill="#ffffff" fill-rule="evenodd" fill-opacity="1"/>
<polyline clip-path="url(#clip360)" style="stroke:#000000; stroke-width:4; stroke-opacity:1; fill:none" points="
  1989.74,251.724 2280.76,251.724 2280.76,130.764 1989.74,130.764 1989.74,251.724 
  "/>
<path clip-path="url(#clip360)" d="
M2013.74 215.436 L2157.74 215.436 L2157.74 167.052 L2013.74 167.052 L2013.74 215.436  Z
  " fill="#009af9" fill-rule="evenodd" fill-opacity="1"/>
<polyline clip-path="url(#clip360)" style="stroke:#000000; stroke-width:4; stroke-opacity:1; fill:none" points="
  2013.74,215.436 2157.74,215.436 2157.74,167.052 2013.74,167.052 2013.74,215.436 
  "/>
<path clip-path="url(#clip360)" d="M 0 0 M2195.58 210.931 Q2193.77 215.561 2192.06 216.973 Q2190.35 218.385 2187.48 218.385 L2184.08 218.385 L2184.08 214.82 L2186.58 214.82 Q2188.33 214.82 2189.31 213.987 Q2190.28 213.154 2191.46 210.052 L2192.22 208.107 L2181.74 182.598 L2186.25 182.598 L2194.35 202.876 L2202.46 182.598 L2206.97 182.598 L2195.58 210.931 Z" fill="#000000" fill-rule="evenodd" fill-opacity="1" /><path clip-path="url(#clip360)" d="M 0 0 M2212.85 204.589 L2220.49 204.589 L2220.49 178.223 L2212.18 179.89 L2212.18 175.631 L2220.44 173.964 L2225.12 173.964 L2225.12 204.589 L2232.76 204.589 L2232.76 208.524 L2212.85 208.524 L2212.85 204.589 Z" fill="#000000" fill-rule="evenodd" fill-opacity="1" /></svg>
