<?xml version="1.0" encoding="utf-8"?>
<svg xmlns="http://www.w3.org/2000/svg" xmlns:xlink="http://www.w3.org/1999/xlink" width="600" height="400" viewBox="0 0 2400 1600">
<defs>
  <clipPath id="clip670">
    <rect x="0" y="0" width="2400" height="1600"/>
  </clipPath>
</defs>
<path clip-path="url(#clip670)" d="
M0 1600 L2400 1600 L2400 0 L0 0  Z
  " fill="#ffffff" fill-rule="evenodd" fill-opacity="1"/>
<defs>
  <clipPath id="clip671">
    <rect x="480" y="0" width="1681" height="1600"/>
  </clipPath>
</defs>
<path clip-path="url(#clip670)" d="
M166.205 1486.45 L2352.76 1486.45 L2352.76 47.2441 L166.205 47.2441  Z
  " fill="#ffffff" fill-rule="evenodd" fill-opacity="1"/>
<defs>
  <clipPath id="clip672">
    <rect x="166" y="47" width="2188" height="1440"/>
  </clipPath>
</defs>
<polyline clip-path="url(#clip672)" style="stroke:#000000; stroke-width:2; stroke-opacity:0.1; fill:none" points="
  315.514,1486.45 315.514,47.2441 
  "/>
<polyline clip-path="url(#clip672)" style="stroke:#000000; stroke-width:2; stroke-opacity:0.1; fill:none" points="
  751.191,1486.45 751.191,47.2441 
  "/>
<polyline clip-path="url(#clip672)" style="stroke:#000000; stroke-width:2; stroke-opacity:0.1; fill:none" points="
  1186.87,1486.45 1186.87,47.2441 
  "/>
<polyline clip-path="url(#clip672)" style="stroke:#000000; stroke-width:2; stroke-opacity:0.1; fill:none" points="
  1622.54,1486.45 1622.54,47.2441 
  "/>
<polyline clip-path="url(#clip672)" style="stroke:#000000; stroke-width:2; stroke-opacity:0.1; fill:none" points="
  2058.22,1486.45 2058.22,47.2441 
  "/>
<polyline clip-path="url(#clip672)" style="stroke:#000000; stroke-width:2; stroke-opacity:0.1; fill:none" points="
  166.205,1445.72 2352.76,1445.72 
  "/>
<polyline clip-path="url(#clip672)" style="stroke:#000000; stroke-width:2; stroke-opacity:0.1; fill:none" points="
  166.205,1094.88 2352.76,1094.88 
  "/>
<polyline clip-path="url(#clip672)" style="stroke:#000000; stroke-width:2; stroke-opacity:0.1; fill:none" points="
  166.205,744.042 2352.76,744.042 
  "/>
<polyline clip-path="url(#clip672)" style="stroke:#000000; stroke-width:2; stroke-opacity:0.1; fill:none" points="
  166.205,393.205 2352.76,393.205 
  "/>
<polyline clip-path="url(#clip670)" style="stroke:#000000; stroke-width:4; stroke-opacity:1; fill:none" points="
  166.205,1486.45 2352.76,1486.45 
  "/>
<polyline clip-path="url(#clip670)" style="stroke:#000000; stroke-width:4; stroke-opacity:1; fill:none" points="
  166.205,1486.45 166.205,47.2441 
  "/>
<polyline clip-path="url(#clip670)" style="stroke:#000000; stroke-width:4; stroke-opacity:1; fill:none" points="
  315.514,1486.45 315.514,1469.18 
  "/>
<polyline clip-path="url(#clip670)" style="stroke:#000000; stroke-width:4; stroke-opacity:1; fill:none" points="
  751.191,1486.45 751.191,1469.18 
  "/>
<polyline clip-path="url(#clip670)" style="stroke:#000000; stroke-width:4; stroke-opacity:1; fill:none" points="
  1186.87,1486.45 1186.87,1469.18 
  "/>
<polyline clip-path="url(#clip670)" style="stroke:#000000; stroke-width:4; stroke-opacity:1; fill:none" points="
  1622.54,1486.45 1622.54,1469.18 
  "/>
<polyline clip-path="url(#clip670)" style="stroke:#000000; stroke-width:4; stroke-opacity:1; fill:none" points="
  2058.22,1486.45 2058.22,1469.18 
  "/>
<polyline clip-path="url(#clip670)" style="stroke:#000000; stroke-width:4; stroke-opacity:1; fill:none" points="
  166.205,1445.72 192.443,1445.72 
  "/>
<polyline clip-path="url(#clip670)" style="stroke:#000000; stroke-width:4; stroke-opacity:1; fill:none" points="
  166.205,1094.88 192.443,1094.88 
  "/>
<polyline clip-path="url(#clip670)" style="stroke:#000000; stroke-width:4; stroke-opacity:1; fill:none" points="
  166.205,744.042 192.443,744.042 
  "/>
<polyline clip-path="url(#clip670)" style="stroke:#000000; stroke-width:4; stroke-opacity:1; fill:none" points="
  166.205,393.205 192.443,393.205 
  "/>
<path clip-path="url(#clip670)" d="M 0 0 M295.688 1525.04 L308.164 1525.04 L308.164 1528.83 L295.688 1528.83 L295.688 1525.04 Z" fill="#000000" fill-rule="evenodd" fill-opacity="1" /><path clip-path="url(#clip670)" d="M 0 0 M323.813 1520.78 Q320.664 1520.78 318.813 1522.93 Q316.984 1525.08 316.984 1528.83 Q316.984 1532.56 318.813 1534.73 Q320.664 1536.89 323.813 1536.89 Q326.961 1536.89 328.789 1534.73 Q330.641 1532.56 330.641 1528.83 Q330.641 1525.08 328.789 1522.93 Q326.961 1520.78 323.813 1520.78 M333.095 1506.12 L333.095 1510.38 Q331.336 1509.55 329.53 1509.11 Q327.748 1508.67 325.988 1508.67 Q321.359 1508.67 318.905 1511.8 Q316.475 1514.92 316.127 1521.24 Q317.493 1519.23 319.553 1518.16 Q321.613 1517.07 324.09 1517.07 Q329.299 1517.07 332.308 1520.24 Q335.34 1523.39 335.34 1528.83 Q335.34 1534.16 332.192 1537.37 Q329.044 1540.59 323.813 1540.59 Q317.817 1540.59 314.646 1536.01 Q311.475 1531.4 311.475 1522.67 Q311.475 1514.48 315.364 1509.62 Q319.252 1504.73 325.803 1504.73 Q327.563 1504.73 329.345 1505.08 Q331.15 1505.43 333.095 1506.12 Z" fill="#000000" fill-rule="evenodd" fill-opacity="1" /><path clip-path="url(#clip670)" d="M 0 0 M731.77 1525.04 L744.246 1525.04 L744.246 1528.83 L731.77 1528.83 L731.77 1525.04 Z" fill="#000000" fill-rule="evenodd" fill-opacity="1" /><path clip-path="url(#clip670)" d="M 0 0 M763.482 1521.29 Q766.839 1522 768.714 1524.27 Q770.612 1526.54 770.612 1529.87 Q770.612 1534.99 767.093 1537.79 Q763.575 1540.59 757.093 1540.59 Q754.918 1540.59 752.603 1540.15 Q750.311 1539.73 747.857 1538.88 L747.857 1534.36 Q749.802 1535.5 752.117 1536.08 Q754.431 1536.66 756.955 1536.66 Q761.353 1536.66 763.644 1534.92 Q765.959 1533.18 765.959 1529.87 Q765.959 1526.82 763.806 1525.11 Q761.677 1523.37 757.857 1523.37 L753.83 1523.37 L753.83 1519.53 L758.043 1519.53 Q761.492 1519.53 763.32 1518.16 Q765.149 1516.77 765.149 1514.18 Q765.149 1511.52 763.251 1510.11 Q761.376 1508.67 757.857 1508.67 Q755.936 1508.67 753.737 1509.09 Q751.538 1509.5 748.899 1510.38 L748.899 1506.22 Q751.561 1505.48 753.876 1505.11 Q756.214 1504.73 758.274 1504.73 Q763.598 1504.73 766.7 1507.17 Q769.802 1509.57 769.802 1513.69 Q769.802 1516.56 768.158 1518.55 Q766.515 1520.52 763.482 1521.29 Z" fill="#000000" fill-rule="evenodd" fill-opacity="1" /><path clip-path="url(#clip670)" d="M 0 0 M1186.87 1508.44 Q1183.26 1508.44 1181.43 1512 Q1179.62 1515.55 1179.62 1522.67 Q1179.62 1529.78 1181.43 1533.35 Q1183.26 1536.89 1186.87 1536.89 Q1190.5 1536.89 1192.31 1533.35 Q1194.14 1529.78 1194.14 1522.67 Q1194.14 1515.55 1192.31 1512 Q1190.5 1508.44 1186.87 1508.44 M1186.87 1504.73 Q1192.68 1504.73 1195.73 1509.34 Q1198.81 1513.92 1198.81 1522.67 Q1198.81 1531.4 1195.73 1536.01 Q1192.68 1540.59 1186.87 1540.59 Q1181.06 1540.59 1177.98 1536.01 Q1174.92 1531.4 1174.92 1522.67 Q1174.92 1513.92 1177.98 1509.34 Q1181.06 1504.73 1186.87 1504.73 Z" fill="#000000" fill-rule="evenodd" fill-opacity="1" /><path clip-path="url(#clip670)" d="M 0 0 M1626.79 1521.29 Q1630.15 1522 1632.02 1524.27 Q1633.92 1526.54 1633.92 1529.87 Q1633.92 1534.99 1630.4 1537.79 Q1626.88 1540.59 1620.4 1540.59 Q1618.23 1540.59 1615.91 1540.15 Q1613.62 1539.73 1611.17 1538.88 L1611.17 1534.36 Q1613.11 1535.5 1615.43 1536.08 Q1617.74 1536.66 1620.26 1536.66 Q1624.66 1536.66 1626.95 1534.92 Q1629.27 1533.18 1629.27 1529.87 Q1629.27 1526.82 1627.12 1525.11 Q1624.99 1523.37 1621.17 1523.37 L1617.14 1523.37 L1617.14 1519.53 L1621.35 1519.53 Q1624.8 1519.53 1626.63 1518.16 Q1628.46 1516.77 1628.46 1514.18 Q1628.46 1511.52 1626.56 1510.11 Q1624.69 1508.67 1621.17 1508.67 Q1619.25 1508.67 1617.05 1509.09 Q1614.85 1509.5 1612.21 1510.38 L1612.21 1506.22 Q1614.87 1505.48 1617.19 1505.11 Q1619.52 1504.73 1621.58 1504.73 Q1626.91 1504.73 1630.01 1507.17 Q1633.11 1509.57 1633.11 1513.69 Q1633.11 1516.56 1631.47 1518.55 Q1629.82 1520.52 1626.79 1521.29 Z" fill="#000000" fill-rule="evenodd" fill-opacity="1" /><path clip-path="url(#clip670)" d="M 0 0 M2058.63 1520.78 Q2055.48 1520.78 2053.63 1522.93 Q2051.8 1525.08 2051.8 1528.83 Q2051.8 1532.56 2053.63 1534.73 Q2055.48 1536.89 2058.63 1536.89 Q2061.77 1536.89 2063.6 1534.73 Q2065.45 1532.56 2065.45 1528.83 Q2065.45 1525.08 2063.6 1522.93 Q2061.77 1520.78 2058.63 1520.78 M2067.91 1506.12 L2067.91 1510.38 Q2066.15 1509.55 2064.34 1509.11 Q2062.56 1508.67 2060.8 1508.67 Q2056.17 1508.67 2053.72 1511.8 Q2051.29 1514.92 2050.94 1521.24 Q2052.31 1519.23 2054.37 1518.16 Q2056.43 1517.07 2058.9 1517.07 Q2064.11 1517.07 2067.12 1520.24 Q2070.15 1523.39 2070.15 1528.83 Q2070.15 1534.16 2067.01 1537.37 Q2063.86 1540.59 2058.63 1540.59 Q2052.63 1540.59 2049.46 1536.01 Q2046.29 1531.4 2046.29 1522.67 Q2046.29 1514.48 2050.18 1509.62 Q2054.07 1504.73 2060.62 1504.73 Q2062.38 1504.73 2064.16 1505.08 Q2065.96 1505.43 2067.91 1506.12 Z" fill="#000000" fill-rule="evenodd" fill-opacity="1" /><path clip-path="url(#clip670)" d="M 0 0 M130.26 1431.51 Q126.649 1431.51 124.82 1435.08 Q123.015 1438.62 123.015 1445.75 Q123.015 1452.86 124.82 1456.42 Q126.649 1459.96 130.26 1459.96 Q133.895 1459.96 135.7 1456.42 Q137.529 1452.86 137.529 1445.75 Q137.529 1438.62 135.7 1435.08 Q133.895 1431.51 130.26 1431.51 M130.26 1427.81 Q136.07 1427.81 139.126 1432.42 Q142.205 1437 142.205 1445.75 Q142.205 1454.48 139.126 1459.08 Q136.07 1463.67 130.26 1463.67 Q124.45 1463.67 121.371 1459.08 Q118.316 1454.48 118.316 1445.75 Q118.316 1437 121.371 1432.42 Q124.45 1427.81 130.26 1427.81 Z" fill="#000000" fill-rule="evenodd" fill-opacity="1" /><path clip-path="url(#clip670)" d="M 0 0 M71.8578 1108.22 L88.1772 1108.22 L88.1772 1112.16 L66.2328 1112.16 L66.2328 1108.22 Q68.8949 1105.47 73.4782 1100.84 Q78.0846 1096.19 79.2652 1094.84 Q81.5105 1092.32 82.3902 1090.58 Q83.2929 1088.83 83.2929 1087.14 Q83.2929 1084.38 81.3485 1082.64 Q79.4272 1080.91 76.3254 1080.91 Q74.1263 1080.91 71.6726 1081.67 Q69.2421 1082.44 66.4643 1083.99 L66.4643 1079.27 Q69.2884 1078.13 71.7421 1077.55 Q74.1958 1076.97 76.2328 1076.97 Q81.6031 1076.97 84.7976 1079.66 Q87.992 1082.34 87.992 1086.83 Q87.992 1088.96 87.1818 1090.89 Q86.3948 1092.78 84.2883 1095.38 Q83.7096 1096.05 80.6078 1099.27 Q77.5059 1102.46 71.8578 1108.22 Z" fill="#000000" fill-rule="evenodd" fill-opacity="1" /><path clip-path="url(#clip670)" d="M 0 0 M103.247 1080.68 Q99.6354 1080.68 97.8068 1084.24 Q96.0012 1087.78 96.0012 1094.91 Q96.0012 1102.02 97.8068 1105.58 Q99.6354 1109.13 103.247 1109.13 Q106.881 1109.13 108.686 1105.58 Q110.515 1102.02 110.515 1094.91 Q110.515 1087.78 108.686 1084.24 Q106.881 1080.68 103.247 1080.68 M103.247 1076.97 Q109.057 1076.97 112.112 1081.58 Q115.191 1086.16 115.191 1094.91 Q115.191 1103.64 112.112 1108.25 Q109.057 1112.83 103.247 1112.83 Q97.4364 1112.83 94.3577 1108.25 Q91.3022 1103.64 91.3022 1094.91 Q91.3022 1086.16 94.3577 1081.58 Q97.4364 1076.97 103.247 1076.97 Z" fill="#000000" fill-rule="evenodd" fill-opacity="1" /><path clip-path="url(#clip670)" d="M 0 0 M130.26 1080.68 Q126.649 1080.68 124.82 1084.24 Q123.015 1087.78 123.015 1094.91 Q123.015 1102.02 124.82 1105.58 Q126.649 1109.13 130.26 1109.13 Q133.895 1109.13 135.7 1105.58 Q137.529 1102.02 137.529 1094.91 Q137.529 1087.78 135.7 1084.24 Q133.895 1080.68 130.26 1080.68 M130.26 1076.97 Q136.07 1076.97 139.126 1081.58 Q142.205 1086.16 142.205 1094.91 Q142.205 1103.64 139.126 1108.25 Q136.07 1112.83 130.26 1112.83 Q124.45 1112.83 121.371 1108.25 Q118.316 1103.64 118.316 1094.91 Q118.316 1086.16 121.371 1081.58 Q124.45 1076.97 130.26 1076.97 Z" fill="#000000" fill-rule="evenodd" fill-opacity="1" /><path clip-path="url(#clip670)" d="M 0 0 M78.5939 730.836 L66.7884 749.285 L78.5939 749.285 L78.5939 730.836 M77.367 726.762 L83.2466 726.762 L83.2466 749.285 L88.1772 749.285 L88.1772 753.173 L83.2466 753.173 L83.2466 761.322 L78.5939 761.322 L78.5939 753.173 L62.9921 753.173 L62.9921 748.66 L77.367 726.762 Z" fill="#000000" fill-rule="evenodd" fill-opacity="1" /><path clip-path="url(#clip670)" d="M 0 0 M103.247 729.84 Q99.6354 729.84 97.8068 733.405 Q96.0012 736.947 96.0012 744.076 Q96.0012 751.183 97.8068 754.748 Q99.6354 758.289 103.247 758.289 Q106.881 758.289 108.686 754.748 Q110.515 751.183 110.515 744.076 Q110.515 736.947 108.686 733.405 Q106.881 729.84 103.247 729.84 M103.247 726.137 Q109.057 726.137 112.112 730.743 Q115.191 735.326 115.191 744.076 Q115.191 752.803 112.112 757.41 Q109.057 761.993 103.247 761.993 Q97.4364 761.993 94.3577 757.41 Q91.3022 752.803 91.3022 744.076 Q91.3022 735.326 94.3577 730.743 Q97.4364 726.137 103.247 726.137 Z" fill="#000000" fill-rule="evenodd" fill-opacity="1" /><path clip-path="url(#clip670)" d="M 0 0 M130.26 729.84 Q126.649 729.84 124.82 733.405 Q123.015 736.947 123.015 744.076 Q123.015 751.183 124.82 754.748 Q126.649 758.289 130.26 758.289 Q133.895 758.289 135.7 754.748 Q137.529 751.183 137.529 744.076 Q137.529 736.947 135.7 733.405 Q133.895 729.84 130.26 729.84 M130.26 726.137 Q136.07 726.137 139.126 730.743 Q142.205 735.326 142.205 744.076 Q142.205 752.803 139.126 757.41 Q136.07 761.993 130.26 761.993 Q124.45 761.993 121.371 757.41 Q118.316 752.803 118.316 744.076 Q118.316 735.326 121.371 730.743 Q124.45 726.137 130.26 726.137 Z" fill="#000000" fill-rule="evenodd" fill-opacity="1" /><path clip-path="url(#clip670)" d="M 0 0 M76.6495 391.341 Q73.5013 391.341 71.6495 393.494 Q69.8208 395.647 69.8208 399.397 Q69.8208 403.123 71.6495 405.299 Q73.5013 407.452 76.6495 407.452 Q79.7976 407.452 81.6263 405.299 Q83.4781 403.123 83.4781 399.397 Q83.4781 395.647 81.6263 393.494 Q79.7976 391.341 76.6495 391.341 M85.9318 376.688 L85.9318 380.948 Q84.1726 380.114 82.367 379.674 Q80.5846 379.235 78.8254 379.235 Q74.1958 379.235 71.7421 382.36 Q69.3115 385.485 68.9643 391.804 Q70.33 389.79 72.3902 388.725 Q74.4504 387.637 76.9272 387.637 Q82.1355 387.637 85.1448 390.809 Q88.1772 393.957 88.1772 399.397 Q88.1772 404.721 85.029 407.938 Q81.8809 411.156 76.6495 411.156 Q70.6541 411.156 67.4828 406.573 Q64.3116 401.966 64.3116 393.239 Q64.3116 385.045 68.2004 380.184 Q72.0893 375.3 78.6402 375.3 Q80.3994 375.3 82.1818 375.647 Q83.9874 375.994 85.9318 376.688 Z" fill="#000000" fill-rule="evenodd" fill-opacity="1" /><path clip-path="url(#clip670)" d="M 0 0 M103.247 379.003 Q99.6354 379.003 97.8068 382.568 Q96.0012 386.11 96.0012 393.239 Q96.0012 400.346 97.8068 403.91 Q99.6354 407.452 103.247 407.452 Q106.881 407.452 108.686 403.91 Q110.515 400.346 110.515 393.239 Q110.515 386.11 108.686 382.568 Q106.881 379.003 103.247 379.003 M103.247 375.3 Q109.057 375.3 112.112 379.906 Q115.191 384.489 115.191 393.239 Q115.191 401.966 112.112 406.573 Q109.057 411.156 103.247 411.156 Q97.4364 411.156 94.3577 406.573 Q91.3022 401.966 91.3022 393.239 Q91.3022 384.489 94.3577 379.906 Q97.4364 375.3 103.247 375.3 Z" fill="#000000" fill-rule="evenodd" fill-opacity="1" /><path clip-path="url(#clip670)" d="M 0 0 M130.26 379.003 Q126.649 379.003 124.82 382.568 Q123.015 386.11 123.015 393.239 Q123.015 400.346 124.82 403.91 Q126.649 407.452 130.26 407.452 Q133.895 407.452 135.7 403.91 Q137.529 400.346 137.529 393.239 Q137.529 386.11 135.7 382.568 Q133.895 379.003 130.26 379.003 M130.26 375.3 Q136.07 375.3 139.126 379.906 Q142.205 384.489 142.205 393.239 Q142.205 401.966 139.126 406.573 Q136.07 411.156 130.26 411.156 Q124.45 411.156 121.371 406.573 Q118.316 401.966 118.316 393.239 Q118.316 384.489 121.371 379.906 Q124.45 375.3 130.26 375.3 Z" fill="#000000" fill-rule="evenodd" fill-opacity="1" /><path clip-path="url(#clip672)" d="
M286.469 1438.7 L286.469 1445.72 L315.514 1445.72 L315.514 1438.7 L286.469 1438.7 L286.469 1438.7  Z
  " fill="#009af9" fill-rule="evenodd" fill-opacity="1"/>
<polyline clip-path="url(#clip672)" style="stroke:#000000; stroke-width:4; stroke-opacity:1; fill:none" points="
  286.469,1438.7 286.469,1445.72 315.514,1445.72 315.514,1438.7 286.469,1438.7 
  "/>
<path clip-path="url(#clip672)" d="
M315.514 1443.96 L315.514 1445.72 L344.559 1445.72 L344.559 1443.96 L315.514 1443.96 L315.514 1443.96  Z
  " fill="#009af9" fill-rule="evenodd" fill-opacity="1"/>
<polyline clip-path="url(#clip672)" style="stroke:#000000; stroke-width:4; stroke-opacity:1; fill:none" points="
  315.514,1443.96 315.514,1445.72 344.559,1445.72 344.559,1443.96 315.514,1443.96 
  "/>
<path clip-path="url(#clip672)" d="
M344.559 1442.21 L344.559 1445.72 L373.604 1445.72 L373.604 1442.21 L344.559 1442.21 L344.559 1442.21  Z
  " fill="#009af9" fill-rule="evenodd" fill-opacity="1"/>
<polyline clip-path="url(#clip672)" style="stroke:#000000; stroke-width:4; stroke-opacity:1; fill:none" points="
  344.559,1442.21 344.559,1445.72 373.604,1445.72 373.604,1442.21 344.559,1442.21 
  "/>
<path clip-path="url(#clip672)" d="
M373.604 1442.21 L373.604 1445.72 L402.649 1445.72 L402.649 1442.21 L373.604 1442.21 L373.604 1442.21  Z
  " fill="#009af9" fill-rule="evenodd" fill-opacity="1"/>
<polyline clip-path="url(#clip672)" style="stroke:#000000; stroke-width:4; stroke-opacity:1; fill:none" points="
  373.604,1442.21 373.604,1445.72 402.649,1445.72 402.649,1442.21 373.604,1442.21 
  "/>
<path clip-path="url(#clip672)" d="
M402.649 1445.72 L402.649 1445.72 L431.694 1445.72 L431.694 1445.72 L402.649 1445.72 L402.649 1445.72  Z
  " fill="#009af9" fill-rule="evenodd" fill-opacity="1"/>
<polyline clip-path="url(#clip672)" style="stroke:#000000; stroke-width:4; stroke-opacity:1; fill:none" points="
  402.649,1445.72 402.649,1445.72 431.694,1445.72 402.649,1445.72 
  "/>
<path clip-path="url(#clip672)" d="
M431.694 1436.94 L431.694 1445.72 L460.74 1445.72 L460.74 1436.94 L431.694 1436.94 L431.694 1436.94  Z
  " fill="#009af9" fill-rule="evenodd" fill-opacity="1"/>
<polyline clip-path="url(#clip672)" style="stroke:#000000; stroke-width:4; stroke-opacity:1; fill:none" points="
  431.694,1436.94 431.694,1445.72 460.74,1445.72 460.74,1436.94 431.694,1436.94 
  "/>
<path clip-path="url(#clip672)" d="
M460.74 1438.7 L460.74 1445.72 L489.785 1445.72 L489.785 1438.7 L460.74 1438.7 L460.74 1438.7  Z
  " fill="#009af9" fill-rule="evenodd" fill-opacity="1"/>
<polyline clip-path="url(#clip672)" style="stroke:#000000; stroke-width:4; stroke-opacity:1; fill:none" points="
  460.74,1438.7 460.74,1445.72 489.785,1445.72 489.785,1438.7 460.74,1438.7 
  "/>
<path clip-path="url(#clip672)" d="
M489.785 1436.94 L489.785 1445.72 L518.83 1445.72 L518.83 1436.94 L489.785 1436.94 L489.785 1436.94  Z
  " fill="#009af9" fill-rule="evenodd" fill-opacity="1"/>
<polyline clip-path="url(#clip672)" style="stroke:#000000; stroke-width:4; stroke-opacity:1; fill:none" points="
  489.785,1436.94 489.785,1445.72 518.83,1445.72 518.83,1436.94 489.785,1436.94 
  "/>
<path clip-path="url(#clip672)" d="
M518.83 1429.93 L518.83 1445.72 L547.875 1445.72 L547.875 1429.93 L518.83 1429.93 L518.83 1429.93  Z
  " fill="#009af9" fill-rule="evenodd" fill-opacity="1"/>
<polyline clip-path="url(#clip672)" style="stroke:#000000; stroke-width:4; stroke-opacity:1; fill:none" points="
  518.83,1429.93 518.83,1445.72 547.875,1445.72 547.875,1429.93 518.83,1429.93 
  "/>
<path clip-path="url(#clip672)" d="
M547.875 1422.91 L547.875 1445.72 L576.92 1445.72 L576.92 1422.91 L547.875 1422.91 L547.875 1422.91  Z
  " fill="#009af9" fill-rule="evenodd" fill-opacity="1"/>
<polyline clip-path="url(#clip672)" style="stroke:#000000; stroke-width:4; stroke-opacity:1; fill:none" points="
  547.875,1422.91 547.875,1445.72 576.92,1445.72 576.92,1422.91 547.875,1422.91 
  "/>
<path clip-path="url(#clip672)" d="
M576.92 1414.14 L576.92 1445.72 L605.965 1445.72 L605.965 1414.14 L576.92 1414.14 L576.92 1414.14  Z
  " fill="#009af9" fill-rule="evenodd" fill-opacity="1"/>
<polyline clip-path="url(#clip672)" style="stroke:#000000; stroke-width:4; stroke-opacity:1; fill:none" points="
  576.92,1414.14 576.92,1445.72 605.965,1445.72 605.965,1414.14 576.92,1414.14 
  "/>
<path clip-path="url(#clip672)" d="
M605.965 1408.88 L605.965 1445.72 L635.01 1445.72 L635.01 1408.88 L605.965 1408.88 L605.965 1408.88  Z
  " fill="#009af9" fill-rule="evenodd" fill-opacity="1"/>
<polyline clip-path="url(#clip672)" style="stroke:#000000; stroke-width:4; stroke-opacity:1; fill:none" points="
  605.965,1408.88 605.965,1445.72 635.01,1445.72 635.01,1408.88 605.965,1408.88 
  "/>
<path clip-path="url(#clip672)" d="
M635.01 1414.14 L635.01 1445.72 L664.055 1445.72 L664.055 1414.14 L635.01 1414.14 L635.01 1414.14  Z
  " fill="#009af9" fill-rule="evenodd" fill-opacity="1"/>
<polyline clip-path="url(#clip672)" style="stroke:#000000; stroke-width:4; stroke-opacity:1; fill:none" points="
  635.01,1414.14 635.01,1445.72 664.055,1445.72 664.055,1414.14 635.01,1414.14 
  "/>
<path clip-path="url(#clip672)" d="
M664.055 1391.34 L664.055 1445.72 L693.101 1445.72 L693.101 1391.34 L664.055 1391.34 L664.055 1391.34  Z
  " fill="#009af9" fill-rule="evenodd" fill-opacity="1"/>
<polyline clip-path="url(#clip672)" style="stroke:#000000; stroke-width:4; stroke-opacity:1; fill:none" points="
  664.055,1391.34 664.055,1445.72 693.101,1445.72 693.101,1391.34 664.055,1391.34 
  "/>
<path clip-path="url(#clip672)" d="
M693.101 1396.6 L693.101 1445.72 L722.146 1445.72 L722.146 1396.6 L693.101 1396.6 L693.101 1396.6  Z
  " fill="#009af9" fill-rule="evenodd" fill-opacity="1"/>
<polyline clip-path="url(#clip672)" style="stroke:#000000; stroke-width:4; stroke-opacity:1; fill:none" points="
  693.101,1396.6 693.101,1445.72 722.146,1445.72 722.146,1396.6 693.101,1396.6 
  "/>
<path clip-path="url(#clip672)" d="
M722.146 1375.55 L722.146 1445.72 L751.191 1445.72 L751.191 1375.55 L722.146 1375.55 L722.146 1375.55  Z
  " fill="#009af9" fill-rule="evenodd" fill-opacity="1"/>
<polyline clip-path="url(#clip672)" style="stroke:#000000; stroke-width:4; stroke-opacity:1; fill:none" points="
  722.146,1375.55 722.146,1445.72 751.191,1445.72 751.191,1375.55 722.146,1375.55 
  "/>
<path clip-path="url(#clip672)" d="
M751.191 1350.99 L751.191 1445.72 L780.236 1445.72 L780.236 1350.99 L751.191 1350.99 L751.191 1350.99  Z
  " fill="#009af9" fill-rule="evenodd" fill-opacity="1"/>
<polyline clip-path="url(#clip672)" style="stroke:#000000; stroke-width:4; stroke-opacity:1; fill:none" points="
  751.191,1350.99 751.191,1445.72 780.236,1445.72 780.236,1350.99 751.191,1350.99 
  "/>
<path clip-path="url(#clip672)" d="
M780.236 1354.5 L780.236 1445.72 L809.281 1445.72 L809.281 1354.5 L780.236 1354.5 L780.236 1354.5  Z
  " fill="#009af9" fill-rule="evenodd" fill-opacity="1"/>
<polyline clip-path="url(#clip672)" style="stroke:#000000; stroke-width:4; stroke-opacity:1; fill:none" points="
  780.236,1354.5 780.236,1445.72 809.281,1445.72 809.281,1354.5 780.236,1354.5 
  "/>
<path clip-path="url(#clip672)" d="
M809.281 1321.17 L809.281 1445.72 L838.326 1445.72 L838.326 1321.17 L809.281 1321.17 L809.281 1321.17  Z
  " fill="#009af9" fill-rule="evenodd" fill-opacity="1"/>
<polyline clip-path="url(#clip672)" style="stroke:#000000; stroke-width:4; stroke-opacity:1; fill:none" points="
  809.281,1321.17 809.281,1445.72 838.326,1445.72 838.326,1321.17 809.281,1321.17 
  "/>
<path clip-path="url(#clip672)" d="
M838.326 1352.74 L838.326 1445.72 L867.371 1445.72 L867.371 1352.74 L838.326 1352.74 L838.326 1352.74  Z
  " fill="#009af9" fill-rule="evenodd" fill-opacity="1"/>
<polyline clip-path="url(#clip672)" style="stroke:#000000; stroke-width:4; stroke-opacity:1; fill:none" points="
  838.326,1352.74 838.326,1445.72 867.371,1445.72 867.371,1352.74 838.326,1352.74 
  "/>
<path clip-path="url(#clip672)" d="
M867.371 1333.45 L867.371 1445.72 L896.416 1445.72 L896.416 1333.45 L867.371 1333.45 L867.371 1333.45  Z
  " fill="#009af9" fill-rule="evenodd" fill-opacity="1"/>
<polyline clip-path="url(#clip672)" style="stroke:#000000; stroke-width:4; stroke-opacity:1; fill:none" points="
  867.371,1333.45 867.371,1445.72 896.416,1445.72 896.416,1333.45 867.371,1333.45 
  "/>
<path clip-path="url(#clip672)" d="
M896.416 1308.89 L896.416 1445.72 L925.461 1445.72 L925.461 1308.89 L896.416 1308.89 L896.416 1308.89  Z
  " fill="#009af9" fill-rule="evenodd" fill-opacity="1"/>
<polyline clip-path="url(#clip672)" style="stroke:#000000; stroke-width:4; stroke-opacity:1; fill:none" points="
  896.416,1308.89 896.416,1445.72 925.461,1445.72 925.461,1308.89 896.416,1308.89 
  "/>
<path clip-path="url(#clip672)" d="
M925.461 1301.87 L925.461 1445.72 L954.507 1445.72 L954.507 1301.87 L925.461 1301.87 L925.461 1301.87  Z
  " fill="#009af9" fill-rule="evenodd" fill-opacity="1"/>
<polyline clip-path="url(#clip672)" style="stroke:#000000; stroke-width:4; stroke-opacity:1; fill:none" points="
  925.461,1301.87 925.461,1445.72 954.507,1445.72 954.507,1301.87 925.461,1301.87 
  "/>
<path clip-path="url(#clip672)" d="
M954.507 1256.26 L954.507 1445.72 L983.552 1445.72 L983.552 1256.26 L954.507 1256.26 L954.507 1256.26  Z
  " fill="#009af9" fill-rule="evenodd" fill-opacity="1"/>
<polyline clip-path="url(#clip672)" style="stroke:#000000; stroke-width:4; stroke-opacity:1; fill:none" points="
  954.507,1256.26 954.507,1445.72 983.552,1445.72 983.552,1256.26 954.507,1256.26 
  "/>
<path clip-path="url(#clip672)" d="
M983.552 1252.76 L983.552 1445.72 L1012.6 1445.72 L1012.6 1252.76 L983.552 1252.76 L983.552 1252.76  Z
  " fill="#009af9" fill-rule="evenodd" fill-opacity="1"/>
<polyline clip-path="url(#clip672)" style="stroke:#000000; stroke-width:4; stroke-opacity:1; fill:none" points="
  983.552,1252.76 983.552,1445.72 1012.6,1445.72 1012.6,1252.76 983.552,1252.76 
  "/>
<path clip-path="url(#clip672)" d="
M1012.6 1263.28 L1012.6 1445.72 L1041.64 1445.72 L1041.64 1263.28 L1012.6 1263.28 L1012.6 1263.28  Z
  " fill="#009af9" fill-rule="evenodd" fill-opacity="1"/>
<polyline clip-path="url(#clip672)" style="stroke:#000000; stroke-width:4; stroke-opacity:1; fill:none" points="
  1012.6,1263.28 1012.6,1445.72 1041.64,1445.72 1041.64,1263.28 1012.6,1263.28 
  "/>
<path clip-path="url(#clip672)" d="
M1041.64 1214.16 L1041.64 1445.72 L1070.69 1445.72 L1070.69 1214.16 L1041.64 1214.16 L1041.64 1214.16  Z
  " fill="#009af9" fill-rule="evenodd" fill-opacity="1"/>
<polyline clip-path="url(#clip672)" style="stroke:#000000; stroke-width:4; stroke-opacity:1; fill:none" points="
  1041.64,1214.16 1041.64,1445.72 1070.69,1445.72 1070.69,1214.16 1041.64,1214.16 
  "/>
<path clip-path="url(#clip672)" d="
M1070.69 1242.23 L1070.69 1445.72 L1099.73 1445.72 L1099.73 1242.23 L1070.69 1242.23 L1070.69 1242.23  Z
  " fill="#009af9" fill-rule="evenodd" fill-opacity="1"/>
<polyline clip-path="url(#clip672)" style="stroke:#000000; stroke-width:4; stroke-opacity:1; fill:none" points="
  1070.69,1242.23 1070.69,1445.72 1099.73,1445.72 1099.73,1242.23 1070.69,1242.23 
  "/>
<path clip-path="url(#clip672)" d="
M1099.73 1284.33 L1099.73 1445.72 L1128.78 1445.72 L1128.78 1284.33 L1099.73 1284.33 L1099.73 1284.33  Z
  " fill="#009af9" fill-rule="evenodd" fill-opacity="1"/>
<polyline clip-path="url(#clip672)" style="stroke:#000000; stroke-width:4; stroke-opacity:1; fill:none" points="
  1099.73,1284.33 1099.73,1445.72 1128.78,1445.72 1128.78,1284.33 1099.73,1284.33 
  "/>
<path clip-path="url(#clip672)" d="
M1128.78 1240.48 L1128.78 1445.72 L1157.82 1445.72 L1157.82 1240.48 L1128.78 1240.48 L1128.78 1240.48  Z
  " fill="#009af9" fill-rule="evenodd" fill-opacity="1"/>
<polyline clip-path="url(#clip672)" style="stroke:#000000; stroke-width:4; stroke-opacity:1; fill:none" points="
  1128.78,1240.48 1128.78,1445.72 1157.82,1445.72 1157.82,1240.48 1128.78,1240.48 
  "/>
<path clip-path="url(#clip672)" d="
M1157.82 1245.74 L1157.82 1445.72 L1186.87 1445.72 L1186.87 1245.74 L1157.82 1245.74 L1157.82 1245.74  Z
  " fill="#009af9" fill-rule="evenodd" fill-opacity="1"/>
<polyline clip-path="url(#clip672)" style="stroke:#000000; stroke-width:4; stroke-opacity:1; fill:none" points="
  1157.82,1245.74 1157.82,1445.72 1186.87,1445.72 1186.87,1245.74 1157.82,1245.74 
  "/>
<path clip-path="url(#clip672)" d="
M1186.87 1233.46 L1186.87 1445.72 L1215.91 1445.72 L1215.91 1233.46 L1186.87 1233.46 L1186.87 1233.46  Z
  " fill="#009af9" fill-rule="evenodd" fill-opacity="1"/>
<polyline clip-path="url(#clip672)" style="stroke:#000000; stroke-width:4; stroke-opacity:1; fill:none" points="
  1186.87,1233.46 1186.87,1445.72 1215.91,1445.72 1215.91,1233.46 1186.87,1233.46 
  "/>
<path clip-path="url(#clip672)" d="
M1215.91 1259.77 L1215.91 1445.72 L1244.96 1445.72 L1244.96 1259.77 L1215.91 1259.77 L1215.91 1259.77  Z
  " fill="#009af9" fill-rule="evenodd" fill-opacity="1"/>
<polyline clip-path="url(#clip672)" style="stroke:#000000; stroke-width:4; stroke-opacity:1; fill:none" points="
  1215.91,1259.77 1215.91,1445.72 1244.96,1445.72 1244.96,1259.77 1215.91,1259.77 
  "/>
<path clip-path="url(#clip672)" d="
M1244.96 1122.95 L1244.96 1445.72 L1274 1445.72 L1274 1122.95 L1244.96 1122.95 L1244.96 1122.95  Z
  " fill="#009af9" fill-rule="evenodd" fill-opacity="1"/>
<polyline clip-path="url(#clip672)" style="stroke:#000000; stroke-width:4; stroke-opacity:1; fill:none" points="
  1244.96,1122.95 1244.96,1445.72 1274,1445.72 1274,1122.95 1244.96,1122.95 
  "/>
<path clip-path="url(#clip672)" d="
M1274 772.109 L1274 1445.72 L1303.05 1445.72 L1303.05 772.109 L1274 772.109 L1274 772.109  Z
  " fill="#009af9" fill-rule="evenodd" fill-opacity="1"/>
<polyline clip-path="url(#clip672)" style="stroke:#000000; stroke-width:4; stroke-opacity:1; fill:none" points="
  1274,772.109 1274,1445.72 1303.05,1445.72 1303.05,772.109 1274,772.109 
  "/>
<path clip-path="url(#clip672)" d="
M1303.05 98.5014 L1303.05 1445.72 L1332.09 1445.72 L1332.09 98.5014 L1303.05 98.5014 L1303.05 98.5014  Z
  " fill="#009af9" fill-rule="evenodd" fill-opacity="1"/>
<polyline clip-path="url(#clip672)" style="stroke:#000000; stroke-width:4; stroke-opacity:1; fill:none" points="
  1303.05,98.5014 1303.05,1445.72 1332.09,1445.72 1332.09,98.5014 1303.05,98.5014 
  "/>
<path clip-path="url(#clip672)" d="
M1332.09 87.9763 L1332.09 1445.72 L1361.14 1445.72 L1361.14 87.9763 L1332.09 87.9763 L1332.09 87.9763  Z
  " fill="#009af9" fill-rule="evenodd" fill-opacity="1"/>
<polyline clip-path="url(#clip672)" style="stroke:#000000; stroke-width:4; stroke-opacity:1; fill:none" points="
  1332.09,87.9763 1332.09,1445.72 1361.14,1445.72 1361.14,87.9763 1332.09,87.9763 
  "/>
<path clip-path="url(#clip672)" d="
M1361.14 794.913 L1361.14 1445.72 L1390.18 1445.72 L1390.18 794.913 L1361.14 794.913 L1361.14 794.913  Z
  " fill="#009af9" fill-rule="evenodd" fill-opacity="1"/>
<polyline clip-path="url(#clip672)" style="stroke:#000000; stroke-width:4; stroke-opacity:1; fill:none" points="
  1361.14,794.913 1361.14,1445.72 1390.18,1445.72 1390.18,794.913 1361.14,794.913 
  "/>
<path clip-path="url(#clip672)" d="
M1390.18 1233.46 L1390.18 1445.72 L1419.23 1445.72 L1419.23 1233.46 L1390.18 1233.46 L1390.18 1233.46  Z
  " fill="#009af9" fill-rule="evenodd" fill-opacity="1"/>
<polyline clip-path="url(#clip672)" style="stroke:#000000; stroke-width:4; stroke-opacity:1; fill:none" points="
  1390.18,1233.46 1390.18,1445.72 1419.23,1445.72 1419.23,1233.46 1390.18,1233.46 
  "/>
<path clip-path="url(#clip672)" d="
M1419.23 1301.87 L1419.23 1445.72 L1448.27 1445.72 L1448.27 1301.87 L1419.23 1301.87 L1419.23 1301.87  Z
  " fill="#009af9" fill-rule="evenodd" fill-opacity="1"/>
<polyline clip-path="url(#clip672)" style="stroke:#000000; stroke-width:4; stroke-opacity:1; fill:none" points="
  1419.23,1301.87 1419.23,1445.72 1448.27,1445.72 1448.27,1301.87 1419.23,1301.87 
  "/>
<path clip-path="url(#clip672)" d="
M1448.27 1282.58 L1448.27 1445.72 L1477.32 1445.72 L1477.32 1282.58 L1448.27 1282.58 L1448.27 1282.58  Z
  " fill="#009af9" fill-rule="evenodd" fill-opacity="1"/>
<polyline clip-path="url(#clip672)" style="stroke:#000000; stroke-width:4; stroke-opacity:1; fill:none" points="
  1448.27,1282.58 1448.27,1445.72 1477.32,1445.72 1477.32,1282.58 1448.27,1282.58 
  "/>
<path clip-path="url(#clip672)" d="
M1477.32 1338.71 L1477.32 1445.72 L1506.36 1445.72 L1506.36 1338.71 L1477.32 1338.71 L1477.32 1338.71  Z
  " fill="#009af9" fill-rule="evenodd" fill-opacity="1"/>
<polyline clip-path="url(#clip672)" style="stroke:#000000; stroke-width:4; stroke-opacity:1; fill:none" points="
  1477.32,1338.71 1477.32,1445.72 1506.36,1445.72 1506.36,1338.71 1477.32,1338.71 
  "/>
<path clip-path="url(#clip672)" d="
M1506.36 1333.45 L1506.36 1445.72 L1535.41 1445.72 L1535.41 1333.45 L1506.36 1333.45 L1506.36 1333.45  Z
  " fill="#009af9" fill-rule="evenodd" fill-opacity="1"/>
<polyline clip-path="url(#clip672)" style="stroke:#000000; stroke-width:4; stroke-opacity:1; fill:none" points="
  1506.36,1333.45 1506.36,1445.72 1535.41,1445.72 1535.41,1333.45 1506.36,1333.45 
  "/>
<path clip-path="url(#clip672)" d="
M1535.41 1342.22 L1535.41 1445.72 L1564.45 1445.72 L1564.45 1342.22 L1535.41 1342.22 L1535.41 1342.22  Z
  " fill="#009af9" fill-rule="evenodd" fill-opacity="1"/>
<polyline clip-path="url(#clip672)" style="stroke:#000000; stroke-width:4; stroke-opacity:1; fill:none" points="
  1535.41,1342.22 1535.41,1445.72 1564.45,1445.72 1564.45,1342.22 1535.41,1342.22 
  "/>
<path clip-path="url(#clip672)" d="
M1564.45 1372.04 L1564.45 1445.72 L1593.5 1445.72 L1593.5 1372.04 L1564.45 1372.04 L1564.45 1372.04  Z
  " fill="#009af9" fill-rule="evenodd" fill-opacity="1"/>
<polyline clip-path="url(#clip672)" style="stroke:#000000; stroke-width:4; stroke-opacity:1; fill:none" points="
  1564.45,1372.04 1564.45,1445.72 1593.5,1445.72 1593.5,1372.04 1564.45,1372.04 
  "/>
<path clip-path="url(#clip672)" d="
M1593.5 1379.06 L1593.5 1445.72 L1622.54 1445.72 L1622.54 1379.06 L1593.5 1379.06 L1593.5 1379.06  Z
  " fill="#009af9" fill-rule="evenodd" fill-opacity="1"/>
<polyline clip-path="url(#clip672)" style="stroke:#000000; stroke-width:4; stroke-opacity:1; fill:none" points="
  1593.5,1379.06 1593.5,1445.72 1622.54,1445.72 1622.54,1379.06 1593.5,1379.06 
  "/>
<path clip-path="url(#clip672)" d="
M1622.54 1389.58 L1622.54 1445.72 L1651.59 1445.72 L1651.59 1389.58 L1622.54 1389.58 L1622.54 1389.58  Z
  " fill="#009af9" fill-rule="evenodd" fill-opacity="1"/>
<polyline clip-path="url(#clip672)" style="stroke:#000000; stroke-width:4; stroke-opacity:1; fill:none" points="
  1622.54,1389.58 1622.54,1445.72 1651.59,1445.72 1651.59,1389.58 1622.54,1389.58 
  "/>
<path clip-path="url(#clip672)" d="
M1651.59 1394.84 L1651.59 1445.72 L1680.63 1445.72 L1680.63 1394.84 L1651.59 1394.84 L1651.59 1394.84  Z
  " fill="#009af9" fill-rule="evenodd" fill-opacity="1"/>
<polyline clip-path="url(#clip672)" style="stroke:#000000; stroke-width:4; stroke-opacity:1; fill:none" points="
  1651.59,1394.84 1651.59,1445.72 1680.63,1445.72 1680.63,1394.84 1651.59,1394.84 
  "/>
<path clip-path="url(#clip672)" d="
M1680.63 1401.86 L1680.63 1445.72 L1709.68 1445.72 L1709.68 1401.86 L1680.63 1401.86 L1680.63 1401.86  Z
  " fill="#009af9" fill-rule="evenodd" fill-opacity="1"/>
<polyline clip-path="url(#clip672)" style="stroke:#000000; stroke-width:4; stroke-opacity:1; fill:none" points="
  1680.63,1401.86 1680.63,1445.72 1709.68,1445.72 1709.68,1401.86 1680.63,1401.86 
  "/>
<path clip-path="url(#clip672)" d="
M1709.68 1412.39 L1709.68 1445.72 L1738.72 1445.72 L1738.72 1412.39 L1709.68 1412.39 L1709.68 1412.39  Z
  " fill="#009af9" fill-rule="evenodd" fill-opacity="1"/>
<polyline clip-path="url(#clip672)" style="stroke:#000000; stroke-width:4; stroke-opacity:1; fill:none" points="
  1709.68,1412.39 1709.68,1445.72 1738.72,1445.72 1738.72,1412.39 1709.68,1412.39 
  "/>
<path clip-path="url(#clip672)" d="
M1738.72 1428.17 L1738.72 1445.72 L1767.77 1445.72 L1767.77 1428.17 L1738.72 1428.17 L1738.72 1428.17  Z
  " fill="#009af9" fill-rule="evenodd" fill-opacity="1"/>
<polyline clip-path="url(#clip672)" style="stroke:#000000; stroke-width:4; stroke-opacity:1; fill:none" points="
  1738.72,1428.17 1738.72,1445.72 1767.77,1445.72 1767.77,1428.17 1738.72,1428.17 
  "/>
<path clip-path="url(#clip672)" d="
M1767.77 1417.65 L1767.77 1445.72 L1796.81 1445.72 L1796.81 1417.65 L1767.77 1417.65 L1767.77 1417.65  Z
  " fill="#009af9" fill-rule="evenodd" fill-opacity="1"/>
<polyline clip-path="url(#clip672)" style="stroke:#000000; stroke-width:4; stroke-opacity:1; fill:none" points="
  1767.77,1417.65 1767.77,1445.72 1796.81,1445.72 1796.81,1417.65 1767.77,1417.65 
  "/>
<path clip-path="url(#clip672)" d="
M1796.81 1428.17 L1796.81 1445.72 L1825.86 1445.72 L1825.86 1428.17 L1796.81 1428.17 L1796.81 1428.17  Z
  " fill="#009af9" fill-rule="evenodd" fill-opacity="1"/>
<polyline clip-path="url(#clip672)" style="stroke:#000000; stroke-width:4; stroke-opacity:1; fill:none" points="
  1796.81,1428.17 1796.81,1445.72 1825.86,1445.72 1825.86,1428.17 1796.81,1428.17 
  "/>
<path clip-path="url(#clip672)" d="
M1825.86 1421.16 L1825.86 1445.72 L1854.91 1445.72 L1854.91 1421.16 L1825.86 1421.16 L1825.86 1421.16  Z
  " fill="#009af9" fill-rule="evenodd" fill-opacity="1"/>
<polyline clip-path="url(#clip672)" style="stroke:#000000; stroke-width:4; stroke-opacity:1; fill:none" points="
  1825.86,1421.16 1825.86,1445.72 1854.91,1445.72 1854.91,1421.16 1825.86,1421.16 
  "/>
<path clip-path="url(#clip672)" d="
M1854.91 1436.94 L1854.91 1445.72 L1883.95 1445.72 L1883.95 1436.94 L1854.91 1436.94 L1854.91 1436.94  Z
  " fill="#009af9" fill-rule="evenodd" fill-opacity="1"/>
<polyline clip-path="url(#clip672)" style="stroke:#000000; stroke-width:4; stroke-opacity:1; fill:none" points="
  1854.91,1436.94 1854.91,1445.72 1883.95,1445.72 1883.95,1436.94 1854.91,1436.94 
  "/>
<path clip-path="url(#clip672)" d="
M1883.95 1429.93 L1883.95 1445.72 L1913 1445.72 L1913 1429.93 L1883.95 1429.93 L1883.95 1429.93  Z
  " fill="#009af9" fill-rule="evenodd" fill-opacity="1"/>
<polyline clip-path="url(#clip672)" style="stroke:#000000; stroke-width:4; stroke-opacity:1; fill:none" points="
  1883.95,1429.93 1883.95,1445.72 1913,1445.72 1913,1429.93 1883.95,1429.93 
  "/>
<path clip-path="url(#clip672)" d="
M1913 1440.45 L1913 1445.72 L1942.04 1445.72 L1942.04 1440.45 L1913 1440.45 L1913 1440.45  Z
  " fill="#009af9" fill-rule="evenodd" fill-opacity="1"/>
<polyline clip-path="url(#clip672)" style="stroke:#000000; stroke-width:4; stroke-opacity:1; fill:none" points="
  1913,1440.45 1913,1445.72 1942.04,1445.72 1942.04,1440.45 1913,1440.45 
  "/>
<path clip-path="url(#clip672)" d="
M1942.04 1436.94 L1942.04 1445.72 L1971.09 1445.72 L1971.09 1436.94 L1942.04 1436.94 L1942.04 1436.94  Z
  " fill="#009af9" fill-rule="evenodd" fill-opacity="1"/>
<polyline clip-path="url(#clip672)" style="stroke:#000000; stroke-width:4; stroke-opacity:1; fill:none" points="
  1942.04,1436.94 1942.04,1445.72 1971.09,1445.72 1971.09,1436.94 1942.04,1436.94 
  "/>
<path clip-path="url(#clip672)" d="
M1971.09 1443.96 L1971.09 1445.72 L2000.13 1445.72 L2000.13 1443.96 L1971.09 1443.96 L1971.09 1443.96  Z
  " fill="#009af9" fill-rule="evenodd" fill-opacity="1"/>
<polyline clip-path="url(#clip672)" style="stroke:#000000; stroke-width:4; stroke-opacity:1; fill:none" points="
  1971.09,1443.96 1971.09,1445.72 2000.13,1445.72 2000.13,1443.96 1971.09,1443.96 
  "/>
<path clip-path="url(#clip672)" d="
M2000.13 1443.96 L2000.13 1445.72 L2029.18 1445.72 L2029.18 1443.96 L2000.13 1443.96 L2000.13 1443.96  Z
  " fill="#009af9" fill-rule="evenodd" fill-opacity="1"/>
<polyline clip-path="url(#clip672)" style="stroke:#000000; stroke-width:4; stroke-opacity:1; fill:none" points="
  2000.13,1443.96 2000.13,1445.72 2029.18,1445.72 2029.18,1443.96 2000.13,1443.96 
  "/>
<path clip-path="url(#clip672)" d="
M2029.18 1443.96 L2029.18 1445.72 L2058.22 1445.72 L2058.22 1443.96 L2029.18 1443.96 L2029.18 1443.96  Z
  " fill="#009af9" fill-rule="evenodd" fill-opacity="1"/>
<polyline clip-path="url(#clip672)" style="stroke:#000000; stroke-width:4; stroke-opacity:1; fill:none" points="
  2029.18,1443.96 2029.18,1445.72 2058.22,1445.72 2058.22,1443.96 2029.18,1443.96 
  "/>
<path clip-path="url(#clip672)" d="
M2058.22 1445.72 L2058.22 1445.72 L2087.27 1445.72 L2087.27 1445.72 L2058.22 1445.72 L2058.22 1445.72  Z
  " fill="#009af9" fill-rule="evenodd" fill-opacity="1"/>
<polyline clip-path="url(#clip672)" style="stroke:#000000; stroke-width:4; stroke-opacity:1; fill:none" points="
  2058.22,1445.72 2058.22,1445.72 2087.27,1445.72 2058.22,1445.72 
  "/>
<path clip-path="url(#clip672)" d="
M2087.27 1443.96 L2087.27 1445.72 L2116.31 1445.72 L2116.31 1443.96 L2087.27 1443.96 L2087.27 1443.96  Z
  " fill="#009af9" fill-rule="evenodd" fill-opacity="1"/>
<polyline clip-path="url(#clip672)" style="stroke:#000000; stroke-width:4; stroke-opacity:1; fill:none" points="
  2087.27,1443.96 2087.27,1445.72 2116.31,1445.72 2116.31,1443.96 2087.27,1443.96 
  "/>
<path clip-path="url(#clip672)" d="
M2116.31 1443.96 L2116.31 1445.72 L2145.36 1445.72 L2145.36 1443.96 L2116.31 1443.96 L2116.31 1443.96  Z
  " fill="#009af9" fill-rule="evenodd" fill-opacity="1"/>
<polyline clip-path="url(#clip672)" style="stroke:#000000; stroke-width:4; stroke-opacity:1; fill:none" points="
  2116.31,1443.96 2116.31,1445.72 2145.36,1445.72 2145.36,1443.96 2116.31,1443.96 
  "/>
<path clip-path="url(#clip672)" d="
M2145.36 1445.72 L2145.36 1445.72 L2174.4 1445.72 L2174.4 1445.72 L2145.36 1445.72 L2145.36 1445.72  Z
  " fill="#009af9" fill-rule="evenodd" fill-opacity="1"/>
<polyline clip-path="url(#clip672)" style="stroke:#000000; stroke-width:4; stroke-opacity:1; fill:none" points="
  2145.36,1445.72 2145.36,1445.72 2174.4,1445.72 2145.36,1445.72 
  "/>
<path clip-path="url(#clip672)" d="
M2174.4 1445.72 L2174.4 1445.72 L2203.45 1445.72 L2203.45 1445.72 L2174.4 1445.72 L2174.4 1445.72  Z
  " fill="#009af9" fill-rule="evenodd" fill-opacity="1"/>
<polyline clip-path="url(#clip672)" style="stroke:#000000; stroke-width:4; stroke-opacity:1; fill:none" points="
  2174.4,1445.72 2174.4,1445.72 2203.45,1445.72 2174.4,1445.72 
  "/>
<path clip-path="url(#clip672)" d="
M2203.45 1442.21 L2203.45 1445.72 L2232.49 1445.72 L2232.49 1442.21 L2203.45 1442.21 L2203.45 1442.21  Z
  " fill="#009af9" fill-rule="evenodd" fill-opacity="1"/>
<polyline clip-path="url(#clip672)" style="stroke:#000000; stroke-width:4; stroke-opacity:1; fill:none" points="
  2203.45,1442.21 2203.45,1445.72 2232.49,1445.72 2232.49,1442.21 2203.45,1442.21 
  "/>
<path clip-path="url(#clip670)" d="
M1989.74 251.724 L2280.76 251.724 L2280.76 130.764 L1989.74 130.764  Z
  " fill="#ffffff" fill-rule="evenodd" fill-opacity="1"/>
<polyline clip-path="url(#clip670)" style="stroke:#000000; stroke-width:4; stroke-opacity:1; fill:none" points="
  1989.74,251.724 2280.76,251.724 2280.76,130.764 1989.74,130.764 1989.74,251.724 
  "/>
<path clip-path="url(#clip670)" d="
M2013.74 215.436 L2157.74 215.436 L2157.74 167.052 L2013.74 167.052 L2013.74 215.436  Z
  " fill="#009af9" fill-rule="evenodd" fill-opacity="1"/>
<polyline clip-path="url(#clip670)" style="stroke:#000000; stroke-width:4; stroke-opacity:1; fill:none" points="
  2013.74,215.436 2157.74,215.436 2157.74,167.052 2013.74,167.052 2013.74,215.436 
  "/>
<path clip-path="url(#clip670)" d="M 0 0 M2195.58 210.931 Q2193.77 215.561 2192.06 216.973 Q2190.35 218.385 2187.48 218.385 L2184.08 218.385 L2184.08 214.82 L2186.58 214.82 Q2188.33 214.82 2189.31 213.987 Q2190.28 213.154 2191.46 210.052 L2192.22 208.107 L2181.74 182.598 L2186.25 182.598 L2194.35 202.876 L2202.46 182.598 L2206.97 182.598 L2195.58 210.931 Z" fill="#000000" fill-rule="evenodd" fill-opacity="1" /><path clip-path="url(#clip670)" d="M 0 0 M2212.85 204.589 L2220.49 204.589 L2220.49 178.223 L2212.18 179.89 L2212.18 175.631 L2220.44 173.964 L2225.12 173.964 L2225.12 204.589 L2232.76 204.589 L2232.76 208.524 L2212.85 208.524 L2212.85 204.589 Z" fill="#000000" fill-rule="evenodd" fill-opacity="1" /></svg>
