<?xml version="1.0" encoding="utf-8"?>
<svg xmlns="http://www.w3.org/2000/svg" xmlns:xlink="http://www.w3.org/1999/xlink" width="600" height="400" viewBox="0 0 2400 1600">
<defs>
  <clipPath id="clip670">
    <rect x="0" y="0" width="2400" height="1600"/>
  </clipPath>
</defs>
<path clip-path="url(#clip670)" d="
M0 1600 L2400 1600 L2400 0 L0 0  Z
  " fill="#ffffff" fill-rule="evenodd" fill-opacity="1"/>
<defs>
  <clipPath id="clip671">
    <rect x="480" y="0" width="1681" height="1600"/>
  </clipPath>
</defs>
<path clip-path="url(#clip670)" d="
M166.205 1486.45 L2352.76 1486.45 L2352.76 47.2441 L166.205 47.2441  Z
  " fill="#ffffff" fill-rule="evenodd" fill-opacity="1"/>
<defs>
  <clipPath id="clip672">
    <rect x="166" y="47" width="2188" height="1440"/>
  </clipPath>
</defs>
<polyline clip-path="url(#clip672)" style="stroke:#000000; stroke-width:2; stroke-opacity:0.1; fill:none" points="
  431.694,1486.45 431.694,47.2441 
  "/>
<polyline clip-path="url(#clip672)" style="stroke:#000000; stroke-width:2; stroke-opacity:0.1; fill:none" points="
  722.146,1486.45 722.146,47.2441 
  "/>
<polyline clip-path="url(#clip672)" style="stroke:#000000; stroke-width:2; stroke-opacity:0.1; fill:none" points="
  1012.6,1486.45 1012.6,47.2441 
  "/>
<polyline clip-path="url(#clip672)" style="stroke:#000000; stroke-width:2; stroke-opacity:0.1; fill:none" points="
  1303.05,1486.45 1303.05,47.2441 
  "/>
<polyline clip-path="url(#clip672)" style="stroke:#000000; stroke-width:2; stroke-opacity:0.1; fill:none" points="
  1593.5,1486.45 1593.5,47.2441 
  "/>
<polyline clip-path="url(#clip672)" style="stroke:#000000; stroke-width:2; stroke-opacity:0.1; fill:none" points="
  1883.95,1486.45 1883.95,47.2441 
  "/>
<polyline clip-path="url(#clip672)" style="stroke:#000000; stroke-width:2; stroke-opacity:0.1; fill:none" points="
  2174.4,1486.45 2174.4,47.2441 
  "/>
<polyline clip-path="url(#clip672)" style="stroke:#000000; stroke-width:2; stroke-opacity:0.1; fill:none" points="
  166.205,1445.72 2352.76,1445.72 
  "/>
<polyline clip-path="url(#clip672)" style="stroke:#000000; stroke-width:2; stroke-opacity:0.1; fill:none" points="
  166.205,1113.34 2352.76,1113.34 
  "/>
<polyline clip-path="url(#clip672)" style="stroke:#000000; stroke-width:2; stroke-opacity:0.1; fill:none" points="
  166.205,780.972 2352.76,780.972 
  "/>
<polyline clip-path="url(#clip672)" style="stroke:#000000; stroke-width:2; stroke-opacity:0.1; fill:none" points="
  166.205,448.6 2352.76,448.6 
  "/>
<polyline clip-path="url(#clip672)" style="stroke:#000000; stroke-width:2; stroke-opacity:0.1; fill:none" points="
  166.205,116.228 2352.76,116.228 
  "/>
<polyline clip-path="url(#clip670)" style="stroke:#000000; stroke-width:4; stroke-opacity:1; fill:none" points="
  166.205,1486.45 2352.76,1486.45 
  "/>
<polyline clip-path="url(#clip670)" style="stroke:#000000; stroke-width:4; stroke-opacity:1; fill:none" points="
  166.205,1486.45 166.205,47.2441 
  "/>
<polyline clip-path="url(#clip670)" style="stroke:#000000; stroke-width:4; stroke-opacity:1; fill:none" points="
  431.694,1486.45 431.694,1469.18 
  "/>
<polyline clip-path="url(#clip670)" style="stroke:#000000; stroke-width:4; stroke-opacity:1; fill:none" points="
  722.146,1486.45 722.146,1469.18 
  "/>
<polyline clip-path="url(#clip670)" style="stroke:#000000; stroke-width:4; stroke-opacity:1; fill:none" points="
  1012.6,1486.45 1012.6,1469.18 
  "/>
<polyline clip-path="url(#clip670)" style="stroke:#000000; stroke-width:4; stroke-opacity:1; fill:none" points="
  1303.05,1486.45 1303.05,1469.18 
  "/>
<polyline clip-path="url(#clip670)" style="stroke:#000000; stroke-width:4; stroke-opacity:1; fill:none" points="
  1593.5,1486.45 1593.5,1469.18 
  "/>
<polyline clip-path="url(#clip670)" style="stroke:#000000; stroke-width:4; stroke-opacity:1; fill:none" points="
  1883.95,1486.45 1883.95,1469.18 
  "/>
<polyline clip-path="url(#clip670)" style="stroke:#000000; stroke-width:4; stroke-opacity:1; fill:none" points="
  2174.4,1486.45 2174.4,1469.18 
  "/>
<polyline clip-path="url(#clip670)" style="stroke:#000000; stroke-width:4; stroke-opacity:1; fill:none" points="
  166.205,1445.72 192.443,1445.72 
  "/>
<polyline clip-path="url(#clip670)" style="stroke:#000000; stroke-width:4; stroke-opacity:1; fill:none" points="
  166.205,1113.34 192.443,1113.34 
  "/>
<polyline clip-path="url(#clip670)" style="stroke:#000000; stroke-width:4; stroke-opacity:1; fill:none" points="
  166.205,780.972 192.443,780.972 
  "/>
<polyline clip-path="url(#clip670)" style="stroke:#000000; stroke-width:4; stroke-opacity:1; fill:none" points="
  166.205,448.6 192.443,448.6 
  "/>
<polyline clip-path="url(#clip670)" style="stroke:#000000; stroke-width:4; stroke-opacity:1; fill:none" points="
  166.205,116.228 192.443,116.228 
  "/>
<path clip-path="url(#clip670)" d="M 0 0 M411.868 1525.04 L424.345 1525.04 L424.345 1528.83 L411.868 1528.83 L411.868 1525.04 Z" fill="#000000" fill-rule="evenodd" fill-opacity="1" /><path clip-path="url(#clip670)" d="M 0 0 M439.993 1520.78 Q436.845 1520.78 434.993 1522.93 Q433.164 1525.08 433.164 1528.83 Q433.164 1532.56 434.993 1534.73 Q436.845 1536.89 439.993 1536.89 Q443.141 1536.89 444.97 1534.73 Q446.822 1532.56 446.822 1528.83 Q446.822 1525.08 444.97 1522.93 Q443.141 1520.78 439.993 1520.78 M449.275 1506.12 L449.275 1510.38 Q447.516 1509.55 445.711 1509.11 Q443.928 1508.67 442.169 1508.67 Q437.539 1508.67 435.086 1511.8 Q432.655 1514.92 432.308 1521.24 Q433.674 1519.23 435.734 1518.16 Q437.794 1517.07 440.271 1517.07 Q445.479 1517.07 448.488 1520.24 Q451.521 1523.39 451.521 1528.83 Q451.521 1534.16 448.373 1537.37 Q445.224 1540.59 439.993 1540.59 Q433.998 1540.59 430.826 1536.01 Q427.655 1531.4 427.655 1522.67 Q427.655 1514.48 431.544 1509.62 Q435.433 1504.73 441.984 1504.73 Q443.743 1504.73 445.525 1505.08 Q447.331 1505.43 449.275 1506.12 Z" fill="#000000" fill-rule="evenodd" fill-opacity="1" /><path clip-path="url(#clip670)" d="M 0 0 M702.157 1525.04 L714.634 1525.04 L714.634 1528.83 L702.157 1528.83 L702.157 1525.04 Z" fill="#000000" fill-rule="evenodd" fill-opacity="1" /><path clip-path="url(#clip670)" d="M 0 0 M732.551 1509.43 L720.745 1527.88 L732.551 1527.88 L732.551 1509.43 M731.324 1505.36 L737.203 1505.36 L737.203 1527.88 L742.134 1527.88 L742.134 1531.77 L737.203 1531.77 L737.203 1539.92 L732.551 1539.92 L732.551 1531.77 L716.949 1531.77 L716.949 1527.26 L731.324 1505.36 Z" fill="#000000" fill-rule="evenodd" fill-opacity="1" /><path clip-path="url(#clip670)" d="M 0 0 M993.65 1525.04 L1006.13 1525.04 L1006.13 1528.83 L993.65 1528.83 L993.65 1525.04 Z" fill="#000000" fill-rule="evenodd" fill-opacity="1" /><path clip-path="url(#clip670)" d="M 0 0 M1015.22 1535.98 L1031.54 1535.98 L1031.54 1539.92 L1009.6 1539.92 L1009.6 1535.98 Q1012.26 1533.23 1016.84 1528.6 Q1021.45 1523.95 1022.63 1522.61 Q1024.88 1520.08 1025.76 1518.35 Q1026.66 1516.59 1026.66 1514.9 Q1026.66 1512.14 1024.71 1510.41 Q1022.79 1508.67 1019.69 1508.67 Q1017.49 1508.67 1015.04 1509.43 Q1012.61 1510.2 1009.83 1511.75 L1009.83 1507.03 Q1012.65 1505.89 1015.11 1505.31 Q1017.56 1504.73 1019.6 1504.73 Q1024.97 1504.73 1028.16 1507.42 Q1031.36 1510.11 1031.36 1514.6 Q1031.36 1516.73 1030.55 1518.65 Q1029.76 1520.54 1027.65 1523.14 Q1027.08 1523.81 1023.97 1527.03 Q1020.87 1530.22 1015.22 1535.98 Z" fill="#000000" fill-rule="evenodd" fill-opacity="1" /><path clip-path="url(#clip670)" d="M 0 0 M1303.05 1508.44 Q1299.44 1508.44 1297.61 1512 Q1295.8 1515.55 1295.8 1522.67 Q1295.8 1529.78 1297.61 1533.35 Q1299.44 1536.89 1303.05 1536.89 Q1306.68 1536.89 1308.49 1533.35 Q1310.32 1529.78 1310.32 1522.67 Q1310.32 1515.55 1308.49 1512 Q1306.68 1508.44 1303.05 1508.44 M1303.05 1504.73 Q1308.86 1504.73 1311.91 1509.34 Q1314.99 1513.92 1314.99 1522.67 Q1314.99 1531.4 1311.91 1536.01 Q1308.86 1540.59 1303.05 1540.59 Q1297.24 1540.59 1294.16 1536.01 Q1291.1 1531.4 1291.1 1522.67 Q1291.1 1513.92 1294.16 1509.34 Q1297.24 1504.73 1303.05 1504.73 Z" fill="#000000" fill-rule="evenodd" fill-opacity="1" /><path clip-path="url(#clip670)" d="M 0 0 M1588.15 1535.98 L1604.47 1535.98 L1604.47 1539.92 L1582.53 1539.92 L1582.53 1535.98 Q1585.19 1533.23 1589.77 1528.6 Q1594.38 1523.95 1595.56 1522.61 Q1597.8 1520.08 1598.68 1518.35 Q1599.59 1516.59 1599.59 1514.9 Q1599.59 1512.14 1597.64 1510.41 Q1595.72 1508.67 1592.62 1508.67 Q1590.42 1508.67 1587.97 1509.43 Q1585.54 1510.2 1582.76 1511.75 L1582.76 1507.03 Q1585.58 1505.89 1588.04 1505.31 Q1590.49 1504.73 1592.53 1504.73 Q1597.9 1504.73 1601.09 1507.42 Q1604.29 1510.11 1604.29 1514.6 Q1604.29 1516.73 1603.48 1518.65 Q1602.69 1520.54 1600.58 1523.14 Q1600 1523.81 1596.9 1527.03 Q1593.8 1530.22 1588.15 1535.98 Z" fill="#000000" fill-rule="evenodd" fill-opacity="1" /><path clip-path="url(#clip670)" d="M 0 0 M1886.96 1509.43 L1875.15 1527.88 L1886.96 1527.88 L1886.96 1509.43 M1885.73 1505.36 L1891.61 1505.36 L1891.61 1527.88 L1896.54 1527.88 L1896.54 1531.77 L1891.61 1531.77 L1891.61 1539.92 L1886.96 1539.92 L1886.96 1531.77 L1871.36 1531.77 L1871.36 1527.26 L1885.73 1505.36 Z" fill="#000000" fill-rule="evenodd" fill-opacity="1" /><path clip-path="url(#clip670)" d="M 0 0 M2174.81 1520.78 Q2171.66 1520.78 2169.81 1522.93 Q2167.98 1525.08 2167.98 1528.83 Q2167.98 1532.56 2169.81 1534.73 Q2171.66 1536.89 2174.81 1536.89 Q2177.95 1536.89 2179.78 1534.73 Q2181.64 1532.56 2181.64 1528.83 Q2181.64 1525.08 2179.78 1522.93 Q2177.95 1520.78 2174.81 1520.78 M2184.09 1506.12 L2184.09 1510.38 Q2182.33 1509.55 2180.52 1509.11 Q2178.74 1508.67 2176.98 1508.67 Q2172.35 1508.67 2169.9 1511.8 Q2167.47 1514.92 2167.12 1521.24 Q2168.49 1519.23 2170.55 1518.16 Q2172.61 1517.07 2175.08 1517.07 Q2180.29 1517.07 2183.3 1520.24 Q2186.33 1523.39 2186.33 1528.83 Q2186.33 1534.16 2183.19 1537.37 Q2180.04 1540.59 2174.81 1540.59 Q2168.81 1540.59 2165.64 1536.01 Q2162.47 1531.4 2162.47 1522.67 Q2162.47 1514.48 2166.36 1509.62 Q2170.25 1504.73 2176.8 1504.73 Q2178.56 1504.73 2180.34 1505.08 Q2182.14 1505.43 2184.09 1506.12 Z" fill="#000000" fill-rule="evenodd" fill-opacity="1" /><path clip-path="url(#clip670)" d="M 0 0 M130.26 1431.51 Q126.649 1431.51 124.82 1435.08 Q123.015 1438.62 123.015 1445.75 Q123.015 1452.86 124.82 1456.42 Q126.649 1459.96 130.26 1459.96 Q133.895 1459.96 135.7 1456.42 Q137.529 1452.86 137.529 1445.75 Q137.529 1438.62 135.7 1435.08 Q133.895 1431.51 130.26 1431.51 M130.26 1427.81 Q136.07 1427.81 139.126 1432.42 Q142.205 1437 142.205 1445.75 Q142.205 1454.48 139.126 1459.08 Q136.07 1463.67 130.26 1463.67 Q124.45 1463.67 121.371 1459.08 Q118.316 1454.48 118.316 1445.75 Q118.316 1437 121.371 1432.42 Q124.45 1427.81 130.26 1427.81 Z" fill="#000000" fill-rule="evenodd" fill-opacity="1" /><path clip-path="url(#clip670)" d="M 0 0 M71.8578 1126.69 L88.1772 1126.69 L88.1772 1130.62 L66.2328 1130.62 L66.2328 1126.69 Q68.8949 1123.93 73.4782 1119.3 Q78.0846 1114.65 79.2652 1113.31 Q81.5105 1110.79 82.3902 1109.05 Q83.2929 1107.29 83.2929 1105.6 Q83.2929 1102.85 81.3485 1101.11 Q79.4272 1099.37 76.3254 1099.37 Q74.1263 1099.37 71.6726 1100.14 Q69.2421 1100.9 66.4643 1102.45 L66.4643 1097.73 Q69.2884 1096.6 71.7421 1096.02 Q74.1958 1095.44 76.2328 1095.44 Q81.6031 1095.44 84.7976 1098.12 Q87.992 1100.81 87.992 1105.3 Q87.992 1107.43 87.1818 1109.35 Q86.3948 1111.25 84.2883 1113.84 Q83.7096 1114.51 80.6078 1117.73 Q77.5059 1120.92 71.8578 1126.69 Z" fill="#000000" fill-rule="evenodd" fill-opacity="1" /><path clip-path="url(#clip670)" d="M 0 0 M103.247 1099.14 Q99.6354 1099.14 97.8068 1102.71 Q96.0012 1106.25 96.0012 1113.38 Q96.0012 1120.48 97.8068 1124.05 Q99.6354 1127.59 103.247 1127.59 Q106.881 1127.59 108.686 1124.05 Q110.515 1120.48 110.515 1113.38 Q110.515 1106.25 108.686 1102.71 Q106.881 1099.14 103.247 1099.14 M103.247 1095.44 Q109.057 1095.44 112.112 1100.05 Q115.191 1104.63 115.191 1113.38 Q115.191 1122.11 112.112 1126.71 Q109.057 1131.3 103.247 1131.3 Q97.4364 1131.3 94.3577 1126.71 Q91.3022 1122.11 91.3022 1113.38 Q91.3022 1104.63 94.3577 1100.05 Q97.4364 1095.44 103.247 1095.44 Z" fill="#000000" fill-rule="evenodd" fill-opacity="1" /><path clip-path="url(#clip670)" d="M 0 0 M130.26 1099.14 Q126.649 1099.14 124.82 1102.71 Q123.015 1106.25 123.015 1113.38 Q123.015 1120.48 124.82 1124.05 Q126.649 1127.59 130.26 1127.59 Q133.895 1127.59 135.7 1124.05 Q137.529 1120.48 137.529 1113.38 Q137.529 1106.25 135.7 1102.71 Q133.895 1099.14 130.26 1099.14 M130.26 1095.44 Q136.07 1095.44 139.126 1100.05 Q142.205 1104.63 142.205 1113.38 Q142.205 1122.11 139.126 1126.71 Q136.07 1131.3 130.26 1131.3 Q124.45 1131.3 121.371 1126.71 Q118.316 1122.11 118.316 1113.38 Q118.316 1104.63 121.371 1100.05 Q124.45 1095.44 130.26 1095.44 Z" fill="#000000" fill-rule="evenodd" fill-opacity="1" /><path clip-path="url(#clip670)" d="M 0 0 M78.5939 767.766 L66.7884 786.215 L78.5939 786.215 L78.5939 767.766 M77.367 763.692 L83.2466 763.692 L83.2466 786.215 L88.1772 786.215 L88.1772 790.104 L83.2466 790.104 L83.2466 798.252 L78.5939 798.252 L78.5939 790.104 L62.9921 790.104 L62.9921 785.59 L77.367 763.692 Z" fill="#000000" fill-rule="evenodd" fill-opacity="1" /><path clip-path="url(#clip670)" d="M 0 0 M103.247 766.77 Q99.6354 766.77 97.8068 770.335 Q96.0012 773.877 96.0012 781.007 Q96.0012 788.113 97.8068 791.678 Q99.6354 795.219 103.247 795.219 Q106.881 795.219 108.686 791.678 Q110.515 788.113 110.515 781.007 Q110.515 773.877 108.686 770.335 Q106.881 766.77 103.247 766.77 M103.247 763.067 Q109.057 763.067 112.112 767.673 Q115.191 772.257 115.191 781.007 Q115.191 789.733 112.112 794.34 Q109.057 798.923 103.247 798.923 Q97.4364 798.923 94.3577 794.34 Q91.3022 789.733 91.3022 781.007 Q91.3022 772.257 94.3577 767.673 Q97.4364 763.067 103.247 763.067 Z" fill="#000000" fill-rule="evenodd" fill-opacity="1" /><path clip-path="url(#clip670)" d="M 0 0 M130.26 766.77 Q126.649 766.77 124.82 770.335 Q123.015 773.877 123.015 781.007 Q123.015 788.113 124.82 791.678 Q126.649 795.219 130.26 795.219 Q133.895 795.219 135.7 791.678 Q137.529 788.113 137.529 781.007 Q137.529 773.877 135.7 770.335 Q133.895 766.77 130.26 766.77 M130.26 763.067 Q136.07 763.067 139.126 767.673 Q142.205 772.257 142.205 781.007 Q142.205 789.733 139.126 794.34 Q136.07 798.923 130.26 798.923 Q124.45 798.923 121.371 794.34 Q118.316 789.733 118.316 781.007 Q118.316 772.257 121.371 767.673 Q124.45 763.067 130.26 763.067 Z" fill="#000000" fill-rule="evenodd" fill-opacity="1" /><path clip-path="url(#clip670)" d="M 0 0 M76.6495 446.736 Q73.5013 446.736 71.6495 448.889 Q69.8208 451.042 69.8208 454.792 Q69.8208 458.519 71.6495 460.695 Q73.5013 462.847 76.6495 462.847 Q79.7976 462.847 81.6263 460.695 Q83.4781 458.519 83.4781 454.792 Q83.4781 451.042 81.6263 448.889 Q79.7976 446.736 76.6495 446.736 M85.9318 432.084 L85.9318 436.343 Q84.1726 435.51 82.367 435.07 Q80.5846 434.63 78.8254 434.63 Q74.1958 434.63 71.7421 437.755 Q69.3115 440.88 68.9643 447.199 Q70.33 445.186 72.3902 444.121 Q74.4504 443.033 76.9272 443.033 Q82.1355 443.033 85.1448 446.204 Q88.1772 449.352 88.1772 454.792 Q88.1772 460.116 85.029 463.334 Q81.8809 466.551 76.6495 466.551 Q70.6541 466.551 67.4828 461.968 Q64.3116 457.361 64.3116 448.635 Q64.3116 440.44 68.2004 435.579 Q72.0893 430.695 78.6402 430.695 Q80.3994 430.695 82.1818 431.042 Q83.9874 431.389 85.9318 432.084 Z" fill="#000000" fill-rule="evenodd" fill-opacity="1" /><path clip-path="url(#clip670)" d="M 0 0 M103.247 434.399 Q99.6354 434.399 97.8068 437.963 Q96.0012 441.505 96.0012 448.635 Q96.0012 455.741 97.8068 459.306 Q99.6354 462.847 103.247 462.847 Q106.881 462.847 108.686 459.306 Q110.515 455.741 110.515 448.635 Q110.515 441.505 108.686 437.963 Q106.881 434.399 103.247 434.399 M103.247 430.695 Q109.057 430.695 112.112 435.301 Q115.191 439.885 115.191 448.635 Q115.191 457.361 112.112 461.968 Q109.057 466.551 103.247 466.551 Q97.4364 466.551 94.3577 461.968 Q91.3022 457.361 91.3022 448.635 Q91.3022 439.885 94.3577 435.301 Q97.4364 430.695 103.247 430.695 Z" fill="#000000" fill-rule="evenodd" fill-opacity="1" /><path clip-path="url(#clip670)" d="M 0 0 M130.26 434.399 Q126.649 434.399 124.82 437.963 Q123.015 441.505 123.015 448.635 Q123.015 455.741 124.82 459.306 Q126.649 462.847 130.26 462.847 Q133.895 462.847 135.7 459.306 Q137.529 455.741 137.529 448.635 Q137.529 441.505 135.7 437.963 Q133.895 434.399 130.26 434.399 M130.26 430.695 Q136.07 430.695 139.126 435.301 Q142.205 439.885 142.205 448.635 Q142.205 457.361 139.126 461.968 Q136.07 466.551 130.26 466.551 Q124.45 466.551 121.371 461.968 Q118.316 457.361 118.316 448.635 Q118.316 439.885 121.371 435.301 Q124.45 430.695 130.26 430.695 Z" fill="#000000" fill-rule="evenodd" fill-opacity="1" /><path clip-path="url(#clip670)" d="M 0 0 M76.3254 117.096 Q72.9921 117.096 71.0708 118.878 Q69.1726 120.661 69.1726 123.786 Q69.1726 126.911 71.0708 128.693 Q72.9921 130.476 76.3254 130.476 Q79.6587 130.476 81.58 128.693 Q83.5013 126.888 83.5013 123.786 Q83.5013 120.661 81.58 118.878 Q79.6819 117.096 76.3254 117.096 M71.6495 115.105 Q68.6402 114.364 66.9504 112.304 Q65.2838 110.244 65.2838 107.281 Q65.2838 103.138 68.2236 100.73 Q71.1865 98.3229 76.3254 98.3229 Q81.4874 98.3229 84.4272 100.73 Q87.367 103.138 87.367 107.281 Q87.367 110.244 85.6772 112.304 Q84.0105 114.364 81.0244 115.105 Q84.404 115.892 86.279 118.184 Q88.1772 120.476 88.1772 123.786 Q88.1772 128.809 85.0985 131.494 Q82.0429 134.179 76.3254 134.179 Q70.6078 134.179 67.5291 131.494 Q64.4736 128.809 64.4736 123.786 Q64.4736 120.476 66.3717 118.184 Q68.2699 115.892 71.6495 115.105 M69.9365 107.721 Q69.9365 110.406 71.6032 111.911 Q73.293 113.415 76.3254 113.415 Q79.3346 113.415 81.0244 111.911 Q82.7374 110.406 82.7374 107.721 Q82.7374 105.036 81.0244 103.531 Q79.3346 102.027 76.3254 102.027 Q73.293 102.027 71.6032 103.531 Q69.9365 105.036 69.9365 107.721 Z" fill="#000000" fill-rule="evenodd" fill-opacity="1" /><path clip-path="url(#clip670)" d="M 0 0 M103.247 102.027 Q99.6354 102.027 97.8068 105.591 Q96.0012 109.133 96.0012 116.263 Q96.0012 123.369 97.8068 126.934 Q99.6354 130.476 103.247 130.476 Q106.881 130.476 108.686 126.934 Q110.515 123.369 110.515 116.263 Q110.515 109.133 108.686 105.591 Q106.881 102.027 103.247 102.027 M103.247 98.3229 Q109.057 98.3229 112.112 102.929 Q115.191 107.513 115.191 116.263 Q115.191 124.989 112.112 129.596 Q109.057 134.179 103.247 134.179 Q97.4364 134.179 94.3577 129.596 Q91.3022 124.989 91.3022 116.263 Q91.3022 107.513 94.3577 102.929 Q97.4364 98.3229 103.247 98.3229 Z" fill="#000000" fill-rule="evenodd" fill-opacity="1" /><path clip-path="url(#clip670)" d="M 0 0 M130.26 102.027 Q126.649 102.027 124.82 105.591 Q123.015 109.133 123.015 116.263 Q123.015 123.369 124.82 126.934 Q126.649 130.476 130.26 130.476 Q133.895 130.476 135.7 126.934 Q137.529 123.369 137.529 116.263 Q137.529 109.133 135.7 105.591 Q133.895 102.027 130.26 102.027 M130.26 98.3229 Q136.07 98.3229 139.126 102.929 Q142.205 107.513 142.205 116.263 Q142.205 124.989 139.126 129.596 Q136.07 134.179 130.26 134.179 Q124.45 134.179 121.371 129.596 Q118.316 124.989 118.316 116.263 Q118.316 107.513 121.371 102.929 Q124.45 98.3229 130.26 98.3229 Z" fill="#000000" fill-rule="evenodd" fill-opacity="1" /><path clip-path="url(#clip672)" d="
M286.469 1444.05 L286.469 1445.72 L315.514 1445.72 L315.514 1444.05 L286.469 1444.05 L286.469 1444.05  Z
  " fill="#009af9" fill-rule="evenodd" fill-opacity="1"/>
<polyline clip-path="url(#clip672)" style="stroke:#000000; stroke-width:4; stroke-opacity:1; fill:none" points="
  286.469,1444.05 286.469,1445.72 315.514,1445.72 315.514,1444.05 286.469,1444.05 
  "/>
<path clip-path="url(#clip672)" d="
M315.514 1445.72 L315.514 1445.72 L344.559 1445.72 L344.559 1445.72 L315.514 1445.72 L315.514 1445.72  Z
  " fill="#009af9" fill-rule="evenodd" fill-opacity="1"/>
<polyline clip-path="url(#clip672)" style="stroke:#000000; stroke-width:4; stroke-opacity:1; fill:none" points="
  315.514,1445.72 315.514,1445.72 344.559,1445.72 315.514,1445.72 
  "/>
<path clip-path="url(#clip672)" d="
M344.559 1444.05 L344.559 1445.72 L373.604 1445.72 L373.604 1444.05 L344.559 1444.05 L344.559 1444.05  Z
  " fill="#009af9" fill-rule="evenodd" fill-opacity="1"/>
<polyline clip-path="url(#clip672)" style="stroke:#000000; stroke-width:4; stroke-opacity:1; fill:none" points="
  344.559,1444.05 344.559,1445.72 373.604,1445.72 373.604,1444.05 344.559,1444.05 
  "/>
<path clip-path="url(#clip672)" d="
M373.604 1444.05 L373.604 1445.72 L402.649 1445.72 L402.649 1444.05 L373.604 1444.05 L373.604 1444.05  Z
  " fill="#009af9" fill-rule="evenodd" fill-opacity="1"/>
<polyline clip-path="url(#clip672)" style="stroke:#000000; stroke-width:4; stroke-opacity:1; fill:none" points="
  373.604,1444.05 373.604,1445.72 402.649,1445.72 402.649,1444.05 373.604,1444.05 
  "/>
<path clip-path="url(#clip672)" d="
M402.649 1445.72 L402.649 1445.72 L431.694 1445.72 L431.694 1445.72 L402.649 1445.72 L402.649 1445.72  Z
  " fill="#009af9" fill-rule="evenodd" fill-opacity="1"/>
<polyline clip-path="url(#clip672)" style="stroke:#000000; stroke-width:4; stroke-opacity:1; fill:none" points="
  402.649,1445.72 402.649,1445.72 431.694,1445.72 402.649,1445.72 
  "/>
<path clip-path="url(#clip672)" d="
M431.694 1442.39 L431.694 1445.72 L460.74 1445.72 L460.74 1442.39 L431.694 1442.39 L431.694 1442.39  Z
  " fill="#009af9" fill-rule="evenodd" fill-opacity="1"/>
<polyline clip-path="url(#clip672)" style="stroke:#000000; stroke-width:4; stroke-opacity:1; fill:none" points="
  431.694,1442.39 431.694,1445.72 460.74,1445.72 460.74,1442.39 431.694,1442.39 
  "/>
<path clip-path="url(#clip672)" d="
M460.74 1440.73 L460.74 1445.72 L489.785 1445.72 L489.785 1440.73 L460.74 1440.73 L460.74 1440.73  Z
  " fill="#009af9" fill-rule="evenodd" fill-opacity="1"/>
<polyline clip-path="url(#clip672)" style="stroke:#000000; stroke-width:4; stroke-opacity:1; fill:none" points="
  460.74,1440.73 460.74,1445.72 489.785,1445.72 489.785,1440.73 460.74,1440.73 
  "/>
<path clip-path="url(#clip672)" d="
M489.785 1442.39 L489.785 1445.72 L518.83 1445.72 L518.83 1442.39 L489.785 1442.39 L489.785 1442.39  Z
  " fill="#009af9" fill-rule="evenodd" fill-opacity="1"/>
<polyline clip-path="url(#clip672)" style="stroke:#000000; stroke-width:4; stroke-opacity:1; fill:none" points="
  489.785,1442.39 489.785,1445.72 518.83,1445.72 518.83,1442.39 489.785,1442.39 
  "/>
<path clip-path="url(#clip672)" d="
M518.83 1440.73 L518.83 1445.72 L547.875 1445.72 L547.875 1440.73 L518.83 1440.73 L518.83 1440.73  Z
  " fill="#009af9" fill-rule="evenodd" fill-opacity="1"/>
<polyline clip-path="url(#clip672)" style="stroke:#000000; stroke-width:4; stroke-opacity:1; fill:none" points="
  518.83,1440.73 518.83,1445.72 547.875,1445.72 547.875,1440.73 518.83,1440.73 
  "/>
<path clip-path="url(#clip672)" d="
M547.875 1434.08 L547.875 1445.72 L576.92 1445.72 L576.92 1434.08 L547.875 1434.08 L547.875 1434.08  Z
  " fill="#009af9" fill-rule="evenodd" fill-opacity="1"/>
<polyline clip-path="url(#clip672)" style="stroke:#000000; stroke-width:4; stroke-opacity:1; fill:none" points="
  547.875,1434.08 547.875,1445.72 576.92,1445.72 576.92,1434.08 547.875,1434.08 
  "/>
<path clip-path="url(#clip672)" d="
M576.92 1440.73 L576.92 1445.72 L605.965 1445.72 L605.965 1440.73 L576.92 1440.73 L576.92 1440.73  Z
  " fill="#009af9" fill-rule="evenodd" fill-opacity="1"/>
<polyline clip-path="url(#clip672)" style="stroke:#000000; stroke-width:4; stroke-opacity:1; fill:none" points="
  576.92,1440.73 576.92,1445.72 605.965,1445.72 605.965,1440.73 576.92,1440.73 
  "/>
<path clip-path="url(#clip672)" d="
M605.965 1429.1 L605.965 1445.72 L635.01 1445.72 L635.01 1429.1 L605.965 1429.1 L605.965 1429.1  Z
  " fill="#009af9" fill-rule="evenodd" fill-opacity="1"/>
<polyline clip-path="url(#clip672)" style="stroke:#000000; stroke-width:4; stroke-opacity:1; fill:none" points="
  605.965,1429.1 605.965,1445.72 635.01,1445.72 635.01,1429.1 605.965,1429.1 
  "/>
<path clip-path="url(#clip672)" d="
M635.01 1424.11 L635.01 1445.72 L664.055 1445.72 L664.055 1424.11 L635.01 1424.11 L635.01 1424.11  Z
  " fill="#009af9" fill-rule="evenodd" fill-opacity="1"/>
<polyline clip-path="url(#clip672)" style="stroke:#000000; stroke-width:4; stroke-opacity:1; fill:none" points="
  635.01,1424.11 635.01,1445.72 664.055,1445.72 664.055,1424.11 635.01,1424.11 
  "/>
<path clip-path="url(#clip672)" d="
M664.055 1419.13 L664.055 1445.72 L693.101 1445.72 L693.101 1419.13 L664.055 1419.13 L664.055 1419.13  Z
  " fill="#009af9" fill-rule="evenodd" fill-opacity="1"/>
<polyline clip-path="url(#clip672)" style="stroke:#000000; stroke-width:4; stroke-opacity:1; fill:none" points="
  664.055,1419.13 664.055,1445.72 693.101,1445.72 693.101,1419.13 664.055,1419.13 
  "/>
<path clip-path="url(#clip672)" d="
M693.101 1417.46 L693.101 1445.72 L722.146 1445.72 L722.146 1417.46 L693.101 1417.46 L693.101 1417.46  Z
  " fill="#009af9" fill-rule="evenodd" fill-opacity="1"/>
<polyline clip-path="url(#clip672)" style="stroke:#000000; stroke-width:4; stroke-opacity:1; fill:none" points="
  693.101,1417.46 693.101,1445.72 722.146,1445.72 722.146,1417.46 693.101,1417.46 
  "/>
<path clip-path="url(#clip672)" d="
M722.146 1414.14 L722.146 1445.72 L751.191 1445.72 L751.191 1414.14 L722.146 1414.14 L722.146 1414.14  Z
  " fill="#009af9" fill-rule="evenodd" fill-opacity="1"/>
<polyline clip-path="url(#clip672)" style="stroke:#000000; stroke-width:4; stroke-opacity:1; fill:none" points="
  722.146,1414.14 722.146,1445.72 751.191,1445.72 751.191,1414.14 722.146,1414.14 
  "/>
<path clip-path="url(#clip672)" d="
M751.191 1397.52 L751.191 1445.72 L780.236 1445.72 L780.236 1397.52 L751.191 1397.52 L751.191 1397.52  Z
  " fill="#009af9" fill-rule="evenodd" fill-opacity="1"/>
<polyline clip-path="url(#clip672)" style="stroke:#000000; stroke-width:4; stroke-opacity:1; fill:none" points="
  751.191,1397.52 751.191,1445.72 780.236,1445.72 780.236,1397.52 751.191,1397.52 
  "/>
<path clip-path="url(#clip672)" d="
M780.236 1402.51 L780.236 1445.72 L809.281 1445.72 L809.281 1402.51 L780.236 1402.51 L780.236 1402.51  Z
  " fill="#009af9" fill-rule="evenodd" fill-opacity="1"/>
<polyline clip-path="url(#clip672)" style="stroke:#000000; stroke-width:4; stroke-opacity:1; fill:none" points="
  780.236,1402.51 780.236,1445.72 809.281,1445.72 809.281,1402.51 780.236,1402.51 
  "/>
<path clip-path="url(#clip672)" d="
M809.281 1415.8 L809.281 1445.72 L838.326 1445.72 L838.326 1415.8 L809.281 1415.8 L809.281 1415.8  Z
  " fill="#009af9" fill-rule="evenodd" fill-opacity="1"/>
<polyline clip-path="url(#clip672)" style="stroke:#000000; stroke-width:4; stroke-opacity:1; fill:none" points="
  809.281,1415.8 809.281,1445.72 838.326,1445.72 838.326,1415.8 809.281,1415.8 
  "/>
<path clip-path="url(#clip672)" d="
M838.326 1384.23 L838.326 1445.72 L867.371 1445.72 L867.371 1384.23 L838.326 1384.23 L838.326 1384.23  Z
  " fill="#009af9" fill-rule="evenodd" fill-opacity="1"/>
<polyline clip-path="url(#clip672)" style="stroke:#000000; stroke-width:4; stroke-opacity:1; fill:none" points="
  838.326,1384.23 838.326,1445.72 867.371,1445.72 867.371,1384.23 838.326,1384.23 
  "/>
<path clip-path="url(#clip672)" d="
M867.371 1380.9 L867.371 1445.72 L896.416 1445.72 L896.416 1380.9 L867.371 1380.9 L867.371 1380.9  Z
  " fill="#009af9" fill-rule="evenodd" fill-opacity="1"/>
<polyline clip-path="url(#clip672)" style="stroke:#000000; stroke-width:4; stroke-opacity:1; fill:none" points="
  867.371,1380.9 867.371,1445.72 896.416,1445.72 896.416,1380.9 867.371,1380.9 
  "/>
<path clip-path="url(#clip672)" d="
M896.416 1362.62 L896.416 1445.72 L925.461 1445.72 L925.461 1362.62 L896.416 1362.62 L896.416 1362.62  Z
  " fill="#009af9" fill-rule="evenodd" fill-opacity="1"/>
<polyline clip-path="url(#clip672)" style="stroke:#000000; stroke-width:4; stroke-opacity:1; fill:none" points="
  896.416,1362.62 896.416,1445.72 925.461,1445.72 925.461,1362.62 896.416,1362.62 
  "/>
<path clip-path="url(#clip672)" d="
M925.461 1364.28 L925.461 1445.72 L954.507 1445.72 L954.507 1364.28 L925.461 1364.28 L925.461 1364.28  Z
  " fill="#009af9" fill-rule="evenodd" fill-opacity="1"/>
<polyline clip-path="url(#clip672)" style="stroke:#000000; stroke-width:4; stroke-opacity:1; fill:none" points="
  925.461,1364.28 925.461,1445.72 954.507,1445.72 954.507,1364.28 925.461,1364.28 
  "/>
<path clip-path="url(#clip672)" d="
M954.507 1327.72 L954.507 1445.72 L983.552 1445.72 L983.552 1327.72 L954.507 1327.72 L954.507 1327.72  Z
  " fill="#009af9" fill-rule="evenodd" fill-opacity="1"/>
<polyline clip-path="url(#clip672)" style="stroke:#000000; stroke-width:4; stroke-opacity:1; fill:none" points="
  954.507,1327.72 954.507,1445.72 983.552,1445.72 983.552,1327.72 954.507,1327.72 
  "/>
<path clip-path="url(#clip672)" d="
M983.552 1321.08 L983.552 1445.72 L1012.6 1445.72 L1012.6 1321.08 L983.552 1321.08 L983.552 1321.08  Z
  " fill="#009af9" fill-rule="evenodd" fill-opacity="1"/>
<polyline clip-path="url(#clip672)" style="stroke:#000000; stroke-width:4; stroke-opacity:1; fill:none" points="
  983.552,1321.08 983.552,1445.72 1012.6,1445.72 1012.6,1321.08 983.552,1321.08 
  "/>
<path clip-path="url(#clip672)" d="
M1012.6 1322.74 L1012.6 1445.72 L1041.64 1445.72 L1041.64 1322.74 L1012.6 1322.74 L1012.6 1322.74  Z
  " fill="#009af9" fill-rule="evenodd" fill-opacity="1"/>
<polyline clip-path="url(#clip672)" style="stroke:#000000; stroke-width:4; stroke-opacity:1; fill:none" points="
  1012.6,1322.74 1012.6,1445.72 1041.64,1445.72 1041.64,1322.74 1012.6,1322.74 
  "/>
<path clip-path="url(#clip672)" d="
M1041.64 1324.4 L1041.64 1445.72 L1070.69 1445.72 L1070.69 1324.4 L1041.64 1324.4 L1041.64 1324.4  Z
  " fill="#009af9" fill-rule="evenodd" fill-opacity="1"/>
<polyline clip-path="url(#clip672)" style="stroke:#000000; stroke-width:4; stroke-opacity:1; fill:none" points="
  1041.64,1324.4 1041.64,1445.72 1070.69,1445.72 1070.69,1324.4 1041.64,1324.4 
  "/>
<path clip-path="url(#clip672)" d="
M1070.69 1284.52 L1070.69 1445.72 L1099.73 1445.72 L1099.73 1284.52 L1070.69 1284.52 L1070.69 1284.52  Z
  " fill="#009af9" fill-rule="evenodd" fill-opacity="1"/>
<polyline clip-path="url(#clip672)" style="stroke:#000000; stroke-width:4; stroke-opacity:1; fill:none" points="
  1070.69,1284.52 1070.69,1445.72 1099.73,1445.72 1099.73,1284.52 1070.69,1284.52 
  "/>
<path clip-path="url(#clip672)" d="
M1099.73 1294.49 L1099.73 1445.72 L1128.78 1445.72 L1128.78 1294.49 L1099.73 1294.49 L1099.73 1294.49  Z
  " fill="#009af9" fill-rule="evenodd" fill-opacity="1"/>
<polyline clip-path="url(#clip672)" style="stroke:#000000; stroke-width:4; stroke-opacity:1; fill:none" points="
  1099.73,1294.49 1099.73,1445.72 1128.78,1445.72 1128.78,1294.49 1099.73,1294.49 
  "/>
<path clip-path="url(#clip672)" d="
M1128.78 1282.85 L1128.78 1445.72 L1157.82 1445.72 L1157.82 1282.85 L1128.78 1282.85 L1128.78 1282.85  Z
  " fill="#009af9" fill-rule="evenodd" fill-opacity="1"/>
<polyline clip-path="url(#clip672)" style="stroke:#000000; stroke-width:4; stroke-opacity:1; fill:none" points="
  1128.78,1282.85 1128.78,1445.72 1157.82,1445.72 1157.82,1282.85 1128.78,1282.85 
  "/>
<path clip-path="url(#clip672)" d="
M1157.82 1251.28 L1157.82 1445.72 L1186.87 1445.72 L1186.87 1251.28 L1157.82 1251.28 L1157.82 1251.28  Z
  " fill="#009af9" fill-rule="evenodd" fill-opacity="1"/>
<polyline clip-path="url(#clip672)" style="stroke:#000000; stroke-width:4; stroke-opacity:1; fill:none" points="
  1157.82,1251.28 1157.82,1445.72 1186.87,1445.72 1186.87,1251.28 1157.82,1251.28 
  "/>
<path clip-path="url(#clip672)" d="
M1186.87 1247.95 L1186.87 1445.72 L1215.91 1445.72 L1215.91 1247.95 L1186.87 1247.95 L1186.87 1247.95  Z
  " fill="#009af9" fill-rule="evenodd" fill-opacity="1"/>
<polyline clip-path="url(#clip672)" style="stroke:#000000; stroke-width:4; stroke-opacity:1; fill:none" points="
  1186.87,1247.95 1186.87,1445.72 1215.91,1445.72 1215.91,1247.95 1186.87,1247.95 
  "/>
<path clip-path="url(#clip672)" d="
M1215.91 1242.97 L1215.91 1445.72 L1244.96 1445.72 L1244.96 1242.97 L1215.91 1242.97 L1215.91 1242.97  Z
  " fill="#009af9" fill-rule="evenodd" fill-opacity="1"/>
<polyline clip-path="url(#clip672)" style="stroke:#000000; stroke-width:4; stroke-opacity:1; fill:none" points="
  1215.91,1242.97 1215.91,1445.72 1244.96,1445.72 1244.96,1242.97 1215.91,1242.97 
  "/>
<path clip-path="url(#clip672)" d="
M1244.96 1281.19 L1244.96 1445.72 L1274 1445.72 L1274 1281.19 L1244.96 1281.19 L1244.96 1281.19  Z
  " fill="#009af9" fill-rule="evenodd" fill-opacity="1"/>
<polyline clip-path="url(#clip672)" style="stroke:#000000; stroke-width:4; stroke-opacity:1; fill:none" points="
  1244.96,1281.19 1244.96,1445.72 1274,1445.72 1274,1281.19 1244.96,1281.19 
  "/>
<path clip-path="url(#clip672)" d="
M1274 1251.28 L1274 1445.72 L1303.05 1445.72 L1303.05 1251.28 L1274 1251.28 L1274 1251.28  Z
  " fill="#009af9" fill-rule="evenodd" fill-opacity="1"/>
<polyline clip-path="url(#clip672)" style="stroke:#000000; stroke-width:4; stroke-opacity:1; fill:none" points="
  1274,1251.28 1274,1445.72 1303.05,1445.72 1303.05,1251.28 1274,1251.28 
  "/>
<path clip-path="url(#clip672)" d="
M1303.05 1229.67 L1303.05 1445.72 L1332.09 1445.72 L1332.09 1229.67 L1303.05 1229.67 L1303.05 1229.67  Z
  " fill="#009af9" fill-rule="evenodd" fill-opacity="1"/>
<polyline clip-path="url(#clip672)" style="stroke:#000000; stroke-width:4; stroke-opacity:1; fill:none" points="
  1303.05,1229.67 1303.05,1445.72 1332.09,1445.72 1332.09,1229.67 1303.05,1229.67 
  "/>
<path clip-path="url(#clip672)" d="
M1332.09 1246.29 L1332.09 1445.72 L1361.14 1445.72 L1361.14 1246.29 L1332.09 1246.29 L1332.09 1246.29  Z
  " fill="#009af9" fill-rule="evenodd" fill-opacity="1"/>
<polyline clip-path="url(#clip672)" style="stroke:#000000; stroke-width:4; stroke-opacity:1; fill:none" points="
  1332.09,1246.29 1332.09,1445.72 1361.14,1445.72 1361.14,1246.29 1332.09,1246.29 
  "/>
<path clip-path="url(#clip672)" d="
M1361.14 1168.19 L1361.14 1445.72 L1390.18 1445.72 L1390.18 1168.19 L1361.14 1168.19 L1361.14 1168.19  Z
  " fill="#009af9" fill-rule="evenodd" fill-opacity="1"/>
<polyline clip-path="url(#clip672)" style="stroke:#000000; stroke-width:4; stroke-opacity:1; fill:none" points="
  1361.14,1168.19 1361.14,1445.72 1390.18,1445.72 1390.18,1168.19 1361.14,1168.19 
  "/>
<path clip-path="url(#clip672)" d="
M1390.18 807.562 L1390.18 1445.72 L1419.23 1445.72 L1419.23 807.562 L1390.18 807.562 L1390.18 807.562  Z
  " fill="#009af9" fill-rule="evenodd" fill-opacity="1"/>
<polyline clip-path="url(#clip672)" style="stroke:#000000; stroke-width:4; stroke-opacity:1; fill:none" points="
  1390.18,807.562 1390.18,1445.72 1419.23,1445.72 1419.23,807.562 1390.18,807.562 
  "/>
<path clip-path="url(#clip672)" d="
M1419.23 87.9763 L1419.23 1445.72 L1448.27 1445.72 L1448.27 87.9763 L1419.23 87.9763 L1419.23 87.9763  Z
  " fill="#009af9" fill-rule="evenodd" fill-opacity="1"/>
<polyline clip-path="url(#clip672)" style="stroke:#000000; stroke-width:4; stroke-opacity:1; fill:none" points="
  1419.23,87.9763 1419.23,1445.72 1448.27,1445.72 1448.27,87.9763 1419.23,87.9763 
  "/>
<path clip-path="url(#clip672)" d="
M1448.27 161.098 L1448.27 1445.72 L1477.32 1445.72 L1477.32 161.098 L1448.27 161.098 L1448.27 161.098  Z
  " fill="#009af9" fill-rule="evenodd" fill-opacity="1"/>
<polyline clip-path="url(#clip672)" style="stroke:#000000; stroke-width:4; stroke-opacity:1; fill:none" points="
  1448.27,161.098 1448.27,1445.72 1477.32,1445.72 1477.32,161.098 1448.27,161.098 
  "/>
<path clip-path="url(#clip672)" d="
M1477.32 865.727 L1477.32 1445.72 L1506.36 1445.72 L1506.36 865.727 L1477.32 865.727 L1477.32 865.727  Z
  " fill="#009af9" fill-rule="evenodd" fill-opacity="1"/>
<polyline clip-path="url(#clip672)" style="stroke:#000000; stroke-width:4; stroke-opacity:1; fill:none" points="
  1477.32,865.727 1477.32,1445.72 1506.36,1445.72 1506.36,865.727 1477.32,865.727 
  "/>
<path clip-path="url(#clip672)" d="
M1506.36 1241.31 L1506.36 1445.72 L1535.41 1445.72 L1535.41 1241.31 L1506.36 1241.31 L1506.36 1241.31  Z
  " fill="#009af9" fill-rule="evenodd" fill-opacity="1"/>
<polyline clip-path="url(#clip672)" style="stroke:#000000; stroke-width:4; stroke-opacity:1; fill:none" points="
  1506.36,1241.31 1506.36,1445.72 1535.41,1445.72 1535.41,1241.31 1506.36,1241.31 
  "/>
<path clip-path="url(#clip672)" d="
M1535.41 1314.43 L1535.41 1445.72 L1564.45 1445.72 L1564.45 1314.43 L1535.41 1314.43 L1535.41 1314.43  Z
  " fill="#009af9" fill-rule="evenodd" fill-opacity="1"/>
<polyline clip-path="url(#clip672)" style="stroke:#000000; stroke-width:4; stroke-opacity:1; fill:none" points="
  1535.41,1314.43 1535.41,1445.72 1564.45,1445.72 1564.45,1314.43 1535.41,1314.43 
  "/>
<path clip-path="url(#clip672)" d="
M1564.45 1302.8 L1564.45 1445.72 L1593.5 1445.72 L1593.5 1302.8 L1564.45 1302.8 L1564.45 1302.8  Z
  " fill="#009af9" fill-rule="evenodd" fill-opacity="1"/>
<polyline clip-path="url(#clip672)" style="stroke:#000000; stroke-width:4; stroke-opacity:1; fill:none" points="
  1564.45,1302.8 1564.45,1445.72 1593.5,1445.72 1593.5,1302.8 1564.45,1302.8 
  "/>
<path clip-path="url(#clip672)" d="
M1593.5 1342.68 L1593.5 1445.72 L1622.54 1445.72 L1622.54 1342.68 L1593.5 1342.68 L1593.5 1342.68  Z
  " fill="#009af9" fill-rule="evenodd" fill-opacity="1"/>
<polyline clip-path="url(#clip672)" style="stroke:#000000; stroke-width:4; stroke-opacity:1; fill:none" points="
  1593.5,1342.68 1593.5,1445.72 1622.54,1445.72 1622.54,1342.68 1593.5,1342.68 
  "/>
<path clip-path="url(#clip672)" d="
M1622.54 1346 L1622.54 1445.72 L1651.59 1445.72 L1651.59 1346 L1622.54 1346 L1622.54 1346  Z
  " fill="#009af9" fill-rule="evenodd" fill-opacity="1"/>
<polyline clip-path="url(#clip672)" style="stroke:#000000; stroke-width:4; stroke-opacity:1; fill:none" points="
  1622.54,1346 1622.54,1445.72 1651.59,1445.72 1651.59,1346 1622.54,1346 
  "/>
<path clip-path="url(#clip672)" d="
M1651.59 1365.95 L1651.59 1445.72 L1680.63 1445.72 L1680.63 1365.95 L1651.59 1365.95 L1651.59 1365.95  Z
  " fill="#009af9" fill-rule="evenodd" fill-opacity="1"/>
<polyline clip-path="url(#clip672)" style="stroke:#000000; stroke-width:4; stroke-opacity:1; fill:none" points="
  1651.59,1365.95 1651.59,1445.72 1680.63,1445.72 1680.63,1365.95 1651.59,1365.95 
  "/>
<path clip-path="url(#clip672)" d="
M1680.63 1344.34 L1680.63 1445.72 L1709.68 1445.72 L1709.68 1344.34 L1680.63 1344.34 L1680.63 1344.34  Z
  " fill="#009af9" fill-rule="evenodd" fill-opacity="1"/>
<polyline clip-path="url(#clip672)" style="stroke:#000000; stroke-width:4; stroke-opacity:1; fill:none" points="
  1680.63,1344.34 1680.63,1445.72 1709.68,1445.72 1709.68,1344.34 1680.63,1344.34 
  "/>
<path clip-path="url(#clip672)" d="
M1709.68 1367.61 L1709.68 1445.72 L1738.72 1445.72 L1738.72 1367.61 L1709.68 1367.61 L1709.68 1367.61  Z
  " fill="#009af9" fill-rule="evenodd" fill-opacity="1"/>
<polyline clip-path="url(#clip672)" style="stroke:#000000; stroke-width:4; stroke-opacity:1; fill:none" points="
  1709.68,1367.61 1709.68,1445.72 1738.72,1445.72 1738.72,1367.61 1709.68,1367.61 
  "/>
<path clip-path="url(#clip672)" d="
M1738.72 1385.89 L1738.72 1445.72 L1767.77 1445.72 L1767.77 1385.89 L1738.72 1385.89 L1738.72 1385.89  Z
  " fill="#009af9" fill-rule="evenodd" fill-opacity="1"/>
<polyline clip-path="url(#clip672)" style="stroke:#000000; stroke-width:4; stroke-opacity:1; fill:none" points="
  1738.72,1385.89 1738.72,1445.72 1767.77,1445.72 1767.77,1385.89 1738.72,1385.89 
  "/>
<path clip-path="url(#clip672)" d="
M1767.77 1384.23 L1767.77 1445.72 L1796.81 1445.72 L1796.81 1384.23 L1767.77 1384.23 L1767.77 1384.23  Z
  " fill="#009af9" fill-rule="evenodd" fill-opacity="1"/>
<polyline clip-path="url(#clip672)" style="stroke:#000000; stroke-width:4; stroke-opacity:1; fill:none" points="
  1767.77,1384.23 1767.77,1445.72 1796.81,1445.72 1796.81,1384.23 1767.77,1384.23 
  "/>
<path clip-path="url(#clip672)" d="
M1796.81 1409.15 L1796.81 1445.72 L1825.86 1445.72 L1825.86 1409.15 L1796.81 1409.15 L1796.81 1409.15  Z
  " fill="#009af9" fill-rule="evenodd" fill-opacity="1"/>
<polyline clip-path="url(#clip672)" style="stroke:#000000; stroke-width:4; stroke-opacity:1; fill:none" points="
  1796.81,1409.15 1796.81,1445.72 1825.86,1445.72 1825.86,1409.15 1796.81,1409.15 
  "/>
<path clip-path="url(#clip672)" d="
M1825.86 1412.48 L1825.86 1445.72 L1854.91 1445.72 L1854.91 1412.48 L1825.86 1412.48 L1825.86 1412.48  Z
  " fill="#009af9" fill-rule="evenodd" fill-opacity="1"/>
<polyline clip-path="url(#clip672)" style="stroke:#000000; stroke-width:4; stroke-opacity:1; fill:none" points="
  1825.86,1412.48 1825.86,1445.72 1854.91,1445.72 1854.91,1412.48 1825.86,1412.48 
  "/>
<path clip-path="url(#clip672)" d="
M1854.91 1419.13 L1854.91 1445.72 L1883.95 1445.72 L1883.95 1419.13 L1854.91 1419.13 L1854.91 1419.13  Z
  " fill="#009af9" fill-rule="evenodd" fill-opacity="1"/>
<polyline clip-path="url(#clip672)" style="stroke:#000000; stroke-width:4; stroke-opacity:1; fill:none" points="
  1854.91,1419.13 1854.91,1445.72 1883.95,1445.72 1883.95,1419.13 1854.91,1419.13 
  "/>
<path clip-path="url(#clip672)" d="
M1883.95 1414.14 L1883.95 1445.72 L1913 1445.72 L1913 1414.14 L1883.95 1414.14 L1883.95 1414.14  Z
  " fill="#009af9" fill-rule="evenodd" fill-opacity="1"/>
<polyline clip-path="url(#clip672)" style="stroke:#000000; stroke-width:4; stroke-opacity:1; fill:none" points="
  1883.95,1414.14 1883.95,1445.72 1913,1445.72 1913,1414.14 1883.95,1414.14 
  "/>
<path clip-path="url(#clip672)" d="
M1913 1427.44 L1913 1445.72 L1942.04 1445.72 L1942.04 1427.44 L1913 1427.44 L1913 1427.44  Z
  " fill="#009af9" fill-rule="evenodd" fill-opacity="1"/>
<polyline clip-path="url(#clip672)" style="stroke:#000000; stroke-width:4; stroke-opacity:1; fill:none" points="
  1913,1427.44 1913,1445.72 1942.04,1445.72 1942.04,1427.44 1913,1427.44 
  "/>
<path clip-path="url(#clip672)" d="
M1942.04 1437.41 L1942.04 1445.72 L1971.09 1445.72 L1971.09 1437.41 L1942.04 1437.41 L1942.04 1437.41  Z
  " fill="#009af9" fill-rule="evenodd" fill-opacity="1"/>
<polyline clip-path="url(#clip672)" style="stroke:#000000; stroke-width:4; stroke-opacity:1; fill:none" points="
  1942.04,1437.41 1942.04,1445.72 1971.09,1445.72 1971.09,1437.41 1942.04,1437.41 
  "/>
<path clip-path="url(#clip672)" d="
M1971.09 1435.74 L1971.09 1445.72 L2000.13 1445.72 L2000.13 1435.74 L1971.09 1435.74 L1971.09 1435.74  Z
  " fill="#009af9" fill-rule="evenodd" fill-opacity="1"/>
<polyline clip-path="url(#clip672)" style="stroke:#000000; stroke-width:4; stroke-opacity:1; fill:none" points="
  1971.09,1435.74 1971.09,1445.72 2000.13,1445.72 2000.13,1435.74 1971.09,1435.74 
  "/>
<path clip-path="url(#clip672)" d="
M2000.13 1442.39 L2000.13 1445.72 L2029.18 1445.72 L2029.18 1442.39 L2000.13 1442.39 L2000.13 1442.39  Z
  " fill="#009af9" fill-rule="evenodd" fill-opacity="1"/>
<polyline clip-path="url(#clip672)" style="stroke:#000000; stroke-width:4; stroke-opacity:1; fill:none" points="
  2000.13,1442.39 2000.13,1445.72 2029.18,1445.72 2029.18,1442.39 2000.13,1442.39 
  "/>
<path clip-path="url(#clip672)" d="
M2029.18 1430.76 L2029.18 1445.72 L2058.22 1445.72 L2058.22 1430.76 L2029.18 1430.76 L2029.18 1430.76  Z
  " fill="#009af9" fill-rule="evenodd" fill-opacity="1"/>
<polyline clip-path="url(#clip672)" style="stroke:#000000; stroke-width:4; stroke-opacity:1; fill:none" points="
  2029.18,1430.76 2029.18,1445.72 2058.22,1445.72 2058.22,1430.76 2029.18,1430.76 
  "/>
<path clip-path="url(#clip672)" d="
M2058.22 1440.73 L2058.22 1445.72 L2087.27 1445.72 L2087.27 1440.73 L2058.22 1440.73 L2058.22 1440.73  Z
  " fill="#009af9" fill-rule="evenodd" fill-opacity="1"/>
<polyline clip-path="url(#clip672)" style="stroke:#000000; stroke-width:4; stroke-opacity:1; fill:none" points="
  2058.22,1440.73 2058.22,1445.72 2087.27,1445.72 2087.27,1440.73 2058.22,1440.73 
  "/>
<path clip-path="url(#clip672)" d="
M2087.27 1444.05 L2087.27 1445.72 L2116.31 1445.72 L2116.31 1444.05 L2087.27 1444.05 L2087.27 1444.05  Z
  " fill="#009af9" fill-rule="evenodd" fill-opacity="1"/>
<polyline clip-path="url(#clip672)" style="stroke:#000000; stroke-width:4; stroke-opacity:1; fill:none" points="
  2087.27,1444.05 2087.27,1445.72 2116.31,1445.72 2116.31,1444.05 2087.27,1444.05 
  "/>
<path clip-path="url(#clip672)" d="
M2116.31 1442.39 L2116.31 1445.72 L2145.36 1445.72 L2145.36 1442.39 L2116.31 1442.39 L2116.31 1442.39  Z
  " fill="#009af9" fill-rule="evenodd" fill-opacity="1"/>
<polyline clip-path="url(#clip672)" style="stroke:#000000; stroke-width:4; stroke-opacity:1; fill:none" points="
  2116.31,1442.39 2116.31,1445.72 2145.36,1445.72 2145.36,1442.39 2116.31,1442.39 
  "/>
<path clip-path="url(#clip672)" d="
M2145.36 1444.05 L2145.36 1445.72 L2174.4 1445.72 L2174.4 1444.05 L2145.36 1444.05 L2145.36 1444.05  Z
  " fill="#009af9" fill-rule="evenodd" fill-opacity="1"/>
<polyline clip-path="url(#clip672)" style="stroke:#000000; stroke-width:4; stroke-opacity:1; fill:none" points="
  2145.36,1444.05 2145.36,1445.72 2174.4,1445.72 2174.4,1444.05 2145.36,1444.05 
  "/>
<path clip-path="url(#clip672)" d="
M2174.4 1439.07 L2174.4 1445.72 L2203.45 1445.72 L2203.45 1439.07 L2174.4 1439.07 L2174.4 1439.07  Z
  " fill="#009af9" fill-rule="evenodd" fill-opacity="1"/>
<polyline clip-path="url(#clip672)" style="stroke:#000000; stroke-width:4; stroke-opacity:1; fill:none" points="
  2174.4,1439.07 2174.4,1445.72 2203.45,1445.72 2203.45,1439.07 2174.4,1439.07 
  "/>
<path clip-path="url(#clip672)" d="
M2203.45 1444.05 L2203.45 1445.72 L2232.49 1445.72 L2232.49 1444.05 L2203.45 1444.05 L2203.45 1444.05  Z
  " fill="#009af9" fill-rule="evenodd" fill-opacity="1"/>
<polyline clip-path="url(#clip672)" style="stroke:#000000; stroke-width:4; stroke-opacity:1; fill:none" points="
  2203.45,1444.05 2203.45,1445.72 2232.49,1445.72 2232.49,1444.05 2203.45,1444.05 
  "/>
<path clip-path="url(#clip670)" d="
M1989.74 251.724 L2280.76 251.724 L2280.76 130.764 L1989.74 130.764  Z
  " fill="#ffffff" fill-rule="evenodd" fill-opacity="1"/>
<polyline clip-path="url(#clip670)" style="stroke:#000000; stroke-width:4; stroke-opacity:1; fill:none" points="
  1989.74,251.724 2280.76,251.724 2280.76,130.764 1989.74,130.764 1989.74,251.724 
  "/>
<path clip-path="url(#clip670)" d="
M2013.74 215.436 L2157.74 215.436 L2157.74 167.052 L2013.74 167.052 L2013.74 215.436  Z
  " fill="#009af9" fill-rule="evenodd" fill-opacity="1"/>
<polyline clip-path="url(#clip670)" style="stroke:#000000; stroke-width:4; stroke-opacity:1; fill:none" points="
  2013.74,215.436 2157.74,215.436 2157.74,167.052 2013.74,167.052 2013.74,215.436 
  "/>
<path clip-path="url(#clip670)" d="M 0 0 M2195.58 210.931 Q2193.77 215.561 2192.06 216.973 Q2190.35 218.385 2187.48 218.385 L2184.08 218.385 L2184.08 214.82 L2186.58 214.82 Q2188.33 214.82 2189.31 213.987 Q2190.28 213.154 2191.46 210.052 L2192.22 208.107 L2181.74 182.598 L2186.25 182.598 L2194.35 202.876 L2202.46 182.598 L2206.97 182.598 L2195.58 210.931 Z" fill="#000000" fill-rule="evenodd" fill-opacity="1" /><path clip-path="url(#clip670)" d="M 0 0 M2212.85 204.589 L2220.49 204.589 L2220.49 178.223 L2212.18 179.89 L2212.18 175.631 L2220.44 173.964 L2225.12 173.964 L2225.12 204.589 L2232.76 204.589 L2232.76 208.524 L2212.85 208.524 L2212.85 204.589 Z" fill="#000000" fill-rule="evenodd" fill-opacity="1" /></svg>
