<?xml version="1.0" encoding="utf-8"?>
<svg xmlns="http://www.w3.org/2000/svg" xmlns:xlink="http://www.w3.org/1999/xlink" width="600" height="400" viewBox="0 0 2400 1600">
<defs>
  <clipPath id="clip890">
    <rect x="0" y="0" width="2400" height="1600"/>
  </clipPath>
</defs>
<path clip-path="url(#clip890)" d="
M0 1600 L2400 1600 L2400 0 L0 0  Z
  " fill="#ffffff" fill-rule="evenodd" fill-opacity="1"/>
<defs>
  <clipPath id="clip891">
    <rect x="480" y="0" width="1681" height="1600"/>
  </clipPath>
</defs>
<path clip-path="url(#clip890)" d="
M166.205 1486.45 L2352.76 1486.45 L2352.76 47.2441 L166.205 47.2441  Z
  " fill="#ffffff" fill-rule="evenodd" fill-opacity="1"/>
<defs>
  <clipPath id="clip892">
    <rect x="166" y="47" width="2188" height="1440"/>
  </clipPath>
</defs>
<polyline clip-path="url(#clip892)" style="stroke:#000000; stroke-width:2; stroke-opacity:0.1; fill:none" points="
  372.323,1486.45 372.323,47.2441 
  "/>
<polyline clip-path="url(#clip892)" style="stroke:#000000; stroke-width:2; stroke-opacity:0.1; fill:none" points="
  658.503,1486.45 658.503,47.2441 
  "/>
<polyline clip-path="url(#clip892)" style="stroke:#000000; stroke-width:2; stroke-opacity:0.1; fill:none" points="
  944.682,1486.45 944.682,47.2441 
  "/>
<polyline clip-path="url(#clip892)" style="stroke:#000000; stroke-width:2; stroke-opacity:0.1; fill:none" points="
  1230.86,1486.45 1230.86,47.2441 
  "/>
<polyline clip-path="url(#clip892)" style="stroke:#000000; stroke-width:2; stroke-opacity:0.1; fill:none" points="
  1517.04,1486.45 1517.04,47.2441 
  "/>
<polyline clip-path="url(#clip892)" style="stroke:#000000; stroke-width:2; stroke-opacity:0.1; fill:none" points="
  1803.22,1486.45 1803.22,47.2441 
  "/>
<polyline clip-path="url(#clip892)" style="stroke:#000000; stroke-width:2; stroke-opacity:0.1; fill:none" points="
  2089.4,1486.45 2089.4,47.2441 
  "/>
<polyline clip-path="url(#clip892)" style="stroke:#000000; stroke-width:2; stroke-opacity:0.1; fill:none" points="
  166.205,1445.72 2352.76,1445.72 
  "/>
<polyline clip-path="url(#clip892)" style="stroke:#000000; stroke-width:2; stroke-opacity:0.1; fill:none" points="
  166.205,1114.16 2352.76,1114.16 
  "/>
<polyline clip-path="url(#clip892)" style="stroke:#000000; stroke-width:2; stroke-opacity:0.1; fill:none" points="
  166.205,782.595 2352.76,782.595 
  "/>
<polyline clip-path="url(#clip892)" style="stroke:#000000; stroke-width:2; stroke-opacity:0.1; fill:none" points="
  166.205,451.035 2352.76,451.035 
  "/>
<polyline clip-path="url(#clip892)" style="stroke:#000000; stroke-width:2; stroke-opacity:0.1; fill:none" points="
  166.205,119.475 2352.76,119.475 
  "/>
<polyline clip-path="url(#clip890)" style="stroke:#000000; stroke-width:4; stroke-opacity:1; fill:none" points="
  166.205,1486.45 2352.76,1486.45 
  "/>
<polyline clip-path="url(#clip890)" style="stroke:#000000; stroke-width:4; stroke-opacity:1; fill:none" points="
  166.205,1486.45 166.205,47.2441 
  "/>
<polyline clip-path="url(#clip890)" style="stroke:#000000; stroke-width:4; stroke-opacity:1; fill:none" points="
  372.323,1486.45 372.323,1469.18 
  "/>
<polyline clip-path="url(#clip890)" style="stroke:#000000; stroke-width:4; stroke-opacity:1; fill:none" points="
  658.503,1486.45 658.503,1469.18 
  "/>
<polyline clip-path="url(#clip890)" style="stroke:#000000; stroke-width:4; stroke-opacity:1; fill:none" points="
  944.682,1486.45 944.682,1469.18 
  "/>
<polyline clip-path="url(#clip890)" style="stroke:#000000; stroke-width:4; stroke-opacity:1; fill:none" points="
  1230.86,1486.45 1230.86,1469.18 
  "/>
<polyline clip-path="url(#clip890)" style="stroke:#000000; stroke-width:4; stroke-opacity:1; fill:none" points="
  1517.04,1486.45 1517.04,1469.18 
  "/>
<polyline clip-path="url(#clip890)" style="stroke:#000000; stroke-width:4; stroke-opacity:1; fill:none" points="
  1803.22,1486.45 1803.22,1469.18 
  "/>
<polyline clip-path="url(#clip890)" style="stroke:#000000; stroke-width:4; stroke-opacity:1; fill:none" points="
  2089.4,1486.45 2089.4,1469.18 
  "/>
<polyline clip-path="url(#clip890)" style="stroke:#000000; stroke-width:4; stroke-opacity:1; fill:none" points="
  166.205,1445.72 192.443,1445.72 
  "/>
<polyline clip-path="url(#clip890)" style="stroke:#000000; stroke-width:4; stroke-opacity:1; fill:none" points="
  166.205,1114.16 192.443,1114.16 
  "/>
<polyline clip-path="url(#clip890)" style="stroke:#000000; stroke-width:4; stroke-opacity:1; fill:none" points="
  166.205,782.595 192.443,782.595 
  "/>
<polyline clip-path="url(#clip890)" style="stroke:#000000; stroke-width:4; stroke-opacity:1; fill:none" points="
  166.205,451.035 192.443,451.035 
  "/>
<polyline clip-path="url(#clip890)" style="stroke:#000000; stroke-width:4; stroke-opacity:1; fill:none" points="
  166.205,119.475 192.443,119.475 
  "/>
<path clip-path="url(#clip890)" d="M 0 0 M352.497 1525.04 L364.973 1525.04 L364.973 1528.83 L352.497 1528.83 L352.497 1525.04 Z" fill="#000000" fill-rule="evenodd" fill-opacity="1" /><path clip-path="url(#clip890)" d="M 0 0 M380.621 1520.78 Q377.473 1520.78 375.621 1522.93 Q373.793 1525.08 373.793 1528.83 Q373.793 1532.56 375.621 1534.73 Q377.473 1536.89 380.621 1536.89 Q383.77 1536.89 385.598 1534.73 Q387.45 1532.56 387.45 1528.83 Q387.45 1525.08 385.598 1522.93 Q383.77 1520.78 380.621 1520.78 M389.904 1506.12 L389.904 1510.38 Q388.144 1509.55 386.339 1509.11 Q384.557 1508.67 382.797 1508.67 Q378.168 1508.67 375.714 1511.8 Q373.283 1514.92 372.936 1521.24 Q374.302 1519.23 376.362 1518.16 Q378.422 1517.07 380.899 1517.07 Q386.107 1517.07 389.117 1520.24 Q392.149 1523.39 392.149 1528.83 Q392.149 1534.16 389.001 1537.37 Q385.853 1540.59 380.621 1540.59 Q374.626 1540.59 371.455 1536.01 Q368.283 1531.4 368.283 1522.67 Q368.283 1514.48 372.172 1509.62 Q376.061 1504.73 382.612 1504.73 Q384.371 1504.73 386.154 1505.08 Q387.959 1505.43 389.904 1506.12 Z" fill="#000000" fill-rule="evenodd" fill-opacity="1" /><path clip-path="url(#clip890)" d="M 0 0 M638.514 1525.04 L650.991 1525.04 L650.991 1528.83 L638.514 1528.83 L638.514 1525.04 Z" fill="#000000" fill-rule="evenodd" fill-opacity="1" /><path clip-path="url(#clip890)" d="M 0 0 M668.908 1509.43 L657.102 1527.88 L668.908 1527.88 L668.908 1509.43 M667.681 1505.36 L673.56 1505.36 L673.56 1527.88 L678.491 1527.88 L678.491 1531.77 L673.56 1531.77 L673.56 1539.92 L668.908 1539.92 L668.908 1531.77 L653.306 1531.77 L653.306 1527.26 L667.681 1505.36 Z" fill="#000000" fill-rule="evenodd" fill-opacity="1" /><path clip-path="url(#clip890)" d="M 0 0 M925.736 1525.04 L938.213 1525.04 L938.213 1528.83 L925.736 1528.83 L925.736 1525.04 Z" fill="#000000" fill-rule="evenodd" fill-opacity="1" /><path clip-path="url(#clip890)" d="M 0 0 M947.31 1535.98 L963.629 1535.98 L963.629 1539.92 L941.685 1539.92 L941.685 1535.98 Q944.347 1533.23 948.93 1528.6 Q953.537 1523.95 954.717 1522.61 Q956.963 1520.08 957.842 1518.35 Q958.745 1516.59 958.745 1514.9 Q958.745 1512.14 956.8 1510.41 Q954.879 1508.67 951.777 1508.67 Q949.578 1508.67 947.125 1509.43 Q944.694 1510.2 941.916 1511.75 L941.916 1507.03 Q944.74 1505.89 947.194 1505.31 Q949.648 1504.73 951.685 1504.73 Q957.055 1504.73 960.25 1507.42 Q963.444 1510.11 963.444 1514.6 Q963.444 1516.73 962.634 1518.65 Q961.847 1520.54 959.74 1523.14 Q959.162 1523.81 956.06 1527.03 Q952.958 1530.22 947.31 1535.98 Z" fill="#000000" fill-rule="evenodd" fill-opacity="1" /><path clip-path="url(#clip890)" d="M 0 0 M1230.86 1508.44 Q1227.25 1508.44 1225.42 1512 Q1223.62 1515.55 1223.62 1522.67 Q1223.62 1529.78 1225.42 1533.35 Q1227.25 1536.89 1230.86 1536.89 Q1234.5 1536.89 1236.3 1533.35 Q1238.13 1529.78 1238.13 1522.67 Q1238.13 1515.55 1236.3 1512 Q1234.5 1508.44 1230.86 1508.44 M1230.86 1504.73 Q1236.67 1504.73 1239.73 1509.34 Q1242.81 1513.92 1242.81 1522.67 Q1242.81 1531.4 1239.73 1536.01 Q1236.67 1540.59 1230.86 1540.59 Q1225.05 1540.59 1221.97 1536.01 Q1218.92 1531.4 1218.92 1522.67 Q1218.92 1513.92 1221.97 1509.34 Q1225.05 1504.73 1230.86 1504.73 Z" fill="#000000" fill-rule="evenodd" fill-opacity="1" /><path clip-path="url(#clip890)" d="M 0 0 M1511.69 1535.98 L1528.01 1535.98 L1528.01 1539.92 L1506.07 1539.92 L1506.07 1535.98 Q1508.73 1533.23 1513.32 1528.6 Q1517.92 1523.95 1519.1 1522.61 Q1521.35 1520.08 1522.23 1518.35 Q1523.13 1516.59 1523.13 1514.9 Q1523.13 1512.14 1521.19 1510.41 Q1519.26 1508.67 1516.16 1508.67 Q1513.96 1508.67 1511.51 1509.43 Q1509.08 1510.2 1506.3 1511.75 L1506.3 1507.03 Q1509.13 1505.89 1511.58 1505.31 Q1514.03 1504.73 1516.07 1504.73 Q1521.44 1504.73 1524.63 1507.42 Q1527.83 1510.11 1527.83 1514.6 Q1527.83 1516.73 1527.02 1518.65 Q1526.23 1520.54 1524.13 1523.14 Q1523.55 1523.81 1520.44 1527.03 Q1517.34 1530.22 1511.69 1535.98 Z" fill="#000000" fill-rule="evenodd" fill-opacity="1" /><path clip-path="url(#clip890)" d="M 0 0 M1806.23 1509.43 L1794.43 1527.88 L1806.23 1527.88 L1806.23 1509.43 M1805 1505.36 L1810.88 1505.36 L1810.88 1527.88 L1815.81 1527.88 L1815.81 1531.77 L1810.88 1531.77 L1810.88 1539.92 L1806.23 1539.92 L1806.23 1531.77 L1790.63 1531.77 L1790.63 1527.26 L1805 1505.36 Z" fill="#000000" fill-rule="evenodd" fill-opacity="1" /><path clip-path="url(#clip890)" d="M 0 0 M2089.81 1520.78 Q2086.66 1520.78 2084.81 1522.93 Q2082.98 1525.08 2082.98 1528.83 Q2082.98 1532.56 2084.81 1534.73 Q2086.66 1536.89 2089.81 1536.89 Q2092.96 1536.89 2094.78 1534.73 Q2096.64 1532.56 2096.64 1528.83 Q2096.64 1525.08 2094.78 1522.93 Q2092.96 1520.78 2089.81 1520.78 M2099.09 1506.12 L2099.09 1510.38 Q2097.33 1509.55 2095.52 1509.11 Q2093.74 1508.67 2091.98 1508.67 Q2087.35 1508.67 2084.9 1511.8 Q2082.47 1514.92 2082.12 1521.24 Q2083.49 1519.23 2085.55 1518.16 Q2087.61 1517.07 2090.08 1517.07 Q2095.29 1517.07 2098.3 1520.24 Q2101.33 1523.39 2101.33 1528.83 Q2101.33 1534.16 2098.19 1537.37 Q2095.04 1540.59 2089.81 1540.59 Q2083.81 1540.59 2080.64 1536.01 Q2077.47 1531.4 2077.47 1522.67 Q2077.47 1514.48 2081.36 1509.62 Q2085.25 1504.73 2091.8 1504.73 Q2093.56 1504.73 2095.34 1505.08 Q2097.14 1505.43 2099.09 1506.12 Z" fill="#000000" fill-rule="evenodd" fill-opacity="1" /><path clip-path="url(#clip890)" d="M 0 0 M130.26 1431.51 Q126.649 1431.51 124.82 1435.08 Q123.015 1438.62 123.015 1445.75 Q123.015 1452.86 124.82 1456.42 Q126.649 1459.96 130.26 1459.96 Q133.895 1459.96 135.7 1456.42 Q137.529 1452.86 137.529 1445.75 Q137.529 1438.62 135.7 1435.08 Q133.895 1431.51 130.26 1431.51 M130.26 1427.81 Q136.07 1427.81 139.126 1432.42 Q142.205 1437 142.205 1445.75 Q142.205 1454.48 139.126 1459.08 Q136.07 1463.67 130.26 1463.67 Q124.45 1463.67 121.371 1459.08 Q118.316 1454.48 118.316 1445.75 Q118.316 1437 121.371 1432.42 Q124.45 1427.81 130.26 1427.81 Z" fill="#000000" fill-rule="evenodd" fill-opacity="1" /><path clip-path="url(#clip890)" d="M 0 0 M71.8578 1127.5 L88.1772 1127.5 L88.1772 1131.44 L66.2328 1131.44 L66.2328 1127.5 Q68.8949 1124.75 73.4782 1120.12 Q78.0846 1115.46 79.2652 1114.12 Q81.5105 1111.6 82.3902 1109.86 Q83.2929 1108.1 83.2929 1106.41 Q83.2929 1103.66 81.3485 1101.92 Q79.4272 1100.19 76.3254 1100.19 Q74.1263 1100.19 71.6726 1100.95 Q69.2421 1101.71 66.4643 1103.26 L66.4643 1098.54 Q69.2884 1097.41 71.7421 1096.83 Q74.1958 1096.25 76.2328 1096.25 Q81.6031 1096.25 84.7976 1098.94 Q87.992 1101.62 87.992 1106.11 Q87.992 1108.24 87.1818 1110.16 Q86.3948 1112.06 84.2883 1114.65 Q83.7096 1115.32 80.6078 1118.54 Q77.5059 1121.74 71.8578 1127.5 Z" fill="#000000" fill-rule="evenodd" fill-opacity="1" /><path clip-path="url(#clip890)" d="M 0 0 M103.247 1099.95 Q99.6354 1099.95 97.8068 1103.52 Q96.0012 1107.06 96.0012 1114.19 Q96.0012 1121.3 97.8068 1124.86 Q99.6354 1128.4 103.247 1128.4 Q106.881 1128.4 108.686 1124.86 Q110.515 1121.3 110.515 1114.19 Q110.515 1107.06 108.686 1103.52 Q106.881 1099.95 103.247 1099.95 M103.247 1096.25 Q109.057 1096.25 112.112 1100.86 Q115.191 1105.44 115.191 1114.19 Q115.191 1122.92 112.112 1127.52 Q109.057 1132.11 103.247 1132.11 Q97.4364 1132.11 94.3577 1127.52 Q91.3022 1122.92 91.3022 1114.19 Q91.3022 1105.44 94.3577 1100.86 Q97.4364 1096.25 103.247 1096.25 Z" fill="#000000" fill-rule="evenodd" fill-opacity="1" /><path clip-path="url(#clip890)" d="M 0 0 M130.26 1099.95 Q126.649 1099.95 124.82 1103.52 Q123.015 1107.06 123.015 1114.19 Q123.015 1121.3 124.82 1124.86 Q126.649 1128.4 130.26 1128.4 Q133.895 1128.4 135.7 1124.86 Q137.529 1121.3 137.529 1114.19 Q137.529 1107.06 135.7 1103.52 Q133.895 1099.95 130.26 1099.95 M130.26 1096.25 Q136.07 1096.25 139.126 1100.86 Q142.205 1105.44 142.205 1114.19 Q142.205 1122.92 139.126 1127.52 Q136.07 1132.11 130.26 1132.11 Q124.45 1132.11 121.371 1127.52 Q118.316 1122.92 118.316 1114.19 Q118.316 1105.44 121.371 1100.86 Q124.45 1096.25 130.26 1096.25 Z" fill="#000000" fill-rule="evenodd" fill-opacity="1" /><path clip-path="url(#clip890)" d="M 0 0 M78.5939 769.389 L66.7884 787.838 L78.5939 787.838 L78.5939 769.389 M77.367 765.315 L83.2466 765.315 L83.2466 787.838 L88.1772 787.838 L88.1772 791.727 L83.2466 791.727 L83.2466 799.875 L78.5939 799.875 L78.5939 791.727 L62.9921 791.727 L62.9921 787.213 L77.367 765.315 Z" fill="#000000" fill-rule="evenodd" fill-opacity="1" /><path clip-path="url(#clip890)" d="M 0 0 M103.247 768.394 Q99.6354 768.394 97.8068 771.959 Q96.0012 775.5 96.0012 782.63 Q96.0012 789.736 97.8068 793.301 Q99.6354 796.843 103.247 796.843 Q106.881 796.843 108.686 793.301 Q110.515 789.736 110.515 782.63 Q110.515 775.5 108.686 771.959 Q106.881 768.394 103.247 768.394 M103.247 764.69 Q109.057 764.69 112.112 769.297 Q115.191 773.88 115.191 782.63 Q115.191 791.357 112.112 795.963 Q109.057 800.546 103.247 800.546 Q97.4364 800.546 94.3577 795.963 Q91.3022 791.357 91.3022 782.63 Q91.3022 773.88 94.3577 769.297 Q97.4364 764.69 103.247 764.69 Z" fill="#000000" fill-rule="evenodd" fill-opacity="1" /><path clip-path="url(#clip890)" d="M 0 0 M130.26 768.394 Q126.649 768.394 124.82 771.959 Q123.015 775.5 123.015 782.63 Q123.015 789.736 124.82 793.301 Q126.649 796.843 130.26 796.843 Q133.895 796.843 135.7 793.301 Q137.529 789.736 137.529 782.63 Q137.529 775.5 135.7 771.959 Q133.895 768.394 130.26 768.394 M130.26 764.69 Q136.07 764.69 139.126 769.297 Q142.205 773.88 142.205 782.63 Q142.205 791.357 139.126 795.963 Q136.07 800.546 130.26 800.546 Q124.45 800.546 121.371 795.963 Q118.316 791.357 118.316 782.63 Q118.316 773.88 121.371 769.297 Q124.45 764.69 130.26 764.69 Z" fill="#000000" fill-rule="evenodd" fill-opacity="1" /><path clip-path="url(#clip890)" d="M 0 0 M76.6495 449.171 Q73.5013 449.171 71.6495 451.324 Q69.8208 453.477 69.8208 457.227 Q69.8208 460.954 71.6495 463.13 Q73.5013 465.282 76.6495 465.282 Q79.7976 465.282 81.6263 463.13 Q83.4781 460.954 83.4781 457.227 Q83.4781 453.477 81.6263 451.324 Q79.7976 449.171 76.6495 449.171 M85.9318 434.519 L85.9318 438.778 Q84.1726 437.945 82.367 437.505 Q80.5846 437.065 78.8254 437.065 Q74.1958 437.065 71.7421 440.19 Q69.3115 443.315 68.9643 449.634 Q70.33 447.62 72.3902 446.556 Q74.4504 445.468 76.9272 445.468 Q82.1355 445.468 85.1448 448.639 Q88.1772 451.787 88.1772 457.227 Q88.1772 462.551 85.029 465.769 Q81.8809 468.986 76.6495 468.986 Q70.6541 468.986 67.4828 464.403 Q64.3116 459.796 64.3116 451.07 Q64.3116 442.875 68.2004 438.014 Q72.0893 433.13 78.6402 433.13 Q80.3994 433.13 82.1818 433.477 Q83.9874 433.824 85.9318 434.519 Z" fill="#000000" fill-rule="evenodd" fill-opacity="1" /><path clip-path="url(#clip890)" d="M 0 0 M103.247 436.833 Q99.6354 436.833 97.8068 440.398 Q96.0012 443.94 96.0012 451.07 Q96.0012 458.176 97.8068 461.741 Q99.6354 465.282 103.247 465.282 Q106.881 465.282 108.686 461.741 Q110.515 458.176 110.515 451.07 Q110.515 443.94 108.686 440.398 Q106.881 436.833 103.247 436.833 M103.247 433.13 Q109.057 433.13 112.112 437.736 Q115.191 442.32 115.191 451.07 Q115.191 459.796 112.112 464.403 Q109.057 468.986 103.247 468.986 Q97.4364 468.986 94.3577 464.403 Q91.3022 459.796 91.3022 451.07 Q91.3022 442.32 94.3577 437.736 Q97.4364 433.13 103.247 433.13 Z" fill="#000000" fill-rule="evenodd" fill-opacity="1" /><path clip-path="url(#clip890)" d="M 0 0 M130.26 436.833 Q126.649 436.833 124.82 440.398 Q123.015 443.94 123.015 451.07 Q123.015 458.176 124.82 461.741 Q126.649 465.282 130.26 465.282 Q133.895 465.282 135.7 461.741 Q137.529 458.176 137.529 451.07 Q137.529 443.94 135.7 440.398 Q133.895 436.833 130.26 436.833 M130.26 433.13 Q136.07 433.13 139.126 437.736 Q142.205 442.32 142.205 451.07 Q142.205 459.796 139.126 464.403 Q136.07 468.986 130.26 468.986 Q124.45 468.986 121.371 464.403 Q118.316 459.796 118.316 451.07 Q118.316 442.32 121.371 437.736 Q124.45 433.13 130.26 433.13 Z" fill="#000000" fill-rule="evenodd" fill-opacity="1" /><path clip-path="url(#clip890)" d="M 0 0 M76.3254 120.343 Q72.9921 120.343 71.0708 122.125 Q69.1726 123.907 69.1726 127.032 Q69.1726 130.157 71.0708 131.94 Q72.9921 133.722 76.3254 133.722 Q79.6587 133.722 81.58 131.94 Q83.5013 130.134 83.5013 127.032 Q83.5013 123.907 81.58 122.125 Q79.6819 120.343 76.3254 120.343 M71.6495 118.352 Q68.6402 117.611 66.9504 115.551 Q65.2838 113.491 65.2838 110.528 Q65.2838 106.384 68.2236 103.977 Q71.1865 101.57 76.3254 101.57 Q81.4874 101.57 84.4272 103.977 Q87.367 106.384 87.367 110.528 Q87.367 113.491 85.6772 115.551 Q84.0105 117.611 81.0244 118.352 Q84.404 119.139 86.279 121.431 Q88.1772 123.722 88.1772 127.032 Q88.1772 132.055 85.0985 134.741 Q82.0429 137.426 76.3254 137.426 Q70.6078 137.426 67.5291 134.741 Q64.4736 132.055 64.4736 127.032 Q64.4736 123.722 66.3717 121.431 Q68.2699 119.139 71.6495 118.352 M69.9365 110.968 Q69.9365 113.653 71.6032 115.157 Q73.293 116.662 76.3254 116.662 Q79.3346 116.662 81.0244 115.157 Q82.7374 113.653 82.7374 110.968 Q82.7374 108.282 81.0244 106.778 Q79.3346 105.273 76.3254 105.273 Q73.293 105.273 71.6032 106.778 Q69.9365 108.282 69.9365 110.968 Z" fill="#000000" fill-rule="evenodd" fill-opacity="1" /><path clip-path="url(#clip890)" d="M 0 0 M103.247 105.273 Q99.6354 105.273 97.8068 108.838 Q96.0012 112.38 96.0012 119.509 Q96.0012 126.616 97.8068 130.18 Q99.6354 133.722 103.247 133.722 Q106.881 133.722 108.686 130.18 Q110.515 126.616 110.515 119.509 Q110.515 112.38 108.686 108.838 Q106.881 105.273 103.247 105.273 M103.247 101.57 Q109.057 101.57 112.112 106.176 Q115.191 110.759 115.191 119.509 Q115.191 128.236 112.112 132.842 Q109.057 137.426 103.247 137.426 Q97.4364 137.426 94.3577 132.842 Q91.3022 128.236 91.3022 119.509 Q91.3022 110.759 94.3577 106.176 Q97.4364 101.57 103.247 101.57 Z" fill="#000000" fill-rule="evenodd" fill-opacity="1" /><path clip-path="url(#clip890)" d="M 0 0 M130.26 105.273 Q126.649 105.273 124.82 108.838 Q123.015 112.38 123.015 119.509 Q123.015 126.616 124.82 130.18 Q126.649 133.722 130.26 133.722 Q133.895 133.722 135.7 130.18 Q137.529 126.616 137.529 119.509 Q137.529 112.38 135.7 108.838 Q133.895 105.273 130.26 105.273 M130.26 101.57 Q136.07 101.57 139.126 106.176 Q142.205 110.759 142.205 119.509 Q142.205 128.236 139.126 132.842 Q136.07 137.426 130.26 137.426 Q124.45 137.426 121.371 132.842 Q118.316 128.236 118.316 119.509 Q118.316 110.759 121.371 106.176 Q124.45 101.57 130.26 101.57 Z" fill="#000000" fill-rule="evenodd" fill-opacity="1" /><path clip-path="url(#clip892)" d="
M286.469 1442.4 L286.469 1445.72 L315.087 1445.72 L315.087 1442.4 L286.469 1442.4 L286.469 1442.4  Z
  " fill="#009af9" fill-rule="evenodd" fill-opacity="1"/>
<polyline clip-path="url(#clip892)" style="stroke:#000000; stroke-width:4; stroke-opacity:1; fill:none" points="
  286.469,1442.4 286.469,1445.72 315.087,1445.72 315.087,1442.4 286.469,1442.4 
  "/>
<path clip-path="url(#clip892)" d="
M315.087 1445.72 L315.087 1445.72 L343.705 1445.72 L343.705 1445.72 L315.087 1445.72 L315.087 1445.72  Z
  " fill="#009af9" fill-rule="evenodd" fill-opacity="1"/>
<polyline clip-path="url(#clip892)" style="stroke:#000000; stroke-width:4; stroke-opacity:1; fill:none" points="
  315.087,1445.72 315.087,1445.72 343.705,1445.72 315.087,1445.72 
  "/>
<path clip-path="url(#clip892)" d="
M343.705 1444.06 L343.705 1445.72 L372.323 1445.72 L372.323 1444.06 L343.705 1444.06 L343.705 1444.06  Z
  " fill="#009af9" fill-rule="evenodd" fill-opacity="1"/>
<polyline clip-path="url(#clip892)" style="stroke:#000000; stroke-width:4; stroke-opacity:1; fill:none" points="
  343.705,1444.06 343.705,1445.72 372.323,1445.72 372.323,1444.06 343.705,1444.06 
  "/>
<path clip-path="url(#clip892)" d="
M372.323 1442.4 L372.323 1445.72 L400.941 1445.72 L400.941 1442.4 L372.323 1442.4 L372.323 1442.4  Z
  " fill="#009af9" fill-rule="evenodd" fill-opacity="1"/>
<polyline clip-path="url(#clip892)" style="stroke:#000000; stroke-width:4; stroke-opacity:1; fill:none" points="
  372.323,1442.4 372.323,1445.72 400.941,1445.72 400.941,1442.4 372.323,1442.4 
  "/>
<path clip-path="url(#clip892)" d="
M400.941 1437.43 L400.941 1445.72 L429.559 1445.72 L429.559 1437.43 L400.941 1437.43 L400.941 1437.43  Z
  " fill="#009af9" fill-rule="evenodd" fill-opacity="1"/>
<polyline clip-path="url(#clip892)" style="stroke:#000000; stroke-width:4; stroke-opacity:1; fill:none" points="
  400.941,1437.43 400.941,1445.72 429.559,1445.72 429.559,1437.43 400.941,1437.43 
  "/>
<path clip-path="url(#clip892)" d="
M429.559 1440.74 L429.559 1445.72 L458.177 1445.72 L458.177 1440.74 L429.559 1440.74 L429.559 1440.74  Z
  " fill="#009af9" fill-rule="evenodd" fill-opacity="1"/>
<polyline clip-path="url(#clip892)" style="stroke:#000000; stroke-width:4; stroke-opacity:1; fill:none" points="
  429.559,1440.74 429.559,1445.72 458.177,1445.72 458.177,1440.74 429.559,1440.74 
  "/>
<path clip-path="url(#clip892)" d="
M458.177 1437.43 L458.177 1445.72 L486.795 1445.72 L486.795 1437.43 L458.177 1437.43 L458.177 1437.43  Z
  " fill="#009af9" fill-rule="evenodd" fill-opacity="1"/>
<polyline clip-path="url(#clip892)" style="stroke:#000000; stroke-width:4; stroke-opacity:1; fill:none" points="
  458.177,1437.43 458.177,1445.72 486.795,1445.72 486.795,1437.43 458.177,1437.43 
  "/>
<path clip-path="url(#clip892)" d="
M486.795 1432.45 L486.795 1445.72 L515.413 1445.72 L515.413 1432.45 L486.795 1432.45 L486.795 1432.45  Z
  " fill="#009af9" fill-rule="evenodd" fill-opacity="1"/>
<polyline clip-path="url(#clip892)" style="stroke:#000000; stroke-width:4; stroke-opacity:1; fill:none" points="
  486.795,1432.45 486.795,1445.72 515.413,1445.72 515.413,1432.45 486.795,1432.45 
  "/>
<path clip-path="url(#clip892)" d="
M515.413 1440.74 L515.413 1445.72 L544.031 1445.72 L544.031 1440.74 L515.413 1440.74 L515.413 1440.74  Z
  " fill="#009af9" fill-rule="evenodd" fill-opacity="1"/>
<polyline clip-path="url(#clip892)" style="stroke:#000000; stroke-width:4; stroke-opacity:1; fill:none" points="
  515.413,1440.74 515.413,1445.72 544.031,1445.72 544.031,1440.74 515.413,1440.74 
  "/>
<path clip-path="url(#clip892)" d="
M544.031 1434.11 L544.031 1445.72 L572.649 1445.72 L572.649 1434.11 L544.031 1434.11 L544.031 1434.11  Z
  " fill="#009af9" fill-rule="evenodd" fill-opacity="1"/>
<polyline clip-path="url(#clip892)" style="stroke:#000000; stroke-width:4; stroke-opacity:1; fill:none" points="
  544.031,1434.11 544.031,1445.72 572.649,1445.72 572.649,1434.11 544.031,1434.11 
  "/>
<path clip-path="url(#clip892)" d="
M572.649 1432.45 L572.649 1445.72 L601.267 1445.72 L601.267 1432.45 L572.649 1432.45 L572.649 1432.45  Z
  " fill="#009af9" fill-rule="evenodd" fill-opacity="1"/>
<polyline clip-path="url(#clip892)" style="stroke:#000000; stroke-width:4; stroke-opacity:1; fill:none" points="
  572.649,1432.45 572.649,1445.72 601.267,1445.72 601.267,1432.45 572.649,1432.45 
  "/>
<path clip-path="url(#clip892)" d="
M601.267 1415.88 L601.267 1445.72 L629.885 1445.72 L629.885 1415.88 L601.267 1415.88 L601.267 1415.88  Z
  " fill="#009af9" fill-rule="evenodd" fill-opacity="1"/>
<polyline clip-path="url(#clip892)" style="stroke:#000000; stroke-width:4; stroke-opacity:1; fill:none" points="
  601.267,1415.88 601.267,1445.72 629.885,1445.72 629.885,1415.88 601.267,1415.88 
  "/>
<path clip-path="url(#clip892)" d="
M629.885 1425.82 L629.885 1445.72 L658.503 1445.72 L658.503 1425.82 L629.885 1425.82 L629.885 1425.82  Z
  " fill="#009af9" fill-rule="evenodd" fill-opacity="1"/>
<polyline clip-path="url(#clip892)" style="stroke:#000000; stroke-width:4; stroke-opacity:1; fill:none" points="
  629.885,1425.82 629.885,1445.72 658.503,1445.72 658.503,1425.82 629.885,1425.82 
  "/>
<path clip-path="url(#clip892)" d="
M658.503 1412.56 L658.503 1445.72 L687.121 1445.72 L687.121 1412.56 L658.503 1412.56 L658.503 1412.56  Z
  " fill="#009af9" fill-rule="evenodd" fill-opacity="1"/>
<polyline clip-path="url(#clip892)" style="stroke:#000000; stroke-width:4; stroke-opacity:1; fill:none" points="
  658.503,1412.56 658.503,1445.72 687.121,1445.72 687.121,1412.56 658.503,1412.56 
  "/>
<path clip-path="url(#clip892)" d="
M687.121 1422.51 L687.121 1445.72 L715.739 1445.72 L715.739 1422.51 L687.121 1422.51 L687.121 1422.51  Z
  " fill="#009af9" fill-rule="evenodd" fill-opacity="1"/>
<polyline clip-path="url(#clip892)" style="stroke:#000000; stroke-width:4; stroke-opacity:1; fill:none" points="
  687.121,1422.51 687.121,1445.72 715.739,1445.72 715.739,1422.51 687.121,1422.51 
  "/>
<path clip-path="url(#clip892)" d="
M715.739 1402.61 L715.739 1445.72 L744.357 1445.72 L744.357 1402.61 L715.739 1402.61 L715.739 1402.61  Z
  " fill="#009af9" fill-rule="evenodd" fill-opacity="1"/>
<polyline clip-path="url(#clip892)" style="stroke:#000000; stroke-width:4; stroke-opacity:1; fill:none" points="
  715.739,1402.61 715.739,1445.72 744.357,1445.72 744.357,1402.61 715.739,1402.61 
  "/>
<path clip-path="url(#clip892)" d="
M744.357 1395.98 L744.357 1445.72 L772.975 1445.72 L772.975 1395.98 L744.357 1395.98 L744.357 1395.98  Z
  " fill="#009af9" fill-rule="evenodd" fill-opacity="1"/>
<polyline clip-path="url(#clip892)" style="stroke:#000000; stroke-width:4; stroke-opacity:1; fill:none" points="
  744.357,1395.98 744.357,1445.72 772.975,1445.72 772.975,1395.98 744.357,1395.98 
  "/>
<path clip-path="url(#clip892)" d="
M772.975 1395.98 L772.975 1445.72 L801.593 1445.72 L801.593 1395.98 L772.975 1395.98 L772.975 1395.98  Z
  " fill="#009af9" fill-rule="evenodd" fill-opacity="1"/>
<polyline clip-path="url(#clip892)" style="stroke:#000000; stroke-width:4; stroke-opacity:1; fill:none" points="
  772.975,1395.98 772.975,1445.72 801.593,1445.72 801.593,1395.98 772.975,1395.98 
  "/>
<path clip-path="url(#clip892)" d="
M801.593 1379.4 L801.593 1445.72 L830.211 1445.72 L830.211 1379.4 L801.593 1379.4 L801.593 1379.4  Z
  " fill="#009af9" fill-rule="evenodd" fill-opacity="1"/>
<polyline clip-path="url(#clip892)" style="stroke:#000000; stroke-width:4; stroke-opacity:1; fill:none" points="
  801.593,1379.4 801.593,1445.72 830.211,1445.72 830.211,1379.4 801.593,1379.4 
  "/>
<path clip-path="url(#clip892)" d="
M830.211 1384.38 L830.211 1445.72 L858.829 1445.72 L858.829 1384.38 L830.211 1384.38 L830.211 1384.38  Z
  " fill="#009af9" fill-rule="evenodd" fill-opacity="1"/>
<polyline clip-path="url(#clip892)" style="stroke:#000000; stroke-width:4; stroke-opacity:1; fill:none" points="
  830.211,1384.38 830.211,1445.72 858.829,1445.72 858.829,1384.38 830.211,1384.38 
  "/>
<path clip-path="url(#clip892)" d="
M858.829 1354.54 L858.829 1445.72 L887.447 1445.72 L887.447 1354.54 L858.829 1354.54 L858.829 1354.54  Z
  " fill="#009af9" fill-rule="evenodd" fill-opacity="1"/>
<polyline clip-path="url(#clip892)" style="stroke:#000000; stroke-width:4; stroke-opacity:1; fill:none" points="
  858.829,1354.54 858.829,1445.72 887.447,1445.72 887.447,1354.54 858.829,1354.54 
  "/>
<path clip-path="url(#clip892)" d="
M887.447 1366.14 L887.447 1445.72 L916.064 1445.72 L916.064 1366.14 L887.447 1366.14 L887.447 1366.14  Z
  " fill="#009af9" fill-rule="evenodd" fill-opacity="1"/>
<polyline clip-path="url(#clip892)" style="stroke:#000000; stroke-width:4; stroke-opacity:1; fill:none" points="
  887.447,1366.14 887.447,1445.72 916.064,1445.72 916.064,1366.14 887.447,1366.14 
  "/>
<path clip-path="url(#clip892)" d="
M916.064 1316.41 L916.064 1445.72 L944.682 1445.72 L944.682 1316.41 L916.064 1316.41 L916.064 1316.41  Z
  " fill="#009af9" fill-rule="evenodd" fill-opacity="1"/>
<polyline clip-path="url(#clip892)" style="stroke:#000000; stroke-width:4; stroke-opacity:1; fill:none" points="
  916.064,1316.41 916.064,1445.72 944.682,1445.72 944.682,1316.41 916.064,1316.41 
  "/>
<path clip-path="url(#clip892)" d="
M944.682 1324.7 L944.682 1445.72 L973.3 1445.72 L973.3 1324.7 L944.682 1324.7 L944.682 1324.7  Z
  " fill="#009af9" fill-rule="evenodd" fill-opacity="1"/>
<polyline clip-path="url(#clip892)" style="stroke:#000000; stroke-width:4; stroke-opacity:1; fill:none" points="
  944.682,1324.7 944.682,1445.72 973.3,1445.72 973.3,1324.7 944.682,1324.7 
  "/>
<path clip-path="url(#clip892)" d="
M973.3 1296.51 L973.3 1445.72 L1001.92 1445.72 L1001.92 1296.51 L973.3 1296.51 L973.3 1296.51  Z
  " fill="#009af9" fill-rule="evenodd" fill-opacity="1"/>
<polyline clip-path="url(#clip892)" style="stroke:#000000; stroke-width:4; stroke-opacity:1; fill:none" points="
  973.3,1296.51 973.3,1445.72 1001.92,1445.72 1001.92,1296.51 973.3,1296.51 
  "/>
<path clip-path="url(#clip892)" d="
M1001.92 1281.59 L1001.92 1445.72 L1030.54 1445.72 L1030.54 1281.59 L1001.92 1281.59 L1001.92 1281.59  Z
  " fill="#009af9" fill-rule="evenodd" fill-opacity="1"/>
<polyline clip-path="url(#clip892)" style="stroke:#000000; stroke-width:4; stroke-opacity:1; fill:none" points="
  1001.92,1281.59 1001.92,1445.72 1030.54,1445.72 1030.54,1281.59 1001.92,1281.59 
  "/>
<path clip-path="url(#clip892)" d="
M1030.54 1306.46 L1030.54 1445.72 L1059.15 1445.72 L1059.15 1306.46 L1030.54 1306.46 L1030.54 1306.46  Z
  " fill="#009af9" fill-rule="evenodd" fill-opacity="1"/>
<polyline clip-path="url(#clip892)" style="stroke:#000000; stroke-width:4; stroke-opacity:1; fill:none" points="
  1030.54,1306.46 1030.54,1445.72 1059.15,1445.72 1059.15,1306.46 1030.54,1306.46 
  "/>
<path clip-path="url(#clip892)" d="
M1059.15 1294.86 L1059.15 1445.72 L1087.77 1445.72 L1087.77 1294.86 L1059.15 1294.86 L1059.15 1294.86  Z
  " fill="#009af9" fill-rule="evenodd" fill-opacity="1"/>
<polyline clip-path="url(#clip892)" style="stroke:#000000; stroke-width:4; stroke-opacity:1; fill:none" points="
  1059.15,1294.86 1059.15,1445.72 1087.77,1445.72 1087.77,1294.86 1059.15,1294.86 
  "/>
<path clip-path="url(#clip892)" d="
M1087.77 1263.36 L1087.77 1445.72 L1116.39 1445.72 L1116.39 1263.36 L1087.77 1263.36 L1087.77 1263.36  Z
  " fill="#009af9" fill-rule="evenodd" fill-opacity="1"/>
<polyline clip-path="url(#clip892)" style="stroke:#000000; stroke-width:4; stroke-opacity:1; fill:none" points="
  1087.77,1263.36 1087.77,1445.72 1116.39,1445.72 1116.39,1263.36 1087.77,1263.36 
  "/>
<path clip-path="url(#clip892)" d="
M1116.39 1235.17 L1116.39 1445.72 L1145.01 1445.72 L1145.01 1235.17 L1116.39 1235.17 L1116.39 1235.17  Z
  " fill="#009af9" fill-rule="evenodd" fill-opacity="1"/>
<polyline clip-path="url(#clip892)" style="stroke:#000000; stroke-width:4; stroke-opacity:1; fill:none" points="
  1116.39,1235.17 1116.39,1445.72 1145.01,1445.72 1145.01,1235.17 1116.39,1235.17 
  "/>
<path clip-path="url(#clip892)" d="
M1145.01 1233.52 L1145.01 1445.72 L1173.63 1445.72 L1173.63 1233.52 L1145.01 1233.52 L1145.01 1233.52  Z
  " fill="#009af9" fill-rule="evenodd" fill-opacity="1"/>
<polyline clip-path="url(#clip892)" style="stroke:#000000; stroke-width:4; stroke-opacity:1; fill:none" points="
  1145.01,1233.52 1145.01,1445.72 1173.63,1445.72 1173.63,1233.52 1145.01,1233.52 
  "/>
<path clip-path="url(#clip892)" d="
M1173.63 1274.96 L1173.63 1445.72 L1202.24 1445.72 L1202.24 1274.96 L1173.63 1274.96 L1173.63 1274.96  Z
  " fill="#009af9" fill-rule="evenodd" fill-opacity="1"/>
<polyline clip-path="url(#clip892)" style="stroke:#000000; stroke-width:4; stroke-opacity:1; fill:none" points="
  1173.63,1274.96 1173.63,1445.72 1202.24,1445.72 1202.24,1274.96 1173.63,1274.96 
  "/>
<path clip-path="url(#clip892)" d="
M1202.24 1233.52 L1202.24 1445.72 L1230.86 1445.72 L1230.86 1233.52 L1202.24 1233.52 L1202.24 1233.52  Z
  " fill="#009af9" fill-rule="evenodd" fill-opacity="1"/>
<polyline clip-path="url(#clip892)" style="stroke:#000000; stroke-width:4; stroke-opacity:1; fill:none" points="
  1202.24,1233.52 1202.24,1445.72 1230.86,1445.72 1230.86,1233.52 1202.24,1233.52 
  "/>
<path clip-path="url(#clip892)" d="
M1230.86 1238.49 L1230.86 1445.72 L1259.48 1445.72 L1259.48 1238.49 L1230.86 1238.49 L1230.86 1238.49  Z
  " fill="#009af9" fill-rule="evenodd" fill-opacity="1"/>
<polyline clip-path="url(#clip892)" style="stroke:#000000; stroke-width:4; stroke-opacity:1; fill:none" points="
  1230.86,1238.49 1230.86,1445.72 1259.48,1445.72 1259.48,1238.49 1230.86,1238.49 
  "/>
<path clip-path="url(#clip892)" d="
M1259.48 1248.44 L1259.48 1445.72 L1288.1 1445.72 L1288.1 1248.44 L1259.48 1248.44 L1259.48 1248.44  Z
  " fill="#009af9" fill-rule="evenodd" fill-opacity="1"/>
<polyline clip-path="url(#clip892)" style="stroke:#000000; stroke-width:4; stroke-opacity:1; fill:none" points="
  1259.48,1248.44 1259.48,1445.72 1288.1,1445.72 1288.1,1248.44 1259.48,1248.44 
  "/>
<path clip-path="url(#clip892)" d="
M1288.1 1241.81 L1288.1 1445.72 L1316.72 1445.72 L1316.72 1241.81 L1288.1 1241.81 L1288.1 1241.81  Z
  " fill="#009af9" fill-rule="evenodd" fill-opacity="1"/>
<polyline clip-path="url(#clip892)" style="stroke:#000000; stroke-width:4; stroke-opacity:1; fill:none" points="
  1288.1,1241.81 1288.1,1445.72 1316.72,1445.72 1316.72,1241.81 1288.1,1241.81 
  "/>
<path clip-path="url(#clip892)" d="
M1316.72 822.382 L1316.72 1445.72 L1345.33 1445.72 L1345.33 822.382 L1316.72 822.382 L1316.72 822.382  Z
  " fill="#009af9" fill-rule="evenodd" fill-opacity="1"/>
<polyline clip-path="url(#clip892)" style="stroke:#000000; stroke-width:4; stroke-opacity:1; fill:none" points="
  1316.72,822.382 1316.72,1445.72 1345.33,1445.72 1345.33,822.382 1316.72,822.382 
  "/>
<path clip-path="url(#clip892)" d="
M1345.33 87.9763 L1345.33 1445.72 L1373.95 1445.72 L1373.95 87.9763 L1345.33 87.9763 L1345.33 87.9763  Z
  " fill="#009af9" fill-rule="evenodd" fill-opacity="1"/>
<polyline clip-path="url(#clip892)" style="stroke:#000000; stroke-width:4; stroke-opacity:1; fill:none" points="
  1345.33,87.9763 1345.33,1445.72 1373.95,1445.72 1373.95,87.9763 1345.33,87.9763 
  "/>
<path clip-path="url(#clip892)" d="
M1373.95 126.106 L1373.95 1445.72 L1402.57 1445.72 L1402.57 126.106 L1373.95 126.106 L1373.95 126.106  Z
  " fill="#009af9" fill-rule="evenodd" fill-opacity="1"/>
<polyline clip-path="url(#clip892)" style="stroke:#000000; stroke-width:4; stroke-opacity:1; fill:none" points="
  1373.95,126.106 1373.95,1445.72 1402.57,1445.72 1402.57,126.106 1373.95,126.106 
  "/>
<path clip-path="url(#clip892)" d="
M1402.57 820.725 L1402.57 1445.72 L1431.19 1445.72 L1431.19 820.725 L1402.57 820.725 L1402.57 820.725  Z
  " fill="#009af9" fill-rule="evenodd" fill-opacity="1"/>
<polyline clip-path="url(#clip892)" style="stroke:#000000; stroke-width:4; stroke-opacity:1; fill:none" points="
  1402.57,820.725 1402.57,1445.72 1431.19,1445.72 1431.19,820.725 1402.57,820.725 
  "/>
<path clip-path="url(#clip892)" d="
M1431.19 1218.6 L1431.19 1445.72 L1459.81 1445.72 L1459.81 1218.6 L1431.19 1218.6 L1431.19 1218.6  Z
  " fill="#009af9" fill-rule="evenodd" fill-opacity="1"/>
<polyline clip-path="url(#clip892)" style="stroke:#000000; stroke-width:4; stroke-opacity:1; fill:none" points="
  1431.19,1218.6 1431.19,1445.72 1459.81,1445.72 1459.81,1218.6 1431.19,1218.6 
  "/>
<path clip-path="url(#clip892)" d="
M1459.81 1265.02 L1459.81 1445.72 L1488.42 1445.72 L1488.42 1265.02 L1459.81 1265.02 L1459.81 1265.02  Z
  " fill="#009af9" fill-rule="evenodd" fill-opacity="1"/>
<polyline clip-path="url(#clip892)" style="stroke:#000000; stroke-width:4; stroke-opacity:1; fill:none" points="
  1459.81,1265.02 1459.81,1445.72 1488.42,1445.72 1488.42,1265.02 1459.81,1265.02 
  "/>
<path clip-path="url(#clip892)" d="
M1488.42 1319.72 L1488.42 1445.72 L1517.04 1445.72 L1517.04 1319.72 L1488.42 1319.72 L1488.42 1319.72  Z
  " fill="#009af9" fill-rule="evenodd" fill-opacity="1"/>
<polyline clip-path="url(#clip892)" style="stroke:#000000; stroke-width:4; stroke-opacity:1; fill:none" points="
  1488.42,1319.72 1488.42,1445.72 1517.04,1445.72 1517.04,1319.72 1488.42,1319.72 
  "/>
<path clip-path="url(#clip892)" d="
M1517.04 1309.78 L1517.04 1445.72 L1545.66 1445.72 L1545.66 1309.78 L1517.04 1309.78 L1517.04 1309.78  Z
  " fill="#009af9" fill-rule="evenodd" fill-opacity="1"/>
<polyline clip-path="url(#clip892)" style="stroke:#000000; stroke-width:4; stroke-opacity:1; fill:none" points="
  1517.04,1309.78 1517.04,1445.72 1545.66,1445.72 1545.66,1309.78 1517.04,1309.78 
  "/>
<path clip-path="url(#clip892)" d="
M1545.66 1342.93 L1545.66 1445.72 L1574.28 1445.72 L1574.28 1342.93 L1545.66 1342.93 L1545.66 1342.93  Z
  " fill="#009af9" fill-rule="evenodd" fill-opacity="1"/>
<polyline clip-path="url(#clip892)" style="stroke:#000000; stroke-width:4; stroke-opacity:1; fill:none" points="
  1545.66,1342.93 1545.66,1445.72 1574.28,1445.72 1574.28,1342.93 1545.66,1342.93 
  "/>
<path clip-path="url(#clip892)" d="
M1574.28 1357.85 L1574.28 1445.72 L1602.9 1445.72 L1602.9 1357.85 L1574.28 1357.85 L1574.28 1357.85  Z
  " fill="#009af9" fill-rule="evenodd" fill-opacity="1"/>
<polyline clip-path="url(#clip892)" style="stroke:#000000; stroke-width:4; stroke-opacity:1; fill:none" points="
  1574.28,1357.85 1574.28,1445.72 1602.9,1445.72 1602.9,1357.85 1574.28,1357.85 
  "/>
<path clip-path="url(#clip892)" d="
M1602.9 1357.85 L1602.9 1445.72 L1631.51 1445.72 L1631.51 1357.85 L1602.9 1357.85 L1602.9 1357.85  Z
  " fill="#009af9" fill-rule="evenodd" fill-opacity="1"/>
<polyline clip-path="url(#clip892)" style="stroke:#000000; stroke-width:4; stroke-opacity:1; fill:none" points="
  1602.9,1357.85 1602.9,1445.72 1631.51,1445.72 1631.51,1357.85 1602.9,1357.85 
  "/>
<path clip-path="url(#clip892)" d="
M1631.51 1386.03 L1631.51 1445.72 L1660.13 1445.72 L1660.13 1386.03 L1631.51 1386.03 L1631.51 1386.03  Z
  " fill="#009af9" fill-rule="evenodd" fill-opacity="1"/>
<polyline clip-path="url(#clip892)" style="stroke:#000000; stroke-width:4; stroke-opacity:1; fill:none" points="
  1631.51,1386.03 1631.51,1445.72 1660.13,1445.72 1660.13,1386.03 1631.51,1386.03 
  "/>
<path clip-path="url(#clip892)" d="
M1660.13 1394.32 L1660.13 1445.72 L1688.75 1445.72 L1688.75 1394.32 L1660.13 1394.32 L1660.13 1394.32  Z
  " fill="#009af9" fill-rule="evenodd" fill-opacity="1"/>
<polyline clip-path="url(#clip892)" style="stroke:#000000; stroke-width:4; stroke-opacity:1; fill:none" points="
  1660.13,1394.32 1660.13,1445.72 1688.75,1445.72 1688.75,1394.32 1660.13,1394.32 
  "/>
<path clip-path="url(#clip892)" d="
M1688.75 1399.3 L1688.75 1445.72 L1717.37 1445.72 L1717.37 1399.3 L1688.75 1399.3 L1688.75 1399.3  Z
  " fill="#009af9" fill-rule="evenodd" fill-opacity="1"/>
<polyline clip-path="url(#clip892)" style="stroke:#000000; stroke-width:4; stroke-opacity:1; fill:none" points="
  1688.75,1399.3 1688.75,1445.72 1717.37,1445.72 1717.37,1399.3 1688.75,1399.3 
  "/>
<path clip-path="url(#clip892)" d="
M1717.37 1407.59 L1717.37 1445.72 L1745.99 1445.72 L1745.99 1407.59 L1717.37 1407.59 L1717.37 1407.59  Z
  " fill="#009af9" fill-rule="evenodd" fill-opacity="1"/>
<polyline clip-path="url(#clip892)" style="stroke:#000000; stroke-width:4; stroke-opacity:1; fill:none" points="
  1717.37,1407.59 1717.37,1445.72 1745.99,1445.72 1745.99,1407.59 1717.37,1407.59 
  "/>
<path clip-path="url(#clip892)" d="
M1745.99 1420.85 L1745.99 1445.72 L1774.6 1445.72 L1774.6 1420.85 L1745.99 1420.85 L1745.99 1420.85  Z
  " fill="#009af9" fill-rule="evenodd" fill-opacity="1"/>
<polyline clip-path="url(#clip892)" style="stroke:#000000; stroke-width:4; stroke-opacity:1; fill:none" points="
  1745.99,1420.85 1745.99,1445.72 1774.6,1445.72 1774.6,1420.85 1745.99,1420.85 
  "/>
<path clip-path="url(#clip892)" d="
M1774.6 1400.96 L1774.6 1445.72 L1803.22 1445.72 L1803.22 1400.96 L1774.6 1400.96 L1774.6 1400.96  Z
  " fill="#009af9" fill-rule="evenodd" fill-opacity="1"/>
<polyline clip-path="url(#clip892)" style="stroke:#000000; stroke-width:4; stroke-opacity:1; fill:none" points="
  1774.6,1400.96 1774.6,1445.72 1803.22,1445.72 1803.22,1400.96 1774.6,1400.96 
  "/>
<path clip-path="url(#clip892)" d="
M1803.22 1432.45 L1803.22 1445.72 L1831.84 1445.72 L1831.84 1432.45 L1803.22 1432.45 L1803.22 1432.45  Z
  " fill="#009af9" fill-rule="evenodd" fill-opacity="1"/>
<polyline clip-path="url(#clip892)" style="stroke:#000000; stroke-width:4; stroke-opacity:1; fill:none" points="
  1803.22,1432.45 1803.22,1445.72 1831.84,1445.72 1831.84,1432.45 1803.22,1432.45 
  "/>
<path clip-path="url(#clip892)" d="
M1831.84 1432.45 L1831.84 1445.72 L1860.46 1445.72 L1860.46 1432.45 L1831.84 1432.45 L1831.84 1432.45  Z
  " fill="#009af9" fill-rule="evenodd" fill-opacity="1"/>
<polyline clip-path="url(#clip892)" style="stroke:#000000; stroke-width:4; stroke-opacity:1; fill:none" points="
  1831.84,1432.45 1831.84,1445.72 1860.46,1445.72 1860.46,1432.45 1831.84,1432.45 
  "/>
<path clip-path="url(#clip892)" d="
M1860.46 1437.43 L1860.46 1445.72 L1889.08 1445.72 L1889.08 1437.43 L1860.46 1437.43 L1860.46 1437.43  Z
  " fill="#009af9" fill-rule="evenodd" fill-opacity="1"/>
<polyline clip-path="url(#clip892)" style="stroke:#000000; stroke-width:4; stroke-opacity:1; fill:none" points="
  1860.46,1437.43 1860.46,1445.72 1889.08,1445.72 1889.08,1437.43 1860.46,1437.43 
  "/>
<path clip-path="url(#clip892)" d="
M1889.08 1432.45 L1889.08 1445.72 L1917.69 1445.72 L1917.69 1432.45 L1889.08 1432.45 L1889.08 1432.45  Z
  " fill="#009af9" fill-rule="evenodd" fill-opacity="1"/>
<polyline clip-path="url(#clip892)" style="stroke:#000000; stroke-width:4; stroke-opacity:1; fill:none" points="
  1889.08,1432.45 1889.08,1445.72 1917.69,1445.72 1917.69,1432.45 1889.08,1432.45 
  "/>
<path clip-path="url(#clip892)" d="
M1917.69 1442.4 L1917.69 1445.72 L1946.31 1445.72 L1946.31 1442.4 L1917.69 1442.4 L1917.69 1442.4  Z
  " fill="#009af9" fill-rule="evenodd" fill-opacity="1"/>
<polyline clip-path="url(#clip892)" style="stroke:#000000; stroke-width:4; stroke-opacity:1; fill:none" points="
  1917.69,1442.4 1917.69,1445.72 1946.31,1445.72 1946.31,1442.4 1917.69,1442.4 
  "/>
<path clip-path="url(#clip892)" d="
M1946.31 1440.74 L1946.31 1445.72 L1974.93 1445.72 L1974.93 1440.74 L1946.31 1440.74 L1946.31 1440.74  Z
  " fill="#009af9" fill-rule="evenodd" fill-opacity="1"/>
<polyline clip-path="url(#clip892)" style="stroke:#000000; stroke-width:4; stroke-opacity:1; fill:none" points="
  1946.31,1440.74 1946.31,1445.72 1974.93,1445.72 1974.93,1440.74 1946.31,1440.74 
  "/>
<path clip-path="url(#clip892)" d="
M1974.93 1442.4 L1974.93 1445.72 L2003.55 1445.72 L2003.55 1442.4 L1974.93 1442.4 L1974.93 1442.4  Z
  " fill="#009af9" fill-rule="evenodd" fill-opacity="1"/>
<polyline clip-path="url(#clip892)" style="stroke:#000000; stroke-width:4; stroke-opacity:1; fill:none" points="
  1974.93,1442.4 1974.93,1445.72 2003.55,1445.72 2003.55,1442.4 1974.93,1442.4 
  "/>
<path clip-path="url(#clip892)" d="
M2003.55 1442.4 L2003.55 1445.72 L2032.17 1445.72 L2032.17 1442.4 L2003.55 1442.4 L2003.55 1442.4  Z
  " fill="#009af9" fill-rule="evenodd" fill-opacity="1"/>
<polyline clip-path="url(#clip892)" style="stroke:#000000; stroke-width:4; stroke-opacity:1; fill:none" points="
  2003.55,1442.4 2003.55,1445.72 2032.17,1445.72 2032.17,1442.4 2003.55,1442.4 
  "/>
<path clip-path="url(#clip892)" d="
M2032.17 1440.74 L2032.17 1445.72 L2060.78 1445.72 L2060.78 1440.74 L2032.17 1440.74 L2032.17 1440.74  Z
  " fill="#009af9" fill-rule="evenodd" fill-opacity="1"/>
<polyline clip-path="url(#clip892)" style="stroke:#000000; stroke-width:4; stroke-opacity:1; fill:none" points="
  2032.17,1440.74 2032.17,1445.72 2060.78,1445.72 2060.78,1440.74 2032.17,1440.74 
  "/>
<path clip-path="url(#clip892)" d="
M2060.78 1442.4 L2060.78 1445.72 L2089.4 1445.72 L2089.4 1442.4 L2060.78 1442.4 L2060.78 1442.4  Z
  " fill="#009af9" fill-rule="evenodd" fill-opacity="1"/>
<polyline clip-path="url(#clip892)" style="stroke:#000000; stroke-width:4; stroke-opacity:1; fill:none" points="
  2060.78,1442.4 2060.78,1445.72 2089.4,1445.72 2089.4,1442.4 2060.78,1442.4 
  "/>
<path clip-path="url(#clip892)" d="
M2089.4 1444.06 L2089.4 1445.72 L2118.02 1445.72 L2118.02 1444.06 L2089.4 1444.06 L2089.4 1444.06  Z
  " fill="#009af9" fill-rule="evenodd" fill-opacity="1"/>
<polyline clip-path="url(#clip892)" style="stroke:#000000; stroke-width:4; stroke-opacity:1; fill:none" points="
  2089.4,1444.06 2089.4,1445.72 2118.02,1445.72 2118.02,1444.06 2089.4,1444.06 
  "/>
<path clip-path="url(#clip892)" d="
M2118.02 1442.4 L2118.02 1445.72 L2146.64 1445.72 L2146.64 1442.4 L2118.02 1442.4 L2118.02 1442.4  Z
  " fill="#009af9" fill-rule="evenodd" fill-opacity="1"/>
<polyline clip-path="url(#clip892)" style="stroke:#000000; stroke-width:4; stroke-opacity:1; fill:none" points="
  2118.02,1442.4 2118.02,1445.72 2146.64,1445.72 2146.64,1442.4 2118.02,1442.4 
  "/>
<path clip-path="url(#clip892)" d="
M2146.64 1444.06 L2146.64 1445.72 L2175.26 1445.72 L2175.26 1444.06 L2146.64 1444.06 L2146.64 1444.06  Z
  " fill="#009af9" fill-rule="evenodd" fill-opacity="1"/>
<polyline clip-path="url(#clip892)" style="stroke:#000000; stroke-width:4; stroke-opacity:1; fill:none" points="
  2146.64,1444.06 2146.64,1445.72 2175.26,1445.72 2175.26,1444.06 2146.64,1444.06 
  "/>
<path clip-path="url(#clip892)" d="
M2175.26 1445.72 L2175.26 1445.72 L2203.87 1445.72 L2203.87 1445.72 L2175.26 1445.72 L2175.26 1445.72  Z
  " fill="#009af9" fill-rule="evenodd" fill-opacity="1"/>
<polyline clip-path="url(#clip892)" style="stroke:#000000; stroke-width:4; stroke-opacity:1; fill:none" points="
  2175.26,1445.72 2175.26,1445.72 2203.87,1445.72 2175.26,1445.72 
  "/>
<path clip-path="url(#clip892)" d="
M2203.87 1444.06 L2203.87 1445.72 L2232.49 1445.72 L2232.49 1444.06 L2203.87 1444.06 L2203.87 1444.06  Z
  " fill="#009af9" fill-rule="evenodd" fill-opacity="1"/>
<polyline clip-path="url(#clip892)" style="stroke:#000000; stroke-width:4; stroke-opacity:1; fill:none" points="
  2203.87,1444.06 2203.87,1445.72 2232.49,1445.72 2232.49,1444.06 2203.87,1444.06 
  "/>
<path clip-path="url(#clip890)" d="
M1989.74 251.724 L2280.76 251.724 L2280.76 130.764 L1989.74 130.764  Z
  " fill="#ffffff" fill-rule="evenodd" fill-opacity="1"/>
<polyline clip-path="url(#clip890)" style="stroke:#000000; stroke-width:4; stroke-opacity:1; fill:none" points="
  1989.74,251.724 2280.76,251.724 2280.76,130.764 1989.74,130.764 1989.74,251.724 
  "/>
<path clip-path="url(#clip890)" d="
M2013.74 215.436 L2157.74 215.436 L2157.74 167.052 L2013.74 167.052 L2013.74 215.436  Z
  " fill="#009af9" fill-rule="evenodd" fill-opacity="1"/>
<polyline clip-path="url(#clip890)" style="stroke:#000000; stroke-width:4; stroke-opacity:1; fill:none" points="
  2013.74,215.436 2157.74,215.436 2157.74,167.052 2013.74,167.052 2013.74,215.436 
  "/>
<path clip-path="url(#clip890)" d="M 0 0 M2195.58 210.931 Q2193.77 215.561 2192.06 216.973 Q2190.35 218.385 2187.48 218.385 L2184.08 218.385 L2184.08 214.82 L2186.58 214.82 Q2188.33 214.82 2189.31 213.987 Q2190.28 213.154 2191.46 210.052 L2192.22 208.107 L2181.74 182.598 L2186.25 182.598 L2194.35 202.876 L2202.46 182.598 L2206.97 182.598 L2195.58 210.931 Z" fill="#000000" fill-rule="evenodd" fill-opacity="1" /><path clip-path="url(#clip890)" d="M 0 0 M2212.85 204.589 L2220.49 204.589 L2220.49 178.223 L2212.18 179.89 L2212.18 175.631 L2220.44 173.964 L2225.12 173.964 L2225.12 204.589 L2232.76 204.589 L2232.76 208.524 L2212.85 208.524 L2212.85 204.589 Z" fill="#000000" fill-rule="evenodd" fill-opacity="1" /></svg>
