<?xml version="1.0" encoding="utf-8"?>
<svg xmlns="http://www.w3.org/2000/svg" xmlns:xlink="http://www.w3.org/1999/xlink" width="600" height="400" viewBox="0 0 2400 1600">
<defs>
  <clipPath id="clip900">
    <rect x="0" y="0" width="2400" height="1600"/>
  </clipPath>
</defs>
<path clip-path="url(#clip900)" d="
M0 1600 L2400 1600 L2400 0 L0 0  Z
  " fill="#ffffff" fill-rule="evenodd" fill-opacity="1"/>
<defs>
  <clipPath id="clip901">
    <rect x="480" y="0" width="1681" height="1600"/>
  </clipPath>
</defs>
<path clip-path="url(#clip900)" d="
M166.205 1486.45 L2352.76 1486.45 L2352.76 47.2441 L166.205 47.2441  Z
  " fill="#ffffff" fill-rule="evenodd" fill-opacity="1"/>
<defs>
  <clipPath id="clip902">
    <rect x="166" y="47" width="2188" height="1440"/>
  </clipPath>
</defs>
<polyline clip-path="url(#clip902)" style="stroke:#000000; stroke-width:2; stroke-opacity:0.1; fill:none" points="
  404.41,1486.45 404.41,47.2441 
  "/>
<polyline clip-path="url(#clip902)" style="stroke:#000000; stroke-width:2; stroke-opacity:0.1; fill:none" points="
  699.262,1486.45 699.262,47.2441 
  "/>
<polyline clip-path="url(#clip902)" style="stroke:#000000; stroke-width:2; stroke-opacity:0.1; fill:none" points="
  994.114,1486.45 994.114,47.2441 
  "/>
<polyline clip-path="url(#clip902)" style="stroke:#000000; stroke-width:2; stroke-opacity:0.1; fill:none" points="
  1288.97,1486.45 1288.97,47.2441 
  "/>
<polyline clip-path="url(#clip902)" style="stroke:#000000; stroke-width:2; stroke-opacity:0.1; fill:none" points="
  1583.82,1486.45 1583.82,47.2441 
  "/>
<polyline clip-path="url(#clip902)" style="stroke:#000000; stroke-width:2; stroke-opacity:0.1; fill:none" points="
  1878.67,1486.45 1878.67,47.2441 
  "/>
<polyline clip-path="url(#clip902)" style="stroke:#000000; stroke-width:2; stroke-opacity:0.1; fill:none" points="
  2173.52,1486.45 2173.52,47.2441 
  "/>
<polyline clip-path="url(#clip902)" style="stroke:#000000; stroke-width:2; stroke-opacity:0.1; fill:none" points="
  166.205,1445.72 2352.76,1445.72 
  "/>
<polyline clip-path="url(#clip902)" style="stroke:#000000; stroke-width:2; stroke-opacity:0.1; fill:none" points="
  166.205,1102.42 2352.76,1102.42 
  "/>
<polyline clip-path="url(#clip902)" style="stroke:#000000; stroke-width:2; stroke-opacity:0.1; fill:none" points="
  166.205,759.122 2352.76,759.122 
  "/>
<polyline clip-path="url(#clip902)" style="stroke:#000000; stroke-width:2; stroke-opacity:0.1; fill:none" points="
  166.205,415.825 2352.76,415.825 
  "/>
<polyline clip-path="url(#clip902)" style="stroke:#000000; stroke-width:2; stroke-opacity:0.1; fill:none" points="
  166.205,72.5279 2352.76,72.5279 
  "/>
<polyline clip-path="url(#clip900)" style="stroke:#000000; stroke-width:4; stroke-opacity:1; fill:none" points="
  166.205,1486.45 2352.76,1486.45 
  "/>
<polyline clip-path="url(#clip900)" style="stroke:#000000; stroke-width:4; stroke-opacity:1; fill:none" points="
  166.205,1486.45 166.205,47.2441 
  "/>
<polyline clip-path="url(#clip900)" style="stroke:#000000; stroke-width:4; stroke-opacity:1; fill:none" points="
  404.41,1486.45 404.41,1469.18 
  "/>
<polyline clip-path="url(#clip900)" style="stroke:#000000; stroke-width:4; stroke-opacity:1; fill:none" points="
  699.262,1486.45 699.262,1469.18 
  "/>
<polyline clip-path="url(#clip900)" style="stroke:#000000; stroke-width:4; stroke-opacity:1; fill:none" points="
  994.114,1486.45 994.114,1469.18 
  "/>
<polyline clip-path="url(#clip900)" style="stroke:#000000; stroke-width:4; stroke-opacity:1; fill:none" points="
  1288.97,1486.45 1288.97,1469.18 
  "/>
<polyline clip-path="url(#clip900)" style="stroke:#000000; stroke-width:4; stroke-opacity:1; fill:none" points="
  1583.82,1486.45 1583.82,1469.18 
  "/>
<polyline clip-path="url(#clip900)" style="stroke:#000000; stroke-width:4; stroke-opacity:1; fill:none" points="
  1878.67,1486.45 1878.67,1469.18 
  "/>
<polyline clip-path="url(#clip900)" style="stroke:#000000; stroke-width:4; stroke-opacity:1; fill:none" points="
  2173.52,1486.45 2173.52,1469.18 
  "/>
<polyline clip-path="url(#clip900)" style="stroke:#000000; stroke-width:4; stroke-opacity:1; fill:none" points="
  166.205,1445.72 192.443,1445.72 
  "/>
<polyline clip-path="url(#clip900)" style="stroke:#000000; stroke-width:4; stroke-opacity:1; fill:none" points="
  166.205,1102.42 192.443,1102.42 
  "/>
<polyline clip-path="url(#clip900)" style="stroke:#000000; stroke-width:4; stroke-opacity:1; fill:none" points="
  166.205,759.122 192.443,759.122 
  "/>
<polyline clip-path="url(#clip900)" style="stroke:#000000; stroke-width:4; stroke-opacity:1; fill:none" points="
  166.205,415.825 192.443,415.825 
  "/>
<polyline clip-path="url(#clip900)" style="stroke:#000000; stroke-width:4; stroke-opacity:1; fill:none" points="
  166.205,72.5279 192.443,72.5279 
  "/>
<path clip-path="url(#clip900)" d="M 0 0 M384.583 1525.04 L397.06 1525.04 L397.06 1528.83 L384.583 1528.83 L384.583 1525.04 Z" fill="#000000" fill-rule="evenodd" fill-opacity="1" /><path clip-path="url(#clip900)" d="M 0 0 M412.708 1520.78 Q409.56 1520.78 407.708 1522.93 Q405.88 1525.08 405.88 1528.83 Q405.88 1532.56 407.708 1534.73 Q409.56 1536.89 412.708 1536.89 Q415.856 1536.89 417.685 1534.73 Q419.537 1532.56 419.537 1528.83 Q419.537 1525.08 417.685 1522.93 Q415.856 1520.78 412.708 1520.78 M421.991 1506.12 L421.991 1510.38 Q420.231 1509.55 418.426 1509.11 Q416.643 1508.67 414.884 1508.67 Q410.255 1508.67 407.801 1511.8 Q405.37 1514.92 405.023 1521.24 Q406.389 1519.23 408.449 1518.16 Q410.509 1517.07 412.986 1517.07 Q418.194 1517.07 421.204 1520.24 Q424.236 1523.39 424.236 1528.83 Q424.236 1534.16 421.088 1537.37 Q417.94 1540.59 412.708 1540.59 Q406.713 1540.59 403.542 1536.01 Q400.37 1531.4 400.37 1522.67 Q400.37 1514.48 404.259 1509.62 Q408.148 1504.73 414.699 1504.73 Q416.458 1504.73 418.241 1505.08 Q420.046 1505.43 421.991 1506.12 Z" fill="#000000" fill-rule="evenodd" fill-opacity="1" /><path clip-path="url(#clip900)" d="M 0 0 M679.273 1525.04 L691.75 1525.04 L691.75 1528.83 L679.273 1528.83 L679.273 1525.04 Z" fill="#000000" fill-rule="evenodd" fill-opacity="1" /><path clip-path="url(#clip900)" d="M 0 0 M709.667 1509.43 L697.861 1527.88 L709.667 1527.88 L709.667 1509.43 M708.44 1505.36 L714.319 1505.36 L714.319 1527.88 L719.25 1527.88 L719.25 1531.77 L714.319 1531.77 L714.319 1539.92 L709.667 1539.92 L709.667 1531.77 L694.065 1531.77 L694.065 1527.26 L708.44 1505.36 Z" fill="#000000" fill-rule="evenodd" fill-opacity="1" /><path clip-path="url(#clip900)" d="M 0 0 M975.167 1525.04 L987.644 1525.04 L987.644 1528.83 L975.167 1528.83 L975.167 1525.04 Z" fill="#000000" fill-rule="evenodd" fill-opacity="1" /><path clip-path="url(#clip900)" d="M 0 0 M996.741 1535.98 L1013.06 1535.98 L1013.06 1539.92 L991.116 1539.92 L991.116 1535.98 Q993.778 1533.23 998.361 1528.6 Q1002.97 1523.95 1004.15 1522.61 Q1006.39 1520.08 1007.27 1518.35 Q1008.18 1516.59 1008.18 1514.9 Q1008.18 1512.14 1006.23 1510.41 Q1004.31 1508.67 1001.21 1508.67 Q999.009 1508.67 996.556 1509.43 Q994.125 1510.2 991.347 1511.75 L991.347 1507.03 Q994.171 1505.89 996.625 1505.31 Q999.079 1504.73 1001.12 1504.73 Q1006.49 1504.73 1009.68 1507.42 Q1012.88 1510.11 1012.88 1514.6 Q1012.88 1516.73 1012.06 1518.65 Q1011.28 1520.54 1009.17 1523.14 Q1008.59 1523.81 1005.49 1527.03 Q1002.39 1530.22 996.741 1535.98 Z" fill="#000000" fill-rule="evenodd" fill-opacity="1" /><path clip-path="url(#clip900)" d="M 0 0 M1288.97 1508.44 Q1285.35 1508.44 1283.53 1512 Q1281.72 1515.55 1281.72 1522.67 Q1281.72 1529.78 1283.53 1533.35 Q1285.35 1536.89 1288.97 1536.89 Q1292.6 1536.89 1294.41 1533.35 Q1296.23 1529.78 1296.23 1522.67 Q1296.23 1515.55 1294.41 1512 Q1292.6 1508.44 1288.97 1508.44 M1288.97 1504.73 Q1294.78 1504.73 1297.83 1509.34 Q1300.91 1513.92 1300.91 1522.67 Q1300.91 1531.4 1297.83 1536.01 Q1294.78 1540.59 1288.97 1540.59 Q1283.16 1540.59 1280.08 1536.01 Q1277.02 1531.4 1277.02 1522.67 Q1277.02 1513.92 1280.08 1509.34 Q1283.16 1504.73 1288.97 1504.73 Z" fill="#000000" fill-rule="evenodd" fill-opacity="1" /><path clip-path="url(#clip900)" d="M 0 0 M1578.47 1535.98 L1594.79 1535.98 L1594.79 1539.92 L1572.85 1539.92 L1572.85 1535.98 Q1575.51 1533.23 1580.09 1528.6 Q1584.7 1523.95 1585.88 1522.61 Q1588.12 1520.08 1589 1518.35 Q1589.91 1516.59 1589.91 1514.9 Q1589.91 1512.14 1587.96 1510.41 Q1586.04 1508.67 1582.94 1508.67 Q1580.74 1508.67 1578.29 1509.43 Q1575.85 1510.2 1573.08 1511.75 L1573.08 1507.03 Q1575.9 1505.89 1578.35 1505.31 Q1580.81 1504.73 1582.85 1504.73 Q1588.22 1504.73 1591.41 1507.42 Q1594.6 1510.11 1594.6 1514.6 Q1594.6 1516.73 1593.79 1518.65 Q1593.01 1520.54 1590.9 1523.14 Q1590.32 1523.81 1587.22 1527.03 Q1584.12 1530.22 1578.47 1535.98 Z" fill="#000000" fill-rule="evenodd" fill-opacity="1" /><path clip-path="url(#clip900)" d="M 0 0 M1881.68 1509.43 L1869.87 1527.88 L1881.68 1527.88 L1881.68 1509.43 M1880.45 1505.36 L1886.33 1505.36 L1886.33 1527.88 L1891.26 1527.88 L1891.26 1531.77 L1886.33 1531.77 L1886.33 1539.92 L1881.68 1539.92 L1881.68 1531.77 L1866.08 1531.77 L1866.08 1527.26 L1880.45 1505.36 Z" fill="#000000" fill-rule="evenodd" fill-opacity="1" /><path clip-path="url(#clip900)" d="M 0 0 M2173.93 1520.78 Q2170.78 1520.78 2168.93 1522.93 Q2167.1 1525.08 2167.1 1528.83 Q2167.1 1532.56 2168.93 1534.73 Q2170.78 1536.89 2173.93 1536.89 Q2177.07 1536.89 2178.9 1534.73 Q2180.76 1532.56 2180.76 1528.83 Q2180.76 1525.08 2178.9 1522.93 Q2177.07 1520.78 2173.93 1520.78 M2183.21 1506.12 L2183.21 1510.38 Q2181.45 1509.55 2179.64 1509.11 Q2177.86 1508.67 2176.1 1508.67 Q2171.47 1508.67 2169.02 1511.8 Q2166.59 1514.92 2166.24 1521.24 Q2167.61 1519.23 2169.67 1518.16 Q2171.73 1517.07 2174.2 1517.07 Q2179.41 1517.07 2182.42 1520.24 Q2185.45 1523.39 2185.45 1528.83 Q2185.45 1534.16 2182.31 1537.37 Q2179.16 1540.59 2173.93 1540.59 Q2167.93 1540.59 2164.76 1536.01 Q2161.59 1531.4 2161.59 1522.67 Q2161.59 1514.48 2165.48 1509.62 Q2169.37 1504.73 2175.92 1504.73 Q2177.68 1504.73 2179.46 1505.08 Q2181.26 1505.43 2183.21 1506.12 Z" fill="#000000" fill-rule="evenodd" fill-opacity="1" /><path clip-path="url(#clip900)" d="M 0 0 M130.26 1431.51 Q126.649 1431.51 124.82 1435.08 Q123.015 1438.62 123.015 1445.75 Q123.015 1452.86 124.82 1456.42 Q126.649 1459.96 130.26 1459.96 Q133.895 1459.96 135.7 1456.42 Q137.529 1452.86 137.529 1445.75 Q137.529 1438.62 135.7 1435.08 Q133.895 1431.51 130.26 1431.51 M130.26 1427.81 Q136.07 1427.81 139.126 1432.42 Q142.205 1437 142.205 1445.75 Q142.205 1454.48 139.126 1459.08 Q136.07 1463.67 130.26 1463.67 Q124.45 1463.67 121.371 1459.08 Q118.316 1454.48 118.316 1445.75 Q118.316 1437 121.371 1432.42 Q124.45 1427.81 130.26 1427.81 Z" fill="#000000" fill-rule="evenodd" fill-opacity="1" /><path clip-path="url(#clip900)" d="M 0 0 M71.8578 1115.76 L88.1772 1115.76 L88.1772 1119.7 L66.2328 1119.7 L66.2328 1115.76 Q68.8949 1113.01 73.4782 1108.38 Q78.0846 1103.73 79.2652 1102.38 Q81.5105 1099.86 82.3902 1098.12 Q83.2929 1096.37 83.2929 1094.68 Q83.2929 1091.92 81.3485 1090.19 Q79.4272 1088.45 76.3254 1088.45 Q74.1263 1088.45 71.6726 1089.21 Q69.2421 1089.98 66.4643 1091.53 L66.4643 1086.81 Q69.2884 1085.67 71.7421 1085.09 Q74.1958 1084.51 76.2328 1084.51 Q81.6031 1084.51 84.7976 1087.2 Q87.992 1089.88 87.992 1094.37 Q87.992 1096.5 87.1818 1098.43 Q86.3948 1100.32 84.2883 1102.92 Q83.7096 1103.59 80.6078 1106.81 Q77.5059 1110 71.8578 1115.76 Z" fill="#000000" fill-rule="evenodd" fill-opacity="1" /><path clip-path="url(#clip900)" d="M 0 0 M103.247 1088.22 Q99.6354 1088.22 97.8068 1091.78 Q96.0012 1095.32 96.0012 1102.45 Q96.0012 1109.56 97.8068 1113.12 Q99.6354 1116.67 103.247 1116.67 Q106.881 1116.67 108.686 1113.12 Q110.515 1109.56 110.515 1102.45 Q110.515 1095.32 108.686 1091.78 Q106.881 1088.22 103.247 1088.22 M103.247 1084.51 Q109.057 1084.51 112.112 1089.12 Q115.191 1093.7 115.191 1102.45 Q115.191 1111.18 112.112 1115.79 Q109.057 1120.37 103.247 1120.37 Q97.4364 1120.37 94.3577 1115.79 Q91.3022 1111.18 91.3022 1102.45 Q91.3022 1093.7 94.3577 1089.12 Q97.4364 1084.51 103.247 1084.51 Z" fill="#000000" fill-rule="evenodd" fill-opacity="1" /><path clip-path="url(#clip900)" d="M 0 0 M130.26 1088.22 Q126.649 1088.22 124.82 1091.78 Q123.015 1095.32 123.015 1102.45 Q123.015 1109.56 124.82 1113.12 Q126.649 1116.67 130.26 1116.67 Q133.895 1116.67 135.7 1113.12 Q137.529 1109.56 137.529 1102.45 Q137.529 1095.32 135.7 1091.78 Q133.895 1088.22 130.26 1088.22 M130.26 1084.51 Q136.07 1084.51 139.126 1089.12 Q142.205 1093.7 142.205 1102.45 Q142.205 1111.18 139.126 1115.79 Q136.07 1120.37 130.26 1120.37 Q124.45 1120.37 121.371 1115.79 Q118.316 1111.18 118.316 1102.45 Q118.316 1093.7 121.371 1089.12 Q124.45 1084.51 130.26 1084.51 Z" fill="#000000" fill-rule="evenodd" fill-opacity="1" /><path clip-path="url(#clip900)" d="M 0 0 M78.5939 745.916 L66.7884 764.365 L78.5939 764.365 L78.5939 745.916 M77.367 741.842 L83.2466 741.842 L83.2466 764.365 L88.1772 764.365 L88.1772 768.254 L83.2466 768.254 L83.2466 776.402 L78.5939 776.402 L78.5939 768.254 L62.9921 768.254 L62.9921 763.74 L77.367 741.842 Z" fill="#000000" fill-rule="evenodd" fill-opacity="1" /><path clip-path="url(#clip900)" d="M 0 0 M103.247 744.92 Q99.6354 744.92 97.8068 748.485 Q96.0012 752.027 96.0012 759.157 Q96.0012 766.263 97.8068 769.828 Q99.6354 773.369 103.247 773.369 Q106.881 773.369 108.686 769.828 Q110.515 766.263 110.515 759.157 Q110.515 752.027 108.686 748.485 Q106.881 744.92 103.247 744.92 M103.247 741.217 Q109.057 741.217 112.112 745.823 Q115.191 750.407 115.191 759.157 Q115.191 767.883 112.112 772.49 Q109.057 777.073 103.247 777.073 Q97.4364 777.073 94.3577 772.49 Q91.3022 767.883 91.3022 759.157 Q91.3022 750.407 94.3577 745.823 Q97.4364 741.217 103.247 741.217 Z" fill="#000000" fill-rule="evenodd" fill-opacity="1" /><path clip-path="url(#clip900)" d="M 0 0 M130.26 744.92 Q126.649 744.92 124.82 748.485 Q123.015 752.027 123.015 759.157 Q123.015 766.263 124.82 769.828 Q126.649 773.369 130.26 773.369 Q133.895 773.369 135.7 769.828 Q137.529 766.263 137.529 759.157 Q137.529 752.027 135.7 748.485 Q133.895 744.92 130.26 744.92 M130.26 741.217 Q136.07 741.217 139.126 745.823 Q142.205 750.407 142.205 759.157 Q142.205 767.883 139.126 772.49 Q136.07 777.073 130.26 777.073 Q124.45 777.073 121.371 772.49 Q118.316 767.883 118.316 759.157 Q118.316 750.407 121.371 745.823 Q124.45 741.217 130.26 741.217 Z" fill="#000000" fill-rule="evenodd" fill-opacity="1" /><path clip-path="url(#clip900)" d="M 0 0 M76.6495 413.961 Q73.5013 413.961 71.6495 416.114 Q69.8208 418.267 69.8208 422.017 Q69.8208 425.744 71.6495 427.92 Q73.5013 430.072 76.6495 430.072 Q79.7976 430.072 81.6263 427.92 Q83.4781 425.744 83.4781 422.017 Q83.4781 418.267 81.6263 416.114 Q79.7976 413.961 76.6495 413.961 M85.9318 399.309 L85.9318 403.568 Q84.1726 402.735 82.367 402.295 Q80.5846 401.855 78.8254 401.855 Q74.1958 401.855 71.7421 404.98 Q69.3115 408.105 68.9643 414.424 Q70.33 412.411 72.3902 411.346 Q74.4504 410.258 76.9272 410.258 Q82.1355 410.258 85.1448 413.429 Q88.1772 416.577 88.1772 422.017 Q88.1772 427.341 85.029 430.559 Q81.8809 433.776 76.6495 433.776 Q70.6541 433.776 67.4828 429.193 Q64.3116 424.586 64.3116 415.86 Q64.3116 407.665 68.2004 402.804 Q72.0893 397.92 78.6402 397.92 Q80.3994 397.92 82.1818 398.267 Q83.9874 398.614 85.9318 399.309 Z" fill="#000000" fill-rule="evenodd" fill-opacity="1" /><path clip-path="url(#clip900)" d="M 0 0 M103.247 401.624 Q99.6354 401.624 97.8068 405.188 Q96.0012 408.73 96.0012 415.86 Q96.0012 422.966 97.8068 426.531 Q99.6354 430.072 103.247 430.072 Q106.881 430.072 108.686 426.531 Q110.515 422.966 110.515 415.86 Q110.515 408.73 108.686 405.188 Q106.881 401.624 103.247 401.624 M103.247 397.92 Q109.057 397.92 112.112 402.526 Q115.191 407.11 115.191 415.86 Q115.191 424.586 112.112 429.193 Q109.057 433.776 103.247 433.776 Q97.4364 433.776 94.3577 429.193 Q91.3022 424.586 91.3022 415.86 Q91.3022 407.11 94.3577 402.526 Q97.4364 397.92 103.247 397.92 Z" fill="#000000" fill-rule="evenodd" fill-opacity="1" /><path clip-path="url(#clip900)" d="M 0 0 M130.26 401.624 Q126.649 401.624 124.82 405.188 Q123.015 408.73 123.015 415.86 Q123.015 422.966 124.82 426.531 Q126.649 430.072 130.26 430.072 Q133.895 430.072 135.7 426.531 Q137.529 422.966 137.529 415.86 Q137.529 408.73 135.7 405.188 Q133.895 401.624 130.26 401.624 M130.26 397.92 Q136.07 397.92 139.126 402.526 Q142.205 407.11 142.205 415.86 Q142.205 424.586 139.126 429.193 Q136.07 433.776 130.26 433.776 Q124.45 433.776 121.371 429.193 Q118.316 424.586 118.316 415.86 Q118.316 407.11 121.371 402.526 Q124.45 397.92 130.26 397.92 Z" fill="#000000" fill-rule="evenodd" fill-opacity="1" /><path clip-path="url(#clip900)" d="M 0 0 M76.3254 73.396 Q72.9921 73.396 71.0708 75.1784 Q69.1726 76.9608 69.1726 80.0857 Q69.1726 83.2107 71.0708 84.9931 Q72.9921 86.7755 76.3254 86.7755 Q79.6587 86.7755 81.58 84.9931 Q83.5013 83.1876 83.5013 80.0857 Q83.5013 76.9608 81.58 75.1784 Q79.6819 73.396 76.3254 73.396 M71.6495 71.4052 Q68.6402 70.6645 66.9504 68.6043 Q65.2838 66.5442 65.2838 63.5812 Q65.2838 59.4377 68.2236 57.0303 Q71.1865 54.6229 76.3254 54.6229 Q81.4874 54.6229 84.4272 57.0303 Q87.367 59.4377 87.367 63.5812 Q87.367 66.5442 85.6772 68.6043 Q84.0105 70.6645 81.0244 71.4052 Q84.404 72.1923 86.279 74.4839 Q88.1772 76.7756 88.1772 80.0857 Q88.1772 85.1089 85.0985 87.794 Q82.0429 90.4792 76.3254 90.4792 Q70.6078 90.4792 67.5291 87.794 Q64.4736 85.1089 64.4736 80.0857 Q64.4736 76.7756 66.3717 74.4839 Q68.2699 72.1923 71.6495 71.4052 M69.9365 64.021 Q69.9365 66.7062 71.6032 68.2108 Q73.293 69.7154 76.3254 69.7154 Q79.3346 69.7154 81.0244 68.2108 Q82.7374 66.7062 82.7374 64.021 Q82.7374 61.3358 81.0244 59.8312 Q79.3346 58.3266 76.3254 58.3266 Q73.293 58.3266 71.6032 59.8312 Q69.9365 61.3358 69.9365 64.021 Z" fill="#000000" fill-rule="evenodd" fill-opacity="1" /><path clip-path="url(#clip900)" d="M 0 0 M103.247 58.3266 Q99.6354 58.3266 97.8068 61.8914 Q96.0012 65.433 96.0012 72.5626 Q96.0012 79.6691 97.8068 83.2339 Q99.6354 86.7755 103.247 86.7755 Q106.881 86.7755 108.686 83.2339 Q110.515 79.6691 110.515 72.5626 Q110.515 65.433 108.686 61.8914 Q106.881 58.3266 103.247 58.3266 M103.247 54.6229 Q109.057 54.6229 112.112 59.2294 Q115.191 63.8127 115.191 72.5626 Q115.191 81.2894 112.112 85.8959 Q109.057 90.4792 103.247 90.4792 Q97.4364 90.4792 94.3577 85.8959 Q91.3022 81.2894 91.3022 72.5626 Q91.3022 63.8127 94.3577 59.2294 Q97.4364 54.6229 103.247 54.6229 Z" fill="#000000" fill-rule="evenodd" fill-opacity="1" /><path clip-path="url(#clip900)" d="M 0 0 M130.26 58.3266 Q126.649 58.3266 124.82 61.8914 Q123.015 65.433 123.015 72.5626 Q123.015 79.6691 124.82 83.2339 Q126.649 86.7755 130.26 86.7755 Q133.895 86.7755 135.7 83.2339 Q137.529 79.6691 137.529 72.5626 Q137.529 65.433 135.7 61.8914 Q133.895 58.3266 130.26 58.3266 M130.26 54.6229 Q136.07 54.6229 139.126 59.2294 Q142.205 63.8127 142.205 72.5626 Q142.205 81.2894 139.126 85.8959 Q136.07 90.4792 130.26 90.4792 Q124.45 90.4792 121.371 85.8959 Q118.316 81.2894 118.316 72.5626 Q118.316 63.8127 121.371 59.2294 Q124.45 54.6229 130.26 54.6229 Z" fill="#000000" fill-rule="evenodd" fill-opacity="1" /><path clip-path="url(#clip902)" d="
M286.469 1442.28 L286.469 1445.72 L315.954 1445.72 L315.954 1442.28 L286.469 1442.28 L286.469 1442.28  Z
  " fill="#009af9" fill-rule="evenodd" fill-opacity="1"/>
<polyline clip-path="url(#clip902)" style="stroke:#000000; stroke-width:4; stroke-opacity:1; fill:none" points="
  286.469,1442.28 286.469,1445.72 315.954,1445.72 315.954,1442.28 286.469,1442.28 
  "/>
<path clip-path="url(#clip902)" d="
M315.954 1445.72 L315.954 1445.72 L345.439 1445.72 L345.439 1445.72 L315.954 1445.72 L315.954 1445.72  Z
  " fill="#009af9" fill-rule="evenodd" fill-opacity="1"/>
<polyline clip-path="url(#clip902)" style="stroke:#000000; stroke-width:4; stroke-opacity:1; fill:none" points="
  315.954,1445.72 315.954,1445.72 345.439,1445.72 315.954,1445.72 
  "/>
<path clip-path="url(#clip902)" d="
M345.439 1444 L345.439 1445.72 L374.924 1445.72 L374.924 1444 L345.439 1444 L345.439 1444  Z
  " fill="#009af9" fill-rule="evenodd" fill-opacity="1"/>
<polyline clip-path="url(#clip902)" style="stroke:#000000; stroke-width:4; stroke-opacity:1; fill:none" points="
  345.439,1444 345.439,1445.72 374.924,1445.72 374.924,1444 345.439,1444 
  "/>
<path clip-path="url(#clip902)" d="
M374.924 1445.72 L374.924 1445.72 L404.41 1445.72 L404.41 1445.72 L374.924 1445.72 L374.924 1445.72  Z
  " fill="#009af9" fill-rule="evenodd" fill-opacity="1"/>
<polyline clip-path="url(#clip902)" style="stroke:#000000; stroke-width:4; stroke-opacity:1; fill:none" points="
  374.924,1445.72 374.924,1445.72 404.41,1445.72 374.924,1445.72 
  "/>
<path clip-path="url(#clip902)" d="
M404.41 1445.72 L404.41 1445.72 L433.895 1445.72 L433.895 1445.72 L404.41 1445.72 L404.41 1445.72  Z
  " fill="#009af9" fill-rule="evenodd" fill-opacity="1"/>
<polyline clip-path="url(#clip902)" style="stroke:#000000; stroke-width:4; stroke-opacity:1; fill:none" points="
  404.41,1445.72 404.41,1445.72 433.895,1445.72 404.41,1445.72 
  "/>
<path clip-path="url(#clip902)" d="
M433.895 1440.57 L433.895 1445.72 L463.38 1445.72 L463.38 1440.57 L433.895 1440.57 L433.895 1440.57  Z
  " fill="#009af9" fill-rule="evenodd" fill-opacity="1"/>
<polyline clip-path="url(#clip902)" style="stroke:#000000; stroke-width:4; stroke-opacity:1; fill:none" points="
  433.895,1440.57 433.895,1445.72 463.38,1445.72 463.38,1440.57 433.895,1440.57 
  "/>
<path clip-path="url(#clip902)" d="
M463.38 1445.72 L463.38 1445.72 L492.865 1445.72 L492.865 1445.72 L463.38 1445.72 L463.38 1445.72  Z
  " fill="#009af9" fill-rule="evenodd" fill-opacity="1"/>
<polyline clip-path="url(#clip902)" style="stroke:#000000; stroke-width:4; stroke-opacity:1; fill:none" points="
  463.38,1445.72 463.38,1445.72 492.865,1445.72 463.38,1445.72 
  "/>
<path clip-path="url(#clip902)" d="
M492.865 1440.57 L492.865 1445.72 L522.35 1445.72 L522.35 1440.57 L492.865 1440.57 L492.865 1440.57  Z
  " fill="#009af9" fill-rule="evenodd" fill-opacity="1"/>
<polyline clip-path="url(#clip902)" style="stroke:#000000; stroke-width:4; stroke-opacity:1; fill:none" points="
  492.865,1440.57 492.865,1445.72 522.35,1445.72 522.35,1440.57 492.865,1440.57 
  "/>
<path clip-path="url(#clip902)" d="
M522.35 1437.13 L522.35 1445.72 L551.836 1445.72 L551.836 1437.13 L522.35 1437.13 L522.35 1437.13  Z
  " fill="#009af9" fill-rule="evenodd" fill-opacity="1"/>
<polyline clip-path="url(#clip902)" style="stroke:#000000; stroke-width:4; stroke-opacity:1; fill:none" points="
  522.35,1437.13 522.35,1445.72 551.836,1445.72 551.836,1437.13 522.35,1437.13 
  "/>
<path clip-path="url(#clip902)" d="
M551.836 1433.7 L551.836 1445.72 L581.321 1445.72 L581.321 1433.7 L551.836 1433.7 L551.836 1433.7  Z
  " fill="#009af9" fill-rule="evenodd" fill-opacity="1"/>
<polyline clip-path="url(#clip902)" style="stroke:#000000; stroke-width:4; stroke-opacity:1; fill:none" points="
  551.836,1433.7 551.836,1445.72 581.321,1445.72 581.321,1433.7 551.836,1433.7 
  "/>
<path clip-path="url(#clip902)" d="
M581.321 1435.42 L581.321 1445.72 L610.806 1445.72 L610.806 1435.42 L581.321 1435.42 L581.321 1435.42  Z
  " fill="#009af9" fill-rule="evenodd" fill-opacity="1"/>
<polyline clip-path="url(#clip902)" style="stroke:#000000; stroke-width:4; stroke-opacity:1; fill:none" points="
  581.321,1435.42 581.321,1445.72 610.806,1445.72 610.806,1435.42 581.321,1435.42 
  "/>
<path clip-path="url(#clip902)" d="
M610.806 1428.55 L610.806 1445.72 L640.291 1445.72 L640.291 1428.55 L610.806 1428.55 L610.806 1428.55  Z
  " fill="#009af9" fill-rule="evenodd" fill-opacity="1"/>
<polyline clip-path="url(#clip902)" style="stroke:#000000; stroke-width:4; stroke-opacity:1; fill:none" points="
  610.806,1428.55 610.806,1445.72 640.291,1445.72 640.291,1428.55 610.806,1428.55 
  "/>
<path clip-path="url(#clip902)" d="
M640.291 1425.12 L640.291 1445.72 L669.776 1445.72 L669.776 1425.12 L640.291 1425.12 L640.291 1425.12  Z
  " fill="#009af9" fill-rule="evenodd" fill-opacity="1"/>
<polyline clip-path="url(#clip902)" style="stroke:#000000; stroke-width:4; stroke-opacity:1; fill:none" points="
  640.291,1425.12 640.291,1445.72 669.776,1445.72 669.776,1425.12 640.291,1425.12 
  "/>
<path clip-path="url(#clip902)" d="
M669.776 1416.54 L669.776 1445.72 L699.262 1445.72 L699.262 1416.54 L669.776 1416.54 L669.776 1416.54  Z
  " fill="#009af9" fill-rule="evenodd" fill-opacity="1"/>
<polyline clip-path="url(#clip902)" style="stroke:#000000; stroke-width:4; stroke-opacity:1; fill:none" points="
  669.776,1416.54 669.776,1445.72 699.262,1445.72 699.262,1416.54 669.776,1416.54 
  "/>
<path clip-path="url(#clip902)" d="
M699.262 1419.97 L699.262 1445.72 L728.747 1445.72 L728.747 1419.97 L699.262 1419.97 L699.262 1419.97  Z
  " fill="#009af9" fill-rule="evenodd" fill-opacity="1"/>
<polyline clip-path="url(#clip902)" style="stroke:#000000; stroke-width:4; stroke-opacity:1; fill:none" points="
  699.262,1419.97 699.262,1445.72 728.747,1445.72 728.747,1419.97 699.262,1419.97 
  "/>
<path clip-path="url(#clip902)" d="
M728.747 1421.68 L728.747 1445.72 L758.232 1445.72 L758.232 1421.68 L728.747 1421.68 L728.747 1421.68  Z
  " fill="#009af9" fill-rule="evenodd" fill-opacity="1"/>
<polyline clip-path="url(#clip902)" style="stroke:#000000; stroke-width:4; stroke-opacity:1; fill:none" points="
  728.747,1421.68 728.747,1445.72 758.232,1445.72 758.232,1421.68 728.747,1421.68 
  "/>
<path clip-path="url(#clip902)" d="
M758.232 1404.52 L758.232 1445.72 L787.717 1445.72 L787.717 1404.52 L758.232 1404.52 L758.232 1404.52  Z
  " fill="#009af9" fill-rule="evenodd" fill-opacity="1"/>
<polyline clip-path="url(#clip902)" style="stroke:#000000; stroke-width:4; stroke-opacity:1; fill:none" points="
  758.232,1404.52 758.232,1445.72 787.717,1445.72 787.717,1404.52 758.232,1404.52 
  "/>
<path clip-path="url(#clip902)" d="
M787.717 1402.8 L787.717 1445.72 L817.202 1445.72 L817.202 1402.8 L787.717 1402.8 L787.717 1402.8  Z
  " fill="#009af9" fill-rule="evenodd" fill-opacity="1"/>
<polyline clip-path="url(#clip902)" style="stroke:#000000; stroke-width:4; stroke-opacity:1; fill:none" points="
  787.717,1402.8 787.717,1445.72 817.202,1445.72 817.202,1402.8 787.717,1402.8 
  "/>
<path clip-path="url(#clip902)" d="
M817.202 1395.94 L817.202 1445.72 L846.688 1445.72 L846.688 1395.94 L817.202 1395.94 L817.202 1395.94  Z
  " fill="#009af9" fill-rule="evenodd" fill-opacity="1"/>
<polyline clip-path="url(#clip902)" style="stroke:#000000; stroke-width:4; stroke-opacity:1; fill:none" points="
  817.202,1395.94 817.202,1445.72 846.688,1445.72 846.688,1395.94 817.202,1395.94 
  "/>
<path clip-path="url(#clip902)" d="
M846.688 1375.34 L846.688 1445.72 L876.173 1445.72 L876.173 1375.34 L846.688 1375.34 L846.688 1375.34  Z
  " fill="#009af9" fill-rule="evenodd" fill-opacity="1"/>
<polyline clip-path="url(#clip902)" style="stroke:#000000; stroke-width:4; stroke-opacity:1; fill:none" points="
  846.688,1375.34 846.688,1445.72 876.173,1445.72 876.173,1375.34 846.688,1375.34 
  "/>
<path clip-path="url(#clip902)" d="
M876.173 1358.17 L876.173 1445.72 L905.658 1445.72 L905.658 1358.17 L876.173 1358.17 L876.173 1358.17  Z
  " fill="#009af9" fill-rule="evenodd" fill-opacity="1"/>
<polyline clip-path="url(#clip902)" style="stroke:#000000; stroke-width:4; stroke-opacity:1; fill:none" points="
  876.173,1358.17 876.173,1445.72 905.658,1445.72 905.658,1358.17 876.173,1358.17 
  "/>
<path clip-path="url(#clip902)" d="
M905.658 1337.58 L905.658 1445.72 L935.143 1445.72 L935.143 1337.58 L905.658 1337.58 L905.658 1337.58  Z
  " fill="#009af9" fill-rule="evenodd" fill-opacity="1"/>
<polyline clip-path="url(#clip902)" style="stroke:#000000; stroke-width:4; stroke-opacity:1; fill:none" points="
  905.658,1337.58 905.658,1445.72 935.143,1445.72 935.143,1337.58 905.658,1337.58 
  "/>
<path clip-path="url(#clip902)" d="
M935.143 1320.41 L935.143 1445.72 L964.628 1445.72 L964.628 1320.41 L935.143 1320.41 L935.143 1320.41  Z
  " fill="#009af9" fill-rule="evenodd" fill-opacity="1"/>
<polyline clip-path="url(#clip902)" style="stroke:#000000; stroke-width:4; stroke-opacity:1; fill:none" points="
  935.143,1320.41 935.143,1445.72 964.628,1445.72 964.628,1320.41 935.143,1320.41 
  "/>
<path clip-path="url(#clip902)" d="
M964.628 1316.98 L964.628 1445.72 L994.114 1445.72 L994.114 1316.98 L964.628 1316.98 L964.628 1316.98  Z
  " fill="#009af9" fill-rule="evenodd" fill-opacity="1"/>
<polyline clip-path="url(#clip902)" style="stroke:#000000; stroke-width:4; stroke-opacity:1; fill:none" points="
  964.628,1316.98 964.628,1445.72 994.114,1445.72 994.114,1316.98 964.628,1316.98 
  "/>
<path clip-path="url(#clip902)" d="
M994.114 1304.96 L994.114 1445.72 L1023.6 1445.72 L1023.6 1304.96 L994.114 1304.96 L994.114 1304.96  Z
  " fill="#009af9" fill-rule="evenodd" fill-opacity="1"/>
<polyline clip-path="url(#clip902)" style="stroke:#000000; stroke-width:4; stroke-opacity:1; fill:none" points="
  994.114,1304.96 994.114,1445.72 1023.6,1445.72 1023.6,1304.96 994.114,1304.96 
  "/>
<path clip-path="url(#clip902)" d="
M1023.6 1296.38 L1023.6 1445.72 L1053.08 1445.72 L1053.08 1296.38 L1023.6 1296.38 L1023.6 1296.38  Z
  " fill="#009af9" fill-rule="evenodd" fill-opacity="1"/>
<polyline clip-path="url(#clip902)" style="stroke:#000000; stroke-width:4; stroke-opacity:1; fill:none" points="
  1023.6,1296.38 1023.6,1445.72 1053.08,1445.72 1053.08,1296.38 1023.6,1296.38 
  "/>
<path clip-path="url(#clip902)" d="
M1053.08 1284.37 L1053.08 1445.72 L1082.57 1445.72 L1082.57 1284.37 L1053.08 1284.37 L1053.08 1284.37  Z
  " fill="#009af9" fill-rule="evenodd" fill-opacity="1"/>
<polyline clip-path="url(#clip902)" style="stroke:#000000; stroke-width:4; stroke-opacity:1; fill:none" points="
  1053.08,1284.37 1053.08,1445.72 1082.57,1445.72 1082.57,1284.37 1053.08,1284.37 
  "/>
<path clip-path="url(#clip902)" d="
M1082.57 1296.38 L1082.57 1445.72 L1112.05 1445.72 L1112.05 1296.38 L1082.57 1296.38 L1082.57 1296.38  Z
  " fill="#009af9" fill-rule="evenodd" fill-opacity="1"/>
<polyline clip-path="url(#clip902)" style="stroke:#000000; stroke-width:4; stroke-opacity:1; fill:none" points="
  1082.57,1296.38 1082.57,1445.72 1112.05,1445.72 1112.05,1296.38 1082.57,1296.38 
  "/>
<path clip-path="url(#clip902)" d="
M1112.05 1253.47 L1112.05 1445.72 L1141.54 1445.72 L1141.54 1253.47 L1112.05 1253.47 L1112.05 1253.47  Z
  " fill="#009af9" fill-rule="evenodd" fill-opacity="1"/>
<polyline clip-path="url(#clip902)" style="stroke:#000000; stroke-width:4; stroke-opacity:1; fill:none" points="
  1112.05,1253.47 1112.05,1445.72 1141.54,1445.72 1141.54,1253.47 1112.05,1253.47 
  "/>
<path clip-path="url(#clip902)" d="
M1141.54 1296.38 L1141.54 1445.72 L1171.02 1445.72 L1171.02 1296.38 L1141.54 1296.38 L1141.54 1296.38  Z
  " fill="#009af9" fill-rule="evenodd" fill-opacity="1"/>
<polyline clip-path="url(#clip902)" style="stroke:#000000; stroke-width:4; stroke-opacity:1; fill:none" points="
  1141.54,1296.38 1141.54,1445.72 1171.02,1445.72 1171.02,1296.38 1141.54,1296.38 
  "/>
<path clip-path="url(#clip902)" d="
M1171.02 1267.2 L1171.02 1445.72 L1200.51 1445.72 L1200.51 1267.2 L1171.02 1267.2 L1171.02 1267.2  Z
  " fill="#009af9" fill-rule="evenodd" fill-opacity="1"/>
<polyline clip-path="url(#clip902)" style="stroke:#000000; stroke-width:4; stroke-opacity:1; fill:none" points="
  1171.02,1267.2 1171.02,1445.72 1200.51,1445.72 1200.51,1267.2 1171.02,1267.2 
  "/>
<path clip-path="url(#clip902)" d="
M1200.51 1251.75 L1200.51 1445.72 L1230 1445.72 L1230 1251.75 L1200.51 1251.75 L1200.51 1251.75  Z
  " fill="#009af9" fill-rule="evenodd" fill-opacity="1"/>
<polyline clip-path="url(#clip902)" style="stroke:#000000; stroke-width:4; stroke-opacity:1; fill:none" points="
  1200.51,1251.75 1200.51,1445.72 1230,1445.72 1230,1251.75 1200.51,1251.75 
  "/>
<path clip-path="url(#clip902)" d="
M1230 1231.16 L1230 1445.72 L1259.48 1445.72 L1259.48 1231.16 L1230 1231.16 L1230 1231.16  Z
  " fill="#009af9" fill-rule="evenodd" fill-opacity="1"/>
<polyline clip-path="url(#clip902)" style="stroke:#000000; stroke-width:4; stroke-opacity:1; fill:none" points="
  1230,1231.16 1230,1445.72 1259.48,1445.72 1259.48,1231.16 1230,1231.16 
  "/>
<path clip-path="url(#clip902)" d="
M1259.48 1239.74 L1259.48 1445.72 L1288.97 1445.72 L1288.97 1239.74 L1259.48 1239.74 L1259.48 1239.74  Z
  " fill="#009af9" fill-rule="evenodd" fill-opacity="1"/>
<polyline clip-path="url(#clip902)" style="stroke:#000000; stroke-width:4; stroke-opacity:1; fill:none" points="
  1259.48,1239.74 1259.48,1445.72 1288.97,1445.72 1288.97,1239.74 1259.48,1239.74 
  "/>
<path clip-path="url(#clip902)" d="
M1288.97 1217.42 L1288.97 1445.72 L1318.45 1445.72 L1318.45 1217.42 L1288.97 1217.42 L1288.97 1217.42  Z
  " fill="#009af9" fill-rule="evenodd" fill-opacity="1"/>
<polyline clip-path="url(#clip902)" style="stroke:#000000; stroke-width:4; stroke-opacity:1; fill:none" points="
  1288.97,1217.42 1288.97,1445.72 1318.45,1445.72 1318.45,1217.42 1288.97,1217.42 
  "/>
<path clip-path="url(#clip902)" d="
M1318.45 1263.77 L1318.45 1445.72 L1347.94 1445.72 L1347.94 1263.77 L1318.45 1263.77 L1318.45 1263.77  Z
  " fill="#009af9" fill-rule="evenodd" fill-opacity="1"/>
<polyline clip-path="url(#clip902)" style="stroke:#000000; stroke-width:4; stroke-opacity:1; fill:none" points="
  1318.45,1263.77 1318.45,1445.72 1347.94,1445.72 1347.94,1263.77 1318.45,1263.77 
  "/>
<path clip-path="url(#clip902)" d="
M1347.94 1198.54 L1347.94 1445.72 L1377.42 1445.72 L1377.42 1198.54 L1347.94 1198.54 L1347.94 1198.54  Z
  " fill="#009af9" fill-rule="evenodd" fill-opacity="1"/>
<polyline clip-path="url(#clip902)" style="stroke:#000000; stroke-width:4; stroke-opacity:1; fill:none" points="
  1347.94,1198.54 1347.94,1445.72 1377.42,1445.72 1377.42,1198.54 1347.94,1198.54 
  "/>
<path clip-path="url(#clip902)" d="
M1377.42 776.287 L1377.42 1445.72 L1406.91 1445.72 L1406.91 776.287 L1377.42 776.287 L1377.42 776.287  Z
  " fill="#009af9" fill-rule="evenodd" fill-opacity="1"/>
<polyline clip-path="url(#clip902)" style="stroke:#000000; stroke-width:4; stroke-opacity:1; fill:none" points="
  1377.42,776.287 1377.42,1445.72 1406.91,1445.72 1406.91,776.287 1377.42,776.287 
  "/>
<path clip-path="url(#clip902)" d="
M1406.91 87.9763 L1406.91 1445.72 L1436.39 1445.72 L1436.39 87.9763 L1406.91 87.9763 L1406.91 87.9763  Z
  " fill="#009af9" fill-rule="evenodd" fill-opacity="1"/>
<polyline clip-path="url(#clip902)" style="stroke:#000000; stroke-width:4; stroke-opacity:1; fill:none" points="
  1406.91,87.9763 1406.91,1445.72 1436.39,1445.72 1436.39,87.9763 1406.91,87.9763 
  "/>
<path clip-path="url(#clip902)" d="
M1436.39 91.4092 L1436.39 1445.72 L1465.88 1445.72 L1465.88 91.4092 L1436.39 91.4092 L1436.39 91.4092  Z
  " fill="#009af9" fill-rule="evenodd" fill-opacity="1"/>
<polyline clip-path="url(#clip902)" style="stroke:#000000; stroke-width:4; stroke-opacity:1; fill:none" points="
  1436.39,91.4092 1436.39,1445.72 1465.88,1445.72 1465.88,91.4092 1436.39,91.4092 
  "/>
<path clip-path="url(#clip902)" d="
M1465.88 812.333 L1465.88 1445.72 L1495.36 1445.72 L1495.36 812.333 L1465.88 812.333 L1465.88 812.333  Z
  " fill="#009af9" fill-rule="evenodd" fill-opacity="1"/>
<polyline clip-path="url(#clip902)" style="stroke:#000000; stroke-width:4; stroke-opacity:1; fill:none" points="
  1465.88,812.333 1465.88,1445.72 1495.36,1445.72 1495.36,812.333 1465.88,812.333 
  "/>
<path clip-path="url(#clip902)" d="
M1495.36 1232.87 L1495.36 1445.72 L1524.85 1445.72 L1524.85 1232.87 L1495.36 1232.87 L1495.36 1232.87  Z
  " fill="#009af9" fill-rule="evenodd" fill-opacity="1"/>
<polyline clip-path="url(#clip902)" style="stroke:#000000; stroke-width:4; stroke-opacity:1; fill:none" points="
  1495.36,1232.87 1495.36,1445.72 1524.85,1445.72 1524.85,1232.87 1495.36,1232.87 
  "/>
<path clip-path="url(#clip902)" d="
M1524.85 1280.93 L1524.85 1445.72 L1554.33 1445.72 L1554.33 1280.93 L1524.85 1280.93 L1524.85 1280.93  Z
  " fill="#009af9" fill-rule="evenodd" fill-opacity="1"/>
<polyline clip-path="url(#clip902)" style="stroke:#000000; stroke-width:4; stroke-opacity:1; fill:none" points="
  1524.85,1280.93 1524.85,1445.72 1554.33,1445.72 1554.33,1280.93 1524.85,1280.93 
  "/>
<path clip-path="url(#clip902)" d="
M1554.33 1303.25 L1554.33 1445.72 L1583.82 1445.72 L1583.82 1303.25 L1554.33 1303.25 L1554.33 1303.25  Z
  " fill="#009af9" fill-rule="evenodd" fill-opacity="1"/>
<polyline clip-path="url(#clip902)" style="stroke:#000000; stroke-width:4; stroke-opacity:1; fill:none" points="
  1554.33,1303.25 1554.33,1445.72 1583.82,1445.72 1583.82,1303.25 1554.33,1303.25 
  "/>
<path clip-path="url(#clip902)" d="
M1583.82 1304.96 L1583.82 1445.72 L1613.3 1445.72 L1613.3 1304.96 L1583.82 1304.96 L1583.82 1304.96  Z
  " fill="#009af9" fill-rule="evenodd" fill-opacity="1"/>
<polyline clip-path="url(#clip902)" style="stroke:#000000; stroke-width:4; stroke-opacity:1; fill:none" points="
  1583.82,1304.96 1583.82,1445.72 1613.3,1445.72 1613.3,1304.96 1583.82,1304.96 
  "/>
<path clip-path="url(#clip902)" d="
M1613.3 1349.59 L1613.3 1445.72 L1642.79 1445.72 L1642.79 1349.59 L1613.3 1349.59 L1613.3 1349.59  Z
  " fill="#009af9" fill-rule="evenodd" fill-opacity="1"/>
<polyline clip-path="url(#clip902)" style="stroke:#000000; stroke-width:4; stroke-opacity:1; fill:none" points="
  1613.3,1349.59 1613.3,1445.72 1642.79,1445.72 1642.79,1349.59 1613.3,1349.59 
  "/>
<path clip-path="url(#clip902)" d="
M1642.79 1341.01 L1642.79 1445.72 L1672.27 1445.72 L1672.27 1341.01 L1642.79 1341.01 L1642.79 1341.01  Z
  " fill="#009af9" fill-rule="evenodd" fill-opacity="1"/>
<polyline clip-path="url(#clip902)" style="stroke:#000000; stroke-width:4; stroke-opacity:1; fill:none" points="
  1642.79,1341.01 1642.79,1445.72 1672.27,1445.72 1672.27,1341.01 1642.79,1341.01 
  "/>
<path clip-path="url(#clip902)" d="
M1672.27 1368.47 L1672.27 1445.72 L1701.76 1445.72 L1701.76 1368.47 L1672.27 1368.47 L1672.27 1368.47  Z
  " fill="#009af9" fill-rule="evenodd" fill-opacity="1"/>
<polyline clip-path="url(#clip902)" style="stroke:#000000; stroke-width:4; stroke-opacity:1; fill:none" points="
  1672.27,1368.47 1672.27,1445.72 1701.76,1445.72 1701.76,1368.47 1672.27,1368.47 
  "/>
<path clip-path="url(#clip902)" d="
M1701.76 1371.91 L1701.76 1445.72 L1731.24 1445.72 L1731.24 1371.91 L1701.76 1371.91 L1701.76 1371.91  Z
  " fill="#009af9" fill-rule="evenodd" fill-opacity="1"/>
<polyline clip-path="url(#clip902)" style="stroke:#000000; stroke-width:4; stroke-opacity:1; fill:none" points="
  1701.76,1371.91 1701.76,1445.72 1731.24,1445.72 1731.24,1371.91 1701.76,1371.91 
  "/>
<path clip-path="url(#clip902)" d="
M1731.24 1390.79 L1731.24 1445.72 L1760.73 1445.72 L1760.73 1390.79 L1731.24 1390.79 L1731.24 1390.79  Z
  " fill="#009af9" fill-rule="evenodd" fill-opacity="1"/>
<polyline clip-path="url(#clip902)" style="stroke:#000000; stroke-width:4; stroke-opacity:1; fill:none" points="
  1731.24,1390.79 1731.24,1445.72 1760.73,1445.72 1760.73,1390.79 1731.24,1390.79 
  "/>
<path clip-path="url(#clip902)" d="
M1760.73 1402.8 L1760.73 1445.72 L1790.21 1445.72 L1790.21 1402.8 L1760.73 1402.8 L1760.73 1402.8  Z
  " fill="#009af9" fill-rule="evenodd" fill-opacity="1"/>
<polyline clip-path="url(#clip902)" style="stroke:#000000; stroke-width:4; stroke-opacity:1; fill:none" points="
  1760.73,1402.8 1760.73,1445.72 1790.21,1445.72 1790.21,1402.8 1760.73,1402.8 
  "/>
<path clip-path="url(#clip902)" d="
M1790.21 1411.39 L1790.21 1445.72 L1819.7 1445.72 L1819.7 1411.39 L1790.21 1411.39 L1790.21 1411.39  Z
  " fill="#009af9" fill-rule="evenodd" fill-opacity="1"/>
<polyline clip-path="url(#clip902)" style="stroke:#000000; stroke-width:4; stroke-opacity:1; fill:none" points="
  1790.21,1411.39 1790.21,1445.72 1819.7,1445.72 1819.7,1411.39 1790.21,1411.39 
  "/>
<path clip-path="url(#clip902)" d="
M1819.7 1411.39 L1819.7 1445.72 L1849.18 1445.72 L1849.18 1411.39 L1819.7 1411.39 L1819.7 1411.39  Z
  " fill="#009af9" fill-rule="evenodd" fill-opacity="1"/>
<polyline clip-path="url(#clip902)" style="stroke:#000000; stroke-width:4; stroke-opacity:1; fill:none" points="
  1819.7,1411.39 1819.7,1445.72 1849.18,1445.72 1849.18,1411.39 1819.7,1411.39 
  "/>
<path clip-path="url(#clip902)" d="
M1849.18 1416.54 L1849.18 1445.72 L1878.67 1445.72 L1878.67 1416.54 L1849.18 1416.54 L1849.18 1416.54  Z
  " fill="#009af9" fill-rule="evenodd" fill-opacity="1"/>
<polyline clip-path="url(#clip902)" style="stroke:#000000; stroke-width:4; stroke-opacity:1; fill:none" points="
  1849.18,1416.54 1849.18,1445.72 1878.67,1445.72 1878.67,1416.54 1849.18,1416.54 
  "/>
<path clip-path="url(#clip902)" d="
M1878.67 1414.82 L1878.67 1445.72 L1908.15 1445.72 L1908.15 1414.82 L1878.67 1414.82 L1878.67 1414.82  Z
  " fill="#009af9" fill-rule="evenodd" fill-opacity="1"/>
<polyline clip-path="url(#clip902)" style="stroke:#000000; stroke-width:4; stroke-opacity:1; fill:none" points="
  1878.67,1414.82 1878.67,1445.72 1908.15,1445.72 1908.15,1414.82 1878.67,1414.82 
  "/>
<path clip-path="url(#clip902)" d="
M1908.15 1407.95 L1908.15 1445.72 L1937.64 1445.72 L1937.64 1407.95 L1908.15 1407.95 L1908.15 1407.95  Z
  " fill="#009af9" fill-rule="evenodd" fill-opacity="1"/>
<polyline clip-path="url(#clip902)" style="stroke:#000000; stroke-width:4; stroke-opacity:1; fill:none" points="
  1908.15,1407.95 1908.15,1445.72 1937.64,1445.72 1937.64,1407.95 1908.15,1407.95 
  "/>
<path clip-path="url(#clip902)" d="
M1937.64 1431.98 L1937.64 1445.72 L1967.12 1445.72 L1967.12 1431.98 L1937.64 1431.98 L1937.64 1431.98  Z
  " fill="#009af9" fill-rule="evenodd" fill-opacity="1"/>
<polyline clip-path="url(#clip902)" style="stroke:#000000; stroke-width:4; stroke-opacity:1; fill:none" points="
  1937.64,1431.98 1937.64,1445.72 1967.12,1445.72 1967.12,1431.98 1937.64,1431.98 
  "/>
<path clip-path="url(#clip902)" d="
M1967.12 1428.55 L1967.12 1445.72 L1996.61 1445.72 L1996.61 1428.55 L1967.12 1428.55 L1967.12 1428.55  Z
  " fill="#009af9" fill-rule="evenodd" fill-opacity="1"/>
<polyline clip-path="url(#clip902)" style="stroke:#000000; stroke-width:4; stroke-opacity:1; fill:none" points="
  1967.12,1428.55 1967.12,1445.72 1996.61,1445.72 1996.61,1428.55 1967.12,1428.55 
  "/>
<path clip-path="url(#clip902)" d="
M1996.61 1435.42 L1996.61 1445.72 L2026.1 1445.72 L2026.1 1435.42 L1996.61 1435.42 L1996.61 1435.42  Z
  " fill="#009af9" fill-rule="evenodd" fill-opacity="1"/>
<polyline clip-path="url(#clip902)" style="stroke:#000000; stroke-width:4; stroke-opacity:1; fill:none" points="
  1996.61,1435.42 1996.61,1445.72 2026.1,1445.72 2026.1,1435.42 1996.61,1435.42 
  "/>
<path clip-path="url(#clip902)" d="
M2026.1 1430.27 L2026.1 1445.72 L2055.58 1445.72 L2055.58 1430.27 L2026.1 1430.27 L2026.1 1430.27  Z
  " fill="#009af9" fill-rule="evenodd" fill-opacity="1"/>
<polyline clip-path="url(#clip902)" style="stroke:#000000; stroke-width:4; stroke-opacity:1; fill:none" points="
  2026.1,1430.27 2026.1,1445.72 2055.58,1445.72 2055.58,1430.27 2026.1,1430.27 
  "/>
<path clip-path="url(#clip902)" d="
M2055.58 1445.72 L2055.58 1445.72 L2085.07 1445.72 L2085.07 1445.72 L2055.58 1445.72 L2055.58 1445.72  Z
  " fill="#009af9" fill-rule="evenodd" fill-opacity="1"/>
<polyline clip-path="url(#clip902)" style="stroke:#000000; stroke-width:4; stroke-opacity:1; fill:none" points="
  2055.58,1445.72 2055.58,1445.72 2085.07,1445.72 2055.58,1445.72 
  "/>
<path clip-path="url(#clip902)" d="
M2085.07 1431.98 L2085.07 1445.72 L2114.55 1445.72 L2114.55 1431.98 L2085.07 1431.98 L2085.07 1431.98  Z
  " fill="#009af9" fill-rule="evenodd" fill-opacity="1"/>
<polyline clip-path="url(#clip902)" style="stroke:#000000; stroke-width:4; stroke-opacity:1; fill:none" points="
  2085.07,1431.98 2085.07,1445.72 2114.55,1445.72 2114.55,1431.98 2085.07,1431.98 
  "/>
<path clip-path="url(#clip902)" d="
M2114.55 1444 L2114.55 1445.72 L2144.04 1445.72 L2144.04 1444 L2114.55 1444 L2114.55 1444  Z
  " fill="#009af9" fill-rule="evenodd" fill-opacity="1"/>
<polyline clip-path="url(#clip902)" style="stroke:#000000; stroke-width:4; stroke-opacity:1; fill:none" points="
  2114.55,1444 2114.55,1445.72 2144.04,1445.72 2144.04,1444 2114.55,1444 
  "/>
<path clip-path="url(#clip902)" d="
M2144.04 1442.28 L2144.04 1445.72 L2173.52 1445.72 L2173.52 1442.28 L2144.04 1442.28 L2144.04 1442.28  Z
  " fill="#009af9" fill-rule="evenodd" fill-opacity="1"/>
<polyline clip-path="url(#clip902)" style="stroke:#000000; stroke-width:4; stroke-opacity:1; fill:none" points="
  2144.04,1442.28 2144.04,1445.72 2173.52,1445.72 2173.52,1442.28 2144.04,1442.28 
  "/>
<path clip-path="url(#clip902)" d="
M2173.52 1442.28 L2173.52 1445.72 L2203.01 1445.72 L2203.01 1442.28 L2173.52 1442.28 L2173.52 1442.28  Z
  " fill="#009af9" fill-rule="evenodd" fill-opacity="1"/>
<polyline clip-path="url(#clip902)" style="stroke:#000000; stroke-width:4; stroke-opacity:1; fill:none" points="
  2173.52,1442.28 2173.52,1445.72 2203.01,1445.72 2203.01,1442.28 2173.52,1442.28 
  "/>
<path clip-path="url(#clip902)" d="
M2203.01 1444 L2203.01 1445.72 L2232.49 1445.72 L2232.49 1444 L2203.01 1444 L2203.01 1444  Z
  " fill="#009af9" fill-rule="evenodd" fill-opacity="1"/>
<polyline clip-path="url(#clip902)" style="stroke:#000000; stroke-width:4; stroke-opacity:1; fill:none" points="
  2203.01,1444 2203.01,1445.72 2232.49,1445.72 2232.49,1444 2203.01,1444 
  "/>
<path clip-path="url(#clip900)" d="
M1989.74 251.724 L2280.76 251.724 L2280.76 130.764 L1989.74 130.764  Z
  " fill="#ffffff" fill-rule="evenodd" fill-opacity="1"/>
<polyline clip-path="url(#clip900)" style="stroke:#000000; stroke-width:4; stroke-opacity:1; fill:none" points="
  1989.74,251.724 2280.76,251.724 2280.76,130.764 1989.74,130.764 1989.74,251.724 
  "/>
<path clip-path="url(#clip900)" d="
M2013.74 215.436 L2157.74 215.436 L2157.74 167.052 L2013.74 167.052 L2013.74 215.436  Z
  " fill="#009af9" fill-rule="evenodd" fill-opacity="1"/>
<polyline clip-path="url(#clip900)" style="stroke:#000000; stroke-width:4; stroke-opacity:1; fill:none" points="
  2013.74,215.436 2157.74,215.436 2157.74,167.052 2013.74,167.052 2013.74,215.436 
  "/>
<path clip-path="url(#clip900)" d="M 0 0 M2195.58 210.931 Q2193.77 215.561 2192.06 216.973 Q2190.35 218.385 2187.48 218.385 L2184.08 218.385 L2184.08 214.82 L2186.58 214.82 Q2188.33 214.82 2189.31 213.987 Q2190.28 213.154 2191.46 210.052 L2192.22 208.107 L2181.74 182.598 L2186.25 182.598 L2194.35 202.876 L2202.46 182.598 L2206.97 182.598 L2195.58 210.931 Z" fill="#000000" fill-rule="evenodd" fill-opacity="1" /><path clip-path="url(#clip900)" d="M 0 0 M2212.85 204.589 L2220.49 204.589 L2220.49 178.223 L2212.18 179.89 L2212.18 175.631 L2220.44 173.964 L2225.12 173.964 L2225.12 204.589 L2232.76 204.589 L2232.76 208.524 L2212.85 208.524 L2212.85 204.589 Z" fill="#000000" fill-rule="evenodd" fill-opacity="1" /></svg>
