<?xml version="1.0" encoding="utf-8"?>
<svg xmlns="http://www.w3.org/2000/svg" xmlns:xlink="http://www.w3.org/1999/xlink" width="600" height="400" viewBox="0 0 2400 1600">
<defs>
  <clipPath id="clip420">
    <rect x="0" y="0" width="2400" height="1600"/>
  </clipPath>
</defs>
<path clip-path="url(#clip420)" d="
M0 1600 L2400 1600 L2400 0 L0 0  Z
  " fill="#ffffff" fill-rule="evenodd" fill-opacity="1"/>
<defs>
  <clipPath id="clip421">
    <rect x="480" y="0" width="1681" height="1600"/>
  </clipPath>
</defs>
<path clip-path="url(#clip420)" d="
M166.205 1486.45 L2352.76 1486.45 L2352.76 47.2441 L166.205 47.2441  Z
  " fill="#ffffff" fill-rule="evenodd" fill-opacity="1"/>
<defs>
  <clipPath id="clip422">
    <rect x="166" y="47" width="2188" height="1440"/>
  </clipPath>
</defs>
<polyline clip-path="url(#clip422)" style="stroke:#000000; stroke-width:2; stroke-opacity:0.1; fill:none" points="
  404.41,1486.45 404.41,47.2441 
  "/>
<polyline clip-path="url(#clip422)" style="stroke:#000000; stroke-width:2; stroke-opacity:0.1; fill:none" points="
  699.262,1486.45 699.262,47.2441 
  "/>
<polyline clip-path="url(#clip422)" style="stroke:#000000; stroke-width:2; stroke-opacity:0.1; fill:none" points="
  994.114,1486.45 994.114,47.2441 
  "/>
<polyline clip-path="url(#clip422)" style="stroke:#000000; stroke-width:2; stroke-opacity:0.1; fill:none" points="
  1288.97,1486.45 1288.97,47.2441 
  "/>
<polyline clip-path="url(#clip422)" style="stroke:#000000; stroke-width:2; stroke-opacity:0.1; fill:none" points="
  1583.82,1486.45 1583.82,47.2441 
  "/>
<polyline clip-path="url(#clip422)" style="stroke:#000000; stroke-width:2; stroke-opacity:0.1; fill:none" points="
  1878.67,1486.45 1878.67,47.2441 
  "/>
<polyline clip-path="url(#clip422)" style="stroke:#000000; stroke-width:2; stroke-opacity:0.1; fill:none" points="
  2173.52,1486.45 2173.52,47.2441 
  "/>
<polyline clip-path="url(#clip422)" style="stroke:#000000; stroke-width:2; stroke-opacity:0.1; fill:none" points="
  166.205,1445.72 2352.76,1445.72 
  "/>
<polyline clip-path="url(#clip422)" style="stroke:#000000; stroke-width:2; stroke-opacity:0.1; fill:none" points="
  166.205,1112.53 2352.76,1112.53 
  "/>
<polyline clip-path="url(#clip422)" style="stroke:#000000; stroke-width:2; stroke-opacity:0.1; fill:none" points="
  166.205,779.341 2352.76,779.341 
  "/>
<polyline clip-path="url(#clip422)" style="stroke:#000000; stroke-width:2; stroke-opacity:0.1; fill:none" points="
  166.205,446.153 2352.76,446.153 
  "/>
<polyline clip-path="url(#clip422)" style="stroke:#000000; stroke-width:2; stroke-opacity:0.1; fill:none" points="
  166.205,112.965 2352.76,112.965 
  "/>
<polyline clip-path="url(#clip420)" style="stroke:#000000; stroke-width:4; stroke-opacity:1; fill:none" points="
  166.205,1486.45 2352.76,1486.45 
  "/>
<polyline clip-path="url(#clip420)" style="stroke:#000000; stroke-width:4; stroke-opacity:1; fill:none" points="
  166.205,1486.45 166.205,47.2441 
  "/>
<polyline clip-path="url(#clip420)" style="stroke:#000000; stroke-width:4; stroke-opacity:1; fill:none" points="
  404.41,1486.45 404.41,1469.18 
  "/>
<polyline clip-path="url(#clip420)" style="stroke:#000000; stroke-width:4; stroke-opacity:1; fill:none" points="
  699.262,1486.45 699.262,1469.18 
  "/>
<polyline clip-path="url(#clip420)" style="stroke:#000000; stroke-width:4; stroke-opacity:1; fill:none" points="
  994.114,1486.45 994.114,1469.18 
  "/>
<polyline clip-path="url(#clip420)" style="stroke:#000000; stroke-width:4; stroke-opacity:1; fill:none" points="
  1288.97,1486.45 1288.97,1469.18 
  "/>
<polyline clip-path="url(#clip420)" style="stroke:#000000; stroke-width:4; stroke-opacity:1; fill:none" points="
  1583.82,1486.45 1583.82,1469.18 
  "/>
<polyline clip-path="url(#clip420)" style="stroke:#000000; stroke-width:4; stroke-opacity:1; fill:none" points="
  1878.67,1486.45 1878.67,1469.18 
  "/>
<polyline clip-path="url(#clip420)" style="stroke:#000000; stroke-width:4; stroke-opacity:1; fill:none" points="
  2173.52,1486.45 2173.52,1469.18 
  "/>
<polyline clip-path="url(#clip420)" style="stroke:#000000; stroke-width:4; stroke-opacity:1; fill:none" points="
  166.205,1445.72 192.443,1445.72 
  "/>
<polyline clip-path="url(#clip420)" style="stroke:#000000; stroke-width:4; stroke-opacity:1; fill:none" points="
  166.205,1112.53 192.443,1112.53 
  "/>
<polyline clip-path="url(#clip420)" style="stroke:#000000; stroke-width:4; stroke-opacity:1; fill:none" points="
  166.205,779.341 192.443,779.341 
  "/>
<polyline clip-path="url(#clip420)" style="stroke:#000000; stroke-width:4; stroke-opacity:1; fill:none" points="
  166.205,446.153 192.443,446.153 
  "/>
<polyline clip-path="url(#clip420)" style="stroke:#000000; stroke-width:4; stroke-opacity:1; fill:none" points="
  166.205,112.965 192.443,112.965 
  "/>
<path clip-path="url(#clip420)" d="M 0 0 M384.583 1525.04 L397.06 1525.04 L397.06 1528.83 L384.583 1528.83 L384.583 1525.04 Z" fill="#000000" fill-rule="evenodd" fill-opacity="1" /><path clip-path="url(#clip420)" d="M 0 0 M412.708 1520.78 Q409.56 1520.78 407.708 1522.93 Q405.88 1525.08 405.88 1528.83 Q405.88 1532.56 407.708 1534.73 Q409.56 1536.89 412.708 1536.89 Q415.856 1536.89 417.685 1534.73 Q419.537 1532.56 419.537 1528.83 Q419.537 1525.08 417.685 1522.93 Q415.856 1520.78 412.708 1520.78 M421.991 1506.12 L421.991 1510.38 Q420.231 1509.55 418.426 1509.11 Q416.643 1508.67 414.884 1508.67 Q410.255 1508.67 407.801 1511.8 Q405.37 1514.92 405.023 1521.24 Q406.389 1519.23 408.449 1518.16 Q410.509 1517.07 412.986 1517.07 Q418.194 1517.07 421.204 1520.24 Q424.236 1523.39 424.236 1528.83 Q424.236 1534.16 421.088 1537.37 Q417.94 1540.59 412.708 1540.59 Q406.713 1540.59 403.542 1536.01 Q400.37 1531.4 400.37 1522.67 Q400.37 1514.48 404.259 1509.62 Q408.148 1504.73 414.699 1504.73 Q416.458 1504.73 418.241 1505.08 Q420.046 1505.43 421.991 1506.12 Z" fill="#000000" fill-rule="evenodd" fill-opacity="1" /><path clip-path="url(#clip420)" d="M 0 0 M679.273 1525.04 L691.75 1525.04 L691.75 1528.83 L679.273 1528.83 L679.273 1525.04 Z" fill="#000000" fill-rule="evenodd" fill-opacity="1" /><path clip-path="url(#clip420)" d="M 0 0 M709.667 1509.43 L697.861 1527.88 L709.667 1527.88 L709.667 1509.43 M708.44 1505.36 L714.319 1505.36 L714.319 1527.88 L719.25 1527.88 L719.25 1531.77 L714.319 1531.77 L714.319 1539.92 L709.667 1539.92 L709.667 1531.77 L694.065 1531.77 L694.065 1527.26 L708.44 1505.36 Z" fill="#000000" fill-rule="evenodd" fill-opacity="1" /><path clip-path="url(#clip420)" d="M 0 0 M975.167 1525.04 L987.644 1525.04 L987.644 1528.83 L975.167 1528.83 L975.167 1525.04 Z" fill="#000000" fill-rule="evenodd" fill-opacity="1" /><path clip-path="url(#clip420)" d="M 0 0 M996.741 1535.98 L1013.06 1535.98 L1013.06 1539.92 L991.116 1539.92 L991.116 1535.98 Q993.778 1533.23 998.361 1528.6 Q1002.97 1523.95 1004.15 1522.61 Q1006.39 1520.08 1007.27 1518.35 Q1008.18 1516.59 1008.18 1514.9 Q1008.18 1512.14 1006.23 1510.41 Q1004.31 1508.67 1001.21 1508.67 Q999.009 1508.67 996.556 1509.43 Q994.125 1510.2 991.347 1511.75 L991.347 1507.03 Q994.171 1505.89 996.625 1505.31 Q999.079 1504.73 1001.12 1504.73 Q1006.49 1504.73 1009.68 1507.42 Q1012.88 1510.11 1012.88 1514.6 Q1012.88 1516.73 1012.06 1518.65 Q1011.28 1520.54 1009.17 1523.14 Q1008.59 1523.81 1005.49 1527.03 Q1002.39 1530.22 996.741 1535.98 Z" fill="#000000" fill-rule="evenodd" fill-opacity="1" /><path clip-path="url(#clip420)" d="M 0 0 M1288.97 1508.44 Q1285.35 1508.44 1283.53 1512 Q1281.72 1515.55 1281.72 1522.67 Q1281.72 1529.78 1283.53 1533.35 Q1285.35 1536.89 1288.97 1536.89 Q1292.6 1536.89 1294.41 1533.35 Q1296.23 1529.78 1296.23 1522.67 Q1296.23 1515.55 1294.41 1512 Q1292.6 1508.44 1288.97 1508.44 M1288.97 1504.73 Q1294.78 1504.73 1297.83 1509.34 Q1300.91 1513.92 1300.91 1522.67 Q1300.91 1531.4 1297.83 1536.01 Q1294.78 1540.59 1288.97 1540.59 Q1283.16 1540.59 1280.08 1536.01 Q1277.02 1531.4 1277.02 1522.67 Q1277.02 1513.92 1280.08 1509.34 Q1283.16 1504.73 1288.97 1504.73 Z" fill="#000000" fill-rule="evenodd" fill-opacity="1" /><path clip-path="url(#clip420)" d="M 0 0 M1578.47 1535.98 L1594.79 1535.98 L1594.79 1539.92 L1572.85 1539.92 L1572.85 1535.98 Q1575.51 1533.23 1580.09 1528.6 Q1584.7 1523.95 1585.88 1522.61 Q1588.12 1520.08 1589 1518.35 Q1589.91 1516.59 1589.91 1514.9 Q1589.91 1512.14 1587.96 1510.41 Q1586.04 1508.67 1582.94 1508.67 Q1580.74 1508.67 1578.29 1509.43 Q1575.85 1510.2 1573.08 1511.75 L1573.08 1507.03 Q1575.9 1505.89 1578.35 1505.31 Q1580.81 1504.73 1582.85 1504.73 Q1588.22 1504.73 1591.41 1507.42 Q1594.6 1510.11 1594.6 1514.6 Q1594.6 1516.73 1593.79 1518.65 Q1593.01 1520.54 1590.9 1523.14 Q1590.32 1523.81 1587.22 1527.03 Q1584.12 1530.22 1578.47 1535.98 Z" fill="#000000" fill-rule="evenodd" fill-opacity="1" /><path clip-path="url(#clip420)" d="M 0 0 M1881.68 1509.43 L1869.87 1527.88 L1881.68 1527.88 L1881.68 1509.43 M1880.45 1505.36 L1886.33 1505.36 L1886.33 1527.88 L1891.26 1527.88 L1891.26 1531.77 L1886.33 1531.77 L1886.33 1539.92 L1881.68 1539.92 L1881.68 1531.77 L1866.08 1531.77 L1866.08 1527.26 L1880.45 1505.36 Z" fill="#000000" fill-rule="evenodd" fill-opacity="1" /><path clip-path="url(#clip420)" d="M 0 0 M2173.93 1520.78 Q2170.78 1520.78 2168.93 1522.93 Q2167.1 1525.08 2167.1 1528.83 Q2167.1 1532.56 2168.93 1534.73 Q2170.78 1536.89 2173.93 1536.89 Q2177.07 1536.89 2178.9 1534.73 Q2180.76 1532.56 2180.76 1528.83 Q2180.76 1525.08 2178.9 1522.93 Q2177.07 1520.78 2173.93 1520.78 M2183.21 1506.12 L2183.21 1510.38 Q2181.45 1509.55 2179.64 1509.11 Q2177.86 1508.67 2176.1 1508.67 Q2171.47 1508.67 2169.02 1511.8 Q2166.59 1514.92 2166.24 1521.24 Q2167.61 1519.23 2169.67 1518.16 Q2171.73 1517.07 2174.2 1517.07 Q2179.41 1517.07 2182.42 1520.24 Q2185.45 1523.39 2185.45 1528.83 Q2185.45 1534.16 2182.31 1537.37 Q2179.16 1540.59 2173.93 1540.59 Q2167.93 1540.59 2164.76 1536.01 Q2161.59 1531.4 2161.59 1522.67 Q2161.59 1514.48 2165.48 1509.62 Q2169.37 1504.73 2175.92 1504.73 Q2177.68 1504.73 2179.46 1505.08 Q2181.26 1505.43 2183.21 1506.12 Z" fill="#000000" fill-rule="evenodd" fill-opacity="1" /><path clip-path="url(#clip420)" d="M 0 0 M130.26 1431.51 Q126.649 1431.51 124.82 1435.08 Q123.015 1438.62 123.015 1445.75 Q123.015 1452.86 124.82 1456.42 Q126.649 1459.96 130.26 1459.96 Q133.895 1459.96 135.7 1456.42 Q137.529 1452.86 137.529 1445.75 Q137.529 1438.62 135.7 1435.08 Q133.895 1431.51 130.26 1431.51 M130.26 1427.81 Q136.07 1427.81 139.126 1432.42 Q142.205 1437 142.205 1445.75 Q142.205 1454.48 139.126 1459.08 Q136.07 1463.67 130.26 1463.67 Q124.45 1463.67 121.371 1459.08 Q118.316 1454.48 118.316 1445.75 Q118.316 1437 121.371 1432.42 Q124.45 1427.81 130.26 1427.81 Z" fill="#000000" fill-rule="evenodd" fill-opacity="1" /><path clip-path="url(#clip420)" d="M 0 0 M71.8578 1125.87 L88.1772 1125.87 L88.1772 1129.81 L66.2328 1129.81 L66.2328 1125.87 Q68.8949 1123.12 73.4782 1118.49 Q78.0846 1113.84 79.2652 1112.49 Q81.5105 1109.97 82.3902 1108.23 Q83.2929 1106.47 83.2929 1104.79 Q83.2929 1102.03 81.3485 1100.29 Q79.4272 1098.56 76.3254 1098.56 Q74.1263 1098.56 71.6726 1099.32 Q69.2421 1100.09 66.4643 1101.64 L66.4643 1096.91 Q69.2884 1095.78 71.7421 1095.2 Q74.1958 1094.62 76.2328 1094.62 Q81.6031 1094.62 84.7976 1097.31 Q87.992 1099.99 87.992 1104.48 Q87.992 1106.61 87.1818 1108.54 Q86.3948 1110.43 84.2883 1113.03 Q83.7096 1113.7 80.6078 1116.91 Q77.5059 1120.11 71.8578 1125.87 Z" fill="#000000" fill-rule="evenodd" fill-opacity="1" /><path clip-path="url(#clip420)" d="M 0 0 M103.247 1098.33 Q99.6354 1098.33 97.8068 1101.89 Q96.0012 1105.43 96.0012 1112.56 Q96.0012 1119.67 97.8068 1123.23 Q99.6354 1126.78 103.247 1126.78 Q106.881 1126.78 108.686 1123.23 Q110.515 1119.67 110.515 1112.56 Q110.515 1105.43 108.686 1101.89 Q106.881 1098.33 103.247 1098.33 M103.247 1094.62 Q109.057 1094.62 112.112 1099.23 Q115.191 1103.81 115.191 1112.56 Q115.191 1121.29 112.112 1125.9 Q109.057 1130.48 103.247 1130.48 Q97.4364 1130.48 94.3577 1125.9 Q91.3022 1121.29 91.3022 1112.56 Q91.3022 1103.81 94.3577 1099.23 Q97.4364 1094.62 103.247 1094.62 Z" fill="#000000" fill-rule="evenodd" fill-opacity="1" /><path clip-path="url(#clip420)" d="M 0 0 M130.26 1098.33 Q126.649 1098.33 124.82 1101.89 Q123.015 1105.43 123.015 1112.56 Q123.015 1119.67 124.82 1123.23 Q126.649 1126.78 130.26 1126.78 Q133.895 1126.78 135.7 1123.23 Q137.529 1119.67 137.529 1112.56 Q137.529 1105.43 135.7 1101.89 Q133.895 1098.33 130.26 1098.33 M130.26 1094.62 Q136.07 1094.62 139.126 1099.23 Q142.205 1103.81 142.205 1112.56 Q142.205 1121.29 139.126 1125.9 Q136.07 1130.48 130.26 1130.48 Q124.45 1130.48 121.371 1125.9 Q118.316 1121.29 118.316 1112.56 Q118.316 1103.81 121.371 1099.23 Q124.45 1094.62 130.26 1094.62 Z" fill="#000000" fill-rule="evenodd" fill-opacity="1" /><path clip-path="url(#clip420)" d="M 0 0 M78.5939 766.135 L66.7884 784.584 L78.5939 784.584 L78.5939 766.135 M77.367 762.061 L83.2466 762.061 L83.2466 784.584 L88.1772 784.584 L88.1772 788.472 L83.2466 788.472 L83.2466 796.621 L78.5939 796.621 L78.5939 788.472 L62.9921 788.472 L62.9921 783.959 L77.367 762.061 Z" fill="#000000" fill-rule="evenodd" fill-opacity="1" /><path clip-path="url(#clip420)" d="M 0 0 M103.247 765.139 Q99.6354 765.139 97.8068 768.704 Q96.0012 772.246 96.0012 779.375 Q96.0012 786.482 97.8068 790.046 Q99.6354 793.588 103.247 793.588 Q106.881 793.588 108.686 790.046 Q110.515 786.482 110.515 779.375 Q110.515 772.246 108.686 768.704 Q106.881 765.139 103.247 765.139 M103.247 761.436 Q109.057 761.436 112.112 766.042 Q115.191 770.625 115.191 779.375 Q115.191 788.102 112.112 792.709 Q109.057 797.292 103.247 797.292 Q97.4364 797.292 94.3577 792.709 Q91.3022 788.102 91.3022 779.375 Q91.3022 770.625 94.3577 766.042 Q97.4364 761.436 103.247 761.436 Z" fill="#000000" fill-rule="evenodd" fill-opacity="1" /><path clip-path="url(#clip420)" d="M 0 0 M130.26 765.139 Q126.649 765.139 124.82 768.704 Q123.015 772.246 123.015 779.375 Q123.015 786.482 124.82 790.046 Q126.649 793.588 130.26 793.588 Q133.895 793.588 135.7 790.046 Q137.529 786.482 137.529 779.375 Q137.529 772.246 135.7 768.704 Q133.895 765.139 130.26 765.139 M130.26 761.436 Q136.07 761.436 139.126 766.042 Q142.205 770.625 142.205 779.375 Q142.205 788.102 139.126 792.709 Q136.07 797.292 130.26 797.292 Q124.45 797.292 121.371 792.709 Q118.316 788.102 118.316 779.375 Q118.316 770.625 121.371 766.042 Q124.45 761.436 130.26 761.436 Z" fill="#000000" fill-rule="evenodd" fill-opacity="1" /><path clip-path="url(#clip420)" d="M 0 0 M76.6495 444.29 Q73.5013 444.29 71.6495 446.442 Q69.8208 448.595 69.8208 452.345 Q69.8208 456.072 71.6495 458.248 Q73.5013 460.401 76.6495 460.401 Q79.7976 460.401 81.6263 458.248 Q83.4781 456.072 83.4781 452.345 Q83.4781 448.595 81.6263 446.442 Q79.7976 444.29 76.6495 444.29 M85.9318 429.637 L85.9318 433.896 Q84.1726 433.063 82.367 432.623 Q80.5846 432.183 78.8254 432.183 Q74.1958 432.183 71.7421 435.308 Q69.3115 438.433 68.9643 444.752 Q70.33 442.739 72.3902 441.674 Q74.4504 440.586 76.9272 440.586 Q82.1355 440.586 85.1448 443.757 Q88.1772 446.905 88.1772 452.345 Q88.1772 457.669 85.029 460.887 Q81.8809 464.104 76.6495 464.104 Q70.6541 464.104 67.4828 459.521 Q64.3116 454.914 64.3116 446.188 Q64.3116 437.993 68.2004 433.132 Q72.0893 428.248 78.6402 428.248 Q80.3994 428.248 82.1818 428.595 Q83.9874 428.942 85.9318 429.637 Z" fill="#000000" fill-rule="evenodd" fill-opacity="1" /><path clip-path="url(#clip420)" d="M 0 0 M103.247 431.952 Q99.6354 431.952 97.8068 435.516 Q96.0012 439.058 96.0012 446.188 Q96.0012 453.294 97.8068 456.859 Q99.6354 460.401 103.247 460.401 Q106.881 460.401 108.686 456.859 Q110.515 453.294 110.515 446.188 Q110.515 439.058 108.686 435.516 Q106.881 431.952 103.247 431.952 M103.247 428.248 Q109.057 428.248 112.112 432.854 Q115.191 437.438 115.191 446.188 Q115.191 454.914 112.112 459.521 Q109.057 464.104 103.247 464.104 Q97.4364 464.104 94.3577 459.521 Q91.3022 454.914 91.3022 446.188 Q91.3022 437.438 94.3577 432.854 Q97.4364 428.248 103.247 428.248 Z" fill="#000000" fill-rule="evenodd" fill-opacity="1" /><path clip-path="url(#clip420)" d="M 0 0 M130.26 431.952 Q126.649 431.952 124.82 435.516 Q123.015 439.058 123.015 446.188 Q123.015 453.294 124.82 456.859 Q126.649 460.401 130.26 460.401 Q133.895 460.401 135.7 456.859 Q137.529 453.294 137.529 446.188 Q137.529 439.058 135.7 435.516 Q133.895 431.952 130.26 431.952 M130.26 428.248 Q136.07 428.248 139.126 432.854 Q142.205 437.438 142.205 446.188 Q142.205 454.914 139.126 459.521 Q136.07 464.104 130.26 464.104 Q124.45 464.104 121.371 459.521 Q118.316 454.914 118.316 446.188 Q118.316 437.438 121.371 432.854 Q124.45 428.248 130.26 428.248 Z" fill="#000000" fill-rule="evenodd" fill-opacity="1" /><path clip-path="url(#clip420)" d="M 0 0 M76.3254 113.833 Q72.9921 113.833 71.0708 115.616 Q69.1726 117.398 69.1726 120.523 Q69.1726 123.648 71.0708 125.431 Q72.9921 127.213 76.3254 127.213 Q79.6587 127.213 81.58 125.431 Q83.5013 123.625 83.5013 120.523 Q83.5013 117.398 81.58 115.616 Q79.6819 113.833 76.3254 113.833 M71.6495 111.843 Q68.6402 111.102 66.9504 109.042 Q65.2838 106.982 65.2838 104.019 Q65.2838 99.8751 68.2236 97.4677 Q71.1865 95.0603 76.3254 95.0603 Q81.4874 95.0603 84.4272 97.4677 Q87.367 99.8751 87.367 104.019 Q87.367 106.982 85.6772 109.042 Q84.0105 111.102 81.0244 111.843 Q84.404 112.63 86.279 114.921 Q88.1772 117.213 88.1772 120.523 Q88.1772 125.546 85.0985 128.231 Q82.0429 130.917 76.3254 130.917 Q70.6078 130.917 67.5291 128.231 Q64.4736 125.546 64.4736 120.523 Q64.4736 117.213 66.3717 114.921 Q68.2699 112.63 71.6495 111.843 M69.9365 104.458 Q69.9365 107.144 71.6032 108.648 Q73.293 110.153 76.3254 110.153 Q79.3346 110.153 81.0244 108.648 Q82.7374 107.144 82.7374 104.458 Q82.7374 101.773 81.0244 100.269 Q79.3346 98.764 76.3254 98.764 Q73.293 98.764 71.6032 100.269 Q69.9365 101.773 69.9365 104.458 Z" fill="#000000" fill-rule="evenodd" fill-opacity="1" /><path clip-path="url(#clip420)" d="M 0 0 M103.247 98.764 Q99.6354 98.764 97.8068 102.329 Q96.0012 105.87 96.0012 113 Q96.0012 120.107 97.8068 123.671 Q99.6354 127.213 103.247 127.213 Q106.881 127.213 108.686 123.671 Q110.515 120.107 110.515 113 Q110.515 105.87 108.686 102.329 Q106.881 98.764 103.247 98.764 M103.247 95.0603 Q109.057 95.0603 112.112 99.6668 Q115.191 104.25 115.191 113 Q115.191 121.727 112.112 126.333 Q109.057 130.917 103.247 130.917 Q97.4364 130.917 94.3577 126.333 Q91.3022 121.727 91.3022 113 Q91.3022 104.25 94.3577 99.6668 Q97.4364 95.0603 103.247 95.0603 Z" fill="#000000" fill-rule="evenodd" fill-opacity="1" /><path clip-path="url(#clip420)" d="M 0 0 M130.26 98.764 Q126.649 98.764 124.82 102.329 Q123.015 105.87 123.015 113 Q123.015 120.107 124.82 123.671 Q126.649 127.213 130.26 127.213 Q133.895 127.213 135.7 123.671 Q137.529 120.107 137.529 113 Q137.529 105.87 135.7 102.329 Q133.895 98.764 130.26 98.764 M130.26 95.0603 Q136.07 95.0603 139.126 99.6668 Q142.205 104.25 142.205 113 Q142.205 121.727 139.126 126.333 Q136.07 130.917 130.26 130.917 Q124.45 130.917 121.371 126.333 Q118.316 121.727 118.316 113 Q118.316 104.25 121.371 99.6668 Q124.45 95.0603 130.26 95.0603 Z" fill="#000000" fill-rule="evenodd" fill-opacity="1" /><path clip-path="url(#clip422)" d="
M286.469 1444.05 L286.469 1445.72 L315.954 1445.72 L315.954 1444.05 L286.469 1444.05 L286.469 1444.05  Z
  " fill="#009af9" fill-rule="evenodd" fill-opacity="1"/>
<polyline clip-path="url(#clip422)" style="stroke:#000000; stroke-width:4; stroke-opacity:1; fill:none" points="
  286.469,1444.05 286.469,1445.72 315.954,1445.72 315.954,1444.05 286.469,1444.05 
  "/>
<path clip-path="url(#clip422)" d="
M315.954 1445.72 L315.954 1445.72 L345.439 1445.72 L345.439 1445.72 L315.954 1445.72 L315.954 1445.72  Z
  " fill="#009af9" fill-rule="evenodd" fill-opacity="1"/>
<polyline clip-path="url(#clip422)" style="stroke:#000000; stroke-width:4; stroke-opacity:1; fill:none" points="
  315.954,1445.72 315.954,1445.72 345.439,1445.72 315.954,1445.72 
  "/>
<path clip-path="url(#clip422)" d="
M345.439 1444.05 L345.439 1445.72 L374.924 1445.72 L374.924 1444.05 L345.439 1444.05 L345.439 1444.05  Z
  " fill="#009af9" fill-rule="evenodd" fill-opacity="1"/>
<polyline clip-path="url(#clip422)" style="stroke:#000000; stroke-width:4; stroke-opacity:1; fill:none" points="
  345.439,1444.05 345.439,1445.72 374.924,1445.72 374.924,1444.05 345.439,1444.05 
  "/>
<path clip-path="url(#clip422)" d="
M374.924 1445.72 L374.924 1445.72 L404.41 1445.72 L404.41 1445.72 L374.924 1445.72 L374.924 1445.72  Z
  " fill="#009af9" fill-rule="evenodd" fill-opacity="1"/>
<polyline clip-path="url(#clip422)" style="stroke:#000000; stroke-width:4; stroke-opacity:1; fill:none" points="
  374.924,1445.72 374.924,1445.72 404.41,1445.72 374.924,1445.72 
  "/>
<path clip-path="url(#clip422)" d="
M404.41 1444.05 L404.41 1445.72 L433.895 1445.72 L433.895 1444.05 L404.41 1444.05 L404.41 1444.05  Z
  " fill="#009af9" fill-rule="evenodd" fill-opacity="1"/>
<polyline clip-path="url(#clip422)" style="stroke:#000000; stroke-width:4; stroke-opacity:1; fill:none" points="
  404.41,1444.05 404.41,1445.72 433.895,1445.72 433.895,1444.05 404.41,1444.05 
  "/>
<path clip-path="url(#clip422)" d="
M433.895 1440.72 L433.895 1445.72 L463.38 1445.72 L463.38 1440.72 L433.895 1440.72 L433.895 1440.72  Z
  " fill="#009af9" fill-rule="evenodd" fill-opacity="1"/>
<polyline clip-path="url(#clip422)" style="stroke:#000000; stroke-width:4; stroke-opacity:1; fill:none" points="
  433.895,1440.72 433.895,1445.72 463.38,1445.72 463.38,1440.72 433.895,1440.72 
  "/>
<path clip-path="url(#clip422)" d="
M463.38 1437.39 L463.38 1445.72 L492.865 1445.72 L492.865 1437.39 L463.38 1437.39 L463.38 1437.39  Z
  " fill="#009af9" fill-rule="evenodd" fill-opacity="1"/>
<polyline clip-path="url(#clip422)" style="stroke:#000000; stroke-width:4; stroke-opacity:1; fill:none" points="
  463.38,1437.39 463.38,1445.72 492.865,1445.72 492.865,1437.39 463.38,1437.39 
  "/>
<path clip-path="url(#clip422)" d="
M492.865 1435.72 L492.865 1445.72 L522.35 1445.72 L522.35 1435.72 L492.865 1435.72 L492.865 1435.72  Z
  " fill="#009af9" fill-rule="evenodd" fill-opacity="1"/>
<polyline clip-path="url(#clip422)" style="stroke:#000000; stroke-width:4; stroke-opacity:1; fill:none" points="
  492.865,1435.72 492.865,1445.72 522.35,1445.72 522.35,1435.72 492.865,1435.72 
  "/>
<path clip-path="url(#clip422)" d="
M522.35 1439.05 L522.35 1445.72 L551.836 1445.72 L551.836 1439.05 L522.35 1439.05 L522.35 1439.05  Z
  " fill="#009af9" fill-rule="evenodd" fill-opacity="1"/>
<polyline clip-path="url(#clip422)" style="stroke:#000000; stroke-width:4; stroke-opacity:1; fill:none" points="
  522.35,1439.05 522.35,1445.72 551.836,1445.72 551.836,1439.05 522.35,1439.05 
  "/>
<path clip-path="url(#clip422)" d="
M551.836 1434.05 L551.836 1445.72 L581.321 1445.72 L581.321 1434.05 L551.836 1434.05 L551.836 1434.05  Z
  " fill="#009af9" fill-rule="evenodd" fill-opacity="1"/>
<polyline clip-path="url(#clip422)" style="stroke:#000000; stroke-width:4; stroke-opacity:1; fill:none" points="
  551.836,1434.05 551.836,1445.72 581.321,1445.72 581.321,1434.05 551.836,1434.05 
  "/>
<path clip-path="url(#clip422)" d="
M581.321 1434.05 L581.321 1445.72 L610.806 1445.72 L610.806 1434.05 L581.321 1434.05 L581.321 1434.05  Z
  " fill="#009af9" fill-rule="evenodd" fill-opacity="1"/>
<polyline clip-path="url(#clip422)" style="stroke:#000000; stroke-width:4; stroke-opacity:1; fill:none" points="
  581.321,1434.05 581.321,1445.72 610.806,1445.72 610.806,1434.05 581.321,1434.05 
  "/>
<path clip-path="url(#clip422)" d="
M610.806 1425.72 L610.806 1445.72 L640.291 1445.72 L640.291 1425.72 L610.806 1425.72 L610.806 1425.72  Z
  " fill="#009af9" fill-rule="evenodd" fill-opacity="1"/>
<polyline clip-path="url(#clip422)" style="stroke:#000000; stroke-width:4; stroke-opacity:1; fill:none" points="
  610.806,1425.72 610.806,1445.72 640.291,1445.72 640.291,1425.72 610.806,1425.72 
  "/>
<path clip-path="url(#clip422)" d="
M640.291 1430.72 L640.291 1445.72 L669.776 1445.72 L669.776 1430.72 L640.291 1430.72 L640.291 1430.72  Z
  " fill="#009af9" fill-rule="evenodd" fill-opacity="1"/>
<polyline clip-path="url(#clip422)" style="stroke:#000000; stroke-width:4; stroke-opacity:1; fill:none" points="
  640.291,1430.72 640.291,1445.72 669.776,1445.72 669.776,1430.72 640.291,1430.72 
  "/>
<path clip-path="url(#clip422)" d="
M669.776 1419.06 L669.776 1445.72 L699.262 1445.72 L699.262 1419.06 L669.776 1419.06 L669.776 1419.06  Z
  " fill="#009af9" fill-rule="evenodd" fill-opacity="1"/>
<polyline clip-path="url(#clip422)" style="stroke:#000000; stroke-width:4; stroke-opacity:1; fill:none" points="
  669.776,1419.06 669.776,1445.72 699.262,1445.72 699.262,1419.06 669.776,1419.06 
  "/>
<path clip-path="url(#clip422)" d="
M699.262 1417.39 L699.262 1445.72 L728.747 1445.72 L728.747 1417.39 L699.262 1417.39 L699.262 1417.39  Z
  " fill="#009af9" fill-rule="evenodd" fill-opacity="1"/>
<polyline clip-path="url(#clip422)" style="stroke:#000000; stroke-width:4; stroke-opacity:1; fill:none" points="
  699.262,1417.39 699.262,1445.72 728.747,1445.72 728.747,1417.39 699.262,1417.39 
  "/>
<path clip-path="url(#clip422)" d="
M728.747 1417.39 L728.747 1445.72 L758.232 1445.72 L758.232 1417.39 L728.747 1417.39 L728.747 1417.39  Z
  " fill="#009af9" fill-rule="evenodd" fill-opacity="1"/>
<polyline clip-path="url(#clip422)" style="stroke:#000000; stroke-width:4; stroke-opacity:1; fill:none" points="
  728.747,1417.39 728.747,1445.72 758.232,1445.72 758.232,1417.39 728.747,1417.39 
  "/>
<path clip-path="url(#clip422)" d="
M758.232 1395.74 L758.232 1445.72 L787.717 1445.72 L787.717 1395.74 L758.232 1395.74 L758.232 1395.74  Z
  " fill="#009af9" fill-rule="evenodd" fill-opacity="1"/>
<polyline clip-path="url(#clip422)" style="stroke:#000000; stroke-width:4; stroke-opacity:1; fill:none" points="
  758.232,1395.74 758.232,1445.72 787.717,1445.72 787.717,1395.74 758.232,1395.74 
  "/>
<path clip-path="url(#clip422)" d="
M787.717 1370.75 L787.717 1445.72 L817.202 1445.72 L817.202 1370.75 L787.717 1370.75 L787.717 1370.75  Z
  " fill="#009af9" fill-rule="evenodd" fill-opacity="1"/>
<polyline clip-path="url(#clip422)" style="stroke:#000000; stroke-width:4; stroke-opacity:1; fill:none" points="
  787.717,1370.75 787.717,1445.72 817.202,1445.72 817.202,1370.75 787.717,1370.75 
  "/>
<path clip-path="url(#clip422)" d="
M817.202 1367.42 L817.202 1445.72 L846.688 1445.72 L846.688 1367.42 L817.202 1367.42 L817.202 1367.42  Z
  " fill="#009af9" fill-rule="evenodd" fill-opacity="1"/>
<polyline clip-path="url(#clip422)" style="stroke:#000000; stroke-width:4; stroke-opacity:1; fill:none" points="
  817.202,1367.42 817.202,1445.72 846.688,1445.72 846.688,1367.42 817.202,1367.42 
  "/>
<path clip-path="url(#clip422)" d="
M846.688 1390.74 L846.688 1445.72 L876.173 1445.72 L876.173 1390.74 L846.688 1390.74 L846.688 1390.74  Z
  " fill="#009af9" fill-rule="evenodd" fill-opacity="1"/>
<polyline clip-path="url(#clip422)" style="stroke:#000000; stroke-width:4; stroke-opacity:1; fill:none" points="
  846.688,1390.74 846.688,1445.72 876.173,1445.72 876.173,1390.74 846.688,1390.74 
  "/>
<path clip-path="url(#clip422)" d="
M876.173 1359.09 L876.173 1445.72 L905.658 1445.72 L905.658 1359.09 L876.173 1359.09 L876.173 1359.09  Z
  " fill="#009af9" fill-rule="evenodd" fill-opacity="1"/>
<polyline clip-path="url(#clip422)" style="stroke:#000000; stroke-width:4; stroke-opacity:1; fill:none" points="
  876.173,1359.09 876.173,1445.72 905.658,1445.72 905.658,1359.09 876.173,1359.09 
  "/>
<path clip-path="url(#clip422)" d="
M905.658 1374.08 L905.658 1445.72 L935.143 1445.72 L935.143 1374.08 L905.658 1374.08 L905.658 1374.08  Z
  " fill="#009af9" fill-rule="evenodd" fill-opacity="1"/>
<polyline clip-path="url(#clip422)" style="stroke:#000000; stroke-width:4; stroke-opacity:1; fill:none" points="
  905.658,1374.08 905.658,1445.72 935.143,1445.72 935.143,1374.08 905.658,1374.08 
  "/>
<path clip-path="url(#clip422)" d="
M935.143 1335.76 L935.143 1445.72 L964.628 1445.72 L964.628 1335.76 L935.143 1335.76 L935.143 1335.76  Z
  " fill="#009af9" fill-rule="evenodd" fill-opacity="1"/>
<polyline clip-path="url(#clip422)" style="stroke:#000000; stroke-width:4; stroke-opacity:1; fill:none" points="
  935.143,1335.76 935.143,1445.72 964.628,1445.72 964.628,1335.76 935.143,1335.76 
  "/>
<path clip-path="url(#clip422)" d="
M964.628 1337.43 L964.628 1445.72 L994.114 1445.72 L994.114 1337.43 L964.628 1337.43 L964.628 1337.43  Z
  " fill="#009af9" fill-rule="evenodd" fill-opacity="1"/>
<polyline clip-path="url(#clip422)" style="stroke:#000000; stroke-width:4; stroke-opacity:1; fill:none" points="
  964.628,1337.43 964.628,1445.72 994.114,1445.72 994.114,1337.43 964.628,1337.43 
  "/>
<path clip-path="url(#clip422)" d="
M994.114 1310.77 L994.114 1445.72 L1023.6 1445.72 L1023.6 1310.77 L994.114 1310.77 L994.114 1310.77  Z
  " fill="#009af9" fill-rule="evenodd" fill-opacity="1"/>
<polyline clip-path="url(#clip422)" style="stroke:#000000; stroke-width:4; stroke-opacity:1; fill:none" points="
  994.114,1310.77 994.114,1445.72 1023.6,1445.72 1023.6,1310.77 994.114,1310.77 
  "/>
<path clip-path="url(#clip422)" d="
M1023.6 1317.44 L1023.6 1445.72 L1053.08 1445.72 L1053.08 1317.44 L1023.6 1317.44 L1023.6 1317.44  Z
  " fill="#009af9" fill-rule="evenodd" fill-opacity="1"/>
<polyline clip-path="url(#clip422)" style="stroke:#000000; stroke-width:4; stroke-opacity:1; fill:none" points="
  1023.6,1317.44 1023.6,1445.72 1053.08,1445.72 1053.08,1317.44 1023.6,1317.44 
  "/>
<path clip-path="url(#clip422)" d="
M1053.08 1305.78 L1053.08 1445.72 L1082.57 1445.72 L1082.57 1305.78 L1053.08 1305.78 L1053.08 1305.78  Z
  " fill="#009af9" fill-rule="evenodd" fill-opacity="1"/>
<polyline clip-path="url(#clip422)" style="stroke:#000000; stroke-width:4; stroke-opacity:1; fill:none" points="
  1053.08,1305.78 1053.08,1445.72 1082.57,1445.72 1082.57,1305.78 1053.08,1305.78 
  "/>
<path clip-path="url(#clip422)" d="
M1082.57 1299.11 L1082.57 1445.72 L1112.05 1445.72 L1112.05 1299.11 L1082.57 1299.11 L1082.57 1299.11  Z
  " fill="#009af9" fill-rule="evenodd" fill-opacity="1"/>
<polyline clip-path="url(#clip422)" style="stroke:#000000; stroke-width:4; stroke-opacity:1; fill:none" points="
  1082.57,1299.11 1082.57,1445.72 1112.05,1445.72 1112.05,1299.11 1082.57,1299.11 
  "/>
<path clip-path="url(#clip422)" d="
M1112.05 1294.12 L1112.05 1445.72 L1141.54 1445.72 L1141.54 1294.12 L1112.05 1294.12 L1112.05 1294.12  Z
  " fill="#009af9" fill-rule="evenodd" fill-opacity="1"/>
<polyline clip-path="url(#clip422)" style="stroke:#000000; stroke-width:4; stroke-opacity:1; fill:none" points="
  1112.05,1294.12 1112.05,1445.72 1141.54,1445.72 1141.54,1294.12 1112.05,1294.12 
  "/>
<path clip-path="url(#clip422)" d="
M1141.54 1257.46 L1141.54 1445.72 L1171.02 1445.72 L1171.02 1257.46 L1141.54 1257.46 L1141.54 1257.46  Z
  " fill="#009af9" fill-rule="evenodd" fill-opacity="1"/>
<polyline clip-path="url(#clip422)" style="stroke:#000000; stroke-width:4; stroke-opacity:1; fill:none" points="
  1141.54,1257.46 1141.54,1445.72 1171.02,1445.72 1171.02,1257.46 1141.54,1257.46 
  "/>
<path clip-path="url(#clip422)" d="
M1171.02 1275.79 L1171.02 1445.72 L1200.51 1445.72 L1200.51 1275.79 L1171.02 1275.79 L1171.02 1275.79  Z
  " fill="#009af9" fill-rule="evenodd" fill-opacity="1"/>
<polyline clip-path="url(#clip422)" style="stroke:#000000; stroke-width:4; stroke-opacity:1; fill:none" points="
  1171.02,1275.79 1171.02,1445.72 1200.51,1445.72 1200.51,1275.79 1171.02,1275.79 
  "/>
<path clip-path="url(#clip422)" d="
M1200.51 1260.8 L1200.51 1445.72 L1230 1445.72 L1230 1260.8 L1200.51 1260.8 L1200.51 1260.8  Z
  " fill="#009af9" fill-rule="evenodd" fill-opacity="1"/>
<polyline clip-path="url(#clip422)" style="stroke:#000000; stroke-width:4; stroke-opacity:1; fill:none" points="
  1200.51,1260.8 1200.51,1445.72 1230,1445.72 1230,1260.8 1200.51,1260.8 
  "/>
<path clip-path="url(#clip422)" d="
M1230 1235.81 L1230 1445.72 L1259.48 1445.72 L1259.48 1235.81 L1230 1235.81 L1230 1235.81  Z
  " fill="#009af9" fill-rule="evenodd" fill-opacity="1"/>
<polyline clip-path="url(#clip422)" style="stroke:#000000; stroke-width:4; stroke-opacity:1; fill:none" points="
  1230,1235.81 1230,1445.72 1259.48,1445.72 1259.48,1235.81 1230,1235.81 
  "/>
<path clip-path="url(#clip422)" d="
M1259.48 1269.13 L1259.48 1445.72 L1288.97 1445.72 L1288.97 1269.13 L1259.48 1269.13 L1259.48 1269.13  Z
  " fill="#009af9" fill-rule="evenodd" fill-opacity="1"/>
<polyline clip-path="url(#clip422)" style="stroke:#000000; stroke-width:4; stroke-opacity:1; fill:none" points="
  1259.48,1269.13 1259.48,1445.72 1288.97,1445.72 1288.97,1269.13 1259.48,1269.13 
  "/>
<path clip-path="url(#clip422)" d="
M1288.97 1260.8 L1288.97 1445.72 L1318.45 1445.72 L1318.45 1260.8 L1288.97 1260.8 L1288.97 1260.8  Z
  " fill="#009af9" fill-rule="evenodd" fill-opacity="1"/>
<polyline clip-path="url(#clip422)" style="stroke:#000000; stroke-width:4; stroke-opacity:1; fill:none" points="
  1288.97,1260.8 1288.97,1445.72 1318.45,1445.72 1318.45,1260.8 1288.97,1260.8 
  "/>
<path clip-path="url(#clip422)" d="
M1318.45 1244.14 L1318.45 1445.72 L1347.94 1445.72 L1347.94 1244.14 L1318.45 1244.14 L1318.45 1244.14  Z
  " fill="#009af9" fill-rule="evenodd" fill-opacity="1"/>
<polyline clip-path="url(#clip422)" style="stroke:#000000; stroke-width:4; stroke-opacity:1; fill:none" points="
  1318.45,1244.14 1318.45,1445.72 1347.94,1445.72 1347.94,1244.14 1318.45,1244.14 
  "/>
<path clip-path="url(#clip422)" d="
M1347.94 1197.49 L1347.94 1445.72 L1377.42 1445.72 L1377.42 1197.49 L1347.94 1197.49 L1347.94 1197.49  Z
  " fill="#009af9" fill-rule="evenodd" fill-opacity="1"/>
<polyline clip-path="url(#clip422)" style="stroke:#000000; stroke-width:4; stroke-opacity:1; fill:none" points="
  1347.94,1197.49 1347.94,1445.72 1377.42,1445.72 1377.42,1197.49 1347.94,1197.49 
  "/>
<path clip-path="url(#clip422)" d="
M1377.42 779.341 L1377.42 1445.72 L1406.91 1445.72 L1406.91 779.341 L1377.42 779.341 L1377.42 779.341  Z
  " fill="#009af9" fill-rule="evenodd" fill-opacity="1"/>
<polyline clip-path="url(#clip422)" style="stroke:#000000; stroke-width:4; stroke-opacity:1; fill:none" points="
  1377.42,779.341 1377.42,1445.72 1406.91,1445.72 1406.91,779.341 1377.42,779.341 
  "/>
<path clip-path="url(#clip422)" d="
M1406.91 87.9763 L1406.91 1445.72 L1436.39 1445.72 L1436.39 87.9763 L1406.91 87.9763 L1406.91 87.9763  Z
  " fill="#009af9" fill-rule="evenodd" fill-opacity="1"/>
<polyline clip-path="url(#clip422)" style="stroke:#000000; stroke-width:4; stroke-opacity:1; fill:none" points="
  1406.91,87.9763 1406.91,1445.72 1436.39,1445.72 1436.39,87.9763 1406.91,87.9763 
  "/>
<path clip-path="url(#clip422)" d="
M1436.39 131.291 L1436.39 1445.72 L1465.88 1445.72 L1465.88 131.291 L1436.39 131.291 L1436.39 131.291  Z
  " fill="#009af9" fill-rule="evenodd" fill-opacity="1"/>
<polyline clip-path="url(#clip422)" style="stroke:#000000; stroke-width:4; stroke-opacity:1; fill:none" points="
  1436.39,131.291 1436.39,1445.72 1465.88,1445.72 1465.88,131.291 1436.39,131.291 
  "/>
<path clip-path="url(#clip422)" d="
M1465.88 800.998 L1465.88 1445.72 L1495.36 1445.72 L1495.36 800.998 L1465.88 800.998 L1465.88 800.998  Z
  " fill="#009af9" fill-rule="evenodd" fill-opacity="1"/>
<polyline clip-path="url(#clip422)" style="stroke:#000000; stroke-width:4; stroke-opacity:1; fill:none" points="
  1465.88,800.998 1465.88,1445.72 1495.36,1445.72 1495.36,800.998 1465.88,800.998 
  "/>
<path clip-path="url(#clip422)" d="
M1495.36 1197.49 L1495.36 1445.72 L1524.85 1445.72 L1524.85 1197.49 L1495.36 1197.49 L1495.36 1197.49  Z
  " fill="#009af9" fill-rule="evenodd" fill-opacity="1"/>
<polyline clip-path="url(#clip422)" style="stroke:#000000; stroke-width:4; stroke-opacity:1; fill:none" points="
  1495.36,1197.49 1495.36,1445.72 1524.85,1445.72 1524.85,1197.49 1495.36,1197.49 
  "/>
<path clip-path="url(#clip422)" d="
M1524.85 1317.44 L1524.85 1445.72 L1554.33 1445.72 L1554.33 1317.44 L1524.85 1317.44 L1524.85 1317.44  Z
  " fill="#009af9" fill-rule="evenodd" fill-opacity="1"/>
<polyline clip-path="url(#clip422)" style="stroke:#000000; stroke-width:4; stroke-opacity:1; fill:none" points="
  1524.85,1317.44 1524.85,1445.72 1554.33,1445.72 1554.33,1317.44 1524.85,1317.44 
  "/>
<path clip-path="url(#clip422)" d="
M1554.33 1347.43 L1554.33 1445.72 L1583.82 1445.72 L1583.82 1347.43 L1554.33 1347.43 L1554.33 1347.43  Z
  " fill="#009af9" fill-rule="evenodd" fill-opacity="1"/>
<polyline clip-path="url(#clip422)" style="stroke:#000000; stroke-width:4; stroke-opacity:1; fill:none" points="
  1554.33,1347.43 1554.33,1445.72 1583.82,1445.72 1583.82,1347.43 1554.33,1347.43 
  "/>
<path clip-path="url(#clip422)" d="
M1583.82 1337.43 L1583.82 1445.72 L1613.3 1445.72 L1613.3 1337.43 L1583.82 1337.43 L1583.82 1337.43  Z
  " fill="#009af9" fill-rule="evenodd" fill-opacity="1"/>
<polyline clip-path="url(#clip422)" style="stroke:#000000; stroke-width:4; stroke-opacity:1; fill:none" points="
  1583.82,1337.43 1583.82,1445.72 1613.3,1445.72 1613.3,1337.43 1583.82,1337.43 
  "/>
<path clip-path="url(#clip422)" d="
M1613.3 1342.43 L1613.3 1445.72 L1642.79 1445.72 L1642.79 1342.43 L1613.3 1342.43 L1613.3 1342.43  Z
  " fill="#009af9" fill-rule="evenodd" fill-opacity="1"/>
<polyline clip-path="url(#clip422)" style="stroke:#000000; stroke-width:4; stroke-opacity:1; fill:none" points="
  1613.3,1342.43 1613.3,1445.72 1642.79,1445.72 1642.79,1342.43 1613.3,1342.43 
  "/>
<path clip-path="url(#clip422)" d="
M1642.79 1367.42 L1642.79 1445.72 L1672.27 1445.72 L1672.27 1367.42 L1642.79 1367.42 L1642.79 1367.42  Z
  " fill="#009af9" fill-rule="evenodd" fill-opacity="1"/>
<polyline clip-path="url(#clip422)" style="stroke:#000000; stroke-width:4; stroke-opacity:1; fill:none" points="
  1642.79,1367.42 1642.79,1445.72 1672.27,1445.72 1672.27,1367.42 1642.79,1367.42 
  "/>
<path clip-path="url(#clip422)" d="
M1672.27 1364.08 L1672.27 1445.72 L1701.76 1445.72 L1701.76 1364.08 L1672.27 1364.08 L1672.27 1364.08  Z
  " fill="#009af9" fill-rule="evenodd" fill-opacity="1"/>
<polyline clip-path="url(#clip422)" style="stroke:#000000; stroke-width:4; stroke-opacity:1; fill:none" points="
  1672.27,1364.08 1672.27,1445.72 1701.76,1445.72 1701.76,1364.08 1672.27,1364.08 
  "/>
<path clip-path="url(#clip422)" d="
M1701.76 1365.75 L1701.76 1445.72 L1731.24 1445.72 L1731.24 1365.75 L1701.76 1365.75 L1701.76 1365.75  Z
  " fill="#009af9" fill-rule="evenodd" fill-opacity="1"/>
<polyline clip-path="url(#clip422)" style="stroke:#000000; stroke-width:4; stroke-opacity:1; fill:none" points="
  1701.76,1365.75 1701.76,1445.72 1731.24,1445.72 1731.24,1365.75 1701.76,1365.75 
  "/>
<path clip-path="url(#clip422)" d="
M1731.24 1384.08 L1731.24 1445.72 L1760.73 1445.72 L1760.73 1384.08 L1731.24 1384.08 L1731.24 1384.08  Z
  " fill="#009af9" fill-rule="evenodd" fill-opacity="1"/>
<polyline clip-path="url(#clip422)" style="stroke:#000000; stroke-width:4; stroke-opacity:1; fill:none" points="
  1731.24,1384.08 1731.24,1445.72 1760.73,1445.72 1760.73,1384.08 1731.24,1384.08 
  "/>
<path clip-path="url(#clip422)" d="
M1760.73 1395.74 L1760.73 1445.72 L1790.21 1445.72 L1790.21 1395.74 L1760.73 1395.74 L1760.73 1395.74  Z
  " fill="#009af9" fill-rule="evenodd" fill-opacity="1"/>
<polyline clip-path="url(#clip422)" style="stroke:#000000; stroke-width:4; stroke-opacity:1; fill:none" points="
  1760.73,1395.74 1760.73,1445.72 1790.21,1445.72 1790.21,1395.74 1760.73,1395.74 
  "/>
<path clip-path="url(#clip422)" d="
M1790.21 1407.4 L1790.21 1445.72 L1819.7 1445.72 L1819.7 1407.4 L1790.21 1407.4 L1790.21 1407.4  Z
  " fill="#009af9" fill-rule="evenodd" fill-opacity="1"/>
<polyline clip-path="url(#clip422)" style="stroke:#000000; stroke-width:4; stroke-opacity:1; fill:none" points="
  1790.21,1407.4 1790.21,1445.72 1819.7,1445.72 1819.7,1407.4 1790.21,1407.4 
  "/>
<path clip-path="url(#clip422)" d="
M1819.7 1400.74 L1819.7 1445.72 L1849.18 1445.72 L1849.18 1400.74 L1819.7 1400.74 L1819.7 1400.74  Z
  " fill="#009af9" fill-rule="evenodd" fill-opacity="1"/>
<polyline clip-path="url(#clip422)" style="stroke:#000000; stroke-width:4; stroke-opacity:1; fill:none" points="
  1819.7,1400.74 1819.7,1445.72 1849.18,1445.72 1849.18,1400.74 1819.7,1400.74 
  "/>
<path clip-path="url(#clip422)" d="
M1849.18 1402.4 L1849.18 1445.72 L1878.67 1445.72 L1878.67 1402.4 L1849.18 1402.4 L1849.18 1402.4  Z
  " fill="#009af9" fill-rule="evenodd" fill-opacity="1"/>
<polyline clip-path="url(#clip422)" style="stroke:#000000; stroke-width:4; stroke-opacity:1; fill:none" points="
  1849.18,1402.4 1849.18,1445.72 1878.67,1445.72 1878.67,1402.4 1849.18,1402.4 
  "/>
<path clip-path="url(#clip422)" d="
M1878.67 1424.06 L1878.67 1445.72 L1908.15 1445.72 L1908.15 1424.06 L1878.67 1424.06 L1878.67 1424.06  Z
  " fill="#009af9" fill-rule="evenodd" fill-opacity="1"/>
<polyline clip-path="url(#clip422)" style="stroke:#000000; stroke-width:4; stroke-opacity:1; fill:none" points="
  1878.67,1424.06 1878.67,1445.72 1908.15,1445.72 1908.15,1424.06 1878.67,1424.06 
  "/>
<path clip-path="url(#clip422)" d="
M1908.15 1435.72 L1908.15 1445.72 L1937.64 1445.72 L1937.64 1435.72 L1908.15 1435.72 L1908.15 1435.72  Z
  " fill="#009af9" fill-rule="evenodd" fill-opacity="1"/>
<polyline clip-path="url(#clip422)" style="stroke:#000000; stroke-width:4; stroke-opacity:1; fill:none" points="
  1908.15,1435.72 1908.15,1445.72 1937.64,1445.72 1937.64,1435.72 1908.15,1435.72 
  "/>
<path clip-path="url(#clip422)" d="
M1937.64 1425.72 L1937.64 1445.72 L1967.12 1445.72 L1967.12 1425.72 L1937.64 1425.72 L1937.64 1425.72  Z
  " fill="#009af9" fill-rule="evenodd" fill-opacity="1"/>
<polyline clip-path="url(#clip422)" style="stroke:#000000; stroke-width:4; stroke-opacity:1; fill:none" points="
  1937.64,1425.72 1937.64,1445.72 1967.12,1445.72 1967.12,1425.72 1937.64,1425.72 
  "/>
<path clip-path="url(#clip422)" d="
M1967.12 1427.39 L1967.12 1445.72 L1996.61 1445.72 L1996.61 1427.39 L1967.12 1427.39 L1967.12 1427.39  Z
  " fill="#009af9" fill-rule="evenodd" fill-opacity="1"/>
<polyline clip-path="url(#clip422)" style="stroke:#000000; stroke-width:4; stroke-opacity:1; fill:none" points="
  1967.12,1427.39 1967.12,1445.72 1996.61,1445.72 1996.61,1427.39 1967.12,1427.39 
  "/>
<path clip-path="url(#clip422)" d="
M1996.61 1432.39 L1996.61 1445.72 L2026.1 1445.72 L2026.1 1432.39 L1996.61 1432.39 L1996.61 1432.39  Z
  " fill="#009af9" fill-rule="evenodd" fill-opacity="1"/>
<polyline clip-path="url(#clip422)" style="stroke:#000000; stroke-width:4; stroke-opacity:1; fill:none" points="
  1996.61,1432.39 1996.61,1445.72 2026.1,1445.72 2026.1,1432.39 1996.61,1432.39 
  "/>
<path clip-path="url(#clip422)" d="
M2026.1 1442.38 L2026.1 1445.72 L2055.58 1445.72 L2055.58 1442.38 L2026.1 1442.38 L2026.1 1442.38  Z
  " fill="#009af9" fill-rule="evenodd" fill-opacity="1"/>
<polyline clip-path="url(#clip422)" style="stroke:#000000; stroke-width:4; stroke-opacity:1; fill:none" points="
  2026.1,1442.38 2026.1,1445.72 2055.58,1445.72 2055.58,1442.38 2026.1,1442.38 
  "/>
<path clip-path="url(#clip422)" d="
M2055.58 1434.05 L2055.58 1445.72 L2085.07 1445.72 L2085.07 1434.05 L2055.58 1434.05 L2055.58 1434.05  Z
  " fill="#009af9" fill-rule="evenodd" fill-opacity="1"/>
<polyline clip-path="url(#clip422)" style="stroke:#000000; stroke-width:4; stroke-opacity:1; fill:none" points="
  2055.58,1434.05 2055.58,1445.72 2085.07,1445.72 2085.07,1434.05 2055.58,1434.05 
  "/>
<path clip-path="url(#clip422)" d="
M2085.07 1442.38 L2085.07 1445.72 L2114.55 1445.72 L2114.55 1442.38 L2085.07 1442.38 L2085.07 1442.38  Z
  " fill="#009af9" fill-rule="evenodd" fill-opacity="1"/>
<polyline clip-path="url(#clip422)" style="stroke:#000000; stroke-width:4; stroke-opacity:1; fill:none" points="
  2085.07,1442.38 2085.07,1445.72 2114.55,1445.72 2114.55,1442.38 2085.07,1442.38 
  "/>
<path clip-path="url(#clip422)" d="
M2114.55 1445.72 L2114.55 1445.72 L2144.04 1445.72 L2144.04 1445.72 L2114.55 1445.72 L2114.55 1445.72  Z
  " fill="#009af9" fill-rule="evenodd" fill-opacity="1"/>
<polyline clip-path="url(#clip422)" style="stroke:#000000; stroke-width:4; stroke-opacity:1; fill:none" points="
  2114.55,1445.72 2114.55,1445.72 2144.04,1445.72 2114.55,1445.72 
  "/>
<path clip-path="url(#clip422)" d="
M2144.04 1444.05 L2144.04 1445.72 L2173.52 1445.72 L2173.52 1444.05 L2144.04 1444.05 L2144.04 1444.05  Z
  " fill="#009af9" fill-rule="evenodd" fill-opacity="1"/>
<polyline clip-path="url(#clip422)" style="stroke:#000000; stroke-width:4; stroke-opacity:1; fill:none" points="
  2144.04,1444.05 2144.04,1445.72 2173.52,1445.72 2173.52,1444.05 2144.04,1444.05 
  "/>
<path clip-path="url(#clip422)" d="
M2173.52 1445.72 L2173.52 1445.72 L2203.01 1445.72 L2203.01 1445.72 L2173.52 1445.72 L2173.52 1445.72  Z
  " fill="#009af9" fill-rule="evenodd" fill-opacity="1"/>
<polyline clip-path="url(#clip422)" style="stroke:#000000; stroke-width:4; stroke-opacity:1; fill:none" points="
  2173.52,1445.72 2173.52,1445.72 2203.01,1445.72 2173.52,1445.72 
  "/>
<path clip-path="url(#clip422)" d="
M2203.01 1444.05 L2203.01 1445.72 L2232.49 1445.72 L2232.49 1444.05 L2203.01 1444.05 L2203.01 1444.05  Z
  " fill="#009af9" fill-rule="evenodd" fill-opacity="1"/>
<polyline clip-path="url(#clip422)" style="stroke:#000000; stroke-width:4; stroke-opacity:1; fill:none" points="
  2203.01,1444.05 2203.01,1445.72 2232.49,1445.72 2232.49,1444.05 2203.01,1444.05 
  "/>
<path clip-path="url(#clip420)" d="
M1989.74 251.724 L2280.76 251.724 L2280.76 130.764 L1989.74 130.764  Z
  " fill="#ffffff" fill-rule="evenodd" fill-opacity="1"/>
<polyline clip-path="url(#clip420)" style="stroke:#000000; stroke-width:4; stroke-opacity:1; fill:none" points="
  1989.74,251.724 2280.76,251.724 2280.76,130.764 1989.74,130.764 1989.74,251.724 
  "/>
<path clip-path="url(#clip420)" d="
M2013.74 215.436 L2157.74 215.436 L2157.74 167.052 L2013.74 167.052 L2013.74 215.436  Z
  " fill="#009af9" fill-rule="evenodd" fill-opacity="1"/>
<polyline clip-path="url(#clip420)" style="stroke:#000000; stroke-width:4; stroke-opacity:1; fill:none" points="
  2013.74,215.436 2157.74,215.436 2157.74,167.052 2013.74,167.052 2013.74,215.436 
  "/>
<path clip-path="url(#clip420)" d="M 0 0 M2195.58 210.931 Q2193.77 215.561 2192.06 216.973 Q2190.35 218.385 2187.48 218.385 L2184.08 218.385 L2184.08 214.82 L2186.58 214.82 Q2188.33 214.82 2189.31 213.987 Q2190.28 213.154 2191.46 210.052 L2192.22 208.107 L2181.74 182.598 L2186.25 182.598 L2194.35 202.876 L2202.46 182.598 L2206.97 182.598 L2195.58 210.931 Z" fill="#000000" fill-rule="evenodd" fill-opacity="1" /><path clip-path="url(#clip420)" d="M 0 0 M2212.85 204.589 L2220.49 204.589 L2220.49 178.223 L2212.18 179.89 L2212.18 175.631 L2220.44 173.964 L2225.12 173.964 L2225.12 204.589 L2232.76 204.589 L2232.76 208.524 L2212.85 208.524 L2212.85 204.589 Z" fill="#000000" fill-rule="evenodd" fill-opacity="1" /></svg>
