<?xml version="1.0" encoding="utf-8"?>
<svg xmlns="http://www.w3.org/2000/svg" xmlns:xlink="http://www.w3.org/1999/xlink" width="600" height="400" viewBox="0 0 2400 1600">
<defs>
  <clipPath id="clip710">
    <rect x="0" y="0" width="2400" height="1600"/>
  </clipPath>
</defs>
<path clip-path="url(#clip710)" d="
M0 1600 L2400 1600 L2400 0 L0 0  Z
  " fill="#ffffff" fill-rule="evenodd" fill-opacity="1"/>
<defs>
  <clipPath id="clip711">
    <rect x="480" y="0" width="1681" height="1600"/>
  </clipPath>
</defs>
<path clip-path="url(#clip710)" d="
M166.205 1486.45 L2352.76 1486.45 L2352.76 47.2441 L166.205 47.2441  Z
  " fill="#ffffff" fill-rule="evenodd" fill-opacity="1"/>
<defs>
  <clipPath id="clip712">
    <rect x="166" y="47" width="2188" height="1440"/>
  </clipPath>
</defs>
<polyline clip-path="url(#clip712)" style="stroke:#000000; stroke-width:2; stroke-opacity:0.1; fill:none" points="
  368.695,1486.45 368.695,47.2441 
  "/>
<polyline clip-path="url(#clip712)" style="stroke:#000000; stroke-width:2; stroke-opacity:0.1; fill:none" points="
  779.827,1486.45 779.827,47.2441 
  "/>
<polyline clip-path="url(#clip712)" style="stroke:#000000; stroke-width:2; stroke-opacity:0.1; fill:none" points="
  1190.96,1486.45 1190.96,47.2441 
  "/>
<polyline clip-path="url(#clip712)" style="stroke:#000000; stroke-width:2; stroke-opacity:0.1; fill:none" points="
  1602.09,1486.45 1602.09,47.2441 
  "/>
<polyline clip-path="url(#clip712)" style="stroke:#000000; stroke-width:2; stroke-opacity:0.1; fill:none" points="
  2013.22,1486.45 2013.22,47.2441 
  "/>
<polyline clip-path="url(#clip712)" style="stroke:#000000; stroke-width:2; stroke-opacity:0.1; fill:none" points="
  166.205,1445.72 2352.76,1445.72 
  "/>
<polyline clip-path="url(#clip712)" style="stroke:#000000; stroke-width:2; stroke-opacity:0.1; fill:none" points="
  166.205,1122.83 2352.76,1122.83 
  "/>
<polyline clip-path="url(#clip712)" style="stroke:#000000; stroke-width:2; stroke-opacity:0.1; fill:none" points="
  166.205,799.942 2352.76,799.942 
  "/>
<polyline clip-path="url(#clip712)" style="stroke:#000000; stroke-width:2; stroke-opacity:0.1; fill:none" points="
  166.205,477.055 2352.76,477.055 
  "/>
<polyline clip-path="url(#clip712)" style="stroke:#000000; stroke-width:2; stroke-opacity:0.1; fill:none" points="
  166.205,154.168 2352.76,154.168 
  "/>
<polyline clip-path="url(#clip710)" style="stroke:#000000; stroke-width:4; stroke-opacity:1; fill:none" points="
  166.205,1486.45 2352.76,1486.45 
  "/>
<polyline clip-path="url(#clip710)" style="stroke:#000000; stroke-width:4; stroke-opacity:1; fill:none" points="
  166.205,1486.45 166.205,47.2441 
  "/>
<polyline clip-path="url(#clip710)" style="stroke:#000000; stroke-width:4; stroke-opacity:1; fill:none" points="
  368.695,1486.45 368.695,1469.18 
  "/>
<polyline clip-path="url(#clip710)" style="stroke:#000000; stroke-width:4; stroke-opacity:1; fill:none" points="
  779.827,1486.45 779.827,1469.18 
  "/>
<polyline clip-path="url(#clip710)" style="stroke:#000000; stroke-width:4; stroke-opacity:1; fill:none" points="
  1190.96,1486.45 1190.96,1469.18 
  "/>
<polyline clip-path="url(#clip710)" style="stroke:#000000; stroke-width:4; stroke-opacity:1; fill:none" points="
  1602.09,1486.45 1602.09,1469.18 
  "/>
<polyline clip-path="url(#clip710)" style="stroke:#000000; stroke-width:4; stroke-opacity:1; fill:none" points="
  2013.22,1486.45 2013.22,1469.18 
  "/>
<polyline clip-path="url(#clip710)" style="stroke:#000000; stroke-width:4; stroke-opacity:1; fill:none" points="
  166.205,1445.72 192.443,1445.72 
  "/>
<polyline clip-path="url(#clip710)" style="stroke:#000000; stroke-width:4; stroke-opacity:1; fill:none" points="
  166.205,1122.83 192.443,1122.83 
  "/>
<polyline clip-path="url(#clip710)" style="stroke:#000000; stroke-width:4; stroke-opacity:1; fill:none" points="
  166.205,799.942 192.443,799.942 
  "/>
<polyline clip-path="url(#clip710)" style="stroke:#000000; stroke-width:4; stroke-opacity:1; fill:none" points="
  166.205,477.055 192.443,477.055 
  "/>
<polyline clip-path="url(#clip710)" style="stroke:#000000; stroke-width:4; stroke-opacity:1; fill:none" points="
  166.205,154.168 192.443,154.168 
  "/>
<path clip-path="url(#clip710)" d="M 0 0 M348.869 1525.04 L361.346 1525.04 L361.346 1528.83 L348.869 1528.83 L348.869 1525.04 Z" fill="#000000" fill-rule="evenodd" fill-opacity="1" /><path clip-path="url(#clip710)" d="M 0 0 M376.994 1520.78 Q373.846 1520.78 371.994 1522.93 Q370.165 1525.08 370.165 1528.83 Q370.165 1532.56 371.994 1534.73 Q373.846 1536.89 376.994 1536.89 Q380.142 1536.89 381.971 1534.73 Q383.822 1532.56 383.822 1528.83 Q383.822 1525.08 381.971 1522.93 Q380.142 1520.78 376.994 1520.78 M386.276 1506.12 L386.276 1510.38 Q384.517 1509.55 382.711 1509.11 Q380.929 1508.67 379.17 1508.67 Q374.54 1508.67 372.086 1511.8 Q369.656 1514.92 369.309 1521.24 Q370.674 1519.23 372.735 1518.16 Q374.795 1517.07 377.272 1517.07 Q382.48 1517.07 385.489 1520.24 Q388.521 1523.39 388.521 1528.83 Q388.521 1534.16 385.373 1537.37 Q382.225 1540.59 376.994 1540.59 Q370.998 1540.59 367.827 1536.01 Q364.656 1531.4 364.656 1522.67 Q364.656 1514.48 368.545 1509.62 Q372.434 1504.73 378.984 1504.73 Q380.744 1504.73 382.526 1505.08 Q384.332 1505.43 386.276 1506.12 Z" fill="#000000" fill-rule="evenodd" fill-opacity="1" /><path clip-path="url(#clip710)" d="M 0 0 M760.406 1525.04 L772.882 1525.04 L772.882 1528.83 L760.406 1528.83 L760.406 1525.04 Z" fill="#000000" fill-rule="evenodd" fill-opacity="1" /><path clip-path="url(#clip710)" d="M 0 0 M792.118 1521.29 Q795.475 1522 797.35 1524.27 Q799.248 1526.54 799.248 1529.87 Q799.248 1534.99 795.729 1537.79 Q792.211 1540.59 785.73 1540.59 Q783.554 1540.59 781.239 1540.15 Q778.947 1539.73 776.493 1538.88 L776.493 1534.36 Q778.438 1535.5 780.753 1536.08 Q783.067 1536.66 785.591 1536.66 Q789.989 1536.66 792.28 1534.92 Q794.595 1533.18 794.595 1529.87 Q794.595 1526.82 792.442 1525.11 Q790.313 1523.37 786.493 1523.37 L782.466 1523.37 L782.466 1519.53 L786.679 1519.53 Q790.128 1519.53 791.956 1518.16 Q793.785 1516.77 793.785 1514.18 Q793.785 1511.52 791.887 1510.11 Q790.012 1508.67 786.493 1508.67 Q784.572 1508.67 782.373 1509.09 Q780.174 1509.5 777.535 1510.38 L777.535 1506.22 Q780.197 1505.48 782.512 1505.11 Q784.85 1504.73 786.91 1504.73 Q792.234 1504.73 795.336 1507.17 Q798.438 1509.57 798.438 1513.69 Q798.438 1516.56 796.794 1518.55 Q795.151 1520.52 792.118 1521.29 Z" fill="#000000" fill-rule="evenodd" fill-opacity="1" /><path clip-path="url(#clip710)" d="M 0 0 M1190.96 1508.44 Q1187.35 1508.44 1185.52 1512 Q1183.71 1515.55 1183.71 1522.67 Q1183.71 1529.78 1185.52 1533.35 Q1187.35 1536.89 1190.96 1536.89 Q1194.59 1536.89 1196.4 1533.35 Q1198.23 1529.78 1198.23 1522.67 Q1198.23 1515.55 1196.4 1512 Q1194.59 1508.44 1190.96 1508.44 M1190.96 1504.73 Q1196.77 1504.73 1199.82 1509.34 Q1202.9 1513.92 1202.9 1522.67 Q1202.9 1531.4 1199.82 1536.01 Q1196.77 1540.59 1190.96 1540.59 Q1185.15 1540.59 1182.07 1536.01 Q1179.01 1531.4 1179.01 1522.67 Q1179.01 1513.92 1182.07 1509.34 Q1185.15 1504.73 1190.96 1504.73 Z" fill="#000000" fill-rule="evenodd" fill-opacity="1" /><path clip-path="url(#clip710)" d="M 0 0 M1606.34 1521.29 Q1609.69 1522 1611.57 1524.27 Q1613.47 1526.54 1613.47 1529.87 Q1613.47 1534.99 1609.95 1537.79 Q1606.43 1540.59 1599.95 1540.59 Q1597.77 1540.59 1595.46 1540.15 Q1593.17 1539.73 1590.71 1538.88 L1590.71 1534.36 Q1592.66 1535.5 1594.97 1536.08 Q1597.29 1536.66 1599.81 1536.66 Q1604.21 1536.66 1606.5 1534.92 Q1608.81 1533.18 1608.81 1529.87 Q1608.81 1526.82 1606.66 1525.11 Q1604.53 1523.37 1600.71 1523.37 L1596.68 1523.37 L1596.68 1519.53 L1600.9 1519.53 Q1604.35 1519.53 1606.18 1518.16 Q1608 1516.77 1608 1514.18 Q1608 1511.52 1606.11 1510.11 Q1604.23 1508.67 1600.71 1508.67 Q1598.79 1508.67 1596.59 1509.09 Q1594.39 1509.5 1591.75 1510.38 L1591.75 1506.22 Q1594.42 1505.48 1596.73 1505.11 Q1599.07 1504.73 1601.13 1504.73 Q1606.45 1504.73 1609.56 1507.17 Q1612.66 1509.57 1612.66 1513.69 Q1612.66 1516.56 1611.01 1518.55 Q1609.37 1520.52 1606.34 1521.29 Z" fill="#000000" fill-rule="evenodd" fill-opacity="1" /><path clip-path="url(#clip710)" d="M 0 0 M2013.63 1520.78 Q2010.48 1520.78 2008.63 1522.93 Q2006.8 1525.08 2006.8 1528.83 Q2006.8 1532.56 2008.63 1534.73 Q2010.48 1536.89 2013.63 1536.89 Q2016.77 1536.89 2018.6 1534.73 Q2020.46 1532.56 2020.46 1528.83 Q2020.46 1525.08 2018.6 1522.93 Q2016.77 1520.78 2013.63 1520.78 M2022.91 1506.12 L2022.91 1510.38 Q2021.15 1509.55 2019.34 1509.11 Q2017.56 1508.67 2015.8 1508.67 Q2011.17 1508.67 2008.72 1511.8 Q2006.29 1514.92 2005.94 1521.24 Q2007.31 1519.23 2009.37 1518.16 Q2011.43 1517.07 2013.9 1517.07 Q2019.11 1517.07 2022.12 1520.24 Q2025.15 1523.39 2025.15 1528.83 Q2025.15 1534.16 2022.01 1537.37 Q2018.86 1540.59 2013.63 1540.59 Q2007.63 1540.59 2004.46 1536.01 Q2001.29 1531.4 2001.29 1522.67 Q2001.29 1514.48 2005.18 1509.62 Q2009.07 1504.73 2015.62 1504.73 Q2017.38 1504.73 2019.16 1505.08 Q2020.96 1505.43 2022.91 1506.12 Z" fill="#000000" fill-rule="evenodd" fill-opacity="1" /><path clip-path="url(#clip710)" d="M 0 0 M130.26 1431.51 Q126.649 1431.51 124.82 1435.08 Q123.015 1438.62 123.015 1445.75 Q123.015 1452.86 124.82 1456.42 Q126.649 1459.96 130.26 1459.96 Q133.895 1459.96 135.7 1456.42 Q137.529 1452.86 137.529 1445.75 Q137.529 1438.62 135.7 1435.08 Q133.895 1431.51 130.26 1431.51 M130.26 1427.81 Q136.07 1427.81 139.126 1432.42 Q142.205 1437 142.205 1445.75 Q142.205 1454.48 139.126 1459.08 Q136.07 1463.67 130.26 1463.67 Q124.45 1463.67 121.371 1459.08 Q118.316 1454.48 118.316 1445.75 Q118.316 1437 121.371 1432.42 Q124.45 1427.81 130.26 1427.81 Z" fill="#000000" fill-rule="evenodd" fill-opacity="1" /><path clip-path="url(#clip710)" d="M 0 0 M71.8578 1136.17 L88.1772 1136.17 L88.1772 1140.11 L66.2328 1140.11 L66.2328 1136.17 Q68.8949 1133.42 73.4782 1128.79 Q78.0846 1124.14 79.2652 1122.79 Q81.5105 1120.27 82.3902 1118.53 Q83.2929 1116.78 83.2929 1115.09 Q83.2929 1112.33 81.3485 1110.6 Q79.4272 1108.86 76.3254 1108.86 Q74.1263 1108.86 71.6726 1109.62 Q69.2421 1110.39 66.4643 1111.94 L66.4643 1107.22 Q69.2884 1106.08 71.7421 1105.5 Q74.1958 1104.92 76.2328 1104.92 Q81.6031 1104.92 84.7976 1107.61 Q87.992 1110.29 87.992 1114.78 Q87.992 1116.91 87.1818 1118.84 Q86.3948 1120.73 84.2883 1123.33 Q83.7096 1124 80.6078 1127.22 Q77.5059 1130.41 71.8578 1136.17 Z" fill="#000000" fill-rule="evenodd" fill-opacity="1" /><path clip-path="url(#clip710)" d="M 0 0 M103.247 1108.63 Q99.6354 1108.63 97.8068 1112.19 Q96.0012 1115.73 96.0012 1122.86 Q96.0012 1129.97 97.8068 1133.53 Q99.6354 1137.08 103.247 1137.08 Q106.881 1137.08 108.686 1133.53 Q110.515 1129.97 110.515 1122.86 Q110.515 1115.73 108.686 1112.19 Q106.881 1108.63 103.247 1108.63 M103.247 1104.92 Q109.057 1104.92 112.112 1109.53 Q115.191 1114.11 115.191 1122.86 Q115.191 1131.59 112.112 1136.2 Q109.057 1140.78 103.247 1140.78 Q97.4364 1140.78 94.3577 1136.2 Q91.3022 1131.59 91.3022 1122.86 Q91.3022 1114.11 94.3577 1109.53 Q97.4364 1104.92 103.247 1104.92 Z" fill="#000000" fill-rule="evenodd" fill-opacity="1" /><path clip-path="url(#clip710)" d="M 0 0 M130.26 1108.63 Q126.649 1108.63 124.82 1112.19 Q123.015 1115.73 123.015 1122.86 Q123.015 1129.97 124.82 1133.53 Q126.649 1137.08 130.26 1137.08 Q133.895 1137.08 135.7 1133.53 Q137.529 1129.97 137.529 1122.86 Q137.529 1115.73 135.7 1112.19 Q133.895 1108.63 130.26 1108.63 M130.26 1104.92 Q136.07 1104.92 139.126 1109.53 Q142.205 1114.11 142.205 1122.86 Q142.205 1131.59 139.126 1136.2 Q136.07 1140.78 130.26 1140.78 Q124.45 1140.78 121.371 1136.2 Q118.316 1131.59 118.316 1122.86 Q118.316 1114.11 121.371 1109.53 Q124.45 1104.92 130.26 1104.92 Z" fill="#000000" fill-rule="evenodd" fill-opacity="1" /><path clip-path="url(#clip710)" d="M 0 0 M78.5939 786.736 L66.7884 805.185 L78.5939 805.185 L78.5939 786.736 M77.367 782.662 L83.2466 782.662 L83.2466 805.185 L88.1772 805.185 L88.1772 809.074 L83.2466 809.074 L83.2466 817.222 L78.5939 817.222 L78.5939 809.074 L62.9921 809.074 L62.9921 804.56 L77.367 782.662 Z" fill="#000000" fill-rule="evenodd" fill-opacity="1" /><path clip-path="url(#clip710)" d="M 0 0 M103.247 785.741 Q99.6354 785.741 97.8068 789.305 Q96.0012 792.847 96.0012 799.977 Q96.0012 807.083 97.8068 810.648 Q99.6354 814.19 103.247 814.19 Q106.881 814.19 108.686 810.648 Q110.515 807.083 110.515 799.977 Q110.515 792.847 108.686 789.305 Q106.881 785.741 103.247 785.741 M103.247 782.037 Q109.057 782.037 112.112 786.643 Q115.191 791.227 115.191 799.977 Q115.191 808.703 112.112 813.31 Q109.057 817.893 103.247 817.893 Q97.4364 817.893 94.3577 813.31 Q91.3022 808.703 91.3022 799.977 Q91.3022 791.227 94.3577 786.643 Q97.4364 782.037 103.247 782.037 Z" fill="#000000" fill-rule="evenodd" fill-opacity="1" /><path clip-path="url(#clip710)" d="M 0 0 M130.26 785.741 Q126.649 785.741 124.82 789.305 Q123.015 792.847 123.015 799.977 Q123.015 807.083 124.82 810.648 Q126.649 814.19 130.26 814.19 Q133.895 814.19 135.7 810.648 Q137.529 807.083 137.529 799.977 Q137.529 792.847 135.7 789.305 Q133.895 785.741 130.26 785.741 M130.26 782.037 Q136.07 782.037 139.126 786.643 Q142.205 791.227 142.205 799.977 Q142.205 808.703 139.126 813.31 Q136.07 817.893 130.26 817.893 Q124.45 817.893 121.371 813.31 Q118.316 808.703 118.316 799.977 Q118.316 791.227 121.371 786.643 Q124.45 782.037 130.26 782.037 Z" fill="#000000" fill-rule="evenodd" fill-opacity="1" /><path clip-path="url(#clip710)" d="M 0 0 M76.6495 475.192 Q73.5013 475.192 71.6495 477.344 Q69.8208 479.497 69.8208 483.247 Q69.8208 486.974 71.6495 489.15 Q73.5013 491.303 76.6495 491.303 Q79.7976 491.303 81.6263 489.15 Q83.4781 486.974 83.4781 483.247 Q83.4781 479.497 81.6263 477.344 Q79.7976 475.192 76.6495 475.192 M85.9318 460.539 L85.9318 464.798 Q84.1726 463.965 82.367 463.525 Q80.5846 463.085 78.8254 463.085 Q74.1958 463.085 71.7421 466.21 Q69.3115 469.335 68.9643 475.655 Q70.33 473.641 72.3902 472.576 Q74.4504 471.488 76.9272 471.488 Q82.1355 471.488 85.1448 474.659 Q88.1772 477.807 88.1772 483.247 Q88.1772 488.571 85.029 491.789 Q81.8809 495.006 76.6495 495.006 Q70.6541 495.006 67.4828 490.423 Q64.3116 485.817 64.3116 477.09 Q64.3116 468.895 68.2004 464.034 Q72.0893 459.15 78.6402 459.15 Q80.3994 459.15 82.1818 459.497 Q83.9874 459.844 85.9318 460.539 Z" fill="#000000" fill-rule="evenodd" fill-opacity="1" /><path clip-path="url(#clip710)" d="M 0 0 M103.247 462.854 Q99.6354 462.854 97.8068 466.418 Q96.0012 469.96 96.0012 477.09 Q96.0012 484.196 97.8068 487.761 Q99.6354 491.303 103.247 491.303 Q106.881 491.303 108.686 487.761 Q110.515 484.196 110.515 477.09 Q110.515 469.96 108.686 466.418 Q106.881 462.854 103.247 462.854 M103.247 459.15 Q109.057 459.15 112.112 463.756 Q115.191 468.34 115.191 477.09 Q115.191 485.817 112.112 490.423 Q109.057 495.006 103.247 495.006 Q97.4364 495.006 94.3577 490.423 Q91.3022 485.817 91.3022 477.09 Q91.3022 468.34 94.3577 463.756 Q97.4364 459.15 103.247 459.15 Z" fill="#000000" fill-rule="evenodd" fill-opacity="1" /><path clip-path="url(#clip710)" d="M 0 0 M130.26 462.854 Q126.649 462.854 124.82 466.418 Q123.015 469.96 123.015 477.09 Q123.015 484.196 124.82 487.761 Q126.649 491.303 130.26 491.303 Q133.895 491.303 135.7 487.761 Q137.529 484.196 137.529 477.09 Q137.529 469.96 135.7 466.418 Q133.895 462.854 130.26 462.854 M130.26 459.15 Q136.07 459.15 139.126 463.756 Q142.205 468.34 142.205 477.09 Q142.205 485.817 139.126 490.423 Q136.07 495.006 130.26 495.006 Q124.45 495.006 121.371 490.423 Q118.316 485.817 118.316 477.09 Q118.316 468.34 121.371 463.756 Q124.45 459.15 130.26 459.15 Z" fill="#000000" fill-rule="evenodd" fill-opacity="1" /><path clip-path="url(#clip710)" d="M 0 0 M76.3254 155.036 Q72.9921 155.036 71.0708 156.819 Q69.1726 158.601 69.1726 161.726 Q69.1726 164.851 71.0708 166.633 Q72.9921 168.416 76.3254 168.416 Q79.6587 168.416 81.58 166.633 Q83.5013 164.828 83.5013 161.726 Q83.5013 158.601 81.58 156.819 Q79.6819 155.036 76.3254 155.036 M71.6495 153.045 Q68.6402 152.305 66.9504 150.245 Q65.2838 148.184 65.2838 145.221 Q65.2838 141.078 68.2236 138.67 Q71.1865 136.263 76.3254 136.263 Q81.4874 136.263 84.4272 138.67 Q87.367 141.078 87.367 145.221 Q87.367 148.184 85.6772 150.245 Q84.0105 152.305 81.0244 153.045 Q84.404 153.832 86.279 156.124 Q88.1772 158.416 88.1772 161.726 Q88.1772 166.749 85.0985 169.434 Q82.0429 172.119 76.3254 172.119 Q70.6078 172.119 67.5291 169.434 Q64.4736 166.749 64.4736 161.726 Q64.4736 158.416 66.3717 156.124 Q68.2699 153.832 71.6495 153.045 M69.9365 145.661 Q69.9365 148.346 71.6032 149.851 Q73.293 151.356 76.3254 151.356 Q79.3346 151.356 81.0244 149.851 Q82.7374 148.346 82.7374 145.661 Q82.7374 142.976 81.0244 141.471 Q79.3346 139.967 76.3254 139.967 Q73.293 139.967 71.6032 141.471 Q69.9365 142.976 69.9365 145.661 Z" fill="#000000" fill-rule="evenodd" fill-opacity="1" /><path clip-path="url(#clip710)" d="M 0 0 M103.247 139.967 Q99.6354 139.967 97.8068 143.532 Q96.0012 147.073 96.0012 154.203 Q96.0012 161.309 97.8068 164.874 Q99.6354 168.416 103.247 168.416 Q106.881 168.416 108.686 164.874 Q110.515 161.309 110.515 154.203 Q110.515 147.073 108.686 143.532 Q106.881 139.967 103.247 139.967 M103.247 136.263 Q109.057 136.263 112.112 140.87 Q115.191 145.453 115.191 154.203 Q115.191 162.93 112.112 167.536 Q109.057 172.119 103.247 172.119 Q97.4364 172.119 94.3577 167.536 Q91.3022 162.93 91.3022 154.203 Q91.3022 145.453 94.3577 140.87 Q97.4364 136.263 103.247 136.263 Z" fill="#000000" fill-rule="evenodd" fill-opacity="1" /><path clip-path="url(#clip710)" d="M 0 0 M130.26 139.967 Q126.649 139.967 124.82 143.532 Q123.015 147.073 123.015 154.203 Q123.015 161.309 124.82 164.874 Q126.649 168.416 130.26 168.416 Q133.895 168.416 135.7 164.874 Q137.529 161.309 137.529 154.203 Q137.529 147.073 135.7 143.532 Q133.895 139.967 130.26 139.967 M130.26 136.263 Q136.07 136.263 139.126 140.87 Q142.205 145.453 142.205 154.203 Q142.205 162.93 139.126 167.536 Q136.07 172.119 130.26 172.119 Q124.45 172.119 121.371 167.536 Q118.316 162.93 118.316 154.203 Q118.316 145.453 121.371 140.87 Q124.45 136.263 130.26 136.263 Z" fill="#000000" fill-rule="evenodd" fill-opacity="1" /><path clip-path="url(#clip712)" d="
M286.469 1444.1 L286.469 1445.72 L313.878 1445.72 L313.878 1444.1 L286.469 1444.1 L286.469 1444.1  Z
  " fill="#009af9" fill-rule="evenodd" fill-opacity="1"/>
<polyline clip-path="url(#clip712)" style="stroke:#000000; stroke-width:4; stroke-opacity:1; fill:none" points="
  286.469,1444.1 286.469,1445.72 313.878,1445.72 313.878,1444.1 286.469,1444.1 
  "/>
<path clip-path="url(#clip712)" d="
M313.878 1442.49 L313.878 1445.72 L341.286 1445.72 L341.286 1442.49 L313.878 1442.49 L313.878 1442.49  Z
  " fill="#009af9" fill-rule="evenodd" fill-opacity="1"/>
<polyline clip-path="url(#clip712)" style="stroke:#000000; stroke-width:4; stroke-opacity:1; fill:none" points="
  313.878,1442.49 313.878,1445.72 341.286,1445.72 341.286,1442.49 313.878,1442.49 
  "/>
<path clip-path="url(#clip712)" d="
M341.286 1445.72 L341.286 1445.72 L368.695 1445.72 L368.695 1445.72 L341.286 1445.72 L341.286 1445.72  Z
  " fill="#009af9" fill-rule="evenodd" fill-opacity="1"/>
<polyline clip-path="url(#clip712)" style="stroke:#000000; stroke-width:4; stroke-opacity:1; fill:none" points="
  341.286,1445.72 341.286,1445.72 368.695,1445.72 341.286,1445.72 
  "/>
<path clip-path="url(#clip712)" d="
M368.695 1445.72 L368.695 1445.72 L396.104 1445.72 L396.104 1445.72 L368.695 1445.72 L368.695 1445.72  Z
  " fill="#009af9" fill-rule="evenodd" fill-opacity="1"/>
<polyline clip-path="url(#clip712)" style="stroke:#000000; stroke-width:4; stroke-opacity:1; fill:none" points="
  368.695,1445.72 368.695,1445.72 396.104,1445.72 368.695,1445.72 
  "/>
<path clip-path="url(#clip712)" d="
M396.104 1440.87 L396.104 1445.72 L423.513 1445.72 L423.513 1440.87 L396.104 1440.87 L396.104 1440.87  Z
  " fill="#009af9" fill-rule="evenodd" fill-opacity="1"/>
<polyline clip-path="url(#clip712)" style="stroke:#000000; stroke-width:4; stroke-opacity:1; fill:none" points="
  396.104,1440.87 396.104,1445.72 423.513,1445.72 423.513,1440.87 396.104,1440.87 
  "/>
<path clip-path="url(#clip712)" d="
M423.513 1440.87 L423.513 1445.72 L450.922 1445.72 L450.922 1440.87 L423.513 1440.87 L423.513 1440.87  Z
  " fill="#009af9" fill-rule="evenodd" fill-opacity="1"/>
<polyline clip-path="url(#clip712)" style="stroke:#000000; stroke-width:4; stroke-opacity:1; fill:none" points="
  423.513,1440.87 423.513,1445.72 450.922,1445.72 450.922,1440.87 423.513,1440.87 
  "/>
<path clip-path="url(#clip712)" d="
M450.922 1440.87 L450.922 1445.72 L478.33 1445.72 L478.33 1440.87 L450.922 1440.87 L450.922 1440.87  Z
  " fill="#009af9" fill-rule="evenodd" fill-opacity="1"/>
<polyline clip-path="url(#clip712)" style="stroke:#000000; stroke-width:4; stroke-opacity:1; fill:none" points="
  450.922,1440.87 450.922,1445.72 478.33,1445.72 478.33,1440.87 450.922,1440.87 
  "/>
<path clip-path="url(#clip712)" d="
M478.33 1442.49 L478.33 1445.72 L505.739 1445.72 L505.739 1442.49 L478.33 1442.49 L478.33 1442.49  Z
  " fill="#009af9" fill-rule="evenodd" fill-opacity="1"/>
<polyline clip-path="url(#clip712)" style="stroke:#000000; stroke-width:4; stroke-opacity:1; fill:none" points="
  478.33,1442.49 478.33,1445.72 505.739,1445.72 505.739,1442.49 478.33,1442.49 
  "/>
<path clip-path="url(#clip712)" d="
M505.739 1440.87 L505.739 1445.72 L533.148 1445.72 L533.148 1440.87 L505.739 1440.87 L505.739 1440.87  Z
  " fill="#009af9" fill-rule="evenodd" fill-opacity="1"/>
<polyline clip-path="url(#clip712)" style="stroke:#000000; stroke-width:4; stroke-opacity:1; fill:none" points="
  505.739,1440.87 505.739,1445.72 533.148,1445.72 533.148,1440.87 505.739,1440.87 
  "/>
<path clip-path="url(#clip712)" d="
M533.148 1434.41 L533.148 1445.72 L560.557 1445.72 L560.557 1434.41 L533.148 1434.41 L533.148 1434.41  Z
  " fill="#009af9" fill-rule="evenodd" fill-opacity="1"/>
<polyline clip-path="url(#clip712)" style="stroke:#000000; stroke-width:4; stroke-opacity:1; fill:none" points="
  533.148,1434.41 533.148,1445.72 560.557,1445.72 560.557,1434.41 533.148,1434.41 
  "/>
<path clip-path="url(#clip712)" d="
M560.557 1434.41 L560.557 1445.72 L587.965 1445.72 L587.965 1434.41 L560.557 1434.41 L560.557 1434.41  Z
  " fill="#009af9" fill-rule="evenodd" fill-opacity="1"/>
<polyline clip-path="url(#clip712)" style="stroke:#000000; stroke-width:4; stroke-opacity:1; fill:none" points="
  560.557,1434.41 560.557,1445.72 587.965,1445.72 587.965,1434.41 560.557,1434.41 
  "/>
<path clip-path="url(#clip712)" d="
M587.965 1426.34 L587.965 1445.72 L615.374 1445.72 L615.374 1426.34 L587.965 1426.34 L587.965 1426.34  Z
  " fill="#009af9" fill-rule="evenodd" fill-opacity="1"/>
<polyline clip-path="url(#clip712)" style="stroke:#000000; stroke-width:4; stroke-opacity:1; fill:none" points="
  587.965,1426.34 587.965,1445.72 615.374,1445.72 615.374,1426.34 587.965,1426.34 
  "/>
<path clip-path="url(#clip712)" d="
M615.374 1437.64 L615.374 1445.72 L642.783 1445.72 L642.783 1437.64 L615.374 1437.64 L615.374 1437.64  Z
  " fill="#009af9" fill-rule="evenodd" fill-opacity="1"/>
<polyline clip-path="url(#clip712)" style="stroke:#000000; stroke-width:4; stroke-opacity:1; fill:none" points="
  615.374,1437.64 615.374,1445.72 642.783,1445.72 642.783,1437.64 615.374,1437.64 
  "/>
<path clip-path="url(#clip712)" d="
M642.783 1408.58 L642.783 1445.72 L670.192 1445.72 L670.192 1408.58 L642.783 1408.58 L642.783 1408.58  Z
  " fill="#009af9" fill-rule="evenodd" fill-opacity="1"/>
<polyline clip-path="url(#clip712)" style="stroke:#000000; stroke-width:4; stroke-opacity:1; fill:none" points="
  642.783,1408.58 642.783,1445.72 670.192,1445.72 670.192,1408.58 642.783,1408.58 
  "/>
<path clip-path="url(#clip712)" d="
M670.192 1406.97 L670.192 1445.72 L697.6 1445.72 L697.6 1406.97 L670.192 1406.97 L670.192 1406.97  Z
  " fill="#009af9" fill-rule="evenodd" fill-opacity="1"/>
<polyline clip-path="url(#clip712)" style="stroke:#000000; stroke-width:4; stroke-opacity:1; fill:none" points="
  670.192,1406.97 670.192,1445.72 697.6,1445.72 697.6,1406.97 670.192,1406.97 
  "/>
<path clip-path="url(#clip712)" d="
M697.6 1403.74 L697.6 1445.72 L725.009 1445.72 L725.009 1403.74 L697.6 1403.74 L697.6 1403.74  Z
  " fill="#009af9" fill-rule="evenodd" fill-opacity="1"/>
<polyline clip-path="url(#clip712)" style="stroke:#000000; stroke-width:4; stroke-opacity:1; fill:none" points="
  697.6,1403.74 697.6,1445.72 725.009,1445.72 725.009,1403.74 697.6,1403.74 
  "/>
<path clip-path="url(#clip712)" d="
M725.009 1387.6 L725.009 1445.72 L752.418 1445.72 L752.418 1387.6 L725.009 1387.6 L725.009 1387.6  Z
  " fill="#009af9" fill-rule="evenodd" fill-opacity="1"/>
<polyline clip-path="url(#clip712)" style="stroke:#000000; stroke-width:4; stroke-opacity:1; fill:none" points="
  725.009,1387.6 725.009,1445.72 752.418,1445.72 752.418,1387.6 725.009,1387.6 
  "/>
<path clip-path="url(#clip712)" d="
M752.418 1376.3 L752.418 1445.72 L779.827 1445.72 L779.827 1376.3 L752.418 1376.3 L752.418 1376.3  Z
  " fill="#009af9" fill-rule="evenodd" fill-opacity="1"/>
<polyline clip-path="url(#clip712)" style="stroke:#000000; stroke-width:4; stroke-opacity:1; fill:none" points="
  752.418,1376.3 752.418,1445.72 779.827,1445.72 779.827,1376.3 752.418,1376.3 
  "/>
<path clip-path="url(#clip712)" d="
M779.827 1376.3 L779.827 1445.72 L807.236 1445.72 L807.236 1376.3 L779.827 1376.3 L779.827 1376.3  Z
  " fill="#009af9" fill-rule="evenodd" fill-opacity="1"/>
<polyline clip-path="url(#clip712)" style="stroke:#000000; stroke-width:4; stroke-opacity:1; fill:none" points="
  779.827,1376.3 779.827,1445.72 807.236,1445.72 807.236,1376.3 779.827,1376.3 
  "/>
<path clip-path="url(#clip712)" d="
M807.236 1348.85 L807.236 1445.72 L834.644 1445.72 L834.644 1348.85 L807.236 1348.85 L807.236 1348.85  Z
  " fill="#009af9" fill-rule="evenodd" fill-opacity="1"/>
<polyline clip-path="url(#clip712)" style="stroke:#000000; stroke-width:4; stroke-opacity:1; fill:none" points="
  807.236,1348.85 807.236,1445.72 834.644,1445.72 834.644,1348.85 807.236,1348.85 
  "/>
<path clip-path="url(#clip712)" d="
M834.644 1348.85 L834.644 1445.72 L862.053 1445.72 L862.053 1348.85 L834.644 1348.85 L834.644 1348.85  Z
  " fill="#009af9" fill-rule="evenodd" fill-opacity="1"/>
<polyline clip-path="url(#clip712)" style="stroke:#000000; stroke-width:4; stroke-opacity:1; fill:none" points="
  834.644,1348.85 834.644,1445.72 862.053,1445.72 862.053,1348.85 834.644,1348.85 
  "/>
<path clip-path="url(#clip712)" d="
M862.053 1337.55 L862.053 1445.72 L889.462 1445.72 L889.462 1337.55 L862.053 1337.55 L862.053 1337.55  Z
  " fill="#009af9" fill-rule="evenodd" fill-opacity="1"/>
<polyline clip-path="url(#clip712)" style="stroke:#000000; stroke-width:4; stroke-opacity:1; fill:none" points="
  862.053,1337.55 862.053,1445.72 889.462,1445.72 889.462,1337.55 862.053,1337.55 
  "/>
<path clip-path="url(#clip712)" d="
M889.462 1326.25 L889.462 1445.72 L916.871 1445.72 L916.871 1326.25 L889.462 1326.25 L889.462 1326.25  Z
  " fill="#009af9" fill-rule="evenodd" fill-opacity="1"/>
<polyline clip-path="url(#clip712)" style="stroke:#000000; stroke-width:4; stroke-opacity:1; fill:none" points="
  889.462,1326.25 889.462,1445.72 916.871,1445.72 916.871,1326.25 889.462,1326.25 
  "/>
<path clip-path="url(#clip712)" d="
M916.871 1302.03 L916.871 1445.72 L944.279 1445.72 L944.279 1302.03 L916.871 1302.03 L916.871 1302.03  Z
  " fill="#009af9" fill-rule="evenodd" fill-opacity="1"/>
<polyline clip-path="url(#clip712)" style="stroke:#000000; stroke-width:4; stroke-opacity:1; fill:none" points="
  916.871,1302.03 916.871,1445.72 944.279,1445.72 944.279,1302.03 916.871,1302.03 
  "/>
<path clip-path="url(#clip712)" d="
M944.279 1326.25 L944.279 1445.72 L971.688 1445.72 L971.688 1326.25 L944.279 1326.25 L944.279 1326.25  Z
  " fill="#009af9" fill-rule="evenodd" fill-opacity="1"/>
<polyline clip-path="url(#clip712)" style="stroke:#000000; stroke-width:4; stroke-opacity:1; fill:none" points="
  944.279,1326.25 944.279,1445.72 971.688,1445.72 971.688,1326.25 944.279,1326.25 
  "/>
<path clip-path="url(#clip712)" d="
M971.688 1313.33 L971.688 1445.72 L999.097 1445.72 L999.097 1313.33 L971.688 1313.33 L971.688 1313.33  Z
  " fill="#009af9" fill-rule="evenodd" fill-opacity="1"/>
<polyline clip-path="url(#clip712)" style="stroke:#000000; stroke-width:4; stroke-opacity:1; fill:none" points="
  971.688,1313.33 971.688,1445.72 999.097,1445.72 999.097,1313.33 971.688,1313.33 
  "/>
<path clip-path="url(#clip712)" d="
M999.097 1277.81 L999.097 1445.72 L1026.51 1445.72 L1026.51 1277.81 L999.097 1277.81 L999.097 1277.81  Z
  " fill="#009af9" fill-rule="evenodd" fill-opacity="1"/>
<polyline clip-path="url(#clip712)" style="stroke:#000000; stroke-width:4; stroke-opacity:1; fill:none" points="
  999.097,1277.81 999.097,1445.72 1026.51,1445.72 1026.51,1277.81 999.097,1277.81 
  "/>
<path clip-path="url(#clip712)" d="
M1026.51 1274.59 L1026.51 1445.72 L1053.91 1445.72 L1053.91 1274.59 L1026.51 1274.59 L1026.51 1274.59  Z
  " fill="#009af9" fill-rule="evenodd" fill-opacity="1"/>
<polyline clip-path="url(#clip712)" style="stroke:#000000; stroke-width:4; stroke-opacity:1; fill:none" points="
  1026.51,1274.59 1026.51,1445.72 1053.91,1445.72 1053.91,1274.59 1026.51,1274.59 
  "/>
<path clip-path="url(#clip712)" d="
M1053.91 1284.27 L1053.91 1445.72 L1081.32 1445.72 L1081.32 1284.27 L1053.91 1284.27 L1053.91 1284.27  Z
  " fill="#009af9" fill-rule="evenodd" fill-opacity="1"/>
<polyline clip-path="url(#clip712)" style="stroke:#000000; stroke-width:4; stroke-opacity:1; fill:none" points="
  1053.91,1284.27 1053.91,1445.72 1081.32,1445.72 1081.32,1284.27 1053.91,1284.27 
  "/>
<path clip-path="url(#clip712)" d="
M1081.32 1239.07 L1081.32 1445.72 L1108.73 1445.72 L1108.73 1239.07 L1081.32 1239.07 L1081.32 1239.07  Z
  " fill="#009af9" fill-rule="evenodd" fill-opacity="1"/>
<polyline clip-path="url(#clip712)" style="stroke:#000000; stroke-width:4; stroke-opacity:1; fill:none" points="
  1081.32,1239.07 1081.32,1445.72 1108.73,1445.72 1108.73,1239.07 1081.32,1239.07 
  "/>
<path clip-path="url(#clip712)" d="
M1108.73 1243.91 L1108.73 1445.72 L1136.14 1445.72 L1136.14 1243.91 L1108.73 1243.91 L1108.73 1243.91  Z
  " fill="#009af9" fill-rule="evenodd" fill-opacity="1"/>
<polyline clip-path="url(#clip712)" style="stroke:#000000; stroke-width:4; stroke-opacity:1; fill:none" points="
  1108.73,1243.91 1108.73,1445.72 1136.14,1445.72 1136.14,1243.91 1108.73,1243.91 
  "/>
<path clip-path="url(#clip712)" d="
M1136.14 1295.57 L1136.14 1445.72 L1163.55 1445.72 L1163.55 1295.57 L1136.14 1295.57 L1136.14 1295.57  Z
  " fill="#009af9" fill-rule="evenodd" fill-opacity="1"/>
<polyline clip-path="url(#clip712)" style="stroke:#000000; stroke-width:4; stroke-opacity:1; fill:none" points="
  1136.14,1295.57 1136.14,1445.72 1163.55,1445.72 1163.55,1295.57 1136.14,1295.57 
  "/>
<path clip-path="url(#clip712)" d="
M1163.55 1268.13 L1163.55 1445.72 L1190.96 1445.72 L1190.96 1268.13 L1163.55 1268.13 L1163.55 1268.13  Z
  " fill="#009af9" fill-rule="evenodd" fill-opacity="1"/>
<polyline clip-path="url(#clip712)" style="stroke:#000000; stroke-width:4; stroke-opacity:1; fill:none" points="
  1163.55,1268.13 1163.55,1445.72 1190.96,1445.72 1190.96,1268.13 1163.55,1268.13 
  "/>
<path clip-path="url(#clip712)" d="
M1190.96 1219.69 L1190.96 1445.72 L1218.37 1445.72 L1218.37 1219.69 L1190.96 1219.69 L1190.96 1219.69  Z
  " fill="#009af9" fill-rule="evenodd" fill-opacity="1"/>
<polyline clip-path="url(#clip712)" style="stroke:#000000; stroke-width:4; stroke-opacity:1; fill:none" points="
  1190.96,1219.69 1190.96,1445.72 1218.37,1445.72 1218.37,1219.69 1190.96,1219.69 
  "/>
<path clip-path="url(#clip712)" d="
M1218.37 1251.98 L1218.37 1445.72 L1245.78 1445.72 L1245.78 1251.98 L1218.37 1251.98 L1218.37 1251.98  Z
  " fill="#009af9" fill-rule="evenodd" fill-opacity="1"/>
<polyline clip-path="url(#clip712)" style="stroke:#000000; stroke-width:4; stroke-opacity:1; fill:none" points="
  1218.37,1251.98 1218.37,1445.72 1245.78,1445.72 1245.78,1251.98 1218.37,1251.98 
  "/>
<path clip-path="url(#clip712)" d="
M1245.78 1182.56 L1245.78 1445.72 L1273.18 1445.72 L1273.18 1182.56 L1245.78 1182.56 L1245.78 1182.56  Z
  " fill="#009af9" fill-rule="evenodd" fill-opacity="1"/>
<polyline clip-path="url(#clip712)" style="stroke:#000000; stroke-width:4; stroke-opacity:1; fill:none" points="
  1245.78,1182.56 1245.78,1445.72 1273.18,1445.72 1273.18,1182.56 1245.78,1182.56 
  "/>
<path clip-path="url(#clip712)" d="
M1273.18 849.989 L1273.18 1445.72 L1300.59 1445.72 L1300.59 849.989 L1273.18 849.989 L1273.18 849.989  Z
  " fill="#009af9" fill-rule="evenodd" fill-opacity="1"/>
<polyline clip-path="url(#clip712)" style="stroke:#000000; stroke-width:4; stroke-opacity:1; fill:none" points="
  1273.18,849.989 1273.18,1445.72 1300.59,1445.72 1300.59,849.989 1273.18,849.989 
  "/>
<path clip-path="url(#clip712)" d="
M1300.59 157.397 L1300.59 1445.72 L1328 1445.72 L1328 157.397 L1300.59 157.397 L1300.59 157.397  Z
  " fill="#009af9" fill-rule="evenodd" fill-opacity="1"/>
<polyline clip-path="url(#clip712)" style="stroke:#000000; stroke-width:4; stroke-opacity:1; fill:none" points="
  1300.59,157.397 1300.59,1445.72 1328,1445.72 1328,157.397 1300.59,157.397 
  "/>
<path clip-path="url(#clip712)" d="
M1328 87.9763 L1328 1445.72 L1355.41 1445.72 L1355.41 87.9763 L1328 87.9763 L1328 87.9763  Z
  " fill="#009af9" fill-rule="evenodd" fill-opacity="1"/>
<polyline clip-path="url(#clip712)" style="stroke:#000000; stroke-width:4; stroke-opacity:1; fill:none" points="
  1328,87.9763 1328,1445.72 1355.41,1445.72 1355.41,87.9763 1328,87.9763 
  "/>
<path clip-path="url(#clip712)" d="
M1355.41 929.097 L1355.41 1445.72 L1382.82 1445.72 L1382.82 929.097 L1355.41 929.097 L1355.41 929.097  Z
  " fill="#009af9" fill-rule="evenodd" fill-opacity="1"/>
<polyline clip-path="url(#clip712)" style="stroke:#000000; stroke-width:4; stroke-opacity:1; fill:none" points="
  1355.41,929.097 1355.41,1445.72 1382.82,1445.72 1382.82,929.097 1355.41,929.097 
  "/>
<path clip-path="url(#clip712)" d="
M1382.82 1239.07 L1382.82 1445.72 L1410.23 1445.72 L1410.23 1239.07 L1382.82 1239.07 L1382.82 1239.07  Z
  " fill="#009af9" fill-rule="evenodd" fill-opacity="1"/>
<polyline clip-path="url(#clip712)" style="stroke:#000000; stroke-width:4; stroke-opacity:1; fill:none" points="
  1382.82,1239.07 1382.82,1445.72 1410.23,1445.72 1410.23,1239.07 1382.82,1239.07 
  "/>
<path clip-path="url(#clip712)" d="
M1410.23 1310.1 L1410.23 1445.72 L1437.64 1445.72 L1437.64 1310.1 L1410.23 1310.1 L1410.23 1310.1  Z
  " fill="#009af9" fill-rule="evenodd" fill-opacity="1"/>
<polyline clip-path="url(#clip712)" style="stroke:#000000; stroke-width:4; stroke-opacity:1; fill:none" points="
  1410.23,1310.1 1410.23,1445.72 1437.64,1445.72 1437.64,1310.1 1410.23,1310.1 
  "/>
<path clip-path="url(#clip712)" d="
M1437.64 1329.48 L1437.64 1445.72 L1465.05 1445.72 L1465.05 1329.48 L1437.64 1329.48 L1437.64 1329.48  Z
  " fill="#009af9" fill-rule="evenodd" fill-opacity="1"/>
<polyline clip-path="url(#clip712)" style="stroke:#000000; stroke-width:4; stroke-opacity:1; fill:none" points="
  1437.64,1329.48 1437.64,1445.72 1465.05,1445.72 1465.05,1329.48 1437.64,1329.48 
  "/>
<path clip-path="url(#clip712)" d="
M1465.05 1318.18 L1465.05 1445.72 L1492.45 1445.72 L1492.45 1318.18 L1465.05 1318.18 L1465.05 1318.18  Z
  " fill="#009af9" fill-rule="evenodd" fill-opacity="1"/>
<polyline clip-path="url(#clip712)" style="stroke:#000000; stroke-width:4; stroke-opacity:1; fill:none" points="
  1465.05,1318.18 1465.05,1445.72 1492.45,1445.72 1492.45,1318.18 1465.05,1318.18 
  "/>
<path clip-path="url(#clip712)" d="
M1492.45 1339.16 L1492.45 1445.72 L1519.86 1445.72 L1519.86 1339.16 L1492.45 1339.16 L1492.45 1339.16  Z
  " fill="#009af9" fill-rule="evenodd" fill-opacity="1"/>
<polyline clip-path="url(#clip712)" style="stroke:#000000; stroke-width:4; stroke-opacity:1; fill:none" points="
  1492.45,1339.16 1492.45,1445.72 1519.86,1445.72 1519.86,1339.16 1492.45,1339.16 
  "/>
<path clip-path="url(#clip712)" d="
M1519.86 1360.15 L1519.86 1445.72 L1547.27 1445.72 L1547.27 1360.15 L1519.86 1360.15 L1519.86 1360.15  Z
  " fill="#009af9" fill-rule="evenodd" fill-opacity="1"/>
<polyline clip-path="url(#clip712)" style="stroke:#000000; stroke-width:4; stroke-opacity:1; fill:none" points="
  1519.86,1360.15 1519.86,1445.72 1547.27,1445.72 1547.27,1360.15 1519.86,1360.15 
  "/>
<path clip-path="url(#clip712)" d="
M1547.27 1394.05 L1547.27 1445.72 L1574.68 1445.72 L1574.68 1394.05 L1547.27 1394.05 L1547.27 1394.05  Z
  " fill="#009af9" fill-rule="evenodd" fill-opacity="1"/>
<polyline clip-path="url(#clip712)" style="stroke:#000000; stroke-width:4; stroke-opacity:1; fill:none" points="
  1547.27,1394.05 1547.27,1445.72 1574.68,1445.72 1574.68,1394.05 1547.27,1394.05 
  "/>
<path clip-path="url(#clip712)" d="
M1574.68 1364.99 L1574.68 1445.72 L1602.09 1445.72 L1602.09 1364.99 L1574.68 1364.99 L1574.68 1364.99  Z
  " fill="#009af9" fill-rule="evenodd" fill-opacity="1"/>
<polyline clip-path="url(#clip712)" style="stroke:#000000; stroke-width:4; stroke-opacity:1; fill:none" points="
  1574.68,1364.99 1574.68,1445.72 1602.09,1445.72 1602.09,1364.99 1574.68,1364.99 
  "/>
<path clip-path="url(#clip712)" d="
M1602.09 1406.97 L1602.09 1445.72 L1629.5 1445.72 L1629.5 1406.97 L1602.09 1406.97 L1602.09 1406.97  Z
  " fill="#009af9" fill-rule="evenodd" fill-opacity="1"/>
<polyline clip-path="url(#clip712)" style="stroke:#000000; stroke-width:4; stroke-opacity:1; fill:none" points="
  1602.09,1406.97 1602.09,1445.72 1629.5,1445.72 1629.5,1406.97 1602.09,1406.97 
  "/>
<path clip-path="url(#clip712)" d="
M1629.5 1400.51 L1629.5 1445.72 L1656.91 1445.72 L1656.91 1400.51 L1629.5 1400.51 L1629.5 1400.51  Z
  " fill="#009af9" fill-rule="evenodd" fill-opacity="1"/>
<polyline clip-path="url(#clip712)" style="stroke:#000000; stroke-width:4; stroke-opacity:1; fill:none" points="
  1629.5,1400.51 1629.5,1445.72 1656.91,1445.72 1656.91,1400.51 1629.5,1400.51 
  "/>
<path clip-path="url(#clip712)" d="
M1656.91 1405.35 L1656.91 1445.72 L1684.32 1445.72 L1684.32 1405.35 L1656.91 1405.35 L1656.91 1405.35  Z
  " fill="#009af9" fill-rule="evenodd" fill-opacity="1"/>
<polyline clip-path="url(#clip712)" style="stroke:#000000; stroke-width:4; stroke-opacity:1; fill:none" points="
  1656.91,1405.35 1656.91,1445.72 1684.32,1445.72 1684.32,1405.35 1656.91,1405.35 
  "/>
<path clip-path="url(#clip712)" d="
M1684.32 1416.66 L1684.32 1445.72 L1711.73 1445.72 L1711.73 1416.66 L1684.32 1416.66 L1684.32 1416.66  Z
  " fill="#009af9" fill-rule="evenodd" fill-opacity="1"/>
<polyline clip-path="url(#clip712)" style="stroke:#000000; stroke-width:4; stroke-opacity:1; fill:none" points="
  1684.32,1416.66 1684.32,1445.72 1711.73,1445.72 1711.73,1416.66 1684.32,1416.66 
  "/>
<path clip-path="url(#clip712)" d="
M1711.73 1419.88 L1711.73 1445.72 L1739.13 1445.72 L1739.13 1419.88 L1711.73 1419.88 L1711.73 1419.88  Z
  " fill="#009af9" fill-rule="evenodd" fill-opacity="1"/>
<polyline clip-path="url(#clip712)" style="stroke:#000000; stroke-width:4; stroke-opacity:1; fill:none" points="
  1711.73,1419.88 1711.73,1445.72 1739.13,1445.72 1739.13,1419.88 1711.73,1419.88 
  "/>
<path clip-path="url(#clip712)" d="
M1739.13 1431.19 L1739.13 1445.72 L1766.54 1445.72 L1766.54 1431.19 L1739.13 1431.19 L1739.13 1431.19  Z
  " fill="#009af9" fill-rule="evenodd" fill-opacity="1"/>
<polyline clip-path="url(#clip712)" style="stroke:#000000; stroke-width:4; stroke-opacity:1; fill:none" points="
  1739.13,1431.19 1739.13,1445.72 1766.54,1445.72 1766.54,1431.19 1739.13,1431.19 
  "/>
<path clip-path="url(#clip712)" d="
M1766.54 1436.03 L1766.54 1445.72 L1793.95 1445.72 L1793.95 1436.03 L1766.54 1436.03 L1766.54 1436.03  Z
  " fill="#009af9" fill-rule="evenodd" fill-opacity="1"/>
<polyline clip-path="url(#clip712)" style="stroke:#000000; stroke-width:4; stroke-opacity:1; fill:none" points="
  1766.54,1436.03 1766.54,1445.72 1793.95,1445.72 1793.95,1436.03 1766.54,1436.03 
  "/>
<path clip-path="url(#clip712)" d="
M1793.95 1426.34 L1793.95 1445.72 L1821.36 1445.72 L1821.36 1426.34 L1793.95 1426.34 L1793.95 1426.34  Z
  " fill="#009af9" fill-rule="evenodd" fill-opacity="1"/>
<polyline clip-path="url(#clip712)" style="stroke:#000000; stroke-width:4; stroke-opacity:1; fill:none" points="
  1793.95,1426.34 1793.95,1445.72 1821.36,1445.72 1821.36,1426.34 1793.95,1426.34 
  "/>
<path clip-path="url(#clip712)" d="
M1821.36 1431.19 L1821.36 1445.72 L1848.77 1445.72 L1848.77 1431.19 L1821.36 1431.19 L1821.36 1431.19  Z
  " fill="#009af9" fill-rule="evenodd" fill-opacity="1"/>
<polyline clip-path="url(#clip712)" style="stroke:#000000; stroke-width:4; stroke-opacity:1; fill:none" points="
  1821.36,1431.19 1821.36,1445.72 1848.77,1445.72 1848.77,1431.19 1821.36,1431.19 
  "/>
<path clip-path="url(#clip712)" d="
M1848.77 1437.64 L1848.77 1445.72 L1876.18 1445.72 L1876.18 1437.64 L1848.77 1437.64 L1848.77 1437.64  Z
  " fill="#009af9" fill-rule="evenodd" fill-opacity="1"/>
<polyline clip-path="url(#clip712)" style="stroke:#000000; stroke-width:4; stroke-opacity:1; fill:none" points="
  1848.77,1437.64 1848.77,1445.72 1876.18,1445.72 1876.18,1437.64 1848.77,1437.64 
  "/>
<path clip-path="url(#clip712)" d="
M1876.18 1440.87 L1876.18 1445.72 L1903.59 1445.72 L1903.59 1440.87 L1876.18 1440.87 L1876.18 1440.87  Z
  " fill="#009af9" fill-rule="evenodd" fill-opacity="1"/>
<polyline clip-path="url(#clip712)" style="stroke:#000000; stroke-width:4; stroke-opacity:1; fill:none" points="
  1876.18,1440.87 1876.18,1445.72 1903.59,1445.72 1903.59,1440.87 1876.18,1440.87 
  "/>
<path clip-path="url(#clip712)" d="
M1903.59 1436.03 L1903.59 1445.72 L1931 1445.72 L1931 1436.03 L1903.59 1436.03 L1903.59 1436.03  Z
  " fill="#009af9" fill-rule="evenodd" fill-opacity="1"/>
<polyline clip-path="url(#clip712)" style="stroke:#000000; stroke-width:4; stroke-opacity:1; fill:none" points="
  1903.59,1436.03 1903.59,1445.72 1931,1445.72 1931,1436.03 1903.59,1436.03 
  "/>
<path clip-path="url(#clip712)" d="
M1931 1440.87 L1931 1445.72 L1958.4 1445.72 L1958.4 1440.87 L1931 1440.87 L1931 1440.87  Z
  " fill="#009af9" fill-rule="evenodd" fill-opacity="1"/>
<polyline clip-path="url(#clip712)" style="stroke:#000000; stroke-width:4; stroke-opacity:1; fill:none" points="
  1931,1440.87 1931,1445.72 1958.4,1445.72 1958.4,1440.87 1931,1440.87 
  "/>
<path clip-path="url(#clip712)" d="
M1958.4 1444.1 L1958.4 1445.72 L1985.81 1445.72 L1985.81 1444.1 L1958.4 1444.1 L1958.4 1444.1  Z
  " fill="#009af9" fill-rule="evenodd" fill-opacity="1"/>
<polyline clip-path="url(#clip712)" style="stroke:#000000; stroke-width:4; stroke-opacity:1; fill:none" points="
  1958.4,1444.1 1958.4,1445.72 1985.81,1445.72 1985.81,1444.1 1958.4,1444.1 
  "/>
<path clip-path="url(#clip712)" d="
M1985.81 1444.1 L1985.81 1445.72 L2013.22 1445.72 L2013.22 1444.1 L1985.81 1444.1 L1985.81 1444.1  Z
  " fill="#009af9" fill-rule="evenodd" fill-opacity="1"/>
<polyline clip-path="url(#clip712)" style="stroke:#000000; stroke-width:4; stroke-opacity:1; fill:none" points="
  1985.81,1444.1 1985.81,1445.72 2013.22,1445.72 2013.22,1444.1 1985.81,1444.1 
  "/>
<path clip-path="url(#clip712)" d="
M2013.22 1444.1 L2013.22 1445.72 L2040.63 1445.72 L2040.63 1444.1 L2013.22 1444.1 L2013.22 1444.1  Z
  " fill="#009af9" fill-rule="evenodd" fill-opacity="1"/>
<polyline clip-path="url(#clip712)" style="stroke:#000000; stroke-width:4; stroke-opacity:1; fill:none" points="
  2013.22,1444.1 2013.22,1445.72 2040.63,1445.72 2040.63,1444.1 2013.22,1444.1 
  "/>
<path clip-path="url(#clip712)" d="
M2040.63 1444.1 L2040.63 1445.72 L2068.04 1445.72 L2068.04 1444.1 L2040.63 1444.1 L2040.63 1444.1  Z
  " fill="#009af9" fill-rule="evenodd" fill-opacity="1"/>
<polyline clip-path="url(#clip712)" style="stroke:#000000; stroke-width:4; stroke-opacity:1; fill:none" points="
  2040.63,1444.1 2040.63,1445.72 2068.04,1445.72 2068.04,1444.1 2040.63,1444.1 
  "/>
<path clip-path="url(#clip712)" d="
M2068.04 1445.72 L2068.04 1445.72 L2095.45 1445.72 L2095.45 1445.72 L2068.04 1445.72 L2068.04 1445.72  Z
  " fill="#009af9" fill-rule="evenodd" fill-opacity="1"/>
<polyline clip-path="url(#clip712)" style="stroke:#000000; stroke-width:4; stroke-opacity:1; fill:none" points="
  2068.04,1445.72 2068.04,1445.72 2095.45,1445.72 2068.04,1445.72 
  "/>
<path clip-path="url(#clip712)" d="
M2095.45 1445.72 L2095.45 1445.72 L2122.86 1445.72 L2122.86 1445.72 L2095.45 1445.72 L2095.45 1445.72  Z
  " fill="#009af9" fill-rule="evenodd" fill-opacity="1"/>
<polyline clip-path="url(#clip712)" style="stroke:#000000; stroke-width:4; stroke-opacity:1; fill:none" points="
  2095.45,1445.72 2095.45,1445.72 2122.86,1445.72 2095.45,1445.72 
  "/>
<path clip-path="url(#clip712)" d="
M2122.86 1445.72 L2122.86 1445.72 L2150.27 1445.72 L2150.27 1445.72 L2122.86 1445.72 L2122.86 1445.72  Z
  " fill="#009af9" fill-rule="evenodd" fill-opacity="1"/>
<polyline clip-path="url(#clip712)" style="stroke:#000000; stroke-width:4; stroke-opacity:1; fill:none" points="
  2122.86,1445.72 2122.86,1445.72 2150.27,1445.72 2122.86,1445.72 
  "/>
<path clip-path="url(#clip712)" d="
M2150.27 1445.72 L2150.27 1445.72 L2177.67 1445.72 L2177.67 1445.72 L2150.27 1445.72 L2150.27 1445.72  Z
  " fill="#009af9" fill-rule="evenodd" fill-opacity="1"/>
<polyline clip-path="url(#clip712)" style="stroke:#000000; stroke-width:4; stroke-opacity:1; fill:none" points="
  2150.27,1445.72 2150.27,1445.72 2177.67,1445.72 2150.27,1445.72 
  "/>
<path clip-path="url(#clip712)" d="
M2177.67 1444.1 L2177.67 1445.72 L2205.08 1445.72 L2205.08 1444.1 L2177.67 1444.1 L2177.67 1444.1  Z
  " fill="#009af9" fill-rule="evenodd" fill-opacity="1"/>
<polyline clip-path="url(#clip712)" style="stroke:#000000; stroke-width:4; stroke-opacity:1; fill:none" points="
  2177.67,1444.1 2177.67,1445.72 2205.08,1445.72 2205.08,1444.1 2177.67,1444.1 
  "/>
<path clip-path="url(#clip712)" d="
M2205.08 1444.1 L2205.08 1445.72 L2232.49 1445.72 L2232.49 1444.1 L2205.08 1444.1 L2205.08 1444.1  Z
  " fill="#009af9" fill-rule="evenodd" fill-opacity="1"/>
<polyline clip-path="url(#clip712)" style="stroke:#000000; stroke-width:4; stroke-opacity:1; fill:none" points="
  2205.08,1444.1 2205.08,1445.72 2232.49,1445.72 2232.49,1444.1 2205.08,1444.1 
  "/>
<path clip-path="url(#clip710)" d="
M1989.74 251.724 L2280.76 251.724 L2280.76 130.764 L1989.74 130.764  Z
  " fill="#ffffff" fill-rule="evenodd" fill-opacity="1"/>
<polyline clip-path="url(#clip710)" style="stroke:#000000; stroke-width:4; stroke-opacity:1; fill:none" points="
  1989.74,251.724 2280.76,251.724 2280.76,130.764 1989.74,130.764 1989.74,251.724 
  "/>
<path clip-path="url(#clip710)" d="
M2013.74 215.436 L2157.74 215.436 L2157.74 167.052 L2013.74 167.052 L2013.74 215.436  Z
  " fill="#009af9" fill-rule="evenodd" fill-opacity="1"/>
<polyline clip-path="url(#clip710)" style="stroke:#000000; stroke-width:4; stroke-opacity:1; fill:none" points="
  2013.74,215.436 2157.74,215.436 2157.74,167.052 2013.74,167.052 2013.74,215.436 
  "/>
<path clip-path="url(#clip710)" d="M 0 0 M2195.58 210.931 Q2193.77 215.561 2192.06 216.973 Q2190.35 218.385 2187.48 218.385 L2184.08 218.385 L2184.08 214.82 L2186.58 214.82 Q2188.33 214.82 2189.31 213.987 Q2190.28 213.154 2191.46 210.052 L2192.22 208.107 L2181.74 182.598 L2186.25 182.598 L2194.35 202.876 L2202.46 182.598 L2206.97 182.598 L2195.58 210.931 Z" fill="#000000" fill-rule="evenodd" fill-opacity="1" /><path clip-path="url(#clip710)" d="M 0 0 M2212.85 204.589 L2220.49 204.589 L2220.49 178.223 L2212.18 179.89 L2212.18 175.631 L2220.44 173.964 L2225.12 173.964 L2225.12 204.589 L2232.76 204.589 L2232.76 208.524 L2212.85 208.524 L2212.85 204.589 Z" fill="#000000" fill-rule="evenodd" fill-opacity="1" /></svg>
