<?xml version="1.0" encoding="utf-8"?>
<svg xmlns="http://www.w3.org/2000/svg" xmlns:xlink="http://www.w3.org/1999/xlink" width="600" height="400" viewBox="0 0 2400 1600">
<defs>
  <clipPath id="clip690">
    <rect x="0" y="0" width="2400" height="1600"/>
  </clipPath>
</defs>
<path clip-path="url(#clip690)" d="
M0 1600 L2400 1600 L2400 0 L0 0  Z
  " fill="#ffffff" fill-rule="evenodd" fill-opacity="1"/>
<defs>
  <clipPath id="clip691">
    <rect x="480" y="0" width="1681" height="1600"/>
  </clipPath>
</defs>
<path clip-path="url(#clip690)" d="
M166.205 1486.45 L2352.76 1486.45 L2352.76 47.2441 L166.205 47.2441  Z
  " fill="#ffffff" fill-rule="evenodd" fill-opacity="1"/>
<defs>
  <clipPath id="clip692">
    <rect x="166" y="47" width="2188" height="1440"/>
  </clipPath>
</defs>
<polyline clip-path="url(#clip692)" style="stroke:#000000; stroke-width:2; stroke-opacity:0.1; fill:none" points="
  533.148,1486.45 533.148,47.2441 
  "/>
<polyline clip-path="url(#clip692)" style="stroke:#000000; stroke-width:2; stroke-opacity:0.1; fill:none" points="
  944.279,1486.45 944.279,47.2441 
  "/>
<polyline clip-path="url(#clip692)" style="stroke:#000000; stroke-width:2; stroke-opacity:0.1; fill:none" points="
  1355.41,1486.45 1355.41,47.2441 
  "/>
<polyline clip-path="url(#clip692)" style="stroke:#000000; stroke-width:2; stroke-opacity:0.1; fill:none" points="
  1766.54,1486.45 1766.54,47.2441 
  "/>
<polyline clip-path="url(#clip692)" style="stroke:#000000; stroke-width:2; stroke-opacity:0.1; fill:none" points="
  2177.67,1486.45 2177.67,47.2441 
  "/>
<polyline clip-path="url(#clip692)" style="stroke:#000000; stroke-width:2; stroke-opacity:0.1; fill:none" points="
  166.205,1445.72 2352.76,1445.72 
  "/>
<polyline clip-path="url(#clip692)" style="stroke:#000000; stroke-width:2; stroke-opacity:0.1; fill:none" points="
  166.205,1106.7 2352.76,1106.7 
  "/>
<polyline clip-path="url(#clip692)" style="stroke:#000000; stroke-width:2; stroke-opacity:0.1; fill:none" points="
  166.205,767.694 2352.76,767.694 
  "/>
<polyline clip-path="url(#clip692)" style="stroke:#000000; stroke-width:2; stroke-opacity:0.1; fill:none" points="
  166.205,428.682 2352.76,428.682 
  "/>
<polyline clip-path="url(#clip692)" style="stroke:#000000; stroke-width:2; stroke-opacity:0.1; fill:none" points="
  166.205,89.6713 2352.76,89.6713 
  "/>
<polyline clip-path="url(#clip690)" style="stroke:#000000; stroke-width:4; stroke-opacity:1; fill:none" points="
  166.205,1486.45 2352.76,1486.45 
  "/>
<polyline clip-path="url(#clip690)" style="stroke:#000000; stroke-width:4; stroke-opacity:1; fill:none" points="
  166.205,1486.45 166.205,47.2441 
  "/>
<polyline clip-path="url(#clip690)" style="stroke:#000000; stroke-width:4; stroke-opacity:1; fill:none" points="
  533.148,1486.45 533.148,1469.18 
  "/>
<polyline clip-path="url(#clip690)" style="stroke:#000000; stroke-width:4; stroke-opacity:1; fill:none" points="
  944.279,1486.45 944.279,1469.18 
  "/>
<polyline clip-path="url(#clip690)" style="stroke:#000000; stroke-width:4; stroke-opacity:1; fill:none" points="
  1355.41,1486.45 1355.41,1469.18 
  "/>
<polyline clip-path="url(#clip690)" style="stroke:#000000; stroke-width:4; stroke-opacity:1; fill:none" points="
  1766.54,1486.45 1766.54,1469.18 
  "/>
<polyline clip-path="url(#clip690)" style="stroke:#000000; stroke-width:4; stroke-opacity:1; fill:none" points="
  2177.67,1486.45 2177.67,1469.18 
  "/>
<polyline clip-path="url(#clip690)" style="stroke:#000000; stroke-width:4; stroke-opacity:1; fill:none" points="
  166.205,1445.72 192.443,1445.72 
  "/>
<polyline clip-path="url(#clip690)" style="stroke:#000000; stroke-width:4; stroke-opacity:1; fill:none" points="
  166.205,1106.7 192.443,1106.7 
  "/>
<polyline clip-path="url(#clip690)" style="stroke:#000000; stroke-width:4; stroke-opacity:1; fill:none" points="
  166.205,767.694 192.443,767.694 
  "/>
<polyline clip-path="url(#clip690)" style="stroke:#000000; stroke-width:4; stroke-opacity:1; fill:none" points="
  166.205,428.682 192.443,428.682 
  "/>
<polyline clip-path="url(#clip690)" style="stroke:#000000; stroke-width:4; stroke-opacity:1; fill:none" points="
  166.205,89.6713 192.443,89.6713 
  "/>
<path clip-path="url(#clip690)" d="M 0 0 M513.322 1525.04 L525.798 1525.04 L525.798 1528.83 L513.322 1528.83 L513.322 1525.04 Z" fill="#000000" fill-rule="evenodd" fill-opacity="1" /><path clip-path="url(#clip690)" d="M 0 0 M541.446 1520.78 Q538.298 1520.78 536.446 1522.93 Q534.618 1525.08 534.618 1528.83 Q534.618 1532.56 536.446 1534.73 Q538.298 1536.89 541.446 1536.89 Q544.595 1536.89 546.423 1534.73 Q548.275 1532.56 548.275 1528.83 Q548.275 1525.08 546.423 1522.93 Q544.595 1520.78 541.446 1520.78 M550.729 1506.12 L550.729 1510.38 Q548.969 1509.55 547.164 1509.11 Q545.382 1508.67 543.622 1508.67 Q538.993 1508.67 536.539 1511.8 Q534.108 1514.92 533.761 1521.24 Q535.127 1519.23 537.187 1518.16 Q539.247 1517.07 541.724 1517.07 Q546.932 1517.07 549.942 1520.24 Q552.974 1523.39 552.974 1528.83 Q552.974 1534.16 549.826 1537.37 Q546.678 1540.59 541.446 1540.59 Q535.451 1540.59 532.28 1536.01 Q529.108 1531.4 529.108 1522.67 Q529.108 1514.48 532.997 1509.62 Q536.886 1504.73 543.437 1504.73 Q545.196 1504.73 546.979 1505.08 Q548.784 1505.43 550.729 1506.12 Z" fill="#000000" fill-rule="evenodd" fill-opacity="1" /><path clip-path="url(#clip690)" d="M 0 0 M924.858 1525.04 L937.335 1525.04 L937.335 1528.83 L924.858 1528.83 L924.858 1525.04 Z" fill="#000000" fill-rule="evenodd" fill-opacity="1" /><path clip-path="url(#clip690)" d="M 0 0 M956.571 1521.29 Q959.927 1522 961.802 1524.27 Q963.701 1526.54 963.701 1529.87 Q963.701 1534.99 960.182 1537.79 Q956.664 1540.59 950.182 1540.59 Q948.006 1540.59 945.691 1540.15 Q943.4 1539.73 940.946 1538.88 L940.946 1534.36 Q942.891 1535.5 945.205 1536.08 Q947.52 1536.66 950.043 1536.66 Q954.441 1536.66 956.733 1534.92 Q959.048 1533.18 959.048 1529.87 Q959.048 1526.82 956.895 1525.11 Q954.765 1523.37 950.946 1523.37 L946.918 1523.37 L946.918 1519.53 L951.131 1519.53 Q954.58 1519.53 956.409 1518.16 Q958.238 1516.77 958.238 1514.18 Q958.238 1511.52 956.34 1510.11 Q954.465 1508.67 950.946 1508.67 Q949.025 1508.67 946.826 1509.09 Q944.627 1509.5 941.988 1510.38 L941.988 1506.22 Q944.65 1505.48 946.965 1505.11 Q949.303 1504.73 951.363 1504.73 Q956.687 1504.73 959.789 1507.17 Q962.89 1509.57 962.89 1513.69 Q962.89 1516.56 961.247 1518.55 Q959.603 1520.52 956.571 1521.29 Z" fill="#000000" fill-rule="evenodd" fill-opacity="1" /><path clip-path="url(#clip690)" d="M 0 0 M1355.41 1508.44 Q1351.8 1508.44 1349.97 1512 Q1348.17 1515.55 1348.17 1522.67 Q1348.17 1529.78 1349.97 1533.35 Q1351.8 1536.89 1355.41 1536.89 Q1359.05 1536.89 1360.85 1533.35 Q1362.68 1529.78 1362.68 1522.67 Q1362.68 1515.55 1360.85 1512 Q1359.05 1508.44 1355.41 1508.44 M1355.41 1504.73 Q1361.22 1504.73 1364.28 1509.34 Q1367.36 1513.92 1367.36 1522.67 Q1367.36 1531.4 1364.28 1536.01 Q1361.22 1540.59 1355.41 1540.59 Q1349.6 1540.59 1346.52 1536.01 Q1343.47 1531.4 1343.47 1522.67 Q1343.47 1513.92 1346.52 1509.34 Q1349.6 1504.73 1355.41 1504.73 Z" fill="#000000" fill-rule="evenodd" fill-opacity="1" /><path clip-path="url(#clip690)" d="M 0 0 M1770.79 1521.29 Q1774.15 1522 1776.02 1524.27 Q1777.92 1526.54 1777.92 1529.87 Q1777.92 1534.99 1774.4 1537.79 Q1770.88 1540.59 1764.4 1540.59 Q1762.23 1540.59 1759.91 1540.15 Q1757.62 1539.73 1755.17 1538.88 L1755.17 1534.36 Q1757.11 1535.5 1759.42 1536.08 Q1761.74 1536.66 1764.26 1536.66 Q1768.66 1536.66 1770.95 1534.92 Q1773.27 1533.18 1773.27 1529.87 Q1773.27 1526.82 1771.11 1525.11 Q1768.98 1523.37 1765.17 1523.37 L1761.14 1523.37 L1761.14 1519.53 L1765.35 1519.53 Q1768.8 1519.53 1770.63 1518.16 Q1772.46 1516.77 1772.46 1514.18 Q1772.46 1511.52 1770.56 1510.11 Q1768.68 1508.67 1765.17 1508.67 Q1763.24 1508.67 1761.04 1509.09 Q1758.85 1509.5 1756.21 1510.38 L1756.21 1506.22 Q1758.87 1505.48 1761.18 1505.11 Q1763.52 1504.73 1765.58 1504.73 Q1770.91 1504.73 1774.01 1507.17 Q1777.11 1509.57 1777.11 1513.69 Q1777.11 1516.56 1775.47 1518.55 Q1773.82 1520.52 1770.79 1521.29 Z" fill="#000000" fill-rule="evenodd" fill-opacity="1" /><path clip-path="url(#clip690)" d="M 0 0 M2178.08 1520.78 Q2174.93 1520.78 2173.08 1522.93 Q2171.25 1525.08 2171.25 1528.83 Q2171.25 1532.56 2173.08 1534.73 Q2174.93 1536.89 2178.08 1536.89 Q2181.23 1536.89 2183.06 1534.73 Q2184.91 1532.56 2184.91 1528.83 Q2184.91 1525.08 2183.06 1522.93 Q2181.23 1520.78 2178.08 1520.78 M2187.36 1506.12 L2187.36 1510.38 Q2185.6 1509.55 2183.8 1509.11 Q2182.01 1508.67 2180.26 1508.67 Q2175.63 1508.67 2173.17 1511.8 Q2170.74 1514.92 2170.39 1521.24 Q2171.76 1519.23 2173.82 1518.16 Q2175.88 1517.07 2178.36 1517.07 Q2183.57 1517.07 2186.57 1520.24 Q2189.61 1523.39 2189.61 1528.83 Q2189.61 1534.16 2186.46 1537.37 Q2183.31 1540.59 2178.08 1540.59 Q2172.08 1540.59 2168.91 1536.01 Q2165.74 1531.4 2165.74 1522.67 Q2165.74 1514.48 2169.63 1509.62 Q2173.52 1504.73 2180.07 1504.73 Q2181.83 1504.73 2183.61 1505.08 Q2185.42 1505.43 2187.36 1506.12 Z" fill="#000000" fill-rule="evenodd" fill-opacity="1" /><path clip-path="url(#clip690)" d="M 0 0 M130.26 1431.51 Q126.649 1431.51 124.82 1435.08 Q123.015 1438.62 123.015 1445.75 Q123.015 1452.86 124.82 1456.42 Q126.649 1459.96 130.26 1459.96 Q133.895 1459.96 135.7 1456.42 Q137.529 1452.86 137.529 1445.75 Q137.529 1438.62 135.7 1435.08 Q133.895 1431.51 130.26 1431.51 M130.26 1427.81 Q136.07 1427.81 139.126 1432.42 Q142.205 1437 142.205 1445.75 Q142.205 1454.48 139.126 1459.08 Q136.07 1463.67 130.26 1463.67 Q124.45 1463.67 121.371 1459.08 Q118.316 1454.48 118.316 1445.75 Q118.316 1437 121.371 1432.42 Q124.45 1427.81 130.26 1427.81 Z" fill="#000000" fill-rule="evenodd" fill-opacity="1" /><path clip-path="url(#clip690)" d="M 0 0 M71.8578 1120.05 L88.1772 1120.05 L88.1772 1123.98 L66.2328 1123.98 L66.2328 1120.05 Q68.8949 1117.29 73.4782 1112.67 Q78.0846 1108.01 79.2652 1106.67 Q81.5105 1104.15 82.3902 1102.41 Q83.2929 1100.65 83.2929 1098.96 Q83.2929 1096.21 81.3485 1094.47 Q79.4272 1092.73 76.3254 1092.73 Q74.1263 1092.73 71.6726 1093.5 Q69.2421 1094.26 66.4643 1095.81 L66.4643 1091.09 Q69.2884 1089.96 71.7421 1089.38 Q74.1958 1088.8 76.2328 1088.8 Q81.6031 1088.8 84.7976 1091.48 Q87.992 1094.17 87.992 1098.66 Q87.992 1100.79 87.1818 1102.71 Q86.3948 1104.61 84.2883 1107.2 Q83.7096 1107.87 80.6078 1111.09 Q77.5059 1114.29 71.8578 1120.05 Z" fill="#000000" fill-rule="evenodd" fill-opacity="1" /><path clip-path="url(#clip690)" d="M 0 0 M103.247 1092.5 Q99.6354 1092.5 97.8068 1096.07 Q96.0012 1099.61 96.0012 1106.74 Q96.0012 1113.85 97.8068 1117.41 Q99.6354 1120.95 103.247 1120.95 Q106.881 1120.95 108.686 1117.41 Q110.515 1113.85 110.515 1106.74 Q110.515 1099.61 108.686 1096.07 Q106.881 1092.5 103.247 1092.5 M103.247 1088.8 Q109.057 1088.8 112.112 1093.41 Q115.191 1097.99 115.191 1106.74 Q115.191 1115.47 112.112 1120.07 Q109.057 1124.66 103.247 1124.66 Q97.4364 1124.66 94.3577 1120.07 Q91.3022 1115.47 91.3022 1106.74 Q91.3022 1097.99 94.3577 1093.41 Q97.4364 1088.8 103.247 1088.8 Z" fill="#000000" fill-rule="evenodd" fill-opacity="1" /><path clip-path="url(#clip690)" d="M 0 0 M130.26 1092.5 Q126.649 1092.5 124.82 1096.07 Q123.015 1099.61 123.015 1106.74 Q123.015 1113.85 124.82 1117.41 Q126.649 1120.95 130.26 1120.95 Q133.895 1120.95 135.7 1117.41 Q137.529 1113.85 137.529 1106.74 Q137.529 1099.61 135.7 1096.07 Q133.895 1092.5 130.26 1092.5 M130.26 1088.8 Q136.07 1088.8 139.126 1093.41 Q142.205 1097.99 142.205 1106.74 Q142.205 1115.47 139.126 1120.07 Q136.07 1124.66 130.26 1124.66 Q124.45 1124.66 121.371 1120.07 Q118.316 1115.47 118.316 1106.74 Q118.316 1097.99 121.371 1093.41 Q124.45 1088.8 130.26 1088.8 Z" fill="#000000" fill-rule="evenodd" fill-opacity="1" /><path clip-path="url(#clip690)" d="M 0 0 M78.5939 754.488 L66.7884 772.937 L78.5939 772.937 L78.5939 754.488 M77.367 750.414 L83.2466 750.414 L83.2466 772.937 L88.1772 772.937 L88.1772 776.825 L83.2466 776.825 L83.2466 784.974 L78.5939 784.974 L78.5939 776.825 L62.9921 776.825 L62.9921 772.312 L77.367 750.414 Z" fill="#000000" fill-rule="evenodd" fill-opacity="1" /><path clip-path="url(#clip690)" d="M 0 0 M103.247 753.492 Q99.6354 753.492 97.8068 757.057 Q96.0012 760.599 96.0012 767.728 Q96.0012 774.835 97.8068 778.399 Q99.6354 781.941 103.247 781.941 Q106.881 781.941 108.686 778.399 Q110.515 774.835 110.515 767.728 Q110.515 760.599 108.686 757.057 Q106.881 753.492 103.247 753.492 M103.247 749.789 Q109.057 749.789 112.112 754.395 Q115.191 758.978 115.191 767.728 Q115.191 776.455 112.112 781.061 Q109.057 785.645 103.247 785.645 Q97.4364 785.645 94.3577 781.061 Q91.3022 776.455 91.3022 767.728 Q91.3022 758.978 94.3577 754.395 Q97.4364 749.789 103.247 749.789 Z" fill="#000000" fill-rule="evenodd" fill-opacity="1" /><path clip-path="url(#clip690)" d="M 0 0 M130.26 753.492 Q126.649 753.492 124.82 757.057 Q123.015 760.599 123.015 767.728 Q123.015 774.835 124.82 778.399 Q126.649 781.941 130.26 781.941 Q133.895 781.941 135.7 778.399 Q137.529 774.835 137.529 767.728 Q137.529 760.599 135.7 757.057 Q133.895 753.492 130.26 753.492 M130.26 749.789 Q136.07 749.789 139.126 754.395 Q142.205 758.978 142.205 767.728 Q142.205 776.455 139.126 781.061 Q136.07 785.645 130.26 785.645 Q124.45 785.645 121.371 781.061 Q118.316 776.455 118.316 767.728 Q118.316 758.978 121.371 754.395 Q124.45 749.789 130.26 749.789 Z" fill="#000000" fill-rule="evenodd" fill-opacity="1" /><path clip-path="url(#clip690)" d="M 0 0 M76.6495 426.819 Q73.5013 426.819 71.6495 428.972 Q69.8208 431.125 69.8208 434.875 Q69.8208 438.601 71.6495 440.777 Q73.5013 442.93 76.6495 442.93 Q79.7976 442.93 81.6263 440.777 Q83.4781 438.601 83.4781 434.875 Q83.4781 431.125 81.6263 428.972 Q79.7976 426.819 76.6495 426.819 M85.9318 412.166 L85.9318 416.426 Q84.1726 415.592 82.367 415.152 Q80.5846 414.713 78.8254 414.713 Q74.1958 414.713 71.7421 417.838 Q69.3115 420.963 68.9643 427.282 Q70.33 425.268 72.3902 424.203 Q74.4504 423.115 76.9272 423.115 Q82.1355 423.115 85.1448 426.287 Q88.1772 429.435 88.1772 434.875 Q88.1772 440.199 85.029 443.416 Q81.8809 446.634 76.6495 446.634 Q70.6541 446.634 67.4828 442.05 Q64.3116 437.444 64.3116 428.717 Q64.3116 420.523 68.2004 415.662 Q72.0893 410.777 78.6402 410.777 Q80.3994 410.777 82.1818 411.125 Q83.9874 411.472 85.9318 412.166 Z" fill="#000000" fill-rule="evenodd" fill-opacity="1" /><path clip-path="url(#clip690)" d="M 0 0 M103.247 414.481 Q99.6354 414.481 97.8068 418.046 Q96.0012 421.588 96.0012 428.717 Q96.0012 435.824 97.8068 439.388 Q99.6354 442.93 103.247 442.93 Q106.881 442.93 108.686 439.388 Q110.515 435.824 110.515 428.717 Q110.515 421.588 108.686 418.046 Q106.881 414.481 103.247 414.481 M103.247 410.777 Q109.057 410.777 112.112 415.384 Q115.191 419.967 115.191 428.717 Q115.191 437.444 112.112 442.05 Q109.057 446.634 103.247 446.634 Q97.4364 446.634 94.3577 442.05 Q91.3022 437.444 91.3022 428.717 Q91.3022 419.967 94.3577 415.384 Q97.4364 410.777 103.247 410.777 Z" fill="#000000" fill-rule="evenodd" fill-opacity="1" /><path clip-path="url(#clip690)" d="M 0 0 M130.26 414.481 Q126.649 414.481 124.82 418.046 Q123.015 421.588 123.015 428.717 Q123.015 435.824 124.82 439.388 Q126.649 442.93 130.26 442.93 Q133.895 442.93 135.7 439.388 Q137.529 435.824 137.529 428.717 Q137.529 421.588 135.7 418.046 Q133.895 414.481 130.26 414.481 M130.26 410.777 Q136.07 410.777 139.126 415.384 Q142.205 419.967 142.205 428.717 Q142.205 437.444 139.126 442.05 Q136.07 446.634 130.26 446.634 Q124.45 446.634 121.371 442.05 Q118.316 437.444 118.316 428.717 Q118.316 419.967 121.371 415.384 Q124.45 410.777 130.26 410.777 Z" fill="#000000" fill-rule="evenodd" fill-opacity="1" /><path clip-path="url(#clip690)" d="M 0 0 M76.3254 90.5394 Q72.9921 90.5394 71.0708 92.3218 Q69.1726 94.1042 69.1726 97.2292 Q69.1726 100.354 71.0708 102.137 Q72.9921 103.919 76.3254 103.919 Q79.6587 103.919 81.58 102.137 Q83.5013 100.331 83.5013 97.2292 Q83.5013 94.1042 81.58 92.3218 Q79.6819 90.5394 76.3254 90.5394 M71.6495 88.5487 Q68.6402 87.8079 66.9504 85.7477 Q65.2838 83.6876 65.2838 80.7246 Q65.2838 76.5811 68.2236 74.1737 Q71.1865 71.7663 76.3254 71.7663 Q81.4874 71.7663 84.4272 74.1737 Q87.367 76.5811 87.367 80.7246 Q87.367 83.6876 85.6772 85.7477 Q84.0105 87.8079 81.0244 88.5487 Q84.404 89.3357 86.279 91.6273 Q88.1772 93.919 88.1772 97.2292 Q88.1772 102.252 85.0985 104.937 Q82.0429 107.623 76.3254 107.623 Q70.6078 107.623 67.5291 104.937 Q64.4736 102.252 64.4736 97.2292 Q64.4736 93.919 66.3717 91.6273 Q68.2699 89.3357 71.6495 88.5487 M69.9365 81.1644 Q69.9365 83.8496 71.6032 85.3542 Q73.293 86.8588 76.3254 86.8588 Q79.3346 86.8588 81.0244 85.3542 Q82.7374 83.8496 82.7374 81.1644 Q82.7374 78.4793 81.0244 76.9746 Q79.3346 75.47 76.3254 75.47 Q73.293 75.47 71.6032 76.9746 Q69.9365 78.4793 69.9365 81.1644 Z" fill="#000000" fill-rule="evenodd" fill-opacity="1" /><path clip-path="url(#clip690)" d="M 0 0 M103.247 75.47 Q99.6354 75.47 97.8068 79.0348 Q96.0012 82.5765 96.0012 89.7061 Q96.0012 96.8125 97.8068 100.377 Q99.6354 103.919 103.247 103.919 Q106.881 103.919 108.686 100.377 Q110.515 96.8125 110.515 89.7061 Q110.515 82.5765 108.686 79.0348 Q106.881 75.47 103.247 75.47 M103.247 71.7663 Q109.057 71.7663 112.112 76.3728 Q115.191 80.9561 115.191 89.7061 Q115.191 98.4329 112.112 103.039 Q109.057 107.623 103.247 107.623 Q97.4364 107.623 94.3577 103.039 Q91.3022 98.4329 91.3022 89.7061 Q91.3022 80.9561 94.3577 76.3728 Q97.4364 71.7663 103.247 71.7663 Z" fill="#000000" fill-rule="evenodd" fill-opacity="1" /><path clip-path="url(#clip690)" d="M 0 0 M130.26 75.47 Q126.649 75.47 124.82 79.0348 Q123.015 82.5765 123.015 89.7061 Q123.015 96.8125 124.82 100.377 Q126.649 103.919 130.26 103.919 Q133.895 103.919 135.7 100.377 Q137.529 96.8125 137.529 89.7061 Q137.529 82.5765 135.7 79.0348 Q133.895 75.47 130.26 75.47 M130.26 71.7663 Q136.07 71.7663 139.126 76.3728 Q142.205 80.9561 142.205 89.7061 Q142.205 98.4329 139.126 103.039 Q136.07 107.623 130.26 107.623 Q124.45 107.623 121.371 103.039 Q118.316 98.4329 118.316 89.7061 Q118.316 80.9561 121.371 76.3728 Q124.45 71.7663 130.26 71.7663 Z" fill="#000000" fill-rule="evenodd" fill-opacity="1" /><path clip-path="url(#clip692)" d="
M286.469 1444.02 L286.469 1445.72 L313.878 1445.72 L313.878 1444.02 L286.469 1444.02 L286.469 1444.02  Z
  " fill="#009af9" fill-rule="evenodd" fill-opacity="1"/>
<polyline clip-path="url(#clip692)" style="stroke:#000000; stroke-width:4; stroke-opacity:1; fill:none" points="
  286.469,1444.02 286.469,1445.72 313.878,1445.72 313.878,1444.02 286.469,1444.02 
  "/>
<path clip-path="url(#clip692)" d="
M313.878 1445.72 L313.878 1445.72 L341.286 1445.72 L341.286 1445.72 L313.878 1445.72 L313.878 1445.72  Z
  " fill="#009af9" fill-rule="evenodd" fill-opacity="1"/>
<polyline clip-path="url(#clip692)" style="stroke:#000000; stroke-width:4; stroke-opacity:1; fill:none" points="
  313.878,1445.72 313.878,1445.72 341.286,1445.72 313.878,1445.72 
  "/>
<path clip-path="url(#clip692)" d="
M341.286 1445.72 L341.286 1445.72 L368.695 1445.72 L368.695 1445.72 L341.286 1445.72 L341.286 1445.72  Z
  " fill="#009af9" fill-rule="evenodd" fill-opacity="1"/>
<polyline clip-path="url(#clip692)" style="stroke:#000000; stroke-width:4; stroke-opacity:1; fill:none" points="
  341.286,1445.72 341.286,1445.72 368.695,1445.72 341.286,1445.72 
  "/>
<path clip-path="url(#clip692)" d="
M368.695 1445.72 L368.695 1445.72 L396.104 1445.72 L396.104 1445.72 L368.695 1445.72 L368.695 1445.72  Z
  " fill="#009af9" fill-rule="evenodd" fill-opacity="1"/>
<polyline clip-path="url(#clip692)" style="stroke:#000000; stroke-width:4; stroke-opacity:1; fill:none" points="
  368.695,1445.72 368.695,1445.72 396.104,1445.72 368.695,1445.72 
  "/>
<path clip-path="url(#clip692)" d="
M396.104 1445.72 L396.104 1445.72 L423.513 1445.72 L423.513 1445.72 L396.104 1445.72 L396.104 1445.72  Z
  " fill="#009af9" fill-rule="evenodd" fill-opacity="1"/>
<polyline clip-path="url(#clip692)" style="stroke:#000000; stroke-width:4; stroke-opacity:1; fill:none" points="
  396.104,1445.72 396.104,1445.72 423.513,1445.72 396.104,1445.72 
  "/>
<path clip-path="url(#clip692)" d="
M423.513 1444.02 L423.513 1445.72 L450.922 1445.72 L450.922 1444.02 L423.513 1444.02 L423.513 1444.02  Z
  " fill="#009af9" fill-rule="evenodd" fill-opacity="1"/>
<polyline clip-path="url(#clip692)" style="stroke:#000000; stroke-width:4; stroke-opacity:1; fill:none" points="
  423.513,1444.02 423.513,1445.72 450.922,1445.72 450.922,1444.02 423.513,1444.02 
  "/>
<path clip-path="url(#clip692)" d="
M450.922 1445.72 L450.922 1445.72 L478.33 1445.72 L478.33 1445.72 L450.922 1445.72 L450.922 1445.72  Z
  " fill="#009af9" fill-rule="evenodd" fill-opacity="1"/>
<polyline clip-path="url(#clip692)" style="stroke:#000000; stroke-width:4; stroke-opacity:1; fill:none" points="
  450.922,1445.72 450.922,1445.72 478.33,1445.72 450.922,1445.72 
  "/>
<path clip-path="url(#clip692)" d="
M478.33 1445.72 L478.33 1445.72 L505.739 1445.72 L505.739 1445.72 L478.33 1445.72 L478.33 1445.72  Z
  " fill="#009af9" fill-rule="evenodd" fill-opacity="1"/>
<polyline clip-path="url(#clip692)" style="stroke:#000000; stroke-width:4; stroke-opacity:1; fill:none" points="
  478.33,1445.72 478.33,1445.72 505.739,1445.72 478.33,1445.72 
  "/>
<path clip-path="url(#clip692)" d="
M505.739 1444.02 L505.739 1445.72 L533.148 1445.72 L533.148 1444.02 L505.739 1444.02 L505.739 1444.02  Z
  " fill="#009af9" fill-rule="evenodd" fill-opacity="1"/>
<polyline clip-path="url(#clip692)" style="stroke:#000000; stroke-width:4; stroke-opacity:1; fill:none" points="
  505.739,1444.02 505.739,1445.72 533.148,1445.72 533.148,1444.02 505.739,1444.02 
  "/>
<path clip-path="url(#clip692)" d="
M533.148 1442.33 L533.148 1445.72 L560.557 1445.72 L560.557 1442.33 L533.148 1442.33 L533.148 1442.33  Z
  " fill="#009af9" fill-rule="evenodd" fill-opacity="1"/>
<polyline clip-path="url(#clip692)" style="stroke:#000000; stroke-width:4; stroke-opacity:1; fill:none" points="
  533.148,1442.33 533.148,1445.72 560.557,1445.72 560.557,1442.33 533.148,1442.33 
  "/>
<path clip-path="url(#clip692)" d="
M560.557 1444.02 L560.557 1445.72 L587.965 1445.72 L587.965 1444.02 L560.557 1444.02 L560.557 1444.02  Z
  " fill="#009af9" fill-rule="evenodd" fill-opacity="1"/>
<polyline clip-path="url(#clip692)" style="stroke:#000000; stroke-width:4; stroke-opacity:1; fill:none" points="
  560.557,1444.02 560.557,1445.72 587.965,1445.72 587.965,1444.02 560.557,1444.02 
  "/>
<path clip-path="url(#clip692)" d="
M587.965 1435.55 L587.965 1445.72 L615.374 1445.72 L615.374 1435.55 L587.965 1435.55 L587.965 1435.55  Z
  " fill="#009af9" fill-rule="evenodd" fill-opacity="1"/>
<polyline clip-path="url(#clip692)" style="stroke:#000000; stroke-width:4; stroke-opacity:1; fill:none" points="
  587.965,1435.55 587.965,1445.72 615.374,1445.72 615.374,1435.55 587.965,1435.55 
  "/>
<path clip-path="url(#clip692)" d="
M615.374 1438.94 L615.374 1445.72 L642.783 1445.72 L642.783 1438.94 L615.374 1438.94 L615.374 1438.94  Z
  " fill="#009af9" fill-rule="evenodd" fill-opacity="1"/>
<polyline clip-path="url(#clip692)" style="stroke:#000000; stroke-width:4; stroke-opacity:1; fill:none" points="
  615.374,1438.94 615.374,1445.72 642.783,1445.72 642.783,1438.94 615.374,1438.94 
  "/>
<path clip-path="url(#clip692)" d="
M642.783 1433.85 L642.783 1445.72 L670.192 1445.72 L670.192 1433.85 L642.783 1433.85 L642.783 1433.85  Z
  " fill="#009af9" fill-rule="evenodd" fill-opacity="1"/>
<polyline clip-path="url(#clip692)" style="stroke:#000000; stroke-width:4; stroke-opacity:1; fill:none" points="
  642.783,1433.85 642.783,1445.72 670.192,1445.72 670.192,1433.85 642.783,1433.85 
  "/>
<path clip-path="url(#clip692)" d="
M670.192 1437.24 L670.192 1445.72 L697.6 1445.72 L697.6 1437.24 L670.192 1437.24 L670.192 1437.24  Z
  " fill="#009af9" fill-rule="evenodd" fill-opacity="1"/>
<polyline clip-path="url(#clip692)" style="stroke:#000000; stroke-width:4; stroke-opacity:1; fill:none" points="
  670.192,1437.24 670.192,1445.72 697.6,1445.72 697.6,1437.24 670.192,1437.24 
  "/>
<path clip-path="url(#clip692)" d="
M697.6 1435.55 L697.6 1445.72 L725.009 1445.72 L725.009 1435.55 L697.6 1435.55 L697.6 1435.55  Z
  " fill="#009af9" fill-rule="evenodd" fill-opacity="1"/>
<polyline clip-path="url(#clip692)" style="stroke:#000000; stroke-width:4; stroke-opacity:1; fill:none" points="
  697.6,1435.55 697.6,1445.72 725.009,1445.72 725.009,1435.55 697.6,1435.55 
  "/>
<path clip-path="url(#clip692)" d="
M725.009 1425.38 L725.009 1445.72 L752.418 1445.72 L752.418 1425.38 L725.009 1425.38 L725.009 1425.38  Z
  " fill="#009af9" fill-rule="evenodd" fill-opacity="1"/>
<polyline clip-path="url(#clip692)" style="stroke:#000000; stroke-width:4; stroke-opacity:1; fill:none" points="
  725.009,1425.38 725.009,1445.72 752.418,1445.72 752.418,1425.38 725.009,1425.38 
  "/>
<path clip-path="url(#clip692)" d="
M752.418 1432.16 L752.418 1445.72 L779.827 1445.72 L779.827 1432.16 L752.418 1432.16 L752.418 1432.16  Z
  " fill="#009af9" fill-rule="evenodd" fill-opacity="1"/>
<polyline clip-path="url(#clip692)" style="stroke:#000000; stroke-width:4; stroke-opacity:1; fill:none" points="
  752.418,1432.16 752.418,1445.72 779.827,1445.72 779.827,1432.16 752.418,1432.16 
  "/>
<path clip-path="url(#clip692)" d="
M779.827 1423.68 L779.827 1445.72 L807.236 1445.72 L807.236 1423.68 L779.827 1423.68 L779.827 1423.68  Z
  " fill="#009af9" fill-rule="evenodd" fill-opacity="1"/>
<polyline clip-path="url(#clip692)" style="stroke:#000000; stroke-width:4; stroke-opacity:1; fill:none" points="
  779.827,1423.68 779.827,1445.72 807.236,1445.72 807.236,1423.68 779.827,1423.68 
  "/>
<path clip-path="url(#clip692)" d="
M807.236 1410.12 L807.236 1445.72 L834.644 1445.72 L834.644 1410.12 L807.236 1410.12 L807.236 1410.12  Z
  " fill="#009af9" fill-rule="evenodd" fill-opacity="1"/>
<polyline clip-path="url(#clip692)" style="stroke:#000000; stroke-width:4; stroke-opacity:1; fill:none" points="
  807.236,1410.12 807.236,1445.72 834.644,1445.72 834.644,1410.12 807.236,1410.12 
  "/>
<path clip-path="url(#clip692)" d="
M834.644 1405.03 L834.644 1445.72 L862.053 1445.72 L862.053 1405.03 L834.644 1405.03 L834.644 1405.03  Z
  " fill="#009af9" fill-rule="evenodd" fill-opacity="1"/>
<polyline clip-path="url(#clip692)" style="stroke:#000000; stroke-width:4; stroke-opacity:1; fill:none" points="
  834.644,1405.03 834.644,1445.72 862.053,1445.72 862.053,1405.03 834.644,1405.03 
  "/>
<path clip-path="url(#clip692)" d="
M862.053 1383 L862.053 1445.72 L889.462 1445.72 L889.462 1383 L862.053 1383 L862.053 1383  Z
  " fill="#009af9" fill-rule="evenodd" fill-opacity="1"/>
<polyline clip-path="url(#clip692)" style="stroke:#000000; stroke-width:4; stroke-opacity:1; fill:none" points="
  862.053,1383 862.053,1445.72 889.462,1445.72 889.462,1383 862.053,1383 
  "/>
<path clip-path="url(#clip692)" d="
M889.462 1394.86 L889.462 1445.72 L916.871 1445.72 L916.871 1394.86 L889.462 1394.86 L889.462 1394.86  Z
  " fill="#009af9" fill-rule="evenodd" fill-opacity="1"/>
<polyline clip-path="url(#clip692)" style="stroke:#000000; stroke-width:4; stroke-opacity:1; fill:none" points="
  889.462,1394.86 889.462,1445.72 916.871,1445.72 916.871,1394.86 889.462,1394.86 
  "/>
<path clip-path="url(#clip692)" d="
M916.871 1391.47 L916.871 1445.72 L944.279 1445.72 L944.279 1391.47 L916.871 1391.47 L916.871 1391.47  Z
  " fill="#009af9" fill-rule="evenodd" fill-opacity="1"/>
<polyline clip-path="url(#clip692)" style="stroke:#000000; stroke-width:4; stroke-opacity:1; fill:none" points="
  916.871,1391.47 916.871,1445.72 944.279,1445.72 944.279,1391.47 916.871,1391.47 
  "/>
<path clip-path="url(#clip692)" d="
M944.279 1381.3 L944.279 1445.72 L971.688 1445.72 L971.688 1381.3 L944.279 1381.3 L944.279 1381.3  Z
  " fill="#009af9" fill-rule="evenodd" fill-opacity="1"/>
<polyline clip-path="url(#clip692)" style="stroke:#000000; stroke-width:4; stroke-opacity:1; fill:none" points="
  944.279,1381.3 944.279,1445.72 971.688,1445.72 971.688,1381.3 944.279,1381.3 
  "/>
<path clip-path="url(#clip692)" d="
M971.688 1367.74 L971.688 1445.72 L999.097 1445.72 L999.097 1367.74 L971.688 1367.74 L971.688 1367.74  Z
  " fill="#009af9" fill-rule="evenodd" fill-opacity="1"/>
<polyline clip-path="url(#clip692)" style="stroke:#000000; stroke-width:4; stroke-opacity:1; fill:none" points="
  971.688,1367.74 971.688,1445.72 999.097,1445.72 999.097,1367.74 971.688,1367.74 
  "/>
<path clip-path="url(#clip692)" d="
M999.097 1350.79 L999.097 1445.72 L1026.51 1445.72 L1026.51 1350.79 L999.097 1350.79 L999.097 1350.79  Z
  " fill="#009af9" fill-rule="evenodd" fill-opacity="1"/>
<polyline clip-path="url(#clip692)" style="stroke:#000000; stroke-width:4; stroke-opacity:1; fill:none" points="
  999.097,1350.79 999.097,1445.72 1026.51,1445.72 1026.51,1350.79 999.097,1350.79 
  "/>
<path clip-path="url(#clip692)" d="
M1026.51 1337.23 L1026.51 1445.72 L1053.91 1445.72 L1053.91 1337.23 L1026.51 1337.23 L1026.51 1337.23  Z
  " fill="#009af9" fill-rule="evenodd" fill-opacity="1"/>
<polyline clip-path="url(#clip692)" style="stroke:#000000; stroke-width:4; stroke-opacity:1; fill:none" points="
  1026.51,1337.23 1026.51,1445.72 1053.91,1445.72 1053.91,1337.23 1026.51,1337.23 
  "/>
<path clip-path="url(#clip692)" d="
M1053.91 1337.23 L1053.91 1445.72 L1081.32 1445.72 L1081.32 1337.23 L1053.91 1337.23 L1053.91 1337.23  Z
  " fill="#009af9" fill-rule="evenodd" fill-opacity="1"/>
<polyline clip-path="url(#clip692)" style="stroke:#000000; stroke-width:4; stroke-opacity:1; fill:none" points="
  1053.91,1337.23 1053.91,1445.72 1081.32,1445.72 1081.32,1337.23 1053.91,1337.23 
  "/>
<path clip-path="url(#clip692)" d="
M1081.32 1325.37 L1081.32 1445.72 L1108.73 1445.72 L1108.73 1325.37 L1081.32 1325.37 L1081.32 1325.37  Z
  " fill="#009af9" fill-rule="evenodd" fill-opacity="1"/>
<polyline clip-path="url(#clip692)" style="stroke:#000000; stroke-width:4; stroke-opacity:1; fill:none" points="
  1081.32,1325.37 1081.32,1445.72 1108.73,1445.72 1108.73,1325.37 1081.32,1325.37 
  "/>
<path clip-path="url(#clip692)" d="
M1108.73 1298.25 L1108.73 1445.72 L1136.14 1445.72 L1136.14 1298.25 L1108.73 1298.25 L1108.73 1298.25  Z
  " fill="#009af9" fill-rule="evenodd" fill-opacity="1"/>
<polyline clip-path="url(#clip692)" style="stroke:#000000; stroke-width:4; stroke-opacity:1; fill:none" points="
  1108.73,1298.25 1108.73,1445.72 1136.14,1445.72 1136.14,1298.25 1108.73,1298.25 
  "/>
<path clip-path="url(#clip692)" d="
M1136.14 1274.52 L1136.14 1445.72 L1163.55 1445.72 L1163.55 1274.52 L1136.14 1274.52 L1136.14 1274.52  Z
  " fill="#009af9" fill-rule="evenodd" fill-opacity="1"/>
<polyline clip-path="url(#clip692)" style="stroke:#000000; stroke-width:4; stroke-opacity:1; fill:none" points="
  1136.14,1274.52 1136.14,1445.72 1163.55,1445.72 1163.55,1274.52 1136.14,1274.52 
  "/>
<path clip-path="url(#clip692)" d="
M1163.55 1264.34 L1163.55 1445.72 L1190.96 1445.72 L1190.96 1264.34 L1163.55 1264.34 L1163.55 1264.34  Z
  " fill="#009af9" fill-rule="evenodd" fill-opacity="1"/>
<polyline clip-path="url(#clip692)" style="stroke:#000000; stroke-width:4; stroke-opacity:1; fill:none" points="
  1163.55,1264.34 1163.55,1445.72 1190.96,1445.72 1190.96,1264.34 1163.55,1264.34 
  "/>
<path clip-path="url(#clip692)" d="
M1190.96 1296.55 L1190.96 1445.72 L1218.37 1445.72 L1218.37 1296.55 L1190.96 1296.55 L1190.96 1296.55  Z
  " fill="#009af9" fill-rule="evenodd" fill-opacity="1"/>
<polyline clip-path="url(#clip692)" style="stroke:#000000; stroke-width:4; stroke-opacity:1; fill:none" points="
  1190.96,1296.55 1190.96,1445.72 1218.37,1445.72 1218.37,1296.55 1190.96,1296.55 
  "/>
<path clip-path="url(#clip692)" d="
M1218.37 1242.31 L1218.37 1445.72 L1245.78 1445.72 L1245.78 1242.31 L1218.37 1242.31 L1218.37 1242.31  Z
  " fill="#009af9" fill-rule="evenodd" fill-opacity="1"/>
<polyline clip-path="url(#clip692)" style="stroke:#000000; stroke-width:4; stroke-opacity:1; fill:none" points="
  1218.37,1242.31 1218.37,1445.72 1245.78,1445.72 1245.78,1242.31 1218.37,1242.31 
  "/>
<path clip-path="url(#clip692)" d="
M1245.78 1284.69 L1245.78 1445.72 L1273.18 1445.72 L1273.18 1284.69 L1245.78 1284.69 L1245.78 1284.69  Z
  " fill="#009af9" fill-rule="evenodd" fill-opacity="1"/>
<polyline clip-path="url(#clip692)" style="stroke:#000000; stroke-width:4; stroke-opacity:1; fill:none" points="
  1245.78,1284.69 1245.78,1445.72 1273.18,1445.72 1273.18,1284.69 1245.78,1284.69 
  "/>
<path clip-path="url(#clip692)" d="
M1273.18 1250.78 L1273.18 1445.72 L1300.59 1445.72 L1300.59 1250.78 L1273.18 1250.78 L1273.18 1250.78  Z
  " fill="#009af9" fill-rule="evenodd" fill-opacity="1"/>
<polyline clip-path="url(#clip692)" style="stroke:#000000; stroke-width:4; stroke-opacity:1; fill:none" points="
  1273.18,1250.78 1273.18,1445.72 1300.59,1445.72 1300.59,1250.78 1273.18,1250.78 
  "/>
<path clip-path="url(#clip692)" d="
M1300.59 1232.14 L1300.59 1445.72 L1328 1445.72 L1328 1232.14 L1300.59 1232.14 L1300.59 1232.14  Z
  " fill="#009af9" fill-rule="evenodd" fill-opacity="1"/>
<polyline clip-path="url(#clip692)" style="stroke:#000000; stroke-width:4; stroke-opacity:1; fill:none" points="
  1300.59,1232.14 1300.59,1445.72 1328,1445.72 1328,1232.14 1300.59,1232.14 
  "/>
<path clip-path="url(#clip692)" d="
M1328 1242.31 L1328 1445.72 L1355.41 1445.72 L1355.41 1242.31 L1328 1242.31 L1328 1242.31  Z
  " fill="#009af9" fill-rule="evenodd" fill-opacity="1"/>
<polyline clip-path="url(#clip692)" style="stroke:#000000; stroke-width:4; stroke-opacity:1; fill:none" points="
  1328,1242.31 1328,1445.72 1355.41,1445.72 1355.41,1242.31 1328,1242.31 
  "/>
<path clip-path="url(#clip692)" d="
M1355.41 1237.22 L1355.41 1445.72 L1382.82 1445.72 L1382.82 1237.22 L1355.41 1237.22 L1355.41 1237.22  Z
  " fill="#009af9" fill-rule="evenodd" fill-opacity="1"/>
<polyline clip-path="url(#clip692)" style="stroke:#000000; stroke-width:4; stroke-opacity:1; fill:none" points="
  1355.41,1237.22 1355.41,1445.72 1382.82,1445.72 1382.82,1237.22 1355.41,1237.22 
  "/>
<path clip-path="url(#clip692)" d="
M1382.82 1245.7 L1382.82 1445.72 L1410.23 1445.72 L1410.23 1245.7 L1382.82 1245.7 L1382.82 1245.7  Z
  " fill="#009af9" fill-rule="evenodd" fill-opacity="1"/>
<polyline clip-path="url(#clip692)" style="stroke:#000000; stroke-width:4; stroke-opacity:1; fill:none" points="
  1382.82,1245.7 1382.82,1445.72 1410.23,1445.72 1410.23,1245.7 1382.82,1245.7 
  "/>
<path clip-path="url(#clip692)" d="
M1410.23 1152.47 L1410.23 1445.72 L1437.64 1445.72 L1437.64 1152.47 L1410.23 1152.47 L1410.23 1152.47  Z
  " fill="#009af9" fill-rule="evenodd" fill-opacity="1"/>
<polyline clip-path="url(#clip692)" style="stroke:#000000; stroke-width:4; stroke-opacity:1; fill:none" points="
  1410.23,1152.47 1410.23,1445.72 1437.64,1445.72 1437.64,1152.47 1410.23,1152.47 
  "/>
<path clip-path="url(#clip692)" d="
M1437.64 818.545 L1437.64 1445.72 L1465.05 1445.72 L1465.05 818.545 L1437.64 818.545 L1437.64 818.545  Z
  " fill="#009af9" fill-rule="evenodd" fill-opacity="1"/>
<polyline clip-path="url(#clip692)" style="stroke:#000000; stroke-width:4; stroke-opacity:1; fill:none" points="
  1437.64,818.545 1437.64,1445.72 1465.05,1445.72 1465.05,818.545 1437.64,818.545 
  "/>
<path clip-path="url(#clip692)" d="
M1465.05 87.9763 L1465.05 1445.72 L1492.45 1445.72 L1492.45 87.9763 L1465.05 87.9763 L1465.05 87.9763  Z
  " fill="#009af9" fill-rule="evenodd" fill-opacity="1"/>
<polyline clip-path="url(#clip692)" style="stroke:#000000; stroke-width:4; stroke-opacity:1; fill:none" points="
  1465.05,87.9763 1465.05,1445.72 1492.45,1445.72 1492.45,87.9763 1465.05,87.9763 
  "/>
<path clip-path="url(#clip692)" d="
M1492.45 133.743 L1492.45 1445.72 L1519.86 1445.72 L1519.86 133.743 L1492.45 133.743 L1492.45 133.743  Z
  " fill="#009af9" fill-rule="evenodd" fill-opacity="1"/>
<polyline clip-path="url(#clip692)" style="stroke:#000000; stroke-width:4; stroke-opacity:1; fill:none" points="
  1492.45,133.743 1492.45,1445.72 1519.86,1445.72 1519.86,133.743 1492.45,133.743 
  "/>
<path clip-path="url(#clip692)" d="
M1519.86 832.106 L1519.86 1445.72 L1547.27 1445.72 L1547.27 832.106 L1519.86 832.106 L1519.86 832.106  Z
  " fill="#009af9" fill-rule="evenodd" fill-opacity="1"/>
<polyline clip-path="url(#clip692)" style="stroke:#000000; stroke-width:4; stroke-opacity:1; fill:none" points="
  1519.86,832.106 1519.86,1445.72 1547.27,1445.72 1547.27,832.106 1519.86,832.106 
  "/>
<path clip-path="url(#clip692)" d="
M1547.27 1223.66 L1547.27 1445.72 L1574.68 1445.72 L1574.68 1223.66 L1547.27 1223.66 L1547.27 1223.66  Z
  " fill="#009af9" fill-rule="evenodd" fill-opacity="1"/>
<polyline clip-path="url(#clip692)" style="stroke:#000000; stroke-width:4; stroke-opacity:1; fill:none" points="
  1547.27,1223.66 1547.27,1445.72 1574.68,1445.72 1574.68,1223.66 1547.27,1223.66 
  "/>
<path clip-path="url(#clip692)" d="
M1574.68 1308.42 L1574.68 1445.72 L1602.09 1445.72 L1602.09 1308.42 L1574.68 1308.42 L1574.68 1308.42  Z
  " fill="#009af9" fill-rule="evenodd" fill-opacity="1"/>
<polyline clip-path="url(#clip692)" style="stroke:#000000; stroke-width:4; stroke-opacity:1; fill:none" points="
  1574.68,1308.42 1574.68,1445.72 1602.09,1445.72 1602.09,1308.42 1574.68,1308.42 
  "/>
<path clip-path="url(#clip692)" d="
M1602.09 1318.59 L1602.09 1445.72 L1629.5 1445.72 L1629.5 1318.59 L1602.09 1318.59 L1602.09 1318.59  Z
  " fill="#009af9" fill-rule="evenodd" fill-opacity="1"/>
<polyline clip-path="url(#clip692)" style="stroke:#000000; stroke-width:4; stroke-opacity:1; fill:none" points="
  1602.09,1318.59 1602.09,1445.72 1629.5,1445.72 1629.5,1318.59 1602.09,1318.59 
  "/>
<path clip-path="url(#clip692)" d="
M1629.5 1347.4 L1629.5 1445.72 L1656.91 1445.72 L1656.91 1347.4 L1629.5 1347.4 L1629.5 1347.4  Z
  " fill="#009af9" fill-rule="evenodd" fill-opacity="1"/>
<polyline clip-path="url(#clip692)" style="stroke:#000000; stroke-width:4; stroke-opacity:1; fill:none" points="
  1629.5,1347.4 1629.5,1445.72 1656.91,1445.72 1656.91,1347.4 1629.5,1347.4 
  "/>
<path clip-path="url(#clip692)" d="
M1656.91 1362.66 L1656.91 1445.72 L1684.32 1445.72 L1684.32 1362.66 L1656.91 1362.66 L1656.91 1362.66  Z
  " fill="#009af9" fill-rule="evenodd" fill-opacity="1"/>
<polyline clip-path="url(#clip692)" style="stroke:#000000; stroke-width:4; stroke-opacity:1; fill:none" points="
  1656.91,1362.66 1656.91,1445.72 1684.32,1445.72 1684.32,1362.66 1656.91,1362.66 
  "/>
<path clip-path="url(#clip692)" d="
M1684.32 1349.1 L1684.32 1445.72 L1711.73 1445.72 L1711.73 1349.1 L1684.32 1349.1 L1684.32 1349.1  Z
  " fill="#009af9" fill-rule="evenodd" fill-opacity="1"/>
<polyline clip-path="url(#clip692)" style="stroke:#000000; stroke-width:4; stroke-opacity:1; fill:none" points="
  1684.32,1349.1 1684.32,1445.72 1711.73,1445.72 1711.73,1349.1 1684.32,1349.1 
  "/>
<path clip-path="url(#clip692)" d="
M1711.73 1364.35 L1711.73 1445.72 L1739.13 1445.72 L1739.13 1364.35 L1711.73 1364.35 L1711.73 1364.35  Z
  " fill="#009af9" fill-rule="evenodd" fill-opacity="1"/>
<polyline clip-path="url(#clip692)" style="stroke:#000000; stroke-width:4; stroke-opacity:1; fill:none" points="
  1711.73,1364.35 1711.73,1445.72 1739.13,1445.72 1739.13,1364.35 1711.73,1364.35 
  "/>
<path clip-path="url(#clip692)" d="
M1739.13 1369.44 L1739.13 1445.72 L1766.54 1445.72 L1766.54 1369.44 L1739.13 1369.44 L1739.13 1369.44  Z
  " fill="#009af9" fill-rule="evenodd" fill-opacity="1"/>
<polyline clip-path="url(#clip692)" style="stroke:#000000; stroke-width:4; stroke-opacity:1; fill:none" points="
  1739.13,1369.44 1739.13,1445.72 1766.54,1445.72 1766.54,1369.44 1739.13,1369.44 
  "/>
<path clip-path="url(#clip692)" d="
M1766.54 1359.27 L1766.54 1445.72 L1793.95 1445.72 L1793.95 1359.27 L1766.54 1359.27 L1766.54 1359.27  Z
  " fill="#009af9" fill-rule="evenodd" fill-opacity="1"/>
<polyline clip-path="url(#clip692)" style="stroke:#000000; stroke-width:4; stroke-opacity:1; fill:none" points="
  1766.54,1359.27 1766.54,1445.72 1793.95,1445.72 1793.95,1359.27 1766.54,1359.27 
  "/>
<path clip-path="url(#clip692)" d="
M1793.95 1386.39 L1793.95 1445.72 L1821.36 1445.72 L1821.36 1386.39 L1793.95 1386.39 L1793.95 1386.39  Z
  " fill="#009af9" fill-rule="evenodd" fill-opacity="1"/>
<polyline clip-path="url(#clip692)" style="stroke:#000000; stroke-width:4; stroke-opacity:1; fill:none" points="
  1793.95,1386.39 1793.95,1445.72 1821.36,1445.72 1821.36,1386.39 1793.95,1386.39 
  "/>
<path clip-path="url(#clip692)" d="
M1821.36 1391.47 L1821.36 1445.72 L1848.77 1445.72 L1848.77 1391.47 L1821.36 1391.47 L1821.36 1391.47  Z
  " fill="#009af9" fill-rule="evenodd" fill-opacity="1"/>
<polyline clip-path="url(#clip692)" style="stroke:#000000; stroke-width:4; stroke-opacity:1; fill:none" points="
  1821.36,1391.47 1821.36,1445.72 1848.77,1445.72 1848.77,1391.47 1821.36,1391.47 
  "/>
<path clip-path="url(#clip692)" d="
M1848.77 1406.73 L1848.77 1445.72 L1876.18 1445.72 L1876.18 1406.73 L1848.77 1406.73 L1848.77 1406.73  Z
  " fill="#009af9" fill-rule="evenodd" fill-opacity="1"/>
<polyline clip-path="url(#clip692)" style="stroke:#000000; stroke-width:4; stroke-opacity:1; fill:none" points="
  1848.77,1406.73 1848.77,1445.72 1876.18,1445.72 1876.18,1406.73 1848.77,1406.73 
  "/>
<path clip-path="url(#clip692)" d="
M1876.18 1416.9 L1876.18 1445.72 L1903.59 1445.72 L1903.59 1416.9 L1876.18 1416.9 L1876.18 1416.9  Z
  " fill="#009af9" fill-rule="evenodd" fill-opacity="1"/>
<polyline clip-path="url(#clip692)" style="stroke:#000000; stroke-width:4; stroke-opacity:1; fill:none" points="
  1876.18,1416.9 1876.18,1445.72 1903.59,1445.72 1903.59,1416.9 1876.18,1416.9 
  "/>
<path clip-path="url(#clip692)" d="
M1903.59 1418.59 L1903.59 1445.72 L1931 1445.72 L1931 1418.59 L1903.59 1418.59 L1903.59 1418.59  Z
  " fill="#009af9" fill-rule="evenodd" fill-opacity="1"/>
<polyline clip-path="url(#clip692)" style="stroke:#000000; stroke-width:4; stroke-opacity:1; fill:none" points="
  1903.59,1418.59 1903.59,1445.72 1931,1445.72 1931,1418.59 1903.59,1418.59 
  "/>
<path clip-path="url(#clip692)" d="
M1931 1432.16 L1931 1445.72 L1958.4 1445.72 L1958.4 1432.16 L1931 1432.16 L1931 1432.16  Z
  " fill="#009af9" fill-rule="evenodd" fill-opacity="1"/>
<polyline clip-path="url(#clip692)" style="stroke:#000000; stroke-width:4; stroke-opacity:1; fill:none" points="
  1931,1432.16 1931,1445.72 1958.4,1445.72 1958.4,1432.16 1931,1432.16 
  "/>
<path clip-path="url(#clip692)" d="
M1958.4 1427.07 L1958.4 1445.72 L1985.81 1445.72 L1985.81 1427.07 L1958.4 1427.07 L1958.4 1427.07  Z
  " fill="#009af9" fill-rule="evenodd" fill-opacity="1"/>
<polyline clip-path="url(#clip692)" style="stroke:#000000; stroke-width:4; stroke-opacity:1; fill:none" points="
  1958.4,1427.07 1958.4,1445.72 1985.81,1445.72 1985.81,1427.07 1958.4,1427.07 
  "/>
<path clip-path="url(#clip692)" d="
M1985.81 1433.85 L1985.81 1445.72 L2013.22 1445.72 L2013.22 1433.85 L1985.81 1433.85 L1985.81 1433.85  Z
  " fill="#009af9" fill-rule="evenodd" fill-opacity="1"/>
<polyline clip-path="url(#clip692)" style="stroke:#000000; stroke-width:4; stroke-opacity:1; fill:none" points="
  1985.81,1433.85 1985.81,1445.72 2013.22,1445.72 2013.22,1433.85 1985.81,1433.85 
  "/>
<path clip-path="url(#clip692)" d="
M2013.22 1437.24 L2013.22 1445.72 L2040.63 1445.72 L2040.63 1437.24 L2013.22 1437.24 L2013.22 1437.24  Z
  " fill="#009af9" fill-rule="evenodd" fill-opacity="1"/>
<polyline clip-path="url(#clip692)" style="stroke:#000000; stroke-width:4; stroke-opacity:1; fill:none" points="
  2013.22,1437.24 2013.22,1445.72 2040.63,1445.72 2040.63,1437.24 2013.22,1437.24 
  "/>
<path clip-path="url(#clip692)" d="
M2040.63 1438.94 L2040.63 1445.72 L2068.04 1445.72 L2068.04 1438.94 L2040.63 1438.94 L2040.63 1438.94  Z
  " fill="#009af9" fill-rule="evenodd" fill-opacity="1"/>
<polyline clip-path="url(#clip692)" style="stroke:#000000; stroke-width:4; stroke-opacity:1; fill:none" points="
  2040.63,1438.94 2040.63,1445.72 2068.04,1445.72 2068.04,1438.94 2040.63,1438.94 
  "/>
<path clip-path="url(#clip692)" d="
M2068.04 1435.55 L2068.04 1445.72 L2095.45 1445.72 L2095.45 1435.55 L2068.04 1435.55 L2068.04 1435.55  Z
  " fill="#009af9" fill-rule="evenodd" fill-opacity="1"/>
<polyline clip-path="url(#clip692)" style="stroke:#000000; stroke-width:4; stroke-opacity:1; fill:none" points="
  2068.04,1435.55 2068.04,1445.72 2095.45,1445.72 2095.45,1435.55 2068.04,1435.55 
  "/>
<path clip-path="url(#clip692)" d="
M2095.45 1442.33 L2095.45 1445.72 L2122.86 1445.72 L2122.86 1442.33 L2095.45 1442.33 L2095.45 1442.33  Z
  " fill="#009af9" fill-rule="evenodd" fill-opacity="1"/>
<polyline clip-path="url(#clip692)" style="stroke:#000000; stroke-width:4; stroke-opacity:1; fill:none" points="
  2095.45,1442.33 2095.45,1445.72 2122.86,1445.72 2122.86,1442.33 2095.45,1442.33 
  "/>
<path clip-path="url(#clip692)" d="
M2122.86 1438.94 L2122.86 1445.72 L2150.27 1445.72 L2150.27 1438.94 L2122.86 1438.94 L2122.86 1438.94  Z
  " fill="#009af9" fill-rule="evenodd" fill-opacity="1"/>
<polyline clip-path="url(#clip692)" style="stroke:#000000; stroke-width:4; stroke-opacity:1; fill:none" points="
  2122.86,1438.94 2122.86,1445.72 2150.27,1445.72 2150.27,1438.94 2122.86,1438.94 
  "/>
<path clip-path="url(#clip692)" d="
M2150.27 1444.02 L2150.27 1445.72 L2177.67 1445.72 L2177.67 1444.02 L2150.27 1444.02 L2150.27 1444.02  Z
  " fill="#009af9" fill-rule="evenodd" fill-opacity="1"/>
<polyline clip-path="url(#clip692)" style="stroke:#000000; stroke-width:4; stroke-opacity:1; fill:none" points="
  2150.27,1444.02 2150.27,1445.72 2177.67,1445.72 2177.67,1444.02 2150.27,1444.02 
  "/>
<path clip-path="url(#clip692)" d="
M2177.67 1440.63 L2177.67 1445.72 L2205.08 1445.72 L2205.08 1440.63 L2177.67 1440.63 L2177.67 1440.63  Z
  " fill="#009af9" fill-rule="evenodd" fill-opacity="1"/>
<polyline clip-path="url(#clip692)" style="stroke:#000000; stroke-width:4; stroke-opacity:1; fill:none" points="
  2177.67,1440.63 2177.67,1445.72 2205.08,1445.72 2205.08,1440.63 2177.67,1440.63 
  "/>
<path clip-path="url(#clip692)" d="
M2205.08 1444.02 L2205.08 1445.72 L2232.49 1445.72 L2232.49 1444.02 L2205.08 1444.02 L2205.08 1444.02  Z
  " fill="#009af9" fill-rule="evenodd" fill-opacity="1"/>
<polyline clip-path="url(#clip692)" style="stroke:#000000; stroke-width:4; stroke-opacity:1; fill:none" points="
  2205.08,1444.02 2205.08,1445.72 2232.49,1445.72 2232.49,1444.02 2205.08,1444.02 
  "/>
<path clip-path="url(#clip690)" d="
M1989.74 251.724 L2280.76 251.724 L2280.76 130.764 L1989.74 130.764  Z
  " fill="#ffffff" fill-rule="evenodd" fill-opacity="1"/>
<polyline clip-path="url(#clip690)" style="stroke:#000000; stroke-width:4; stroke-opacity:1; fill:none" points="
  1989.74,251.724 2280.76,251.724 2280.76,130.764 1989.74,130.764 1989.74,251.724 
  "/>
<path clip-path="url(#clip690)" d="
M2013.74 215.436 L2157.74 215.436 L2157.74 167.052 L2013.74 167.052 L2013.74 215.436  Z
  " fill="#009af9" fill-rule="evenodd" fill-opacity="1"/>
<polyline clip-path="url(#clip690)" style="stroke:#000000; stroke-width:4; stroke-opacity:1; fill:none" points="
  2013.74,215.436 2157.74,215.436 2157.74,167.052 2013.74,167.052 2013.74,215.436 
  "/>
<path clip-path="url(#clip690)" d="M 0 0 M2195.58 210.931 Q2193.77 215.561 2192.06 216.973 Q2190.35 218.385 2187.48 218.385 L2184.08 218.385 L2184.08 214.82 L2186.58 214.82 Q2188.33 214.82 2189.31 213.987 Q2190.28 213.154 2191.46 210.052 L2192.22 208.107 L2181.74 182.598 L2186.25 182.598 L2194.35 202.876 L2202.46 182.598 L2206.97 182.598 L2195.58 210.931 Z" fill="#000000" fill-rule="evenodd" fill-opacity="1" /><path clip-path="url(#clip690)" d="M 0 0 M2212.85 204.589 L2220.49 204.589 L2220.49 178.223 L2212.18 179.89 L2212.18 175.631 L2220.44 173.964 L2225.12 173.964 L2225.12 204.589 L2232.76 204.589 L2232.76 208.524 L2212.85 208.524 L2212.85 204.589 Z" fill="#000000" fill-rule="evenodd" fill-opacity="1" /></svg>
