<?xml version="1.0" encoding="utf-8"?>
<svg xmlns="http://www.w3.org/2000/svg" xmlns:xlink="http://www.w3.org/1999/xlink" width="600" height="400" viewBox="0 0 2400 1600">
<defs>
  <clipPath id="clip140">
    <rect x="0" y="0" width="2400" height="1600"/>
  </clipPath>
</defs>
<path clip-path="url(#clip140)" d="
M0 1600 L2400 1600 L2400 0 L0 0  Z
  " fill="#ffffff" fill-rule="evenodd" fill-opacity="1"/>
<defs>
  <clipPath id="clip141">
    <rect x="480" y="0" width="1681" height="1600"/>
  </clipPath>
</defs>
<path clip-path="url(#clip140)" d="
M166.205 1486.45 L2352.76 1486.45 L2352.76 47.2441 L166.205 47.2441  Z
  " fill="#ffffff" fill-rule="evenodd" fill-opacity="1"/>
<defs>
  <clipPath id="clip142">
    <rect x="166" y="47" width="2188" height="1440"/>
  </clipPath>
</defs>
<polyline clip-path="url(#clip142)" style="stroke:#000000; stroke-width:2; stroke-opacity:0.1; fill:none" points="
  345.439,1486.45 345.439,47.2441 
  "/>
<polyline clip-path="url(#clip142)" style="stroke:#000000; stroke-width:2; stroke-opacity:0.1; fill:none" points="
  640.291,1486.45 640.291,47.2441 
  "/>
<polyline clip-path="url(#clip142)" style="stroke:#000000; stroke-width:2; stroke-opacity:0.1; fill:none" points="
  935.143,1486.45 935.143,47.2441 
  "/>
<polyline clip-path="url(#clip142)" style="stroke:#000000; stroke-width:2; stroke-opacity:0.1; fill:none" points="
  1230,1486.45 1230,47.2441 
  "/>
<polyline clip-path="url(#clip142)" style="stroke:#000000; stroke-width:2; stroke-opacity:0.1; fill:none" points="
  1524.85,1486.45 1524.85,47.2441 
  "/>
<polyline clip-path="url(#clip142)" style="stroke:#000000; stroke-width:2; stroke-opacity:0.1; fill:none" points="
  1819.7,1486.45 1819.7,47.2441 
  "/>
<polyline clip-path="url(#clip142)" style="stroke:#000000; stroke-width:2; stroke-opacity:0.1; fill:none" points="
  2114.55,1486.45 2114.55,47.2441 
  "/>
<polyline clip-path="url(#clip142)" style="stroke:#000000; stroke-width:2; stroke-opacity:0.1; fill:none" points="
  166.205,1445.72 2352.76,1445.72 
  "/>
<polyline clip-path="url(#clip142)" style="stroke:#000000; stroke-width:2; stroke-opacity:0.1; fill:none" points="
  166.205,1114.16 2352.76,1114.16 
  "/>
<polyline clip-path="url(#clip142)" style="stroke:#000000; stroke-width:2; stroke-opacity:0.1; fill:none" points="
  166.205,782.595 2352.76,782.595 
  "/>
<polyline clip-path="url(#clip142)" style="stroke:#000000; stroke-width:2; stroke-opacity:0.1; fill:none" points="
  166.205,451.035 2352.76,451.035 
  "/>
<polyline clip-path="url(#clip142)" style="stroke:#000000; stroke-width:2; stroke-opacity:0.1; fill:none" points="
  166.205,119.475 2352.76,119.475 
  "/>
<polyline clip-path="url(#clip140)" style="stroke:#000000; stroke-width:4; stroke-opacity:1; fill:none" points="
  166.205,1486.45 2352.76,1486.45 
  "/>
<polyline clip-path="url(#clip140)" style="stroke:#000000; stroke-width:4; stroke-opacity:1; fill:none" points="
  166.205,1486.45 166.205,47.2441 
  "/>
<polyline clip-path="url(#clip140)" style="stroke:#000000; stroke-width:4; stroke-opacity:1; fill:none" points="
  345.439,1486.45 345.439,1469.18 
  "/>
<polyline clip-path="url(#clip140)" style="stroke:#000000; stroke-width:4; stroke-opacity:1; fill:none" points="
  640.291,1486.45 640.291,1469.18 
  "/>
<polyline clip-path="url(#clip140)" style="stroke:#000000; stroke-width:4; stroke-opacity:1; fill:none" points="
  935.143,1486.45 935.143,1469.18 
  "/>
<polyline clip-path="url(#clip140)" style="stroke:#000000; stroke-width:4; stroke-opacity:1; fill:none" points="
  1230,1486.45 1230,1469.18 
  "/>
<polyline clip-path="url(#clip140)" style="stroke:#000000; stroke-width:4; stroke-opacity:1; fill:none" points="
  1524.85,1486.45 1524.85,1469.18 
  "/>
<polyline clip-path="url(#clip140)" style="stroke:#000000; stroke-width:4; stroke-opacity:1; fill:none" points="
  1819.7,1486.45 1819.7,1469.18 
  "/>
<polyline clip-path="url(#clip140)" style="stroke:#000000; stroke-width:4; stroke-opacity:1; fill:none" points="
  2114.55,1486.45 2114.55,1469.18 
  "/>
<polyline clip-path="url(#clip140)" style="stroke:#000000; stroke-width:4; stroke-opacity:1; fill:none" points="
  166.205,1445.72 192.443,1445.72 
  "/>
<polyline clip-path="url(#clip140)" style="stroke:#000000; stroke-width:4; stroke-opacity:1; fill:none" points="
  166.205,1114.16 192.443,1114.16 
  "/>
<polyline clip-path="url(#clip140)" style="stroke:#000000; stroke-width:4; stroke-opacity:1; fill:none" points="
  166.205,782.595 192.443,782.595 
  "/>
<polyline clip-path="url(#clip140)" style="stroke:#000000; stroke-width:4; stroke-opacity:1; fill:none" points="
  166.205,451.035 192.443,451.035 
  "/>
<polyline clip-path="url(#clip140)" style="stroke:#000000; stroke-width:4; stroke-opacity:1; fill:none" points="
  166.205,119.475 192.443,119.475 
  "/>
<path clip-path="url(#clip140)" d="M 0 0 M325.613 1525.04 L338.09 1525.04 L338.09 1528.83 L325.613 1528.83 L325.613 1525.04 Z" fill="#000000" fill-rule="evenodd" fill-opacity="1" /><path clip-path="url(#clip140)" d="M 0 0 M353.738 1520.78 Q350.59 1520.78 348.738 1522.93 Q346.909 1525.08 346.909 1528.83 Q346.909 1532.56 348.738 1534.73 Q350.59 1536.89 353.738 1536.89 Q356.886 1536.89 358.715 1534.73 Q360.566 1532.56 360.566 1528.83 Q360.566 1525.08 358.715 1522.93 Q356.886 1520.78 353.738 1520.78 M363.02 1506.12 L363.02 1510.38 Q361.261 1509.55 359.455 1509.11 Q357.673 1508.67 355.914 1508.67 Q351.284 1508.67 348.83 1511.8 Q346.4 1514.92 346.053 1521.24 Q347.418 1519.23 349.479 1518.16 Q351.539 1517.07 354.016 1517.07 Q359.224 1517.07 362.233 1520.24 Q365.266 1523.39 365.266 1528.83 Q365.266 1534.16 362.117 1537.37 Q358.969 1540.59 353.738 1540.59 Q347.742 1540.59 344.571 1536.01 Q341.4 1531.4 341.4 1522.67 Q341.4 1514.48 345.289 1509.62 Q349.178 1504.73 355.729 1504.73 Q357.488 1504.73 359.27 1505.08 Q361.076 1505.43 363.02 1506.12 Z" fill="#000000" fill-rule="evenodd" fill-opacity="1" /><path clip-path="url(#clip140)" d="M 0 0 M620.303 1525.04 L632.78 1525.04 L632.78 1528.83 L620.303 1528.83 L620.303 1525.04 Z" fill="#000000" fill-rule="evenodd" fill-opacity="1" /><path clip-path="url(#clip140)" d="M 0 0 M650.696 1509.43 L638.891 1527.88 L650.696 1527.88 L650.696 1509.43 M649.469 1505.36 L655.349 1505.36 L655.349 1527.88 L660.28 1527.88 L660.28 1531.77 L655.349 1531.77 L655.349 1539.92 L650.696 1539.92 L650.696 1531.77 L635.094 1531.77 L635.094 1527.26 L649.469 1505.36 Z" fill="#000000" fill-rule="evenodd" fill-opacity="1" /><path clip-path="url(#clip140)" d="M 0 0 M916.196 1525.04 L928.673 1525.04 L928.673 1528.83 L916.196 1528.83 L916.196 1525.04 Z" fill="#000000" fill-rule="evenodd" fill-opacity="1" /><path clip-path="url(#clip140)" d="M 0 0 M937.77 1535.98 L954.09 1535.98 L954.09 1539.92 L932.145 1539.92 L932.145 1535.98 Q934.808 1533.23 939.391 1528.6 Q943.997 1523.95 945.178 1522.61 Q947.423 1520.08 948.303 1518.35 Q949.206 1516.59 949.206 1514.9 Q949.206 1512.14 947.261 1510.41 Q945.34 1508.67 942.238 1508.67 Q940.039 1508.67 937.585 1509.43 Q935.155 1510.2 932.377 1511.75 L932.377 1507.03 Q935.201 1505.89 937.655 1505.31 Q940.108 1504.73 942.145 1504.73 Q947.516 1504.73 950.71 1507.42 Q953.905 1510.11 953.905 1514.6 Q953.905 1516.73 953.094 1518.65 Q952.307 1520.54 950.201 1523.14 Q949.622 1523.81 946.52 1527.03 Q943.419 1530.22 937.77 1535.98 Z" fill="#000000" fill-rule="evenodd" fill-opacity="1" /><path clip-path="url(#clip140)" d="M 0 0 M1230 1508.44 Q1226.38 1508.44 1224.56 1512 Q1222.75 1515.55 1222.75 1522.67 Q1222.75 1529.78 1224.56 1533.35 Q1226.38 1536.89 1230 1536.89 Q1233.63 1536.89 1235.43 1533.35 Q1237.26 1529.78 1237.26 1522.67 Q1237.26 1515.55 1235.43 1512 Q1233.63 1508.44 1230 1508.44 M1230 1504.73 Q1235.81 1504.73 1238.86 1509.34 Q1241.94 1513.92 1241.94 1522.67 Q1241.94 1531.4 1238.86 1536.01 Q1235.81 1540.59 1230 1540.59 Q1224.18 1540.59 1221.11 1536.01 Q1218.05 1531.4 1218.05 1522.67 Q1218.05 1513.92 1221.11 1509.34 Q1224.18 1504.73 1230 1504.73 Z" fill="#000000" fill-rule="evenodd" fill-opacity="1" /><path clip-path="url(#clip140)" d="M 0 0 M1519.5 1535.98 L1535.82 1535.98 L1535.82 1539.92 L1513.87 1539.92 L1513.87 1535.98 Q1516.54 1533.23 1521.12 1528.6 Q1525.73 1523.95 1526.91 1522.61 Q1529.15 1520.08 1530.03 1518.35 Q1530.93 1516.59 1530.93 1514.9 Q1530.93 1512.14 1528.99 1510.41 Q1527.07 1508.67 1523.97 1508.67 Q1521.77 1508.67 1519.31 1509.43 Q1516.88 1510.2 1514.11 1511.75 L1514.11 1507.03 Q1516.93 1505.89 1519.38 1505.31 Q1521.84 1504.73 1523.87 1504.73 Q1529.25 1504.73 1532.44 1507.42 Q1535.63 1510.11 1535.63 1514.6 Q1535.63 1516.73 1534.82 1518.65 Q1534.04 1520.54 1531.93 1523.14 Q1531.35 1523.81 1528.25 1527.03 Q1525.15 1530.22 1519.5 1535.98 Z" fill="#000000" fill-rule="evenodd" fill-opacity="1" /><path clip-path="url(#clip140)" d="M 0 0 M1822.71 1509.43 L1810.9 1527.88 L1822.71 1527.88 L1822.71 1509.43 M1821.48 1505.36 L1827.36 1505.36 L1827.36 1527.88 L1832.29 1527.88 L1832.29 1531.77 L1827.36 1531.77 L1827.36 1539.92 L1822.71 1539.92 L1822.71 1531.77 L1807.11 1531.77 L1807.11 1527.26 L1821.48 1505.36 Z" fill="#000000" fill-rule="evenodd" fill-opacity="1" /><path clip-path="url(#clip140)" d="M 0 0 M2114.96 1520.78 Q2111.81 1520.78 2109.96 1522.93 Q2108.13 1525.08 2108.13 1528.83 Q2108.13 1532.56 2109.96 1534.73 Q2111.81 1536.89 2114.96 1536.89 Q2118.1 1536.89 2119.93 1534.73 Q2121.78 1532.56 2121.78 1528.83 Q2121.78 1525.08 2119.93 1522.93 Q2118.1 1520.78 2114.96 1520.78 M2124.24 1506.12 L2124.24 1510.38 Q2122.48 1509.55 2120.67 1509.11 Q2118.89 1508.67 2117.13 1508.67 Q2112.5 1508.67 2110.05 1511.8 Q2107.62 1514.92 2107.27 1521.24 Q2108.64 1519.23 2110.7 1518.16 Q2112.76 1517.07 2115.23 1517.07 Q2120.44 1517.07 2123.45 1520.24 Q2126.48 1523.39 2126.48 1528.83 Q2126.48 1534.16 2123.34 1537.37 Q2120.19 1540.59 2114.96 1540.59 Q2108.96 1540.59 2105.79 1536.01 Q2102.62 1531.4 2102.62 1522.67 Q2102.62 1514.48 2106.51 1509.62 Q2110.4 1504.73 2116.95 1504.73 Q2118.71 1504.73 2120.49 1505.08 Q2122.29 1505.43 2124.24 1506.12 Z" fill="#000000" fill-rule="evenodd" fill-opacity="1" /><path clip-path="url(#clip140)" d="M 0 0 M130.26 1431.51 Q126.649 1431.51 124.82 1435.08 Q123.015 1438.62 123.015 1445.75 Q123.015 1452.86 124.82 1456.42 Q126.649 1459.96 130.26 1459.96 Q133.895 1459.96 135.7 1456.42 Q137.529 1452.86 137.529 1445.75 Q137.529 1438.62 135.7 1435.08 Q133.895 1431.51 130.26 1431.51 M130.26 1427.81 Q136.07 1427.81 139.126 1432.42 Q142.205 1437 142.205 1445.75 Q142.205 1454.48 139.126 1459.08 Q136.07 1463.67 130.26 1463.67 Q124.45 1463.67 121.371 1459.08 Q118.316 1454.48 118.316 1445.75 Q118.316 1437 121.371 1432.42 Q124.45 1427.81 130.26 1427.81 Z" fill="#000000" fill-rule="evenodd" fill-opacity="1" /><path clip-path="url(#clip140)" d="M 0 0 M71.8578 1127.5 L88.1772 1127.5 L88.1772 1131.44 L66.2328 1131.44 L66.2328 1127.5 Q68.8949 1124.75 73.4782 1120.12 Q78.0846 1115.46 79.2652 1114.12 Q81.5105 1111.6 82.3902 1109.86 Q83.2929 1108.1 83.2929 1106.41 Q83.2929 1103.66 81.3485 1101.92 Q79.4272 1100.19 76.3254 1100.19 Q74.1263 1100.19 71.6726 1100.95 Q69.2421 1101.71 66.4643 1103.26 L66.4643 1098.54 Q69.2884 1097.41 71.7421 1096.83 Q74.1958 1096.25 76.2328 1096.25 Q81.6031 1096.25 84.7976 1098.94 Q87.992 1101.62 87.992 1106.11 Q87.992 1108.24 87.1818 1110.16 Q86.3948 1112.06 84.2883 1114.65 Q83.7096 1115.32 80.6078 1118.54 Q77.5059 1121.74 71.8578 1127.5 Z" fill="#000000" fill-rule="evenodd" fill-opacity="1" /><path clip-path="url(#clip140)" d="M 0 0 M103.247 1099.95 Q99.6354 1099.95 97.8068 1103.52 Q96.0012 1107.06 96.0012 1114.19 Q96.0012 1121.3 97.8068 1124.86 Q99.6354 1128.4 103.247 1128.4 Q106.881 1128.4 108.686 1124.86 Q110.515 1121.3 110.515 1114.19 Q110.515 1107.06 108.686 1103.52 Q106.881 1099.95 103.247 1099.95 M103.247 1096.25 Q109.057 1096.25 112.112 1100.86 Q115.191 1105.44 115.191 1114.19 Q115.191 1122.92 112.112 1127.52 Q109.057 1132.11 103.247 1132.11 Q97.4364 1132.11 94.3577 1127.52 Q91.3022 1122.92 91.3022 1114.19 Q91.3022 1105.44 94.3577 1100.86 Q97.4364 1096.25 103.247 1096.25 Z" fill="#000000" fill-rule="evenodd" fill-opacity="1" /><path clip-path="url(#clip140)" d="M 0 0 M130.26 1099.95 Q126.649 1099.95 124.82 1103.52 Q123.015 1107.06 123.015 1114.19 Q123.015 1121.3 124.82 1124.86 Q126.649 1128.4 130.26 1128.4 Q133.895 1128.4 135.7 1124.86 Q137.529 1121.3 137.529 1114.19 Q137.529 1107.06 135.7 1103.52 Q133.895 1099.95 130.26 1099.95 M130.26 1096.25 Q136.07 1096.25 139.126 1100.86 Q142.205 1105.44 142.205 1114.19 Q142.205 1122.92 139.126 1127.52 Q136.07 1132.11 130.26 1132.11 Q124.45 1132.11 121.371 1127.52 Q118.316 1122.92 118.316 1114.19 Q118.316 1105.44 121.371 1100.86 Q124.45 1096.25 130.26 1096.25 Z" fill="#000000" fill-rule="evenodd" fill-opacity="1" /><path clip-path="url(#clip140)" d="M 0 0 M78.5939 769.389 L66.7884 787.838 L78.5939 787.838 L78.5939 769.389 M77.367 765.315 L83.2466 765.315 L83.2466 787.838 L88.1772 787.838 L88.1772 791.727 L83.2466 791.727 L83.2466 799.875 L78.5939 799.875 L78.5939 791.727 L62.9921 791.727 L62.9921 787.213 L77.367 765.315 Z" fill="#000000" fill-rule="evenodd" fill-opacity="1" /><path clip-path="url(#clip140)" d="M 0 0 M103.247 768.394 Q99.6354 768.394 97.8068 771.959 Q96.0012 775.5 96.0012 782.63 Q96.0012 789.736 97.8068 793.301 Q99.6354 796.843 103.247 796.843 Q106.881 796.843 108.686 793.301 Q110.515 789.736 110.515 782.63 Q110.515 775.5 108.686 771.959 Q106.881 768.394 103.247 768.394 M103.247 764.69 Q109.057 764.69 112.112 769.297 Q115.191 773.88 115.191 782.63 Q115.191 791.357 112.112 795.963 Q109.057 800.546 103.247 800.546 Q97.4364 800.546 94.3577 795.963 Q91.3022 791.357 91.3022 782.63 Q91.3022 773.88 94.3577 769.297 Q97.4364 764.69 103.247 764.69 Z" fill="#000000" fill-rule="evenodd" fill-opacity="1" /><path clip-path="url(#clip140)" d="M 0 0 M130.26 768.394 Q126.649 768.394 124.82 771.959 Q123.015 775.5 123.015 782.63 Q123.015 789.736 124.82 793.301 Q126.649 796.843 130.26 796.843 Q133.895 796.843 135.7 793.301 Q137.529 789.736 137.529 782.63 Q137.529 775.5 135.7 771.959 Q133.895 768.394 130.26 768.394 M130.26 764.69 Q136.07 764.69 139.126 769.297 Q142.205 773.88 142.205 782.63 Q142.205 791.357 139.126 795.963 Q136.07 800.546 130.26 800.546 Q124.45 800.546 121.371 795.963 Q118.316 791.357 118.316 782.63 Q118.316 773.88 121.371 769.297 Q124.45 764.69 130.26 764.69 Z" fill="#000000" fill-rule="evenodd" fill-opacity="1" /><path clip-path="url(#clip140)" d="M 0 0 M76.6495 449.171 Q73.5013 449.171 71.6495 451.324 Q69.8208 453.477 69.8208 457.227 Q69.8208 460.954 71.6495 463.13 Q73.5013 465.282 76.6495 465.282 Q79.7976 465.282 81.6263 463.13 Q83.4781 460.954 83.4781 457.227 Q83.4781 453.477 81.6263 451.324 Q79.7976 449.171 76.6495 449.171 M85.9318 434.519 L85.9318 438.778 Q84.1726 437.945 82.367 437.505 Q80.5846 437.065 78.8254 437.065 Q74.1958 437.065 71.7421 440.19 Q69.3115 443.315 68.9643 449.634 Q70.33 447.62 72.3902 446.556 Q74.4504 445.468 76.9272 445.468 Q82.1355 445.468 85.1448 448.639 Q88.1772 451.787 88.1772 457.227 Q88.1772 462.551 85.029 465.769 Q81.8809 468.986 76.6495 468.986 Q70.6541 468.986 67.4828 464.403 Q64.3116 459.796 64.3116 451.07 Q64.3116 442.875 68.2004 438.014 Q72.0893 433.13 78.6402 433.13 Q80.3994 433.13 82.1818 433.477 Q83.9874 433.824 85.9318 434.519 Z" fill="#000000" fill-rule="evenodd" fill-opacity="1" /><path clip-path="url(#clip140)" d="M 0 0 M103.247 436.833 Q99.6354 436.833 97.8068 440.398 Q96.0012 443.94 96.0012 451.07 Q96.0012 458.176 97.8068 461.741 Q99.6354 465.282 103.247 465.282 Q106.881 465.282 108.686 461.741 Q110.515 458.176 110.515 451.07 Q110.515 443.94 108.686 440.398 Q106.881 436.833 103.247 436.833 M103.247 433.13 Q109.057 433.13 112.112 437.736 Q115.191 442.32 115.191 451.07 Q115.191 459.796 112.112 464.403 Q109.057 468.986 103.247 468.986 Q97.4364 468.986 94.3577 464.403 Q91.3022 459.796 91.3022 451.07 Q91.3022 442.32 94.3577 437.736 Q97.4364 433.13 103.247 433.13 Z" fill="#000000" fill-rule="evenodd" fill-opacity="1" /><path clip-path="url(#clip140)" d="M 0 0 M130.26 436.833 Q126.649 436.833 124.82 440.398 Q123.015 443.94 123.015 451.07 Q123.015 458.176 124.82 461.741 Q126.649 465.282 130.26 465.282 Q133.895 465.282 135.7 461.741 Q137.529 458.176 137.529 451.07 Q137.529 443.94 135.7 440.398 Q133.895 436.833 130.26 436.833 M130.26 433.13 Q136.07 433.13 139.126 437.736 Q142.205 442.32 142.205 451.07 Q142.205 459.796 139.126 464.403 Q136.07 468.986 130.26 468.986 Q124.45 468.986 121.371 464.403 Q118.316 459.796 118.316 451.07 Q118.316 442.32 121.371 437.736 Q124.45 433.13 130.26 433.13 Z" fill="#000000" fill-rule="evenodd" fill-opacity="1" /><path clip-path="url(#clip140)" d="M 0 0 M76.3254 120.343 Q72.9921 120.343 71.0708 122.125 Q69.1726 123.907 69.1726 127.032 Q69.1726 130.157 71.0708 131.94 Q72.9921 133.722 76.3254 133.722 Q79.6587 133.722 81.58 131.94 Q83.5013 130.134 83.5013 127.032 Q83.5013 123.907 81.58 122.125 Q79.6819 120.343 76.3254 120.343 M71.6495 118.352 Q68.6402 117.611 66.9504 115.551 Q65.2838 113.491 65.2838 110.528 Q65.2838 106.384 68.2236 103.977 Q71.1865 101.57 76.3254 101.57 Q81.4874 101.57 84.4272 103.977 Q87.367 106.384 87.367 110.528 Q87.367 113.491 85.6772 115.551 Q84.0105 117.611 81.0244 118.352 Q84.404 119.139 86.279 121.431 Q88.1772 123.722 88.1772 127.032 Q88.1772 132.055 85.0985 134.741 Q82.0429 137.426 76.3254 137.426 Q70.6078 137.426 67.5291 134.741 Q64.4736 132.055 64.4736 127.032 Q64.4736 123.722 66.3717 121.431 Q68.2699 119.139 71.6495 118.352 M69.9365 110.968 Q69.9365 113.653 71.6032 115.157 Q73.293 116.662 76.3254 116.662 Q79.3346 116.662 81.0244 115.157 Q82.7374 113.653 82.7374 110.968 Q82.7374 108.282 81.0244 106.778 Q79.3346 105.273 76.3254 105.273 Q73.293 105.273 71.6032 106.778 Q69.9365 108.282 69.9365 110.968 Z" fill="#000000" fill-rule="evenodd" fill-opacity="1" /><path clip-path="url(#clip140)" d="M 0 0 M103.247 105.273 Q99.6354 105.273 97.8068 108.838 Q96.0012 112.38 96.0012 119.509 Q96.0012 126.616 97.8068 130.18 Q99.6354 133.722 103.247 133.722 Q106.881 133.722 108.686 130.18 Q110.515 126.616 110.515 119.509 Q110.515 112.38 108.686 108.838 Q106.881 105.273 103.247 105.273 M103.247 101.57 Q109.057 101.57 112.112 106.176 Q115.191 110.759 115.191 119.509 Q115.191 128.236 112.112 132.842 Q109.057 137.426 103.247 137.426 Q97.4364 137.426 94.3577 132.842 Q91.3022 128.236 91.3022 119.509 Q91.3022 110.759 94.3577 106.176 Q97.4364 101.57 103.247 101.57 Z" fill="#000000" fill-rule="evenodd" fill-opacity="1" /><path clip-path="url(#clip140)" d="M 0 0 M130.26 105.273 Q126.649 105.273 124.82 108.838 Q123.015 112.38 123.015 119.509 Q123.015 126.616 124.82 130.18 Q126.649 133.722 130.26 133.722 Q133.895 133.722 135.7 130.18 Q137.529 126.616 137.529 119.509 Q137.529 112.38 135.7 108.838 Q133.895 105.273 130.26 105.273 M130.26 101.57 Q136.07 101.57 139.126 106.176 Q142.205 110.759 142.205 119.509 Q142.205 128.236 139.126 132.842 Q136.07 137.426 130.26 137.426 Q124.45 137.426 121.371 132.842 Q118.316 128.236 118.316 119.509 Q118.316 110.759 121.371 106.176 Q124.45 101.57 130.26 101.57 Z" fill="#000000" fill-rule="evenodd" fill-opacity="1" /><path clip-path="url(#clip142)" d="
M286.469 1444.06 L286.469 1445.72 L315.954 1445.72 L315.954 1444.06 L286.469 1444.06 L286.469 1444.06  Z
  " fill="#009af9" fill-rule="evenodd" fill-opacity="1"/>
<polyline clip-path="url(#clip142)" style="stroke:#000000; stroke-width:4; stroke-opacity:1; fill:none" points="
  286.469,1444.06 286.469,1445.72 315.954,1445.72 315.954,1444.06 286.469,1444.06 
  "/>
<path clip-path="url(#clip142)" d="
M315.954 1444.06 L315.954 1445.72 L345.439 1445.72 L345.439 1444.06 L315.954 1444.06 L315.954 1444.06  Z
  " fill="#009af9" fill-rule="evenodd" fill-opacity="1"/>
<polyline clip-path="url(#clip142)" style="stroke:#000000; stroke-width:4; stroke-opacity:1; fill:none" points="
  315.954,1444.06 315.954,1445.72 345.439,1445.72 345.439,1444.06 315.954,1444.06 
  "/>
<path clip-path="url(#clip142)" d="
M345.439 1442.4 L345.439 1445.72 L374.924 1445.72 L374.924 1442.4 L345.439 1442.4 L345.439 1442.4  Z
  " fill="#009af9" fill-rule="evenodd" fill-opacity="1"/>
<polyline clip-path="url(#clip142)" style="stroke:#000000; stroke-width:4; stroke-opacity:1; fill:none" points="
  345.439,1442.4 345.439,1445.72 374.924,1445.72 374.924,1442.4 345.439,1442.4 
  "/>
<path clip-path="url(#clip142)" d="
M374.924 1444.06 L374.924 1445.72 L404.41 1445.72 L404.41 1444.06 L374.924 1444.06 L374.924 1444.06  Z
  " fill="#009af9" fill-rule="evenodd" fill-opacity="1"/>
<polyline clip-path="url(#clip142)" style="stroke:#000000; stroke-width:4; stroke-opacity:1; fill:none" points="
  374.924,1444.06 374.924,1445.72 404.41,1445.72 404.41,1444.06 374.924,1444.06 
  "/>
<path clip-path="url(#clip142)" d="
M404.41 1442.4 L404.41 1445.72 L433.895 1445.72 L433.895 1442.4 L404.41 1442.4 L404.41 1442.4  Z
  " fill="#009af9" fill-rule="evenodd" fill-opacity="1"/>
<polyline clip-path="url(#clip142)" style="stroke:#000000; stroke-width:4; stroke-opacity:1; fill:none" points="
  404.41,1442.4 404.41,1445.72 433.895,1445.72 433.895,1442.4 404.41,1442.4 
  "/>
<path clip-path="url(#clip142)" d="
M433.895 1440.74 L433.895 1445.72 L463.38 1445.72 L463.38 1440.74 L433.895 1440.74 L433.895 1440.74  Z
  " fill="#009af9" fill-rule="evenodd" fill-opacity="1"/>
<polyline clip-path="url(#clip142)" style="stroke:#000000; stroke-width:4; stroke-opacity:1; fill:none" points="
  433.895,1440.74 433.895,1445.72 463.38,1445.72 463.38,1440.74 433.895,1440.74 
  "/>
<path clip-path="url(#clip142)" d="
M463.38 1440.74 L463.38 1445.72 L492.865 1445.72 L492.865 1440.74 L463.38 1440.74 L463.38 1440.74  Z
  " fill="#009af9" fill-rule="evenodd" fill-opacity="1"/>
<polyline clip-path="url(#clip142)" style="stroke:#000000; stroke-width:4; stroke-opacity:1; fill:none" points="
  463.38,1440.74 463.38,1445.72 492.865,1445.72 492.865,1440.74 463.38,1440.74 
  "/>
<path clip-path="url(#clip142)" d="
M492.865 1432.45 L492.865 1445.72 L522.35 1445.72 L522.35 1432.45 L492.865 1432.45 L492.865 1432.45  Z
  " fill="#009af9" fill-rule="evenodd" fill-opacity="1"/>
<polyline clip-path="url(#clip142)" style="stroke:#000000; stroke-width:4; stroke-opacity:1; fill:none" points="
  492.865,1432.45 492.865,1445.72 522.35,1445.72 522.35,1432.45 492.865,1432.45 
  "/>
<path clip-path="url(#clip142)" d="
M522.35 1425.82 L522.35 1445.72 L551.836 1445.72 L551.836 1425.82 L522.35 1425.82 L522.35 1425.82  Z
  " fill="#009af9" fill-rule="evenodd" fill-opacity="1"/>
<polyline clip-path="url(#clip142)" style="stroke:#000000; stroke-width:4; stroke-opacity:1; fill:none" points="
  522.35,1425.82 522.35,1445.72 551.836,1445.72 551.836,1425.82 522.35,1425.82 
  "/>
<path clip-path="url(#clip142)" d="
M551.836 1434.11 L551.836 1445.72 L581.321 1445.72 L581.321 1434.11 L551.836 1434.11 L551.836 1434.11  Z
  " fill="#009af9" fill-rule="evenodd" fill-opacity="1"/>
<polyline clip-path="url(#clip142)" style="stroke:#000000; stroke-width:4; stroke-opacity:1; fill:none" points="
  551.836,1434.11 551.836,1445.72 581.321,1445.72 581.321,1434.11 551.836,1434.11 
  "/>
<path clip-path="url(#clip142)" d="
M581.321 1429.14 L581.321 1445.72 L610.806 1445.72 L610.806 1429.14 L581.321 1429.14 L581.321 1429.14  Z
  " fill="#009af9" fill-rule="evenodd" fill-opacity="1"/>
<polyline clip-path="url(#clip142)" style="stroke:#000000; stroke-width:4; stroke-opacity:1; fill:none" points="
  581.321,1429.14 581.321,1445.72 610.806,1445.72 610.806,1429.14 581.321,1429.14 
  "/>
<path clip-path="url(#clip142)" d="
M610.806 1417.53 L610.806 1445.72 L640.291 1445.72 L640.291 1417.53 L610.806 1417.53 L610.806 1417.53  Z
  " fill="#009af9" fill-rule="evenodd" fill-opacity="1"/>
<polyline clip-path="url(#clip142)" style="stroke:#000000; stroke-width:4; stroke-opacity:1; fill:none" points="
  610.806,1417.53 610.806,1445.72 640.291,1445.72 640.291,1417.53 610.806,1417.53 
  "/>
<path clip-path="url(#clip142)" d="
M640.291 1414.22 L640.291 1445.72 L669.776 1445.72 L669.776 1414.22 L640.291 1414.22 L640.291 1414.22  Z
  " fill="#009af9" fill-rule="evenodd" fill-opacity="1"/>
<polyline clip-path="url(#clip142)" style="stroke:#000000; stroke-width:4; stroke-opacity:1; fill:none" points="
  640.291,1414.22 640.291,1445.72 669.776,1445.72 669.776,1414.22 640.291,1414.22 
  "/>
<path clip-path="url(#clip142)" d="
M669.776 1410.9 L669.776 1445.72 L699.262 1445.72 L699.262 1410.9 L669.776 1410.9 L669.776 1410.9  Z
  " fill="#009af9" fill-rule="evenodd" fill-opacity="1"/>
<polyline clip-path="url(#clip142)" style="stroke:#000000; stroke-width:4; stroke-opacity:1; fill:none" points="
  669.776,1410.9 669.776,1445.72 699.262,1445.72 699.262,1410.9 669.776,1410.9 
  "/>
<path clip-path="url(#clip142)" d="
M699.262 1412.56 L699.262 1445.72 L728.747 1445.72 L728.747 1412.56 L699.262 1412.56 L699.262 1412.56  Z
  " fill="#009af9" fill-rule="evenodd" fill-opacity="1"/>
<polyline clip-path="url(#clip142)" style="stroke:#000000; stroke-width:4; stroke-opacity:1; fill:none" points="
  699.262,1412.56 699.262,1445.72 728.747,1445.72 728.747,1412.56 699.262,1412.56 
  "/>
<path clip-path="url(#clip142)" d="
M728.747 1399.3 L728.747 1445.72 L758.232 1445.72 L758.232 1399.3 L728.747 1399.3 L728.747 1399.3  Z
  " fill="#009af9" fill-rule="evenodd" fill-opacity="1"/>
<polyline clip-path="url(#clip142)" style="stroke:#000000; stroke-width:4; stroke-opacity:1; fill:none" points="
  728.747,1399.3 728.747,1445.72 758.232,1445.72 758.232,1399.3 728.747,1399.3 
  "/>
<path clip-path="url(#clip142)" d="
M758.232 1394.32 L758.232 1445.72 L787.717 1445.72 L787.717 1394.32 L758.232 1394.32 L758.232 1394.32  Z
  " fill="#009af9" fill-rule="evenodd" fill-opacity="1"/>
<polyline clip-path="url(#clip142)" style="stroke:#000000; stroke-width:4; stroke-opacity:1; fill:none" points="
  758.232,1394.32 758.232,1445.72 787.717,1445.72 787.717,1394.32 758.232,1394.32 
  "/>
<path clip-path="url(#clip142)" d="
M787.717 1397.64 L787.717 1445.72 L817.202 1445.72 L817.202 1397.64 L787.717 1397.64 L787.717 1397.64  Z
  " fill="#009af9" fill-rule="evenodd" fill-opacity="1"/>
<polyline clip-path="url(#clip142)" style="stroke:#000000; stroke-width:4; stroke-opacity:1; fill:none" points="
  787.717,1397.64 787.717,1445.72 817.202,1445.72 817.202,1397.64 787.717,1397.64 
  "/>
<path clip-path="url(#clip142)" d="
M817.202 1357.85 L817.202 1445.72 L846.688 1445.72 L846.688 1357.85 L817.202 1357.85 L817.202 1357.85  Z
  " fill="#009af9" fill-rule="evenodd" fill-opacity="1"/>
<polyline clip-path="url(#clip142)" style="stroke:#000000; stroke-width:4; stroke-opacity:1; fill:none" points="
  817.202,1357.85 817.202,1445.72 846.688,1445.72 846.688,1357.85 817.202,1357.85 
  "/>
<path clip-path="url(#clip142)" d="
M846.688 1364.48 L846.688 1445.72 L876.173 1445.72 L876.173 1364.48 L846.688 1364.48 L846.688 1364.48  Z
  " fill="#009af9" fill-rule="evenodd" fill-opacity="1"/>
<polyline clip-path="url(#clip142)" style="stroke:#000000; stroke-width:4; stroke-opacity:1; fill:none" points="
  846.688,1364.48 846.688,1445.72 876.173,1445.72 876.173,1364.48 846.688,1364.48 
  "/>
<path clip-path="url(#clip142)" d="
M876.173 1344.59 L876.173 1445.72 L905.658 1445.72 L905.658 1344.59 L876.173 1344.59 L876.173 1344.59  Z
  " fill="#009af9" fill-rule="evenodd" fill-opacity="1"/>
<polyline clip-path="url(#clip142)" style="stroke:#000000; stroke-width:4; stroke-opacity:1; fill:none" points="
  876.173,1344.59 876.173,1445.72 905.658,1445.72 905.658,1344.59 876.173,1344.59 
  "/>
<path clip-path="url(#clip142)" d="
M905.658 1342.93 L905.658 1445.72 L935.143 1445.72 L935.143 1342.93 L905.658 1342.93 L905.658 1342.93  Z
  " fill="#009af9" fill-rule="evenodd" fill-opacity="1"/>
<polyline clip-path="url(#clip142)" style="stroke:#000000; stroke-width:4; stroke-opacity:1; fill:none" points="
  905.658,1342.93 905.658,1445.72 935.143,1445.72 935.143,1342.93 905.658,1342.93 
  "/>
<path clip-path="url(#clip142)" d="
M935.143 1321.38 L935.143 1445.72 L964.628 1445.72 L964.628 1321.38 L935.143 1321.38 L935.143 1321.38  Z
  " fill="#009af9" fill-rule="evenodd" fill-opacity="1"/>
<polyline clip-path="url(#clip142)" style="stroke:#000000; stroke-width:4; stroke-opacity:1; fill:none" points="
  935.143,1321.38 935.143,1445.72 964.628,1445.72 964.628,1321.38 935.143,1321.38 
  "/>
<path clip-path="url(#clip142)" d="
M964.628 1284.91 L964.628 1445.72 L994.114 1445.72 L994.114 1284.91 L964.628 1284.91 L964.628 1284.91  Z
  " fill="#009af9" fill-rule="evenodd" fill-opacity="1"/>
<polyline clip-path="url(#clip142)" style="stroke:#000000; stroke-width:4; stroke-opacity:1; fill:none" points="
  964.628,1284.91 964.628,1445.72 994.114,1445.72 994.114,1284.91 964.628,1284.91 
  "/>
<path clip-path="url(#clip142)" d="
M994.114 1260.04 L994.114 1445.72 L1023.6 1445.72 L1023.6 1260.04 L994.114 1260.04 L994.114 1260.04  Z
  " fill="#009af9" fill-rule="evenodd" fill-opacity="1"/>
<polyline clip-path="url(#clip142)" style="stroke:#000000; stroke-width:4; stroke-opacity:1; fill:none" points="
  994.114,1260.04 994.114,1445.72 1023.6,1445.72 1023.6,1260.04 994.114,1260.04 
  "/>
<path clip-path="url(#clip142)" d="
M1023.6 1298.17 L1023.6 1445.72 L1053.08 1445.72 L1053.08 1298.17 L1023.6 1298.17 L1023.6 1298.17  Z
  " fill="#009af9" fill-rule="evenodd" fill-opacity="1"/>
<polyline clip-path="url(#clip142)" style="stroke:#000000; stroke-width:4; stroke-opacity:1; fill:none" points="
  1023.6,1298.17 1023.6,1445.72 1053.08,1445.72 1053.08,1298.17 1023.6,1298.17 
  "/>
<path clip-path="url(#clip142)" d="
M1053.08 1255.07 L1053.08 1445.72 L1082.57 1445.72 L1082.57 1255.07 L1053.08 1255.07 L1053.08 1255.07  Z
  " fill="#009af9" fill-rule="evenodd" fill-opacity="1"/>
<polyline clip-path="url(#clip142)" style="stroke:#000000; stroke-width:4; stroke-opacity:1; fill:none" points="
  1053.08,1255.07 1053.08,1445.72 1082.57,1445.72 1082.57,1255.07 1053.08,1255.07 
  "/>
<path clip-path="url(#clip142)" d="
M1082.57 1241.81 L1082.57 1445.72 L1112.05 1445.72 L1112.05 1241.81 L1082.57 1241.81 L1082.57 1241.81  Z
  " fill="#009af9" fill-rule="evenodd" fill-opacity="1"/>
<polyline clip-path="url(#clip142)" style="stroke:#000000; stroke-width:4; stroke-opacity:1; fill:none" points="
  1082.57,1241.81 1082.57,1445.72 1112.05,1445.72 1112.05,1241.81 1082.57,1241.81 
  "/>
<path clip-path="url(#clip142)" d="
M1112.05 1253.41 L1112.05 1445.72 L1141.54 1445.72 L1141.54 1253.41 L1112.05 1253.41 L1112.05 1253.41  Z
  " fill="#009af9" fill-rule="evenodd" fill-opacity="1"/>
<polyline clip-path="url(#clip142)" style="stroke:#000000; stroke-width:4; stroke-opacity:1; fill:none" points="
  1112.05,1253.41 1112.05,1445.72 1141.54,1445.72 1141.54,1253.41 1112.05,1253.41 
  "/>
<path clip-path="url(#clip142)" d="
M1141.54 1241.81 L1141.54 1445.72 L1171.02 1445.72 L1171.02 1241.81 L1141.54 1241.81 L1141.54 1241.81  Z
  " fill="#009af9" fill-rule="evenodd" fill-opacity="1"/>
<polyline clip-path="url(#clip142)" style="stroke:#000000; stroke-width:4; stroke-opacity:1; fill:none" points="
  1141.54,1241.81 1141.54,1445.72 1171.02,1445.72 1171.02,1241.81 1141.54,1241.81 
  "/>
<path clip-path="url(#clip142)" d="
M1171.02 1255.07 L1171.02 1445.72 L1200.51 1445.72 L1200.51 1255.07 L1171.02 1255.07 L1171.02 1255.07  Z
  " fill="#009af9" fill-rule="evenodd" fill-opacity="1"/>
<polyline clip-path="url(#clip142)" style="stroke:#000000; stroke-width:4; stroke-opacity:1; fill:none" points="
  1171.02,1255.07 1171.02,1445.72 1200.51,1445.72 1200.51,1255.07 1171.02,1255.07 
  "/>
<path clip-path="url(#clip142)" d="
M1200.51 1240.15 L1200.51 1445.72 L1230 1445.72 L1230 1240.15 L1200.51 1240.15 L1200.51 1240.15  Z
  " fill="#009af9" fill-rule="evenodd" fill-opacity="1"/>
<polyline clip-path="url(#clip142)" style="stroke:#000000; stroke-width:4; stroke-opacity:1; fill:none" points="
  1200.51,1240.15 1200.51,1445.72 1230,1445.72 1230,1240.15 1200.51,1240.15 
  "/>
<path clip-path="url(#clip142)" d="
M1230 1235.17 L1230 1445.72 L1259.48 1445.72 L1259.48 1235.17 L1230 1235.17 L1230 1235.17  Z
  " fill="#009af9" fill-rule="evenodd" fill-opacity="1"/>
<polyline clip-path="url(#clip142)" style="stroke:#000000; stroke-width:4; stroke-opacity:1; fill:none" points="
  1230,1235.17 1230,1445.72 1259.48,1445.72 1259.48,1235.17 1230,1235.17 
  "/>
<path clip-path="url(#clip142)" d="
M1259.48 1236.83 L1259.48 1445.72 L1288.97 1445.72 L1288.97 1236.83 L1259.48 1236.83 L1259.48 1236.83  Z
  " fill="#009af9" fill-rule="evenodd" fill-opacity="1"/>
<polyline clip-path="url(#clip142)" style="stroke:#000000; stroke-width:4; stroke-opacity:1; fill:none" points="
  1259.48,1236.83 1259.48,1445.72 1288.97,1445.72 1288.97,1236.83 1259.48,1236.83 
  "/>
<path clip-path="url(#clip142)" d="
M1288.97 1185.44 L1288.97 1445.72 L1318.45 1445.72 L1318.45 1185.44 L1288.97 1185.44 L1288.97 1185.44  Z
  " fill="#009af9" fill-rule="evenodd" fill-opacity="1"/>
<polyline clip-path="url(#clip142)" style="stroke:#000000; stroke-width:4; stroke-opacity:1; fill:none" points="
  1288.97,1185.44 1288.97,1445.72 1318.45,1445.72 1318.45,1185.44 1288.97,1185.44 
  "/>
<path clip-path="url(#clip142)" d="
M1318.45 855.538 L1318.45 1445.72 L1347.94 1445.72 L1347.94 855.538 L1318.45 855.538 L1318.45 855.538  Z
  " fill="#009af9" fill-rule="evenodd" fill-opacity="1"/>
<polyline clip-path="url(#clip142)" style="stroke:#000000; stroke-width:4; stroke-opacity:1; fill:none" points="
  1318.45,855.538 1318.45,1445.72 1347.94,1445.72 1347.94,855.538 1318.45,855.538 
  "/>
<path clip-path="url(#clip142)" d="
M1347.94 202.365 L1347.94 1445.72 L1377.42 1445.72 L1377.42 202.365 L1347.94 202.365 L1347.94 202.365  Z
  " fill="#009af9" fill-rule="evenodd" fill-opacity="1"/>
<polyline clip-path="url(#clip142)" style="stroke:#000000; stroke-width:4; stroke-opacity:1; fill:none" points="
  1347.94,202.365 1347.94,1445.72 1377.42,1445.72 1377.42,202.365 1347.94,202.365 
  "/>
<path clip-path="url(#clip142)" d="
M1377.42 87.9763 L1377.42 1445.72 L1406.91 1445.72 L1406.91 87.9763 L1377.42 87.9763 L1377.42 87.9763  Z
  " fill="#009af9" fill-rule="evenodd" fill-opacity="1"/>
<polyline clip-path="url(#clip142)" style="stroke:#000000; stroke-width:4; stroke-opacity:1; fill:none" points="
  1377.42,87.9763 1377.42,1445.72 1406.91,1445.72 1406.91,87.9763 1377.42,87.9763 
  "/>
<path clip-path="url(#clip142)" d="
M1406.91 855.538 L1406.91 1445.72 L1436.39 1445.72 L1436.39 855.538 L1406.91 855.538 L1406.91 855.538  Z
  " fill="#009af9" fill-rule="evenodd" fill-opacity="1"/>
<polyline clip-path="url(#clip142)" style="stroke:#000000; stroke-width:4; stroke-opacity:1; fill:none" points="
  1406.91,855.538 1406.91,1445.72 1436.39,1445.72 1436.39,855.538 1406.91,855.538 
  "/>
<path clip-path="url(#clip142)" d="
M1436.39 1231.86 L1436.39 1445.72 L1465.88 1445.72 L1465.88 1231.86 L1436.39 1231.86 L1436.39 1231.86  Z
  " fill="#009af9" fill-rule="evenodd" fill-opacity="1"/>
<polyline clip-path="url(#clip142)" style="stroke:#000000; stroke-width:4; stroke-opacity:1; fill:none" points="
  1436.39,1231.86 1436.39,1445.72 1465.88,1445.72 1465.88,1231.86 1436.39,1231.86 
  "/>
<path clip-path="url(#clip142)" d="
M1465.88 1294.86 L1465.88 1445.72 L1495.36 1445.72 L1495.36 1294.86 L1465.88 1294.86 L1465.88 1294.86  Z
  " fill="#009af9" fill-rule="evenodd" fill-opacity="1"/>
<polyline clip-path="url(#clip142)" style="stroke:#000000; stroke-width:4; stroke-opacity:1; fill:none" points="
  1465.88,1294.86 1465.88,1445.72 1495.36,1445.72 1495.36,1294.86 1465.88,1294.86 
  "/>
<path clip-path="url(#clip142)" d="
M1495.36 1331.33 L1495.36 1445.72 L1524.85 1445.72 L1524.85 1331.33 L1495.36 1331.33 L1495.36 1331.33  Z
  " fill="#009af9" fill-rule="evenodd" fill-opacity="1"/>
<polyline clip-path="url(#clip142)" style="stroke:#000000; stroke-width:4; stroke-opacity:1; fill:none" points="
  1495.36,1331.33 1495.36,1445.72 1524.85,1445.72 1524.85,1331.33 1495.36,1331.33 
  "/>
<path clip-path="url(#clip142)" d="
M1524.85 1328.01 L1524.85 1445.72 L1554.33 1445.72 L1554.33 1328.01 L1524.85 1328.01 L1524.85 1328.01  Z
  " fill="#009af9" fill-rule="evenodd" fill-opacity="1"/>
<polyline clip-path="url(#clip142)" style="stroke:#000000; stroke-width:4; stroke-opacity:1; fill:none" points="
  1524.85,1328.01 1524.85,1445.72 1554.33,1445.72 1554.33,1328.01 1524.85,1328.01 
  "/>
<path clip-path="url(#clip142)" d="
M1554.33 1354.54 L1554.33 1445.72 L1583.82 1445.72 L1583.82 1354.54 L1554.33 1354.54 L1554.33 1354.54  Z
  " fill="#009af9" fill-rule="evenodd" fill-opacity="1"/>
<polyline clip-path="url(#clip142)" style="stroke:#000000; stroke-width:4; stroke-opacity:1; fill:none" points="
  1554.33,1354.54 1554.33,1445.72 1583.82,1445.72 1583.82,1354.54 1554.33,1354.54 
  "/>
<path clip-path="url(#clip142)" d="
M1583.82 1361.17 L1583.82 1445.72 L1613.3 1445.72 L1613.3 1361.17 L1583.82 1361.17 L1583.82 1361.17  Z
  " fill="#009af9" fill-rule="evenodd" fill-opacity="1"/>
<polyline clip-path="url(#clip142)" style="stroke:#000000; stroke-width:4; stroke-opacity:1; fill:none" points="
  1583.82,1361.17 1583.82,1445.72 1613.3,1445.72 1613.3,1361.17 1583.82,1361.17 
  "/>
<path clip-path="url(#clip142)" d="
M1613.3 1369.46 L1613.3 1445.72 L1642.79 1445.72 L1642.79 1369.46 L1613.3 1369.46 L1613.3 1369.46  Z
  " fill="#009af9" fill-rule="evenodd" fill-opacity="1"/>
<polyline clip-path="url(#clip142)" style="stroke:#000000; stroke-width:4; stroke-opacity:1; fill:none" points="
  1613.3,1369.46 1613.3,1445.72 1642.79,1445.72 1642.79,1369.46 1613.3,1369.46 
  "/>
<path clip-path="url(#clip142)" d="
M1642.79 1372.77 L1642.79 1445.72 L1672.27 1445.72 L1672.27 1372.77 L1642.79 1372.77 L1642.79 1372.77  Z
  " fill="#009af9" fill-rule="evenodd" fill-opacity="1"/>
<polyline clip-path="url(#clip142)" style="stroke:#000000; stroke-width:4; stroke-opacity:1; fill:none" points="
  1642.79,1372.77 1642.79,1445.72 1672.27,1445.72 1672.27,1372.77 1642.79,1372.77 
  "/>
<path clip-path="url(#clip142)" d="
M1672.27 1364.48 L1672.27 1445.72 L1701.76 1445.72 L1701.76 1364.48 L1672.27 1364.48 L1672.27 1364.48  Z
  " fill="#009af9" fill-rule="evenodd" fill-opacity="1"/>
<polyline clip-path="url(#clip142)" style="stroke:#000000; stroke-width:4; stroke-opacity:1; fill:none" points="
  1672.27,1364.48 1672.27,1445.72 1701.76,1445.72 1701.76,1364.48 1672.27,1364.48 
  "/>
<path clip-path="url(#clip142)" d="
M1701.76 1399.3 L1701.76 1445.72 L1731.24 1445.72 L1731.24 1399.3 L1701.76 1399.3 L1701.76 1399.3  Z
  " fill="#009af9" fill-rule="evenodd" fill-opacity="1"/>
<polyline clip-path="url(#clip142)" style="stroke:#000000; stroke-width:4; stroke-opacity:1; fill:none" points="
  1701.76,1399.3 1701.76,1445.72 1731.24,1445.72 1731.24,1399.3 1701.76,1399.3 
  "/>
<path clip-path="url(#clip142)" d="
M1731.24 1392.67 L1731.24 1445.72 L1760.73 1445.72 L1760.73 1392.67 L1731.24 1392.67 L1731.24 1392.67  Z
  " fill="#009af9" fill-rule="evenodd" fill-opacity="1"/>
<polyline clip-path="url(#clip142)" style="stroke:#000000; stroke-width:4; stroke-opacity:1; fill:none" points="
  1731.24,1392.67 1731.24,1445.72 1760.73,1445.72 1760.73,1392.67 1731.24,1392.67 
  "/>
<path clip-path="url(#clip142)" d="
M1760.73 1397.64 L1760.73 1445.72 L1790.21 1445.72 L1790.21 1397.64 L1760.73 1397.64 L1760.73 1397.64  Z
  " fill="#009af9" fill-rule="evenodd" fill-opacity="1"/>
<polyline clip-path="url(#clip142)" style="stroke:#000000; stroke-width:4; stroke-opacity:1; fill:none" points="
  1760.73,1397.64 1760.73,1445.72 1790.21,1445.72 1790.21,1397.64 1760.73,1397.64 
  "/>
<path clip-path="url(#clip142)" d="
M1790.21 1405.93 L1790.21 1445.72 L1819.7 1445.72 L1819.7 1405.93 L1790.21 1405.93 L1790.21 1405.93  Z
  " fill="#009af9" fill-rule="evenodd" fill-opacity="1"/>
<polyline clip-path="url(#clip142)" style="stroke:#000000; stroke-width:4; stroke-opacity:1; fill:none" points="
  1790.21,1405.93 1790.21,1445.72 1819.7,1445.72 1819.7,1405.93 1790.21,1405.93 
  "/>
<path clip-path="url(#clip142)" d="
M1819.7 1425.82 L1819.7 1445.72 L1849.18 1445.72 L1849.18 1425.82 L1819.7 1425.82 L1819.7 1425.82  Z
  " fill="#009af9" fill-rule="evenodd" fill-opacity="1"/>
<polyline clip-path="url(#clip142)" style="stroke:#000000; stroke-width:4; stroke-opacity:1; fill:none" points="
  1819.7,1425.82 1819.7,1445.72 1849.18,1445.72 1849.18,1425.82 1819.7,1425.82 
  "/>
<path clip-path="url(#clip142)" d="
M1849.18 1424.16 L1849.18 1445.72 L1878.67 1445.72 L1878.67 1424.16 L1849.18 1424.16 L1849.18 1424.16  Z
  " fill="#009af9" fill-rule="evenodd" fill-opacity="1"/>
<polyline clip-path="url(#clip142)" style="stroke:#000000; stroke-width:4; stroke-opacity:1; fill:none" points="
  1849.18,1424.16 1849.18,1445.72 1878.67,1445.72 1878.67,1424.16 1849.18,1424.16 
  "/>
<path clip-path="url(#clip142)" d="
M1878.67 1434.11 L1878.67 1445.72 L1908.15 1445.72 L1908.15 1434.11 L1878.67 1434.11 L1878.67 1434.11  Z
  " fill="#009af9" fill-rule="evenodd" fill-opacity="1"/>
<polyline clip-path="url(#clip142)" style="stroke:#000000; stroke-width:4; stroke-opacity:1; fill:none" points="
  1878.67,1434.11 1878.67,1445.72 1908.15,1445.72 1908.15,1434.11 1878.67,1434.11 
  "/>
<path clip-path="url(#clip142)" d="
M1908.15 1435.77 L1908.15 1445.72 L1937.64 1445.72 L1937.64 1435.77 L1908.15 1435.77 L1908.15 1435.77  Z
  " fill="#009af9" fill-rule="evenodd" fill-opacity="1"/>
<polyline clip-path="url(#clip142)" style="stroke:#000000; stroke-width:4; stroke-opacity:1; fill:none" points="
  1908.15,1435.77 1908.15,1445.72 1937.64,1445.72 1937.64,1435.77 1908.15,1435.77 
  "/>
<path clip-path="url(#clip142)" d="
M1937.64 1432.45 L1937.64 1445.72 L1967.12 1445.72 L1967.12 1432.45 L1937.64 1432.45 L1937.64 1432.45  Z
  " fill="#009af9" fill-rule="evenodd" fill-opacity="1"/>
<polyline clip-path="url(#clip142)" style="stroke:#000000; stroke-width:4; stroke-opacity:1; fill:none" points="
  1937.64,1432.45 1937.64,1445.72 1967.12,1445.72 1967.12,1432.45 1937.64,1432.45 
  "/>
<path clip-path="url(#clip142)" d="
M1967.12 1435.77 L1967.12 1445.72 L1996.61 1445.72 L1996.61 1435.77 L1967.12 1435.77 L1967.12 1435.77  Z
  " fill="#009af9" fill-rule="evenodd" fill-opacity="1"/>
<polyline clip-path="url(#clip142)" style="stroke:#000000; stroke-width:4; stroke-opacity:1; fill:none" points="
  1967.12,1435.77 1967.12,1445.72 1996.61,1445.72 1996.61,1435.77 1967.12,1435.77 
  "/>
<path clip-path="url(#clip142)" d="
M1996.61 1444.06 L1996.61 1445.72 L2026.1 1445.72 L2026.1 1444.06 L1996.61 1444.06 L1996.61 1444.06  Z
  " fill="#009af9" fill-rule="evenodd" fill-opacity="1"/>
<polyline clip-path="url(#clip142)" style="stroke:#000000; stroke-width:4; stroke-opacity:1; fill:none" points="
  1996.61,1444.06 1996.61,1445.72 2026.1,1445.72 2026.1,1444.06 1996.61,1444.06 
  "/>
<path clip-path="url(#clip142)" d="
M2026.1 1440.74 L2026.1 1445.72 L2055.58 1445.72 L2055.58 1440.74 L2026.1 1440.74 L2026.1 1440.74  Z
  " fill="#009af9" fill-rule="evenodd" fill-opacity="1"/>
<polyline clip-path="url(#clip142)" style="stroke:#000000; stroke-width:4; stroke-opacity:1; fill:none" points="
  2026.1,1440.74 2026.1,1445.72 2055.58,1445.72 2055.58,1440.74 2026.1,1440.74 
  "/>
<path clip-path="url(#clip142)" d="
M2055.58 1439.08 L2055.58 1445.72 L2085.07 1445.72 L2085.07 1439.08 L2055.58 1439.08 L2055.58 1439.08  Z
  " fill="#009af9" fill-rule="evenodd" fill-opacity="1"/>
<polyline clip-path="url(#clip142)" style="stroke:#000000; stroke-width:4; stroke-opacity:1; fill:none" points="
  2055.58,1439.08 2055.58,1445.72 2085.07,1445.72 2085.07,1439.08 2055.58,1439.08 
  "/>
<path clip-path="url(#clip142)" d="
M2085.07 1444.06 L2085.07 1445.72 L2114.55 1445.72 L2114.55 1444.06 L2085.07 1444.06 L2085.07 1444.06  Z
  " fill="#009af9" fill-rule="evenodd" fill-opacity="1"/>
<polyline clip-path="url(#clip142)" style="stroke:#000000; stroke-width:4; stroke-opacity:1; fill:none" points="
  2085.07,1444.06 2085.07,1445.72 2114.55,1445.72 2114.55,1444.06 2085.07,1444.06 
  "/>
<path clip-path="url(#clip142)" d="
M2114.55 1445.72 L2114.55 1445.72 L2144.04 1445.72 L2144.04 1445.72 L2114.55 1445.72 L2114.55 1445.72  Z
  " fill="#009af9" fill-rule="evenodd" fill-opacity="1"/>
<polyline clip-path="url(#clip142)" style="stroke:#000000; stroke-width:4; stroke-opacity:1; fill:none" points="
  2114.55,1445.72 2114.55,1445.72 2144.04,1445.72 2114.55,1445.72 
  "/>
<path clip-path="url(#clip142)" d="
M2144.04 1445.72 L2144.04 1445.72 L2173.52 1445.72 L2173.52 1445.72 L2144.04 1445.72 L2144.04 1445.72  Z
  " fill="#009af9" fill-rule="evenodd" fill-opacity="1"/>
<polyline clip-path="url(#clip142)" style="stroke:#000000; stroke-width:4; stroke-opacity:1; fill:none" points="
  2144.04,1445.72 2144.04,1445.72 2173.52,1445.72 2144.04,1445.72 
  "/>
<path clip-path="url(#clip142)" d="
M2173.52 1445.72 L2173.52 1445.72 L2203.01 1445.72 L2203.01 1445.72 L2173.52 1445.72 L2173.52 1445.72  Z
  " fill="#009af9" fill-rule="evenodd" fill-opacity="1"/>
<polyline clip-path="url(#clip142)" style="stroke:#000000; stroke-width:4; stroke-opacity:1; fill:none" points="
  2173.52,1445.72 2173.52,1445.72 2203.01,1445.72 2173.52,1445.72 
  "/>
<path clip-path="url(#clip142)" d="
M2203.01 1444.06 L2203.01 1445.72 L2232.49 1445.72 L2232.49 1444.06 L2203.01 1444.06 L2203.01 1444.06  Z
  " fill="#009af9" fill-rule="evenodd" fill-opacity="1"/>
<polyline clip-path="url(#clip142)" style="stroke:#000000; stroke-width:4; stroke-opacity:1; fill:none" points="
  2203.01,1444.06 2203.01,1445.72 2232.49,1445.72 2232.49,1444.06 2203.01,1444.06 
  "/>
<path clip-path="url(#clip140)" d="
M1989.74 251.724 L2280.76 251.724 L2280.76 130.764 L1989.74 130.764  Z
  " fill="#ffffff" fill-rule="evenodd" fill-opacity="1"/>
<polyline clip-path="url(#clip140)" style="stroke:#000000; stroke-width:4; stroke-opacity:1; fill:none" points="
  1989.74,251.724 2280.76,251.724 2280.76,130.764 1989.74,130.764 1989.74,251.724 
  "/>
<path clip-path="url(#clip140)" d="
M2013.74 215.436 L2157.74 215.436 L2157.74 167.052 L2013.74 167.052 L2013.74 215.436  Z
  " fill="#009af9" fill-rule="evenodd" fill-opacity="1"/>
<polyline clip-path="url(#clip140)" style="stroke:#000000; stroke-width:4; stroke-opacity:1; fill:none" points="
  2013.74,215.436 2157.74,215.436 2157.74,167.052 2013.74,167.052 2013.74,215.436 
  "/>
<path clip-path="url(#clip140)" d="M 0 0 M2195.58 210.931 Q2193.77 215.561 2192.06 216.973 Q2190.35 218.385 2187.48 218.385 L2184.08 218.385 L2184.08 214.82 L2186.58 214.82 Q2188.33 214.82 2189.31 213.987 Q2190.28 213.154 2191.46 210.052 L2192.22 208.107 L2181.74 182.598 L2186.25 182.598 L2194.35 202.876 L2202.46 182.598 L2206.97 182.598 L2195.58 210.931 Z" fill="#000000" fill-rule="evenodd" fill-opacity="1" /><path clip-path="url(#clip140)" d="M 0 0 M2212.85 204.589 L2220.49 204.589 L2220.49 178.223 L2212.18 179.89 L2212.18 175.631 L2220.44 173.964 L2225.12 173.964 L2225.12 204.589 L2232.76 204.589 L2232.76 208.524 L2212.85 208.524 L2212.85 204.589 Z" fill="#000000" fill-rule="evenodd" fill-opacity="1" /></svg>
