<?xml version="1.0" encoding="utf-8"?>
<svg xmlns="http://www.w3.org/2000/svg" xmlns:xlink="http://www.w3.org/1999/xlink" width="600" height="400" viewBox="0 0 2400 1600">
<defs>
  <clipPath id="clip280">
    <rect x="0" y="0" width="2400" height="1600"/>
  </clipPath>
</defs>
<path clip-path="url(#clip280)" d="
M0 1600 L2400 1600 L2400 0 L0 0  Z
  " fill="#ffffff" fill-rule="evenodd" fill-opacity="1"/>
<defs>
  <clipPath id="clip281">
    <rect x="480" y="0" width="1681" height="1600"/>
  </clipPath>
</defs>
<path clip-path="url(#clip280)" d="
M166.205 1486.45 L2352.76 1486.45 L2352.76 47.2441 L166.205 47.2441  Z
  " fill="#ffffff" fill-rule="evenodd" fill-opacity="1"/>
<defs>
  <clipPath id="clip282">
    <rect x="166" y="47" width="2188" height="1440"/>
  </clipPath>
</defs>
<polyline clip-path="url(#clip282)" style="stroke:#000000; stroke-width:2; stroke-opacity:0.1; fill:none" points="
  386.265,1486.45 386.265,47.2441 
  "/>
<polyline clip-path="url(#clip282)" style="stroke:#000000; stroke-width:2; stroke-opacity:0.1; fill:none" points="
  635.755,1486.45 635.755,47.2441 
  "/>
<polyline clip-path="url(#clip282)" style="stroke:#000000; stroke-width:2; stroke-opacity:0.1; fill:none" points="
  885.245,1486.45 885.245,47.2441 
  "/>
<polyline clip-path="url(#clip282)" style="stroke:#000000; stroke-width:2; stroke-opacity:0.1; fill:none" points="
  1134.74,1486.45 1134.74,47.2441 
  "/>
<polyline clip-path="url(#clip282)" style="stroke:#000000; stroke-width:2; stroke-opacity:0.1; fill:none" points="
  1384.23,1486.45 1384.23,47.2441 
  "/>
<polyline clip-path="url(#clip282)" style="stroke:#000000; stroke-width:2; stroke-opacity:0.1; fill:none" points="
  1633.72,1486.45 1633.72,47.2441 
  "/>
<polyline clip-path="url(#clip282)" style="stroke:#000000; stroke-width:2; stroke-opacity:0.1; fill:none" points="
  1883.21,1486.45 1883.21,47.2441 
  "/>
<polyline clip-path="url(#clip282)" style="stroke:#000000; stroke-width:2; stroke-opacity:0.1; fill:none" points="
  2132.7,1486.45 2132.7,47.2441 
  "/>
<polyline clip-path="url(#clip282)" style="stroke:#000000; stroke-width:2; stroke-opacity:0.1; fill:none" points="
  166.205,1445.72 2352.76,1445.72 
  "/>
<polyline clip-path="url(#clip282)" style="stroke:#000000; stroke-width:2; stroke-opacity:0.1; fill:none" points="
  166.205,1110.88 2352.76,1110.88 
  "/>
<polyline clip-path="url(#clip282)" style="stroke:#000000; stroke-width:2; stroke-opacity:0.1; fill:none" points="
  166.205,776.054 2352.76,776.054 
  "/>
<polyline clip-path="url(#clip282)" style="stroke:#000000; stroke-width:2; stroke-opacity:0.1; fill:none" points="
  166.205,441.223 2352.76,441.223 
  "/>
<polyline clip-path="url(#clip282)" style="stroke:#000000; stroke-width:2; stroke-opacity:0.1; fill:none" points="
  166.205,106.392 2352.76,106.392 
  "/>
<polyline clip-path="url(#clip280)" style="stroke:#000000; stroke-width:4; stroke-opacity:1; fill:none" points="
  166.205,1486.45 2352.76,1486.45 
  "/>
<polyline clip-path="url(#clip280)" style="stroke:#000000; stroke-width:4; stroke-opacity:1; fill:none" points="
  166.205,1486.45 166.205,47.2441 
  "/>
<polyline clip-path="url(#clip280)" style="stroke:#000000; stroke-width:4; stroke-opacity:1; fill:none" points="
  386.265,1486.45 386.265,1469.18 
  "/>
<polyline clip-path="url(#clip280)" style="stroke:#000000; stroke-width:4; stroke-opacity:1; fill:none" points="
  635.755,1486.45 635.755,1469.18 
  "/>
<polyline clip-path="url(#clip280)" style="stroke:#000000; stroke-width:4; stroke-opacity:1; fill:none" points="
  885.245,1486.45 885.245,1469.18 
  "/>
<polyline clip-path="url(#clip280)" style="stroke:#000000; stroke-width:4; stroke-opacity:1; fill:none" points="
  1134.74,1486.45 1134.74,1469.18 
  "/>
<polyline clip-path="url(#clip280)" style="stroke:#000000; stroke-width:4; stroke-opacity:1; fill:none" points="
  1384.23,1486.45 1384.23,1469.18 
  "/>
<polyline clip-path="url(#clip280)" style="stroke:#000000; stroke-width:4; stroke-opacity:1; fill:none" points="
  1633.72,1486.45 1633.72,1469.18 
  "/>
<polyline clip-path="url(#clip280)" style="stroke:#000000; stroke-width:4; stroke-opacity:1; fill:none" points="
  1883.21,1486.45 1883.21,1469.18 
  "/>
<polyline clip-path="url(#clip280)" style="stroke:#000000; stroke-width:4; stroke-opacity:1; fill:none" points="
  2132.7,1486.45 2132.7,1469.18 
  "/>
<polyline clip-path="url(#clip280)" style="stroke:#000000; stroke-width:4; stroke-opacity:1; fill:none" points="
  166.205,1445.72 192.443,1445.72 
  "/>
<polyline clip-path="url(#clip280)" style="stroke:#000000; stroke-width:4; stroke-opacity:1; fill:none" points="
  166.205,1110.88 192.443,1110.88 
  "/>
<polyline clip-path="url(#clip280)" style="stroke:#000000; stroke-width:4; stroke-opacity:1; fill:none" points="
  166.205,776.054 192.443,776.054 
  "/>
<polyline clip-path="url(#clip280)" style="stroke:#000000; stroke-width:4; stroke-opacity:1; fill:none" points="
  166.205,441.223 192.443,441.223 
  "/>
<polyline clip-path="url(#clip280)" style="stroke:#000000; stroke-width:4; stroke-opacity:1; fill:none" points="
  166.205,106.392 192.443,106.392 
  "/>
<path clip-path="url(#clip280)" d="M 0 0 M366.439 1525.04 L378.915 1525.04 L378.915 1528.83 L366.439 1528.83 L366.439 1525.04 Z" fill="#000000" fill-rule="evenodd" fill-opacity="1" /><path clip-path="url(#clip280)" d="M 0 0 M394.563 1520.78 Q391.415 1520.78 389.564 1522.93 Q387.735 1525.08 387.735 1528.83 Q387.735 1532.56 389.564 1534.73 Q391.415 1536.89 394.563 1536.89 Q397.712 1536.89 399.54 1534.73 Q401.392 1532.56 401.392 1528.83 Q401.392 1525.08 399.54 1522.93 Q397.712 1520.78 394.563 1520.78 M403.846 1506.12 L403.846 1510.38 Q402.087 1509.55 400.281 1509.11 Q398.499 1508.67 396.739 1508.67 Q392.11 1508.67 389.656 1511.8 Q387.226 1514.92 386.878 1521.24 Q388.244 1519.23 390.304 1518.16 Q392.364 1517.07 394.841 1517.07 Q400.05 1517.07 403.059 1520.24 Q406.091 1523.39 406.091 1528.83 Q406.091 1534.16 402.943 1537.37 Q399.795 1540.59 394.563 1540.59 Q388.568 1540.59 385.397 1536.01 Q382.226 1531.4 382.226 1522.67 Q382.226 1514.48 386.114 1509.62 Q390.003 1504.73 396.554 1504.73 Q398.313 1504.73 400.096 1505.08 Q401.901 1505.43 403.846 1506.12 Z" fill="#000000" fill-rule="evenodd" fill-opacity="1" /><path clip-path="url(#clip280)" d="M 0 0 M615.767 1525.04 L628.243 1525.04 L628.243 1528.83 L615.767 1528.83 L615.767 1525.04 Z" fill="#000000" fill-rule="evenodd" fill-opacity="1" /><path clip-path="url(#clip280)" d="M 0 0 M646.16 1509.43 L634.355 1527.88 L646.16 1527.88 L646.16 1509.43 M644.933 1505.36 L650.813 1505.36 L650.813 1527.88 L655.743 1527.88 L655.743 1531.77 L650.813 1531.77 L650.813 1539.92 L646.16 1539.92 L646.16 1531.77 L630.558 1531.77 L630.558 1527.26 L644.933 1505.36 Z" fill="#000000" fill-rule="evenodd" fill-opacity="1" /><path clip-path="url(#clip280)" d="M 0 0 M866.298 1525.04 L878.775 1525.04 L878.775 1528.83 L866.298 1528.83 L866.298 1525.04 Z" fill="#000000" fill-rule="evenodd" fill-opacity="1" /><path clip-path="url(#clip280)" d="M 0 0 M887.872 1535.98 L904.192 1535.98 L904.192 1539.92 L882.247 1539.92 L882.247 1535.98 Q884.909 1533.23 889.493 1528.6 Q894.099 1523.95 895.28 1522.61 Q897.525 1520.08 898.405 1518.35 Q899.308 1516.59 899.308 1514.9 Q899.308 1512.14 897.363 1510.41 Q895.442 1508.67 892.34 1508.67 Q890.141 1508.67 887.687 1509.43 Q885.257 1510.2 882.479 1511.75 L882.479 1507.03 Q885.303 1505.89 887.757 1505.31 Q890.21 1504.73 892.247 1504.73 Q897.618 1504.73 900.812 1507.42 Q904.007 1510.11 904.007 1514.6 Q904.007 1516.73 903.196 1518.65 Q902.409 1520.54 900.303 1523.14 Q899.724 1523.81 896.622 1527.03 Q893.521 1530.22 887.872 1535.98 Z" fill="#000000" fill-rule="evenodd" fill-opacity="1" /><path clip-path="url(#clip280)" d="M 0 0 M1134.74 1508.44 Q1131.12 1508.44 1129.3 1512 Q1127.49 1515.55 1127.49 1522.67 Q1127.49 1529.78 1129.3 1533.35 Q1131.12 1536.89 1134.74 1536.89 Q1138.37 1536.89 1140.18 1533.35 Q1142 1529.78 1142 1522.67 Q1142 1515.55 1140.18 1512 Q1138.37 1508.44 1134.74 1508.44 M1134.74 1504.73 Q1140.55 1504.73 1143.6 1509.34 Q1146.68 1513.92 1146.68 1522.67 Q1146.68 1531.4 1143.6 1536.01 Q1140.55 1540.59 1134.74 1540.59 Q1128.93 1540.59 1125.85 1536.01 Q1122.79 1531.4 1122.79 1522.67 Q1122.79 1513.92 1125.85 1509.34 Q1128.93 1504.73 1134.74 1504.73 Z" fill="#000000" fill-rule="evenodd" fill-opacity="1" /><path clip-path="url(#clip280)" d="M 0 0 M1378.88 1535.98 L1395.2 1535.98 L1395.2 1539.92 L1373.25 1539.92 L1373.25 1535.98 Q1375.92 1533.23 1380.5 1528.6 Q1385.1 1523.95 1386.29 1522.61 Q1388.53 1520.08 1389.41 1518.35 Q1390.31 1516.59 1390.31 1514.9 Q1390.31 1512.14 1388.37 1510.41 Q1386.45 1508.67 1383.35 1508.67 Q1381.15 1508.67 1378.69 1509.43 Q1376.26 1510.2 1373.48 1511.75 L1373.48 1507.03 Q1376.31 1505.89 1378.76 1505.31 Q1381.22 1504.73 1383.25 1504.73 Q1388.62 1504.73 1391.82 1507.42 Q1395.01 1510.11 1395.01 1514.6 Q1395.01 1516.73 1394.2 1518.65 Q1393.42 1520.54 1391.31 1523.14 Q1390.73 1523.81 1387.63 1527.03 Q1384.53 1530.22 1378.88 1535.98 Z" fill="#000000" fill-rule="evenodd" fill-opacity="1" /><path clip-path="url(#clip280)" d="M 0 0 M1636.72 1509.43 L1624.92 1527.88 L1636.72 1527.88 L1636.72 1509.43 M1635.5 1505.36 L1641.38 1505.36 L1641.38 1527.88 L1646.31 1527.88 L1646.31 1531.77 L1641.38 1531.77 L1641.38 1539.92 L1636.72 1539.92 L1636.72 1531.77 L1621.12 1531.77 L1621.12 1527.26 L1635.5 1505.36 Z" fill="#000000" fill-rule="evenodd" fill-opacity="1" /><path clip-path="url(#clip280)" d="M 0 0 M1883.61 1520.78 Q1880.46 1520.78 1878.61 1522.93 Q1876.78 1525.08 1876.78 1528.83 Q1876.78 1532.56 1878.61 1534.73 Q1880.46 1536.89 1883.61 1536.89 Q1886.76 1536.89 1888.59 1534.73 Q1890.44 1532.56 1890.44 1528.83 Q1890.44 1525.08 1888.59 1522.93 Q1886.76 1520.78 1883.61 1520.78 M1892.89 1506.12 L1892.89 1510.38 Q1891.13 1509.55 1889.33 1509.11 Q1887.55 1508.67 1885.79 1508.67 Q1881.16 1508.67 1878.7 1511.8 Q1876.27 1514.92 1875.93 1521.24 Q1877.29 1519.23 1879.35 1518.16 Q1881.41 1517.07 1883.89 1517.07 Q1889.1 1517.07 1892.11 1520.24 Q1895.14 1523.39 1895.14 1528.83 Q1895.14 1534.16 1891.99 1537.37 Q1888.84 1540.59 1883.61 1540.59 Q1877.62 1540.59 1874.44 1536.01 Q1871.27 1531.4 1871.27 1522.67 Q1871.27 1514.48 1875.16 1509.62 Q1879.05 1504.73 1885.6 1504.73 Q1887.36 1504.73 1889.14 1505.08 Q1890.95 1505.43 1892.89 1506.12 Z" fill="#000000" fill-rule="evenodd" fill-opacity="1" /><path clip-path="url(#clip280)" d="M 0 0 M2132.7 1523.51 Q2129.36 1523.51 2127.44 1525.29 Q2125.54 1527.07 2125.54 1530.2 Q2125.54 1533.32 2127.44 1535.11 Q2129.36 1536.89 2132.7 1536.89 Q2136.03 1536.89 2137.95 1535.11 Q2139.87 1533.3 2139.87 1530.2 Q2139.87 1527.07 2137.95 1525.29 Q2136.05 1523.51 2132.7 1523.51 M2128.02 1521.52 Q2125.01 1520.78 2123.32 1518.72 Q2121.65 1516.66 2121.65 1513.69 Q2121.65 1509.55 2124.59 1507.14 Q2127.56 1504.73 2132.7 1504.73 Q2137.86 1504.73 2140.8 1507.14 Q2143.74 1509.55 2143.74 1513.69 Q2143.74 1516.66 2142.05 1518.72 Q2140.38 1520.78 2137.39 1521.52 Q2140.77 1522.3 2142.65 1524.6 Q2144.55 1526.89 2144.55 1530.2 Q2144.55 1535.22 2141.47 1537.91 Q2138.41 1540.59 2132.7 1540.59 Q2126.98 1540.59 2123.9 1537.91 Q2120.84 1535.22 2120.84 1530.2 Q2120.84 1526.89 2122.74 1524.6 Q2124.64 1522.3 2128.02 1521.52 M2126.31 1514.13 Q2126.31 1516.82 2127.97 1518.32 Q2129.66 1519.83 2132.7 1519.83 Q2135.7 1519.83 2137.39 1518.32 Q2139.11 1516.82 2139.11 1514.13 Q2139.11 1511.45 2137.39 1509.94 Q2135.7 1508.44 2132.7 1508.44 Q2129.66 1508.44 2127.97 1509.94 Q2126.31 1511.45 2126.31 1514.13 Z" fill="#000000" fill-rule="evenodd" fill-opacity="1" /><path clip-path="url(#clip280)" d="M 0 0 M130.26 1431.51 Q126.649 1431.51 124.82 1435.08 Q123.015 1438.62 123.015 1445.75 Q123.015 1452.86 124.82 1456.42 Q126.649 1459.96 130.26 1459.96 Q133.895 1459.96 135.7 1456.42 Q137.529 1452.86 137.529 1445.75 Q137.529 1438.62 135.7 1435.08 Q133.895 1431.51 130.26 1431.51 M130.26 1427.81 Q136.07 1427.81 139.126 1432.42 Q142.205 1437 142.205 1445.75 Q142.205 1454.48 139.126 1459.08 Q136.07 1463.67 130.26 1463.67 Q124.45 1463.67 121.371 1459.08 Q118.316 1454.48 118.316 1445.75 Q118.316 1437 121.371 1432.42 Q124.45 1427.81 130.26 1427.81 Z" fill="#000000" fill-rule="evenodd" fill-opacity="1" /><path clip-path="url(#clip280)" d="M 0 0 M71.8578 1124.23 L88.1772 1124.23 L88.1772 1128.16 L66.2328 1128.16 L66.2328 1124.23 Q68.8949 1121.47 73.4782 1116.85 Q78.0846 1112.19 79.2652 1110.85 Q81.5105 1108.33 82.3902 1106.59 Q83.2929 1104.83 83.2929 1103.14 Q83.2929 1100.39 81.3485 1098.65 Q79.4272 1096.91 76.3254 1096.91 Q74.1263 1096.91 71.6726 1097.68 Q69.2421 1098.44 66.4643 1099.99 L66.4643 1095.27 Q69.2884 1094.14 71.7421 1093.56 Q74.1958 1092.98 76.2328 1092.98 Q81.6031 1092.98 84.7976 1095.66 Q87.992 1098.35 87.992 1102.84 Q87.992 1104.97 87.1818 1106.89 Q86.3948 1108.79 84.2883 1111.38 Q83.7096 1112.05 80.6078 1115.27 Q77.5059 1118.47 71.8578 1124.23 Z" fill="#000000" fill-rule="evenodd" fill-opacity="1" /><path clip-path="url(#clip280)" d="M 0 0 M103.247 1096.68 Q99.6354 1096.68 97.8068 1100.25 Q96.0012 1103.79 96.0012 1110.92 Q96.0012 1118.03 97.8068 1121.59 Q99.6354 1125.13 103.247 1125.13 Q106.881 1125.13 108.686 1121.59 Q110.515 1118.03 110.515 1110.92 Q110.515 1103.79 108.686 1100.25 Q106.881 1096.68 103.247 1096.68 M103.247 1092.98 Q109.057 1092.98 112.112 1097.59 Q115.191 1102.17 115.191 1110.92 Q115.191 1119.65 112.112 1124.25 Q109.057 1128.84 103.247 1128.84 Q97.4364 1128.84 94.3577 1124.25 Q91.3022 1119.65 91.3022 1110.92 Q91.3022 1102.17 94.3577 1097.59 Q97.4364 1092.98 103.247 1092.98 Z" fill="#000000" fill-rule="evenodd" fill-opacity="1" /><path clip-path="url(#clip280)" d="M 0 0 M130.26 1096.68 Q126.649 1096.68 124.82 1100.25 Q123.015 1103.79 123.015 1110.92 Q123.015 1118.03 124.82 1121.59 Q126.649 1125.13 130.26 1125.13 Q133.895 1125.13 135.7 1121.59 Q137.529 1118.03 137.529 1110.92 Q137.529 1103.79 135.7 1100.25 Q133.895 1096.68 130.26 1096.68 M130.26 1092.98 Q136.07 1092.98 139.126 1097.59 Q142.205 1102.17 142.205 1110.92 Q142.205 1119.65 139.126 1124.25 Q136.07 1128.84 130.26 1128.84 Q124.45 1128.84 121.371 1124.25 Q118.316 1119.65 118.316 1110.92 Q118.316 1102.17 121.371 1097.59 Q124.45 1092.98 130.26 1092.98 Z" fill="#000000" fill-rule="evenodd" fill-opacity="1" /><path clip-path="url(#clip280)" d="M 0 0 M78.5939 762.848 L66.7884 781.297 L78.5939 781.297 L78.5939 762.848 M77.367 758.774 L83.2466 758.774 L83.2466 781.297 L88.1772 781.297 L88.1772 785.186 L83.2466 785.186 L83.2466 793.334 L78.5939 793.334 L78.5939 785.186 L62.9921 785.186 L62.9921 780.672 L77.367 758.774 Z" fill="#000000" fill-rule="evenodd" fill-opacity="1" /><path clip-path="url(#clip280)" d="M 0 0 M103.247 761.853 Q99.6354 761.853 97.8068 765.417 Q96.0012 768.959 96.0012 776.089 Q96.0012 783.195 97.8068 786.76 Q99.6354 790.301 103.247 790.301 Q106.881 790.301 108.686 786.76 Q110.515 783.195 110.515 776.089 Q110.515 768.959 108.686 765.417 Q106.881 761.853 103.247 761.853 M103.247 758.149 Q109.057 758.149 112.112 762.755 Q115.191 767.339 115.191 776.089 Q115.191 784.815 112.112 789.422 Q109.057 794.005 103.247 794.005 Q97.4364 794.005 94.3577 789.422 Q91.3022 784.815 91.3022 776.089 Q91.3022 767.339 94.3577 762.755 Q97.4364 758.149 103.247 758.149 Z" fill="#000000" fill-rule="evenodd" fill-opacity="1" /><path clip-path="url(#clip280)" d="M 0 0 M130.26 761.853 Q126.649 761.853 124.82 765.417 Q123.015 768.959 123.015 776.089 Q123.015 783.195 124.82 786.76 Q126.649 790.301 130.26 790.301 Q133.895 790.301 135.7 786.76 Q137.529 783.195 137.529 776.089 Q137.529 768.959 135.7 765.417 Q133.895 761.853 130.26 761.853 M130.26 758.149 Q136.07 758.149 139.126 762.755 Q142.205 767.339 142.205 776.089 Q142.205 784.815 139.126 789.422 Q136.07 794.005 130.26 794.005 Q124.45 794.005 121.371 789.422 Q118.316 784.815 118.316 776.089 Q118.316 767.339 121.371 762.755 Q124.45 758.149 130.26 758.149 Z" fill="#000000" fill-rule="evenodd" fill-opacity="1" /><path clip-path="url(#clip280)" d="M 0 0 M76.6495 439.359 Q73.5013 439.359 71.6495 441.512 Q69.8208 443.665 69.8208 447.415 Q69.8208 451.142 71.6495 453.318 Q73.5013 455.471 76.6495 455.471 Q79.7976 455.471 81.6263 453.318 Q83.4781 451.142 83.4781 447.415 Q83.4781 443.665 81.6263 441.512 Q79.7976 439.359 76.6495 439.359 M85.9318 424.707 L85.9318 428.966 Q84.1726 428.133 82.367 427.693 Q80.5846 427.253 78.8254 427.253 Q74.1958 427.253 71.7421 430.378 Q69.3115 433.503 68.9643 439.822 Q70.33 437.809 72.3902 436.744 Q74.4504 435.656 76.9272 435.656 Q82.1355 435.656 85.1448 438.827 Q88.1772 441.975 88.1772 447.415 Q88.1772 452.739 85.029 455.957 Q81.8809 459.174 76.6495 459.174 Q70.6541 459.174 67.4828 454.591 Q64.3116 449.984 64.3116 441.258 Q64.3116 433.063 68.2004 428.202 Q72.0893 423.318 78.6402 423.318 Q80.3994 423.318 82.1818 423.665 Q83.9874 424.012 85.9318 424.707 Z" fill="#000000" fill-rule="evenodd" fill-opacity="1" /><path clip-path="url(#clip280)" d="M 0 0 M103.247 427.022 Q99.6354 427.022 97.8068 430.586 Q96.0012 434.128 96.0012 441.258 Q96.0012 448.364 97.8068 451.929 Q99.6354 455.471 103.247 455.471 Q106.881 455.471 108.686 451.929 Q110.515 448.364 110.515 441.258 Q110.515 434.128 108.686 430.586 Q106.881 427.022 103.247 427.022 M103.247 423.318 Q109.057 423.318 112.112 427.924 Q115.191 432.508 115.191 441.258 Q115.191 449.984 112.112 454.591 Q109.057 459.174 103.247 459.174 Q97.4364 459.174 94.3577 454.591 Q91.3022 449.984 91.3022 441.258 Q91.3022 432.508 94.3577 427.924 Q97.4364 423.318 103.247 423.318 Z" fill="#000000" fill-rule="evenodd" fill-opacity="1" /><path clip-path="url(#clip280)" d="M 0 0 M130.26 427.022 Q126.649 427.022 124.82 430.586 Q123.015 434.128 123.015 441.258 Q123.015 448.364 124.82 451.929 Q126.649 455.471 130.26 455.471 Q133.895 455.471 135.7 451.929 Q137.529 448.364 137.529 441.258 Q137.529 434.128 135.7 430.586 Q133.895 427.022 130.26 427.022 M130.26 423.318 Q136.07 423.318 139.126 427.924 Q142.205 432.508 142.205 441.258 Q142.205 449.984 139.126 454.591 Q136.07 459.174 130.26 459.174 Q124.45 459.174 121.371 454.591 Q118.316 449.984 118.316 441.258 Q118.316 432.508 121.371 427.924 Q124.45 423.318 130.26 423.318 Z" fill="#000000" fill-rule="evenodd" fill-opacity="1" /><path clip-path="url(#clip280)" d="M 0 0 M76.3254 107.26 Q72.9921 107.26 71.0708 109.042 Q69.1726 110.825 69.1726 113.95 Q69.1726 117.075 71.0708 118.857 Q72.9921 120.64 76.3254 120.64 Q79.6587 120.64 81.58 118.857 Q83.5013 117.052 83.5013 113.95 Q83.5013 110.825 81.58 109.042 Q79.6819 107.26 76.3254 107.26 M71.6495 105.269 Q68.6402 104.529 66.9504 102.468 Q65.2838 100.408 65.2838 97.4453 Q65.2838 93.3018 68.2236 90.8944 Q71.1865 88.487 76.3254 88.487 Q81.4874 88.487 84.4272 90.8944 Q87.367 93.3018 87.367 97.4453 Q87.367 100.408 85.6772 102.468 Q84.0105 104.529 81.0244 105.269 Q84.404 106.056 86.279 108.348 Q88.1772 110.64 88.1772 113.95 Q88.1772 118.973 85.0985 121.658 Q82.0429 124.343 76.3254 124.343 Q70.6078 124.343 67.5291 121.658 Q64.4736 118.973 64.4736 113.95 Q64.4736 110.64 66.3717 108.348 Q68.2699 106.056 71.6495 105.269 M69.9365 97.8851 Q69.9365 100.57 71.6032 102.075 Q73.293 103.579 76.3254 103.579 Q79.3346 103.579 81.0244 102.075 Q82.7374 100.57 82.7374 97.8851 Q82.7374 95.1999 81.0244 93.6953 Q79.3346 92.1907 76.3254 92.1907 Q73.293 92.1907 71.6032 93.6953 Q69.9365 95.1999 69.9365 97.8851 Z" fill="#000000" fill-rule="evenodd" fill-opacity="1" /><path clip-path="url(#clip280)" d="M 0 0 M103.247 92.1907 Q99.6354 92.1907 97.8068 95.7555 Q96.0012 99.2971 96.0012 106.427 Q96.0012 113.533 97.8068 117.098 Q99.6354 120.64 103.247 120.64 Q106.881 120.64 108.686 117.098 Q110.515 113.533 110.515 106.427 Q110.515 99.2971 108.686 95.7555 Q106.881 92.1907 103.247 92.1907 M103.247 88.487 Q109.057 88.487 112.112 93.0934 Q115.191 97.6767 115.191 106.427 Q115.191 115.154 112.112 119.76 Q109.057 124.343 103.247 124.343 Q97.4364 124.343 94.3577 119.76 Q91.3022 115.154 91.3022 106.427 Q91.3022 97.6767 94.3577 93.0934 Q97.4364 88.487 103.247 88.487 Z" fill="#000000" fill-rule="evenodd" fill-opacity="1" /><path clip-path="url(#clip280)" d="M 0 0 M130.26 92.1907 Q126.649 92.1907 124.82 95.7555 Q123.015 99.2971 123.015 106.427 Q123.015 113.533 124.82 117.098 Q126.649 120.64 130.26 120.64 Q133.895 120.64 135.7 117.098 Q137.529 113.533 137.529 106.427 Q137.529 99.2971 135.7 95.7555 Q133.895 92.1907 130.26 92.1907 M130.26 88.487 Q136.07 88.487 139.126 93.0934 Q142.205 97.6767 142.205 106.427 Q142.205 115.154 139.126 119.76 Q136.07 124.343 130.26 124.343 Q124.45 124.343 121.371 119.76 Q118.316 115.154 118.316 106.427 Q118.316 97.6767 121.371 93.0934 Q124.45 88.487 130.26 88.487 Z" fill="#000000" fill-rule="evenodd" fill-opacity="1" /><path clip-path="url(#clip282)" d="
M286.469 1444.04 L286.469 1445.72 L311.418 1445.72 L311.418 1444.04 L286.469 1444.04 L286.469 1444.04  Z
  " fill="#009af9" fill-rule="evenodd" fill-opacity="1"/>
<polyline clip-path="url(#clip282)" style="stroke:#000000; stroke-width:4; stroke-opacity:1; fill:none" points="
  286.469,1444.04 286.469,1445.72 311.418,1445.72 311.418,1444.04 286.469,1444.04 
  "/>
<path clip-path="url(#clip282)" d="
M311.418 1445.72 L311.418 1445.72 L336.367 1445.72 L336.367 1445.72 L311.418 1445.72 L311.418 1445.72  Z
  " fill="#009af9" fill-rule="evenodd" fill-opacity="1"/>
<polyline clip-path="url(#clip282)" style="stroke:#000000; stroke-width:4; stroke-opacity:1; fill:none" points="
  311.418,1445.72 311.418,1445.72 336.367,1445.72 311.418,1445.72 
  "/>
<path clip-path="url(#clip282)" d="
M336.367 1445.72 L336.367 1445.72 L361.316 1445.72 L361.316 1445.72 L336.367 1445.72 L336.367 1445.72  Z
  " fill="#009af9" fill-rule="evenodd" fill-opacity="1"/>
<polyline clip-path="url(#clip282)" style="stroke:#000000; stroke-width:4; stroke-opacity:1; fill:none" points="
  336.367,1445.72 336.367,1445.72 361.316,1445.72 336.367,1445.72 
  "/>
<path clip-path="url(#clip282)" d="
M361.316 1444.04 L361.316 1445.72 L386.265 1445.72 L386.265 1444.04 L361.316 1444.04 L361.316 1444.04  Z
  " fill="#009af9" fill-rule="evenodd" fill-opacity="1"/>
<polyline clip-path="url(#clip282)" style="stroke:#000000; stroke-width:4; stroke-opacity:1; fill:none" points="
  361.316,1444.04 361.316,1445.72 386.265,1445.72 386.265,1444.04 361.316,1444.04 
  "/>
<path clip-path="url(#clip282)" d="
M386.265 1444.04 L386.265 1445.72 L411.214 1445.72 L411.214 1444.04 L386.265 1444.04 L386.265 1444.04  Z
  " fill="#009af9" fill-rule="evenodd" fill-opacity="1"/>
<polyline clip-path="url(#clip282)" style="stroke:#000000; stroke-width:4; stroke-opacity:1; fill:none" points="
  386.265,1444.04 386.265,1445.72 411.214,1445.72 411.214,1444.04 386.265,1444.04 
  "/>
<path clip-path="url(#clip282)" d="
M411.214 1440.69 L411.214 1445.72 L436.163 1445.72 L436.163 1440.69 L411.214 1440.69 L411.214 1440.69  Z
  " fill="#009af9" fill-rule="evenodd" fill-opacity="1"/>
<polyline clip-path="url(#clip282)" style="stroke:#000000; stroke-width:4; stroke-opacity:1; fill:none" points="
  411.214,1440.69 411.214,1445.72 436.163,1445.72 436.163,1440.69 411.214,1440.69 
  "/>
<path clip-path="url(#clip282)" d="
M436.163 1440.69 L436.163 1445.72 L461.112 1445.72 L461.112 1440.69 L436.163 1440.69 L436.163 1440.69  Z
  " fill="#009af9" fill-rule="evenodd" fill-opacity="1"/>
<polyline clip-path="url(#clip282)" style="stroke:#000000; stroke-width:4; stroke-opacity:1; fill:none" points="
  436.163,1440.69 436.163,1445.72 461.112,1445.72 461.112,1440.69 436.163,1440.69 
  "/>
<path clip-path="url(#clip282)" d="
M461.112 1444.04 L461.112 1445.72 L486.061 1445.72 L486.061 1444.04 L461.112 1444.04 L461.112 1444.04  Z
  " fill="#009af9" fill-rule="evenodd" fill-opacity="1"/>
<polyline clip-path="url(#clip282)" style="stroke:#000000; stroke-width:4; stroke-opacity:1; fill:none" points="
  461.112,1444.04 461.112,1445.72 486.061,1445.72 486.061,1444.04 461.112,1444.04 
  "/>
<path clip-path="url(#clip282)" d="
M486.061 1442.37 L486.061 1445.72 L511.01 1445.72 L511.01 1442.37 L486.061 1442.37 L486.061 1442.37  Z
  " fill="#009af9" fill-rule="evenodd" fill-opacity="1"/>
<polyline clip-path="url(#clip282)" style="stroke:#000000; stroke-width:4; stroke-opacity:1; fill:none" points="
  486.061,1442.37 486.061,1445.72 511.01,1445.72 511.01,1442.37 486.061,1442.37 
  "/>
<path clip-path="url(#clip282)" d="
M511.01 1437.34 L511.01 1445.72 L535.959 1445.72 L535.959 1437.34 L511.01 1437.34 L511.01 1437.34  Z
  " fill="#009af9" fill-rule="evenodd" fill-opacity="1"/>
<polyline clip-path="url(#clip282)" style="stroke:#000000; stroke-width:4; stroke-opacity:1; fill:none" points="
  511.01,1437.34 511.01,1445.72 535.959,1445.72 535.959,1437.34 511.01,1437.34 
  "/>
<path clip-path="url(#clip282)" d="
M535.959 1434 L535.959 1445.72 L560.908 1445.72 L560.908 1434 L535.959 1434 L535.959 1434  Z
  " fill="#009af9" fill-rule="evenodd" fill-opacity="1"/>
<polyline clip-path="url(#clip282)" style="stroke:#000000; stroke-width:4; stroke-opacity:1; fill:none" points="
  535.959,1434 535.959,1445.72 560.908,1445.72 560.908,1434 535.959,1434 
  "/>
<path clip-path="url(#clip282)" d="
M560.908 1434 L560.908 1445.72 L585.857 1445.72 L585.857 1434 L560.908 1434 L560.908 1434  Z
  " fill="#009af9" fill-rule="evenodd" fill-opacity="1"/>
<polyline clip-path="url(#clip282)" style="stroke:#000000; stroke-width:4; stroke-opacity:1; fill:none" points="
  560.908,1434 560.908,1445.72 585.857,1445.72 585.857,1434 560.908,1434 
  "/>
<path clip-path="url(#clip282)" d="
M585.857 1420.6 L585.857 1445.72 L610.806 1445.72 L610.806 1420.6 L585.857 1420.6 L585.857 1420.6  Z
  " fill="#009af9" fill-rule="evenodd" fill-opacity="1"/>
<polyline clip-path="url(#clip282)" style="stroke:#000000; stroke-width:4; stroke-opacity:1; fill:none" points="
  585.857,1420.6 585.857,1445.72 610.806,1445.72 610.806,1420.6 585.857,1420.6 
  "/>
<path clip-path="url(#clip282)" d="
M610.806 1422.28 L610.806 1445.72 L635.755 1445.72 L635.755 1422.28 L610.806 1422.28 L610.806 1422.28  Z
  " fill="#009af9" fill-rule="evenodd" fill-opacity="1"/>
<polyline clip-path="url(#clip282)" style="stroke:#000000; stroke-width:4; stroke-opacity:1; fill:none" points="
  610.806,1422.28 610.806,1445.72 635.755,1445.72 635.755,1422.28 610.806,1422.28 
  "/>
<path clip-path="url(#clip282)" d="
M635.755 1415.58 L635.755 1445.72 L660.704 1445.72 L660.704 1415.58 L635.755 1415.58 L635.755 1415.58  Z
  " fill="#009af9" fill-rule="evenodd" fill-opacity="1"/>
<polyline clip-path="url(#clip282)" style="stroke:#000000; stroke-width:4; stroke-opacity:1; fill:none" points="
  635.755,1415.58 635.755,1445.72 660.704,1445.72 660.704,1415.58 635.755,1415.58 
  "/>
<path clip-path="url(#clip282)" d="
M660.704 1415.58 L660.704 1445.72 L685.653 1445.72 L685.653 1415.58 L660.704 1415.58 L660.704 1415.58  Z
  " fill="#009af9" fill-rule="evenodd" fill-opacity="1"/>
<polyline clip-path="url(#clip282)" style="stroke:#000000; stroke-width:4; stroke-opacity:1; fill:none" points="
  660.704,1415.58 660.704,1445.72 685.653,1445.72 685.653,1415.58 660.704,1415.58 
  "/>
<path clip-path="url(#clip282)" d="
M685.653 1393.82 L685.653 1445.72 L710.602 1445.72 L710.602 1393.82 L685.653 1393.82 L685.653 1393.82  Z
  " fill="#009af9" fill-rule="evenodd" fill-opacity="1"/>
<polyline clip-path="url(#clip282)" style="stroke:#000000; stroke-width:4; stroke-opacity:1; fill:none" points="
  685.653,1393.82 685.653,1445.72 710.602,1445.72 710.602,1393.82 685.653,1393.82 
  "/>
<path clip-path="url(#clip282)" d="
M710.602 1382.1 L710.602 1445.72 L735.551 1445.72 L735.551 1382.1 L710.602 1382.1 L710.602 1382.1  Z
  " fill="#009af9" fill-rule="evenodd" fill-opacity="1"/>
<polyline clip-path="url(#clip282)" style="stroke:#000000; stroke-width:4; stroke-opacity:1; fill:none" points="
  710.602,1382.1 710.602,1445.72 735.551,1445.72 735.551,1382.1 710.602,1382.1 
  "/>
<path clip-path="url(#clip282)" d="
M735.551 1390.47 L735.551 1445.72 L760.5 1445.72 L760.5 1390.47 L735.551 1390.47 L735.551 1390.47  Z
  " fill="#009af9" fill-rule="evenodd" fill-opacity="1"/>
<polyline clip-path="url(#clip282)" style="stroke:#000000; stroke-width:4; stroke-opacity:1; fill:none" points="
  735.551,1390.47 735.551,1445.72 760.5,1445.72 760.5,1390.47 735.551,1390.47 
  "/>
<path clip-path="url(#clip282)" d="
M760.5 1380.42 L760.5 1445.72 L785.449 1445.72 L785.449 1380.42 L760.5 1380.42 L760.5 1380.42  Z
  " fill="#009af9" fill-rule="evenodd" fill-opacity="1"/>
<polyline clip-path="url(#clip282)" style="stroke:#000000; stroke-width:4; stroke-opacity:1; fill:none" points="
  760.5,1380.42 760.5,1445.72 785.449,1445.72 785.449,1380.42 760.5,1380.42 
  "/>
<path clip-path="url(#clip282)" d="
M785.449 1367.03 L785.449 1445.72 L810.398 1445.72 L810.398 1367.03 L785.449 1367.03 L785.449 1367.03  Z
  " fill="#009af9" fill-rule="evenodd" fill-opacity="1"/>
<polyline clip-path="url(#clip282)" style="stroke:#000000; stroke-width:4; stroke-opacity:1; fill:none" points="
  785.449,1367.03 785.449,1445.72 810.398,1445.72 810.398,1367.03 785.449,1367.03 
  "/>
<path clip-path="url(#clip282)" d="
M810.398 1356.99 L810.398 1445.72 L835.347 1445.72 L835.347 1356.99 L810.398 1356.99 L810.398 1356.99  Z
  " fill="#009af9" fill-rule="evenodd" fill-opacity="1"/>
<polyline clip-path="url(#clip282)" style="stroke:#000000; stroke-width:4; stroke-opacity:1; fill:none" points="
  810.398,1356.99 810.398,1445.72 835.347,1445.72 835.347,1356.99 810.398,1356.99 
  "/>
<path clip-path="url(#clip282)" d="
M835.347 1360.33 L835.347 1445.72 L860.296 1445.72 L860.296 1360.33 L835.347 1360.33 L835.347 1360.33  Z
  " fill="#009af9" fill-rule="evenodd" fill-opacity="1"/>
<polyline clip-path="url(#clip282)" style="stroke:#000000; stroke-width:4; stroke-opacity:1; fill:none" points="
  835.347,1360.33 835.347,1445.72 860.296,1445.72 860.296,1360.33 835.347,1360.33 
  "/>
<path clip-path="url(#clip282)" d="
M860.296 1335.22 L860.296 1445.72 L885.245 1445.72 L885.245 1335.22 L860.296 1335.22 L860.296 1335.22  Z
  " fill="#009af9" fill-rule="evenodd" fill-opacity="1"/>
<polyline clip-path="url(#clip282)" style="stroke:#000000; stroke-width:4; stroke-opacity:1; fill:none" points="
  860.296,1335.22 860.296,1445.72 885.245,1445.72 885.245,1335.22 860.296,1335.22 
  "/>
<path clip-path="url(#clip282)" d="
M885.245 1323.5 L885.245 1445.72 L910.194 1445.72 L910.194 1323.5 L885.245 1323.5 L885.245 1323.5  Z
  " fill="#009af9" fill-rule="evenodd" fill-opacity="1"/>
<polyline clip-path="url(#clip282)" style="stroke:#000000; stroke-width:4; stroke-opacity:1; fill:none" points="
  885.245,1323.5 885.245,1445.72 910.194,1445.72 910.194,1323.5 885.245,1323.5 
  "/>
<path clip-path="url(#clip282)" d="
M910.194 1315.13 L910.194 1445.72 L935.143 1445.72 L935.143 1315.13 L910.194 1315.13 L910.194 1315.13  Z
  " fill="#009af9" fill-rule="evenodd" fill-opacity="1"/>
<polyline clip-path="url(#clip282)" style="stroke:#000000; stroke-width:4; stroke-opacity:1; fill:none" points="
  910.194,1315.13 910.194,1445.72 935.143,1445.72 935.143,1315.13 910.194,1315.13 
  "/>
<path clip-path="url(#clip282)" d="
M935.143 1288.35 L935.143 1445.72 L960.092 1445.72 L960.092 1288.35 L935.143 1288.35 L935.143 1288.35  Z
  " fill="#009af9" fill-rule="evenodd" fill-opacity="1"/>
<polyline clip-path="url(#clip282)" style="stroke:#000000; stroke-width:4; stroke-opacity:1; fill:none" points="
  935.143,1288.35 935.143,1445.72 960.092,1445.72 960.092,1288.35 935.143,1288.35 
  "/>
<path clip-path="url(#clip282)" d="
M960.092 1261.56 L960.092 1445.72 L985.041 1445.72 L985.041 1261.56 L960.092 1261.56 L960.092 1261.56  Z
  " fill="#009af9" fill-rule="evenodd" fill-opacity="1"/>
<polyline clip-path="url(#clip282)" style="stroke:#000000; stroke-width:4; stroke-opacity:1; fill:none" points="
  960.092,1261.56 960.092,1445.72 985.041,1445.72 985.041,1261.56 960.092,1261.56 
  "/>
<path clip-path="url(#clip282)" d="
M985.041 1248.17 L985.041 1445.72 L1009.99 1445.72 L1009.99 1248.17 L985.041 1248.17 L985.041 1248.17  Z
  " fill="#009af9" fill-rule="evenodd" fill-opacity="1"/>
<polyline clip-path="url(#clip282)" style="stroke:#000000; stroke-width:4; stroke-opacity:1; fill:none" points="
  985.041,1248.17 985.041,1445.72 1009.99,1445.72 1009.99,1248.17 985.041,1248.17 
  "/>
<path clip-path="url(#clip282)" d="
M1009.99 1253.19 L1009.99 1445.72 L1034.94 1445.72 L1034.94 1253.19 L1009.99 1253.19 L1009.99 1253.19  Z
  " fill="#009af9" fill-rule="evenodd" fill-opacity="1"/>
<polyline clip-path="url(#clip282)" style="stroke:#000000; stroke-width:4; stroke-opacity:1; fill:none" points="
  1009.99,1253.19 1009.99,1445.72 1034.94,1445.72 1034.94,1253.19 1009.99,1253.19 
  "/>
<path clip-path="url(#clip282)" d="
M1034.94 1296.72 L1034.94 1445.72 L1059.89 1445.72 L1059.89 1296.72 L1034.94 1296.72 L1034.94 1296.72  Z
  " fill="#009af9" fill-rule="evenodd" fill-opacity="1"/>
<polyline clip-path="url(#clip282)" style="stroke:#000000; stroke-width:4; stroke-opacity:1; fill:none" points="
  1034.94,1296.72 1034.94,1445.72 1059.89,1445.72 1059.89,1296.72 1034.94,1296.72 
  "/>
<path clip-path="url(#clip282)" d="
M1059.89 1236.45 L1059.89 1445.72 L1084.84 1445.72 L1084.84 1236.45 L1059.89 1236.45 L1059.89 1236.45  Z
  " fill="#009af9" fill-rule="evenodd" fill-opacity="1"/>
<polyline clip-path="url(#clip282)" style="stroke:#000000; stroke-width:4; stroke-opacity:1; fill:none" points="
  1059.89,1236.45 1059.89,1445.72 1084.84,1445.72 1084.84,1236.45 1059.89,1236.45 
  "/>
<path clip-path="url(#clip282)" d="
M1084.84 1268.26 L1084.84 1445.72 L1109.79 1445.72 L1109.79 1268.26 L1084.84 1268.26 L1084.84 1268.26  Z
  " fill="#009af9" fill-rule="evenodd" fill-opacity="1"/>
<polyline clip-path="url(#clip282)" style="stroke:#000000; stroke-width:4; stroke-opacity:1; fill:none" points="
  1084.84,1268.26 1084.84,1445.72 1109.79,1445.72 1109.79,1268.26 1084.84,1268.26 
  "/>
<path clip-path="url(#clip282)" d="
M1109.79 1254.86 L1109.79 1445.72 L1134.74 1445.72 L1134.74 1254.86 L1109.79 1254.86 L1109.79 1254.86  Z
  " fill="#009af9" fill-rule="evenodd" fill-opacity="1"/>
<polyline clip-path="url(#clip282)" style="stroke:#000000; stroke-width:4; stroke-opacity:1; fill:none" points="
  1109.79,1254.86 1109.79,1445.72 1134.74,1445.72 1134.74,1254.86 1109.79,1254.86 
  "/>
<path clip-path="url(#clip282)" d="
M1134.74 1249.84 L1134.74 1445.72 L1159.68 1445.72 L1159.68 1249.84 L1134.74 1249.84 L1134.74 1249.84  Z
  " fill="#009af9" fill-rule="evenodd" fill-opacity="1"/>
<polyline clip-path="url(#clip282)" style="stroke:#000000; stroke-width:4; stroke-opacity:1; fill:none" points="
  1134.74,1249.84 1134.74,1445.72 1159.68,1445.72 1159.68,1249.84 1134.74,1249.84 
  "/>
<path clip-path="url(#clip282)" d="
M1159.68 1273.28 L1159.68 1445.72 L1184.63 1445.72 L1184.63 1273.28 L1159.68 1273.28 L1159.68 1273.28  Z
  " fill="#009af9" fill-rule="evenodd" fill-opacity="1"/>
<polyline clip-path="url(#clip282)" style="stroke:#000000; stroke-width:4; stroke-opacity:1; fill:none" points="
  1159.68,1273.28 1159.68,1445.72 1184.63,1445.72 1184.63,1273.28 1159.68,1273.28 
  "/>
<path clip-path="url(#clip282)" d="
M1184.63 1192.92 L1184.63 1445.72 L1209.58 1445.72 L1209.58 1192.92 L1184.63 1192.92 L1184.63 1192.92  Z
  " fill="#009af9" fill-rule="evenodd" fill-opacity="1"/>
<polyline clip-path="url(#clip282)" style="stroke:#000000; stroke-width:4; stroke-opacity:1; fill:none" points="
  1184.63,1192.92 1184.63,1445.72 1209.58,1445.72 1209.58,1192.92 1184.63,1192.92 
  "/>
<path clip-path="url(#clip282)" d="
M1209.58 792.795 L1209.58 1445.72 L1234.53 1445.72 L1234.53 792.795 L1209.58 792.795 L1209.58 792.795  Z
  " fill="#009af9" fill-rule="evenodd" fill-opacity="1"/>
<polyline clip-path="url(#clip282)" style="stroke:#000000; stroke-width:4; stroke-opacity:1; fill:none" points="
  1209.58,792.795 1209.58,1445.72 1234.53,1445.72 1234.53,792.795 1209.58,792.795 
  "/>
<path clip-path="url(#clip282)" d="
M1234.53 87.9763 L1234.53 1445.72 L1259.48 1445.72 L1259.48 87.9763 L1234.53 87.9763 L1234.53 87.9763  Z
  " fill="#009af9" fill-rule="evenodd" fill-opacity="1"/>
<polyline clip-path="url(#clip282)" style="stroke:#000000; stroke-width:4; stroke-opacity:1; fill:none" points="
  1234.53,87.9763 1234.53,1445.72 1259.48,1445.72 1259.48,87.9763 1234.53,87.9763 
  "/>
<path clip-path="url(#clip282)" d="
M1259.48 159.965 L1259.48 1445.72 L1284.43 1445.72 L1284.43 159.965 L1259.48 159.965 L1259.48 159.965  Z
  " fill="#009af9" fill-rule="evenodd" fill-opacity="1"/>
<polyline clip-path="url(#clip282)" style="stroke:#000000; stroke-width:4; stroke-opacity:1; fill:none" points="
  1259.48,159.965 1259.48,1445.72 1284.43,1445.72 1284.43,159.965 1259.48,159.965 
  "/>
<path clip-path="url(#clip282)" d="
M1284.43 829.627 L1284.43 1445.72 L1309.38 1445.72 L1309.38 829.627 L1284.43 829.627 L1284.43 829.627  Z
  " fill="#009af9" fill-rule="evenodd" fill-opacity="1"/>
<polyline clip-path="url(#clip282)" style="stroke:#000000; stroke-width:4; stroke-opacity:1; fill:none" points="
  1284.43,829.627 1284.43,1445.72 1309.38,1445.72 1309.38,829.627 1284.43,829.627 
  "/>
<path clip-path="url(#clip282)" d="
M1309.38 1214.68 L1309.38 1445.72 L1334.33 1445.72 L1334.33 1214.68 L1309.38 1214.68 L1309.38 1214.68  Z
  " fill="#009af9" fill-rule="evenodd" fill-opacity="1"/>
<polyline clip-path="url(#clip282)" style="stroke:#000000; stroke-width:4; stroke-opacity:1; fill:none" points="
  1309.38,1214.68 1309.38,1445.72 1334.33,1445.72 1334.33,1214.68 1309.38,1214.68 
  "/>
<path clip-path="url(#clip282)" d="
M1334.33 1316.81 L1334.33 1445.72 L1359.28 1445.72 L1359.28 1316.81 L1334.33 1316.81 L1334.33 1316.81  Z
  " fill="#009af9" fill-rule="evenodd" fill-opacity="1"/>
<polyline clip-path="url(#clip282)" style="stroke:#000000; stroke-width:4; stroke-opacity:1; fill:none" points="
  1334.33,1316.81 1334.33,1445.72 1359.28,1445.72 1359.28,1316.81 1334.33,1316.81 
  "/>
<path clip-path="url(#clip282)" d="
M1359.28 1305.09 L1359.28 1445.72 L1384.23 1445.72 L1384.23 1305.09 L1359.28 1305.09 L1359.28 1305.09  Z
  " fill="#009af9" fill-rule="evenodd" fill-opacity="1"/>
<polyline clip-path="url(#clip282)" style="stroke:#000000; stroke-width:4; stroke-opacity:1; fill:none" points="
  1359.28,1305.09 1359.28,1445.72 1384.23,1445.72 1384.23,1305.09 1359.28,1305.09 
  "/>
<path clip-path="url(#clip282)" d="
M1384.23 1300.06 L1384.23 1445.72 L1409.17 1445.72 L1409.17 1300.06 L1384.23 1300.06 L1384.23 1300.06  Z
  " fill="#009af9" fill-rule="evenodd" fill-opacity="1"/>
<polyline clip-path="url(#clip282)" style="stroke:#000000; stroke-width:4; stroke-opacity:1; fill:none" points="
  1384.23,1300.06 1384.23,1445.72 1409.17,1445.72 1409.17,1300.06 1384.23,1300.06 
  "/>
<path clip-path="url(#clip282)" d="
M1409.17 1316.81 L1409.17 1445.72 L1434.12 1445.72 L1434.12 1316.81 L1409.17 1316.81 L1409.17 1316.81  Z
  " fill="#009af9" fill-rule="evenodd" fill-opacity="1"/>
<polyline clip-path="url(#clip282)" style="stroke:#000000; stroke-width:4; stroke-opacity:1; fill:none" points="
  1409.17,1316.81 1409.17,1445.72 1434.12,1445.72 1434.12,1316.81 1409.17,1316.81 
  "/>
<path clip-path="url(#clip282)" d="
M1434.12 1345.27 L1434.12 1445.72 L1459.07 1445.72 L1459.07 1345.27 L1434.12 1345.27 L1434.12 1345.27  Z
  " fill="#009af9" fill-rule="evenodd" fill-opacity="1"/>
<polyline clip-path="url(#clip282)" style="stroke:#000000; stroke-width:4; stroke-opacity:1; fill:none" points="
  1434.12,1345.27 1434.12,1445.72 1459.07,1445.72 1459.07,1345.27 1434.12,1345.27 
  "/>
<path clip-path="url(#clip282)" d="
M1459.07 1345.27 L1459.07 1445.72 L1484.02 1445.72 L1484.02 1345.27 L1459.07 1345.27 L1459.07 1345.27  Z
  " fill="#009af9" fill-rule="evenodd" fill-opacity="1"/>
<polyline clip-path="url(#clip282)" style="stroke:#000000; stroke-width:4; stroke-opacity:1; fill:none" points="
  1459.07,1345.27 1459.07,1445.72 1484.02,1445.72 1484.02,1345.27 1459.07,1345.27 
  "/>
<path clip-path="url(#clip282)" d="
M1484.02 1402.19 L1484.02 1445.72 L1508.97 1445.72 L1508.97 1402.19 L1484.02 1402.19 L1484.02 1402.19  Z
  " fill="#009af9" fill-rule="evenodd" fill-opacity="1"/>
<polyline clip-path="url(#clip282)" style="stroke:#000000; stroke-width:4; stroke-opacity:1; fill:none" points="
  1484.02,1402.19 1484.02,1445.72 1508.97,1445.72 1508.97,1402.19 1484.02,1402.19 
  "/>
<path clip-path="url(#clip282)" d="
M1508.97 1383.77 L1508.97 1445.72 L1533.92 1445.72 L1533.92 1383.77 L1508.97 1383.77 L1508.97 1383.77  Z
  " fill="#009af9" fill-rule="evenodd" fill-opacity="1"/>
<polyline clip-path="url(#clip282)" style="stroke:#000000; stroke-width:4; stroke-opacity:1; fill:none" points="
  1508.97,1383.77 1508.97,1445.72 1533.92,1445.72 1533.92,1383.77 1508.97,1383.77 
  "/>
<path clip-path="url(#clip282)" d="
M1533.92 1387.12 L1533.92 1445.72 L1558.87 1445.72 L1558.87 1387.12 L1533.92 1387.12 L1533.92 1387.12  Z
  " fill="#009af9" fill-rule="evenodd" fill-opacity="1"/>
<polyline clip-path="url(#clip282)" style="stroke:#000000; stroke-width:4; stroke-opacity:1; fill:none" points="
  1533.92,1387.12 1533.92,1445.72 1558.87,1445.72 1558.87,1387.12 1533.92,1387.12 
  "/>
<path clip-path="url(#clip282)" d="
M1558.87 1403.86 L1558.87 1445.72 L1583.82 1445.72 L1583.82 1403.86 L1558.87 1403.86 L1558.87 1403.86  Z
  " fill="#009af9" fill-rule="evenodd" fill-opacity="1"/>
<polyline clip-path="url(#clip282)" style="stroke:#000000; stroke-width:4; stroke-opacity:1; fill:none" points="
  1558.87,1403.86 1558.87,1445.72 1583.82,1445.72 1583.82,1403.86 1558.87,1403.86 
  "/>
<path clip-path="url(#clip282)" d="
M1583.82 1410.56 L1583.82 1445.72 L1608.77 1445.72 L1608.77 1410.56 L1583.82 1410.56 L1583.82 1410.56  Z
  " fill="#009af9" fill-rule="evenodd" fill-opacity="1"/>
<polyline clip-path="url(#clip282)" style="stroke:#000000; stroke-width:4; stroke-opacity:1; fill:none" points="
  1583.82,1410.56 1583.82,1445.72 1608.77,1445.72 1608.77,1410.56 1583.82,1410.56 
  "/>
<path clip-path="url(#clip282)" d="
M1608.77 1415.58 L1608.77 1445.72 L1633.72 1445.72 L1633.72 1415.58 L1608.77 1415.58 L1608.77 1415.58  Z
  " fill="#009af9" fill-rule="evenodd" fill-opacity="1"/>
<polyline clip-path="url(#clip282)" style="stroke:#000000; stroke-width:4; stroke-opacity:1; fill:none" points="
  1608.77,1415.58 1608.77,1445.72 1633.72,1445.72 1633.72,1415.58 1608.77,1415.58 
  "/>
<path clip-path="url(#clip282)" d="
M1633.72 1418.93 L1633.72 1445.72 L1658.66 1445.72 L1658.66 1418.93 L1633.72 1418.93 L1633.72 1418.93  Z
  " fill="#009af9" fill-rule="evenodd" fill-opacity="1"/>
<polyline clip-path="url(#clip282)" style="stroke:#000000; stroke-width:4; stroke-opacity:1; fill:none" points="
  1633.72,1418.93 1633.72,1445.72 1658.66,1445.72 1658.66,1418.93 1633.72,1418.93 
  "/>
<path clip-path="url(#clip282)" d="
M1658.66 1427.3 L1658.66 1445.72 L1683.61 1445.72 L1683.61 1427.3 L1658.66 1427.3 L1658.66 1427.3  Z
  " fill="#009af9" fill-rule="evenodd" fill-opacity="1"/>
<polyline clip-path="url(#clip282)" style="stroke:#000000; stroke-width:4; stroke-opacity:1; fill:none" points="
  1658.66,1427.3 1658.66,1445.72 1683.61,1445.72 1683.61,1427.3 1658.66,1427.3 
  "/>
<path clip-path="url(#clip282)" d="
M1683.61 1434 L1683.61 1445.72 L1708.56 1445.72 L1708.56 1434 L1683.61 1434 L1683.61 1434  Z
  " fill="#009af9" fill-rule="evenodd" fill-opacity="1"/>
<polyline clip-path="url(#clip282)" style="stroke:#000000; stroke-width:4; stroke-opacity:1; fill:none" points="
  1683.61,1434 1683.61,1445.72 1708.56,1445.72 1708.56,1434 1683.61,1434 
  "/>
<path clip-path="url(#clip282)" d="
M1708.56 1435.67 L1708.56 1445.72 L1733.51 1445.72 L1733.51 1435.67 L1708.56 1435.67 L1708.56 1435.67  Z
  " fill="#009af9" fill-rule="evenodd" fill-opacity="1"/>
<polyline clip-path="url(#clip282)" style="stroke:#000000; stroke-width:4; stroke-opacity:1; fill:none" points="
  1708.56,1435.67 1708.56,1445.72 1733.51,1445.72 1733.51,1435.67 1708.56,1435.67 
  "/>
<path clip-path="url(#clip282)" d="
M1733.51 1437.34 L1733.51 1445.72 L1758.46 1445.72 L1758.46 1437.34 L1733.51 1437.34 L1733.51 1437.34  Z
  " fill="#009af9" fill-rule="evenodd" fill-opacity="1"/>
<polyline clip-path="url(#clip282)" style="stroke:#000000; stroke-width:4; stroke-opacity:1; fill:none" points="
  1733.51,1437.34 1733.51,1445.72 1758.46,1445.72 1758.46,1437.34 1733.51,1437.34 
  "/>
<path clip-path="url(#clip282)" d="
M1758.46 1435.67 L1758.46 1445.72 L1783.41 1445.72 L1783.41 1435.67 L1758.46 1435.67 L1758.46 1435.67  Z
  " fill="#009af9" fill-rule="evenodd" fill-opacity="1"/>
<polyline clip-path="url(#clip282)" style="stroke:#000000; stroke-width:4; stroke-opacity:1; fill:none" points="
  1758.46,1435.67 1758.46,1445.72 1783.41,1445.72 1783.41,1435.67 1758.46,1435.67 
  "/>
<path clip-path="url(#clip282)" d="
M1783.41 1434 L1783.41 1445.72 L1808.36 1445.72 L1808.36 1434 L1783.41 1434 L1783.41 1434  Z
  " fill="#009af9" fill-rule="evenodd" fill-opacity="1"/>
<polyline clip-path="url(#clip282)" style="stroke:#000000; stroke-width:4; stroke-opacity:1; fill:none" points="
  1783.41,1434 1783.41,1445.72 1808.36,1445.72 1808.36,1434 1783.41,1434 
  "/>
<path clip-path="url(#clip282)" d="
M1808.36 1437.34 L1808.36 1445.72 L1833.31 1445.72 L1833.31 1437.34 L1808.36 1437.34 L1808.36 1437.34  Z
  " fill="#009af9" fill-rule="evenodd" fill-opacity="1"/>
<polyline clip-path="url(#clip282)" style="stroke:#000000; stroke-width:4; stroke-opacity:1; fill:none" points="
  1808.36,1437.34 1808.36,1445.72 1833.31,1445.72 1833.31,1437.34 1808.36,1437.34 
  "/>
<path clip-path="url(#clip282)" d="
M1833.31 1444.04 L1833.31 1445.72 L1858.26 1445.72 L1858.26 1444.04 L1833.31 1444.04 L1833.31 1444.04  Z
  " fill="#009af9" fill-rule="evenodd" fill-opacity="1"/>
<polyline clip-path="url(#clip282)" style="stroke:#000000; stroke-width:4; stroke-opacity:1; fill:none" points="
  1833.31,1444.04 1833.31,1445.72 1858.26,1445.72 1858.26,1444.04 1833.31,1444.04 
  "/>
<path clip-path="url(#clip282)" d="
M1858.26 1442.37 L1858.26 1445.72 L1883.21 1445.72 L1883.21 1442.37 L1858.26 1442.37 L1858.26 1442.37  Z
  " fill="#009af9" fill-rule="evenodd" fill-opacity="1"/>
<polyline clip-path="url(#clip282)" style="stroke:#000000; stroke-width:4; stroke-opacity:1; fill:none" points="
  1858.26,1442.37 1858.26,1445.72 1883.21,1445.72 1883.21,1442.37 1858.26,1442.37 
  "/>
<path clip-path="url(#clip282)" d="
M1883.21 1442.37 L1883.21 1445.72 L1908.15 1445.72 L1908.15 1442.37 L1883.21 1442.37 L1883.21 1442.37  Z
  " fill="#009af9" fill-rule="evenodd" fill-opacity="1"/>
<polyline clip-path="url(#clip282)" style="stroke:#000000; stroke-width:4; stroke-opacity:1; fill:none" points="
  1883.21,1442.37 1883.21,1445.72 1908.15,1445.72 1908.15,1442.37 1883.21,1442.37 
  "/>
<path clip-path="url(#clip282)" d="
M1908.15 1445.72 L1908.15 1445.72 L1933.1 1445.72 L1933.1 1445.72 L1908.15 1445.72 L1908.15 1445.72  Z
  " fill="#009af9" fill-rule="evenodd" fill-opacity="1"/>
<polyline clip-path="url(#clip282)" style="stroke:#000000; stroke-width:4; stroke-opacity:1; fill:none" points="
  1908.15,1445.72 1908.15,1445.72 1933.1,1445.72 1908.15,1445.72 
  "/>
<path clip-path="url(#clip282)" d="
M1933.1 1444.04 L1933.1 1445.72 L1958.05 1445.72 L1958.05 1444.04 L1933.1 1444.04 L1933.1 1444.04  Z
  " fill="#009af9" fill-rule="evenodd" fill-opacity="1"/>
<polyline clip-path="url(#clip282)" style="stroke:#000000; stroke-width:4; stroke-opacity:1; fill:none" points="
  1933.1,1444.04 1933.1,1445.72 1958.05,1445.72 1958.05,1444.04 1933.1,1444.04 
  "/>
<path clip-path="url(#clip282)" d="
M1958.05 1445.72 L1958.05 1445.72 L1983 1445.72 L1983 1445.72 L1958.05 1445.72 L1958.05 1445.72  Z
  " fill="#009af9" fill-rule="evenodd" fill-opacity="1"/>
<polyline clip-path="url(#clip282)" style="stroke:#000000; stroke-width:4; stroke-opacity:1; fill:none" points="
  1958.05,1445.72 1958.05,1445.72 1983,1445.72 1958.05,1445.72 
  "/>
<path clip-path="url(#clip282)" d="
M1983 1445.72 L1983 1445.72 L2007.95 1445.72 L2007.95 1445.72 L1983 1445.72 L1983 1445.72  Z
  " fill="#009af9" fill-rule="evenodd" fill-opacity="1"/>
<polyline clip-path="url(#clip282)" style="stroke:#000000; stroke-width:4; stroke-opacity:1; fill:none" points="
  1983,1445.72 1983,1445.72 2007.95,1445.72 1983,1445.72 
  "/>
<path clip-path="url(#clip282)" d="
M2007.95 1444.04 L2007.95 1445.72 L2032.9 1445.72 L2032.9 1444.04 L2007.95 1444.04 L2007.95 1444.04  Z
  " fill="#009af9" fill-rule="evenodd" fill-opacity="1"/>
<polyline clip-path="url(#clip282)" style="stroke:#000000; stroke-width:4; stroke-opacity:1; fill:none" points="
  2007.95,1444.04 2007.95,1445.72 2032.9,1445.72 2032.9,1444.04 2007.95,1444.04 
  "/>
<path clip-path="url(#clip282)" d="
M2032.9 1445.72 L2032.9 1445.72 L2057.85 1445.72 L2057.85 1445.72 L2032.9 1445.72 L2032.9 1445.72  Z
  " fill="#009af9" fill-rule="evenodd" fill-opacity="1"/>
<polyline clip-path="url(#clip282)" style="stroke:#000000; stroke-width:4; stroke-opacity:1; fill:none" points="
  2032.9,1445.72 2032.9,1445.72 2057.85,1445.72 2032.9,1445.72 
  "/>
<path clip-path="url(#clip282)" d="
M2057.85 1445.72 L2057.85 1445.72 L2082.8 1445.72 L2082.8 1445.72 L2057.85 1445.72 L2057.85 1445.72  Z
  " fill="#009af9" fill-rule="evenodd" fill-opacity="1"/>
<polyline clip-path="url(#clip282)" style="stroke:#000000; stroke-width:4; stroke-opacity:1; fill:none" points="
  2057.85,1445.72 2057.85,1445.72 2082.8,1445.72 2057.85,1445.72 
  "/>
<path clip-path="url(#clip282)" d="
M2082.8 1445.72 L2082.8 1445.72 L2107.75 1445.72 L2107.75 1445.72 L2082.8 1445.72 L2082.8 1445.72  Z
  " fill="#009af9" fill-rule="evenodd" fill-opacity="1"/>
<polyline clip-path="url(#clip282)" style="stroke:#000000; stroke-width:4; stroke-opacity:1; fill:none" points="
  2082.8,1445.72 2082.8,1445.72 2107.75,1445.72 2082.8,1445.72 
  "/>
<path clip-path="url(#clip282)" d="
M2107.75 1445.72 L2107.75 1445.72 L2132.7 1445.72 L2132.7 1445.72 L2107.75 1445.72 L2107.75 1445.72  Z
  " fill="#009af9" fill-rule="evenodd" fill-opacity="1"/>
<polyline clip-path="url(#clip282)" style="stroke:#000000; stroke-width:4; stroke-opacity:1; fill:none" points="
  2107.75,1445.72 2107.75,1445.72 2132.7,1445.72 2107.75,1445.72 
  "/>
<path clip-path="url(#clip282)" d="
M2132.7 1445.72 L2132.7 1445.72 L2157.64 1445.72 L2157.64 1445.72 L2132.7 1445.72 L2132.7 1445.72  Z
  " fill="#009af9" fill-rule="evenodd" fill-opacity="1"/>
<polyline clip-path="url(#clip282)" style="stroke:#000000; stroke-width:4; stroke-opacity:1; fill:none" points="
  2132.7,1445.72 2132.7,1445.72 2157.64,1445.72 2132.7,1445.72 
  "/>
<path clip-path="url(#clip282)" d="
M2157.64 1445.72 L2157.64 1445.72 L2182.59 1445.72 L2182.59 1445.72 L2157.64 1445.72 L2157.64 1445.72  Z
  " fill="#009af9" fill-rule="evenodd" fill-opacity="1"/>
<polyline clip-path="url(#clip282)" style="stroke:#000000; stroke-width:4; stroke-opacity:1; fill:none" points="
  2157.64,1445.72 2157.64,1445.72 2182.59,1445.72 2157.64,1445.72 
  "/>
<path clip-path="url(#clip282)" d="
M2182.59 1445.72 L2182.59 1445.72 L2207.54 1445.72 L2207.54 1445.72 L2182.59 1445.72 L2182.59 1445.72  Z
  " fill="#009af9" fill-rule="evenodd" fill-opacity="1"/>
<polyline clip-path="url(#clip282)" style="stroke:#000000; stroke-width:4; stroke-opacity:1; fill:none" points="
  2182.59,1445.72 2182.59,1445.72 2207.54,1445.72 2182.59,1445.72 
  "/>
<path clip-path="url(#clip282)" d="
M2207.54 1444.04 L2207.54 1445.72 L2232.49 1445.72 L2232.49 1444.04 L2207.54 1444.04 L2207.54 1444.04  Z
  " fill="#009af9" fill-rule="evenodd" fill-opacity="1"/>
<polyline clip-path="url(#clip282)" style="stroke:#000000; stroke-width:4; stroke-opacity:1; fill:none" points="
  2207.54,1444.04 2207.54,1445.72 2232.49,1445.72 2232.49,1444.04 2207.54,1444.04 
  "/>
<path clip-path="url(#clip280)" d="
M1989.74 251.724 L2280.76 251.724 L2280.76 130.764 L1989.74 130.764  Z
  " fill="#ffffff" fill-rule="evenodd" fill-opacity="1"/>
<polyline clip-path="url(#clip280)" style="stroke:#000000; stroke-width:4; stroke-opacity:1; fill:none" points="
  1989.74,251.724 2280.76,251.724 2280.76,130.764 1989.74,130.764 1989.74,251.724 
  "/>
<path clip-path="url(#clip280)" d="
M2013.74 215.436 L2157.74 215.436 L2157.74 167.052 L2013.74 167.052 L2013.74 215.436  Z
  " fill="#009af9" fill-rule="evenodd" fill-opacity="1"/>
<polyline clip-path="url(#clip280)" style="stroke:#000000; stroke-width:4; stroke-opacity:1; fill:none" points="
  2013.74,215.436 2157.74,215.436 2157.74,167.052 2013.74,167.052 2013.74,215.436 
  "/>
<path clip-path="url(#clip280)" d="M 0 0 M2195.58 210.931 Q2193.77 215.561 2192.06 216.973 Q2190.35 218.385 2187.48 218.385 L2184.08 218.385 L2184.08 214.82 L2186.58 214.82 Q2188.33 214.82 2189.31 213.987 Q2190.28 213.154 2191.46 210.052 L2192.22 208.107 L2181.74 182.598 L2186.25 182.598 L2194.35 202.876 L2202.46 182.598 L2206.97 182.598 L2195.58 210.931 Z" fill="#000000" fill-rule="evenodd" fill-opacity="1" /><path clip-path="url(#clip280)" d="M 0 0 M2212.85 204.589 L2220.49 204.589 L2220.49 178.223 L2212.18 179.89 L2212.18 175.631 L2220.44 173.964 L2225.12 173.964 L2225.12 204.589 L2232.76 204.589 L2232.76 208.524 L2212.85 208.524 L2212.85 204.589 Z" fill="#000000" fill-rule="evenodd" fill-opacity="1" /></svg>
