<?xml version="1.0" encoding="utf-8"?>
<svg xmlns="http://www.w3.org/2000/svg" xmlns:xlink="http://www.w3.org/1999/xlink" width="600" height="400" viewBox="0 0 2400 1600">
<defs>
  <clipPath id="clip040">
    <rect x="0" y="0" width="2400" height="1600"/>
  </clipPath>
</defs>
<path clip-path="url(#clip040)" d="
M0 1600 L2400 1600 L2400 0 L0 0  Z
  " fill="#ffffff" fill-rule="evenodd" fill-opacity="1"/>
<defs>
  <clipPath id="clip041">
    <rect x="480" y="0" width="1681" height="1600"/>
  </clipPath>
</defs>
<path clip-path="url(#clip040)" d="
M166.205 1486.45 L2352.76 1486.45 L2352.76 47.2441 L166.205 47.2441  Z
  " fill="#ffffff" fill-rule="evenodd" fill-opacity="1"/>
<defs>
  <clipPath id="clip042">
    <rect x="166" y="47" width="2188" height="1440"/>
  </clipPath>
</defs>
<polyline clip-path="url(#clip042)" style="stroke:#000000; stroke-width:2; stroke-opacity:0.1; fill:none" points="
  298.481,1486.45 298.481,47.2441 
  "/>
<polyline clip-path="url(#clip042)" style="stroke:#000000; stroke-width:2; stroke-opacity:0.1; fill:none" points="
  598.794,1486.45 598.794,47.2441 
  "/>
<polyline clip-path="url(#clip042)" style="stroke:#000000; stroke-width:2; stroke-opacity:0.1; fill:none" points="
  899.106,1486.45 899.106,47.2441 
  "/>
<polyline clip-path="url(#clip042)" style="stroke:#000000; stroke-width:2; stroke-opacity:0.1; fill:none" points="
  1199.42,1486.45 1199.42,47.2441 
  "/>
<polyline clip-path="url(#clip042)" style="stroke:#000000; stroke-width:2; stroke-opacity:0.1; fill:none" points="
  1499.73,1486.45 1499.73,47.2441 
  "/>
<polyline clip-path="url(#clip042)" style="stroke:#000000; stroke-width:2; stroke-opacity:0.1; fill:none" points="
  1800.04,1486.45 1800.04,47.2441 
  "/>
<polyline clip-path="url(#clip042)" style="stroke:#000000; stroke-width:2; stroke-opacity:0.1; fill:none" points="
  2100.35,1486.45 2100.35,47.2441 
  "/>
<polyline clip-path="url(#clip042)" style="stroke:#000000; stroke-width:2; stroke-opacity:0.1; fill:none" points="
  166.205,1445.72 2352.76,1445.72 
  "/>
<polyline clip-path="url(#clip042)" style="stroke:#000000; stroke-width:2; stroke-opacity:0.1; fill:none" points="
  166.205,1096.23 2352.76,1096.23 
  "/>
<polyline clip-path="url(#clip042)" style="stroke:#000000; stroke-width:2; stroke-opacity:0.1; fill:none" points="
  166.205,746.751 2352.76,746.751 
  "/>
<polyline clip-path="url(#clip042)" style="stroke:#000000; stroke-width:2; stroke-opacity:0.1; fill:none" points="
  166.205,397.268 2352.76,397.268 
  "/>
<polyline clip-path="url(#clip042)" style="stroke:#000000; stroke-width:2; stroke-opacity:0.1; fill:none" points="
  166.205,47.7858 2352.76,47.7858 
  "/>
<polyline clip-path="url(#clip040)" style="stroke:#000000; stroke-width:4; stroke-opacity:1; fill:none" points="
  166.205,1486.45 2352.76,1486.45 
  "/>
<polyline clip-path="url(#clip040)" style="stroke:#000000; stroke-width:4; stroke-opacity:1; fill:none" points="
  166.205,1486.45 166.205,47.2441 
  "/>
<polyline clip-path="url(#clip040)" style="stroke:#000000; stroke-width:4; stroke-opacity:1; fill:none" points="
  298.481,1486.45 298.481,1469.18 
  "/>
<polyline clip-path="url(#clip040)" style="stroke:#000000; stroke-width:4; stroke-opacity:1; fill:none" points="
  598.794,1486.45 598.794,1469.18 
  "/>
<polyline clip-path="url(#clip040)" style="stroke:#000000; stroke-width:4; stroke-opacity:1; fill:none" points="
  899.106,1486.45 899.106,1469.18 
  "/>
<polyline clip-path="url(#clip040)" style="stroke:#000000; stroke-width:4; stroke-opacity:1; fill:none" points="
  1199.42,1486.45 1199.42,1469.18 
  "/>
<polyline clip-path="url(#clip040)" style="stroke:#000000; stroke-width:4; stroke-opacity:1; fill:none" points="
  1499.73,1486.45 1499.73,1469.18 
  "/>
<polyline clip-path="url(#clip040)" style="stroke:#000000; stroke-width:4; stroke-opacity:1; fill:none" points="
  1800.04,1486.45 1800.04,1469.18 
  "/>
<polyline clip-path="url(#clip040)" style="stroke:#000000; stroke-width:4; stroke-opacity:1; fill:none" points="
  2100.35,1486.45 2100.35,1469.18 
  "/>
<polyline clip-path="url(#clip040)" style="stroke:#000000; stroke-width:4; stroke-opacity:1; fill:none" points="
  166.205,1445.72 192.443,1445.72 
  "/>
<polyline clip-path="url(#clip040)" style="stroke:#000000; stroke-width:4; stroke-opacity:1; fill:none" points="
  166.205,1096.23 192.443,1096.23 
  "/>
<polyline clip-path="url(#clip040)" style="stroke:#000000; stroke-width:4; stroke-opacity:1; fill:none" points="
  166.205,746.751 192.443,746.751 
  "/>
<polyline clip-path="url(#clip040)" style="stroke:#000000; stroke-width:4; stroke-opacity:1; fill:none" points="
  166.205,397.268 192.443,397.268 
  "/>
<polyline clip-path="url(#clip040)" style="stroke:#000000; stroke-width:4; stroke-opacity:1; fill:none" points="
  166.205,47.7858 192.443,47.7858 
  "/>
<path clip-path="url(#clip040)" d="M 0 0 M261.201 1525.04 L273.678 1525.04 L273.678 1528.83 L261.201 1528.83 L261.201 1525.04 Z" fill="#000000" fill-rule="evenodd" fill-opacity="1" /><path clip-path="url(#clip040)" d="M 0 0 M277.567 1505.36 L299.789 1505.36 L299.789 1507.35 L287.243 1539.92 L282.359 1539.92 L294.164 1509.3 L277.567 1509.3 L277.567 1505.36 Z" fill="#000000" fill-rule="evenodd" fill-opacity="1" /><path clip-path="url(#clip040)" d="M 0 0 M304.859 1534.04 L309.743 1534.04 L309.743 1539.92 L304.859 1539.92 L304.859 1534.04 Z" fill="#000000" fill-rule="evenodd" fill-opacity="1" /><path clip-path="url(#clip040)" d="M 0 0 M314.859 1505.36 L333.215 1505.36 L333.215 1509.3 L319.141 1509.3 L319.141 1517.77 Q320.159 1517.42 321.178 1517.26 Q322.197 1517.07 323.215 1517.07 Q329.002 1517.07 332.382 1520.24 Q335.761 1523.42 335.761 1528.83 Q335.761 1534.41 332.289 1537.51 Q328.817 1540.59 322.497 1540.59 Q320.322 1540.59 318.053 1540.22 Q315.808 1539.85 313.4 1539.11 L313.4 1534.41 Q315.484 1535.54 317.706 1536.1 Q319.928 1536.66 322.405 1536.66 Q326.409 1536.66 328.747 1534.55 Q331.085 1532.44 331.085 1528.83 Q331.085 1525.22 328.747 1523.11 Q326.409 1521.01 322.405 1521.01 Q320.53 1521.01 318.655 1521.42 Q316.803 1521.84 314.859 1522.72 L314.859 1505.36 Z" fill="#000000" fill-rule="evenodd" fill-opacity="1" /><path clip-path="url(#clip040)" d="M 0 0 M561.062 1525.04 L573.539 1525.04 L573.539 1528.83 L561.062 1528.83 L561.062 1525.04 Z" fill="#000000" fill-rule="evenodd" fill-opacity="1" /><path clip-path="url(#clip040)" d="M 0 0 M578.655 1505.36 L597.011 1505.36 L597.011 1509.3 L582.937 1509.3 L582.937 1517.77 Q583.956 1517.42 584.974 1517.26 Q585.993 1517.07 587.011 1517.07 Q592.798 1517.07 596.178 1520.24 Q599.557 1523.42 599.557 1528.83 Q599.557 1534.41 596.085 1537.51 Q592.613 1540.59 586.294 1540.59 Q584.118 1540.59 581.849 1540.22 Q579.604 1539.85 577.196 1539.11 L577.196 1534.41 Q579.28 1535.54 581.502 1536.1 Q583.724 1536.66 586.201 1536.66 Q590.206 1536.66 592.544 1534.55 Q594.882 1532.44 594.882 1528.83 Q594.882 1525.22 592.544 1523.11 Q590.206 1521.01 586.201 1521.01 Q584.326 1521.01 582.451 1521.42 Q580.599 1521.84 578.655 1522.72 L578.655 1505.36 Z" fill="#000000" fill-rule="evenodd" fill-opacity="1" /><path clip-path="url(#clip040)" d="M 0 0 M604.627 1534.04 L609.511 1534.04 L609.511 1539.92 L604.627 1539.92 L604.627 1534.04 Z" fill="#000000" fill-rule="evenodd" fill-opacity="1" /><path clip-path="url(#clip040)" d="M 0 0 M624.58 1508.44 Q620.969 1508.44 619.141 1512 Q617.335 1515.55 617.335 1522.67 Q617.335 1529.78 619.141 1533.35 Q620.969 1536.89 624.58 1536.89 Q628.215 1536.89 630.02 1533.35 Q631.849 1529.78 631.849 1522.67 Q631.849 1515.55 630.02 1512 Q628.215 1508.44 624.58 1508.44 M624.58 1504.73 Q630.391 1504.73 633.446 1509.34 Q636.525 1513.92 636.525 1522.67 Q636.525 1531.4 633.446 1536.01 Q630.391 1540.59 624.58 1540.59 Q618.77 1540.59 615.692 1536.01 Q612.636 1531.4 612.636 1522.67 Q612.636 1513.92 615.692 1509.34 Q618.77 1504.73 624.58 1504.73 Z" fill="#000000" fill-rule="evenodd" fill-opacity="1" /><path clip-path="url(#clip040)" d="M 0 0 M862.173 1525.04 L874.65 1525.04 L874.65 1528.83 L862.173 1528.83 L862.173 1525.04 Z" fill="#000000" fill-rule="evenodd" fill-opacity="1" /><path clip-path="url(#clip040)" d="M 0 0 M883.747 1535.98 L900.066 1535.98 L900.066 1539.92 L878.122 1539.92 L878.122 1535.98 Q880.784 1533.23 885.367 1528.6 Q889.974 1523.95 891.154 1522.61 Q893.4 1520.08 894.279 1518.35 Q895.182 1516.59 895.182 1514.9 Q895.182 1512.14 893.238 1510.41 Q891.316 1508.67 888.215 1508.67 Q886.015 1508.67 883.562 1509.43 Q881.131 1510.2 878.353 1511.75 L878.353 1507.03 Q881.178 1505.89 883.631 1505.31 Q886.085 1504.73 888.122 1504.73 Q893.492 1504.73 896.687 1507.42 Q899.881 1510.11 899.881 1514.6 Q899.881 1516.73 899.071 1518.65 Q898.284 1520.54 896.177 1523.14 Q895.599 1523.81 892.497 1527.03 Q889.395 1530.22 883.747 1535.98 Z" fill="#000000" fill-rule="evenodd" fill-opacity="1" /><path clip-path="url(#clip040)" d="M 0 0 M905.136 1534.04 L910.02 1534.04 L910.02 1539.92 L905.136 1539.92 L905.136 1534.04 Z" fill="#000000" fill-rule="evenodd" fill-opacity="1" /><path clip-path="url(#clip040)" d="M 0 0 M915.136 1505.36 L933.492 1505.36 L933.492 1509.3 L919.418 1509.3 L919.418 1517.77 Q920.437 1517.42 921.455 1517.26 Q922.474 1517.07 923.492 1517.07 Q929.279 1517.07 932.659 1520.24 Q936.038 1523.42 936.038 1528.83 Q936.038 1534.41 932.566 1537.51 Q929.094 1540.59 922.775 1540.59 Q920.599 1540.59 918.33 1540.22 Q916.085 1539.85 913.677 1539.11 L913.677 1534.41 Q915.761 1535.54 917.983 1536.1 Q920.205 1536.66 922.682 1536.66 Q926.687 1536.66 929.025 1534.55 Q931.362 1532.44 931.362 1528.83 Q931.362 1525.22 929.025 1523.11 Q926.687 1521.01 922.682 1521.01 Q920.807 1521.01 918.932 1521.42 Q917.08 1521.84 915.136 1522.72 L915.136 1505.36 Z" fill="#000000" fill-rule="evenodd" fill-opacity="1" /><path clip-path="url(#clip040)" d="M 0 0 M1180.93 1508.44 Q1177.32 1508.44 1175.49 1512 Q1173.69 1515.55 1173.69 1522.67 Q1173.69 1529.78 1175.49 1533.35 Q1177.32 1536.89 1180.93 1536.89 Q1184.57 1536.89 1186.37 1533.35 Q1188.2 1529.78 1188.2 1522.67 Q1188.2 1515.55 1186.37 1512 Q1184.57 1508.44 1180.93 1508.44 M1180.93 1504.73 Q1186.74 1504.73 1189.8 1509.34 Q1192.88 1513.92 1192.88 1522.67 Q1192.88 1531.4 1189.8 1536.01 Q1186.74 1540.59 1180.93 1540.59 Q1175.12 1540.59 1172.05 1536.01 Q1168.99 1531.4 1168.99 1522.67 Q1168.99 1513.92 1172.05 1509.34 Q1175.12 1504.73 1180.93 1504.73 Z" fill="#000000" fill-rule="evenodd" fill-opacity="1" /><path clip-path="url(#clip040)" d="M 0 0 M1197.95 1534.04 L1202.83 1534.04 L1202.83 1539.92 L1197.95 1539.92 L1197.95 1534.04 Z" fill="#000000" fill-rule="evenodd" fill-opacity="1" /><path clip-path="url(#clip040)" d="M 0 0 M1217.9 1508.44 Q1214.29 1508.44 1212.46 1512 Q1210.66 1515.55 1210.66 1522.67 Q1210.66 1529.78 1212.46 1533.35 Q1214.29 1536.89 1217.9 1536.89 Q1221.54 1536.89 1223.34 1533.35 Q1225.17 1529.78 1225.17 1522.67 Q1225.17 1515.55 1223.34 1512 Q1221.54 1508.44 1217.9 1508.44 M1217.9 1504.73 Q1223.71 1504.73 1226.77 1509.34 Q1229.85 1513.92 1229.85 1522.67 Q1229.85 1531.4 1226.77 1536.01 Q1223.71 1540.59 1217.9 1540.59 Q1212.09 1540.59 1209.01 1536.01 Q1205.96 1531.4 1205.96 1522.67 Q1205.96 1513.92 1209.01 1509.34 Q1212.09 1504.73 1217.9 1504.73 Z" fill="#000000" fill-rule="evenodd" fill-opacity="1" /><path clip-path="url(#clip040)" d="M 0 0 M1476.4 1535.98 L1492.72 1535.98 L1492.72 1539.92 L1470.77 1539.92 L1470.77 1535.98 Q1473.43 1533.23 1478.02 1528.6 Q1482.62 1523.95 1483.8 1522.61 Q1486.05 1520.08 1486.93 1518.35 Q1487.83 1516.59 1487.83 1514.9 Q1487.83 1512.14 1485.89 1510.41 Q1483.97 1508.67 1480.86 1508.67 Q1478.67 1508.67 1476.21 1509.43 Q1473.78 1510.2 1471 1511.75 L1471 1507.03 Q1473.83 1505.89 1476.28 1505.31 Q1478.73 1504.73 1480.77 1504.73 Q1486.14 1504.73 1489.34 1507.42 Q1492.53 1510.11 1492.53 1514.6 Q1492.53 1516.73 1491.72 1518.65 Q1490.93 1520.54 1488.83 1523.14 Q1488.25 1523.81 1485.15 1527.03 Q1482.04 1530.22 1476.4 1535.98 Z" fill="#000000" fill-rule="evenodd" fill-opacity="1" /><path clip-path="url(#clip040)" d="M 0 0 M1497.79 1534.04 L1502.67 1534.04 L1502.67 1539.92 L1497.79 1539.92 L1497.79 1534.04 Z" fill="#000000" fill-rule="evenodd" fill-opacity="1" /><path clip-path="url(#clip040)" d="M 0 0 M1507.79 1505.36 L1526.14 1505.36 L1526.14 1509.3 L1512.07 1509.3 L1512.07 1517.77 Q1513.09 1517.42 1514.1 1517.26 Q1515.12 1517.07 1516.14 1517.07 Q1521.93 1517.07 1525.31 1520.24 Q1528.69 1523.42 1528.69 1528.83 Q1528.69 1534.41 1525.22 1537.51 Q1521.74 1540.59 1515.42 1540.59 Q1513.25 1540.59 1510.98 1540.22 Q1508.73 1539.85 1506.33 1539.11 L1506.33 1534.41 Q1508.41 1535.54 1510.63 1536.1 Q1512.85 1536.66 1515.33 1536.66 Q1519.34 1536.66 1521.67 1534.55 Q1524.01 1532.44 1524.01 1528.83 Q1524.01 1525.22 1521.67 1523.11 Q1519.34 1521.01 1515.33 1521.01 Q1513.46 1521.01 1511.58 1521.42 Q1509.73 1521.84 1507.79 1522.72 L1507.79 1505.36 Z" fill="#000000" fill-rule="evenodd" fill-opacity="1" /><path clip-path="url(#clip040)" d="M 0 0 M1771.84 1505.36 L1790.19 1505.36 L1790.19 1509.3 L1776.12 1509.3 L1776.12 1517.77 Q1777.14 1517.42 1778.16 1517.26 Q1779.17 1517.07 1780.19 1517.07 Q1785.98 1517.07 1789.36 1520.24 Q1792.74 1523.42 1792.74 1528.83 Q1792.74 1534.41 1789.27 1537.51 Q1785.79 1540.59 1779.48 1540.59 Q1777.3 1540.59 1775.03 1540.22 Q1772.79 1539.85 1770.38 1539.11 L1770.38 1534.41 Q1772.46 1535.54 1774.68 1536.1 Q1776.91 1536.66 1779.38 1536.66 Q1783.39 1536.66 1785.73 1534.55 Q1788.06 1532.44 1788.06 1528.83 Q1788.06 1525.22 1785.73 1523.11 Q1783.39 1521.01 1779.38 1521.01 Q1777.51 1521.01 1775.63 1521.42 Q1773.78 1521.84 1771.84 1522.72 L1771.84 1505.36 Z" fill="#000000" fill-rule="evenodd" fill-opacity="1" /><path clip-path="url(#clip040)" d="M 0 0 M1797.81 1534.04 L1802.69 1534.04 L1802.69 1539.92 L1797.81 1539.92 L1797.81 1534.04 Z" fill="#000000" fill-rule="evenodd" fill-opacity="1" /><path clip-path="url(#clip040)" d="M 0 0 M1817.76 1508.44 Q1814.15 1508.44 1812.32 1512 Q1810.52 1515.55 1810.52 1522.67 Q1810.52 1529.78 1812.32 1533.35 Q1814.15 1536.89 1817.76 1536.89 Q1821.4 1536.89 1823.2 1533.35 Q1825.03 1529.78 1825.03 1522.67 Q1825.03 1515.55 1823.2 1512 Q1821.4 1508.44 1817.76 1508.44 M1817.76 1504.73 Q1823.57 1504.73 1826.63 1509.34 Q1829.71 1513.92 1829.71 1522.67 Q1829.71 1531.4 1826.63 1536.01 Q1823.57 1540.59 1817.76 1540.59 Q1811.95 1540.59 1808.87 1536.01 Q1805.82 1531.4 1805.82 1522.67 Q1805.82 1513.92 1808.87 1509.34 Q1811.95 1504.73 1817.76 1504.73 Z" fill="#000000" fill-rule="evenodd" fill-opacity="1" /><path clip-path="url(#clip040)" d="M 0 0 M2071.26 1505.36 L2093.48 1505.36 L2093.48 1507.35 L2080.93 1539.92 L2076.05 1539.92 L2087.85 1509.3 L2071.26 1509.3 L2071.26 1505.36 Z" fill="#000000" fill-rule="evenodd" fill-opacity="1" /><path clip-path="url(#clip040)" d="M 0 0 M2098.55 1534.04 L2103.43 1534.04 L2103.43 1539.92 L2098.55 1539.92 L2098.55 1534.04 Z" fill="#000000" fill-rule="evenodd" fill-opacity="1" /><path clip-path="url(#clip040)" d="M 0 0 M2108.55 1505.36 L2126.91 1505.36 L2126.91 1509.3 L2112.83 1509.3 L2112.83 1517.77 Q2113.85 1517.42 2114.87 1517.26 Q2115.89 1517.07 2116.91 1517.07 Q2122.69 1517.07 2126.07 1520.24 Q2129.45 1523.42 2129.45 1528.83 Q2129.45 1534.41 2125.98 1537.51 Q2122.51 1540.59 2116.19 1540.59 Q2114.01 1540.59 2111.74 1540.22 Q2109.5 1539.85 2107.09 1539.11 L2107.09 1534.41 Q2109.17 1535.54 2111.4 1536.1 Q2113.62 1536.66 2116.09 1536.66 Q2120.1 1536.66 2122.44 1534.55 Q2124.78 1532.44 2124.78 1528.83 Q2124.78 1525.22 2122.44 1523.11 Q2120.1 1521.01 2116.09 1521.01 Q2114.22 1521.01 2112.35 1521.42 Q2110.49 1521.84 2108.55 1522.72 L2108.55 1505.36 Z" fill="#000000" fill-rule="evenodd" fill-opacity="1" /><path clip-path="url(#clip040)" d="M 0 0 M130.26 1431.51 Q126.649 1431.51 124.82 1435.08 Q123.015 1438.62 123.015 1445.75 Q123.015 1452.86 124.82 1456.42 Q126.649 1459.96 130.26 1459.96 Q133.895 1459.96 135.7 1456.42 Q137.529 1452.86 137.529 1445.75 Q137.529 1438.62 135.7 1435.08 Q133.895 1431.51 130.26 1431.51 M130.26 1427.81 Q136.07 1427.81 139.126 1432.42 Q142.205 1437 142.205 1445.75 Q142.205 1454.48 139.126 1459.08 Q136.07 1463.67 130.26 1463.67 Q124.45 1463.67 121.371 1459.08 Q118.316 1454.48 118.316 1445.75 Q118.316 1437 121.371 1432.42 Q124.45 1427.81 130.26 1427.81 Z" fill="#000000" fill-rule="evenodd" fill-opacity="1" /><path clip-path="url(#clip040)" d="M 0 0 M71.8578 1109.58 L88.1772 1109.58 L88.1772 1113.51 L66.2328 1113.51 L66.2328 1109.58 Q68.8949 1106.82 73.4782 1102.19 Q78.0846 1097.54 79.2652 1096.2 Q81.5105 1093.68 82.3902 1091.94 Q83.2929 1090.18 83.2929 1088.49 Q83.2929 1085.74 81.3485 1084 Q79.4272 1082.26 76.3254 1082.26 Q74.1263 1082.26 71.6726 1083.03 Q69.2421 1083.79 66.4643 1085.34 L66.4643 1080.62 Q69.2884 1079.49 71.7421 1078.91 Q74.1958 1078.33 76.2328 1078.33 Q81.6031 1078.33 84.7976 1081.01 Q87.992 1083.7 87.992 1088.19 Q87.992 1090.32 87.1818 1092.24 Q86.3948 1094.14 84.2883 1096.73 Q83.7096 1097.4 80.6078 1100.62 Q77.5059 1103.81 71.8578 1109.58 Z" fill="#000000" fill-rule="evenodd" fill-opacity="1" /><path clip-path="url(#clip040)" d="M 0 0 M103.247 1082.03 Q99.6354 1082.03 97.8068 1085.6 Q96.0012 1089.14 96.0012 1096.27 Q96.0012 1103.37 97.8068 1106.94 Q99.6354 1110.48 103.247 1110.48 Q106.881 1110.48 108.686 1106.94 Q110.515 1103.37 110.515 1096.27 Q110.515 1089.14 108.686 1085.6 Q106.881 1082.03 103.247 1082.03 M103.247 1078.33 Q109.057 1078.33 112.112 1082.93 Q115.191 1087.52 115.191 1096.27 Q115.191 1104.99 112.112 1109.6 Q109.057 1114.18 103.247 1114.18 Q97.4364 1114.18 94.3577 1109.6 Q91.3022 1104.99 91.3022 1096.27 Q91.3022 1087.52 94.3577 1082.93 Q97.4364 1078.33 103.247 1078.33 Z" fill="#000000" fill-rule="evenodd" fill-opacity="1" /><path clip-path="url(#clip040)" d="M 0 0 M130.26 1082.03 Q126.649 1082.03 124.82 1085.6 Q123.015 1089.14 123.015 1096.27 Q123.015 1103.37 124.82 1106.94 Q126.649 1110.48 130.26 1110.48 Q133.895 1110.48 135.7 1106.94 Q137.529 1103.37 137.529 1096.27 Q137.529 1089.14 135.7 1085.6 Q133.895 1082.03 130.26 1082.03 M130.26 1078.33 Q136.07 1078.33 139.126 1082.93 Q142.205 1087.52 142.205 1096.27 Q142.205 1104.99 139.126 1109.6 Q136.07 1114.18 130.26 1114.18 Q124.45 1114.18 121.371 1109.6 Q118.316 1104.99 118.316 1096.27 Q118.316 1087.52 121.371 1082.93 Q124.45 1078.33 130.26 1078.33 Z" fill="#000000" fill-rule="evenodd" fill-opacity="1" /><path clip-path="url(#clip040)" d="M 0 0 M78.5939 733.545 L66.7884 751.994 L78.5939 751.994 L78.5939 733.545 M77.367 729.471 L83.2466 729.471 L83.2466 751.994 L88.1772 751.994 L88.1772 755.883 L83.2466 755.883 L83.2466 764.031 L78.5939 764.031 L78.5939 755.883 L62.9921 755.883 L62.9921 751.369 L77.367 729.471 Z" fill="#000000" fill-rule="evenodd" fill-opacity="1" /><path clip-path="url(#clip040)" d="M 0 0 M103.247 732.549 Q99.6354 732.549 97.8068 736.114 Q96.0012 739.656 96.0012 746.785 Q96.0012 753.892 97.8068 757.457 Q99.6354 760.998 103.247 760.998 Q106.881 760.998 108.686 757.457 Q110.515 753.892 110.515 746.785 Q110.515 739.656 108.686 736.114 Q106.881 732.549 103.247 732.549 M103.247 728.846 Q109.057 728.846 112.112 733.452 Q115.191 738.036 115.191 746.785 Q115.191 755.512 112.112 760.119 Q109.057 764.702 103.247 764.702 Q97.4364 764.702 94.3577 760.119 Q91.3022 755.512 91.3022 746.785 Q91.3022 738.036 94.3577 733.452 Q97.4364 728.846 103.247 728.846 Z" fill="#000000" fill-rule="evenodd" fill-opacity="1" /><path clip-path="url(#clip040)" d="M 0 0 M130.26 732.549 Q126.649 732.549 124.82 736.114 Q123.015 739.656 123.015 746.785 Q123.015 753.892 124.82 757.457 Q126.649 760.998 130.26 760.998 Q133.895 760.998 135.7 757.457 Q137.529 753.892 137.529 746.785 Q137.529 739.656 135.7 736.114 Q133.895 732.549 130.26 732.549 M130.26 728.846 Q136.07 728.846 139.126 733.452 Q142.205 738.036 142.205 746.785 Q142.205 755.512 139.126 760.119 Q136.07 764.702 130.26 764.702 Q124.45 764.702 121.371 760.119 Q118.316 755.512 118.316 746.785 Q118.316 738.036 121.371 733.452 Q124.45 728.846 130.26 728.846 Z" fill="#000000" fill-rule="evenodd" fill-opacity="1" /><path clip-path="url(#clip040)" d="M 0 0 M76.6495 395.405 Q73.5013 395.405 71.6495 397.558 Q69.8208 399.71 69.8208 403.46 Q69.8208 407.187 71.6495 409.363 Q73.5013 411.516 76.6495 411.516 Q79.7976 411.516 81.6263 409.363 Q83.4781 407.187 83.4781 403.46 Q83.4781 399.71 81.6263 397.558 Q79.7976 395.405 76.6495 395.405 M85.9318 380.752 L85.9318 385.011 Q84.1726 384.178 82.367 383.738 Q80.5846 383.298 78.8254 383.298 Q74.1958 383.298 71.7421 386.423 Q69.3115 389.548 68.9643 395.868 Q70.33 393.854 72.3902 392.789 Q74.4504 391.701 76.9272 391.701 Q82.1355 391.701 85.1448 394.872 Q88.1772 398.021 88.1772 403.46 Q88.1772 408.784 85.029 412.002 Q81.8809 415.22 76.6495 415.22 Q70.6541 415.22 67.4828 410.636 Q64.3116 406.03 64.3116 397.303 Q64.3116 389.109 68.2004 384.248 Q72.0893 379.363 78.6402 379.363 Q80.3994 379.363 82.1818 379.71 Q83.9874 380.058 85.9318 380.752 Z" fill="#000000" fill-rule="evenodd" fill-opacity="1" /><path clip-path="url(#clip040)" d="M 0 0 M103.247 383.067 Q99.6354 383.067 97.8068 386.632 Q96.0012 390.173 96.0012 397.303 Q96.0012 404.409 97.8068 407.974 Q99.6354 411.516 103.247 411.516 Q106.881 411.516 108.686 407.974 Q110.515 404.409 110.515 397.303 Q110.515 390.173 108.686 386.632 Q106.881 383.067 103.247 383.067 M103.247 379.363 Q109.057 379.363 112.112 383.97 Q115.191 388.553 115.191 397.303 Q115.191 406.03 112.112 410.636 Q109.057 415.22 103.247 415.22 Q97.4364 415.22 94.3577 410.636 Q91.3022 406.03 91.3022 397.303 Q91.3022 388.553 94.3577 383.97 Q97.4364 379.363 103.247 379.363 Z" fill="#000000" fill-rule="evenodd" fill-opacity="1" /><path clip-path="url(#clip040)" d="M 0 0 M130.26 383.067 Q126.649 383.067 124.82 386.632 Q123.015 390.173 123.015 397.303 Q123.015 404.409 124.82 407.974 Q126.649 411.516 130.26 411.516 Q133.895 411.516 135.7 407.974 Q137.529 404.409 137.529 397.303 Q137.529 390.173 135.7 386.632 Q133.895 383.067 130.26 383.067 M130.26 379.363 Q136.07 379.363 139.126 383.97 Q142.205 388.553 142.205 397.303 Q142.205 406.03 139.126 410.636 Q136.07 415.22 130.26 415.22 Q124.45 415.22 121.371 410.636 Q118.316 406.03 118.316 397.303 Q118.316 388.553 121.371 383.97 Q124.45 379.363 130.26 379.363 Z" fill="#000000" fill-rule="evenodd" fill-opacity="1" /><path clip-path="url(#clip040)" d="M 0 0 M76.3254 48.6538 Q72.9921 48.6538 71.0708 50.4362 Q69.1726 52.2186 69.1726 55.3436 Q69.1726 58.4686 71.0708 60.251 Q72.9921 62.0334 76.3254 62.0334 Q79.6587 62.0334 81.58 60.251 Q83.5013 58.4455 83.5013 55.3436 Q83.5013 52.2186 81.58 50.4362 Q79.6819 48.6538 76.3254 48.6538 M71.6495 46.6631 Q68.6402 45.9224 66.9504 43.8622 Q65.2838 41.802 65.2838 38.8391 Q65.2838 34.6956 68.2236 32.2882 Q71.1865 29.8808 76.3254 29.8808 Q81.4874 29.8808 84.4272 32.2882 Q87.367 34.6956 87.367 38.8391 Q87.367 41.802 85.6772 43.8622 Q84.0105 45.9224 81.0244 46.6631 Q84.404 47.4501 86.279 49.7418 Q88.1772 52.0335 88.1772 55.3436 Q88.1772 60.3667 85.0985 63.0519 Q82.0429 65.7371 76.3254 65.7371 Q70.6078 65.7371 67.5291 63.0519 Q64.4736 60.3667 64.4736 55.3436 Q64.4736 52.0335 66.3717 49.7418 Q68.2699 47.4501 71.6495 46.6631 M69.9365 39.2789 Q69.9365 41.9641 71.6032 43.4687 Q73.293 44.9733 76.3254 44.9733 Q79.3346 44.9733 81.0244 43.4687 Q82.7374 41.9641 82.7374 39.2789 Q82.7374 36.5937 81.0244 35.0891 Q79.3346 33.5845 76.3254 33.5845 Q73.293 33.5845 71.6032 35.0891 Q69.9365 36.5937 69.9365 39.2789 Z" fill="#000000" fill-rule="evenodd" fill-opacity="1" /><path clip-path="url(#clip040)" d="M 0 0 M103.247 33.5845 Q99.6354 33.5845 97.8068 37.1493 Q96.0012 40.6909 96.0012 47.8205 Q96.0012 54.927 97.8068 58.4918 Q99.6354 62.0334 103.247 62.0334 Q106.881 62.0334 108.686 58.4918 Q110.515 54.927 110.515 47.8205 Q110.515 40.6909 108.686 37.1493 Q106.881 33.5845 103.247 33.5845 M103.247 29.8808 Q109.057 29.8808 112.112 34.4873 Q115.191 39.0706 115.191 47.8205 Q115.191 56.5473 112.112 61.1538 Q109.057 65.7371 103.247 65.7371 Q97.4364 65.7371 94.3577 61.1538 Q91.3022 56.5473 91.3022 47.8205 Q91.3022 39.0706 94.3577 34.4873 Q97.4364 29.8808 103.247 29.8808 Z" fill="#000000" fill-rule="evenodd" fill-opacity="1" /><path clip-path="url(#clip040)" d="M 0 0 M130.26 33.5845 Q126.649 33.5845 124.82 37.1493 Q123.015 40.6909 123.015 47.8205 Q123.015 54.927 124.82 58.4918 Q126.649 62.0334 130.26 62.0334 Q133.895 62.0334 135.7 58.4918 Q137.529 54.927 137.529 47.8205 Q137.529 40.6909 135.7 37.1493 Q133.895 33.5845 130.26 33.5845 M130.26 29.8808 Q136.07 29.8808 139.126 34.4873 Q142.205 39.0706 142.205 47.8205 Q142.205 56.5473 139.126 61.1538 Q136.07 65.7371 130.26 65.7371 Q124.45 65.7371 121.371 61.1538 Q118.316 56.5473 118.316 47.8205 Q118.316 39.0706 121.371 34.4873 Q124.45 29.8808 130.26 29.8808 Z" fill="#000000" fill-rule="evenodd" fill-opacity="1" /><path clip-path="url(#clip042)" d="
M286.469 1443.97 L286.469 1445.72 L310.494 1445.72 L310.494 1443.97 L286.469 1443.97 L286.469 1443.97  Z
  " fill="#009af9" fill-rule="evenodd" fill-opacity="1"/>
<polyline clip-path="url(#clip042)" style="stroke:#000000; stroke-width:4; stroke-opacity:1; fill:none" points="
  286.469,1443.97 286.469,1445.72 310.494,1445.72 310.494,1443.97 286.469,1443.97 
  "/>
<path clip-path="url(#clip042)" d="
M310.494 1445.72 L310.494 1445.72 L334.519 1445.72 L334.519 1445.72 L310.494 1445.72 L310.494 1445.72  Z
  " fill="#009af9" fill-rule="evenodd" fill-opacity="1"/>
<polyline clip-path="url(#clip042)" style="stroke:#000000; stroke-width:4; stroke-opacity:1; fill:none" points="
  310.494,1445.72 310.494,1445.72 334.519,1445.72 310.494,1445.72 
  "/>
<path clip-path="url(#clip042)" d="
M334.519 1443.97 L334.519 1445.72 L358.544 1445.72 L358.544 1443.97 L334.519 1443.97 L334.519 1443.97  Z
  " fill="#009af9" fill-rule="evenodd" fill-opacity="1"/>
<polyline clip-path="url(#clip042)" style="stroke:#000000; stroke-width:4; stroke-opacity:1; fill:none" points="
  334.519,1443.97 334.519,1445.72 358.544,1445.72 358.544,1443.97 334.519,1443.97 
  "/>
<path clip-path="url(#clip042)" d="
M358.544 1445.72 L358.544 1445.72 L382.569 1445.72 L382.569 1445.72 L358.544 1445.72 L358.544 1445.72  Z
  " fill="#009af9" fill-rule="evenodd" fill-opacity="1"/>
<polyline clip-path="url(#clip042)" style="stroke:#000000; stroke-width:4; stroke-opacity:1; fill:none" points="
  358.544,1445.72 358.544,1445.72 382.569,1445.72 358.544,1445.72 
  "/>
<path clip-path="url(#clip042)" d="
M382.569 1443.97 L382.569 1445.72 L406.594 1445.72 L406.594 1443.97 L382.569 1443.97 L382.569 1443.97  Z
  " fill="#009af9" fill-rule="evenodd" fill-opacity="1"/>
<polyline clip-path="url(#clip042)" style="stroke:#000000; stroke-width:4; stroke-opacity:1; fill:none" points="
  382.569,1443.97 382.569,1445.72 406.594,1445.72 406.594,1443.97 382.569,1443.97 
  "/>
<path clip-path="url(#clip042)" d="
M406.594 1445.72 L406.594 1445.72 L430.619 1445.72 L430.619 1445.72 L406.594 1445.72 L406.594 1445.72  Z
  " fill="#009af9" fill-rule="evenodd" fill-opacity="1"/>
<polyline clip-path="url(#clip042)" style="stroke:#000000; stroke-width:4; stroke-opacity:1; fill:none" points="
  406.594,1445.72 406.594,1445.72 430.619,1445.72 406.594,1445.72 
  "/>
<path clip-path="url(#clip042)" d="
M430.619 1445.72 L430.619 1445.72 L454.644 1445.72 L454.644 1445.72 L430.619 1445.72 L430.619 1445.72  Z
  " fill="#009af9" fill-rule="evenodd" fill-opacity="1"/>
<polyline clip-path="url(#clip042)" style="stroke:#000000; stroke-width:4; stroke-opacity:1; fill:none" points="
  430.619,1445.72 430.619,1445.72 454.644,1445.72 430.619,1445.72 
  "/>
<path clip-path="url(#clip042)" d="
M454.644 1445.72 L454.644 1445.72 L478.669 1445.72 L478.669 1445.72 L454.644 1445.72 L454.644 1445.72  Z
  " fill="#009af9" fill-rule="evenodd" fill-opacity="1"/>
<polyline clip-path="url(#clip042)" style="stroke:#000000; stroke-width:4; stroke-opacity:1; fill:none" points="
  454.644,1445.72 454.644,1445.72 478.669,1445.72 454.644,1445.72 
  "/>
<path clip-path="url(#clip042)" d="
M478.669 1443.97 L478.669 1445.72 L502.694 1445.72 L502.694 1443.97 L478.669 1443.97 L478.669 1443.97  Z
  " fill="#009af9" fill-rule="evenodd" fill-opacity="1"/>
<polyline clip-path="url(#clip042)" style="stroke:#000000; stroke-width:4; stroke-opacity:1; fill:none" points="
  478.669,1443.97 478.669,1445.72 502.694,1445.72 502.694,1443.97 478.669,1443.97 
  "/>
<path clip-path="url(#clip042)" d="
M502.694 1443.97 L502.694 1445.72 L526.719 1445.72 L526.719 1443.97 L502.694 1443.97 L502.694 1443.97  Z
  " fill="#009af9" fill-rule="evenodd" fill-opacity="1"/>
<polyline clip-path="url(#clip042)" style="stroke:#000000; stroke-width:4; stroke-opacity:1; fill:none" points="
  502.694,1443.97 502.694,1445.72 526.719,1445.72 526.719,1443.97 502.694,1443.97 
  "/>
<path clip-path="url(#clip042)" d="
M526.719 1436.98 L526.719 1445.72 L550.744 1445.72 L550.744 1436.98 L526.719 1436.98 L526.719 1436.98  Z
  " fill="#009af9" fill-rule="evenodd" fill-opacity="1"/>
<polyline clip-path="url(#clip042)" style="stroke:#000000; stroke-width:4; stroke-opacity:1; fill:none" points="
  526.719,1436.98 526.719,1445.72 550.744,1445.72 550.744,1436.98 526.719,1436.98 
  "/>
<path clip-path="url(#clip042)" d="
M550.744 1442.22 L550.744 1445.72 L574.769 1445.72 L574.769 1442.22 L550.744 1442.22 L550.744 1442.22  Z
  " fill="#009af9" fill-rule="evenodd" fill-opacity="1"/>
<polyline clip-path="url(#clip042)" style="stroke:#000000; stroke-width:4; stroke-opacity:1; fill:none" points="
  550.744,1442.22 550.744,1445.72 574.769,1445.72 574.769,1442.22 550.744,1442.22 
  "/>
<path clip-path="url(#clip042)" d="
M574.769 1438.73 L574.769 1445.72 L598.794 1445.72 L598.794 1438.73 L574.769 1438.73 L574.769 1438.73  Z
  " fill="#009af9" fill-rule="evenodd" fill-opacity="1"/>
<polyline clip-path="url(#clip042)" style="stroke:#000000; stroke-width:4; stroke-opacity:1; fill:none" points="
  574.769,1438.73 574.769,1445.72 598.794,1445.72 598.794,1438.73 574.769,1438.73 
  "/>
<path clip-path="url(#clip042)" d="
M598.794 1435.23 L598.794 1445.72 L622.818 1445.72 L622.818 1435.23 L598.794 1435.23 L598.794 1435.23  Z
  " fill="#009af9" fill-rule="evenodd" fill-opacity="1"/>
<polyline clip-path="url(#clip042)" style="stroke:#000000; stroke-width:4; stroke-opacity:1; fill:none" points="
  598.794,1435.23 598.794,1445.72 622.818,1445.72 622.818,1435.23 598.794,1435.23 
  "/>
<path clip-path="url(#clip042)" d="
M622.818 1436.98 L622.818 1445.72 L646.843 1445.72 L646.843 1436.98 L622.818 1436.98 L622.818 1436.98  Z
  " fill="#009af9" fill-rule="evenodd" fill-opacity="1"/>
<polyline clip-path="url(#clip042)" style="stroke:#000000; stroke-width:4; stroke-opacity:1; fill:none" points="
  622.818,1436.98 622.818,1445.72 646.843,1445.72 646.843,1436.98 622.818,1436.98 
  "/>
<path clip-path="url(#clip042)" d="
M646.843 1419.5 L646.843 1445.72 L670.868 1445.72 L670.868 1419.5 L646.843 1419.5 L646.843 1419.5  Z
  " fill="#009af9" fill-rule="evenodd" fill-opacity="1"/>
<polyline clip-path="url(#clip042)" style="stroke:#000000; stroke-width:4; stroke-opacity:1; fill:none" points="
  646.843,1419.5 646.843,1445.72 670.868,1445.72 670.868,1419.5 646.843,1419.5 
  "/>
<path clip-path="url(#clip042)" d="
M670.868 1426.49 L670.868 1445.72 L694.893 1445.72 L694.893 1426.49 L670.868 1426.49 L670.868 1426.49  Z
  " fill="#009af9" fill-rule="evenodd" fill-opacity="1"/>
<polyline clip-path="url(#clip042)" style="stroke:#000000; stroke-width:4; stroke-opacity:1; fill:none" points="
  670.868,1426.49 670.868,1445.72 694.893,1445.72 694.893,1426.49 670.868,1426.49 
  "/>
<path clip-path="url(#clip042)" d="
M694.893 1409.02 L694.893 1445.72 L718.918 1445.72 L718.918 1409.02 L694.893 1409.02 L694.893 1409.02  Z
  " fill="#009af9" fill-rule="evenodd" fill-opacity="1"/>
<polyline clip-path="url(#clip042)" style="stroke:#000000; stroke-width:4; stroke-opacity:1; fill:none" points="
  694.893,1409.02 694.893,1445.72 718.918,1445.72 718.918,1409.02 694.893,1409.02 
  "/>
<path clip-path="url(#clip042)" d="
M718.918 1400.28 L718.918 1445.72 L742.943 1445.72 L742.943 1400.28 L718.918 1400.28 L718.918 1400.28  Z
  " fill="#009af9" fill-rule="evenodd" fill-opacity="1"/>
<polyline clip-path="url(#clip042)" style="stroke:#000000; stroke-width:4; stroke-opacity:1; fill:none" points="
  718.918,1400.28 718.918,1445.72 742.943,1445.72 742.943,1400.28 718.918,1400.28 
  "/>
<path clip-path="url(#clip042)" d="
M742.943 1409.02 L742.943 1445.72 L766.968 1445.72 L766.968 1409.02 L742.943 1409.02 L742.943 1409.02  Z
  " fill="#009af9" fill-rule="evenodd" fill-opacity="1"/>
<polyline clip-path="url(#clip042)" style="stroke:#000000; stroke-width:4; stroke-opacity:1; fill:none" points="
  742.943,1409.02 742.943,1445.72 766.968,1445.72 766.968,1409.02 742.943,1409.02 
  "/>
<path clip-path="url(#clip042)" d="
M766.968 1400.28 L766.968 1445.72 L790.993 1445.72 L790.993 1400.28 L766.968 1400.28 L766.968 1400.28  Z
  " fill="#009af9" fill-rule="evenodd" fill-opacity="1"/>
<polyline clip-path="url(#clip042)" style="stroke:#000000; stroke-width:4; stroke-opacity:1; fill:none" points="
  766.968,1400.28 766.968,1445.72 790.993,1445.72 790.993,1400.28 766.968,1400.28 
  "/>
<path clip-path="url(#clip042)" d="
M790.993 1379.31 L790.993 1445.72 L815.018 1445.72 L815.018 1379.31 L790.993 1379.31 L790.993 1379.31  Z
  " fill="#009af9" fill-rule="evenodd" fill-opacity="1"/>
<polyline clip-path="url(#clip042)" style="stroke:#000000; stroke-width:4; stroke-opacity:1; fill:none" points="
  790.993,1379.31 790.993,1445.72 815.018,1445.72 815.018,1379.31 790.993,1379.31 
  "/>
<path clip-path="url(#clip042)" d="
M815.018 1403.78 L815.018 1445.72 L839.043 1445.72 L839.043 1403.78 L815.018 1403.78 L815.018 1403.78  Z
  " fill="#009af9" fill-rule="evenodd" fill-opacity="1"/>
<polyline clip-path="url(#clip042)" style="stroke:#000000; stroke-width:4; stroke-opacity:1; fill:none" points="
  815.018,1403.78 815.018,1445.72 839.043,1445.72 839.043,1403.78 815.018,1403.78 
  "/>
<path clip-path="url(#clip042)" d="
M839.043 1377.57 L839.043 1445.72 L863.068 1445.72 L863.068 1377.57 L839.043 1377.57 L839.043 1377.57  Z
  " fill="#009af9" fill-rule="evenodd" fill-opacity="1"/>
<polyline clip-path="url(#clip042)" style="stroke:#000000; stroke-width:4; stroke-opacity:1; fill:none" points="
  839.043,1377.57 839.043,1445.72 863.068,1445.72 863.068,1377.57 839.043,1377.57 
  "/>
<path clip-path="url(#clip042)" d="
M863.068 1363.59 L863.068 1445.72 L887.093 1445.72 L887.093 1363.59 L863.068 1363.59 L863.068 1363.59  Z
  " fill="#009af9" fill-rule="evenodd" fill-opacity="1"/>
<polyline clip-path="url(#clip042)" style="stroke:#000000; stroke-width:4; stroke-opacity:1; fill:none" points="
  863.068,1363.59 863.068,1445.72 887.093,1445.72 887.093,1363.59 863.068,1363.59 
  "/>
<path clip-path="url(#clip042)" d="
M887.093 1375.82 L887.093 1445.72 L911.118 1445.72 L911.118 1375.82 L887.093 1375.82 L887.093 1375.82  Z
  " fill="#009af9" fill-rule="evenodd" fill-opacity="1"/>
<polyline clip-path="url(#clip042)" style="stroke:#000000; stroke-width:4; stroke-opacity:1; fill:none" points="
  887.093,1375.82 887.093,1445.72 911.118,1445.72 911.118,1375.82 887.093,1375.82 
  "/>
<path clip-path="url(#clip042)" d="
M911.118 1326.89 L911.118 1445.72 L935.143 1445.72 L935.143 1326.89 L911.118 1326.89 L911.118 1326.89  Z
  " fill="#009af9" fill-rule="evenodd" fill-opacity="1"/>
<polyline clip-path="url(#clip042)" style="stroke:#000000; stroke-width:4; stroke-opacity:1; fill:none" points="
  911.118,1326.89 911.118,1445.72 935.143,1445.72 935.143,1326.89 911.118,1326.89 
  "/>
<path clip-path="url(#clip042)" d="
M935.143 1302.43 L935.143 1445.72 L959.168 1445.72 L959.168 1302.43 L935.143 1302.43 L935.143 1302.43  Z
  " fill="#009af9" fill-rule="evenodd" fill-opacity="1"/>
<polyline clip-path="url(#clip042)" style="stroke:#000000; stroke-width:4; stroke-opacity:1; fill:none" points="
  935.143,1302.43 935.143,1445.72 959.168,1445.72 959.168,1302.43 935.143,1302.43 
  "/>
<path clip-path="url(#clip042)" d="
M959.168 1319.9 L959.168 1445.72 L983.193 1445.72 L983.193 1319.9 L959.168 1319.9 L959.168 1319.9  Z
  " fill="#009af9" fill-rule="evenodd" fill-opacity="1"/>
<polyline clip-path="url(#clip042)" style="stroke:#000000; stroke-width:4; stroke-opacity:1; fill:none" points="
  959.168,1319.9 959.168,1445.72 983.193,1445.72 983.193,1319.9 959.168,1319.9 
  "/>
<path clip-path="url(#clip042)" d="
M983.193 1298.93 L983.193 1445.72 L1007.22 1445.72 L1007.22 1298.93 L983.193 1298.93 L983.193 1298.93  Z
  " fill="#009af9" fill-rule="evenodd" fill-opacity="1"/>
<polyline clip-path="url(#clip042)" style="stroke:#000000; stroke-width:4; stroke-opacity:1; fill:none" points="
  983.193,1298.93 983.193,1445.72 1007.22,1445.72 1007.22,1298.93 983.193,1298.93 
  "/>
<path clip-path="url(#clip042)" d="
M1007.22 1290.2 L1007.22 1445.72 L1031.24 1445.72 L1031.24 1290.2 L1007.22 1290.2 L1007.22 1290.2  Z
  " fill="#009af9" fill-rule="evenodd" fill-opacity="1"/>
<polyline clip-path="url(#clip042)" style="stroke:#000000; stroke-width:4; stroke-opacity:1; fill:none" points="
  1007.22,1290.2 1007.22,1445.72 1031.24,1445.72 1031.24,1290.2 1007.22,1290.2 
  "/>
<path clip-path="url(#clip042)" d="
M1031.24 1267.48 L1031.24 1445.72 L1055.27 1445.72 L1055.27 1267.48 L1031.24 1267.48 L1031.24 1267.48  Z
  " fill="#009af9" fill-rule="evenodd" fill-opacity="1"/>
<polyline clip-path="url(#clip042)" style="stroke:#000000; stroke-width:4; stroke-opacity:1; fill:none" points="
  1031.24,1267.48 1031.24,1445.72 1055.27,1445.72 1055.27,1267.48 1031.24,1267.48 
  "/>
<path clip-path="url(#clip042)" d="
M1055.27 1281.46 L1055.27 1445.72 L1079.29 1445.72 L1079.29 1281.46 L1055.27 1281.46 L1055.27 1281.46  Z
  " fill="#009af9" fill-rule="evenodd" fill-opacity="1"/>
<polyline clip-path="url(#clip042)" style="stroke:#000000; stroke-width:4; stroke-opacity:1; fill:none" points="
  1055.27,1281.46 1055.27,1445.72 1079.29,1445.72 1079.29,1281.46 1055.27,1281.46 
  "/>
<path clip-path="url(#clip042)" d="
M1079.29 1243.02 L1079.29 1445.72 L1103.32 1445.72 L1103.32 1243.02 L1079.29 1243.02 L1079.29 1243.02  Z
  " fill="#009af9" fill-rule="evenodd" fill-opacity="1"/>
<polyline clip-path="url(#clip042)" style="stroke:#000000; stroke-width:4; stroke-opacity:1; fill:none" points="
  1079.29,1243.02 1079.29,1445.72 1103.32,1445.72 1103.32,1243.02 1079.29,1243.02 
  "/>
<path clip-path="url(#clip042)" d="
M1103.32 1230.78 L1103.32 1445.72 L1127.34 1445.72 L1127.34 1230.78 L1103.32 1230.78 L1103.32 1230.78  Z
  " fill="#009af9" fill-rule="evenodd" fill-opacity="1"/>
<polyline clip-path="url(#clip042)" style="stroke:#000000; stroke-width:4; stroke-opacity:1; fill:none" points="
  1103.32,1230.78 1103.32,1445.72 1127.34,1445.72 1127.34,1230.78 1103.32,1230.78 
  "/>
<path clip-path="url(#clip042)" d="
M1127.34 1229.04 L1127.34 1445.72 L1151.37 1445.72 L1151.37 1229.04 L1127.34 1229.04 L1127.34 1229.04  Z
  " fill="#009af9" fill-rule="evenodd" fill-opacity="1"/>
<polyline clip-path="url(#clip042)" style="stroke:#000000; stroke-width:4; stroke-opacity:1; fill:none" points="
  1127.34,1229.04 1127.34,1445.72 1151.37,1445.72 1151.37,1229.04 1127.34,1229.04 
  "/>
<path clip-path="url(#clip042)" d="
M1151.37 1208.07 L1151.37 1445.72 L1175.39 1445.72 L1175.39 1208.07 L1151.37 1208.07 L1151.37 1208.07  Z
  " fill="#009af9" fill-rule="evenodd" fill-opacity="1"/>
<polyline clip-path="url(#clip042)" style="stroke:#000000; stroke-width:4; stroke-opacity:1; fill:none" points="
  1151.37,1208.07 1151.37,1445.72 1175.39,1445.72 1175.39,1208.07 1151.37,1208.07 
  "/>
<path clip-path="url(#clip042)" d="
M1175.39 1241.27 L1175.39 1445.72 L1199.42 1445.72 L1199.42 1241.27 L1175.39 1241.27 L1175.39 1241.27  Z
  " fill="#009af9" fill-rule="evenodd" fill-opacity="1"/>
<polyline clip-path="url(#clip042)" style="stroke:#000000; stroke-width:4; stroke-opacity:1; fill:none" points="
  1175.39,1241.27 1175.39,1445.72 1199.42,1445.72 1199.42,1241.27 1175.39,1241.27 
  "/>
<path clip-path="url(#clip042)" d="
M1199.42 1237.77 L1199.42 1445.72 L1223.44 1445.72 L1223.44 1237.77 L1199.42 1237.77 L1199.42 1237.77  Z
  " fill="#009af9" fill-rule="evenodd" fill-opacity="1"/>
<polyline clip-path="url(#clip042)" style="stroke:#000000; stroke-width:4; stroke-opacity:1; fill:none" points="
  1199.42,1237.77 1199.42,1445.72 1223.44,1445.72 1223.44,1237.77 1199.42,1237.77 
  "/>
<path clip-path="url(#clip042)" d="
M1223.44 1244.76 L1223.44 1445.72 L1247.47 1445.72 L1247.47 1244.76 L1223.44 1244.76 L1223.44 1244.76  Z
  " fill="#009af9" fill-rule="evenodd" fill-opacity="1"/>
<polyline clip-path="url(#clip042)" style="stroke:#000000; stroke-width:4; stroke-opacity:1; fill:none" points="
  1223.44,1244.76 1223.44,1445.72 1247.47,1445.72 1247.47,1244.76 1223.44,1244.76 
  "/>
<path clip-path="url(#clip042)" d="
M1247.47 1185.35 L1247.47 1445.72 L1271.49 1445.72 L1271.49 1185.35 L1247.47 1185.35 L1247.47 1185.35  Z
  " fill="#009af9" fill-rule="evenodd" fill-opacity="1"/>
<polyline clip-path="url(#clip042)" style="stroke:#000000; stroke-width:4; stroke-opacity:1; fill:none" points="
  1247.47,1185.35 1247.47,1445.72 1271.49,1445.72 1271.49,1185.35 1247.47,1185.35 
  "/>
<path clip-path="url(#clip042)" d="
M1271.49 769.467 L1271.49 1445.72 L1295.52 1445.72 L1295.52 769.467 L1271.49 769.467 L1271.49 769.467  Z
  " fill="#009af9" fill-rule="evenodd" fill-opacity="1"/>
<polyline clip-path="url(#clip042)" style="stroke:#000000; stroke-width:4; stroke-opacity:1; fill:none" points="
  1271.49,769.467 1271.49,1445.72 1295.52,1445.72 1295.52,769.467 1271.49,769.467 
  "/>
<path clip-path="url(#clip042)" d="
M1295.52 96.7133 L1295.52 1445.72 L1319.54 1445.72 L1319.54 96.7133 L1295.52 96.7133 L1295.52 96.7133  Z
  " fill="#009af9" fill-rule="evenodd" fill-opacity="1"/>
<polyline clip-path="url(#clip042)" style="stroke:#000000; stroke-width:4; stroke-opacity:1; fill:none" points="
  1295.52,96.7133 1295.52,1445.72 1319.54,1445.72 1319.54,96.7133 1295.52,96.7133 
  "/>
<path clip-path="url(#clip042)" d="
M1319.54 87.9763 L1319.54 1445.72 L1343.57 1445.72 L1343.57 87.9763 L1319.54 87.9763 L1319.54 87.9763  Z
  " fill="#009af9" fill-rule="evenodd" fill-opacity="1"/>
<polyline clip-path="url(#clip042)" style="stroke:#000000; stroke-width:4; stroke-opacity:1; fill:none" points="
  1319.54,87.9763 1319.54,1445.72 1343.57,1445.72 1343.57,87.9763 1319.54,87.9763 
  "/>
<path clip-path="url(#clip042)" d="
M1343.57 837.616 L1343.57 1445.72 L1367.59 1445.72 L1367.59 837.616 L1343.57 837.616 L1343.57 837.616  Z
  " fill="#009af9" fill-rule="evenodd" fill-opacity="1"/>
<polyline clip-path="url(#clip042)" style="stroke:#000000; stroke-width:4; stroke-opacity:1; fill:none" points="
  1343.57,837.616 1343.57,1445.72 1367.59,1445.72 1367.59,837.616 1343.57,837.616 
  "/>
<path clip-path="url(#clip042)" d="
M1367.59 1208.07 L1367.59 1445.72 L1391.62 1445.72 L1391.62 1208.07 L1367.59 1208.07 L1367.59 1208.07  Z
  " fill="#009af9" fill-rule="evenodd" fill-opacity="1"/>
<polyline clip-path="url(#clip042)" style="stroke:#000000; stroke-width:4; stroke-opacity:1; fill:none" points="
  1367.59,1208.07 1367.59,1445.72 1391.62,1445.72 1391.62,1208.07 1367.59,1208.07 
  "/>
<path clip-path="url(#clip042)" d="
M1391.62 1305.92 L1391.62 1445.72 L1415.64 1445.72 L1415.64 1305.92 L1391.62 1305.92 L1391.62 1305.92  Z
  " fill="#009af9" fill-rule="evenodd" fill-opacity="1"/>
<polyline clip-path="url(#clip042)" style="stroke:#000000; stroke-width:4; stroke-opacity:1; fill:none" points="
  1391.62,1305.92 1391.62,1445.72 1415.64,1445.72 1415.64,1305.92 1391.62,1305.92 
  "/>
<path clip-path="url(#clip042)" d="
M1415.64 1295.44 L1415.64 1445.72 L1439.67 1445.72 L1439.67 1295.44 L1415.64 1295.44 L1415.64 1295.44  Z
  " fill="#009af9" fill-rule="evenodd" fill-opacity="1"/>
<polyline clip-path="url(#clip042)" style="stroke:#000000; stroke-width:4; stroke-opacity:1; fill:none" points="
  1415.64,1295.44 1415.64,1445.72 1439.67,1445.72 1439.67,1295.44 1415.64,1295.44 
  "/>
<path clip-path="url(#clip042)" d="
M1439.67 1295.44 L1439.67 1445.72 L1463.69 1445.72 L1463.69 1295.44 L1439.67 1295.44 L1439.67 1295.44  Z
  " fill="#009af9" fill-rule="evenodd" fill-opacity="1"/>
<polyline clip-path="url(#clip042)" style="stroke:#000000; stroke-width:4; stroke-opacity:1; fill:none" points="
  1439.67,1295.44 1439.67,1445.72 1463.69,1445.72 1463.69,1295.44 1439.67,1295.44 
  "/>
<path clip-path="url(#clip042)" d="
M1463.69 1340.87 L1463.69 1445.72 L1487.72 1445.72 L1487.72 1340.87 L1463.69 1340.87 L1463.69 1340.87  Z
  " fill="#009af9" fill-rule="evenodd" fill-opacity="1"/>
<polyline clip-path="url(#clip042)" style="stroke:#000000; stroke-width:4; stroke-opacity:1; fill:none" points="
  1463.69,1340.87 1463.69,1445.72 1487.72,1445.72 1487.72,1340.87 1463.69,1340.87 
  "/>
<path clip-path="url(#clip042)" d="
M1487.72 1339.12 L1487.72 1445.72 L1511.74 1445.72 L1511.74 1339.12 L1487.72 1339.12 L1487.72 1339.12  Z
  " fill="#009af9" fill-rule="evenodd" fill-opacity="1"/>
<polyline clip-path="url(#clip042)" style="stroke:#000000; stroke-width:4; stroke-opacity:1; fill:none" points="
  1487.72,1339.12 1487.72,1445.72 1511.74,1445.72 1511.74,1339.12 1487.72,1339.12 
  "/>
<path clip-path="url(#clip042)" d="
M1511.74 1349.61 L1511.74 1445.72 L1535.77 1445.72 L1535.77 1349.61 L1511.74 1349.61 L1511.74 1349.61  Z
  " fill="#009af9" fill-rule="evenodd" fill-opacity="1"/>
<polyline clip-path="url(#clip042)" style="stroke:#000000; stroke-width:4; stroke-opacity:1; fill:none" points="
  1511.74,1349.61 1511.74,1445.72 1535.77,1445.72 1535.77,1349.61 1511.74,1349.61 
  "/>
<path clip-path="url(#clip042)" d="
M1535.77 1365.33 L1535.77 1445.72 L1559.79 1445.72 L1559.79 1365.33 L1535.77 1365.33 L1535.77 1365.33  Z
  " fill="#009af9" fill-rule="evenodd" fill-opacity="1"/>
<polyline clip-path="url(#clip042)" style="stroke:#000000; stroke-width:4; stroke-opacity:1; fill:none" points="
  1535.77,1365.33 1535.77,1445.72 1559.79,1445.72 1559.79,1365.33 1535.77,1365.33 
  "/>
<path clip-path="url(#clip042)" d="
M1559.79 1402.03 L1559.79 1445.72 L1583.82 1445.72 L1583.82 1402.03 L1559.79 1402.03 L1559.79 1402.03  Z
  " fill="#009af9" fill-rule="evenodd" fill-opacity="1"/>
<polyline clip-path="url(#clip042)" style="stroke:#000000; stroke-width:4; stroke-opacity:1; fill:none" points="
  1559.79,1402.03 1559.79,1445.72 1583.82,1445.72 1583.82,1402.03 1559.79,1402.03 
  "/>
<path clip-path="url(#clip042)" d="
M1583.82 1384.56 L1583.82 1445.72 L1607.84 1445.72 L1607.84 1384.56 L1583.82 1384.56 L1583.82 1384.56  Z
  " fill="#009af9" fill-rule="evenodd" fill-opacity="1"/>
<polyline clip-path="url(#clip042)" style="stroke:#000000; stroke-width:4; stroke-opacity:1; fill:none" points="
  1583.82,1384.56 1583.82,1445.72 1607.84,1445.72 1607.84,1384.56 1583.82,1384.56 
  "/>
<path clip-path="url(#clip042)" d="
M1607.84 1402.03 L1607.84 1445.72 L1631.87 1445.72 L1631.87 1402.03 L1607.84 1402.03 L1607.84 1402.03  Z
  " fill="#009af9" fill-rule="evenodd" fill-opacity="1"/>
<polyline clip-path="url(#clip042)" style="stroke:#000000; stroke-width:4; stroke-opacity:1; fill:none" points="
  1607.84,1402.03 1607.84,1445.72 1631.87,1445.72 1631.87,1402.03 1607.84,1402.03 
  "/>
<path clip-path="url(#clip042)" d="
M1631.87 1402.03 L1631.87 1445.72 L1655.89 1445.72 L1655.89 1402.03 L1631.87 1402.03 L1631.87 1402.03  Z
  " fill="#009af9" fill-rule="evenodd" fill-opacity="1"/>
<polyline clip-path="url(#clip042)" style="stroke:#000000; stroke-width:4; stroke-opacity:1; fill:none" points="
  1631.87,1402.03 1631.87,1445.72 1655.89,1445.72 1655.89,1402.03 1631.87,1402.03 
  "/>
<path clip-path="url(#clip042)" d="
M1655.89 1431.74 L1655.89 1445.72 L1679.92 1445.72 L1679.92 1431.74 L1655.89 1431.74 L1655.89 1431.74  Z
  " fill="#009af9" fill-rule="evenodd" fill-opacity="1"/>
<polyline clip-path="url(#clip042)" style="stroke:#000000; stroke-width:4; stroke-opacity:1; fill:none" points="
  1655.89,1431.74 1655.89,1445.72 1679.92,1445.72 1679.92,1431.74 1655.89,1431.74 
  "/>
<path clip-path="url(#clip042)" d="
M1679.92 1419.5 L1679.92 1445.72 L1703.94 1445.72 L1703.94 1419.5 L1679.92 1419.5 L1679.92 1419.5  Z
  " fill="#009af9" fill-rule="evenodd" fill-opacity="1"/>
<polyline clip-path="url(#clip042)" style="stroke:#000000; stroke-width:4; stroke-opacity:1; fill:none" points="
  1679.92,1419.5 1679.92,1445.72 1703.94,1445.72 1703.94,1419.5 1679.92,1419.5 
  "/>
<path clip-path="url(#clip042)" d="
M1703.94 1429.99 L1703.94 1445.72 L1727.97 1445.72 L1727.97 1429.99 L1703.94 1429.99 L1703.94 1429.99  Z
  " fill="#009af9" fill-rule="evenodd" fill-opacity="1"/>
<polyline clip-path="url(#clip042)" style="stroke:#000000; stroke-width:4; stroke-opacity:1; fill:none" points="
  1703.94,1429.99 1703.94,1445.72 1727.97,1445.72 1727.97,1429.99 1703.94,1429.99 
  "/>
<path clip-path="url(#clip042)" d="
M1727.97 1428.24 L1727.97 1445.72 L1751.99 1445.72 L1751.99 1428.24 L1727.97 1428.24 L1727.97 1428.24  Z
  " fill="#009af9" fill-rule="evenodd" fill-opacity="1"/>
<polyline clip-path="url(#clip042)" style="stroke:#000000; stroke-width:4; stroke-opacity:1; fill:none" points="
  1727.97,1428.24 1727.97,1445.72 1751.99,1445.72 1751.99,1428.24 1727.97,1428.24 
  "/>
<path clip-path="url(#clip042)" d="
M1751.99 1440.47 L1751.99 1445.72 L1776.02 1445.72 L1776.02 1440.47 L1751.99 1440.47 L1751.99 1440.47  Z
  " fill="#009af9" fill-rule="evenodd" fill-opacity="1"/>
<polyline clip-path="url(#clip042)" style="stroke:#000000; stroke-width:4; stroke-opacity:1; fill:none" points="
  1751.99,1440.47 1751.99,1445.72 1776.02,1445.72 1776.02,1440.47 1751.99,1440.47 
  "/>
<path clip-path="url(#clip042)" d="
M1776.02 1436.98 L1776.02 1445.72 L1800.04 1445.72 L1800.04 1436.98 L1776.02 1436.98 L1776.02 1436.98  Z
  " fill="#009af9" fill-rule="evenodd" fill-opacity="1"/>
<polyline clip-path="url(#clip042)" style="stroke:#000000; stroke-width:4; stroke-opacity:1; fill:none" points="
  1776.02,1436.98 1776.02,1445.72 1800.04,1445.72 1800.04,1436.98 1776.02,1436.98 
  "/>
<path clip-path="url(#clip042)" d="
M1800.04 1436.98 L1800.04 1445.72 L1824.07 1445.72 L1824.07 1436.98 L1800.04 1436.98 L1800.04 1436.98  Z
  " fill="#009af9" fill-rule="evenodd" fill-opacity="1"/>
<polyline clip-path="url(#clip042)" style="stroke:#000000; stroke-width:4; stroke-opacity:1; fill:none" points="
  1800.04,1436.98 1800.04,1445.72 1824.07,1445.72 1824.07,1436.98 1800.04,1436.98 
  "/>
<path clip-path="url(#clip042)" d="
M1824.07 1435.23 L1824.07 1445.72 L1848.09 1445.72 L1848.09 1435.23 L1824.07 1435.23 L1824.07 1435.23  Z
  " fill="#009af9" fill-rule="evenodd" fill-opacity="1"/>
<polyline clip-path="url(#clip042)" style="stroke:#000000; stroke-width:4; stroke-opacity:1; fill:none" points="
  1824.07,1435.23 1824.07,1445.72 1848.09,1445.72 1848.09,1435.23 1824.07,1435.23 
  "/>
<path clip-path="url(#clip042)" d="
M1848.09 1442.22 L1848.09 1445.72 L1872.12 1445.72 L1872.12 1442.22 L1848.09 1442.22 L1848.09 1442.22  Z
  " fill="#009af9" fill-rule="evenodd" fill-opacity="1"/>
<polyline clip-path="url(#clip042)" style="stroke:#000000; stroke-width:4; stroke-opacity:1; fill:none" points="
  1848.09,1442.22 1848.09,1445.72 1872.12,1445.72 1872.12,1442.22 1848.09,1442.22 
  "/>
<path clip-path="url(#clip042)" d="
M1872.12 1443.97 L1872.12 1445.72 L1896.14 1445.72 L1896.14 1443.97 L1872.12 1443.97 L1872.12 1443.97  Z
  " fill="#009af9" fill-rule="evenodd" fill-opacity="1"/>
<polyline clip-path="url(#clip042)" style="stroke:#000000; stroke-width:4; stroke-opacity:1; fill:none" points="
  1872.12,1443.97 1872.12,1445.72 1896.14,1445.72 1896.14,1443.97 1872.12,1443.97 
  "/>
<path clip-path="url(#clip042)" d="
M1896.14 1440.47 L1896.14 1445.72 L1920.17 1445.72 L1920.17 1440.47 L1896.14 1440.47 L1896.14 1440.47  Z
  " fill="#009af9" fill-rule="evenodd" fill-opacity="1"/>
<polyline clip-path="url(#clip042)" style="stroke:#000000; stroke-width:4; stroke-opacity:1; fill:none" points="
  1896.14,1440.47 1896.14,1445.72 1920.17,1445.72 1920.17,1440.47 1896.14,1440.47 
  "/>
<path clip-path="url(#clip042)" d="
M1920.17 1445.72 L1920.17 1445.72 L1944.19 1445.72 L1944.19 1445.72 L1920.17 1445.72 L1920.17 1445.72  Z
  " fill="#009af9" fill-rule="evenodd" fill-opacity="1"/>
<polyline clip-path="url(#clip042)" style="stroke:#000000; stroke-width:4; stroke-opacity:1; fill:none" points="
  1920.17,1445.72 1920.17,1445.72 1944.19,1445.72 1920.17,1445.72 
  "/>
<path clip-path="url(#clip042)" d="
M1944.19 1445.72 L1944.19 1445.72 L1968.22 1445.72 L1968.22 1445.72 L1944.19 1445.72 L1944.19 1445.72  Z
  " fill="#009af9" fill-rule="evenodd" fill-opacity="1"/>
<polyline clip-path="url(#clip042)" style="stroke:#000000; stroke-width:4; stroke-opacity:1; fill:none" points="
  1944.19,1445.72 1944.19,1445.72 1968.22,1445.72 1944.19,1445.72 
  "/>
<path clip-path="url(#clip042)" d="
M1968.22 1443.97 L1968.22 1445.72 L1992.24 1445.72 L1992.24 1443.97 L1968.22 1443.97 L1968.22 1443.97  Z
  " fill="#009af9" fill-rule="evenodd" fill-opacity="1"/>
<polyline clip-path="url(#clip042)" style="stroke:#000000; stroke-width:4; stroke-opacity:1; fill:none" points="
  1968.22,1443.97 1968.22,1445.72 1992.24,1445.72 1992.24,1443.97 1968.22,1443.97 
  "/>
<path clip-path="url(#clip042)" d="
M1992.24 1443.97 L1992.24 1445.72 L2016.27 1445.72 L2016.27 1443.97 L1992.24 1443.97 L1992.24 1443.97  Z
  " fill="#009af9" fill-rule="evenodd" fill-opacity="1"/>
<polyline clip-path="url(#clip042)" style="stroke:#000000; stroke-width:4; stroke-opacity:1; fill:none" points="
  1992.24,1443.97 1992.24,1445.72 2016.27,1445.72 2016.27,1443.97 1992.24,1443.97 
  "/>
<path clip-path="url(#clip042)" d="
M2016.27 1443.97 L2016.27 1445.72 L2040.29 1445.72 L2040.29 1443.97 L2016.27 1443.97 L2016.27 1443.97  Z
  " fill="#009af9" fill-rule="evenodd" fill-opacity="1"/>
<polyline clip-path="url(#clip042)" style="stroke:#000000; stroke-width:4; stroke-opacity:1; fill:none" points="
  2016.27,1443.97 2016.27,1445.72 2040.29,1445.72 2040.29,1443.97 2016.27,1443.97 
  "/>
<path clip-path="url(#clip042)" d="
M2040.29 1445.72 L2040.29 1445.72 L2064.32 1445.72 L2064.32 1445.72 L2040.29 1445.72 L2040.29 1445.72  Z
  " fill="#009af9" fill-rule="evenodd" fill-opacity="1"/>
<polyline clip-path="url(#clip042)" style="stroke:#000000; stroke-width:4; stroke-opacity:1; fill:none" points="
  2040.29,1445.72 2040.29,1445.72 2064.32,1445.72 2040.29,1445.72 
  "/>
<path clip-path="url(#clip042)" d="
M2064.32 1445.72 L2064.32 1445.72 L2088.34 1445.72 L2088.34 1445.72 L2064.32 1445.72 L2064.32 1445.72  Z
  " fill="#009af9" fill-rule="evenodd" fill-opacity="1"/>
<polyline clip-path="url(#clip042)" style="stroke:#000000; stroke-width:4; stroke-opacity:1; fill:none" points="
  2064.32,1445.72 2064.32,1445.72 2088.34,1445.72 2064.32,1445.72 
  "/>
<path clip-path="url(#clip042)" d="
M2088.34 1445.72 L2088.34 1445.72 L2112.37 1445.72 L2112.37 1445.72 L2088.34 1445.72 L2088.34 1445.72  Z
  " fill="#009af9" fill-rule="evenodd" fill-opacity="1"/>
<polyline clip-path="url(#clip042)" style="stroke:#000000; stroke-width:4; stroke-opacity:1; fill:none" points="
  2088.34,1445.72 2088.34,1445.72 2112.37,1445.72 2088.34,1445.72 
  "/>
<path clip-path="url(#clip042)" d="
M2112.37 1445.72 L2112.37 1445.72 L2136.39 1445.72 L2136.39 1445.72 L2112.37 1445.72 L2112.37 1445.72  Z
  " fill="#009af9" fill-rule="evenodd" fill-opacity="1"/>
<polyline clip-path="url(#clip042)" style="stroke:#000000; stroke-width:4; stroke-opacity:1; fill:none" points="
  2112.37,1445.72 2112.37,1445.72 2136.39,1445.72 2112.37,1445.72 
  "/>
<path clip-path="url(#clip042)" d="
M2136.39 1445.72 L2136.39 1445.72 L2160.42 1445.72 L2160.42 1445.72 L2136.39 1445.72 L2136.39 1445.72  Z
  " fill="#009af9" fill-rule="evenodd" fill-opacity="1"/>
<polyline clip-path="url(#clip042)" style="stroke:#000000; stroke-width:4; stroke-opacity:1; fill:none" points="
  2136.39,1445.72 2136.39,1445.72 2160.42,1445.72 2136.39,1445.72 
  "/>
<path clip-path="url(#clip042)" d="
M2160.42 1445.72 L2160.42 1445.72 L2184.44 1445.72 L2184.44 1445.72 L2160.42 1445.72 L2160.42 1445.72  Z
  " fill="#009af9" fill-rule="evenodd" fill-opacity="1"/>
<polyline clip-path="url(#clip042)" style="stroke:#000000; stroke-width:4; stroke-opacity:1; fill:none" points="
  2160.42,1445.72 2160.42,1445.72 2184.44,1445.72 2160.42,1445.72 
  "/>
<path clip-path="url(#clip042)" d="
M2184.44 1445.72 L2184.44 1445.72 L2208.47 1445.72 L2208.47 1445.72 L2184.44 1445.72 L2184.44 1445.72  Z
  " fill="#009af9" fill-rule="evenodd" fill-opacity="1"/>
<polyline clip-path="url(#clip042)" style="stroke:#000000; stroke-width:4; stroke-opacity:1; fill:none" points="
  2184.44,1445.72 2184.44,1445.72 2208.47,1445.72 2184.44,1445.72 
  "/>
<path clip-path="url(#clip042)" d="
M2208.47 1443.97 L2208.47 1445.72 L2232.49 1445.72 L2232.49 1443.97 L2208.47 1443.97 L2208.47 1443.97  Z
  " fill="#009af9" fill-rule="evenodd" fill-opacity="1"/>
<polyline clip-path="url(#clip042)" style="stroke:#000000; stroke-width:4; stroke-opacity:1; fill:none" points="
  2208.47,1443.97 2208.47,1445.72 2232.49,1445.72 2232.49,1443.97 2208.47,1443.97 
  "/>
<path clip-path="url(#clip040)" d="
M1989.74 251.724 L2280.76 251.724 L2280.76 130.764 L1989.74 130.764  Z
  " fill="#ffffff" fill-rule="evenodd" fill-opacity="1"/>
<polyline clip-path="url(#clip040)" style="stroke:#000000; stroke-width:4; stroke-opacity:1; fill:none" points="
  1989.74,251.724 2280.76,251.724 2280.76,130.764 1989.74,130.764 1989.74,251.724 
  "/>
<path clip-path="url(#clip040)" d="
M2013.74 215.436 L2157.74 215.436 L2157.74 167.052 L2013.74 167.052 L2013.74 215.436  Z
  " fill="#009af9" fill-rule="evenodd" fill-opacity="1"/>
<polyline clip-path="url(#clip040)" style="stroke:#000000; stroke-width:4; stroke-opacity:1; fill:none" points="
  2013.74,215.436 2157.74,215.436 2157.74,167.052 2013.74,167.052 2013.74,215.436 
  "/>
<path clip-path="url(#clip040)" d="M 0 0 M2195.58 210.931 Q2193.77 215.561 2192.06 216.973 Q2190.35 218.385 2187.48 218.385 L2184.08 218.385 L2184.08 214.82 L2186.58 214.82 Q2188.33 214.82 2189.31 213.987 Q2190.28 213.154 2191.46 210.052 L2192.22 208.107 L2181.74 182.598 L2186.25 182.598 L2194.35 202.876 L2202.46 182.598 L2206.97 182.598 L2195.58 210.931 Z" fill="#000000" fill-rule="evenodd" fill-opacity="1" /><path clip-path="url(#clip040)" d="M 0 0 M2212.85 204.589 L2220.49 204.589 L2220.49 178.223 L2212.18 179.89 L2212.18 175.631 L2220.44 173.964 L2225.12 173.964 L2225.12 204.589 L2232.76 204.589 L2232.76 208.524 L2212.85 208.524 L2212.85 204.589 Z" fill="#000000" fill-rule="evenodd" fill-opacity="1" /></svg>
