<?xml version="1.0" encoding="utf-8"?>
<svg xmlns="http://www.w3.org/2000/svg" xmlns:xlink="http://www.w3.org/1999/xlink" width="600" height="400" viewBox="0 0 2400 1600">
<defs>
  <clipPath id="clip790">
    <rect x="0" y="0" width="2400" height="1600"/>
  </clipPath>
</defs>
<path clip-path="url(#clip790)" d="
M0 1600 L2400 1600 L2400 0 L0 0  Z
  " fill="#ffffff" fill-rule="evenodd" fill-opacity="1"/>
<defs>
  <clipPath id="clip791">
    <rect x="480" y="0" width="1681" height="1600"/>
  </clipPath>
</defs>
<path clip-path="url(#clip790)" d="
M166.205 1486.45 L2352.76 1486.45 L2352.76 47.2441 L166.205 47.2441  Z
  " fill="#ffffff" fill-rule="evenodd" fill-opacity="1"/>
<defs>
  <clipPath id="clip792">
    <rect x="166" y="47" width="2188" height="1440"/>
  </clipPath>
</defs>
<polyline clip-path="url(#clip792)" style="stroke:#000000; stroke-width:2; stroke-opacity:0.1; fill:none" points="
  486.061,1486.45 486.061,47.2441 
  "/>
<polyline clip-path="url(#clip792)" style="stroke:#000000; stroke-width:2; stroke-opacity:0.1; fill:none" points="
  860.296,1486.45 860.296,47.2441 
  "/>
<polyline clip-path="url(#clip792)" style="stroke:#000000; stroke-width:2; stroke-opacity:0.1; fill:none" points="
  1234.53,1486.45 1234.53,47.2441 
  "/>
<polyline clip-path="url(#clip792)" style="stroke:#000000; stroke-width:2; stroke-opacity:0.1; fill:none" points="
  1608.77,1486.45 1608.77,47.2441 
  "/>
<polyline clip-path="url(#clip792)" style="stroke:#000000; stroke-width:2; stroke-opacity:0.1; fill:none" points="
  1983,1486.45 1983,47.2441 
  "/>
<polyline clip-path="url(#clip792)" style="stroke:#000000; stroke-width:2; stroke-opacity:0.1; fill:none" points="
  166.205,1445.72 2352.76,1445.72 
  "/>
<polyline clip-path="url(#clip792)" style="stroke:#000000; stroke-width:2; stroke-opacity:0.1; fill:none" points="
  166.205,1105.86 2352.76,1105.86 
  "/>
<polyline clip-path="url(#clip792)" style="stroke:#000000; stroke-width:2; stroke-opacity:0.1; fill:none" points="
  166.205,765.996 2352.76,765.996 
  "/>
<polyline clip-path="url(#clip792)" style="stroke:#000000; stroke-width:2; stroke-opacity:0.1; fill:none" points="
  166.205,426.137 2352.76,426.137 
  "/>
<polyline clip-path="url(#clip792)" style="stroke:#000000; stroke-width:2; stroke-opacity:0.1; fill:none" points="
  166.205,86.277 2352.76,86.277 
  "/>
<polyline clip-path="url(#clip790)" style="stroke:#000000; stroke-width:4; stroke-opacity:1; fill:none" points="
  166.205,1486.45 2352.76,1486.45 
  "/>
<polyline clip-path="url(#clip790)" style="stroke:#000000; stroke-width:4; stroke-opacity:1; fill:none" points="
  166.205,1486.45 166.205,47.2441 
  "/>
<polyline clip-path="url(#clip790)" style="stroke:#000000; stroke-width:4; stroke-opacity:1; fill:none" points="
  486.061,1486.45 486.061,1469.18 
  "/>
<polyline clip-path="url(#clip790)" style="stroke:#000000; stroke-width:4; stroke-opacity:1; fill:none" points="
  860.296,1486.45 860.296,1469.18 
  "/>
<polyline clip-path="url(#clip790)" style="stroke:#000000; stroke-width:4; stroke-opacity:1; fill:none" points="
  1234.53,1486.45 1234.53,1469.18 
  "/>
<polyline clip-path="url(#clip790)" style="stroke:#000000; stroke-width:4; stroke-opacity:1; fill:none" points="
  1608.77,1486.45 1608.77,1469.18 
  "/>
<polyline clip-path="url(#clip790)" style="stroke:#000000; stroke-width:4; stroke-opacity:1; fill:none" points="
  1983,1486.45 1983,1469.18 
  "/>
<polyline clip-path="url(#clip790)" style="stroke:#000000; stroke-width:4; stroke-opacity:1; fill:none" points="
  166.205,1445.72 192.443,1445.72 
  "/>
<polyline clip-path="url(#clip790)" style="stroke:#000000; stroke-width:4; stroke-opacity:1; fill:none" points="
  166.205,1105.86 192.443,1105.86 
  "/>
<polyline clip-path="url(#clip790)" style="stroke:#000000; stroke-width:4; stroke-opacity:1; fill:none" points="
  166.205,765.996 192.443,765.996 
  "/>
<polyline clip-path="url(#clip790)" style="stroke:#000000; stroke-width:4; stroke-opacity:1; fill:none" points="
  166.205,426.137 192.443,426.137 
  "/>
<polyline clip-path="url(#clip790)" style="stroke:#000000; stroke-width:4; stroke-opacity:1; fill:none" points="
  166.205,86.277 192.443,86.277 
  "/>
<path clip-path="url(#clip790)" d="M 0 0 M466.235 1525.04 L478.711 1525.04 L478.711 1528.83 L466.235 1528.83 L466.235 1525.04 Z" fill="#000000" fill-rule="evenodd" fill-opacity="1" /><path clip-path="url(#clip790)" d="M 0 0 M494.36 1520.78 Q491.211 1520.78 489.36 1522.93 Q487.531 1525.08 487.531 1528.83 Q487.531 1532.56 489.36 1534.73 Q491.211 1536.89 494.36 1536.89 Q497.508 1536.89 499.336 1534.73 Q501.188 1532.56 501.188 1528.83 Q501.188 1525.08 499.336 1522.93 Q497.508 1520.78 494.36 1520.78 M503.642 1506.12 L503.642 1510.38 Q501.883 1509.55 500.077 1509.11 Q498.295 1508.67 496.535 1508.67 Q491.906 1508.67 489.452 1511.8 Q487.022 1514.92 486.674 1521.24 Q488.04 1519.23 490.1 1518.16 Q492.16 1517.07 494.637 1517.07 Q499.846 1517.07 502.855 1520.24 Q505.887 1523.39 505.887 1528.83 Q505.887 1534.16 502.739 1537.37 Q499.591 1540.59 494.36 1540.59 Q488.364 1540.59 485.193 1536.01 Q482.022 1531.4 482.022 1522.67 Q482.022 1514.48 485.91 1509.62 Q489.799 1504.73 496.35 1504.73 Q498.11 1504.73 499.892 1505.08 Q501.697 1505.43 503.642 1506.12 Z" fill="#000000" fill-rule="evenodd" fill-opacity="1" /><path clip-path="url(#clip790)" d="M 0 0 M840.875 1525.04 L853.352 1525.04 L853.352 1528.83 L840.875 1528.83 L840.875 1525.04 Z" fill="#000000" fill-rule="evenodd" fill-opacity="1" /><path clip-path="url(#clip790)" d="M 0 0 M872.588 1521.29 Q875.944 1522 877.819 1524.27 Q879.717 1526.54 879.717 1529.87 Q879.717 1534.99 876.199 1537.79 Q872.68 1540.59 866.199 1540.59 Q864.023 1540.59 861.708 1540.15 Q859.416 1539.73 856.963 1538.88 L856.963 1534.36 Q858.907 1535.5 861.222 1536.08 Q863.537 1536.66 866.06 1536.66 Q870.458 1536.66 872.75 1534.92 Q875.065 1533.18 875.065 1529.87 Q875.065 1526.82 872.912 1525.11 Q870.782 1523.37 866.963 1523.37 L862.935 1523.37 L862.935 1519.53 L867.148 1519.53 Q870.597 1519.53 872.426 1518.16 Q874.254 1516.77 874.254 1514.18 Q874.254 1511.52 872.356 1510.11 Q870.481 1508.67 866.963 1508.67 Q865.041 1508.67 862.842 1509.09 Q860.643 1509.5 858.004 1510.38 L858.004 1506.22 Q860.666 1505.48 862.981 1505.11 Q865.319 1504.73 867.379 1504.73 Q872.703 1504.73 875.805 1507.17 Q878.907 1509.57 878.907 1513.69 Q878.907 1516.56 877.264 1518.55 Q875.62 1520.52 872.588 1521.29 Z" fill="#000000" fill-rule="evenodd" fill-opacity="1" /><path clip-path="url(#clip790)" d="M 0 0 M1234.53 1508.44 Q1230.92 1508.44 1229.09 1512 Q1227.29 1515.55 1227.29 1522.67 Q1227.29 1529.78 1229.09 1533.35 Q1230.92 1536.89 1234.53 1536.89 Q1238.17 1536.89 1239.97 1533.35 Q1241.8 1529.78 1241.8 1522.67 Q1241.8 1515.55 1239.97 1512 Q1238.17 1508.44 1234.53 1508.44 M1234.53 1504.73 Q1240.34 1504.73 1243.4 1509.34 Q1246.48 1513.92 1246.48 1522.67 Q1246.48 1531.4 1243.4 1536.01 Q1240.34 1540.59 1234.53 1540.59 Q1228.72 1540.59 1225.64 1536.01 Q1222.59 1531.4 1222.59 1522.67 Q1222.59 1513.92 1225.64 1509.34 Q1228.72 1504.73 1234.53 1504.73 Z" fill="#000000" fill-rule="evenodd" fill-opacity="1" /><path clip-path="url(#clip790)" d="M 0 0 M1613.01 1521.29 Q1616.37 1522 1618.25 1524.27 Q1620.14 1526.54 1620.14 1529.87 Q1620.14 1534.99 1616.63 1537.79 Q1613.11 1540.59 1606.63 1540.59 Q1604.45 1540.59 1602.13 1540.15 Q1599.84 1539.73 1597.39 1538.88 L1597.39 1534.36 Q1599.33 1535.5 1601.65 1536.08 Q1603.96 1536.66 1606.49 1536.66 Q1610.88 1536.66 1613.18 1534.92 Q1615.49 1533.18 1615.49 1529.87 Q1615.49 1526.82 1613.34 1525.11 Q1611.21 1523.37 1607.39 1523.37 L1603.36 1523.37 L1603.36 1519.53 L1607.57 1519.53 Q1611.02 1519.53 1612.85 1518.16 Q1614.68 1516.77 1614.68 1514.18 Q1614.68 1511.52 1612.78 1510.11 Q1610.91 1508.67 1607.39 1508.67 Q1605.47 1508.67 1603.27 1509.09 Q1601.07 1509.5 1598.43 1510.38 L1598.43 1506.22 Q1601.09 1505.48 1603.41 1505.11 Q1605.75 1504.73 1607.81 1504.73 Q1613.13 1504.73 1616.23 1507.17 Q1619.33 1509.57 1619.33 1513.69 Q1619.33 1516.56 1617.69 1518.55 Q1616.05 1520.52 1613.01 1521.29 Z" fill="#000000" fill-rule="evenodd" fill-opacity="1" /><path clip-path="url(#clip790)" d="M 0 0 M1983.41 1520.78 Q1980.26 1520.78 1978.41 1522.93 Q1976.58 1525.08 1976.58 1528.83 Q1976.58 1532.56 1978.41 1534.73 Q1980.26 1536.89 1983.41 1536.89 Q1986.55 1536.89 1988.38 1534.73 Q1990.24 1532.56 1990.24 1528.83 Q1990.24 1525.08 1988.38 1522.93 Q1986.55 1520.78 1983.41 1520.78 M1992.69 1506.12 L1992.69 1510.38 Q1990.93 1509.55 1989.12 1509.11 Q1987.34 1508.67 1985.58 1508.67 Q1980.95 1508.67 1978.5 1511.8 Q1976.07 1514.92 1975.72 1521.24 Q1977.09 1519.23 1979.15 1518.16 Q1981.21 1517.07 1983.68 1517.07 Q1988.89 1517.07 1991.9 1520.24 Q1994.93 1523.39 1994.93 1528.83 Q1994.93 1534.16 1991.79 1537.37 Q1988.64 1540.59 1983.41 1540.59 Q1977.41 1540.59 1974.24 1536.01 Q1971.07 1531.4 1971.07 1522.67 Q1971.07 1514.48 1974.96 1509.62 Q1978.85 1504.73 1985.4 1504.73 Q1987.16 1504.73 1988.94 1505.08 Q1990.74 1505.43 1992.69 1506.12 Z" fill="#000000" fill-rule="evenodd" fill-opacity="1" /><path clip-path="url(#clip790)" d="M 0 0 M130.26 1431.51 Q126.649 1431.51 124.82 1435.08 Q123.015 1438.62 123.015 1445.75 Q123.015 1452.86 124.82 1456.42 Q126.649 1459.96 130.26 1459.96 Q133.895 1459.96 135.7 1456.42 Q137.529 1452.86 137.529 1445.75 Q137.529 1438.62 135.7 1435.08 Q133.895 1431.51 130.26 1431.51 M130.26 1427.81 Q136.07 1427.81 139.126 1432.42 Q142.205 1437 142.205 1445.75 Q142.205 1454.48 139.126 1459.08 Q136.07 1463.67 130.26 1463.67 Q124.45 1463.67 121.371 1459.08 Q118.316 1454.48 118.316 1445.75 Q118.316 1437 121.371 1432.42 Q124.45 1427.81 130.26 1427.81 Z" fill="#000000" fill-rule="evenodd" fill-opacity="1" /><path clip-path="url(#clip790)" d="M 0 0 M71.8578 1119.2 L88.1772 1119.2 L88.1772 1123.14 L66.2328 1123.14 L66.2328 1119.2 Q68.8949 1116.45 73.4782 1111.82 Q78.0846 1107.16 79.2652 1105.82 Q81.5105 1103.3 82.3902 1101.56 Q83.2929 1099.8 83.2929 1098.11 Q83.2929 1095.36 81.3485 1093.62 Q79.4272 1091.89 76.3254 1091.89 Q74.1263 1091.89 71.6726 1092.65 Q69.2421 1093.41 66.4643 1094.96 L66.4643 1090.24 Q69.2884 1089.11 71.7421 1088.53 Q74.1958 1087.95 76.2328 1087.95 Q81.6031 1087.95 84.7976 1090.64 Q87.992 1093.32 87.992 1097.81 Q87.992 1099.94 87.1818 1101.86 Q86.3948 1103.76 84.2883 1106.35 Q83.7096 1107.02 80.6078 1110.24 Q77.5059 1113.44 71.8578 1119.2 Z" fill="#000000" fill-rule="evenodd" fill-opacity="1" /><path clip-path="url(#clip790)" d="M 0 0 M103.247 1091.65 Q99.6354 1091.65 97.8068 1095.22 Q96.0012 1098.76 96.0012 1105.89 Q96.0012 1113 97.8068 1116.56 Q99.6354 1120.1 103.247 1120.1 Q106.881 1120.1 108.686 1116.56 Q110.515 1113 110.515 1105.89 Q110.515 1098.76 108.686 1095.22 Q106.881 1091.65 103.247 1091.65 M103.247 1087.95 Q109.057 1087.95 112.112 1092.56 Q115.191 1097.14 115.191 1105.89 Q115.191 1114.62 112.112 1119.22 Q109.057 1123.81 103.247 1123.81 Q97.4364 1123.81 94.3577 1119.22 Q91.3022 1114.62 91.3022 1105.89 Q91.3022 1097.14 94.3577 1092.56 Q97.4364 1087.95 103.247 1087.95 Z" fill="#000000" fill-rule="evenodd" fill-opacity="1" /><path clip-path="url(#clip790)" d="M 0 0 M130.26 1091.65 Q126.649 1091.65 124.82 1095.22 Q123.015 1098.76 123.015 1105.89 Q123.015 1113 124.82 1116.56 Q126.649 1120.1 130.26 1120.1 Q133.895 1120.1 135.7 1116.56 Q137.529 1113 137.529 1105.89 Q137.529 1098.76 135.7 1095.22 Q133.895 1091.65 130.26 1091.65 M130.26 1087.95 Q136.07 1087.95 139.126 1092.56 Q142.205 1097.14 142.205 1105.89 Q142.205 1114.62 139.126 1119.22 Q136.07 1123.81 130.26 1123.81 Q124.45 1123.81 121.371 1119.22 Q118.316 1114.62 118.316 1105.89 Q118.316 1097.14 121.371 1092.56 Q124.45 1087.95 130.26 1087.95 Z" fill="#000000" fill-rule="evenodd" fill-opacity="1" /><path clip-path="url(#clip790)" d="M 0 0 M78.5939 752.79 L66.7884 771.239 L78.5939 771.239 L78.5939 752.79 M77.367 748.716 L83.2466 748.716 L83.2466 771.239 L88.1772 771.239 L88.1772 775.128 L83.2466 775.128 L83.2466 783.276 L78.5939 783.276 L78.5939 775.128 L62.9921 775.128 L62.9921 770.614 L77.367 748.716 Z" fill="#000000" fill-rule="evenodd" fill-opacity="1" /><path clip-path="url(#clip790)" d="M 0 0 M103.247 751.795 Q99.6354 751.795 97.8068 755.36 Q96.0012 758.901 96.0012 766.031 Q96.0012 773.138 97.8068 776.702 Q99.6354 780.244 103.247 780.244 Q106.881 780.244 108.686 776.702 Q110.515 773.138 110.515 766.031 Q110.515 758.901 108.686 755.36 Q106.881 751.795 103.247 751.795 M103.247 748.091 Q109.057 748.091 112.112 752.698 Q115.191 757.281 115.191 766.031 Q115.191 774.758 112.112 779.364 Q109.057 783.948 103.247 783.948 Q97.4364 783.948 94.3577 779.364 Q91.3022 774.758 91.3022 766.031 Q91.3022 757.281 94.3577 752.698 Q97.4364 748.091 103.247 748.091 Z" fill="#000000" fill-rule="evenodd" fill-opacity="1" /><path clip-path="url(#clip790)" d="M 0 0 M130.26 751.795 Q126.649 751.795 124.82 755.36 Q123.015 758.901 123.015 766.031 Q123.015 773.138 124.82 776.702 Q126.649 780.244 130.26 780.244 Q133.895 780.244 135.7 776.702 Q137.529 773.138 137.529 766.031 Q137.529 758.901 135.7 755.36 Q133.895 751.795 130.26 751.795 M130.26 748.091 Q136.07 748.091 139.126 752.698 Q142.205 757.281 142.205 766.031 Q142.205 774.758 139.126 779.364 Q136.07 783.948 130.26 783.948 Q124.45 783.948 121.371 779.364 Q118.316 774.758 118.316 766.031 Q118.316 757.281 121.371 752.698 Q124.45 748.091 130.26 748.091 Z" fill="#000000" fill-rule="evenodd" fill-opacity="1" /><path clip-path="url(#clip790)" d="M 0 0 M76.6495 424.273 Q73.5013 424.273 71.6495 426.426 Q69.8208 428.579 69.8208 432.329 Q69.8208 436.056 71.6495 438.231 Q73.5013 440.384 76.6495 440.384 Q79.7976 440.384 81.6263 438.231 Q83.4781 436.056 83.4781 432.329 Q83.4781 428.579 81.6263 426.426 Q79.7976 424.273 76.6495 424.273 M85.9318 409.621 L85.9318 413.88 Q84.1726 413.046 82.367 412.607 Q80.5846 412.167 78.8254 412.167 Q74.1958 412.167 71.7421 415.292 Q69.3115 418.417 68.9643 424.736 Q70.33 422.722 72.3902 421.658 Q74.4504 420.57 76.9272 420.57 Q82.1355 420.57 85.1448 423.741 Q88.1772 426.889 88.1772 432.329 Q88.1772 437.653 85.029 440.87 Q81.8809 444.088 76.6495 444.088 Q70.6541 444.088 67.4828 439.505 Q64.3116 434.898 64.3116 426.171 Q64.3116 417.977 68.2004 413.116 Q72.0893 408.232 78.6402 408.232 Q80.3994 408.232 82.1818 408.579 Q83.9874 408.926 85.9318 409.621 Z" fill="#000000" fill-rule="evenodd" fill-opacity="1" /><path clip-path="url(#clip790)" d="M 0 0 M103.247 411.935 Q99.6354 411.935 97.8068 415.5 Q96.0012 419.042 96.0012 426.171 Q96.0012 433.278 97.8068 436.843 Q99.6354 440.384 103.247 440.384 Q106.881 440.384 108.686 436.843 Q110.515 433.278 110.515 426.171 Q110.515 419.042 108.686 415.5 Q106.881 411.935 103.247 411.935 M103.247 408.232 Q109.057 408.232 112.112 412.838 Q115.191 417.421 115.191 426.171 Q115.191 434.898 112.112 439.505 Q109.057 444.088 103.247 444.088 Q97.4364 444.088 94.3577 439.505 Q91.3022 434.898 91.3022 426.171 Q91.3022 417.421 94.3577 412.838 Q97.4364 408.232 103.247 408.232 Z" fill="#000000" fill-rule="evenodd" fill-opacity="1" /><path clip-path="url(#clip790)" d="M 0 0 M130.26 411.935 Q126.649 411.935 124.82 415.5 Q123.015 419.042 123.015 426.171 Q123.015 433.278 124.82 436.843 Q126.649 440.384 130.26 440.384 Q133.895 440.384 135.7 436.843 Q137.529 433.278 137.529 426.171 Q137.529 419.042 135.7 415.5 Q133.895 411.935 130.26 411.935 M130.26 408.232 Q136.07 408.232 139.126 412.838 Q142.205 417.421 142.205 426.171 Q142.205 434.898 139.126 439.505 Q136.07 444.088 130.26 444.088 Q124.45 444.088 121.371 439.505 Q118.316 434.898 118.316 426.171 Q118.316 417.421 121.371 412.838 Q124.45 408.232 130.26 408.232 Z" fill="#000000" fill-rule="evenodd" fill-opacity="1" /><path clip-path="url(#clip790)" d="M 0 0 M76.3254 87.145 Q72.9921 87.145 71.0708 88.9274 Q69.1726 90.7098 69.1726 93.8348 Q69.1726 96.9598 71.0708 98.7422 Q72.9921 100.525 76.3254 100.525 Q79.6587 100.525 81.58 98.7422 Q83.5013 96.9366 83.5013 93.8348 Q83.5013 90.7098 81.58 88.9274 Q79.6819 87.145 76.3254 87.145 M71.6495 85.1543 Q68.6402 84.4136 66.9504 82.3534 Q65.2838 80.2932 65.2838 77.3303 Q65.2838 73.1868 68.2236 70.7794 Q71.1865 68.372 76.3254 68.372 Q81.4874 68.372 84.4272 70.7794 Q87.367 73.1868 87.367 77.3303 Q87.367 80.2932 85.6772 82.3534 Q84.0105 84.4136 81.0244 85.1543 Q84.404 85.9413 86.279 88.233 Q88.1772 90.5246 88.1772 93.8348 Q88.1772 98.8579 85.0985 101.543 Q82.0429 104.228 76.3254 104.228 Q70.6078 104.228 67.5291 101.543 Q64.4736 98.8579 64.4736 93.8348 Q64.4736 90.5246 66.3717 88.233 Q68.2699 85.9413 71.6495 85.1543 M69.9365 77.7701 Q69.9365 80.4553 71.6032 81.9599 Q73.293 83.4645 76.3254 83.4645 Q79.3346 83.4645 81.0244 81.9599 Q82.7374 80.4553 82.7374 77.7701 Q82.7374 75.0849 81.0244 73.5803 Q79.3346 72.0757 76.3254 72.0757 Q73.293 72.0757 71.6032 73.5803 Q69.9365 75.0849 69.9365 77.7701 Z" fill="#000000" fill-rule="evenodd" fill-opacity="1" /><path clip-path="url(#clip790)" d="M 0 0 M103.247 72.0757 Q99.6354 72.0757 97.8068 75.6405 Q96.0012 79.1821 96.0012 86.3117 Q96.0012 93.4181 97.8068 96.9829 Q99.6354 100.525 103.247 100.525 Q106.881 100.525 108.686 96.9829 Q110.515 93.4181 110.515 86.3117 Q110.515 79.1821 108.686 75.6405 Q106.881 72.0757 103.247 72.0757 M103.247 68.372 Q109.057 68.372 112.112 72.9784 Q115.191 77.5617 115.191 86.3117 Q115.191 95.0385 112.112 99.645 Q109.057 104.228 103.247 104.228 Q97.4364 104.228 94.3577 99.645 Q91.3022 95.0385 91.3022 86.3117 Q91.3022 77.5617 94.3577 72.9784 Q97.4364 68.372 103.247 68.372 Z" fill="#000000" fill-rule="evenodd" fill-opacity="1" /><path clip-path="url(#clip790)" d="M 0 0 M130.26 72.0757 Q126.649 72.0757 124.82 75.6405 Q123.015 79.1821 123.015 86.3117 Q123.015 93.4181 124.82 96.9829 Q126.649 100.525 130.26 100.525 Q133.895 100.525 135.7 96.9829 Q137.529 93.4181 137.529 86.3117 Q137.529 79.1821 135.7 75.6405 Q133.895 72.0757 130.26 72.0757 M130.26 68.372 Q136.07 68.372 139.126 72.9784 Q142.205 77.5617 142.205 86.3117 Q142.205 95.0385 139.126 99.645 Q136.07 104.228 130.26 104.228 Q124.45 104.228 121.371 99.645 Q118.316 95.0385 118.316 86.3117 Q118.316 77.5617 121.371 72.9784 Q124.45 68.372 130.26 68.372 Z" fill="#000000" fill-rule="evenodd" fill-opacity="1" /><path clip-path="url(#clip792)" d="
M286.469 1444.02 L286.469 1445.72 L311.418 1445.72 L311.418 1444.02 L286.469 1444.02 L286.469 1444.02  Z
  " fill="#009af9" fill-rule="evenodd" fill-opacity="1"/>
<polyline clip-path="url(#clip792)" style="stroke:#000000; stroke-width:4; stroke-opacity:1; fill:none" points="
  286.469,1444.02 286.469,1445.72 311.418,1445.72 311.418,1444.02 286.469,1444.02 
  "/>
<path clip-path="url(#clip792)" d="
M311.418 1444.02 L311.418 1445.72 L336.367 1445.72 L336.367 1444.02 L311.418 1444.02 L311.418 1444.02  Z
  " fill="#009af9" fill-rule="evenodd" fill-opacity="1"/>
<polyline clip-path="url(#clip792)" style="stroke:#000000; stroke-width:4; stroke-opacity:1; fill:none" points="
  311.418,1444.02 311.418,1445.72 336.367,1445.72 336.367,1444.02 311.418,1444.02 
  "/>
<path clip-path="url(#clip792)" d="
M336.367 1445.72 L336.367 1445.72 L361.316 1445.72 L361.316 1445.72 L336.367 1445.72 L336.367 1445.72  Z
  " fill="#009af9" fill-rule="evenodd" fill-opacity="1"/>
<polyline clip-path="url(#clip792)" style="stroke:#000000; stroke-width:4; stroke-opacity:1; fill:none" points="
  336.367,1445.72 336.367,1445.72 361.316,1445.72 336.367,1445.72 
  "/>
<path clip-path="url(#clip792)" d="
M361.316 1445.72 L361.316 1445.72 L386.265 1445.72 L386.265 1445.72 L361.316 1445.72 L361.316 1445.72  Z
  " fill="#009af9" fill-rule="evenodd" fill-opacity="1"/>
<polyline clip-path="url(#clip792)" style="stroke:#000000; stroke-width:4; stroke-opacity:1; fill:none" points="
  361.316,1445.72 361.316,1445.72 386.265,1445.72 361.316,1445.72 
  "/>
<path clip-path="url(#clip792)" d="
M386.265 1445.72 L386.265 1445.72 L411.214 1445.72 L411.214 1445.72 L386.265 1445.72 L386.265 1445.72  Z
  " fill="#009af9" fill-rule="evenodd" fill-opacity="1"/>
<polyline clip-path="url(#clip792)" style="stroke:#000000; stroke-width:4; stroke-opacity:1; fill:none" points="
  386.265,1445.72 386.265,1445.72 411.214,1445.72 386.265,1445.72 
  "/>
<path clip-path="url(#clip792)" d="
M411.214 1444.02 L411.214 1445.72 L436.163 1445.72 L436.163 1444.02 L411.214 1444.02 L411.214 1444.02  Z
  " fill="#009af9" fill-rule="evenodd" fill-opacity="1"/>
<polyline clip-path="url(#clip792)" style="stroke:#000000; stroke-width:4; stroke-opacity:1; fill:none" points="
  411.214,1444.02 411.214,1445.72 436.163,1445.72 436.163,1444.02 411.214,1444.02 
  "/>
<path clip-path="url(#clip792)" d="
M436.163 1445.72 L436.163 1445.72 L461.112 1445.72 L461.112 1445.72 L436.163 1445.72 L436.163 1445.72  Z
  " fill="#009af9" fill-rule="evenodd" fill-opacity="1"/>
<polyline clip-path="url(#clip792)" style="stroke:#000000; stroke-width:4; stroke-opacity:1; fill:none" points="
  436.163,1445.72 436.163,1445.72 461.112,1445.72 436.163,1445.72 
  "/>
<path clip-path="url(#clip792)" d="
M461.112 1440.62 L461.112 1445.72 L486.061 1445.72 L486.061 1440.62 L461.112 1440.62 L461.112 1440.62  Z
  " fill="#009af9" fill-rule="evenodd" fill-opacity="1"/>
<polyline clip-path="url(#clip792)" style="stroke:#000000; stroke-width:4; stroke-opacity:1; fill:none" points="
  461.112,1440.62 461.112,1445.72 486.061,1445.72 486.061,1440.62 461.112,1440.62 
  "/>
<path clip-path="url(#clip792)" d="
M486.061 1444.02 L486.061 1445.72 L511.01 1445.72 L511.01 1444.02 L486.061 1444.02 L486.061 1444.02  Z
  " fill="#009af9" fill-rule="evenodd" fill-opacity="1"/>
<polyline clip-path="url(#clip792)" style="stroke:#000000; stroke-width:4; stroke-opacity:1; fill:none" points="
  486.061,1444.02 486.061,1445.72 511.01,1445.72 511.01,1444.02 486.061,1444.02 
  "/>
<path clip-path="url(#clip792)" d="
M511.01 1442.32 L511.01 1445.72 L535.959 1445.72 L535.959 1442.32 L511.01 1442.32 L511.01 1442.32  Z
  " fill="#009af9" fill-rule="evenodd" fill-opacity="1"/>
<polyline clip-path="url(#clip792)" style="stroke:#000000; stroke-width:4; stroke-opacity:1; fill:none" points="
  511.01,1442.32 511.01,1445.72 535.959,1445.72 535.959,1442.32 511.01,1442.32 
  "/>
<path clip-path="url(#clip792)" d="
M535.959 1440.62 L535.959 1445.72 L560.908 1445.72 L560.908 1440.62 L535.959 1440.62 L535.959 1440.62  Z
  " fill="#009af9" fill-rule="evenodd" fill-opacity="1"/>
<polyline clip-path="url(#clip792)" style="stroke:#000000; stroke-width:4; stroke-opacity:1; fill:none" points="
  535.959,1440.62 535.959,1445.72 560.908,1445.72 560.908,1440.62 535.959,1440.62 
  "/>
<path clip-path="url(#clip792)" d="
M560.908 1442.32 L560.908 1445.72 L585.857 1445.72 L585.857 1442.32 L560.908 1442.32 L560.908 1442.32  Z
  " fill="#009af9" fill-rule="evenodd" fill-opacity="1"/>
<polyline clip-path="url(#clip792)" style="stroke:#000000; stroke-width:4; stroke-opacity:1; fill:none" points="
  560.908,1442.32 560.908,1445.72 585.857,1445.72 585.857,1442.32 560.908,1442.32 
  "/>
<path clip-path="url(#clip792)" d="
M585.857 1438.92 L585.857 1445.72 L610.806 1445.72 L610.806 1438.92 L585.857 1438.92 L585.857 1438.92  Z
  " fill="#009af9" fill-rule="evenodd" fill-opacity="1"/>
<polyline clip-path="url(#clip792)" style="stroke:#000000; stroke-width:4; stroke-opacity:1; fill:none" points="
  585.857,1438.92 585.857,1445.72 610.806,1445.72 610.806,1438.92 585.857,1438.92 
  "/>
<path clip-path="url(#clip792)" d="
M610.806 1432.12 L610.806 1445.72 L635.755 1445.72 L635.755 1432.12 L610.806 1432.12 L610.806 1432.12  Z
  " fill="#009af9" fill-rule="evenodd" fill-opacity="1"/>
<polyline clip-path="url(#clip792)" style="stroke:#000000; stroke-width:4; stroke-opacity:1; fill:none" points="
  610.806,1432.12 610.806,1445.72 635.755,1445.72 635.755,1432.12 610.806,1432.12 
  "/>
<path clip-path="url(#clip792)" d="
M635.755 1430.42 L635.755 1445.72 L660.704 1445.72 L660.704 1430.42 L635.755 1430.42 L635.755 1430.42  Z
  " fill="#009af9" fill-rule="evenodd" fill-opacity="1"/>
<polyline clip-path="url(#clip792)" style="stroke:#000000; stroke-width:4; stroke-opacity:1; fill:none" points="
  635.755,1430.42 635.755,1445.72 660.704,1445.72 660.704,1430.42 635.755,1430.42 
  "/>
<path clip-path="url(#clip792)" d="
M660.704 1427.02 L660.704 1445.72 L685.653 1445.72 L685.653 1427.02 L660.704 1427.02 L660.704 1427.02  Z
  " fill="#009af9" fill-rule="evenodd" fill-opacity="1"/>
<polyline clip-path="url(#clip792)" style="stroke:#000000; stroke-width:4; stroke-opacity:1; fill:none" points="
  660.704,1427.02 660.704,1445.72 685.653,1445.72 685.653,1427.02 660.704,1427.02 
  "/>
<path clip-path="url(#clip792)" d="
M685.653 1432.12 L685.653 1445.72 L710.602 1445.72 L710.602 1432.12 L685.653 1432.12 L685.653 1432.12  Z
  " fill="#009af9" fill-rule="evenodd" fill-opacity="1"/>
<polyline clip-path="url(#clip792)" style="stroke:#000000; stroke-width:4; stroke-opacity:1; fill:none" points="
  685.653,1432.12 685.653,1445.72 710.602,1445.72 710.602,1432.12 685.653,1432.12 
  "/>
<path clip-path="url(#clip792)" d="
M710.602 1408.33 L710.602 1445.72 L735.551 1445.72 L735.551 1408.33 L710.602 1408.33 L710.602 1408.33  Z
  " fill="#009af9" fill-rule="evenodd" fill-opacity="1"/>
<polyline clip-path="url(#clip792)" style="stroke:#000000; stroke-width:4; stroke-opacity:1; fill:none" points="
  710.602,1408.33 710.602,1445.72 735.551,1445.72 735.551,1408.33 710.602,1408.33 
  "/>
<path clip-path="url(#clip792)" d="
M735.551 1413.43 L735.551 1445.72 L760.5 1445.72 L760.5 1413.43 L735.551 1413.43 L735.551 1413.43  Z
  " fill="#009af9" fill-rule="evenodd" fill-opacity="1"/>
<polyline clip-path="url(#clip792)" style="stroke:#000000; stroke-width:4; stroke-opacity:1; fill:none" points="
  735.551,1413.43 735.551,1445.72 760.5,1445.72 760.5,1413.43 735.551,1413.43 
  "/>
<path clip-path="url(#clip792)" d="
M760.5 1418.53 L760.5 1445.72 L785.449 1445.72 L785.449 1418.53 L760.5 1418.53 L760.5 1418.53  Z
  " fill="#009af9" fill-rule="evenodd" fill-opacity="1"/>
<polyline clip-path="url(#clip792)" style="stroke:#000000; stroke-width:4; stroke-opacity:1; fill:none" points="
  760.5,1418.53 760.5,1445.72 785.449,1445.72 785.449,1418.53 760.5,1418.53 
  "/>
<path clip-path="url(#clip792)" d="
M785.449 1416.83 L785.449 1445.72 L810.398 1445.72 L810.398 1416.83 L785.449 1416.83 L785.449 1416.83  Z
  " fill="#009af9" fill-rule="evenodd" fill-opacity="1"/>
<polyline clip-path="url(#clip792)" style="stroke:#000000; stroke-width:4; stroke-opacity:1; fill:none" points="
  785.449,1416.83 785.449,1445.72 810.398,1445.72 810.398,1416.83 785.449,1416.83 
  "/>
<path clip-path="url(#clip792)" d="
M810.398 1384.54 L810.398 1445.72 L835.347 1445.72 L835.347 1384.54 L810.398 1384.54 L810.398 1384.54  Z
  " fill="#009af9" fill-rule="evenodd" fill-opacity="1"/>
<polyline clip-path="url(#clip792)" style="stroke:#000000; stroke-width:4; stroke-opacity:1; fill:none" points="
  810.398,1384.54 810.398,1445.72 835.347,1445.72 835.347,1384.54 810.398,1384.54 
  "/>
<path clip-path="url(#clip792)" d="
M835.347 1384.54 L835.347 1445.72 L860.296 1445.72 L860.296 1384.54 L835.347 1384.54 L835.347 1384.54  Z
  " fill="#009af9" fill-rule="evenodd" fill-opacity="1"/>
<polyline clip-path="url(#clip792)" style="stroke:#000000; stroke-width:4; stroke-opacity:1; fill:none" points="
  835.347,1384.54 835.347,1445.72 860.296,1445.72 860.296,1384.54 835.347,1384.54 
  "/>
<path clip-path="url(#clip792)" d="
M860.296 1374.35 L860.296 1445.72 L885.245 1445.72 L885.245 1374.35 L860.296 1374.35 L860.296 1374.35  Z
  " fill="#009af9" fill-rule="evenodd" fill-opacity="1"/>
<polyline clip-path="url(#clip792)" style="stroke:#000000; stroke-width:4; stroke-opacity:1; fill:none" points="
  860.296,1374.35 860.296,1445.72 885.245,1445.72 885.245,1374.35 860.296,1374.35 
  "/>
<path clip-path="url(#clip792)" d="
M885.245 1370.95 L885.245 1445.72 L910.194 1445.72 L910.194 1370.95 L885.245 1370.95 L885.245 1370.95  Z
  " fill="#009af9" fill-rule="evenodd" fill-opacity="1"/>
<polyline clip-path="url(#clip792)" style="stroke:#000000; stroke-width:4; stroke-opacity:1; fill:none" points="
  885.245,1370.95 885.245,1445.72 910.194,1445.72 910.194,1370.95 885.245,1370.95 
  "/>
<path clip-path="url(#clip792)" d="
M910.194 1360.75 L910.194 1445.72 L935.143 1445.72 L935.143 1360.75 L910.194 1360.75 L910.194 1360.75  Z
  " fill="#009af9" fill-rule="evenodd" fill-opacity="1"/>
<polyline clip-path="url(#clip792)" style="stroke:#000000; stroke-width:4; stroke-opacity:1; fill:none" points="
  910.194,1360.75 910.194,1445.72 935.143,1445.72 935.143,1360.75 910.194,1360.75 
  "/>
<path clip-path="url(#clip792)" d="
M935.143 1347.16 L935.143 1445.72 L960.092 1445.72 L960.092 1347.16 L935.143 1347.16 L935.143 1347.16  Z
  " fill="#009af9" fill-rule="evenodd" fill-opacity="1"/>
<polyline clip-path="url(#clip792)" style="stroke:#000000; stroke-width:4; stroke-opacity:1; fill:none" points="
  935.143,1347.16 935.143,1445.72 960.092,1445.72 960.092,1347.16 935.143,1347.16 
  "/>
<path clip-path="url(#clip792)" d="
M960.092 1323.37 L960.092 1445.72 L985.041 1445.72 L985.041 1323.37 L960.092 1323.37 L960.092 1323.37  Z
  " fill="#009af9" fill-rule="evenodd" fill-opacity="1"/>
<polyline clip-path="url(#clip792)" style="stroke:#000000; stroke-width:4; stroke-opacity:1; fill:none" points="
  960.092,1323.37 960.092,1445.72 985.041,1445.72 985.041,1323.37 960.092,1323.37 
  "/>
<path clip-path="url(#clip792)" d="
M985.041 1313.17 L985.041 1445.72 L1009.99 1445.72 L1009.99 1313.17 L985.041 1313.17 L985.041 1313.17  Z
  " fill="#009af9" fill-rule="evenodd" fill-opacity="1"/>
<polyline clip-path="url(#clip792)" style="stroke:#000000; stroke-width:4; stroke-opacity:1; fill:none" points="
  985.041,1313.17 985.041,1445.72 1009.99,1445.72 1009.99,1313.17 985.041,1313.17 
  "/>
<path clip-path="url(#clip792)" d="
M1009.99 1321.67 L1009.99 1445.72 L1034.94 1445.72 L1034.94 1321.67 L1009.99 1321.67 L1009.99 1321.67  Z
  " fill="#009af9" fill-rule="evenodd" fill-opacity="1"/>
<polyline clip-path="url(#clip792)" style="stroke:#000000; stroke-width:4; stroke-opacity:1; fill:none" points="
  1009.99,1321.67 1009.99,1445.72 1034.94,1445.72 1034.94,1321.67 1009.99,1321.67 
  "/>
<path clip-path="url(#clip792)" d="
M1034.94 1308.07 L1034.94 1445.72 L1059.89 1445.72 L1059.89 1308.07 L1034.94 1308.07 L1034.94 1308.07  Z
  " fill="#009af9" fill-rule="evenodd" fill-opacity="1"/>
<polyline clip-path="url(#clip792)" style="stroke:#000000; stroke-width:4; stroke-opacity:1; fill:none" points="
  1034.94,1308.07 1034.94,1445.72 1059.89,1445.72 1059.89,1308.07 1034.94,1308.07 
  "/>
<path clip-path="url(#clip792)" d="
M1059.89 1301.28 L1059.89 1445.72 L1084.84 1445.72 L1084.84 1301.28 L1059.89 1301.28 L1059.89 1301.28  Z
  " fill="#009af9" fill-rule="evenodd" fill-opacity="1"/>
<polyline clip-path="url(#clip792)" style="stroke:#000000; stroke-width:4; stroke-opacity:1; fill:none" points="
  1059.89,1301.28 1059.89,1445.72 1084.84,1445.72 1084.84,1301.28 1059.89,1301.28 
  "/>
<path clip-path="url(#clip792)" d="
M1084.84 1270.69 L1084.84 1445.72 L1109.79 1445.72 L1109.79 1270.69 L1084.84 1270.69 L1084.84 1270.69  Z
  " fill="#009af9" fill-rule="evenodd" fill-opacity="1"/>
<polyline clip-path="url(#clip792)" style="stroke:#000000; stroke-width:4; stroke-opacity:1; fill:none" points="
  1084.84,1270.69 1084.84,1445.72 1109.79,1445.72 1109.79,1270.69 1084.84,1270.69 
  "/>
<path clip-path="url(#clip792)" d="
M1109.79 1255.39 L1109.79 1445.72 L1134.74 1445.72 L1134.74 1255.39 L1109.79 1255.39 L1109.79 1255.39  Z
  " fill="#009af9" fill-rule="evenodd" fill-opacity="1"/>
<polyline clip-path="url(#clip792)" style="stroke:#000000; stroke-width:4; stroke-opacity:1; fill:none" points="
  1109.79,1255.39 1109.79,1445.72 1134.74,1445.72 1134.74,1255.39 1109.79,1255.39 
  "/>
<path clip-path="url(#clip792)" d="
M1134.74 1253.69 L1134.74 1445.72 L1159.68 1445.72 L1159.68 1253.69 L1134.74 1253.69 L1134.74 1253.69  Z
  " fill="#009af9" fill-rule="evenodd" fill-opacity="1"/>
<polyline clip-path="url(#clip792)" style="stroke:#000000; stroke-width:4; stroke-opacity:1; fill:none" points="
  1134.74,1253.69 1134.74,1445.72 1159.68,1445.72 1159.68,1253.69 1134.74,1253.69 
  "/>
<path clip-path="url(#clip792)" d="
M1159.68 1274.09 L1159.68 1445.72 L1184.63 1445.72 L1184.63 1274.09 L1159.68 1274.09 L1159.68 1274.09  Z
  " fill="#009af9" fill-rule="evenodd" fill-opacity="1"/>
<polyline clip-path="url(#clip792)" style="stroke:#000000; stroke-width:4; stroke-opacity:1; fill:none" points="
  1159.68,1274.09 1159.68,1445.72 1184.63,1445.72 1184.63,1274.09 1159.68,1274.09 
  "/>
<path clip-path="url(#clip792)" d="
M1184.63 1246.9 L1184.63 1445.72 L1209.58 1445.72 L1209.58 1246.9 L1184.63 1246.9 L1184.63 1246.9  Z
  " fill="#009af9" fill-rule="evenodd" fill-opacity="1"/>
<polyline clip-path="url(#clip792)" style="stroke:#000000; stroke-width:4; stroke-opacity:1; fill:none" points="
  1184.63,1246.9 1184.63,1445.72 1209.58,1445.72 1209.58,1246.9 1184.63,1246.9 
  "/>
<path clip-path="url(#clip792)" d="
M1209.58 1240.1 L1209.58 1445.72 L1234.53 1445.72 L1234.53 1240.1 L1209.58 1240.1 L1209.58 1240.1  Z
  " fill="#009af9" fill-rule="evenodd" fill-opacity="1"/>
<polyline clip-path="url(#clip792)" style="stroke:#000000; stroke-width:4; stroke-opacity:1; fill:none" points="
  1209.58,1240.1 1209.58,1445.72 1234.53,1445.72 1234.53,1240.1 1209.58,1240.1 
  "/>
<path clip-path="url(#clip792)" d="
M1234.53 1214.61 L1234.53 1445.72 L1259.48 1445.72 L1259.48 1214.61 L1234.53 1214.61 L1234.53 1214.61  Z
  " fill="#009af9" fill-rule="evenodd" fill-opacity="1"/>
<polyline clip-path="url(#clip792)" style="stroke:#000000; stroke-width:4; stroke-opacity:1; fill:none" points="
  1234.53,1214.61 1234.53,1445.72 1259.48,1445.72 1259.48,1214.61 1234.53,1214.61 
  "/>
<path clip-path="url(#clip792)" d="
M1259.48 1262.19 L1259.48 1445.72 L1284.43 1445.72 L1284.43 1262.19 L1259.48 1262.19 L1259.48 1262.19  Z
  " fill="#009af9" fill-rule="evenodd" fill-opacity="1"/>
<polyline clip-path="url(#clip792)" style="stroke:#000000; stroke-width:4; stroke-opacity:1; fill:none" points="
  1259.48,1262.19 1259.48,1445.72 1284.43,1445.72 1284.43,1262.19 1259.48,1262.19 
  "/>
<path clip-path="url(#clip792)" d="
M1284.43 1178.93 L1284.43 1445.72 L1309.38 1445.72 L1309.38 1178.93 L1284.43 1178.93 L1284.43 1178.93  Z
  " fill="#009af9" fill-rule="evenodd" fill-opacity="1"/>
<polyline clip-path="url(#clip792)" style="stroke:#000000; stroke-width:4; stroke-opacity:1; fill:none" points="
  1284.43,1178.93 1284.43,1445.72 1309.38,1445.72 1309.38,1178.93 1284.43,1178.93 
  "/>
<path clip-path="url(#clip792)" d="
M1309.38 769.395 L1309.38 1445.72 L1334.33 1445.72 L1334.33 769.395 L1309.38 769.395 L1309.38 769.395  Z
  " fill="#009af9" fill-rule="evenodd" fill-opacity="1"/>
<polyline clip-path="url(#clip792)" style="stroke:#000000; stroke-width:4; stroke-opacity:1; fill:none" points="
  1309.38,769.395 1309.38,1445.72 1334.33,1445.72 1334.33,769.395 1309.38,769.395 
  "/>
<path clip-path="url(#clip792)" d="
M1334.33 120.263 L1334.33 1445.72 L1359.28 1445.72 L1359.28 120.263 L1334.33 120.263 L1334.33 120.263  Z
  " fill="#009af9" fill-rule="evenodd" fill-opacity="1"/>
<polyline clip-path="url(#clip792)" style="stroke:#000000; stroke-width:4; stroke-opacity:1; fill:none" points="
  1334.33,120.263 1334.33,1445.72 1359.28,1445.72 1359.28,120.263 1334.33,120.263 
  "/>
<path clip-path="url(#clip792)" d="
M1359.28 87.9763 L1359.28 1445.72 L1384.23 1445.72 L1384.23 87.9763 L1359.28 87.9763 L1359.28 87.9763  Z
  " fill="#009af9" fill-rule="evenodd" fill-opacity="1"/>
<polyline clip-path="url(#clip792)" style="stroke:#000000; stroke-width:4; stroke-opacity:1; fill:none" points="
  1359.28,87.9763 1359.28,1445.72 1384.23,1445.72 1384.23,87.9763 1359.28,87.9763 
  "/>
<path clip-path="url(#clip792)" d="
M1384.23 825.472 L1384.23 1445.72 L1409.17 1445.72 L1409.17 825.472 L1384.23 825.472 L1384.23 825.472  Z
  " fill="#009af9" fill-rule="evenodd" fill-opacity="1"/>
<polyline clip-path="url(#clip792)" style="stroke:#000000; stroke-width:4; stroke-opacity:1; fill:none" points="
  1384.23,825.472 1384.23,1445.72 1409.17,1445.72 1409.17,825.472 1384.23,825.472 
  "/>
<path clip-path="url(#clip792)" d="
M1409.17 1226.51 L1409.17 1445.72 L1434.12 1445.72 L1434.12 1226.51 L1409.17 1226.51 L1409.17 1226.51  Z
  " fill="#009af9" fill-rule="evenodd" fill-opacity="1"/>
<polyline clip-path="url(#clip792)" style="stroke:#000000; stroke-width:4; stroke-opacity:1; fill:none" points="
  1409.17,1226.51 1409.17,1445.72 1434.12,1445.72 1434.12,1226.51 1409.17,1226.51 
  "/>
<path clip-path="url(#clip792)" d="
M1434.12 1299.58 L1434.12 1445.72 L1459.07 1445.72 L1459.07 1299.58 L1434.12 1299.58 L1434.12 1299.58  Z
  " fill="#009af9" fill-rule="evenodd" fill-opacity="1"/>
<polyline clip-path="url(#clip792)" style="stroke:#000000; stroke-width:4; stroke-opacity:1; fill:none" points="
  1434.12,1299.58 1434.12,1445.72 1459.07,1445.72 1459.07,1299.58 1434.12,1299.58 
  "/>
<path clip-path="url(#clip792)" d="
M1459.07 1318.27 L1459.07 1445.72 L1484.02 1445.72 L1484.02 1318.27 L1459.07 1318.27 L1459.07 1318.27  Z
  " fill="#009af9" fill-rule="evenodd" fill-opacity="1"/>
<polyline clip-path="url(#clip792)" style="stroke:#000000; stroke-width:4; stroke-opacity:1; fill:none" points="
  1459.07,1318.27 1459.07,1445.72 1484.02,1445.72 1484.02,1318.27 1459.07,1318.27 
  "/>
<path clip-path="url(#clip792)" d="
M1484.02 1336.96 L1484.02 1445.72 L1508.97 1445.72 L1508.97 1336.96 L1484.02 1336.96 L1484.02 1336.96  Z
  " fill="#009af9" fill-rule="evenodd" fill-opacity="1"/>
<polyline clip-path="url(#clip792)" style="stroke:#000000; stroke-width:4; stroke-opacity:1; fill:none" points="
  1484.02,1336.96 1484.02,1445.72 1508.97,1445.72 1508.97,1336.96 1484.02,1336.96 
  "/>
<path clip-path="url(#clip792)" d="
M1508.97 1342.06 L1508.97 1445.72 L1533.92 1445.72 L1533.92 1342.06 L1508.97 1342.06 L1508.97 1342.06  Z
  " fill="#009af9" fill-rule="evenodd" fill-opacity="1"/>
<polyline clip-path="url(#clip792)" style="stroke:#000000; stroke-width:4; stroke-opacity:1; fill:none" points="
  1508.97,1342.06 1508.97,1445.72 1533.92,1445.72 1533.92,1342.06 1508.97,1342.06 
  "/>
<path clip-path="url(#clip792)" d="
M1533.92 1328.46 L1533.92 1445.72 L1558.87 1445.72 L1558.87 1328.46 L1533.92 1328.46 L1533.92 1328.46  Z
  " fill="#009af9" fill-rule="evenodd" fill-opacity="1"/>
<polyline clip-path="url(#clip792)" style="stroke:#000000; stroke-width:4; stroke-opacity:1; fill:none" points="
  1533.92,1328.46 1533.92,1445.72 1558.87,1445.72 1558.87,1328.46 1533.92,1328.46 
  "/>
<path clip-path="url(#clip792)" d="
M1558.87 1370.95 L1558.87 1445.72 L1583.82 1445.72 L1583.82 1370.95 L1558.87 1370.95 L1558.87 1370.95  Z
  " fill="#009af9" fill-rule="evenodd" fill-opacity="1"/>
<polyline clip-path="url(#clip792)" style="stroke:#000000; stroke-width:4; stroke-opacity:1; fill:none" points="
  1558.87,1370.95 1558.87,1445.72 1583.82,1445.72 1583.82,1370.95 1558.87,1370.95 
  "/>
<path clip-path="url(#clip792)" d="
M1583.82 1355.65 L1583.82 1445.72 L1608.77 1445.72 L1608.77 1355.65 L1583.82 1355.65 L1583.82 1355.65  Z
  " fill="#009af9" fill-rule="evenodd" fill-opacity="1"/>
<polyline clip-path="url(#clip792)" style="stroke:#000000; stroke-width:4; stroke-opacity:1; fill:none" points="
  1583.82,1355.65 1583.82,1445.72 1608.77,1445.72 1608.77,1355.65 1583.82,1355.65 
  "/>
<path clip-path="url(#clip792)" d="
M1608.77 1387.94 L1608.77 1445.72 L1633.72 1445.72 L1633.72 1387.94 L1608.77 1387.94 L1608.77 1387.94  Z
  " fill="#009af9" fill-rule="evenodd" fill-opacity="1"/>
<polyline clip-path="url(#clip792)" style="stroke:#000000; stroke-width:4; stroke-opacity:1; fill:none" points="
  1608.77,1387.94 1608.77,1445.72 1633.72,1445.72 1633.72,1387.94 1608.77,1387.94 
  "/>
<path clip-path="url(#clip792)" d="
M1633.72 1391.34 L1633.72 1445.72 L1658.66 1445.72 L1658.66 1391.34 L1633.72 1391.34 L1633.72 1391.34  Z
  " fill="#009af9" fill-rule="evenodd" fill-opacity="1"/>
<polyline clip-path="url(#clip792)" style="stroke:#000000; stroke-width:4; stroke-opacity:1; fill:none" points="
  1633.72,1391.34 1633.72,1445.72 1658.66,1445.72 1658.66,1391.34 1633.72,1391.34 
  "/>
<path clip-path="url(#clip792)" d="
M1658.66 1401.53 L1658.66 1445.72 L1683.61 1445.72 L1683.61 1401.53 L1658.66 1401.53 L1658.66 1401.53  Z
  " fill="#009af9" fill-rule="evenodd" fill-opacity="1"/>
<polyline clip-path="url(#clip792)" style="stroke:#000000; stroke-width:4; stroke-opacity:1; fill:none" points="
  1658.66,1401.53 1658.66,1445.72 1683.61,1445.72 1683.61,1401.53 1658.66,1401.53 
  "/>
<path clip-path="url(#clip792)" d="
M1683.61 1411.73 L1683.61 1445.72 L1708.56 1445.72 L1708.56 1411.73 L1683.61 1411.73 L1683.61 1411.73  Z
  " fill="#009af9" fill-rule="evenodd" fill-opacity="1"/>
<polyline clip-path="url(#clip792)" style="stroke:#000000; stroke-width:4; stroke-opacity:1; fill:none" points="
  1683.61,1411.73 1683.61,1445.72 1708.56,1445.72 1708.56,1411.73 1683.61,1411.73 
  "/>
<path clip-path="url(#clip792)" d="
M1708.56 1404.93 L1708.56 1445.72 L1733.51 1445.72 L1733.51 1404.93 L1708.56 1404.93 L1708.56 1404.93  Z
  " fill="#009af9" fill-rule="evenodd" fill-opacity="1"/>
<polyline clip-path="url(#clip792)" style="stroke:#000000; stroke-width:4; stroke-opacity:1; fill:none" points="
  1708.56,1404.93 1708.56,1445.72 1733.51,1445.72 1733.51,1404.93 1708.56,1404.93 
  "/>
<path clip-path="url(#clip792)" d="
M1733.51 1410.03 L1733.51 1445.72 L1758.46 1445.72 L1758.46 1410.03 L1733.51 1410.03 L1733.51 1410.03  Z
  " fill="#009af9" fill-rule="evenodd" fill-opacity="1"/>
<polyline clip-path="url(#clip792)" style="stroke:#000000; stroke-width:4; stroke-opacity:1; fill:none" points="
  1733.51,1410.03 1733.51,1445.72 1758.46,1445.72 1758.46,1410.03 1733.51,1410.03 
  "/>
<path clip-path="url(#clip792)" d="
M1758.46 1416.83 L1758.46 1445.72 L1783.41 1445.72 L1783.41 1416.83 L1758.46 1416.83 L1758.46 1416.83  Z
  " fill="#009af9" fill-rule="evenodd" fill-opacity="1"/>
<polyline clip-path="url(#clip792)" style="stroke:#000000; stroke-width:4; stroke-opacity:1; fill:none" points="
  1758.46,1416.83 1758.46,1445.72 1783.41,1445.72 1783.41,1416.83 1758.46,1416.83 
  "/>
<path clip-path="url(#clip792)" d="
M1783.41 1433.82 L1783.41 1445.72 L1808.36 1445.72 L1808.36 1433.82 L1783.41 1433.82 L1783.41 1433.82  Z
  " fill="#009af9" fill-rule="evenodd" fill-opacity="1"/>
<polyline clip-path="url(#clip792)" style="stroke:#000000; stroke-width:4; stroke-opacity:1; fill:none" points="
  1783.41,1433.82 1783.41,1445.72 1808.36,1445.72 1808.36,1433.82 1783.41,1433.82 
  "/>
<path clip-path="url(#clip792)" d="
M1808.36 1430.42 L1808.36 1445.72 L1833.31 1445.72 L1833.31 1430.42 L1808.36 1430.42 L1808.36 1430.42  Z
  " fill="#009af9" fill-rule="evenodd" fill-opacity="1"/>
<polyline clip-path="url(#clip792)" style="stroke:#000000; stroke-width:4; stroke-opacity:1; fill:none" points="
  1808.36,1430.42 1808.36,1445.72 1833.31,1445.72 1833.31,1430.42 1808.36,1430.42 
  "/>
<path clip-path="url(#clip792)" d="
M1833.31 1437.22 L1833.31 1445.72 L1858.26 1445.72 L1858.26 1437.22 L1833.31 1437.22 L1833.31 1437.22  Z
  " fill="#009af9" fill-rule="evenodd" fill-opacity="1"/>
<polyline clip-path="url(#clip792)" style="stroke:#000000; stroke-width:4; stroke-opacity:1; fill:none" points="
  1833.31,1437.22 1833.31,1445.72 1858.26,1445.72 1858.26,1437.22 1833.31,1437.22 
  "/>
<path clip-path="url(#clip792)" d="
M1858.26 1435.52 L1858.26 1445.72 L1883.21 1445.72 L1883.21 1435.52 L1858.26 1435.52 L1858.26 1435.52  Z
  " fill="#009af9" fill-rule="evenodd" fill-opacity="1"/>
<polyline clip-path="url(#clip792)" style="stroke:#000000; stroke-width:4; stroke-opacity:1; fill:none" points="
  1858.26,1435.52 1858.26,1445.72 1883.21,1445.72 1883.21,1435.52 1858.26,1435.52 
  "/>
<path clip-path="url(#clip792)" d="
M1883.21 1438.92 L1883.21 1445.72 L1908.15 1445.72 L1908.15 1438.92 L1883.21 1438.92 L1883.21 1438.92  Z
  " fill="#009af9" fill-rule="evenodd" fill-opacity="1"/>
<polyline clip-path="url(#clip792)" style="stroke:#000000; stroke-width:4; stroke-opacity:1; fill:none" points="
  1883.21,1438.92 1883.21,1445.72 1908.15,1445.72 1908.15,1438.92 1883.21,1438.92 
  "/>
<path clip-path="url(#clip792)" d="
M1908.15 1435.52 L1908.15 1445.72 L1933.1 1445.72 L1933.1 1435.52 L1908.15 1435.52 L1908.15 1435.52  Z
  " fill="#009af9" fill-rule="evenodd" fill-opacity="1"/>
<polyline clip-path="url(#clip792)" style="stroke:#000000; stroke-width:4; stroke-opacity:1; fill:none" points="
  1908.15,1435.52 1908.15,1445.72 1933.1,1445.72 1933.1,1435.52 1908.15,1435.52 
  "/>
<path clip-path="url(#clip792)" d="
M1933.1 1440.62 L1933.1 1445.72 L1958.05 1445.72 L1958.05 1440.62 L1933.1 1440.62 L1933.1 1440.62  Z
  " fill="#009af9" fill-rule="evenodd" fill-opacity="1"/>
<polyline clip-path="url(#clip792)" style="stroke:#000000; stroke-width:4; stroke-opacity:1; fill:none" points="
  1933.1,1440.62 1933.1,1445.72 1958.05,1445.72 1958.05,1440.62 1933.1,1440.62 
  "/>
<path clip-path="url(#clip792)" d="
M1958.05 1438.92 L1958.05 1445.72 L1983 1445.72 L1983 1438.92 L1958.05 1438.92 L1958.05 1438.92  Z
  " fill="#009af9" fill-rule="evenodd" fill-opacity="1"/>
<polyline clip-path="url(#clip792)" style="stroke:#000000; stroke-width:4; stroke-opacity:1; fill:none" points="
  1958.05,1438.92 1958.05,1445.72 1983,1445.72 1983,1438.92 1958.05,1438.92 
  "/>
<path clip-path="url(#clip792)" d="
M1983 1440.62 L1983 1445.72 L2007.95 1445.72 L2007.95 1440.62 L1983 1440.62 L1983 1440.62  Z
  " fill="#009af9" fill-rule="evenodd" fill-opacity="1"/>
<polyline clip-path="url(#clip792)" style="stroke:#000000; stroke-width:4; stroke-opacity:1; fill:none" points="
  1983,1440.62 1983,1445.72 2007.95,1445.72 2007.95,1440.62 1983,1440.62 
  "/>
<path clip-path="url(#clip792)" d="
M2007.95 1445.72 L2007.95 1445.72 L2032.9 1445.72 L2032.9 1445.72 L2007.95 1445.72 L2007.95 1445.72  Z
  " fill="#009af9" fill-rule="evenodd" fill-opacity="1"/>
<polyline clip-path="url(#clip792)" style="stroke:#000000; stroke-width:4; stroke-opacity:1; fill:none" points="
  2007.95,1445.72 2007.95,1445.72 2032.9,1445.72 2007.95,1445.72 
  "/>
<path clip-path="url(#clip792)" d="
M2032.9 1444.02 L2032.9 1445.72 L2057.85 1445.72 L2057.85 1444.02 L2032.9 1444.02 L2032.9 1444.02  Z
  " fill="#009af9" fill-rule="evenodd" fill-opacity="1"/>
<polyline clip-path="url(#clip792)" style="stroke:#000000; stroke-width:4; stroke-opacity:1; fill:none" points="
  2032.9,1444.02 2032.9,1445.72 2057.85,1445.72 2057.85,1444.02 2032.9,1444.02 
  "/>
<path clip-path="url(#clip792)" d="
M2057.85 1445.72 L2057.85 1445.72 L2082.8 1445.72 L2082.8 1445.72 L2057.85 1445.72 L2057.85 1445.72  Z
  " fill="#009af9" fill-rule="evenodd" fill-opacity="1"/>
<polyline clip-path="url(#clip792)" style="stroke:#000000; stroke-width:4; stroke-opacity:1; fill:none" points="
  2057.85,1445.72 2057.85,1445.72 2082.8,1445.72 2057.85,1445.72 
  "/>
<path clip-path="url(#clip792)" d="
M2082.8 1444.02 L2082.8 1445.72 L2107.75 1445.72 L2107.75 1444.02 L2082.8 1444.02 L2082.8 1444.02  Z
  " fill="#009af9" fill-rule="evenodd" fill-opacity="1"/>
<polyline clip-path="url(#clip792)" style="stroke:#000000; stroke-width:4; stroke-opacity:1; fill:none" points="
  2082.8,1444.02 2082.8,1445.72 2107.75,1445.72 2107.75,1444.02 2082.8,1444.02 
  "/>
<path clip-path="url(#clip792)" d="
M2107.75 1445.72 L2107.75 1445.72 L2132.7 1445.72 L2132.7 1445.72 L2107.75 1445.72 L2107.75 1445.72  Z
  " fill="#009af9" fill-rule="evenodd" fill-opacity="1"/>
<polyline clip-path="url(#clip792)" style="stroke:#000000; stroke-width:4; stroke-opacity:1; fill:none" points="
  2107.75,1445.72 2107.75,1445.72 2132.7,1445.72 2107.75,1445.72 
  "/>
<path clip-path="url(#clip792)" d="
M2132.7 1445.72 L2132.7 1445.72 L2157.64 1445.72 L2157.64 1445.72 L2132.7 1445.72 L2132.7 1445.72  Z
  " fill="#009af9" fill-rule="evenodd" fill-opacity="1"/>
<polyline clip-path="url(#clip792)" style="stroke:#000000; stroke-width:4; stroke-opacity:1; fill:none" points="
  2132.7,1445.72 2132.7,1445.72 2157.64,1445.72 2132.7,1445.72 
  "/>
<path clip-path="url(#clip792)" d="
M2157.64 1442.32 L2157.64 1445.72 L2182.59 1445.72 L2182.59 1442.32 L2157.64 1442.32 L2157.64 1442.32  Z
  " fill="#009af9" fill-rule="evenodd" fill-opacity="1"/>
<polyline clip-path="url(#clip792)" style="stroke:#000000; stroke-width:4; stroke-opacity:1; fill:none" points="
  2157.64,1442.32 2157.64,1445.72 2182.59,1445.72 2182.59,1442.32 2157.64,1442.32 
  "/>
<path clip-path="url(#clip792)" d="
M2182.59 1445.72 L2182.59 1445.72 L2207.54 1445.72 L2207.54 1445.72 L2182.59 1445.72 L2182.59 1445.72  Z
  " fill="#009af9" fill-rule="evenodd" fill-opacity="1"/>
<polyline clip-path="url(#clip792)" style="stroke:#000000; stroke-width:4; stroke-opacity:1; fill:none" points="
  2182.59,1445.72 2182.59,1445.72 2207.54,1445.72 2182.59,1445.72 
  "/>
<path clip-path="url(#clip792)" d="
M2207.54 1444.02 L2207.54 1445.72 L2232.49 1445.72 L2232.49 1444.02 L2207.54 1444.02 L2207.54 1444.02  Z
  " fill="#009af9" fill-rule="evenodd" fill-opacity="1"/>
<polyline clip-path="url(#clip792)" style="stroke:#000000; stroke-width:4; stroke-opacity:1; fill:none" points="
  2207.54,1444.02 2207.54,1445.72 2232.49,1445.72 2232.49,1444.02 2207.54,1444.02 
  "/>
<path clip-path="url(#clip790)" d="
M1989.74 251.724 L2280.76 251.724 L2280.76 130.764 L1989.74 130.764  Z
  " fill="#ffffff" fill-rule="evenodd" fill-opacity="1"/>
<polyline clip-path="url(#clip790)" style="stroke:#000000; stroke-width:4; stroke-opacity:1; fill:none" points="
  1989.74,251.724 2280.76,251.724 2280.76,130.764 1989.74,130.764 1989.74,251.724 
  "/>
<path clip-path="url(#clip790)" d="
M2013.74 215.436 L2157.74 215.436 L2157.74 167.052 L2013.74 167.052 L2013.74 215.436  Z
  " fill="#009af9" fill-rule="evenodd" fill-opacity="1"/>
<polyline clip-path="url(#clip790)" style="stroke:#000000; stroke-width:4; stroke-opacity:1; fill:none" points="
  2013.74,215.436 2157.74,215.436 2157.74,167.052 2013.74,167.052 2013.74,215.436 
  "/>
<path clip-path="url(#clip790)" d="M 0 0 M2195.58 210.931 Q2193.77 215.561 2192.06 216.973 Q2190.35 218.385 2187.48 218.385 L2184.08 218.385 L2184.08 214.82 L2186.58 214.82 Q2188.33 214.82 2189.31 213.987 Q2190.28 213.154 2191.46 210.052 L2192.22 208.107 L2181.74 182.598 L2186.25 182.598 L2194.35 202.876 L2202.46 182.598 L2206.97 182.598 L2195.58 210.931 Z" fill="#000000" fill-rule="evenodd" fill-opacity="1" /><path clip-path="url(#clip790)" d="M 0 0 M2212.85 204.589 L2220.49 204.589 L2220.49 178.223 L2212.18 179.89 L2212.18 175.631 L2220.44 173.964 L2225.12 173.964 L2225.12 204.589 L2232.76 204.589 L2232.76 208.524 L2212.85 208.524 L2212.85 204.589 Z" fill="#000000" fill-rule="evenodd" fill-opacity="1" /></svg>
