<?xml version="1.0" encoding="utf-8"?>
<svg xmlns="http://www.w3.org/2000/svg" xmlns:xlink="http://www.w3.org/1999/xlink" width="600" height="400" viewBox="0 0 2400 1600">
<defs>
  <clipPath id="clip690">
    <rect x="0" y="0" width="2400" height="1600"/>
  </clipPath>
</defs>
<path clip-path="url(#clip690)" d="
M0 1600 L2400 1600 L2400 0 L0 0  Z
  " fill="#ffffff" fill-rule="evenodd" fill-opacity="1"/>
<defs>
  <clipPath id="clip691">
    <rect x="480" y="0" width="1681" height="1600"/>
  </clipPath>
</defs>
<path clip-path="url(#clip690)" d="
M166.205 1486.45 L2352.76 1486.45 L2352.76 47.2441 L166.205 47.2441  Z
  " fill="#ffffff" fill-rule="evenodd" fill-opacity="1"/>
<defs>
  <clipPath id="clip692">
    <rect x="166" y="47" width="2188" height="1440"/>
  </clipPath>
</defs>
<polyline clip-path="url(#clip692)" style="stroke:#000000; stroke-width:2; stroke-opacity:0.1; fill:none" points="
  453.271,1486.45 453.271,47.2441 
  "/>
<polyline clip-path="url(#clip692)" style="stroke:#000000; stroke-width:2; stroke-opacity:0.1; fill:none" points="
  870.276,1486.45 870.276,47.2441 
  "/>
<polyline clip-path="url(#clip692)" style="stroke:#000000; stroke-width:2; stroke-opacity:0.1; fill:none" points="
  1287.28,1486.45 1287.28,47.2441 
  "/>
<polyline clip-path="url(#clip692)" style="stroke:#000000; stroke-width:2; stroke-opacity:0.1; fill:none" points="
  1704.29,1486.45 1704.29,47.2441 
  "/>
<polyline clip-path="url(#clip692)" style="stroke:#000000; stroke-width:2; stroke-opacity:0.1; fill:none" points="
  2121.29,1486.45 2121.29,47.2441 
  "/>
<polyline clip-path="url(#clip692)" style="stroke:#000000; stroke-width:2; stroke-opacity:0.1; fill:none" points="
  166.205,1445.72 2352.76,1445.72 
  "/>
<polyline clip-path="url(#clip692)" style="stroke:#000000; stroke-width:2; stroke-opacity:0.1; fill:none" points="
  166.205,1086.53 2352.76,1086.53 
  "/>
<polyline clip-path="url(#clip692)" style="stroke:#000000; stroke-width:2; stroke-opacity:0.1; fill:none" points="
  166.205,727.335 2352.76,727.335 
  "/>
<polyline clip-path="url(#clip692)" style="stroke:#000000; stroke-width:2; stroke-opacity:0.1; fill:none" points="
  166.205,368.145 2352.76,368.145 
  "/>
<polyline clip-path="url(#clip690)" style="stroke:#000000; stroke-width:4; stroke-opacity:1; fill:none" points="
  166.205,1486.45 2352.76,1486.45 
  "/>
<polyline clip-path="url(#clip690)" style="stroke:#000000; stroke-width:4; stroke-opacity:1; fill:none" points="
  166.205,1486.45 166.205,47.2441 
  "/>
<polyline clip-path="url(#clip690)" style="stroke:#000000; stroke-width:4; stroke-opacity:1; fill:none" points="
  453.271,1486.45 453.271,1469.18 
  "/>
<polyline clip-path="url(#clip690)" style="stroke:#000000; stroke-width:4; stroke-opacity:1; fill:none" points="
  870.276,1486.45 870.276,1469.18 
  "/>
<polyline clip-path="url(#clip690)" style="stroke:#000000; stroke-width:4; stroke-opacity:1; fill:none" points="
  1287.28,1486.45 1287.28,1469.18 
  "/>
<polyline clip-path="url(#clip690)" style="stroke:#000000; stroke-width:4; stroke-opacity:1; fill:none" points="
  1704.29,1486.45 1704.29,1469.18 
  "/>
<polyline clip-path="url(#clip690)" style="stroke:#000000; stroke-width:4; stroke-opacity:1; fill:none" points="
  2121.29,1486.45 2121.29,1469.18 
  "/>
<polyline clip-path="url(#clip690)" style="stroke:#000000; stroke-width:4; stroke-opacity:1; fill:none" points="
  166.205,1445.72 192.443,1445.72 
  "/>
<polyline clip-path="url(#clip690)" style="stroke:#000000; stroke-width:4; stroke-opacity:1; fill:none" points="
  166.205,1086.53 192.443,1086.53 
  "/>
<polyline clip-path="url(#clip690)" style="stroke:#000000; stroke-width:4; stroke-opacity:1; fill:none" points="
  166.205,727.335 192.443,727.335 
  "/>
<polyline clip-path="url(#clip690)" style="stroke:#000000; stroke-width:4; stroke-opacity:1; fill:none" points="
  166.205,368.145 192.443,368.145 
  "/>
<path clip-path="url(#clip690)" d="M 0 0 M433.445 1525.04 L445.921 1525.04 L445.921 1528.83 L433.445 1528.83 L433.445 1525.04 Z" fill="#000000" fill-rule="evenodd" fill-opacity="1" /><path clip-path="url(#clip690)" d="M 0 0 M461.569 1520.78 Q458.421 1520.78 456.569 1522.93 Q454.741 1525.08 454.741 1528.83 Q454.741 1532.56 456.569 1534.73 Q458.421 1536.89 461.569 1536.89 Q464.718 1536.89 466.546 1534.73 Q468.398 1532.56 468.398 1528.83 Q468.398 1525.08 466.546 1522.93 Q464.718 1520.78 461.569 1520.78 M470.852 1506.12 L470.852 1510.38 Q469.093 1509.55 467.287 1509.11 Q465.505 1508.67 463.745 1508.67 Q459.116 1508.67 456.662 1511.8 Q454.231 1514.92 453.884 1521.24 Q455.25 1519.23 457.31 1518.16 Q459.37 1517.07 461.847 1517.07 Q467.055 1517.07 470.065 1520.24 Q473.097 1523.39 473.097 1528.83 Q473.097 1534.16 469.949 1537.37 Q466.801 1540.59 461.569 1540.59 Q455.574 1540.59 452.403 1536.01 Q449.232 1531.4 449.232 1522.67 Q449.232 1514.48 453.12 1509.62 Q457.009 1504.73 463.56 1504.73 Q465.319 1504.73 467.102 1505.08 Q468.907 1505.43 470.852 1506.12 Z" fill="#000000" fill-rule="evenodd" fill-opacity="1" /><path clip-path="url(#clip690)" d="M 0 0 M850.855 1525.04 L863.331 1525.04 L863.331 1528.83 L850.855 1528.83 L850.855 1525.04 Z" fill="#000000" fill-rule="evenodd" fill-opacity="1" /><path clip-path="url(#clip690)" d="M 0 0 M882.567 1521.29 Q885.924 1522 887.799 1524.27 Q889.697 1526.54 889.697 1529.87 Q889.697 1534.99 886.178 1537.79 Q882.66 1540.59 876.178 1540.59 Q874.003 1540.59 871.688 1540.15 Q869.396 1539.73 866.942 1538.88 L866.942 1534.36 Q868.887 1535.5 871.202 1536.08 Q873.516 1536.66 876.04 1536.66 Q880.438 1536.66 882.729 1534.92 Q885.044 1533.18 885.044 1529.87 Q885.044 1526.82 882.891 1525.11 Q880.762 1523.37 876.942 1523.37 L872.915 1523.37 L872.915 1519.53 L877.128 1519.53 Q880.577 1519.53 882.405 1518.16 Q884.234 1516.77 884.234 1514.18 Q884.234 1511.52 882.336 1510.11 Q880.461 1508.67 876.942 1508.67 Q875.021 1508.67 872.822 1509.09 Q870.623 1509.5 867.984 1510.38 L867.984 1506.22 Q870.646 1505.48 872.961 1505.11 Q875.299 1504.73 877.359 1504.73 Q882.683 1504.73 885.785 1507.17 Q888.887 1509.57 888.887 1513.69 Q888.887 1516.56 887.243 1518.55 Q885.6 1520.52 882.567 1521.29 Z" fill="#000000" fill-rule="evenodd" fill-opacity="1" /><path clip-path="url(#clip690)" d="M 0 0 M1287.28 1508.44 Q1283.67 1508.44 1281.84 1512 Q1280.04 1515.55 1280.04 1522.67 Q1280.04 1529.78 1281.84 1533.35 Q1283.67 1536.89 1287.28 1536.89 Q1290.91 1536.89 1292.72 1533.35 Q1294.55 1529.78 1294.55 1522.67 Q1294.55 1515.55 1292.72 1512 Q1290.91 1508.44 1287.28 1508.44 M1287.28 1504.73 Q1293.09 1504.73 1296.15 1509.34 Q1299.22 1513.92 1299.22 1522.67 Q1299.22 1531.4 1296.15 1536.01 Q1293.09 1540.59 1287.28 1540.59 Q1281.47 1540.59 1278.39 1536.01 Q1275.34 1531.4 1275.34 1522.67 Q1275.34 1513.92 1278.39 1509.34 Q1281.47 1504.73 1287.28 1504.73 Z" fill="#000000" fill-rule="evenodd" fill-opacity="1" /><path clip-path="url(#clip690)" d="M 0 0 M1708.53 1521.29 Q1711.89 1522 1713.76 1524.27 Q1715.66 1526.54 1715.66 1529.87 Q1715.66 1534.99 1712.14 1537.79 Q1708.63 1540.59 1702.14 1540.59 Q1699.97 1540.59 1697.65 1540.15 Q1695.36 1539.73 1692.91 1538.88 L1692.91 1534.36 Q1694.85 1535.5 1697.17 1536.08 Q1699.48 1536.66 1702.01 1536.66 Q1706.4 1536.66 1708.7 1534.92 Q1711.01 1533.18 1711.01 1529.87 Q1711.01 1526.82 1708.86 1525.11 Q1706.73 1523.37 1702.91 1523.37 L1698.88 1523.37 L1698.88 1519.53 L1703.09 1519.53 Q1706.54 1519.53 1708.37 1518.16 Q1710.2 1516.77 1710.2 1514.18 Q1710.2 1511.52 1708.3 1510.11 Q1706.43 1508.67 1702.91 1508.67 Q1700.99 1508.67 1698.79 1509.09 Q1696.59 1509.5 1693.95 1510.38 L1693.95 1506.22 Q1696.61 1505.48 1698.93 1505.11 Q1701.26 1504.73 1703.32 1504.73 Q1708.65 1504.73 1711.75 1507.17 Q1714.85 1509.57 1714.85 1513.69 Q1714.85 1516.56 1713.21 1518.55 Q1711.57 1520.52 1708.53 1521.29 Z" fill="#000000" fill-rule="evenodd" fill-opacity="1" /><path clip-path="url(#clip690)" d="M 0 0 M2121.7 1520.78 Q2118.55 1520.78 2116.7 1522.93 Q2114.87 1525.08 2114.87 1528.83 Q2114.87 1532.56 2116.7 1534.73 Q2118.55 1536.89 2121.7 1536.89 Q2124.84 1536.89 2126.67 1534.73 Q2128.52 1532.56 2128.52 1528.83 Q2128.52 1525.08 2126.67 1522.93 Q2124.84 1520.78 2121.7 1520.78 M2130.98 1506.12 L2130.98 1510.38 Q2129.22 1509.55 2127.41 1509.11 Q2125.63 1508.67 2123.87 1508.67 Q2119.24 1508.67 2116.79 1511.8 Q2114.36 1514.92 2114.01 1521.24 Q2115.38 1519.23 2117.44 1518.16 Q2119.5 1517.07 2121.97 1517.07 Q2127.18 1517.07 2130.19 1520.24 Q2133.22 1523.39 2133.22 1528.83 Q2133.22 1534.16 2130.08 1537.37 Q2126.93 1540.59 2121.7 1540.59 Q2115.7 1540.59 2112.53 1536.01 Q2109.36 1531.4 2109.36 1522.67 Q2109.36 1514.48 2113.25 1509.62 Q2117.14 1504.73 2123.69 1504.73 Q2125.45 1504.73 2127.23 1505.08 Q2129.03 1505.43 2130.98 1506.12 Z" fill="#000000" fill-rule="evenodd" fill-opacity="1" /><path clip-path="url(#clip690)" d="M 0 0 M130.26 1431.51 Q126.649 1431.51 124.82 1435.08 Q123.015 1438.62 123.015 1445.75 Q123.015 1452.86 124.82 1456.42 Q126.649 1459.96 130.26 1459.96 Q133.895 1459.96 135.7 1456.42 Q137.529 1452.86 137.529 1445.75 Q137.529 1438.62 135.7 1435.08 Q133.895 1431.51 130.26 1431.51 M130.26 1427.81 Q136.07 1427.81 139.126 1432.42 Q142.205 1437 142.205 1445.75 Q142.205 1454.48 139.126 1459.08 Q136.07 1463.67 130.26 1463.67 Q124.45 1463.67 121.371 1459.08 Q118.316 1454.48 118.316 1445.75 Q118.316 1437 121.371 1432.42 Q124.45 1427.81 130.26 1427.81 Z" fill="#000000" fill-rule="evenodd" fill-opacity="1" /><path clip-path="url(#clip690)" d="M 0 0 M71.8578 1099.87 L88.1772 1099.87 L88.1772 1103.81 L66.2328 1103.81 L66.2328 1099.87 Q68.8949 1097.12 73.4782 1092.49 Q78.0846 1087.83 79.2652 1086.49 Q81.5105 1083.97 82.3902 1082.23 Q83.2929 1080.47 83.2929 1078.78 Q83.2929 1076.03 81.3485 1074.29 Q79.4272 1072.56 76.3254 1072.56 Q74.1263 1072.56 71.6726 1073.32 Q69.2421 1074.08 66.4643 1075.63 L66.4643 1070.91 Q69.2884 1069.78 71.7421 1069.2 Q74.1958 1068.62 76.2328 1068.62 Q81.6031 1068.62 84.7976 1071.31 Q87.992 1073.99 87.992 1078.48 Q87.992 1080.61 87.1818 1082.53 Q86.3948 1084.43 84.2883 1087.02 Q83.7096 1087.69 80.6078 1090.91 Q77.5059 1094.11 71.8578 1099.87 Z" fill="#000000" fill-rule="evenodd" fill-opacity="1" /><path clip-path="url(#clip690)" d="M 0 0 M103.247 1072.32 Q99.6354 1072.32 97.8068 1075.89 Q96.0012 1079.43 96.0012 1086.56 Q96.0012 1093.67 97.8068 1097.23 Q99.6354 1100.77 103.247 1100.77 Q106.881 1100.77 108.686 1097.23 Q110.515 1093.67 110.515 1086.56 Q110.515 1079.43 108.686 1075.89 Q106.881 1072.32 103.247 1072.32 M103.247 1068.62 Q109.057 1068.62 112.112 1073.23 Q115.191 1077.81 115.191 1086.56 Q115.191 1095.29 112.112 1099.89 Q109.057 1104.48 103.247 1104.48 Q97.4364 1104.48 94.3577 1099.89 Q91.3022 1095.29 91.3022 1086.56 Q91.3022 1077.81 94.3577 1073.23 Q97.4364 1068.62 103.247 1068.62 Z" fill="#000000" fill-rule="evenodd" fill-opacity="1" /><path clip-path="url(#clip690)" d="M 0 0 M130.26 1072.32 Q126.649 1072.32 124.82 1075.89 Q123.015 1079.43 123.015 1086.56 Q123.015 1093.67 124.82 1097.23 Q126.649 1100.77 130.26 1100.77 Q133.895 1100.77 135.7 1097.23 Q137.529 1093.67 137.529 1086.56 Q137.529 1079.43 135.7 1075.89 Q133.895 1072.32 130.26 1072.32 M130.26 1068.62 Q136.07 1068.62 139.126 1073.23 Q142.205 1077.81 142.205 1086.56 Q142.205 1095.29 139.126 1099.89 Q136.07 1104.48 130.26 1104.48 Q124.45 1104.48 121.371 1099.89 Q118.316 1095.29 118.316 1086.56 Q118.316 1077.81 121.371 1073.23 Q124.45 1068.62 130.26 1068.62 Z" fill="#000000" fill-rule="evenodd" fill-opacity="1" /><path clip-path="url(#clip690)" d="M 0 0 M78.5939 714.129 L66.7884 732.578 L78.5939 732.578 L78.5939 714.129 M77.367 710.055 L83.2466 710.055 L83.2466 732.578 L88.1772 732.578 L88.1772 736.467 L83.2466 736.467 L83.2466 744.615 L78.5939 744.615 L78.5939 736.467 L62.9921 736.467 L62.9921 731.953 L77.367 710.055 Z" fill="#000000" fill-rule="evenodd" fill-opacity="1" /><path clip-path="url(#clip690)" d="M 0 0 M103.247 713.134 Q99.6354 713.134 97.8068 716.699 Q96.0012 720.24 96.0012 727.37 Q96.0012 734.476 97.8068 738.041 Q99.6354 741.583 103.247 741.583 Q106.881 741.583 108.686 738.041 Q110.515 734.476 110.515 727.37 Q110.515 720.24 108.686 716.699 Q106.881 713.134 103.247 713.134 M103.247 709.43 Q109.057 709.43 112.112 714.037 Q115.191 718.62 115.191 727.37 Q115.191 736.097 112.112 740.703 Q109.057 745.286 103.247 745.286 Q97.4364 745.286 94.3577 740.703 Q91.3022 736.097 91.3022 727.37 Q91.3022 718.62 94.3577 714.037 Q97.4364 709.43 103.247 709.43 Z" fill="#000000" fill-rule="evenodd" fill-opacity="1" /><path clip-path="url(#clip690)" d="M 0 0 M130.26 713.134 Q126.649 713.134 124.82 716.699 Q123.015 720.24 123.015 727.37 Q123.015 734.476 124.82 738.041 Q126.649 741.583 130.26 741.583 Q133.895 741.583 135.7 738.041 Q137.529 734.476 137.529 727.37 Q137.529 720.24 135.7 716.699 Q133.895 713.134 130.26 713.134 M130.26 709.43 Q136.07 709.43 139.126 714.037 Q142.205 718.62 142.205 727.37 Q142.205 736.097 139.126 740.703 Q136.07 745.286 130.26 745.286 Q124.45 745.286 121.371 740.703 Q118.316 736.097 118.316 727.37 Q118.316 718.62 121.371 714.037 Q124.45 709.43 130.26 709.43 Z" fill="#000000" fill-rule="evenodd" fill-opacity="1" /><path clip-path="url(#clip690)" d="M 0 0 M76.6495 366.281 Q73.5013 366.281 71.6495 368.434 Q69.8208 370.587 69.8208 374.337 Q69.8208 378.064 71.6495 380.24 Q73.5013 382.392 76.6495 382.392 Q79.7976 382.392 81.6263 380.24 Q83.4781 378.064 83.4781 374.337 Q83.4781 370.587 81.6263 368.434 Q79.7976 366.281 76.6495 366.281 M85.9318 351.629 L85.9318 355.888 Q84.1726 355.055 82.367 354.615 Q80.5846 354.175 78.8254 354.175 Q74.1958 354.175 71.7421 357.3 Q69.3115 360.425 68.9643 366.744 Q70.33 364.73 72.3902 363.666 Q74.4504 362.578 76.9272 362.578 Q82.1355 362.578 85.1448 365.749 Q88.1772 368.897 88.1772 374.337 Q88.1772 379.661 85.029 382.878 Q81.8809 386.096 76.6495 386.096 Q70.6541 386.096 67.4828 381.513 Q64.3116 376.906 64.3116 368.179 Q64.3116 359.985 68.2004 355.124 Q72.0893 350.24 78.6402 350.24 Q80.3994 350.24 82.1818 350.587 Q83.9874 350.934 85.9318 351.629 Z" fill="#000000" fill-rule="evenodd" fill-opacity="1" /><path clip-path="url(#clip690)" d="M 0 0 M103.247 353.943 Q99.6354 353.943 97.8068 357.508 Q96.0012 361.05 96.0012 368.179 Q96.0012 375.286 97.8068 378.851 Q99.6354 382.392 103.247 382.392 Q106.881 382.392 108.686 378.851 Q110.515 375.286 110.515 368.179 Q110.515 361.05 108.686 357.508 Q106.881 353.943 103.247 353.943 M103.247 350.24 Q109.057 350.24 112.112 354.846 Q115.191 359.429 115.191 368.179 Q115.191 376.906 112.112 381.513 Q109.057 386.096 103.247 386.096 Q97.4364 386.096 94.3577 381.513 Q91.3022 376.906 91.3022 368.179 Q91.3022 359.429 94.3577 354.846 Q97.4364 350.24 103.247 350.24 Z" fill="#000000" fill-rule="evenodd" fill-opacity="1" /><path clip-path="url(#clip690)" d="M 0 0 M130.26 353.943 Q126.649 353.943 124.82 357.508 Q123.015 361.05 123.015 368.179 Q123.015 375.286 124.82 378.851 Q126.649 382.392 130.26 382.392 Q133.895 382.392 135.7 378.851 Q137.529 375.286 137.529 368.179 Q137.529 361.05 135.7 357.508 Q133.895 353.943 130.26 353.943 M130.26 350.24 Q136.07 350.24 139.126 354.846 Q142.205 359.429 142.205 368.179 Q142.205 376.906 139.126 381.513 Q136.07 386.096 130.26 386.096 Q124.45 386.096 121.371 381.513 Q118.316 376.906 118.316 368.179 Q118.316 359.429 121.371 354.846 Q124.45 350.24 130.26 350.24 Z" fill="#000000" fill-rule="evenodd" fill-opacity="1" /><path clip-path="url(#clip692)" d="
M286.469 1443.92 L286.469 1445.72 L314.269 1445.72 L314.269 1443.92 L286.469 1443.92 L286.469 1443.92  Z
  " fill="#009af9" fill-rule="evenodd" fill-opacity="1"/>
<polyline clip-path="url(#clip692)" style="stroke:#000000; stroke-width:4; stroke-opacity:1; fill:none" points="
  286.469,1443.92 286.469,1445.72 314.269,1445.72 314.269,1443.92 286.469,1443.92 
  "/>
<path clip-path="url(#clip692)" d="
M314.269 1445.72 L314.269 1445.72 L342.07 1445.72 L342.07 1445.72 L314.269 1445.72 L314.269 1445.72  Z
  " fill="#009af9" fill-rule="evenodd" fill-opacity="1"/>
<polyline clip-path="url(#clip692)" style="stroke:#000000; stroke-width:4; stroke-opacity:1; fill:none" points="
  314.269,1445.72 314.269,1445.72 342.07,1445.72 314.269,1445.72 
  "/>
<path clip-path="url(#clip692)" d="
M342.07 1445.72 L342.07 1445.72 L369.87 1445.72 L369.87 1445.72 L342.07 1445.72 L342.07 1445.72  Z
  " fill="#009af9" fill-rule="evenodd" fill-opacity="1"/>
<polyline clip-path="url(#clip692)" style="stroke:#000000; stroke-width:4; stroke-opacity:1; fill:none" points="
  342.07,1445.72 342.07,1445.72 369.87,1445.72 342.07,1445.72 
  "/>
<path clip-path="url(#clip692)" d="
M369.87 1445.72 L369.87 1445.72 L397.67 1445.72 L397.67 1445.72 L369.87 1445.72 L369.87 1445.72  Z
  " fill="#009af9" fill-rule="evenodd" fill-opacity="1"/>
<polyline clip-path="url(#clip692)" style="stroke:#000000; stroke-width:4; stroke-opacity:1; fill:none" points="
  369.87,1445.72 369.87,1445.72 397.67,1445.72 369.87,1445.72 
  "/>
<path clip-path="url(#clip692)" d="
M397.67 1445.72 L397.67 1445.72 L425.471 1445.72 L425.471 1445.72 L397.67 1445.72 L397.67 1445.72  Z
  " fill="#009af9" fill-rule="evenodd" fill-opacity="1"/>
<polyline clip-path="url(#clip692)" style="stroke:#000000; stroke-width:4; stroke-opacity:1; fill:none" points="
  397.67,1445.72 397.67,1445.72 425.471,1445.72 397.67,1445.72 
  "/>
<path clip-path="url(#clip692)" d="
M425.471 1442.12 L425.471 1445.72 L453.271 1445.72 L453.271 1442.12 L425.471 1442.12 L425.471 1442.12  Z
  " fill="#009af9" fill-rule="evenodd" fill-opacity="1"/>
<polyline clip-path="url(#clip692)" style="stroke:#000000; stroke-width:4; stroke-opacity:1; fill:none" points="
  425.471,1442.12 425.471,1445.72 453.271,1445.72 453.271,1442.12 425.471,1442.12 
  "/>
<path clip-path="url(#clip692)" d="
M453.271 1445.72 L453.271 1445.72 L481.071 1445.72 L481.071 1445.72 L453.271 1445.72 L453.271 1445.72  Z
  " fill="#009af9" fill-rule="evenodd" fill-opacity="1"/>
<polyline clip-path="url(#clip692)" style="stroke:#000000; stroke-width:4; stroke-opacity:1; fill:none" points="
  453.271,1445.72 453.271,1445.72 481.071,1445.72 453.271,1445.72 
  "/>
<path clip-path="url(#clip692)" d="
M481.071 1438.53 L481.071 1445.72 L508.871 1445.72 L508.871 1438.53 L481.071 1438.53 L481.071 1438.53  Z
  " fill="#009af9" fill-rule="evenodd" fill-opacity="1"/>
<polyline clip-path="url(#clip692)" style="stroke:#000000; stroke-width:4; stroke-opacity:1; fill:none" points="
  481.071,1438.53 481.071,1445.72 508.871,1445.72 508.871,1438.53 481.071,1438.53 
  "/>
<path clip-path="url(#clip692)" d="
M508.871 1443.92 L508.871 1445.72 L536.672 1445.72 L536.672 1443.92 L508.871 1443.92 L508.871 1443.92  Z
  " fill="#009af9" fill-rule="evenodd" fill-opacity="1"/>
<polyline clip-path="url(#clip692)" style="stroke:#000000; stroke-width:4; stroke-opacity:1; fill:none" points="
  508.871,1443.92 508.871,1445.72 536.672,1445.72 536.672,1443.92 508.871,1443.92 
  "/>
<path clip-path="url(#clip692)" d="
M536.672 1436.74 L536.672 1445.72 L564.472 1445.72 L564.472 1436.74 L536.672 1436.74 L536.672 1436.74  Z
  " fill="#009af9" fill-rule="evenodd" fill-opacity="1"/>
<polyline clip-path="url(#clip692)" style="stroke:#000000; stroke-width:4; stroke-opacity:1; fill:none" points="
  536.672,1436.74 536.672,1445.72 564.472,1445.72 564.472,1436.74 536.672,1436.74 
  "/>
<path clip-path="url(#clip692)" d="
M564.472 1440.33 L564.472 1445.72 L592.272 1445.72 L592.272 1440.33 L564.472 1440.33 L564.472 1440.33  Z
  " fill="#009af9" fill-rule="evenodd" fill-opacity="1"/>
<polyline clip-path="url(#clip692)" style="stroke:#000000; stroke-width:4; stroke-opacity:1; fill:none" points="
  564.472,1440.33 564.472,1445.72 592.272,1445.72 592.272,1440.33 564.472,1440.33 
  "/>
<path clip-path="url(#clip692)" d="
M592.272 1431.35 L592.272 1445.72 L620.073 1445.72 L620.073 1431.35 L592.272 1431.35 L592.272 1431.35  Z
  " fill="#009af9" fill-rule="evenodd" fill-opacity="1"/>
<polyline clip-path="url(#clip692)" style="stroke:#000000; stroke-width:4; stroke-opacity:1; fill:none" points="
  592.272,1431.35 592.272,1445.72 620.073,1445.72 620.073,1431.35 592.272,1431.35 
  "/>
<path clip-path="url(#clip692)" d="
M620.073 1434.94 L620.073 1445.72 L647.873 1445.72 L647.873 1434.94 L620.073 1434.94 L620.073 1434.94  Z
  " fill="#009af9" fill-rule="evenodd" fill-opacity="1"/>
<polyline clip-path="url(#clip692)" style="stroke:#000000; stroke-width:4; stroke-opacity:1; fill:none" points="
  620.073,1434.94 620.073,1445.72 647.873,1445.72 647.873,1434.94 620.073,1434.94 
  "/>
<path clip-path="url(#clip692)" d="
M647.873 1427.76 L647.873 1445.72 L675.673 1445.72 L675.673 1427.76 L647.873 1427.76 L647.873 1427.76  Z
  " fill="#009af9" fill-rule="evenodd" fill-opacity="1"/>
<polyline clip-path="url(#clip692)" style="stroke:#000000; stroke-width:4; stroke-opacity:1; fill:none" points="
  647.873,1427.76 647.873,1445.72 675.673,1445.72 675.673,1427.76 647.873,1427.76 
  "/>
<path clip-path="url(#clip692)" d="
M675.673 1427.76 L675.673 1445.72 L703.474 1445.72 L703.474 1427.76 L675.673 1427.76 L675.673 1427.76  Z
  " fill="#009af9" fill-rule="evenodd" fill-opacity="1"/>
<polyline clip-path="url(#clip692)" style="stroke:#000000; stroke-width:4; stroke-opacity:1; fill:none" points="
  675.673,1427.76 675.673,1445.72 703.474,1445.72 703.474,1427.76 675.673,1427.76 
  "/>
<path clip-path="url(#clip692)" d="
M703.474 1415.18 L703.474 1445.72 L731.274 1445.72 L731.274 1415.18 L703.474 1415.18 L703.474 1415.18  Z
  " fill="#009af9" fill-rule="evenodd" fill-opacity="1"/>
<polyline clip-path="url(#clip692)" style="stroke:#000000; stroke-width:4; stroke-opacity:1; fill:none" points="
  703.474,1415.18 703.474,1445.72 731.274,1445.72 731.274,1415.18 703.474,1415.18 
  "/>
<path clip-path="url(#clip692)" d="
M731.274 1397.22 L731.274 1445.72 L759.074 1445.72 L759.074 1397.22 L731.274 1397.22 L731.274 1397.22  Z
  " fill="#009af9" fill-rule="evenodd" fill-opacity="1"/>
<polyline clip-path="url(#clip692)" style="stroke:#000000; stroke-width:4; stroke-opacity:1; fill:none" points="
  731.274,1397.22 731.274,1445.72 759.074,1445.72 759.074,1397.22 731.274,1397.22 
  "/>
<path clip-path="url(#clip692)" d="
M759.074 1399.02 L759.074 1445.72 L786.875 1445.72 L786.875 1399.02 L759.074 1399.02 L759.074 1399.02  Z
  " fill="#009af9" fill-rule="evenodd" fill-opacity="1"/>
<polyline clip-path="url(#clip692)" style="stroke:#000000; stroke-width:4; stroke-opacity:1; fill:none" points="
  759.074,1399.02 759.074,1445.72 786.875,1445.72 786.875,1399.02 759.074,1399.02 
  "/>
<path clip-path="url(#clip692)" d="
M786.875 1399.02 L786.875 1445.72 L814.675 1445.72 L814.675 1399.02 L786.875 1399.02 L786.875 1399.02  Z
  " fill="#009af9" fill-rule="evenodd" fill-opacity="1"/>
<polyline clip-path="url(#clip692)" style="stroke:#000000; stroke-width:4; stroke-opacity:1; fill:none" points="
  786.875,1399.02 786.875,1445.72 814.675,1445.72 814.675,1399.02 786.875,1399.02 
  "/>
<path clip-path="url(#clip692)" d="
M814.675 1384.65 L814.675 1445.72 L842.475 1445.72 L842.475 1384.65 L814.675 1384.65 L814.675 1384.65  Z
  " fill="#009af9" fill-rule="evenodd" fill-opacity="1"/>
<polyline clip-path="url(#clip692)" style="stroke:#000000; stroke-width:4; stroke-opacity:1; fill:none" points="
  814.675,1384.65 814.675,1445.72 842.475,1445.72 842.475,1384.65 814.675,1384.65 
  "/>
<path clip-path="url(#clip692)" d="
M842.475 1375.67 L842.475 1445.72 L870.276 1445.72 L870.276 1375.67 L842.475 1375.67 L842.475 1375.67  Z
  " fill="#009af9" fill-rule="evenodd" fill-opacity="1"/>
<polyline clip-path="url(#clip692)" style="stroke:#000000; stroke-width:4; stroke-opacity:1; fill:none" points="
  842.475,1375.67 842.475,1445.72 870.276,1445.72 870.276,1375.67 842.475,1375.67 
  "/>
<path clip-path="url(#clip692)" d="
M870.276 1364.9 L870.276 1445.72 L898.076 1445.72 L898.076 1364.9 L870.276 1364.9 L870.276 1364.9  Z
  " fill="#009af9" fill-rule="evenodd" fill-opacity="1"/>
<polyline clip-path="url(#clip692)" style="stroke:#000000; stroke-width:4; stroke-opacity:1; fill:none" points="
  870.276,1364.9 870.276,1445.72 898.076,1445.72 898.076,1364.9 870.276,1364.9 
  "/>
<path clip-path="url(#clip692)" d="
M898.076 1355.92 L898.076 1445.72 L925.876 1445.72 L925.876 1355.92 L898.076 1355.92 L898.076 1355.92  Z
  " fill="#009af9" fill-rule="evenodd" fill-opacity="1"/>
<polyline clip-path="url(#clip692)" style="stroke:#000000; stroke-width:4; stroke-opacity:1; fill:none" points="
  898.076,1355.92 898.076,1445.72 925.876,1445.72 925.876,1355.92 898.076,1355.92 
  "/>
<path clip-path="url(#clip692)" d="
M925.876 1350.53 L925.876 1445.72 L953.677 1445.72 L953.677 1350.53 L925.876 1350.53 L925.876 1350.53  Z
  " fill="#009af9" fill-rule="evenodd" fill-opacity="1"/>
<polyline clip-path="url(#clip692)" style="stroke:#000000; stroke-width:4; stroke-opacity:1; fill:none" points="
  925.876,1350.53 925.876,1445.72 953.677,1445.72 953.677,1350.53 925.876,1350.53 
  "/>
<path clip-path="url(#clip692)" d="
M953.677 1320 L953.677 1445.72 L981.477 1445.72 L981.477 1320 L953.677 1320 L953.677 1320  Z
  " fill="#009af9" fill-rule="evenodd" fill-opacity="1"/>
<polyline clip-path="url(#clip692)" style="stroke:#000000; stroke-width:4; stroke-opacity:1; fill:none" points="
  953.677,1320 953.677,1445.72 981.477,1445.72 981.477,1320 953.677,1320 
  "/>
<path clip-path="url(#clip692)" d="
M981.477 1328.98 L981.477 1445.72 L1009.28 1445.72 L1009.28 1328.98 L981.477 1328.98 L981.477 1328.98  Z
  " fill="#009af9" fill-rule="evenodd" fill-opacity="1"/>
<polyline clip-path="url(#clip692)" style="stroke:#000000; stroke-width:4; stroke-opacity:1; fill:none" points="
  981.477,1328.98 981.477,1445.72 1009.28,1445.72 1009.28,1328.98 981.477,1328.98 
  "/>
<path clip-path="url(#clip692)" d="
M1009.28 1323.59 L1009.28 1445.72 L1037.08 1445.72 L1037.08 1323.59 L1009.28 1323.59 L1009.28 1323.59  Z
  " fill="#009af9" fill-rule="evenodd" fill-opacity="1"/>
<polyline clip-path="url(#clip692)" style="stroke:#000000; stroke-width:4; stroke-opacity:1; fill:none" points="
  1009.28,1323.59 1009.28,1445.72 1037.08,1445.72 1037.08,1323.59 1009.28,1323.59 
  "/>
<path clip-path="url(#clip692)" d="
M1037.08 1282.28 L1037.08 1445.72 L1064.88 1445.72 L1064.88 1282.28 L1037.08 1282.28 L1037.08 1282.28  Z
  " fill="#009af9" fill-rule="evenodd" fill-opacity="1"/>
<polyline clip-path="url(#clip692)" style="stroke:#000000; stroke-width:4; stroke-opacity:1; fill:none" points="
  1037.08,1282.28 1037.08,1445.72 1064.88,1445.72 1064.88,1282.28 1037.08,1282.28 
  "/>
<path clip-path="url(#clip692)" d="
M1064.88 1287.67 L1064.88 1445.72 L1092.68 1445.72 L1092.68 1287.67 L1064.88 1287.67 L1064.88 1287.67  Z
  " fill="#009af9" fill-rule="evenodd" fill-opacity="1"/>
<polyline clip-path="url(#clip692)" style="stroke:#000000; stroke-width:4; stroke-opacity:1; fill:none" points="
  1064.88,1287.67 1064.88,1445.72 1092.68,1445.72 1092.68,1287.67 1064.88,1287.67 
  "/>
<path clip-path="url(#clip692)" d="
M1092.68 1266.12 L1092.68 1445.72 L1120.48 1445.72 L1120.48 1266.12 L1092.68 1266.12 L1092.68 1266.12  Z
  " fill="#009af9" fill-rule="evenodd" fill-opacity="1"/>
<polyline clip-path="url(#clip692)" style="stroke:#000000; stroke-width:4; stroke-opacity:1; fill:none" points="
  1092.68,1266.12 1092.68,1445.72 1120.48,1445.72 1120.48,1266.12 1092.68,1266.12 
  "/>
<path clip-path="url(#clip692)" d="
M1120.48 1239.18 L1120.48 1445.72 L1148.28 1445.72 L1148.28 1239.18 L1120.48 1239.18 L1120.48 1239.18  Z
  " fill="#009af9" fill-rule="evenodd" fill-opacity="1"/>
<polyline clip-path="url(#clip692)" style="stroke:#000000; stroke-width:4; stroke-opacity:1; fill:none" points="
  1120.48,1239.18 1120.48,1445.72 1148.28,1445.72 1148.28,1239.18 1120.48,1239.18 
  "/>
<path clip-path="url(#clip692)" d="
M1148.28 1212.24 L1148.28 1445.72 L1176.08 1445.72 L1176.08 1212.24 L1148.28 1212.24 L1148.28 1212.24  Z
  " fill="#009af9" fill-rule="evenodd" fill-opacity="1"/>
<polyline clip-path="url(#clip692)" style="stroke:#000000; stroke-width:4; stroke-opacity:1; fill:none" points="
  1148.28,1212.24 1148.28,1445.72 1176.08,1445.72 1176.08,1212.24 1148.28,1212.24 
  "/>
<path clip-path="url(#clip692)" d="
M1176.08 1251.75 L1176.08 1445.72 L1203.88 1445.72 L1203.88 1251.75 L1176.08 1251.75 L1176.08 1251.75  Z
  " fill="#009af9" fill-rule="evenodd" fill-opacity="1"/>
<polyline clip-path="url(#clip692)" style="stroke:#000000; stroke-width:4; stroke-opacity:1; fill:none" points="
  1176.08,1251.75 1176.08,1445.72 1203.88,1445.72 1203.88,1251.75 1176.08,1251.75 
  "/>
<path clip-path="url(#clip692)" d="
M1203.88 1228.41 L1203.88 1445.72 L1231.68 1445.72 L1231.68 1228.41 L1203.88 1228.41 L1203.88 1228.41  Z
  " fill="#009af9" fill-rule="evenodd" fill-opacity="1"/>
<polyline clip-path="url(#clip692)" style="stroke:#000000; stroke-width:4; stroke-opacity:1; fill:none" points="
  1203.88,1228.41 1203.88,1445.72 1231.68,1445.72 1231.68,1228.41 1203.88,1228.41 
  "/>
<path clip-path="url(#clip692)" d="
M1231.68 1221.22 L1231.68 1445.72 L1259.48 1445.72 L1259.48 1221.22 L1231.68 1221.22 L1231.68 1221.22  Z
  " fill="#009af9" fill-rule="evenodd" fill-opacity="1"/>
<polyline clip-path="url(#clip692)" style="stroke:#000000; stroke-width:4; stroke-opacity:1; fill:none" points="
  1231.68,1221.22 1231.68,1445.72 1259.48,1445.72 1259.48,1221.22 1231.68,1221.22 
  "/>
<path clip-path="url(#clip692)" d="
M1259.48 1235.59 L1259.48 1445.72 L1287.28 1445.72 L1287.28 1235.59 L1259.48 1235.59 L1259.48 1235.59  Z
  " fill="#009af9" fill-rule="evenodd" fill-opacity="1"/>
<polyline clip-path="url(#clip692)" style="stroke:#000000; stroke-width:4; stroke-opacity:1; fill:none" points="
  1259.48,1235.59 1259.48,1445.72 1287.28,1445.72 1287.28,1235.59 1259.48,1235.59 
  "/>
<path clip-path="url(#clip692)" d="
M1287.28 1271.51 L1287.28 1445.72 L1315.08 1445.72 L1315.08 1271.51 L1287.28 1271.51 L1287.28 1271.51  Z
  " fill="#009af9" fill-rule="evenodd" fill-opacity="1"/>
<polyline clip-path="url(#clip692)" style="stroke:#000000; stroke-width:4; stroke-opacity:1; fill:none" points="
  1287.28,1271.51 1287.28,1445.72 1315.08,1445.72 1315.08,1271.51 1287.28,1271.51 
  "/>
<path clip-path="url(#clip692)" d="
M1315.08 1235.59 L1315.08 1445.72 L1342.88 1445.72 L1342.88 1235.59 L1315.08 1235.59 L1315.08 1235.59  Z
  " fill="#009af9" fill-rule="evenodd" fill-opacity="1"/>
<polyline clip-path="url(#clip692)" style="stroke:#000000; stroke-width:4; stroke-opacity:1; fill:none" points="
  1315.08,1235.59 1315.08,1445.72 1342.88,1445.72 1342.88,1235.59 1315.08,1235.59 
  "/>
<path clip-path="url(#clip692)" d="
M1342.88 1179.91 L1342.88 1445.72 L1370.68 1445.72 L1370.68 1179.91 L1342.88 1179.91 L1342.88 1179.91  Z
  " fill="#009af9" fill-rule="evenodd" fill-opacity="1"/>
<polyline clip-path="url(#clip692)" style="stroke:#000000; stroke-width:4; stroke-opacity:1; fill:none" points="
  1342.88,1179.91 1342.88,1445.72 1370.68,1445.72 1370.68,1179.91 1342.88,1179.91 
  "/>
<path clip-path="url(#clip692)" d="
M1370.68 750.682 L1370.68 1445.72 L1398.48 1445.72 L1398.48 750.682 L1370.68 750.682 L1370.68 750.682  Z
  " fill="#009af9" fill-rule="evenodd" fill-opacity="1"/>
<polyline clip-path="url(#clip692)" style="stroke:#000000; stroke-width:4; stroke-opacity:1; fill:none" points="
  1370.68,750.682 1370.68,1445.72 1398.48,1445.72 1398.48,750.682 1370.68,750.682 
  "/>
<path clip-path="url(#clip692)" d="
M1398.48 87.9763 L1398.48 1445.72 L1426.28 1445.72 L1426.28 87.9763 L1398.48 87.9763 L1398.48 87.9763  Z
  " fill="#009af9" fill-rule="evenodd" fill-opacity="1"/>
<polyline clip-path="url(#clip692)" style="stroke:#000000; stroke-width:4; stroke-opacity:1; fill:none" points="
  1398.48,87.9763 1398.48,1445.72 1426.28,1445.72 1426.28,87.9763 1398.48,87.9763 
  "/>
<path clip-path="url(#clip692)" d="
M1426.28 91.5682 L1426.28 1445.72 L1454.08 1445.72 L1454.08 91.5682 L1426.28 91.5682 L1426.28 91.5682  Z
  " fill="#009af9" fill-rule="evenodd" fill-opacity="1"/>
<polyline clip-path="url(#clip692)" style="stroke:#000000; stroke-width:4; stroke-opacity:1; fill:none" points="
  1426.28,91.5682 1426.28,1445.72 1454.08,1445.72 1454.08,91.5682 1426.28,91.5682 
  "/>
<path clip-path="url(#clip692)" d="
M1454.08 774.03 L1454.08 1445.72 L1481.88 1445.72 L1481.88 774.03 L1454.08 774.03 L1454.08 774.03  Z
  " fill="#009af9" fill-rule="evenodd" fill-opacity="1"/>
<polyline clip-path="url(#clip692)" style="stroke:#000000; stroke-width:4; stroke-opacity:1; fill:none" points="
  1454.08,774.03 1454.08,1445.72 1481.88,1445.72 1481.88,774.03 1454.08,774.03 
  "/>
<path clip-path="url(#clip692)" d="
M1481.88 1203.26 L1481.88 1445.72 L1509.68 1445.72 L1509.68 1203.26 L1481.88 1203.26 L1481.88 1203.26  Z
  " fill="#009af9" fill-rule="evenodd" fill-opacity="1"/>
<polyline clip-path="url(#clip692)" style="stroke:#000000; stroke-width:4; stroke-opacity:1; fill:none" points="
  1481.88,1203.26 1481.88,1445.72 1509.68,1445.72 1509.68,1203.26 1481.88,1203.26 
  "/>
<path clip-path="url(#clip692)" d="
M1509.68 1294.86 L1509.68 1445.72 L1537.48 1445.72 L1537.48 1294.86 L1509.68 1294.86 L1509.68 1294.86  Z
  " fill="#009af9" fill-rule="evenodd" fill-opacity="1"/>
<polyline clip-path="url(#clip692)" style="stroke:#000000; stroke-width:4; stroke-opacity:1; fill:none" points="
  1509.68,1294.86 1509.68,1445.72 1537.48,1445.72 1537.48,1294.86 1509.68,1294.86 
  "/>
<path clip-path="url(#clip692)" d="
M1537.48 1307.43 L1537.48 1445.72 L1565.28 1445.72 L1565.28 1307.43 L1537.48 1307.43 L1537.48 1307.43  Z
  " fill="#009af9" fill-rule="evenodd" fill-opacity="1"/>
<polyline clip-path="url(#clip692)" style="stroke:#000000; stroke-width:4; stroke-opacity:1; fill:none" points="
  1537.48,1307.43 1537.48,1445.72 1565.28,1445.72 1565.28,1307.43 1537.48,1307.43 
  "/>
<path clip-path="url(#clip692)" d="
M1565.28 1305.63 L1565.28 1445.72 L1593.08 1445.72 L1593.08 1305.63 L1565.28 1305.63 L1565.28 1305.63  Z
  " fill="#009af9" fill-rule="evenodd" fill-opacity="1"/>
<polyline clip-path="url(#clip692)" style="stroke:#000000; stroke-width:4; stroke-opacity:1; fill:none" points="
  1565.28,1305.63 1565.28,1445.72 1593.08,1445.72 1593.08,1305.63 1565.28,1305.63 
  "/>
<path clip-path="url(#clip692)" d="
M1593.08 1345.14 L1593.08 1445.72 L1620.88 1445.72 L1620.88 1345.14 L1593.08 1345.14 L1593.08 1345.14  Z
  " fill="#009af9" fill-rule="evenodd" fill-opacity="1"/>
<polyline clip-path="url(#clip692)" style="stroke:#000000; stroke-width:4; stroke-opacity:1; fill:none" points="
  1593.08,1345.14 1593.08,1445.72 1620.88,1445.72 1620.88,1345.14 1593.08,1345.14 
  "/>
<path clip-path="url(#clip692)" d="
M1620.88 1339.75 L1620.88 1445.72 L1648.68 1445.72 L1648.68 1339.75 L1620.88 1339.75 L1620.88 1339.75  Z
  " fill="#009af9" fill-rule="evenodd" fill-opacity="1"/>
<polyline clip-path="url(#clip692)" style="stroke:#000000; stroke-width:4; stroke-opacity:1; fill:none" points="
  1620.88,1339.75 1620.88,1445.72 1648.68,1445.72 1648.68,1339.75 1620.88,1339.75 
  "/>
<path clip-path="url(#clip692)" d="
M1648.68 1377.47 L1648.68 1445.72 L1676.49 1445.72 L1676.49 1377.47 L1648.68 1377.47 L1648.68 1377.47  Z
  " fill="#009af9" fill-rule="evenodd" fill-opacity="1"/>
<polyline clip-path="url(#clip692)" style="stroke:#000000; stroke-width:4; stroke-opacity:1; fill:none" points="
  1648.68,1377.47 1648.68,1445.72 1676.49,1445.72 1676.49,1377.47 1648.68,1377.47 
  "/>
<path clip-path="url(#clip692)" d="
M1676.49 1355.92 L1676.49 1445.72 L1704.29 1445.72 L1704.29 1355.92 L1676.49 1355.92 L1676.49 1355.92  Z
  " fill="#009af9" fill-rule="evenodd" fill-opacity="1"/>
<polyline clip-path="url(#clip692)" style="stroke:#000000; stroke-width:4; stroke-opacity:1; fill:none" points="
  1676.49,1355.92 1676.49,1445.72 1704.29,1445.72 1704.29,1355.92 1676.49,1355.92 
  "/>
<path clip-path="url(#clip692)" d="
M1704.29 1388.25 L1704.29 1445.72 L1732.09 1445.72 L1732.09 1388.25 L1704.29 1388.25 L1704.29 1388.25  Z
  " fill="#009af9" fill-rule="evenodd" fill-opacity="1"/>
<polyline clip-path="url(#clip692)" style="stroke:#000000; stroke-width:4; stroke-opacity:1; fill:none" points="
  1704.29,1388.25 1704.29,1445.72 1732.09,1445.72 1732.09,1388.25 1704.29,1388.25 
  "/>
<path clip-path="url(#clip692)" d="
M1732.09 1373.88 L1732.09 1445.72 L1759.89 1445.72 L1759.89 1373.88 L1732.09 1373.88 L1732.09 1373.88  Z
  " fill="#009af9" fill-rule="evenodd" fill-opacity="1"/>
<polyline clip-path="url(#clip692)" style="stroke:#000000; stroke-width:4; stroke-opacity:1; fill:none" points="
  1732.09,1373.88 1732.09,1445.72 1759.89,1445.72 1759.89,1373.88 1732.09,1373.88 
  "/>
<path clip-path="url(#clip692)" d="
M1759.89 1381.06 L1759.89 1445.72 L1787.69 1445.72 L1787.69 1381.06 L1759.89 1381.06 L1759.89 1381.06  Z
  " fill="#009af9" fill-rule="evenodd" fill-opacity="1"/>
<polyline clip-path="url(#clip692)" style="stroke:#000000; stroke-width:4; stroke-opacity:1; fill:none" points="
  1759.89,1381.06 1759.89,1445.72 1787.69,1445.72 1787.69,1381.06 1759.89,1381.06 
  "/>
<path clip-path="url(#clip692)" d="
M1787.69 1391.84 L1787.69 1445.72 L1815.49 1445.72 L1815.49 1391.84 L1787.69 1391.84 L1787.69 1391.84  Z
  " fill="#009af9" fill-rule="evenodd" fill-opacity="1"/>
<polyline clip-path="url(#clip692)" style="stroke:#000000; stroke-width:4; stroke-opacity:1; fill:none" points="
  1787.69,1391.84 1787.69,1445.72 1815.49,1445.72 1815.49,1391.84 1787.69,1391.84 
  "/>
<path clip-path="url(#clip692)" d="
M1815.49 1420.57 L1815.49 1445.72 L1843.29 1445.72 L1843.29 1420.57 L1815.49 1420.57 L1815.49 1420.57  Z
  " fill="#009af9" fill-rule="evenodd" fill-opacity="1"/>
<polyline clip-path="url(#clip692)" style="stroke:#000000; stroke-width:4; stroke-opacity:1; fill:none" points="
  1815.49,1420.57 1815.49,1445.72 1843.29,1445.72 1843.29,1420.57 1815.49,1420.57 
  "/>
<path clip-path="url(#clip692)" d="
M1843.29 1413.39 L1843.29 1445.72 L1871.09 1445.72 L1871.09 1413.39 L1843.29 1413.39 L1843.29 1413.39  Z
  " fill="#009af9" fill-rule="evenodd" fill-opacity="1"/>
<polyline clip-path="url(#clip692)" style="stroke:#000000; stroke-width:4; stroke-opacity:1; fill:none" points="
  1843.29,1413.39 1843.29,1445.72 1871.09,1445.72 1871.09,1413.39 1843.29,1413.39 
  "/>
<path clip-path="url(#clip692)" d="
M1871.09 1429.55 L1871.09 1445.72 L1898.89 1445.72 L1898.89 1429.55 L1871.09 1429.55 L1871.09 1429.55  Z
  " fill="#009af9" fill-rule="evenodd" fill-opacity="1"/>
<polyline clip-path="url(#clip692)" style="stroke:#000000; stroke-width:4; stroke-opacity:1; fill:none" points="
  1871.09,1429.55 1871.09,1445.72 1898.89,1445.72 1898.89,1429.55 1871.09,1429.55 
  "/>
<path clip-path="url(#clip692)" d="
M1898.89 1425.96 L1898.89 1445.72 L1926.69 1445.72 L1926.69 1425.96 L1898.89 1425.96 L1898.89 1425.96  Z
  " fill="#009af9" fill-rule="evenodd" fill-opacity="1"/>
<polyline clip-path="url(#clip692)" style="stroke:#000000; stroke-width:4; stroke-opacity:1; fill:none" points="
  1898.89,1425.96 1898.89,1445.72 1926.69,1445.72 1926.69,1425.96 1898.89,1425.96 
  "/>
<path clip-path="url(#clip692)" d="
M1926.69 1438.53 L1926.69 1445.72 L1954.49 1445.72 L1954.49 1438.53 L1926.69 1438.53 L1926.69 1438.53  Z
  " fill="#009af9" fill-rule="evenodd" fill-opacity="1"/>
<polyline clip-path="url(#clip692)" style="stroke:#000000; stroke-width:4; stroke-opacity:1; fill:none" points="
  1926.69,1438.53 1926.69,1445.72 1954.49,1445.72 1954.49,1438.53 1926.69,1438.53 
  "/>
<path clip-path="url(#clip692)" d="
M1954.49 1433.14 L1954.49 1445.72 L1982.29 1445.72 L1982.29 1433.14 L1954.49 1433.14 L1954.49 1433.14  Z
  " fill="#009af9" fill-rule="evenodd" fill-opacity="1"/>
<polyline clip-path="url(#clip692)" style="stroke:#000000; stroke-width:4; stroke-opacity:1; fill:none" points="
  1954.49,1433.14 1954.49,1445.72 1982.29,1445.72 1982.29,1433.14 1954.49,1433.14 
  "/>
<path clip-path="url(#clip692)" d="
M1982.29 1438.53 L1982.29 1445.72 L2010.09 1445.72 L2010.09 1438.53 L1982.29 1438.53 L1982.29 1438.53  Z
  " fill="#009af9" fill-rule="evenodd" fill-opacity="1"/>
<polyline clip-path="url(#clip692)" style="stroke:#000000; stroke-width:4; stroke-opacity:1; fill:none" points="
  1982.29,1438.53 1982.29,1445.72 2010.09,1445.72 2010.09,1438.53 1982.29,1438.53 
  "/>
<path clip-path="url(#clip692)" d="
M2010.09 1431.35 L2010.09 1445.72 L2037.89 1445.72 L2037.89 1431.35 L2010.09 1431.35 L2010.09 1431.35  Z
  " fill="#009af9" fill-rule="evenodd" fill-opacity="1"/>
<polyline clip-path="url(#clip692)" style="stroke:#000000; stroke-width:4; stroke-opacity:1; fill:none" points="
  2010.09,1431.35 2010.09,1445.72 2037.89,1445.72 2037.89,1431.35 2010.09,1431.35 
  "/>
<path clip-path="url(#clip692)" d="
M2037.89 1436.74 L2037.89 1445.72 L2065.69 1445.72 L2065.69 1436.74 L2037.89 1436.74 L2037.89 1436.74  Z
  " fill="#009af9" fill-rule="evenodd" fill-opacity="1"/>
<polyline clip-path="url(#clip692)" style="stroke:#000000; stroke-width:4; stroke-opacity:1; fill:none" points="
  2037.89,1436.74 2037.89,1445.72 2065.69,1445.72 2065.69,1436.74 2037.89,1436.74 
  "/>
<path clip-path="url(#clip692)" d="
M2065.69 1443.92 L2065.69 1445.72 L2093.49 1445.72 L2093.49 1443.92 L2065.69 1443.92 L2065.69 1443.92  Z
  " fill="#009af9" fill-rule="evenodd" fill-opacity="1"/>
<polyline clip-path="url(#clip692)" style="stroke:#000000; stroke-width:4; stroke-opacity:1; fill:none" points="
  2065.69,1443.92 2065.69,1445.72 2093.49,1445.72 2093.49,1443.92 2065.69,1443.92 
  "/>
<path clip-path="url(#clip692)" d="
M2093.49 1440.33 L2093.49 1445.72 L2121.29 1445.72 L2121.29 1440.33 L2093.49 1440.33 L2093.49 1440.33  Z
  " fill="#009af9" fill-rule="evenodd" fill-opacity="1"/>
<polyline clip-path="url(#clip692)" style="stroke:#000000; stroke-width:4; stroke-opacity:1; fill:none" points="
  2093.49,1440.33 2093.49,1445.72 2121.29,1445.72 2121.29,1440.33 2093.49,1440.33 
  "/>
<path clip-path="url(#clip692)" d="
M2121.29 1443.92 L2121.29 1445.72 L2149.09 1445.72 L2149.09 1443.92 L2121.29 1443.92 L2121.29 1443.92  Z
  " fill="#009af9" fill-rule="evenodd" fill-opacity="1"/>
<polyline clip-path="url(#clip692)" style="stroke:#000000; stroke-width:4; stroke-opacity:1; fill:none" points="
  2121.29,1443.92 2121.29,1445.72 2149.09,1445.72 2149.09,1443.92 2121.29,1443.92 
  "/>
<path clip-path="url(#clip692)" d="
M2149.09 1443.92 L2149.09 1445.72 L2176.89 1445.72 L2176.89 1443.92 L2149.09 1443.92 L2149.09 1443.92  Z
  " fill="#009af9" fill-rule="evenodd" fill-opacity="1"/>
<polyline clip-path="url(#clip692)" style="stroke:#000000; stroke-width:4; stroke-opacity:1; fill:none" points="
  2149.09,1443.92 2149.09,1445.72 2176.89,1445.72 2176.89,1443.92 2149.09,1443.92 
  "/>
<path clip-path="url(#clip692)" d="
M2176.89 1445.72 L2176.89 1445.72 L2204.69 1445.72 L2204.69 1445.72 L2176.89 1445.72 L2176.89 1445.72  Z
  " fill="#009af9" fill-rule="evenodd" fill-opacity="1"/>
<polyline clip-path="url(#clip692)" style="stroke:#000000; stroke-width:4; stroke-opacity:1; fill:none" points="
  2176.89,1445.72 2176.89,1445.72 2204.69,1445.72 2176.89,1445.72 
  "/>
<path clip-path="url(#clip692)" d="
M2204.69 1443.92 L2204.69 1445.72 L2232.49 1445.72 L2232.49 1443.92 L2204.69 1443.92 L2204.69 1443.92  Z
  " fill="#009af9" fill-rule="evenodd" fill-opacity="1"/>
<polyline clip-path="url(#clip692)" style="stroke:#000000; stroke-width:4; stroke-opacity:1; fill:none" points="
  2204.69,1443.92 2204.69,1445.72 2232.49,1445.72 2232.49,1443.92 2204.69,1443.92 
  "/>
<path clip-path="url(#clip690)" d="
M1989.74 251.724 L2280.76 251.724 L2280.76 130.764 L1989.74 130.764  Z
  " fill="#ffffff" fill-rule="evenodd" fill-opacity="1"/>
<polyline clip-path="url(#clip690)" style="stroke:#000000; stroke-width:4; stroke-opacity:1; fill:none" points="
  1989.74,251.724 2280.76,251.724 2280.76,130.764 1989.74,130.764 1989.74,251.724 
  "/>
<path clip-path="url(#clip690)" d="
M2013.74 215.436 L2157.74 215.436 L2157.74 167.052 L2013.74 167.052 L2013.74 215.436  Z
  " fill="#009af9" fill-rule="evenodd" fill-opacity="1"/>
<polyline clip-path="url(#clip690)" style="stroke:#000000; stroke-width:4; stroke-opacity:1; fill:none" points="
  2013.74,215.436 2157.74,215.436 2157.74,167.052 2013.74,167.052 2013.74,215.436 
  "/>
<path clip-path="url(#clip690)" d="M 0 0 M2195.58 210.931 Q2193.77 215.561 2192.06 216.973 Q2190.35 218.385 2187.48 218.385 L2184.08 218.385 L2184.08 214.82 L2186.58 214.82 Q2188.33 214.82 2189.31 213.987 Q2190.28 213.154 2191.46 210.052 L2192.22 208.107 L2181.74 182.598 L2186.25 182.598 L2194.35 202.876 L2202.46 182.598 L2206.97 182.598 L2195.58 210.931 Z" fill="#000000" fill-rule="evenodd" fill-opacity="1" /><path clip-path="url(#clip690)" d="M 0 0 M2212.85 204.589 L2220.49 204.589 L2220.49 178.223 L2212.18 179.89 L2212.18 175.631 L2220.44 173.964 L2225.12 173.964 L2225.12 204.589 L2232.76 204.589 L2232.76 208.524 L2212.85 208.524 L2212.85 204.589 Z" fill="#000000" fill-rule="evenodd" fill-opacity="1" /></svg>
