<?xml version="1.0" encoding="utf-8"?>
<svg xmlns="http://www.w3.org/2000/svg" xmlns:xlink="http://www.w3.org/1999/xlink" width="600" height="400" viewBox="0 0 2400 1600">
<defs>
  <clipPath id="clip780">
    <rect x="0" y="0" width="2400" height="1600"/>
  </clipPath>
</defs>
<path clip-path="url(#clip780)" d="
M0 1600 L2400 1600 L2400 0 L0 0  Z
  " fill="#ffffff" fill-rule="evenodd" fill-opacity="1"/>
<defs>
  <clipPath id="clip781">
    <rect x="480" y="0" width="1681" height="1600"/>
  </clipPath>
</defs>
<path clip-path="url(#clip780)" d="
M166.205 1486.45 L2352.76 1486.45 L2352.76 47.2441 L166.205 47.2441  Z
  " fill="#ffffff" fill-rule="evenodd" fill-opacity="1"/>
<defs>
  <clipPath id="clip782">
    <rect x="166" y="47" width="2188" height="1440"/>
  </clipPath>
</defs>
<polyline clip-path="url(#clip782)" style="stroke:#000000; stroke-width:2; stroke-opacity:0.1; fill:none" points="
  394.581,1486.45 394.581,47.2441 
  "/>
<polyline clip-path="url(#clip782)" style="stroke:#000000; stroke-width:2; stroke-opacity:0.1; fill:none" points="
  800.003,1486.45 800.003,47.2441 
  "/>
<polyline clip-path="url(#clip782)" style="stroke:#000000; stroke-width:2; stroke-opacity:0.1; fill:none" points="
  1205.42,1486.45 1205.42,47.2441 
  "/>
<polyline clip-path="url(#clip782)" style="stroke:#000000; stroke-width:2; stroke-opacity:0.1; fill:none" points="
  1610.85,1486.45 1610.85,47.2441 
  "/>
<polyline clip-path="url(#clip782)" style="stroke:#000000; stroke-width:2; stroke-opacity:0.1; fill:none" points="
  2016.27,1486.45 2016.27,47.2441 
  "/>
<polyline clip-path="url(#clip782)" style="stroke:#000000; stroke-width:2; stroke-opacity:0.1; fill:none" points="
  166.205,1445.72 2352.76,1445.72 
  "/>
<polyline clip-path="url(#clip782)" style="stroke:#000000; stroke-width:2; stroke-opacity:0.1; fill:none" points="
  166.205,1118.55 2352.76,1118.55 
  "/>
<polyline clip-path="url(#clip782)" style="stroke:#000000; stroke-width:2; stroke-opacity:0.1; fill:none" points="
  166.205,791.383 2352.76,791.383 
  "/>
<polyline clip-path="url(#clip782)" style="stroke:#000000; stroke-width:2; stroke-opacity:0.1; fill:none" points="
  166.205,464.217 2352.76,464.217 
  "/>
<polyline clip-path="url(#clip782)" style="stroke:#000000; stroke-width:2; stroke-opacity:0.1; fill:none" points="
  166.205,137.051 2352.76,137.051 
  "/>
<polyline clip-path="url(#clip780)" style="stroke:#000000; stroke-width:4; stroke-opacity:1; fill:none" points="
  166.205,1486.45 2352.76,1486.45 
  "/>
<polyline clip-path="url(#clip780)" style="stroke:#000000; stroke-width:4; stroke-opacity:1; fill:none" points="
  166.205,1486.45 166.205,47.2441 
  "/>
<polyline clip-path="url(#clip780)" style="stroke:#000000; stroke-width:4; stroke-opacity:1; fill:none" points="
  394.581,1486.45 394.581,1469.18 
  "/>
<polyline clip-path="url(#clip780)" style="stroke:#000000; stroke-width:4; stroke-opacity:1; fill:none" points="
  800.003,1486.45 800.003,1469.18 
  "/>
<polyline clip-path="url(#clip780)" style="stroke:#000000; stroke-width:4; stroke-opacity:1; fill:none" points="
  1205.42,1486.45 1205.42,1469.18 
  "/>
<polyline clip-path="url(#clip780)" style="stroke:#000000; stroke-width:4; stroke-opacity:1; fill:none" points="
  1610.85,1486.45 1610.85,1469.18 
  "/>
<polyline clip-path="url(#clip780)" style="stroke:#000000; stroke-width:4; stroke-opacity:1; fill:none" points="
  2016.27,1486.45 2016.27,1469.18 
  "/>
<polyline clip-path="url(#clip780)" style="stroke:#000000; stroke-width:4; stroke-opacity:1; fill:none" points="
  166.205,1445.72 192.443,1445.72 
  "/>
<polyline clip-path="url(#clip780)" style="stroke:#000000; stroke-width:4; stroke-opacity:1; fill:none" points="
  166.205,1118.55 192.443,1118.55 
  "/>
<polyline clip-path="url(#clip780)" style="stroke:#000000; stroke-width:4; stroke-opacity:1; fill:none" points="
  166.205,791.383 192.443,791.383 
  "/>
<polyline clip-path="url(#clip780)" style="stroke:#000000; stroke-width:4; stroke-opacity:1; fill:none" points="
  166.205,464.217 192.443,464.217 
  "/>
<polyline clip-path="url(#clip780)" style="stroke:#000000; stroke-width:4; stroke-opacity:1; fill:none" points="
  166.205,137.051 192.443,137.051 
  "/>
<path clip-path="url(#clip780)" d="M 0 0 M374.755 1525.04 L387.232 1525.04 L387.232 1528.83 L374.755 1528.83 L374.755 1525.04 Z" fill="#000000" fill-rule="evenodd" fill-opacity="1" /><path clip-path="url(#clip780)" d="M 0 0 M402.88 1520.78 Q399.732 1520.78 397.88 1522.93 Q396.051 1525.08 396.051 1528.83 Q396.051 1532.56 397.88 1534.73 Q399.732 1536.89 402.88 1536.89 Q406.028 1536.89 407.857 1534.73 Q409.708 1532.56 409.708 1528.83 Q409.708 1525.08 407.857 1522.93 Q406.028 1520.78 402.88 1520.78 M412.162 1506.12 L412.162 1510.38 Q410.403 1509.55 408.597 1509.11 Q406.815 1508.67 405.056 1508.67 Q400.426 1508.67 397.972 1511.8 Q395.542 1514.92 395.195 1521.24 Q396.56 1519.23 398.621 1518.16 Q400.681 1517.07 403.158 1517.07 Q408.366 1517.07 411.375 1520.24 Q414.408 1523.39 414.408 1528.83 Q414.408 1534.16 411.259 1537.37 Q408.111 1540.59 402.88 1540.59 Q396.884 1540.59 393.713 1536.01 Q390.542 1531.4 390.542 1522.67 Q390.542 1514.48 394.431 1509.62 Q398.32 1504.73 404.871 1504.73 Q406.63 1504.73 408.412 1505.08 Q410.218 1505.43 412.162 1506.12 Z" fill="#000000" fill-rule="evenodd" fill-opacity="1" /><path clip-path="url(#clip780)" d="M 0 0 M780.581 1525.04 L793.058 1525.04 L793.058 1528.83 L780.581 1528.83 L780.581 1525.04 Z" fill="#000000" fill-rule="evenodd" fill-opacity="1" /><path clip-path="url(#clip780)" d="M 0 0 M812.294 1521.29 Q815.651 1522 817.526 1524.27 Q819.424 1526.54 819.424 1529.87 Q819.424 1534.99 815.905 1537.79 Q812.387 1540.59 805.905 1540.59 Q803.73 1540.59 801.415 1540.15 Q799.123 1539.73 796.669 1538.88 L796.669 1534.36 Q798.614 1535.5 800.929 1536.08 Q803.243 1536.66 805.767 1536.66 Q810.165 1536.66 812.456 1534.92 Q814.771 1533.18 814.771 1529.87 Q814.771 1526.82 812.618 1525.11 Q810.489 1523.37 806.669 1523.37 L802.642 1523.37 L802.642 1519.53 L806.854 1519.53 Q810.304 1519.53 812.132 1518.16 Q813.961 1516.77 813.961 1514.18 Q813.961 1511.52 812.063 1510.11 Q810.188 1508.67 806.669 1508.67 Q804.748 1508.67 802.549 1509.09 Q800.35 1509.5 797.711 1510.38 L797.711 1506.22 Q800.373 1505.48 802.688 1505.11 Q805.026 1504.73 807.086 1504.73 Q812.41 1504.73 815.512 1507.17 Q818.614 1509.57 818.614 1513.69 Q818.614 1516.56 816.97 1518.55 Q815.327 1520.52 812.294 1521.29 Z" fill="#000000" fill-rule="evenodd" fill-opacity="1" /><path clip-path="url(#clip780)" d="M 0 0 M1205.42 1508.44 Q1201.81 1508.44 1199.98 1512 Q1198.18 1515.55 1198.18 1522.67 Q1198.18 1529.78 1199.98 1533.35 Q1201.81 1536.89 1205.42 1536.89 Q1209.06 1536.89 1210.86 1533.35 Q1212.69 1529.78 1212.69 1522.67 Q1212.69 1515.55 1210.86 1512 Q1209.06 1508.44 1205.42 1508.44 M1205.42 1504.73 Q1211.23 1504.73 1214.29 1509.34 Q1217.37 1513.92 1217.37 1522.67 Q1217.37 1531.4 1214.29 1536.01 Q1211.23 1540.59 1205.42 1540.59 Q1199.61 1540.59 1196.54 1536.01 Q1193.48 1531.4 1193.48 1522.67 Q1193.48 1513.92 1196.54 1509.34 Q1199.61 1504.73 1205.42 1504.73 Z" fill="#000000" fill-rule="evenodd" fill-opacity="1" /><path clip-path="url(#clip780)" d="M 0 0 M1615.09 1521.29 Q1618.45 1522 1620.32 1524.27 Q1622.22 1526.54 1622.22 1529.87 Q1622.22 1534.99 1618.7 1537.79 Q1615.19 1540.59 1608.7 1540.59 Q1606.53 1540.59 1604.21 1540.15 Q1601.92 1539.73 1599.47 1538.88 L1599.47 1534.36 Q1601.41 1535.5 1603.73 1536.08 Q1606.04 1536.66 1608.57 1536.66 Q1612.96 1536.66 1615.26 1534.92 Q1617.57 1533.18 1617.57 1529.87 Q1617.57 1526.82 1615.42 1525.11 Q1613.29 1523.37 1609.47 1523.37 L1605.44 1523.37 L1605.44 1519.53 L1609.65 1519.53 Q1613.1 1519.53 1614.93 1518.16 Q1616.76 1516.77 1616.76 1514.18 Q1616.76 1511.52 1614.86 1510.11 Q1612.99 1508.67 1609.47 1508.67 Q1607.55 1508.67 1605.35 1509.09 Q1603.15 1509.5 1600.51 1510.38 L1600.51 1506.22 Q1603.17 1505.48 1605.49 1505.11 Q1607.82 1504.73 1609.88 1504.73 Q1615.21 1504.73 1618.31 1507.17 Q1621.41 1509.57 1621.41 1513.69 Q1621.41 1516.56 1619.77 1518.55 Q1618.13 1520.52 1615.09 1521.29 Z" fill="#000000" fill-rule="evenodd" fill-opacity="1" /><path clip-path="url(#clip780)" d="M 0 0 M2016.67 1520.78 Q2013.52 1520.78 2011.67 1522.93 Q2009.84 1525.08 2009.84 1528.83 Q2009.84 1532.56 2011.67 1534.73 Q2013.52 1536.89 2016.67 1536.89 Q2019.82 1536.89 2021.65 1534.73 Q2023.5 1532.56 2023.5 1528.83 Q2023.5 1525.08 2021.65 1522.93 Q2019.82 1520.78 2016.67 1520.78 M2025.95 1506.12 L2025.95 1510.38 Q2024.2 1509.55 2022.39 1509.11 Q2020.61 1508.67 2018.85 1508.67 Q2014.22 1508.67 2011.76 1511.8 Q2009.33 1514.92 2008.99 1521.24 Q2010.35 1519.23 2012.41 1518.16 Q2014.47 1517.07 2016.95 1517.07 Q2022.16 1517.07 2025.17 1520.24 Q2028.2 1523.39 2028.2 1528.83 Q2028.2 1534.16 2025.05 1537.37 Q2021.9 1540.59 2016.67 1540.59 Q2010.68 1540.59 2007.51 1536.01 Q2004.33 1531.4 2004.33 1522.67 Q2004.33 1514.48 2008.22 1509.62 Q2012.11 1504.73 2018.66 1504.73 Q2020.42 1504.73 2022.2 1505.08 Q2024.01 1505.43 2025.95 1506.12 Z" fill="#000000" fill-rule="evenodd" fill-opacity="1" /><path clip-path="url(#clip780)" d="M 0 0 M130.26 1431.51 Q126.649 1431.51 124.82 1435.08 Q123.015 1438.62 123.015 1445.75 Q123.015 1452.86 124.82 1456.42 Q126.649 1459.96 130.26 1459.96 Q133.895 1459.96 135.7 1456.42 Q137.529 1452.86 137.529 1445.75 Q137.529 1438.62 135.7 1435.08 Q133.895 1431.51 130.26 1431.51 M130.26 1427.81 Q136.07 1427.81 139.126 1432.42 Q142.205 1437 142.205 1445.75 Q142.205 1454.48 139.126 1459.08 Q136.07 1463.67 130.26 1463.67 Q124.45 1463.67 121.371 1459.08 Q118.316 1454.48 118.316 1445.75 Q118.316 1437 121.371 1432.42 Q124.45 1427.81 130.26 1427.81 Z" fill="#000000" fill-rule="evenodd" fill-opacity="1" /><path clip-path="url(#clip780)" d="M 0 0 M71.8578 1131.89 L88.1772 1131.89 L88.1772 1135.83 L66.2328 1135.83 L66.2328 1131.89 Q68.8949 1129.14 73.4782 1124.51 Q78.0846 1119.86 79.2652 1118.51 Q81.5105 1115.99 82.3902 1114.26 Q83.2929 1112.5 83.2929 1110.81 Q83.2929 1108.05 81.3485 1106.32 Q79.4272 1104.58 76.3254 1104.58 Q74.1263 1104.58 71.6726 1105.34 Q69.2421 1106.11 66.4643 1107.66 L66.4643 1102.94 Q69.2884 1101.8 71.7421 1101.22 Q74.1958 1100.64 76.2328 1100.64 Q81.6031 1100.64 84.7976 1103.33 Q87.992 1106.01 87.992 1110.51 Q87.992 1112.64 87.1818 1114.56 Q86.3948 1116.45 84.2883 1119.05 Q83.7096 1119.72 80.6078 1122.94 Q77.5059 1126.13 71.8578 1131.89 Z" fill="#000000" fill-rule="evenodd" fill-opacity="1" /><path clip-path="url(#clip780)" d="M 0 0 M103.247 1104.35 Q99.6354 1104.35 97.8068 1107.91 Q96.0012 1111.45 96.0012 1118.58 Q96.0012 1125.69 97.8068 1129.26 Q99.6354 1132.8 103.247 1132.8 Q106.881 1132.8 108.686 1129.26 Q110.515 1125.69 110.515 1118.58 Q110.515 1111.45 108.686 1107.91 Q106.881 1104.35 103.247 1104.35 M103.247 1100.64 Q109.057 1100.64 112.112 1105.25 Q115.191 1109.83 115.191 1118.58 Q115.191 1127.31 112.112 1131.92 Q109.057 1136.5 103.247 1136.5 Q97.4364 1136.5 94.3577 1131.92 Q91.3022 1127.31 91.3022 1118.58 Q91.3022 1109.83 94.3577 1105.25 Q97.4364 1100.64 103.247 1100.64 Z" fill="#000000" fill-rule="evenodd" fill-opacity="1" /><path clip-path="url(#clip780)" d="M 0 0 M130.26 1104.35 Q126.649 1104.35 124.82 1107.91 Q123.015 1111.45 123.015 1118.58 Q123.015 1125.69 124.82 1129.26 Q126.649 1132.8 130.26 1132.8 Q133.895 1132.8 135.7 1129.26 Q137.529 1125.69 137.529 1118.58 Q137.529 1111.45 135.7 1107.91 Q133.895 1104.35 130.26 1104.35 M130.26 1100.64 Q136.07 1100.64 139.126 1105.25 Q142.205 1109.83 142.205 1118.58 Q142.205 1127.31 139.126 1131.92 Q136.07 1136.5 130.26 1136.5 Q124.45 1136.5 121.371 1131.92 Q118.316 1127.31 118.316 1118.58 Q118.316 1109.83 121.371 1105.25 Q124.45 1100.64 130.26 1100.64 Z" fill="#000000" fill-rule="evenodd" fill-opacity="1" /><path clip-path="url(#clip780)" d="M 0 0 M78.5939 778.177 L66.7884 796.626 L78.5939 796.626 L78.5939 778.177 M77.367 774.103 L83.2466 774.103 L83.2466 796.626 L88.1772 796.626 L88.1772 800.515 L83.2466 800.515 L83.2466 808.663 L78.5939 808.663 L78.5939 800.515 L62.9921 800.515 L62.9921 796.001 L77.367 774.103 Z" fill="#000000" fill-rule="evenodd" fill-opacity="1" /><path clip-path="url(#clip780)" d="M 0 0 M103.247 777.182 Q99.6354 777.182 97.8068 780.747 Q96.0012 784.289 96.0012 791.418 Q96.0012 798.525 97.8068 802.089 Q99.6354 805.631 103.247 805.631 Q106.881 805.631 108.686 802.089 Q110.515 798.525 110.515 791.418 Q110.515 784.289 108.686 780.747 Q106.881 777.182 103.247 777.182 M103.247 773.478 Q109.057 773.478 112.112 778.085 Q115.191 782.668 115.191 791.418 Q115.191 800.145 112.112 804.751 Q109.057 809.335 103.247 809.335 Q97.4364 809.335 94.3577 804.751 Q91.3022 800.145 91.3022 791.418 Q91.3022 782.668 94.3577 778.085 Q97.4364 773.478 103.247 773.478 Z" fill="#000000" fill-rule="evenodd" fill-opacity="1" /><path clip-path="url(#clip780)" d="M 0 0 M130.26 777.182 Q126.649 777.182 124.82 780.747 Q123.015 784.289 123.015 791.418 Q123.015 798.525 124.82 802.089 Q126.649 805.631 130.26 805.631 Q133.895 805.631 135.7 802.089 Q137.529 798.525 137.529 791.418 Q137.529 784.289 135.7 780.747 Q133.895 777.182 130.26 777.182 M130.26 773.478 Q136.07 773.478 139.126 778.085 Q142.205 782.668 142.205 791.418 Q142.205 800.145 139.126 804.751 Q136.07 809.335 130.26 809.335 Q124.45 809.335 121.371 804.751 Q118.316 800.145 118.316 791.418 Q118.316 782.668 121.371 778.085 Q124.45 773.478 130.26 773.478 Z" fill="#000000" fill-rule="evenodd" fill-opacity="1" /><path clip-path="url(#clip780)" d="M 0 0 M76.6495 462.354 Q73.5013 462.354 71.6495 464.507 Q69.8208 466.659 69.8208 470.409 Q69.8208 474.136 71.6495 476.312 Q73.5013 478.465 76.6495 478.465 Q79.7976 478.465 81.6263 476.312 Q83.4781 474.136 83.4781 470.409 Q83.4781 466.659 81.6263 464.507 Q79.7976 462.354 76.6495 462.354 M85.9318 447.701 L85.9318 451.96 Q84.1726 451.127 82.367 450.687 Q80.5846 450.247 78.8254 450.247 Q74.1958 450.247 71.7421 453.372 Q69.3115 456.497 68.9643 462.817 Q70.33 460.803 72.3902 459.738 Q74.4504 458.65 76.9272 458.65 Q82.1355 458.65 85.1448 461.821 Q88.1772 464.97 88.1772 470.409 Q88.1772 475.733 85.029 478.951 Q81.8809 482.169 76.6495 482.169 Q70.6541 482.169 67.4828 477.585 Q64.3116 472.979 64.3116 464.252 Q64.3116 456.058 68.2004 451.197 Q72.0893 446.312 78.6402 446.312 Q80.3994 446.312 82.1818 446.66 Q83.9874 447.007 85.9318 447.701 Z" fill="#000000" fill-rule="evenodd" fill-opacity="1" /><path clip-path="url(#clip780)" d="M 0 0 M103.247 450.016 Q99.6354 450.016 97.8068 453.581 Q96.0012 457.122 96.0012 464.252 Q96.0012 471.358 97.8068 474.923 Q99.6354 478.465 103.247 478.465 Q106.881 478.465 108.686 474.923 Q110.515 471.358 110.515 464.252 Q110.515 457.122 108.686 453.581 Q106.881 450.016 103.247 450.016 M103.247 446.312 Q109.057 446.312 112.112 450.919 Q115.191 455.502 115.191 464.252 Q115.191 472.979 112.112 477.585 Q109.057 482.169 103.247 482.169 Q97.4364 482.169 94.3577 477.585 Q91.3022 472.979 91.3022 464.252 Q91.3022 455.502 94.3577 450.919 Q97.4364 446.312 103.247 446.312 Z" fill="#000000" fill-rule="evenodd" fill-opacity="1" /><path clip-path="url(#clip780)" d="M 0 0 M130.26 450.016 Q126.649 450.016 124.82 453.581 Q123.015 457.122 123.015 464.252 Q123.015 471.358 124.82 474.923 Q126.649 478.465 130.26 478.465 Q133.895 478.465 135.7 474.923 Q137.529 471.358 137.529 464.252 Q137.529 457.122 135.7 453.581 Q133.895 450.016 130.26 450.016 M130.26 446.312 Q136.07 446.312 139.126 450.919 Q142.205 455.502 142.205 464.252 Q142.205 472.979 139.126 477.585 Q136.07 482.169 130.26 482.169 Q124.45 482.169 121.371 477.585 Q118.316 472.979 118.316 464.252 Q118.316 455.502 121.371 450.919 Q124.45 446.312 130.26 446.312 Z" fill="#000000" fill-rule="evenodd" fill-opacity="1" /><path clip-path="url(#clip780)" d="M 0 0 M76.3254 137.919 Q72.9921 137.919 71.0708 139.702 Q69.1726 141.484 69.1726 144.609 Q69.1726 147.734 71.0708 149.516 Q72.9921 151.299 76.3254 151.299 Q79.6587 151.299 81.58 149.516 Q83.5013 147.711 83.5013 144.609 Q83.5013 141.484 81.58 139.702 Q79.6819 137.919 76.3254 137.919 M71.6495 135.929 Q68.6402 135.188 66.9504 133.128 Q65.2838 131.067 65.2838 128.104 Q65.2838 123.961 68.2236 121.554 Q71.1865 119.146 76.3254 119.146 Q81.4874 119.146 84.4272 121.554 Q87.367 123.961 87.367 128.104 Q87.367 131.067 85.6772 133.128 Q84.0105 135.188 81.0244 135.929 Q84.404 136.716 86.279 139.007 Q88.1772 141.299 88.1772 144.609 Q88.1772 149.632 85.0985 152.317 Q82.0429 155.002 76.3254 155.002 Q70.6078 155.002 67.5291 152.317 Q64.4736 149.632 64.4736 144.609 Q64.4736 141.299 66.3717 139.007 Q68.2699 136.716 71.6495 135.929 M69.9365 128.544 Q69.9365 131.229 71.6032 132.734 Q73.293 134.239 76.3254 134.239 Q79.3346 134.239 81.0244 132.734 Q82.7374 131.229 82.7374 128.544 Q82.7374 125.859 81.0244 124.355 Q79.3346 122.85 76.3254 122.85 Q73.293 122.85 71.6032 124.355 Q69.9365 125.859 69.9365 128.544 Z" fill="#000000" fill-rule="evenodd" fill-opacity="1" /><path clip-path="url(#clip780)" d="M 0 0 M103.247 122.85 Q99.6354 122.85 97.8068 126.415 Q96.0012 129.956 96.0012 137.086 Q96.0012 144.192 97.8068 147.757 Q99.6354 151.299 103.247 151.299 Q106.881 151.299 108.686 147.757 Q110.515 144.192 110.515 137.086 Q110.515 129.956 108.686 126.415 Q106.881 122.85 103.247 122.85 M103.247 119.146 Q109.057 119.146 112.112 123.753 Q115.191 128.336 115.191 137.086 Q115.191 145.813 112.112 150.419 Q109.057 155.002 103.247 155.002 Q97.4364 155.002 94.3577 150.419 Q91.3022 145.813 91.3022 137.086 Q91.3022 128.336 94.3577 123.753 Q97.4364 119.146 103.247 119.146 Z" fill="#000000" fill-rule="evenodd" fill-opacity="1" /><path clip-path="url(#clip780)" d="M 0 0 M130.26 122.85 Q126.649 122.85 124.82 126.415 Q123.015 129.956 123.015 137.086 Q123.015 144.192 124.82 147.757 Q126.649 151.299 130.26 151.299 Q133.895 151.299 135.7 147.757 Q137.529 144.192 137.529 137.086 Q137.529 129.956 135.7 126.415 Q133.895 122.85 130.26 122.85 M130.26 119.146 Q136.07 119.146 139.126 123.753 Q142.205 128.336 142.205 137.086 Q142.205 145.813 139.126 150.419 Q136.07 155.002 130.26 155.002 Q124.45 155.002 121.371 150.419 Q118.316 145.813 118.316 137.086 Q118.316 128.336 121.371 123.753 Q124.45 119.146 130.26 119.146 Z" fill="#000000" fill-rule="evenodd" fill-opacity="1" /><path clip-path="url(#clip782)" d="
M286.469 1444.08 L286.469 1445.72 L313.497 1445.72 L313.497 1444.08 L286.469 1444.08 L286.469 1444.08  Z
  " fill="#009af9" fill-rule="evenodd" fill-opacity="1"/>
<polyline clip-path="url(#clip782)" style="stroke:#000000; stroke-width:4; stroke-opacity:1; fill:none" points="
  286.469,1444.08 286.469,1445.72 313.497,1445.72 313.497,1444.08 286.469,1444.08 
  "/>
<path clip-path="url(#clip782)" d="
M313.497 1444.08 L313.497 1445.72 L340.525 1445.72 L340.525 1444.08 L313.497 1444.08 L313.497 1444.08  Z
  " fill="#009af9" fill-rule="evenodd" fill-opacity="1"/>
<polyline clip-path="url(#clip782)" style="stroke:#000000; stroke-width:4; stroke-opacity:1; fill:none" points="
  313.497,1444.08 313.497,1445.72 340.525,1445.72 340.525,1444.08 313.497,1444.08 
  "/>
<path clip-path="url(#clip782)" d="
M340.525 1445.72 L340.525 1445.72 L367.553 1445.72 L367.553 1445.72 L340.525 1445.72 L340.525 1445.72  Z
  " fill="#009af9" fill-rule="evenodd" fill-opacity="1"/>
<polyline clip-path="url(#clip782)" style="stroke:#000000; stroke-width:4; stroke-opacity:1; fill:none" points="
  340.525,1445.72 340.525,1445.72 367.553,1445.72 340.525,1445.72 
  "/>
<path clip-path="url(#clip782)" d="
M367.553 1444.08 L367.553 1445.72 L394.581 1445.72 L394.581 1444.08 L367.553 1444.08 L367.553 1444.08  Z
  " fill="#009af9" fill-rule="evenodd" fill-opacity="1"/>
<polyline clip-path="url(#clip782)" style="stroke:#000000; stroke-width:4; stroke-opacity:1; fill:none" points="
  367.553,1444.08 367.553,1445.72 394.581,1445.72 394.581,1444.08 367.553,1444.08 
  "/>
<path clip-path="url(#clip782)" d="
M394.581 1444.08 L394.581 1445.72 L421.609 1445.72 L421.609 1444.08 L394.581 1444.08 L394.581 1444.08  Z
  " fill="#009af9" fill-rule="evenodd" fill-opacity="1"/>
<polyline clip-path="url(#clip782)" style="stroke:#000000; stroke-width:4; stroke-opacity:1; fill:none" points="
  394.581,1444.08 394.581,1445.72 421.609,1445.72 421.609,1444.08 394.581,1444.08 
  "/>
<path clip-path="url(#clip782)" d="
M421.609 1442.44 L421.609 1445.72 L448.637 1445.72 L448.637 1442.44 L421.609 1442.44 L421.609 1442.44  Z
  " fill="#009af9" fill-rule="evenodd" fill-opacity="1"/>
<polyline clip-path="url(#clip782)" style="stroke:#000000; stroke-width:4; stroke-opacity:1; fill:none" points="
  421.609,1442.44 421.609,1445.72 448.637,1445.72 448.637,1442.44 421.609,1442.44 
  "/>
<path clip-path="url(#clip782)" d="
M448.637 1440.81 L448.637 1445.72 L475.666 1445.72 L475.666 1440.81 L448.637 1440.81 L448.637 1440.81  Z
  " fill="#009af9" fill-rule="evenodd" fill-opacity="1"/>
<polyline clip-path="url(#clip782)" style="stroke:#000000; stroke-width:4; stroke-opacity:1; fill:none" points="
  448.637,1440.81 448.637,1445.72 475.666,1445.72 475.666,1440.81 448.637,1440.81 
  "/>
<path clip-path="url(#clip782)" d="
M475.666 1440.81 L475.666 1445.72 L502.694 1445.72 L502.694 1440.81 L475.666 1440.81 L475.666 1440.81  Z
  " fill="#009af9" fill-rule="evenodd" fill-opacity="1"/>
<polyline clip-path="url(#clip782)" style="stroke:#000000; stroke-width:4; stroke-opacity:1; fill:none" points="
  475.666,1440.81 475.666,1445.72 502.694,1445.72 502.694,1440.81 475.666,1440.81 
  "/>
<path clip-path="url(#clip782)" d="
M502.694 1439.17 L502.694 1445.72 L529.722 1445.72 L529.722 1439.17 L502.694 1439.17 L502.694 1439.17  Z
  " fill="#009af9" fill-rule="evenodd" fill-opacity="1"/>
<polyline clip-path="url(#clip782)" style="stroke:#000000; stroke-width:4; stroke-opacity:1; fill:none" points="
  502.694,1439.17 502.694,1445.72 529.722,1445.72 529.722,1439.17 502.694,1439.17 
  "/>
<path clip-path="url(#clip782)" d="
M529.722 1437.54 L529.722 1445.72 L556.75 1445.72 L556.75 1437.54 L529.722 1437.54 L529.722 1437.54  Z
  " fill="#009af9" fill-rule="evenodd" fill-opacity="1"/>
<polyline clip-path="url(#clip782)" style="stroke:#000000; stroke-width:4; stroke-opacity:1; fill:none" points="
  529.722,1437.54 529.722,1445.72 556.75,1445.72 556.75,1437.54 529.722,1437.54 
  "/>
<path clip-path="url(#clip782)" d="
M556.75 1429.36 L556.75 1445.72 L583.778 1445.72 L583.778 1429.36 L556.75 1429.36 L556.75 1429.36  Z
  " fill="#009af9" fill-rule="evenodd" fill-opacity="1"/>
<polyline clip-path="url(#clip782)" style="stroke:#000000; stroke-width:4; stroke-opacity:1; fill:none" points="
  556.75,1429.36 556.75,1445.72 583.778,1445.72 583.778,1429.36 556.75,1429.36 
  "/>
<path clip-path="url(#clip782)" d="
M583.778 1417.91 L583.778 1445.72 L610.806 1445.72 L610.806 1417.91 L583.778 1417.91 L583.778 1417.91  Z
  " fill="#009af9" fill-rule="evenodd" fill-opacity="1"/>
<polyline clip-path="url(#clip782)" style="stroke:#000000; stroke-width:4; stroke-opacity:1; fill:none" points="
  583.778,1417.91 583.778,1445.72 610.806,1445.72 610.806,1417.91 583.778,1417.91 
  "/>
<path clip-path="url(#clip782)" d="
M610.806 1432.63 L610.806 1445.72 L637.834 1445.72 L637.834 1432.63 L610.806 1432.63 L610.806 1432.63  Z
  " fill="#009af9" fill-rule="evenodd" fill-opacity="1"/>
<polyline clip-path="url(#clip782)" style="stroke:#000000; stroke-width:4; stroke-opacity:1; fill:none" points="
  610.806,1432.63 610.806,1445.72 637.834,1445.72 637.834,1432.63 610.806,1432.63 
  "/>
<path clip-path="url(#clip782)" d="
M637.834 1422.81 L637.834 1445.72 L664.862 1445.72 L664.862 1422.81 L637.834 1422.81 L637.834 1422.81  Z
  " fill="#009af9" fill-rule="evenodd" fill-opacity="1"/>
<polyline clip-path="url(#clip782)" style="stroke:#000000; stroke-width:4; stroke-opacity:1; fill:none" points="
  637.834,1422.81 637.834,1445.72 664.862,1445.72 664.862,1422.81 637.834,1422.81 
  "/>
<path clip-path="url(#clip782)" d="
M664.862 1421.18 L664.862 1445.72 L691.89 1445.72 L691.89 1421.18 L664.862 1421.18 L664.862 1421.18  Z
  " fill="#009af9" fill-rule="evenodd" fill-opacity="1"/>
<polyline clip-path="url(#clip782)" style="stroke:#000000; stroke-width:4; stroke-opacity:1; fill:none" points="
  664.862,1421.18 664.862,1445.72 691.89,1445.72 691.89,1421.18 664.862,1421.18 
  "/>
<path clip-path="url(#clip782)" d="
M691.89 1406.46 L691.89 1445.72 L718.918 1445.72 L718.918 1406.46 L691.89 1406.46 L691.89 1406.46  Z
  " fill="#009af9" fill-rule="evenodd" fill-opacity="1"/>
<polyline clip-path="url(#clip782)" style="stroke:#000000; stroke-width:4; stroke-opacity:1; fill:none" points="
  691.89,1406.46 691.89,1445.72 718.918,1445.72 718.918,1406.46 691.89,1406.46 
  "/>
<path clip-path="url(#clip782)" d="
M718.918 1419.54 L718.918 1445.72 L745.946 1445.72 L745.946 1419.54 L718.918 1419.54 L718.918 1419.54  Z
  " fill="#009af9" fill-rule="evenodd" fill-opacity="1"/>
<polyline clip-path="url(#clip782)" style="stroke:#000000; stroke-width:4; stroke-opacity:1; fill:none" points="
  718.918,1419.54 718.918,1445.72 745.946,1445.72 745.946,1419.54 718.918,1419.54 
  "/>
<path clip-path="url(#clip782)" d="
M745.946 1391.73 L745.946 1445.72 L772.975 1445.72 L772.975 1391.73 L745.946 1391.73 L745.946 1391.73  Z
  " fill="#009af9" fill-rule="evenodd" fill-opacity="1"/>
<polyline clip-path="url(#clip782)" style="stroke:#000000; stroke-width:4; stroke-opacity:1; fill:none" points="
  745.946,1391.73 745.946,1445.72 772.975,1445.72 772.975,1391.73 745.946,1391.73 
  "/>
<path clip-path="url(#clip782)" d="
M772.975 1390.1 L772.975 1445.72 L800.003 1445.72 L800.003 1390.1 L772.975 1390.1 L772.975 1390.1  Z
  " fill="#009af9" fill-rule="evenodd" fill-opacity="1"/>
<polyline clip-path="url(#clip782)" style="stroke:#000000; stroke-width:4; stroke-opacity:1; fill:none" points="
  772.975,1390.1 772.975,1445.72 800.003,1445.72 800.003,1390.1 772.975,1390.1 
  "/>
<path clip-path="url(#clip782)" d="
M800.003 1359.02 L800.003 1445.72 L827.031 1445.72 L827.031 1359.02 L800.003 1359.02 L800.003 1359.02  Z
  " fill="#009af9" fill-rule="evenodd" fill-opacity="1"/>
<polyline clip-path="url(#clip782)" style="stroke:#000000; stroke-width:4; stroke-opacity:1; fill:none" points="
  800.003,1359.02 800.003,1445.72 827.031,1445.72 827.031,1359.02 800.003,1359.02 
  "/>
<path clip-path="url(#clip782)" d="
M827.031 1381.92 L827.031 1445.72 L854.059 1445.72 L854.059 1381.92 L827.031 1381.92 L827.031 1381.92  Z
  " fill="#009af9" fill-rule="evenodd" fill-opacity="1"/>
<polyline clip-path="url(#clip782)" style="stroke:#000000; stroke-width:4; stroke-opacity:1; fill:none" points="
  827.031,1381.92 827.031,1445.72 854.059,1445.72 854.059,1381.92 827.031,1381.92 
  "/>
<path clip-path="url(#clip782)" d="
M854.059 1370.47 L854.059 1445.72 L881.087 1445.72 L881.087 1370.47 L854.059 1370.47 L854.059 1370.47  Z
  " fill="#009af9" fill-rule="evenodd" fill-opacity="1"/>
<polyline clip-path="url(#clip782)" style="stroke:#000000; stroke-width:4; stroke-opacity:1; fill:none" points="
  854.059,1370.47 854.059,1445.72 881.087,1445.72 881.087,1370.47 854.059,1370.47 
  "/>
<path clip-path="url(#clip782)" d="
M881.087 1321.39 L881.087 1445.72 L908.115 1445.72 L908.115 1321.39 L881.087 1321.39 L881.087 1321.39  Z
  " fill="#009af9" fill-rule="evenodd" fill-opacity="1"/>
<polyline clip-path="url(#clip782)" style="stroke:#000000; stroke-width:4; stroke-opacity:1; fill:none" points="
  881.087,1321.39 881.087,1445.72 908.115,1445.72 908.115,1321.39 881.087,1321.39 
  "/>
<path clip-path="url(#clip782)" d="
M908.115 1357.38 L908.115 1445.72 L935.143 1445.72 L935.143 1357.38 L908.115 1357.38 L908.115 1357.38  Z
  " fill="#009af9" fill-rule="evenodd" fill-opacity="1"/>
<polyline clip-path="url(#clip782)" style="stroke:#000000; stroke-width:4; stroke-opacity:1; fill:none" points="
  908.115,1357.38 908.115,1445.72 935.143,1445.72 935.143,1357.38 908.115,1357.38 
  "/>
<path clip-path="url(#clip782)" d="
M935.143 1344.29 L935.143 1445.72 L962.171 1445.72 L962.171 1344.29 L935.143 1344.29 L935.143 1344.29  Z
  " fill="#009af9" fill-rule="evenodd" fill-opacity="1"/>
<polyline clip-path="url(#clip782)" style="stroke:#000000; stroke-width:4; stroke-opacity:1; fill:none" points="
  935.143,1344.29 935.143,1445.72 962.171,1445.72 962.171,1344.29 935.143,1344.29 
  "/>
<path clip-path="url(#clip782)" d="
M962.171 1296.86 L962.171 1445.72 L989.199 1445.72 L989.199 1296.86 L962.171 1296.86 L962.171 1296.86  Z
  " fill="#009af9" fill-rule="evenodd" fill-opacity="1"/>
<polyline clip-path="url(#clip782)" style="stroke:#000000; stroke-width:4; stroke-opacity:1; fill:none" points="
  962.171,1296.86 962.171,1445.72 989.199,1445.72 989.199,1296.86 962.171,1296.86 
  "/>
<path clip-path="url(#clip782)" d="
M989.199 1285.4 L989.199 1445.72 L1016.23 1445.72 L1016.23 1285.4 L989.199 1285.4 L989.199 1285.4  Z
  " fill="#009af9" fill-rule="evenodd" fill-opacity="1"/>
<polyline clip-path="url(#clip782)" style="stroke:#000000; stroke-width:4; stroke-opacity:1; fill:none" points="
  989.199,1285.4 989.199,1445.72 1016.23,1445.72 1016.23,1285.4 989.199,1285.4 
  "/>
<path clip-path="url(#clip782)" d="
M1016.23 1311.58 L1016.23 1445.72 L1043.26 1445.72 L1043.26 1311.58 L1016.23 1311.58 L1016.23 1311.58  Z
  " fill="#009af9" fill-rule="evenodd" fill-opacity="1"/>
<polyline clip-path="url(#clip782)" style="stroke:#000000; stroke-width:4; stroke-opacity:1; fill:none" points="
  1016.23,1311.58 1016.23,1445.72 1043.26,1445.72 1043.26,1311.58 1016.23,1311.58 
  "/>
<path clip-path="url(#clip782)" d="
M1043.26 1252.69 L1043.26 1445.72 L1070.28 1445.72 L1070.28 1252.69 L1043.26 1252.69 L1043.26 1252.69  Z
  " fill="#009af9" fill-rule="evenodd" fill-opacity="1"/>
<polyline clip-path="url(#clip782)" style="stroke:#000000; stroke-width:4; stroke-opacity:1; fill:none" points="
  1043.26,1252.69 1043.26,1445.72 1070.28,1445.72 1070.28,1252.69 1043.26,1252.69 
  "/>
<path clip-path="url(#clip782)" d="
M1070.28 1277.23 L1070.28 1445.72 L1097.31 1445.72 L1097.31 1277.23 L1070.28 1277.23 L1070.28 1277.23  Z
  " fill="#009af9" fill-rule="evenodd" fill-opacity="1"/>
<polyline clip-path="url(#clip782)" style="stroke:#000000; stroke-width:4; stroke-opacity:1; fill:none" points="
  1070.28,1277.23 1070.28,1445.72 1097.31,1445.72 1097.31,1277.23 1070.28,1277.23 
  "/>
<path clip-path="url(#clip782)" d="
M1097.31 1259.23 L1097.31 1445.72 L1124.34 1445.72 L1124.34 1259.23 L1097.31 1259.23 L1097.31 1259.23  Z
  " fill="#009af9" fill-rule="evenodd" fill-opacity="1"/>
<polyline clip-path="url(#clip782)" style="stroke:#000000; stroke-width:4; stroke-opacity:1; fill:none" points="
  1097.31,1259.23 1097.31,1445.72 1124.34,1445.72 1124.34,1259.23 1097.31,1259.23 
  "/>
<path clip-path="url(#clip782)" d="
M1124.34 1224.88 L1124.34 1445.72 L1151.37 1445.72 L1151.37 1224.88 L1124.34 1224.88 L1124.34 1224.88  Z
  " fill="#009af9" fill-rule="evenodd" fill-opacity="1"/>
<polyline clip-path="url(#clip782)" style="stroke:#000000; stroke-width:4; stroke-opacity:1; fill:none" points="
  1124.34,1224.88 1124.34,1445.72 1151.37,1445.72 1151.37,1224.88 1124.34,1224.88 
  "/>
<path clip-path="url(#clip782)" d="
M1151.37 1269.05 L1151.37 1445.72 L1178.4 1445.72 L1178.4 1269.05 L1151.37 1269.05 L1151.37 1269.05  Z
  " fill="#009af9" fill-rule="evenodd" fill-opacity="1"/>
<polyline clip-path="url(#clip782)" style="stroke:#000000; stroke-width:4; stroke-opacity:1; fill:none" points="
  1151.37,1269.05 1151.37,1445.72 1178.4,1445.72 1178.4,1269.05 1151.37,1269.05 
  "/>
<path clip-path="url(#clip782)" d="
M1178.4 1283.77 L1178.4 1445.72 L1205.42 1445.72 L1205.42 1283.77 L1178.4 1283.77 L1178.4 1283.77  Z
  " fill="#009af9" fill-rule="evenodd" fill-opacity="1"/>
<polyline clip-path="url(#clip782)" style="stroke:#000000; stroke-width:4; stroke-opacity:1; fill:none" points="
  1178.4,1283.77 1178.4,1445.72 1205.42,1445.72 1205.42,1283.77 1178.4,1283.77 
  "/>
<path clip-path="url(#clip782)" d="
M1205.42 1277.23 L1205.42 1445.72 L1232.45 1445.72 L1232.45 1277.23 L1205.42 1277.23 L1205.42 1277.23  Z
  " fill="#009af9" fill-rule="evenodd" fill-opacity="1"/>
<polyline clip-path="url(#clip782)" style="stroke:#000000; stroke-width:4; stroke-opacity:1; fill:none" points="
  1205.42,1277.23 1205.42,1445.72 1232.45,1445.72 1232.45,1277.23 1205.42,1277.23 
  "/>
<path clip-path="url(#clip782)" d="
M1232.45 1247.78 L1232.45 1445.72 L1259.48 1445.72 L1259.48 1247.78 L1232.45 1247.78 L1232.45 1247.78  Z
  " fill="#009af9" fill-rule="evenodd" fill-opacity="1"/>
<polyline clip-path="url(#clip782)" style="stroke:#000000; stroke-width:4; stroke-opacity:1; fill:none" points="
  1232.45,1247.78 1232.45,1445.72 1259.48,1445.72 1259.48,1247.78 1232.45,1247.78 
  "/>
<path clip-path="url(#clip782)" d="
M1259.48 1208.52 L1259.48 1445.72 L1286.51 1445.72 L1286.51 1208.52 L1259.48 1208.52 L1259.48 1208.52  Z
  " fill="#009af9" fill-rule="evenodd" fill-opacity="1"/>
<polyline clip-path="url(#clip782)" style="stroke:#000000; stroke-width:4; stroke-opacity:1; fill:none" points="
  1259.48,1208.52 1259.48,1445.72 1286.51,1445.72 1286.51,1208.52 1259.48,1208.52 
  "/>
<path clip-path="url(#clip782)" d="
M1286.51 789.748 L1286.51 1445.72 L1313.54 1445.72 L1313.54 789.748 L1286.51 789.748 L1286.51 789.748  Z
  " fill="#009af9" fill-rule="evenodd" fill-opacity="1"/>
<polyline clip-path="url(#clip782)" style="stroke:#000000; stroke-width:4; stroke-opacity:1; fill:none" points="
  1286.51,789.748 1286.51,1445.72 1313.54,1445.72 1313.54,789.748 1286.51,789.748 
  "/>
<path clip-path="url(#clip782)" d="
M1313.54 120.693 L1313.54 1445.72 L1340.56 1445.72 L1340.56 120.693 L1313.54 120.693 L1313.54 120.693  Z
  " fill="#009af9" fill-rule="evenodd" fill-opacity="1"/>
<polyline clip-path="url(#clip782)" style="stroke:#000000; stroke-width:4; stroke-opacity:1; fill:none" points="
  1313.54,120.693 1313.54,1445.72 1340.56,1445.72 1340.56,120.693 1313.54,120.693 
  "/>
<path clip-path="url(#clip782)" d="
M1340.56 87.9763 L1340.56 1445.72 L1367.59 1445.72 L1367.59 87.9763 L1340.56 87.9763 L1340.56 87.9763  Z
  " fill="#009af9" fill-rule="evenodd" fill-opacity="1"/>
<polyline clip-path="url(#clip782)" style="stroke:#000000; stroke-width:4; stroke-opacity:1; fill:none" points="
  1340.56,87.9763 1340.56,1445.72 1367.59,1445.72 1367.59,87.9763 1340.56,87.9763 
  "/>
<path clip-path="url(#clip782)" d="
M1367.59 814.285 L1367.59 1445.72 L1394.62 1445.72 L1394.62 814.285 L1367.59 814.285 L1367.59 814.285  Z
  " fill="#009af9" fill-rule="evenodd" fill-opacity="1"/>
<polyline clip-path="url(#clip782)" style="stroke:#000000; stroke-width:4; stroke-opacity:1; fill:none" points="
  1367.59,814.285 1367.59,1445.72 1394.62,1445.72 1394.62,814.285 1367.59,814.285 
  "/>
<path clip-path="url(#clip782)" d="
M1394.62 1237.97 L1394.62 1445.72 L1421.65 1445.72 L1421.65 1237.97 L1394.62 1237.97 L1394.62 1237.97  Z
  " fill="#009af9" fill-rule="evenodd" fill-opacity="1"/>
<polyline clip-path="url(#clip782)" style="stroke:#000000; stroke-width:4; stroke-opacity:1; fill:none" points="
  1394.62,1237.97 1394.62,1445.72 1421.65,1445.72 1421.65,1237.97 1394.62,1237.97 
  "/>
<path clip-path="url(#clip782)" d="
M1421.65 1321.39 L1421.65 1445.72 L1448.68 1445.72 L1448.68 1321.39 L1421.65 1321.39 L1421.65 1321.39  Z
  " fill="#009af9" fill-rule="evenodd" fill-opacity="1"/>
<polyline clip-path="url(#clip782)" style="stroke:#000000; stroke-width:4; stroke-opacity:1; fill:none" points="
  1421.65,1321.39 1421.65,1445.72 1448.68,1445.72 1448.68,1321.39 1421.65,1321.39 
  "/>
<path clip-path="url(#clip782)" d="
M1448.68 1316.49 L1448.68 1445.72 L1475.71 1445.72 L1475.71 1316.49 L1448.68 1316.49 L1448.68 1316.49  Z
  " fill="#009af9" fill-rule="evenodd" fill-opacity="1"/>
<polyline clip-path="url(#clip782)" style="stroke:#000000; stroke-width:4; stroke-opacity:1; fill:none" points="
  1448.68,1316.49 1448.68,1445.72 1475.71,1445.72 1475.71,1316.49 1448.68,1316.49 
  "/>
<path clip-path="url(#clip782)" d="
M1475.71 1349.2 L1475.71 1445.72 L1502.73 1445.72 L1502.73 1349.2 L1475.71 1349.2 L1475.71 1349.2  Z
  " fill="#009af9" fill-rule="evenodd" fill-opacity="1"/>
<polyline clip-path="url(#clip782)" style="stroke:#000000; stroke-width:4; stroke-opacity:1; fill:none" points="
  1475.71,1349.2 1475.71,1445.72 1502.73,1445.72 1502.73,1349.2 1475.71,1349.2 
  "/>
<path clip-path="url(#clip782)" d="
M1502.73 1344.29 L1502.73 1445.72 L1529.76 1445.72 L1529.76 1344.29 L1502.73 1344.29 L1502.73 1344.29  Z
  " fill="#009af9" fill-rule="evenodd" fill-opacity="1"/>
<polyline clip-path="url(#clip782)" style="stroke:#000000; stroke-width:4; stroke-opacity:1; fill:none" points="
  1502.73,1344.29 1502.73,1445.72 1529.76,1445.72 1529.76,1344.29 1502.73,1344.29 
  "/>
<path clip-path="url(#clip782)" d="
M1529.76 1345.93 L1529.76 1445.72 L1556.79 1445.72 L1556.79 1345.93 L1529.76 1345.93 L1529.76 1345.93  Z
  " fill="#009af9" fill-rule="evenodd" fill-opacity="1"/>
<polyline clip-path="url(#clip782)" style="stroke:#000000; stroke-width:4; stroke-opacity:1; fill:none" points="
  1529.76,1345.93 1529.76,1445.72 1556.79,1445.72 1556.79,1345.93 1529.76,1345.93 
  "/>
<path clip-path="url(#clip782)" d="
M1556.79 1377.01 L1556.79 1445.72 L1583.82 1445.72 L1583.82 1377.01 L1556.79 1377.01 L1556.79 1377.01  Z
  " fill="#009af9" fill-rule="evenodd" fill-opacity="1"/>
<polyline clip-path="url(#clip782)" style="stroke:#000000; stroke-width:4; stroke-opacity:1; fill:none" points="
  1556.79,1377.01 1556.79,1445.72 1583.82,1445.72 1583.82,1377.01 1556.79,1377.01 
  "/>
<path clip-path="url(#clip782)" d="
M1583.82 1373.74 L1583.82 1445.72 L1610.85 1445.72 L1610.85 1373.74 L1583.82 1373.74 L1583.82 1373.74  Z
  " fill="#009af9" fill-rule="evenodd" fill-opacity="1"/>
<polyline clip-path="url(#clip782)" style="stroke:#000000; stroke-width:4; stroke-opacity:1; fill:none" points="
  1583.82,1373.74 1583.82,1445.72 1610.85,1445.72 1610.85,1373.74 1583.82,1373.74 
  "/>
<path clip-path="url(#clip782)" d="
M1610.85 1395 L1610.85 1445.72 L1637.87 1445.72 L1637.87 1395 L1610.85 1395 L1610.85 1395  Z
  " fill="#009af9" fill-rule="evenodd" fill-opacity="1"/>
<polyline clip-path="url(#clip782)" style="stroke:#000000; stroke-width:4; stroke-opacity:1; fill:none" points="
  1610.85,1395 1610.85,1445.72 1637.87,1445.72 1637.87,1395 1610.85,1395 
  "/>
<path clip-path="url(#clip782)" d="
M1637.87 1395 L1637.87 1445.72 L1664.9 1445.72 L1664.9 1395 L1637.87 1395 L1637.87 1395  Z
  " fill="#009af9" fill-rule="evenodd" fill-opacity="1"/>
<polyline clip-path="url(#clip782)" style="stroke:#000000; stroke-width:4; stroke-opacity:1; fill:none" points="
  1637.87,1395 1637.87,1445.72 1664.9,1445.72 1664.9,1395 1637.87,1395 
  "/>
<path clip-path="url(#clip782)" d="
M1664.9 1409.73 L1664.9 1445.72 L1691.93 1445.72 L1691.93 1409.73 L1664.9 1409.73 L1664.9 1409.73  Z
  " fill="#009af9" fill-rule="evenodd" fill-opacity="1"/>
<polyline clip-path="url(#clip782)" style="stroke:#000000; stroke-width:4; stroke-opacity:1; fill:none" points="
  1664.9,1409.73 1664.9,1445.72 1691.93,1445.72 1691.93,1409.73 1664.9,1409.73 
  "/>
<path clip-path="url(#clip782)" d="
M1691.93 1413 L1691.93 1445.72 L1718.96 1445.72 L1718.96 1413 L1691.93 1413 L1691.93 1413  Z
  " fill="#009af9" fill-rule="evenodd" fill-opacity="1"/>
<polyline clip-path="url(#clip782)" style="stroke:#000000; stroke-width:4; stroke-opacity:1; fill:none" points="
  1691.93,1413 1691.93,1445.72 1718.96,1445.72 1718.96,1413 1691.93,1413 
  "/>
<path clip-path="url(#clip782)" d="
M1718.96 1416.27 L1718.96 1445.72 L1745.99 1445.72 L1745.99 1416.27 L1718.96 1416.27 L1718.96 1416.27  Z
  " fill="#009af9" fill-rule="evenodd" fill-opacity="1"/>
<polyline clip-path="url(#clip782)" style="stroke:#000000; stroke-width:4; stroke-opacity:1; fill:none" points="
  1718.96,1416.27 1718.96,1445.72 1745.99,1445.72 1745.99,1416.27 1718.96,1416.27 
  "/>
<path clip-path="url(#clip782)" d="
M1745.99 1430.99 L1745.99 1445.72 L1773.01 1445.72 L1773.01 1430.99 L1745.99 1430.99 L1745.99 1430.99  Z
  " fill="#009af9" fill-rule="evenodd" fill-opacity="1"/>
<polyline clip-path="url(#clip782)" style="stroke:#000000; stroke-width:4; stroke-opacity:1; fill:none" points="
  1745.99,1430.99 1745.99,1445.72 1773.01,1445.72 1773.01,1430.99 1745.99,1430.99 
  "/>
<path clip-path="url(#clip782)" d="
M1773.01 1439.17 L1773.01 1445.72 L1800.04 1445.72 L1800.04 1439.17 L1773.01 1439.17 L1773.01 1439.17  Z
  " fill="#009af9" fill-rule="evenodd" fill-opacity="1"/>
<polyline clip-path="url(#clip782)" style="stroke:#000000; stroke-width:4; stroke-opacity:1; fill:none" points="
  1773.01,1439.17 1773.01,1445.72 1800.04,1445.72 1800.04,1439.17 1773.01,1439.17 
  "/>
<path clip-path="url(#clip782)" d="
M1800.04 1427.72 L1800.04 1445.72 L1827.07 1445.72 L1827.07 1427.72 L1800.04 1427.72 L1800.04 1427.72  Z
  " fill="#009af9" fill-rule="evenodd" fill-opacity="1"/>
<polyline clip-path="url(#clip782)" style="stroke:#000000; stroke-width:4; stroke-opacity:1; fill:none" points="
  1800.04,1427.72 1800.04,1445.72 1827.07,1445.72 1827.07,1427.72 1800.04,1427.72 
  "/>
<path clip-path="url(#clip782)" d="
M1827.07 1426.09 L1827.07 1445.72 L1854.1 1445.72 L1854.1 1426.09 L1827.07 1426.09 L1827.07 1426.09  Z
  " fill="#009af9" fill-rule="evenodd" fill-opacity="1"/>
<polyline clip-path="url(#clip782)" style="stroke:#000000; stroke-width:4; stroke-opacity:1; fill:none" points="
  1827.07,1426.09 1827.07,1445.72 1854.1,1445.72 1854.1,1426.09 1827.07,1426.09 
  "/>
<path clip-path="url(#clip782)" d="
M1854.1 1437.54 L1854.1 1445.72 L1881.13 1445.72 L1881.13 1437.54 L1854.1 1437.54 L1854.1 1437.54  Z
  " fill="#009af9" fill-rule="evenodd" fill-opacity="1"/>
<polyline clip-path="url(#clip782)" style="stroke:#000000; stroke-width:4; stroke-opacity:1; fill:none" points="
  1854.1,1437.54 1854.1,1445.72 1881.13,1445.72 1881.13,1437.54 1854.1,1437.54 
  "/>
<path clip-path="url(#clip782)" d="
M1881.13 1435.9 L1881.13 1445.72 L1908.15 1445.72 L1908.15 1435.9 L1881.13 1435.9 L1881.13 1435.9  Z
  " fill="#009af9" fill-rule="evenodd" fill-opacity="1"/>
<polyline clip-path="url(#clip782)" style="stroke:#000000; stroke-width:4; stroke-opacity:1; fill:none" points="
  1881.13,1435.9 1881.13,1445.72 1908.15,1445.72 1908.15,1435.9 1881.13,1435.9 
  "/>
<path clip-path="url(#clip782)" d="
M1908.15 1437.54 L1908.15 1445.72 L1935.18 1445.72 L1935.18 1437.54 L1908.15 1437.54 L1908.15 1437.54  Z
  " fill="#009af9" fill-rule="evenodd" fill-opacity="1"/>
<polyline clip-path="url(#clip782)" style="stroke:#000000; stroke-width:4; stroke-opacity:1; fill:none" points="
  1908.15,1437.54 1908.15,1445.72 1935.18,1445.72 1935.18,1437.54 1908.15,1437.54 
  "/>
<path clip-path="url(#clip782)" d="
M1935.18 1442.44 L1935.18 1445.72 L1962.21 1445.72 L1962.21 1442.44 L1935.18 1442.44 L1935.18 1442.44  Z
  " fill="#009af9" fill-rule="evenodd" fill-opacity="1"/>
<polyline clip-path="url(#clip782)" style="stroke:#000000; stroke-width:4; stroke-opacity:1; fill:none" points="
  1935.18,1442.44 1935.18,1445.72 1962.21,1445.72 1962.21,1442.44 1935.18,1442.44 
  "/>
<path clip-path="url(#clip782)" d="
M1962.21 1439.17 L1962.21 1445.72 L1989.24 1445.72 L1989.24 1439.17 L1962.21 1439.17 L1962.21 1439.17  Z
  " fill="#009af9" fill-rule="evenodd" fill-opacity="1"/>
<polyline clip-path="url(#clip782)" style="stroke:#000000; stroke-width:4; stroke-opacity:1; fill:none" points="
  1962.21,1439.17 1962.21,1445.72 1989.24,1445.72 1989.24,1439.17 1962.21,1439.17 
  "/>
<path clip-path="url(#clip782)" d="
M1989.24 1442.44 L1989.24 1445.72 L2016.27 1445.72 L2016.27 1442.44 L1989.24 1442.44 L1989.24 1442.44  Z
  " fill="#009af9" fill-rule="evenodd" fill-opacity="1"/>
<polyline clip-path="url(#clip782)" style="stroke:#000000; stroke-width:4; stroke-opacity:1; fill:none" points="
  1989.24,1442.44 1989.24,1445.72 2016.27,1445.72 2016.27,1442.44 1989.24,1442.44 
  "/>
<path clip-path="url(#clip782)" d="
M2016.27 1444.08 L2016.27 1445.72 L2043.3 1445.72 L2043.3 1444.08 L2016.27 1444.08 L2016.27 1444.08  Z
  " fill="#009af9" fill-rule="evenodd" fill-opacity="1"/>
<polyline clip-path="url(#clip782)" style="stroke:#000000; stroke-width:4; stroke-opacity:1; fill:none" points="
  2016.27,1444.08 2016.27,1445.72 2043.3,1445.72 2043.3,1444.08 2016.27,1444.08 
  "/>
<path clip-path="url(#clip782)" d="
M2043.3 1445.72 L2043.3 1445.72 L2070.32 1445.72 L2070.32 1445.72 L2043.3 1445.72 L2043.3 1445.72  Z
  " fill="#009af9" fill-rule="evenodd" fill-opacity="1"/>
<polyline clip-path="url(#clip782)" style="stroke:#000000; stroke-width:4; stroke-opacity:1; fill:none" points="
  2043.3,1445.72 2043.3,1445.72 2070.32,1445.72 2043.3,1445.72 
  "/>
<path clip-path="url(#clip782)" d="
M2070.32 1445.72 L2070.32 1445.72 L2097.35 1445.72 L2097.35 1445.72 L2070.32 1445.72 L2070.32 1445.72  Z
  " fill="#009af9" fill-rule="evenodd" fill-opacity="1"/>
<polyline clip-path="url(#clip782)" style="stroke:#000000; stroke-width:4; stroke-opacity:1; fill:none" points="
  2070.32,1445.72 2070.32,1445.72 2097.35,1445.72 2070.32,1445.72 
  "/>
<path clip-path="url(#clip782)" d="
M2097.35 1445.72 L2097.35 1445.72 L2124.38 1445.72 L2124.38 1445.72 L2097.35 1445.72 L2097.35 1445.72  Z
  " fill="#009af9" fill-rule="evenodd" fill-opacity="1"/>
<polyline clip-path="url(#clip782)" style="stroke:#000000; stroke-width:4; stroke-opacity:1; fill:none" points="
  2097.35,1445.72 2097.35,1445.72 2124.38,1445.72 2097.35,1445.72 
  "/>
<path clip-path="url(#clip782)" d="
M2124.38 1445.72 L2124.38 1445.72 L2151.41 1445.72 L2151.41 1445.72 L2124.38 1445.72 L2124.38 1445.72  Z
  " fill="#009af9" fill-rule="evenodd" fill-opacity="1"/>
<polyline clip-path="url(#clip782)" style="stroke:#000000; stroke-width:4; stroke-opacity:1; fill:none" points="
  2124.38,1445.72 2124.38,1445.72 2151.41,1445.72 2124.38,1445.72 
  "/>
<path clip-path="url(#clip782)" d="
M2151.41 1445.72 L2151.41 1445.72 L2178.44 1445.72 L2178.44 1445.72 L2151.41 1445.72 L2151.41 1445.72  Z
  " fill="#009af9" fill-rule="evenodd" fill-opacity="1"/>
<polyline clip-path="url(#clip782)" style="stroke:#000000; stroke-width:4; stroke-opacity:1; fill:none" points="
  2151.41,1445.72 2151.41,1445.72 2178.44,1445.72 2151.41,1445.72 
  "/>
<path clip-path="url(#clip782)" d="
M2178.44 1445.72 L2178.44 1445.72 L2205.46 1445.72 L2205.46 1445.72 L2178.44 1445.72 L2178.44 1445.72  Z
  " fill="#009af9" fill-rule="evenodd" fill-opacity="1"/>
<polyline clip-path="url(#clip782)" style="stroke:#000000; stroke-width:4; stroke-opacity:1; fill:none" points="
  2178.44,1445.72 2178.44,1445.72 2205.46,1445.72 2178.44,1445.72 
  "/>
<path clip-path="url(#clip782)" d="
M2205.46 1444.08 L2205.46 1445.72 L2232.49 1445.72 L2232.49 1444.08 L2205.46 1444.08 L2205.46 1444.08  Z
  " fill="#009af9" fill-rule="evenodd" fill-opacity="1"/>
<polyline clip-path="url(#clip782)" style="stroke:#000000; stroke-width:4; stroke-opacity:1; fill:none" points="
  2205.46,1444.08 2205.46,1445.72 2232.49,1445.72 2232.49,1444.08 2205.46,1444.08 
  "/>
<path clip-path="url(#clip780)" d="
M1989.74 251.724 L2280.76 251.724 L2280.76 130.764 L1989.74 130.764  Z
  " fill="#ffffff" fill-rule="evenodd" fill-opacity="1"/>
<polyline clip-path="url(#clip780)" style="stroke:#000000; stroke-width:4; stroke-opacity:1; fill:none" points="
  1989.74,251.724 2280.76,251.724 2280.76,130.764 1989.74,130.764 1989.74,251.724 
  "/>
<path clip-path="url(#clip780)" d="
M2013.74 215.436 L2157.74 215.436 L2157.74 167.052 L2013.74 167.052 L2013.74 215.436  Z
  " fill="#009af9" fill-rule="evenodd" fill-opacity="1"/>
<polyline clip-path="url(#clip780)" style="stroke:#000000; stroke-width:4; stroke-opacity:1; fill:none" points="
  2013.74,215.436 2157.74,215.436 2157.74,167.052 2013.74,167.052 2013.74,215.436 
  "/>
<path clip-path="url(#clip780)" d="M 0 0 M2195.58 210.931 Q2193.77 215.561 2192.06 216.973 Q2190.35 218.385 2187.48 218.385 L2184.08 218.385 L2184.08 214.82 L2186.58 214.82 Q2188.33 214.82 2189.31 213.987 Q2190.28 213.154 2191.46 210.052 L2192.22 208.107 L2181.74 182.598 L2186.25 182.598 L2194.35 202.876 L2202.46 182.598 L2206.97 182.598 L2195.58 210.931 Z" fill="#000000" fill-rule="evenodd" fill-opacity="1" /><path clip-path="url(#clip780)" d="M 0 0 M2212.85 204.589 L2220.49 204.589 L2220.49 178.223 L2212.18 179.89 L2212.18 175.631 L2220.44 173.964 L2225.12 173.964 L2225.12 204.589 L2232.76 204.589 L2232.76 208.524 L2212.85 208.524 L2212.85 204.589 Z" fill="#000000" fill-rule="evenodd" fill-opacity="1" /></svg>
