<?xml version="1.0" encoding="utf-8"?>
<svg xmlns="http://www.w3.org/2000/svg" xmlns:xlink="http://www.w3.org/1999/xlink" width="600" height="400" viewBox="0 0 2400 1600">
<defs>
  <clipPath id="clip940">
    <rect x="0" y="0" width="2400" height="1600"/>
  </clipPath>
</defs>
<path clip-path="url(#clip940)" d="
M0 1600 L2400 1600 L2400 0 L0 0  Z
  " fill="#ffffff" fill-rule="evenodd" fill-opacity="1"/>
<defs>
  <clipPath id="clip941">
    <rect x="480" y="0" width="1681" height="1600"/>
  </clipPath>
</defs>
<path clip-path="url(#clip940)" d="
M166.205 1486.45 L2352.76 1486.45 L2352.76 47.2441 L166.205 47.2441  Z
  " fill="#ffffff" fill-rule="evenodd" fill-opacity="1"/>
<defs>
  <clipPath id="clip942">
    <rect x="166" y="47" width="2188" height="1440"/>
  </clipPath>
</defs>
<polyline clip-path="url(#clip942)" style="stroke:#000000; stroke-width:2; stroke-opacity:0.1; fill:none" points="
  425.471,1486.45 425.471,47.2441 
  "/>
<polyline clip-path="url(#clip942)" style="stroke:#000000; stroke-width:2; stroke-opacity:0.1; fill:none" points="
  703.474,1486.45 703.474,47.2441 
  "/>
<polyline clip-path="url(#clip942)" style="stroke:#000000; stroke-width:2; stroke-opacity:0.1; fill:none" points="
  981.477,1486.45 981.477,47.2441 
  "/>
<polyline clip-path="url(#clip942)" style="stroke:#000000; stroke-width:2; stroke-opacity:0.1; fill:none" points="
  1259.48,1486.45 1259.48,47.2441 
  "/>
<polyline clip-path="url(#clip942)" style="stroke:#000000; stroke-width:2; stroke-opacity:0.1; fill:none" points="
  1537.48,1486.45 1537.48,47.2441 
  "/>
<polyline clip-path="url(#clip942)" style="stroke:#000000; stroke-width:2; stroke-opacity:0.1; fill:none" points="
  1815.49,1486.45 1815.49,47.2441 
  "/>
<polyline clip-path="url(#clip942)" style="stroke:#000000; stroke-width:2; stroke-opacity:0.1; fill:none" points="
  2093.49,1486.45 2093.49,47.2441 
  "/>
<polyline clip-path="url(#clip942)" style="stroke:#000000; stroke-width:2; stroke-opacity:0.1; fill:none" points="
  166.205,1445.72 2352.76,1445.72 
  "/>
<polyline clip-path="url(#clip942)" style="stroke:#000000; stroke-width:2; stroke-opacity:0.1; fill:none" points="
  166.205,1103.28 2352.76,1103.28 
  "/>
<polyline clip-path="url(#clip942)" style="stroke:#000000; stroke-width:2; stroke-opacity:0.1; fill:none" points="
  166.205,760.853 2352.76,760.853 
  "/>
<polyline clip-path="url(#clip942)" style="stroke:#000000; stroke-width:2; stroke-opacity:0.1; fill:none" points="
  166.205,418.422 2352.76,418.422 
  "/>
<polyline clip-path="url(#clip942)" style="stroke:#000000; stroke-width:2; stroke-opacity:0.1; fill:none" points="
  166.205,75.9912 2352.76,75.9912 
  "/>
<polyline clip-path="url(#clip940)" style="stroke:#000000; stroke-width:4; stroke-opacity:1; fill:none" points="
  166.205,1486.45 2352.76,1486.45 
  "/>
<polyline clip-path="url(#clip940)" style="stroke:#000000; stroke-width:4; stroke-opacity:1; fill:none" points="
  166.205,1486.45 166.205,47.2441 
  "/>
<polyline clip-path="url(#clip940)" style="stroke:#000000; stroke-width:4; stroke-opacity:1; fill:none" points="
  425.471,1486.45 425.471,1469.18 
  "/>
<polyline clip-path="url(#clip940)" style="stroke:#000000; stroke-width:4; stroke-opacity:1; fill:none" points="
  703.474,1486.45 703.474,1469.18 
  "/>
<polyline clip-path="url(#clip940)" style="stroke:#000000; stroke-width:4; stroke-opacity:1; fill:none" points="
  981.477,1486.45 981.477,1469.18 
  "/>
<polyline clip-path="url(#clip940)" style="stroke:#000000; stroke-width:4; stroke-opacity:1; fill:none" points="
  1259.48,1486.45 1259.48,1469.18 
  "/>
<polyline clip-path="url(#clip940)" style="stroke:#000000; stroke-width:4; stroke-opacity:1; fill:none" points="
  1537.48,1486.45 1537.48,1469.18 
  "/>
<polyline clip-path="url(#clip940)" style="stroke:#000000; stroke-width:4; stroke-opacity:1; fill:none" points="
  1815.49,1486.45 1815.49,1469.18 
  "/>
<polyline clip-path="url(#clip940)" style="stroke:#000000; stroke-width:4; stroke-opacity:1; fill:none" points="
  2093.49,1486.45 2093.49,1469.18 
  "/>
<polyline clip-path="url(#clip940)" style="stroke:#000000; stroke-width:4; stroke-opacity:1; fill:none" points="
  166.205,1445.72 192.443,1445.72 
  "/>
<polyline clip-path="url(#clip940)" style="stroke:#000000; stroke-width:4; stroke-opacity:1; fill:none" points="
  166.205,1103.28 192.443,1103.28 
  "/>
<polyline clip-path="url(#clip940)" style="stroke:#000000; stroke-width:4; stroke-opacity:1; fill:none" points="
  166.205,760.853 192.443,760.853 
  "/>
<polyline clip-path="url(#clip940)" style="stroke:#000000; stroke-width:4; stroke-opacity:1; fill:none" points="
  166.205,418.422 192.443,418.422 
  "/>
<polyline clip-path="url(#clip940)" style="stroke:#000000; stroke-width:4; stroke-opacity:1; fill:none" points="
  166.205,75.9912 192.443,75.9912 
  "/>
<path clip-path="url(#clip940)" d="M 0 0 M405.644 1525.04 L418.121 1525.04 L418.121 1528.83 L405.644 1528.83 L405.644 1525.04 Z" fill="#000000" fill-rule="evenodd" fill-opacity="1" /><path clip-path="url(#clip940)" d="M 0 0 M433.769 1520.78 Q430.621 1520.78 428.769 1522.93 Q426.94 1525.08 426.94 1528.83 Q426.94 1532.56 428.769 1534.73 Q430.621 1536.89 433.769 1536.89 Q436.917 1536.89 438.746 1534.73 Q440.598 1532.56 440.598 1528.83 Q440.598 1525.08 438.746 1522.93 Q436.917 1520.78 433.769 1520.78 M443.051 1506.12 L443.051 1510.38 Q441.292 1509.55 439.487 1509.11 Q437.704 1508.67 435.945 1508.67 Q431.315 1508.67 428.862 1511.8 Q426.431 1514.92 426.084 1521.24 Q427.45 1519.23 429.51 1518.16 Q431.57 1517.07 434.047 1517.07 Q439.255 1517.07 442.264 1520.24 Q445.297 1523.39 445.297 1528.83 Q445.297 1534.16 442.149 1537.37 Q439.001 1540.59 433.769 1540.59 Q427.774 1540.59 424.602 1536.01 Q421.431 1531.4 421.431 1522.67 Q421.431 1514.48 425.32 1509.62 Q429.209 1504.73 435.76 1504.73 Q437.519 1504.73 439.301 1505.08 Q441.107 1505.43 443.051 1506.12 Z" fill="#000000" fill-rule="evenodd" fill-opacity="1" /><path clip-path="url(#clip940)" d="M 0 0 M683.485 1525.04 L695.962 1525.04 L695.962 1528.83 L683.485 1528.83 L683.485 1525.04 Z" fill="#000000" fill-rule="evenodd" fill-opacity="1" /><path clip-path="url(#clip940)" d="M 0 0 M713.879 1509.43 L702.073 1527.88 L713.879 1527.88 L713.879 1509.43 M712.652 1505.36 L718.532 1505.36 L718.532 1527.88 L723.462 1527.88 L723.462 1531.77 L718.532 1531.77 L718.532 1539.92 L713.879 1539.92 L713.879 1531.77 L698.277 1531.77 L698.277 1527.26 L712.652 1505.36 Z" fill="#000000" fill-rule="evenodd" fill-opacity="1" /><path clip-path="url(#clip940)" d="M 0 0 M962.53 1525.04 L975.007 1525.04 L975.007 1528.83 L962.53 1528.83 L962.53 1525.04 Z" fill="#000000" fill-rule="evenodd" fill-opacity="1" /><path clip-path="url(#clip940)" d="M 0 0 M984.104 1535.98 L1000.42 1535.98 L1000.42 1539.92 L978.479 1539.92 L978.479 1535.98 Q981.141 1533.23 985.725 1528.6 Q990.331 1523.95 991.512 1522.61 Q993.757 1520.08 994.637 1518.35 Q995.539 1516.59 995.539 1514.9 Q995.539 1512.14 993.595 1510.41 Q991.674 1508.67 988.572 1508.67 Q986.373 1508.67 983.919 1509.43 Q981.489 1510.2 978.711 1511.75 L978.711 1507.03 Q981.535 1505.89 983.989 1505.31 Q986.442 1504.73 988.479 1504.73 Q993.85 1504.73 997.044 1507.42 Q1000.24 1510.11 1000.24 1514.6 Q1000.24 1516.73 999.428 1518.65 Q998.641 1520.54 996.535 1523.14 Q995.956 1523.81 992.854 1527.03 Q989.752 1530.22 984.104 1535.98 Z" fill="#000000" fill-rule="evenodd" fill-opacity="1" /><path clip-path="url(#clip940)" d="M 0 0 M1259.48 1508.44 Q1255.87 1508.44 1254.04 1512 Q1252.23 1515.55 1252.23 1522.67 Q1252.23 1529.78 1254.04 1533.35 Q1255.87 1536.89 1259.48 1536.89 Q1263.11 1536.89 1264.92 1533.35 Q1266.75 1529.78 1266.75 1522.67 Q1266.75 1515.55 1264.92 1512 Q1263.11 1508.44 1259.48 1508.44 M1259.48 1504.73 Q1265.29 1504.73 1268.35 1509.34 Q1271.42 1513.92 1271.42 1522.67 Q1271.42 1531.4 1268.35 1536.01 Q1265.29 1540.59 1259.48 1540.59 Q1253.67 1540.59 1250.59 1536.01 Q1247.54 1531.4 1247.54 1522.67 Q1247.54 1513.92 1250.59 1509.34 Q1253.67 1504.73 1259.48 1504.73 Z" fill="#000000" fill-rule="evenodd" fill-opacity="1" /><path clip-path="url(#clip940)" d="M 0 0 M1532.14 1535.98 L1548.46 1535.98 L1548.46 1539.92 L1526.51 1539.92 L1526.51 1535.98 Q1529.17 1533.23 1533.76 1528.6 Q1538.36 1523.95 1539.54 1522.61 Q1541.79 1520.08 1542.67 1518.35 Q1543.57 1516.59 1543.57 1514.9 Q1543.57 1512.14 1541.63 1510.41 Q1539.71 1508.67 1536.6 1508.67 Q1534.4 1508.67 1531.95 1509.43 Q1529.52 1510.2 1526.74 1511.75 L1526.74 1507.03 Q1529.57 1505.89 1532.02 1505.31 Q1534.47 1504.73 1536.51 1504.73 Q1541.88 1504.73 1545.08 1507.42 Q1548.27 1510.11 1548.27 1514.6 Q1548.27 1516.73 1547.46 1518.65 Q1546.67 1520.54 1544.57 1523.14 Q1543.99 1523.81 1540.89 1527.03 Q1537.78 1530.22 1532.14 1535.98 Z" fill="#000000" fill-rule="evenodd" fill-opacity="1" /><path clip-path="url(#clip940)" d="M 0 0 M1818.5 1509.43 L1806.69 1527.88 L1818.5 1527.88 L1818.5 1509.43 M1817.27 1505.36 L1823.15 1505.36 L1823.15 1527.88 L1828.08 1527.88 L1828.08 1531.77 L1823.15 1531.77 L1823.15 1539.92 L1818.5 1539.92 L1818.5 1531.77 L1802.89 1531.77 L1802.89 1527.26 L1817.27 1505.36 Z" fill="#000000" fill-rule="evenodd" fill-opacity="1" /><path clip-path="url(#clip940)" d="M 0 0 M2093.9 1520.78 Q2090.75 1520.78 2088.9 1522.93 Q2087.07 1525.08 2087.07 1528.83 Q2087.07 1532.56 2088.9 1534.73 Q2090.75 1536.89 2093.9 1536.89 Q2097.04 1536.89 2098.87 1534.73 Q2100.72 1532.56 2100.72 1528.83 Q2100.72 1525.08 2098.87 1522.93 Q2097.04 1520.78 2093.9 1520.78 M2103.18 1506.12 L2103.18 1510.38 Q2101.42 1509.55 2099.61 1509.11 Q2097.83 1508.67 2096.07 1508.67 Q2091.44 1508.67 2088.99 1511.8 Q2086.56 1514.92 2086.21 1521.24 Q2087.58 1519.23 2089.64 1518.16 Q2091.7 1517.07 2094.17 1517.07 Q2099.38 1517.07 2102.39 1520.24 Q2105.42 1523.39 2105.42 1528.83 Q2105.42 1534.16 2102.27 1537.37 Q2099.13 1540.59 2093.9 1540.59 Q2087.9 1540.59 2084.73 1536.01 Q2081.56 1531.4 2081.56 1522.67 Q2081.56 1514.48 2085.45 1509.62 Q2089.33 1504.73 2095.89 1504.73 Q2097.65 1504.73 2099.43 1505.08 Q2101.23 1505.43 2103.18 1506.12 Z" fill="#000000" fill-rule="evenodd" fill-opacity="1" /><path clip-path="url(#clip940)" d="M 0 0 M130.26 1431.51 Q126.649 1431.51 124.82 1435.08 Q123.015 1438.62 123.015 1445.75 Q123.015 1452.86 124.82 1456.42 Q126.649 1459.96 130.26 1459.96 Q133.895 1459.96 135.7 1456.42 Q137.529 1452.86 137.529 1445.75 Q137.529 1438.62 135.7 1435.08 Q133.895 1431.51 130.26 1431.51 M130.26 1427.81 Q136.07 1427.81 139.126 1432.42 Q142.205 1437 142.205 1445.75 Q142.205 1454.48 139.126 1459.08 Q136.07 1463.67 130.26 1463.67 Q124.45 1463.67 121.371 1459.08 Q118.316 1454.48 118.316 1445.75 Q118.316 1437 121.371 1432.42 Q124.45 1427.81 130.26 1427.81 Z" fill="#000000" fill-rule="evenodd" fill-opacity="1" /><path clip-path="url(#clip940)" d="M 0 0 M71.8578 1116.63 L88.1772 1116.63 L88.1772 1120.56 L66.2328 1120.56 L66.2328 1116.63 Q68.8949 1113.87 73.4782 1109.25 Q78.0846 1104.59 79.2652 1103.25 Q81.5105 1100.73 82.3902 1098.99 Q83.2929 1097.23 83.2929 1095.54 Q83.2929 1092.79 81.3485 1091.05 Q79.4272 1089.31 76.3254 1089.31 Q74.1263 1089.31 71.6726 1090.08 Q69.2421 1090.84 66.4643 1092.39 L66.4643 1087.67 Q69.2884 1086.54 71.7421 1085.96 Q74.1958 1085.38 76.2328 1085.38 Q81.6031 1085.38 84.7976 1088.06 Q87.992 1090.75 87.992 1095.24 Q87.992 1097.37 87.1818 1099.29 Q86.3948 1101.19 84.2883 1103.78 Q83.7096 1104.45 80.6078 1107.67 Q77.5059 1110.87 71.8578 1116.63 Z" fill="#000000" fill-rule="evenodd" fill-opacity="1" /><path clip-path="url(#clip940)" d="M 0 0 M103.247 1089.08 Q99.6354 1089.08 97.8068 1092.65 Q96.0012 1096.19 96.0012 1103.32 Q96.0012 1110.43 97.8068 1113.99 Q99.6354 1117.53 103.247 1117.53 Q106.881 1117.53 108.686 1113.99 Q110.515 1110.43 110.515 1103.32 Q110.515 1096.19 108.686 1092.65 Q106.881 1089.08 103.247 1089.08 M103.247 1085.38 Q109.057 1085.38 112.112 1089.99 Q115.191 1094.57 115.191 1103.32 Q115.191 1112.05 112.112 1116.65 Q109.057 1121.24 103.247 1121.24 Q97.4364 1121.24 94.3577 1116.65 Q91.3022 1112.05 91.3022 1103.32 Q91.3022 1094.57 94.3577 1089.99 Q97.4364 1085.38 103.247 1085.38 Z" fill="#000000" fill-rule="evenodd" fill-opacity="1" /><path clip-path="url(#clip940)" d="M 0 0 M130.26 1089.08 Q126.649 1089.08 124.82 1092.65 Q123.015 1096.19 123.015 1103.32 Q123.015 1110.43 124.82 1113.99 Q126.649 1117.53 130.26 1117.53 Q133.895 1117.53 135.7 1113.99 Q137.529 1110.43 137.529 1103.32 Q137.529 1096.19 135.7 1092.65 Q133.895 1089.08 130.26 1089.08 M130.26 1085.38 Q136.07 1085.38 139.126 1089.99 Q142.205 1094.57 142.205 1103.32 Q142.205 1112.05 139.126 1116.65 Q136.07 1121.24 130.26 1121.24 Q124.45 1121.24 121.371 1116.65 Q118.316 1112.05 118.316 1103.32 Q118.316 1094.57 121.371 1089.99 Q124.45 1085.38 130.26 1085.38 Z" fill="#000000" fill-rule="evenodd" fill-opacity="1" /><path clip-path="url(#clip940)" d="M 0 0 M78.5939 747.647 L66.7884 766.096 L78.5939 766.096 L78.5939 747.647 M77.367 743.573 L83.2466 743.573 L83.2466 766.096 L88.1772 766.096 L88.1772 769.985 L83.2466 769.985 L83.2466 778.133 L78.5939 778.133 L78.5939 769.985 L62.9921 769.985 L62.9921 765.471 L77.367 743.573 Z" fill="#000000" fill-rule="evenodd" fill-opacity="1" /><path clip-path="url(#clip940)" d="M 0 0 M103.247 746.652 Q99.6354 746.652 97.8068 750.217 Q96.0012 753.759 96.0012 760.888 Q96.0012 767.995 97.8068 771.559 Q99.6354 775.101 103.247 775.101 Q106.881 775.101 108.686 771.559 Q110.515 767.995 110.515 760.888 Q110.515 753.759 108.686 750.217 Q106.881 746.652 103.247 746.652 M103.247 742.948 Q109.057 742.948 112.112 747.555 Q115.191 752.138 115.191 760.888 Q115.191 769.615 112.112 774.221 Q109.057 778.805 103.247 778.805 Q97.4364 778.805 94.3577 774.221 Q91.3022 769.615 91.3022 760.888 Q91.3022 752.138 94.3577 747.555 Q97.4364 742.948 103.247 742.948 Z" fill="#000000" fill-rule="evenodd" fill-opacity="1" /><path clip-path="url(#clip940)" d="M 0 0 M130.26 746.652 Q126.649 746.652 124.82 750.217 Q123.015 753.759 123.015 760.888 Q123.015 767.995 124.82 771.559 Q126.649 775.101 130.26 775.101 Q133.895 775.101 135.7 771.559 Q137.529 767.995 137.529 760.888 Q137.529 753.759 135.7 750.217 Q133.895 746.652 130.26 746.652 M130.26 742.948 Q136.07 742.948 139.126 747.555 Q142.205 752.138 142.205 760.888 Q142.205 769.615 139.126 774.221 Q136.07 778.805 130.26 778.805 Q124.45 778.805 121.371 774.221 Q118.316 769.615 118.316 760.888 Q118.316 752.138 121.371 747.555 Q124.45 742.948 130.26 742.948 Z" fill="#000000" fill-rule="evenodd" fill-opacity="1" /><path clip-path="url(#clip940)" d="M 0 0 M76.6495 416.559 Q73.5013 416.559 71.6495 418.712 Q69.8208 420.864 69.8208 424.614 Q69.8208 428.341 71.6495 430.517 Q73.5013 432.67 76.6495 432.67 Q79.7976 432.67 81.6263 430.517 Q83.4781 428.341 83.4781 424.614 Q83.4781 420.864 81.6263 418.712 Q79.7976 416.559 76.6495 416.559 M85.9318 401.906 L85.9318 406.165 Q84.1726 405.332 82.367 404.892 Q80.5846 404.452 78.8254 404.452 Q74.1958 404.452 71.7421 407.577 Q69.3115 410.702 68.9643 417.022 Q70.33 415.008 72.3902 413.943 Q74.4504 412.855 76.9272 412.855 Q82.1355 412.855 85.1448 416.026 Q88.1772 419.175 88.1772 424.614 Q88.1772 429.938 85.029 433.156 Q81.8809 436.374 76.6495 436.374 Q70.6541 436.374 67.4828 431.79 Q64.3116 427.184 64.3116 418.457 Q64.3116 410.263 68.2004 405.402 Q72.0893 400.517 78.6402 400.517 Q80.3994 400.517 82.1818 400.865 Q83.9874 401.212 85.9318 401.906 Z" fill="#000000" fill-rule="evenodd" fill-opacity="1" /><path clip-path="url(#clip940)" d="M 0 0 M103.247 404.221 Q99.6354 404.221 97.8068 407.786 Q96.0012 411.327 96.0012 418.457 Q96.0012 425.563 97.8068 429.128 Q99.6354 432.67 103.247 432.67 Q106.881 432.67 108.686 429.128 Q110.515 425.563 110.515 418.457 Q110.515 411.327 108.686 407.786 Q106.881 404.221 103.247 404.221 M103.247 400.517 Q109.057 400.517 112.112 405.124 Q115.191 409.707 115.191 418.457 Q115.191 427.184 112.112 431.79 Q109.057 436.374 103.247 436.374 Q97.4364 436.374 94.3577 431.79 Q91.3022 427.184 91.3022 418.457 Q91.3022 409.707 94.3577 405.124 Q97.4364 400.517 103.247 400.517 Z" fill="#000000" fill-rule="evenodd" fill-opacity="1" /><path clip-path="url(#clip940)" d="M 0 0 M130.26 404.221 Q126.649 404.221 124.82 407.786 Q123.015 411.327 123.015 418.457 Q123.015 425.563 124.82 429.128 Q126.649 432.67 130.26 432.67 Q133.895 432.67 135.7 429.128 Q137.529 425.563 137.529 418.457 Q137.529 411.327 135.7 407.786 Q133.895 404.221 130.26 404.221 M130.26 400.517 Q136.07 400.517 139.126 405.124 Q142.205 409.707 142.205 418.457 Q142.205 427.184 139.126 431.79 Q136.07 436.374 130.26 436.374 Q124.45 436.374 121.371 431.79 Q118.316 427.184 118.316 418.457 Q118.316 409.707 121.371 405.124 Q124.45 400.517 130.26 400.517 Z" fill="#000000" fill-rule="evenodd" fill-opacity="1" /><path clip-path="url(#clip940)" d="M 0 0 M76.3254 76.8592 Q72.9921 76.8592 71.0708 78.6416 Q69.1726 80.424 69.1726 83.549 Q69.1726 86.674 71.0708 88.4564 Q72.9921 90.2388 76.3254 90.2388 Q79.6587 90.2388 81.58 88.4564 Q83.5013 86.6509 83.5013 83.549 Q83.5013 80.424 81.58 78.6416 Q79.6819 76.8592 76.3254 76.8592 M71.6495 74.8685 Q68.6402 74.1278 66.9504 72.0676 Q65.2838 70.0074 65.2838 67.0445 Q65.2838 62.901 68.2236 60.4936 Q71.1865 58.0862 76.3254 58.0862 Q81.4874 58.0862 84.4272 60.4936 Q87.367 62.901 87.367 67.0445 Q87.367 70.0074 85.6772 72.0676 Q84.0105 74.1278 81.0244 74.8685 Q84.404 75.6555 86.279 77.9472 Q88.1772 80.2388 88.1772 83.549 Q88.1772 88.5721 85.0985 91.2573 Q82.0429 93.9425 76.3254 93.9425 Q70.6078 93.9425 67.5291 91.2573 Q64.4736 88.5721 64.4736 83.549 Q64.4736 80.2388 66.3717 77.9472 Q68.2699 75.6555 71.6495 74.8685 M69.9365 67.4843 Q69.9365 70.1695 71.6032 71.6741 Q73.293 73.1787 76.3254 73.1787 Q79.3346 73.1787 81.0244 71.6741 Q82.7374 70.1695 82.7374 67.4843 Q82.7374 64.7991 81.0244 63.2945 Q79.3346 61.7899 76.3254 61.7899 Q73.293 61.7899 71.6032 63.2945 Q69.9365 64.7991 69.9365 67.4843 Z" fill="#000000" fill-rule="evenodd" fill-opacity="1" /><path clip-path="url(#clip940)" d="M 0 0 M103.247 61.7899 Q99.6354 61.7899 97.8068 65.3547 Q96.0012 68.8963 96.0012 76.0259 Q96.0012 83.1324 97.8068 86.6971 Q99.6354 90.2388 103.247 90.2388 Q106.881 90.2388 108.686 86.6971 Q110.515 83.1324 110.515 76.0259 Q110.515 68.8963 108.686 65.3547 Q106.881 61.7899 103.247 61.7899 M103.247 58.0862 Q109.057 58.0862 112.112 62.6926 Q115.191 67.276 115.191 76.0259 Q115.191 84.7527 112.112 89.3592 Q109.057 93.9425 103.247 93.9425 Q97.4364 93.9425 94.3577 89.3592 Q91.3022 84.7527 91.3022 76.0259 Q91.3022 67.276 94.3577 62.6926 Q97.4364 58.0862 103.247 58.0862 Z" fill="#000000" fill-rule="evenodd" fill-opacity="1" /><path clip-path="url(#clip940)" d="M 0 0 M130.26 61.7899 Q126.649 61.7899 124.82 65.3547 Q123.015 68.8963 123.015 76.0259 Q123.015 83.1324 124.82 86.6971 Q126.649 90.2388 130.26 90.2388 Q133.895 90.2388 135.7 86.6971 Q137.529 83.1324 137.529 76.0259 Q137.529 68.8963 135.7 65.3547 Q133.895 61.7899 130.26 61.7899 M130.26 58.0862 Q136.07 58.0862 139.126 62.6926 Q142.205 67.276 142.205 76.0259 Q142.205 84.7527 139.126 89.3592 Q136.07 93.9425 130.26 93.9425 Q124.45 93.9425 121.371 89.3592 Q118.316 84.7527 118.316 76.0259 Q118.316 67.276 121.371 62.6926 Q124.45 58.0862 130.26 58.0862 Z" fill="#000000" fill-rule="evenodd" fill-opacity="1" /><path clip-path="url(#clip942)" d="
M286.469 1444 L286.469 1445.72 L314.269 1445.72 L314.269 1444 L286.469 1444 L286.469 1444  Z
  " fill="#009af9" fill-rule="evenodd" fill-opacity="1"/>
<polyline clip-path="url(#clip942)" style="stroke:#000000; stroke-width:4; stroke-opacity:1; fill:none" points="
  286.469,1444 286.469,1445.72 314.269,1445.72 314.269,1444 286.469,1444 
  "/>
<path clip-path="url(#clip942)" d="
M314.269 1444 L314.269 1445.72 L342.07 1445.72 L342.07 1444 L314.269 1444 L314.269 1444  Z
  " fill="#009af9" fill-rule="evenodd" fill-opacity="1"/>
<polyline clip-path="url(#clip942)" style="stroke:#000000; stroke-width:4; stroke-opacity:1; fill:none" points="
  314.269,1444 314.269,1445.72 342.07,1445.72 342.07,1444 314.269,1444 
  "/>
<path clip-path="url(#clip942)" d="
M342.07 1445.72 L342.07 1445.72 L369.87 1445.72 L369.87 1445.72 L342.07 1445.72 L342.07 1445.72  Z
  " fill="#009af9" fill-rule="evenodd" fill-opacity="1"/>
<polyline clip-path="url(#clip942)" style="stroke:#000000; stroke-width:4; stroke-opacity:1; fill:none" points="
  342.07,1445.72 342.07,1445.72 369.87,1445.72 342.07,1445.72 
  "/>
<path clip-path="url(#clip942)" d="
M369.87 1440.58 L369.87 1445.72 L397.67 1445.72 L397.67 1440.58 L369.87 1440.58 L369.87 1440.58  Z
  " fill="#009af9" fill-rule="evenodd" fill-opacity="1"/>
<polyline clip-path="url(#clip942)" style="stroke:#000000; stroke-width:4; stroke-opacity:1; fill:none" points="
  369.87,1440.58 369.87,1445.72 397.67,1445.72 397.67,1440.58 369.87,1440.58 
  "/>
<path clip-path="url(#clip942)" d="
M397.67 1442.29 L397.67 1445.72 L425.471 1445.72 L425.471 1442.29 L397.67 1442.29 L397.67 1442.29  Z
  " fill="#009af9" fill-rule="evenodd" fill-opacity="1"/>
<polyline clip-path="url(#clip942)" style="stroke:#000000; stroke-width:4; stroke-opacity:1; fill:none" points="
  397.67,1442.29 397.67,1445.72 425.471,1445.72 425.471,1442.29 397.67,1442.29 
  "/>
<path clip-path="url(#clip942)" d="
M425.471 1440.58 L425.471 1445.72 L453.271 1445.72 L453.271 1440.58 L425.471 1440.58 L425.471 1440.58  Z
  " fill="#009af9" fill-rule="evenodd" fill-opacity="1"/>
<polyline clip-path="url(#clip942)" style="stroke:#000000; stroke-width:4; stroke-opacity:1; fill:none" points="
  425.471,1440.58 425.471,1445.72 453.271,1445.72 453.271,1440.58 425.471,1440.58 
  "/>
<path clip-path="url(#clip942)" d="
M453.271 1442.29 L453.271 1445.72 L481.071 1445.72 L481.071 1442.29 L453.271 1442.29 L453.271 1442.29  Z
  " fill="#009af9" fill-rule="evenodd" fill-opacity="1"/>
<polyline clip-path="url(#clip942)" style="stroke:#000000; stroke-width:4; stroke-opacity:1; fill:none" points="
  453.271,1442.29 453.271,1445.72 481.071,1445.72 481.071,1442.29 453.271,1442.29 
  "/>
<path clip-path="url(#clip942)" d="
M481.071 1440.58 L481.071 1445.72 L508.871 1445.72 L508.871 1440.58 L481.071 1440.58 L481.071 1440.58  Z
  " fill="#009af9" fill-rule="evenodd" fill-opacity="1"/>
<polyline clip-path="url(#clip942)" style="stroke:#000000; stroke-width:4; stroke-opacity:1; fill:none" points="
  481.071,1440.58 481.071,1445.72 508.871,1445.72 508.871,1440.58 481.071,1440.58 
  "/>
<path clip-path="url(#clip942)" d="
M508.871 1440.58 L508.871 1445.72 L536.672 1445.72 L536.672 1440.58 L508.871 1440.58 L508.871 1440.58  Z
  " fill="#009af9" fill-rule="evenodd" fill-opacity="1"/>
<polyline clip-path="url(#clip942)" style="stroke:#000000; stroke-width:4; stroke-opacity:1; fill:none" points="
  508.871,1440.58 508.871,1445.72 536.672,1445.72 536.672,1440.58 508.871,1440.58 
  "/>
<path clip-path="url(#clip942)" d="
M536.672 1437.15 L536.672 1445.72 L564.472 1445.72 L564.472 1437.15 L536.672 1437.15 L536.672 1437.15  Z
  " fill="#009af9" fill-rule="evenodd" fill-opacity="1"/>
<polyline clip-path="url(#clip942)" style="stroke:#000000; stroke-width:4; stroke-opacity:1; fill:none" points="
  536.672,1437.15 536.672,1445.72 564.472,1445.72 564.472,1437.15 536.672,1437.15 
  "/>
<path clip-path="url(#clip942)" d="
M564.472 1432.02 L564.472 1445.72 L592.272 1445.72 L592.272 1432.02 L564.472 1432.02 L564.472 1432.02  Z
  " fill="#009af9" fill-rule="evenodd" fill-opacity="1"/>
<polyline clip-path="url(#clip942)" style="stroke:#000000; stroke-width:4; stroke-opacity:1; fill:none" points="
  564.472,1432.02 564.472,1445.72 592.272,1445.72 592.272,1432.02 564.472,1432.02 
  "/>
<path clip-path="url(#clip942)" d="
M592.272 1432.02 L592.272 1445.72 L620.073 1445.72 L620.073 1432.02 L592.272 1432.02 L592.272 1432.02  Z
  " fill="#009af9" fill-rule="evenodd" fill-opacity="1"/>
<polyline clip-path="url(#clip942)" style="stroke:#000000; stroke-width:4; stroke-opacity:1; fill:none" points="
  592.272,1432.02 592.272,1445.72 620.073,1445.72 620.073,1432.02 592.272,1432.02 
  "/>
<path clip-path="url(#clip942)" d="
M620.073 1433.73 L620.073 1445.72 L647.873 1445.72 L647.873 1433.73 L620.073 1433.73 L620.073 1433.73  Z
  " fill="#009af9" fill-rule="evenodd" fill-opacity="1"/>
<polyline clip-path="url(#clip942)" style="stroke:#000000; stroke-width:4; stroke-opacity:1; fill:none" points="
  620.073,1433.73 620.073,1445.72 647.873,1445.72 647.873,1433.73 620.073,1433.73 
  "/>
<path clip-path="url(#clip942)" d="
M647.873 1416.61 L647.873 1445.72 L675.673 1445.72 L675.673 1416.61 L647.873 1416.61 L647.873 1416.61  Z
  " fill="#009af9" fill-rule="evenodd" fill-opacity="1"/>
<polyline clip-path="url(#clip942)" style="stroke:#000000; stroke-width:4; stroke-opacity:1; fill:none" points="
  647.873,1416.61 647.873,1445.72 675.673,1445.72 675.673,1416.61 647.873,1416.61 
  "/>
<path clip-path="url(#clip942)" d="
M675.673 1418.32 L675.673 1445.72 L703.474 1445.72 L703.474 1418.32 L675.673 1418.32 L675.673 1418.32  Z
  " fill="#009af9" fill-rule="evenodd" fill-opacity="1"/>
<polyline clip-path="url(#clip942)" style="stroke:#000000; stroke-width:4; stroke-opacity:1; fill:none" points="
  675.673,1418.32 675.673,1445.72 703.474,1445.72 703.474,1418.32 675.673,1418.32 
  "/>
<path clip-path="url(#clip942)" d="
M703.474 1414.9 L703.474 1445.72 L731.274 1445.72 L731.274 1414.9 L703.474 1414.9 L703.474 1414.9  Z
  " fill="#009af9" fill-rule="evenodd" fill-opacity="1"/>
<polyline clip-path="url(#clip942)" style="stroke:#000000; stroke-width:4; stroke-opacity:1; fill:none" points="
  703.474,1414.9 703.474,1445.72 731.274,1445.72 731.274,1414.9 703.474,1414.9 
  "/>
<path clip-path="url(#clip942)" d="
M731.274 1416.61 L731.274 1445.72 L759.074 1445.72 L759.074 1416.61 L731.274 1416.61 L731.274 1416.61  Z
  " fill="#009af9" fill-rule="evenodd" fill-opacity="1"/>
<polyline clip-path="url(#clip942)" style="stroke:#000000; stroke-width:4; stroke-opacity:1; fill:none" points="
  731.274,1416.61 731.274,1445.72 759.074,1445.72 759.074,1416.61 731.274,1416.61 
  "/>
<path clip-path="url(#clip942)" d="
M759.074 1406.34 L759.074 1445.72 L786.875 1445.72 L786.875 1406.34 L759.074 1406.34 L759.074 1406.34  Z
  " fill="#009af9" fill-rule="evenodd" fill-opacity="1"/>
<polyline clip-path="url(#clip942)" style="stroke:#000000; stroke-width:4; stroke-opacity:1; fill:none" points="
  759.074,1406.34 759.074,1445.72 786.875,1445.72 786.875,1406.34 759.074,1406.34 
  "/>
<path clip-path="url(#clip942)" d="
M786.875 1387.5 L786.875 1445.72 L814.675 1445.72 L814.675 1387.5 L786.875 1387.5 L786.875 1387.5  Z
  " fill="#009af9" fill-rule="evenodd" fill-opacity="1"/>
<polyline clip-path="url(#clip942)" style="stroke:#000000; stroke-width:4; stroke-opacity:1; fill:none" points="
  786.875,1387.5 786.875,1445.72 814.675,1445.72 814.675,1387.5 786.875,1387.5 
  "/>
<path clip-path="url(#clip942)" d="
M814.675 1392.64 L814.675 1445.72 L842.475 1445.72 L842.475 1392.64 L814.675 1392.64 L814.675 1392.64  Z
  " fill="#009af9" fill-rule="evenodd" fill-opacity="1"/>
<polyline clip-path="url(#clip942)" style="stroke:#000000; stroke-width:4; stroke-opacity:1; fill:none" points="
  814.675,1392.64 814.675,1445.72 842.475,1445.72 842.475,1392.64 814.675,1392.64 
  "/>
<path clip-path="url(#clip942)" d="
M842.475 1370.38 L842.475 1445.72 L870.276 1445.72 L870.276 1370.38 L842.475 1370.38 L842.475 1370.38  Z
  " fill="#009af9" fill-rule="evenodd" fill-opacity="1"/>
<polyline clip-path="url(#clip942)" style="stroke:#000000; stroke-width:4; stroke-opacity:1; fill:none" points="
  842.475,1370.38 842.475,1445.72 870.276,1445.72 870.276,1370.38 842.475,1370.38 
  "/>
<path clip-path="url(#clip942)" d="
M870.276 1375.52 L870.276 1445.72 L898.076 1445.72 L898.076 1375.52 L870.276 1375.52 L870.276 1375.52  Z
  " fill="#009af9" fill-rule="evenodd" fill-opacity="1"/>
<polyline clip-path="url(#clip942)" style="stroke:#000000; stroke-width:4; stroke-opacity:1; fill:none" points="
  870.276,1375.52 870.276,1445.72 898.076,1445.72 898.076,1375.52 870.276,1375.52 
  "/>
<path clip-path="url(#clip942)" d="
M898.076 1365.24 L898.076 1445.72 L925.876 1445.72 L925.876 1365.24 L898.076 1365.24 L898.076 1365.24  Z
  " fill="#009af9" fill-rule="evenodd" fill-opacity="1"/>
<polyline clip-path="url(#clip942)" style="stroke:#000000; stroke-width:4; stroke-opacity:1; fill:none" points="
  898.076,1365.24 898.076,1445.72 925.876,1445.72 925.876,1365.24 898.076,1365.24 
  "/>
<path clip-path="url(#clip942)" d="
M925.876 1336.14 L925.876 1445.72 L953.677 1445.72 L953.677 1336.14 L925.876 1336.14 L925.876 1336.14  Z
  " fill="#009af9" fill-rule="evenodd" fill-opacity="1"/>
<polyline clip-path="url(#clip942)" style="stroke:#000000; stroke-width:4; stroke-opacity:1; fill:none" points="
  925.876,1336.14 925.876,1445.72 953.677,1445.72 953.677,1336.14 925.876,1336.14 
  "/>
<path clip-path="url(#clip942)" d="
M953.677 1336.14 L953.677 1445.72 L981.477 1445.72 L981.477 1336.14 L953.677 1336.14 L953.677 1336.14  Z
  " fill="#009af9" fill-rule="evenodd" fill-opacity="1"/>
<polyline clip-path="url(#clip942)" style="stroke:#000000; stroke-width:4; stroke-opacity:1; fill:none" points="
  953.677,1336.14 953.677,1445.72 981.477,1445.72 981.477,1336.14 953.677,1336.14 
  "/>
<path clip-path="url(#clip942)" d="
M981.477 1336.14 L981.477 1445.72 L1009.28 1445.72 L1009.28 1336.14 L981.477 1336.14 L981.477 1336.14  Z
  " fill="#009af9" fill-rule="evenodd" fill-opacity="1"/>
<polyline clip-path="url(#clip942)" style="stroke:#000000; stroke-width:4; stroke-opacity:1; fill:none" points="
  981.477,1336.14 981.477,1445.72 1009.28,1445.72 1009.28,1336.14 981.477,1336.14 
  "/>
<path clip-path="url(#clip942)" d="
M1009.28 1300.18 L1009.28 1445.72 L1037.08 1445.72 L1037.08 1300.18 L1009.28 1300.18 L1009.28 1300.18  Z
  " fill="#009af9" fill-rule="evenodd" fill-opacity="1"/>
<polyline clip-path="url(#clip942)" style="stroke:#000000; stroke-width:4; stroke-opacity:1; fill:none" points="
  1009.28,1300.18 1009.28,1445.72 1037.08,1445.72 1037.08,1300.18 1009.28,1300.18 
  "/>
<path clip-path="url(#clip942)" d="
M1037.08 1274.5 L1037.08 1445.72 L1064.88 1445.72 L1064.88 1274.5 L1037.08 1274.5 L1037.08 1274.5  Z
  " fill="#009af9" fill-rule="evenodd" fill-opacity="1"/>
<polyline clip-path="url(#clip942)" style="stroke:#000000; stroke-width:4; stroke-opacity:1; fill:none" points="
  1037.08,1274.5 1037.08,1445.72 1064.88,1445.72 1064.88,1274.5 1037.08,1274.5 
  "/>
<path clip-path="url(#clip942)" d="
M1064.88 1286.49 L1064.88 1445.72 L1092.68 1445.72 L1092.68 1286.49 L1064.88 1286.49 L1064.88 1286.49  Z
  " fill="#009af9" fill-rule="evenodd" fill-opacity="1"/>
<polyline clip-path="url(#clip942)" style="stroke:#000000; stroke-width:4; stroke-opacity:1; fill:none" points="
  1064.88,1286.49 1064.88,1445.72 1092.68,1445.72 1092.68,1286.49 1064.88,1286.49 
  "/>
<path clip-path="url(#clip942)" d="
M1092.68 1252.24 L1092.68 1445.72 L1120.48 1445.72 L1120.48 1252.24 L1092.68 1252.24 L1092.68 1252.24  Z
  " fill="#009af9" fill-rule="evenodd" fill-opacity="1"/>
<polyline clip-path="url(#clip942)" style="stroke:#000000; stroke-width:4; stroke-opacity:1; fill:none" points="
  1092.68,1252.24 1092.68,1445.72 1120.48,1445.72 1120.48,1252.24 1092.68,1252.24 
  "/>
<path clip-path="url(#clip942)" d="
M1120.48 1248.82 L1120.48 1445.72 L1148.28 1445.72 L1148.28 1248.82 L1120.48 1248.82 L1120.48 1248.82  Z
  " fill="#009af9" fill-rule="evenodd" fill-opacity="1"/>
<polyline clip-path="url(#clip942)" style="stroke:#000000; stroke-width:4; stroke-opacity:1; fill:none" points="
  1120.48,1248.82 1120.48,1445.72 1148.28,1445.72 1148.28,1248.82 1120.48,1248.82 
  "/>
<path clip-path="url(#clip942)" d="
M1148.28 1286.49 L1148.28 1445.72 L1176.08 1445.72 L1176.08 1286.49 L1148.28 1286.49 L1148.28 1286.49  Z
  " fill="#009af9" fill-rule="evenodd" fill-opacity="1"/>
<polyline clip-path="url(#clip942)" style="stroke:#000000; stroke-width:4; stroke-opacity:1; fill:none" points="
  1148.28,1286.49 1148.28,1445.72 1176.08,1445.72 1176.08,1286.49 1148.28,1286.49 
  "/>
<path clip-path="url(#clip942)" d="
M1176.08 1250.53 L1176.08 1445.72 L1203.88 1445.72 L1203.88 1250.53 L1176.08 1250.53 L1176.08 1250.53  Z
  " fill="#009af9" fill-rule="evenodd" fill-opacity="1"/>
<polyline clip-path="url(#clip942)" style="stroke:#000000; stroke-width:4; stroke-opacity:1; fill:none" points="
  1176.08,1250.53 1176.08,1445.72 1203.88,1445.72 1203.88,1250.53 1176.08,1250.53 
  "/>
<path clip-path="url(#clip942)" d="
M1203.88 1228.27 L1203.88 1445.72 L1231.68 1445.72 L1231.68 1228.27 L1203.88 1228.27 L1203.88 1228.27  Z
  " fill="#009af9" fill-rule="evenodd" fill-opacity="1"/>
<polyline clip-path="url(#clip942)" style="stroke:#000000; stroke-width:4; stroke-opacity:1; fill:none" points="
  1203.88,1228.27 1203.88,1445.72 1231.68,1445.72 1231.68,1228.27 1203.88,1228.27 
  "/>
<path clip-path="url(#clip942)" d="
M1231.68 1271.08 L1231.68 1445.72 L1259.48 1445.72 L1259.48 1271.08 L1231.68 1271.08 L1231.68 1271.08  Z
  " fill="#009af9" fill-rule="evenodd" fill-opacity="1"/>
<polyline clip-path="url(#clip942)" style="stroke:#000000; stroke-width:4; stroke-opacity:1; fill:none" points="
  1231.68,1271.08 1231.68,1445.72 1259.48,1445.72 1259.48,1271.08 1231.68,1271.08 
  "/>
<path clip-path="url(#clip942)" d="
M1259.48 1243.68 L1259.48 1445.72 L1287.28 1445.72 L1287.28 1243.68 L1259.48 1243.68 L1259.48 1243.68  Z
  " fill="#009af9" fill-rule="evenodd" fill-opacity="1"/>
<polyline clip-path="url(#clip942)" style="stroke:#000000; stroke-width:4; stroke-opacity:1; fill:none" points="
  1259.48,1243.68 1259.48,1445.72 1287.28,1445.72 1287.28,1243.68 1259.48,1243.68 
  "/>
<path clip-path="url(#clip942)" d="
M1287.28 1238.54 L1287.28 1445.72 L1315.08 1445.72 L1315.08 1238.54 L1287.28 1238.54 L1287.28 1238.54  Z
  " fill="#009af9" fill-rule="evenodd" fill-opacity="1"/>
<polyline clip-path="url(#clip942)" style="stroke:#000000; stroke-width:4; stroke-opacity:1; fill:none" points="
  1287.28,1238.54 1287.28,1445.72 1315.08,1445.72 1315.08,1238.54 1287.28,1238.54 
  "/>
<path clip-path="url(#clip942)" d="
M1315.08 1140.95 L1315.08 1445.72 L1342.88 1445.72 L1342.88 1140.95 L1315.08 1140.95 L1315.08 1140.95  Z
  " fill="#009af9" fill-rule="evenodd" fill-opacity="1"/>
<polyline clip-path="url(#clip942)" style="stroke:#000000; stroke-width:4; stroke-opacity:1; fill:none" points="
  1315.08,1140.95 1315.08,1445.72 1342.88,1445.72 1342.88,1140.95 1315.08,1140.95 
  "/>
<path clip-path="url(#clip942)" d="
M1342.88 808.794 L1342.88 1445.72 L1370.68 1445.72 L1370.68 808.794 L1342.88 808.794 L1342.88 808.794  Z
  " fill="#009af9" fill-rule="evenodd" fill-opacity="1"/>
<polyline clip-path="url(#clip942)" style="stroke:#000000; stroke-width:4; stroke-opacity:1; fill:none" points="
  1342.88,808.794 1342.88,1445.72 1370.68,1445.72 1370.68,808.794 1342.88,808.794 
  "/>
<path clip-path="url(#clip942)" d="
M1370.68 87.9763 L1370.68 1445.72 L1398.48 1445.72 L1398.48 87.9763 L1370.68 87.9763 L1370.68 87.9763  Z
  " fill="#009af9" fill-rule="evenodd" fill-opacity="1"/>
<polyline clip-path="url(#clip942)" style="stroke:#000000; stroke-width:4; stroke-opacity:1; fill:none" points="
  1370.68,87.9763 1370.68,1445.72 1398.48,1445.72 1398.48,87.9763 1370.68,87.9763 
  "/>
<path clip-path="url(#clip942)" d="
M1398.48 132.492 L1398.48 1445.72 L1426.28 1445.72 L1426.28 132.492 L1398.48 132.492 L1398.48 132.492  Z
  " fill="#009af9" fill-rule="evenodd" fill-opacity="1"/>
<polyline clip-path="url(#clip942)" style="stroke:#000000; stroke-width:4; stroke-opacity:1; fill:none" points="
  1398.48,132.492 1398.48,1445.72 1426.28,1445.72 1426.28,132.492 1398.48,132.492 
  "/>
<path clip-path="url(#clip942)" d="
M1426.28 841.325 L1426.28 1445.72 L1454.08 1445.72 L1454.08 841.325 L1426.28 841.325 L1426.28 841.325  Z
  " fill="#009af9" fill-rule="evenodd" fill-opacity="1"/>
<polyline clip-path="url(#clip942)" style="stroke:#000000; stroke-width:4; stroke-opacity:1; fill:none" points="
  1426.28,841.325 1426.28,1445.72 1454.08,1445.72 1454.08,841.325 1426.28,841.325 
  "/>
<path clip-path="url(#clip942)" d="
M1454.08 1214.57 L1454.08 1445.72 L1481.88 1445.72 L1481.88 1214.57 L1454.08 1214.57 L1454.08 1214.57  Z
  " fill="#009af9" fill-rule="evenodd" fill-opacity="1"/>
<polyline clip-path="url(#clip942)" style="stroke:#000000; stroke-width:4; stroke-opacity:1; fill:none" points="
  1454.08,1214.57 1454.08,1445.72 1481.88,1445.72 1481.88,1214.57 1454.08,1214.57 
  "/>
<path clip-path="url(#clip942)" d="
M1481.88 1307.03 L1481.88 1445.72 L1509.68 1445.72 L1509.68 1307.03 L1481.88 1307.03 L1481.88 1307.03  Z
  " fill="#009af9" fill-rule="evenodd" fill-opacity="1"/>
<polyline clip-path="url(#clip942)" style="stroke:#000000; stroke-width:4; stroke-opacity:1; fill:none" points="
  1481.88,1307.03 1481.88,1445.72 1509.68,1445.72 1509.68,1307.03 1481.88,1307.03 
  "/>
<path clip-path="url(#clip942)" d="
M1509.68 1315.59 L1509.68 1445.72 L1537.48 1445.72 L1537.48 1315.59 L1509.68 1315.59 L1509.68 1315.59  Z
  " fill="#009af9" fill-rule="evenodd" fill-opacity="1"/>
<polyline clip-path="url(#clip942)" style="stroke:#000000; stroke-width:4; stroke-opacity:1; fill:none" points="
  1509.68,1315.59 1509.68,1445.72 1537.48,1445.72 1537.48,1315.59 1509.68,1315.59 
  "/>
<path clip-path="url(#clip942)" d="
M1537.48 1307.03 L1537.48 1445.72 L1565.28 1445.72 L1565.28 1307.03 L1537.48 1307.03 L1537.48 1307.03  Z
  " fill="#009af9" fill-rule="evenodd" fill-opacity="1"/>
<polyline clip-path="url(#clip942)" style="stroke:#000000; stroke-width:4; stroke-opacity:1; fill:none" points="
  1537.48,1307.03 1537.48,1445.72 1565.28,1445.72 1565.28,1307.03 1537.48,1307.03 
  "/>
<path clip-path="url(#clip942)" d="
M1565.28 1319.02 L1565.28 1445.72 L1593.08 1445.72 L1593.08 1319.02 L1565.28 1319.02 L1565.28 1319.02  Z
  " fill="#009af9" fill-rule="evenodd" fill-opacity="1"/>
<polyline clip-path="url(#clip942)" style="stroke:#000000; stroke-width:4; stroke-opacity:1; fill:none" points="
  1565.28,1319.02 1565.28,1445.72 1593.08,1445.72 1593.08,1319.02 1565.28,1319.02 
  "/>
<path clip-path="url(#clip942)" d="
M1593.08 1351.55 L1593.08 1445.72 L1620.88 1445.72 L1620.88 1351.55 L1593.08 1351.55 L1593.08 1351.55  Z
  " fill="#009af9" fill-rule="evenodd" fill-opacity="1"/>
<polyline clip-path="url(#clip942)" style="stroke:#000000; stroke-width:4; stroke-opacity:1; fill:none" points="
  1593.08,1351.55 1593.08,1445.72 1620.88,1445.72 1620.88,1351.55 1593.08,1351.55 
  "/>
<path clip-path="url(#clip942)" d="
M1620.88 1354.97 L1620.88 1445.72 L1648.68 1445.72 L1648.68 1354.97 L1620.88 1354.97 L1620.88 1354.97  Z
  " fill="#009af9" fill-rule="evenodd" fill-opacity="1"/>
<polyline clip-path="url(#clip942)" style="stroke:#000000; stroke-width:4; stroke-opacity:1; fill:none" points="
  1620.88,1354.97 1620.88,1445.72 1648.68,1445.72 1648.68,1354.97 1620.88,1354.97 
  "/>
<path clip-path="url(#clip942)" d="
M1648.68 1363.53 L1648.68 1445.72 L1676.49 1445.72 L1676.49 1363.53 L1648.68 1363.53 L1648.68 1363.53  Z
  " fill="#009af9" fill-rule="evenodd" fill-opacity="1"/>
<polyline clip-path="url(#clip942)" style="stroke:#000000; stroke-width:4; stroke-opacity:1; fill:none" points="
  1648.68,1363.53 1648.68,1445.72 1676.49,1445.72 1676.49,1363.53 1648.68,1363.53 
  "/>
<path clip-path="url(#clip942)" d="
M1676.49 1384.08 L1676.49 1445.72 L1704.29 1445.72 L1704.29 1384.08 L1676.49 1384.08 L1676.49 1384.08  Z
  " fill="#009af9" fill-rule="evenodd" fill-opacity="1"/>
<polyline clip-path="url(#clip942)" style="stroke:#000000; stroke-width:4; stroke-opacity:1; fill:none" points="
  1676.49,1384.08 1676.49,1445.72 1704.29,1445.72 1704.29,1384.08 1676.49,1384.08 
  "/>
<path clip-path="url(#clip942)" d="
M1704.29 1380.65 L1704.29 1445.72 L1732.09 1445.72 L1732.09 1380.65 L1704.29 1380.65 L1704.29 1380.65  Z
  " fill="#009af9" fill-rule="evenodd" fill-opacity="1"/>
<polyline clip-path="url(#clip942)" style="stroke:#000000; stroke-width:4; stroke-opacity:1; fill:none" points="
  1704.29,1380.65 1704.29,1445.72 1732.09,1445.72 1732.09,1380.65 1704.29,1380.65 
  "/>
<path clip-path="url(#clip942)" d="
M1732.09 1387.5 L1732.09 1445.72 L1759.89 1445.72 L1759.89 1387.5 L1732.09 1387.5 L1732.09 1387.5  Z
  " fill="#009af9" fill-rule="evenodd" fill-opacity="1"/>
<polyline clip-path="url(#clip942)" style="stroke:#000000; stroke-width:4; stroke-opacity:1; fill:none" points="
  1732.09,1387.5 1732.09,1445.72 1759.89,1445.72 1759.89,1387.5 1732.09,1387.5 
  "/>
<path clip-path="url(#clip942)" d="
M1759.89 1404.62 L1759.89 1445.72 L1787.69 1445.72 L1787.69 1404.62 L1759.89 1404.62 L1759.89 1404.62  Z
  " fill="#009af9" fill-rule="evenodd" fill-opacity="1"/>
<polyline clip-path="url(#clip942)" style="stroke:#000000; stroke-width:4; stroke-opacity:1; fill:none" points="
  1759.89,1404.62 1759.89,1445.72 1787.69,1445.72 1787.69,1404.62 1759.89,1404.62 
  "/>
<path clip-path="url(#clip942)" d="
M1787.69 1421.75 L1787.69 1445.72 L1815.49 1445.72 L1815.49 1421.75 L1787.69 1421.75 L1787.69 1421.75  Z
  " fill="#009af9" fill-rule="evenodd" fill-opacity="1"/>
<polyline clip-path="url(#clip942)" style="stroke:#000000; stroke-width:4; stroke-opacity:1; fill:none" points="
  1787.69,1421.75 1787.69,1445.72 1815.49,1445.72 1815.49,1421.75 1787.69,1421.75 
  "/>
<path clip-path="url(#clip942)" d="
M1815.49 1414.9 L1815.49 1445.72 L1843.29 1445.72 L1843.29 1414.9 L1815.49 1414.9 L1815.49 1414.9  Z
  " fill="#009af9" fill-rule="evenodd" fill-opacity="1"/>
<polyline clip-path="url(#clip942)" style="stroke:#000000; stroke-width:4; stroke-opacity:1; fill:none" points="
  1815.49,1414.9 1815.49,1445.72 1843.29,1445.72 1843.29,1414.9 1815.49,1414.9 
  "/>
<path clip-path="url(#clip942)" d="
M1843.29 1425.17 L1843.29 1445.72 L1871.09 1445.72 L1871.09 1425.17 L1843.29 1425.17 L1843.29 1425.17  Z
  " fill="#009af9" fill-rule="evenodd" fill-opacity="1"/>
<polyline clip-path="url(#clip942)" style="stroke:#000000; stroke-width:4; stroke-opacity:1; fill:none" points="
  1843.29,1425.17 1843.29,1445.72 1871.09,1445.72 1871.09,1425.17 1843.29,1425.17 
  "/>
<path clip-path="url(#clip942)" d="
M1871.09 1423.46 L1871.09 1445.72 L1898.89 1445.72 L1898.89 1423.46 L1871.09 1423.46 L1871.09 1423.46  Z
  " fill="#009af9" fill-rule="evenodd" fill-opacity="1"/>
<polyline clip-path="url(#clip942)" style="stroke:#000000; stroke-width:4; stroke-opacity:1; fill:none" points="
  1871.09,1423.46 1871.09,1445.72 1898.89,1445.72 1898.89,1423.46 1871.09,1423.46 
  "/>
<path clip-path="url(#clip942)" d="
M1898.89 1432.02 L1898.89 1445.72 L1926.69 1445.72 L1926.69 1432.02 L1898.89 1432.02 L1898.89 1432.02  Z
  " fill="#009af9" fill-rule="evenodd" fill-opacity="1"/>
<polyline clip-path="url(#clip942)" style="stroke:#000000; stroke-width:4; stroke-opacity:1; fill:none" points="
  1898.89,1432.02 1898.89,1445.72 1926.69,1445.72 1926.69,1432.02 1898.89,1432.02 
  "/>
<path clip-path="url(#clip942)" d="
M1926.69 1437.15 L1926.69 1445.72 L1954.49 1445.72 L1954.49 1437.15 L1926.69 1437.15 L1926.69 1437.15  Z
  " fill="#009af9" fill-rule="evenodd" fill-opacity="1"/>
<polyline clip-path="url(#clip942)" style="stroke:#000000; stroke-width:4; stroke-opacity:1; fill:none" points="
  1926.69,1437.15 1926.69,1445.72 1954.49,1445.72 1954.49,1437.15 1926.69,1437.15 
  "/>
<path clip-path="url(#clip942)" d="
M1954.49 1438.87 L1954.49 1445.72 L1982.29 1445.72 L1982.29 1438.87 L1954.49 1438.87 L1954.49 1438.87  Z
  " fill="#009af9" fill-rule="evenodd" fill-opacity="1"/>
<polyline clip-path="url(#clip942)" style="stroke:#000000; stroke-width:4; stroke-opacity:1; fill:none" points="
  1954.49,1438.87 1954.49,1445.72 1982.29,1445.72 1982.29,1438.87 1954.49,1438.87 
  "/>
<path clip-path="url(#clip942)" d="
M1982.29 1437.15 L1982.29 1445.72 L2010.09 1445.72 L2010.09 1437.15 L1982.29 1437.15 L1982.29 1437.15  Z
  " fill="#009af9" fill-rule="evenodd" fill-opacity="1"/>
<polyline clip-path="url(#clip942)" style="stroke:#000000; stroke-width:4; stroke-opacity:1; fill:none" points="
  1982.29,1437.15 1982.29,1445.72 2010.09,1445.72 2010.09,1437.15 1982.29,1437.15 
  "/>
<path clip-path="url(#clip942)" d="
M2010.09 1438.87 L2010.09 1445.72 L2037.89 1445.72 L2037.89 1438.87 L2010.09 1438.87 L2010.09 1438.87  Z
  " fill="#009af9" fill-rule="evenodd" fill-opacity="1"/>
<polyline clip-path="url(#clip942)" style="stroke:#000000; stroke-width:4; stroke-opacity:1; fill:none" points="
  2010.09,1438.87 2010.09,1445.72 2037.89,1445.72 2037.89,1438.87 2010.09,1438.87 
  "/>
<path clip-path="url(#clip942)" d="
M2037.89 1440.58 L2037.89 1445.72 L2065.69 1445.72 L2065.69 1440.58 L2037.89 1440.58 L2037.89 1440.58  Z
  " fill="#009af9" fill-rule="evenodd" fill-opacity="1"/>
<polyline clip-path="url(#clip942)" style="stroke:#000000; stroke-width:4; stroke-opacity:1; fill:none" points="
  2037.89,1440.58 2037.89,1445.72 2065.69,1445.72 2065.69,1440.58 2037.89,1440.58 
  "/>
<path clip-path="url(#clip942)" d="
M2065.69 1444 L2065.69 1445.72 L2093.49 1445.72 L2093.49 1444 L2065.69 1444 L2065.69 1444  Z
  " fill="#009af9" fill-rule="evenodd" fill-opacity="1"/>
<polyline clip-path="url(#clip942)" style="stroke:#000000; stroke-width:4; stroke-opacity:1; fill:none" points="
  2065.69,1444 2065.69,1445.72 2093.49,1445.72 2093.49,1444 2065.69,1444 
  "/>
<path clip-path="url(#clip942)" d="
M2093.49 1440.58 L2093.49 1445.72 L2121.29 1445.72 L2121.29 1440.58 L2093.49 1440.58 L2093.49 1440.58  Z
  " fill="#009af9" fill-rule="evenodd" fill-opacity="1"/>
<polyline clip-path="url(#clip942)" style="stroke:#000000; stroke-width:4; stroke-opacity:1; fill:none" points="
  2093.49,1440.58 2093.49,1445.72 2121.29,1445.72 2121.29,1440.58 2093.49,1440.58 
  "/>
<path clip-path="url(#clip942)" d="
M2121.29 1444 L2121.29 1445.72 L2149.09 1445.72 L2149.09 1444 L2121.29 1444 L2121.29 1444  Z
  " fill="#009af9" fill-rule="evenodd" fill-opacity="1"/>
<polyline clip-path="url(#clip942)" style="stroke:#000000; stroke-width:4; stroke-opacity:1; fill:none" points="
  2121.29,1444 2121.29,1445.72 2149.09,1445.72 2149.09,1444 2121.29,1444 
  "/>
<path clip-path="url(#clip942)" d="
M2149.09 1442.29 L2149.09 1445.72 L2176.89 1445.72 L2176.89 1442.29 L2149.09 1442.29 L2149.09 1442.29  Z
  " fill="#009af9" fill-rule="evenodd" fill-opacity="1"/>
<polyline clip-path="url(#clip942)" style="stroke:#000000; stroke-width:4; stroke-opacity:1; fill:none" points="
  2149.09,1442.29 2149.09,1445.72 2176.89,1445.72 2176.89,1442.29 2149.09,1442.29 
  "/>
<path clip-path="url(#clip942)" d="
M2176.89 1445.72 L2176.89 1445.72 L2204.69 1445.72 L2204.69 1445.72 L2176.89 1445.72 L2176.89 1445.72  Z
  " fill="#009af9" fill-rule="evenodd" fill-opacity="1"/>
<polyline clip-path="url(#clip942)" style="stroke:#000000; stroke-width:4; stroke-opacity:1; fill:none" points="
  2176.89,1445.72 2176.89,1445.72 2204.69,1445.72 2176.89,1445.72 
  "/>
<path clip-path="url(#clip942)" d="
M2204.69 1442.29 L2204.69 1445.72 L2232.49 1445.72 L2232.49 1442.29 L2204.69 1442.29 L2204.69 1442.29  Z
  " fill="#009af9" fill-rule="evenodd" fill-opacity="1"/>
<polyline clip-path="url(#clip942)" style="stroke:#000000; stroke-width:4; stroke-opacity:1; fill:none" points="
  2204.69,1442.29 2204.69,1445.72 2232.49,1445.72 2232.49,1442.29 2204.69,1442.29 
  "/>
<path clip-path="url(#clip940)" d="
M1989.74 251.724 L2280.76 251.724 L2280.76 130.764 L1989.74 130.764  Z
  " fill="#ffffff" fill-rule="evenodd" fill-opacity="1"/>
<polyline clip-path="url(#clip940)" style="stroke:#000000; stroke-width:4; stroke-opacity:1; fill:none" points="
  1989.74,251.724 2280.76,251.724 2280.76,130.764 1989.74,130.764 1989.74,251.724 
  "/>
<path clip-path="url(#clip940)" d="
M2013.74 215.436 L2157.74 215.436 L2157.74 167.052 L2013.74 167.052 L2013.74 215.436  Z
  " fill="#009af9" fill-rule="evenodd" fill-opacity="1"/>
<polyline clip-path="url(#clip940)" style="stroke:#000000; stroke-width:4; stroke-opacity:1; fill:none" points="
  2013.74,215.436 2157.74,215.436 2157.74,167.052 2013.74,167.052 2013.74,215.436 
  "/>
<path clip-path="url(#clip940)" d="M 0 0 M2195.58 210.931 Q2193.77 215.561 2192.06 216.973 Q2190.35 218.385 2187.48 218.385 L2184.08 218.385 L2184.08 214.82 L2186.58 214.82 Q2188.33 214.82 2189.31 213.987 Q2190.28 213.154 2191.46 210.052 L2192.22 208.107 L2181.74 182.598 L2186.25 182.598 L2194.35 202.876 L2202.46 182.598 L2206.97 182.598 L2195.58 210.931 Z" fill="#000000" fill-rule="evenodd" fill-opacity="1" /><path clip-path="url(#clip940)" d="M 0 0 M2212.85 204.589 L2220.49 204.589 L2220.49 178.223 L2212.18 179.89 L2212.18 175.631 L2220.44 173.964 L2225.12 173.964 L2225.12 204.589 L2232.76 204.589 L2232.76 208.524 L2212.85 208.524 L2212.85 204.589 Z" fill="#000000" fill-rule="evenodd" fill-opacity="1" /></svg>
