<?xml version="1.0" encoding="utf-8"?>
<svg xmlns="http://www.w3.org/2000/svg" xmlns:xlink="http://www.w3.org/1999/xlink" width="600" height="400" viewBox="0 0 2400 1600">
<defs>
  <clipPath id="clip650">
    <rect x="0" y="0" width="2400" height="1600"/>
  </clipPath>
</defs>
<path clip-path="url(#clip650)" d="
M0 1600 L2400 1600 L2400 0 L0 0  Z
  " fill="#ffffff" fill-rule="evenodd" fill-opacity="1"/>
<defs>
  <clipPath id="clip651">
    <rect x="480" y="0" width="1681" height="1600"/>
  </clipPath>
</defs>
<path clip-path="url(#clip650)" d="
M166.205 1486.45 L2352.76 1486.45 L2352.76 47.2441 L166.205 47.2441  Z
  " fill="#ffffff" fill-rule="evenodd" fill-opacity="1"/>
<defs>
  <clipPath id="clip652">
    <rect x="166" y="47" width="2188" height="1440"/>
  </clipPath>
</defs>
<polyline clip-path="url(#clip652)" style="stroke:#000000; stroke-width:2; stroke-opacity:0.1; fill:none" points="
  286.469,1486.45 286.469,47.2441 
  "/>
<polyline clip-path="url(#clip652)" style="stroke:#000000; stroke-width:2; stroke-opacity:0.1; fill:none" points="
  715.739,1486.45 715.739,47.2441 
  "/>
<polyline clip-path="url(#clip652)" style="stroke:#000000; stroke-width:2; stroke-opacity:0.1; fill:none" points="
  1145.01,1486.45 1145.01,47.2441 
  "/>
<polyline clip-path="url(#clip652)" style="stroke:#000000; stroke-width:2; stroke-opacity:0.1; fill:none" points="
  1574.28,1486.45 1574.28,47.2441 
  "/>
<polyline clip-path="url(#clip652)" style="stroke:#000000; stroke-width:2; stroke-opacity:0.1; fill:none" points="
  2003.55,1486.45 2003.55,47.2441 
  "/>
<polyline clip-path="url(#clip652)" style="stroke:#000000; stroke-width:2; stroke-opacity:0.1; fill:none" points="
  166.205,1445.72 2352.76,1445.72 
  "/>
<polyline clip-path="url(#clip652)" style="stroke:#000000; stroke-width:2; stroke-opacity:0.1; fill:none" points="
  166.205,1107.13 2352.76,1107.13 
  "/>
<polyline clip-path="url(#clip652)" style="stroke:#000000; stroke-width:2; stroke-opacity:0.1; fill:none" points="
  166.205,768.539 2352.76,768.539 
  "/>
<polyline clip-path="url(#clip652)" style="stroke:#000000; stroke-width:2; stroke-opacity:0.1; fill:none" points="
  166.205,429.951 2352.76,429.951 
  "/>
<polyline clip-path="url(#clip652)" style="stroke:#000000; stroke-width:2; stroke-opacity:0.1; fill:none" points="
  166.205,91.3622 2352.76,91.3622 
  "/>
<polyline clip-path="url(#clip650)" style="stroke:#000000; stroke-width:4; stroke-opacity:1; fill:none" points="
  166.205,1486.45 2352.76,1486.45 
  "/>
<polyline clip-path="url(#clip650)" style="stroke:#000000; stroke-width:4; stroke-opacity:1; fill:none" points="
  166.205,1486.45 166.205,47.2441 
  "/>
<polyline clip-path="url(#clip650)" style="stroke:#000000; stroke-width:4; stroke-opacity:1; fill:none" points="
  286.469,1486.45 286.469,1469.18 
  "/>
<polyline clip-path="url(#clip650)" style="stroke:#000000; stroke-width:4; stroke-opacity:1; fill:none" points="
  715.739,1486.45 715.739,1469.18 
  "/>
<polyline clip-path="url(#clip650)" style="stroke:#000000; stroke-width:4; stroke-opacity:1; fill:none" points="
  1145.01,1486.45 1145.01,1469.18 
  "/>
<polyline clip-path="url(#clip650)" style="stroke:#000000; stroke-width:4; stroke-opacity:1; fill:none" points="
  1574.28,1486.45 1574.28,1469.18 
  "/>
<polyline clip-path="url(#clip650)" style="stroke:#000000; stroke-width:4; stroke-opacity:1; fill:none" points="
  2003.55,1486.45 2003.55,1469.18 
  "/>
<polyline clip-path="url(#clip650)" style="stroke:#000000; stroke-width:4; stroke-opacity:1; fill:none" points="
  166.205,1445.72 192.443,1445.72 
  "/>
<polyline clip-path="url(#clip650)" style="stroke:#000000; stroke-width:4; stroke-opacity:1; fill:none" points="
  166.205,1107.13 192.443,1107.13 
  "/>
<polyline clip-path="url(#clip650)" style="stroke:#000000; stroke-width:4; stroke-opacity:1; fill:none" points="
  166.205,768.539 192.443,768.539 
  "/>
<polyline clip-path="url(#clip650)" style="stroke:#000000; stroke-width:4; stroke-opacity:1; fill:none" points="
  166.205,429.951 192.443,429.951 
  "/>
<polyline clip-path="url(#clip650)" style="stroke:#000000; stroke-width:4; stroke-opacity:1; fill:none" points="
  166.205,91.3622 192.443,91.3622 
  "/>
<path clip-path="url(#clip650)" d="M 0 0 M266.643 1525.04 L279.119 1525.04 L279.119 1528.83 L266.643 1528.83 L266.643 1525.04 Z" fill="#000000" fill-rule="evenodd" fill-opacity="1" /><path clip-path="url(#clip650)" d="M 0 0 M294.767 1520.78 Q291.619 1520.78 289.767 1522.93 Q287.939 1525.08 287.939 1528.83 Q287.939 1532.56 289.767 1534.73 Q291.619 1536.89 294.767 1536.89 Q297.916 1536.89 299.744 1534.73 Q301.596 1532.56 301.596 1528.83 Q301.596 1525.08 299.744 1522.93 Q297.916 1520.78 294.767 1520.78 M304.05 1506.12 L304.05 1510.38 Q302.291 1509.55 300.485 1509.11 Q298.703 1508.67 296.943 1508.67 Q292.314 1508.67 289.86 1511.8 Q287.43 1514.92 287.082 1521.24 Q288.448 1519.23 290.508 1518.16 Q292.568 1517.07 295.045 1517.07 Q300.254 1517.07 303.263 1520.24 Q306.295 1523.39 306.295 1528.83 Q306.295 1534.16 303.147 1537.37 Q299.999 1540.59 294.767 1540.59 Q288.772 1540.59 285.601 1536.01 Q282.43 1531.4 282.43 1522.67 Q282.43 1514.48 286.318 1509.62 Q290.207 1504.73 296.758 1504.73 Q298.517 1504.73 300.3 1505.08 Q302.105 1505.43 304.05 1506.12 Z" fill="#000000" fill-rule="evenodd" fill-opacity="1" /><path clip-path="url(#clip650)" d="M 0 0 M696.317 1525.04 L708.794 1525.04 L708.794 1528.83 L696.317 1528.83 L696.317 1525.04 Z" fill="#000000" fill-rule="evenodd" fill-opacity="1" /><path clip-path="url(#clip650)" d="M 0 0 M728.03 1521.29 Q731.387 1522 733.262 1524.27 Q735.16 1526.54 735.16 1529.87 Q735.16 1534.99 731.641 1537.79 Q728.123 1540.59 721.641 1540.59 Q719.465 1540.59 717.151 1540.15 Q714.859 1539.73 712.405 1538.88 L712.405 1534.36 Q714.35 1535.5 716.665 1536.08 Q718.979 1536.66 721.502 1536.66 Q725.901 1536.66 728.192 1534.92 Q730.507 1533.18 730.507 1529.87 Q730.507 1526.82 728.354 1525.11 Q726.225 1523.37 722.405 1523.37 L718.377 1523.37 L718.377 1519.53 L722.59 1519.53 Q726.039 1519.53 727.868 1518.16 Q729.697 1516.77 729.697 1514.18 Q729.697 1511.52 727.799 1510.11 Q725.924 1508.67 722.405 1508.67 Q720.484 1508.67 718.285 1509.09 Q716.086 1509.5 713.447 1510.38 L713.447 1506.22 Q716.109 1505.48 718.424 1505.11 Q720.762 1504.73 722.822 1504.73 Q728.146 1504.73 731.248 1507.17 Q734.35 1509.57 734.35 1513.69 Q734.35 1516.56 732.706 1518.55 Q731.063 1520.52 728.03 1521.29 Z" fill="#000000" fill-rule="evenodd" fill-opacity="1" /><path clip-path="url(#clip650)" d="M 0 0 M1145.01 1508.44 Q1141.4 1508.44 1139.57 1512 Q1137.76 1515.55 1137.76 1522.67 Q1137.76 1529.78 1139.57 1533.35 Q1141.4 1536.89 1145.01 1536.89 Q1148.64 1536.89 1150.45 1533.35 Q1152.28 1529.78 1152.28 1522.67 Q1152.28 1515.55 1150.45 1512 Q1148.64 1508.44 1145.01 1508.44 M1145.01 1504.73 Q1150.82 1504.73 1153.87 1509.34 Q1156.95 1513.92 1156.95 1522.67 Q1156.95 1531.4 1153.87 1536.01 Q1150.82 1540.59 1145.01 1540.59 Q1139.2 1540.59 1136.12 1536.01 Q1133.06 1531.4 1133.06 1522.67 Q1133.06 1513.92 1136.12 1509.34 Q1139.2 1504.73 1145.01 1504.73 Z" fill="#000000" fill-rule="evenodd" fill-opacity="1" /><path clip-path="url(#clip650)" d="M 0 0 M1578.53 1521.29 Q1581.88 1522 1583.76 1524.27 Q1585.66 1526.54 1585.66 1529.87 Q1585.66 1534.99 1582.14 1537.79 Q1578.62 1540.59 1572.14 1540.59 Q1569.96 1540.59 1567.65 1540.15 Q1565.35 1539.73 1562.9 1538.88 L1562.9 1534.36 Q1564.85 1535.5 1567.16 1536.08 Q1569.47 1536.66 1572 1536.66 Q1576.4 1536.66 1578.69 1534.92 Q1581 1533.18 1581 1529.87 Q1581 1526.82 1578.85 1525.11 Q1576.72 1523.37 1572.9 1523.37 L1568.87 1523.37 L1568.87 1519.53 L1573.09 1519.53 Q1576.54 1519.53 1578.36 1518.16 Q1580.19 1516.77 1580.19 1514.18 Q1580.19 1511.52 1578.29 1510.11 Q1576.42 1508.67 1572.9 1508.67 Q1570.98 1508.67 1568.78 1509.09 Q1566.58 1509.5 1563.94 1510.38 L1563.94 1506.22 Q1566.6 1505.48 1568.92 1505.11 Q1571.26 1504.73 1573.32 1504.73 Q1578.64 1504.73 1581.74 1507.17 Q1584.85 1509.57 1584.85 1513.69 Q1584.85 1516.56 1583.2 1518.55 Q1581.56 1520.52 1578.53 1521.29 Z" fill="#000000" fill-rule="evenodd" fill-opacity="1" /><path clip-path="url(#clip650)" d="M 0 0 M2003.95 1520.78 Q2000.8 1520.78 1998.95 1522.93 Q1997.12 1525.08 1997.12 1528.83 Q1997.12 1532.56 1998.95 1534.73 Q2000.8 1536.89 2003.95 1536.89 Q2007.1 1536.89 2008.93 1534.73 Q2010.78 1532.56 2010.78 1528.83 Q2010.78 1525.08 2008.93 1522.93 Q2007.1 1520.78 2003.95 1520.78 M2013.24 1506.12 L2013.24 1510.38 Q2011.48 1509.55 2009.67 1509.11 Q2007.89 1508.67 2006.13 1508.67 Q2001.5 1508.67 1999.05 1511.8 Q1996.62 1514.92 1996.27 1521.24 Q1997.63 1519.23 1999.69 1518.16 Q2001.75 1517.07 2004.23 1517.07 Q2009.44 1517.07 2012.45 1520.24 Q2015.48 1523.39 2015.48 1528.83 Q2015.48 1534.16 2012.33 1537.37 Q2009.18 1540.59 2003.95 1540.59 Q1997.96 1540.59 1994.79 1536.01 Q1991.62 1531.4 1991.62 1522.67 Q1991.62 1514.48 1995.5 1509.62 Q1999.39 1504.73 2005.94 1504.73 Q2007.7 1504.73 2009.49 1505.08 Q2011.29 1505.43 2013.24 1506.12 Z" fill="#000000" fill-rule="evenodd" fill-opacity="1" /><path clip-path="url(#clip650)" d="M 0 0 M130.26 1431.51 Q126.649 1431.51 124.82 1435.08 Q123.015 1438.62 123.015 1445.75 Q123.015 1452.86 124.82 1456.42 Q126.649 1459.96 130.26 1459.96 Q133.895 1459.96 135.7 1456.42 Q137.529 1452.86 137.529 1445.75 Q137.529 1438.62 135.7 1435.08 Q133.895 1431.51 130.26 1431.51 M130.26 1427.81 Q136.07 1427.81 139.126 1432.42 Q142.205 1437 142.205 1445.75 Q142.205 1454.48 139.126 1459.08 Q136.07 1463.67 130.26 1463.67 Q124.45 1463.67 121.371 1459.08 Q118.316 1454.48 118.316 1445.75 Q118.316 1437 121.371 1432.42 Q124.45 1427.81 130.26 1427.81 Z" fill="#000000" fill-rule="evenodd" fill-opacity="1" /><path clip-path="url(#clip650)" d="M 0 0 M71.8578 1120.47 L88.1772 1120.47 L88.1772 1124.41 L66.2328 1124.41 L66.2328 1120.47 Q68.8949 1117.72 73.4782 1113.09 Q78.0846 1108.44 79.2652 1107.09 Q81.5105 1104.57 82.3902 1102.83 Q83.2929 1101.07 83.2929 1099.38 Q83.2929 1096.63 81.3485 1094.89 Q79.4272 1093.16 76.3254 1093.16 Q74.1263 1093.16 71.6726 1093.92 Q69.2421 1094.69 66.4643 1096.24 L66.4643 1091.51 Q69.2884 1090.38 71.7421 1089.8 Q74.1958 1089.22 76.2328 1089.22 Q81.6031 1089.22 84.7976 1091.91 Q87.992 1094.59 87.992 1099.08 Q87.992 1101.21 87.1818 1103.13 Q86.3948 1105.03 84.2883 1107.62 Q83.7096 1108.3 80.6078 1111.51 Q77.5059 1114.71 71.8578 1120.47 Z" fill="#000000" fill-rule="evenodd" fill-opacity="1" /><path clip-path="url(#clip650)" d="M 0 0 M103.247 1092.93 Q99.6354 1092.93 97.8068 1096.49 Q96.0012 1100.03 96.0012 1107.16 Q96.0012 1114.27 97.8068 1117.83 Q99.6354 1121.37 103.247 1121.37 Q106.881 1121.37 108.686 1117.83 Q110.515 1114.27 110.515 1107.16 Q110.515 1100.03 108.686 1096.49 Q106.881 1092.93 103.247 1092.93 M103.247 1089.22 Q109.057 1089.22 112.112 1093.83 Q115.191 1098.41 115.191 1107.16 Q115.191 1115.89 112.112 1120.5 Q109.057 1125.08 103.247 1125.08 Q97.4364 1125.08 94.3577 1120.5 Q91.3022 1115.89 91.3022 1107.16 Q91.3022 1098.41 94.3577 1093.83 Q97.4364 1089.22 103.247 1089.22 Z" fill="#000000" fill-rule="evenodd" fill-opacity="1" /><path clip-path="url(#clip650)" d="M 0 0 M130.26 1092.93 Q126.649 1092.93 124.82 1096.49 Q123.015 1100.03 123.015 1107.16 Q123.015 1114.27 124.82 1117.83 Q126.649 1121.37 130.26 1121.37 Q133.895 1121.37 135.7 1117.83 Q137.529 1114.27 137.529 1107.16 Q137.529 1100.03 135.7 1096.49 Q133.895 1092.93 130.26 1092.93 M130.26 1089.22 Q136.07 1089.22 139.126 1093.83 Q142.205 1098.41 142.205 1107.16 Q142.205 1115.89 139.126 1120.5 Q136.07 1125.08 130.26 1125.08 Q124.45 1125.08 121.371 1120.5 Q118.316 1115.89 118.316 1107.16 Q118.316 1098.41 121.371 1093.83 Q124.45 1089.22 130.26 1089.22 Z" fill="#000000" fill-rule="evenodd" fill-opacity="1" /><path clip-path="url(#clip650)" d="M 0 0 M78.5939 755.333 L66.7884 773.782 L78.5939 773.782 L78.5939 755.333 M77.367 751.259 L83.2466 751.259 L83.2466 773.782 L88.1772 773.782 L88.1772 777.671 L83.2466 777.671 L83.2466 785.819 L78.5939 785.819 L78.5939 777.671 L62.9921 777.671 L62.9921 773.157 L77.367 751.259 Z" fill="#000000" fill-rule="evenodd" fill-opacity="1" /><path clip-path="url(#clip650)" d="M 0 0 M103.247 754.338 Q99.6354 754.338 97.8068 757.902 Q96.0012 761.444 96.0012 768.574 Q96.0012 775.68 97.8068 779.245 Q99.6354 782.787 103.247 782.787 Q106.881 782.787 108.686 779.245 Q110.515 775.68 110.515 768.574 Q110.515 761.444 108.686 757.902 Q106.881 754.338 103.247 754.338 M103.247 750.634 Q109.057 750.634 112.112 755.24 Q115.191 759.824 115.191 768.574 Q115.191 777.3 112.112 781.907 Q109.057 786.49 103.247 786.49 Q97.4364 786.49 94.3577 781.907 Q91.3022 777.3 91.3022 768.574 Q91.3022 759.824 94.3577 755.24 Q97.4364 750.634 103.247 750.634 Z" fill="#000000" fill-rule="evenodd" fill-opacity="1" /><path clip-path="url(#clip650)" d="M 0 0 M130.26 754.338 Q126.649 754.338 124.82 757.902 Q123.015 761.444 123.015 768.574 Q123.015 775.68 124.82 779.245 Q126.649 782.787 130.26 782.787 Q133.895 782.787 135.7 779.245 Q137.529 775.68 137.529 768.574 Q137.529 761.444 135.7 757.902 Q133.895 754.338 130.26 754.338 M130.26 750.634 Q136.07 750.634 139.126 755.24 Q142.205 759.824 142.205 768.574 Q142.205 777.3 139.126 781.907 Q136.07 786.49 130.26 786.49 Q124.45 786.49 121.371 781.907 Q118.316 777.3 118.316 768.574 Q118.316 759.824 121.371 755.24 Q124.45 750.634 130.26 750.634 Z" fill="#000000" fill-rule="evenodd" fill-opacity="1" /><path clip-path="url(#clip650)" d="M 0 0 M76.6495 428.087 Q73.5013 428.087 71.6495 430.24 Q69.8208 432.393 69.8208 436.143 Q69.8208 439.869 71.6495 442.045 Q73.5013 444.198 76.6495 444.198 Q79.7976 444.198 81.6263 442.045 Q83.4781 439.869 83.4781 436.143 Q83.4781 432.393 81.6263 430.24 Q79.7976 428.087 76.6495 428.087 M85.9318 413.434 L85.9318 417.694 Q84.1726 416.86 82.367 416.421 Q80.5846 415.981 78.8254 415.981 Q74.1958 415.981 71.7421 419.106 Q69.3115 422.231 68.9643 428.55 Q70.33 426.536 72.3902 425.471 Q74.4504 424.383 76.9272 424.383 Q82.1355 424.383 85.1448 427.555 Q88.1772 430.703 88.1772 436.143 Q88.1772 441.467 85.029 444.684 Q81.8809 447.902 76.6495 447.902 Q70.6541 447.902 67.4828 443.319 Q64.3116 438.712 64.3116 429.985 Q64.3116 421.791 68.2004 416.93 Q72.0893 412.046 78.6402 412.046 Q80.3994 412.046 82.1818 412.393 Q83.9874 412.74 85.9318 413.434 Z" fill="#000000" fill-rule="evenodd" fill-opacity="1" /><path clip-path="url(#clip650)" d="M 0 0 M103.247 415.749 Q99.6354 415.749 97.8068 419.314 Q96.0012 422.856 96.0012 429.985 Q96.0012 437.092 97.8068 440.657 Q99.6354 444.198 103.247 444.198 Q106.881 444.198 108.686 440.657 Q110.515 437.092 110.515 429.985 Q110.515 422.856 108.686 419.314 Q106.881 415.749 103.247 415.749 M103.247 412.046 Q109.057 412.046 112.112 416.652 Q115.191 421.235 115.191 429.985 Q115.191 438.712 112.112 443.319 Q109.057 447.902 103.247 447.902 Q97.4364 447.902 94.3577 443.319 Q91.3022 438.712 91.3022 429.985 Q91.3022 421.235 94.3577 416.652 Q97.4364 412.046 103.247 412.046 Z" fill="#000000" fill-rule="evenodd" fill-opacity="1" /><path clip-path="url(#clip650)" d="M 0 0 M130.26 415.749 Q126.649 415.749 124.82 419.314 Q123.015 422.856 123.015 429.985 Q123.015 437.092 124.82 440.657 Q126.649 444.198 130.26 444.198 Q133.895 444.198 135.7 440.657 Q137.529 437.092 137.529 429.985 Q137.529 422.856 135.7 419.314 Q133.895 415.749 130.26 415.749 M130.26 412.046 Q136.07 412.046 139.126 416.652 Q142.205 421.235 142.205 429.985 Q142.205 438.712 139.126 443.319 Q136.07 447.902 130.26 447.902 Q124.45 447.902 121.371 443.319 Q118.316 438.712 118.316 429.985 Q118.316 421.235 121.371 416.652 Q124.45 412.046 130.26 412.046 Z" fill="#000000" fill-rule="evenodd" fill-opacity="1" /><path clip-path="url(#clip650)" d="M 0 0 M76.3254 92.2302 Q72.9921 92.2302 71.0708 94.0126 Q69.1726 95.795 69.1726 98.92 Q69.1726 102.045 71.0708 103.827 Q72.9921 105.61 76.3254 105.61 Q79.6587 105.61 81.58 103.827 Q83.5013 102.022 83.5013 98.92 Q83.5013 95.795 81.58 94.0126 Q79.6819 92.2302 76.3254 92.2302 M71.6495 90.2395 Q68.6402 89.4987 66.9504 87.4386 Q65.2838 85.3784 65.2838 82.4154 Q65.2838 78.272 68.2236 75.8646 Q71.1865 73.4572 76.3254 73.4572 Q81.4874 73.4572 84.4272 75.8646 Q87.367 78.272 87.367 82.4154 Q87.367 85.3784 85.6772 87.4386 Q84.0105 89.4987 81.0244 90.2395 Q84.404 91.0265 86.279 93.3182 Q88.1772 95.6098 88.1772 98.92 Q88.1772 103.943 85.0985 106.628 Q82.0429 109.313 76.3254 109.313 Q70.6078 109.313 67.5291 106.628 Q64.4736 103.943 64.4736 98.92 Q64.4736 95.6098 66.3717 93.3182 Q68.2699 91.0265 71.6495 90.2395 M69.9365 82.8553 Q69.9365 85.5404 71.6032 87.0451 Q73.293 88.5497 76.3254 88.5497 Q79.3346 88.5497 81.0244 87.0451 Q82.7374 85.5404 82.7374 82.8553 Q82.7374 80.1701 81.0244 78.6655 Q79.3346 77.1608 76.3254 77.1608 Q73.293 77.1608 71.6032 78.6655 Q69.9365 80.1701 69.9365 82.8553 Z" fill="#000000" fill-rule="evenodd" fill-opacity="1" /><path clip-path="url(#clip650)" d="M 0 0 M103.247 77.1608 Q99.6354 77.1608 97.8068 80.7256 Q96.0012 84.2673 96.0012 91.3969 Q96.0012 98.5033 97.8068 102.068 Q99.6354 105.61 103.247 105.61 Q106.881 105.61 108.686 102.068 Q110.515 98.5033 110.515 91.3969 Q110.515 84.2673 108.686 80.7256 Q106.881 77.1608 103.247 77.1608 M103.247 73.4572 Q109.057 73.4572 112.112 78.0636 Q115.191 82.6469 115.191 91.3969 Q115.191 100.124 112.112 104.73 Q109.057 109.313 103.247 109.313 Q97.4364 109.313 94.3577 104.73 Q91.3022 100.124 91.3022 91.3969 Q91.3022 82.6469 94.3577 78.0636 Q97.4364 73.4572 103.247 73.4572 Z" fill="#000000" fill-rule="evenodd" fill-opacity="1" /><path clip-path="url(#clip650)" d="M 0 0 M130.26 77.1608 Q126.649 77.1608 124.82 80.7256 Q123.015 84.2673 123.015 91.3969 Q123.015 98.5033 124.82 102.068 Q126.649 105.61 130.26 105.61 Q133.895 105.61 135.7 102.068 Q137.529 98.5033 137.529 91.3969 Q137.529 84.2673 135.7 80.7256 Q133.895 77.1608 130.26 77.1608 M130.26 73.4572 Q136.07 73.4572 139.126 78.0636 Q142.205 82.6469 142.205 91.3969 Q142.205 100.124 139.126 104.73 Q136.07 109.313 130.26 109.313 Q124.45 109.313 121.371 104.73 Q118.316 100.124 118.316 91.3969 Q118.316 82.6469 121.371 78.0636 Q124.45 73.4572 130.26 73.4572 Z" fill="#000000" fill-rule="evenodd" fill-opacity="1" /><path clip-path="url(#clip652)" d="
M286.469 1444.02 L286.469 1445.72 L315.087 1445.72 L315.087 1444.02 L286.469 1444.02 L286.469 1444.02  Z
  " fill="#009af9" fill-rule="evenodd" fill-opacity="1"/>
<polyline clip-path="url(#clip652)" style="stroke:#000000; stroke-width:4; stroke-opacity:1; fill:none" points="
  286.469,1444.02 286.469,1445.72 315.087,1445.72 315.087,1444.02 286.469,1444.02 
  "/>
<path clip-path="url(#clip652)" d="
M315.087 1444.02 L315.087 1445.72 L343.705 1445.72 L343.705 1444.02 L315.087 1444.02 L315.087 1444.02  Z
  " fill="#009af9" fill-rule="evenodd" fill-opacity="1"/>
<polyline clip-path="url(#clip652)" style="stroke:#000000; stroke-width:4; stroke-opacity:1; fill:none" points="
  315.087,1444.02 315.087,1445.72 343.705,1445.72 343.705,1444.02 315.087,1444.02 
  "/>
<path clip-path="url(#clip652)" d="
M343.705 1437.25 L343.705 1445.72 L372.323 1445.72 L372.323 1437.25 L343.705 1437.25 L343.705 1437.25  Z
  " fill="#009af9" fill-rule="evenodd" fill-opacity="1"/>
<polyline clip-path="url(#clip652)" style="stroke:#000000; stroke-width:4; stroke-opacity:1; fill:none" points="
  343.705,1437.25 343.705,1445.72 372.323,1445.72 372.323,1437.25 343.705,1437.25 
  "/>
<path clip-path="url(#clip652)" d="
M372.323 1438.94 L372.323 1445.72 L400.941 1445.72 L400.941 1438.94 L372.323 1438.94 L372.323 1438.94  Z
  " fill="#009af9" fill-rule="evenodd" fill-opacity="1"/>
<polyline clip-path="url(#clip652)" style="stroke:#000000; stroke-width:4; stroke-opacity:1; fill:none" points="
  372.323,1438.94 372.323,1445.72 400.941,1445.72 400.941,1438.94 372.323,1438.94 
  "/>
<path clip-path="url(#clip652)" d="
M400.941 1440.64 L400.941 1445.72 L429.559 1445.72 L429.559 1440.64 L400.941 1440.64 L400.941 1440.64  Z
  " fill="#009af9" fill-rule="evenodd" fill-opacity="1"/>
<polyline clip-path="url(#clip652)" style="stroke:#000000; stroke-width:4; stroke-opacity:1; fill:none" points="
  400.941,1440.64 400.941,1445.72 429.559,1445.72 429.559,1440.64 400.941,1440.64 
  "/>
<path clip-path="url(#clip652)" d="
M429.559 1442.33 L429.559 1445.72 L458.177 1445.72 L458.177 1442.33 L429.559 1442.33 L429.559 1442.33  Z
  " fill="#009af9" fill-rule="evenodd" fill-opacity="1"/>
<polyline clip-path="url(#clip652)" style="stroke:#000000; stroke-width:4; stroke-opacity:1; fill:none" points="
  429.559,1442.33 429.559,1445.72 458.177,1445.72 458.177,1442.33 429.559,1442.33 
  "/>
<path clip-path="url(#clip652)" d="
M458.177 1437.25 L458.177 1445.72 L486.795 1445.72 L486.795 1437.25 L458.177 1437.25 L458.177 1437.25  Z
  " fill="#009af9" fill-rule="evenodd" fill-opacity="1"/>
<polyline clip-path="url(#clip652)" style="stroke:#000000; stroke-width:4; stroke-opacity:1; fill:none" points="
  458.177,1437.25 458.177,1445.72 486.795,1445.72 486.795,1437.25 458.177,1437.25 
  "/>
<path clip-path="url(#clip652)" d="
M486.795 1437.25 L486.795 1445.72 L515.413 1445.72 L515.413 1437.25 L486.795 1437.25 L486.795 1437.25  Z
  " fill="#009af9" fill-rule="evenodd" fill-opacity="1"/>
<polyline clip-path="url(#clip652)" style="stroke:#000000; stroke-width:4; stroke-opacity:1; fill:none" points="
  486.795,1437.25 486.795,1445.72 515.413,1445.72 515.413,1437.25 486.795,1437.25 
  "/>
<path clip-path="url(#clip652)" d="
M515.413 1422.01 L515.413 1445.72 L544.031 1445.72 L544.031 1422.01 L515.413 1422.01 L515.413 1422.01  Z
  " fill="#009af9" fill-rule="evenodd" fill-opacity="1"/>
<polyline clip-path="url(#clip652)" style="stroke:#000000; stroke-width:4; stroke-opacity:1; fill:none" points="
  515.413,1422.01 515.413,1445.72 544.031,1445.72 544.031,1422.01 515.413,1422.01 
  "/>
<path clip-path="url(#clip652)" d="
M544.031 1427.09 L544.031 1445.72 L572.649 1445.72 L572.649 1427.09 L544.031 1427.09 L544.031 1427.09  Z
  " fill="#009af9" fill-rule="evenodd" fill-opacity="1"/>
<polyline clip-path="url(#clip652)" style="stroke:#000000; stroke-width:4; stroke-opacity:1; fill:none" points="
  544.031,1427.09 544.031,1445.72 572.649,1445.72 572.649,1427.09 544.031,1427.09 
  "/>
<path clip-path="url(#clip652)" d="
M572.649 1411.86 L572.649 1445.72 L601.267 1445.72 L601.267 1411.86 L572.649 1411.86 L572.649 1411.86  Z
  " fill="#009af9" fill-rule="evenodd" fill-opacity="1"/>
<polyline clip-path="url(#clip652)" style="stroke:#000000; stroke-width:4; stroke-opacity:1; fill:none" points="
  572.649,1411.86 572.649,1445.72 601.267,1445.72 601.267,1411.86 572.649,1411.86 
  "/>
<path clip-path="url(#clip652)" d="
M601.267 1418.63 L601.267 1445.72 L629.885 1445.72 L629.885 1418.63 L601.267 1418.63 L601.267 1418.63  Z
  " fill="#009af9" fill-rule="evenodd" fill-opacity="1"/>
<polyline clip-path="url(#clip652)" style="stroke:#000000; stroke-width:4; stroke-opacity:1; fill:none" points="
  601.267,1418.63 601.267,1445.72 629.885,1445.72 629.885,1418.63 601.267,1418.63 
  "/>
<path clip-path="url(#clip652)" d="
M629.885 1408.47 L629.885 1445.72 L658.503 1445.72 L658.503 1408.47 L629.885 1408.47 L629.885 1408.47  Z
  " fill="#009af9" fill-rule="evenodd" fill-opacity="1"/>
<polyline clip-path="url(#clip652)" style="stroke:#000000; stroke-width:4; stroke-opacity:1; fill:none" points="
  629.885,1408.47 629.885,1445.72 658.503,1445.72 658.503,1408.47 629.885,1408.47 
  "/>
<path clip-path="url(#clip652)" d="
M658.503 1381.38 L658.503 1445.72 L687.121 1445.72 L687.121 1381.38 L658.503 1381.38 L658.503 1381.38  Z
  " fill="#009af9" fill-rule="evenodd" fill-opacity="1"/>
<polyline clip-path="url(#clip652)" style="stroke:#000000; stroke-width:4; stroke-opacity:1; fill:none" points="
  658.503,1381.38 658.503,1445.72 687.121,1445.72 687.121,1381.38 658.503,1381.38 
  "/>
<path clip-path="url(#clip652)" d="
M687.121 1401.7 L687.121 1445.72 L715.739 1445.72 L715.739 1401.7 L687.121 1401.7 L687.121 1401.7  Z
  " fill="#009af9" fill-rule="evenodd" fill-opacity="1"/>
<polyline clip-path="url(#clip652)" style="stroke:#000000; stroke-width:4; stroke-opacity:1; fill:none" points="
  687.121,1401.7 687.121,1445.72 715.739,1445.72 715.739,1401.7 687.121,1401.7 
  "/>
<path clip-path="url(#clip652)" d="
M715.739 1357.68 L715.739 1445.72 L744.357 1445.72 L744.357 1357.68 L715.739 1357.68 L715.739 1357.68  Z
  " fill="#009af9" fill-rule="evenodd" fill-opacity="1"/>
<polyline clip-path="url(#clip652)" style="stroke:#000000; stroke-width:4; stroke-opacity:1; fill:none" points="
  715.739,1357.68 715.739,1445.72 744.357,1445.72 744.357,1357.68 715.739,1357.68 
  "/>
<path clip-path="url(#clip652)" d="
M744.357 1366.15 L744.357 1445.72 L772.975 1445.72 L772.975 1366.15 L744.357 1366.15 L744.357 1366.15  Z
  " fill="#009af9" fill-rule="evenodd" fill-opacity="1"/>
<polyline clip-path="url(#clip652)" style="stroke:#000000; stroke-width:4; stroke-opacity:1; fill:none" points="
  744.357,1366.15 744.357,1445.72 772.975,1445.72 772.975,1366.15 744.357,1366.15 
  "/>
<path clip-path="url(#clip652)" d="
M772.975 1371.23 L772.975 1445.72 L801.593 1445.72 L801.593 1371.23 L772.975 1371.23 L772.975 1371.23  Z
  " fill="#009af9" fill-rule="evenodd" fill-opacity="1"/>
<polyline clip-path="url(#clip652)" style="stroke:#000000; stroke-width:4; stroke-opacity:1; fill:none" points="
  772.975,1371.23 772.975,1445.72 801.593,1445.72 801.593,1371.23 772.975,1371.23 
  "/>
<path clip-path="url(#clip652)" d="
M801.593 1342.45 L801.593 1445.72 L830.211 1445.72 L830.211 1342.45 L801.593 1342.45 L801.593 1342.45  Z
  " fill="#009af9" fill-rule="evenodd" fill-opacity="1"/>
<polyline clip-path="url(#clip652)" style="stroke:#000000; stroke-width:4; stroke-opacity:1; fill:none" points="
  801.593,1342.45 801.593,1445.72 830.211,1445.72 830.211,1342.45 801.593,1342.45 
  "/>
<path clip-path="url(#clip652)" d="
M830.211 1308.59 L830.211 1445.72 L858.829 1445.72 L858.829 1308.59 L830.211 1308.59 L830.211 1308.59  Z
  " fill="#009af9" fill-rule="evenodd" fill-opacity="1"/>
<polyline clip-path="url(#clip652)" style="stroke:#000000; stroke-width:4; stroke-opacity:1; fill:none" points="
  830.211,1308.59 830.211,1445.72 858.829,1445.72 858.829,1308.59 830.211,1308.59 
  "/>
<path clip-path="url(#clip652)" d="
M858.829 1313.67 L858.829 1445.72 L887.447 1445.72 L887.447 1313.67 L858.829 1313.67 L858.829 1313.67  Z
  " fill="#009af9" fill-rule="evenodd" fill-opacity="1"/>
<polyline clip-path="url(#clip652)" style="stroke:#000000; stroke-width:4; stroke-opacity:1; fill:none" points="
  858.829,1313.67 858.829,1445.72 887.447,1445.72 887.447,1313.67 858.829,1313.67 
  "/>
<path clip-path="url(#clip652)" d="
M887.447 1300.12 L887.447 1445.72 L916.064 1445.72 L916.064 1300.12 L887.447 1300.12 L887.447 1300.12  Z
  " fill="#009af9" fill-rule="evenodd" fill-opacity="1"/>
<polyline clip-path="url(#clip652)" style="stroke:#000000; stroke-width:4; stroke-opacity:1; fill:none" points="
  887.447,1300.12 887.447,1445.72 916.064,1445.72 916.064,1300.12 887.447,1300.12 
  "/>
<path clip-path="url(#clip652)" d="
M916.064 1293.35 L916.064 1445.72 L944.682 1445.72 L944.682 1293.35 L916.064 1293.35 L916.064 1293.35  Z
  " fill="#009af9" fill-rule="evenodd" fill-opacity="1"/>
<polyline clip-path="url(#clip652)" style="stroke:#000000; stroke-width:4; stroke-opacity:1; fill:none" points="
  916.064,1293.35 916.064,1445.72 944.682,1445.72 944.682,1293.35 916.064,1293.35 
  "/>
<path clip-path="url(#clip652)" d="
M944.682 1301.82 L944.682 1445.72 L973.3 1445.72 L973.3 1301.82 L944.682 1301.82 L944.682 1301.82  Z
  " fill="#009af9" fill-rule="evenodd" fill-opacity="1"/>
<polyline clip-path="url(#clip652)" style="stroke:#000000; stroke-width:4; stroke-opacity:1; fill:none" points="
  944.682,1301.82 944.682,1445.72 973.3,1445.72 973.3,1301.82 944.682,1301.82 
  "/>
<path clip-path="url(#clip652)" d="
M973.3 1269.65 L973.3 1445.72 L1001.92 1445.72 L1001.92 1269.65 L973.3 1269.65 L973.3 1269.65  Z
  " fill="#009af9" fill-rule="evenodd" fill-opacity="1"/>
<polyline clip-path="url(#clip652)" style="stroke:#000000; stroke-width:4; stroke-opacity:1; fill:none" points="
  973.3,1269.65 973.3,1445.72 1001.92,1445.72 1001.92,1269.65 973.3,1269.65 
  "/>
<path clip-path="url(#clip652)" d="
M1001.92 1266.26 L1001.92 1445.72 L1030.54 1445.72 L1030.54 1266.26 L1001.92 1266.26 L1001.92 1266.26  Z
  " fill="#009af9" fill-rule="evenodd" fill-opacity="1"/>
<polyline clip-path="url(#clip652)" style="stroke:#000000; stroke-width:4; stroke-opacity:1; fill:none" points="
  1001.92,1266.26 1001.92,1445.72 1030.54,1445.72 1030.54,1266.26 1001.92,1266.26 
  "/>
<path clip-path="url(#clip652)" d="
M1030.54 1242.56 L1030.54 1445.72 L1059.15 1445.72 L1059.15 1242.56 L1030.54 1242.56 L1030.54 1242.56  Z
  " fill="#009af9" fill-rule="evenodd" fill-opacity="1"/>
<polyline clip-path="url(#clip652)" style="stroke:#000000; stroke-width:4; stroke-opacity:1; fill:none" points="
  1030.54,1242.56 1030.54,1445.72 1059.15,1445.72 1059.15,1242.56 1030.54,1242.56 
  "/>
<path clip-path="url(#clip652)" d="
M1059.15 1251.03 L1059.15 1445.72 L1087.77 1445.72 L1087.77 1251.03 L1059.15 1251.03 L1059.15 1251.03  Z
  " fill="#009af9" fill-rule="evenodd" fill-opacity="1"/>
<polyline clip-path="url(#clip652)" style="stroke:#000000; stroke-width:4; stroke-opacity:1; fill:none" points="
  1059.15,1251.03 1059.15,1445.72 1087.77,1445.72 1087.77,1251.03 1059.15,1251.03 
  "/>
<path clip-path="url(#clip652)" d="
M1087.77 1261.19 L1087.77 1445.72 L1116.39 1445.72 L1116.39 1261.19 L1087.77 1261.19 L1087.77 1261.19  Z
  " fill="#009af9" fill-rule="evenodd" fill-opacity="1"/>
<polyline clip-path="url(#clip652)" style="stroke:#000000; stroke-width:4; stroke-opacity:1; fill:none" points="
  1087.77,1261.19 1087.77,1445.72 1116.39,1445.72 1116.39,1261.19 1087.77,1261.19 
  "/>
<path clip-path="url(#clip652)" d="
M1116.39 1254.41 L1116.39 1445.72 L1145.01 1445.72 L1145.01 1254.41 L1116.39 1254.41 L1116.39 1254.41  Z
  " fill="#009af9" fill-rule="evenodd" fill-opacity="1"/>
<polyline clip-path="url(#clip652)" style="stroke:#000000; stroke-width:4; stroke-opacity:1; fill:none" points="
  1116.39,1254.41 1116.39,1445.72 1145.01,1445.72 1145.01,1254.41 1116.39,1254.41 
  "/>
<path clip-path="url(#clip652)" d="
M1145.01 1262.88 L1145.01 1445.72 L1173.63 1445.72 L1173.63 1262.88 L1145.01 1262.88 L1145.01 1262.88  Z
  " fill="#009af9" fill-rule="evenodd" fill-opacity="1"/>
<polyline clip-path="url(#clip652)" style="stroke:#000000; stroke-width:4; stroke-opacity:1; fill:none" points="
  1145.01,1262.88 1145.01,1445.72 1173.63,1445.72 1173.63,1262.88 1145.01,1262.88 
  "/>
<path clip-path="url(#clip652)" d="
M1173.63 1267.96 L1173.63 1445.72 L1202.24 1445.72 L1202.24 1267.96 L1173.63 1267.96 L1173.63 1267.96  Z
  " fill="#009af9" fill-rule="evenodd" fill-opacity="1"/>
<polyline clip-path="url(#clip652)" style="stroke:#000000; stroke-width:4; stroke-opacity:1; fill:none" points="
  1173.63,1267.96 1173.63,1445.72 1202.24,1445.72 1202.24,1267.96 1173.63,1267.96 
  "/>
<path clip-path="url(#clip652)" d="
M1202.24 1164.69 L1202.24 1445.72 L1230.86 1445.72 L1230.86 1164.69 L1202.24 1164.69 L1202.24 1164.69  Z
  " fill="#009af9" fill-rule="evenodd" fill-opacity="1"/>
<polyline clip-path="url(#clip652)" style="stroke:#000000; stroke-width:4; stroke-opacity:1; fill:none" points="
  1202.24,1164.69 1202.24,1445.72 1230.86,1445.72 1230.86,1164.69 1202.24,1164.69 
  "/>
<path clip-path="url(#clip652)" d="
M1230.86 777.004 L1230.86 1445.72 L1259.48 1445.72 L1259.48 777.004 L1230.86 777.004 L1230.86 777.004  Z
  " fill="#009af9" fill-rule="evenodd" fill-opacity="1"/>
<polyline clip-path="url(#clip652)" style="stroke:#000000; stroke-width:4; stroke-opacity:1; fill:none" points="
  1230.86,777.004 1230.86,1445.72 1259.48,1445.72 1259.48,777.004 1230.86,777.004 
  "/>
<path clip-path="url(#clip652)" d="
M1259.48 87.9763 L1259.48 1445.72 L1288.1 1445.72 L1288.1 87.9763 L1259.48 87.9763 L1259.48 87.9763  Z
  " fill="#009af9" fill-rule="evenodd" fill-opacity="1"/>
<polyline clip-path="url(#clip652)" style="stroke:#000000; stroke-width:4; stroke-opacity:1; fill:none" points="
  1259.48,87.9763 1259.48,1445.72 1288.1,1445.72 1288.1,87.9763 1259.48,87.9763 
  "/>
<path clip-path="url(#clip652)" d="
M1288.1 101.52 L1288.1 1445.72 L1316.72 1445.72 L1316.72 101.52 L1288.1 101.52 L1288.1 101.52  Z
  " fill="#009af9" fill-rule="evenodd" fill-opacity="1"/>
<polyline clip-path="url(#clip652)" style="stroke:#000000; stroke-width:4; stroke-opacity:1; fill:none" points="
  1288.1,101.52 1288.1,1445.72 1316.72,1445.72 1316.72,101.52 1288.1,101.52 
  "/>
<path clip-path="url(#clip652)" d="
M1316.72 848.107 L1316.72 1445.72 L1345.33 1445.72 L1345.33 848.107 L1316.72 848.107 L1316.72 848.107  Z
  " fill="#009af9" fill-rule="evenodd" fill-opacity="1"/>
<polyline clip-path="url(#clip652)" style="stroke:#000000; stroke-width:4; stroke-opacity:1; fill:none" points="
  1316.72,848.107 1316.72,1445.72 1345.33,1445.72 1345.33,848.107 1316.72,848.107 
  "/>
<path clip-path="url(#clip652)" d="
M1345.33 1188.39 L1345.33 1445.72 L1373.95 1445.72 L1373.95 1188.39 L1345.33 1188.39 L1345.33 1188.39  Z
  " fill="#009af9" fill-rule="evenodd" fill-opacity="1"/>
<polyline clip-path="url(#clip652)" style="stroke:#000000; stroke-width:4; stroke-opacity:1; fill:none" points="
  1345.33,1188.39 1345.33,1445.72 1373.95,1445.72 1373.95,1188.39 1345.33,1188.39 
  "/>
<path clip-path="url(#clip652)" d="
M1373.95 1295.04 L1373.95 1445.72 L1402.57 1445.72 L1402.57 1295.04 L1373.95 1295.04 L1373.95 1295.04  Z
  " fill="#009af9" fill-rule="evenodd" fill-opacity="1"/>
<polyline clip-path="url(#clip652)" style="stroke:#000000; stroke-width:4; stroke-opacity:1; fill:none" points="
  1373.95,1295.04 1373.95,1445.72 1402.57,1445.72 1402.57,1295.04 1373.95,1295.04 
  "/>
<path clip-path="url(#clip652)" d="
M1402.57 1311.97 L1402.57 1445.72 L1431.19 1445.72 L1431.19 1311.97 L1402.57 1311.97 L1402.57 1311.97  Z
  " fill="#009af9" fill-rule="evenodd" fill-opacity="1"/>
<polyline clip-path="url(#clip652)" style="stroke:#000000; stroke-width:4; stroke-opacity:1; fill:none" points="
  1402.57,1311.97 1402.57,1445.72 1431.19,1445.72 1431.19,1311.97 1402.57,1311.97 
  "/>
<path clip-path="url(#clip652)" d="
M1431.19 1333.98 L1431.19 1445.72 L1459.81 1445.72 L1459.81 1333.98 L1431.19 1333.98 L1431.19 1333.98  Z
  " fill="#009af9" fill-rule="evenodd" fill-opacity="1"/>
<polyline clip-path="url(#clip652)" style="stroke:#000000; stroke-width:4; stroke-opacity:1; fill:none" points="
  1431.19,1333.98 1431.19,1445.72 1459.81,1445.72 1459.81,1333.98 1431.19,1333.98 
  "/>
<path clip-path="url(#clip652)" d="
M1459.81 1325.52 L1459.81 1445.72 L1488.42 1445.72 L1488.42 1325.52 L1459.81 1325.52 L1459.81 1325.52  Z
  " fill="#009af9" fill-rule="evenodd" fill-opacity="1"/>
<polyline clip-path="url(#clip652)" style="stroke:#000000; stroke-width:4; stroke-opacity:1; fill:none" points="
  1459.81,1325.52 1459.81,1445.72 1488.42,1445.72 1488.42,1325.52 1459.81,1325.52 
  "/>
<path clip-path="url(#clip652)" d="
M1488.42 1349.22 L1488.42 1445.72 L1517.04 1445.72 L1517.04 1349.22 L1488.42 1349.22 L1488.42 1349.22  Z
  " fill="#009af9" fill-rule="evenodd" fill-opacity="1"/>
<polyline clip-path="url(#clip652)" style="stroke:#000000; stroke-width:4; stroke-opacity:1; fill:none" points="
  1488.42,1349.22 1488.42,1445.72 1517.04,1445.72 1517.04,1349.22 1488.42,1349.22 
  "/>
<path clip-path="url(#clip652)" d="
M1517.04 1359.38 L1517.04 1445.72 L1545.66 1445.72 L1545.66 1359.38 L1517.04 1359.38 L1517.04 1359.38  Z
  " fill="#009af9" fill-rule="evenodd" fill-opacity="1"/>
<polyline clip-path="url(#clip652)" style="stroke:#000000; stroke-width:4; stroke-opacity:1; fill:none" points="
  1517.04,1359.38 1517.04,1445.72 1545.66,1445.72 1545.66,1359.38 1517.04,1359.38 
  "/>
<path clip-path="url(#clip652)" d="
M1545.66 1376.31 L1545.66 1445.72 L1574.28 1445.72 L1574.28 1376.31 L1545.66 1376.31 L1545.66 1376.31  Z
  " fill="#009af9" fill-rule="evenodd" fill-opacity="1"/>
<polyline clip-path="url(#clip652)" style="stroke:#000000; stroke-width:4; stroke-opacity:1; fill:none" points="
  1545.66,1376.31 1545.66,1445.72 1574.28,1445.72 1574.28,1376.31 1545.66,1376.31 
  "/>
<path clip-path="url(#clip652)" d="
M1574.28 1366.15 L1574.28 1445.72 L1602.9 1445.72 L1602.9 1366.15 L1574.28 1366.15 L1574.28 1366.15  Z
  " fill="#009af9" fill-rule="evenodd" fill-opacity="1"/>
<polyline clip-path="url(#clip652)" style="stroke:#000000; stroke-width:4; stroke-opacity:1; fill:none" points="
  1574.28,1366.15 1574.28,1445.72 1602.9,1445.72 1602.9,1366.15 1574.28,1366.15 
  "/>
<path clip-path="url(#clip652)" d="
M1602.9 1383.08 L1602.9 1445.72 L1631.51 1445.72 L1631.51 1383.08 L1602.9 1383.08 L1602.9 1383.08  Z
  " fill="#009af9" fill-rule="evenodd" fill-opacity="1"/>
<polyline clip-path="url(#clip652)" style="stroke:#000000; stroke-width:4; stroke-opacity:1; fill:none" points="
  1602.9,1383.08 1602.9,1445.72 1631.51,1445.72 1631.51,1383.08 1602.9,1383.08 
  "/>
<path clip-path="url(#clip652)" d="
M1631.51 1408.47 L1631.51 1445.72 L1660.13 1445.72 L1660.13 1408.47 L1631.51 1408.47 L1631.51 1408.47  Z
  " fill="#009af9" fill-rule="evenodd" fill-opacity="1"/>
<polyline clip-path="url(#clip652)" style="stroke:#000000; stroke-width:4; stroke-opacity:1; fill:none" points="
  1631.51,1408.47 1631.51,1445.72 1660.13,1445.72 1660.13,1408.47 1631.51,1408.47 
  "/>
<path clip-path="url(#clip652)" d="
M1660.13 1411.86 L1660.13 1445.72 L1688.75 1445.72 L1688.75 1411.86 L1660.13 1411.86 L1660.13 1411.86  Z
  " fill="#009af9" fill-rule="evenodd" fill-opacity="1"/>
<polyline clip-path="url(#clip652)" style="stroke:#000000; stroke-width:4; stroke-opacity:1; fill:none" points="
  1660.13,1411.86 1660.13,1445.72 1688.75,1445.72 1688.75,1411.86 1660.13,1411.86 
  "/>
<path clip-path="url(#clip652)" d="
M1688.75 1425.4 L1688.75 1445.72 L1717.37 1445.72 L1717.37 1425.4 L1688.75 1425.4 L1688.75 1425.4  Z
  " fill="#009af9" fill-rule="evenodd" fill-opacity="1"/>
<polyline clip-path="url(#clip652)" style="stroke:#000000; stroke-width:4; stroke-opacity:1; fill:none" points="
  1688.75,1425.4 1688.75,1445.72 1717.37,1445.72 1717.37,1425.4 1688.75,1425.4 
  "/>
<path clip-path="url(#clip652)" d="
M1717.37 1425.4 L1717.37 1445.72 L1745.99 1445.72 L1745.99 1425.4 L1717.37 1425.4 L1717.37 1425.4  Z
  " fill="#009af9" fill-rule="evenodd" fill-opacity="1"/>
<polyline clip-path="url(#clip652)" style="stroke:#000000; stroke-width:4; stroke-opacity:1; fill:none" points="
  1717.37,1425.4 1717.37,1445.72 1745.99,1445.72 1745.99,1425.4 1717.37,1425.4 
  "/>
<path clip-path="url(#clip652)" d="
M1745.99 1416.94 L1745.99 1445.72 L1774.6 1445.72 L1774.6 1416.94 L1745.99 1416.94 L1745.99 1416.94  Z
  " fill="#009af9" fill-rule="evenodd" fill-opacity="1"/>
<polyline clip-path="url(#clip652)" style="stroke:#000000; stroke-width:4; stroke-opacity:1; fill:none" points="
  1745.99,1416.94 1745.99,1445.72 1774.6,1445.72 1774.6,1416.94 1745.99,1416.94 
  "/>
<path clip-path="url(#clip652)" d="
M1774.6 1422.01 L1774.6 1445.72 L1803.22 1445.72 L1803.22 1422.01 L1774.6 1422.01 L1774.6 1422.01  Z
  " fill="#009af9" fill-rule="evenodd" fill-opacity="1"/>
<polyline clip-path="url(#clip652)" style="stroke:#000000; stroke-width:4; stroke-opacity:1; fill:none" points="
  1774.6,1422.01 1774.6,1445.72 1803.22,1445.72 1803.22,1422.01 1774.6,1422.01 
  "/>
<path clip-path="url(#clip652)" d="
M1803.22 1433.87 L1803.22 1445.72 L1831.84 1445.72 L1831.84 1433.87 L1803.22 1433.87 L1803.22 1433.87  Z
  " fill="#009af9" fill-rule="evenodd" fill-opacity="1"/>
<polyline clip-path="url(#clip652)" style="stroke:#000000; stroke-width:4; stroke-opacity:1; fill:none" points="
  1803.22,1433.87 1803.22,1445.72 1831.84,1445.72 1831.84,1433.87 1803.22,1433.87 
  "/>
<path clip-path="url(#clip652)" d="
M1831.84 1433.87 L1831.84 1445.72 L1860.46 1445.72 L1860.46 1433.87 L1831.84 1433.87 L1831.84 1433.87  Z
  " fill="#009af9" fill-rule="evenodd" fill-opacity="1"/>
<polyline clip-path="url(#clip652)" style="stroke:#000000; stroke-width:4; stroke-opacity:1; fill:none" points="
  1831.84,1433.87 1831.84,1445.72 1860.46,1445.72 1860.46,1433.87 1831.84,1433.87 
  "/>
<path clip-path="url(#clip652)" d="
M1860.46 1445.72 L1860.46 1445.72 L1889.08 1445.72 L1889.08 1445.72 L1860.46 1445.72 L1860.46 1445.72  Z
  " fill="#009af9" fill-rule="evenodd" fill-opacity="1"/>
<polyline clip-path="url(#clip652)" style="stroke:#000000; stroke-width:4; stroke-opacity:1; fill:none" points="
  1860.46,1445.72 1860.46,1445.72 1889.08,1445.72 1860.46,1445.72 
  "/>
<path clip-path="url(#clip652)" d="
M1889.08 1438.94 L1889.08 1445.72 L1917.69 1445.72 L1917.69 1438.94 L1889.08 1438.94 L1889.08 1438.94  Z
  " fill="#009af9" fill-rule="evenodd" fill-opacity="1"/>
<polyline clip-path="url(#clip652)" style="stroke:#000000; stroke-width:4; stroke-opacity:1; fill:none" points="
  1889.08,1438.94 1889.08,1445.72 1917.69,1445.72 1917.69,1438.94 1889.08,1438.94 
  "/>
<path clip-path="url(#clip652)" d="
M1917.69 1442.33 L1917.69 1445.72 L1946.31 1445.72 L1946.31 1442.33 L1917.69 1442.33 L1917.69 1442.33  Z
  " fill="#009af9" fill-rule="evenodd" fill-opacity="1"/>
<polyline clip-path="url(#clip652)" style="stroke:#000000; stroke-width:4; stroke-opacity:1; fill:none" points="
  1917.69,1442.33 1917.69,1445.72 1946.31,1445.72 1946.31,1442.33 1917.69,1442.33 
  "/>
<path clip-path="url(#clip652)" d="
M1946.31 1442.33 L1946.31 1445.72 L1974.93 1445.72 L1974.93 1442.33 L1946.31 1442.33 L1946.31 1442.33  Z
  " fill="#009af9" fill-rule="evenodd" fill-opacity="1"/>
<polyline clip-path="url(#clip652)" style="stroke:#000000; stroke-width:4; stroke-opacity:1; fill:none" points="
  1946.31,1442.33 1946.31,1445.72 1974.93,1445.72 1974.93,1442.33 1946.31,1442.33 
  "/>
<path clip-path="url(#clip652)" d="
M1974.93 1445.72 L1974.93 1445.72 L2003.55 1445.72 L2003.55 1445.72 L1974.93 1445.72 L1974.93 1445.72  Z
  " fill="#009af9" fill-rule="evenodd" fill-opacity="1"/>
<polyline clip-path="url(#clip652)" style="stroke:#000000; stroke-width:4; stroke-opacity:1; fill:none" points="
  1974.93,1445.72 1974.93,1445.72 2003.55,1445.72 1974.93,1445.72 
  "/>
<path clip-path="url(#clip652)" d="
M2003.55 1444.02 L2003.55 1445.72 L2032.17 1445.72 L2032.17 1444.02 L2003.55 1444.02 L2003.55 1444.02  Z
  " fill="#009af9" fill-rule="evenodd" fill-opacity="1"/>
<polyline clip-path="url(#clip652)" style="stroke:#000000; stroke-width:4; stroke-opacity:1; fill:none" points="
  2003.55,1444.02 2003.55,1445.72 2032.17,1445.72 2032.17,1444.02 2003.55,1444.02 
  "/>
<path clip-path="url(#clip652)" d="
M2032.17 1442.33 L2032.17 1445.72 L2060.78 1445.72 L2060.78 1442.33 L2032.17 1442.33 L2032.17 1442.33  Z
  " fill="#009af9" fill-rule="evenodd" fill-opacity="1"/>
<polyline clip-path="url(#clip652)" style="stroke:#000000; stroke-width:4; stroke-opacity:1; fill:none" points="
  2032.17,1442.33 2032.17,1445.72 2060.78,1445.72 2060.78,1442.33 2032.17,1442.33 
  "/>
<path clip-path="url(#clip652)" d="
M2060.78 1445.72 L2060.78 1445.72 L2089.4 1445.72 L2089.4 1445.72 L2060.78 1445.72 L2060.78 1445.72  Z
  " fill="#009af9" fill-rule="evenodd" fill-opacity="1"/>
<polyline clip-path="url(#clip652)" style="stroke:#000000; stroke-width:4; stroke-opacity:1; fill:none" points="
  2060.78,1445.72 2060.78,1445.72 2089.4,1445.72 2060.78,1445.72 
  "/>
<path clip-path="url(#clip652)" d="
M2089.4 1445.72 L2089.4 1445.72 L2118.02 1445.72 L2118.02 1445.72 L2089.4 1445.72 L2089.4 1445.72  Z
  " fill="#009af9" fill-rule="evenodd" fill-opacity="1"/>
<polyline clip-path="url(#clip652)" style="stroke:#000000; stroke-width:4; stroke-opacity:1; fill:none" points="
  2089.4,1445.72 2089.4,1445.72 2118.02,1445.72 2089.4,1445.72 
  "/>
<path clip-path="url(#clip652)" d="
M2118.02 1445.72 L2118.02 1445.72 L2146.64 1445.72 L2146.64 1445.72 L2118.02 1445.72 L2118.02 1445.72  Z
  " fill="#009af9" fill-rule="evenodd" fill-opacity="1"/>
<polyline clip-path="url(#clip652)" style="stroke:#000000; stroke-width:4; stroke-opacity:1; fill:none" points="
  2118.02,1445.72 2118.02,1445.72 2146.64,1445.72 2118.02,1445.72 
  "/>
<path clip-path="url(#clip652)" d="
M2146.64 1445.72 L2146.64 1445.72 L2175.26 1445.72 L2175.26 1445.72 L2146.64 1445.72 L2146.64 1445.72  Z
  " fill="#009af9" fill-rule="evenodd" fill-opacity="1"/>
<polyline clip-path="url(#clip652)" style="stroke:#000000; stroke-width:4; stroke-opacity:1; fill:none" points="
  2146.64,1445.72 2146.64,1445.72 2175.26,1445.72 2146.64,1445.72 
  "/>
<path clip-path="url(#clip652)" d="
M2175.26 1445.72 L2175.26 1445.72 L2203.87 1445.72 L2203.87 1445.72 L2175.26 1445.72 L2175.26 1445.72  Z
  " fill="#009af9" fill-rule="evenodd" fill-opacity="1"/>
<polyline clip-path="url(#clip652)" style="stroke:#000000; stroke-width:4; stroke-opacity:1; fill:none" points="
  2175.26,1445.72 2175.26,1445.72 2203.87,1445.72 2175.26,1445.72 
  "/>
<path clip-path="url(#clip652)" d="
M2203.87 1444.02 L2203.87 1445.72 L2232.49 1445.72 L2232.49 1444.02 L2203.87 1444.02 L2203.87 1444.02  Z
  " fill="#009af9" fill-rule="evenodd" fill-opacity="1"/>
<polyline clip-path="url(#clip652)" style="stroke:#000000; stroke-width:4; stroke-opacity:1; fill:none" points="
  2203.87,1444.02 2203.87,1445.72 2232.49,1445.72 2232.49,1444.02 2203.87,1444.02 
  "/>
<path clip-path="url(#clip650)" d="
M1989.74 251.724 L2280.76 251.724 L2280.76 130.764 L1989.74 130.764  Z
  " fill="#ffffff" fill-rule="evenodd" fill-opacity="1"/>
<polyline clip-path="url(#clip650)" style="stroke:#000000; stroke-width:4; stroke-opacity:1; fill:none" points="
  1989.74,251.724 2280.76,251.724 2280.76,130.764 1989.74,130.764 1989.74,251.724 
  "/>
<path clip-path="url(#clip650)" d="
M2013.74 215.436 L2157.74 215.436 L2157.74 167.052 L2013.74 167.052 L2013.74 215.436  Z
  " fill="#009af9" fill-rule="evenodd" fill-opacity="1"/>
<polyline clip-path="url(#clip650)" style="stroke:#000000; stroke-width:4; stroke-opacity:1; fill:none" points="
  2013.74,215.436 2157.74,215.436 2157.74,167.052 2013.74,167.052 2013.74,215.436 
  "/>
<path clip-path="url(#clip650)" d="M 0 0 M2195.58 210.931 Q2193.77 215.561 2192.06 216.973 Q2190.35 218.385 2187.48 218.385 L2184.08 218.385 L2184.08 214.82 L2186.58 214.82 Q2188.33 214.82 2189.31 213.987 Q2190.28 213.154 2191.46 210.052 L2192.22 208.107 L2181.74 182.598 L2186.25 182.598 L2194.35 202.876 L2202.46 182.598 L2206.97 182.598 L2195.58 210.931 Z" fill="#000000" fill-rule="evenodd" fill-opacity="1" /><path clip-path="url(#clip650)" d="M 0 0 M2212.85 204.589 L2220.49 204.589 L2220.49 178.223 L2212.18 179.89 L2212.18 175.631 L2220.44 173.964 L2225.12 173.964 L2225.12 204.589 L2232.76 204.589 L2232.76 208.524 L2212.85 208.524 L2212.85 204.589 Z" fill="#000000" fill-rule="evenodd" fill-opacity="1" /></svg>
