<?xml version="1.0" encoding="utf-8"?>
<svg xmlns="http://www.w3.org/2000/svg" xmlns:xlink="http://www.w3.org/1999/xlink" width="600" height="400" viewBox="0 0 2400 1600">
<defs>
  <clipPath id="clip130">
    <rect x="0" y="0" width="2400" height="1600"/>
  </clipPath>
</defs>
<path clip-path="url(#clip130)" d="
M0 1600 L2400 1600 L2400 0 L0 0  Z
  " fill="#ffffff" fill-rule="evenodd" fill-opacity="1"/>
<defs>
  <clipPath id="clip131">
    <rect x="480" y="0" width="1681" height="1600"/>
  </clipPath>
</defs>
<path clip-path="url(#clip130)" d="
M166.205 1486.45 L2352.76 1486.45 L2352.76 47.2441 L166.205 47.2441  Z
  " fill="#ffffff" fill-rule="evenodd" fill-opacity="1"/>
<defs>
  <clipPath id="clip132">
    <rect x="166" y="47" width="2188" height="1440"/>
  </clipPath>
</defs>
<polyline clip-path="url(#clip132)" style="stroke:#000000; stroke-width:2; stroke-opacity:0.1; fill:none" points="
  314.672,1486.45 314.672,47.2441 
  "/>
<polyline clip-path="url(#clip132)" style="stroke:#000000; stroke-width:2; stroke-opacity:0.1; fill:none" points="
  737.721,1486.45 737.721,47.2441 
  "/>
<polyline clip-path="url(#clip132)" style="stroke:#000000; stroke-width:2; stroke-opacity:0.1; fill:none" points="
  1160.77,1486.45 1160.77,47.2441 
  "/>
<polyline clip-path="url(#clip132)" style="stroke:#000000; stroke-width:2; stroke-opacity:0.1; fill:none" points="
  1583.82,1486.45 1583.82,47.2441 
  "/>
<polyline clip-path="url(#clip132)" style="stroke:#000000; stroke-width:2; stroke-opacity:0.1; fill:none" points="
  2006.87,1486.45 2006.87,47.2441 
  "/>
<polyline clip-path="url(#clip132)" style="stroke:#000000; stroke-width:2; stroke-opacity:0.1; fill:none" points="
  166.205,1445.72 2352.76,1445.72 
  "/>
<polyline clip-path="url(#clip132)" style="stroke:#000000; stroke-width:2; stroke-opacity:0.1; fill:none" points="
  166.205,1105.43 2352.76,1105.43 
  "/>
<polyline clip-path="url(#clip132)" style="stroke:#000000; stroke-width:2; stroke-opacity:0.1; fill:none" points="
  166.205,765.145 2352.76,765.145 
  "/>
<polyline clip-path="url(#clip132)" style="stroke:#000000; stroke-width:2; stroke-opacity:0.1; fill:none" points="
  166.205,424.859 2352.76,424.859 
  "/>
<polyline clip-path="url(#clip132)" style="stroke:#000000; stroke-width:2; stroke-opacity:0.1; fill:none" points="
  166.205,84.5734 2352.76,84.5734 
  "/>
<polyline clip-path="url(#clip130)" style="stroke:#000000; stroke-width:4; stroke-opacity:1; fill:none" points="
  166.205,1486.45 2352.76,1486.45 
  "/>
<polyline clip-path="url(#clip130)" style="stroke:#000000; stroke-width:4; stroke-opacity:1; fill:none" points="
  166.205,1486.45 166.205,47.2441 
  "/>
<polyline clip-path="url(#clip130)" style="stroke:#000000; stroke-width:4; stroke-opacity:1; fill:none" points="
  314.672,1486.45 314.672,1469.18 
  "/>
<polyline clip-path="url(#clip130)" style="stroke:#000000; stroke-width:4; stroke-opacity:1; fill:none" points="
  737.721,1486.45 737.721,1469.18 
  "/>
<polyline clip-path="url(#clip130)" style="stroke:#000000; stroke-width:4; stroke-opacity:1; fill:none" points="
  1160.77,1486.45 1160.77,1469.18 
  "/>
<polyline clip-path="url(#clip130)" style="stroke:#000000; stroke-width:4; stroke-opacity:1; fill:none" points="
  1583.82,1486.45 1583.82,1469.18 
  "/>
<polyline clip-path="url(#clip130)" style="stroke:#000000; stroke-width:4; stroke-opacity:1; fill:none" points="
  2006.87,1486.45 2006.87,1469.18 
  "/>
<polyline clip-path="url(#clip130)" style="stroke:#000000; stroke-width:4; stroke-opacity:1; fill:none" points="
  166.205,1445.72 192.443,1445.72 
  "/>
<polyline clip-path="url(#clip130)" style="stroke:#000000; stroke-width:4; stroke-opacity:1; fill:none" points="
  166.205,1105.43 192.443,1105.43 
  "/>
<polyline clip-path="url(#clip130)" style="stroke:#000000; stroke-width:4; stroke-opacity:1; fill:none" points="
  166.205,765.145 192.443,765.145 
  "/>
<polyline clip-path="url(#clip130)" style="stroke:#000000; stroke-width:4; stroke-opacity:1; fill:none" points="
  166.205,424.859 192.443,424.859 
  "/>
<polyline clip-path="url(#clip130)" style="stroke:#000000; stroke-width:4; stroke-opacity:1; fill:none" points="
  166.205,84.5734 192.443,84.5734 
  "/>
<path clip-path="url(#clip130)" d="M 0 0 M294.846 1525.04 L307.323 1525.04 L307.323 1528.83 L294.846 1528.83 L294.846 1525.04 Z" fill="#000000" fill-rule="evenodd" fill-opacity="1" /><path clip-path="url(#clip130)" d="M 0 0 M322.971 1520.78 Q319.823 1520.78 317.971 1522.93 Q316.142 1525.08 316.142 1528.83 Q316.142 1532.56 317.971 1534.73 Q319.823 1536.89 322.971 1536.89 Q326.119 1536.89 327.947 1534.73 Q329.799 1532.56 329.799 1528.83 Q329.799 1525.08 327.947 1522.93 Q326.119 1520.78 322.971 1520.78 M332.253 1506.12 L332.253 1510.38 Q330.494 1509.55 328.688 1509.11 Q326.906 1508.67 325.147 1508.67 Q320.517 1508.67 318.063 1511.8 Q315.633 1514.92 315.286 1521.24 Q316.651 1519.23 318.711 1518.16 Q320.772 1517.07 323.248 1517.07 Q328.457 1517.07 331.466 1520.24 Q334.498 1523.39 334.498 1528.83 Q334.498 1534.16 331.35 1537.37 Q328.202 1540.59 322.971 1540.59 Q316.975 1540.59 313.804 1536.01 Q310.633 1531.4 310.633 1522.67 Q310.633 1514.48 314.522 1509.62 Q318.411 1504.73 324.961 1504.73 Q326.721 1504.73 328.503 1505.08 Q330.309 1505.43 332.253 1506.12 Z" fill="#000000" fill-rule="evenodd" fill-opacity="1" /><path clip-path="url(#clip130)" d="M 0 0 M718.299 1525.04 L730.776 1525.04 L730.776 1528.83 L718.299 1528.83 L718.299 1525.04 Z" fill="#000000" fill-rule="evenodd" fill-opacity="1" /><path clip-path="url(#clip130)" d="M 0 0 M750.012 1521.29 Q753.369 1522 755.244 1524.27 Q757.142 1526.54 757.142 1529.87 Q757.142 1534.99 753.623 1537.79 Q750.105 1540.59 743.623 1540.59 Q741.447 1540.59 739.133 1540.15 Q736.841 1539.73 734.387 1538.88 L734.387 1534.36 Q736.332 1535.5 738.646 1536.08 Q740.961 1536.66 743.484 1536.66 Q747.883 1536.66 750.174 1534.92 Q752.489 1533.18 752.489 1529.87 Q752.489 1526.82 750.336 1525.11 Q748.207 1523.37 744.387 1523.37 L740.359 1523.37 L740.359 1519.53 L744.572 1519.53 Q748.021 1519.53 749.85 1518.16 Q751.679 1516.77 751.679 1514.18 Q751.679 1511.52 749.781 1510.11 Q747.906 1508.67 744.387 1508.67 Q742.466 1508.67 740.267 1509.09 Q738.068 1509.5 735.429 1510.38 L735.429 1506.22 Q738.091 1505.48 740.406 1505.11 Q742.744 1504.73 744.804 1504.73 Q750.128 1504.73 753.23 1507.17 Q756.332 1509.57 756.332 1513.69 Q756.332 1516.56 754.688 1518.55 Q753.045 1520.52 750.012 1521.29 Z" fill="#000000" fill-rule="evenodd" fill-opacity="1" /><path clip-path="url(#clip130)" d="M 0 0 M1160.77 1508.44 Q1157.16 1508.44 1155.33 1512 Q1153.52 1515.55 1153.52 1522.67 Q1153.52 1529.78 1155.33 1533.35 Q1157.16 1536.89 1160.77 1536.89 Q1164.4 1536.89 1166.21 1533.35 Q1168.04 1529.78 1168.04 1522.67 Q1168.04 1515.55 1166.21 1512 Q1164.4 1508.44 1160.77 1508.44 M1160.77 1504.73 Q1166.58 1504.73 1169.63 1509.34 Q1172.71 1513.92 1172.71 1522.67 Q1172.71 1531.4 1169.63 1536.01 Q1166.58 1540.59 1160.77 1540.59 Q1154.96 1540.59 1151.88 1536.01 Q1148.82 1531.4 1148.82 1522.67 Q1148.82 1513.92 1151.88 1509.34 Q1154.96 1504.73 1160.77 1504.73 Z" fill="#000000" fill-rule="evenodd" fill-opacity="1" /><path clip-path="url(#clip130)" d="M 0 0 M1588.07 1521.29 Q1591.42 1522 1593.3 1524.27 Q1595.19 1526.54 1595.19 1529.87 Q1595.19 1534.99 1591.68 1537.79 Q1588.16 1540.59 1581.68 1540.59 Q1579.5 1540.59 1577.19 1540.15 Q1574.89 1539.73 1572.44 1538.88 L1572.44 1534.36 Q1574.38 1535.5 1576.7 1536.08 Q1579.01 1536.66 1581.54 1536.66 Q1585.94 1536.66 1588.23 1534.92 Q1590.54 1533.18 1590.54 1529.87 Q1590.54 1526.82 1588.39 1525.11 Q1586.26 1523.37 1582.44 1523.37 L1578.41 1523.37 L1578.41 1519.53 L1582.63 1519.53 Q1586.07 1519.53 1587.9 1518.16 Q1589.73 1516.77 1589.73 1514.18 Q1589.73 1511.52 1587.83 1510.11 Q1585.96 1508.67 1582.44 1508.67 Q1580.52 1508.67 1578.32 1509.09 Q1576.12 1509.5 1573.48 1510.38 L1573.48 1506.22 Q1576.14 1505.48 1578.46 1505.11 Q1580.8 1504.73 1582.86 1504.73 Q1588.18 1504.73 1591.28 1507.17 Q1594.38 1509.57 1594.38 1513.69 Q1594.38 1516.56 1592.74 1518.55 Q1591.1 1520.52 1588.07 1521.29 Z" fill="#000000" fill-rule="evenodd" fill-opacity="1" /><path clip-path="url(#clip130)" d="M 0 0 M2007.27 1520.78 Q2004.12 1520.78 2002.27 1522.93 Q2000.44 1525.08 2000.44 1528.83 Q2000.44 1532.56 2002.27 1534.73 Q2004.12 1536.89 2007.27 1536.89 Q2010.42 1536.89 2012.25 1534.73 Q2014.1 1532.56 2014.1 1528.83 Q2014.1 1525.08 2012.25 1522.93 Q2010.42 1520.78 2007.27 1520.78 M2016.55 1506.12 L2016.55 1510.38 Q2014.79 1509.55 2012.99 1509.11 Q2011.21 1508.67 2009.45 1508.67 Q2004.82 1508.67 2002.36 1511.8 Q1999.93 1514.92 1999.59 1521.24 Q2000.95 1519.23 2003.01 1518.16 Q2005.07 1517.07 2007.55 1517.07 Q2012.76 1517.07 2015.77 1520.24 Q2018.8 1523.39 2018.8 1528.83 Q2018.8 1534.16 2015.65 1537.37 Q2012.5 1540.59 2007.27 1540.59 Q2001.28 1540.59 1998.1 1536.01 Q1994.93 1531.4 1994.93 1522.67 Q1994.93 1514.48 1998.82 1509.62 Q2002.71 1504.73 2009.26 1504.73 Q2011.02 1504.73 2012.8 1505.08 Q2014.61 1505.43 2016.55 1506.12 Z" fill="#000000" fill-rule="evenodd" fill-opacity="1" /><path clip-path="url(#clip130)" d="M 0 0 M130.26 1431.51 Q126.649 1431.51 124.82 1435.08 Q123.015 1438.62 123.015 1445.75 Q123.015 1452.86 124.82 1456.42 Q126.649 1459.96 130.26 1459.96 Q133.895 1459.96 135.7 1456.42 Q137.529 1452.86 137.529 1445.75 Q137.529 1438.62 135.7 1435.08 Q133.895 1431.51 130.26 1431.51 M130.26 1427.81 Q136.07 1427.81 139.126 1432.42 Q142.205 1437 142.205 1445.75 Q142.205 1454.48 139.126 1459.08 Q136.07 1463.67 130.26 1463.67 Q124.45 1463.67 121.371 1459.08 Q118.316 1454.48 118.316 1445.75 Q118.316 1437 121.371 1432.42 Q124.45 1427.81 130.26 1427.81 Z" fill="#000000" fill-rule="evenodd" fill-opacity="1" /><path clip-path="url(#clip130)" d="M 0 0 M71.8578 1118.77 L88.1772 1118.77 L88.1772 1122.71 L66.2328 1122.71 L66.2328 1118.77 Q68.8949 1116.02 73.4782 1111.39 Q78.0846 1106.74 79.2652 1105.4 Q81.5105 1102.87 82.3902 1101.14 Q83.2929 1099.38 83.2929 1097.69 Q83.2929 1094.93 81.3485 1093.2 Q79.4272 1091.46 76.3254 1091.46 Q74.1263 1091.46 71.6726 1092.22 Q69.2421 1092.99 66.4643 1094.54 L66.4643 1089.82 Q69.2884 1088.68 71.7421 1088.1 Q74.1958 1087.53 76.2328 1087.53 Q81.6031 1087.53 84.7976 1090.21 Q87.992 1092.9 87.992 1097.39 Q87.992 1099.52 87.1818 1101.44 Q86.3948 1103.34 84.2883 1105.93 Q83.7096 1106.6 80.6078 1109.82 Q77.5059 1113.01 71.8578 1118.77 Z" fill="#000000" fill-rule="evenodd" fill-opacity="1" /><path clip-path="url(#clip130)" d="M 0 0 M103.247 1091.23 Q99.6354 1091.23 97.8068 1094.79 Q96.0012 1098.34 96.0012 1105.46 Q96.0012 1112.57 97.8068 1116.14 Q99.6354 1119.68 103.247 1119.68 Q106.881 1119.68 108.686 1116.14 Q110.515 1112.57 110.515 1105.46 Q110.515 1098.34 108.686 1094.79 Q106.881 1091.23 103.247 1091.23 M103.247 1087.53 Q109.057 1087.53 112.112 1092.13 Q115.191 1096.71 115.191 1105.46 Q115.191 1114.19 112.112 1118.8 Q109.057 1123.38 103.247 1123.38 Q97.4364 1123.38 94.3577 1118.8 Q91.3022 1114.19 91.3022 1105.46 Q91.3022 1096.71 94.3577 1092.13 Q97.4364 1087.53 103.247 1087.53 Z" fill="#000000" fill-rule="evenodd" fill-opacity="1" /><path clip-path="url(#clip130)" d="M 0 0 M130.26 1091.23 Q126.649 1091.23 124.82 1094.79 Q123.015 1098.34 123.015 1105.46 Q123.015 1112.57 124.82 1116.14 Q126.649 1119.68 130.26 1119.68 Q133.895 1119.68 135.7 1116.14 Q137.529 1112.57 137.529 1105.46 Q137.529 1098.34 135.7 1094.79 Q133.895 1091.23 130.26 1091.23 M130.26 1087.53 Q136.07 1087.53 139.126 1092.13 Q142.205 1096.71 142.205 1105.46 Q142.205 1114.19 139.126 1118.8 Q136.07 1123.38 130.26 1123.38 Q124.45 1123.38 121.371 1118.8 Q118.316 1114.19 118.316 1105.46 Q118.316 1096.71 121.371 1092.13 Q124.45 1087.53 130.26 1087.53 Z" fill="#000000" fill-rule="evenodd" fill-opacity="1" /><path clip-path="url(#clip130)" d="M 0 0 M78.5939 751.939 L66.7884 770.388 L78.5939 770.388 L78.5939 751.939 M77.367 747.865 L83.2466 747.865 L83.2466 770.388 L88.1772 770.388 L88.1772 774.276 L83.2466 774.276 L83.2466 782.425 L78.5939 782.425 L78.5939 774.276 L62.9921 774.276 L62.9921 769.763 L77.367 747.865 Z" fill="#000000" fill-rule="evenodd" fill-opacity="1" /><path clip-path="url(#clip130)" d="M 0 0 M103.247 750.943 Q99.6354 750.943 97.8068 754.508 Q96.0012 758.05 96.0012 765.179 Q96.0012 772.286 97.8068 775.851 Q99.6354 779.392 103.247 779.392 Q106.881 779.392 108.686 775.851 Q110.515 772.286 110.515 765.179 Q110.515 758.05 108.686 754.508 Q106.881 750.943 103.247 750.943 M103.247 747.24 Q109.057 747.24 112.112 751.846 Q115.191 756.429 115.191 765.179 Q115.191 773.906 112.112 778.513 Q109.057 783.096 103.247 783.096 Q97.4364 783.096 94.3577 778.513 Q91.3022 773.906 91.3022 765.179 Q91.3022 756.429 94.3577 751.846 Q97.4364 747.24 103.247 747.24 Z" fill="#000000" fill-rule="evenodd" fill-opacity="1" /><path clip-path="url(#clip130)" d="M 0 0 M130.26 750.943 Q126.649 750.943 124.82 754.508 Q123.015 758.05 123.015 765.179 Q123.015 772.286 124.82 775.851 Q126.649 779.392 130.26 779.392 Q133.895 779.392 135.7 775.851 Q137.529 772.286 137.529 765.179 Q137.529 758.05 135.7 754.508 Q133.895 750.943 130.26 750.943 M130.26 747.24 Q136.07 747.24 139.126 751.846 Q142.205 756.429 142.205 765.179 Q142.205 773.906 139.126 778.513 Q136.07 783.096 130.26 783.096 Q124.45 783.096 121.371 778.513 Q118.316 773.906 118.316 765.179 Q118.316 756.429 121.371 751.846 Q124.45 747.24 130.26 747.24 Z" fill="#000000" fill-rule="evenodd" fill-opacity="1" /><path clip-path="url(#clip130)" d="M 0 0 M76.6495 422.996 Q73.5013 422.996 71.6495 425.148 Q69.8208 427.301 69.8208 431.051 Q69.8208 434.778 71.6495 436.954 Q73.5013 439.107 76.6495 439.107 Q79.7976 439.107 81.6263 436.954 Q83.4781 434.778 83.4781 431.051 Q83.4781 427.301 81.6263 425.148 Q79.7976 422.996 76.6495 422.996 M85.9318 408.343 L85.9318 412.602 Q84.1726 411.769 82.367 411.329 Q80.5846 410.889 78.8254 410.889 Q74.1958 410.889 71.7421 414.014 Q69.3115 417.139 68.9643 423.459 Q70.33 421.445 72.3902 420.38 Q74.4504 419.292 76.9272 419.292 Q82.1355 419.292 85.1448 422.463 Q88.1772 425.611 88.1772 431.051 Q88.1772 436.375 85.029 439.593 Q81.8809 442.81 76.6495 442.81 Q70.6541 442.81 67.4828 438.227 Q64.3116 433.621 64.3116 424.894 Q64.3116 416.699 68.2004 411.838 Q72.0893 406.954 78.6402 406.954 Q80.3994 406.954 82.1818 407.301 Q83.9874 407.648 85.9318 408.343 Z" fill="#000000" fill-rule="evenodd" fill-opacity="1" /><path clip-path="url(#clip130)" d="M 0 0 M103.247 410.658 Q99.6354 410.658 97.8068 414.222 Q96.0012 417.764 96.0012 424.894 Q96.0012 432 97.8068 435.565 Q99.6354 439.107 103.247 439.107 Q106.881 439.107 108.686 435.565 Q110.515 432 110.515 424.894 Q110.515 417.764 108.686 414.222 Q106.881 410.658 103.247 410.658 M103.247 406.954 Q109.057 406.954 112.112 411.56 Q115.191 416.144 115.191 424.894 Q115.191 433.621 112.112 438.227 Q109.057 442.81 103.247 442.81 Q97.4364 442.81 94.3577 438.227 Q91.3022 433.621 91.3022 424.894 Q91.3022 416.144 94.3577 411.56 Q97.4364 406.954 103.247 406.954 Z" fill="#000000" fill-rule="evenodd" fill-opacity="1" /><path clip-path="url(#clip130)" d="M 0 0 M130.26 410.658 Q126.649 410.658 124.82 414.222 Q123.015 417.764 123.015 424.894 Q123.015 432 124.82 435.565 Q126.649 439.107 130.26 439.107 Q133.895 439.107 135.7 435.565 Q137.529 432 137.529 424.894 Q137.529 417.764 135.7 414.222 Q133.895 410.658 130.26 410.658 M130.26 406.954 Q136.07 406.954 139.126 411.56 Q142.205 416.144 142.205 424.894 Q142.205 433.621 139.126 438.227 Q136.07 442.81 130.26 442.81 Q124.45 442.81 121.371 438.227 Q118.316 433.621 118.316 424.894 Q118.316 416.144 121.371 411.56 Q124.45 406.954 130.26 406.954 Z" fill="#000000" fill-rule="evenodd" fill-opacity="1" /><path clip-path="url(#clip130)" d="M 0 0 M76.3254 85.4415 Q72.9921 85.4415 71.0708 87.2239 Q69.1726 89.0063 69.1726 92.1313 Q69.1726 95.2562 71.0708 97.0386 Q72.9921 98.821 76.3254 98.821 Q79.6587 98.821 81.58 97.0386 Q83.5013 95.2331 83.5013 92.1313 Q83.5013 89.0063 81.58 87.2239 Q79.6819 85.4415 76.3254 85.4415 M71.6495 83.4507 Q68.6402 82.71 66.9504 80.6498 Q65.2838 78.5897 65.2838 75.6267 Q65.2838 71.4832 68.2236 69.0758 Q71.1865 66.6684 76.3254 66.6684 Q81.4874 66.6684 84.4272 69.0758 Q87.367 71.4832 87.367 75.6267 Q87.367 78.5897 85.6772 80.6498 Q84.0105 82.71 81.0244 83.4507 Q84.404 84.2378 86.279 86.5294 Q88.1772 88.8211 88.1772 92.1313 Q88.1772 97.1544 85.0985 99.8395 Q82.0429 102.525 76.3254 102.525 Q70.6078 102.525 67.5291 99.8395 Q64.4736 97.1544 64.4736 92.1313 Q64.4736 88.8211 66.3717 86.5294 Q68.2699 84.2378 71.6495 83.4507 M69.9365 76.0665 Q69.9365 78.7517 71.6032 80.2563 Q73.293 81.7609 76.3254 81.7609 Q79.3346 81.7609 81.0244 80.2563 Q82.7374 78.7517 82.7374 76.0665 Q82.7374 73.3814 81.0244 71.8767 Q79.3346 70.3721 76.3254 70.3721 Q73.293 70.3721 71.6032 71.8767 Q69.9365 73.3814 69.9365 76.0665 Z" fill="#000000" fill-rule="evenodd" fill-opacity="1" /><path clip-path="url(#clip130)" d="M 0 0 M103.247 70.3721 Q99.6354 70.3721 97.8068 73.9369 Q96.0012 77.4786 96.0012 84.6081 Q96.0012 91.7146 97.8068 95.2794 Q99.6354 98.821 103.247 98.821 Q106.881 98.821 108.686 95.2794 Q110.515 91.7146 110.515 84.6081 Q110.515 77.4786 108.686 73.9369 Q106.881 70.3721 103.247 70.3721 M103.247 66.6684 Q109.057 66.6684 112.112 71.2749 Q115.191 75.8582 115.191 84.6081 Q115.191 93.3349 112.112 97.9414 Q109.057 102.525 103.247 102.525 Q97.4364 102.525 94.3577 97.9414 Q91.3022 93.3349 91.3022 84.6081 Q91.3022 75.8582 94.3577 71.2749 Q97.4364 66.6684 103.247 66.6684 Z" fill="#000000" fill-rule="evenodd" fill-opacity="1" /><path clip-path="url(#clip130)" d="M 0 0 M130.26 70.3721 Q126.649 70.3721 124.82 73.9369 Q123.015 77.4786 123.015 84.6081 Q123.015 91.7146 124.82 95.2794 Q126.649 98.821 130.26 98.821 Q133.895 98.821 135.7 95.2794 Q137.529 91.7146 137.529 84.6081 Q137.529 77.4786 135.7 73.9369 Q133.895 70.3721 130.26 70.3721 M130.26 66.6684 Q136.07 66.6684 139.126 71.2749 Q142.205 75.8582 142.205 84.6081 Q142.205 93.3349 139.126 97.9414 Q136.07 102.525 130.26 102.525 Q124.45 102.525 121.371 97.9414 Q118.316 93.3349 118.316 84.6081 Q118.316 75.8582 121.371 71.2749 Q124.45 66.6684 130.26 66.6684 Z" fill="#000000" fill-rule="evenodd" fill-opacity="1" /><path clip-path="url(#clip132)" d="
M286.469 1444.01 L286.469 1445.72 L314.672 1445.72 L314.672 1444.01 L286.469 1444.01 L286.469 1444.01  Z
  " fill="#009af9" fill-rule="evenodd" fill-opacity="1"/>
<polyline clip-path="url(#clip132)" style="stroke:#000000; stroke-width:4; stroke-opacity:1; fill:none" points="
  286.469,1444.01 286.469,1445.72 314.672,1445.72 314.672,1444.01 286.469,1444.01 
  "/>
<path clip-path="url(#clip132)" d="
M314.672 1445.72 L314.672 1445.72 L342.875 1445.72 L342.875 1445.72 L314.672 1445.72 L314.672 1445.72  Z
  " fill="#009af9" fill-rule="evenodd" fill-opacity="1"/>
<polyline clip-path="url(#clip132)" style="stroke:#000000; stroke-width:4; stroke-opacity:1; fill:none" points="
  314.672,1445.72 314.672,1445.72 342.875,1445.72 314.672,1445.72 
  "/>
<path clip-path="url(#clip132)" d="
M342.875 1442.31 L342.875 1445.72 L371.079 1445.72 L371.079 1442.31 L342.875 1442.31 L342.875 1442.31  Z
  " fill="#009af9" fill-rule="evenodd" fill-opacity="1"/>
<polyline clip-path="url(#clip132)" style="stroke:#000000; stroke-width:4; stroke-opacity:1; fill:none" points="
  342.875,1442.31 342.875,1445.72 371.079,1445.72 371.079,1442.31 342.875,1442.31 
  "/>
<path clip-path="url(#clip132)" d="
M371.079 1445.72 L371.079 1445.72 L399.282 1445.72 L399.282 1445.72 L371.079 1445.72 L371.079 1445.72  Z
  " fill="#009af9" fill-rule="evenodd" fill-opacity="1"/>
<polyline clip-path="url(#clip132)" style="stroke:#000000; stroke-width:4; stroke-opacity:1; fill:none" points="
  371.079,1445.72 371.079,1445.72 399.282,1445.72 371.079,1445.72 
  "/>
<path clip-path="url(#clip132)" d="
M399.282 1440.61 L399.282 1445.72 L427.485 1445.72 L427.485 1440.61 L399.282 1440.61 L399.282 1440.61  Z
  " fill="#009af9" fill-rule="evenodd" fill-opacity="1"/>
<polyline clip-path="url(#clip132)" style="stroke:#000000; stroke-width:4; stroke-opacity:1; fill:none" points="
  399.282,1440.61 399.282,1445.72 427.485,1445.72 427.485,1440.61 399.282,1440.61 
  "/>
<path clip-path="url(#clip132)" d="
M427.485 1442.31 L427.485 1445.72 L455.688 1445.72 L455.688 1442.31 L427.485 1442.31 L427.485 1442.31  Z
  " fill="#009af9" fill-rule="evenodd" fill-opacity="1"/>
<polyline clip-path="url(#clip132)" style="stroke:#000000; stroke-width:4; stroke-opacity:1; fill:none" points="
  427.485,1442.31 427.485,1445.72 455.688,1445.72 455.688,1442.31 427.485,1442.31 
  "/>
<path clip-path="url(#clip132)" d="
M455.688 1430.4 L455.688 1445.72 L483.891 1445.72 L483.891 1430.4 L455.688 1430.4 L455.688 1430.4  Z
  " fill="#009af9" fill-rule="evenodd" fill-opacity="1"/>
<polyline clip-path="url(#clip132)" style="stroke:#000000; stroke-width:4; stroke-opacity:1; fill:none" points="
  455.688,1430.4 455.688,1445.72 483.891,1445.72 483.891,1430.4 455.688,1430.4 
  "/>
<path clip-path="url(#clip132)" d="
M483.891 1433.81 L483.891 1445.72 L512.095 1445.72 L512.095 1433.81 L483.891 1433.81 L483.891 1433.81  Z
  " fill="#009af9" fill-rule="evenodd" fill-opacity="1"/>
<polyline clip-path="url(#clip132)" style="stroke:#000000; stroke-width:4; stroke-opacity:1; fill:none" points="
  483.891,1433.81 483.891,1445.72 512.095,1445.72 512.095,1433.81 483.891,1433.81 
  "/>
<path clip-path="url(#clip132)" d="
M512.095 1425.3 L512.095 1445.72 L540.298 1445.72 L540.298 1425.3 L512.095 1425.3 L512.095 1425.3  Z
  " fill="#009af9" fill-rule="evenodd" fill-opacity="1"/>
<polyline clip-path="url(#clip132)" style="stroke:#000000; stroke-width:4; stroke-opacity:1; fill:none" points="
  512.095,1425.3 512.095,1445.72 540.298,1445.72 540.298,1425.3 512.095,1425.3 
  "/>
<path clip-path="url(#clip132)" d="
M540.298 1413.39 L540.298 1445.72 L568.501 1445.72 L568.501 1413.39 L540.298 1413.39 L540.298 1413.39  Z
  " fill="#009af9" fill-rule="evenodd" fill-opacity="1"/>
<polyline clip-path="url(#clip132)" style="stroke:#000000; stroke-width:4; stroke-opacity:1; fill:none" points="
  540.298,1413.39 540.298,1445.72 568.501,1445.72 568.501,1413.39 540.298,1413.39 
  "/>
<path clip-path="url(#clip132)" d="
M568.501 1418.49 L568.501 1445.72 L596.704 1445.72 L596.704 1418.49 L568.501 1418.49 L568.501 1418.49  Z
  " fill="#009af9" fill-rule="evenodd" fill-opacity="1"/>
<polyline clip-path="url(#clip132)" style="stroke:#000000; stroke-width:4; stroke-opacity:1; fill:none" points="
  568.501,1418.49 568.501,1445.72 596.704,1445.72 596.704,1418.49 568.501,1418.49 
  "/>
<path clip-path="url(#clip132)" d="
M596.704 1421.9 L596.704 1445.72 L624.908 1445.72 L624.908 1421.9 L596.704 1421.9 L596.704 1421.9  Z
  " fill="#009af9" fill-rule="evenodd" fill-opacity="1"/>
<polyline clip-path="url(#clip132)" style="stroke:#000000; stroke-width:4; stroke-opacity:1; fill:none" points="
  596.704,1421.9 596.704,1445.72 624.908,1445.72 624.908,1421.9 596.704,1421.9 
  "/>
<path clip-path="url(#clip132)" d="
M624.908 1404.88 L624.908 1445.72 L653.111 1445.72 L653.111 1404.88 L624.908 1404.88 L624.908 1404.88  Z
  " fill="#009af9" fill-rule="evenodd" fill-opacity="1"/>
<polyline clip-path="url(#clip132)" style="stroke:#000000; stroke-width:4; stroke-opacity:1; fill:none" points="
  624.908,1404.88 624.908,1445.72 653.111,1445.72 653.111,1404.88 624.908,1404.88 
  "/>
<path clip-path="url(#clip132)" d="
M653.111 1398.08 L653.111 1445.72 L681.314 1445.72 L681.314 1398.08 L653.111 1398.08 L653.111 1398.08  Z
  " fill="#009af9" fill-rule="evenodd" fill-opacity="1"/>
<polyline clip-path="url(#clip132)" style="stroke:#000000; stroke-width:4; stroke-opacity:1; fill:none" points="
  653.111,1398.08 653.111,1445.72 681.314,1445.72 681.314,1398.08 653.111,1398.08 
  "/>
<path clip-path="url(#clip132)" d="
M681.314 1413.39 L681.314 1445.72 L709.517 1445.72 L709.517 1413.39 L681.314 1413.39 L681.314 1413.39  Z
  " fill="#009af9" fill-rule="evenodd" fill-opacity="1"/>
<polyline clip-path="url(#clip132)" style="stroke:#000000; stroke-width:4; stroke-opacity:1; fill:none" points="
  681.314,1413.39 681.314,1445.72 709.517,1445.72 709.517,1413.39 681.314,1413.39 
  "/>
<path clip-path="url(#clip132)" d="
M709.517 1374.26 L709.517 1445.72 L737.721 1445.72 L737.721 1374.26 L709.517 1374.26 L709.517 1374.26  Z
  " fill="#009af9" fill-rule="evenodd" fill-opacity="1"/>
<polyline clip-path="url(#clip132)" style="stroke:#000000; stroke-width:4; stroke-opacity:1; fill:none" points="
  709.517,1374.26 709.517,1445.72 737.721,1445.72 737.721,1374.26 709.517,1374.26 
  "/>
<path clip-path="url(#clip132)" d="
M737.721 1392.97 L737.721 1445.72 L765.924 1445.72 L765.924 1392.97 L737.721 1392.97 L737.721 1392.97  Z
  " fill="#009af9" fill-rule="evenodd" fill-opacity="1"/>
<polyline clip-path="url(#clip132)" style="stroke:#000000; stroke-width:4; stroke-opacity:1; fill:none" points="
  737.721,1392.97 737.721,1445.72 765.924,1445.72 765.924,1392.97 737.721,1392.97 
  "/>
<path clip-path="url(#clip132)" d="
M765.924 1365.75 L765.924 1445.72 L794.127 1445.72 L794.127 1365.75 L765.924 1365.75 L765.924 1365.75  Z
  " fill="#009af9" fill-rule="evenodd" fill-opacity="1"/>
<polyline clip-path="url(#clip132)" style="stroke:#000000; stroke-width:4; stroke-opacity:1; fill:none" points="
  765.924,1365.75 765.924,1445.72 794.127,1445.72 794.127,1365.75 765.924,1365.75 
  "/>
<path clip-path="url(#clip132)" d="
M794.127 1355.54 L794.127 1445.72 L822.33 1445.72 L822.33 1355.54 L794.127 1355.54 L794.127 1355.54  Z
  " fill="#009af9" fill-rule="evenodd" fill-opacity="1"/>
<polyline clip-path="url(#clip132)" style="stroke:#000000; stroke-width:4; stroke-opacity:1; fill:none" points="
  794.127,1355.54 794.127,1445.72 822.33,1445.72 822.33,1355.54 794.127,1355.54 
  "/>
<path clip-path="url(#clip132)" d="
M822.33 1333.42 L822.33 1445.72 L850.533 1445.72 L850.533 1333.42 L822.33 1333.42 L822.33 1333.42  Z
  " fill="#009af9" fill-rule="evenodd" fill-opacity="1"/>
<polyline clip-path="url(#clip132)" style="stroke:#000000; stroke-width:4; stroke-opacity:1; fill:none" points="
  822.33,1333.42 822.33,1445.72 850.533,1445.72 850.533,1333.42 822.33,1333.42 
  "/>
<path clip-path="url(#clip132)" d="
M850.533 1323.21 L850.533 1445.72 L878.737 1445.72 L878.737 1323.21 L850.533 1323.21 L850.533 1323.21  Z
  " fill="#009af9" fill-rule="evenodd" fill-opacity="1"/>
<polyline clip-path="url(#clip132)" style="stroke:#000000; stroke-width:4; stroke-opacity:1; fill:none" points="
  850.533,1323.21 850.533,1445.72 878.737,1445.72 878.737,1323.21 850.533,1323.21 
  "/>
<path clip-path="url(#clip132)" d="
M878.737 1304.5 L878.737 1445.72 L906.94 1445.72 L906.94 1304.5 L878.737 1304.5 L878.737 1304.5  Z
  " fill="#009af9" fill-rule="evenodd" fill-opacity="1"/>
<polyline clip-path="url(#clip132)" style="stroke:#000000; stroke-width:4; stroke-opacity:1; fill:none" points="
  878.737,1304.5 878.737,1445.72 906.94,1445.72 906.94,1304.5 878.737,1304.5 
  "/>
<path clip-path="url(#clip132)" d="
M906.94 1304.5 L906.94 1445.72 L935.143 1445.72 L935.143 1304.5 L906.94 1304.5 L906.94 1304.5  Z
  " fill="#009af9" fill-rule="evenodd" fill-opacity="1"/>
<polyline clip-path="url(#clip132)" style="stroke:#000000; stroke-width:4; stroke-opacity:1; fill:none" points="
  906.94,1304.5 906.94,1445.72 935.143,1445.72 935.143,1304.5 906.94,1304.5 
  "/>
<path clip-path="url(#clip132)" d="
M935.143 1268.77 L935.143 1445.72 L963.346 1445.72 L963.346 1268.77 L935.143 1268.77 L935.143 1268.77  Z
  " fill="#009af9" fill-rule="evenodd" fill-opacity="1"/>
<polyline clip-path="url(#clip132)" style="stroke:#000000; stroke-width:4; stroke-opacity:1; fill:none" points="
  935.143,1268.77 935.143,1445.72 963.346,1445.72 963.346,1268.77 935.143,1268.77 
  "/>
<path clip-path="url(#clip132)" d="
M963.346 1284.08 L963.346 1445.72 L991.55 1445.72 L991.55 1284.08 L963.346 1284.08 L963.346 1284.08  Z
  " fill="#009af9" fill-rule="evenodd" fill-opacity="1"/>
<polyline clip-path="url(#clip132)" style="stroke:#000000; stroke-width:4; stroke-opacity:1; fill:none" points="
  963.346,1284.08 963.346,1445.72 991.55,1445.72 991.55,1284.08 963.346,1284.08 
  "/>
<path clip-path="url(#clip132)" d="
M991.55 1278.98 L991.55 1445.72 L1019.75 1445.72 L1019.75 1278.98 L991.55 1278.98 L991.55 1278.98  Z
  " fill="#009af9" fill-rule="evenodd" fill-opacity="1"/>
<polyline clip-path="url(#clip132)" style="stroke:#000000; stroke-width:4; stroke-opacity:1; fill:none" points="
  991.55,1278.98 991.55,1445.72 1019.75,1445.72 1019.75,1278.98 991.55,1278.98 
  "/>
<path clip-path="url(#clip132)" d="
M1019.75 1250.05 L1019.75 1445.72 L1047.96 1445.72 L1047.96 1250.05 L1019.75 1250.05 L1019.75 1250.05  Z
  " fill="#009af9" fill-rule="evenodd" fill-opacity="1"/>
<polyline clip-path="url(#clip132)" style="stroke:#000000; stroke-width:4; stroke-opacity:1; fill:none" points="
  1019.75,1250.05 1019.75,1445.72 1047.96,1445.72 1047.96,1250.05 1019.75,1250.05 
  "/>
<path clip-path="url(#clip132)" d="
M1047.96 1231.34 L1047.96 1445.72 L1076.16 1445.72 L1076.16 1231.34 L1047.96 1231.34 L1047.96 1231.34  Z
  " fill="#009af9" fill-rule="evenodd" fill-opacity="1"/>
<polyline clip-path="url(#clip132)" style="stroke:#000000; stroke-width:4; stroke-opacity:1; fill:none" points="
  1047.96,1231.34 1047.96,1445.72 1076.16,1445.72 1076.16,1231.34 1047.96,1231.34 
  "/>
<path clip-path="url(#clip132)" d="
M1076.16 1234.74 L1076.16 1445.72 L1104.36 1445.72 L1104.36 1234.74 L1076.16 1234.74 L1076.16 1234.74  Z
  " fill="#009af9" fill-rule="evenodd" fill-opacity="1"/>
<polyline clip-path="url(#clip132)" style="stroke:#000000; stroke-width:4; stroke-opacity:1; fill:none" points="
  1076.16,1234.74 1076.16,1445.72 1104.36,1445.72 1104.36,1234.74 1076.16,1234.74 
  "/>
<path clip-path="url(#clip132)" d="
M1104.36 1268.77 L1104.36 1445.72 L1132.57 1445.72 L1132.57 1268.77 L1104.36 1268.77 L1104.36 1268.77  Z
  " fill="#009af9" fill-rule="evenodd" fill-opacity="1"/>
<polyline clip-path="url(#clip132)" style="stroke:#000000; stroke-width:4; stroke-opacity:1; fill:none" points="
  1104.36,1268.77 1104.36,1445.72 1132.57,1445.72 1132.57,1268.77 1104.36,1268.77 
  "/>
<path clip-path="url(#clip132)" d="
M1132.57 1250.05 L1132.57 1445.72 L1160.77 1445.72 L1160.77 1250.05 L1132.57 1250.05 L1132.57 1250.05  Z
  " fill="#009af9" fill-rule="evenodd" fill-opacity="1"/>
<polyline clip-path="url(#clip132)" style="stroke:#000000; stroke-width:4; stroke-opacity:1; fill:none" points="
  1132.57,1250.05 1132.57,1445.72 1160.77,1445.72 1160.77,1250.05 1132.57,1250.05 
  "/>
<path clip-path="url(#clip132)" d="
M1160.77 1231.34 L1160.77 1445.72 L1188.97 1445.72 L1188.97 1231.34 L1160.77 1231.34 L1160.77 1231.34  Z
  " fill="#009af9" fill-rule="evenodd" fill-opacity="1"/>
<polyline clip-path="url(#clip132)" style="stroke:#000000; stroke-width:4; stroke-opacity:1; fill:none" points="
  1160.77,1231.34 1160.77,1445.72 1188.97,1445.72 1188.97,1231.34 1160.77,1231.34 
  "/>
<path clip-path="url(#clip132)" d="
M1188.97 1268.77 L1188.97 1445.72 L1217.18 1445.72 L1217.18 1268.77 L1188.97 1268.77 L1188.97 1268.77  Z
  " fill="#009af9" fill-rule="evenodd" fill-opacity="1"/>
<polyline clip-path="url(#clip132)" style="stroke:#000000; stroke-width:4; stroke-opacity:1; fill:none" points="
  1188.97,1268.77 1188.97,1445.72 1217.18,1445.72 1217.18,1268.77 1188.97,1268.77 
  "/>
<path clip-path="url(#clip132)" d="
M1217.18 1183.7 L1217.18 1445.72 L1245.38 1445.72 L1245.38 1183.7 L1217.18 1183.7 L1217.18 1183.7  Z
  " fill="#009af9" fill-rule="evenodd" fill-opacity="1"/>
<polyline clip-path="url(#clip132)" style="stroke:#000000; stroke-width:4; stroke-opacity:1; fill:none" points="
  1217.18,1183.7 1217.18,1445.72 1245.38,1445.72 1245.38,1183.7 1217.18,1183.7 
  "/>
<path clip-path="url(#clip132)" d="
M1245.38 782.159 L1245.38 1445.72 L1273.58 1445.72 L1273.58 782.159 L1245.38 782.159 L1245.38 782.159  Z
  " fill="#009af9" fill-rule="evenodd" fill-opacity="1"/>
<polyline clip-path="url(#clip132)" style="stroke:#000000; stroke-width:4; stroke-opacity:1; fill:none" points="
  1245.38,782.159 1245.38,1445.72 1273.58,1445.72 1273.58,782.159 1245.38,782.159 
  "/>
<path clip-path="url(#clip132)" d="
M1273.58 94.782 L1273.58 1445.72 L1301.79 1445.72 L1301.79 94.782 L1273.58 94.782 L1273.58 94.782  Z
  " fill="#009af9" fill-rule="evenodd" fill-opacity="1"/>
<polyline clip-path="url(#clip132)" style="stroke:#000000; stroke-width:4; stroke-opacity:1; fill:none" points="
  1273.58,94.782 1273.58,1445.72 1301.79,1445.72 1301.79,94.782 1273.58,94.782 
  "/>
<path clip-path="url(#clip132)" d="
M1301.79 87.9763 L1301.79 1445.72 L1329.99 1445.72 L1329.99 87.9763 L1301.79 87.9763 L1301.79 87.9763  Z
  " fill="#009af9" fill-rule="evenodd" fill-opacity="1"/>
<polyline clip-path="url(#clip132)" style="stroke:#000000; stroke-width:4; stroke-opacity:1; fill:none" points="
  1301.79,87.9763 1301.79,1445.72 1329.99,1445.72 1329.99,87.9763 1301.79,87.9763 
  "/>
<path clip-path="url(#clip132)" d="
M1329.99 846.813 L1329.99 1445.72 L1358.19 1445.72 L1358.19 846.813 L1329.99 846.813 L1329.99 846.813  Z
  " fill="#009af9" fill-rule="evenodd" fill-opacity="1"/>
<polyline clip-path="url(#clip132)" style="stroke:#000000; stroke-width:4; stroke-opacity:1; fill:none" points="
  1329.99,846.813 1329.99,1445.72 1358.19,1445.72 1358.19,846.813 1329.99,846.813 
  "/>
<path clip-path="url(#clip132)" d="
M1358.19 1207.52 L1358.19 1445.72 L1386.39 1445.72 L1386.39 1207.52 L1358.19 1207.52 L1358.19 1207.52  Z
  " fill="#009af9" fill-rule="evenodd" fill-opacity="1"/>
<polyline clip-path="url(#clip132)" style="stroke:#000000; stroke-width:4; stroke-opacity:1; fill:none" points="
  1358.19,1207.52 1358.19,1445.72 1386.39,1445.72 1386.39,1207.52 1358.19,1207.52 
  "/>
<path clip-path="url(#clip132)" d="
M1386.39 1302.8 L1386.39 1445.72 L1414.6 1445.72 L1414.6 1302.8 L1386.39 1302.8 L1386.39 1302.8  Z
  " fill="#009af9" fill-rule="evenodd" fill-opacity="1"/>
<polyline clip-path="url(#clip132)" style="stroke:#000000; stroke-width:4; stroke-opacity:1; fill:none" points="
  1386.39,1302.8 1386.39,1445.72 1414.6,1445.72 1414.6,1302.8 1386.39,1302.8 
  "/>
<path clip-path="url(#clip132)" d="
M1414.6 1333.42 L1414.6 1445.72 L1442.8 1445.72 L1442.8 1333.42 L1414.6 1333.42 L1414.6 1333.42  Z
  " fill="#009af9" fill-rule="evenodd" fill-opacity="1"/>
<polyline clip-path="url(#clip132)" style="stroke:#000000; stroke-width:4; stroke-opacity:1; fill:none" points="
  1414.6,1333.42 1414.6,1445.72 1442.8,1445.72 1442.8,1333.42 1414.6,1333.42 
  "/>
<path clip-path="url(#clip132)" d="
M1442.8 1323.21 L1442.8 1445.72 L1471 1445.72 L1471 1323.21 L1442.8 1323.21 L1442.8 1323.21  Z
  " fill="#009af9" fill-rule="evenodd" fill-opacity="1"/>
<polyline clip-path="url(#clip132)" style="stroke:#000000; stroke-width:4; stroke-opacity:1; fill:none" points="
  1442.8,1323.21 1442.8,1445.72 1471,1445.72 1471,1323.21 1442.8,1323.21 
  "/>
<path clip-path="url(#clip132)" d="
M1471 1336.82 L1471 1445.72 L1499.21 1445.72 L1499.21 1336.82 L1471 1336.82 L1471 1336.82  Z
  " fill="#009af9" fill-rule="evenodd" fill-opacity="1"/>
<polyline clip-path="url(#clip132)" style="stroke:#000000; stroke-width:4; stroke-opacity:1; fill:none" points="
  1471,1336.82 1471,1445.72 1499.21,1445.72 1499.21,1336.82 1471,1336.82 
  "/>
<path clip-path="url(#clip132)" d="
M1499.21 1381.06 L1499.21 1445.72 L1527.41 1445.72 L1527.41 1381.06 L1499.21 1381.06 L1499.21 1381.06  Z
  " fill="#009af9" fill-rule="evenodd" fill-opacity="1"/>
<polyline clip-path="url(#clip132)" style="stroke:#000000; stroke-width:4; stroke-opacity:1; fill:none" points="
  1499.21,1381.06 1499.21,1445.72 1527.41,1445.72 1527.41,1381.06 1499.21,1381.06 
  "/>
<path clip-path="url(#clip132)" d="
M1527.41 1357.24 L1527.41 1445.72 L1555.61 1445.72 L1555.61 1357.24 L1527.41 1357.24 L1527.41 1357.24  Z
  " fill="#009af9" fill-rule="evenodd" fill-opacity="1"/>
<polyline clip-path="url(#clip132)" style="stroke:#000000; stroke-width:4; stroke-opacity:1; fill:none" points="
  1527.41,1357.24 1527.41,1445.72 1555.61,1445.72 1555.61,1357.24 1527.41,1357.24 
  "/>
<path clip-path="url(#clip132)" d="
M1555.61 1358.94 L1555.61 1445.72 L1583.82 1445.72 L1583.82 1358.94 L1555.61 1358.94 L1555.61 1358.94  Z
  " fill="#009af9" fill-rule="evenodd" fill-opacity="1"/>
<polyline clip-path="url(#clip132)" style="stroke:#000000; stroke-width:4; stroke-opacity:1; fill:none" points="
  1555.61,1358.94 1555.61,1445.72 1583.82,1445.72 1583.82,1358.94 1555.61,1358.94 
  "/>
<path clip-path="url(#clip132)" d="
M1583.82 1384.46 L1583.82 1445.72 L1612.02 1445.72 L1612.02 1384.46 L1583.82 1384.46 L1583.82 1384.46  Z
  " fill="#009af9" fill-rule="evenodd" fill-opacity="1"/>
<polyline clip-path="url(#clip132)" style="stroke:#000000; stroke-width:4; stroke-opacity:1; fill:none" points="
  1583.82,1384.46 1583.82,1445.72 1612.02,1445.72 1612.02,1384.46 1583.82,1384.46 
  "/>
<path clip-path="url(#clip132)" d="
M1612.02 1404.88 L1612.02 1445.72 L1640.22 1445.72 L1640.22 1404.88 L1612.02 1404.88 L1612.02 1404.88  Z
  " fill="#009af9" fill-rule="evenodd" fill-opacity="1"/>
<polyline clip-path="url(#clip132)" style="stroke:#000000; stroke-width:4; stroke-opacity:1; fill:none" points="
  1612.02,1404.88 1612.02,1445.72 1640.22,1445.72 1640.22,1404.88 1612.02,1404.88 
  "/>
<path clip-path="url(#clip132)" d="
M1640.22 1401.48 L1640.22 1445.72 L1668.43 1445.72 L1668.43 1401.48 L1640.22 1401.48 L1640.22 1401.48  Z
  " fill="#009af9" fill-rule="evenodd" fill-opacity="1"/>
<polyline clip-path="url(#clip132)" style="stroke:#000000; stroke-width:4; stroke-opacity:1; fill:none" points="
  1640.22,1401.48 1640.22,1445.72 1668.43,1445.72 1668.43,1401.48 1640.22,1401.48 
  "/>
<path clip-path="url(#clip132)" d="
M1668.43 1413.39 L1668.43 1445.72 L1696.63 1445.72 L1696.63 1413.39 L1668.43 1413.39 L1668.43 1413.39  Z
  " fill="#009af9" fill-rule="evenodd" fill-opacity="1"/>
<polyline clip-path="url(#clip132)" style="stroke:#000000; stroke-width:4; stroke-opacity:1; fill:none" points="
  1668.43,1413.39 1668.43,1445.72 1696.63,1445.72 1696.63,1413.39 1668.43,1413.39 
  "/>
<path clip-path="url(#clip132)" d="
M1696.63 1404.88 L1696.63 1445.72 L1724.83 1445.72 L1724.83 1404.88 L1696.63 1404.88 L1696.63 1404.88  Z
  " fill="#009af9" fill-rule="evenodd" fill-opacity="1"/>
<polyline clip-path="url(#clip132)" style="stroke:#000000; stroke-width:4; stroke-opacity:1; fill:none" points="
  1696.63,1404.88 1696.63,1445.72 1724.83,1445.72 1724.83,1404.88 1696.63,1404.88 
  "/>
<path clip-path="url(#clip132)" d="
M1724.83 1423.6 L1724.83 1445.72 L1753.04 1445.72 L1753.04 1423.6 L1724.83 1423.6 L1724.83 1423.6  Z
  " fill="#009af9" fill-rule="evenodd" fill-opacity="1"/>
<polyline clip-path="url(#clip132)" style="stroke:#000000; stroke-width:4; stroke-opacity:1; fill:none" points="
  1724.83,1423.6 1724.83,1445.72 1753.04,1445.72 1753.04,1423.6 1724.83,1423.6 
  "/>
<path clip-path="url(#clip132)" d="
M1753.04 1421.9 L1753.04 1445.72 L1781.24 1445.72 L1781.24 1421.9 L1753.04 1421.9 L1753.04 1421.9  Z
  " fill="#009af9" fill-rule="evenodd" fill-opacity="1"/>
<polyline clip-path="url(#clip132)" style="stroke:#000000; stroke-width:4; stroke-opacity:1; fill:none" points="
  1753.04,1421.9 1753.04,1445.72 1781.24,1445.72 1781.24,1421.9 1753.04,1421.9 
  "/>
<path clip-path="url(#clip132)" d="
M1781.24 1433.81 L1781.24 1445.72 L1809.44 1445.72 L1809.44 1433.81 L1781.24 1433.81 L1781.24 1433.81  Z
  " fill="#009af9" fill-rule="evenodd" fill-opacity="1"/>
<polyline clip-path="url(#clip132)" style="stroke:#000000; stroke-width:4; stroke-opacity:1; fill:none" points="
  1781.24,1433.81 1781.24,1445.72 1809.44,1445.72 1809.44,1433.81 1781.24,1433.81 
  "/>
<path clip-path="url(#clip132)" d="
M1809.44 1428.7 L1809.44 1445.72 L1837.65 1445.72 L1837.65 1428.7 L1809.44 1428.7 L1809.44 1428.7  Z
  " fill="#009af9" fill-rule="evenodd" fill-opacity="1"/>
<polyline clip-path="url(#clip132)" style="stroke:#000000; stroke-width:4; stroke-opacity:1; fill:none" points="
  1809.44,1428.7 1809.44,1445.72 1837.65,1445.72 1837.65,1428.7 1809.44,1428.7 
  "/>
<path clip-path="url(#clip132)" d="
M1837.65 1432.1 L1837.65 1445.72 L1865.85 1445.72 L1865.85 1432.1 L1837.65 1432.1 L1837.65 1432.1  Z
  " fill="#009af9" fill-rule="evenodd" fill-opacity="1"/>
<polyline clip-path="url(#clip132)" style="stroke:#000000; stroke-width:4; stroke-opacity:1; fill:none" points="
  1837.65,1432.1 1837.65,1445.72 1865.85,1445.72 1865.85,1432.1 1837.65,1432.1 
  "/>
<path clip-path="url(#clip132)" d="
M1865.85 1435.51 L1865.85 1445.72 L1894.05 1445.72 L1894.05 1435.51 L1865.85 1435.51 L1865.85 1435.51  Z
  " fill="#009af9" fill-rule="evenodd" fill-opacity="1"/>
<polyline clip-path="url(#clip132)" style="stroke:#000000; stroke-width:4; stroke-opacity:1; fill:none" points="
  1865.85,1435.51 1865.85,1445.72 1894.05,1445.72 1894.05,1435.51 1865.85,1435.51 
  "/>
<path clip-path="url(#clip132)" d="
M1894.05 1440.61 L1894.05 1445.72 L1922.26 1445.72 L1922.26 1440.61 L1894.05 1440.61 L1894.05 1440.61  Z
  " fill="#009af9" fill-rule="evenodd" fill-opacity="1"/>
<polyline clip-path="url(#clip132)" style="stroke:#000000; stroke-width:4; stroke-opacity:1; fill:none" points="
  1894.05,1440.61 1894.05,1445.72 1922.26,1445.72 1922.26,1440.61 1894.05,1440.61 
  "/>
<path clip-path="url(#clip132)" d="
M1922.26 1442.31 L1922.26 1445.72 L1950.46 1445.72 L1950.46 1442.31 L1922.26 1442.31 L1922.26 1442.31  Z
  " fill="#009af9" fill-rule="evenodd" fill-opacity="1"/>
<polyline clip-path="url(#clip132)" style="stroke:#000000; stroke-width:4; stroke-opacity:1; fill:none" points="
  1922.26,1442.31 1922.26,1445.72 1950.46,1445.72 1950.46,1442.31 1922.26,1442.31 
  "/>
<path clip-path="url(#clip132)" d="
M1950.46 1444.01 L1950.46 1445.72 L1978.66 1445.72 L1978.66 1444.01 L1950.46 1444.01 L1950.46 1444.01  Z
  " fill="#009af9" fill-rule="evenodd" fill-opacity="1"/>
<polyline clip-path="url(#clip132)" style="stroke:#000000; stroke-width:4; stroke-opacity:1; fill:none" points="
  1950.46,1444.01 1950.46,1445.72 1978.66,1445.72 1978.66,1444.01 1950.46,1444.01 
  "/>
<path clip-path="url(#clip132)" d="
M1978.66 1442.31 L1978.66 1445.72 L2006.87 1445.72 L2006.87 1442.31 L1978.66 1442.31 L1978.66 1442.31  Z
  " fill="#009af9" fill-rule="evenodd" fill-opacity="1"/>
<polyline clip-path="url(#clip132)" style="stroke:#000000; stroke-width:4; stroke-opacity:1; fill:none" points="
  1978.66,1442.31 1978.66,1445.72 2006.87,1445.72 2006.87,1442.31 1978.66,1442.31 
  "/>
<path clip-path="url(#clip132)" d="
M2006.87 1440.61 L2006.87 1445.72 L2035.07 1445.72 L2035.07 1440.61 L2006.87 1440.61 L2006.87 1440.61  Z
  " fill="#009af9" fill-rule="evenodd" fill-opacity="1"/>
<polyline clip-path="url(#clip132)" style="stroke:#000000; stroke-width:4; stroke-opacity:1; fill:none" points="
  2006.87,1440.61 2006.87,1445.72 2035.07,1445.72 2035.07,1440.61 2006.87,1440.61 
  "/>
<path clip-path="url(#clip132)" d="
M2035.07 1444.01 L2035.07 1445.72 L2063.27 1445.72 L2063.27 1444.01 L2035.07 1444.01 L2035.07 1444.01  Z
  " fill="#009af9" fill-rule="evenodd" fill-opacity="1"/>
<polyline clip-path="url(#clip132)" style="stroke:#000000; stroke-width:4; stroke-opacity:1; fill:none" points="
  2035.07,1444.01 2035.07,1445.72 2063.27,1445.72 2063.27,1444.01 2035.07,1444.01 
  "/>
<path clip-path="url(#clip132)" d="
M2063.27 1445.72 L2063.27 1445.72 L2091.48 1445.72 L2091.48 1445.72 L2063.27 1445.72 L2063.27 1445.72  Z
  " fill="#009af9" fill-rule="evenodd" fill-opacity="1"/>
<polyline clip-path="url(#clip132)" style="stroke:#000000; stroke-width:4; stroke-opacity:1; fill:none" points="
  2063.27,1445.72 2063.27,1445.72 2091.48,1445.72 2063.27,1445.72 
  "/>
<path clip-path="url(#clip132)" d="
M2091.48 1445.72 L2091.48 1445.72 L2119.68 1445.72 L2119.68 1445.72 L2091.48 1445.72 L2091.48 1445.72  Z
  " fill="#009af9" fill-rule="evenodd" fill-opacity="1"/>
<polyline clip-path="url(#clip132)" style="stroke:#000000; stroke-width:4; stroke-opacity:1; fill:none" points="
  2091.48,1445.72 2091.48,1445.72 2119.68,1445.72 2091.48,1445.72 
  "/>
<path clip-path="url(#clip132)" d="
M2119.68 1444.01 L2119.68 1445.72 L2147.88 1445.72 L2147.88 1444.01 L2119.68 1444.01 L2119.68 1444.01  Z
  " fill="#009af9" fill-rule="evenodd" fill-opacity="1"/>
<polyline clip-path="url(#clip132)" style="stroke:#000000; stroke-width:4; stroke-opacity:1; fill:none" points="
  2119.68,1444.01 2119.68,1445.72 2147.88,1445.72 2147.88,1444.01 2119.68,1444.01 
  "/>
<path clip-path="url(#clip132)" d="
M2147.88 1445.72 L2147.88 1445.72 L2176.09 1445.72 L2176.09 1445.72 L2147.88 1445.72 L2147.88 1445.72  Z
  " fill="#009af9" fill-rule="evenodd" fill-opacity="1"/>
<polyline clip-path="url(#clip132)" style="stroke:#000000; stroke-width:4; stroke-opacity:1; fill:none" points="
  2147.88,1445.72 2147.88,1445.72 2176.09,1445.72 2147.88,1445.72 
  "/>
<path clip-path="url(#clip132)" d="
M2176.09 1445.72 L2176.09 1445.72 L2204.29 1445.72 L2204.29 1445.72 L2176.09 1445.72 L2176.09 1445.72  Z
  " fill="#009af9" fill-rule="evenodd" fill-opacity="1"/>
<polyline clip-path="url(#clip132)" style="stroke:#000000; stroke-width:4; stroke-opacity:1; fill:none" points="
  2176.09,1445.72 2176.09,1445.72 2204.29,1445.72 2176.09,1445.72 
  "/>
<path clip-path="url(#clip132)" d="
M2204.29 1444.01 L2204.29 1445.72 L2232.49 1445.72 L2232.49 1444.01 L2204.29 1444.01 L2204.29 1444.01  Z
  " fill="#009af9" fill-rule="evenodd" fill-opacity="1"/>
<polyline clip-path="url(#clip132)" style="stroke:#000000; stroke-width:4; stroke-opacity:1; fill:none" points="
  2204.29,1444.01 2204.29,1445.72 2232.49,1445.72 2232.49,1444.01 2204.29,1444.01 
  "/>
<path clip-path="url(#clip130)" d="
M1989.74 251.724 L2280.76 251.724 L2280.76 130.764 L1989.74 130.764  Z
  " fill="#ffffff" fill-rule="evenodd" fill-opacity="1"/>
<polyline clip-path="url(#clip130)" style="stroke:#000000; stroke-width:4; stroke-opacity:1; fill:none" points="
  1989.74,251.724 2280.76,251.724 2280.76,130.764 1989.74,130.764 1989.74,251.724 
  "/>
<path clip-path="url(#clip130)" d="
M2013.74 215.436 L2157.74 215.436 L2157.74 167.052 L2013.74 167.052 L2013.74 215.436  Z
  " fill="#009af9" fill-rule="evenodd" fill-opacity="1"/>
<polyline clip-path="url(#clip130)" style="stroke:#000000; stroke-width:4; stroke-opacity:1; fill:none" points="
  2013.74,215.436 2157.74,215.436 2157.74,167.052 2013.74,167.052 2013.74,215.436 
  "/>
<path clip-path="url(#clip130)" d="M 0 0 M2195.58 210.931 Q2193.77 215.561 2192.06 216.973 Q2190.35 218.385 2187.48 218.385 L2184.08 218.385 L2184.08 214.82 L2186.58 214.82 Q2188.33 214.82 2189.31 213.987 Q2190.28 213.154 2191.46 210.052 L2192.22 208.107 L2181.74 182.598 L2186.25 182.598 L2194.35 202.876 L2202.46 182.598 L2206.97 182.598 L2195.58 210.931 Z" fill="#000000" fill-rule="evenodd" fill-opacity="1" /><path clip-path="url(#clip130)" d="M 0 0 M2212.85 204.589 L2220.49 204.589 L2220.49 178.223 L2212.18 179.89 L2212.18 175.631 L2220.44 173.964 L2225.12 173.964 L2225.12 204.589 L2232.76 204.589 L2232.76 208.524 L2212.85 208.524 L2212.85 204.589 Z" fill="#000000" fill-rule="evenodd" fill-opacity="1" /></svg>
