<?xml version="1.0" encoding="utf-8"?>
<svg xmlns="http://www.w3.org/2000/svg" xmlns:xlink="http://www.w3.org/1999/xlink" width="600" height="400" viewBox="0 0 2400 1600">
<defs>
  <clipPath id="clip000">
    <rect x="0" y="0" width="2400" height="1600"/>
  </clipPath>
</defs>
<path clip-path="url(#clip000)" d="
M0 1600 L2400 1600 L2400 0 L0 0  Z
  " fill="#ffffff" fill-rule="evenodd" fill-opacity="1"/>
<defs>
  <clipPath id="clip001">
    <rect x="480" y="0" width="1681" height="1600"/>
  </clipPath>
</defs>
<path clip-path="url(#clip000)" d="
M166.205 1486.45 L2352.76 1486.45 L2352.76 47.2441 L166.205 47.2441  Z
  " fill="#ffffff" fill-rule="evenodd" fill-opacity="1"/>
<defs>
  <clipPath id="clip002">
    <rect x="166" y="47" width="2188" height="1440"/>
  </clipPath>
</defs>
<polyline clip-path="url(#clip002)" style="stroke:#000000; stroke-width:2; stroke-opacity:0.1; fill:none" points="
  444.255,1486.45 444.255,47.2441 
  "/>
<polyline clip-path="url(#clip002)" style="stroke:#000000; stroke-width:2; stroke-opacity:0.1; fill:none" points="
  838.719,1486.45 838.719,47.2441 
  "/>
<polyline clip-path="url(#clip002)" style="stroke:#000000; stroke-width:2; stroke-opacity:0.1; fill:none" points="
  1233.18,1486.45 1233.18,47.2441 
  "/>
<polyline clip-path="url(#clip002)" style="stroke:#000000; stroke-width:2; stroke-opacity:0.1; fill:none" points="
  1627.65,1486.45 1627.65,47.2441 
  "/>
<polyline clip-path="url(#clip002)" style="stroke:#000000; stroke-width:2; stroke-opacity:0.1; fill:none" points="
  2022.11,1486.45 2022.11,47.2441 
  "/>
<polyline clip-path="url(#clip002)" style="stroke:#000000; stroke-width:2; stroke-opacity:0.1; fill:none" points="
  166.205,1445.72 2352.76,1445.72 
  "/>
<polyline clip-path="url(#clip002)" style="stroke:#000000; stroke-width:2; stroke-opacity:0.1; fill:none" points="
  166.205,1083.17 2352.76,1083.17 
  "/>
<polyline clip-path="url(#clip002)" style="stroke:#000000; stroke-width:2; stroke-opacity:0.1; fill:none" points="
  166.205,720.621 2352.76,720.621 
  "/>
<polyline clip-path="url(#clip002)" style="stroke:#000000; stroke-width:2; stroke-opacity:0.1; fill:none" points="
  166.205,358.074 2352.76,358.074 
  "/>
<polyline clip-path="url(#clip000)" style="stroke:#000000; stroke-width:4; stroke-opacity:1; fill:none" points="
  166.205,1486.45 2352.76,1486.45 
  "/>
<polyline clip-path="url(#clip000)" style="stroke:#000000; stroke-width:4; stroke-opacity:1; fill:none" points="
  166.205,1486.45 166.205,47.2441 
  "/>
<polyline clip-path="url(#clip000)" style="stroke:#000000; stroke-width:4; stroke-opacity:1; fill:none" points="
  444.255,1486.45 444.255,1469.18 
  "/>
<polyline clip-path="url(#clip000)" style="stroke:#000000; stroke-width:4; stroke-opacity:1; fill:none" points="
  838.719,1486.45 838.719,1469.18 
  "/>
<polyline clip-path="url(#clip000)" style="stroke:#000000; stroke-width:4; stroke-opacity:1; fill:none" points="
  1233.18,1486.45 1233.18,1469.18 
  "/>
<polyline clip-path="url(#clip000)" style="stroke:#000000; stroke-width:4; stroke-opacity:1; fill:none" points="
  1627.65,1486.45 1627.65,1469.18 
  "/>
<polyline clip-path="url(#clip000)" style="stroke:#000000; stroke-width:4; stroke-opacity:1; fill:none" points="
  2022.11,1486.45 2022.11,1469.18 
  "/>
<polyline clip-path="url(#clip000)" style="stroke:#000000; stroke-width:4; stroke-opacity:1; fill:none" points="
  166.205,1445.72 192.443,1445.72 
  "/>
<polyline clip-path="url(#clip000)" style="stroke:#000000; stroke-width:4; stroke-opacity:1; fill:none" points="
  166.205,1083.17 192.443,1083.17 
  "/>
<polyline clip-path="url(#clip000)" style="stroke:#000000; stroke-width:4; stroke-opacity:1; fill:none" points="
  166.205,720.621 192.443,720.621 
  "/>
<polyline clip-path="url(#clip000)" style="stroke:#000000; stroke-width:4; stroke-opacity:1; fill:none" points="
  166.205,358.074 192.443,358.074 
  "/>
<path clip-path="url(#clip000)" d="M 0 0 M424.428 1525.04 L436.905 1525.04 L436.905 1528.83 L424.428 1528.83 L424.428 1525.04 Z" fill="#000000" fill-rule="evenodd" fill-opacity="1" /><path clip-path="url(#clip000)" d="M 0 0 M452.553 1520.78 Q449.405 1520.78 447.553 1522.93 Q445.724 1525.08 445.724 1528.83 Q445.724 1532.56 447.553 1534.73 Q449.405 1536.89 452.553 1536.89 Q455.701 1536.89 457.53 1534.73 Q459.382 1532.56 459.382 1528.83 Q459.382 1525.08 457.53 1522.93 Q455.701 1520.78 452.553 1520.78 M461.835 1506.12 L461.835 1510.38 Q460.076 1509.55 458.271 1509.11 Q456.488 1508.67 454.729 1508.67 Q450.099 1508.67 447.646 1511.8 Q445.215 1514.92 444.868 1521.24 Q446.234 1519.23 448.294 1518.16 Q450.354 1517.07 452.831 1517.07 Q458.039 1517.07 461.048 1520.24 Q464.081 1523.39 464.081 1528.83 Q464.081 1534.16 460.933 1537.37 Q457.785 1540.59 452.553 1540.59 Q446.558 1540.59 443.386 1536.01 Q440.215 1531.4 440.215 1522.67 Q440.215 1514.48 444.104 1509.62 Q447.993 1504.73 454.544 1504.73 Q456.303 1504.73 458.085 1505.08 Q459.891 1505.43 461.835 1506.12 Z" fill="#000000" fill-rule="evenodd" fill-opacity="1" /><path clip-path="url(#clip000)" d="M 0 0 M819.297 1525.04 L831.774 1525.04 L831.774 1528.83 L819.297 1528.83 L819.297 1525.04 Z" fill="#000000" fill-rule="evenodd" fill-opacity="1" /><path clip-path="url(#clip000)" d="M 0 0 M851.01 1521.29 Q854.367 1522 856.242 1524.27 Q858.14 1526.54 858.14 1529.87 Q858.14 1534.99 854.621 1537.79 Q851.103 1540.59 844.621 1540.59 Q842.445 1540.59 840.131 1540.15 Q837.839 1539.73 835.385 1538.88 L835.385 1534.36 Q837.33 1535.5 839.645 1536.08 Q841.959 1536.66 844.482 1536.66 Q848.881 1536.66 851.172 1534.92 Q853.487 1533.18 853.487 1529.87 Q853.487 1526.82 851.334 1525.11 Q849.205 1523.37 845.385 1523.37 L841.357 1523.37 L841.357 1519.53 L845.57 1519.53 Q849.019 1519.53 850.848 1518.16 Q852.677 1516.77 852.677 1514.18 Q852.677 1511.52 850.779 1510.11 Q848.904 1508.67 845.385 1508.67 Q843.464 1508.67 841.265 1509.09 Q839.066 1509.5 836.427 1510.38 L836.427 1506.22 Q839.089 1505.48 841.404 1505.11 Q843.742 1504.73 845.802 1504.73 Q851.126 1504.73 854.228 1507.17 Q857.33 1509.57 857.33 1513.69 Q857.33 1516.56 855.686 1518.55 Q854.043 1520.52 851.01 1521.29 Z" fill="#000000" fill-rule="evenodd" fill-opacity="1" /><path clip-path="url(#clip000)" d="M 0 0 M1233.18 1508.44 Q1229.57 1508.44 1227.74 1512 Q1225.94 1515.55 1225.94 1522.67 Q1225.94 1529.78 1227.74 1533.35 Q1229.57 1536.89 1233.18 1536.89 Q1236.82 1536.89 1238.62 1533.35 Q1240.45 1529.78 1240.45 1522.67 Q1240.45 1515.55 1238.62 1512 Q1236.82 1508.44 1233.18 1508.44 M1233.18 1504.73 Q1238.99 1504.73 1242.05 1509.34 Q1245.13 1513.92 1245.13 1522.67 Q1245.13 1531.4 1242.05 1536.01 Q1238.99 1540.59 1233.18 1540.59 Q1227.37 1540.59 1224.29 1536.01 Q1221.24 1531.4 1221.24 1522.67 Q1221.24 1513.92 1224.29 1509.34 Q1227.37 1504.73 1233.18 1504.73 Z" fill="#000000" fill-rule="evenodd" fill-opacity="1" /><path clip-path="url(#clip000)" d="M 0 0 M1631.89 1521.29 Q1635.25 1522 1637.13 1524.27 Q1639.02 1526.54 1639.02 1529.87 Q1639.02 1534.99 1635.51 1537.79 Q1631.99 1540.59 1625.51 1540.59 Q1623.33 1540.59 1621.01 1540.15 Q1618.72 1539.73 1616.27 1538.88 L1616.27 1534.36 Q1618.21 1535.5 1620.53 1536.08 Q1622.84 1536.66 1625.37 1536.66 Q1629.76 1536.66 1632.06 1534.92 Q1634.37 1533.18 1634.37 1529.87 Q1634.37 1526.82 1632.22 1525.11 Q1630.09 1523.37 1626.27 1523.37 L1622.24 1523.37 L1622.24 1519.53 L1626.45 1519.53 Q1629.9 1519.53 1631.73 1518.16 Q1633.56 1516.77 1633.56 1514.18 Q1633.56 1511.52 1631.66 1510.11 Q1629.79 1508.67 1626.27 1508.67 Q1624.35 1508.67 1622.15 1509.09 Q1619.95 1509.5 1617.31 1510.38 L1617.31 1506.22 Q1619.97 1505.48 1622.29 1505.11 Q1624.63 1504.73 1626.69 1504.73 Q1632.01 1504.73 1635.11 1507.17 Q1638.21 1509.57 1638.21 1513.69 Q1638.21 1516.56 1636.57 1518.55 Q1634.93 1520.52 1631.89 1521.29 Z" fill="#000000" fill-rule="evenodd" fill-opacity="1" /><path clip-path="url(#clip000)" d="M 0 0 M2022.52 1520.78 Q2019.37 1520.78 2017.52 1522.93 Q2015.69 1525.08 2015.69 1528.83 Q2015.69 1532.56 2017.52 1534.73 Q2019.37 1536.89 2022.52 1536.89 Q2025.66 1536.89 2027.49 1534.73 Q2029.34 1532.56 2029.34 1528.83 Q2029.34 1525.08 2027.49 1522.93 Q2025.66 1520.78 2022.52 1520.78 M2031.8 1506.12 L2031.8 1510.38 Q2030.04 1509.55 2028.23 1509.11 Q2026.45 1508.67 2024.69 1508.67 Q2020.06 1508.67 2017.61 1511.8 Q2015.18 1514.92 2014.83 1521.24 Q2016.2 1519.23 2018.26 1518.16 Q2020.32 1517.07 2022.79 1517.07 Q2028 1517.07 2031.01 1520.24 Q2034.04 1523.39 2034.04 1528.83 Q2034.04 1534.16 2030.9 1537.37 Q2027.75 1540.59 2022.52 1540.59 Q2016.52 1540.59 2013.35 1536.01 Q2010.18 1531.4 2010.18 1522.67 Q2010.18 1514.48 2014.07 1509.62 Q2017.96 1504.73 2024.51 1504.73 Q2026.27 1504.73 2028.05 1505.08 Q2029.85 1505.43 2031.8 1506.12 Z" fill="#000000" fill-rule="evenodd" fill-opacity="1" /><path clip-path="url(#clip000)" d="M 0 0 M130.26 1431.51 Q126.649 1431.51 124.82 1435.08 Q123.015 1438.62 123.015 1445.75 Q123.015 1452.86 124.82 1456.42 Q126.649 1459.96 130.26 1459.96 Q133.895 1459.96 135.7 1456.42 Q137.529 1452.86 137.529 1445.75 Q137.529 1438.62 135.7 1435.08 Q133.895 1431.51 130.26 1431.51 M130.26 1427.81 Q136.07 1427.81 139.126 1432.42 Q142.205 1437 142.205 1445.75 Q142.205 1454.48 139.126 1459.08 Q136.07 1463.67 130.26 1463.67 Q124.45 1463.67 121.371 1459.08 Q118.316 1454.48 118.316 1445.75 Q118.316 1437 121.371 1432.42 Q124.45 1427.81 130.26 1427.81 Z" fill="#000000" fill-rule="evenodd" fill-opacity="1" /><path clip-path="url(#clip000)" d="M 0 0 M71.8578 1096.51 L88.1772 1096.51 L88.1772 1100.45 L66.2328 1100.45 L66.2328 1096.51 Q68.8949 1093.76 73.4782 1089.13 Q78.0846 1084.48 79.2652 1083.13 Q81.5105 1080.61 82.3902 1078.87 Q83.2929 1077.12 83.2929 1075.43 Q83.2929 1072.67 81.3485 1070.93 Q79.4272 1069.2 76.3254 1069.2 Q74.1263 1069.2 71.6726 1069.96 Q69.2421 1070.73 66.4643 1072.28 L66.4643 1067.56 Q69.2884 1066.42 71.7421 1065.84 Q74.1958 1065.26 76.2328 1065.26 Q81.6031 1065.26 84.7976 1067.95 Q87.992 1070.63 87.992 1075.12 Q87.992 1077.25 87.1818 1079.18 Q86.3948 1081.07 84.2883 1083.67 Q83.7096 1084.34 80.6078 1087.56 Q77.5059 1090.75 71.8578 1096.51 Z" fill="#000000" fill-rule="evenodd" fill-opacity="1" /><path clip-path="url(#clip000)" d="M 0 0 M103.247 1068.97 Q99.6354 1068.97 97.8068 1072.53 Q96.0012 1076.07 96.0012 1083.2 Q96.0012 1090.31 97.8068 1093.87 Q99.6354 1097.42 103.247 1097.42 Q106.881 1097.42 108.686 1093.87 Q110.515 1090.31 110.515 1083.2 Q110.515 1076.07 108.686 1072.53 Q106.881 1068.97 103.247 1068.97 M103.247 1065.26 Q109.057 1065.26 112.112 1069.87 Q115.191 1074.45 115.191 1083.2 Q115.191 1091.93 112.112 1096.54 Q109.057 1101.12 103.247 1101.12 Q97.4364 1101.12 94.3577 1096.54 Q91.3022 1091.93 91.3022 1083.2 Q91.3022 1074.45 94.3577 1069.87 Q97.4364 1065.26 103.247 1065.26 Z" fill="#000000" fill-rule="evenodd" fill-opacity="1" /><path clip-path="url(#clip000)" d="M 0 0 M130.26 1068.97 Q126.649 1068.97 124.82 1072.53 Q123.015 1076.07 123.015 1083.2 Q123.015 1090.31 124.82 1093.87 Q126.649 1097.42 130.26 1097.42 Q133.895 1097.42 135.7 1093.87 Q137.529 1090.31 137.529 1083.2 Q137.529 1076.07 135.7 1072.53 Q133.895 1068.97 130.26 1068.97 M130.26 1065.26 Q136.07 1065.26 139.126 1069.87 Q142.205 1074.45 142.205 1083.2 Q142.205 1091.93 139.126 1096.54 Q136.07 1101.12 130.26 1101.12 Q124.45 1101.12 121.371 1096.54 Q118.316 1091.93 118.316 1083.2 Q118.316 1074.45 121.371 1069.87 Q124.45 1065.26 130.26 1065.26 Z" fill="#000000" fill-rule="evenodd" fill-opacity="1" /><path clip-path="url(#clip000)" d="M 0 0 M78.5939 707.415 L66.7884 725.864 L78.5939 725.864 L78.5939 707.415 M77.367 703.341 L83.2466 703.341 L83.2466 725.864 L88.1772 725.864 L88.1772 729.753 L83.2466 729.753 L83.2466 737.901 L78.5939 737.901 L78.5939 729.753 L62.9921 729.753 L62.9921 725.239 L77.367 703.341 Z" fill="#000000" fill-rule="evenodd" fill-opacity="1" /><path clip-path="url(#clip000)" d="M 0 0 M103.247 706.42 Q99.6354 706.42 97.8068 709.985 Q96.0012 713.526 96.0012 720.656 Q96.0012 727.762 97.8068 731.327 Q99.6354 734.869 103.247 734.869 Q106.881 734.869 108.686 731.327 Q110.515 727.762 110.515 720.656 Q110.515 713.526 108.686 709.985 Q106.881 706.42 103.247 706.42 M103.247 702.716 Q109.057 702.716 112.112 707.323 Q115.191 711.906 115.191 720.656 Q115.191 729.383 112.112 733.989 Q109.057 738.573 103.247 738.573 Q97.4364 738.573 94.3577 733.989 Q91.3022 729.383 91.3022 720.656 Q91.3022 711.906 94.3577 707.323 Q97.4364 702.716 103.247 702.716 Z" fill="#000000" fill-rule="evenodd" fill-opacity="1" /><path clip-path="url(#clip000)" d="M 0 0 M130.26 706.42 Q126.649 706.42 124.82 709.985 Q123.015 713.526 123.015 720.656 Q123.015 727.762 124.82 731.327 Q126.649 734.869 130.26 734.869 Q133.895 734.869 135.7 731.327 Q137.529 727.762 137.529 720.656 Q137.529 713.526 135.7 709.985 Q133.895 706.42 130.26 706.42 M130.26 702.716 Q136.07 702.716 139.126 707.323 Q142.205 711.906 142.205 720.656 Q142.205 729.383 139.126 733.989 Q136.07 738.573 130.26 738.573 Q124.45 738.573 121.371 733.989 Q118.316 729.383 118.316 720.656 Q118.316 711.906 121.371 707.323 Q124.45 702.716 130.26 702.716 Z" fill="#000000" fill-rule="evenodd" fill-opacity="1" /><path clip-path="url(#clip000)" d="M 0 0 M76.6495 356.211 Q73.5013 356.211 71.6495 358.363 Q69.8208 360.516 69.8208 364.266 Q69.8208 367.993 71.6495 370.169 Q73.5013 372.322 76.6495 372.322 Q79.7976 372.322 81.6263 370.169 Q83.4781 367.993 83.4781 364.266 Q83.4781 360.516 81.6263 358.363 Q79.7976 356.211 76.6495 356.211 M85.9318 341.558 L85.9318 345.817 Q84.1726 344.984 82.367 344.544 Q80.5846 344.104 78.8254 344.104 Q74.1958 344.104 71.7421 347.229 Q69.3115 350.354 68.9643 356.674 Q70.33 354.66 72.3902 353.595 Q74.4504 352.507 76.9272 352.507 Q82.1355 352.507 85.1448 355.678 Q88.1772 358.826 88.1772 364.266 Q88.1772 369.59 85.029 372.808 Q81.8809 376.025 76.6495 376.025 Q70.6541 376.025 67.4828 371.442 Q64.3116 366.835 64.3116 358.109 Q64.3116 349.914 68.2004 345.053 Q72.0893 340.169 78.6402 340.169 Q80.3994 340.169 82.1818 340.516 Q83.9874 340.863 85.9318 341.558 Z" fill="#000000" fill-rule="evenodd" fill-opacity="1" /><path clip-path="url(#clip000)" d="M 0 0 M103.247 343.873 Q99.6354 343.873 97.8068 347.437 Q96.0012 350.979 96.0012 358.109 Q96.0012 365.215 97.8068 368.78 Q99.6354 372.322 103.247 372.322 Q106.881 372.322 108.686 368.78 Q110.515 365.215 110.515 358.109 Q110.515 350.979 108.686 347.437 Q106.881 343.873 103.247 343.873 M103.247 340.169 Q109.057 340.169 112.112 344.775 Q115.191 349.359 115.191 358.109 Q115.191 366.835 112.112 371.442 Q109.057 376.025 103.247 376.025 Q97.4364 376.025 94.3577 371.442 Q91.3022 366.835 91.3022 358.109 Q91.3022 349.359 94.3577 344.775 Q97.4364 340.169 103.247 340.169 Z" fill="#000000" fill-rule="evenodd" fill-opacity="1" /><path clip-path="url(#clip000)" d="M 0 0 M130.26 343.873 Q126.649 343.873 124.82 347.437 Q123.015 350.979 123.015 358.109 Q123.015 365.215 124.82 368.78 Q126.649 372.322 130.26 372.322 Q133.895 372.322 135.7 368.78 Q137.529 365.215 137.529 358.109 Q137.529 350.979 135.7 347.437 Q133.895 343.873 130.26 343.873 M130.26 340.169 Q136.07 340.169 139.126 344.775 Q142.205 349.359 142.205 358.109 Q142.205 366.835 139.126 371.442 Q136.07 376.025 130.26 376.025 Q124.45 376.025 121.371 371.442 Q118.316 366.835 118.316 358.109 Q118.316 349.359 121.371 344.775 Q124.45 340.169 130.26 340.169 Z" fill="#000000" fill-rule="evenodd" fill-opacity="1" /><path clip-path="url(#clip002)" d="
M286.469 1443.9 L286.469 1445.72 L312.766 1445.72 L312.766 1443.9 L286.469 1443.9 L286.469 1443.9  Z
  " fill="#009af9" fill-rule="evenodd" fill-opacity="1"/>
<polyline clip-path="url(#clip002)" style="stroke:#000000; stroke-width:4; stroke-opacity:1; fill:none" points="
  286.469,1443.9 286.469,1445.72 312.766,1445.72 312.766,1443.9 286.469,1443.9 
  "/>
<path clip-path="url(#clip002)" d="
M312.766 1443.9 L312.766 1445.72 L339.064 1445.72 L339.064 1443.9 L312.766 1443.9 L312.766 1443.9  Z
  " fill="#009af9" fill-rule="evenodd" fill-opacity="1"/>
<polyline clip-path="url(#clip002)" style="stroke:#000000; stroke-width:4; stroke-opacity:1; fill:none" points="
  312.766,1443.9 312.766,1445.72 339.064,1445.72 339.064,1443.9 312.766,1443.9 
  "/>
<path clip-path="url(#clip002)" d="
M339.064 1445.72 L339.064 1445.72 L365.362 1445.72 L365.362 1445.72 L339.064 1445.72 L339.064 1445.72  Z
  " fill="#009af9" fill-rule="evenodd" fill-opacity="1"/>
<polyline clip-path="url(#clip002)" style="stroke:#000000; stroke-width:4; stroke-opacity:1; fill:none" points="
  339.064,1445.72 339.064,1445.72 365.362,1445.72 339.064,1445.72 
  "/>
<path clip-path="url(#clip002)" d="
M365.362 1445.72 L365.362 1445.72 L391.659 1445.72 L391.659 1445.72 L365.362 1445.72 L365.362 1445.72  Z
  " fill="#009af9" fill-rule="evenodd" fill-opacity="1"/>
<polyline clip-path="url(#clip002)" style="stroke:#000000; stroke-width:4; stroke-opacity:1; fill:none" points="
  365.362,1445.72 365.362,1445.72 391.659,1445.72 365.362,1445.72 
  "/>
<path clip-path="url(#clip002)" d="
M391.659 1443.9 L391.659 1445.72 L417.957 1445.72 L417.957 1443.9 L391.659 1443.9 L391.659 1443.9  Z
  " fill="#009af9" fill-rule="evenodd" fill-opacity="1"/>
<polyline clip-path="url(#clip002)" style="stroke:#000000; stroke-width:4; stroke-opacity:1; fill:none" points="
  391.659,1443.9 391.659,1445.72 417.957,1445.72 417.957,1443.9 391.659,1443.9 
  "/>
<path clip-path="url(#clip002)" d="
M417.957 1445.72 L417.957 1445.72 L444.255 1445.72 L444.255 1445.72 L417.957 1445.72 L417.957 1445.72  Z
  " fill="#009af9" fill-rule="evenodd" fill-opacity="1"/>
<polyline clip-path="url(#clip002)" style="stroke:#000000; stroke-width:4; stroke-opacity:1; fill:none" points="
  417.957,1445.72 417.957,1445.72 444.255,1445.72 417.957,1445.72 
  "/>
<path clip-path="url(#clip002)" d="
M444.255 1443.9 L444.255 1445.72 L470.552 1445.72 L470.552 1443.9 L444.255 1443.9 L444.255 1443.9  Z
  " fill="#009af9" fill-rule="evenodd" fill-opacity="1"/>
<polyline clip-path="url(#clip002)" style="stroke:#000000; stroke-width:4; stroke-opacity:1; fill:none" points="
  444.255,1443.9 444.255,1445.72 470.552,1445.72 470.552,1443.9 444.255,1443.9 
  "/>
<path clip-path="url(#clip002)" d="
M470.552 1443.9 L470.552 1445.72 L496.85 1445.72 L496.85 1443.9 L470.552 1443.9 L470.552 1443.9  Z
  " fill="#009af9" fill-rule="evenodd" fill-opacity="1"/>
<polyline clip-path="url(#clip002)" style="stroke:#000000; stroke-width:4; stroke-opacity:1; fill:none" points="
  470.552,1443.9 470.552,1445.72 496.85,1445.72 496.85,1443.9 470.552,1443.9 
  "/>
<path clip-path="url(#clip002)" d="
M496.85 1443.9 L496.85 1445.72 L523.147 1445.72 L523.147 1443.9 L496.85 1443.9 L496.85 1443.9  Z
  " fill="#009af9" fill-rule="evenodd" fill-opacity="1"/>
<polyline clip-path="url(#clip002)" style="stroke:#000000; stroke-width:4; stroke-opacity:1; fill:none" points="
  496.85,1443.9 496.85,1445.72 523.147,1445.72 523.147,1443.9 496.85,1443.9 
  "/>
<path clip-path="url(#clip002)" d="
M523.147 1438.46 L523.147 1445.72 L549.445 1445.72 L549.445 1438.46 L523.147 1438.46 L523.147 1438.46  Z
  " fill="#009af9" fill-rule="evenodd" fill-opacity="1"/>
<polyline clip-path="url(#clip002)" style="stroke:#000000; stroke-width:4; stroke-opacity:1; fill:none" points="
  523.147,1438.46 523.147,1445.72 549.445,1445.72 549.445,1438.46 523.147,1438.46 
  "/>
<path clip-path="url(#clip002)" d="
M549.445 1438.46 L549.445 1445.72 L575.743 1445.72 L575.743 1438.46 L549.445 1438.46 L549.445 1438.46  Z
  " fill="#009af9" fill-rule="evenodd" fill-opacity="1"/>
<polyline clip-path="url(#clip002)" style="stroke:#000000; stroke-width:4; stroke-opacity:1; fill:none" points="
  549.445,1438.46 549.445,1445.72 575.743,1445.72 575.743,1438.46 549.445,1438.46 
  "/>
<path clip-path="url(#clip002)" d="
M575.743 1427.59 L575.743 1445.72 L602.04 1445.72 L602.04 1427.59 L575.743 1427.59 L575.743 1427.59  Z
  " fill="#009af9" fill-rule="evenodd" fill-opacity="1"/>
<polyline clip-path="url(#clip002)" style="stroke:#000000; stroke-width:4; stroke-opacity:1; fill:none" points="
  575.743,1427.59 575.743,1445.72 602.04,1445.72 602.04,1427.59 575.743,1427.59 
  "/>
<path clip-path="url(#clip002)" d="
M602.04 1434.84 L602.04 1445.72 L628.338 1445.72 L628.338 1434.84 L602.04 1434.84 L602.04 1434.84  Z
  " fill="#009af9" fill-rule="evenodd" fill-opacity="1"/>
<polyline clip-path="url(#clip002)" style="stroke:#000000; stroke-width:4; stroke-opacity:1; fill:none" points="
  602.04,1434.84 602.04,1445.72 628.338,1445.72 628.338,1434.84 602.04,1434.84 
  "/>
<path clip-path="url(#clip002)" d="
M628.338 1433.03 L628.338 1445.72 L654.635 1445.72 L654.635 1433.03 L628.338 1433.03 L628.338 1433.03  Z
  " fill="#009af9" fill-rule="evenodd" fill-opacity="1"/>
<polyline clip-path="url(#clip002)" style="stroke:#000000; stroke-width:4; stroke-opacity:1; fill:none" points="
  628.338,1433.03 628.338,1445.72 654.635,1445.72 654.635,1433.03 628.338,1433.03 
  "/>
<path clip-path="url(#clip002)" d="
M654.635 1433.03 L654.635 1445.72 L680.933 1445.72 L680.933 1433.03 L654.635 1433.03 L654.635 1433.03  Z
  " fill="#009af9" fill-rule="evenodd" fill-opacity="1"/>
<polyline clip-path="url(#clip002)" style="stroke:#000000; stroke-width:4; stroke-opacity:1; fill:none" points="
  654.635,1433.03 654.635,1445.72 680.933,1445.72 680.933,1433.03 654.635,1433.03 
  "/>
<path clip-path="url(#clip002)" d="
M680.933 1418.52 L680.933 1445.72 L707.231 1445.72 L707.231 1418.52 L680.933 1418.52 L680.933 1418.52  Z
  " fill="#009af9" fill-rule="evenodd" fill-opacity="1"/>
<polyline clip-path="url(#clip002)" style="stroke:#000000; stroke-width:4; stroke-opacity:1; fill:none" points="
  680.933,1418.52 680.933,1445.72 707.231,1445.72 707.231,1418.52 680.933,1418.52 
  "/>
<path clip-path="url(#clip002)" d="
M707.231 1411.27 L707.231 1445.72 L733.528 1445.72 L733.528 1411.27 L707.231 1411.27 L707.231 1411.27  Z
  " fill="#009af9" fill-rule="evenodd" fill-opacity="1"/>
<polyline clip-path="url(#clip002)" style="stroke:#000000; stroke-width:4; stroke-opacity:1; fill:none" points="
  707.231,1411.27 707.231,1445.72 733.528,1445.72 733.528,1411.27 707.231,1411.27 
  "/>
<path clip-path="url(#clip002)" d="
M733.528 1422.15 L733.528 1445.72 L759.826 1445.72 L759.826 1422.15 L733.528 1422.15 L733.528 1422.15  Z
  " fill="#009af9" fill-rule="evenodd" fill-opacity="1"/>
<polyline clip-path="url(#clip002)" style="stroke:#000000; stroke-width:4; stroke-opacity:1; fill:none" points="
  733.528,1422.15 733.528,1445.72 759.826,1445.72 759.826,1422.15 733.528,1422.15 
  "/>
<path clip-path="url(#clip002)" d="
M759.826 1393.15 L759.826 1445.72 L786.123 1445.72 L786.123 1393.15 L759.826 1393.15 L759.826 1393.15  Z
  " fill="#009af9" fill-rule="evenodd" fill-opacity="1"/>
<polyline clip-path="url(#clip002)" style="stroke:#000000; stroke-width:4; stroke-opacity:1; fill:none" points="
  759.826,1393.15 759.826,1445.72 786.123,1445.72 786.123,1393.15 759.826,1393.15 
  "/>
<path clip-path="url(#clip002)" d="
M786.123 1387.71 L786.123 1445.72 L812.421 1445.72 L812.421 1387.71 L786.123 1387.71 L786.123 1387.71  Z
  " fill="#009af9" fill-rule="evenodd" fill-opacity="1"/>
<polyline clip-path="url(#clip002)" style="stroke:#000000; stroke-width:4; stroke-opacity:1; fill:none" points="
  786.123,1387.71 786.123,1445.72 812.421,1445.72 812.421,1387.71 786.123,1387.71 
  "/>
<path clip-path="url(#clip002)" d="
M812.421 1362.33 L812.421 1445.72 L838.719 1445.72 L838.719 1362.33 L812.421 1362.33 L812.421 1362.33  Z
  " fill="#009af9" fill-rule="evenodd" fill-opacity="1"/>
<polyline clip-path="url(#clip002)" style="stroke:#000000; stroke-width:4; stroke-opacity:1; fill:none" points="
  812.421,1362.33 812.421,1445.72 838.719,1445.72 838.719,1362.33 812.421,1362.33 
  "/>
<path clip-path="url(#clip002)" d="
M838.719 1380.46 L838.719 1445.72 L865.016 1445.72 L865.016 1380.46 L838.719 1380.46 L838.719 1380.46  Z
  " fill="#009af9" fill-rule="evenodd" fill-opacity="1"/>
<polyline clip-path="url(#clip002)" style="stroke:#000000; stroke-width:4; stroke-opacity:1; fill:none" points="
  838.719,1380.46 838.719,1445.72 865.016,1445.72 865.016,1380.46 838.719,1380.46 
  "/>
<path clip-path="url(#clip002)" d="
M865.016 1371.39 L865.016 1445.72 L891.314 1445.72 L891.314 1371.39 L865.016 1371.39 L865.016 1371.39  Z
  " fill="#009af9" fill-rule="evenodd" fill-opacity="1"/>
<polyline clip-path="url(#clip002)" style="stroke:#000000; stroke-width:4; stroke-opacity:1; fill:none" points="
  865.016,1371.39 865.016,1445.72 891.314,1445.72 891.314,1371.39 865.016,1371.39 
  "/>
<path clip-path="url(#clip002)" d="
M891.314 1320.64 L891.314 1445.72 L917.611 1445.72 L917.611 1320.64 L891.314 1320.64 L891.314 1320.64  Z
  " fill="#009af9" fill-rule="evenodd" fill-opacity="1"/>
<polyline clip-path="url(#clip002)" style="stroke:#000000; stroke-width:4; stroke-opacity:1; fill:none" points="
  891.314,1320.64 891.314,1445.72 917.611,1445.72 917.611,1320.64 891.314,1320.64 
  "/>
<path clip-path="url(#clip002)" d="
M917.611 1336.95 L917.611 1445.72 L943.909 1445.72 L943.909 1336.95 L917.611 1336.95 L917.611 1336.95  Z
  " fill="#009af9" fill-rule="evenodd" fill-opacity="1"/>
<polyline clip-path="url(#clip002)" style="stroke:#000000; stroke-width:4; stroke-opacity:1; fill:none" points="
  917.611,1336.95 917.611,1445.72 943.909,1445.72 943.909,1336.95 917.611,1336.95 
  "/>
<path clip-path="url(#clip002)" d="
M943.909 1288.01 L943.909 1445.72 L970.207 1445.72 L970.207 1288.01 L943.909 1288.01 L943.909 1288.01  Z
  " fill="#009af9" fill-rule="evenodd" fill-opacity="1"/>
<polyline clip-path="url(#clip002)" style="stroke:#000000; stroke-width:4; stroke-opacity:1; fill:none" points="
  943.909,1288.01 943.909,1445.72 970.207,1445.72 970.207,1288.01 943.909,1288.01 
  "/>
<path clip-path="url(#clip002)" d="
M970.207 1320.64 L970.207 1445.72 L996.504 1445.72 L996.504 1320.64 L970.207 1320.64 L970.207 1320.64  Z
  " fill="#009af9" fill-rule="evenodd" fill-opacity="1"/>
<polyline clip-path="url(#clip002)" style="stroke:#000000; stroke-width:4; stroke-opacity:1; fill:none" points="
  970.207,1320.64 970.207,1445.72 996.504,1445.72 996.504,1320.64 970.207,1320.64 
  "/>
<path clip-path="url(#clip002)" d="
M996.504 1320.64 L996.504 1445.72 L1022.8 1445.72 L1022.8 1320.64 L996.504 1320.64 L996.504 1320.64  Z
  " fill="#009af9" fill-rule="evenodd" fill-opacity="1"/>
<polyline clip-path="url(#clip002)" style="stroke:#000000; stroke-width:4; stroke-opacity:1; fill:none" points="
  996.504,1320.64 996.504,1445.72 1022.8,1445.72 1022.8,1320.64 996.504,1320.64 
  "/>
<path clip-path="url(#clip002)" d="
M1022.8 1300.7 L1022.8 1445.72 L1049.1 1445.72 L1049.1 1300.7 L1022.8 1300.7 L1022.8 1300.7  Z
  " fill="#009af9" fill-rule="evenodd" fill-opacity="1"/>
<polyline clip-path="url(#clip002)" style="stroke:#000000; stroke-width:4; stroke-opacity:1; fill:none" points="
  1022.8,1300.7 1022.8,1445.72 1049.1,1445.72 1049.1,1300.7 1022.8,1300.7 
  "/>
<path clip-path="url(#clip002)" d="
M1049.1 1246.31 L1049.1 1445.72 L1075.4 1445.72 L1075.4 1246.31 L1049.1 1246.31 L1049.1 1246.31  Z
  " fill="#009af9" fill-rule="evenodd" fill-opacity="1"/>
<polyline clip-path="url(#clip002)" style="stroke:#000000; stroke-width:4; stroke-opacity:1; fill:none" points="
  1049.1,1246.31 1049.1,1445.72 1075.4,1445.72 1075.4,1246.31 1049.1,1246.31 
  "/>
<path clip-path="url(#clip002)" d="
M1075.4 1222.75 L1075.4 1445.72 L1101.69 1445.72 L1101.69 1222.75 L1075.4 1222.75 L1075.4 1222.75  Z
  " fill="#009af9" fill-rule="evenodd" fill-opacity="1"/>
<polyline clip-path="url(#clip002)" style="stroke:#000000; stroke-width:4; stroke-opacity:1; fill:none" points="
  1075.4,1222.75 1075.4,1445.72 1101.69,1445.72 1101.69,1222.75 1075.4,1222.75 
  "/>
<path clip-path="url(#clip002)" d="
M1101.69 1244.5 L1101.69 1445.72 L1127.99 1445.72 L1127.99 1244.5 L1101.69 1244.5 L1101.69 1244.5  Z
  " fill="#009af9" fill-rule="evenodd" fill-opacity="1"/>
<polyline clip-path="url(#clip002)" style="stroke:#000000; stroke-width:4; stroke-opacity:1; fill:none" points="
  1101.69,1244.5 1101.69,1445.72 1127.99,1445.72 1127.99,1244.5 1101.69,1244.5 
  "/>
<path clip-path="url(#clip002)" d="
M1127.99 1215.5 L1127.99 1445.72 L1154.29 1445.72 L1154.29 1215.5 L1127.99 1215.5 L1127.99 1215.5  Z
  " fill="#009af9" fill-rule="evenodd" fill-opacity="1"/>
<polyline clip-path="url(#clip002)" style="stroke:#000000; stroke-width:4; stroke-opacity:1; fill:none" points="
  1127.99,1215.5 1127.99,1445.72 1154.29,1445.72 1154.29,1215.5 1127.99,1215.5 
  "/>
<path clip-path="url(#clip002)" d="
M1154.29 1262.63 L1154.29 1445.72 L1180.59 1445.72 L1180.59 1262.63 L1154.29 1262.63 L1154.29 1262.63  Z
  " fill="#009af9" fill-rule="evenodd" fill-opacity="1"/>
<polyline clip-path="url(#clip002)" style="stroke:#000000; stroke-width:4; stroke-opacity:1; fill:none" points="
  1154.29,1262.63 1154.29,1445.72 1180.59,1445.72 1180.59,1262.63 1154.29,1262.63 
  "/>
<path clip-path="url(#clip002)" d="
M1180.59 1220.94 L1180.59 1445.72 L1206.89 1445.72 L1206.89 1220.94 L1180.59 1220.94 L1180.59 1220.94  Z
  " fill="#009af9" fill-rule="evenodd" fill-opacity="1"/>
<polyline clip-path="url(#clip002)" style="stroke:#000000; stroke-width:4; stroke-opacity:1; fill:none" points="
  1180.59,1220.94 1180.59,1445.72 1206.89,1445.72 1206.89,1220.94 1180.59,1220.94 
  "/>
<path clip-path="url(#clip002)" d="
M1206.89 1235.44 L1206.89 1445.72 L1233.18 1445.72 L1233.18 1235.44 L1206.89 1235.44 L1206.89 1235.44  Z
  " fill="#009af9" fill-rule="evenodd" fill-opacity="1"/>
<polyline clip-path="url(#clip002)" style="stroke:#000000; stroke-width:4; stroke-opacity:1; fill:none" points="
  1206.89,1235.44 1206.89,1445.72 1233.18,1445.72 1233.18,1235.44 1206.89,1235.44 
  "/>
<path clip-path="url(#clip002)" d="
M1233.18 1222.75 L1233.18 1445.72 L1259.48 1445.72 L1259.48 1222.75 L1233.18 1222.75 L1233.18 1222.75  Z
  " fill="#009af9" fill-rule="evenodd" fill-opacity="1"/>
<polyline clip-path="url(#clip002)" style="stroke:#000000; stroke-width:4; stroke-opacity:1; fill:none" points="
  1233.18,1222.75 1233.18,1445.72 1259.48,1445.72 1259.48,1222.75 1233.18,1222.75 
  "/>
<path clip-path="url(#clip002)" d="
M1259.48 1195.56 L1259.48 1445.72 L1285.78 1445.72 L1285.78 1195.56 L1259.48 1195.56 L1259.48 1195.56  Z
  " fill="#009af9" fill-rule="evenodd" fill-opacity="1"/>
<polyline clip-path="url(#clip002)" style="stroke:#000000; stroke-width:4; stroke-opacity:1; fill:none" points="
  1259.48,1195.56 1259.48,1445.72 1285.78,1445.72 1285.78,1195.56 1259.48,1195.56 
  "/>
<path clip-path="url(#clip002)" d="
M1285.78 1168.37 L1285.78 1445.72 L1312.08 1445.72 L1312.08 1168.37 L1285.78 1168.37 L1285.78 1168.37  Z
  " fill="#009af9" fill-rule="evenodd" fill-opacity="1"/>
<polyline clip-path="url(#clip002)" style="stroke:#000000; stroke-width:4; stroke-opacity:1; fill:none" points="
  1285.78,1168.37 1285.78,1445.72 1312.08,1445.72 1312.08,1168.37 1285.78,1168.37 
  "/>
<path clip-path="url(#clip002)" d="
M1312.08 764.127 L1312.08 1445.72 L1338.37 1445.72 L1338.37 764.127 L1312.08 764.127 L1312.08 764.127  Z
  " fill="#009af9" fill-rule="evenodd" fill-opacity="1"/>
<polyline clip-path="url(#clip002)" style="stroke:#000000; stroke-width:4; stroke-opacity:1; fill:none" points="
  1312.08,764.127 1312.08,1445.72 1338.37,1445.72 1338.37,764.127 1312.08,764.127 
  "/>
<path clip-path="url(#clip002)" d="
M1338.37 87.9763 L1338.37 1445.72 L1364.67 1445.72 L1364.67 87.9763 L1338.37 87.9763 L1338.37 87.9763  Z
  " fill="#009af9" fill-rule="evenodd" fill-opacity="1"/>
<polyline clip-path="url(#clip002)" style="stroke:#000000; stroke-width:4; stroke-opacity:1; fill:none" points="
  1338.37,87.9763 1338.37,1445.72 1364.67,1445.72 1364.67,87.9763 1338.37,87.9763 
  "/>
<path clip-path="url(#clip002)" d="
M1364.67 93.4145 L1364.67 1445.72 L1390.97 1445.72 L1390.97 93.4145 L1364.67 93.4145 L1364.67 93.4145  Z
  " fill="#009af9" fill-rule="evenodd" fill-opacity="1"/>
<polyline clip-path="url(#clip002)" style="stroke:#000000; stroke-width:4; stroke-opacity:1; fill:none" points="
  1364.67,93.4145 1364.67,1445.72 1390.97,1445.72 1390.97,93.4145 1364.67,93.4145 
  "/>
<path clip-path="url(#clip002)" d="
M1390.97 749.625 L1390.97 1445.72 L1417.27 1445.72 L1417.27 749.625 L1390.97 749.625 L1390.97 749.625  Z
  " fill="#009af9" fill-rule="evenodd" fill-opacity="1"/>
<polyline clip-path="url(#clip002)" style="stroke:#000000; stroke-width:4; stroke-opacity:1; fill:none" points="
  1390.97,749.625 1390.97,1445.72 1417.27,1445.72 1417.27,749.625 1390.97,749.625 
  "/>
<path clip-path="url(#clip002)" d="
M1417.27 1184.68 L1417.27 1445.72 L1443.56 1445.72 L1443.56 1184.68 L1417.27 1184.68 L1417.27 1184.68  Z
  " fill="#009af9" fill-rule="evenodd" fill-opacity="1"/>
<polyline clip-path="url(#clip002)" style="stroke:#000000; stroke-width:4; stroke-opacity:1; fill:none" points="
  1417.27,1184.68 1417.27,1445.72 1443.56,1445.72 1443.56,1184.68 1417.27,1184.68 
  "/>
<path clip-path="url(#clip002)" d="
M1443.56 1273.51 L1443.56 1445.72 L1469.86 1445.72 L1469.86 1273.51 L1443.56 1273.51 L1443.56 1273.51  Z
  " fill="#009af9" fill-rule="evenodd" fill-opacity="1"/>
<polyline clip-path="url(#clip002)" style="stroke:#000000; stroke-width:4; stroke-opacity:1; fill:none" points="
  1443.56,1273.51 1443.56,1445.72 1469.86,1445.72 1469.86,1273.51 1443.56,1273.51 
  "/>
<path clip-path="url(#clip002)" d="
M1469.86 1317.01 L1469.86 1445.72 L1496.16 1445.72 L1496.16 1317.01 L1469.86 1317.01 L1469.86 1317.01  Z
  " fill="#009af9" fill-rule="evenodd" fill-opacity="1"/>
<polyline clip-path="url(#clip002)" style="stroke:#000000; stroke-width:4; stroke-opacity:1; fill:none" points="
  1469.86,1317.01 1469.86,1445.72 1496.16,1445.72 1496.16,1317.01 1469.86,1317.01 
  "/>
<path clip-path="url(#clip002)" d="
M1496.16 1297.07 L1496.16 1445.72 L1522.46 1445.72 L1522.46 1297.07 L1496.16 1297.07 L1496.16 1297.07  Z
  " fill="#009af9" fill-rule="evenodd" fill-opacity="1"/>
<polyline clip-path="url(#clip002)" style="stroke:#000000; stroke-width:4; stroke-opacity:1; fill:none" points="
  1496.16,1297.07 1496.16,1445.72 1522.46,1445.72 1522.46,1297.07 1496.16,1297.07 
  "/>
<path clip-path="url(#clip002)" d="
M1522.46 1324.26 L1522.46 1445.72 L1548.75 1445.72 L1548.75 1324.26 L1522.46 1324.26 L1522.46 1324.26  Z
  " fill="#009af9" fill-rule="evenodd" fill-opacity="1"/>
<polyline clip-path="url(#clip002)" style="stroke:#000000; stroke-width:4; stroke-opacity:1; fill:none" points="
  1522.46,1324.26 1522.46,1445.72 1548.75,1445.72 1548.75,1324.26 1522.46,1324.26 
  "/>
<path clip-path="url(#clip002)" d="
M1548.75 1333.33 L1548.75 1445.72 L1575.05 1445.72 L1575.05 1333.33 L1548.75 1333.33 L1548.75 1333.33  Z
  " fill="#009af9" fill-rule="evenodd" fill-opacity="1"/>
<polyline clip-path="url(#clip002)" style="stroke:#000000; stroke-width:4; stroke-opacity:1; fill:none" points="
  1548.75,1333.33 1548.75,1445.72 1575.05,1445.72 1575.05,1333.33 1548.75,1333.33 
  "/>
<path clip-path="url(#clip002)" d="
M1575.05 1365.96 L1575.05 1445.72 L1601.35 1445.72 L1601.35 1365.96 L1575.05 1365.96 L1575.05 1365.96  Z
  " fill="#009af9" fill-rule="evenodd" fill-opacity="1"/>
<polyline clip-path="url(#clip002)" style="stroke:#000000; stroke-width:4; stroke-opacity:1; fill:none" points="
  1575.05,1365.96 1575.05,1445.72 1601.35,1445.72 1601.35,1365.96 1575.05,1365.96 
  "/>
<path clip-path="url(#clip002)" d="
M1601.35 1385.9 L1601.35 1445.72 L1627.65 1445.72 L1627.65 1385.9 L1601.35 1385.9 L1601.35 1385.9  Z
  " fill="#009af9" fill-rule="evenodd" fill-opacity="1"/>
<polyline clip-path="url(#clip002)" style="stroke:#000000; stroke-width:4; stroke-opacity:1; fill:none" points="
  1601.35,1385.9 1601.35,1445.72 1627.65,1445.72 1627.65,1385.9 1601.35,1385.9 
  "/>
<path clip-path="url(#clip002)" d="
M1627.65 1376.83 L1627.65 1445.72 L1653.94 1445.72 L1653.94 1376.83 L1627.65 1376.83 L1627.65 1376.83  Z
  " fill="#009af9" fill-rule="evenodd" fill-opacity="1"/>
<polyline clip-path="url(#clip002)" style="stroke:#000000; stroke-width:4; stroke-opacity:1; fill:none" points="
  1627.65,1376.83 1627.65,1445.72 1653.94,1445.72 1653.94,1376.83 1627.65,1376.83 
  "/>
<path clip-path="url(#clip002)" d="
M1653.94 1391.33 L1653.94 1445.72 L1680.24 1445.72 L1680.24 1391.33 L1653.94 1391.33 L1653.94 1391.33  Z
  " fill="#009af9" fill-rule="evenodd" fill-opacity="1"/>
<polyline clip-path="url(#clip002)" style="stroke:#000000; stroke-width:4; stroke-opacity:1; fill:none" points="
  1653.94,1391.33 1653.94,1445.72 1680.24,1445.72 1680.24,1391.33 1653.94,1391.33 
  "/>
<path clip-path="url(#clip002)" d="
M1680.24 1394.96 L1680.24 1445.72 L1706.54 1445.72 L1706.54 1394.96 L1680.24 1394.96 L1680.24 1394.96  Z
  " fill="#009af9" fill-rule="evenodd" fill-opacity="1"/>
<polyline clip-path="url(#clip002)" style="stroke:#000000; stroke-width:4; stroke-opacity:1; fill:none" points="
  1680.24,1394.96 1680.24,1445.72 1706.54,1445.72 1706.54,1394.96 1680.24,1394.96 
  "/>
<path clip-path="url(#clip002)" d="
M1706.54 1413.09 L1706.54 1445.72 L1732.84 1445.72 L1732.84 1413.09 L1706.54 1413.09 L1706.54 1413.09  Z
  " fill="#009af9" fill-rule="evenodd" fill-opacity="1"/>
<polyline clip-path="url(#clip002)" style="stroke:#000000; stroke-width:4; stroke-opacity:1; fill:none" points="
  1706.54,1413.09 1706.54,1445.72 1732.84,1445.72 1732.84,1413.09 1706.54,1413.09 
  "/>
<path clip-path="url(#clip002)" d="
M1732.84 1418.52 L1732.84 1445.72 L1759.13 1445.72 L1759.13 1418.52 L1732.84 1418.52 L1732.84 1418.52  Z
  " fill="#009af9" fill-rule="evenodd" fill-opacity="1"/>
<polyline clip-path="url(#clip002)" style="stroke:#000000; stroke-width:4; stroke-opacity:1; fill:none" points="
  1732.84,1418.52 1732.84,1445.72 1759.13,1445.72 1759.13,1418.52 1732.84,1418.52 
  "/>
<path clip-path="url(#clip002)" d="
M1759.13 1414.9 L1759.13 1445.72 L1785.43 1445.72 L1785.43 1414.9 L1759.13 1414.9 L1759.13 1414.9  Z
  " fill="#009af9" fill-rule="evenodd" fill-opacity="1"/>
<polyline clip-path="url(#clip002)" style="stroke:#000000; stroke-width:4; stroke-opacity:1; fill:none" points="
  1759.13,1414.9 1759.13,1445.72 1785.43,1445.72 1785.43,1414.9 1759.13,1414.9 
  "/>
<path clip-path="url(#clip002)" d="
M1785.43 1414.9 L1785.43 1445.72 L1811.73 1445.72 L1811.73 1414.9 L1785.43 1414.9 L1785.43 1414.9  Z
  " fill="#009af9" fill-rule="evenodd" fill-opacity="1"/>
<polyline clip-path="url(#clip002)" style="stroke:#000000; stroke-width:4; stroke-opacity:1; fill:none" points="
  1785.43,1414.9 1785.43,1445.72 1811.73,1445.72 1811.73,1414.9 1785.43,1414.9 
  "/>
<path clip-path="url(#clip002)" d="
M1811.73 1423.96 L1811.73 1445.72 L1838.03 1445.72 L1838.03 1423.96 L1811.73 1423.96 L1811.73 1423.96  Z
  " fill="#009af9" fill-rule="evenodd" fill-opacity="1"/>
<polyline clip-path="url(#clip002)" style="stroke:#000000; stroke-width:4; stroke-opacity:1; fill:none" points="
  1811.73,1423.96 1811.73,1445.72 1838.03,1445.72 1838.03,1423.96 1811.73,1423.96 
  "/>
<path clip-path="url(#clip002)" d="
M1838.03 1438.46 L1838.03 1445.72 L1864.33 1445.72 L1864.33 1438.46 L1838.03 1438.46 L1838.03 1438.46  Z
  " fill="#009af9" fill-rule="evenodd" fill-opacity="1"/>
<polyline clip-path="url(#clip002)" style="stroke:#000000; stroke-width:4; stroke-opacity:1; fill:none" points="
  1838.03,1438.46 1838.03,1445.72 1864.33,1445.72 1864.33,1438.46 1838.03,1438.46 
  "/>
<path clip-path="url(#clip002)" d="
M1864.33 1434.84 L1864.33 1445.72 L1890.62 1445.72 L1890.62 1434.84 L1864.33 1434.84 L1864.33 1434.84  Z
  " fill="#009af9" fill-rule="evenodd" fill-opacity="1"/>
<polyline clip-path="url(#clip002)" style="stroke:#000000; stroke-width:4; stroke-opacity:1; fill:none" points="
  1864.33,1434.84 1864.33,1445.72 1890.62,1445.72 1890.62,1434.84 1864.33,1434.84 
  "/>
<path clip-path="url(#clip002)" d="
M1890.62 1425.78 L1890.62 1445.72 L1916.92 1445.72 L1916.92 1425.78 L1890.62 1425.78 L1890.62 1425.78  Z
  " fill="#009af9" fill-rule="evenodd" fill-opacity="1"/>
<polyline clip-path="url(#clip002)" style="stroke:#000000; stroke-width:4; stroke-opacity:1; fill:none" points="
  1890.62,1425.78 1890.62,1445.72 1916.92,1445.72 1916.92,1425.78 1890.62,1425.78 
  "/>
<path clip-path="url(#clip002)" d="
M1916.92 1434.84 L1916.92 1445.72 L1943.22 1445.72 L1943.22 1434.84 L1916.92 1434.84 L1916.92 1434.84  Z
  " fill="#009af9" fill-rule="evenodd" fill-opacity="1"/>
<polyline clip-path="url(#clip002)" style="stroke:#000000; stroke-width:4; stroke-opacity:1; fill:none" points="
  1916.92,1434.84 1916.92,1445.72 1943.22,1445.72 1943.22,1434.84 1916.92,1434.84 
  "/>
<path clip-path="url(#clip002)" d="
M1943.22 1436.65 L1943.22 1445.72 L1969.52 1445.72 L1969.52 1436.65 L1943.22 1436.65 L1943.22 1436.65  Z
  " fill="#009af9" fill-rule="evenodd" fill-opacity="1"/>
<polyline clip-path="url(#clip002)" style="stroke:#000000; stroke-width:4; stroke-opacity:1; fill:none" points="
  1943.22,1436.65 1943.22,1445.72 1969.52,1445.72 1969.52,1436.65 1943.22,1436.65 
  "/>
<path clip-path="url(#clip002)" d="
M1969.52 1443.9 L1969.52 1445.72 L1995.81 1445.72 L1995.81 1443.9 L1969.52 1443.9 L1969.52 1443.9  Z
  " fill="#009af9" fill-rule="evenodd" fill-opacity="1"/>
<polyline clip-path="url(#clip002)" style="stroke:#000000; stroke-width:4; stroke-opacity:1; fill:none" points="
  1969.52,1443.9 1969.52,1445.72 1995.81,1445.72 1995.81,1443.9 1969.52,1443.9 
  "/>
<path clip-path="url(#clip002)" d="
M1995.81 1442.09 L1995.81 1445.72 L2022.11 1445.72 L2022.11 1442.09 L1995.81 1442.09 L1995.81 1442.09  Z
  " fill="#009af9" fill-rule="evenodd" fill-opacity="1"/>
<polyline clip-path="url(#clip002)" style="stroke:#000000; stroke-width:4; stroke-opacity:1; fill:none" points="
  1995.81,1442.09 1995.81,1445.72 2022.11,1445.72 2022.11,1442.09 1995.81,1442.09 
  "/>
<path clip-path="url(#clip002)" d="
M2022.11 1445.72 L2022.11 1445.72 L2048.41 1445.72 L2048.41 1445.72 L2022.11 1445.72 L2022.11 1445.72  Z
  " fill="#009af9" fill-rule="evenodd" fill-opacity="1"/>
<polyline clip-path="url(#clip002)" style="stroke:#000000; stroke-width:4; stroke-opacity:1; fill:none" points="
  2022.11,1445.72 2022.11,1445.72 2048.41,1445.72 2022.11,1445.72 
  "/>
<path clip-path="url(#clip002)" d="
M2048.41 1445.72 L2048.41 1445.72 L2074.71 1445.72 L2074.71 1445.72 L2048.41 1445.72 L2048.41 1445.72  Z
  " fill="#009af9" fill-rule="evenodd" fill-opacity="1"/>
<polyline clip-path="url(#clip002)" style="stroke:#000000; stroke-width:4; stroke-opacity:1; fill:none" points="
  2048.41,1445.72 2048.41,1445.72 2074.71,1445.72 2048.41,1445.72 
  "/>
<path clip-path="url(#clip002)" d="
M2074.71 1443.9 L2074.71 1445.72 L2101 1445.72 L2101 1443.9 L2074.71 1443.9 L2074.71 1443.9  Z
  " fill="#009af9" fill-rule="evenodd" fill-opacity="1"/>
<polyline clip-path="url(#clip002)" style="stroke:#000000; stroke-width:4; stroke-opacity:1; fill:none" points="
  2074.71,1443.9 2074.71,1445.72 2101,1445.72 2101,1443.9 2074.71,1443.9 
  "/>
<path clip-path="url(#clip002)" d="
M2101 1445.72 L2101 1445.72 L2127.3 1445.72 L2127.3 1445.72 L2101 1445.72 L2101 1445.72  Z
  " fill="#009af9" fill-rule="evenodd" fill-opacity="1"/>
<polyline clip-path="url(#clip002)" style="stroke:#000000; stroke-width:4; stroke-opacity:1; fill:none" points="
  2101,1445.72 2101,1445.72 2127.3,1445.72 2101,1445.72 
  "/>
<path clip-path="url(#clip002)" d="
M2127.3 1445.72 L2127.3 1445.72 L2153.6 1445.72 L2153.6 1445.72 L2127.3 1445.72 L2127.3 1445.72  Z
  " fill="#009af9" fill-rule="evenodd" fill-opacity="1"/>
<polyline clip-path="url(#clip002)" style="stroke:#000000; stroke-width:4; stroke-opacity:1; fill:none" points="
  2127.3,1445.72 2127.3,1445.72 2153.6,1445.72 2127.3,1445.72 
  "/>
<path clip-path="url(#clip002)" d="
M2153.6 1445.72 L2153.6 1445.72 L2179.9 1445.72 L2179.9 1445.72 L2153.6 1445.72 L2153.6 1445.72  Z
  " fill="#009af9" fill-rule="evenodd" fill-opacity="1"/>
<polyline clip-path="url(#clip002)" style="stroke:#000000; stroke-width:4; stroke-opacity:1; fill:none" points="
  2153.6,1445.72 2153.6,1445.72 2179.9,1445.72 2153.6,1445.72 
  "/>
<path clip-path="url(#clip002)" d="
M2179.9 1445.72 L2179.9 1445.72 L2206.19 1445.72 L2206.19 1445.72 L2179.9 1445.72 L2179.9 1445.72  Z
  " fill="#009af9" fill-rule="evenodd" fill-opacity="1"/>
<polyline clip-path="url(#clip002)" style="stroke:#000000; stroke-width:4; stroke-opacity:1; fill:none" points="
  2179.9,1445.72 2179.9,1445.72 2206.19,1445.72 2179.9,1445.72 
  "/>
<path clip-path="url(#clip002)" d="
M2206.19 1443.9 L2206.19 1445.72 L2232.49 1445.72 L2232.49 1443.9 L2206.19 1443.9 L2206.19 1443.9  Z
  " fill="#009af9" fill-rule="evenodd" fill-opacity="1"/>
<polyline clip-path="url(#clip002)" style="stroke:#000000; stroke-width:4; stroke-opacity:1; fill:none" points="
  2206.19,1443.9 2206.19,1445.72 2232.49,1445.72 2232.49,1443.9 2206.19,1443.9 
  "/>
<path clip-path="url(#clip000)" d="
M1989.74 251.724 L2280.76 251.724 L2280.76 130.764 L1989.74 130.764  Z
  " fill="#ffffff" fill-rule="evenodd" fill-opacity="1"/>
<polyline clip-path="url(#clip000)" style="stroke:#000000; stroke-width:4; stroke-opacity:1; fill:none" points="
  1989.74,251.724 2280.76,251.724 2280.76,130.764 1989.74,130.764 1989.74,251.724 
  "/>
<path clip-path="url(#clip000)" d="
M2013.74 215.436 L2157.74 215.436 L2157.74 167.052 L2013.74 167.052 L2013.74 215.436  Z
  " fill="#009af9" fill-rule="evenodd" fill-opacity="1"/>
<polyline clip-path="url(#clip000)" style="stroke:#000000; stroke-width:4; stroke-opacity:1; fill:none" points="
  2013.74,215.436 2157.74,215.436 2157.74,167.052 2013.74,167.052 2013.74,215.436 
  "/>
<path clip-path="url(#clip000)" d="M 0 0 M2195.58 210.931 Q2193.77 215.561 2192.06 216.973 Q2190.35 218.385 2187.48 218.385 L2184.08 218.385 L2184.08 214.82 L2186.58 214.82 Q2188.33 214.82 2189.31 213.987 Q2190.28 213.154 2191.46 210.052 L2192.22 208.107 L2181.74 182.598 L2186.25 182.598 L2194.35 202.876 L2202.46 182.598 L2206.97 182.598 L2195.58 210.931 Z" fill="#000000" fill-rule="evenodd" fill-opacity="1" /><path clip-path="url(#clip000)" d="M 0 0 M2212.85 204.589 L2220.49 204.589 L2220.49 178.223 L2212.18 179.89 L2212.18 175.631 L2220.44 173.964 L2225.12 173.964 L2225.12 204.589 L2232.76 204.589 L2232.76 208.524 L2212.85 208.524 L2212.85 204.589 Z" fill="#000000" fill-rule="evenodd" fill-opacity="1" /></svg>
