<?xml version="1.0" encoding="utf-8"?>
<svg xmlns="http://www.w3.org/2000/svg" xmlns:xlink="http://www.w3.org/1999/xlink" width="600" height="400" viewBox="0 0 2400 1600">
<defs>
  <clipPath id="clip130">
    <rect x="0" y="0" width="2400" height="1600"/>
  </clipPath>
</defs>
<path clip-path="url(#clip130)" d="
M0 1600 L2400 1600 L2400 0 L0 0  Z
  " fill="#ffffff" fill-rule="evenodd" fill-opacity="1"/>
<defs>
  <clipPath id="clip131">
    <rect x="480" y="0" width="1681" height="1600"/>
  </clipPath>
</defs>
<path clip-path="url(#clip130)" d="
M166.205 1486.45 L2352.76 1486.45 L2352.76 47.2441 L166.205 47.2441  Z
  " fill="#ffffff" fill-rule="evenodd" fill-opacity="1"/>
<defs>
  <clipPath id="clip132">
    <rect x="166" y="47" width="2188" height="1440"/>
  </clipPath>
</defs>
<polyline clip-path="url(#clip132)" style="stroke:#000000; stroke-width:2; stroke-opacity:0.1; fill:none" points="
  502.694,1486.45 502.694,47.2441 
  "/>
<polyline clip-path="url(#clip132)" style="stroke:#000000; stroke-width:2; stroke-opacity:0.1; fill:none" points="
  908.115,1486.45 908.115,47.2441 
  "/>
<polyline clip-path="url(#clip132)" style="stroke:#000000; stroke-width:2; stroke-opacity:0.1; fill:none" points="
  1313.54,1486.45 1313.54,47.2441 
  "/>
<polyline clip-path="url(#clip132)" style="stroke:#000000; stroke-width:2; stroke-opacity:0.1; fill:none" points="
  1718.96,1486.45 1718.96,47.2441 
  "/>
<polyline clip-path="url(#clip132)" style="stroke:#000000; stroke-width:2; stroke-opacity:0.1; fill:none" points="
  2124.38,1486.45 2124.38,47.2441 
  "/>
<polyline clip-path="url(#clip132)" style="stroke:#000000; stroke-width:2; stroke-opacity:0.1; fill:none" points="
  166.205,1445.72 2352.76,1445.72 
  "/>
<polyline clip-path="url(#clip132)" style="stroke:#000000; stroke-width:2; stroke-opacity:0.1; fill:none" points="
  166.205,1115.37 2352.76,1115.37 
  "/>
<polyline clip-path="url(#clip132)" style="stroke:#000000; stroke-width:2; stroke-opacity:0.1; fill:none" points="
  166.205,785.015 2352.76,785.015 
  "/>
<polyline clip-path="url(#clip132)" style="stroke:#000000; stroke-width:2; stroke-opacity:0.1; fill:none" points="
  166.205,454.665 2352.76,454.665 
  "/>
<polyline clip-path="url(#clip132)" style="stroke:#000000; stroke-width:2; stroke-opacity:0.1; fill:none" points="
  166.205,124.315 2352.76,124.315 
  "/>
<polyline clip-path="url(#clip130)" style="stroke:#000000; stroke-width:4; stroke-opacity:1; fill:none" points="
  166.205,1486.45 2352.76,1486.45 
  "/>
<polyline clip-path="url(#clip130)" style="stroke:#000000; stroke-width:4; stroke-opacity:1; fill:none" points="
  166.205,1486.45 166.205,47.2441 
  "/>
<polyline clip-path="url(#clip130)" style="stroke:#000000; stroke-width:4; stroke-opacity:1; fill:none" points="
  502.694,1486.45 502.694,1469.18 
  "/>
<polyline clip-path="url(#clip130)" style="stroke:#000000; stroke-width:4; stroke-opacity:1; fill:none" points="
  908.115,1486.45 908.115,1469.18 
  "/>
<polyline clip-path="url(#clip130)" style="stroke:#000000; stroke-width:4; stroke-opacity:1; fill:none" points="
  1313.54,1486.45 1313.54,1469.18 
  "/>
<polyline clip-path="url(#clip130)" style="stroke:#000000; stroke-width:4; stroke-opacity:1; fill:none" points="
  1718.96,1486.45 1718.96,1469.18 
  "/>
<polyline clip-path="url(#clip130)" style="stroke:#000000; stroke-width:4; stroke-opacity:1; fill:none" points="
  2124.38,1486.45 2124.38,1469.18 
  "/>
<polyline clip-path="url(#clip130)" style="stroke:#000000; stroke-width:4; stroke-opacity:1; fill:none" points="
  166.205,1445.72 192.443,1445.72 
  "/>
<polyline clip-path="url(#clip130)" style="stroke:#000000; stroke-width:4; stroke-opacity:1; fill:none" points="
  166.205,1115.37 192.443,1115.37 
  "/>
<polyline clip-path="url(#clip130)" style="stroke:#000000; stroke-width:4; stroke-opacity:1; fill:none" points="
  166.205,785.015 192.443,785.015 
  "/>
<polyline clip-path="url(#clip130)" style="stroke:#000000; stroke-width:4; stroke-opacity:1; fill:none" points="
  166.205,454.665 192.443,454.665 
  "/>
<polyline clip-path="url(#clip130)" style="stroke:#000000; stroke-width:4; stroke-opacity:1; fill:none" points="
  166.205,124.315 192.443,124.315 
  "/>
<path clip-path="url(#clip130)" d="M 0 0 M482.867 1525.04 L495.344 1525.04 L495.344 1528.83 L482.867 1528.83 L482.867 1525.04 Z" fill="#000000" fill-rule="evenodd" fill-opacity="1" /><path clip-path="url(#clip130)" d="M 0 0 M510.992 1520.78 Q507.844 1520.78 505.992 1522.93 Q504.164 1525.08 504.164 1528.83 Q504.164 1532.56 505.992 1534.73 Q507.844 1536.89 510.992 1536.89 Q514.14 1536.89 515.969 1534.73 Q517.821 1532.56 517.821 1528.83 Q517.821 1525.08 515.969 1522.93 Q514.14 1520.78 510.992 1520.78 M520.275 1506.12 L520.275 1510.38 Q518.515 1509.55 516.71 1509.11 Q514.927 1508.67 513.168 1508.67 Q508.539 1508.67 506.085 1511.8 Q503.654 1514.92 503.307 1521.24 Q504.673 1519.23 506.733 1518.16 Q508.793 1517.07 511.27 1517.07 Q516.478 1517.07 519.488 1520.24 Q522.52 1523.39 522.52 1528.83 Q522.52 1534.16 519.372 1537.37 Q516.224 1540.59 510.992 1540.59 Q504.997 1540.59 501.826 1536.01 Q498.654 1531.4 498.654 1522.67 Q498.654 1514.48 502.543 1509.62 Q506.432 1504.73 512.983 1504.73 Q514.742 1504.73 516.525 1505.08 Q518.33 1505.43 520.275 1506.12 Z" fill="#000000" fill-rule="evenodd" fill-opacity="1" /><path clip-path="url(#clip130)" d="M 0 0 M888.694 1525.04 L901.171 1525.04 L901.171 1528.83 L888.694 1528.83 L888.694 1525.04 Z" fill="#000000" fill-rule="evenodd" fill-opacity="1" /><path clip-path="url(#clip130)" d="M 0 0 M920.407 1521.29 Q923.763 1522 925.638 1524.27 Q927.536 1526.54 927.536 1529.87 Q927.536 1534.99 924.018 1537.79 Q920.499 1540.59 914.018 1540.59 Q911.842 1540.59 909.527 1540.15 Q907.235 1539.73 904.782 1538.88 L904.782 1534.36 Q906.726 1535.5 909.041 1536.08 Q911.356 1536.66 913.879 1536.66 Q918.277 1536.66 920.569 1534.92 Q922.883 1533.18 922.883 1529.87 Q922.883 1526.82 920.731 1525.11 Q918.601 1523.37 914.782 1523.37 L910.754 1523.37 L910.754 1519.53 L914.967 1519.53 Q918.416 1519.53 920.245 1518.16 Q922.073 1516.77 922.073 1514.18 Q922.073 1511.52 920.175 1510.11 Q918.3 1508.67 914.782 1508.67 Q912.86 1508.67 910.661 1509.09 Q908.462 1509.5 905.823 1510.38 L905.823 1506.22 Q908.485 1505.48 910.8 1505.11 Q913.138 1504.73 915.198 1504.73 Q920.522 1504.73 923.624 1507.17 Q926.726 1509.57 926.726 1513.69 Q926.726 1516.56 925.083 1518.55 Q923.439 1520.52 920.407 1521.29 Z" fill="#000000" fill-rule="evenodd" fill-opacity="1" /><path clip-path="url(#clip130)" d="M 0 0 M1313.54 1508.44 Q1309.93 1508.44 1308.1 1512 Q1306.29 1515.55 1306.29 1522.67 Q1306.29 1529.78 1308.1 1533.35 Q1309.93 1536.89 1313.54 1536.89 Q1317.17 1536.89 1318.98 1533.35 Q1320.8 1529.78 1320.8 1522.67 Q1320.8 1515.55 1318.98 1512 Q1317.17 1508.44 1313.54 1508.44 M1313.54 1504.73 Q1319.35 1504.73 1322.4 1509.34 Q1325.48 1513.92 1325.48 1522.67 Q1325.48 1531.4 1322.4 1536.01 Q1319.35 1540.59 1313.54 1540.59 Q1307.73 1540.59 1304.65 1536.01 Q1301.59 1531.4 1301.59 1522.67 Q1301.59 1513.92 1304.65 1509.34 Q1307.73 1504.73 1313.54 1504.73 Z" fill="#000000" fill-rule="evenodd" fill-opacity="1" /><path clip-path="url(#clip130)" d="M 0 0 M1723.21 1521.29 Q1726.56 1522 1728.44 1524.27 Q1730.34 1526.54 1730.34 1529.87 Q1730.34 1534.99 1726.82 1537.79 Q1723.3 1540.59 1716.82 1540.59 Q1714.64 1540.59 1712.33 1540.15 Q1710.03 1539.73 1707.58 1538.88 L1707.58 1534.36 Q1709.53 1535.5 1711.84 1536.08 Q1714.15 1536.66 1716.68 1536.66 Q1721.08 1536.66 1723.37 1534.92 Q1725.68 1533.18 1725.68 1529.87 Q1725.68 1526.82 1723.53 1525.11 Q1721.4 1523.37 1717.58 1523.37 L1713.55 1523.37 L1713.55 1519.53 L1717.77 1519.53 Q1721.21 1519.53 1723.04 1518.16 Q1724.87 1516.77 1724.87 1514.18 Q1724.87 1511.52 1722.97 1510.11 Q1721.1 1508.67 1717.58 1508.67 Q1715.66 1508.67 1713.46 1509.09 Q1711.26 1509.5 1708.62 1510.38 L1708.62 1506.22 Q1711.28 1505.48 1713.6 1505.11 Q1715.94 1504.73 1718 1504.73 Q1723.32 1504.73 1726.42 1507.17 Q1729.52 1509.57 1729.52 1513.69 Q1729.52 1516.56 1727.88 1518.55 Q1726.24 1520.52 1723.21 1521.29 Z" fill="#000000" fill-rule="evenodd" fill-opacity="1" /><path clip-path="url(#clip130)" d="M 0 0 M2124.78 1520.78 Q2121.64 1520.78 2119.78 1522.93 Q2117.96 1525.08 2117.96 1528.83 Q2117.96 1532.56 2119.78 1534.73 Q2121.64 1536.89 2124.78 1536.89 Q2127.93 1536.89 2129.76 1534.73 Q2131.61 1532.56 2131.61 1528.83 Q2131.61 1525.08 2129.76 1522.93 Q2127.93 1520.78 2124.78 1520.78 M2134.07 1506.12 L2134.07 1510.38 Q2132.31 1509.55 2130.5 1509.11 Q2128.72 1508.67 2126.96 1508.67 Q2122.33 1508.67 2119.88 1511.8 Q2117.45 1514.92 2117.1 1521.24 Q2118.46 1519.23 2120.53 1518.16 Q2122.59 1517.07 2125.06 1517.07 Q2130.27 1517.07 2133.28 1520.24 Q2136.31 1523.39 2136.31 1528.83 Q2136.31 1534.16 2133.16 1537.37 Q2130.02 1540.59 2124.78 1540.59 Q2118.79 1540.59 2115.62 1536.01 Q2112.45 1531.4 2112.45 1522.67 Q2112.45 1514.48 2116.34 1509.62 Q2120.22 1504.73 2126.78 1504.73 Q2128.53 1504.73 2130.32 1505.08 Q2132.12 1505.43 2134.07 1506.12 Z" fill="#000000" fill-rule="evenodd" fill-opacity="1" /><path clip-path="url(#clip130)" d="M 0 0 M130.26 1431.51 Q126.649 1431.51 124.82 1435.08 Q123.015 1438.62 123.015 1445.75 Q123.015 1452.86 124.82 1456.42 Q126.649 1459.96 130.26 1459.96 Q133.895 1459.96 135.7 1456.42 Q137.529 1452.86 137.529 1445.75 Q137.529 1438.62 135.7 1435.08 Q133.895 1431.51 130.26 1431.51 M130.26 1427.81 Q136.07 1427.81 139.126 1432.42 Q142.205 1437 142.205 1445.75 Q142.205 1454.48 139.126 1459.08 Q136.07 1463.67 130.26 1463.67 Q124.45 1463.67 121.371 1459.08 Q118.316 1454.48 118.316 1445.75 Q118.316 1437 121.371 1432.42 Q124.45 1427.81 130.26 1427.81 Z" fill="#000000" fill-rule="evenodd" fill-opacity="1" /><path clip-path="url(#clip130)" d="M 0 0 M71.8578 1128.71 L88.1772 1128.71 L88.1772 1132.65 L66.2328 1132.65 L66.2328 1128.71 Q68.8949 1125.96 73.4782 1121.33 Q78.0846 1116.67 79.2652 1115.33 Q81.5105 1112.81 82.3902 1111.07 Q83.2929 1109.31 83.2929 1107.62 Q83.2929 1104.87 81.3485 1103.13 Q79.4272 1101.4 76.3254 1101.4 Q74.1263 1101.4 71.6726 1102.16 Q69.2421 1102.92 66.4643 1104.47 L66.4643 1099.75 Q69.2884 1098.62 71.7421 1098.04 Q74.1958 1097.46 76.2328 1097.46 Q81.6031 1097.46 84.7976 1100.15 Q87.992 1102.83 87.992 1107.32 Q87.992 1109.45 87.1818 1111.37 Q86.3948 1113.27 84.2883 1115.86 Q83.7096 1116.53 80.6078 1119.75 Q77.5059 1122.95 71.8578 1128.71 Z" fill="#000000" fill-rule="evenodd" fill-opacity="1" /><path clip-path="url(#clip130)" d="M 0 0 M103.247 1101.16 Q99.6354 1101.16 97.8068 1104.73 Q96.0012 1108.27 96.0012 1115.4 Q96.0012 1122.51 97.8068 1126.07 Q99.6354 1129.61 103.247 1129.61 Q106.881 1129.61 108.686 1126.07 Q110.515 1122.51 110.515 1115.4 Q110.515 1108.27 108.686 1104.73 Q106.881 1101.16 103.247 1101.16 M103.247 1097.46 Q109.057 1097.46 112.112 1102.07 Q115.191 1106.65 115.191 1115.4 Q115.191 1124.13 112.112 1128.73 Q109.057 1133.32 103.247 1133.32 Q97.4364 1133.32 94.3577 1128.73 Q91.3022 1124.13 91.3022 1115.4 Q91.3022 1106.65 94.3577 1102.07 Q97.4364 1097.46 103.247 1097.46 Z" fill="#000000" fill-rule="evenodd" fill-opacity="1" /><path clip-path="url(#clip130)" d="M 0 0 M130.26 1101.16 Q126.649 1101.16 124.82 1104.73 Q123.015 1108.27 123.015 1115.4 Q123.015 1122.51 124.82 1126.07 Q126.649 1129.61 130.26 1129.61 Q133.895 1129.61 135.7 1126.07 Q137.529 1122.51 137.529 1115.4 Q137.529 1108.27 135.7 1104.73 Q133.895 1101.16 130.26 1101.16 M130.26 1097.46 Q136.07 1097.46 139.126 1102.07 Q142.205 1106.65 142.205 1115.4 Q142.205 1124.13 139.126 1128.73 Q136.07 1133.32 130.26 1133.32 Q124.45 1133.32 121.371 1128.73 Q118.316 1124.13 118.316 1115.4 Q118.316 1106.65 121.371 1102.07 Q124.45 1097.46 130.26 1097.46 Z" fill="#000000" fill-rule="evenodd" fill-opacity="1" /><path clip-path="url(#clip130)" d="M 0 0 M78.5939 771.809 L66.7884 790.258 L78.5939 790.258 L78.5939 771.809 M77.367 767.735 L83.2466 767.735 L83.2466 790.258 L88.1772 790.258 L88.1772 794.147 L83.2466 794.147 L83.2466 802.295 L78.5939 802.295 L78.5939 794.147 L62.9921 794.147 L62.9921 789.633 L77.367 767.735 Z" fill="#000000" fill-rule="evenodd" fill-opacity="1" /><path clip-path="url(#clip130)" d="M 0 0 M103.247 770.814 Q99.6354 770.814 97.8068 774.379 Q96.0012 777.92 96.0012 785.05 Q96.0012 792.156 97.8068 795.721 Q99.6354 799.263 103.247 799.263 Q106.881 799.263 108.686 795.721 Q110.515 792.156 110.515 785.05 Q110.515 777.92 108.686 774.379 Q106.881 770.814 103.247 770.814 M103.247 767.11 Q109.057 767.11 112.112 771.717 Q115.191 776.3 115.191 785.05 Q115.191 793.777 112.112 798.383 Q109.057 802.967 103.247 802.967 Q97.4364 802.967 94.3577 798.383 Q91.3022 793.777 91.3022 785.05 Q91.3022 776.3 94.3577 771.717 Q97.4364 767.11 103.247 767.11 Z" fill="#000000" fill-rule="evenodd" fill-opacity="1" /><path clip-path="url(#clip130)" d="M 0 0 M130.26 770.814 Q126.649 770.814 124.82 774.379 Q123.015 777.92 123.015 785.05 Q123.015 792.156 124.82 795.721 Q126.649 799.263 130.26 799.263 Q133.895 799.263 135.7 795.721 Q137.529 792.156 137.529 785.05 Q137.529 777.92 135.7 774.379 Q133.895 770.814 130.26 770.814 M130.26 767.11 Q136.07 767.11 139.126 771.717 Q142.205 776.3 142.205 785.05 Q142.205 793.777 139.126 798.383 Q136.07 802.967 130.26 802.967 Q124.45 802.967 121.371 798.383 Q118.316 793.777 118.316 785.05 Q118.316 776.3 121.371 771.717 Q124.45 767.11 130.26 767.11 Z" fill="#000000" fill-rule="evenodd" fill-opacity="1" /><path clip-path="url(#clip130)" d="M 0 0 M76.6495 452.802 Q73.5013 452.802 71.6495 454.954 Q69.8208 457.107 69.8208 460.857 Q69.8208 464.584 71.6495 466.76 Q73.5013 468.913 76.6495 468.913 Q79.7976 468.913 81.6263 466.76 Q83.4781 464.584 83.4781 460.857 Q83.4781 457.107 81.6263 454.954 Q79.7976 452.802 76.6495 452.802 M85.9318 438.149 L85.9318 442.408 Q84.1726 441.575 82.367 441.135 Q80.5846 440.695 78.8254 440.695 Q74.1958 440.695 71.7421 443.82 Q69.3115 446.945 68.9643 453.265 Q70.33 451.251 72.3902 450.186 Q74.4504 449.098 76.9272 449.098 Q82.1355 449.098 85.1448 452.269 Q88.1772 455.417 88.1772 460.857 Q88.1772 466.181 85.029 469.399 Q81.8809 472.616 76.6495 472.616 Q70.6541 472.616 67.4828 468.033 Q64.3116 463.427 64.3116 454.7 Q64.3116 446.505 68.2004 441.644 Q72.0893 436.76 78.6402 436.76 Q80.3994 436.76 82.1818 437.107 Q83.9874 437.454 85.9318 438.149 Z" fill="#000000" fill-rule="evenodd" fill-opacity="1" /><path clip-path="url(#clip130)" d="M 0 0 M103.247 440.464 Q99.6354 440.464 97.8068 444.029 Q96.0012 447.57 96.0012 454.7 Q96.0012 461.806 97.8068 465.371 Q99.6354 468.913 103.247 468.913 Q106.881 468.913 108.686 465.371 Q110.515 461.806 110.515 454.7 Q110.515 447.57 108.686 444.029 Q106.881 440.464 103.247 440.464 M103.247 436.76 Q109.057 436.76 112.112 441.366 Q115.191 445.95 115.191 454.7 Q115.191 463.427 112.112 468.033 Q109.057 472.616 103.247 472.616 Q97.4364 472.616 94.3577 468.033 Q91.3022 463.427 91.3022 454.7 Q91.3022 445.95 94.3577 441.366 Q97.4364 436.76 103.247 436.76 Z" fill="#000000" fill-rule="evenodd" fill-opacity="1" /><path clip-path="url(#clip130)" d="M 0 0 M130.26 440.464 Q126.649 440.464 124.82 444.029 Q123.015 447.57 123.015 454.7 Q123.015 461.806 124.82 465.371 Q126.649 468.913 130.26 468.913 Q133.895 468.913 135.7 465.371 Q137.529 461.806 137.529 454.7 Q137.529 447.57 135.7 444.029 Q133.895 440.464 130.26 440.464 M130.26 436.76 Q136.07 436.76 139.126 441.366 Q142.205 445.95 142.205 454.7 Q142.205 463.427 139.126 468.033 Q136.07 472.616 130.26 472.616 Q124.45 472.616 121.371 468.033 Q118.316 463.427 118.316 454.7 Q118.316 445.95 121.371 441.366 Q124.45 436.76 130.26 436.76 Z" fill="#000000" fill-rule="evenodd" fill-opacity="1" /><path clip-path="url(#clip130)" d="M 0 0 M76.3254 125.183 Q72.9921 125.183 71.0708 126.965 Q69.1726 128.748 69.1726 131.873 Q69.1726 134.998 71.0708 136.78 Q72.9921 138.562 76.3254 138.562 Q79.6587 138.562 81.58 136.78 Q83.5013 134.974 83.5013 131.873 Q83.5013 128.748 81.58 126.965 Q79.6819 125.183 76.3254 125.183 M71.6495 123.192 Q68.6402 122.451 66.9504 120.391 Q65.2838 118.331 65.2838 115.368 Q65.2838 111.225 68.2236 108.817 Q71.1865 106.41 76.3254 106.41 Q81.4874 106.41 84.4272 108.817 Q87.367 111.225 87.367 115.368 Q87.367 118.331 85.6772 120.391 Q84.0105 122.451 81.0244 123.192 Q84.404 123.979 86.279 126.271 Q88.1772 128.562 88.1772 131.873 Q88.1772 136.896 85.0985 139.581 Q82.0429 142.266 76.3254 142.266 Q70.6078 142.266 67.5291 139.581 Q64.4736 136.896 64.4736 131.873 Q64.4736 128.562 66.3717 126.271 Q68.2699 123.979 71.6495 123.192 M69.9365 115.808 Q69.9365 118.493 71.6032 119.998 Q73.293 121.502 76.3254 121.502 Q79.3346 121.502 81.0244 119.998 Q82.7374 118.493 82.7374 115.808 Q82.7374 113.123 81.0244 111.618 Q79.3346 110.113 76.3254 110.113 Q73.293 110.113 71.6032 111.618 Q69.9365 113.123 69.9365 115.808 Z" fill="#000000" fill-rule="evenodd" fill-opacity="1" /><path clip-path="url(#clip130)" d="M 0 0 M103.247 110.113 Q99.6354 110.113 97.8068 113.678 Q96.0012 117.22 96.0012 124.35 Q96.0012 131.456 97.8068 135.021 Q99.6354 138.562 103.247 138.562 Q106.881 138.562 108.686 135.021 Q110.515 131.456 110.515 124.35 Q110.515 117.22 108.686 113.678 Q106.881 110.113 103.247 110.113 M103.247 106.41 Q109.057 106.41 112.112 111.016 Q115.191 115.6 115.191 124.35 Q115.191 133.076 112.112 137.683 Q109.057 142.266 103.247 142.266 Q97.4364 142.266 94.3577 137.683 Q91.3022 133.076 91.3022 124.35 Q91.3022 115.6 94.3577 111.016 Q97.4364 106.41 103.247 106.41 Z" fill="#000000" fill-rule="evenodd" fill-opacity="1" /><path clip-path="url(#clip130)" d="M 0 0 M130.26 110.113 Q126.649 110.113 124.82 113.678 Q123.015 117.22 123.015 124.35 Q123.015 131.456 124.82 135.021 Q126.649 138.562 130.26 138.562 Q133.895 138.562 135.7 135.021 Q137.529 131.456 137.529 124.35 Q137.529 117.22 135.7 113.678 Q133.895 110.113 130.26 110.113 M130.26 106.41 Q136.07 106.41 139.126 111.016 Q142.205 115.6 142.205 124.35 Q142.205 133.076 139.126 137.683 Q136.07 142.266 130.26 142.266 Q124.45 142.266 121.371 137.683 Q118.316 133.076 118.316 124.35 Q118.316 115.6 121.371 111.016 Q124.45 106.41 130.26 106.41 Z" fill="#000000" fill-rule="evenodd" fill-opacity="1" /><path clip-path="url(#clip132)" d="
M286.469 1444.06 L286.469 1445.72 L313.497 1445.72 L313.497 1444.06 L286.469 1444.06 L286.469 1444.06  Z
  " fill="#009af9" fill-rule="evenodd" fill-opacity="1"/>
<polyline clip-path="url(#clip132)" style="stroke:#000000; stroke-width:4; stroke-opacity:1; fill:none" points="
  286.469,1444.06 286.469,1445.72 313.497,1445.72 313.497,1444.06 286.469,1444.06 
  "/>
<path clip-path="url(#clip132)" d="
M313.497 1445.72 L313.497 1445.72 L340.525 1445.72 L340.525 1445.72 L313.497 1445.72 L313.497 1445.72  Z
  " fill="#009af9" fill-rule="evenodd" fill-opacity="1"/>
<polyline clip-path="url(#clip132)" style="stroke:#000000; stroke-width:4; stroke-opacity:1; fill:none" points="
  313.497,1445.72 313.497,1445.72 340.525,1445.72 313.497,1445.72 
  "/>
<path clip-path="url(#clip132)" d="
M340.525 1445.72 L340.525 1445.72 L367.553 1445.72 L367.553 1445.72 L340.525 1445.72 L340.525 1445.72  Z
  " fill="#009af9" fill-rule="evenodd" fill-opacity="1"/>
<polyline clip-path="url(#clip132)" style="stroke:#000000; stroke-width:4; stroke-opacity:1; fill:none" points="
  340.525,1445.72 340.525,1445.72 367.553,1445.72 340.525,1445.72 
  "/>
<path clip-path="url(#clip132)" d="
M367.553 1445.72 L367.553 1445.72 L394.581 1445.72 L394.581 1445.72 L367.553 1445.72 L367.553 1445.72  Z
  " fill="#009af9" fill-rule="evenodd" fill-opacity="1"/>
<polyline clip-path="url(#clip132)" style="stroke:#000000; stroke-width:4; stroke-opacity:1; fill:none" points="
  367.553,1445.72 367.553,1445.72 394.581,1445.72 367.553,1445.72 
  "/>
<path clip-path="url(#clip132)" d="
M394.581 1445.72 L394.581 1445.72 L421.609 1445.72 L421.609 1445.72 L394.581 1445.72 L394.581 1445.72  Z
  " fill="#009af9" fill-rule="evenodd" fill-opacity="1"/>
<polyline clip-path="url(#clip132)" style="stroke:#000000; stroke-width:4; stroke-opacity:1; fill:none" points="
  394.581,1445.72 394.581,1445.72 421.609,1445.72 394.581,1445.72 
  "/>
<path clip-path="url(#clip132)" d="
M421.609 1444.06 L421.609 1445.72 L448.637 1445.72 L448.637 1444.06 L421.609 1444.06 L421.609 1444.06  Z
  " fill="#009af9" fill-rule="evenodd" fill-opacity="1"/>
<polyline clip-path="url(#clip132)" style="stroke:#000000; stroke-width:4; stroke-opacity:1; fill:none" points="
  421.609,1444.06 421.609,1445.72 448.637,1445.72 448.637,1444.06 421.609,1444.06 
  "/>
<path clip-path="url(#clip132)" d="
M448.637 1445.72 L448.637 1445.72 L475.666 1445.72 L475.666 1445.72 L448.637 1445.72 L448.637 1445.72  Z
  " fill="#009af9" fill-rule="evenodd" fill-opacity="1"/>
<polyline clip-path="url(#clip132)" style="stroke:#000000; stroke-width:4; stroke-opacity:1; fill:none" points="
  448.637,1445.72 448.637,1445.72 475.666,1445.72 448.637,1445.72 
  "/>
<path clip-path="url(#clip132)" d="
M475.666 1445.72 L475.666 1445.72 L502.694 1445.72 L502.694 1445.72 L475.666 1445.72 L475.666 1445.72  Z
  " fill="#009af9" fill-rule="evenodd" fill-opacity="1"/>
<polyline clip-path="url(#clip132)" style="stroke:#000000; stroke-width:4; stroke-opacity:1; fill:none" points="
  475.666,1445.72 475.666,1445.72 502.694,1445.72 475.666,1445.72 
  "/>
<path clip-path="url(#clip132)" d="
M502.694 1442.41 L502.694 1445.72 L529.722 1445.72 L529.722 1442.41 L502.694 1442.41 L502.694 1442.41  Z
  " fill="#009af9" fill-rule="evenodd" fill-opacity="1"/>
<polyline clip-path="url(#clip132)" style="stroke:#000000; stroke-width:4; stroke-opacity:1; fill:none" points="
  502.694,1442.41 502.694,1445.72 529.722,1445.72 529.722,1442.41 502.694,1442.41 
  "/>
<path clip-path="url(#clip132)" d="
M529.722 1442.41 L529.722 1445.72 L556.75 1445.72 L556.75 1442.41 L529.722 1442.41 L529.722 1442.41  Z
  " fill="#009af9" fill-rule="evenodd" fill-opacity="1"/>
<polyline clip-path="url(#clip132)" style="stroke:#000000; stroke-width:4; stroke-opacity:1; fill:none" points="
  529.722,1442.41 529.722,1445.72 556.75,1445.72 556.75,1442.41 529.722,1442.41 
  "/>
<path clip-path="url(#clip132)" d="
M556.75 1437.46 L556.75 1445.72 L583.778 1445.72 L583.778 1437.46 L556.75 1437.46 L556.75 1437.46  Z
  " fill="#009af9" fill-rule="evenodd" fill-opacity="1"/>
<polyline clip-path="url(#clip132)" style="stroke:#000000; stroke-width:4; stroke-opacity:1; fill:none" points="
  556.75,1437.46 556.75,1445.72 583.778,1445.72 583.778,1437.46 556.75,1437.46 
  "/>
<path clip-path="url(#clip132)" d="
M583.778 1439.11 L583.778 1445.72 L610.806 1445.72 L610.806 1439.11 L583.778 1439.11 L583.778 1439.11  Z
  " fill="#009af9" fill-rule="evenodd" fill-opacity="1"/>
<polyline clip-path="url(#clip132)" style="stroke:#000000; stroke-width:4; stroke-opacity:1; fill:none" points="
  583.778,1439.11 583.778,1445.72 610.806,1445.72 610.806,1439.11 583.778,1439.11 
  "/>
<path clip-path="url(#clip132)" d="
M610.806 1442.41 L610.806 1445.72 L637.834 1445.72 L637.834 1442.41 L610.806 1442.41 L610.806 1442.41  Z
  " fill="#009af9" fill-rule="evenodd" fill-opacity="1"/>
<polyline clip-path="url(#clip132)" style="stroke:#000000; stroke-width:4; stroke-opacity:1; fill:none" points="
  610.806,1442.41 610.806,1445.72 637.834,1445.72 637.834,1442.41 610.806,1442.41 
  "/>
<path clip-path="url(#clip132)" d="
M637.834 1435.81 L637.834 1445.72 L664.862 1445.72 L664.862 1435.81 L637.834 1435.81 L637.834 1435.81  Z
  " fill="#009af9" fill-rule="evenodd" fill-opacity="1"/>
<polyline clip-path="url(#clip132)" style="stroke:#000000; stroke-width:4; stroke-opacity:1; fill:none" points="
  637.834,1435.81 637.834,1445.72 664.862,1445.72 664.862,1435.81 637.834,1435.81 
  "/>
<path clip-path="url(#clip132)" d="
M664.862 1430.85 L664.862 1445.72 L691.89 1445.72 L691.89 1430.85 L664.862 1430.85 L664.862 1430.85  Z
  " fill="#009af9" fill-rule="evenodd" fill-opacity="1"/>
<polyline clip-path="url(#clip132)" style="stroke:#000000; stroke-width:4; stroke-opacity:1; fill:none" points="
  664.862,1430.85 664.862,1445.72 691.89,1445.72 691.89,1430.85 664.862,1430.85 
  "/>
<path clip-path="url(#clip132)" d="
M691.89 1425.89 L691.89 1445.72 L718.918 1445.72 L718.918 1425.89 L691.89 1425.89 L691.89 1425.89  Z
  " fill="#009af9" fill-rule="evenodd" fill-opacity="1"/>
<polyline clip-path="url(#clip132)" style="stroke:#000000; stroke-width:4; stroke-opacity:1; fill:none" points="
  691.89,1425.89 691.89,1445.72 718.918,1445.72 718.918,1425.89 691.89,1425.89 
  "/>
<path clip-path="url(#clip132)" d="
M718.918 1429.2 L718.918 1445.72 L745.946 1445.72 L745.946 1429.2 L718.918 1429.2 L718.918 1429.2  Z
  " fill="#009af9" fill-rule="evenodd" fill-opacity="1"/>
<polyline clip-path="url(#clip132)" style="stroke:#000000; stroke-width:4; stroke-opacity:1; fill:none" points="
  718.918,1429.2 718.918,1445.72 745.946,1445.72 745.946,1429.2 718.918,1429.2 
  "/>
<path clip-path="url(#clip132)" d="
M745.946 1422.59 L745.946 1445.72 L772.975 1445.72 L772.975 1422.59 L745.946 1422.59 L745.946 1422.59  Z
  " fill="#009af9" fill-rule="evenodd" fill-opacity="1"/>
<polyline clip-path="url(#clip132)" style="stroke:#000000; stroke-width:4; stroke-opacity:1; fill:none" points="
  745.946,1422.59 745.946,1445.72 772.975,1445.72 772.975,1422.59 745.946,1422.59 
  "/>
<path clip-path="url(#clip132)" d="
M772.975 1424.24 L772.975 1445.72 L800.003 1445.72 L800.003 1424.24 L772.975 1424.24 L772.975 1424.24  Z
  " fill="#009af9" fill-rule="evenodd" fill-opacity="1"/>
<polyline clip-path="url(#clip132)" style="stroke:#000000; stroke-width:4; stroke-opacity:1; fill:none" points="
  772.975,1424.24 772.975,1445.72 800.003,1445.72 800.003,1424.24 772.975,1424.24 
  "/>
<path clip-path="url(#clip132)" d="
M800.003 1402.77 L800.003 1445.72 L827.031 1445.72 L827.031 1402.77 L800.003 1402.77 L800.003 1402.77  Z
  " fill="#009af9" fill-rule="evenodd" fill-opacity="1"/>
<polyline clip-path="url(#clip132)" style="stroke:#000000; stroke-width:4; stroke-opacity:1; fill:none" points="
  800.003,1402.77 800.003,1445.72 827.031,1445.72 827.031,1402.77 800.003,1402.77 
  "/>
<path clip-path="url(#clip132)" d="
M827.031 1399.47 L827.031 1445.72 L854.059 1445.72 L854.059 1399.47 L827.031 1399.47 L827.031 1399.47  Z
  " fill="#009af9" fill-rule="evenodd" fill-opacity="1"/>
<polyline clip-path="url(#clip132)" style="stroke:#000000; stroke-width:4; stroke-opacity:1; fill:none" points="
  827.031,1399.47 827.031,1445.72 854.059,1445.72 854.059,1399.47 827.031,1399.47 
  "/>
<path clip-path="url(#clip132)" d="
M854.059 1391.21 L854.059 1445.72 L881.087 1445.72 L881.087 1391.21 L854.059 1391.21 L854.059 1391.21  Z
  " fill="#009af9" fill-rule="evenodd" fill-opacity="1"/>
<polyline clip-path="url(#clip132)" style="stroke:#000000; stroke-width:4; stroke-opacity:1; fill:none" points="
  854.059,1391.21 854.059,1445.72 881.087,1445.72 881.087,1391.21 854.059,1391.21 
  "/>
<path clip-path="url(#clip132)" d="
M881.087 1384.6 L881.087 1445.72 L908.115 1445.72 L908.115 1384.6 L881.087 1384.6 L881.087 1384.6  Z
  " fill="#009af9" fill-rule="evenodd" fill-opacity="1"/>
<polyline clip-path="url(#clip132)" style="stroke:#000000; stroke-width:4; stroke-opacity:1; fill:none" points="
  881.087,1384.6 881.087,1445.72 908.115,1445.72 908.115,1384.6 881.087,1384.6 
  "/>
<path clip-path="url(#clip132)" d="
M908.115 1376.34 L908.115 1445.72 L935.143 1445.72 L935.143 1376.34 L908.115 1376.34 L908.115 1376.34  Z
  " fill="#009af9" fill-rule="evenodd" fill-opacity="1"/>
<polyline clip-path="url(#clip132)" style="stroke:#000000; stroke-width:4; stroke-opacity:1; fill:none" points="
  908.115,1376.34 908.115,1445.72 935.143,1445.72 935.143,1376.34 908.115,1376.34 
  "/>
<path clip-path="url(#clip132)" d="
M935.143 1343.31 L935.143 1445.72 L962.171 1445.72 L962.171 1343.31 L935.143 1343.31 L935.143 1343.31  Z
  " fill="#009af9" fill-rule="evenodd" fill-opacity="1"/>
<polyline clip-path="url(#clip132)" style="stroke:#000000; stroke-width:4; stroke-opacity:1; fill:none" points="
  935.143,1343.31 935.143,1445.72 962.171,1445.72 962.171,1343.31 935.143,1343.31 
  "/>
<path clip-path="url(#clip132)" d="
M962.171 1348.26 L962.171 1445.72 L989.199 1445.72 L989.199 1348.26 L962.171 1348.26 L962.171 1348.26  Z
  " fill="#009af9" fill-rule="evenodd" fill-opacity="1"/>
<polyline clip-path="url(#clip132)" style="stroke:#000000; stroke-width:4; stroke-opacity:1; fill:none" points="
  962.171,1348.26 962.171,1445.72 989.199,1445.72 989.199,1348.26 962.171,1348.26 
  "/>
<path clip-path="url(#clip132)" d="
M989.199 1330.09 L989.199 1445.72 L1016.23 1445.72 L1016.23 1330.09 L989.199 1330.09 L989.199 1330.09  Z
  " fill="#009af9" fill-rule="evenodd" fill-opacity="1"/>
<polyline clip-path="url(#clip132)" style="stroke:#000000; stroke-width:4; stroke-opacity:1; fill:none" points="
  989.199,1330.09 989.199,1445.72 1016.23,1445.72 1016.23,1330.09 989.199,1330.09 
  "/>
<path clip-path="url(#clip132)" d="
M1016.23 1328.44 L1016.23 1445.72 L1043.26 1445.72 L1043.26 1328.44 L1016.23 1328.44 L1016.23 1328.44  Z
  " fill="#009af9" fill-rule="evenodd" fill-opacity="1"/>
<polyline clip-path="url(#clip132)" style="stroke:#000000; stroke-width:4; stroke-opacity:1; fill:none" points="
  1016.23,1328.44 1016.23,1445.72 1043.26,1445.72 1043.26,1328.44 1016.23,1328.44 
  "/>
<path clip-path="url(#clip132)" d="
M1043.26 1302.01 L1043.26 1445.72 L1070.28 1445.72 L1070.28 1302.01 L1043.26 1302.01 L1043.26 1302.01  Z
  " fill="#009af9" fill-rule="evenodd" fill-opacity="1"/>
<polyline clip-path="url(#clip132)" style="stroke:#000000; stroke-width:4; stroke-opacity:1; fill:none" points="
  1043.26,1302.01 1043.26,1445.72 1070.28,1445.72 1070.28,1302.01 1043.26,1302.01 
  "/>
<path clip-path="url(#clip132)" d="
M1070.28 1320.18 L1070.28 1445.72 L1097.31 1445.72 L1097.31 1320.18 L1070.28 1320.18 L1070.28 1320.18  Z
  " fill="#009af9" fill-rule="evenodd" fill-opacity="1"/>
<polyline clip-path="url(#clip132)" style="stroke:#000000; stroke-width:4; stroke-opacity:1; fill:none" points="
  1070.28,1320.18 1070.28,1445.72 1097.31,1445.72 1097.31,1320.18 1070.28,1320.18 
  "/>
<path clip-path="url(#clip132)" d="
M1097.31 1310.27 L1097.31 1445.72 L1124.34 1445.72 L1124.34 1310.27 L1097.31 1310.27 L1097.31 1310.27  Z
  " fill="#009af9" fill-rule="evenodd" fill-opacity="1"/>
<polyline clip-path="url(#clip132)" style="stroke:#000000; stroke-width:4; stroke-opacity:1; fill:none" points="
  1097.31,1310.27 1097.31,1445.72 1124.34,1445.72 1124.34,1310.27 1097.31,1310.27 
  "/>
<path clip-path="url(#clip132)" d="
M1124.34 1282.19 L1124.34 1445.72 L1151.37 1445.72 L1151.37 1282.19 L1124.34 1282.19 L1124.34 1282.19  Z
  " fill="#009af9" fill-rule="evenodd" fill-opacity="1"/>
<polyline clip-path="url(#clip132)" style="stroke:#000000; stroke-width:4; stroke-opacity:1; fill:none" points="
  1124.34,1282.19 1124.34,1445.72 1151.37,1445.72 1151.37,1282.19 1124.34,1282.19 
  "/>
<path clip-path="url(#clip132)" d="
M1151.37 1268.98 L1151.37 1445.72 L1178.4 1445.72 L1178.4 1268.98 L1151.37 1268.98 L1151.37 1268.98  Z
  " fill="#009af9" fill-rule="evenodd" fill-opacity="1"/>
<polyline clip-path="url(#clip132)" style="stroke:#000000; stroke-width:4; stroke-opacity:1; fill:none" points="
  1151.37,1268.98 1151.37,1445.72 1178.4,1445.72 1178.4,1268.98 1151.37,1268.98 
  "/>
<path clip-path="url(#clip132)" d="
M1178.4 1270.63 L1178.4 1445.72 L1205.42 1445.72 L1205.42 1270.63 L1178.4 1270.63 L1178.4 1270.63  Z
  " fill="#009af9" fill-rule="evenodd" fill-opacity="1"/>
<polyline clip-path="url(#clip132)" style="stroke:#000000; stroke-width:4; stroke-opacity:1; fill:none" points="
  1178.4,1270.63 1178.4,1445.72 1205.42,1445.72 1205.42,1270.63 1178.4,1270.63 
  "/>
<path clip-path="url(#clip132)" d="
M1205.42 1282.19 L1205.42 1445.72 L1232.45 1445.72 L1232.45 1282.19 L1205.42 1282.19 L1205.42 1282.19  Z
  " fill="#009af9" fill-rule="evenodd" fill-opacity="1"/>
<polyline clip-path="url(#clip132)" style="stroke:#000000; stroke-width:4; stroke-opacity:1; fill:none" points="
  1205.42,1282.19 1205.42,1445.72 1232.45,1445.72 1232.45,1282.19 1205.42,1282.19 
  "/>
<path clip-path="url(#clip132)" d="
M1232.45 1267.33 L1232.45 1445.72 L1259.48 1445.72 L1259.48 1267.33 L1232.45 1267.33 L1232.45 1267.33  Z
  " fill="#009af9" fill-rule="evenodd" fill-opacity="1"/>
<polyline clip-path="url(#clip132)" style="stroke:#000000; stroke-width:4; stroke-opacity:1; fill:none" points="
  1232.45,1267.33 1232.45,1445.72 1259.48,1445.72 1259.48,1267.33 1232.45,1267.33 
  "/>
<path clip-path="url(#clip132)" d="
M1259.48 1260.72 L1259.48 1445.72 L1286.51 1445.72 L1286.51 1260.72 L1259.48 1260.72 L1259.48 1260.72  Z
  " fill="#009af9" fill-rule="evenodd" fill-opacity="1"/>
<polyline clip-path="url(#clip132)" style="stroke:#000000; stroke-width:4; stroke-opacity:1; fill:none" points="
  1259.48,1260.72 1259.48,1445.72 1286.51,1445.72 1286.51,1260.72 1259.48,1260.72 
  "/>
<path clip-path="url(#clip132)" d="
M1286.51 1250.81 L1286.51 1445.72 L1313.54 1445.72 L1313.54 1250.81 L1286.51 1250.81 L1286.51 1250.81  Z
  " fill="#009af9" fill-rule="evenodd" fill-opacity="1"/>
<polyline clip-path="url(#clip132)" style="stroke:#000000; stroke-width:4; stroke-opacity:1; fill:none" points="
  1286.51,1250.81 1286.51,1445.72 1313.54,1445.72 1313.54,1250.81 1286.51,1250.81 
  "/>
<path clip-path="url(#clip132)" d="
M1313.54 1250.81 L1313.54 1445.72 L1340.56 1445.72 L1340.56 1250.81 L1313.54 1250.81 L1313.54 1250.81  Z
  " fill="#009af9" fill-rule="evenodd" fill-opacity="1"/>
<polyline clip-path="url(#clip132)" style="stroke:#000000; stroke-width:4; stroke-opacity:1; fill:none" points="
  1313.54,1250.81 1313.54,1445.72 1340.56,1445.72 1340.56,1250.81 1313.54,1250.81 
  "/>
<path clip-path="url(#clip132)" d="
M1340.56 1242.55 L1340.56 1445.72 L1367.59 1445.72 L1367.59 1242.55 L1340.56 1242.55 L1340.56 1242.55  Z
  " fill="#009af9" fill-rule="evenodd" fill-opacity="1"/>
<polyline clip-path="url(#clip132)" style="stroke:#000000; stroke-width:4; stroke-opacity:1; fill:none" points="
  1340.56,1242.55 1340.56,1445.72 1367.59,1445.72 1367.59,1242.55 1340.56,1242.55 
  "/>
<path clip-path="url(#clip132)" d="
M1367.59 1183.09 L1367.59 1445.72 L1394.62 1445.72 L1394.62 1183.09 L1367.59 1183.09 L1367.59 1183.09  Z
  " fill="#009af9" fill-rule="evenodd" fill-opacity="1"/>
<polyline clip-path="url(#clip132)" style="stroke:#000000; stroke-width:4; stroke-opacity:1; fill:none" points="
  1367.59,1183.09 1367.59,1445.72 1394.62,1445.72 1394.62,1183.09 1367.59,1183.09 
  "/>
<path clip-path="url(#clip132)" d="
M1394.62 867.603 L1394.62 1445.72 L1421.65 1445.72 L1421.65 867.603 L1394.62 867.603 L1394.62 867.603  Z
  " fill="#009af9" fill-rule="evenodd" fill-opacity="1"/>
<polyline clip-path="url(#clip132)" style="stroke:#000000; stroke-width:4; stroke-opacity:1; fill:none" points="
  1394.62,867.603 1394.62,1445.72 1421.65,1445.72 1421.65,867.603 1394.62,867.603 
  "/>
<path clip-path="url(#clip132)" d="
M1421.65 87.9763 L1421.65 1445.72 L1448.68 1445.72 L1448.68 87.9763 L1421.65 87.9763 L1421.65 87.9763  Z
  " fill="#009af9" fill-rule="evenodd" fill-opacity="1"/>
<polyline clip-path="url(#clip132)" style="stroke:#000000; stroke-width:4; stroke-opacity:1; fill:none" points="
  1421.65,87.9763 1421.65,1445.72 1448.68,1445.72 1448.68,87.9763 1421.65,87.9763 
  "/>
<path clip-path="url(#clip132)" d="
M1448.68 132.574 L1448.68 1445.72 L1475.71 1445.72 L1475.71 132.574 L1448.68 132.574 L1448.68 132.574  Z
  " fill="#009af9" fill-rule="evenodd" fill-opacity="1"/>
<polyline clip-path="url(#clip132)" style="stroke:#000000; stroke-width:4; stroke-opacity:1; fill:none" points="
  1448.68,132.574 1448.68,1445.72 1475.71,1445.72 1475.71,132.574 1448.68,132.574 
  "/>
<path clip-path="url(#clip132)" d="
M1475.71 854.389 L1475.71 1445.72 L1502.73 1445.72 L1502.73 854.389 L1475.71 854.389 L1475.71 854.389  Z
  " fill="#009af9" fill-rule="evenodd" fill-opacity="1"/>
<polyline clip-path="url(#clip132)" style="stroke:#000000; stroke-width:4; stroke-opacity:1; fill:none" points="
  1475.71,854.389 1475.71,1445.72 1502.73,1445.72 1502.73,854.389 1475.71,854.389 
  "/>
<path clip-path="url(#clip132)" d="
M1502.73 1202.91 L1502.73 1445.72 L1529.76 1445.72 L1529.76 1202.91 L1502.73 1202.91 L1502.73 1202.91  Z
  " fill="#009af9" fill-rule="evenodd" fill-opacity="1"/>
<polyline clip-path="url(#clip132)" style="stroke:#000000; stroke-width:4; stroke-opacity:1; fill:none" points="
  1502.73,1202.91 1502.73,1445.72 1529.76,1445.72 1529.76,1202.91 1502.73,1202.91 
  "/>
<path clip-path="url(#clip132)" d="
M1529.76 1305.32 L1529.76 1445.72 L1556.79 1445.72 L1556.79 1305.32 L1529.76 1305.32 L1529.76 1305.32  Z
  " fill="#009af9" fill-rule="evenodd" fill-opacity="1"/>
<polyline clip-path="url(#clip132)" style="stroke:#000000; stroke-width:4; stroke-opacity:1; fill:none" points="
  1529.76,1305.32 1529.76,1445.72 1556.79,1445.72 1556.79,1305.32 1529.76,1305.32 
  "/>
<path clip-path="url(#clip132)" d="
M1556.79 1323.49 L1556.79 1445.72 L1583.82 1445.72 L1583.82 1323.49 L1556.79 1323.49 L1556.79 1323.49  Z
  " fill="#009af9" fill-rule="evenodd" fill-opacity="1"/>
<polyline clip-path="url(#clip132)" style="stroke:#000000; stroke-width:4; stroke-opacity:1; fill:none" points="
  1556.79,1323.49 1556.79,1445.72 1583.82,1445.72 1583.82,1323.49 1556.79,1323.49 
  "/>
<path clip-path="url(#clip132)" d="
M1583.82 1340 L1583.82 1445.72 L1610.85 1445.72 L1610.85 1340 L1583.82 1340 L1583.82 1340  Z
  " fill="#009af9" fill-rule="evenodd" fill-opacity="1"/>
<polyline clip-path="url(#clip132)" style="stroke:#000000; stroke-width:4; stroke-opacity:1; fill:none" points="
  1583.82,1340 1583.82,1445.72 1610.85,1445.72 1610.85,1340 1583.82,1340 
  "/>
<path clip-path="url(#clip132)" d="
M1610.85 1330.09 L1610.85 1445.72 L1637.87 1445.72 L1637.87 1330.09 L1610.85 1330.09 L1610.85 1330.09  Z
  " fill="#009af9" fill-rule="evenodd" fill-opacity="1"/>
<polyline clip-path="url(#clip132)" style="stroke:#000000; stroke-width:4; stroke-opacity:1; fill:none" points="
  1610.85,1330.09 1610.85,1445.72 1637.87,1445.72 1637.87,1330.09 1610.85,1330.09 
  "/>
<path clip-path="url(#clip132)" d="
M1637.87 1356.52 L1637.87 1445.72 L1664.9 1445.72 L1664.9 1356.52 L1637.87 1356.52 L1637.87 1356.52  Z
  " fill="#009af9" fill-rule="evenodd" fill-opacity="1"/>
<polyline clip-path="url(#clip132)" style="stroke:#000000; stroke-width:4; stroke-opacity:1; fill:none" points="
  1637.87,1356.52 1637.87,1445.72 1664.9,1445.72 1664.9,1356.52 1637.87,1356.52 
  "/>
<path clip-path="url(#clip132)" d="
M1664.9 1374.69 L1664.9 1445.72 L1691.93 1445.72 L1691.93 1374.69 L1664.9 1374.69 L1664.9 1374.69  Z
  " fill="#009af9" fill-rule="evenodd" fill-opacity="1"/>
<polyline clip-path="url(#clip132)" style="stroke:#000000; stroke-width:4; stroke-opacity:1; fill:none" points="
  1664.9,1374.69 1664.9,1445.72 1691.93,1445.72 1691.93,1374.69 1664.9,1374.69 
  "/>
<path clip-path="url(#clip132)" d="
M1691.93 1361.48 L1691.93 1445.72 L1718.96 1445.72 L1718.96 1361.48 L1691.93 1361.48 L1691.93 1361.48  Z
  " fill="#009af9" fill-rule="evenodd" fill-opacity="1"/>
<polyline clip-path="url(#clip132)" style="stroke:#000000; stroke-width:4; stroke-opacity:1; fill:none" points="
  1691.93,1361.48 1691.93,1445.72 1718.96,1445.72 1718.96,1361.48 1691.93,1361.48 
  "/>
<path clip-path="url(#clip132)" d="
M1718.96 1382.95 L1718.96 1445.72 L1745.99 1445.72 L1745.99 1382.95 L1718.96 1382.95 L1718.96 1382.95  Z
  " fill="#009af9" fill-rule="evenodd" fill-opacity="1"/>
<polyline clip-path="url(#clip132)" style="stroke:#000000; stroke-width:4; stroke-opacity:1; fill:none" points="
  1718.96,1382.95 1718.96,1445.72 1745.99,1445.72 1745.99,1382.95 1718.96,1382.95 
  "/>
<path clip-path="url(#clip132)" d="
M1745.99 1399.47 L1745.99 1445.72 L1773.01 1445.72 L1773.01 1399.47 L1745.99 1399.47 L1745.99 1399.47  Z
  " fill="#009af9" fill-rule="evenodd" fill-opacity="1"/>
<polyline clip-path="url(#clip132)" style="stroke:#000000; stroke-width:4; stroke-opacity:1; fill:none" points="
  1745.99,1399.47 1745.99,1445.72 1773.01,1445.72 1773.01,1399.47 1745.99,1399.47 
  "/>
<path clip-path="url(#clip132)" d="
M1773.01 1406.07 L1773.01 1445.72 L1800.04 1445.72 L1800.04 1406.07 L1773.01 1406.07 L1773.01 1406.07  Z
  " fill="#009af9" fill-rule="evenodd" fill-opacity="1"/>
<polyline clip-path="url(#clip132)" style="stroke:#000000; stroke-width:4; stroke-opacity:1; fill:none" points="
  1773.01,1406.07 1773.01,1445.72 1800.04,1445.72 1800.04,1406.07 1773.01,1406.07 
  "/>
<path clip-path="url(#clip132)" d="
M1800.04 1415.98 L1800.04 1445.72 L1827.07 1445.72 L1827.07 1415.98 L1800.04 1415.98 L1800.04 1415.98  Z
  " fill="#009af9" fill-rule="evenodd" fill-opacity="1"/>
<polyline clip-path="url(#clip132)" style="stroke:#000000; stroke-width:4; stroke-opacity:1; fill:none" points="
  1800.04,1415.98 1800.04,1445.72 1827.07,1445.72 1827.07,1415.98 1800.04,1415.98 
  "/>
<path clip-path="url(#clip132)" d="
M1827.07 1424.24 L1827.07 1445.72 L1854.1 1445.72 L1854.1 1424.24 L1827.07 1424.24 L1827.07 1424.24  Z
  " fill="#009af9" fill-rule="evenodd" fill-opacity="1"/>
<polyline clip-path="url(#clip132)" style="stroke:#000000; stroke-width:4; stroke-opacity:1; fill:none" points="
  1827.07,1424.24 1827.07,1445.72 1854.1,1445.72 1854.1,1424.24 1827.07,1424.24 
  "/>
<path clip-path="url(#clip132)" d="
M1854.1 1420.94 L1854.1 1445.72 L1881.13 1445.72 L1881.13 1420.94 L1854.1 1420.94 L1854.1 1420.94  Z
  " fill="#009af9" fill-rule="evenodd" fill-opacity="1"/>
<polyline clip-path="url(#clip132)" style="stroke:#000000; stroke-width:4; stroke-opacity:1; fill:none" points="
  1854.1,1420.94 1854.1,1445.72 1881.13,1445.72 1881.13,1420.94 1854.1,1420.94 
  "/>
<path clip-path="url(#clip132)" d="
M1881.13 1427.55 L1881.13 1445.72 L1908.15 1445.72 L1908.15 1427.55 L1881.13 1427.55 L1881.13 1427.55  Z
  " fill="#009af9" fill-rule="evenodd" fill-opacity="1"/>
<polyline clip-path="url(#clip132)" style="stroke:#000000; stroke-width:4; stroke-opacity:1; fill:none" points="
  1881.13,1427.55 1881.13,1445.72 1908.15,1445.72 1908.15,1427.55 1881.13,1427.55 
  "/>
<path clip-path="url(#clip132)" d="
M1908.15 1432.5 L1908.15 1445.72 L1935.18 1445.72 L1935.18 1432.5 L1908.15 1432.5 L1908.15 1432.5  Z
  " fill="#009af9" fill-rule="evenodd" fill-opacity="1"/>
<polyline clip-path="url(#clip132)" style="stroke:#000000; stroke-width:4; stroke-opacity:1; fill:none" points="
  1908.15,1432.5 1908.15,1445.72 1935.18,1445.72 1935.18,1432.5 1908.15,1432.5 
  "/>
<path clip-path="url(#clip132)" d="
M1935.18 1439.11 L1935.18 1445.72 L1962.21 1445.72 L1962.21 1439.11 L1935.18 1439.11 L1935.18 1439.11  Z
  " fill="#009af9" fill-rule="evenodd" fill-opacity="1"/>
<polyline clip-path="url(#clip132)" style="stroke:#000000; stroke-width:4; stroke-opacity:1; fill:none" points="
  1935.18,1439.11 1935.18,1445.72 1962.21,1445.72 1962.21,1439.11 1935.18,1439.11 
  "/>
<path clip-path="url(#clip132)" d="
M1962.21 1434.15 L1962.21 1445.72 L1989.24 1445.72 L1989.24 1434.15 L1962.21 1434.15 L1962.21 1434.15  Z
  " fill="#009af9" fill-rule="evenodd" fill-opacity="1"/>
<polyline clip-path="url(#clip132)" style="stroke:#000000; stroke-width:4; stroke-opacity:1; fill:none" points="
  1962.21,1434.15 1962.21,1445.72 1989.24,1445.72 1989.24,1434.15 1962.21,1434.15 
  "/>
<path clip-path="url(#clip132)" d="
M1989.24 1440.76 L1989.24 1445.72 L2016.27 1445.72 L2016.27 1440.76 L1989.24 1440.76 L1989.24 1440.76  Z
  " fill="#009af9" fill-rule="evenodd" fill-opacity="1"/>
<polyline clip-path="url(#clip132)" style="stroke:#000000; stroke-width:4; stroke-opacity:1; fill:none" points="
  1989.24,1440.76 1989.24,1445.72 2016.27,1445.72 2016.27,1440.76 1989.24,1440.76 
  "/>
<path clip-path="url(#clip132)" d="
M2016.27 1442.41 L2016.27 1445.72 L2043.3 1445.72 L2043.3 1442.41 L2016.27 1442.41 L2016.27 1442.41  Z
  " fill="#009af9" fill-rule="evenodd" fill-opacity="1"/>
<polyline clip-path="url(#clip132)" style="stroke:#000000; stroke-width:4; stroke-opacity:1; fill:none" points="
  2016.27,1442.41 2016.27,1445.72 2043.3,1445.72 2043.3,1442.41 2016.27,1442.41 
  "/>
<path clip-path="url(#clip132)" d="
M2043.3 1440.76 L2043.3 1445.72 L2070.32 1445.72 L2070.32 1440.76 L2043.3 1440.76 L2043.3 1440.76  Z
  " fill="#009af9" fill-rule="evenodd" fill-opacity="1"/>
<polyline clip-path="url(#clip132)" style="stroke:#000000; stroke-width:4; stroke-opacity:1; fill:none" points="
  2043.3,1440.76 2043.3,1445.72 2070.32,1445.72 2070.32,1440.76 2043.3,1440.76 
  "/>
<path clip-path="url(#clip132)" d="
M2070.32 1445.72 L2070.32 1445.72 L2097.35 1445.72 L2097.35 1445.72 L2070.32 1445.72 L2070.32 1445.72  Z
  " fill="#009af9" fill-rule="evenodd" fill-opacity="1"/>
<polyline clip-path="url(#clip132)" style="stroke:#000000; stroke-width:4; stroke-opacity:1; fill:none" points="
  2070.32,1445.72 2070.32,1445.72 2097.35,1445.72 2070.32,1445.72 
  "/>
<path clip-path="url(#clip132)" d="
M2097.35 1444.06 L2097.35 1445.72 L2124.38 1445.72 L2124.38 1444.06 L2097.35 1444.06 L2097.35 1444.06  Z
  " fill="#009af9" fill-rule="evenodd" fill-opacity="1"/>
<polyline clip-path="url(#clip132)" style="stroke:#000000; stroke-width:4; stroke-opacity:1; fill:none" points="
  2097.35,1444.06 2097.35,1445.72 2124.38,1445.72 2124.38,1444.06 2097.35,1444.06 
  "/>
<path clip-path="url(#clip132)" d="
M2124.38 1437.46 L2124.38 1445.72 L2151.41 1445.72 L2151.41 1437.46 L2124.38 1437.46 L2124.38 1437.46  Z
  " fill="#009af9" fill-rule="evenodd" fill-opacity="1"/>
<polyline clip-path="url(#clip132)" style="stroke:#000000; stroke-width:4; stroke-opacity:1; fill:none" points="
  2124.38,1437.46 2124.38,1445.72 2151.41,1445.72 2151.41,1437.46 2124.38,1437.46 
  "/>
<path clip-path="url(#clip132)" d="
M2151.41 1444.06 L2151.41 1445.72 L2178.44 1445.72 L2178.44 1444.06 L2151.41 1444.06 L2151.41 1444.06  Z
  " fill="#009af9" fill-rule="evenodd" fill-opacity="1"/>
<polyline clip-path="url(#clip132)" style="stroke:#000000; stroke-width:4; stroke-opacity:1; fill:none" points="
  2151.41,1444.06 2151.41,1445.72 2178.44,1445.72 2178.44,1444.06 2151.41,1444.06 
  "/>
<path clip-path="url(#clip132)" d="
M2178.44 1445.72 L2178.44 1445.72 L2205.46 1445.72 L2205.46 1445.72 L2178.44 1445.72 L2178.44 1445.72  Z
  " fill="#009af9" fill-rule="evenodd" fill-opacity="1"/>
<polyline clip-path="url(#clip132)" style="stroke:#000000; stroke-width:4; stroke-opacity:1; fill:none" points="
  2178.44,1445.72 2178.44,1445.72 2205.46,1445.72 2178.44,1445.72 
  "/>
<path clip-path="url(#clip132)" d="
M2205.46 1440.76 L2205.46 1445.72 L2232.49 1445.72 L2232.49 1440.76 L2205.46 1440.76 L2205.46 1440.76  Z
  " fill="#009af9" fill-rule="evenodd" fill-opacity="1"/>
<polyline clip-path="url(#clip132)" style="stroke:#000000; stroke-width:4; stroke-opacity:1; fill:none" points="
  2205.46,1440.76 2205.46,1445.72 2232.49,1445.72 2232.49,1440.76 2205.46,1440.76 
  "/>
<path clip-path="url(#clip130)" d="
M1989.74 251.724 L2280.76 251.724 L2280.76 130.764 L1989.74 130.764  Z
  " fill="#ffffff" fill-rule="evenodd" fill-opacity="1"/>
<polyline clip-path="url(#clip130)" style="stroke:#000000; stroke-width:4; stroke-opacity:1; fill:none" points="
  1989.74,251.724 2280.76,251.724 2280.76,130.764 1989.74,130.764 1989.74,251.724 
  "/>
<path clip-path="url(#clip130)" d="
M2013.74 215.436 L2157.74 215.436 L2157.74 167.052 L2013.74 167.052 L2013.74 215.436  Z
  " fill="#009af9" fill-rule="evenodd" fill-opacity="1"/>
<polyline clip-path="url(#clip130)" style="stroke:#000000; stroke-width:4; stroke-opacity:1; fill:none" points="
  2013.74,215.436 2157.74,215.436 2157.74,167.052 2013.74,167.052 2013.74,215.436 
  "/>
<path clip-path="url(#clip130)" d="M 0 0 M2195.58 210.931 Q2193.77 215.561 2192.06 216.973 Q2190.35 218.385 2187.48 218.385 L2184.08 218.385 L2184.08 214.82 L2186.58 214.82 Q2188.33 214.82 2189.31 213.987 Q2190.28 213.154 2191.46 210.052 L2192.22 208.107 L2181.74 182.598 L2186.25 182.598 L2194.35 202.876 L2202.46 182.598 L2206.97 182.598 L2195.58 210.931 Z" fill="#000000" fill-rule="evenodd" fill-opacity="1" /><path clip-path="url(#clip130)" d="M 0 0 M2212.85 204.589 L2220.49 204.589 L2220.49 178.223 L2212.18 179.89 L2212.18 175.631 L2220.44 173.964 L2225.12 173.964 L2225.12 204.589 L2232.76 204.589 L2232.76 208.524 L2212.85 208.524 L2212.85 204.589 Z" fill="#000000" fill-rule="evenodd" fill-opacity="1" /></svg>
