<?xml version="1.0" encoding="utf-8"?>
<svg xmlns="http://www.w3.org/2000/svg" xmlns:xlink="http://www.w3.org/1999/xlink" width="600" height="400" viewBox="0 0 2400 1600">
<defs>
  <clipPath id="clip790">
    <rect x="0" y="0" width="2400" height="1600"/>
  </clipPath>
</defs>
<path clip-path="url(#clip790)" d="
M0 1600 L2400 1600 L2400 0 L0 0  Z
  " fill="#ffffff" fill-rule="evenodd" fill-opacity="1"/>
<defs>
  <clipPath id="clip791">
    <rect x="480" y="0" width="1681" height="1600"/>
  </clipPath>
</defs>
<path clip-path="url(#clip790)" d="
M166.205 1486.45 L2352.76 1486.45 L2352.76 47.2441 L166.205 47.2441  Z
  " fill="#ffffff" fill-rule="evenodd" fill-opacity="1"/>
<defs>
  <clipPath id="clip792">
    <rect x="166" y="47" width="2188" height="1440"/>
  </clipPath>
</defs>
<polyline clip-path="url(#clip792)" style="stroke:#000000; stroke-width:2; stroke-opacity:0.1; fill:none" points="
  475.666,1486.45 475.666,47.2441 
  "/>
<polyline clip-path="url(#clip792)" style="stroke:#000000; stroke-width:2; stroke-opacity:0.1; fill:none" points="
  881.087,1486.45 881.087,47.2441 
  "/>
<polyline clip-path="url(#clip792)" style="stroke:#000000; stroke-width:2; stroke-opacity:0.1; fill:none" points="
  1286.51,1486.45 1286.51,47.2441 
  "/>
<polyline clip-path="url(#clip792)" style="stroke:#000000; stroke-width:2; stroke-opacity:0.1; fill:none" points="
  1691.93,1486.45 1691.93,47.2441 
  "/>
<polyline clip-path="url(#clip792)" style="stroke:#000000; stroke-width:2; stroke-opacity:0.1; fill:none" points="
  2097.35,1486.45 2097.35,47.2441 
  "/>
<polyline clip-path="url(#clip792)" style="stroke:#000000; stroke-width:2; stroke-opacity:0.1; fill:none" points="
  166.205,1445.72 2352.76,1445.72 
  "/>
<polyline clip-path="url(#clip792)" style="stroke:#000000; stroke-width:2; stroke-opacity:0.1; fill:none" points="
  166.205,1097.13 2352.76,1097.13 
  "/>
<polyline clip-path="url(#clip792)" style="stroke:#000000; stroke-width:2; stroke-opacity:0.1; fill:none" points="
  166.205,748.545 2352.76,748.545 
  "/>
<polyline clip-path="url(#clip792)" style="stroke:#000000; stroke-width:2; stroke-opacity:0.1; fill:none" points="
  166.205,399.96 2352.76,399.96 
  "/>
<polyline clip-path="url(#clip792)" style="stroke:#000000; stroke-width:2; stroke-opacity:0.1; fill:none" points="
  166.205,51.3748 2352.76,51.3748 
  "/>
<polyline clip-path="url(#clip790)" style="stroke:#000000; stroke-width:4; stroke-opacity:1; fill:none" points="
  166.205,1486.45 2352.76,1486.45 
  "/>
<polyline clip-path="url(#clip790)" style="stroke:#000000; stroke-width:4; stroke-opacity:1; fill:none" points="
  166.205,1486.45 166.205,47.2441 
  "/>
<polyline clip-path="url(#clip790)" style="stroke:#000000; stroke-width:4; stroke-opacity:1; fill:none" points="
  475.666,1486.45 475.666,1469.18 
  "/>
<polyline clip-path="url(#clip790)" style="stroke:#000000; stroke-width:4; stroke-opacity:1; fill:none" points="
  881.087,1486.45 881.087,1469.18 
  "/>
<polyline clip-path="url(#clip790)" style="stroke:#000000; stroke-width:4; stroke-opacity:1; fill:none" points="
  1286.51,1486.45 1286.51,1469.18 
  "/>
<polyline clip-path="url(#clip790)" style="stroke:#000000; stroke-width:4; stroke-opacity:1; fill:none" points="
  1691.93,1486.45 1691.93,1469.18 
  "/>
<polyline clip-path="url(#clip790)" style="stroke:#000000; stroke-width:4; stroke-opacity:1; fill:none" points="
  2097.35,1486.45 2097.35,1469.18 
  "/>
<polyline clip-path="url(#clip790)" style="stroke:#000000; stroke-width:4; stroke-opacity:1; fill:none" points="
  166.205,1445.72 192.443,1445.72 
  "/>
<polyline clip-path="url(#clip790)" style="stroke:#000000; stroke-width:4; stroke-opacity:1; fill:none" points="
  166.205,1097.13 192.443,1097.13 
  "/>
<polyline clip-path="url(#clip790)" style="stroke:#000000; stroke-width:4; stroke-opacity:1; fill:none" points="
  166.205,748.545 192.443,748.545 
  "/>
<polyline clip-path="url(#clip790)" style="stroke:#000000; stroke-width:4; stroke-opacity:1; fill:none" points="
  166.205,399.96 192.443,399.96 
  "/>
<polyline clip-path="url(#clip790)" style="stroke:#000000; stroke-width:4; stroke-opacity:1; fill:none" points="
  166.205,51.3748 192.443,51.3748 
  "/>
<path clip-path="url(#clip790)" d="M 0 0 M455.839 1525.04 L468.316 1525.04 L468.316 1528.83 L455.839 1528.83 L455.839 1525.04 Z" fill="#000000" fill-rule="evenodd" fill-opacity="1" /><path clip-path="url(#clip790)" d="M 0 0 M483.964 1520.78 Q480.816 1520.78 478.964 1522.93 Q477.135 1525.08 477.135 1528.83 Q477.135 1532.56 478.964 1534.73 Q480.816 1536.89 483.964 1536.89 Q487.112 1536.89 488.941 1534.73 Q490.793 1532.56 490.793 1528.83 Q490.793 1525.08 488.941 1522.93 Q487.112 1520.78 483.964 1520.78 M493.246 1506.12 L493.246 1510.38 Q491.487 1509.55 489.682 1509.11 Q487.899 1508.67 486.14 1508.67 Q481.51 1508.67 479.057 1511.8 Q476.626 1514.92 476.279 1521.24 Q477.645 1519.23 479.705 1518.16 Q481.765 1517.07 484.242 1517.07 Q489.45 1517.07 492.459 1520.24 Q495.492 1523.39 495.492 1528.83 Q495.492 1534.16 492.344 1537.37 Q489.196 1540.59 483.964 1540.59 Q477.969 1540.59 474.797 1536.01 Q471.626 1531.4 471.626 1522.67 Q471.626 1514.48 475.515 1509.62 Q479.404 1504.73 485.955 1504.73 Q487.714 1504.73 489.496 1505.08 Q491.302 1505.43 493.246 1506.12 Z" fill="#000000" fill-rule="evenodd" fill-opacity="1" /><path clip-path="url(#clip790)" d="M 0 0 M861.666 1525.04 L874.143 1525.04 L874.143 1528.83 L861.666 1528.83 L861.666 1525.04 Z" fill="#000000" fill-rule="evenodd" fill-opacity="1" /><path clip-path="url(#clip790)" d="M 0 0 M893.379 1521.29 Q896.735 1522 898.61 1524.27 Q900.508 1526.54 900.508 1529.87 Q900.508 1534.99 896.99 1537.79 Q893.471 1540.59 886.99 1540.59 Q884.814 1540.59 882.499 1540.15 Q880.207 1539.73 877.754 1538.88 L877.754 1534.36 Q879.698 1535.5 882.013 1536.08 Q884.328 1536.66 886.851 1536.66 Q891.249 1536.66 893.541 1534.92 Q895.855 1533.18 895.855 1529.87 Q895.855 1526.82 893.703 1525.11 Q891.573 1523.37 887.754 1523.37 L883.726 1523.37 L883.726 1519.53 L887.939 1519.53 Q891.388 1519.53 893.217 1518.16 Q895.045 1516.77 895.045 1514.18 Q895.045 1511.52 893.147 1510.11 Q891.272 1508.67 887.754 1508.67 Q885.832 1508.67 883.633 1509.09 Q881.434 1509.5 878.795 1510.38 L878.795 1506.22 Q881.457 1505.48 883.772 1505.11 Q886.11 1504.73 888.17 1504.73 Q893.494 1504.73 896.596 1507.17 Q899.698 1509.57 899.698 1513.69 Q899.698 1516.56 898.054 1518.55 Q896.411 1520.52 893.379 1521.29 Z" fill="#000000" fill-rule="evenodd" fill-opacity="1" /><path clip-path="url(#clip790)" d="M 0 0 M1286.51 1508.44 Q1282.9 1508.44 1281.07 1512 Q1279.26 1515.55 1279.26 1522.67 Q1279.26 1529.78 1281.07 1533.35 Q1282.9 1536.89 1286.51 1536.89 Q1290.14 1536.89 1291.95 1533.35 Q1293.78 1529.78 1293.78 1522.67 Q1293.78 1515.55 1291.95 1512 Q1290.14 1508.44 1286.51 1508.44 M1286.51 1504.73 Q1292.32 1504.73 1295.37 1509.34 Q1298.45 1513.92 1298.45 1522.67 Q1298.45 1531.4 1295.37 1536.01 Q1292.32 1540.59 1286.51 1540.59 Q1280.7 1540.59 1277.62 1536.01 Q1274.56 1531.4 1274.56 1522.67 Q1274.56 1513.92 1277.62 1509.34 Q1280.7 1504.73 1286.51 1504.73 Z" fill="#000000" fill-rule="evenodd" fill-opacity="1" /><path clip-path="url(#clip790)" d="M 0 0 M1696.18 1521.29 Q1699.53 1522 1701.41 1524.27 Q1703.31 1526.54 1703.31 1529.87 Q1703.31 1534.99 1699.79 1537.79 Q1696.27 1540.59 1689.79 1540.59 Q1687.61 1540.59 1685.3 1540.15 Q1683.01 1539.73 1680.55 1538.88 L1680.55 1534.36 Q1682.5 1535.5 1684.81 1536.08 Q1687.13 1536.66 1689.65 1536.66 Q1694.05 1536.66 1696.34 1534.92 Q1698.65 1533.18 1698.65 1529.87 Q1698.65 1526.82 1696.5 1525.11 Q1694.37 1523.37 1690.55 1523.37 L1686.52 1523.37 L1686.52 1519.53 L1690.74 1519.53 Q1694.19 1519.53 1696.02 1518.16 Q1697.84 1516.77 1697.84 1514.18 Q1697.84 1511.52 1695.95 1510.11 Q1694.07 1508.67 1690.55 1508.67 Q1688.63 1508.67 1686.43 1509.09 Q1684.23 1509.5 1681.59 1510.38 L1681.59 1506.22 Q1684.26 1505.48 1686.57 1505.11 Q1688.91 1504.73 1690.97 1504.73 Q1696.29 1504.73 1699.4 1507.17 Q1702.5 1509.57 1702.5 1513.69 Q1702.5 1516.56 1700.85 1518.55 Q1699.21 1520.52 1696.18 1521.29 Z" fill="#000000" fill-rule="evenodd" fill-opacity="1" /><path clip-path="url(#clip790)" d="M 0 0 M2097.76 1520.78 Q2094.61 1520.78 2092.76 1522.93 Q2090.93 1525.08 2090.93 1528.83 Q2090.93 1532.56 2092.76 1534.73 Q2094.61 1536.89 2097.76 1536.89 Q2100.9 1536.89 2102.73 1534.73 Q2104.58 1532.56 2104.58 1528.83 Q2104.58 1525.08 2102.73 1522.93 Q2100.9 1520.78 2097.76 1520.78 M2107.04 1506.12 L2107.04 1510.38 Q2105.28 1509.55 2103.47 1509.11 Q2101.69 1508.67 2099.93 1508.67 Q2095.3 1508.67 2092.85 1511.8 Q2090.42 1514.92 2090.07 1521.24 Q2091.44 1519.23 2093.5 1518.16 Q2095.56 1517.07 2098.03 1517.07 Q2103.24 1517.07 2106.25 1520.24 Q2109.28 1523.39 2109.28 1528.83 Q2109.28 1534.16 2106.14 1537.37 Q2102.99 1540.59 2097.76 1540.59 Q2091.76 1540.59 2088.59 1536.01 Q2085.42 1531.4 2085.42 1522.67 Q2085.42 1514.48 2089.31 1509.62 Q2093.2 1504.73 2099.75 1504.73 Q2101.51 1504.73 2103.29 1505.08 Q2105.09 1505.43 2107.04 1506.12 Z" fill="#000000" fill-rule="evenodd" fill-opacity="1" /><path clip-path="url(#clip790)" d="M 0 0 M130.26 1431.51 Q126.649 1431.51 124.82 1435.08 Q123.015 1438.62 123.015 1445.75 Q123.015 1452.86 124.82 1456.42 Q126.649 1459.96 130.26 1459.96 Q133.895 1459.96 135.7 1456.42 Q137.529 1452.86 137.529 1445.75 Q137.529 1438.62 135.7 1435.08 Q133.895 1431.51 130.26 1431.51 M130.26 1427.81 Q136.07 1427.81 139.126 1432.42 Q142.205 1437 142.205 1445.75 Q142.205 1454.48 139.126 1459.08 Q136.07 1463.67 130.26 1463.67 Q124.45 1463.67 121.371 1459.08 Q118.316 1454.48 118.316 1445.75 Q118.316 1437 121.371 1432.42 Q124.45 1427.81 130.26 1427.81 Z" fill="#000000" fill-rule="evenodd" fill-opacity="1" /><path clip-path="url(#clip790)" d="M 0 0 M71.8578 1110.48 L88.1772 1110.48 L88.1772 1114.41 L66.2328 1114.41 L66.2328 1110.48 Q68.8949 1107.72 73.4782 1103.09 Q78.0846 1098.44 79.2652 1097.1 Q81.5105 1094.57 82.3902 1092.84 Q83.2929 1091.08 83.2929 1089.39 Q83.2929 1086.63 81.3485 1084.9 Q79.4272 1083.16 76.3254 1083.16 Q74.1263 1083.16 71.6726 1083.92 Q69.2421 1084.69 66.4643 1086.24 L66.4643 1081.52 Q69.2884 1080.38 71.7421 1079.8 Q74.1958 1079.23 76.2328 1079.23 Q81.6031 1079.23 84.7976 1081.91 Q87.992 1084.6 87.992 1089.09 Q87.992 1091.22 87.1818 1093.14 Q86.3948 1095.04 84.2883 1097.63 Q83.7096 1098.3 80.6078 1101.52 Q77.5059 1104.71 71.8578 1110.48 Z" fill="#000000" fill-rule="evenodd" fill-opacity="1" /><path clip-path="url(#clip790)" d="M 0 0 M103.247 1082.93 Q99.6354 1082.93 97.8068 1086.49 Q96.0012 1090.04 96.0012 1097.17 Q96.0012 1104.27 97.8068 1107.84 Q99.6354 1111.38 103.247 1111.38 Q106.881 1111.38 108.686 1107.84 Q110.515 1104.27 110.515 1097.17 Q110.515 1090.04 108.686 1086.49 Q106.881 1082.93 103.247 1082.93 M103.247 1079.23 Q109.057 1079.23 112.112 1083.83 Q115.191 1088.42 115.191 1097.17 Q115.191 1105.89 112.112 1110.5 Q109.057 1115.08 103.247 1115.08 Q97.4364 1115.08 94.3577 1110.5 Q91.3022 1105.89 91.3022 1097.17 Q91.3022 1088.42 94.3577 1083.83 Q97.4364 1079.23 103.247 1079.23 Z" fill="#000000" fill-rule="evenodd" fill-opacity="1" /><path clip-path="url(#clip790)" d="M 0 0 M130.26 1082.93 Q126.649 1082.93 124.82 1086.49 Q123.015 1090.04 123.015 1097.17 Q123.015 1104.27 124.82 1107.84 Q126.649 1111.38 130.26 1111.38 Q133.895 1111.38 135.7 1107.84 Q137.529 1104.27 137.529 1097.17 Q137.529 1090.04 135.7 1086.49 Q133.895 1082.93 130.26 1082.93 M130.26 1079.23 Q136.07 1079.23 139.126 1083.83 Q142.205 1088.42 142.205 1097.17 Q142.205 1105.89 139.126 1110.5 Q136.07 1115.08 130.26 1115.08 Q124.45 1115.08 121.371 1110.5 Q118.316 1105.89 118.316 1097.17 Q118.316 1088.42 121.371 1083.83 Q124.45 1079.23 130.26 1079.23 Z" fill="#000000" fill-rule="evenodd" fill-opacity="1" /><path clip-path="url(#clip790)" d="M 0 0 M78.5939 735.339 L66.7884 753.788 L78.5939 753.788 L78.5939 735.339 M77.367 731.265 L83.2466 731.265 L83.2466 753.788 L88.1772 753.788 L88.1772 757.677 L83.2466 757.677 L83.2466 765.825 L78.5939 765.825 L78.5939 757.677 L62.9921 757.677 L62.9921 753.163 L77.367 731.265 Z" fill="#000000" fill-rule="evenodd" fill-opacity="1" /><path clip-path="url(#clip790)" d="M 0 0 M103.247 734.344 Q99.6354 734.344 97.8068 737.909 Q96.0012 741.45 96.0012 748.58 Q96.0012 755.686 97.8068 759.251 Q99.6354 762.793 103.247 762.793 Q106.881 762.793 108.686 759.251 Q110.515 755.686 110.515 748.58 Q110.515 741.45 108.686 737.909 Q106.881 734.344 103.247 734.344 M103.247 730.64 Q109.057 730.64 112.112 735.247 Q115.191 739.83 115.191 748.58 Q115.191 757.307 112.112 761.913 Q109.057 766.497 103.247 766.497 Q97.4364 766.497 94.3577 761.913 Q91.3022 757.307 91.3022 748.58 Q91.3022 739.83 94.3577 735.247 Q97.4364 730.64 103.247 730.64 Z" fill="#000000" fill-rule="evenodd" fill-opacity="1" /><path clip-path="url(#clip790)" d="M 0 0 M130.26 734.344 Q126.649 734.344 124.82 737.909 Q123.015 741.45 123.015 748.58 Q123.015 755.686 124.82 759.251 Q126.649 762.793 130.26 762.793 Q133.895 762.793 135.7 759.251 Q137.529 755.686 137.529 748.58 Q137.529 741.45 135.7 737.909 Q133.895 734.344 130.26 734.344 M130.26 730.64 Q136.07 730.64 139.126 735.247 Q142.205 739.83 142.205 748.58 Q142.205 757.307 139.126 761.913 Q136.07 766.497 130.26 766.497 Q124.45 766.497 121.371 761.913 Q118.316 757.307 118.316 748.58 Q118.316 739.83 121.371 735.247 Q124.45 730.64 130.26 730.64 Z" fill="#000000" fill-rule="evenodd" fill-opacity="1" /><path clip-path="url(#clip790)" d="M 0 0 M76.6495 398.097 Q73.5013 398.097 71.6495 400.249 Q69.8208 402.402 69.8208 406.152 Q69.8208 409.879 71.6495 412.055 Q73.5013 414.208 76.6495 414.208 Q79.7976 414.208 81.6263 412.055 Q83.4781 409.879 83.4781 406.152 Q83.4781 402.402 81.6263 400.249 Q79.7976 398.097 76.6495 398.097 M85.9318 383.444 L85.9318 387.703 Q84.1726 386.87 82.367 386.43 Q80.5846 385.99 78.8254 385.99 Q74.1958 385.99 71.7421 389.115 Q69.3115 392.24 68.9643 398.56 Q70.33 396.546 72.3902 395.481 Q74.4504 394.393 76.9272 394.393 Q82.1355 394.393 85.1448 397.564 Q88.1772 400.712 88.1772 406.152 Q88.1772 411.476 85.029 414.694 Q81.8809 417.911 76.6495 417.911 Q70.6541 417.911 67.4828 413.328 Q64.3116 408.722 64.3116 399.995 Q64.3116 391.8 68.2004 386.939 Q72.0893 382.055 78.6402 382.055 Q80.3994 382.055 82.1818 382.402 Q83.9874 382.749 85.9318 383.444 Z" fill="#000000" fill-rule="evenodd" fill-opacity="1" /><path clip-path="url(#clip790)" d="M 0 0 M103.247 385.759 Q99.6354 385.759 97.8068 389.324 Q96.0012 392.865 96.0012 399.995 Q96.0012 407.101 97.8068 410.666 Q99.6354 414.208 103.247 414.208 Q106.881 414.208 108.686 410.666 Q110.515 407.101 110.515 399.995 Q110.515 392.865 108.686 389.324 Q106.881 385.759 103.247 385.759 M103.247 382.055 Q109.057 382.055 112.112 386.662 Q115.191 391.245 115.191 399.995 Q115.191 408.722 112.112 413.328 Q109.057 417.911 103.247 417.911 Q97.4364 417.911 94.3577 413.328 Q91.3022 408.722 91.3022 399.995 Q91.3022 391.245 94.3577 386.662 Q97.4364 382.055 103.247 382.055 Z" fill="#000000" fill-rule="evenodd" fill-opacity="1" /><path clip-path="url(#clip790)" d="M 0 0 M130.26 385.759 Q126.649 385.759 124.82 389.324 Q123.015 392.865 123.015 399.995 Q123.015 407.101 124.82 410.666 Q126.649 414.208 130.26 414.208 Q133.895 414.208 135.7 410.666 Q137.529 407.101 137.529 399.995 Q137.529 392.865 135.7 389.324 Q133.895 385.759 130.26 385.759 M130.26 382.055 Q136.07 382.055 139.126 386.662 Q142.205 391.245 142.205 399.995 Q142.205 408.722 139.126 413.328 Q136.07 417.911 130.26 417.911 Q124.45 417.911 121.371 413.328 Q118.316 408.722 118.316 399.995 Q118.316 391.245 121.371 386.662 Q124.45 382.055 130.26 382.055 Z" fill="#000000" fill-rule="evenodd" fill-opacity="1" /><path clip-path="url(#clip790)" d="M 0 0 M76.3254 52.2429 Q72.9921 52.2429 71.0708 54.0253 Q69.1726 55.8077 69.1726 58.9327 Q69.1726 62.0576 71.0708 63.84 Q72.9921 65.6224 76.3254 65.6224 Q79.6587 65.6224 81.58 63.84 Q83.5013 62.0345 83.5013 58.9327 Q83.5013 55.8077 81.58 54.0253 Q79.6819 52.2429 76.3254 52.2429 M71.6495 50.2522 Q68.6402 49.5114 66.9504 47.4512 Q65.2838 45.3911 65.2838 42.4281 Q65.2838 38.2846 68.2236 35.8772 Q71.1865 33.4698 76.3254 33.4698 Q81.4874 33.4698 84.4272 35.8772 Q87.367 38.2846 87.367 42.4281 Q87.367 45.3911 85.6772 47.4512 Q84.0105 49.5114 81.0244 50.2522 Q84.404 51.0392 86.279 53.3308 Q88.1772 55.6225 88.1772 58.9327 Q88.1772 63.9558 85.0985 66.641 Q82.0429 69.3261 76.3254 69.3261 Q70.6078 69.3261 67.5291 66.641 Q64.4736 63.9558 64.4736 58.9327 Q64.4736 55.6225 66.3717 53.3308 Q68.2699 51.0392 71.6495 50.2522 M69.9365 42.8679 Q69.9365 45.5531 71.6032 47.0577 Q73.293 48.5623 76.3254 48.5623 Q79.3346 48.5623 81.0244 47.0577 Q82.7374 45.5531 82.7374 42.8679 Q82.7374 40.1828 81.0244 38.6781 Q79.3346 37.1735 76.3254 37.1735 Q73.293 37.1735 71.6032 38.6781 Q69.9365 40.1828 69.9365 42.8679 Z" fill="#000000" fill-rule="evenodd" fill-opacity="1" /><path clip-path="url(#clip790)" d="M 0 0 M103.247 37.1735 Q99.6354 37.1735 97.8068 40.7383 Q96.0012 44.28 96.0012 51.4096 Q96.0012 58.516 97.8068 62.0808 Q99.6354 65.6224 103.247 65.6224 Q106.881 65.6224 108.686 62.0808 Q110.515 58.516 110.515 51.4096 Q110.515 44.28 108.686 40.7383 Q106.881 37.1735 103.247 37.1735 M103.247 33.4698 Q109.057 33.4698 112.112 38.0763 Q115.191 42.6596 115.191 51.4096 Q115.191 60.1364 112.112 64.7428 Q109.057 69.3261 103.247 69.3261 Q97.4364 69.3261 94.3577 64.7428 Q91.3022 60.1364 91.3022 51.4096 Q91.3022 42.6596 94.3577 38.0763 Q97.4364 33.4698 103.247 33.4698 Z" fill="#000000" fill-rule="evenodd" fill-opacity="1" /><path clip-path="url(#clip790)" d="M 0 0 M130.26 37.1735 Q126.649 37.1735 124.82 40.7383 Q123.015 44.28 123.015 51.4096 Q123.015 58.516 124.82 62.0808 Q126.649 65.6224 130.26 65.6224 Q133.895 65.6224 135.7 62.0808 Q137.529 58.516 137.529 51.4096 Q137.529 44.28 135.7 40.7383 Q133.895 37.1735 130.26 37.1735 M130.26 33.4698 Q136.07 33.4698 139.126 38.0763 Q142.205 42.6596 142.205 51.4096 Q142.205 60.1364 139.126 64.7428 Q136.07 69.3261 130.26 69.3261 Q124.45 69.3261 121.371 64.7428 Q118.316 60.1364 118.316 51.4096 Q118.316 42.6596 121.371 38.0763 Q124.45 33.4698 130.26 33.4698 Z" fill="#000000" fill-rule="evenodd" fill-opacity="1" /><path clip-path="url(#clip792)" d="
M286.469 1443.97 L286.469 1445.72 L313.497 1445.72 L313.497 1443.97 L286.469 1443.97 L286.469 1443.97  Z
  " fill="#009af9" fill-rule="evenodd" fill-opacity="1"/>
<polyline clip-path="url(#clip792)" style="stroke:#000000; stroke-width:4; stroke-opacity:1; fill:none" points="
  286.469,1443.97 286.469,1445.72 313.497,1445.72 313.497,1443.97 286.469,1443.97 
  "/>
<path clip-path="url(#clip792)" d="
M313.497 1445.72 L313.497 1445.72 L340.525 1445.72 L340.525 1445.72 L313.497 1445.72 L313.497 1445.72  Z
  " fill="#009af9" fill-rule="evenodd" fill-opacity="1"/>
<polyline clip-path="url(#clip792)" style="stroke:#000000; stroke-width:4; stroke-opacity:1; fill:none" points="
  313.497,1445.72 313.497,1445.72 340.525,1445.72 313.497,1445.72 
  "/>
<path clip-path="url(#clip792)" d="
M340.525 1445.72 L340.525 1445.72 L367.553 1445.72 L367.553 1445.72 L340.525 1445.72 L340.525 1445.72  Z
  " fill="#009af9" fill-rule="evenodd" fill-opacity="1"/>
<polyline clip-path="url(#clip792)" style="stroke:#000000; stroke-width:4; stroke-opacity:1; fill:none" points="
  340.525,1445.72 340.525,1445.72 367.553,1445.72 340.525,1445.72 
  "/>
<path clip-path="url(#clip792)" d="
M367.553 1445.72 L367.553 1445.72 L394.581 1445.72 L394.581 1445.72 L367.553 1445.72 L367.553 1445.72  Z
  " fill="#009af9" fill-rule="evenodd" fill-opacity="1"/>
<polyline clip-path="url(#clip792)" style="stroke:#000000; stroke-width:4; stroke-opacity:1; fill:none" points="
  367.553,1445.72 367.553,1445.72 394.581,1445.72 367.553,1445.72 
  "/>
<path clip-path="url(#clip792)" d="
M394.581 1445.72 L394.581 1445.72 L421.609 1445.72 L421.609 1445.72 L394.581 1445.72 L394.581 1445.72  Z
  " fill="#009af9" fill-rule="evenodd" fill-opacity="1"/>
<polyline clip-path="url(#clip792)" style="stroke:#000000; stroke-width:4; stroke-opacity:1; fill:none" points="
  394.581,1445.72 394.581,1445.72 421.609,1445.72 394.581,1445.72 
  "/>
<path clip-path="url(#clip792)" d="
M421.609 1443.97 L421.609 1445.72 L448.637 1445.72 L448.637 1443.97 L421.609 1443.97 L421.609 1443.97  Z
  " fill="#009af9" fill-rule="evenodd" fill-opacity="1"/>
<polyline clip-path="url(#clip792)" style="stroke:#000000; stroke-width:4; stroke-opacity:1; fill:none" points="
  421.609,1443.97 421.609,1445.72 448.637,1445.72 448.637,1443.97 421.609,1443.97 
  "/>
<path clip-path="url(#clip792)" d="
M448.637 1443.97 L448.637 1445.72 L475.666 1445.72 L475.666 1443.97 L448.637 1443.97 L448.637 1443.97  Z
  " fill="#009af9" fill-rule="evenodd" fill-opacity="1"/>
<polyline clip-path="url(#clip792)" style="stroke:#000000; stroke-width:4; stroke-opacity:1; fill:none" points="
  448.637,1443.97 448.637,1445.72 475.666,1445.72 475.666,1443.97 448.637,1443.97 
  "/>
<path clip-path="url(#clip792)" d="
M475.666 1442.23 L475.666 1445.72 L502.694 1445.72 L502.694 1442.23 L475.666 1442.23 L475.666 1442.23  Z
  " fill="#009af9" fill-rule="evenodd" fill-opacity="1"/>
<polyline clip-path="url(#clip792)" style="stroke:#000000; stroke-width:4; stroke-opacity:1; fill:none" points="
  475.666,1442.23 475.666,1445.72 502.694,1445.72 502.694,1442.23 475.666,1442.23 
  "/>
<path clip-path="url(#clip792)" d="
M502.694 1437 L502.694 1445.72 L529.722 1445.72 L529.722 1437 L502.694 1437 L502.694 1437  Z
  " fill="#009af9" fill-rule="evenodd" fill-opacity="1"/>
<polyline clip-path="url(#clip792)" style="stroke:#000000; stroke-width:4; stroke-opacity:1; fill:none" points="
  502.694,1437 502.694,1445.72 529.722,1445.72 529.722,1437 502.694,1437 
  "/>
<path clip-path="url(#clip792)" d="
M529.722 1442.23 L529.722 1445.72 L556.75 1445.72 L556.75 1442.23 L529.722 1442.23 L529.722 1442.23  Z
  " fill="#009af9" fill-rule="evenodd" fill-opacity="1"/>
<polyline clip-path="url(#clip792)" style="stroke:#000000; stroke-width:4; stroke-opacity:1; fill:none" points="
  529.722,1442.23 529.722,1445.72 556.75,1445.72 556.75,1442.23 529.722,1442.23 
  "/>
<path clip-path="url(#clip792)" d="
M556.75 1443.97 L556.75 1445.72 L583.778 1445.72 L583.778 1443.97 L556.75 1443.97 L556.75 1443.97  Z
  " fill="#009af9" fill-rule="evenodd" fill-opacity="1"/>
<polyline clip-path="url(#clip792)" style="stroke:#000000; stroke-width:4; stroke-opacity:1; fill:none" points="
  556.75,1443.97 556.75,1445.72 583.778,1445.72 583.778,1443.97 556.75,1443.97 
  "/>
<path clip-path="url(#clip792)" d="
M583.778 1443.97 L583.778 1445.72 L610.806 1445.72 L610.806 1443.97 L583.778 1443.97 L583.778 1443.97  Z
  " fill="#009af9" fill-rule="evenodd" fill-opacity="1"/>
<polyline clip-path="url(#clip792)" style="stroke:#000000; stroke-width:4; stroke-opacity:1; fill:none" points="
  583.778,1443.97 583.778,1445.72 610.806,1445.72 610.806,1443.97 583.778,1443.97 
  "/>
<path clip-path="url(#clip792)" d="
M610.806 1438.74 L610.806 1445.72 L637.834 1445.72 L637.834 1438.74 L610.806 1438.74 L610.806 1438.74  Z
  " fill="#009af9" fill-rule="evenodd" fill-opacity="1"/>
<polyline clip-path="url(#clip792)" style="stroke:#000000; stroke-width:4; stroke-opacity:1; fill:none" points="
  610.806,1438.74 610.806,1445.72 637.834,1445.72 637.834,1438.74 610.806,1438.74 
  "/>
<path clip-path="url(#clip792)" d="
M637.834 1431.77 L637.834 1445.72 L664.862 1445.72 L664.862 1431.77 L637.834 1431.77 L637.834 1431.77  Z
  " fill="#009af9" fill-rule="evenodd" fill-opacity="1"/>
<polyline clip-path="url(#clip792)" style="stroke:#000000; stroke-width:4; stroke-opacity:1; fill:none" points="
  637.834,1431.77 637.834,1445.72 664.862,1445.72 664.862,1431.77 637.834,1431.77 
  "/>
<path clip-path="url(#clip792)" d="
M664.862 1421.31 L664.862 1445.72 L691.89 1445.72 L691.89 1421.31 L664.862 1421.31 L664.862 1421.31  Z
  " fill="#009af9" fill-rule="evenodd" fill-opacity="1"/>
<polyline clip-path="url(#clip792)" style="stroke:#000000; stroke-width:4; stroke-opacity:1; fill:none" points="
  664.862,1421.31 664.862,1445.72 691.89,1445.72 691.89,1421.31 664.862,1421.31 
  "/>
<path clip-path="url(#clip792)" d="
M691.89 1428.29 L691.89 1445.72 L718.918 1445.72 L718.918 1428.29 L691.89 1428.29 L691.89 1428.29  Z
  " fill="#009af9" fill-rule="evenodd" fill-opacity="1"/>
<polyline clip-path="url(#clip792)" style="stroke:#000000; stroke-width:4; stroke-opacity:1; fill:none" points="
  691.89,1428.29 691.89,1445.72 718.918,1445.72 718.918,1428.29 691.89,1428.29 
  "/>
<path clip-path="url(#clip792)" d="
M718.918 1428.29 L718.918 1445.72 L745.946 1445.72 L745.946 1428.29 L718.918 1428.29 L718.918 1428.29  Z
  " fill="#009af9" fill-rule="evenodd" fill-opacity="1"/>
<polyline clip-path="url(#clip792)" style="stroke:#000000; stroke-width:4; stroke-opacity:1; fill:none" points="
  718.918,1428.29 718.918,1445.72 745.946,1445.72 745.946,1428.29 718.918,1428.29 
  "/>
<path clip-path="url(#clip792)" d="
M745.946 1400.4 L745.946 1445.72 L772.975 1445.72 L772.975 1400.4 L745.946 1400.4 L745.946 1400.4  Z
  " fill="#009af9" fill-rule="evenodd" fill-opacity="1"/>
<polyline clip-path="url(#clip792)" style="stroke:#000000; stroke-width:4; stroke-opacity:1; fill:none" points="
  745.946,1400.4 745.946,1445.72 772.975,1445.72 772.975,1400.4 745.946,1400.4 
  "/>
<path clip-path="url(#clip792)" d="
M772.975 1407.37 L772.975 1445.72 L800.003 1445.72 L800.003 1407.37 L772.975 1407.37 L772.975 1407.37  Z
  " fill="#009af9" fill-rule="evenodd" fill-opacity="1"/>
<polyline clip-path="url(#clip792)" style="stroke:#000000; stroke-width:4; stroke-opacity:1; fill:none" points="
  772.975,1407.37 772.975,1445.72 800.003,1445.72 800.003,1407.37 772.975,1407.37 
  "/>
<path clip-path="url(#clip792)" d="
M800.003 1377.74 L800.003 1445.72 L827.031 1445.72 L827.031 1377.74 L800.003 1377.74 L800.003 1377.74  Z
  " fill="#009af9" fill-rule="evenodd" fill-opacity="1"/>
<polyline clip-path="url(#clip792)" style="stroke:#000000; stroke-width:4; stroke-opacity:1; fill:none" points="
  800.003,1377.74 800.003,1445.72 827.031,1445.72 827.031,1377.74 800.003,1377.74 
  "/>
<path clip-path="url(#clip792)" d="
M827.031 1389.94 L827.031 1445.72 L854.059 1445.72 L854.059 1389.94 L827.031 1389.94 L827.031 1389.94  Z
  " fill="#009af9" fill-rule="evenodd" fill-opacity="1"/>
<polyline clip-path="url(#clip792)" style="stroke:#000000; stroke-width:4; stroke-opacity:1; fill:none" points="
  827.031,1389.94 827.031,1445.72 854.059,1445.72 854.059,1389.94 827.031,1389.94 
  "/>
<path clip-path="url(#clip792)" d="
M854.059 1391.68 L854.059 1445.72 L881.087 1445.72 L881.087 1391.68 L854.059 1391.68 L854.059 1391.68  Z
  " fill="#009af9" fill-rule="evenodd" fill-opacity="1"/>
<polyline clip-path="url(#clip792)" style="stroke:#000000; stroke-width:4; stroke-opacity:1; fill:none" points="
  854.059,1391.68 854.059,1445.72 881.087,1445.72 881.087,1391.68 854.059,1391.68 
  "/>
<path clip-path="url(#clip792)" d="
M881.087 1386.46 L881.087 1445.72 L908.115 1445.72 L908.115 1386.46 L881.087 1386.46 L881.087 1386.46  Z
  " fill="#009af9" fill-rule="evenodd" fill-opacity="1"/>
<polyline clip-path="url(#clip792)" style="stroke:#000000; stroke-width:4; stroke-opacity:1; fill:none" points="
  881.087,1386.46 881.087,1445.72 908.115,1445.72 908.115,1386.46 881.087,1386.46 
  "/>
<path clip-path="url(#clip792)" d="
M908.115 1353.34 L908.115 1445.72 L935.143 1445.72 L935.143 1353.34 L908.115 1353.34 L908.115 1353.34  Z
  " fill="#009af9" fill-rule="evenodd" fill-opacity="1"/>
<polyline clip-path="url(#clip792)" style="stroke:#000000; stroke-width:4; stroke-opacity:1; fill:none" points="
  908.115,1353.34 908.115,1445.72 935.143,1445.72 935.143,1353.34 908.115,1353.34 
  "/>
<path clip-path="url(#clip792)" d="
M935.143 1367.28 L935.143 1445.72 L962.171 1445.72 L962.171 1367.28 L935.143 1367.28 L935.143 1367.28  Z
  " fill="#009af9" fill-rule="evenodd" fill-opacity="1"/>
<polyline clip-path="url(#clip792)" style="stroke:#000000; stroke-width:4; stroke-opacity:1; fill:none" points="
  935.143,1367.28 935.143,1445.72 962.171,1445.72 962.171,1367.28 935.143,1367.28 
  "/>
<path clip-path="url(#clip792)" d="
M962.171 1332.43 L962.171 1445.72 L989.199 1445.72 L989.199 1332.43 L962.171 1332.43 L962.171 1332.43  Z
  " fill="#009af9" fill-rule="evenodd" fill-opacity="1"/>
<polyline clip-path="url(#clip792)" style="stroke:#000000; stroke-width:4; stroke-opacity:1; fill:none" points="
  962.171,1332.43 962.171,1445.72 989.199,1445.72 989.199,1332.43 962.171,1332.43 
  "/>
<path clip-path="url(#clip792)" d="
M989.199 1311.51 L989.199 1445.72 L1016.23 1445.72 L1016.23 1311.51 L989.199 1311.51 L989.199 1311.51  Z
  " fill="#009af9" fill-rule="evenodd" fill-opacity="1"/>
<polyline clip-path="url(#clip792)" style="stroke:#000000; stroke-width:4; stroke-opacity:1; fill:none" points="
  989.199,1311.51 989.199,1445.72 1016.23,1445.72 1016.23,1311.51 989.199,1311.51 
  "/>
<path clip-path="url(#clip792)" d="
M1016.23 1321.97 L1016.23 1445.72 L1043.26 1445.72 L1043.26 1321.97 L1016.23 1321.97 L1016.23 1321.97  Z
  " fill="#009af9" fill-rule="evenodd" fill-opacity="1"/>
<polyline clip-path="url(#clip792)" style="stroke:#000000; stroke-width:4; stroke-opacity:1; fill:none" points="
  1016.23,1321.97 1016.23,1445.72 1043.26,1445.72 1043.26,1321.97 1016.23,1321.97 
  "/>
<path clip-path="url(#clip792)" d="
M1043.26 1313.25 L1043.26 1445.72 L1070.28 1445.72 L1070.28 1313.25 L1043.26 1313.25 L1043.26 1313.25  Z
  " fill="#009af9" fill-rule="evenodd" fill-opacity="1"/>
<polyline clip-path="url(#clip792)" style="stroke:#000000; stroke-width:4; stroke-opacity:1; fill:none" points="
  1043.26,1313.25 1043.26,1445.72 1070.28,1445.72 1070.28,1313.25 1043.26,1313.25 
  "/>
<path clip-path="url(#clip792)" d="
M1070.28 1271.42 L1070.28 1445.72 L1097.31 1445.72 L1097.31 1271.42 L1070.28 1271.42 L1070.28 1271.42  Z
  " fill="#009af9" fill-rule="evenodd" fill-opacity="1"/>
<polyline clip-path="url(#clip792)" style="stroke:#000000; stroke-width:4; stroke-opacity:1; fill:none" points="
  1070.28,1271.42 1070.28,1445.72 1097.31,1445.72 1097.31,1271.42 1070.28,1271.42 
  "/>
<path clip-path="url(#clip792)" d="
M1097.31 1304.54 L1097.31 1445.72 L1124.34 1445.72 L1124.34 1304.54 L1097.31 1304.54 L1097.31 1304.54  Z
  " fill="#009af9" fill-rule="evenodd" fill-opacity="1"/>
<polyline clip-path="url(#clip792)" style="stroke:#000000; stroke-width:4; stroke-opacity:1; fill:none" points="
  1097.31,1304.54 1097.31,1445.72 1124.34,1445.72 1124.34,1304.54 1097.31,1304.54 
  "/>
<path clip-path="url(#clip792)" d="
M1124.34 1281.88 L1124.34 1445.72 L1151.37 1445.72 L1151.37 1281.88 L1124.34 1281.88 L1124.34 1281.88  Z
  " fill="#009af9" fill-rule="evenodd" fill-opacity="1"/>
<polyline clip-path="url(#clip792)" style="stroke:#000000; stroke-width:4; stroke-opacity:1; fill:none" points="
  1124.34,1281.88 1124.34,1445.72 1151.37,1445.72 1151.37,1281.88 1124.34,1281.88 
  "/>
<path clip-path="url(#clip792)" d="
M1151.37 1243.54 L1151.37 1445.72 L1178.4 1445.72 L1178.4 1243.54 L1151.37 1243.54 L1151.37 1243.54  Z
  " fill="#009af9" fill-rule="evenodd" fill-opacity="1"/>
<polyline clip-path="url(#clip792)" style="stroke:#000000; stroke-width:4; stroke-opacity:1; fill:none" points="
  1151.37,1243.54 1151.37,1445.72 1178.4,1445.72 1178.4,1243.54 1151.37,1243.54 
  "/>
<path clip-path="url(#clip792)" d="
M1178.4 1240.05 L1178.4 1445.72 L1205.42 1445.72 L1205.42 1240.05 L1178.4 1240.05 L1178.4 1240.05  Z
  " fill="#009af9" fill-rule="evenodd" fill-opacity="1"/>
<polyline clip-path="url(#clip792)" style="stroke:#000000; stroke-width:4; stroke-opacity:1; fill:none" points="
  1178.4,1240.05 1178.4,1445.72 1205.42,1445.72 1205.42,1240.05 1178.4,1240.05 
  "/>
<path clip-path="url(#clip792)" d="
M1205.42 1233.08 L1205.42 1445.72 L1232.45 1445.72 L1232.45 1233.08 L1205.42 1233.08 L1205.42 1233.08  Z
  " fill="#009af9" fill-rule="evenodd" fill-opacity="1"/>
<polyline clip-path="url(#clip792)" style="stroke:#000000; stroke-width:4; stroke-opacity:1; fill:none" points="
  1205.42,1233.08 1205.42,1445.72 1232.45,1445.72 1232.45,1233.08 1205.42,1233.08 
  "/>
<path clip-path="url(#clip792)" d="
M1232.45 1215.65 L1232.45 1445.72 L1259.48 1445.72 L1259.48 1215.65 L1232.45 1215.65 L1232.45 1215.65  Z
  " fill="#009af9" fill-rule="evenodd" fill-opacity="1"/>
<polyline clip-path="url(#clip792)" style="stroke:#000000; stroke-width:4; stroke-opacity:1; fill:none" points="
  1232.45,1215.65 1232.45,1445.72 1259.48,1445.72 1259.48,1215.65 1232.45,1215.65 
  "/>
<path clip-path="url(#clip792)" d="
M1259.48 1240.05 L1259.48 1445.72 L1286.51 1445.72 L1286.51 1240.05 L1259.48 1240.05 L1259.48 1240.05  Z
  " fill="#009af9" fill-rule="evenodd" fill-opacity="1"/>
<polyline clip-path="url(#clip792)" style="stroke:#000000; stroke-width:4; stroke-opacity:1; fill:none" points="
  1259.48,1240.05 1259.48,1445.72 1286.51,1445.72 1286.51,1240.05 1259.48,1240.05 
  "/>
<path clip-path="url(#clip792)" d="
M1286.51 1247.02 L1286.51 1445.72 L1313.54 1445.72 L1313.54 1247.02 L1286.51 1247.02 L1286.51 1247.02  Z
  " fill="#009af9" fill-rule="evenodd" fill-opacity="1"/>
<polyline clip-path="url(#clip792)" style="stroke:#000000; stroke-width:4; stroke-opacity:1; fill:none" points="
  1286.51,1247.02 1286.51,1445.72 1313.54,1445.72 1313.54,1247.02 1286.51,1247.02 
  "/>
<path clip-path="url(#clip792)" d="
M1313.54 1252.25 L1313.54 1445.72 L1340.56 1445.72 L1340.56 1252.25 L1313.54 1252.25 L1313.54 1252.25  Z
  " fill="#009af9" fill-rule="evenodd" fill-opacity="1"/>
<polyline clip-path="url(#clip792)" style="stroke:#000000; stroke-width:4; stroke-opacity:1; fill:none" points="
  1313.54,1252.25 1313.54,1445.72 1340.56,1445.72 1340.56,1252.25 1313.54,1252.25 
  "/>
<path clip-path="url(#clip792)" d="
M1340.56 1186.02 L1340.56 1445.72 L1367.59 1445.72 L1367.59 1186.02 L1340.56 1186.02 L1340.56 1186.02  Z
  " fill="#009af9" fill-rule="evenodd" fill-opacity="1"/>
<polyline clip-path="url(#clip792)" style="stroke:#000000; stroke-width:4; stroke-opacity:1; fill:none" points="
  1340.56,1186.02 1340.56,1445.72 1367.59,1445.72 1367.59,1186.02 1340.56,1186.02 
  "/>
<path clip-path="url(#clip792)" d="
M1367.59 774.689 L1367.59 1445.72 L1394.62 1445.72 L1394.62 774.689 L1367.59 774.689 L1367.59 774.689  Z
  " fill="#009af9" fill-rule="evenodd" fill-opacity="1"/>
<polyline clip-path="url(#clip792)" style="stroke:#000000; stroke-width:4; stroke-opacity:1; fill:none" points="
  1367.59,774.689 1367.59,1445.72 1394.62,1445.72 1394.62,774.689 1367.59,774.689 
  "/>
<path clip-path="url(#clip792)" d="
M1394.62 87.9763 L1394.62 1445.72 L1421.65 1445.72 L1421.65 87.9763 L1394.62 87.9763 L1394.62 87.9763  Z
  " fill="#009af9" fill-rule="evenodd" fill-opacity="1"/>
<polyline clip-path="url(#clip792)" style="stroke:#000000; stroke-width:4; stroke-opacity:1; fill:none" points="
  1394.62,87.9763 1394.62,1445.72 1421.65,1445.72 1421.65,87.9763 1394.62,87.9763 
  "/>
<path clip-path="url(#clip792)" d="
M1421.65 108.891 L1421.65 1445.72 L1448.68 1445.72 L1448.68 108.891 L1421.65 108.891 L1421.65 108.891  Z
  " fill="#009af9" fill-rule="evenodd" fill-opacity="1"/>
<polyline clip-path="url(#clip792)" style="stroke:#000000; stroke-width:4; stroke-opacity:1; fill:none" points="
  1421.65,108.891 1421.65,1445.72 1448.68,1445.72 1448.68,108.891 1421.65,108.891 
  "/>
<path clip-path="url(#clip792)" d="
M1448.68 769.46 L1448.68 1445.72 L1475.71 1445.72 L1475.71 769.46 L1448.68 769.46 L1448.68 769.46  Z
  " fill="#009af9" fill-rule="evenodd" fill-opacity="1"/>
<polyline clip-path="url(#clip792)" style="stroke:#000000; stroke-width:4; stroke-opacity:1; fill:none" points="
  1448.68,769.46 1448.68,1445.72 1475.71,1445.72 1475.71,769.46 1448.68,769.46 
  "/>
<path clip-path="url(#clip792)" d="
M1475.71 1222.62 L1475.71 1445.72 L1502.73 1445.72 L1502.73 1222.62 L1475.71 1222.62 L1475.71 1222.62  Z
  " fill="#009af9" fill-rule="evenodd" fill-opacity="1"/>
<polyline clip-path="url(#clip792)" style="stroke:#000000; stroke-width:4; stroke-opacity:1; fill:none" points="
  1475.71,1222.62 1475.71,1445.72 1502.73,1445.72 1502.73,1222.62 1475.71,1222.62 
  "/>
<path clip-path="url(#clip792)" d="
M1502.73 1264.45 L1502.73 1445.72 L1529.76 1445.72 L1529.76 1264.45 L1502.73 1264.45 L1502.73 1264.45  Z
  " fill="#009af9" fill-rule="evenodd" fill-opacity="1"/>
<polyline clip-path="url(#clip792)" style="stroke:#000000; stroke-width:4; stroke-opacity:1; fill:none" points="
  1502.73,1264.45 1502.73,1445.72 1529.76,1445.72 1529.76,1264.45 1502.73,1264.45 
  "/>
<path clip-path="url(#clip792)" d="
M1529.76 1309.77 L1529.76 1445.72 L1556.79 1445.72 L1556.79 1309.77 L1529.76 1309.77 L1529.76 1309.77  Z
  " fill="#009af9" fill-rule="evenodd" fill-opacity="1"/>
<polyline clip-path="url(#clip792)" style="stroke:#000000; stroke-width:4; stroke-opacity:1; fill:none" points="
  1529.76,1309.77 1529.76,1445.72 1556.79,1445.72 1556.79,1309.77 1529.76,1309.77 
  "/>
<path clip-path="url(#clip792)" d="
M1556.79 1337.65 L1556.79 1445.72 L1583.82 1445.72 L1583.82 1337.65 L1556.79 1337.65 L1556.79 1337.65  Z
  " fill="#009af9" fill-rule="evenodd" fill-opacity="1"/>
<polyline clip-path="url(#clip792)" style="stroke:#000000; stroke-width:4; stroke-opacity:1; fill:none" points="
  1556.79,1337.65 1556.79,1445.72 1583.82,1445.72 1583.82,1337.65 1556.79,1337.65 
  "/>
<path clip-path="url(#clip792)" d="
M1583.82 1353.34 L1583.82 1445.72 L1610.85 1445.72 L1610.85 1353.34 L1583.82 1353.34 L1583.82 1353.34  Z
  " fill="#009af9" fill-rule="evenodd" fill-opacity="1"/>
<polyline clip-path="url(#clip792)" style="stroke:#000000; stroke-width:4; stroke-opacity:1; fill:none" points="
  1583.82,1353.34 1583.82,1445.72 1610.85,1445.72 1610.85,1353.34 1583.82,1353.34 
  "/>
<path clip-path="url(#clip792)" d="
M1610.85 1355.08 L1610.85 1445.72 L1637.87 1445.72 L1637.87 1355.08 L1610.85 1355.08 L1610.85 1355.08  Z
  " fill="#009af9" fill-rule="evenodd" fill-opacity="1"/>
<polyline clip-path="url(#clip792)" style="stroke:#000000; stroke-width:4; stroke-opacity:1; fill:none" points="
  1610.85,1355.08 1610.85,1445.72 1637.87,1445.72 1637.87,1355.08 1610.85,1355.08 
  "/>
<path clip-path="url(#clip792)" d="
M1637.87 1351.6 L1637.87 1445.72 L1664.9 1445.72 L1664.9 1351.6 L1637.87 1351.6 L1637.87 1351.6  Z
  " fill="#009af9" fill-rule="evenodd" fill-opacity="1"/>
<polyline clip-path="url(#clip792)" style="stroke:#000000; stroke-width:4; stroke-opacity:1; fill:none" points="
  1637.87,1351.6 1637.87,1445.72 1664.9,1445.72 1664.9,1351.6 1637.87,1351.6 
  "/>
<path clip-path="url(#clip792)" d="
M1664.9 1370.77 L1664.9 1445.72 L1691.93 1445.72 L1691.93 1370.77 L1664.9 1370.77 L1664.9 1370.77  Z
  " fill="#009af9" fill-rule="evenodd" fill-opacity="1"/>
<polyline clip-path="url(#clip792)" style="stroke:#000000; stroke-width:4; stroke-opacity:1; fill:none" points="
  1664.9,1370.77 1664.9,1445.72 1691.93,1445.72 1691.93,1370.77 1664.9,1370.77 
  "/>
<path clip-path="url(#clip792)" d="
M1691.93 1384.71 L1691.93 1445.72 L1718.96 1445.72 L1718.96 1384.71 L1691.93 1384.71 L1691.93 1384.71  Z
  " fill="#009af9" fill-rule="evenodd" fill-opacity="1"/>
<polyline clip-path="url(#clip792)" style="stroke:#000000; stroke-width:4; stroke-opacity:1; fill:none" points="
  1691.93,1384.71 1691.93,1445.72 1718.96,1445.72 1718.96,1384.71 1691.93,1384.71 
  "/>
<path clip-path="url(#clip792)" d="
M1718.96 1395.17 L1718.96 1445.72 L1745.99 1445.72 L1745.99 1395.17 L1718.96 1395.17 L1718.96 1395.17  Z
  " fill="#009af9" fill-rule="evenodd" fill-opacity="1"/>
<polyline clip-path="url(#clip792)" style="stroke:#000000; stroke-width:4; stroke-opacity:1; fill:none" points="
  1718.96,1395.17 1718.96,1445.72 1745.99,1445.72 1745.99,1395.17 1718.96,1395.17 
  "/>
<path clip-path="url(#clip792)" d="
M1745.99 1400.4 L1745.99 1445.72 L1773.01 1445.72 L1773.01 1400.4 L1745.99 1400.4 L1745.99 1400.4  Z
  " fill="#009af9" fill-rule="evenodd" fill-opacity="1"/>
<polyline clip-path="url(#clip792)" style="stroke:#000000; stroke-width:4; stroke-opacity:1; fill:none" points="
  1745.99,1400.4 1745.99,1445.72 1773.01,1445.72 1773.01,1400.4 1745.99,1400.4 
  "/>
<path clip-path="url(#clip792)" d="
M1773.01 1395.17 L1773.01 1445.72 L1800.04 1445.72 L1800.04 1395.17 L1773.01 1395.17 L1773.01 1395.17  Z
  " fill="#009af9" fill-rule="evenodd" fill-opacity="1"/>
<polyline clip-path="url(#clip792)" style="stroke:#000000; stroke-width:4; stroke-opacity:1; fill:none" points="
  1773.01,1395.17 1773.01,1445.72 1800.04,1445.72 1800.04,1395.17 1773.01,1395.17 
  "/>
<path clip-path="url(#clip792)" d="
M1800.04 1412.6 L1800.04 1445.72 L1827.07 1445.72 L1827.07 1412.6 L1800.04 1412.6 L1800.04 1412.6  Z
  " fill="#009af9" fill-rule="evenodd" fill-opacity="1"/>
<polyline clip-path="url(#clip792)" style="stroke:#000000; stroke-width:4; stroke-opacity:1; fill:none" points="
  1800.04,1412.6 1800.04,1445.72 1827.07,1445.72 1827.07,1412.6 1800.04,1412.6 
  "/>
<path clip-path="url(#clip792)" d="
M1827.07 1414.34 L1827.07 1445.72 L1854.1 1445.72 L1854.1 1414.34 L1827.07 1414.34 L1827.07 1414.34  Z
  " fill="#009af9" fill-rule="evenodd" fill-opacity="1"/>
<polyline clip-path="url(#clip792)" style="stroke:#000000; stroke-width:4; stroke-opacity:1; fill:none" points="
  1827.07,1414.34 1827.07,1445.72 1854.1,1445.72 1854.1,1414.34 1827.07,1414.34 
  "/>
<path clip-path="url(#clip792)" d="
M1854.1 1421.31 L1854.1 1445.72 L1881.13 1445.72 L1881.13 1421.31 L1854.1 1421.31 L1854.1 1421.31  Z
  " fill="#009af9" fill-rule="evenodd" fill-opacity="1"/>
<polyline clip-path="url(#clip792)" style="stroke:#000000; stroke-width:4; stroke-opacity:1; fill:none" points="
  1854.1,1421.31 1854.1,1445.72 1881.13,1445.72 1881.13,1421.31 1854.1,1421.31 
  "/>
<path clip-path="url(#clip792)" d="
M1881.13 1412.6 L1881.13 1445.72 L1908.15 1445.72 L1908.15 1412.6 L1881.13 1412.6 L1881.13 1412.6  Z
  " fill="#009af9" fill-rule="evenodd" fill-opacity="1"/>
<polyline clip-path="url(#clip792)" style="stroke:#000000; stroke-width:4; stroke-opacity:1; fill:none" points="
  1881.13,1412.6 1881.13,1445.72 1908.15,1445.72 1908.15,1412.6 1881.13,1412.6 
  "/>
<path clip-path="url(#clip792)" d="
M1908.15 1433.52 L1908.15 1445.72 L1935.18 1445.72 L1935.18 1433.52 L1908.15 1433.52 L1908.15 1433.52  Z
  " fill="#009af9" fill-rule="evenodd" fill-opacity="1"/>
<polyline clip-path="url(#clip792)" style="stroke:#000000; stroke-width:4; stroke-opacity:1; fill:none" points="
  1908.15,1433.52 1908.15,1445.72 1935.18,1445.72 1935.18,1433.52 1908.15,1433.52 
  "/>
<path clip-path="url(#clip792)" d="
M1935.18 1433.52 L1935.18 1445.72 L1962.21 1445.72 L1962.21 1433.52 L1935.18 1433.52 L1935.18 1433.52  Z
  " fill="#009af9" fill-rule="evenodd" fill-opacity="1"/>
<polyline clip-path="url(#clip792)" style="stroke:#000000; stroke-width:4; stroke-opacity:1; fill:none" points="
  1935.18,1433.52 1935.18,1445.72 1962.21,1445.72 1962.21,1433.52 1935.18,1433.52 
  "/>
<path clip-path="url(#clip792)" d="
M1962.21 1430.03 L1962.21 1445.72 L1989.24 1445.72 L1989.24 1430.03 L1962.21 1430.03 L1962.21 1430.03  Z
  " fill="#009af9" fill-rule="evenodd" fill-opacity="1"/>
<polyline clip-path="url(#clip792)" style="stroke:#000000; stroke-width:4; stroke-opacity:1; fill:none" points="
  1962.21,1430.03 1962.21,1445.72 1989.24,1445.72 1989.24,1430.03 1962.21,1430.03 
  "/>
<path clip-path="url(#clip792)" d="
M1989.24 1443.97 L1989.24 1445.72 L2016.27 1445.72 L2016.27 1443.97 L1989.24 1443.97 L1989.24 1443.97  Z
  " fill="#009af9" fill-rule="evenodd" fill-opacity="1"/>
<polyline clip-path="url(#clip792)" style="stroke:#000000; stroke-width:4; stroke-opacity:1; fill:none" points="
  1989.24,1443.97 1989.24,1445.72 2016.27,1445.72 2016.27,1443.97 1989.24,1443.97 
  "/>
<path clip-path="url(#clip792)" d="
M2016.27 1443.97 L2016.27 1445.72 L2043.3 1445.72 L2043.3 1443.97 L2016.27 1443.97 L2016.27 1443.97  Z
  " fill="#009af9" fill-rule="evenodd" fill-opacity="1"/>
<polyline clip-path="url(#clip792)" style="stroke:#000000; stroke-width:4; stroke-opacity:1; fill:none" points="
  2016.27,1443.97 2016.27,1445.72 2043.3,1445.72 2043.3,1443.97 2016.27,1443.97 
  "/>
<path clip-path="url(#clip792)" d="
M2043.3 1442.23 L2043.3 1445.72 L2070.32 1445.72 L2070.32 1442.23 L2043.3 1442.23 L2043.3 1442.23  Z
  " fill="#009af9" fill-rule="evenodd" fill-opacity="1"/>
<polyline clip-path="url(#clip792)" style="stroke:#000000; stroke-width:4; stroke-opacity:1; fill:none" points="
  2043.3,1442.23 2043.3,1445.72 2070.32,1445.72 2070.32,1442.23 2043.3,1442.23 
  "/>
<path clip-path="url(#clip792)" d="
M2070.32 1442.23 L2070.32 1445.72 L2097.35 1445.72 L2097.35 1442.23 L2070.32 1442.23 L2070.32 1442.23  Z
  " fill="#009af9" fill-rule="evenodd" fill-opacity="1"/>
<polyline clip-path="url(#clip792)" style="stroke:#000000; stroke-width:4; stroke-opacity:1; fill:none" points="
  2070.32,1442.23 2070.32,1445.72 2097.35,1445.72 2097.35,1442.23 2070.32,1442.23 
  "/>
<path clip-path="url(#clip792)" d="
M2097.35 1443.97 L2097.35 1445.72 L2124.38 1445.72 L2124.38 1443.97 L2097.35 1443.97 L2097.35 1443.97  Z
  " fill="#009af9" fill-rule="evenodd" fill-opacity="1"/>
<polyline clip-path="url(#clip792)" style="stroke:#000000; stroke-width:4; stroke-opacity:1; fill:none" points="
  2097.35,1443.97 2097.35,1445.72 2124.38,1445.72 2124.38,1443.97 2097.35,1443.97 
  "/>
<path clip-path="url(#clip792)" d="
M2124.38 1445.72 L2124.38 1445.72 L2151.41 1445.72 L2151.41 1445.72 L2124.38 1445.72 L2124.38 1445.72  Z
  " fill="#009af9" fill-rule="evenodd" fill-opacity="1"/>
<polyline clip-path="url(#clip792)" style="stroke:#000000; stroke-width:4; stroke-opacity:1; fill:none" points="
  2124.38,1445.72 2124.38,1445.72 2151.41,1445.72 2124.38,1445.72 
  "/>
<path clip-path="url(#clip792)" d="
M2151.41 1445.72 L2151.41 1445.72 L2178.44 1445.72 L2178.44 1445.72 L2151.41 1445.72 L2151.41 1445.72  Z
  " fill="#009af9" fill-rule="evenodd" fill-opacity="1"/>
<polyline clip-path="url(#clip792)" style="stroke:#000000; stroke-width:4; stroke-opacity:1; fill:none" points="
  2151.41,1445.72 2151.41,1445.72 2178.44,1445.72 2151.41,1445.72 
  "/>
<path clip-path="url(#clip792)" d="
M2178.44 1443.97 L2178.44 1445.72 L2205.46 1445.72 L2205.46 1443.97 L2178.44 1443.97 L2178.44 1443.97  Z
  " fill="#009af9" fill-rule="evenodd" fill-opacity="1"/>
<polyline clip-path="url(#clip792)" style="stroke:#000000; stroke-width:4; stroke-opacity:1; fill:none" points="
  2178.44,1443.97 2178.44,1445.72 2205.46,1445.72 2205.46,1443.97 2178.44,1443.97 
  "/>
<path clip-path="url(#clip792)" d="
M2205.46 1443.97 L2205.46 1445.72 L2232.49 1445.72 L2232.49 1443.97 L2205.46 1443.97 L2205.46 1443.97  Z
  " fill="#009af9" fill-rule="evenodd" fill-opacity="1"/>
<polyline clip-path="url(#clip792)" style="stroke:#000000; stroke-width:4; stroke-opacity:1; fill:none" points="
  2205.46,1443.97 2205.46,1445.72 2232.49,1445.72 2232.49,1443.97 2205.46,1443.97 
  "/>
<path clip-path="url(#clip790)" d="
M1989.74 251.724 L2280.76 251.724 L2280.76 130.764 L1989.74 130.764  Z
  " fill="#ffffff" fill-rule="evenodd" fill-opacity="1"/>
<polyline clip-path="url(#clip790)" style="stroke:#000000; stroke-width:4; stroke-opacity:1; fill:none" points="
  1989.74,251.724 2280.76,251.724 2280.76,130.764 1989.74,130.764 1989.74,251.724 
  "/>
<path clip-path="url(#clip790)" d="
M2013.74 215.436 L2157.74 215.436 L2157.74 167.052 L2013.74 167.052 L2013.74 215.436  Z
  " fill="#009af9" fill-rule="evenodd" fill-opacity="1"/>
<polyline clip-path="url(#clip790)" style="stroke:#000000; stroke-width:4; stroke-opacity:1; fill:none" points="
  2013.74,215.436 2157.74,215.436 2157.74,167.052 2013.74,167.052 2013.74,215.436 
  "/>
<path clip-path="url(#clip790)" d="M 0 0 M2195.58 210.931 Q2193.77 215.561 2192.06 216.973 Q2190.35 218.385 2187.48 218.385 L2184.08 218.385 L2184.08 214.82 L2186.58 214.82 Q2188.33 214.82 2189.31 213.987 Q2190.28 213.154 2191.46 210.052 L2192.22 208.107 L2181.74 182.598 L2186.25 182.598 L2194.35 202.876 L2202.46 182.598 L2206.97 182.598 L2195.58 210.931 Z" fill="#000000" fill-rule="evenodd" fill-opacity="1" /><path clip-path="url(#clip790)" d="M 0 0 M2212.85 204.589 L2220.49 204.589 L2220.49 178.223 L2212.18 179.89 L2212.18 175.631 L2220.44 173.964 L2225.12 173.964 L2225.12 204.589 L2232.76 204.589 L2232.76 208.524 L2212.85 208.524 L2212.85 204.589 Z" fill="#000000" fill-rule="evenodd" fill-opacity="1" /></svg>
