<?xml version="1.0" encoding="utf-8"?>
<svg xmlns="http://www.w3.org/2000/svg" xmlns:xlink="http://www.w3.org/1999/xlink" width="600" height="400" viewBox="0 0 2400 1600">
<defs>
  <clipPath id="clip470">
    <rect x="0" y="0" width="2400" height="1600"/>
  </clipPath>
</defs>
<path clip-path="url(#clip470)" d="
M0 1600 L2400 1600 L2400 0 L0 0  Z
  " fill="#ffffff" fill-rule="evenodd" fill-opacity="1"/>
<defs>
  <clipPath id="clip471">
    <rect x="480" y="0" width="1681" height="1600"/>
  </clipPath>
</defs>
<path clip-path="url(#clip470)" d="
M166.205 1486.45 L2352.76 1486.45 L2352.76 47.2441 L166.205 47.2441  Z
  " fill="#ffffff" fill-rule="evenodd" fill-opacity="1"/>
<defs>
  <clipPath id="clip472">
    <rect x="166" y="47" width="2188" height="1440"/>
  </clipPath>
</defs>
<polyline clip-path="url(#clip472)" style="stroke:#000000; stroke-width:2; stroke-opacity:0.1; fill:none" points="
  535.959,1486.45 535.959,47.2441 
  "/>
<polyline clip-path="url(#clip472)" style="stroke:#000000; stroke-width:2; stroke-opacity:0.1; fill:none" points="
  910.194,1486.45 910.194,47.2441 
  "/>
<polyline clip-path="url(#clip472)" style="stroke:#000000; stroke-width:2; stroke-opacity:0.1; fill:none" points="
  1284.43,1486.45 1284.43,47.2441 
  "/>
<polyline clip-path="url(#clip472)" style="stroke:#000000; stroke-width:2; stroke-opacity:0.1; fill:none" points="
  1658.66,1486.45 1658.66,47.2441 
  "/>
<polyline clip-path="url(#clip472)" style="stroke:#000000; stroke-width:2; stroke-opacity:0.1; fill:none" points="
  2032.9,1486.45 2032.9,47.2441 
  "/>
<polyline clip-path="url(#clip472)" style="stroke:#000000; stroke-width:2; stroke-opacity:0.1; fill:none" points="
  166.205,1445.72 2352.76,1445.72 
  "/>
<polyline clip-path="url(#clip472)" style="stroke:#000000; stroke-width:2; stroke-opacity:0.1; fill:none" points="
  166.205,1107.97 2352.76,1107.97 
  "/>
<polyline clip-path="url(#clip472)" style="stroke:#000000; stroke-width:2; stroke-opacity:0.1; fill:none" points="
  166.205,770.223 2352.76,770.223 
  "/>
<polyline clip-path="url(#clip472)" style="stroke:#000000; stroke-width:2; stroke-opacity:0.1; fill:none" points="
  166.205,432.477 2352.76,432.477 
  "/>
<polyline clip-path="url(#clip472)" style="stroke:#000000; stroke-width:2; stroke-opacity:0.1; fill:none" points="
  166.205,94.7312 2352.76,94.7312 
  "/>
<polyline clip-path="url(#clip470)" style="stroke:#000000; stroke-width:4; stroke-opacity:1; fill:none" points="
  166.205,1486.45 2352.76,1486.45 
  "/>
<polyline clip-path="url(#clip470)" style="stroke:#000000; stroke-width:4; stroke-opacity:1; fill:none" points="
  166.205,1486.45 166.205,47.2441 
  "/>
<polyline clip-path="url(#clip470)" style="stroke:#000000; stroke-width:4; stroke-opacity:1; fill:none" points="
  535.959,1486.45 535.959,1469.18 
  "/>
<polyline clip-path="url(#clip470)" style="stroke:#000000; stroke-width:4; stroke-opacity:1; fill:none" points="
  910.194,1486.45 910.194,1469.18 
  "/>
<polyline clip-path="url(#clip470)" style="stroke:#000000; stroke-width:4; stroke-opacity:1; fill:none" points="
  1284.43,1486.45 1284.43,1469.18 
  "/>
<polyline clip-path="url(#clip470)" style="stroke:#000000; stroke-width:4; stroke-opacity:1; fill:none" points="
  1658.66,1486.45 1658.66,1469.18 
  "/>
<polyline clip-path="url(#clip470)" style="stroke:#000000; stroke-width:4; stroke-opacity:1; fill:none" points="
  2032.9,1486.45 2032.9,1469.18 
  "/>
<polyline clip-path="url(#clip470)" style="stroke:#000000; stroke-width:4; stroke-opacity:1; fill:none" points="
  166.205,1445.72 192.443,1445.72 
  "/>
<polyline clip-path="url(#clip470)" style="stroke:#000000; stroke-width:4; stroke-opacity:1; fill:none" points="
  166.205,1107.97 192.443,1107.97 
  "/>
<polyline clip-path="url(#clip470)" style="stroke:#000000; stroke-width:4; stroke-opacity:1; fill:none" points="
  166.205,770.223 192.443,770.223 
  "/>
<polyline clip-path="url(#clip470)" style="stroke:#000000; stroke-width:4; stroke-opacity:1; fill:none" points="
  166.205,432.477 192.443,432.477 
  "/>
<polyline clip-path="url(#clip470)" style="stroke:#000000; stroke-width:4; stroke-opacity:1; fill:none" points="
  166.205,94.7312 192.443,94.7312 
  "/>
<path clip-path="url(#clip470)" d="M 0 0 M516.133 1525.04 L528.609 1525.04 L528.609 1528.83 L516.133 1528.83 L516.133 1525.04 Z" fill="#000000" fill-rule="evenodd" fill-opacity="1" /><path clip-path="url(#clip470)" d="M 0 0 M544.258 1520.78 Q541.109 1520.78 539.258 1522.93 Q537.429 1525.08 537.429 1528.83 Q537.429 1532.56 539.258 1534.73 Q541.109 1536.89 544.258 1536.89 Q547.406 1536.89 549.234 1534.73 Q551.086 1532.56 551.086 1528.83 Q551.086 1525.08 549.234 1522.93 Q547.406 1520.78 544.258 1520.78 M553.54 1506.12 L553.54 1510.38 Q551.781 1509.55 549.975 1509.11 Q548.193 1508.67 546.433 1508.67 Q541.804 1508.67 539.35 1511.8 Q536.92 1514.92 536.572 1521.24 Q537.938 1519.23 539.998 1518.16 Q542.058 1517.07 544.535 1517.07 Q549.744 1517.07 552.753 1520.24 Q555.785 1523.39 555.785 1528.83 Q555.785 1534.16 552.637 1537.37 Q549.489 1540.59 544.258 1540.59 Q538.262 1540.59 535.091 1536.01 Q531.92 1531.4 531.92 1522.67 Q531.92 1514.48 535.809 1509.62 Q539.697 1504.73 546.248 1504.73 Q548.008 1504.73 549.79 1505.08 Q551.595 1505.43 553.54 1506.12 Z" fill="#000000" fill-rule="evenodd" fill-opacity="1" /><path clip-path="url(#clip470)" d="M 0 0 M890.773 1525.04 L903.25 1525.04 L903.25 1528.83 L890.773 1528.83 L890.773 1525.04 Z" fill="#000000" fill-rule="evenodd" fill-opacity="1" /><path clip-path="url(#clip470)" d="M 0 0 M922.486 1521.29 Q925.842 1522 927.717 1524.27 Q929.615 1526.54 929.615 1529.87 Q929.615 1534.99 926.097 1537.79 Q922.578 1540.59 916.097 1540.59 Q913.921 1540.59 911.606 1540.15 Q909.315 1539.73 906.861 1538.88 L906.861 1534.36 Q908.805 1535.5 911.12 1536.08 Q913.435 1536.66 915.958 1536.66 Q920.356 1536.66 922.648 1534.92 Q924.963 1533.18 924.963 1529.87 Q924.963 1526.82 922.81 1525.11 Q920.68 1523.37 916.861 1523.37 L912.833 1523.37 L912.833 1519.53 L917.046 1519.53 Q920.495 1519.53 922.324 1518.16 Q924.152 1516.77 924.152 1514.18 Q924.152 1511.52 922.254 1510.11 Q920.379 1508.67 916.861 1508.67 Q914.939 1508.67 912.74 1509.09 Q910.541 1509.5 907.902 1510.38 L907.902 1506.22 Q910.565 1505.48 912.879 1505.11 Q915.217 1504.73 917.277 1504.73 Q922.601 1504.73 925.703 1507.17 Q928.805 1509.57 928.805 1513.69 Q928.805 1516.56 927.162 1518.55 Q925.518 1520.52 922.486 1521.29 Z" fill="#000000" fill-rule="evenodd" fill-opacity="1" /><path clip-path="url(#clip470)" d="M 0 0 M1284.43 1508.44 Q1280.82 1508.44 1278.99 1512 Q1277.18 1515.55 1277.18 1522.67 Q1277.18 1529.78 1278.99 1533.35 Q1280.82 1536.89 1284.43 1536.89 Q1288.06 1536.89 1289.87 1533.35 Q1291.7 1529.78 1291.7 1522.67 Q1291.7 1515.55 1289.87 1512 Q1288.06 1508.44 1284.43 1508.44 M1284.43 1504.73 Q1290.24 1504.73 1293.29 1509.34 Q1296.37 1513.92 1296.37 1522.67 Q1296.37 1531.4 1293.29 1536.01 Q1290.24 1540.59 1284.43 1540.59 Q1278.62 1540.59 1275.54 1536.01 Q1272.48 1531.4 1272.48 1522.67 Q1272.48 1513.92 1275.54 1509.34 Q1278.62 1504.73 1284.43 1504.73 Z" fill="#000000" fill-rule="evenodd" fill-opacity="1" /><path clip-path="url(#clip470)" d="M 0 0 M1662.91 1521.29 Q1666.27 1522 1668.14 1524.27 Q1670.04 1526.54 1670.04 1529.87 Q1670.04 1534.99 1666.52 1537.79 Q1663 1540.59 1656.52 1540.59 Q1654.35 1540.59 1652.03 1540.15 Q1649.74 1539.73 1647.29 1538.88 L1647.29 1534.36 Q1649.23 1535.5 1651.55 1536.08 Q1653.86 1536.66 1656.38 1536.66 Q1660.78 1536.66 1663.07 1534.92 Q1665.39 1533.18 1665.39 1529.87 Q1665.39 1526.82 1663.24 1525.11 Q1661.11 1523.37 1657.29 1523.37 L1653.26 1523.37 L1653.26 1519.53 L1657.47 1519.53 Q1660.92 1519.53 1662.75 1518.16 Q1664.58 1516.77 1664.58 1514.18 Q1664.58 1511.52 1662.68 1510.11 Q1660.81 1508.67 1657.29 1508.67 Q1655.37 1508.67 1653.17 1509.09 Q1650.97 1509.5 1648.33 1510.38 L1648.33 1506.22 Q1650.99 1505.48 1653.31 1505.11 Q1655.64 1504.73 1657.7 1504.73 Q1663.03 1504.73 1666.13 1507.17 Q1669.23 1509.57 1669.23 1513.69 Q1669.23 1516.56 1667.59 1518.55 Q1665.94 1520.52 1662.91 1521.29 Z" fill="#000000" fill-rule="evenodd" fill-opacity="1" /><path clip-path="url(#clip470)" d="M 0 0 M2033.3 1520.78 Q2030.16 1520.78 2028.3 1522.93 Q2026.48 1525.08 2026.48 1528.83 Q2026.48 1532.56 2028.3 1534.73 Q2030.16 1536.89 2033.3 1536.89 Q2036.45 1536.89 2038.28 1534.73 Q2040.13 1532.56 2040.13 1528.83 Q2040.13 1525.08 2038.28 1522.93 Q2036.45 1520.78 2033.3 1520.78 M2042.59 1506.12 L2042.59 1510.38 Q2040.83 1509.55 2039.02 1509.11 Q2037.24 1508.67 2035.48 1508.67 Q2030.85 1508.67 2028.4 1511.8 Q2025.97 1514.92 2025.62 1521.24 Q2026.99 1519.23 2029.05 1518.16 Q2031.11 1517.07 2033.58 1517.07 Q2038.79 1517.07 2041.8 1520.24 Q2044.83 1523.39 2044.83 1528.83 Q2044.83 1534.16 2041.68 1537.37 Q2038.54 1540.59 2033.3 1540.59 Q2027.31 1540.59 2024.14 1536.01 Q2020.97 1531.4 2020.97 1522.67 Q2020.97 1514.48 2024.86 1509.62 Q2028.74 1504.73 2035.3 1504.73 Q2037.05 1504.73 2038.84 1505.08 Q2040.64 1505.43 2042.59 1506.12 Z" fill="#000000" fill-rule="evenodd" fill-opacity="1" /><path clip-path="url(#clip470)" d="M 0 0 M130.26 1431.51 Q126.649 1431.51 124.82 1435.08 Q123.015 1438.62 123.015 1445.75 Q123.015 1452.86 124.82 1456.42 Q126.649 1459.96 130.26 1459.96 Q133.895 1459.96 135.7 1456.42 Q137.529 1452.86 137.529 1445.75 Q137.529 1438.62 135.7 1435.08 Q133.895 1431.51 130.26 1431.51 M130.26 1427.81 Q136.07 1427.81 139.126 1432.42 Q142.205 1437 142.205 1445.75 Q142.205 1454.48 139.126 1459.08 Q136.07 1463.67 130.26 1463.67 Q124.45 1463.67 121.371 1459.08 Q118.316 1454.48 118.316 1445.75 Q118.316 1437 121.371 1432.42 Q124.45 1427.81 130.26 1427.81 Z" fill="#000000" fill-rule="evenodd" fill-opacity="1" /><path clip-path="url(#clip470)" d="M 0 0 M71.8578 1121.31 L88.1772 1121.31 L88.1772 1125.25 L66.2328 1125.25 L66.2328 1121.31 Q68.8949 1118.56 73.4782 1113.93 Q78.0846 1109.28 79.2652 1107.93 Q81.5105 1105.41 82.3902 1103.68 Q83.2929 1101.92 83.2929 1100.23 Q83.2929 1097.47 81.3485 1095.74 Q79.4272 1094 76.3254 1094 Q74.1263 1094 71.6726 1094.76 Q69.2421 1095.53 66.4643 1097.08 L66.4643 1092.36 Q69.2884 1091.22 71.7421 1090.64 Q74.1958 1090.06 76.2328 1090.06 Q81.6031 1090.06 84.7976 1092.75 Q87.992 1095.43 87.992 1099.93 Q87.992 1102.06 87.1818 1103.98 Q86.3948 1105.87 84.2883 1108.47 Q83.7096 1109.14 80.6078 1112.36 Q77.5059 1115.55 71.8578 1121.31 Z" fill="#000000" fill-rule="evenodd" fill-opacity="1" /><path clip-path="url(#clip470)" d="M 0 0 M103.247 1093.77 Q99.6354 1093.77 97.8068 1097.33 Q96.0012 1100.87 96.0012 1108 Q96.0012 1115.11 97.8068 1118.68 Q99.6354 1122.22 103.247 1122.22 Q106.881 1122.22 108.686 1118.68 Q110.515 1115.11 110.515 1108 Q110.515 1100.87 108.686 1097.33 Q106.881 1093.77 103.247 1093.77 M103.247 1090.06 Q109.057 1090.06 112.112 1094.67 Q115.191 1099.25 115.191 1108 Q115.191 1116.73 112.112 1121.34 Q109.057 1125.92 103.247 1125.92 Q97.4364 1125.92 94.3577 1121.34 Q91.3022 1116.73 91.3022 1108 Q91.3022 1099.25 94.3577 1094.67 Q97.4364 1090.06 103.247 1090.06 Z" fill="#000000" fill-rule="evenodd" fill-opacity="1" /><path clip-path="url(#clip470)" d="M 0 0 M130.26 1093.77 Q126.649 1093.77 124.82 1097.33 Q123.015 1100.87 123.015 1108 Q123.015 1115.11 124.82 1118.68 Q126.649 1122.22 130.26 1122.22 Q133.895 1122.22 135.7 1118.68 Q137.529 1115.11 137.529 1108 Q137.529 1100.87 135.7 1097.33 Q133.895 1093.77 130.26 1093.77 M130.26 1090.06 Q136.07 1090.06 139.126 1094.67 Q142.205 1099.25 142.205 1108 Q142.205 1116.73 139.126 1121.34 Q136.07 1125.92 130.26 1125.92 Q124.45 1125.92 121.371 1121.34 Q118.316 1116.73 118.316 1108 Q118.316 1099.25 121.371 1094.67 Q124.45 1090.06 130.26 1090.06 Z" fill="#000000" fill-rule="evenodd" fill-opacity="1" /><path clip-path="url(#clip470)" d="M 0 0 M78.5939 757.017 L66.7884 775.466 L78.5939 775.466 L78.5939 757.017 M77.367 752.943 L83.2466 752.943 L83.2466 775.466 L88.1772 775.466 L88.1772 779.355 L83.2466 779.355 L83.2466 787.503 L78.5939 787.503 L78.5939 779.355 L62.9921 779.355 L62.9921 774.841 L77.367 752.943 Z" fill="#000000" fill-rule="evenodd" fill-opacity="1" /><path clip-path="url(#clip470)" d="M 0 0 M103.247 756.022 Q99.6354 756.022 97.8068 759.587 Q96.0012 763.129 96.0012 770.258 Q96.0012 777.365 97.8068 780.929 Q99.6354 784.471 103.247 784.471 Q106.881 784.471 108.686 780.929 Q110.515 777.365 110.515 770.258 Q110.515 763.129 108.686 759.587 Q106.881 756.022 103.247 756.022 M103.247 752.318 Q109.057 752.318 112.112 756.925 Q115.191 761.508 115.191 770.258 Q115.191 778.985 112.112 783.591 Q109.057 788.175 103.247 788.175 Q97.4364 788.175 94.3577 783.591 Q91.3022 778.985 91.3022 770.258 Q91.3022 761.508 94.3577 756.925 Q97.4364 752.318 103.247 752.318 Z" fill="#000000" fill-rule="evenodd" fill-opacity="1" /><path clip-path="url(#clip470)" d="M 0 0 M130.26 756.022 Q126.649 756.022 124.82 759.587 Q123.015 763.129 123.015 770.258 Q123.015 777.365 124.82 780.929 Q126.649 784.471 130.26 784.471 Q133.895 784.471 135.7 780.929 Q137.529 777.365 137.529 770.258 Q137.529 763.129 135.7 759.587 Q133.895 756.022 130.26 756.022 M130.26 752.318 Q136.07 752.318 139.126 756.925 Q142.205 761.508 142.205 770.258 Q142.205 778.985 139.126 783.591 Q136.07 788.175 130.26 788.175 Q124.45 788.175 121.371 783.591 Q118.316 778.985 118.316 770.258 Q118.316 761.508 121.371 756.925 Q124.45 752.318 130.26 752.318 Z" fill="#000000" fill-rule="evenodd" fill-opacity="1" /><path clip-path="url(#clip470)" d="M 0 0 M76.6495 430.614 Q73.5013 430.614 71.6495 432.767 Q69.8208 434.919 69.8208 438.669 Q69.8208 442.396 71.6495 444.572 Q73.5013 446.725 76.6495 446.725 Q79.7976 446.725 81.6263 444.572 Q83.4781 442.396 83.4781 438.669 Q83.4781 434.919 81.6263 432.767 Q79.7976 430.614 76.6495 430.614 M85.9318 415.961 L85.9318 420.22 Q84.1726 419.387 82.367 418.947 Q80.5846 418.507 78.8254 418.507 Q74.1958 418.507 71.7421 421.632 Q69.3115 424.757 68.9643 431.077 Q70.33 429.063 72.3902 427.998 Q74.4504 426.91 76.9272 426.91 Q82.1355 426.91 85.1448 430.082 Q88.1772 433.23 88.1772 438.669 Q88.1772 443.993 85.029 447.211 Q81.8809 450.429 76.6495 450.429 Q70.6541 450.429 67.4828 445.845 Q64.3116 441.239 64.3116 432.512 Q64.3116 424.318 68.2004 419.457 Q72.0893 414.572 78.6402 414.572 Q80.3994 414.572 82.1818 414.92 Q83.9874 415.267 85.9318 415.961 Z" fill="#000000" fill-rule="evenodd" fill-opacity="1" /><path clip-path="url(#clip470)" d="M 0 0 M103.247 418.276 Q99.6354 418.276 97.8068 421.841 Q96.0012 425.382 96.0012 432.512 Q96.0012 439.618 97.8068 443.183 Q99.6354 446.725 103.247 446.725 Q106.881 446.725 108.686 443.183 Q110.515 439.618 110.515 432.512 Q110.515 425.382 108.686 421.841 Q106.881 418.276 103.247 418.276 M103.247 414.572 Q109.057 414.572 112.112 419.179 Q115.191 423.762 115.191 432.512 Q115.191 441.239 112.112 445.845 Q109.057 450.429 103.247 450.429 Q97.4364 450.429 94.3577 445.845 Q91.3022 441.239 91.3022 432.512 Q91.3022 423.762 94.3577 419.179 Q97.4364 414.572 103.247 414.572 Z" fill="#000000" fill-rule="evenodd" fill-opacity="1" /><path clip-path="url(#clip470)" d="M 0 0 M130.26 418.276 Q126.649 418.276 124.82 421.841 Q123.015 425.382 123.015 432.512 Q123.015 439.618 124.82 443.183 Q126.649 446.725 130.26 446.725 Q133.895 446.725 135.7 443.183 Q137.529 439.618 137.529 432.512 Q137.529 425.382 135.7 421.841 Q133.895 418.276 130.26 418.276 M130.26 414.572 Q136.07 414.572 139.126 419.179 Q142.205 423.762 142.205 432.512 Q142.205 441.239 139.126 445.845 Q136.07 450.429 130.26 450.429 Q124.45 450.429 121.371 445.845 Q118.316 441.239 118.316 432.512 Q118.316 423.762 121.371 419.179 Q124.45 414.572 130.26 414.572 Z" fill="#000000" fill-rule="evenodd" fill-opacity="1" /><path clip-path="url(#clip470)" d="M 0 0 M76.3254 95.5993 Q72.9921 95.5993 71.0708 97.3816 Q69.1726 99.164 69.1726 102.289 Q69.1726 105.414 71.0708 107.196 Q72.9921 108.979 76.3254 108.979 Q79.6587 108.979 81.58 107.196 Q83.5013 105.391 83.5013 102.289 Q83.5013 99.164 81.58 97.3816 Q79.6819 95.5993 76.3254 95.5993 M71.6495 93.6085 Q68.6402 92.8678 66.9504 90.8076 Q65.2838 88.7474 65.2838 85.7845 Q65.2838 81.641 68.2236 79.2336 Q71.1865 76.8262 76.3254 76.8262 Q81.4874 76.8262 84.4272 79.2336 Q87.367 81.641 87.367 85.7845 Q87.367 88.7474 85.6772 90.8076 Q84.0105 92.8678 81.0244 93.6085 Q84.404 94.3956 86.279 96.6872 Q88.1772 98.9789 88.1772 102.289 Q88.1772 107.312 85.0985 109.997 Q82.0429 112.682 76.3254 112.682 Q70.6078 112.682 67.5291 109.997 Q64.4736 107.312 64.4736 102.289 Q64.4736 98.9789 66.3717 96.6872 Q68.2699 94.3956 71.6495 93.6085 M69.9365 86.2243 Q69.9365 88.9095 71.6032 90.4141 Q73.293 91.9187 76.3254 91.9187 Q79.3346 91.9187 81.0244 90.4141 Q82.7374 88.9095 82.7374 86.2243 Q82.7374 83.5391 81.0244 82.0345 Q79.3346 80.5299 76.3254 80.5299 Q73.293 80.5299 71.6032 82.0345 Q69.9365 83.5391 69.9365 86.2243 Z" fill="#000000" fill-rule="evenodd" fill-opacity="1" /><path clip-path="url(#clip470)" d="M 0 0 M103.247 80.5299 Q99.6354 80.5299 97.8068 84.0947 Q96.0012 87.6363 96.0012 94.7659 Q96.0012 101.872 97.8068 105.437 Q99.6354 108.979 103.247 108.979 Q106.881 108.979 108.686 105.437 Q110.515 101.872 110.515 94.7659 Q110.515 87.6363 108.686 84.0947 Q106.881 80.5299 103.247 80.5299 M103.247 76.8262 Q109.057 76.8262 112.112 81.4327 Q115.191 86.016 115.191 94.7659 Q115.191 103.493 112.112 108.099 Q109.057 112.682 103.247 112.682 Q97.4364 112.682 94.3577 108.099 Q91.3022 103.493 91.3022 94.7659 Q91.3022 86.016 94.3577 81.4327 Q97.4364 76.8262 103.247 76.8262 Z" fill="#000000" fill-rule="evenodd" fill-opacity="1" /><path clip-path="url(#clip470)" d="M 0 0 M130.26 80.5299 Q126.649 80.5299 124.82 84.0947 Q123.015 87.6363 123.015 94.7659 Q123.015 101.872 124.82 105.437 Q126.649 108.979 130.26 108.979 Q133.895 108.979 135.7 105.437 Q137.529 101.872 137.529 94.7659 Q137.529 87.6363 135.7 84.0947 Q133.895 80.5299 130.26 80.5299 M130.26 76.8262 Q136.07 76.8262 139.126 81.4327 Q142.205 86.016 142.205 94.7659 Q142.205 103.493 139.126 108.099 Q136.07 112.682 130.26 112.682 Q124.45 112.682 121.371 108.099 Q118.316 103.493 118.316 94.7659 Q118.316 86.016 121.371 81.4327 Q124.45 76.8262 130.26 76.8262 Z" fill="#000000" fill-rule="evenodd" fill-opacity="1" /><path clip-path="url(#clip472)" d="
M286.469 1444.03 L286.469 1445.72 L311.418 1445.72 L311.418 1444.03 L286.469 1444.03 L286.469 1444.03  Z
  " fill="#009af9" fill-rule="evenodd" fill-opacity="1"/>
<polyline clip-path="url(#clip472)" style="stroke:#000000; stroke-width:4; stroke-opacity:1; fill:none" points="
  286.469,1444.03 286.469,1445.72 311.418,1445.72 311.418,1444.03 286.469,1444.03 
  "/>
<path clip-path="url(#clip472)" d="
M311.418 1444.03 L311.418 1445.72 L336.367 1445.72 L336.367 1444.03 L311.418 1444.03 L311.418 1444.03  Z
  " fill="#009af9" fill-rule="evenodd" fill-opacity="1"/>
<polyline clip-path="url(#clip472)" style="stroke:#000000; stroke-width:4; stroke-opacity:1; fill:none" points="
  311.418,1444.03 311.418,1445.72 336.367,1445.72 336.367,1444.03 311.418,1444.03 
  "/>
<path clip-path="url(#clip472)" d="
M336.367 1445.72 L336.367 1445.72 L361.316 1445.72 L361.316 1445.72 L336.367 1445.72 L336.367 1445.72  Z
  " fill="#009af9" fill-rule="evenodd" fill-opacity="1"/>
<polyline clip-path="url(#clip472)" style="stroke:#000000; stroke-width:4; stroke-opacity:1; fill:none" points="
  336.367,1445.72 336.367,1445.72 361.316,1445.72 336.367,1445.72 
  "/>
<path clip-path="url(#clip472)" d="
M361.316 1445.72 L361.316 1445.72 L386.265 1445.72 L386.265 1445.72 L361.316 1445.72 L361.316 1445.72  Z
  " fill="#009af9" fill-rule="evenodd" fill-opacity="1"/>
<polyline clip-path="url(#clip472)" style="stroke:#000000; stroke-width:4; stroke-opacity:1; fill:none" points="
  361.316,1445.72 361.316,1445.72 386.265,1445.72 361.316,1445.72 
  "/>
<path clip-path="url(#clip472)" d="
M386.265 1445.72 L386.265 1445.72 L411.214 1445.72 L411.214 1445.72 L386.265 1445.72 L386.265 1445.72  Z
  " fill="#009af9" fill-rule="evenodd" fill-opacity="1"/>
<polyline clip-path="url(#clip472)" style="stroke:#000000; stroke-width:4; stroke-opacity:1; fill:none" points="
  386.265,1445.72 386.265,1445.72 411.214,1445.72 386.265,1445.72 
  "/>
<path clip-path="url(#clip472)" d="
M411.214 1445.72 L411.214 1445.72 L436.163 1445.72 L436.163 1445.72 L411.214 1445.72 L411.214 1445.72  Z
  " fill="#009af9" fill-rule="evenodd" fill-opacity="1"/>
<polyline clip-path="url(#clip472)" style="stroke:#000000; stroke-width:4; stroke-opacity:1; fill:none" points="
  411.214,1445.72 411.214,1445.72 436.163,1445.72 411.214,1445.72 
  "/>
<path clip-path="url(#clip472)" d="
M436.163 1444.03 L436.163 1445.72 L461.112 1445.72 L461.112 1444.03 L436.163 1444.03 L436.163 1444.03  Z
  " fill="#009af9" fill-rule="evenodd" fill-opacity="1"/>
<polyline clip-path="url(#clip472)" style="stroke:#000000; stroke-width:4; stroke-opacity:1; fill:none" points="
  436.163,1444.03 436.163,1445.72 461.112,1445.72 461.112,1444.03 436.163,1444.03 
  "/>
<path clip-path="url(#clip472)" d="
M461.112 1445.72 L461.112 1445.72 L486.061 1445.72 L486.061 1445.72 L461.112 1445.72 L461.112 1445.72  Z
  " fill="#009af9" fill-rule="evenodd" fill-opacity="1"/>
<polyline clip-path="url(#clip472)" style="stroke:#000000; stroke-width:4; stroke-opacity:1; fill:none" points="
  461.112,1445.72 461.112,1445.72 486.061,1445.72 461.112,1445.72 
  "/>
<path clip-path="url(#clip472)" d="
M486.061 1444.03 L486.061 1445.72 L511.01 1445.72 L511.01 1444.03 L486.061 1444.03 L486.061 1444.03  Z
  " fill="#009af9" fill-rule="evenodd" fill-opacity="1"/>
<polyline clip-path="url(#clip472)" style="stroke:#000000; stroke-width:4; stroke-opacity:1; fill:none" points="
  486.061,1444.03 486.061,1445.72 511.01,1445.72 511.01,1444.03 486.061,1444.03 
  "/>
<path clip-path="url(#clip472)" d="
M511.01 1444.03 L511.01 1445.72 L535.959 1445.72 L535.959 1444.03 L511.01 1444.03 L511.01 1444.03  Z
  " fill="#009af9" fill-rule="evenodd" fill-opacity="1"/>
<polyline clip-path="url(#clip472)" style="stroke:#000000; stroke-width:4; stroke-opacity:1; fill:none" points="
  511.01,1444.03 511.01,1445.72 535.959,1445.72 535.959,1444.03 511.01,1444.03 
  "/>
<path clip-path="url(#clip472)" d="
M535.959 1440.65 L535.959 1445.72 L560.908 1445.72 L560.908 1440.65 L535.959 1440.65 L535.959 1440.65  Z
  " fill="#009af9" fill-rule="evenodd" fill-opacity="1"/>
<polyline clip-path="url(#clip472)" style="stroke:#000000; stroke-width:4; stroke-opacity:1; fill:none" points="
  535.959,1440.65 535.959,1445.72 560.908,1445.72 560.908,1440.65 535.959,1440.65 
  "/>
<path clip-path="url(#clip472)" d="
M560.908 1433.89 L560.908 1445.72 L585.857 1445.72 L585.857 1433.89 L560.908 1433.89 L560.908 1433.89  Z
  " fill="#009af9" fill-rule="evenodd" fill-opacity="1"/>
<polyline clip-path="url(#clip472)" style="stroke:#000000; stroke-width:4; stroke-opacity:1; fill:none" points="
  560.908,1433.89 560.908,1445.72 585.857,1445.72 585.857,1433.89 560.908,1433.89 
  "/>
<path clip-path="url(#clip472)" d="
M585.857 1444.03 L585.857 1445.72 L610.806 1445.72 L610.806 1444.03 L585.857 1444.03 L585.857 1444.03  Z
  " fill="#009af9" fill-rule="evenodd" fill-opacity="1"/>
<polyline clip-path="url(#clip472)" style="stroke:#000000; stroke-width:4; stroke-opacity:1; fill:none" points="
  585.857,1444.03 585.857,1445.72 610.806,1445.72 610.806,1444.03 585.857,1444.03 
  "/>
<path clip-path="url(#clip472)" d="
M610.806 1440.65 L610.806 1445.72 L635.755 1445.72 L635.755 1440.65 L610.806 1440.65 L610.806 1440.65  Z
  " fill="#009af9" fill-rule="evenodd" fill-opacity="1"/>
<polyline clip-path="url(#clip472)" style="stroke:#000000; stroke-width:4; stroke-opacity:1; fill:none" points="
  610.806,1440.65 610.806,1445.72 635.755,1445.72 635.755,1440.65 610.806,1440.65 
  "/>
<path clip-path="url(#clip472)" d="
M635.755 1440.65 L635.755 1445.72 L660.704 1445.72 L660.704 1440.65 L635.755 1440.65 L635.755 1440.65  Z
  " fill="#009af9" fill-rule="evenodd" fill-opacity="1"/>
<polyline clip-path="url(#clip472)" style="stroke:#000000; stroke-width:4; stroke-opacity:1; fill:none" points="
  635.755,1440.65 635.755,1445.72 660.704,1445.72 660.704,1440.65 635.755,1440.65 
  "/>
<path clip-path="url(#clip472)" d="
M660.704 1444.03 L660.704 1445.72 L685.653 1445.72 L685.653 1444.03 L660.704 1444.03 L660.704 1444.03  Z
  " fill="#009af9" fill-rule="evenodd" fill-opacity="1"/>
<polyline clip-path="url(#clip472)" style="stroke:#000000; stroke-width:4; stroke-opacity:1; fill:none" points="
  660.704,1444.03 660.704,1445.72 685.653,1445.72 685.653,1444.03 660.704,1444.03 
  "/>
<path clip-path="url(#clip472)" d="
M685.653 1422.07 L685.653 1445.72 L710.602 1445.72 L710.602 1422.07 L685.653 1422.07 L685.653 1422.07  Z
  " fill="#009af9" fill-rule="evenodd" fill-opacity="1"/>
<polyline clip-path="url(#clip472)" style="stroke:#000000; stroke-width:4; stroke-opacity:1; fill:none" points="
  685.653,1422.07 685.653,1445.72 710.602,1445.72 710.602,1422.07 685.653,1422.07 
  "/>
<path clip-path="url(#clip472)" d="
M710.602 1428.83 L710.602 1445.72 L735.551 1445.72 L735.551 1428.83 L710.602 1428.83 L710.602 1428.83  Z
  " fill="#009af9" fill-rule="evenodd" fill-opacity="1"/>
<polyline clip-path="url(#clip472)" style="stroke:#000000; stroke-width:4; stroke-opacity:1; fill:none" points="
  710.602,1428.83 710.602,1445.72 735.551,1445.72 735.551,1428.83 710.602,1428.83 
  "/>
<path clip-path="url(#clip472)" d="
M735.551 1420.38 L735.551 1445.72 L760.5 1445.72 L760.5 1420.38 L735.551 1420.38 L735.551 1420.38  Z
  " fill="#009af9" fill-rule="evenodd" fill-opacity="1"/>
<polyline clip-path="url(#clip472)" style="stroke:#000000; stroke-width:4; stroke-opacity:1; fill:none" points="
  735.551,1420.38 735.551,1445.72 760.5,1445.72 760.5,1420.38 735.551,1420.38 
  "/>
<path clip-path="url(#clip472)" d="
M760.5 1423.76 L760.5 1445.72 L785.449 1445.72 L785.449 1423.76 L760.5 1423.76 L760.5 1423.76  Z
  " fill="#009af9" fill-rule="evenodd" fill-opacity="1"/>
<polyline clip-path="url(#clip472)" style="stroke:#000000; stroke-width:4; stroke-opacity:1; fill:none" points="
  760.5,1423.76 760.5,1445.72 785.449,1445.72 785.449,1423.76 760.5,1423.76 
  "/>
<path clip-path="url(#clip472)" d="
M785.449 1418.7 L785.449 1445.72 L810.398 1445.72 L810.398 1418.7 L785.449 1418.7 L785.449 1418.7  Z
  " fill="#009af9" fill-rule="evenodd" fill-opacity="1"/>
<polyline clip-path="url(#clip472)" style="stroke:#000000; stroke-width:4; stroke-opacity:1; fill:none" points="
  785.449,1418.7 785.449,1445.72 810.398,1445.72 810.398,1418.7 785.449,1418.7 
  "/>
<path clip-path="url(#clip472)" d="
M810.398 1415.32 L810.398 1445.72 L835.347 1445.72 L835.347 1415.32 L810.398 1415.32 L810.398 1415.32  Z
  " fill="#009af9" fill-rule="evenodd" fill-opacity="1"/>
<polyline clip-path="url(#clip472)" style="stroke:#000000; stroke-width:4; stroke-opacity:1; fill:none" points="
  810.398,1415.32 810.398,1445.72 835.347,1445.72 835.347,1415.32 810.398,1415.32 
  "/>
<path clip-path="url(#clip472)" d="
M835.347 1403.5 L835.347 1445.72 L860.296 1445.72 L860.296 1403.5 L835.347 1403.5 L835.347 1403.5  Z
  " fill="#009af9" fill-rule="evenodd" fill-opacity="1"/>
<polyline clip-path="url(#clip472)" style="stroke:#000000; stroke-width:4; stroke-opacity:1; fill:none" points="
  835.347,1403.5 835.347,1445.72 860.296,1445.72 860.296,1403.5 835.347,1403.5 
  "/>
<path clip-path="url(#clip472)" d="
M860.296 1395.05 L860.296 1445.72 L885.245 1445.72 L885.245 1395.05 L860.296 1395.05 L860.296 1395.05  Z
  " fill="#009af9" fill-rule="evenodd" fill-opacity="1"/>
<polyline clip-path="url(#clip472)" style="stroke:#000000; stroke-width:4; stroke-opacity:1; fill:none" points="
  860.296,1395.05 860.296,1445.72 885.245,1445.72 885.245,1395.05 860.296,1395.05 
  "/>
<path clip-path="url(#clip472)" d="
M885.245 1386.61 L885.245 1445.72 L910.194 1445.72 L910.194 1386.61 L885.245 1386.61 L885.245 1386.61  Z
  " fill="#009af9" fill-rule="evenodd" fill-opacity="1"/>
<polyline clip-path="url(#clip472)" style="stroke:#000000; stroke-width:4; stroke-opacity:1; fill:none" points="
  885.245,1386.61 885.245,1445.72 910.194,1445.72 910.194,1386.61 885.245,1386.61 
  "/>
<path clip-path="url(#clip472)" d="
M910.194 1374.79 L910.194 1445.72 L935.143 1445.72 L935.143 1374.79 L910.194 1374.79 L910.194 1374.79  Z
  " fill="#009af9" fill-rule="evenodd" fill-opacity="1"/>
<polyline clip-path="url(#clip472)" style="stroke:#000000; stroke-width:4; stroke-opacity:1; fill:none" points="
  910.194,1374.79 910.194,1445.72 935.143,1445.72 935.143,1374.79 910.194,1374.79 
  "/>
<path clip-path="url(#clip472)" d="
M935.143 1386.61 L935.143 1445.72 L960.092 1445.72 L960.092 1386.61 L935.143 1386.61 L935.143 1386.61  Z
  " fill="#009af9" fill-rule="evenodd" fill-opacity="1"/>
<polyline clip-path="url(#clip472)" style="stroke:#000000; stroke-width:4; stroke-opacity:1; fill:none" points="
  935.143,1386.61 935.143,1445.72 960.092,1445.72 960.092,1386.61 935.143,1386.61 
  "/>
<path clip-path="url(#clip472)" d="
M960.092 1368.03 L960.092 1445.72 L985.041 1445.72 L985.041 1368.03 L960.092 1368.03 L960.092 1368.03  Z
  " fill="#009af9" fill-rule="evenodd" fill-opacity="1"/>
<polyline clip-path="url(#clip472)" style="stroke:#000000; stroke-width:4; stroke-opacity:1; fill:none" points="
  960.092,1368.03 960.092,1445.72 985.041,1445.72 985.041,1368.03 960.092,1368.03 
  "/>
<path clip-path="url(#clip472)" d="
M985.041 1346.08 L985.041 1445.72 L1009.99 1445.72 L1009.99 1346.08 L985.041 1346.08 L985.041 1346.08  Z
  " fill="#009af9" fill-rule="evenodd" fill-opacity="1"/>
<polyline clip-path="url(#clip472)" style="stroke:#000000; stroke-width:4; stroke-opacity:1; fill:none" points="
  985.041,1346.08 985.041,1445.72 1009.99,1445.72 1009.99,1346.08 985.041,1346.08 
  "/>
<path clip-path="url(#clip472)" d="
M1009.99 1298.8 L1009.99 1445.72 L1034.94 1445.72 L1034.94 1298.8 L1009.99 1298.8 L1009.99 1298.8  Z
  " fill="#009af9" fill-rule="evenodd" fill-opacity="1"/>
<polyline clip-path="url(#clip472)" style="stroke:#000000; stroke-width:4; stroke-opacity:1; fill:none" points="
  1009.99,1298.8 1009.99,1445.72 1034.94,1445.72 1034.94,1298.8 1009.99,1298.8 
  "/>
<path clip-path="url(#clip472)" d="
M1034.94 1312.31 L1034.94 1445.72 L1059.89 1445.72 L1059.89 1312.31 L1034.94 1312.31 L1034.94 1312.31  Z
  " fill="#009af9" fill-rule="evenodd" fill-opacity="1"/>
<polyline clip-path="url(#clip472)" style="stroke:#000000; stroke-width:4; stroke-opacity:1; fill:none" points="
  1034.94,1312.31 1034.94,1445.72 1059.89,1445.72 1059.89,1312.31 1034.94,1312.31 
  "/>
<path clip-path="url(#clip472)" d="
M1059.89 1312.31 L1059.89 1445.72 L1084.84 1445.72 L1084.84 1312.31 L1059.89 1312.31 L1059.89 1312.31  Z
  " fill="#009af9" fill-rule="evenodd" fill-opacity="1"/>
<polyline clip-path="url(#clip472)" style="stroke:#000000; stroke-width:4; stroke-opacity:1; fill:none" points="
  1059.89,1312.31 1059.89,1445.72 1084.84,1445.72 1084.84,1312.31 1059.89,1312.31 
  "/>
<path clip-path="url(#clip472)" d="
M1084.84 1265.02 L1084.84 1445.72 L1109.79 1445.72 L1109.79 1265.02 L1084.84 1265.02 L1084.84 1265.02  Z
  " fill="#009af9" fill-rule="evenodd" fill-opacity="1"/>
<polyline clip-path="url(#clip472)" style="stroke:#000000; stroke-width:4; stroke-opacity:1; fill:none" points="
  1084.84,1265.02 1084.84,1445.72 1109.79,1445.72 1109.79,1265.02 1084.84,1265.02 
  "/>
<path clip-path="url(#clip472)" d="
M1109.79 1285.29 L1109.79 1445.72 L1134.74 1445.72 L1134.74 1285.29 L1109.79 1285.29 L1109.79 1285.29  Z
  " fill="#009af9" fill-rule="evenodd" fill-opacity="1"/>
<polyline clip-path="url(#clip472)" style="stroke:#000000; stroke-width:4; stroke-opacity:1; fill:none" points="
  1109.79,1285.29 1109.79,1445.72 1134.74,1445.72 1134.74,1285.29 1109.79,1285.29 
  "/>
<path clip-path="url(#clip472)" d="
M1134.74 1273.47 L1134.74 1445.72 L1159.68 1445.72 L1159.68 1273.47 L1134.74 1273.47 L1134.74 1273.47  Z
  " fill="#009af9" fill-rule="evenodd" fill-opacity="1"/>
<polyline clip-path="url(#clip472)" style="stroke:#000000; stroke-width:4; stroke-opacity:1; fill:none" points="
  1134.74,1273.47 1134.74,1445.72 1159.68,1445.72 1159.68,1273.47 1134.74,1273.47 
  "/>
<path clip-path="url(#clip472)" d="
M1159.68 1270.09 L1159.68 1445.72 L1184.63 1445.72 L1184.63 1270.09 L1159.68 1270.09 L1159.68 1270.09  Z
  " fill="#009af9" fill-rule="evenodd" fill-opacity="1"/>
<polyline clip-path="url(#clip472)" style="stroke:#000000; stroke-width:4; stroke-opacity:1; fill:none" points="
  1159.68,1270.09 1159.68,1445.72 1184.63,1445.72 1184.63,1270.09 1159.68,1270.09 
  "/>
<path clip-path="url(#clip472)" d="
M1184.63 1243.07 L1184.63 1445.72 L1209.58 1445.72 L1209.58 1243.07 L1184.63 1243.07 L1184.63 1243.07  Z
  " fill="#009af9" fill-rule="evenodd" fill-opacity="1"/>
<polyline clip-path="url(#clip472)" style="stroke:#000000; stroke-width:4; stroke-opacity:1; fill:none" points="
  1184.63,1243.07 1184.63,1445.72 1209.58,1445.72 1209.58,1243.07 1184.63,1243.07 
  "/>
<path clip-path="url(#clip472)" d="
M1209.58 1209.29 L1209.58 1445.72 L1234.53 1445.72 L1234.53 1209.29 L1209.58 1209.29 L1209.58 1209.29  Z
  " fill="#009af9" fill-rule="evenodd" fill-opacity="1"/>
<polyline clip-path="url(#clip472)" style="stroke:#000000; stroke-width:4; stroke-opacity:1; fill:none" points="
  1209.58,1209.29 1209.58,1445.72 1234.53,1445.72 1234.53,1209.29 1209.58,1209.29 
  "/>
<path clip-path="url(#clip472)" d="
M1234.53 1244.76 L1234.53 1445.72 L1259.48 1445.72 L1259.48 1244.76 L1234.53 1244.76 L1234.53 1244.76  Z
  " fill="#009af9" fill-rule="evenodd" fill-opacity="1"/>
<polyline clip-path="url(#clip472)" style="stroke:#000000; stroke-width:4; stroke-opacity:1; fill:none" points="
  1234.53,1244.76 1234.53,1445.72 1259.48,1445.72 1259.48,1244.76 1234.53,1244.76 
  "/>
<path clip-path="url(#clip472)" d="
M1259.48 1238 L1259.48 1445.72 L1284.43 1445.72 L1284.43 1238 L1259.48 1238 L1259.48 1238  Z
  " fill="#009af9" fill-rule="evenodd" fill-opacity="1"/>
<polyline clip-path="url(#clip472)" style="stroke:#000000; stroke-width:4; stroke-opacity:1; fill:none" points="
  1259.48,1238 1259.48,1445.72 1284.43,1445.72 1284.43,1238 1259.48,1238 
  "/>
<path clip-path="url(#clip472)" d="
M1284.43 1256.58 L1284.43 1445.72 L1309.38 1445.72 L1309.38 1256.58 L1284.43 1256.58 L1284.43 1256.58  Z
  " fill="#009af9" fill-rule="evenodd" fill-opacity="1"/>
<polyline clip-path="url(#clip472)" style="stroke:#000000; stroke-width:4; stroke-opacity:1; fill:none" points="
  1284.43,1256.58 1284.43,1445.72 1309.38,1445.72 1309.38,1256.58 1284.43,1256.58 
  "/>
<path clip-path="url(#clip472)" d="
M1309.38 1232.94 L1309.38 1445.72 L1334.33 1445.72 L1334.33 1232.94 L1309.38 1232.94 L1309.38 1232.94  Z
  " fill="#009af9" fill-rule="evenodd" fill-opacity="1"/>
<polyline clip-path="url(#clip472)" style="stroke:#000000; stroke-width:4; stroke-opacity:1; fill:none" points="
  1309.38,1232.94 1309.38,1445.72 1334.33,1445.72 1334.33,1232.94 1309.38,1232.94 
  "/>
<path clip-path="url(#clip472)" d="
M1334.33 1133.3 L1334.33 1445.72 L1359.28 1445.72 L1359.28 1133.3 L1334.33 1133.3 L1334.33 1133.3  Z
  " fill="#009af9" fill-rule="evenodd" fill-opacity="1"/>
<polyline clip-path="url(#clip472)" style="stroke:#000000; stroke-width:4; stroke-opacity:1; fill:none" points="
  1334.33,1133.3 1334.33,1445.72 1359.28,1445.72 1359.28,1133.3 1334.33,1133.3 
  "/>
<path clip-path="url(#clip472)" d="
M1359.28 805.687 L1359.28 1445.72 L1384.23 1445.72 L1384.23 805.687 L1359.28 805.687 L1359.28 805.687  Z
  " fill="#009af9" fill-rule="evenodd" fill-opacity="1"/>
<polyline clip-path="url(#clip472)" style="stroke:#000000; stroke-width:4; stroke-opacity:1; fill:none" points="
  1359.28,805.687 1359.28,1445.72 1384.23,1445.72 1384.23,805.687 1359.28,805.687 
  "/>
<path clip-path="url(#clip472)" d="
M1384.23 87.9763 L1384.23 1445.72 L1409.17 1445.72 L1409.17 87.9763 L1384.23 87.9763 L1384.23 87.9763  Z
  " fill="#009af9" fill-rule="evenodd" fill-opacity="1"/>
<polyline clip-path="url(#clip472)" style="stroke:#000000; stroke-width:4; stroke-opacity:1; fill:none" points="
  1384.23,87.9763 1384.23,1445.72 1409.17,1445.72 1409.17,87.9763 1384.23,87.9763 
  "/>
<path clip-path="url(#clip472)" d="
M1409.17 162.28 L1409.17 1445.72 L1434.12 1445.72 L1434.12 162.28 L1409.17 162.28 L1409.17 162.28  Z
  " fill="#009af9" fill-rule="evenodd" fill-opacity="1"/>
<polyline clip-path="url(#clip472)" style="stroke:#000000; stroke-width:4; stroke-opacity:1; fill:none" points="
  1409.17,162.28 1409.17,1445.72 1434.12,1445.72 1434.12,162.28 1409.17,162.28 
  "/>
<path clip-path="url(#clip472)" d="
M1434.12 869.859 L1434.12 1445.72 L1459.07 1445.72 L1459.07 869.859 L1434.12 869.859 L1434.12 869.859  Z
  " fill="#009af9" fill-rule="evenodd" fill-opacity="1"/>
<polyline clip-path="url(#clip472)" style="stroke:#000000; stroke-width:4; stroke-opacity:1; fill:none" points="
  1434.12,869.859 1434.12,1445.72 1459.07,1445.72 1459.07,869.859 1434.12,869.859 
  "/>
<path clip-path="url(#clip472)" d="
M1459.07 1236.31 L1459.07 1445.72 L1484.02 1445.72 L1484.02 1236.31 L1459.07 1236.31 L1459.07 1236.31  Z
  " fill="#009af9" fill-rule="evenodd" fill-opacity="1"/>
<polyline clip-path="url(#clip472)" style="stroke:#000000; stroke-width:4; stroke-opacity:1; fill:none" points="
  1459.07,1236.31 1459.07,1445.72 1484.02,1445.72 1484.02,1236.31 1459.07,1236.31 
  "/>
<path clip-path="url(#clip472)" d="
M1484.02 1297.11 L1484.02 1445.72 L1508.97 1445.72 L1508.97 1297.11 L1484.02 1297.11 L1484.02 1297.11  Z
  " fill="#009af9" fill-rule="evenodd" fill-opacity="1"/>
<polyline clip-path="url(#clip472)" style="stroke:#000000; stroke-width:4; stroke-opacity:1; fill:none" points="
  1484.02,1297.11 1484.02,1445.72 1508.97,1445.72 1508.97,1297.11 1484.02,1297.11 
  "/>
<path clip-path="url(#clip472)" d="
M1508.97 1322.44 L1508.97 1445.72 L1533.92 1445.72 L1533.92 1322.44 L1508.97 1322.44 L1508.97 1322.44  Z
  " fill="#009af9" fill-rule="evenodd" fill-opacity="1"/>
<polyline clip-path="url(#clip472)" style="stroke:#000000; stroke-width:4; stroke-opacity:1; fill:none" points="
  1508.97,1322.44 1508.97,1445.72 1533.92,1445.72 1533.92,1322.44 1508.97,1322.44 
  "/>
<path clip-path="url(#clip472)" d="
M1533.92 1339.33 L1533.92 1445.72 L1558.87 1445.72 L1558.87 1339.33 L1533.92 1339.33 L1533.92 1339.33  Z
  " fill="#009af9" fill-rule="evenodd" fill-opacity="1"/>
<polyline clip-path="url(#clip472)" style="stroke:#000000; stroke-width:4; stroke-opacity:1; fill:none" points="
  1533.92,1339.33 1533.92,1445.72 1558.87,1445.72 1558.87,1339.33 1533.92,1339.33 
  "/>
<path clip-path="url(#clip472)" d="
M1558.87 1342.7 L1558.87 1445.72 L1583.82 1445.72 L1583.82 1342.7 L1558.87 1342.7 L1558.87 1342.7  Z
  " fill="#009af9" fill-rule="evenodd" fill-opacity="1"/>
<polyline clip-path="url(#clip472)" style="stroke:#000000; stroke-width:4; stroke-opacity:1; fill:none" points="
  1558.87,1342.7 1558.87,1445.72 1583.82,1445.72 1583.82,1342.7 1558.87,1342.7 
  "/>
<path clip-path="url(#clip472)" d="
M1583.82 1349.46 L1583.82 1445.72 L1608.77 1445.72 L1608.77 1349.46 L1583.82 1349.46 L1583.82 1349.46  Z
  " fill="#009af9" fill-rule="evenodd" fill-opacity="1"/>
<polyline clip-path="url(#clip472)" style="stroke:#000000; stroke-width:4; stroke-opacity:1; fill:none" points="
  1583.82,1349.46 1583.82,1445.72 1608.77,1445.72 1608.77,1349.46 1583.82,1349.46 
  "/>
<path clip-path="url(#clip472)" d="
M1608.77 1357.9 L1608.77 1445.72 L1633.72 1445.72 L1633.72 1357.9 L1608.77 1357.9 L1608.77 1357.9  Z
  " fill="#009af9" fill-rule="evenodd" fill-opacity="1"/>
<polyline clip-path="url(#clip472)" style="stroke:#000000; stroke-width:4; stroke-opacity:1; fill:none" points="
  1608.77,1357.9 1608.77,1445.72 1633.72,1445.72 1633.72,1357.9 1608.77,1357.9 
  "/>
<path clip-path="url(#clip472)" d="
M1633.72 1369.72 L1633.72 1445.72 L1658.66 1445.72 L1658.66 1369.72 L1633.72 1369.72 L1633.72 1369.72  Z
  " fill="#009af9" fill-rule="evenodd" fill-opacity="1"/>
<polyline clip-path="url(#clip472)" style="stroke:#000000; stroke-width:4; stroke-opacity:1; fill:none" points="
  1633.72,1369.72 1633.72,1445.72 1658.66,1445.72 1658.66,1369.72 1633.72,1369.72 
  "/>
<path clip-path="url(#clip472)" d="
M1658.66 1389.99 L1658.66 1445.72 L1683.61 1445.72 L1683.61 1389.99 L1658.66 1389.99 L1658.66 1389.99  Z
  " fill="#009af9" fill-rule="evenodd" fill-opacity="1"/>
<polyline clip-path="url(#clip472)" style="stroke:#000000; stroke-width:4; stroke-opacity:1; fill:none" points="
  1658.66,1389.99 1658.66,1445.72 1683.61,1445.72 1683.61,1389.99 1658.66,1389.99 
  "/>
<path clip-path="url(#clip472)" d="
M1683.61 1386.61 L1683.61 1445.72 L1708.56 1445.72 L1708.56 1386.61 L1683.61 1386.61 L1683.61 1386.61  Z
  " fill="#009af9" fill-rule="evenodd" fill-opacity="1"/>
<polyline clip-path="url(#clip472)" style="stroke:#000000; stroke-width:4; stroke-opacity:1; fill:none" points="
  1683.61,1386.61 1683.61,1445.72 1708.56,1445.72 1708.56,1386.61 1683.61,1386.61 
  "/>
<path clip-path="url(#clip472)" d="
M1708.56 1403.5 L1708.56 1445.72 L1733.51 1445.72 L1733.51 1403.5 L1708.56 1403.5 L1708.56 1403.5  Z
  " fill="#009af9" fill-rule="evenodd" fill-opacity="1"/>
<polyline clip-path="url(#clip472)" style="stroke:#000000; stroke-width:4; stroke-opacity:1; fill:none" points="
  1708.56,1403.5 1708.56,1445.72 1733.51,1445.72 1733.51,1403.5 1708.56,1403.5 
  "/>
<path clip-path="url(#clip472)" d="
M1733.51 1415.32 L1733.51 1445.72 L1758.46 1445.72 L1758.46 1415.32 L1733.51 1415.32 L1733.51 1415.32  Z
  " fill="#009af9" fill-rule="evenodd" fill-opacity="1"/>
<polyline clip-path="url(#clip472)" style="stroke:#000000; stroke-width:4; stroke-opacity:1; fill:none" points="
  1733.51,1415.32 1733.51,1445.72 1758.46,1445.72 1758.46,1415.32 1733.51,1415.32 
  "/>
<path clip-path="url(#clip472)" d="
M1758.46 1417.01 L1758.46 1445.72 L1783.41 1445.72 L1783.41 1417.01 L1758.46 1417.01 L1758.46 1417.01  Z
  " fill="#009af9" fill-rule="evenodd" fill-opacity="1"/>
<polyline clip-path="url(#clip472)" style="stroke:#000000; stroke-width:4; stroke-opacity:1; fill:none" points="
  1758.46,1417.01 1758.46,1445.72 1783.41,1445.72 1783.41,1417.01 1758.46,1417.01 
  "/>
<path clip-path="url(#clip472)" d="
M1783.41 1427.14 L1783.41 1445.72 L1808.36 1445.72 L1808.36 1427.14 L1783.41 1427.14 L1783.41 1427.14  Z
  " fill="#009af9" fill-rule="evenodd" fill-opacity="1"/>
<polyline clip-path="url(#clip472)" style="stroke:#000000; stroke-width:4; stroke-opacity:1; fill:none" points="
  1783.41,1427.14 1783.41,1445.72 1808.36,1445.72 1808.36,1427.14 1783.41,1427.14 
  "/>
<path clip-path="url(#clip472)" d="
M1808.36 1420.38 L1808.36 1445.72 L1833.31 1445.72 L1833.31 1420.38 L1808.36 1420.38 L1808.36 1420.38  Z
  " fill="#009af9" fill-rule="evenodd" fill-opacity="1"/>
<polyline clip-path="url(#clip472)" style="stroke:#000000; stroke-width:4; stroke-opacity:1; fill:none" points="
  1808.36,1420.38 1808.36,1445.72 1833.31,1445.72 1833.31,1420.38 1808.36,1420.38 
  "/>
<path clip-path="url(#clip472)" d="
M1833.31 1435.58 L1833.31 1445.72 L1858.26 1445.72 L1858.26 1435.58 L1833.31 1435.58 L1833.31 1435.58  Z
  " fill="#009af9" fill-rule="evenodd" fill-opacity="1"/>
<polyline clip-path="url(#clip472)" style="stroke:#000000; stroke-width:4; stroke-opacity:1; fill:none" points="
  1833.31,1435.58 1833.31,1445.72 1858.26,1445.72 1858.26,1435.58 1833.31,1435.58 
  "/>
<path clip-path="url(#clip472)" d="
M1858.26 1438.96 L1858.26 1445.72 L1883.21 1445.72 L1883.21 1438.96 L1858.26 1438.96 L1858.26 1438.96  Z
  " fill="#009af9" fill-rule="evenodd" fill-opacity="1"/>
<polyline clip-path="url(#clip472)" style="stroke:#000000; stroke-width:4; stroke-opacity:1; fill:none" points="
  1858.26,1438.96 1858.26,1445.72 1883.21,1445.72 1883.21,1438.96 1858.26,1438.96 
  "/>
<path clip-path="url(#clip472)" d="
M1883.21 1438.96 L1883.21 1445.72 L1908.15 1445.72 L1908.15 1438.96 L1883.21 1438.96 L1883.21 1438.96  Z
  " fill="#009af9" fill-rule="evenodd" fill-opacity="1"/>
<polyline clip-path="url(#clip472)" style="stroke:#000000; stroke-width:4; stroke-opacity:1; fill:none" points="
  1883.21,1438.96 1883.21,1445.72 1908.15,1445.72 1908.15,1438.96 1883.21,1438.96 
  "/>
<path clip-path="url(#clip472)" d="
M1908.15 1440.65 L1908.15 1445.72 L1933.1 1445.72 L1933.1 1440.65 L1908.15 1440.65 L1908.15 1440.65  Z
  " fill="#009af9" fill-rule="evenodd" fill-opacity="1"/>
<polyline clip-path="url(#clip472)" style="stroke:#000000; stroke-width:4; stroke-opacity:1; fill:none" points="
  1908.15,1440.65 1908.15,1445.72 1933.1,1445.72 1933.1,1440.65 1908.15,1440.65 
  "/>
<path clip-path="url(#clip472)" d="
M1933.1 1432.21 L1933.1 1445.72 L1958.05 1445.72 L1958.05 1432.21 L1933.1 1432.21 L1933.1 1432.21  Z
  " fill="#009af9" fill-rule="evenodd" fill-opacity="1"/>
<polyline clip-path="url(#clip472)" style="stroke:#000000; stroke-width:4; stroke-opacity:1; fill:none" points="
  1933.1,1432.21 1933.1,1445.72 1958.05,1445.72 1958.05,1432.21 1933.1,1432.21 
  "/>
<path clip-path="url(#clip472)" d="
M1958.05 1435.58 L1958.05 1445.72 L1983 1445.72 L1983 1435.58 L1958.05 1435.58 L1958.05 1435.58  Z
  " fill="#009af9" fill-rule="evenodd" fill-opacity="1"/>
<polyline clip-path="url(#clip472)" style="stroke:#000000; stroke-width:4; stroke-opacity:1; fill:none" points="
  1958.05,1435.58 1958.05,1445.72 1983,1445.72 1983,1435.58 1958.05,1435.58 
  "/>
<path clip-path="url(#clip472)" d="
M1983 1445.72 L1983 1445.72 L2007.95 1445.72 L2007.95 1445.72 L1983 1445.72 L1983 1445.72  Z
  " fill="#009af9" fill-rule="evenodd" fill-opacity="1"/>
<polyline clip-path="url(#clip472)" style="stroke:#000000; stroke-width:4; stroke-opacity:1; fill:none" points="
  1983,1445.72 1983,1445.72 2007.95,1445.72 1983,1445.72 
  "/>
<path clip-path="url(#clip472)" d="
M2007.95 1438.96 L2007.95 1445.72 L2032.9 1445.72 L2032.9 1438.96 L2007.95 1438.96 L2007.95 1438.96  Z
  " fill="#009af9" fill-rule="evenodd" fill-opacity="1"/>
<polyline clip-path="url(#clip472)" style="stroke:#000000; stroke-width:4; stroke-opacity:1; fill:none" points="
  2007.95,1438.96 2007.95,1445.72 2032.9,1445.72 2032.9,1438.96 2007.95,1438.96 
  "/>
<path clip-path="url(#clip472)" d="
M2032.9 1438.96 L2032.9 1445.72 L2057.85 1445.72 L2057.85 1438.96 L2032.9 1438.96 L2032.9 1438.96  Z
  " fill="#009af9" fill-rule="evenodd" fill-opacity="1"/>
<polyline clip-path="url(#clip472)" style="stroke:#000000; stroke-width:4; stroke-opacity:1; fill:none" points="
  2032.9,1438.96 2032.9,1445.72 2057.85,1445.72 2057.85,1438.96 2032.9,1438.96 
  "/>
<path clip-path="url(#clip472)" d="
M2057.85 1445.72 L2057.85 1445.72 L2082.8 1445.72 L2082.8 1445.72 L2057.85 1445.72 L2057.85 1445.72  Z
  " fill="#009af9" fill-rule="evenodd" fill-opacity="1"/>
<polyline clip-path="url(#clip472)" style="stroke:#000000; stroke-width:4; stroke-opacity:1; fill:none" points="
  2057.85,1445.72 2057.85,1445.72 2082.8,1445.72 2057.85,1445.72 
  "/>
<path clip-path="url(#clip472)" d="
M2082.8 1445.72 L2082.8 1445.72 L2107.75 1445.72 L2107.75 1445.72 L2082.8 1445.72 L2082.8 1445.72  Z
  " fill="#009af9" fill-rule="evenodd" fill-opacity="1"/>
<polyline clip-path="url(#clip472)" style="stroke:#000000; stroke-width:4; stroke-opacity:1; fill:none" points="
  2082.8,1445.72 2082.8,1445.72 2107.75,1445.72 2082.8,1445.72 
  "/>
<path clip-path="url(#clip472)" d="
M2107.75 1445.72 L2107.75 1445.72 L2132.7 1445.72 L2132.7 1445.72 L2107.75 1445.72 L2107.75 1445.72  Z
  " fill="#009af9" fill-rule="evenodd" fill-opacity="1"/>
<polyline clip-path="url(#clip472)" style="stroke:#000000; stroke-width:4; stroke-opacity:1; fill:none" points="
  2107.75,1445.72 2107.75,1445.72 2132.7,1445.72 2107.75,1445.72 
  "/>
<path clip-path="url(#clip472)" d="
M2132.7 1445.72 L2132.7 1445.72 L2157.64 1445.72 L2157.64 1445.72 L2132.7 1445.72 L2132.7 1445.72  Z
  " fill="#009af9" fill-rule="evenodd" fill-opacity="1"/>
<polyline clip-path="url(#clip472)" style="stroke:#000000; stroke-width:4; stroke-opacity:1; fill:none" points="
  2132.7,1445.72 2132.7,1445.72 2157.64,1445.72 2132.7,1445.72 
  "/>
<path clip-path="url(#clip472)" d="
M2157.64 1445.72 L2157.64 1445.72 L2182.59 1445.72 L2182.59 1445.72 L2157.64 1445.72 L2157.64 1445.72  Z
  " fill="#009af9" fill-rule="evenodd" fill-opacity="1"/>
<polyline clip-path="url(#clip472)" style="stroke:#000000; stroke-width:4; stroke-opacity:1; fill:none" points="
  2157.64,1445.72 2157.64,1445.72 2182.59,1445.72 2157.64,1445.72 
  "/>
<path clip-path="url(#clip472)" d="
M2182.59 1445.72 L2182.59 1445.72 L2207.54 1445.72 L2207.54 1445.72 L2182.59 1445.72 L2182.59 1445.72  Z
  " fill="#009af9" fill-rule="evenodd" fill-opacity="1"/>
<polyline clip-path="url(#clip472)" style="stroke:#000000; stroke-width:4; stroke-opacity:1; fill:none" points="
  2182.59,1445.72 2182.59,1445.72 2207.54,1445.72 2182.59,1445.72 
  "/>
<path clip-path="url(#clip472)" d="
M2207.54 1444.03 L2207.54 1445.72 L2232.49 1445.72 L2232.49 1444.03 L2207.54 1444.03 L2207.54 1444.03  Z
  " fill="#009af9" fill-rule="evenodd" fill-opacity="1"/>
<polyline clip-path="url(#clip472)" style="stroke:#000000; stroke-width:4; stroke-opacity:1; fill:none" points="
  2207.54,1444.03 2207.54,1445.72 2232.49,1445.72 2232.49,1444.03 2207.54,1444.03 
  "/>
<path clip-path="url(#clip470)" d="
M1989.74 251.724 L2280.76 251.724 L2280.76 130.764 L1989.74 130.764  Z
  " fill="#ffffff" fill-rule="evenodd" fill-opacity="1"/>
<polyline clip-path="url(#clip470)" style="stroke:#000000; stroke-width:4; stroke-opacity:1; fill:none" points="
  1989.74,251.724 2280.76,251.724 2280.76,130.764 1989.74,130.764 1989.74,251.724 
  "/>
<path clip-path="url(#clip470)" d="
M2013.74 215.436 L2157.74 215.436 L2157.74 167.052 L2013.74 167.052 L2013.74 215.436  Z
  " fill="#009af9" fill-rule="evenodd" fill-opacity="1"/>
<polyline clip-path="url(#clip470)" style="stroke:#000000; stroke-width:4; stroke-opacity:1; fill:none" points="
  2013.74,215.436 2157.74,215.436 2157.74,167.052 2013.74,167.052 2013.74,215.436 
  "/>
<path clip-path="url(#clip470)" d="M 0 0 M2195.58 210.931 Q2193.77 215.561 2192.06 216.973 Q2190.35 218.385 2187.48 218.385 L2184.08 218.385 L2184.08 214.82 L2186.58 214.82 Q2188.33 214.82 2189.31 213.987 Q2190.28 213.154 2191.46 210.052 L2192.22 208.107 L2181.74 182.598 L2186.25 182.598 L2194.35 202.876 L2202.46 182.598 L2206.97 182.598 L2195.58 210.931 Z" fill="#000000" fill-rule="evenodd" fill-opacity="1" /><path clip-path="url(#clip470)" d="M 0 0 M2212.85 204.589 L2220.49 204.589 L2220.49 178.223 L2212.18 179.89 L2212.18 175.631 L2220.44 173.964 L2225.12 173.964 L2225.12 204.589 L2232.76 204.589 L2232.76 208.524 L2212.85 208.524 L2212.85 204.589 Z" fill="#000000" fill-rule="evenodd" fill-opacity="1" /></svg>
