<?xml version="1.0" encoding="utf-8"?>
<svg xmlns="http://www.w3.org/2000/svg" xmlns:xlink="http://www.w3.org/1999/xlink" width="600" height="400" viewBox="0 0 2400 1600">
<defs>
  <clipPath id="clip860">
    <rect x="0" y="0" width="2400" height="1600"/>
  </clipPath>
</defs>
<path clip-path="url(#clip860)" d="
M0 1600 L2400 1600 L2400 0 L0 0  Z
  " fill="#ffffff" fill-rule="evenodd" fill-opacity="1"/>
<defs>
  <clipPath id="clip861">
    <rect x="480" y="0" width="1681" height="1600"/>
  </clipPath>
</defs>
<path clip-path="url(#clip860)" d="
M166.205 1486.45 L2352.76 1486.45 L2352.76 47.2441 L166.205 47.2441  Z
  " fill="#ffffff" fill-rule="evenodd" fill-opacity="1"/>
<defs>
  <clipPath id="clip862">
    <rect x="166" y="47" width="2188" height="1440"/>
  </clipPath>
</defs>
<polyline clip-path="url(#clip862)" style="stroke:#000000; stroke-width:2; stroke-opacity:0.1; fill:none" points="
  421.609,1486.45 421.609,47.2441 
  "/>
<polyline clip-path="url(#clip862)" style="stroke:#000000; stroke-width:2; stroke-opacity:0.1; fill:none" points="
  827.031,1486.45 827.031,47.2441 
  "/>
<polyline clip-path="url(#clip862)" style="stroke:#000000; stroke-width:2; stroke-opacity:0.1; fill:none" points="
  1232.45,1486.45 1232.45,47.2441 
  "/>
<polyline clip-path="url(#clip862)" style="stroke:#000000; stroke-width:2; stroke-opacity:0.1; fill:none" points="
  1637.87,1486.45 1637.87,47.2441 
  "/>
<polyline clip-path="url(#clip862)" style="stroke:#000000; stroke-width:2; stroke-opacity:0.1; fill:none" points="
  2043.3,1486.45 2043.3,47.2441 
  "/>
<polyline clip-path="url(#clip862)" style="stroke:#000000; stroke-width:2; stroke-opacity:0.1; fill:none" points="
  166.205,1445.72 2352.76,1445.72 
  "/>
<polyline clip-path="url(#clip862)" style="stroke:#000000; stroke-width:2; stroke-opacity:0.1; fill:none" points="
  166.205,1098.02 2352.76,1098.02 
  "/>
<polyline clip-path="url(#clip862)" style="stroke:#000000; stroke-width:2; stroke-opacity:0.1; fill:none" points="
  166.205,750.331 2352.76,750.331 
  "/>
<polyline clip-path="url(#clip862)" style="stroke:#000000; stroke-width:2; stroke-opacity:0.1; fill:none" points="
  166.205,402.638 2352.76,402.638 
  "/>
<polyline clip-path="url(#clip862)" style="stroke:#000000; stroke-width:2; stroke-opacity:0.1; fill:none" points="
  166.205,54.9455 2352.76,54.9455 
  "/>
<polyline clip-path="url(#clip860)" style="stroke:#000000; stroke-width:4; stroke-opacity:1; fill:none" points="
  166.205,1486.45 2352.76,1486.45 
  "/>
<polyline clip-path="url(#clip860)" style="stroke:#000000; stroke-width:4; stroke-opacity:1; fill:none" points="
  166.205,1486.45 166.205,47.2441 
  "/>
<polyline clip-path="url(#clip860)" style="stroke:#000000; stroke-width:4; stroke-opacity:1; fill:none" points="
  421.609,1486.45 421.609,1469.18 
  "/>
<polyline clip-path="url(#clip860)" style="stroke:#000000; stroke-width:4; stroke-opacity:1; fill:none" points="
  827.031,1486.45 827.031,1469.18 
  "/>
<polyline clip-path="url(#clip860)" style="stroke:#000000; stroke-width:4; stroke-opacity:1; fill:none" points="
  1232.45,1486.45 1232.45,1469.18 
  "/>
<polyline clip-path="url(#clip860)" style="stroke:#000000; stroke-width:4; stroke-opacity:1; fill:none" points="
  1637.87,1486.45 1637.87,1469.18 
  "/>
<polyline clip-path="url(#clip860)" style="stroke:#000000; stroke-width:4; stroke-opacity:1; fill:none" points="
  2043.3,1486.45 2043.3,1469.18 
  "/>
<polyline clip-path="url(#clip860)" style="stroke:#000000; stroke-width:4; stroke-opacity:1; fill:none" points="
  166.205,1445.72 192.443,1445.72 
  "/>
<polyline clip-path="url(#clip860)" style="stroke:#000000; stroke-width:4; stroke-opacity:1; fill:none" points="
  166.205,1098.02 192.443,1098.02 
  "/>
<polyline clip-path="url(#clip860)" style="stroke:#000000; stroke-width:4; stroke-opacity:1; fill:none" points="
  166.205,750.331 192.443,750.331 
  "/>
<polyline clip-path="url(#clip860)" style="stroke:#000000; stroke-width:4; stroke-opacity:1; fill:none" points="
  166.205,402.638 192.443,402.638 
  "/>
<polyline clip-path="url(#clip860)" style="stroke:#000000; stroke-width:4; stroke-opacity:1; fill:none" points="
  166.205,54.9455 192.443,54.9455 
  "/>
<path clip-path="url(#clip860)" d="M 0 0 M401.783 1525.04 L414.26 1525.04 L414.26 1528.83 L401.783 1528.83 L401.783 1525.04 Z" fill="#000000" fill-rule="evenodd" fill-opacity="1" /><path clip-path="url(#clip860)" d="M 0 0 M429.908 1520.78 Q426.76 1520.78 424.908 1522.93 Q423.079 1525.08 423.079 1528.83 Q423.079 1532.56 424.908 1534.73 Q426.76 1536.89 429.908 1536.89 Q433.056 1536.89 434.885 1534.73 Q436.737 1532.56 436.737 1528.83 Q436.737 1525.08 434.885 1522.93 Q433.056 1520.78 429.908 1520.78 M439.19 1506.12 L439.19 1510.38 Q437.431 1509.55 435.625 1509.11 Q433.843 1508.67 432.084 1508.67 Q427.454 1508.67 425.001 1511.8 Q422.57 1514.92 422.223 1521.24 Q423.589 1519.23 425.649 1518.16 Q427.709 1517.07 430.186 1517.07 Q435.394 1517.07 438.403 1520.24 Q441.436 1523.39 441.436 1528.83 Q441.436 1534.16 438.287 1537.37 Q435.139 1540.59 429.908 1540.59 Q423.913 1540.59 420.741 1536.01 Q417.57 1531.4 417.57 1522.67 Q417.57 1514.48 421.459 1509.62 Q425.348 1504.73 431.899 1504.73 Q433.658 1504.73 435.44 1505.08 Q437.246 1505.43 439.19 1506.12 Z" fill="#000000" fill-rule="evenodd" fill-opacity="1" /><path clip-path="url(#clip860)" d="M 0 0 M807.61 1525.04 L820.086 1525.04 L820.086 1528.83 L807.61 1528.83 L807.61 1525.04 Z" fill="#000000" fill-rule="evenodd" fill-opacity="1" /><path clip-path="url(#clip860)" d="M 0 0 M839.322 1521.29 Q842.679 1522 844.554 1524.27 Q846.452 1526.54 846.452 1529.87 Q846.452 1534.99 842.933 1537.79 Q839.415 1540.59 832.934 1540.59 Q830.758 1540.59 828.443 1540.15 Q826.151 1539.73 823.697 1538.88 L823.697 1534.36 Q825.642 1535.5 827.957 1536.08 Q830.271 1536.66 832.795 1536.66 Q837.193 1536.66 839.484 1534.92 Q841.799 1533.18 841.799 1529.87 Q841.799 1526.82 839.646 1525.11 Q837.517 1523.37 833.697 1523.37 L829.67 1523.37 L829.67 1519.53 L833.883 1519.53 Q837.332 1519.53 839.16 1518.16 Q840.989 1516.77 840.989 1514.18 Q840.989 1511.52 839.091 1510.11 Q837.216 1508.67 833.697 1508.67 Q831.776 1508.67 829.577 1509.09 Q827.378 1509.5 824.739 1510.38 L824.739 1506.22 Q827.401 1505.48 829.716 1505.11 Q832.054 1504.73 834.114 1504.73 Q839.438 1504.73 842.54 1507.17 Q845.642 1509.57 845.642 1513.69 Q845.642 1516.56 843.998 1518.55 Q842.355 1520.52 839.322 1521.29 Z" fill="#000000" fill-rule="evenodd" fill-opacity="1" /><path clip-path="url(#clip860)" d="M 0 0 M1232.45 1508.44 Q1228.84 1508.44 1227.01 1512 Q1225.21 1515.55 1225.21 1522.67 Q1225.21 1529.78 1227.01 1533.35 Q1228.84 1536.89 1232.45 1536.89 Q1236.09 1536.89 1237.89 1533.35 Q1239.72 1529.78 1239.72 1522.67 Q1239.72 1515.55 1237.89 1512 Q1236.09 1508.44 1232.45 1508.44 M1232.45 1504.73 Q1238.26 1504.73 1241.32 1509.34 Q1244.4 1513.92 1244.4 1522.67 Q1244.4 1531.4 1241.32 1536.01 Q1238.26 1540.59 1232.45 1540.59 Q1226.64 1540.59 1223.56 1536.01 Q1220.51 1531.4 1220.51 1522.67 Q1220.51 1513.92 1223.56 1509.34 Q1226.64 1504.73 1232.45 1504.73 Z" fill="#000000" fill-rule="evenodd" fill-opacity="1" /><path clip-path="url(#clip860)" d="M 0 0 M1642.12 1521.29 Q1645.48 1522 1647.35 1524.27 Q1649.25 1526.54 1649.25 1529.87 Q1649.25 1534.99 1645.73 1537.79 Q1642.21 1540.59 1635.73 1540.59 Q1633.56 1540.59 1631.24 1540.15 Q1628.95 1539.73 1626.5 1538.88 L1626.5 1534.36 Q1628.44 1535.5 1630.76 1536.08 Q1633.07 1536.66 1635.59 1536.66 Q1639.99 1536.66 1642.28 1534.92 Q1644.6 1533.18 1644.6 1529.87 Q1644.6 1526.82 1642.45 1525.11 Q1640.32 1523.37 1636.5 1523.37 L1632.47 1523.37 L1632.47 1519.53 L1636.68 1519.53 Q1640.13 1519.53 1641.96 1518.16 Q1643.79 1516.77 1643.79 1514.18 Q1643.79 1511.52 1641.89 1510.11 Q1640.01 1508.67 1636.5 1508.67 Q1634.58 1508.67 1632.38 1509.09 Q1630.18 1509.5 1627.54 1510.38 L1627.54 1506.22 Q1630.2 1505.48 1632.51 1505.11 Q1634.85 1504.73 1636.91 1504.73 Q1642.24 1504.73 1645.34 1507.17 Q1648.44 1509.57 1648.44 1513.69 Q1648.44 1516.56 1646.8 1518.55 Q1645.15 1520.52 1642.12 1521.29 Z" fill="#000000" fill-rule="evenodd" fill-opacity="1" /><path clip-path="url(#clip860)" d="M 0 0 M2043.7 1520.78 Q2040.55 1520.78 2038.7 1522.93 Q2036.87 1525.08 2036.87 1528.83 Q2036.87 1532.56 2038.7 1534.73 Q2040.55 1536.89 2043.7 1536.89 Q2046.85 1536.89 2048.68 1534.73 Q2050.53 1532.56 2050.53 1528.83 Q2050.53 1525.08 2048.68 1522.93 Q2046.85 1520.78 2043.7 1520.78 M2052.98 1506.12 L2052.98 1510.38 Q2051.22 1509.55 2049.42 1509.11 Q2047.64 1508.67 2045.88 1508.67 Q2041.25 1508.67 2038.79 1511.8 Q2036.36 1514.92 2036.01 1521.24 Q2037.38 1519.23 2039.44 1518.16 Q2041.5 1517.07 2043.98 1517.07 Q2049.19 1517.07 2052.2 1520.24 Q2055.23 1523.39 2055.23 1528.83 Q2055.23 1534.16 2052.08 1537.37 Q2048.93 1540.59 2043.7 1540.59 Q2037.7 1540.59 2034.53 1536.01 Q2031.36 1531.4 2031.36 1522.67 Q2031.36 1514.48 2035.25 1509.62 Q2039.14 1504.73 2045.69 1504.73 Q2047.45 1504.73 2049.23 1505.08 Q2051.04 1505.43 2052.98 1506.12 Z" fill="#000000" fill-rule="evenodd" fill-opacity="1" /><path clip-path="url(#clip860)" d="M 0 0 M130.26 1431.51 Q126.649 1431.51 124.82 1435.08 Q123.015 1438.62 123.015 1445.75 Q123.015 1452.86 124.82 1456.42 Q126.649 1459.96 130.26 1459.96 Q133.895 1459.96 135.7 1456.42 Q137.529 1452.86 137.529 1445.75 Q137.529 1438.62 135.7 1435.08 Q133.895 1431.51 130.26 1431.51 M130.26 1427.81 Q136.07 1427.81 139.126 1432.42 Q142.205 1437 142.205 1445.75 Q142.205 1454.48 139.126 1459.08 Q136.07 1463.67 130.26 1463.67 Q124.45 1463.67 121.371 1459.08 Q118.316 1454.48 118.316 1445.75 Q118.316 1437 121.371 1432.42 Q124.45 1427.81 130.26 1427.81 Z" fill="#000000" fill-rule="evenodd" fill-opacity="1" /><path clip-path="url(#clip860)" d="M 0 0 M71.8578 1111.37 L88.1772 1111.37 L88.1772 1115.3 L66.2328 1115.3 L66.2328 1111.37 Q68.8949 1108.61 73.4782 1103.98 Q78.0846 1099.33 79.2652 1097.99 Q81.5105 1095.47 82.3902 1093.73 Q83.2929 1091.97 83.2929 1090.28 Q83.2929 1087.53 81.3485 1085.79 Q79.4272 1084.05 76.3254 1084.05 Q74.1263 1084.05 71.6726 1084.82 Q69.2421 1085.58 66.4643 1087.13 L66.4643 1082.41 Q69.2884 1081.28 71.7421 1080.7 Q74.1958 1080.12 76.2328 1080.12 Q81.6031 1080.12 84.7976 1082.8 Q87.992 1085.49 87.992 1089.98 Q87.992 1092.11 87.1818 1094.03 Q86.3948 1095.93 84.2883 1098.52 Q83.7096 1099.19 80.6078 1102.41 Q77.5059 1105.6 71.8578 1111.37 Z" fill="#000000" fill-rule="evenodd" fill-opacity="1" /><path clip-path="url(#clip860)" d="M 0 0 M103.247 1083.82 Q99.6354 1083.82 97.8068 1087.39 Q96.0012 1090.93 96.0012 1098.06 Q96.0012 1105.16 97.8068 1108.73 Q99.6354 1112.27 103.247 1112.27 Q106.881 1112.27 108.686 1108.73 Q110.515 1105.16 110.515 1098.06 Q110.515 1090.93 108.686 1087.39 Q106.881 1083.82 103.247 1083.82 M103.247 1080.12 Q109.057 1080.12 112.112 1084.72 Q115.191 1089.31 115.191 1098.06 Q115.191 1106.78 112.112 1111.39 Q109.057 1115.97 103.247 1115.97 Q97.4364 1115.97 94.3577 1111.39 Q91.3022 1106.78 91.3022 1098.06 Q91.3022 1089.31 94.3577 1084.72 Q97.4364 1080.12 103.247 1080.12 Z" fill="#000000" fill-rule="evenodd" fill-opacity="1" /><path clip-path="url(#clip860)" d="M 0 0 M130.26 1083.82 Q126.649 1083.82 124.82 1087.39 Q123.015 1090.93 123.015 1098.06 Q123.015 1105.16 124.82 1108.73 Q126.649 1112.27 130.26 1112.27 Q133.895 1112.27 135.7 1108.73 Q137.529 1105.16 137.529 1098.06 Q137.529 1090.93 135.7 1087.39 Q133.895 1083.82 130.26 1083.82 M130.26 1080.12 Q136.07 1080.12 139.126 1084.72 Q142.205 1089.31 142.205 1098.06 Q142.205 1106.78 139.126 1111.39 Q136.07 1115.97 130.26 1115.97 Q124.45 1115.97 121.371 1111.39 Q118.316 1106.78 118.316 1098.06 Q118.316 1089.31 121.371 1084.72 Q124.45 1080.12 130.26 1080.12 Z" fill="#000000" fill-rule="evenodd" fill-opacity="1" /><path clip-path="url(#clip860)" d="M 0 0 M78.5939 737.125 L66.7884 755.574 L78.5939 755.574 L78.5939 737.125 M77.367 733.051 L83.2466 733.051 L83.2466 755.574 L88.1772 755.574 L88.1772 759.462 L83.2466 759.462 L83.2466 767.611 L78.5939 767.611 L78.5939 759.462 L62.9921 759.462 L62.9921 754.949 L77.367 733.051 Z" fill="#000000" fill-rule="evenodd" fill-opacity="1" /><path clip-path="url(#clip860)" d="M 0 0 M103.247 736.129 Q99.6354 736.129 97.8068 739.694 Q96.0012 743.236 96.0012 750.365 Q96.0012 757.472 97.8068 761.037 Q99.6354 764.578 103.247 764.578 Q106.881 764.578 108.686 761.037 Q110.515 757.472 110.515 750.365 Q110.515 743.236 108.686 739.694 Q106.881 736.129 103.247 736.129 M103.247 732.426 Q109.057 732.426 112.112 737.032 Q115.191 741.615 115.191 750.365 Q115.191 759.092 112.112 763.699 Q109.057 768.282 103.247 768.282 Q97.4364 768.282 94.3577 763.699 Q91.3022 759.092 91.3022 750.365 Q91.3022 741.615 94.3577 737.032 Q97.4364 732.426 103.247 732.426 Z" fill="#000000" fill-rule="evenodd" fill-opacity="1" /><path clip-path="url(#clip860)" d="M 0 0 M130.26 736.129 Q126.649 736.129 124.82 739.694 Q123.015 743.236 123.015 750.365 Q123.015 757.472 124.82 761.037 Q126.649 764.578 130.26 764.578 Q133.895 764.578 135.7 761.037 Q137.529 757.472 137.529 750.365 Q137.529 743.236 135.7 739.694 Q133.895 736.129 130.26 736.129 M130.26 732.426 Q136.07 732.426 139.126 737.032 Q142.205 741.615 142.205 750.365 Q142.205 759.092 139.126 763.699 Q136.07 768.282 130.26 768.282 Q124.45 768.282 121.371 763.699 Q118.316 759.092 118.316 750.365 Q118.316 741.615 121.371 737.032 Q124.45 732.426 130.26 732.426 Z" fill="#000000" fill-rule="evenodd" fill-opacity="1" /><path clip-path="url(#clip860)" d="M 0 0 M76.6495 400.775 Q73.5013 400.775 71.6495 402.927 Q69.8208 405.08 69.8208 408.83 Q69.8208 412.557 71.6495 414.733 Q73.5013 416.886 76.6495 416.886 Q79.7976 416.886 81.6263 414.733 Q83.4781 412.557 83.4781 408.83 Q83.4781 405.08 81.6263 402.927 Q79.7976 400.775 76.6495 400.775 M85.9318 386.122 L85.9318 390.381 Q84.1726 389.548 82.367 389.108 Q80.5846 388.668 78.8254 388.668 Q74.1958 388.668 71.7421 391.793 Q69.3115 394.918 68.9643 401.238 Q70.33 399.224 72.3902 398.159 Q74.4504 397.071 76.9272 397.071 Q82.1355 397.071 85.1448 400.242 Q88.1772 403.39 88.1772 408.83 Q88.1772 414.154 85.029 417.372 Q81.8809 420.589 76.6495 420.589 Q70.6541 420.589 67.4828 416.006 Q64.3116 411.4 64.3116 402.673 Q64.3116 394.478 68.2004 389.617 Q72.0893 384.733 78.6402 384.733 Q80.3994 384.733 82.1818 385.08 Q83.9874 385.427 85.9318 386.122 Z" fill="#000000" fill-rule="evenodd" fill-opacity="1" /><path clip-path="url(#clip860)" d="M 0 0 M103.247 388.437 Q99.6354 388.437 97.8068 392.002 Q96.0012 395.543 96.0012 402.673 Q96.0012 409.779 97.8068 413.344 Q99.6354 416.886 103.247 416.886 Q106.881 416.886 108.686 413.344 Q110.515 409.779 110.515 402.673 Q110.515 395.543 108.686 392.002 Q106.881 388.437 103.247 388.437 M103.247 384.733 Q109.057 384.733 112.112 389.339 Q115.191 393.923 115.191 402.673 Q115.191 411.4 112.112 416.006 Q109.057 420.589 103.247 420.589 Q97.4364 420.589 94.3577 416.006 Q91.3022 411.4 91.3022 402.673 Q91.3022 393.923 94.3577 389.339 Q97.4364 384.733 103.247 384.733 Z" fill="#000000" fill-rule="evenodd" fill-opacity="1" /><path clip-path="url(#clip860)" d="M 0 0 M130.26 388.437 Q126.649 388.437 124.82 392.002 Q123.015 395.543 123.015 402.673 Q123.015 409.779 124.82 413.344 Q126.649 416.886 130.26 416.886 Q133.895 416.886 135.7 413.344 Q137.529 409.779 137.529 402.673 Q137.529 395.543 135.7 392.002 Q133.895 388.437 130.26 388.437 M130.26 384.733 Q136.07 384.733 139.126 389.339 Q142.205 393.923 142.205 402.673 Q142.205 411.4 139.126 416.006 Q136.07 420.589 130.26 420.589 Q124.45 420.589 121.371 416.006 Q118.316 411.4 118.316 402.673 Q118.316 393.923 121.371 389.339 Q124.45 384.733 130.26 384.733 Z" fill="#000000" fill-rule="evenodd" fill-opacity="1" /><path clip-path="url(#clip860)" d="M 0 0 M76.3254 55.8135 Q72.9921 55.8135 71.0708 57.5959 Q69.1726 59.3783 69.1726 62.5033 Q69.1726 65.6283 71.0708 67.4107 Q72.9921 69.1931 76.3254 69.1931 Q79.6587 69.1931 81.58 67.4107 Q83.5013 65.6051 83.5013 62.5033 Q83.5013 59.3783 81.58 57.5959 Q79.6819 55.8135 76.3254 55.8135 M71.6495 53.8228 Q68.6402 53.0821 66.9504 51.0219 Q65.2838 48.9617 65.2838 45.9988 Q65.2838 41.8553 68.2236 39.4479 Q71.1865 37.0405 76.3254 37.0405 Q81.4874 37.0405 84.4272 39.4479 Q87.367 41.8553 87.367 45.9988 Q87.367 48.9617 85.6772 51.0219 Q84.0105 53.0821 81.0244 53.8228 Q84.404 54.6098 86.279 56.9015 Q88.1772 59.1931 88.1772 62.5033 Q88.1772 67.5264 85.0985 70.2116 Q82.0429 72.8968 76.3254 72.8968 Q70.6078 72.8968 67.5291 70.2116 Q64.4736 67.5264 64.4736 62.5033 Q64.4736 59.1931 66.3717 56.9015 Q68.2699 54.6098 71.6495 53.8228 M69.9365 46.4386 Q69.9365 49.1238 71.6032 50.6284 Q73.293 52.133 76.3254 52.133 Q79.3346 52.133 81.0244 50.6284 Q82.7374 49.1238 82.7374 46.4386 Q82.7374 43.7534 81.0244 42.2488 Q79.3346 40.7442 76.3254 40.7442 Q73.293 40.7442 71.6032 42.2488 Q69.9365 43.7534 69.9365 46.4386 Z" fill="#000000" fill-rule="evenodd" fill-opacity="1" /><path clip-path="url(#clip860)" d="M 0 0 M103.247 40.7442 Q99.6354 40.7442 97.8068 44.309 Q96.0012 47.8506 96.0012 54.9802 Q96.0012 62.0866 97.8068 65.6514 Q99.6354 69.1931 103.247 69.1931 Q106.881 69.1931 108.686 65.6514 Q110.515 62.0866 110.515 54.9802 Q110.515 47.8506 108.686 44.309 Q106.881 40.7442 103.247 40.7442 M103.247 37.0405 Q109.057 37.0405 112.112 41.6469 Q115.191 46.2303 115.191 54.9802 Q115.191 63.707 112.112 68.3135 Q109.057 72.8968 103.247 72.8968 Q97.4364 72.8968 94.3577 68.3135 Q91.3022 63.707 91.3022 54.9802 Q91.3022 46.2303 94.3577 41.6469 Q97.4364 37.0405 103.247 37.0405 Z" fill="#000000" fill-rule="evenodd" fill-opacity="1" /><path clip-path="url(#clip860)" d="M 0 0 M130.26 40.7442 Q126.649 40.7442 124.82 44.309 Q123.015 47.8506 123.015 54.9802 Q123.015 62.0866 124.82 65.6514 Q126.649 69.1931 130.26 69.1931 Q133.895 69.1931 135.7 65.6514 Q137.529 62.0866 137.529 54.9802 Q137.529 47.8506 135.7 44.309 Q133.895 40.7442 130.26 40.7442 M130.26 37.0405 Q136.07 37.0405 139.126 41.6469 Q142.205 46.2303 142.205 54.9802 Q142.205 63.707 139.126 68.3135 Q136.07 72.8968 130.26 72.8968 Q124.45 72.8968 121.371 68.3135 Q118.316 63.707 118.316 54.9802 Q118.316 46.2303 121.371 41.6469 Q124.45 37.0405 130.26 37.0405 Z" fill="#000000" fill-rule="evenodd" fill-opacity="1" /><path clip-path="url(#clip862)" d="
M286.469 1442.24 L286.469 1445.72 L313.497 1445.72 L313.497 1442.24 L286.469 1442.24 L286.469 1442.24  Z
  " fill="#009af9" fill-rule="evenodd" fill-opacity="1"/>
<polyline clip-path="url(#clip862)" style="stroke:#000000; stroke-width:4; stroke-opacity:1; fill:none" points="
  286.469,1442.24 286.469,1445.72 313.497,1445.72 313.497,1442.24 286.469,1442.24 
  "/>
<path clip-path="url(#clip862)" d="
M313.497 1445.72 L313.497 1445.72 L340.525 1445.72 L340.525 1445.72 L313.497 1445.72 L313.497 1445.72  Z
  " fill="#009af9" fill-rule="evenodd" fill-opacity="1"/>
<polyline clip-path="url(#clip862)" style="stroke:#000000; stroke-width:4; stroke-opacity:1; fill:none" points="
  313.497,1445.72 313.497,1445.72 340.525,1445.72 313.497,1445.72 
  "/>
<path clip-path="url(#clip862)" d="
M340.525 1443.98 L340.525 1445.72 L367.553 1445.72 L367.553 1443.98 L340.525 1443.98 L340.525 1443.98  Z
  " fill="#009af9" fill-rule="evenodd" fill-opacity="1"/>
<polyline clip-path="url(#clip862)" style="stroke:#000000; stroke-width:4; stroke-opacity:1; fill:none" points="
  340.525,1443.98 340.525,1445.72 367.553,1445.72 367.553,1443.98 340.525,1443.98 
  "/>
<path clip-path="url(#clip862)" d="
M367.553 1443.98 L367.553 1445.72 L394.581 1445.72 L394.581 1443.98 L367.553 1443.98 L367.553 1443.98  Z
  " fill="#009af9" fill-rule="evenodd" fill-opacity="1"/>
<polyline clip-path="url(#clip862)" style="stroke:#000000; stroke-width:4; stroke-opacity:1; fill:none" points="
  367.553,1443.98 367.553,1445.72 394.581,1445.72 394.581,1443.98 367.553,1443.98 
  "/>
<path clip-path="url(#clip862)" d="
M394.581 1445.72 L394.581 1445.72 L421.609 1445.72 L421.609 1445.72 L394.581 1445.72 L394.581 1445.72  Z
  " fill="#009af9" fill-rule="evenodd" fill-opacity="1"/>
<polyline clip-path="url(#clip862)" style="stroke:#000000; stroke-width:4; stroke-opacity:1; fill:none" points="
  394.581,1445.72 394.581,1445.72 421.609,1445.72 394.581,1445.72 
  "/>
<path clip-path="url(#clip862)" d="
M421.609 1443.98 L421.609 1445.72 L448.637 1445.72 L448.637 1443.98 L421.609 1443.98 L421.609 1443.98  Z
  " fill="#009af9" fill-rule="evenodd" fill-opacity="1"/>
<polyline clip-path="url(#clip862)" style="stroke:#000000; stroke-width:4; stroke-opacity:1; fill:none" points="
  421.609,1443.98 421.609,1445.72 448.637,1445.72 448.637,1443.98 421.609,1443.98 
  "/>
<path clip-path="url(#clip862)" d="
M448.637 1443.98 L448.637 1445.72 L475.666 1445.72 L475.666 1443.98 L448.637 1443.98 L448.637 1443.98  Z
  " fill="#009af9" fill-rule="evenodd" fill-opacity="1"/>
<polyline clip-path="url(#clip862)" style="stroke:#000000; stroke-width:4; stroke-opacity:1; fill:none" points="
  448.637,1443.98 448.637,1445.72 475.666,1445.72 475.666,1443.98 448.637,1443.98 
  "/>
<path clip-path="url(#clip862)" d="
M475.666 1442.24 L475.666 1445.72 L502.694 1445.72 L502.694 1442.24 L475.666 1442.24 L475.666 1442.24  Z
  " fill="#009af9" fill-rule="evenodd" fill-opacity="1"/>
<polyline clip-path="url(#clip862)" style="stroke:#000000; stroke-width:4; stroke-opacity:1; fill:none" points="
  475.666,1442.24 475.666,1445.72 502.694,1445.72 502.694,1442.24 475.666,1442.24 
  "/>
<path clip-path="url(#clip862)" d="
M502.694 1435.28 L502.694 1445.72 L529.722 1445.72 L529.722 1435.28 L502.694 1435.28 L502.694 1435.28  Z
  " fill="#009af9" fill-rule="evenodd" fill-opacity="1"/>
<polyline clip-path="url(#clip862)" style="stroke:#000000; stroke-width:4; stroke-opacity:1; fill:none" points="
  502.694,1435.28 502.694,1445.72 529.722,1445.72 529.722,1435.28 502.694,1435.28 
  "/>
<path clip-path="url(#clip862)" d="
M529.722 1435.28 L529.722 1445.72 L556.75 1445.72 L556.75 1435.28 L529.722 1435.28 L529.722 1435.28  Z
  " fill="#009af9" fill-rule="evenodd" fill-opacity="1"/>
<polyline clip-path="url(#clip862)" style="stroke:#000000; stroke-width:4; stroke-opacity:1; fill:none" points="
  529.722,1435.28 529.722,1445.72 556.75,1445.72 556.75,1435.28 529.722,1435.28 
  "/>
<path clip-path="url(#clip862)" d="
M556.75 1433.55 L556.75 1445.72 L583.778 1445.72 L583.778 1433.55 L556.75 1433.55 L556.75 1433.55  Z
  " fill="#009af9" fill-rule="evenodd" fill-opacity="1"/>
<polyline clip-path="url(#clip862)" style="stroke:#000000; stroke-width:4; stroke-opacity:1; fill:none" points="
  556.75,1433.55 556.75,1445.72 583.778,1445.72 583.778,1433.55 556.75,1433.55 
  "/>
<path clip-path="url(#clip862)" d="
M583.778 1431.81 L583.778 1445.72 L610.806 1445.72 L610.806 1431.81 L583.778 1431.81 L583.778 1431.81  Z
  " fill="#009af9" fill-rule="evenodd" fill-opacity="1"/>
<polyline clip-path="url(#clip862)" style="stroke:#000000; stroke-width:4; stroke-opacity:1; fill:none" points="
  583.778,1431.81 583.778,1445.72 610.806,1445.72 610.806,1431.81 583.778,1431.81 
  "/>
<path clip-path="url(#clip862)" d="
M610.806 1428.33 L610.806 1445.72 L637.834 1445.72 L637.834 1428.33 L610.806 1428.33 L610.806 1428.33  Z
  " fill="#009af9" fill-rule="evenodd" fill-opacity="1"/>
<polyline clip-path="url(#clip862)" style="stroke:#000000; stroke-width:4; stroke-opacity:1; fill:none" points="
  610.806,1428.33 610.806,1445.72 637.834,1445.72 637.834,1428.33 610.806,1428.33 
  "/>
<path clip-path="url(#clip862)" d="
M637.834 1433.55 L637.834 1445.72 L664.862 1445.72 L664.862 1433.55 L637.834 1433.55 L637.834 1433.55  Z
  " fill="#009af9" fill-rule="evenodd" fill-opacity="1"/>
<polyline clip-path="url(#clip862)" style="stroke:#000000; stroke-width:4; stroke-opacity:1; fill:none" points="
  637.834,1433.55 637.834,1445.72 664.862,1445.72 664.862,1433.55 637.834,1433.55 
  "/>
<path clip-path="url(#clip862)" d="
M664.862 1431.81 L664.862 1445.72 L691.89 1445.72 L691.89 1431.81 L664.862 1431.81 L664.862 1431.81  Z
  " fill="#009af9" fill-rule="evenodd" fill-opacity="1"/>
<polyline clip-path="url(#clip862)" style="stroke:#000000; stroke-width:4; stroke-opacity:1; fill:none" points="
  664.862,1431.81 664.862,1445.72 691.89,1445.72 691.89,1431.81 664.862,1431.81 
  "/>
<path clip-path="url(#clip862)" d="
M691.89 1417.9 L691.89 1445.72 L718.918 1445.72 L718.918 1417.9 L691.89 1417.9 L691.89 1417.9  Z
  " fill="#009af9" fill-rule="evenodd" fill-opacity="1"/>
<polyline clip-path="url(#clip862)" style="stroke:#000000; stroke-width:4; stroke-opacity:1; fill:none" points="
  691.89,1417.9 691.89,1445.72 718.918,1445.72 718.918,1417.9 691.89,1417.9 
  "/>
<path clip-path="url(#clip862)" d="
M718.918 1400.52 L718.918 1445.72 L745.946 1445.72 L745.946 1400.52 L718.918 1400.52 L718.918 1400.52  Z
  " fill="#009af9" fill-rule="evenodd" fill-opacity="1"/>
<polyline clip-path="url(#clip862)" style="stroke:#000000; stroke-width:4; stroke-opacity:1; fill:none" points="
  718.918,1400.52 718.918,1445.72 745.946,1445.72 745.946,1400.52 718.918,1400.52 
  "/>
<path clip-path="url(#clip862)" d="
M745.946 1403.99 L745.946 1445.72 L772.975 1445.72 L772.975 1403.99 L745.946 1403.99 L745.946 1403.99  Z
  " fill="#009af9" fill-rule="evenodd" fill-opacity="1"/>
<polyline clip-path="url(#clip862)" style="stroke:#000000; stroke-width:4; stroke-opacity:1; fill:none" points="
  745.946,1403.99 745.946,1445.72 772.975,1445.72 772.975,1403.99 745.946,1403.99 
  "/>
<path clip-path="url(#clip862)" d="
M772.975 1400.52 L772.975 1445.72 L800.003 1445.72 L800.003 1400.52 L772.975 1400.52 L772.975 1400.52  Z
  " fill="#009af9" fill-rule="evenodd" fill-opacity="1"/>
<polyline clip-path="url(#clip862)" style="stroke:#000000; stroke-width:4; stroke-opacity:1; fill:none" points="
  772.975,1400.52 772.975,1445.72 800.003,1445.72 800.003,1400.52 772.975,1400.52 
  "/>
<path clip-path="url(#clip862)" d="
M800.003 1383.13 L800.003 1445.72 L827.031 1445.72 L827.031 1383.13 L800.003 1383.13 L800.003 1383.13  Z
  " fill="#009af9" fill-rule="evenodd" fill-opacity="1"/>
<polyline clip-path="url(#clip862)" style="stroke:#000000; stroke-width:4; stroke-opacity:1; fill:none" points="
  800.003,1383.13 800.003,1445.72 827.031,1445.72 827.031,1383.13 800.003,1383.13 
  "/>
<path clip-path="url(#clip862)" d="
M827.031 1367.48 L827.031 1445.72 L854.059 1445.72 L854.059 1367.48 L827.031 1367.48 L827.031 1367.48  Z
  " fill="#009af9" fill-rule="evenodd" fill-opacity="1"/>
<polyline clip-path="url(#clip862)" style="stroke:#000000; stroke-width:4; stroke-opacity:1; fill:none" points="
  827.031,1367.48 827.031,1445.72 854.059,1445.72 854.059,1367.48 827.031,1367.48 
  "/>
<path clip-path="url(#clip862)" d="
M854.059 1358.79 L854.059 1445.72 L881.087 1445.72 L881.087 1358.79 L854.059 1358.79 L854.059 1358.79  Z
  " fill="#009af9" fill-rule="evenodd" fill-opacity="1"/>
<polyline clip-path="url(#clip862)" style="stroke:#000000; stroke-width:4; stroke-opacity:1; fill:none" points="
  854.059,1358.79 854.059,1445.72 881.087,1445.72 881.087,1358.79 854.059,1358.79 
  "/>
<path clip-path="url(#clip862)" d="
M881.087 1367.48 L881.087 1445.72 L908.115 1445.72 L908.115 1367.48 L881.087 1367.48 L881.087 1367.48  Z
  " fill="#009af9" fill-rule="evenodd" fill-opacity="1"/>
<polyline clip-path="url(#clip862)" style="stroke:#000000; stroke-width:4; stroke-opacity:1; fill:none" points="
  881.087,1367.48 881.087,1445.72 908.115,1445.72 908.115,1367.48 881.087,1367.48 
  "/>
<path clip-path="url(#clip862)" d="
M908.115 1339.67 L908.115 1445.72 L935.143 1445.72 L935.143 1339.67 L908.115 1339.67 L908.115 1339.67  Z
  " fill="#009af9" fill-rule="evenodd" fill-opacity="1"/>
<polyline clip-path="url(#clip862)" style="stroke:#000000; stroke-width:4; stroke-opacity:1; fill:none" points="
  908.115,1339.67 908.115,1445.72 935.143,1445.72 935.143,1339.67 908.115,1339.67 
  "/>
<path clip-path="url(#clip862)" d="
M935.143 1294.47 L935.143 1445.72 L962.171 1445.72 L962.171 1294.47 L935.143 1294.47 L935.143 1294.47  Z
  " fill="#009af9" fill-rule="evenodd" fill-opacity="1"/>
<polyline clip-path="url(#clip862)" style="stroke:#000000; stroke-width:4; stroke-opacity:1; fill:none" points="
  935.143,1294.47 935.143,1445.72 962.171,1445.72 962.171,1294.47 935.143,1294.47 
  "/>
<path clip-path="url(#clip862)" d="
M962.171 1332.72 L962.171 1445.72 L989.199 1445.72 L989.199 1332.72 L962.171 1332.72 L962.171 1332.72  Z
  " fill="#009af9" fill-rule="evenodd" fill-opacity="1"/>
<polyline clip-path="url(#clip862)" style="stroke:#000000; stroke-width:4; stroke-opacity:1; fill:none" points="
  962.171,1332.72 962.171,1445.72 989.199,1445.72 989.199,1332.72 962.171,1332.72 
  "/>
<path clip-path="url(#clip862)" d="
M989.199 1322.28 L989.199 1445.72 L1016.23 1445.72 L1016.23 1322.28 L989.199 1322.28 L989.199 1322.28  Z
  " fill="#009af9" fill-rule="evenodd" fill-opacity="1"/>
<polyline clip-path="url(#clip862)" style="stroke:#000000; stroke-width:4; stroke-opacity:1; fill:none" points="
  989.199,1322.28 989.199,1445.72 1016.23,1445.72 1016.23,1322.28 989.199,1322.28 
  "/>
<path clip-path="url(#clip862)" d="
M1016.23 1270.13 L1016.23 1445.72 L1043.26 1445.72 L1043.26 1270.13 L1016.23 1270.13 L1016.23 1270.13  Z
  " fill="#009af9" fill-rule="evenodd" fill-opacity="1"/>
<polyline clip-path="url(#clip862)" style="stroke:#000000; stroke-width:4; stroke-opacity:1; fill:none" points="
  1016.23,1270.13 1016.23,1445.72 1043.26,1445.72 1043.26,1270.13 1016.23,1270.13 
  "/>
<path clip-path="url(#clip862)" d="
M1043.26 1290.99 L1043.26 1445.72 L1070.28 1445.72 L1070.28 1290.99 L1043.26 1290.99 L1043.26 1290.99  Z
  " fill="#009af9" fill-rule="evenodd" fill-opacity="1"/>
<polyline clip-path="url(#clip862)" style="stroke:#000000; stroke-width:4; stroke-opacity:1; fill:none" points="
  1043.26,1290.99 1043.26,1445.72 1070.28,1445.72 1070.28,1290.99 1043.26,1290.99 
  "/>
<path clip-path="url(#clip862)" d="
M1070.28 1277.08 L1070.28 1445.72 L1097.31 1445.72 L1097.31 1277.08 L1070.28 1277.08 L1070.28 1277.08  Z
  " fill="#009af9" fill-rule="evenodd" fill-opacity="1"/>
<polyline clip-path="url(#clip862)" style="stroke:#000000; stroke-width:4; stroke-opacity:1; fill:none" points="
  1070.28,1277.08 1070.28,1445.72 1097.31,1445.72 1097.31,1277.08 1070.28,1277.08 
  "/>
<path clip-path="url(#clip862)" d="
M1097.31 1273.61 L1097.31 1445.72 L1124.34 1445.72 L1124.34 1273.61 L1097.31 1273.61 L1097.31 1273.61  Z
  " fill="#009af9" fill-rule="evenodd" fill-opacity="1"/>
<polyline clip-path="url(#clip862)" style="stroke:#000000; stroke-width:4; stroke-opacity:1; fill:none" points="
  1097.31,1273.61 1097.31,1445.72 1124.34,1445.72 1124.34,1273.61 1097.31,1273.61 
  "/>
<path clip-path="url(#clip862)" d="
M1124.34 1205.81 L1124.34 1445.72 L1151.37 1445.72 L1151.37 1205.81 L1124.34 1205.81 L1124.34 1205.81  Z
  " fill="#009af9" fill-rule="evenodd" fill-opacity="1"/>
<polyline clip-path="url(#clip862)" style="stroke:#000000; stroke-width:4; stroke-opacity:1; fill:none" points="
  1124.34,1205.81 1124.34,1445.72 1151.37,1445.72 1151.37,1205.81 1124.34,1205.81 
  "/>
<path clip-path="url(#clip862)" d="
M1151.37 1231.88 L1151.37 1445.72 L1178.4 1445.72 L1178.4 1231.88 L1151.37 1231.88 L1151.37 1231.88  Z
  " fill="#009af9" fill-rule="evenodd" fill-opacity="1"/>
<polyline clip-path="url(#clip862)" style="stroke:#000000; stroke-width:4; stroke-opacity:1; fill:none" points="
  1151.37,1231.88 1151.37,1445.72 1178.4,1445.72 1178.4,1231.88 1151.37,1231.88 
  "/>
<path clip-path="url(#clip862)" d="
M1178.4 1252.75 L1178.4 1445.72 L1205.42 1445.72 L1205.42 1252.75 L1178.4 1252.75 L1178.4 1252.75  Z
  " fill="#009af9" fill-rule="evenodd" fill-opacity="1"/>
<polyline clip-path="url(#clip862)" style="stroke:#000000; stroke-width:4; stroke-opacity:1; fill:none" points="
  1178.4,1252.75 1178.4,1445.72 1205.42,1445.72 1205.42,1252.75 1178.4,1252.75 
  "/>
<path clip-path="url(#clip862)" d="
M1205.42 1226.67 L1205.42 1445.72 L1232.45 1445.72 L1232.45 1226.67 L1205.42 1226.67 L1205.42 1226.67  Z
  " fill="#009af9" fill-rule="evenodd" fill-opacity="1"/>
<polyline clip-path="url(#clip862)" style="stroke:#000000; stroke-width:4; stroke-opacity:1; fill:none" points="
  1205.42,1226.67 1205.42,1445.72 1232.45,1445.72 1232.45,1226.67 1205.42,1226.67 
  "/>
<path clip-path="url(#clip862)" d="
M1232.45 1226.67 L1232.45 1445.72 L1259.48 1445.72 L1259.48 1226.67 L1232.45 1226.67 L1232.45 1226.67  Z
  " fill="#009af9" fill-rule="evenodd" fill-opacity="1"/>
<polyline clip-path="url(#clip862)" style="stroke:#000000; stroke-width:4; stroke-opacity:1; fill:none" points="
  1232.45,1226.67 1232.45,1445.72 1259.48,1445.72 1259.48,1226.67 1232.45,1226.67 
  "/>
<path clip-path="url(#clip862)" d="
M1259.48 1224.93 L1259.48 1445.72 L1286.51 1445.72 L1286.51 1224.93 L1259.48 1224.93 L1259.48 1224.93  Z
  " fill="#009af9" fill-rule="evenodd" fill-opacity="1"/>
<polyline clip-path="url(#clip862)" style="stroke:#000000; stroke-width:4; stroke-opacity:1; fill:none" points="
  1259.48,1224.93 1259.48,1445.72 1286.51,1445.72 1286.51,1224.93 1259.48,1224.93 
  "/>
<path clip-path="url(#clip862)" d="
M1286.51 1174.52 L1286.51 1445.72 L1313.54 1445.72 L1313.54 1174.52 L1286.51 1174.52 L1286.51 1174.52  Z
  " fill="#009af9" fill-rule="evenodd" fill-opacity="1"/>
<polyline clip-path="url(#clip862)" style="stroke:#000000; stroke-width:4; stroke-opacity:1; fill:none" points="
  1286.51,1174.52 1286.51,1445.72 1313.54,1445.72 1313.54,1174.52 1286.51,1174.52 
  "/>
<path clip-path="url(#clip862)" d="
M1313.54 799.008 L1313.54 1445.72 L1340.56 1445.72 L1340.56 799.008 L1313.54 799.008 L1313.54 799.008  Z
  " fill="#009af9" fill-rule="evenodd" fill-opacity="1"/>
<polyline clip-path="url(#clip862)" style="stroke:#000000; stroke-width:4; stroke-opacity:1; fill:none" points="
  1313.54,799.008 1313.54,1445.72 1340.56,1445.72 1340.56,799.008 1313.54,799.008 
  "/>
<path clip-path="url(#clip862)" d="
M1340.56 87.9763 L1340.56 1445.72 L1367.59 1445.72 L1367.59 87.9763 L1340.56 87.9763 L1340.56 87.9763  Z
  " fill="#009af9" fill-rule="evenodd" fill-opacity="1"/>
<polyline clip-path="url(#clip862)" style="stroke:#000000; stroke-width:4; stroke-opacity:1; fill:none" points="
  1340.56,87.9763 1340.56,1445.72 1367.59,1445.72 1367.59,87.9763 1340.56,87.9763 
  "/>
<path clip-path="url(#clip862)" d="
M1367.59 96.6686 L1367.59 1445.72 L1394.62 1445.72 L1394.62 96.6686 L1367.59 96.6686 L1367.59 96.6686  Z
  " fill="#009af9" fill-rule="evenodd" fill-opacity="1"/>
<polyline clip-path="url(#clip862)" style="stroke:#000000; stroke-width:4; stroke-opacity:1; fill:none" points="
  1367.59,96.6686 1367.59,1445.72 1394.62,1445.72 1394.62,96.6686 1367.59,96.6686 
  "/>
<path clip-path="url(#clip862)" d="
M1394.62 786.838 L1394.62 1445.72 L1421.65 1445.72 L1421.65 786.838 L1394.62 786.838 L1394.62 786.838  Z
  " fill="#009af9" fill-rule="evenodd" fill-opacity="1"/>
<polyline clip-path="url(#clip862)" style="stroke:#000000; stroke-width:4; stroke-opacity:1; fill:none" points="
  1394.62,786.838 1394.62,1445.72 1421.65,1445.72 1421.65,786.838 1394.62,786.838 
  "/>
<path clip-path="url(#clip862)" d="
M1421.65 1223.19 L1421.65 1445.72 L1448.68 1445.72 L1448.68 1223.19 L1421.65 1223.19 L1421.65 1223.19  Z
  " fill="#009af9" fill-rule="evenodd" fill-opacity="1"/>
<polyline clip-path="url(#clip862)" style="stroke:#000000; stroke-width:4; stroke-opacity:1; fill:none" points="
  1421.65,1223.19 1421.65,1445.72 1448.68,1445.72 1448.68,1223.19 1421.65,1223.19 
  "/>
<path clip-path="url(#clip862)" d="
M1448.68 1308.38 L1448.68 1445.72 L1475.71 1445.72 L1475.71 1308.38 L1448.68 1308.38 L1448.68 1308.38  Z
  " fill="#009af9" fill-rule="evenodd" fill-opacity="1"/>
<polyline clip-path="url(#clip862)" style="stroke:#000000; stroke-width:4; stroke-opacity:1; fill:none" points="
  1448.68,1308.38 1448.68,1445.72 1475.71,1445.72 1475.71,1308.38 1448.68,1308.38 
  "/>
<path clip-path="url(#clip862)" d="
M1475.71 1289.25 L1475.71 1445.72 L1502.73 1445.72 L1502.73 1289.25 L1475.71 1289.25 L1475.71 1289.25  Z
  " fill="#009af9" fill-rule="evenodd" fill-opacity="1"/>
<polyline clip-path="url(#clip862)" style="stroke:#000000; stroke-width:4; stroke-opacity:1; fill:none" points="
  1475.71,1289.25 1475.71,1445.72 1502.73,1445.72 1502.73,1289.25 1475.71,1289.25 
  "/>
<path clip-path="url(#clip862)" d="
M1502.73 1332.72 L1502.73 1445.72 L1529.76 1445.72 L1529.76 1332.72 L1502.73 1332.72 L1502.73 1332.72  Z
  " fill="#009af9" fill-rule="evenodd" fill-opacity="1"/>
<polyline clip-path="url(#clip862)" style="stroke:#000000; stroke-width:4; stroke-opacity:1; fill:none" points="
  1502.73,1332.72 1502.73,1445.72 1529.76,1445.72 1529.76,1332.72 1502.73,1332.72 
  "/>
<path clip-path="url(#clip862)" d="
M1529.76 1324.02 L1529.76 1445.72 L1556.79 1445.72 L1556.79 1324.02 L1529.76 1324.02 L1529.76 1324.02  Z
  " fill="#009af9" fill-rule="evenodd" fill-opacity="1"/>
<polyline clip-path="url(#clip862)" style="stroke:#000000; stroke-width:4; stroke-opacity:1; fill:none" points="
  1529.76,1324.02 1529.76,1445.72 1556.79,1445.72 1556.79,1324.02 1529.76,1324.02 
  "/>
<path clip-path="url(#clip862)" d="
M1556.79 1350.1 L1556.79 1445.72 L1583.82 1445.72 L1583.82 1350.1 L1556.79 1350.1 L1556.79 1350.1  Z
  " fill="#009af9" fill-rule="evenodd" fill-opacity="1"/>
<polyline clip-path="url(#clip862)" style="stroke:#000000; stroke-width:4; stroke-opacity:1; fill:none" points="
  1556.79,1350.1 1556.79,1445.72 1583.82,1445.72 1583.82,1350.1 1556.79,1350.1 
  "/>
<path clip-path="url(#clip862)" d="
M1583.82 1367.48 L1583.82 1445.72 L1610.85 1445.72 L1610.85 1367.48 L1583.82 1367.48 L1583.82 1367.48  Z
  " fill="#009af9" fill-rule="evenodd" fill-opacity="1"/>
<polyline clip-path="url(#clip862)" style="stroke:#000000; stroke-width:4; stroke-opacity:1; fill:none" points="
  1583.82,1367.48 1583.82,1445.72 1610.85,1445.72 1610.85,1367.48 1583.82,1367.48 
  "/>
<path clip-path="url(#clip862)" d="
M1610.85 1370.96 L1610.85 1445.72 L1637.87 1445.72 L1637.87 1370.96 L1610.85 1370.96 L1610.85 1370.96  Z
  " fill="#009af9" fill-rule="evenodd" fill-opacity="1"/>
<polyline clip-path="url(#clip862)" style="stroke:#000000; stroke-width:4; stroke-opacity:1; fill:none" points="
  1610.85,1370.96 1610.85,1445.72 1637.87,1445.72 1637.87,1370.96 1610.85,1370.96 
  "/>
<path clip-path="url(#clip862)" d="
M1637.87 1367.48 L1637.87 1445.72 L1664.9 1445.72 L1664.9 1367.48 L1637.87 1367.48 L1637.87 1367.48  Z
  " fill="#009af9" fill-rule="evenodd" fill-opacity="1"/>
<polyline clip-path="url(#clip862)" style="stroke:#000000; stroke-width:4; stroke-opacity:1; fill:none" points="
  1637.87,1367.48 1637.87,1445.72 1664.9,1445.72 1664.9,1367.48 1637.87,1367.48 
  "/>
<path clip-path="url(#clip862)" d="
M1664.9 1377.92 L1664.9 1445.72 L1691.93 1445.72 L1691.93 1377.92 L1664.9 1377.92 L1664.9 1377.92  Z
  " fill="#009af9" fill-rule="evenodd" fill-opacity="1"/>
<polyline clip-path="url(#clip862)" style="stroke:#000000; stroke-width:4; stroke-opacity:1; fill:none" points="
  1664.9,1377.92 1664.9,1445.72 1691.93,1445.72 1691.93,1377.92 1664.9,1377.92 
  "/>
<path clip-path="url(#clip862)" d="
M1691.93 1395.3 L1691.93 1445.72 L1718.96 1445.72 L1718.96 1395.3 L1691.93 1395.3 L1691.93 1395.3  Z
  " fill="#009af9" fill-rule="evenodd" fill-opacity="1"/>
<polyline clip-path="url(#clip862)" style="stroke:#000000; stroke-width:4; stroke-opacity:1; fill:none" points="
  1691.93,1395.3 1691.93,1445.72 1718.96,1445.72 1718.96,1395.3 1691.93,1395.3 
  "/>
<path clip-path="url(#clip862)" d="
M1718.96 1421.38 L1718.96 1445.72 L1745.99 1445.72 L1745.99 1421.38 L1718.96 1421.38 L1718.96 1421.38  Z
  " fill="#009af9" fill-rule="evenodd" fill-opacity="1"/>
<polyline clip-path="url(#clip862)" style="stroke:#000000; stroke-width:4; stroke-opacity:1; fill:none" points="
  1718.96,1421.38 1718.96,1445.72 1745.99,1445.72 1745.99,1421.38 1718.96,1421.38 
  "/>
<path clip-path="url(#clip862)" d="
M1745.99 1424.85 L1745.99 1445.72 L1773.01 1445.72 L1773.01 1424.85 L1745.99 1424.85 L1745.99 1424.85  Z
  " fill="#009af9" fill-rule="evenodd" fill-opacity="1"/>
<polyline clip-path="url(#clip862)" style="stroke:#000000; stroke-width:4; stroke-opacity:1; fill:none" points="
  1745.99,1424.85 1745.99,1445.72 1773.01,1445.72 1773.01,1424.85 1745.99,1424.85 
  "/>
<path clip-path="url(#clip862)" d="
M1773.01 1416.16 L1773.01 1445.72 L1800.04 1445.72 L1800.04 1416.16 L1773.01 1416.16 L1773.01 1416.16  Z
  " fill="#009af9" fill-rule="evenodd" fill-opacity="1"/>
<polyline clip-path="url(#clip862)" style="stroke:#000000; stroke-width:4; stroke-opacity:1; fill:none" points="
  1773.01,1416.16 1773.01,1445.72 1800.04,1445.72 1800.04,1416.16 1773.01,1416.16 
  "/>
<path clip-path="url(#clip862)" d="
M1800.04 1430.07 L1800.04 1445.72 L1827.07 1445.72 L1827.07 1430.07 L1800.04 1430.07 L1800.04 1430.07  Z
  " fill="#009af9" fill-rule="evenodd" fill-opacity="1"/>
<polyline clip-path="url(#clip862)" style="stroke:#000000; stroke-width:4; stroke-opacity:1; fill:none" points="
  1800.04,1430.07 1800.04,1445.72 1827.07,1445.72 1827.07,1430.07 1800.04,1430.07 
  "/>
<path clip-path="url(#clip862)" d="
M1827.07 1430.07 L1827.07 1445.72 L1854.1 1445.72 L1854.1 1430.07 L1827.07 1430.07 L1827.07 1430.07  Z
  " fill="#009af9" fill-rule="evenodd" fill-opacity="1"/>
<polyline clip-path="url(#clip862)" style="stroke:#000000; stroke-width:4; stroke-opacity:1; fill:none" points="
  1827.07,1430.07 1827.07,1445.72 1854.1,1445.72 1854.1,1430.07 1827.07,1430.07 
  "/>
<path clip-path="url(#clip862)" d="
M1854.1 1424.85 L1854.1 1445.72 L1881.13 1445.72 L1881.13 1424.85 L1854.1 1424.85 L1854.1 1424.85  Z
  " fill="#009af9" fill-rule="evenodd" fill-opacity="1"/>
<polyline clip-path="url(#clip862)" style="stroke:#000000; stroke-width:4; stroke-opacity:1; fill:none" points="
  1854.1,1424.85 1854.1,1445.72 1881.13,1445.72 1881.13,1424.85 1854.1,1424.85 
  "/>
<path clip-path="url(#clip862)" d="
M1881.13 1433.55 L1881.13 1445.72 L1908.15 1445.72 L1908.15 1433.55 L1881.13 1433.55 L1881.13 1433.55  Z
  " fill="#009af9" fill-rule="evenodd" fill-opacity="1"/>
<polyline clip-path="url(#clip862)" style="stroke:#000000; stroke-width:4; stroke-opacity:1; fill:none" points="
  1881.13,1433.55 1881.13,1445.72 1908.15,1445.72 1908.15,1433.55 1881.13,1433.55 
  "/>
<path clip-path="url(#clip862)" d="
M1908.15 1440.5 L1908.15 1445.72 L1935.18 1445.72 L1935.18 1440.5 L1908.15 1440.5 L1908.15 1440.5  Z
  " fill="#009af9" fill-rule="evenodd" fill-opacity="1"/>
<polyline clip-path="url(#clip862)" style="stroke:#000000; stroke-width:4; stroke-opacity:1; fill:none" points="
  1908.15,1440.5 1908.15,1445.72 1935.18,1445.72 1935.18,1440.5 1908.15,1440.5 
  "/>
<path clip-path="url(#clip862)" d="
M1935.18 1430.07 L1935.18 1445.72 L1962.21 1445.72 L1962.21 1430.07 L1935.18 1430.07 L1935.18 1430.07  Z
  " fill="#009af9" fill-rule="evenodd" fill-opacity="1"/>
<polyline clip-path="url(#clip862)" style="stroke:#000000; stroke-width:4; stroke-opacity:1; fill:none" points="
  1935.18,1430.07 1935.18,1445.72 1962.21,1445.72 1962.21,1430.07 1935.18,1430.07 
  "/>
<path clip-path="url(#clip862)" d="
M1962.21 1442.24 L1962.21 1445.72 L1989.24 1445.72 L1989.24 1442.24 L1962.21 1442.24 L1962.21 1442.24  Z
  " fill="#009af9" fill-rule="evenodd" fill-opacity="1"/>
<polyline clip-path="url(#clip862)" style="stroke:#000000; stroke-width:4; stroke-opacity:1; fill:none" points="
  1962.21,1442.24 1962.21,1445.72 1989.24,1445.72 1989.24,1442.24 1962.21,1442.24 
  "/>
<path clip-path="url(#clip862)" d="
M1989.24 1443.98 L1989.24 1445.72 L2016.27 1445.72 L2016.27 1443.98 L1989.24 1443.98 L1989.24 1443.98  Z
  " fill="#009af9" fill-rule="evenodd" fill-opacity="1"/>
<polyline clip-path="url(#clip862)" style="stroke:#000000; stroke-width:4; stroke-opacity:1; fill:none" points="
  1989.24,1443.98 1989.24,1445.72 2016.27,1445.72 2016.27,1443.98 1989.24,1443.98 
  "/>
<path clip-path="url(#clip862)" d="
M2016.27 1445.72 L2016.27 1445.72 L2043.3 1445.72 L2043.3 1445.72 L2016.27 1445.72 L2016.27 1445.72  Z
  " fill="#009af9" fill-rule="evenodd" fill-opacity="1"/>
<polyline clip-path="url(#clip862)" style="stroke:#000000; stroke-width:4; stroke-opacity:1; fill:none" points="
  2016.27,1445.72 2016.27,1445.72 2043.3,1445.72 2016.27,1445.72 
  "/>
<path clip-path="url(#clip862)" d="
M2043.3 1443.98 L2043.3 1445.72 L2070.32 1445.72 L2070.32 1443.98 L2043.3 1443.98 L2043.3 1443.98  Z
  " fill="#009af9" fill-rule="evenodd" fill-opacity="1"/>
<polyline clip-path="url(#clip862)" style="stroke:#000000; stroke-width:4; stroke-opacity:1; fill:none" points="
  2043.3,1443.98 2043.3,1445.72 2070.32,1445.72 2070.32,1443.98 2043.3,1443.98 
  "/>
<path clip-path="url(#clip862)" d="
M2070.32 1445.72 L2070.32 1445.72 L2097.35 1445.72 L2097.35 1445.72 L2070.32 1445.72 L2070.32 1445.72  Z
  " fill="#009af9" fill-rule="evenodd" fill-opacity="1"/>
<polyline clip-path="url(#clip862)" style="stroke:#000000; stroke-width:4; stroke-opacity:1; fill:none" points="
  2070.32,1445.72 2070.32,1445.72 2097.35,1445.72 2070.32,1445.72 
  "/>
<path clip-path="url(#clip862)" d="
M2097.35 1443.98 L2097.35 1445.72 L2124.38 1445.72 L2124.38 1443.98 L2097.35 1443.98 L2097.35 1443.98  Z
  " fill="#009af9" fill-rule="evenodd" fill-opacity="1"/>
<polyline clip-path="url(#clip862)" style="stroke:#000000; stroke-width:4; stroke-opacity:1; fill:none" points="
  2097.35,1443.98 2097.35,1445.72 2124.38,1445.72 2124.38,1443.98 2097.35,1443.98 
  "/>
<path clip-path="url(#clip862)" d="
M2124.38 1443.98 L2124.38 1445.72 L2151.41 1445.72 L2151.41 1443.98 L2124.38 1443.98 L2124.38 1443.98  Z
  " fill="#009af9" fill-rule="evenodd" fill-opacity="1"/>
<polyline clip-path="url(#clip862)" style="stroke:#000000; stroke-width:4; stroke-opacity:1; fill:none" points="
  2124.38,1443.98 2124.38,1445.72 2151.41,1445.72 2151.41,1443.98 2124.38,1443.98 
  "/>
<path clip-path="url(#clip862)" d="
M2151.41 1445.72 L2151.41 1445.72 L2178.44 1445.72 L2178.44 1445.72 L2151.41 1445.72 L2151.41 1445.72  Z
  " fill="#009af9" fill-rule="evenodd" fill-opacity="1"/>
<polyline clip-path="url(#clip862)" style="stroke:#000000; stroke-width:4; stroke-opacity:1; fill:none" points="
  2151.41,1445.72 2151.41,1445.72 2178.44,1445.72 2151.41,1445.72 
  "/>
<path clip-path="url(#clip862)" d="
M2178.44 1445.72 L2178.44 1445.72 L2205.46 1445.72 L2205.46 1445.72 L2178.44 1445.72 L2178.44 1445.72  Z
  " fill="#009af9" fill-rule="evenodd" fill-opacity="1"/>
<polyline clip-path="url(#clip862)" style="stroke:#000000; stroke-width:4; stroke-opacity:1; fill:none" points="
  2178.44,1445.72 2178.44,1445.72 2205.46,1445.72 2178.44,1445.72 
  "/>
<path clip-path="url(#clip862)" d="
M2205.46 1443.98 L2205.46 1445.72 L2232.49 1445.72 L2232.49 1443.98 L2205.46 1443.98 L2205.46 1443.98  Z
  " fill="#009af9" fill-rule="evenodd" fill-opacity="1"/>
<polyline clip-path="url(#clip862)" style="stroke:#000000; stroke-width:4; stroke-opacity:1; fill:none" points="
  2205.46,1443.98 2205.46,1445.72 2232.49,1445.72 2232.49,1443.98 2205.46,1443.98 
  "/>
<path clip-path="url(#clip860)" d="
M2061.74 155.698 L2352.76 155.698 L2352.76 34.7376 L2061.74 34.7376  Z
  " fill="#ffffff" fill-rule="evenodd" fill-opacity="1"/>
<polyline clip-path="url(#clip860)" style="stroke:#000000; stroke-width:4; stroke-opacity:1; fill:none" points="
  2061.74,155.698 2352.76,155.698 2352.76,34.7376 2061.74,34.7376 2061.74,155.698 
  "/>
<path clip-path="url(#clip860)" d="
M2085.74 119.41 L2229.74 119.41 L2229.74 71.0256 L2085.74 71.0256 L2085.74 119.41  Z
  " fill="#009af9" fill-rule="evenodd" fill-opacity="1"/>
<polyline clip-path="url(#clip860)" style="stroke:#000000; stroke-width:4; stroke-opacity:1; fill:none" points="
  2085.74,119.41 2229.74,119.41 2229.74,71.0256 2085.74,71.0256 2085.74,119.41 
  "/>
<path clip-path="url(#clip860)" d="M 0 0 M2267.58 114.905 Q2265.77 119.535 2264.06 120.947 Q2262.35 122.359 2259.48 122.359 L2256.08 122.359 L2256.08 118.794 L2258.58 118.794 Q2260.33 118.794 2261.31 117.96 Q2262.28 117.127 2263.46 114.025 L2264.22 112.081 L2253.74 86.5718 L2258.25 86.5718 L2266.35 106.849 L2274.46 86.5718 L2278.97 86.5718 L2267.58 114.905 Z" fill="#000000" fill-rule="evenodd" fill-opacity="1" /><path clip-path="url(#clip860)" d="M 0 0 M2284.85 108.562 L2292.49 108.562 L2292.49 82.1968 L2284.18 83.8634 L2284.18 79.6042 L2292.44 77.9376 L2297.12 77.9376 L2297.12 108.562 L2304.76 108.562 L2304.76 112.498 L2284.85 112.498 L2284.85 108.562 Z" fill="#000000" fill-rule="evenodd" fill-opacity="1" /></svg>
