<?xml version="1.0" encoding="utf-8"?>
<svg xmlns="http://www.w3.org/2000/svg" xmlns:xlink="http://www.w3.org/1999/xlink" width="600" height="400" viewBox="0 0 2400 1600">
<defs>
  <clipPath id="clip540">
    <rect x="0" y="0" width="2400" height="1600"/>
  </clipPath>
</defs>
<path clip-path="url(#clip540)" d="
M0 1600 L2400 1600 L2400 0 L0 0  Z
  " fill="#ffffff" fill-rule="evenodd" fill-opacity="1"/>
<defs>
  <clipPath id="clip541">
    <rect x="480" y="0" width="1681" height="1600"/>
  </clipPath>
</defs>
<path clip-path="url(#clip540)" d="
M166.205 1486.45 L2352.76 1486.45 L2352.76 47.2441 L166.205 47.2441  Z
  " fill="#ffffff" fill-rule="evenodd" fill-opacity="1"/>
<defs>
  <clipPath id="clip542">
    <rect x="166" y="47" width="2188" height="1440"/>
  </clipPath>
</defs>
<polyline clip-path="url(#clip542)" style="stroke:#000000; stroke-width:2; stroke-opacity:0.1; fill:none" points="
  423.513,1486.45 423.513,47.2441 
  "/>
<polyline clip-path="url(#clip542)" style="stroke:#000000; stroke-width:2; stroke-opacity:0.1; fill:none" points="
  834.644,1486.45 834.644,47.2441 
  "/>
<polyline clip-path="url(#clip542)" style="stroke:#000000; stroke-width:2; stroke-opacity:0.1; fill:none" points="
  1245.78,1486.45 1245.78,47.2441 
  "/>
<polyline clip-path="url(#clip542)" style="stroke:#000000; stroke-width:2; stroke-opacity:0.1; fill:none" points="
  1656.91,1486.45 1656.91,47.2441 
  "/>
<polyline clip-path="url(#clip542)" style="stroke:#000000; stroke-width:2; stroke-opacity:0.1; fill:none" points="
  2068.04,1486.45 2068.04,47.2441 
  "/>
<polyline clip-path="url(#clip542)" style="stroke:#000000; stroke-width:2; stroke-opacity:0.1; fill:none" points="
  166.205,1445.72 2352.76,1445.72 
  "/>
<polyline clip-path="url(#clip542)" style="stroke:#000000; stroke-width:2; stroke-opacity:0.1; fill:none" points="
  166.205,1099.35 2352.76,1099.35 
  "/>
<polyline clip-path="url(#clip542)" style="stroke:#000000; stroke-width:2; stroke-opacity:0.1; fill:none" points="
  166.205,752.992 2352.76,752.992 
  "/>
<polyline clip-path="url(#clip542)" style="stroke:#000000; stroke-width:2; stroke-opacity:0.1; fill:none" points="
  166.205,406.629 2352.76,406.629 
  "/>
<polyline clip-path="url(#clip542)" style="stroke:#000000; stroke-width:2; stroke-opacity:0.1; fill:none" points="
  166.205,60.2673 2352.76,60.2673 
  "/>
<polyline clip-path="url(#clip540)" style="stroke:#000000; stroke-width:4; stroke-opacity:1; fill:none" points="
  166.205,1486.45 2352.76,1486.45 
  "/>
<polyline clip-path="url(#clip540)" style="stroke:#000000; stroke-width:4; stroke-opacity:1; fill:none" points="
  166.205,1486.45 166.205,47.2441 
  "/>
<polyline clip-path="url(#clip540)" style="stroke:#000000; stroke-width:4; stroke-opacity:1; fill:none" points="
  423.513,1486.45 423.513,1469.18 
  "/>
<polyline clip-path="url(#clip540)" style="stroke:#000000; stroke-width:4; stroke-opacity:1; fill:none" points="
  834.644,1486.45 834.644,1469.18 
  "/>
<polyline clip-path="url(#clip540)" style="stroke:#000000; stroke-width:4; stroke-opacity:1; fill:none" points="
  1245.78,1486.45 1245.78,1469.18 
  "/>
<polyline clip-path="url(#clip540)" style="stroke:#000000; stroke-width:4; stroke-opacity:1; fill:none" points="
  1656.91,1486.45 1656.91,1469.18 
  "/>
<polyline clip-path="url(#clip540)" style="stroke:#000000; stroke-width:4; stroke-opacity:1; fill:none" points="
  2068.04,1486.45 2068.04,1469.18 
  "/>
<polyline clip-path="url(#clip540)" style="stroke:#000000; stroke-width:4; stroke-opacity:1; fill:none" points="
  166.205,1445.72 192.443,1445.72 
  "/>
<polyline clip-path="url(#clip540)" style="stroke:#000000; stroke-width:4; stroke-opacity:1; fill:none" points="
  166.205,1099.35 192.443,1099.35 
  "/>
<polyline clip-path="url(#clip540)" style="stroke:#000000; stroke-width:4; stroke-opacity:1; fill:none" points="
  166.205,752.992 192.443,752.992 
  "/>
<polyline clip-path="url(#clip540)" style="stroke:#000000; stroke-width:4; stroke-opacity:1; fill:none" points="
  166.205,406.629 192.443,406.629 
  "/>
<polyline clip-path="url(#clip540)" style="stroke:#000000; stroke-width:4; stroke-opacity:1; fill:none" points="
  166.205,60.2673 192.443,60.2673 
  "/>
<path clip-path="url(#clip540)" d="M 0 0 M403.686 1525.04 L416.163 1525.04 L416.163 1528.83 L403.686 1528.83 L403.686 1525.04 Z" fill="#000000" fill-rule="evenodd" fill-opacity="1" /><path clip-path="url(#clip540)" d="M 0 0 M431.811 1520.78 Q428.663 1520.78 426.811 1522.93 Q424.983 1525.08 424.983 1528.83 Q424.983 1532.56 426.811 1534.73 Q428.663 1536.89 431.811 1536.89 Q434.959 1536.89 436.788 1534.73 Q438.64 1532.56 438.64 1528.83 Q438.64 1525.08 436.788 1522.93 Q434.959 1520.78 431.811 1520.78 M441.094 1506.12 L441.094 1510.38 Q439.334 1509.55 437.529 1509.11 Q435.746 1508.67 433.987 1508.67 Q429.358 1508.67 426.904 1511.8 Q424.473 1514.92 424.126 1521.24 Q425.492 1519.23 427.552 1518.16 Q429.612 1517.07 432.089 1517.07 Q437.297 1517.07 440.307 1520.24 Q443.339 1523.39 443.339 1528.83 Q443.339 1534.16 440.191 1537.37 Q437.043 1540.59 431.811 1540.59 Q425.816 1540.59 422.645 1536.01 Q419.473 1531.4 419.473 1522.67 Q419.473 1514.48 423.362 1509.62 Q427.251 1504.73 433.802 1504.73 Q435.561 1504.73 437.344 1505.08 Q439.149 1505.43 441.094 1506.12 Z" fill="#000000" fill-rule="evenodd" fill-opacity="1" /><path clip-path="url(#clip540)" d="M 0 0 M815.223 1525.04 L827.7 1525.04 L827.7 1528.83 L815.223 1528.83 L815.223 1525.04 Z" fill="#000000" fill-rule="evenodd" fill-opacity="1" /><path clip-path="url(#clip540)" d="M 0 0 M846.936 1521.29 Q850.292 1522 852.167 1524.27 Q854.066 1526.54 854.066 1529.87 Q854.066 1534.99 850.547 1537.79 Q847.029 1540.59 840.547 1540.59 Q838.371 1540.59 836.056 1540.15 Q833.765 1539.73 831.311 1538.88 L831.311 1534.36 Q833.255 1535.5 835.57 1536.08 Q837.885 1536.66 840.408 1536.66 Q844.806 1536.66 847.098 1534.92 Q849.413 1533.18 849.413 1529.87 Q849.413 1526.82 847.26 1525.11 Q845.13 1523.37 841.311 1523.37 L837.283 1523.37 L837.283 1519.53 L841.496 1519.53 Q844.945 1519.53 846.774 1518.16 Q848.603 1516.77 848.603 1514.18 Q848.603 1511.52 846.704 1510.11 Q844.829 1508.67 841.311 1508.67 Q839.39 1508.67 837.191 1509.09 Q834.992 1509.5 832.353 1510.38 L832.353 1506.22 Q835.015 1505.48 837.329 1505.11 Q839.667 1504.73 841.728 1504.73 Q847.052 1504.73 850.153 1507.17 Q853.255 1509.57 853.255 1513.69 Q853.255 1516.56 851.612 1518.55 Q849.968 1520.52 846.936 1521.29 Z" fill="#000000" fill-rule="evenodd" fill-opacity="1" /><path clip-path="url(#clip540)" d="M 0 0 M1245.78 1508.44 Q1242.16 1508.44 1240.34 1512 Q1238.53 1515.55 1238.53 1522.67 Q1238.53 1529.78 1240.34 1533.35 Q1242.16 1536.89 1245.78 1536.89 Q1249.41 1536.89 1251.22 1533.35 Q1253.04 1529.78 1253.04 1522.67 Q1253.04 1515.55 1251.22 1512 Q1249.41 1508.44 1245.78 1508.44 M1245.78 1504.73 Q1251.59 1504.73 1254.64 1509.34 Q1257.72 1513.92 1257.72 1522.67 Q1257.72 1531.4 1254.64 1536.01 Q1251.59 1540.59 1245.78 1540.59 Q1239.97 1540.59 1236.89 1536.01 Q1233.83 1531.4 1233.83 1522.67 Q1233.83 1513.92 1236.89 1509.34 Q1239.97 1504.73 1245.78 1504.73 Z" fill="#000000" fill-rule="evenodd" fill-opacity="1" /><path clip-path="url(#clip540)" d="M 0 0 M1661.16 1521.29 Q1664.51 1522 1666.39 1524.27 Q1668.28 1526.54 1668.28 1529.87 Q1668.28 1534.99 1664.77 1537.79 Q1661.25 1540.59 1654.77 1540.59 Q1652.59 1540.59 1650.28 1540.15 Q1647.98 1539.73 1645.53 1538.88 L1645.53 1534.36 Q1647.47 1535.5 1649.79 1536.08 Q1652.1 1536.66 1654.63 1536.66 Q1659.03 1536.66 1661.32 1534.92 Q1663.63 1533.18 1663.63 1529.87 Q1663.63 1526.82 1661.48 1525.11 Q1659.35 1523.37 1655.53 1523.37 L1651.5 1523.37 L1651.5 1519.53 L1655.72 1519.53 Q1659.16 1519.53 1660.99 1518.16 Q1662.82 1516.77 1662.82 1514.18 Q1662.82 1511.52 1660.92 1510.11 Q1659.05 1508.67 1655.53 1508.67 Q1653.61 1508.67 1651.41 1509.09 Q1649.21 1509.5 1646.57 1510.38 L1646.57 1506.22 Q1649.23 1505.48 1651.55 1505.11 Q1653.89 1504.73 1655.95 1504.73 Q1661.27 1504.73 1664.37 1507.17 Q1667.47 1509.57 1667.47 1513.69 Q1667.47 1516.56 1665.83 1518.55 Q1664.19 1520.52 1661.16 1521.29 Z" fill="#000000" fill-rule="evenodd" fill-opacity="1" /><path clip-path="url(#clip540)" d="M 0 0 M2068.44 1520.78 Q2065.3 1520.78 2063.44 1522.93 Q2061.62 1525.08 2061.62 1528.83 Q2061.62 1532.56 2063.44 1534.73 Q2065.3 1536.89 2068.44 1536.89 Q2071.59 1536.89 2073.42 1534.73 Q2075.27 1532.56 2075.27 1528.83 Q2075.27 1525.08 2073.42 1522.93 Q2071.59 1520.78 2068.44 1520.78 M2077.73 1506.12 L2077.73 1510.38 Q2075.97 1509.55 2074.16 1509.11 Q2072.38 1508.67 2070.62 1508.67 Q2065.99 1508.67 2063.54 1511.8 Q2061.11 1514.92 2060.76 1521.24 Q2062.12 1519.23 2064.18 1518.16 Q2066.25 1517.07 2068.72 1517.07 Q2073.93 1517.07 2076.94 1520.24 Q2079.97 1523.39 2079.97 1528.83 Q2079.97 1534.16 2076.82 1537.37 Q2073.68 1540.59 2068.44 1540.59 Q2062.45 1540.59 2059.28 1536.01 Q2056.11 1531.4 2056.11 1522.67 Q2056.11 1514.48 2060 1509.62 Q2063.88 1504.73 2070.43 1504.73 Q2072.19 1504.73 2073.98 1505.08 Q2075.78 1505.43 2077.73 1506.12 Z" fill="#000000" fill-rule="evenodd" fill-opacity="1" /><path clip-path="url(#clip540)" d="M 0 0 M130.26 1431.51 Q126.649 1431.51 124.82 1435.08 Q123.015 1438.62 123.015 1445.75 Q123.015 1452.86 124.82 1456.42 Q126.649 1459.96 130.26 1459.96 Q133.895 1459.96 135.7 1456.42 Q137.529 1452.86 137.529 1445.75 Q137.529 1438.62 135.7 1435.08 Q133.895 1431.51 130.26 1431.51 M130.26 1427.81 Q136.07 1427.81 139.126 1432.42 Q142.205 1437 142.205 1445.75 Q142.205 1454.48 139.126 1459.08 Q136.07 1463.67 130.26 1463.67 Q124.45 1463.67 121.371 1459.08 Q118.316 1454.48 118.316 1445.75 Q118.316 1437 121.371 1432.42 Q124.45 1427.81 130.26 1427.81 Z" fill="#000000" fill-rule="evenodd" fill-opacity="1" /><path clip-path="url(#clip540)" d="M 0 0 M71.8578 1112.7 L88.1772 1112.7 L88.1772 1116.63 L66.2328 1116.63 L66.2328 1112.7 Q68.8949 1109.94 73.4782 1105.31 Q78.0846 1100.66 79.2652 1099.32 Q81.5105 1096.8 82.3902 1095.06 Q83.2929 1093.3 83.2929 1091.61 Q83.2929 1088.86 81.3485 1087.12 Q79.4272 1085.38 76.3254 1085.38 Q74.1263 1085.38 71.6726 1086.15 Q69.2421 1086.91 66.4643 1088.46 L66.4643 1083.74 Q69.2884 1082.61 71.7421 1082.03 Q74.1958 1081.45 76.2328 1081.45 Q81.6031 1081.45 84.7976 1084.13 Q87.992 1086.82 87.992 1091.31 Q87.992 1093.44 87.1818 1095.36 Q86.3948 1097.26 84.2883 1099.85 Q83.7096 1100.52 80.6078 1103.74 Q77.5059 1106.93 71.8578 1112.7 Z" fill="#000000" fill-rule="evenodd" fill-opacity="1" /><path clip-path="url(#clip540)" d="M 0 0 M103.247 1085.15 Q99.6354 1085.15 97.8068 1088.72 Q96.0012 1092.26 96.0012 1099.39 Q96.0012 1106.49 97.8068 1110.06 Q99.6354 1113.6 103.247 1113.6 Q106.881 1113.6 108.686 1110.06 Q110.515 1106.49 110.515 1099.39 Q110.515 1092.26 108.686 1088.72 Q106.881 1085.15 103.247 1085.15 M103.247 1081.45 Q109.057 1081.45 112.112 1086.06 Q115.191 1090.64 115.191 1099.39 Q115.191 1108.12 112.112 1112.72 Q109.057 1117.3 103.247 1117.3 Q97.4364 1117.3 94.3577 1112.72 Q91.3022 1108.12 91.3022 1099.39 Q91.3022 1090.64 94.3577 1086.06 Q97.4364 1081.45 103.247 1081.45 Z" fill="#000000" fill-rule="evenodd" fill-opacity="1" /><path clip-path="url(#clip540)" d="M 0 0 M130.26 1085.15 Q126.649 1085.15 124.82 1088.72 Q123.015 1092.26 123.015 1099.39 Q123.015 1106.49 124.82 1110.06 Q126.649 1113.6 130.26 1113.6 Q133.895 1113.6 135.7 1110.06 Q137.529 1106.49 137.529 1099.39 Q137.529 1092.26 135.7 1088.72 Q133.895 1085.15 130.26 1085.15 M130.26 1081.45 Q136.07 1081.45 139.126 1086.06 Q142.205 1090.64 142.205 1099.39 Q142.205 1108.12 139.126 1112.72 Q136.07 1117.3 130.26 1117.3 Q124.45 1117.3 121.371 1112.72 Q118.316 1108.12 118.316 1099.39 Q118.316 1090.64 121.371 1086.06 Q124.45 1081.45 130.26 1081.45 Z" fill="#000000" fill-rule="evenodd" fill-opacity="1" /><path clip-path="url(#clip540)" d="M 0 0 M78.5939 739.786 L66.7884 758.235 L78.5939 758.235 L78.5939 739.786 M77.367 735.712 L83.2466 735.712 L83.2466 758.235 L88.1772 758.235 L88.1772 762.123 L83.2466 762.123 L83.2466 770.272 L78.5939 770.272 L78.5939 762.123 L62.9921 762.123 L62.9921 757.61 L77.367 735.712 Z" fill="#000000" fill-rule="evenodd" fill-opacity="1" /><path clip-path="url(#clip540)" d="M 0 0 M103.247 738.79 Q99.6354 738.79 97.8068 742.355 Q96.0012 745.897 96.0012 753.026 Q96.0012 760.133 97.8068 763.697 Q99.6354 767.239 103.247 767.239 Q106.881 767.239 108.686 763.697 Q110.515 760.133 110.515 753.026 Q110.515 745.897 108.686 742.355 Q106.881 738.79 103.247 738.79 M103.247 735.087 Q109.057 735.087 112.112 739.693 Q115.191 744.276 115.191 753.026 Q115.191 761.753 112.112 766.359 Q109.057 770.943 103.247 770.943 Q97.4364 770.943 94.3577 766.359 Q91.3022 761.753 91.3022 753.026 Q91.3022 744.276 94.3577 739.693 Q97.4364 735.087 103.247 735.087 Z" fill="#000000" fill-rule="evenodd" fill-opacity="1" /><path clip-path="url(#clip540)" d="M 0 0 M130.26 738.79 Q126.649 738.79 124.82 742.355 Q123.015 745.897 123.015 753.026 Q123.015 760.133 124.82 763.697 Q126.649 767.239 130.26 767.239 Q133.895 767.239 135.7 763.697 Q137.529 760.133 137.529 753.026 Q137.529 745.897 135.7 742.355 Q133.895 738.79 130.26 738.79 M130.26 735.087 Q136.07 735.087 139.126 739.693 Q142.205 744.276 142.205 753.026 Q142.205 761.753 139.126 766.359 Q136.07 770.943 130.26 770.943 Q124.45 770.943 121.371 766.359 Q118.316 761.753 118.316 753.026 Q118.316 744.276 121.371 739.693 Q124.45 735.087 130.26 735.087 Z" fill="#000000" fill-rule="evenodd" fill-opacity="1" /><path clip-path="url(#clip540)" d="M 0 0 M76.6495 404.766 Q73.5013 404.766 71.6495 406.919 Q69.8208 409.072 69.8208 412.822 Q69.8208 416.548 71.6495 418.724 Q73.5013 420.877 76.6495 420.877 Q79.7976 420.877 81.6263 418.724 Q83.4781 416.548 83.4781 412.822 Q83.4781 409.072 81.6263 406.919 Q79.7976 404.766 76.6495 404.766 M85.9318 390.113 L85.9318 394.373 Q84.1726 393.539 82.367 393.099 Q80.5846 392.66 78.8254 392.66 Q74.1958 392.66 71.7421 395.785 Q69.3115 398.91 68.9643 405.229 Q70.33 403.215 72.3902 402.15 Q74.4504 401.062 76.9272 401.062 Q82.1355 401.062 85.1448 404.234 Q88.1772 407.382 88.1772 412.822 Q88.1772 418.146 85.029 421.363 Q81.8809 424.581 76.6495 424.581 Q70.6541 424.581 67.4828 419.997 Q64.3116 415.391 64.3116 406.664 Q64.3116 398.47 68.2004 393.609 Q72.0893 388.724 78.6402 388.724 Q80.3994 388.724 82.1818 389.072 Q83.9874 389.419 85.9318 390.113 Z" fill="#000000" fill-rule="evenodd" fill-opacity="1" /><path clip-path="url(#clip540)" d="M 0 0 M103.247 392.428 Q99.6354 392.428 97.8068 395.993 Q96.0012 399.535 96.0012 406.664 Q96.0012 413.771 97.8068 417.335 Q99.6354 420.877 103.247 420.877 Q106.881 420.877 108.686 417.335 Q110.515 413.771 110.515 406.664 Q110.515 399.535 108.686 395.993 Q106.881 392.428 103.247 392.428 M103.247 388.724 Q109.057 388.724 112.112 393.331 Q115.191 397.914 115.191 406.664 Q115.191 415.391 112.112 419.997 Q109.057 424.581 103.247 424.581 Q97.4364 424.581 94.3577 419.997 Q91.3022 415.391 91.3022 406.664 Q91.3022 397.914 94.3577 393.331 Q97.4364 388.724 103.247 388.724 Z" fill="#000000" fill-rule="evenodd" fill-opacity="1" /><path clip-path="url(#clip540)" d="M 0 0 M130.26 392.428 Q126.649 392.428 124.82 395.993 Q123.015 399.535 123.015 406.664 Q123.015 413.771 124.82 417.335 Q126.649 420.877 130.26 420.877 Q133.895 420.877 135.7 417.335 Q137.529 413.771 137.529 406.664 Q137.529 399.535 135.7 395.993 Q133.895 392.428 130.26 392.428 M130.26 388.724 Q136.07 388.724 139.126 393.331 Q142.205 397.914 142.205 406.664 Q142.205 415.391 139.126 419.997 Q136.07 424.581 130.26 424.581 Q124.45 424.581 121.371 419.997 Q118.316 415.391 118.316 406.664 Q118.316 397.914 121.371 393.331 Q124.45 388.724 130.26 388.724 Z" fill="#000000" fill-rule="evenodd" fill-opacity="1" /><path clip-path="url(#clip540)" d="M 0 0 M76.3254 61.1354 Q72.9921 61.1354 71.0708 62.9178 Q69.1726 64.7002 69.1726 67.8251 Q69.1726 70.9501 71.0708 72.7325 Q72.9921 74.5149 76.3254 74.5149 Q79.6587 74.5149 81.58 72.7325 Q83.5013 70.927 83.5013 67.8251 Q83.5013 64.7002 81.58 62.9178 Q79.6819 61.1354 76.3254 61.1354 M71.6495 59.1446 Q68.6402 58.4039 66.9504 56.3437 Q65.2838 54.2835 65.2838 51.3206 Q65.2838 47.1771 68.2236 44.7697 Q71.1865 42.3623 76.3254 42.3623 Q81.4874 42.3623 84.4272 44.7697 Q87.367 47.1771 87.367 51.3206 Q87.367 54.2835 85.6772 56.3437 Q84.0105 58.4039 81.0244 59.1446 Q84.404 59.9317 86.279 62.2233 Q88.1772 64.515 88.1772 67.8251 Q88.1772 72.8483 85.0985 75.5334 Q82.0429 78.2186 76.3254 78.2186 Q70.6078 78.2186 67.5291 75.5334 Q64.4736 72.8483 64.4736 67.8251 Q64.4736 64.515 66.3717 62.2233 Q68.2699 59.9317 71.6495 59.1446 M69.9365 51.7604 Q69.9365 54.4456 71.6032 55.9502 Q73.293 57.4548 76.3254 57.4548 Q79.3346 57.4548 81.0244 55.9502 Q82.7374 54.4456 82.7374 51.7604 Q82.7374 49.0752 81.0244 47.5706 Q79.3346 46.066 76.3254 46.066 Q73.293 46.066 71.6032 47.5706 Q69.9365 49.0752 69.9365 51.7604 Z" fill="#000000" fill-rule="evenodd" fill-opacity="1" /><path clip-path="url(#clip540)" d="M 0 0 M103.247 46.066 Q99.6354 46.066 97.8068 49.6308 Q96.0012 53.1724 96.0012 60.302 Q96.0012 67.4085 97.8068 70.9733 Q99.6354 74.5149 103.247 74.5149 Q106.881 74.5149 108.686 70.9733 Q110.515 67.4085 110.515 60.302 Q110.515 53.1724 108.686 49.6308 Q106.881 46.066 103.247 46.066 M103.247 42.3623 Q109.057 42.3623 112.112 46.9688 Q115.191 51.5521 115.191 60.302 Q115.191 69.0288 112.112 73.6353 Q109.057 78.2186 103.247 78.2186 Q97.4364 78.2186 94.3577 73.6353 Q91.3022 69.0288 91.3022 60.302 Q91.3022 51.5521 94.3577 46.9688 Q97.4364 42.3623 103.247 42.3623 Z" fill="#000000" fill-rule="evenodd" fill-opacity="1" /><path clip-path="url(#clip540)" d="M 0 0 M130.26 46.066 Q126.649 46.066 124.82 49.6308 Q123.015 53.1724 123.015 60.302 Q123.015 67.4085 124.82 70.9733 Q126.649 74.5149 130.26 74.5149 Q133.895 74.5149 135.7 70.9733 Q137.529 67.4085 137.529 60.302 Q137.529 53.1724 135.7 49.6308 Q133.895 46.066 130.26 46.066 M130.26 42.3623 Q136.07 42.3623 139.126 46.9688 Q142.205 51.5521 142.205 60.302 Q142.205 69.0288 139.126 73.6353 Q136.07 78.2186 130.26 78.2186 Q124.45 78.2186 121.371 73.6353 Q118.316 69.0288 118.316 60.302 Q118.316 51.5521 121.371 46.9688 Q124.45 42.3623 130.26 42.3623 Z" fill="#000000" fill-rule="evenodd" fill-opacity="1" /><path clip-path="url(#clip542)" d="
M286.469 1443.98 L286.469 1445.72 L313.878 1445.72 L313.878 1443.98 L286.469 1443.98 L286.469 1443.98  Z
  " fill="#009af9" fill-rule="evenodd" fill-opacity="1"/>
<polyline clip-path="url(#clip542)" style="stroke:#000000; stroke-width:4; stroke-opacity:1; fill:none" points="
  286.469,1443.98 286.469,1445.72 313.878,1445.72 313.878,1443.98 286.469,1443.98 
  "/>
<path clip-path="url(#clip542)" d="
M313.878 1443.98 L313.878 1445.72 L341.286 1445.72 L341.286 1443.98 L313.878 1443.98 L313.878 1443.98  Z
  " fill="#009af9" fill-rule="evenodd" fill-opacity="1"/>
<polyline clip-path="url(#clip542)" style="stroke:#000000; stroke-width:4; stroke-opacity:1; fill:none" points="
  313.878,1443.98 313.878,1445.72 341.286,1445.72 341.286,1443.98 313.878,1443.98 
  "/>
<path clip-path="url(#clip542)" d="
M341.286 1443.98 L341.286 1445.72 L368.695 1445.72 L368.695 1443.98 L341.286 1443.98 L341.286 1443.98  Z
  " fill="#009af9" fill-rule="evenodd" fill-opacity="1"/>
<polyline clip-path="url(#clip542)" style="stroke:#000000; stroke-width:4; stroke-opacity:1; fill:none" points="
  341.286,1443.98 341.286,1445.72 368.695,1445.72 368.695,1443.98 341.286,1443.98 
  "/>
<path clip-path="url(#clip542)" d="
M368.695 1437.06 L368.695 1445.72 L396.104 1445.72 L396.104 1437.06 L368.695 1437.06 L368.695 1437.06  Z
  " fill="#009af9" fill-rule="evenodd" fill-opacity="1"/>
<polyline clip-path="url(#clip542)" style="stroke:#000000; stroke-width:4; stroke-opacity:1; fill:none" points="
  368.695,1437.06 368.695,1445.72 396.104,1445.72 396.104,1437.06 368.695,1437.06 
  "/>
<path clip-path="url(#clip542)" d="
M396.104 1442.25 L396.104 1445.72 L423.513 1445.72 L423.513 1442.25 L396.104 1442.25 L396.104 1442.25  Z
  " fill="#009af9" fill-rule="evenodd" fill-opacity="1"/>
<polyline clip-path="url(#clip542)" style="stroke:#000000; stroke-width:4; stroke-opacity:1; fill:none" points="
  396.104,1442.25 396.104,1445.72 423.513,1445.72 423.513,1442.25 396.104,1442.25 
  "/>
<path clip-path="url(#clip542)" d="
M423.513 1442.25 L423.513 1445.72 L450.922 1445.72 L450.922 1442.25 L423.513 1442.25 L423.513 1442.25  Z
  " fill="#009af9" fill-rule="evenodd" fill-opacity="1"/>
<polyline clip-path="url(#clip542)" style="stroke:#000000; stroke-width:4; stroke-opacity:1; fill:none" points="
  423.513,1442.25 423.513,1445.72 450.922,1445.72 450.922,1442.25 423.513,1442.25 
  "/>
<path clip-path="url(#clip542)" d="
M450.922 1440.52 L450.922 1445.72 L478.33 1445.72 L478.33 1440.52 L450.922 1440.52 L450.922 1440.52  Z
  " fill="#009af9" fill-rule="evenodd" fill-opacity="1"/>
<polyline clip-path="url(#clip542)" style="stroke:#000000; stroke-width:4; stroke-opacity:1; fill:none" points="
  450.922,1440.52 450.922,1445.72 478.33,1445.72 478.33,1440.52 450.922,1440.52 
  "/>
<path clip-path="url(#clip542)" d="
M478.33 1443.98 L478.33 1445.72 L505.739 1445.72 L505.739 1443.98 L478.33 1443.98 L478.33 1443.98  Z
  " fill="#009af9" fill-rule="evenodd" fill-opacity="1"/>
<polyline clip-path="url(#clip542)" style="stroke:#000000; stroke-width:4; stroke-opacity:1; fill:none" points="
  478.33,1443.98 478.33,1445.72 505.739,1445.72 505.739,1443.98 478.33,1443.98 
  "/>
<path clip-path="url(#clip542)" d="
M505.739 1438.79 L505.739 1445.72 L533.148 1445.72 L533.148 1438.79 L505.739 1438.79 L505.739 1438.79  Z
  " fill="#009af9" fill-rule="evenodd" fill-opacity="1"/>
<polyline clip-path="url(#clip542)" style="stroke:#000000; stroke-width:4; stroke-opacity:1; fill:none" points="
  505.739,1438.79 505.739,1445.72 533.148,1445.72 533.148,1438.79 505.739,1438.79 
  "/>
<path clip-path="url(#clip542)" d="
M533.148 1430.13 L533.148 1445.72 L560.557 1445.72 L560.557 1430.13 L533.148 1430.13 L533.148 1430.13  Z
  " fill="#009af9" fill-rule="evenodd" fill-opacity="1"/>
<polyline clip-path="url(#clip542)" style="stroke:#000000; stroke-width:4; stroke-opacity:1; fill:none" points="
  533.148,1430.13 533.148,1445.72 560.557,1445.72 560.557,1430.13 533.148,1430.13 
  "/>
<path clip-path="url(#clip542)" d="
M560.557 1435.32 L560.557 1445.72 L587.965 1445.72 L587.965 1435.32 L560.557 1435.32 L560.557 1435.32  Z
  " fill="#009af9" fill-rule="evenodd" fill-opacity="1"/>
<polyline clip-path="url(#clip542)" style="stroke:#000000; stroke-width:4; stroke-opacity:1; fill:none" points="
  560.557,1435.32 560.557,1445.72 587.965,1445.72 587.965,1435.32 560.557,1435.32 
  "/>
<path clip-path="url(#clip542)" d="
M587.965 1437.06 L587.965 1445.72 L615.374 1445.72 L615.374 1437.06 L587.965 1437.06 L587.965 1437.06  Z
  " fill="#009af9" fill-rule="evenodd" fill-opacity="1"/>
<polyline clip-path="url(#clip542)" style="stroke:#000000; stroke-width:4; stroke-opacity:1; fill:none" points="
  587.965,1437.06 587.965,1445.72 615.374,1445.72 615.374,1437.06 587.965,1437.06 
  "/>
<path clip-path="url(#clip542)" d="
M615.374 1424.93 L615.374 1445.72 L642.783 1445.72 L642.783 1424.93 L615.374 1424.93 L615.374 1424.93  Z
  " fill="#009af9" fill-rule="evenodd" fill-opacity="1"/>
<polyline clip-path="url(#clip542)" style="stroke:#000000; stroke-width:4; stroke-opacity:1; fill:none" points="
  615.374,1424.93 615.374,1445.72 642.783,1445.72 642.783,1424.93 615.374,1424.93 
  "/>
<path clip-path="url(#clip542)" d="
M642.783 1419.74 L642.783 1445.72 L670.192 1445.72 L670.192 1419.74 L642.783 1419.74 L642.783 1419.74  Z
  " fill="#009af9" fill-rule="evenodd" fill-opacity="1"/>
<polyline clip-path="url(#clip542)" style="stroke:#000000; stroke-width:4; stroke-opacity:1; fill:none" points="
  642.783,1419.74 642.783,1445.72 670.192,1445.72 670.192,1419.74 642.783,1419.74 
  "/>
<path clip-path="url(#clip542)" d="
M670.192 1431.86 L670.192 1445.72 L697.6 1445.72 L697.6 1431.86 L670.192 1431.86 L670.192 1431.86  Z
  " fill="#009af9" fill-rule="evenodd" fill-opacity="1"/>
<polyline clip-path="url(#clip542)" style="stroke:#000000; stroke-width:4; stroke-opacity:1; fill:none" points="
  670.192,1431.86 670.192,1445.72 697.6,1445.72 697.6,1431.86 670.192,1431.86 
  "/>
<path clip-path="url(#clip542)" d="
M697.6 1400.69 L697.6 1445.72 L725.009 1445.72 L725.009 1400.69 L697.6 1400.69 L697.6 1400.69  Z
  " fill="#009af9" fill-rule="evenodd" fill-opacity="1"/>
<polyline clip-path="url(#clip542)" style="stroke:#000000; stroke-width:4; stroke-opacity:1; fill:none" points="
  697.6,1400.69 697.6,1445.72 725.009,1445.72 725.009,1400.69 697.6,1400.69 
  "/>
<path clip-path="url(#clip542)" d="
M725.009 1411.08 L725.009 1445.72 L752.418 1445.72 L752.418 1411.08 L725.009 1411.08 L725.009 1411.08  Z
  " fill="#009af9" fill-rule="evenodd" fill-opacity="1"/>
<polyline clip-path="url(#clip542)" style="stroke:#000000; stroke-width:4; stroke-opacity:1; fill:none" points="
  725.009,1411.08 725.009,1445.72 752.418,1445.72 752.418,1411.08 725.009,1411.08 
  "/>
<path clip-path="url(#clip542)" d="
M752.418 1390.3 L752.418 1445.72 L779.827 1445.72 L779.827 1390.3 L752.418 1390.3 L752.418 1390.3  Z
  " fill="#009af9" fill-rule="evenodd" fill-opacity="1"/>
<polyline clip-path="url(#clip542)" style="stroke:#000000; stroke-width:4; stroke-opacity:1; fill:none" points="
  752.418,1390.3 752.418,1445.72 779.827,1445.72 779.827,1390.3 752.418,1390.3 
  "/>
<path clip-path="url(#clip542)" d="
M779.827 1393.76 L779.827 1445.72 L807.236 1445.72 L807.236 1393.76 L779.827 1393.76 L779.827 1393.76  Z
  " fill="#009af9" fill-rule="evenodd" fill-opacity="1"/>
<polyline clip-path="url(#clip542)" style="stroke:#000000; stroke-width:4; stroke-opacity:1; fill:none" points="
  779.827,1393.76 779.827,1445.72 807.236,1445.72 807.236,1393.76 779.827,1393.76 
  "/>
<path clip-path="url(#clip542)" d="
M807.236 1379.91 L807.236 1445.72 L834.644 1445.72 L834.644 1379.91 L807.236 1379.91 L807.236 1379.91  Z
  " fill="#009af9" fill-rule="evenodd" fill-opacity="1"/>
<polyline clip-path="url(#clip542)" style="stroke:#000000; stroke-width:4; stroke-opacity:1; fill:none" points="
  807.236,1379.91 807.236,1445.72 834.644,1445.72 834.644,1379.91 807.236,1379.91 
  "/>
<path clip-path="url(#clip542)" d="
M834.644 1367.78 L834.644 1445.72 L862.053 1445.72 L862.053 1367.78 L834.644 1367.78 L834.644 1367.78  Z
  " fill="#009af9" fill-rule="evenodd" fill-opacity="1"/>
<polyline clip-path="url(#clip542)" style="stroke:#000000; stroke-width:4; stroke-opacity:1; fill:none" points="
  834.644,1367.78 834.644,1445.72 862.053,1445.72 862.053,1367.78 834.644,1367.78 
  "/>
<path clip-path="url(#clip542)" d="
M862.053 1360.86 L862.053 1445.72 L889.462 1445.72 L889.462 1360.86 L862.053 1360.86 L862.053 1360.86  Z
  " fill="#009af9" fill-rule="evenodd" fill-opacity="1"/>
<polyline clip-path="url(#clip542)" style="stroke:#000000; stroke-width:4; stroke-opacity:1; fill:none" points="
  862.053,1360.86 862.053,1445.72 889.462,1445.72 889.462,1360.86 862.053,1360.86 
  "/>
<path clip-path="url(#clip542)" d="
M889.462 1360.86 L889.462 1445.72 L916.871 1445.72 L916.871 1360.86 L889.462 1360.86 L889.462 1360.86  Z
  " fill="#009af9" fill-rule="evenodd" fill-opacity="1"/>
<polyline clip-path="url(#clip542)" style="stroke:#000000; stroke-width:4; stroke-opacity:1; fill:none" points="
  889.462,1360.86 889.462,1445.72 916.871,1445.72 916.871,1360.86 889.462,1360.86 
  "/>
<path clip-path="url(#clip542)" d="
M916.871 1357.39 L916.871 1445.72 L944.279 1445.72 L944.279 1357.39 L916.871 1357.39 L916.871 1357.39  Z
  " fill="#009af9" fill-rule="evenodd" fill-opacity="1"/>
<polyline clip-path="url(#clip542)" style="stroke:#000000; stroke-width:4; stroke-opacity:1; fill:none" points="
  916.871,1357.39 916.871,1445.72 944.279,1445.72 944.279,1357.39 916.871,1357.39 
  "/>
<path clip-path="url(#clip542)" d="
M944.279 1319.29 L944.279 1445.72 L971.688 1445.72 L971.688 1319.29 L944.279 1319.29 L944.279 1319.29  Z
  " fill="#009af9" fill-rule="evenodd" fill-opacity="1"/>
<polyline clip-path="url(#clip542)" style="stroke:#000000; stroke-width:4; stroke-opacity:1; fill:none" points="
  944.279,1319.29 944.279,1445.72 971.688,1445.72 971.688,1319.29 944.279,1319.29 
  "/>
<path clip-path="url(#clip542)" d="
M971.688 1317.56 L971.688 1445.72 L999.097 1445.72 L999.097 1317.56 L971.688 1317.56 L971.688 1317.56  Z
  " fill="#009af9" fill-rule="evenodd" fill-opacity="1"/>
<polyline clip-path="url(#clip542)" style="stroke:#000000; stroke-width:4; stroke-opacity:1; fill:none" points="
  971.688,1317.56 971.688,1445.72 999.097,1445.72 999.097,1317.56 971.688,1317.56 
  "/>
<path clip-path="url(#clip542)" d="
M999.097 1298.51 L999.097 1445.72 L1026.51 1445.72 L1026.51 1298.51 L999.097 1298.51 L999.097 1298.51  Z
  " fill="#009af9" fill-rule="evenodd" fill-opacity="1"/>
<polyline clip-path="url(#clip542)" style="stroke:#000000; stroke-width:4; stroke-opacity:1; fill:none" points="
  999.097,1298.51 999.097,1445.72 1026.51,1445.72 1026.51,1298.51 999.097,1298.51 
  "/>
<path clip-path="url(#clip542)" d="
M1026.51 1300.24 L1026.51 1445.72 L1053.91 1445.72 L1053.91 1300.24 L1026.51 1300.24 L1026.51 1300.24  Z
  " fill="#009af9" fill-rule="evenodd" fill-opacity="1"/>
<polyline clip-path="url(#clip542)" style="stroke:#000000; stroke-width:4; stroke-opacity:1; fill:none" points="
  1026.51,1300.24 1026.51,1445.72 1053.91,1445.72 1053.91,1300.24 1026.51,1300.24 
  "/>
<path clip-path="url(#clip542)" d="
M1053.91 1255.22 L1053.91 1445.72 L1081.32 1445.72 L1081.32 1255.22 L1053.91 1255.22 L1053.91 1255.22  Z
  " fill="#009af9" fill-rule="evenodd" fill-opacity="1"/>
<polyline clip-path="url(#clip542)" style="stroke:#000000; stroke-width:4; stroke-opacity:1; fill:none" points="
  1053.91,1255.22 1053.91,1445.72 1081.32,1445.72 1081.32,1255.22 1053.91,1255.22 
  "/>
<path clip-path="url(#clip542)" d="
M1081.32 1267.34 L1081.32 1445.72 L1108.73 1445.72 L1108.73 1267.34 L1081.32 1267.34 L1081.32 1267.34  Z
  " fill="#009af9" fill-rule="evenodd" fill-opacity="1"/>
<polyline clip-path="url(#clip542)" style="stroke:#000000; stroke-width:4; stroke-opacity:1; fill:none" points="
  1081.32,1267.34 1081.32,1445.72 1108.73,1445.72 1108.73,1267.34 1081.32,1267.34 
  "/>
<path clip-path="url(#clip542)" d="
M1108.73 1263.88 L1108.73 1445.72 L1136.14 1445.72 L1136.14 1263.88 L1108.73 1263.88 L1108.73 1263.88  Z
  " fill="#009af9" fill-rule="evenodd" fill-opacity="1"/>
<polyline clip-path="url(#clip542)" style="stroke:#000000; stroke-width:4; stroke-opacity:1; fill:none" points="
  1108.73,1263.88 1108.73,1445.72 1136.14,1445.72 1136.14,1263.88 1108.73,1263.88 
  "/>
<path clip-path="url(#clip542)" d="
M1136.14 1272.53 L1136.14 1445.72 L1163.55 1445.72 L1163.55 1272.53 L1136.14 1272.53 L1136.14 1272.53  Z
  " fill="#009af9" fill-rule="evenodd" fill-opacity="1"/>
<polyline clip-path="url(#clip542)" style="stroke:#000000; stroke-width:4; stroke-opacity:1; fill:none" points="
  1136.14,1272.53 1136.14,1445.72 1163.55,1445.72 1163.55,1272.53 1136.14,1272.53 
  "/>
<path clip-path="url(#clip542)" d="
M1163.55 1236.17 L1163.55 1445.72 L1190.96 1445.72 L1190.96 1236.17 L1163.55 1236.17 L1163.55 1236.17  Z
  " fill="#009af9" fill-rule="evenodd" fill-opacity="1"/>
<polyline clip-path="url(#clip542)" style="stroke:#000000; stroke-width:4; stroke-opacity:1; fill:none" points="
  1163.55,1236.17 1163.55,1445.72 1190.96,1445.72 1190.96,1236.17 1163.55,1236.17 
  "/>
<path clip-path="url(#clip542)" d="
M1190.96 1232.7 L1190.96 1445.72 L1218.37 1445.72 L1218.37 1232.7 L1190.96 1232.7 L1190.96 1232.7  Z
  " fill="#009af9" fill-rule="evenodd" fill-opacity="1"/>
<polyline clip-path="url(#clip542)" style="stroke:#000000; stroke-width:4; stroke-opacity:1; fill:none" points="
  1190.96,1232.7 1190.96,1445.72 1218.37,1445.72 1218.37,1232.7 1190.96,1232.7 
  "/>
<path clip-path="url(#clip542)" d="
M1218.37 1253.48 L1218.37 1445.72 L1245.78 1445.72 L1245.78 1253.48 L1218.37 1253.48 L1218.37 1253.48  Z
  " fill="#009af9" fill-rule="evenodd" fill-opacity="1"/>
<polyline clip-path="url(#clip542)" style="stroke:#000000; stroke-width:4; stroke-opacity:1; fill:none" points="
  1218.37,1253.48 1218.37,1445.72 1245.78,1445.72 1245.78,1253.48 1218.37,1253.48 
  "/>
<path clip-path="url(#clip542)" d="
M1245.78 1232.7 L1245.78 1445.72 L1273.18 1445.72 L1273.18 1232.7 L1245.78 1232.7 L1245.78 1232.7  Z
  " fill="#009af9" fill-rule="evenodd" fill-opacity="1"/>
<polyline clip-path="url(#clip542)" style="stroke:#000000; stroke-width:4; stroke-opacity:1; fill:none" points="
  1245.78,1232.7 1245.78,1445.72 1273.18,1445.72 1273.18,1232.7 1245.78,1232.7 
  "/>
<path clip-path="url(#clip542)" d="
M1273.18 1250.02 L1273.18 1445.72 L1300.59 1445.72 L1300.59 1250.02 L1273.18 1250.02 L1273.18 1250.02  Z
  " fill="#009af9" fill-rule="evenodd" fill-opacity="1"/>
<polyline clip-path="url(#clip542)" style="stroke:#000000; stroke-width:4; stroke-opacity:1; fill:none" points="
  1273.18,1250.02 1273.18,1445.72 1300.59,1445.72 1300.59,1250.02 1273.18,1250.02 
  "/>
<path clip-path="url(#clip542)" d="
M1300.59 1166.89 L1300.59 1445.72 L1328 1445.72 L1328 1166.89 L1300.59 1166.89 L1300.59 1166.89  Z
  " fill="#009af9" fill-rule="evenodd" fill-opacity="1"/>
<polyline clip-path="url(#clip542)" style="stroke:#000000; stroke-width:4; stroke-opacity:1; fill:none" points="
  1300.59,1166.89 1300.59,1445.72 1328,1445.72 1328,1166.89 1300.59,1166.89 
  "/>
<path clip-path="url(#clip542)" d="
M1328 752.992 L1328 1445.72 L1355.41 1445.72 L1355.41 752.992 L1328 752.992 L1328 752.992  Z
  " fill="#009af9" fill-rule="evenodd" fill-opacity="1"/>
<polyline clip-path="url(#clip542)" style="stroke:#000000; stroke-width:4; stroke-opacity:1; fill:none" points="
  1328,752.992 1328,1445.72 1355.41,1445.72 1355.41,752.992 1328,752.992 
  "/>
<path clip-path="url(#clip542)" d="
M1355.41 87.9763 L1355.41 1445.72 L1382.82 1445.72 L1382.82 87.9763 L1355.41 87.9763 L1355.41 87.9763  Z
  " fill="#009af9" fill-rule="evenodd" fill-opacity="1"/>
<polyline clip-path="url(#clip542)" style="stroke:#000000; stroke-width:4; stroke-opacity:1; fill:none" points="
  1355.41,87.9763 1355.41,1445.72 1382.82,1445.72 1382.82,87.9763 1355.41,87.9763 
  "/>
<path clip-path="url(#clip542)" d="
M1382.82 162.444 L1382.82 1445.72 L1410.23 1445.72 L1410.23 162.444 L1382.82 162.444 L1382.82 162.444  Z
  " fill="#009af9" fill-rule="evenodd" fill-opacity="1"/>
<polyline clip-path="url(#clip542)" style="stroke:#000000; stroke-width:4; stroke-opacity:1; fill:none" points="
  1382.82,162.444 1382.82,1445.72 1410.23,1445.72 1410.23,162.444 1382.82,162.444 
  "/>
<path clip-path="url(#clip542)" d="
M1410.23 820.532 L1410.23 1445.72 L1437.64 1445.72 L1437.64 820.532 L1410.23 820.532 L1410.23 820.532  Z
  " fill="#009af9" fill-rule="evenodd" fill-opacity="1"/>
<polyline clip-path="url(#clip542)" style="stroke:#000000; stroke-width:4; stroke-opacity:1; fill:none" points="
  1410.23,820.532 1410.23,1445.72 1437.64,1445.72 1437.64,820.532 1410.23,820.532 
  "/>
<path clip-path="url(#clip542)" d="
M1437.64 1196.33 L1437.64 1445.72 L1465.05 1445.72 L1465.05 1196.33 L1437.64 1196.33 L1437.64 1196.33  Z
  " fill="#009af9" fill-rule="evenodd" fill-opacity="1"/>
<polyline clip-path="url(#clip542)" style="stroke:#000000; stroke-width:4; stroke-opacity:1; fill:none" points="
  1437.64,1196.33 1437.64,1445.72 1465.05,1445.72 1465.05,1196.33 1437.64,1196.33 
  "/>
<path clip-path="url(#clip542)" d="
M1465.05 1291.58 L1465.05 1445.72 L1492.45 1445.72 L1492.45 1291.58 L1465.05 1291.58 L1465.05 1291.58  Z
  " fill="#009af9" fill-rule="evenodd" fill-opacity="1"/>
<polyline clip-path="url(#clip542)" style="stroke:#000000; stroke-width:4; stroke-opacity:1; fill:none" points="
  1465.05,1291.58 1465.05,1445.72 1492.45,1445.72 1492.45,1291.58 1465.05,1291.58 
  "/>
<path clip-path="url(#clip542)" d="
M1492.45 1314.1 L1492.45 1445.72 L1519.86 1445.72 L1519.86 1314.1 L1492.45 1314.1 L1492.45 1314.1  Z
  " fill="#009af9" fill-rule="evenodd" fill-opacity="1"/>
<polyline clip-path="url(#clip542)" style="stroke:#000000; stroke-width:4; stroke-opacity:1; fill:none" points="
  1492.45,1314.1 1492.45,1445.72 1519.86,1445.72 1519.86,1314.1 1492.45,1314.1 
  "/>
<path clip-path="url(#clip542)" d="
M1519.86 1334.88 L1519.86 1445.72 L1547.27 1445.72 L1547.27 1334.88 L1519.86 1334.88 L1519.86 1334.88  Z
  " fill="#009af9" fill-rule="evenodd" fill-opacity="1"/>
<polyline clip-path="url(#clip542)" style="stroke:#000000; stroke-width:4; stroke-opacity:1; fill:none" points="
  1519.86,1334.88 1519.86,1445.72 1547.27,1445.72 1547.27,1334.88 1519.86,1334.88 
  "/>
<path clip-path="url(#clip542)" d="
M1547.27 1317.56 L1547.27 1445.72 L1574.68 1445.72 L1574.68 1317.56 L1547.27 1317.56 L1547.27 1317.56  Z
  " fill="#009af9" fill-rule="evenodd" fill-opacity="1"/>
<polyline clip-path="url(#clip542)" style="stroke:#000000; stroke-width:4; stroke-opacity:1; fill:none" points="
  1547.27,1317.56 1547.27,1445.72 1574.68,1445.72 1574.68,1317.56 1547.27,1317.56 
  "/>
<path clip-path="url(#clip542)" d="
M1574.68 1345.27 L1574.68 1445.72 L1602.09 1445.72 L1602.09 1345.27 L1574.68 1345.27 L1574.68 1345.27  Z
  " fill="#009af9" fill-rule="evenodd" fill-opacity="1"/>
<polyline clip-path="url(#clip542)" style="stroke:#000000; stroke-width:4; stroke-opacity:1; fill:none" points="
  1574.68,1345.27 1574.68,1445.72 1602.09,1445.72 1602.09,1345.27 1574.68,1345.27 
  "/>
<path clip-path="url(#clip542)" d="
M1602.09 1371.25 L1602.09 1445.72 L1629.5 1445.72 L1629.5 1371.25 L1602.09 1371.25 L1602.09 1371.25  Z
  " fill="#009af9" fill-rule="evenodd" fill-opacity="1"/>
<polyline clip-path="url(#clip542)" style="stroke:#000000; stroke-width:4; stroke-opacity:1; fill:none" points="
  1602.09,1371.25 1602.09,1445.72 1629.5,1445.72 1629.5,1371.25 1602.09,1371.25 
  "/>
<path clip-path="url(#clip542)" d="
M1629.5 1364.32 L1629.5 1445.72 L1656.91 1445.72 L1656.91 1364.32 L1629.5 1364.32 L1629.5 1364.32  Z
  " fill="#009af9" fill-rule="evenodd" fill-opacity="1"/>
<polyline clip-path="url(#clip542)" style="stroke:#000000; stroke-width:4; stroke-opacity:1; fill:none" points="
  1629.5,1364.32 1629.5,1445.72 1656.91,1445.72 1656.91,1364.32 1629.5,1364.32 
  "/>
<path clip-path="url(#clip542)" d="
M1656.91 1374.71 L1656.91 1445.72 L1684.32 1445.72 L1684.32 1374.71 L1656.91 1374.71 L1656.91 1374.71  Z
  " fill="#009af9" fill-rule="evenodd" fill-opacity="1"/>
<polyline clip-path="url(#clip542)" style="stroke:#000000; stroke-width:4; stroke-opacity:1; fill:none" points="
  1656.91,1374.71 1656.91,1445.72 1684.32,1445.72 1684.32,1374.71 1656.91,1374.71 
  "/>
<path clip-path="url(#clip542)" d="
M1684.32 1381.64 L1684.32 1445.72 L1711.73 1445.72 L1711.73 1381.64 L1684.32 1381.64 L1684.32 1381.64  Z
  " fill="#009af9" fill-rule="evenodd" fill-opacity="1"/>
<polyline clip-path="url(#clip542)" style="stroke:#000000; stroke-width:4; stroke-opacity:1; fill:none" points="
  1684.32,1381.64 1684.32,1445.72 1711.73,1445.72 1711.73,1381.64 1684.32,1381.64 
  "/>
<path clip-path="url(#clip542)" d="
M1711.73 1398.96 L1711.73 1445.72 L1739.13 1445.72 L1739.13 1398.96 L1711.73 1398.96 L1711.73 1398.96  Z
  " fill="#009af9" fill-rule="evenodd" fill-opacity="1"/>
<polyline clip-path="url(#clip542)" style="stroke:#000000; stroke-width:4; stroke-opacity:1; fill:none" points="
  1711.73,1398.96 1711.73,1445.72 1739.13,1445.72 1739.13,1398.96 1711.73,1398.96 
  "/>
<path clip-path="url(#clip542)" d="
M1739.13 1405.88 L1739.13 1445.72 L1766.54 1445.72 L1766.54 1405.88 L1739.13 1405.88 L1739.13 1405.88  Z
  " fill="#009af9" fill-rule="evenodd" fill-opacity="1"/>
<polyline clip-path="url(#clip542)" style="stroke:#000000; stroke-width:4; stroke-opacity:1; fill:none" points="
  1739.13,1405.88 1739.13,1445.72 1766.54,1445.72 1766.54,1405.88 1739.13,1405.88 
  "/>
<path clip-path="url(#clip542)" d="
M1766.54 1419.74 L1766.54 1445.72 L1793.95 1445.72 L1793.95 1419.74 L1766.54 1419.74 L1766.54 1419.74  Z
  " fill="#009af9" fill-rule="evenodd" fill-opacity="1"/>
<polyline clip-path="url(#clip542)" style="stroke:#000000; stroke-width:4; stroke-opacity:1; fill:none" points="
  1766.54,1419.74 1766.54,1445.72 1793.95,1445.72 1793.95,1419.74 1766.54,1419.74 
  "/>
<path clip-path="url(#clip542)" d="
M1793.95 1414.54 L1793.95 1445.72 L1821.36 1445.72 L1821.36 1414.54 L1793.95 1414.54 L1793.95 1414.54  Z
  " fill="#009af9" fill-rule="evenodd" fill-opacity="1"/>
<polyline clip-path="url(#clip542)" style="stroke:#000000; stroke-width:4; stroke-opacity:1; fill:none" points="
  1793.95,1414.54 1793.95,1445.72 1821.36,1445.72 1821.36,1414.54 1793.95,1414.54 
  "/>
<path clip-path="url(#clip542)" d="
M1821.36 1418.01 L1821.36 1445.72 L1848.77 1445.72 L1848.77 1418.01 L1821.36 1418.01 L1821.36 1418.01  Z
  " fill="#009af9" fill-rule="evenodd" fill-opacity="1"/>
<polyline clip-path="url(#clip542)" style="stroke:#000000; stroke-width:4; stroke-opacity:1; fill:none" points="
  1821.36,1418.01 1821.36,1445.72 1848.77,1445.72 1848.77,1418.01 1821.36,1418.01 
  "/>
<path clip-path="url(#clip542)" d="
M1848.77 1431.86 L1848.77 1445.72 L1876.18 1445.72 L1876.18 1431.86 L1848.77 1431.86 L1848.77 1431.86  Z
  " fill="#009af9" fill-rule="evenodd" fill-opacity="1"/>
<polyline clip-path="url(#clip542)" style="stroke:#000000; stroke-width:4; stroke-opacity:1; fill:none" points="
  1848.77,1431.86 1848.77,1445.72 1876.18,1445.72 1876.18,1431.86 1848.77,1431.86 
  "/>
<path clip-path="url(#clip542)" d="
M1876.18 1430.13 L1876.18 1445.72 L1903.59 1445.72 L1903.59 1430.13 L1876.18 1430.13 L1876.18 1430.13  Z
  " fill="#009af9" fill-rule="evenodd" fill-opacity="1"/>
<polyline clip-path="url(#clip542)" style="stroke:#000000; stroke-width:4; stroke-opacity:1; fill:none" points="
  1876.18,1430.13 1876.18,1445.72 1903.59,1445.72 1903.59,1430.13 1876.18,1430.13 
  "/>
<path clip-path="url(#clip542)" d="
M1903.59 1437.06 L1903.59 1445.72 L1931 1445.72 L1931 1437.06 L1903.59 1437.06 L1903.59 1437.06  Z
  " fill="#009af9" fill-rule="evenodd" fill-opacity="1"/>
<polyline clip-path="url(#clip542)" style="stroke:#000000; stroke-width:4; stroke-opacity:1; fill:none" points="
  1903.59,1437.06 1903.59,1445.72 1931,1445.72 1931,1437.06 1903.59,1437.06 
  "/>
<path clip-path="url(#clip542)" d="
M1931 1435.32 L1931 1445.72 L1958.4 1445.72 L1958.4 1435.32 L1931 1435.32 L1931 1435.32  Z
  " fill="#009af9" fill-rule="evenodd" fill-opacity="1"/>
<polyline clip-path="url(#clip542)" style="stroke:#000000; stroke-width:4; stroke-opacity:1; fill:none" points="
  1931,1435.32 1931,1445.72 1958.4,1445.72 1958.4,1435.32 1931,1435.32 
  "/>
<path clip-path="url(#clip542)" d="
M1958.4 1443.98 L1958.4 1445.72 L1985.81 1445.72 L1985.81 1443.98 L1958.4 1443.98 L1958.4 1443.98  Z
  " fill="#009af9" fill-rule="evenodd" fill-opacity="1"/>
<polyline clip-path="url(#clip542)" style="stroke:#000000; stroke-width:4; stroke-opacity:1; fill:none" points="
  1958.4,1443.98 1958.4,1445.72 1985.81,1445.72 1985.81,1443.98 1958.4,1443.98 
  "/>
<path clip-path="url(#clip542)" d="
M1985.81 1445.72 L1985.81 1445.72 L2013.22 1445.72 L2013.22 1445.72 L1985.81 1445.72 L1985.81 1445.72  Z
  " fill="#009af9" fill-rule="evenodd" fill-opacity="1"/>
<polyline clip-path="url(#clip542)" style="stroke:#000000; stroke-width:4; stroke-opacity:1; fill:none" points="
  1985.81,1445.72 1985.81,1445.72 2013.22,1445.72 1985.81,1445.72 
  "/>
<path clip-path="url(#clip542)" d="
M2013.22 1443.98 L2013.22 1445.72 L2040.63 1445.72 L2040.63 1443.98 L2013.22 1443.98 L2013.22 1443.98  Z
  " fill="#009af9" fill-rule="evenodd" fill-opacity="1"/>
<polyline clip-path="url(#clip542)" style="stroke:#000000; stroke-width:4; stroke-opacity:1; fill:none" points="
  2013.22,1443.98 2013.22,1445.72 2040.63,1445.72 2040.63,1443.98 2013.22,1443.98 
  "/>
<path clip-path="url(#clip542)" d="
M2040.63 1443.98 L2040.63 1445.72 L2068.04 1445.72 L2068.04 1443.98 L2040.63 1443.98 L2040.63 1443.98  Z
  " fill="#009af9" fill-rule="evenodd" fill-opacity="1"/>
<polyline clip-path="url(#clip542)" style="stroke:#000000; stroke-width:4; stroke-opacity:1; fill:none" points="
  2040.63,1443.98 2040.63,1445.72 2068.04,1445.72 2068.04,1443.98 2040.63,1443.98 
  "/>
<path clip-path="url(#clip542)" d="
M2068.04 1442.25 L2068.04 1445.72 L2095.45 1445.72 L2095.45 1442.25 L2068.04 1442.25 L2068.04 1442.25  Z
  " fill="#009af9" fill-rule="evenodd" fill-opacity="1"/>
<polyline clip-path="url(#clip542)" style="stroke:#000000; stroke-width:4; stroke-opacity:1; fill:none" points="
  2068.04,1442.25 2068.04,1445.72 2095.45,1445.72 2095.45,1442.25 2068.04,1442.25 
  "/>
<path clip-path="url(#clip542)" d="
M2095.45 1440.52 L2095.45 1445.72 L2122.86 1445.72 L2122.86 1440.52 L2095.45 1440.52 L2095.45 1440.52  Z
  " fill="#009af9" fill-rule="evenodd" fill-opacity="1"/>
<polyline clip-path="url(#clip542)" style="stroke:#000000; stroke-width:4; stroke-opacity:1; fill:none" points="
  2095.45,1440.52 2095.45,1445.72 2122.86,1445.72 2122.86,1440.52 2095.45,1440.52 
  "/>
<path clip-path="url(#clip542)" d="
M2122.86 1442.25 L2122.86 1445.72 L2150.27 1445.72 L2150.27 1442.25 L2122.86 1442.25 L2122.86 1442.25  Z
  " fill="#009af9" fill-rule="evenodd" fill-opacity="1"/>
<polyline clip-path="url(#clip542)" style="stroke:#000000; stroke-width:4; stroke-opacity:1; fill:none" points="
  2122.86,1442.25 2122.86,1445.72 2150.27,1445.72 2150.27,1442.25 2122.86,1442.25 
  "/>
<path clip-path="url(#clip542)" d="
M2150.27 1443.98 L2150.27 1445.72 L2177.67 1445.72 L2177.67 1443.98 L2150.27 1443.98 L2150.27 1443.98  Z
  " fill="#009af9" fill-rule="evenodd" fill-opacity="1"/>
<polyline clip-path="url(#clip542)" style="stroke:#000000; stroke-width:4; stroke-opacity:1; fill:none" points="
  2150.27,1443.98 2150.27,1445.72 2177.67,1445.72 2177.67,1443.98 2150.27,1443.98 
  "/>
<path clip-path="url(#clip542)" d="
M2177.67 1443.98 L2177.67 1445.72 L2205.08 1445.72 L2205.08 1443.98 L2177.67 1443.98 L2177.67 1443.98  Z
  " fill="#009af9" fill-rule="evenodd" fill-opacity="1"/>
<polyline clip-path="url(#clip542)" style="stroke:#000000; stroke-width:4; stroke-opacity:1; fill:none" points="
  2177.67,1443.98 2177.67,1445.72 2205.08,1445.72 2205.08,1443.98 2177.67,1443.98 
  "/>
<path clip-path="url(#clip542)" d="
M2205.08 1443.98 L2205.08 1445.72 L2232.49 1445.72 L2232.49 1443.98 L2205.08 1443.98 L2205.08 1443.98  Z
  " fill="#009af9" fill-rule="evenodd" fill-opacity="1"/>
<polyline clip-path="url(#clip542)" style="stroke:#000000; stroke-width:4; stroke-opacity:1; fill:none" points="
  2205.08,1443.98 2205.08,1445.72 2232.49,1445.72 2232.49,1443.98 2205.08,1443.98 
  "/>
<path clip-path="url(#clip540)" d="
M2061.74 155.698 L2352.76 155.698 L2352.76 34.7376 L2061.74 34.7376  Z
  " fill="#ffffff" fill-rule="evenodd" fill-opacity="1"/>
<polyline clip-path="url(#clip540)" style="stroke:#000000; stroke-width:4; stroke-opacity:1; fill:none" points="
  2061.74,155.698 2352.76,155.698 2352.76,34.7376 2061.74,34.7376 2061.74,155.698 
  "/>
<path clip-path="url(#clip540)" d="
M2085.74 119.41 L2229.74 119.41 L2229.74 71.0256 L2085.74 71.0256 L2085.74 119.41  Z
  " fill="#009af9" fill-rule="evenodd" fill-opacity="1"/>
<polyline clip-path="url(#clip540)" style="stroke:#000000; stroke-width:4; stroke-opacity:1; fill:none" points="
  2085.74,119.41 2229.74,119.41 2229.74,71.0256 2085.74,71.0256 2085.74,119.41 
  "/>
<path clip-path="url(#clip540)" d="M 0 0 M2267.58 114.905 Q2265.77 119.535 2264.06 120.947 Q2262.35 122.359 2259.48 122.359 L2256.08 122.359 L2256.08 118.794 L2258.58 118.794 Q2260.33 118.794 2261.31 117.96 Q2262.28 117.127 2263.46 114.025 L2264.22 112.081 L2253.74 86.5718 L2258.25 86.5718 L2266.35 106.849 L2274.46 86.5718 L2278.97 86.5718 L2267.58 114.905 Z" fill="#000000" fill-rule="evenodd" fill-opacity="1" /><path clip-path="url(#clip540)" d="M 0 0 M2284.85 108.562 L2292.49 108.562 L2292.49 82.1968 L2284.18 83.8634 L2284.18 79.6042 L2292.44 77.9376 L2297.12 77.9376 L2297.12 108.562 L2304.76 108.562 L2304.76 112.498 L2284.85 112.498 L2284.85 108.562 Z" fill="#000000" fill-rule="evenodd" fill-opacity="1" /></svg>
