<?xml version="1.0" encoding="utf-8"?>
<svg xmlns="http://www.w3.org/2000/svg" xmlns:xlink="http://www.w3.org/1999/xlink" width="600" height="400" viewBox="0 0 2400 1600">
<defs>
  <clipPath id="clip550">
    <rect x="0" y="0" width="2400" height="1600"/>
  </clipPath>
</defs>
<path clip-path="url(#clip550)" d="
M0 1600 L2400 1600 L2400 0 L0 0  Z
  " fill="#ffffff" fill-rule="evenodd" fill-opacity="1"/>
<defs>
  <clipPath id="clip551">
    <rect x="480" y="0" width="1681" height="1600"/>
  </clipPath>
</defs>
<path clip-path="url(#clip550)" d="
M166.205 1486.45 L2352.76 1486.45 L2352.76 47.2441 L166.205 47.2441  Z
  " fill="#ffffff" fill-rule="evenodd" fill-opacity="1"/>
<defs>
  <clipPath id="clip552">
    <rect x="166" y="47" width="2188" height="1440"/>
  </clipPath>
</defs>
<polyline clip-path="url(#clip552)" style="stroke:#000000; stroke-width:2; stroke-opacity:0.1; fill:none" points="
  249.045,1486.45 249.045,47.2441 
  "/>
<polyline clip-path="url(#clip552)" style="stroke:#000000; stroke-width:2; stroke-opacity:0.1; fill:none" points="
  560.908,1486.45 560.908,47.2441 
  "/>
<polyline clip-path="url(#clip552)" style="stroke:#000000; stroke-width:2; stroke-opacity:0.1; fill:none" points="
  872.771,1486.45 872.771,47.2441 
  "/>
<polyline clip-path="url(#clip552)" style="stroke:#000000; stroke-width:2; stroke-opacity:0.1; fill:none" points="
  1184.63,1486.45 1184.63,47.2441 
  "/>
<polyline clip-path="url(#clip552)" style="stroke:#000000; stroke-width:2; stroke-opacity:0.1; fill:none" points="
  1496.5,1486.45 1496.5,47.2441 
  "/>
<polyline clip-path="url(#clip552)" style="stroke:#000000; stroke-width:2; stroke-opacity:0.1; fill:none" points="
  1808.36,1486.45 1808.36,47.2441 
  "/>
<polyline clip-path="url(#clip552)" style="stroke:#000000; stroke-width:2; stroke-opacity:0.1; fill:none" points="
  2120.22,1486.45 2120.22,47.2441 
  "/>
<polyline clip-path="url(#clip552)" style="stroke:#000000; stroke-width:2; stroke-opacity:0.1; fill:none" points="
  166.205,1445.72 2352.76,1445.72 
  "/>
<polyline clip-path="url(#clip552)" style="stroke:#000000; stroke-width:2; stroke-opacity:0.1; fill:none" points="
  166.205,1105.43 2352.76,1105.43 
  "/>
<polyline clip-path="url(#clip552)" style="stroke:#000000; stroke-width:2; stroke-opacity:0.1; fill:none" points="
  166.205,765.145 2352.76,765.145 
  "/>
<polyline clip-path="url(#clip552)" style="stroke:#000000; stroke-width:2; stroke-opacity:0.1; fill:none" points="
  166.205,424.859 2352.76,424.859 
  "/>
<polyline clip-path="url(#clip552)" style="stroke:#000000; stroke-width:2; stroke-opacity:0.1; fill:none" points="
  166.205,84.5734 2352.76,84.5734 
  "/>
<polyline clip-path="url(#clip550)" style="stroke:#000000; stroke-width:4; stroke-opacity:1; fill:none" points="
  166.205,1486.45 2352.76,1486.45 
  "/>
<polyline clip-path="url(#clip550)" style="stroke:#000000; stroke-width:4; stroke-opacity:1; fill:none" points="
  166.205,1486.45 166.205,47.2441 
  "/>
<polyline clip-path="url(#clip550)" style="stroke:#000000; stroke-width:4; stroke-opacity:1; fill:none" points="
  249.045,1486.45 249.045,1469.18 
  "/>
<polyline clip-path="url(#clip550)" style="stroke:#000000; stroke-width:4; stroke-opacity:1; fill:none" points="
  560.908,1486.45 560.908,1469.18 
  "/>
<polyline clip-path="url(#clip550)" style="stroke:#000000; stroke-width:4; stroke-opacity:1; fill:none" points="
  872.771,1486.45 872.771,1469.18 
  "/>
<polyline clip-path="url(#clip550)" style="stroke:#000000; stroke-width:4; stroke-opacity:1; fill:none" points="
  1184.63,1486.45 1184.63,1469.18 
  "/>
<polyline clip-path="url(#clip550)" style="stroke:#000000; stroke-width:4; stroke-opacity:1; fill:none" points="
  1496.5,1486.45 1496.5,1469.18 
  "/>
<polyline clip-path="url(#clip550)" style="stroke:#000000; stroke-width:4; stroke-opacity:1; fill:none" points="
  1808.36,1486.45 1808.36,1469.18 
  "/>
<polyline clip-path="url(#clip550)" style="stroke:#000000; stroke-width:4; stroke-opacity:1; fill:none" points="
  2120.22,1486.45 2120.22,1469.18 
  "/>
<polyline clip-path="url(#clip550)" style="stroke:#000000; stroke-width:4; stroke-opacity:1; fill:none" points="
  166.205,1445.72 192.443,1445.72 
  "/>
<polyline clip-path="url(#clip550)" style="stroke:#000000; stroke-width:4; stroke-opacity:1; fill:none" points="
  166.205,1105.43 192.443,1105.43 
  "/>
<polyline clip-path="url(#clip550)" style="stroke:#000000; stroke-width:4; stroke-opacity:1; fill:none" points="
  166.205,765.145 192.443,765.145 
  "/>
<polyline clip-path="url(#clip550)" style="stroke:#000000; stroke-width:4; stroke-opacity:1; fill:none" points="
  166.205,424.859 192.443,424.859 
  "/>
<polyline clip-path="url(#clip550)" style="stroke:#000000; stroke-width:4; stroke-opacity:1; fill:none" points="
  166.205,84.5734 192.443,84.5734 
  "/>
<path clip-path="url(#clip550)" d="M 0 0 M211.765 1525.04 L224.242 1525.04 L224.242 1528.83 L211.765 1528.83 L211.765 1525.04 Z" fill="#000000" fill-rule="evenodd" fill-opacity="1" /><path clip-path="url(#clip550)" d="M 0 0 M228.131 1505.36 L250.353 1505.36 L250.353 1507.35 L237.807 1539.92 L232.923 1539.92 L244.728 1509.3 L228.131 1509.3 L228.131 1505.36 Z" fill="#000000" fill-rule="evenodd" fill-opacity="1" /><path clip-path="url(#clip550)" d="M 0 0 M255.423 1534.04 L260.307 1534.04 L260.307 1539.92 L255.423 1539.92 L255.423 1534.04 Z" fill="#000000" fill-rule="evenodd" fill-opacity="1" /><path clip-path="url(#clip550)" d="M 0 0 M265.423 1505.36 L283.779 1505.36 L283.779 1509.3 L269.705 1509.3 L269.705 1517.77 Q270.723 1517.42 271.742 1517.26 Q272.761 1517.07 273.779 1517.07 Q279.566 1517.07 282.946 1520.24 Q286.325 1523.42 286.325 1528.83 Q286.325 1534.41 282.853 1537.51 Q279.381 1540.59 273.061 1540.59 Q270.886 1540.59 268.617 1540.22 Q266.372 1539.85 263.964 1539.11 L263.964 1534.41 Q266.048 1535.54 268.27 1536.1 Q270.492 1536.66 272.969 1536.66 Q276.973 1536.66 279.311 1534.55 Q281.649 1532.44 281.649 1528.83 Q281.649 1525.22 279.311 1523.11 Q276.973 1521.01 272.969 1521.01 Q271.094 1521.01 269.219 1521.42 Q267.367 1521.84 265.423 1522.72 L265.423 1505.36 Z" fill="#000000" fill-rule="evenodd" fill-opacity="1" /><path clip-path="url(#clip550)" d="M 0 0 M523.177 1525.04 L535.653 1525.04 L535.653 1528.83 L523.177 1528.83 L523.177 1525.04 Z" fill="#000000" fill-rule="evenodd" fill-opacity="1" /><path clip-path="url(#clip550)" d="M 0 0 M540.769 1505.36 L559.126 1505.36 L559.126 1509.3 L545.052 1509.3 L545.052 1517.77 Q546.07 1517.42 547.089 1517.26 Q548.107 1517.07 549.126 1517.07 Q554.913 1517.07 558.292 1520.24 Q561.672 1523.42 561.672 1528.83 Q561.672 1534.41 558.2 1537.51 Q554.727 1540.59 548.408 1540.59 Q546.232 1540.59 543.964 1540.22 Q541.718 1539.85 539.311 1539.11 L539.311 1534.41 Q541.394 1535.54 543.616 1536.1 Q545.839 1536.66 548.315 1536.66 Q552.32 1536.66 554.658 1534.55 Q556.996 1532.44 556.996 1528.83 Q556.996 1525.22 554.658 1523.11 Q552.32 1521.01 548.315 1521.01 Q546.44 1521.01 544.565 1521.42 Q542.714 1521.84 540.769 1522.72 L540.769 1505.36 Z" fill="#000000" fill-rule="evenodd" fill-opacity="1" /><path clip-path="url(#clip550)" d="M 0 0 M566.741 1534.04 L571.626 1534.04 L571.626 1539.92 L566.741 1539.92 L566.741 1534.04 Z" fill="#000000" fill-rule="evenodd" fill-opacity="1" /><path clip-path="url(#clip550)" d="M 0 0 M586.695 1508.44 Q583.084 1508.44 581.255 1512 Q579.45 1515.55 579.45 1522.67 Q579.45 1529.78 581.255 1533.35 Q583.084 1536.89 586.695 1536.89 Q590.329 1536.89 592.135 1533.35 Q593.963 1529.78 593.963 1522.67 Q593.963 1515.55 592.135 1512 Q590.329 1508.44 586.695 1508.44 M586.695 1504.73 Q592.505 1504.73 595.561 1509.34 Q598.639 1513.92 598.639 1522.67 Q598.639 1531.4 595.561 1536.01 Q592.505 1540.59 586.695 1540.59 Q580.885 1540.59 577.806 1536.01 Q574.751 1531.4 574.751 1522.67 Q574.751 1513.92 577.806 1509.34 Q580.885 1504.73 586.695 1504.73 Z" fill="#000000" fill-rule="evenodd" fill-opacity="1" /><path clip-path="url(#clip550)" d="M 0 0 M835.838 1525.04 L848.315 1525.04 L848.315 1528.83 L835.838 1528.83 L835.838 1525.04 Z" fill="#000000" fill-rule="evenodd" fill-opacity="1" /><path clip-path="url(#clip550)" d="M 0 0 M857.412 1535.98 L873.731 1535.98 L873.731 1539.92 L851.787 1539.92 L851.787 1535.98 Q854.449 1533.23 859.032 1528.6 Q863.639 1523.95 864.819 1522.61 Q867.065 1520.08 867.944 1518.35 Q868.847 1516.59 868.847 1514.9 Q868.847 1512.14 866.903 1510.41 Q864.981 1508.67 861.879 1508.67 Q859.68 1508.67 857.227 1509.43 Q854.796 1510.2 852.018 1511.75 L852.018 1507.03 Q854.842 1505.89 857.296 1505.31 Q859.75 1504.73 861.787 1504.73 Q867.157 1504.73 870.352 1507.42 Q873.546 1510.11 873.546 1514.6 Q873.546 1516.73 872.736 1518.65 Q871.949 1520.54 869.842 1523.14 Q869.264 1523.81 866.162 1527.03 Q863.06 1530.22 857.412 1535.98 Z" fill="#000000" fill-rule="evenodd" fill-opacity="1" /><path clip-path="url(#clip550)" d="M 0 0 M878.801 1534.04 L883.685 1534.04 L883.685 1539.92 L878.801 1539.92 L878.801 1534.04 Z" fill="#000000" fill-rule="evenodd" fill-opacity="1" /><path clip-path="url(#clip550)" d="M 0 0 M888.801 1505.36 L907.157 1505.36 L907.157 1509.3 L893.083 1509.3 L893.083 1517.77 Q894.102 1517.42 895.12 1517.26 Q896.139 1517.07 897.157 1517.07 Q902.944 1517.07 906.324 1520.24 Q909.703 1523.42 909.703 1528.83 Q909.703 1534.41 906.231 1537.51 Q902.759 1540.59 896.439 1540.59 Q894.264 1540.59 891.995 1540.22 Q889.75 1539.85 887.342 1539.11 L887.342 1534.41 Q889.426 1535.54 891.648 1536.1 Q893.87 1536.66 896.347 1536.66 Q900.351 1536.66 902.689 1534.55 Q905.027 1532.44 905.027 1528.83 Q905.027 1525.22 902.689 1523.11 Q900.351 1521.01 896.347 1521.01 Q894.472 1521.01 892.597 1521.42 Q890.745 1521.84 888.801 1522.72 L888.801 1505.36 Z" fill="#000000" fill-rule="evenodd" fill-opacity="1" /><path clip-path="url(#clip550)" d="M 0 0 M1166.15 1508.44 Q1162.54 1508.44 1160.71 1512 Q1158.9 1515.55 1158.9 1522.67 Q1158.9 1529.78 1160.71 1533.35 Q1162.54 1536.89 1166.15 1536.89 Q1169.78 1536.89 1171.59 1533.35 Q1173.42 1529.78 1173.42 1522.67 Q1173.42 1515.55 1171.59 1512 Q1169.78 1508.44 1166.15 1508.44 M1166.15 1504.73 Q1171.96 1504.73 1175.02 1509.34 Q1178.09 1513.92 1178.09 1522.67 Q1178.09 1531.4 1175.02 1536.01 Q1171.96 1540.59 1166.15 1540.59 Q1160.34 1540.59 1157.26 1536.01 Q1154.21 1531.4 1154.21 1522.67 Q1154.21 1513.92 1157.26 1509.34 Q1160.34 1504.73 1166.15 1504.73 Z" fill="#000000" fill-rule="evenodd" fill-opacity="1" /><path clip-path="url(#clip550)" d="M 0 0 M1183.16 1534.04 L1188.05 1534.04 L1188.05 1539.92 L1183.16 1539.92 L1183.16 1534.04 Z" fill="#000000" fill-rule="evenodd" fill-opacity="1" /><path clip-path="url(#clip550)" d="M 0 0 M1203.12 1508.44 Q1199.51 1508.44 1197.68 1512 Q1195.87 1515.55 1195.87 1522.67 Q1195.87 1529.78 1197.68 1533.35 Q1199.51 1536.89 1203.12 1536.89 Q1206.75 1536.89 1208.56 1533.35 Q1210.39 1529.78 1210.39 1522.67 Q1210.39 1515.55 1208.56 1512 Q1206.75 1508.44 1203.12 1508.44 M1203.12 1504.73 Q1208.93 1504.73 1211.98 1509.34 Q1215.06 1513.92 1215.06 1522.67 Q1215.06 1531.4 1211.98 1536.01 Q1208.93 1540.59 1203.12 1540.59 Q1197.31 1540.59 1194.23 1536.01 Q1191.17 1531.4 1191.17 1522.67 Q1191.17 1513.92 1194.23 1509.34 Q1197.31 1504.73 1203.12 1504.73 Z" fill="#000000" fill-rule="evenodd" fill-opacity="1" /><path clip-path="url(#clip550)" d="M 0 0 M1473.16 1535.98 L1489.48 1535.98 L1489.48 1539.92 L1467.54 1539.92 L1467.54 1535.98 Q1470.2 1533.23 1474.78 1528.6 Q1479.39 1523.95 1480.57 1522.61 Q1482.82 1520.08 1483.7 1518.35 Q1484.6 1516.59 1484.6 1514.9 Q1484.6 1512.14 1482.65 1510.41 Q1480.73 1508.67 1477.63 1508.67 Q1475.43 1508.67 1472.98 1509.43 Q1470.55 1510.2 1467.77 1511.75 L1467.77 1507.03 Q1470.59 1505.89 1473.05 1505.31 Q1475.5 1504.73 1477.54 1504.73 Q1482.91 1504.73 1486.1 1507.42 Q1489.3 1510.11 1489.3 1514.6 Q1489.3 1516.73 1488.49 1518.65 Q1487.7 1520.54 1485.59 1523.14 Q1485.01 1523.81 1481.91 1527.03 Q1478.81 1530.22 1473.16 1535.98 Z" fill="#000000" fill-rule="evenodd" fill-opacity="1" /><path clip-path="url(#clip550)" d="M 0 0 M1494.55 1534.04 L1499.44 1534.04 L1499.44 1539.92 L1494.55 1539.92 L1494.55 1534.04 Z" fill="#000000" fill-rule="evenodd" fill-opacity="1" /><path clip-path="url(#clip550)" d="M 0 0 M1504.55 1505.36 L1522.91 1505.36 L1522.91 1509.3 L1508.83 1509.3 L1508.83 1517.77 Q1509.85 1517.42 1510.87 1517.26 Q1511.89 1517.07 1512.91 1517.07 Q1518.69 1517.07 1522.07 1520.24 Q1525.45 1523.42 1525.45 1528.83 Q1525.45 1534.41 1521.98 1537.51 Q1518.51 1540.59 1512.19 1540.59 Q1510.01 1540.59 1507.75 1540.22 Q1505.5 1539.85 1503.09 1539.11 L1503.09 1534.41 Q1505.18 1535.54 1507.4 1536.1 Q1509.62 1536.66 1512.1 1536.66 Q1516.1 1536.66 1518.44 1534.55 Q1520.78 1532.44 1520.78 1528.83 Q1520.78 1525.22 1518.44 1523.11 Q1516.1 1521.01 1512.1 1521.01 Q1510.22 1521.01 1508.35 1521.42 Q1506.5 1521.84 1504.55 1522.72 L1504.55 1505.36 Z" fill="#000000" fill-rule="evenodd" fill-opacity="1" /><path clip-path="url(#clip550)" d="M 0 0 M1780.15 1505.36 L1798.51 1505.36 L1798.51 1509.3 L1784.44 1509.3 L1784.44 1517.77 Q1785.45 1517.42 1786.47 1517.26 Q1787.49 1517.07 1788.51 1517.07 Q1794.3 1517.07 1797.68 1520.24 Q1801.06 1523.42 1801.06 1528.83 Q1801.06 1534.41 1797.58 1537.51 Q1794.11 1540.59 1787.79 1540.59 Q1785.62 1540.59 1783.35 1540.22 Q1781.1 1539.85 1778.69 1539.11 L1778.69 1534.41 Q1780.78 1535.54 1783 1536.1 Q1785.22 1536.66 1787.7 1536.66 Q1791.7 1536.66 1794.04 1534.55 Q1796.38 1532.44 1796.38 1528.83 Q1796.38 1525.22 1794.04 1523.11 Q1791.7 1521.01 1787.7 1521.01 Q1785.82 1521.01 1783.95 1521.42 Q1782.1 1521.84 1780.15 1522.72 L1780.15 1505.36 Z" fill="#000000" fill-rule="evenodd" fill-opacity="1" /><path clip-path="url(#clip550)" d="M 0 0 M1806.12 1534.04 L1811.01 1534.04 L1811.01 1539.92 L1806.12 1539.92 L1806.12 1534.04 Z" fill="#000000" fill-rule="evenodd" fill-opacity="1" /><path clip-path="url(#clip550)" d="M 0 0 M1826.08 1508.44 Q1822.47 1508.44 1820.64 1512 Q1818.83 1515.55 1818.83 1522.67 Q1818.83 1529.78 1820.64 1533.35 Q1822.47 1536.89 1826.08 1536.89 Q1829.71 1536.89 1831.52 1533.35 Q1833.35 1529.78 1833.35 1522.67 Q1833.35 1515.55 1831.52 1512 Q1829.71 1508.44 1826.08 1508.44 M1826.08 1504.73 Q1831.89 1504.73 1834.94 1509.34 Q1838.02 1513.92 1838.02 1522.67 Q1838.02 1531.4 1834.94 1536.01 Q1831.89 1540.59 1826.08 1540.59 Q1820.27 1540.59 1817.19 1536.01 Q1814.13 1531.4 1814.13 1522.67 Q1814.13 1513.92 1817.19 1509.34 Q1820.27 1504.73 1826.08 1504.73 Z" fill="#000000" fill-rule="evenodd" fill-opacity="1" /><path clip-path="url(#clip550)" d="M 0 0 M2091.12 1505.36 L2113.35 1505.36 L2113.35 1507.35 L2100.8 1539.92 L2095.92 1539.92 L2107.72 1509.3 L2091.12 1509.3 L2091.12 1505.36 Z" fill="#000000" fill-rule="evenodd" fill-opacity="1" /><path clip-path="url(#clip550)" d="M 0 0 M2118.42 1534.04 L2123.3 1534.04 L2123.3 1539.92 L2118.42 1539.92 L2118.42 1534.04 Z" fill="#000000" fill-rule="evenodd" fill-opacity="1" /><path clip-path="url(#clip550)" d="M 0 0 M2128.42 1505.36 L2146.77 1505.36 L2146.77 1509.3 L2132.7 1509.3 L2132.7 1517.77 Q2133.72 1517.42 2134.73 1517.26 Q2135.75 1517.07 2136.77 1517.07 Q2142.56 1517.07 2145.94 1520.24 Q2149.32 1523.42 2149.32 1528.83 Q2149.32 1534.41 2145.85 1537.51 Q2142.37 1540.59 2136.05 1540.59 Q2133.88 1540.59 2131.61 1540.22 Q2129.36 1539.85 2126.96 1539.11 L2126.96 1534.41 Q2129.04 1535.54 2131.26 1536.1 Q2133.48 1536.66 2135.96 1536.66 Q2139.97 1536.66 2142.3 1534.55 Q2144.64 1532.44 2144.64 1528.83 Q2144.64 1525.22 2142.3 1523.11 Q2139.97 1521.01 2135.96 1521.01 Q2134.09 1521.01 2132.21 1521.42 Q2130.36 1521.84 2128.42 1522.72 L2128.42 1505.36 Z" fill="#000000" fill-rule="evenodd" fill-opacity="1" /><path clip-path="url(#clip550)" d="M 0 0 M130.26 1431.51 Q126.649 1431.51 124.82 1435.08 Q123.015 1438.62 123.015 1445.75 Q123.015 1452.86 124.82 1456.42 Q126.649 1459.96 130.26 1459.96 Q133.895 1459.96 135.7 1456.42 Q137.529 1452.86 137.529 1445.75 Q137.529 1438.62 135.7 1435.08 Q133.895 1431.51 130.26 1431.51 M130.26 1427.81 Q136.07 1427.81 139.126 1432.42 Q142.205 1437 142.205 1445.75 Q142.205 1454.48 139.126 1459.08 Q136.07 1463.67 130.26 1463.67 Q124.45 1463.67 121.371 1459.08 Q118.316 1454.48 118.316 1445.75 Q118.316 1437 121.371 1432.42 Q124.45 1427.81 130.26 1427.81 Z" fill="#000000" fill-rule="evenodd" fill-opacity="1" /><path clip-path="url(#clip550)" d="M 0 0 M71.8578 1118.77 L88.1772 1118.77 L88.1772 1122.71 L66.2328 1122.71 L66.2328 1118.77 Q68.8949 1116.02 73.4782 1111.39 Q78.0846 1106.74 79.2652 1105.4 Q81.5105 1102.87 82.3902 1101.14 Q83.2929 1099.38 83.2929 1097.69 Q83.2929 1094.93 81.3485 1093.2 Q79.4272 1091.46 76.3254 1091.46 Q74.1263 1091.46 71.6726 1092.22 Q69.2421 1092.99 66.4643 1094.54 L66.4643 1089.82 Q69.2884 1088.68 71.7421 1088.1 Q74.1958 1087.53 76.2328 1087.53 Q81.6031 1087.53 84.7976 1090.21 Q87.992 1092.9 87.992 1097.39 Q87.992 1099.52 87.1818 1101.44 Q86.3948 1103.34 84.2883 1105.93 Q83.7096 1106.6 80.6078 1109.82 Q77.5059 1113.01 71.8578 1118.77 Z" fill="#000000" fill-rule="evenodd" fill-opacity="1" /><path clip-path="url(#clip550)" d="M 0 0 M103.247 1091.23 Q99.6354 1091.23 97.8068 1094.79 Q96.0012 1098.34 96.0012 1105.46 Q96.0012 1112.57 97.8068 1116.14 Q99.6354 1119.68 103.247 1119.68 Q106.881 1119.68 108.686 1116.14 Q110.515 1112.57 110.515 1105.46 Q110.515 1098.34 108.686 1094.79 Q106.881 1091.23 103.247 1091.23 M103.247 1087.53 Q109.057 1087.53 112.112 1092.13 Q115.191 1096.71 115.191 1105.46 Q115.191 1114.19 112.112 1118.8 Q109.057 1123.38 103.247 1123.38 Q97.4364 1123.38 94.3577 1118.8 Q91.3022 1114.19 91.3022 1105.46 Q91.3022 1096.71 94.3577 1092.13 Q97.4364 1087.53 103.247 1087.53 Z" fill="#000000" fill-rule="evenodd" fill-opacity="1" /><path clip-path="url(#clip550)" d="M 0 0 M130.26 1091.23 Q126.649 1091.23 124.82 1094.79 Q123.015 1098.34 123.015 1105.46 Q123.015 1112.57 124.82 1116.14 Q126.649 1119.68 130.26 1119.68 Q133.895 1119.68 135.7 1116.14 Q137.529 1112.57 137.529 1105.46 Q137.529 1098.34 135.7 1094.79 Q133.895 1091.23 130.26 1091.23 M130.26 1087.53 Q136.07 1087.53 139.126 1092.13 Q142.205 1096.71 142.205 1105.46 Q142.205 1114.19 139.126 1118.8 Q136.07 1123.38 130.26 1123.38 Q124.45 1123.38 121.371 1118.8 Q118.316 1114.19 118.316 1105.46 Q118.316 1096.71 121.371 1092.13 Q124.45 1087.53 130.26 1087.53 Z" fill="#000000" fill-rule="evenodd" fill-opacity="1" /><path clip-path="url(#clip550)" d="M 0 0 M78.5939 751.939 L66.7884 770.388 L78.5939 770.388 L78.5939 751.939 M77.367 747.865 L83.2466 747.865 L83.2466 770.388 L88.1772 770.388 L88.1772 774.276 L83.2466 774.276 L83.2466 782.425 L78.5939 782.425 L78.5939 774.276 L62.9921 774.276 L62.9921 769.763 L77.367 747.865 Z" fill="#000000" fill-rule="evenodd" fill-opacity="1" /><path clip-path="url(#clip550)" d="M 0 0 M103.247 750.943 Q99.6354 750.943 97.8068 754.508 Q96.0012 758.05 96.0012 765.179 Q96.0012 772.286 97.8068 775.851 Q99.6354 779.392 103.247 779.392 Q106.881 779.392 108.686 775.851 Q110.515 772.286 110.515 765.179 Q110.515 758.05 108.686 754.508 Q106.881 750.943 103.247 750.943 M103.247 747.24 Q109.057 747.24 112.112 751.846 Q115.191 756.429 115.191 765.179 Q115.191 773.906 112.112 778.513 Q109.057 783.096 103.247 783.096 Q97.4364 783.096 94.3577 778.513 Q91.3022 773.906 91.3022 765.179 Q91.3022 756.429 94.3577 751.846 Q97.4364 747.24 103.247 747.24 Z" fill="#000000" fill-rule="evenodd" fill-opacity="1" /><path clip-path="url(#clip550)" d="M 0 0 M130.26 750.943 Q126.649 750.943 124.82 754.508 Q123.015 758.05 123.015 765.179 Q123.015 772.286 124.82 775.851 Q126.649 779.392 130.26 779.392 Q133.895 779.392 135.7 775.851 Q137.529 772.286 137.529 765.179 Q137.529 758.05 135.7 754.508 Q133.895 750.943 130.26 750.943 M130.26 747.24 Q136.07 747.24 139.126 751.846 Q142.205 756.429 142.205 765.179 Q142.205 773.906 139.126 778.513 Q136.07 783.096 130.26 783.096 Q124.45 783.096 121.371 778.513 Q118.316 773.906 118.316 765.179 Q118.316 756.429 121.371 751.846 Q124.45 747.24 130.26 747.24 Z" fill="#000000" fill-rule="evenodd" fill-opacity="1" /><path clip-path="url(#clip550)" d="M 0 0 M76.6495 422.996 Q73.5013 422.996 71.6495 425.148 Q69.8208 427.301 69.8208 431.051 Q69.8208 434.778 71.6495 436.954 Q73.5013 439.107 76.6495 439.107 Q79.7976 439.107 81.6263 436.954 Q83.4781 434.778 83.4781 431.051 Q83.4781 427.301 81.6263 425.148 Q79.7976 422.996 76.6495 422.996 M85.9318 408.343 L85.9318 412.602 Q84.1726 411.769 82.367 411.329 Q80.5846 410.889 78.8254 410.889 Q74.1958 410.889 71.7421 414.014 Q69.3115 417.139 68.9643 423.459 Q70.33 421.445 72.3902 420.38 Q74.4504 419.292 76.9272 419.292 Q82.1355 419.292 85.1448 422.463 Q88.1772 425.611 88.1772 431.051 Q88.1772 436.375 85.029 439.593 Q81.8809 442.81 76.6495 442.81 Q70.6541 442.81 67.4828 438.227 Q64.3116 433.621 64.3116 424.894 Q64.3116 416.699 68.2004 411.838 Q72.0893 406.954 78.6402 406.954 Q80.3994 406.954 82.1818 407.301 Q83.9874 407.648 85.9318 408.343 Z" fill="#000000" fill-rule="evenodd" fill-opacity="1" /><path clip-path="url(#clip550)" d="M 0 0 M103.247 410.658 Q99.6354 410.658 97.8068 414.222 Q96.0012 417.764 96.0012 424.894 Q96.0012 432 97.8068 435.565 Q99.6354 439.107 103.247 439.107 Q106.881 439.107 108.686 435.565 Q110.515 432 110.515 424.894 Q110.515 417.764 108.686 414.222 Q106.881 410.658 103.247 410.658 M103.247 406.954 Q109.057 406.954 112.112 411.56 Q115.191 416.144 115.191 424.894 Q115.191 433.621 112.112 438.227 Q109.057 442.81 103.247 442.81 Q97.4364 442.81 94.3577 438.227 Q91.3022 433.621 91.3022 424.894 Q91.3022 416.144 94.3577 411.56 Q97.4364 406.954 103.247 406.954 Z" fill="#000000" fill-rule="evenodd" fill-opacity="1" /><path clip-path="url(#clip550)" d="M 0 0 M130.26 410.658 Q126.649 410.658 124.82 414.222 Q123.015 417.764 123.015 424.894 Q123.015 432 124.82 435.565 Q126.649 439.107 130.26 439.107 Q133.895 439.107 135.7 435.565 Q137.529 432 137.529 424.894 Q137.529 417.764 135.7 414.222 Q133.895 410.658 130.26 410.658 M130.26 406.954 Q136.07 406.954 139.126 411.56 Q142.205 416.144 142.205 424.894 Q142.205 433.621 139.126 438.227 Q136.07 442.81 130.26 442.81 Q124.45 442.81 121.371 438.227 Q118.316 433.621 118.316 424.894 Q118.316 416.144 121.371 411.56 Q124.45 406.954 130.26 406.954 Z" fill="#000000" fill-rule="evenodd" fill-opacity="1" /><path clip-path="url(#clip550)" d="M 0 0 M76.3254 85.4415 Q72.9921 85.4415 71.0708 87.2239 Q69.1726 89.0063 69.1726 92.1313 Q69.1726 95.2562 71.0708 97.0386 Q72.9921 98.821 76.3254 98.821 Q79.6587 98.821 81.58 97.0386 Q83.5013 95.2331 83.5013 92.1313 Q83.5013 89.0063 81.58 87.2239 Q79.6819 85.4415 76.3254 85.4415 M71.6495 83.4507 Q68.6402 82.71 66.9504 80.6498 Q65.2838 78.5897 65.2838 75.6267 Q65.2838 71.4832 68.2236 69.0758 Q71.1865 66.6684 76.3254 66.6684 Q81.4874 66.6684 84.4272 69.0758 Q87.367 71.4832 87.367 75.6267 Q87.367 78.5897 85.6772 80.6498 Q84.0105 82.71 81.0244 83.4507 Q84.404 84.2378 86.279 86.5294 Q88.1772 88.8211 88.1772 92.1313 Q88.1772 97.1544 85.0985 99.8395 Q82.0429 102.525 76.3254 102.525 Q70.6078 102.525 67.5291 99.8395 Q64.4736 97.1544 64.4736 92.1313 Q64.4736 88.8211 66.3717 86.5294 Q68.2699 84.2378 71.6495 83.4507 M69.9365 76.0665 Q69.9365 78.7517 71.6032 80.2563 Q73.293 81.7609 76.3254 81.7609 Q79.3346 81.7609 81.0244 80.2563 Q82.7374 78.7517 82.7374 76.0665 Q82.7374 73.3814 81.0244 71.8767 Q79.3346 70.3721 76.3254 70.3721 Q73.293 70.3721 71.6032 71.8767 Q69.9365 73.3814 69.9365 76.0665 Z" fill="#000000" fill-rule="evenodd" fill-opacity="1" /><path clip-path="url(#clip550)" d="M 0 0 M103.247 70.3721 Q99.6354 70.3721 97.8068 73.9369 Q96.0012 77.4786 96.0012 84.6081 Q96.0012 91.7146 97.8068 95.2794 Q99.6354 98.821 103.247 98.821 Q106.881 98.821 108.686 95.2794 Q110.515 91.7146 110.515 84.6081 Q110.515 77.4786 108.686 73.9369 Q106.881 70.3721 103.247 70.3721 M103.247 66.6684 Q109.057 66.6684 112.112 71.2749 Q115.191 75.8582 115.191 84.6081 Q115.191 93.3349 112.112 97.9414 Q109.057 102.525 103.247 102.525 Q97.4364 102.525 94.3577 97.9414 Q91.3022 93.3349 91.3022 84.6081 Q91.3022 75.8582 94.3577 71.2749 Q97.4364 66.6684 103.247 66.6684 Z" fill="#000000" fill-rule="evenodd" fill-opacity="1" /><path clip-path="url(#clip550)" d="M 0 0 M130.26 70.3721 Q126.649 70.3721 124.82 73.9369 Q123.015 77.4786 123.015 84.6081 Q123.015 91.7146 124.82 95.2794 Q126.649 98.821 130.26 98.821 Q133.895 98.821 135.7 95.2794 Q137.529 91.7146 137.529 84.6081 Q137.529 77.4786 135.7 73.9369 Q133.895 70.3721 130.26 70.3721 M130.26 66.6684 Q136.07 66.6684 139.126 71.2749 Q142.205 75.8582 142.205 84.6081 Q142.205 93.3349 139.126 97.9414 Q136.07 102.525 130.26 102.525 Q124.45 102.525 121.371 97.9414 Q118.316 93.3349 118.316 84.6081 Q118.316 75.8582 121.371 71.2749 Q124.45 66.6684 130.26 66.6684 Z" fill="#000000" fill-rule="evenodd" fill-opacity="1" /><path clip-path="url(#clip552)" d="
M286.469 1444.01 L286.469 1445.72 L311.418 1445.72 L311.418 1444.01 L286.469 1444.01 L286.469 1444.01  Z
  " fill="#009af9" fill-rule="evenodd" fill-opacity="1"/>
<polyline clip-path="url(#clip552)" style="stroke:#000000; stroke-width:4; stroke-opacity:1; fill:none" points="
  286.469,1444.01 286.469,1445.72 311.418,1445.72 311.418,1444.01 286.469,1444.01 
  "/>
<path clip-path="url(#clip552)" d="
M311.418 1444.01 L311.418 1445.72 L336.367 1445.72 L336.367 1444.01 L311.418 1444.01 L311.418 1444.01  Z
  " fill="#009af9" fill-rule="evenodd" fill-opacity="1"/>
<polyline clip-path="url(#clip552)" style="stroke:#000000; stroke-width:4; stroke-opacity:1; fill:none" points="
  311.418,1444.01 311.418,1445.72 336.367,1445.72 336.367,1444.01 311.418,1444.01 
  "/>
<path clip-path="url(#clip552)" d="
M336.367 1444.01 L336.367 1445.72 L361.316 1445.72 L361.316 1444.01 L336.367 1444.01 L336.367 1444.01  Z
  " fill="#009af9" fill-rule="evenodd" fill-opacity="1"/>
<polyline clip-path="url(#clip552)" style="stroke:#000000; stroke-width:4; stroke-opacity:1; fill:none" points="
  336.367,1444.01 336.367,1445.72 361.316,1445.72 361.316,1444.01 336.367,1444.01 
  "/>
<path clip-path="url(#clip552)" d="
M361.316 1445.72 L361.316 1445.72 L386.265 1445.72 L386.265 1445.72 L361.316 1445.72 L361.316 1445.72  Z
  " fill="#009af9" fill-rule="evenodd" fill-opacity="1"/>
<polyline clip-path="url(#clip552)" style="stroke:#000000; stroke-width:4; stroke-opacity:1; fill:none" points="
  361.316,1445.72 361.316,1445.72 386.265,1445.72 361.316,1445.72 
  "/>
<path clip-path="url(#clip552)" d="
M386.265 1444.01 L386.265 1445.72 L411.214 1445.72 L411.214 1444.01 L386.265 1444.01 L386.265 1444.01  Z
  " fill="#009af9" fill-rule="evenodd" fill-opacity="1"/>
<polyline clip-path="url(#clip552)" style="stroke:#000000; stroke-width:4; stroke-opacity:1; fill:none" points="
  386.265,1444.01 386.265,1445.72 411.214,1445.72 411.214,1444.01 386.265,1444.01 
  "/>
<path clip-path="url(#clip552)" d="
M411.214 1438.91 L411.214 1445.72 L436.163 1445.72 L436.163 1438.91 L411.214 1438.91 L411.214 1438.91  Z
  " fill="#009af9" fill-rule="evenodd" fill-opacity="1"/>
<polyline clip-path="url(#clip552)" style="stroke:#000000; stroke-width:4; stroke-opacity:1; fill:none" points="
  411.214,1438.91 411.214,1445.72 436.163,1445.72 436.163,1438.91 411.214,1438.91 
  "/>
<path clip-path="url(#clip552)" d="
M436.163 1444.01 L436.163 1445.72 L461.112 1445.72 L461.112 1444.01 L436.163 1444.01 L436.163 1444.01  Z
  " fill="#009af9" fill-rule="evenodd" fill-opacity="1"/>
<polyline clip-path="url(#clip552)" style="stroke:#000000; stroke-width:4; stroke-opacity:1; fill:none" points="
  436.163,1444.01 436.163,1445.72 461.112,1445.72 461.112,1444.01 436.163,1444.01 
  "/>
<path clip-path="url(#clip552)" d="
M461.112 1438.91 L461.112 1445.72 L486.061 1445.72 L486.061 1438.91 L461.112 1438.91 L461.112 1438.91  Z
  " fill="#009af9" fill-rule="evenodd" fill-opacity="1"/>
<polyline clip-path="url(#clip552)" style="stroke:#000000; stroke-width:4; stroke-opacity:1; fill:none" points="
  461.112,1438.91 461.112,1445.72 486.061,1445.72 486.061,1438.91 461.112,1438.91 
  "/>
<path clip-path="url(#clip552)" d="
M486.061 1437.21 L486.061 1445.72 L511.01 1445.72 L511.01 1437.21 L486.061 1437.21 L486.061 1437.21  Z
  " fill="#009af9" fill-rule="evenodd" fill-opacity="1"/>
<polyline clip-path="url(#clip552)" style="stroke:#000000; stroke-width:4; stroke-opacity:1; fill:none" points="
  486.061,1437.21 486.061,1445.72 511.01,1445.72 511.01,1437.21 486.061,1437.21 
  "/>
<path clip-path="url(#clip552)" d="
M511.01 1438.91 L511.01 1445.72 L535.959 1445.72 L535.959 1438.91 L511.01 1438.91 L511.01 1438.91  Z
  " fill="#009af9" fill-rule="evenodd" fill-opacity="1"/>
<polyline clip-path="url(#clip552)" style="stroke:#000000; stroke-width:4; stroke-opacity:1; fill:none" points="
  511.01,1438.91 511.01,1445.72 535.959,1445.72 535.959,1438.91 511.01,1438.91 
  "/>
<path clip-path="url(#clip552)" d="
M535.959 1437.21 L535.959 1445.72 L560.908 1445.72 L560.908 1437.21 L535.959 1437.21 L535.959 1437.21  Z
  " fill="#009af9" fill-rule="evenodd" fill-opacity="1"/>
<polyline clip-path="url(#clip552)" style="stroke:#000000; stroke-width:4; stroke-opacity:1; fill:none" points="
  535.959,1437.21 535.959,1445.72 560.908,1445.72 560.908,1437.21 535.959,1437.21 
  "/>
<path clip-path="url(#clip552)" d="
M560.908 1433.81 L560.908 1445.72 L585.857 1445.72 L585.857 1433.81 L560.908 1433.81 L560.908 1433.81  Z
  " fill="#009af9" fill-rule="evenodd" fill-opacity="1"/>
<polyline clip-path="url(#clip552)" style="stroke:#000000; stroke-width:4; stroke-opacity:1; fill:none" points="
  560.908,1433.81 560.908,1445.72 585.857,1445.72 585.857,1433.81 560.908,1433.81 
  "/>
<path clip-path="url(#clip552)" d="
M585.857 1435.51 L585.857 1445.72 L610.806 1445.72 L610.806 1435.51 L585.857 1435.51 L585.857 1435.51  Z
  " fill="#009af9" fill-rule="evenodd" fill-opacity="1"/>
<polyline clip-path="url(#clip552)" style="stroke:#000000; stroke-width:4; stroke-opacity:1; fill:none" points="
  585.857,1435.51 585.857,1445.72 610.806,1445.72 610.806,1435.51 585.857,1435.51 
  "/>
<path clip-path="url(#clip552)" d="
M610.806 1428.7 L610.806 1445.72 L635.755 1445.72 L635.755 1428.7 L610.806 1428.7 L610.806 1428.7  Z
  " fill="#009af9" fill-rule="evenodd" fill-opacity="1"/>
<polyline clip-path="url(#clip552)" style="stroke:#000000; stroke-width:4; stroke-opacity:1; fill:none" points="
  610.806,1428.7 610.806,1445.72 635.755,1445.72 635.755,1428.7 610.806,1428.7 
  "/>
<path clip-path="url(#clip552)" d="
M635.755 1423.6 L635.755 1445.72 L660.704 1445.72 L660.704 1423.6 L635.755 1423.6 L635.755 1423.6  Z
  " fill="#009af9" fill-rule="evenodd" fill-opacity="1"/>
<polyline clip-path="url(#clip552)" style="stroke:#000000; stroke-width:4; stroke-opacity:1; fill:none" points="
  635.755,1423.6 635.755,1445.72 660.704,1445.72 660.704,1423.6 635.755,1423.6 
  "/>
<path clip-path="url(#clip552)" d="
M660.704 1433.81 L660.704 1445.72 L685.653 1445.72 L685.653 1433.81 L660.704 1433.81 L660.704 1433.81  Z
  " fill="#009af9" fill-rule="evenodd" fill-opacity="1"/>
<polyline clip-path="url(#clip552)" style="stroke:#000000; stroke-width:4; stroke-opacity:1; fill:none" points="
  660.704,1433.81 660.704,1445.72 685.653,1445.72 685.653,1433.81 660.704,1433.81 
  "/>
<path clip-path="url(#clip552)" d="
M685.653 1418.49 L685.653 1445.72 L710.602 1445.72 L710.602 1418.49 L685.653 1418.49 L685.653 1418.49  Z
  " fill="#009af9" fill-rule="evenodd" fill-opacity="1"/>
<polyline clip-path="url(#clip552)" style="stroke:#000000; stroke-width:4; stroke-opacity:1; fill:none" points="
  685.653,1418.49 685.653,1445.72 710.602,1445.72 710.602,1418.49 685.653,1418.49 
  "/>
<path clip-path="url(#clip552)" d="
M710.602 1406.58 L710.602 1445.72 L735.551 1445.72 L735.551 1406.58 L710.602 1406.58 L710.602 1406.58  Z
  " fill="#009af9" fill-rule="evenodd" fill-opacity="1"/>
<polyline clip-path="url(#clip552)" style="stroke:#000000; stroke-width:4; stroke-opacity:1; fill:none" points="
  710.602,1406.58 710.602,1445.72 735.551,1445.72 735.551,1406.58 710.602,1406.58 
  "/>
<path clip-path="url(#clip552)" d="
M735.551 1392.97 L735.551 1445.72 L760.5 1445.72 L760.5 1392.97 L735.551 1392.97 L735.551 1392.97  Z
  " fill="#009af9" fill-rule="evenodd" fill-opacity="1"/>
<polyline clip-path="url(#clip552)" style="stroke:#000000; stroke-width:4; stroke-opacity:1; fill:none" points="
  735.551,1392.97 735.551,1445.72 760.5,1445.72 760.5,1392.97 735.551,1392.97 
  "/>
<path clip-path="url(#clip552)" d="
M760.5 1409.99 L760.5 1445.72 L785.449 1445.72 L785.449 1409.99 L760.5 1409.99 L760.5 1409.99  Z
  " fill="#009af9" fill-rule="evenodd" fill-opacity="1"/>
<polyline clip-path="url(#clip552)" style="stroke:#000000; stroke-width:4; stroke-opacity:1; fill:none" points="
  760.5,1409.99 760.5,1445.72 785.449,1445.72 785.449,1409.99 760.5,1409.99 
  "/>
<path clip-path="url(#clip552)" d="
M785.449 1377.66 L785.449 1445.72 L810.398 1445.72 L810.398 1377.66 L785.449 1377.66 L785.449 1377.66  Z
  " fill="#009af9" fill-rule="evenodd" fill-opacity="1"/>
<polyline clip-path="url(#clip552)" style="stroke:#000000; stroke-width:4; stroke-opacity:1; fill:none" points="
  785.449,1377.66 785.449,1445.72 810.398,1445.72 810.398,1377.66 785.449,1377.66 
  "/>
<path clip-path="url(#clip552)" d="
M810.398 1370.85 L810.398 1445.72 L835.347 1445.72 L835.347 1370.85 L810.398 1370.85 L810.398 1370.85  Z
  " fill="#009af9" fill-rule="evenodd" fill-opacity="1"/>
<polyline clip-path="url(#clip552)" style="stroke:#000000; stroke-width:4; stroke-opacity:1; fill:none" points="
  810.398,1370.85 810.398,1445.72 835.347,1445.72 835.347,1370.85 810.398,1370.85 
  "/>
<path clip-path="url(#clip552)" d="
M835.347 1374.26 L835.347 1445.72 L860.296 1445.72 L860.296 1374.26 L835.347 1374.26 L835.347 1374.26  Z
  " fill="#009af9" fill-rule="evenodd" fill-opacity="1"/>
<polyline clip-path="url(#clip552)" style="stroke:#000000; stroke-width:4; stroke-opacity:1; fill:none" points="
  835.347,1374.26 835.347,1445.72 860.296,1445.72 860.296,1374.26 835.347,1374.26 
  "/>
<path clip-path="url(#clip552)" d="
M860.296 1340.23 L860.296 1445.72 L885.245 1445.72 L885.245 1340.23 L860.296 1340.23 L860.296 1340.23  Z
  " fill="#009af9" fill-rule="evenodd" fill-opacity="1"/>
<polyline clip-path="url(#clip552)" style="stroke:#000000; stroke-width:4; stroke-opacity:1; fill:none" points="
  860.296,1340.23 860.296,1445.72 885.245,1445.72 885.245,1340.23 860.296,1340.23 
  "/>
<path clip-path="url(#clip552)" d="
M885.245 1314.71 L885.245 1445.72 L910.194 1445.72 L910.194 1314.71 L885.245 1314.71 L885.245 1314.71  Z
  " fill="#009af9" fill-rule="evenodd" fill-opacity="1"/>
<polyline clip-path="url(#clip552)" style="stroke:#000000; stroke-width:4; stroke-opacity:1; fill:none" points="
  885.245,1314.71 885.245,1445.72 910.194,1445.72 910.194,1314.71 885.245,1314.71 
  "/>
<path clip-path="url(#clip552)" d="
M910.194 1316.41 L910.194 1445.72 L935.143 1445.72 L935.143 1316.41 L910.194 1316.41 L910.194 1316.41  Z
  " fill="#009af9" fill-rule="evenodd" fill-opacity="1"/>
<polyline clip-path="url(#clip552)" style="stroke:#000000; stroke-width:4; stroke-opacity:1; fill:none" points="
  910.194,1316.41 910.194,1445.72 935.143,1445.72 935.143,1316.41 910.194,1316.41 
  "/>
<path clip-path="url(#clip552)" d="
M935.143 1319.81 L935.143 1445.72 L960.092 1445.72 L960.092 1319.81 L935.143 1319.81 L935.143 1319.81  Z
  " fill="#009af9" fill-rule="evenodd" fill-opacity="1"/>
<polyline clip-path="url(#clip552)" style="stroke:#000000; stroke-width:4; stroke-opacity:1; fill:none" points="
  935.143,1319.81 935.143,1445.72 960.092,1445.72 960.092,1319.81 935.143,1319.81 
  "/>
<path clip-path="url(#clip552)" d="
M960.092 1287.48 L960.092 1445.72 L985.041 1445.72 L985.041 1287.48 L960.092 1287.48 L960.092 1287.48  Z
  " fill="#009af9" fill-rule="evenodd" fill-opacity="1"/>
<polyline clip-path="url(#clip552)" style="stroke:#000000; stroke-width:4; stroke-opacity:1; fill:none" points="
  960.092,1287.48 960.092,1445.72 985.041,1445.72 985.041,1287.48 960.092,1287.48 
  "/>
<path clip-path="url(#clip552)" d="
M985.041 1306.2 L985.041 1445.72 L1009.99 1445.72 L1009.99 1306.2 L985.041 1306.2 L985.041 1306.2  Z
  " fill="#009af9" fill-rule="evenodd" fill-opacity="1"/>
<polyline clip-path="url(#clip552)" style="stroke:#000000; stroke-width:4; stroke-opacity:1; fill:none" points="
  985.041,1306.2 985.041,1445.72 1009.99,1445.72 1009.99,1306.2 985.041,1306.2 
  "/>
<path clip-path="url(#clip552)" d="
M1009.99 1255.16 L1009.99 1445.72 L1034.94 1445.72 L1034.94 1255.16 L1009.99 1255.16 L1009.99 1255.16  Z
  " fill="#009af9" fill-rule="evenodd" fill-opacity="1"/>
<polyline clip-path="url(#clip552)" style="stroke:#000000; stroke-width:4; stroke-opacity:1; fill:none" points="
  1009.99,1255.16 1009.99,1445.72 1034.94,1445.72 1034.94,1255.16 1009.99,1255.16 
  "/>
<path clip-path="url(#clip552)" d="
M1034.94 1280.68 L1034.94 1445.72 L1059.89 1445.72 L1059.89 1280.68 L1034.94 1280.68 L1034.94 1280.68  Z
  " fill="#009af9" fill-rule="evenodd" fill-opacity="1"/>
<polyline clip-path="url(#clip552)" style="stroke:#000000; stroke-width:4; stroke-opacity:1; fill:none" points="
  1034.94,1280.68 1034.94,1445.72 1059.89,1445.72 1059.89,1280.68 1034.94,1280.68 
  "/>
<path clip-path="url(#clip552)" d="
M1059.89 1285.78 L1059.89 1445.72 L1084.84 1445.72 L1084.84 1285.78 L1059.89 1285.78 L1059.89 1285.78  Z
  " fill="#009af9" fill-rule="evenodd" fill-opacity="1"/>
<polyline clip-path="url(#clip552)" style="stroke:#000000; stroke-width:4; stroke-opacity:1; fill:none" points="
  1059.89,1285.78 1059.89,1445.72 1084.84,1445.72 1084.84,1285.78 1059.89,1285.78 
  "/>
<path clip-path="url(#clip552)" d="
M1084.84 1248.35 L1084.84 1445.72 L1109.79 1445.72 L1109.79 1248.35 L1084.84 1248.35 L1084.84 1248.35  Z
  " fill="#009af9" fill-rule="evenodd" fill-opacity="1"/>
<polyline clip-path="url(#clip552)" style="stroke:#000000; stroke-width:4; stroke-opacity:1; fill:none" points="
  1084.84,1248.35 1084.84,1445.72 1109.79,1445.72 1109.79,1248.35 1084.84,1248.35 
  "/>
<path clip-path="url(#clip552)" d="
M1109.79 1253.45 L1109.79 1445.72 L1134.74 1445.72 L1134.74 1253.45 L1109.79 1253.45 L1109.79 1253.45  Z
  " fill="#009af9" fill-rule="evenodd" fill-opacity="1"/>
<polyline clip-path="url(#clip552)" style="stroke:#000000; stroke-width:4; stroke-opacity:1; fill:none" points="
  1109.79,1253.45 1109.79,1445.72 1134.74,1445.72 1134.74,1253.45 1109.79,1253.45 
  "/>
<path clip-path="url(#clip552)" d="
M1134.74 1244.95 L1134.74 1445.72 L1159.68 1445.72 L1159.68 1244.95 L1134.74 1244.95 L1134.74 1244.95  Z
  " fill="#009af9" fill-rule="evenodd" fill-opacity="1"/>
<polyline clip-path="url(#clip552)" style="stroke:#000000; stroke-width:4; stroke-opacity:1; fill:none" points="
  1134.74,1244.95 1134.74,1445.72 1159.68,1445.72 1159.68,1244.95 1134.74,1244.95 
  "/>
<path clip-path="url(#clip552)" d="
M1159.68 1238.14 L1159.68 1445.72 L1184.63 1445.72 L1184.63 1238.14 L1159.68 1238.14 L1159.68 1238.14  Z
  " fill="#009af9" fill-rule="evenodd" fill-opacity="1"/>
<polyline clip-path="url(#clip552)" style="stroke:#000000; stroke-width:4; stroke-opacity:1; fill:none" points="
  1159.68,1238.14 1159.68,1445.72 1184.63,1445.72 1184.63,1238.14 1159.68,1238.14 
  "/>
<path clip-path="url(#clip552)" d="
M1184.63 1227.93 L1184.63 1445.72 L1209.58 1445.72 L1209.58 1227.93 L1184.63 1227.93 L1184.63 1227.93  Z
  " fill="#009af9" fill-rule="evenodd" fill-opacity="1"/>
<polyline clip-path="url(#clip552)" style="stroke:#000000; stroke-width:4; stroke-opacity:1; fill:none" points="
  1184.63,1227.93 1184.63,1445.72 1209.58,1445.72 1209.58,1227.93 1184.63,1227.93 
  "/>
<path clip-path="url(#clip552)" d="
M1209.58 1256.86 L1209.58 1445.72 L1234.53 1445.72 L1234.53 1256.86 L1209.58 1256.86 L1209.58 1256.86  Z
  " fill="#009af9" fill-rule="evenodd" fill-opacity="1"/>
<polyline clip-path="url(#clip552)" style="stroke:#000000; stroke-width:4; stroke-opacity:1; fill:none" points="
  1209.58,1256.86 1209.58,1445.72 1234.53,1445.72 1234.53,1256.86 1209.58,1256.86 
  "/>
<path clip-path="url(#clip552)" d="
M1234.53 1210.92 L1234.53 1445.72 L1259.48 1445.72 L1259.48 1210.92 L1234.53 1210.92 L1234.53 1210.92  Z
  " fill="#009af9" fill-rule="evenodd" fill-opacity="1"/>
<polyline clip-path="url(#clip552)" style="stroke:#000000; stroke-width:4; stroke-opacity:1; fill:none" points="
  1234.53,1210.92 1234.53,1445.72 1259.48,1445.72 1259.48,1210.92 1234.53,1210.92 
  "/>
<path clip-path="url(#clip552)" d="
M1259.48 805.979 L1259.48 1445.72 L1284.43 1445.72 L1284.43 805.979 L1259.48 805.979 L1259.48 805.979  Z
  " fill="#009af9" fill-rule="evenodd" fill-opacity="1"/>
<polyline clip-path="url(#clip552)" style="stroke:#000000; stroke-width:4; stroke-opacity:1; fill:none" points="
  1259.48,805.979 1259.48,1445.72 1284.43,1445.72 1284.43,805.979 1259.48,805.979 
  "/>
<path clip-path="url(#clip552)" d="
M1284.43 87.9763 L1284.43 1445.72 L1309.38 1445.72 L1309.38 87.9763 L1284.43 87.9763 L1284.43 87.9763  Z
  " fill="#009af9" fill-rule="evenodd" fill-opacity="1"/>
<polyline clip-path="url(#clip552)" style="stroke:#000000; stroke-width:4; stroke-opacity:1; fill:none" points="
  1284.43,87.9763 1284.43,1445.72 1309.38,1445.72 1309.38,87.9763 1284.43,87.9763 
  "/>
<path clip-path="url(#clip552)" d="
M1309.38 139.019 L1309.38 1445.72 L1334.33 1445.72 L1334.33 139.019 L1309.38 139.019 L1309.38 139.019  Z
  " fill="#009af9" fill-rule="evenodd" fill-opacity="1"/>
<polyline clip-path="url(#clip552)" style="stroke:#000000; stroke-width:4; stroke-opacity:1; fill:none" points="
  1309.38,139.019 1309.38,1445.72 1334.33,1445.72 1334.33,139.019 1309.38,139.019 
  "/>
<path clip-path="url(#clip552)" d="
M1334.33 800.875 L1334.33 1445.72 L1359.28 1445.72 L1359.28 800.875 L1334.33 800.875 L1334.33 800.875  Z
  " fill="#009af9" fill-rule="evenodd" fill-opacity="1"/>
<polyline clip-path="url(#clip552)" style="stroke:#000000; stroke-width:4; stroke-opacity:1; fill:none" points="
  1334.33,800.875 1334.33,1445.72 1359.28,1445.72 1359.28,800.875 1334.33,800.875 
  "/>
<path clip-path="url(#clip552)" d="
M1359.28 1239.84 L1359.28 1445.72 L1384.23 1445.72 L1384.23 1239.84 L1359.28 1239.84 L1359.28 1239.84  Z
  " fill="#009af9" fill-rule="evenodd" fill-opacity="1"/>
<polyline clip-path="url(#clip552)" style="stroke:#000000; stroke-width:4; stroke-opacity:1; fill:none" points="
  1359.28,1239.84 1359.28,1445.72 1384.23,1445.72 1384.23,1239.84 1359.28,1239.84 
  "/>
<path clip-path="url(#clip552)" d="
M1384.23 1285.78 L1384.23 1445.72 L1409.17 1445.72 L1409.17 1285.78 L1384.23 1285.78 L1384.23 1285.78  Z
  " fill="#009af9" fill-rule="evenodd" fill-opacity="1"/>
<polyline clip-path="url(#clip552)" style="stroke:#000000; stroke-width:4; stroke-opacity:1; fill:none" points="
  1384.23,1285.78 1384.23,1445.72 1409.17,1445.72 1409.17,1285.78 1384.23,1285.78 
  "/>
<path clip-path="url(#clip552)" d="
M1409.17 1323.21 L1409.17 1445.72 L1434.12 1445.72 L1434.12 1323.21 L1409.17 1323.21 L1409.17 1323.21  Z
  " fill="#009af9" fill-rule="evenodd" fill-opacity="1"/>
<polyline clip-path="url(#clip552)" style="stroke:#000000; stroke-width:4; stroke-opacity:1; fill:none" points="
  1409.17,1323.21 1409.17,1445.72 1434.12,1445.72 1434.12,1323.21 1409.17,1323.21 
  "/>
<path clip-path="url(#clip552)" d="
M1434.12 1330.02 L1434.12 1445.72 L1459.07 1445.72 L1459.07 1330.02 L1434.12 1330.02 L1434.12 1330.02  Z
  " fill="#009af9" fill-rule="evenodd" fill-opacity="1"/>
<polyline clip-path="url(#clip552)" style="stroke:#000000; stroke-width:4; stroke-opacity:1; fill:none" points="
  1434.12,1330.02 1434.12,1445.72 1459.07,1445.72 1459.07,1330.02 1434.12,1330.02 
  "/>
<path clip-path="url(#clip552)" d="
M1459.07 1319.81 L1459.07 1445.72 L1484.02 1445.72 L1484.02 1319.81 L1459.07 1319.81 L1459.07 1319.81  Z
  " fill="#009af9" fill-rule="evenodd" fill-opacity="1"/>
<polyline clip-path="url(#clip552)" style="stroke:#000000; stroke-width:4; stroke-opacity:1; fill:none" points="
  1459.07,1319.81 1459.07,1445.72 1484.02,1445.72 1484.02,1319.81 1459.07,1319.81 
  "/>
<path clip-path="url(#clip552)" d="
M1484.02 1347.03 L1484.02 1445.72 L1508.97 1445.72 L1508.97 1347.03 L1484.02 1347.03 L1484.02 1347.03  Z
  " fill="#009af9" fill-rule="evenodd" fill-opacity="1"/>
<polyline clip-path="url(#clip552)" style="stroke:#000000; stroke-width:4; stroke-opacity:1; fill:none" points="
  1484.02,1347.03 1484.02,1445.72 1508.97,1445.72 1508.97,1347.03 1484.02,1347.03 
  "/>
<path clip-path="url(#clip552)" d="
M1508.97 1381.06 L1508.97 1445.72 L1533.92 1445.72 L1533.92 1381.06 L1508.97 1381.06 L1508.97 1381.06  Z
  " fill="#009af9" fill-rule="evenodd" fill-opacity="1"/>
<polyline clip-path="url(#clip552)" style="stroke:#000000; stroke-width:4; stroke-opacity:1; fill:none" points="
  1508.97,1381.06 1508.97,1445.72 1533.92,1445.72 1533.92,1381.06 1508.97,1381.06 
  "/>
<path clip-path="url(#clip552)" d="
M1533.92 1367.45 L1533.92 1445.72 L1558.87 1445.72 L1558.87 1367.45 L1533.92 1367.45 L1533.92 1367.45  Z
  " fill="#009af9" fill-rule="evenodd" fill-opacity="1"/>
<polyline clip-path="url(#clip552)" style="stroke:#000000; stroke-width:4; stroke-opacity:1; fill:none" points="
  1533.92,1367.45 1533.92,1445.72 1558.87,1445.72 1558.87,1367.45 1533.92,1367.45 
  "/>
<path clip-path="url(#clip552)" d="
M1558.87 1375.96 L1558.87 1445.72 L1583.82 1445.72 L1583.82 1375.96 L1558.87 1375.96 L1558.87 1375.96  Z
  " fill="#009af9" fill-rule="evenodd" fill-opacity="1"/>
<polyline clip-path="url(#clip552)" style="stroke:#000000; stroke-width:4; stroke-opacity:1; fill:none" points="
  1558.87,1375.96 1558.87,1445.72 1583.82,1445.72 1583.82,1375.96 1558.87,1375.96 
  "/>
<path clip-path="url(#clip552)" d="
M1583.82 1386.17 L1583.82 1445.72 L1608.77 1445.72 L1608.77 1386.17 L1583.82 1386.17 L1583.82 1386.17  Z
  " fill="#009af9" fill-rule="evenodd" fill-opacity="1"/>
<polyline clip-path="url(#clip552)" style="stroke:#000000; stroke-width:4; stroke-opacity:1; fill:none" points="
  1583.82,1386.17 1583.82,1445.72 1608.77,1445.72 1608.77,1386.17 1583.82,1386.17 
  "/>
<path clip-path="url(#clip552)" d="
M1608.77 1384.46 L1608.77 1445.72 L1633.72 1445.72 L1633.72 1384.46 L1608.77 1384.46 L1608.77 1384.46  Z
  " fill="#009af9" fill-rule="evenodd" fill-opacity="1"/>
<polyline clip-path="url(#clip552)" style="stroke:#000000; stroke-width:4; stroke-opacity:1; fill:none" points="
  1608.77,1384.46 1608.77,1445.72 1633.72,1445.72 1633.72,1384.46 1608.77,1384.46 
  "/>
<path clip-path="url(#clip552)" d="
M1633.72 1413.39 L1633.72 1445.72 L1658.66 1445.72 L1658.66 1413.39 L1633.72 1413.39 L1633.72 1413.39  Z
  " fill="#009af9" fill-rule="evenodd" fill-opacity="1"/>
<polyline clip-path="url(#clip552)" style="stroke:#000000; stroke-width:4; stroke-opacity:1; fill:none" points="
  1633.72,1413.39 1633.72,1445.72 1658.66,1445.72 1658.66,1413.39 1633.72,1413.39 
  "/>
<path clip-path="url(#clip552)" d="
M1658.66 1418.49 L1658.66 1445.72 L1683.61 1445.72 L1683.61 1418.49 L1658.66 1418.49 L1658.66 1418.49  Z
  " fill="#009af9" fill-rule="evenodd" fill-opacity="1"/>
<polyline clip-path="url(#clip552)" style="stroke:#000000; stroke-width:4; stroke-opacity:1; fill:none" points="
  1658.66,1418.49 1658.66,1445.72 1683.61,1445.72 1683.61,1418.49 1658.66,1418.49 
  "/>
<path clip-path="url(#clip552)" d="
M1683.61 1425.3 L1683.61 1445.72 L1708.56 1445.72 L1708.56 1425.3 L1683.61 1425.3 L1683.61 1425.3  Z
  " fill="#009af9" fill-rule="evenodd" fill-opacity="1"/>
<polyline clip-path="url(#clip552)" style="stroke:#000000; stroke-width:4; stroke-opacity:1; fill:none" points="
  1683.61,1425.3 1683.61,1445.72 1708.56,1445.72 1708.56,1425.3 1683.61,1425.3 
  "/>
<path clip-path="url(#clip552)" d="
M1708.56 1423.6 L1708.56 1445.72 L1733.51 1445.72 L1733.51 1423.6 L1708.56 1423.6 L1708.56 1423.6  Z
  " fill="#009af9" fill-rule="evenodd" fill-opacity="1"/>
<polyline clip-path="url(#clip552)" style="stroke:#000000; stroke-width:4; stroke-opacity:1; fill:none" points="
  1708.56,1423.6 1708.56,1445.72 1733.51,1445.72 1733.51,1423.6 1708.56,1423.6 
  "/>
<path clip-path="url(#clip552)" d="
M1733.51 1428.7 L1733.51 1445.72 L1758.46 1445.72 L1758.46 1428.7 L1733.51 1428.7 L1733.51 1428.7  Z
  " fill="#009af9" fill-rule="evenodd" fill-opacity="1"/>
<polyline clip-path="url(#clip552)" style="stroke:#000000; stroke-width:4; stroke-opacity:1; fill:none" points="
  1733.51,1428.7 1733.51,1445.72 1758.46,1445.72 1758.46,1428.7 1733.51,1428.7 
  "/>
<path clip-path="url(#clip552)" d="
M1758.46 1438.91 L1758.46 1445.72 L1783.41 1445.72 L1783.41 1438.91 L1758.46 1438.91 L1758.46 1438.91  Z
  " fill="#009af9" fill-rule="evenodd" fill-opacity="1"/>
<polyline clip-path="url(#clip552)" style="stroke:#000000; stroke-width:4; stroke-opacity:1; fill:none" points="
  1758.46,1438.91 1758.46,1445.72 1783.41,1445.72 1783.41,1438.91 1758.46,1438.91 
  "/>
<path clip-path="url(#clip552)" d="
M1783.41 1440.61 L1783.41 1445.72 L1808.36 1445.72 L1808.36 1440.61 L1783.41 1440.61 L1783.41 1440.61  Z
  " fill="#009af9" fill-rule="evenodd" fill-opacity="1"/>
<polyline clip-path="url(#clip552)" style="stroke:#000000; stroke-width:4; stroke-opacity:1; fill:none" points="
  1783.41,1440.61 1783.41,1445.72 1808.36,1445.72 1808.36,1440.61 1783.41,1440.61 
  "/>
<path clip-path="url(#clip552)" d="
M1808.36 1442.31 L1808.36 1445.72 L1833.31 1445.72 L1833.31 1442.31 L1808.36 1442.31 L1808.36 1442.31  Z
  " fill="#009af9" fill-rule="evenodd" fill-opacity="1"/>
<polyline clip-path="url(#clip552)" style="stroke:#000000; stroke-width:4; stroke-opacity:1; fill:none" points="
  1808.36,1442.31 1808.36,1445.72 1833.31,1445.72 1833.31,1442.31 1808.36,1442.31 
  "/>
<path clip-path="url(#clip552)" d="
M1833.31 1442.31 L1833.31 1445.72 L1858.26 1445.72 L1858.26 1442.31 L1833.31 1442.31 L1833.31 1442.31  Z
  " fill="#009af9" fill-rule="evenodd" fill-opacity="1"/>
<polyline clip-path="url(#clip552)" style="stroke:#000000; stroke-width:4; stroke-opacity:1; fill:none" points="
  1833.31,1442.31 1833.31,1445.72 1858.26,1445.72 1858.26,1442.31 1833.31,1442.31 
  "/>
<path clip-path="url(#clip552)" d="
M1858.26 1442.31 L1858.26 1445.72 L1883.21 1445.72 L1883.21 1442.31 L1858.26 1442.31 L1858.26 1442.31  Z
  " fill="#009af9" fill-rule="evenodd" fill-opacity="1"/>
<polyline clip-path="url(#clip552)" style="stroke:#000000; stroke-width:4; stroke-opacity:1; fill:none" points="
  1858.26,1442.31 1858.26,1445.72 1883.21,1445.72 1883.21,1442.31 1858.26,1442.31 
  "/>
<path clip-path="url(#clip552)" d="
M1883.21 1437.21 L1883.21 1445.72 L1908.15 1445.72 L1908.15 1437.21 L1883.21 1437.21 L1883.21 1437.21  Z
  " fill="#009af9" fill-rule="evenodd" fill-opacity="1"/>
<polyline clip-path="url(#clip552)" style="stroke:#000000; stroke-width:4; stroke-opacity:1; fill:none" points="
  1883.21,1437.21 1883.21,1445.72 1908.15,1445.72 1908.15,1437.21 1883.21,1437.21 
  "/>
<path clip-path="url(#clip552)" d="
M1908.15 1437.21 L1908.15 1445.72 L1933.1 1445.72 L1933.1 1437.21 L1908.15 1437.21 L1908.15 1437.21  Z
  " fill="#009af9" fill-rule="evenodd" fill-opacity="1"/>
<polyline clip-path="url(#clip552)" style="stroke:#000000; stroke-width:4; stroke-opacity:1; fill:none" points="
  1908.15,1437.21 1908.15,1445.72 1933.1,1445.72 1933.1,1437.21 1908.15,1437.21 
  "/>
<path clip-path="url(#clip552)" d="
M1933.1 1445.72 L1933.1 1445.72 L1958.05 1445.72 L1958.05 1445.72 L1933.1 1445.72 L1933.1 1445.72  Z
  " fill="#009af9" fill-rule="evenodd" fill-opacity="1"/>
<polyline clip-path="url(#clip552)" style="stroke:#000000; stroke-width:4; stroke-opacity:1; fill:none" points="
  1933.1,1445.72 1933.1,1445.72 1958.05,1445.72 1933.1,1445.72 
  "/>
<path clip-path="url(#clip552)" d="
M1958.05 1445.72 L1958.05 1445.72 L1983 1445.72 L1983 1445.72 L1958.05 1445.72 L1958.05 1445.72  Z
  " fill="#009af9" fill-rule="evenodd" fill-opacity="1"/>
<polyline clip-path="url(#clip552)" style="stroke:#000000; stroke-width:4; stroke-opacity:1; fill:none" points="
  1958.05,1445.72 1958.05,1445.72 1983,1445.72 1958.05,1445.72 
  "/>
<path clip-path="url(#clip552)" d="
M1983 1444.01 L1983 1445.72 L2007.95 1445.72 L2007.95 1444.01 L1983 1444.01 L1983 1444.01  Z
  " fill="#009af9" fill-rule="evenodd" fill-opacity="1"/>
<polyline clip-path="url(#clip552)" style="stroke:#000000; stroke-width:4; stroke-opacity:1; fill:none" points="
  1983,1444.01 1983,1445.72 2007.95,1445.72 2007.95,1444.01 1983,1444.01 
  "/>
<path clip-path="url(#clip552)" d="
M2007.95 1445.72 L2007.95 1445.72 L2032.9 1445.72 L2032.9 1445.72 L2007.95 1445.72 L2007.95 1445.72  Z
  " fill="#009af9" fill-rule="evenodd" fill-opacity="1"/>
<polyline clip-path="url(#clip552)" style="stroke:#000000; stroke-width:4; stroke-opacity:1; fill:none" points="
  2007.95,1445.72 2007.95,1445.72 2032.9,1445.72 2007.95,1445.72 
  "/>
<path clip-path="url(#clip552)" d="
M2032.9 1445.72 L2032.9 1445.72 L2057.85 1445.72 L2057.85 1445.72 L2032.9 1445.72 L2032.9 1445.72  Z
  " fill="#009af9" fill-rule="evenodd" fill-opacity="1"/>
<polyline clip-path="url(#clip552)" style="stroke:#000000; stroke-width:4; stroke-opacity:1; fill:none" points="
  2032.9,1445.72 2032.9,1445.72 2057.85,1445.72 2032.9,1445.72 
  "/>
<path clip-path="url(#clip552)" d="
M2057.85 1445.72 L2057.85 1445.72 L2082.8 1445.72 L2082.8 1445.72 L2057.85 1445.72 L2057.85 1445.72  Z
  " fill="#009af9" fill-rule="evenodd" fill-opacity="1"/>
<polyline clip-path="url(#clip552)" style="stroke:#000000; stroke-width:4; stroke-opacity:1; fill:none" points="
  2057.85,1445.72 2057.85,1445.72 2082.8,1445.72 2057.85,1445.72 
  "/>
<path clip-path="url(#clip552)" d="
M2082.8 1444.01 L2082.8 1445.72 L2107.75 1445.72 L2107.75 1444.01 L2082.8 1444.01 L2082.8 1444.01  Z
  " fill="#009af9" fill-rule="evenodd" fill-opacity="1"/>
<polyline clip-path="url(#clip552)" style="stroke:#000000; stroke-width:4; stroke-opacity:1; fill:none" points="
  2082.8,1444.01 2082.8,1445.72 2107.75,1445.72 2107.75,1444.01 2082.8,1444.01 
  "/>
<path clip-path="url(#clip552)" d="
M2107.75 1445.72 L2107.75 1445.72 L2132.7 1445.72 L2132.7 1445.72 L2107.75 1445.72 L2107.75 1445.72  Z
  " fill="#009af9" fill-rule="evenodd" fill-opacity="1"/>
<polyline clip-path="url(#clip552)" style="stroke:#000000; stroke-width:4; stroke-opacity:1; fill:none" points="
  2107.75,1445.72 2107.75,1445.72 2132.7,1445.72 2107.75,1445.72 
  "/>
<path clip-path="url(#clip552)" d="
M2132.7 1445.72 L2132.7 1445.72 L2157.64 1445.72 L2157.64 1445.72 L2132.7 1445.72 L2132.7 1445.72  Z
  " fill="#009af9" fill-rule="evenodd" fill-opacity="1"/>
<polyline clip-path="url(#clip552)" style="stroke:#000000; stroke-width:4; stroke-opacity:1; fill:none" points="
  2132.7,1445.72 2132.7,1445.72 2157.64,1445.72 2132.7,1445.72 
  "/>
<path clip-path="url(#clip552)" d="
M2157.64 1445.72 L2157.64 1445.72 L2182.59 1445.72 L2182.59 1445.72 L2157.64 1445.72 L2157.64 1445.72  Z
  " fill="#009af9" fill-rule="evenodd" fill-opacity="1"/>
<polyline clip-path="url(#clip552)" style="stroke:#000000; stroke-width:4; stroke-opacity:1; fill:none" points="
  2157.64,1445.72 2157.64,1445.72 2182.59,1445.72 2157.64,1445.72 
  "/>
<path clip-path="url(#clip552)" d="
M2182.59 1445.72 L2182.59 1445.72 L2207.54 1445.72 L2207.54 1445.72 L2182.59 1445.72 L2182.59 1445.72  Z
  " fill="#009af9" fill-rule="evenodd" fill-opacity="1"/>
<polyline clip-path="url(#clip552)" style="stroke:#000000; stroke-width:4; stroke-opacity:1; fill:none" points="
  2182.59,1445.72 2182.59,1445.72 2207.54,1445.72 2182.59,1445.72 
  "/>
<path clip-path="url(#clip552)" d="
M2207.54 1444.01 L2207.54 1445.72 L2232.49 1445.72 L2232.49 1444.01 L2207.54 1444.01 L2207.54 1444.01  Z
  " fill="#009af9" fill-rule="evenodd" fill-opacity="1"/>
<polyline clip-path="url(#clip552)" style="stroke:#000000; stroke-width:4; stroke-opacity:1; fill:none" points="
  2207.54,1444.01 2207.54,1445.72 2232.49,1445.72 2232.49,1444.01 2207.54,1444.01 
  "/>
<path clip-path="url(#clip550)" d="
M2061.74 155.698 L2352.76 155.698 L2352.76 34.7376 L2061.74 34.7376  Z
  " fill="#ffffff" fill-rule="evenodd" fill-opacity="1"/>
<polyline clip-path="url(#clip550)" style="stroke:#000000; stroke-width:4; stroke-opacity:1; fill:none" points="
  2061.74,155.698 2352.76,155.698 2352.76,34.7376 2061.74,34.7376 2061.74,155.698 
  "/>
<path clip-path="url(#clip550)" d="
M2085.74 119.41 L2229.74 119.41 L2229.74 71.0256 L2085.74 71.0256 L2085.74 119.41  Z
  " fill="#009af9" fill-rule="evenodd" fill-opacity="1"/>
<polyline clip-path="url(#clip550)" style="stroke:#000000; stroke-width:4; stroke-opacity:1; fill:none" points="
  2085.74,119.41 2229.74,119.41 2229.74,71.0256 2085.74,71.0256 2085.74,119.41 
  "/>
<path clip-path="url(#clip550)" d="M 0 0 M2267.58 114.905 Q2265.77 119.535 2264.06 120.947 Q2262.35 122.359 2259.48 122.359 L2256.08 122.359 L2256.08 118.794 L2258.58 118.794 Q2260.33 118.794 2261.31 117.96 Q2262.28 117.127 2263.46 114.025 L2264.22 112.081 L2253.74 86.5718 L2258.25 86.5718 L2266.35 106.849 L2274.46 86.5718 L2278.97 86.5718 L2267.58 114.905 Z" fill="#000000" fill-rule="evenodd" fill-opacity="1" /><path clip-path="url(#clip550)" d="M 0 0 M2284.85 108.562 L2292.49 108.562 L2292.49 82.1968 L2284.18 83.8634 L2284.18 79.6042 L2292.44 77.9376 L2297.12 77.9376 L2297.12 108.562 L2304.76 108.562 L2304.76 112.498 L2284.85 112.498 L2284.85 108.562 Z" fill="#000000" fill-rule="evenodd" fill-opacity="1" /></svg>
