<?xml version="1.0" encoding="utf-8"?>
<svg xmlns="http://www.w3.org/2000/svg" xmlns:xlink="http://www.w3.org/1999/xlink" width="600" height="400" viewBox="0 0 2400 1600">
<defs>
  <clipPath id="clip890">
    <rect x="0" y="0" width="2400" height="1600"/>
  </clipPath>
</defs>
<path clip-path="url(#clip890)" d="
M0 1600 L2400 1600 L2400 0 L0 0  Z
  " fill="#ffffff" fill-rule="evenodd" fill-opacity="1"/>
<defs>
  <clipPath id="clip891">
    <rect x="480" y="0" width="1681" height="1600"/>
  </clipPath>
</defs>
<path clip-path="url(#clip890)" d="
M166.205 1486.45 L2352.76 1486.45 L2352.76 47.2441 L166.205 47.2441  Z
  " fill="#ffffff" fill-rule="evenodd" fill-opacity="1"/>
<defs>
  <clipPath id="clip892">
    <rect x="166" y="47" width="2188" height="1440"/>
  </clipPath>
</defs>
<polyline clip-path="url(#clip892)" style="stroke:#000000; stroke-width:2; stroke-opacity:0.1; fill:none" points="
  460.74,1486.45 460.74,47.2441 
  "/>
<polyline clip-path="url(#clip892)" style="stroke:#000000; stroke-width:2; stroke-opacity:0.1; fill:none" points="
  896.416,1486.45 896.416,47.2441 
  "/>
<polyline clip-path="url(#clip892)" style="stroke:#000000; stroke-width:2; stroke-opacity:0.1; fill:none" points="
  1332.09,1486.45 1332.09,47.2441 
  "/>
<polyline clip-path="url(#clip892)" style="stroke:#000000; stroke-width:2; stroke-opacity:0.1; fill:none" points="
  1767.77,1486.45 1767.77,47.2441 
  "/>
<polyline clip-path="url(#clip892)" style="stroke:#000000; stroke-width:2; stroke-opacity:0.1; fill:none" points="
  2203.45,1486.45 2203.45,47.2441 
  "/>
<polyline clip-path="url(#clip892)" style="stroke:#000000; stroke-width:2; stroke-opacity:0.1; fill:none" points="
  166.205,1445.72 2352.76,1445.72 
  "/>
<polyline clip-path="url(#clip892)" style="stroke:#000000; stroke-width:2; stroke-opacity:0.1; fill:none" points="
  166.205,1106.28 2352.76,1106.28 
  "/>
<polyline clip-path="url(#clip892)" style="stroke:#000000; stroke-width:2; stroke-opacity:0.1; fill:none" points="
  166.205,766.846 2352.76,766.846 
  "/>
<polyline clip-path="url(#clip892)" style="stroke:#000000; stroke-width:2; stroke-opacity:0.1; fill:none" points="
  166.205,427.411 2352.76,427.411 
  "/>
<polyline clip-path="url(#clip892)" style="stroke:#000000; stroke-width:2; stroke-opacity:0.1; fill:none" points="
  166.205,87.9763 2352.76,87.9763 
  "/>
<polyline clip-path="url(#clip890)" style="stroke:#000000; stroke-width:4; stroke-opacity:1; fill:none" points="
  166.205,1486.45 2352.76,1486.45 
  "/>
<polyline clip-path="url(#clip890)" style="stroke:#000000; stroke-width:4; stroke-opacity:1; fill:none" points="
  166.205,1486.45 166.205,47.2441 
  "/>
<polyline clip-path="url(#clip890)" style="stroke:#000000; stroke-width:4; stroke-opacity:1; fill:none" points="
  460.74,1486.45 460.74,1469.18 
  "/>
<polyline clip-path="url(#clip890)" style="stroke:#000000; stroke-width:4; stroke-opacity:1; fill:none" points="
  896.416,1486.45 896.416,1469.18 
  "/>
<polyline clip-path="url(#clip890)" style="stroke:#000000; stroke-width:4; stroke-opacity:1; fill:none" points="
  1332.09,1486.45 1332.09,1469.18 
  "/>
<polyline clip-path="url(#clip890)" style="stroke:#000000; stroke-width:4; stroke-opacity:1; fill:none" points="
  1767.77,1486.45 1767.77,1469.18 
  "/>
<polyline clip-path="url(#clip890)" style="stroke:#000000; stroke-width:4; stroke-opacity:1; fill:none" points="
  2203.45,1486.45 2203.45,1469.18 
  "/>
<polyline clip-path="url(#clip890)" style="stroke:#000000; stroke-width:4; stroke-opacity:1; fill:none" points="
  166.205,1445.72 192.443,1445.72 
  "/>
<polyline clip-path="url(#clip890)" style="stroke:#000000; stroke-width:4; stroke-opacity:1; fill:none" points="
  166.205,1106.28 192.443,1106.28 
  "/>
<polyline clip-path="url(#clip890)" style="stroke:#000000; stroke-width:4; stroke-opacity:1; fill:none" points="
  166.205,766.846 192.443,766.846 
  "/>
<polyline clip-path="url(#clip890)" style="stroke:#000000; stroke-width:4; stroke-opacity:1; fill:none" points="
  166.205,427.411 192.443,427.411 
  "/>
<polyline clip-path="url(#clip890)" style="stroke:#000000; stroke-width:4; stroke-opacity:1; fill:none" points="
  166.205,87.9763 192.443,87.9763 
  "/>
<path clip-path="url(#clip890)" d="M 0 0 M440.913 1525.04 L453.39 1525.04 L453.39 1528.83 L440.913 1528.83 L440.913 1525.04 Z" fill="#000000" fill-rule="evenodd" fill-opacity="1" /><path clip-path="url(#clip890)" d="M 0 0 M469.038 1520.78 Q465.89 1520.78 464.038 1522.93 Q462.209 1525.08 462.209 1528.83 Q462.209 1532.56 464.038 1534.73 Q465.89 1536.89 469.038 1536.89 Q472.186 1536.89 474.015 1534.73 Q475.867 1532.56 475.867 1528.83 Q475.867 1525.08 474.015 1522.93 Q472.186 1520.78 469.038 1520.78 M478.32 1506.12 L478.32 1510.38 Q476.561 1509.55 474.756 1509.11 Q472.973 1508.67 471.214 1508.67 Q466.584 1508.67 464.131 1511.8 Q461.7 1514.92 461.353 1521.24 Q462.719 1519.23 464.779 1518.16 Q466.839 1517.07 469.316 1517.07 Q474.524 1517.07 477.533 1520.24 Q480.566 1523.39 480.566 1528.83 Q480.566 1534.16 477.418 1537.37 Q474.27 1540.59 469.038 1540.59 Q463.043 1540.59 459.872 1536.01 Q456.7 1531.4 456.7 1522.67 Q456.7 1514.48 460.589 1509.62 Q464.478 1504.73 471.029 1504.73 Q472.788 1504.73 474.571 1505.08 Q476.376 1505.43 478.32 1506.12 Z" fill="#000000" fill-rule="evenodd" fill-opacity="1" /><path clip-path="url(#clip890)" d="M 0 0 M876.995 1525.04 L889.472 1525.04 L889.472 1528.83 L876.995 1528.83 L876.995 1525.04 Z" fill="#000000" fill-rule="evenodd" fill-opacity="1" /><path clip-path="url(#clip890)" d="M 0 0 M908.708 1521.29 Q912.064 1522 913.939 1524.27 Q915.838 1526.54 915.838 1529.87 Q915.838 1534.99 912.319 1537.79 Q908.801 1540.59 902.319 1540.59 Q900.143 1540.59 897.828 1540.15 Q895.537 1539.73 893.083 1538.88 L893.083 1534.36 Q895.027 1535.5 897.342 1536.08 Q899.657 1536.66 902.18 1536.66 Q906.578 1536.66 908.87 1534.92 Q911.185 1533.18 911.185 1529.87 Q911.185 1526.82 909.032 1525.11 Q906.902 1523.37 903.083 1523.37 L899.055 1523.37 L899.055 1519.53 L903.268 1519.53 Q906.717 1519.53 908.546 1518.16 Q910.375 1516.77 910.375 1514.18 Q910.375 1511.52 908.476 1510.11 Q906.601 1508.67 903.083 1508.67 Q901.162 1508.67 898.963 1509.09 Q896.764 1509.5 894.125 1510.38 L894.125 1506.22 Q896.787 1505.48 899.101 1505.11 Q901.439 1504.73 903.5 1504.73 Q908.824 1504.73 911.926 1507.17 Q915.027 1509.57 915.027 1513.69 Q915.027 1516.56 913.384 1518.55 Q911.74 1520.52 908.708 1521.29 Z" fill="#000000" fill-rule="evenodd" fill-opacity="1" /><path clip-path="url(#clip890)" d="M 0 0 M1332.09 1508.44 Q1328.48 1508.44 1326.65 1512 Q1324.85 1515.55 1324.85 1522.67 Q1324.85 1529.78 1326.65 1533.35 Q1328.48 1536.89 1332.09 1536.89 Q1335.73 1536.89 1337.53 1533.35 Q1339.36 1529.78 1339.36 1522.67 Q1339.36 1515.55 1337.53 1512 Q1335.73 1508.44 1332.09 1508.44 M1332.09 1504.73 Q1337.9 1504.73 1340.96 1509.34 Q1344.04 1513.92 1344.04 1522.67 Q1344.04 1531.4 1340.96 1536.01 Q1337.9 1540.59 1332.09 1540.59 Q1326.28 1540.59 1323.2 1536.01 Q1320.15 1531.4 1320.15 1522.67 Q1320.15 1513.92 1323.2 1509.34 Q1326.28 1504.73 1332.09 1504.73 Z" fill="#000000" fill-rule="evenodd" fill-opacity="1" /><path clip-path="url(#clip890)" d="M 0 0 M1772.02 1521.29 Q1775.37 1522 1777.25 1524.27 Q1779.15 1526.54 1779.15 1529.87 Q1779.15 1534.99 1775.63 1537.79 Q1772.11 1540.59 1765.63 1540.59 Q1763.45 1540.59 1761.14 1540.15 Q1758.85 1539.73 1756.39 1538.88 L1756.39 1534.36 Q1758.34 1535.5 1760.65 1536.08 Q1762.97 1536.66 1765.49 1536.66 Q1769.89 1536.66 1772.18 1534.92 Q1774.49 1533.18 1774.49 1529.87 Q1774.49 1526.82 1772.34 1525.11 Q1770.21 1523.37 1766.39 1523.37 L1762.36 1523.37 L1762.36 1519.53 L1766.58 1519.53 Q1770.03 1519.53 1771.86 1518.16 Q1773.68 1516.77 1773.68 1514.18 Q1773.68 1511.52 1771.79 1510.11 Q1769.91 1508.67 1766.39 1508.67 Q1764.47 1508.67 1762.27 1509.09 Q1760.07 1509.5 1757.43 1510.38 L1757.43 1506.22 Q1760.1 1505.48 1762.41 1505.11 Q1764.75 1504.73 1766.81 1504.73 Q1772.13 1504.73 1775.24 1507.17 Q1778.34 1509.57 1778.34 1513.69 Q1778.34 1516.56 1776.69 1518.55 Q1775.05 1520.52 1772.02 1521.29 Z" fill="#000000" fill-rule="evenodd" fill-opacity="1" /><path clip-path="url(#clip890)" d="M 0 0 M2203.85 1520.78 Q2200.7 1520.78 2198.85 1522.93 Q2197.02 1525.08 2197.02 1528.83 Q2197.02 1532.56 2198.85 1534.73 Q2200.7 1536.89 2203.85 1536.89 Q2207 1536.89 2208.83 1534.73 Q2210.68 1532.56 2210.68 1528.83 Q2210.68 1525.08 2208.83 1522.93 Q2207 1520.78 2203.85 1520.78 M2213.13 1506.12 L2213.13 1510.38 Q2211.37 1509.55 2209.57 1509.11 Q2207.79 1508.67 2206.03 1508.67 Q2201.4 1508.67 2198.94 1511.8 Q2196.51 1514.92 2196.17 1521.24 Q2197.53 1519.23 2199.59 1518.16 Q2201.65 1517.07 2204.13 1517.07 Q2209.34 1517.07 2212.35 1520.24 Q2215.38 1523.39 2215.38 1528.83 Q2215.38 1534.16 2212.23 1537.37 Q2209.08 1540.59 2203.85 1540.59 Q2197.86 1540.59 2194.69 1536.01 Q2191.51 1531.4 2191.51 1522.67 Q2191.51 1514.48 2195.4 1509.62 Q2199.29 1504.73 2205.84 1504.73 Q2207.6 1504.73 2209.38 1505.08 Q2211.19 1505.43 2213.13 1506.12 Z" fill="#000000" fill-rule="evenodd" fill-opacity="1" /><path clip-path="url(#clip890)" d="M 0 0 M130.26 1431.51 Q126.649 1431.51 124.82 1435.08 Q123.015 1438.62 123.015 1445.75 Q123.015 1452.86 124.82 1456.42 Q126.649 1459.96 130.26 1459.96 Q133.895 1459.96 135.7 1456.42 Q137.529 1452.86 137.529 1445.75 Q137.529 1438.62 135.7 1435.08 Q133.895 1431.51 130.26 1431.51 M130.26 1427.81 Q136.07 1427.81 139.126 1432.42 Q142.205 1437 142.205 1445.75 Q142.205 1454.48 139.126 1459.08 Q136.07 1463.67 130.26 1463.67 Q124.45 1463.67 121.371 1459.08 Q118.316 1454.48 118.316 1445.75 Q118.316 1437 121.371 1432.42 Q124.45 1427.81 130.26 1427.81 Z" fill="#000000" fill-rule="evenodd" fill-opacity="1" /><path clip-path="url(#clip890)" d="M 0 0 M71.8578 1119.63 L88.1772 1119.63 L88.1772 1123.56 L66.2328 1123.56 L66.2328 1119.63 Q68.8949 1116.87 73.4782 1112.24 Q78.0846 1107.59 79.2652 1106.25 Q81.5105 1103.72 82.3902 1101.99 Q83.2929 1100.23 83.2929 1098.54 Q83.2929 1095.78 81.3485 1094.05 Q79.4272 1092.31 76.3254 1092.31 Q74.1263 1092.31 71.6726 1093.07 Q69.2421 1093.84 66.4643 1095.39 L66.4643 1090.67 Q69.2884 1089.53 71.7421 1088.95 Q74.1958 1088.38 76.2328 1088.38 Q81.6031 1088.38 84.7976 1091.06 Q87.992 1093.75 87.992 1098.24 Q87.992 1100.37 87.1818 1102.29 Q86.3948 1104.19 84.2883 1106.78 Q83.7096 1107.45 80.6078 1110.67 Q77.5059 1113.86 71.8578 1119.63 Z" fill="#000000" fill-rule="evenodd" fill-opacity="1" /><path clip-path="url(#clip890)" d="M 0 0 M103.247 1092.08 Q99.6354 1092.08 97.8068 1095.64 Q96.0012 1099.19 96.0012 1106.32 Q96.0012 1113.42 97.8068 1116.99 Q99.6354 1120.53 103.247 1120.53 Q106.881 1120.53 108.686 1116.99 Q110.515 1113.42 110.515 1106.32 Q110.515 1099.19 108.686 1095.64 Q106.881 1092.08 103.247 1092.08 M103.247 1088.38 Q109.057 1088.38 112.112 1092.98 Q115.191 1097.57 115.191 1106.32 Q115.191 1115.04 112.112 1119.65 Q109.057 1124.23 103.247 1124.23 Q97.4364 1124.23 94.3577 1119.65 Q91.3022 1115.04 91.3022 1106.32 Q91.3022 1097.57 94.3577 1092.98 Q97.4364 1088.38 103.247 1088.38 Z" fill="#000000" fill-rule="evenodd" fill-opacity="1" /><path clip-path="url(#clip890)" d="M 0 0 M130.26 1092.08 Q126.649 1092.08 124.82 1095.64 Q123.015 1099.19 123.015 1106.32 Q123.015 1113.42 124.82 1116.99 Q126.649 1120.53 130.26 1120.53 Q133.895 1120.53 135.7 1116.99 Q137.529 1113.42 137.529 1106.32 Q137.529 1099.19 135.7 1095.64 Q133.895 1092.08 130.26 1092.08 M130.26 1088.38 Q136.07 1088.38 139.126 1092.98 Q142.205 1097.57 142.205 1106.32 Q142.205 1115.04 139.126 1119.65 Q136.07 1124.23 130.26 1124.23 Q124.45 1124.23 121.371 1119.65 Q118.316 1115.04 118.316 1106.32 Q118.316 1097.57 121.371 1092.98 Q124.45 1088.38 130.26 1088.38 Z" fill="#000000" fill-rule="evenodd" fill-opacity="1" /><path clip-path="url(#clip890)" d="M 0 0 M78.5939 753.64 L66.7884 772.089 L78.5939 772.089 L78.5939 753.64 M77.367 749.566 L83.2466 749.566 L83.2466 772.089 L88.1772 772.089 L88.1772 775.978 L83.2466 775.978 L83.2466 784.126 L78.5939 784.126 L78.5939 775.978 L62.9921 775.978 L62.9921 771.464 L77.367 749.566 Z" fill="#000000" fill-rule="evenodd" fill-opacity="1" /><path clip-path="url(#clip890)" d="M 0 0 M103.247 752.645 Q99.6354 752.645 97.8068 756.209 Q96.0012 759.751 96.0012 766.881 Q96.0012 773.987 97.8068 777.552 Q99.6354 781.094 103.247 781.094 Q106.881 781.094 108.686 777.552 Q110.515 773.987 110.515 766.881 Q110.515 759.751 108.686 756.209 Q106.881 752.645 103.247 752.645 M103.247 748.941 Q109.057 748.941 112.112 753.547 Q115.191 758.131 115.191 766.881 Q115.191 775.608 112.112 780.214 Q109.057 784.797 103.247 784.797 Q97.4364 784.797 94.3577 780.214 Q91.3022 775.608 91.3022 766.881 Q91.3022 758.131 94.3577 753.547 Q97.4364 748.941 103.247 748.941 Z" fill="#000000" fill-rule="evenodd" fill-opacity="1" /><path clip-path="url(#clip890)" d="M 0 0 M130.26 752.645 Q126.649 752.645 124.82 756.209 Q123.015 759.751 123.015 766.881 Q123.015 773.987 124.82 777.552 Q126.649 781.094 130.26 781.094 Q133.895 781.094 135.7 777.552 Q137.529 773.987 137.529 766.881 Q137.529 759.751 135.7 756.209 Q133.895 752.645 130.26 752.645 M130.26 748.941 Q136.07 748.941 139.126 753.547 Q142.205 758.131 142.205 766.881 Q142.205 775.608 139.126 780.214 Q136.07 784.797 130.26 784.797 Q124.45 784.797 121.371 780.214 Q118.316 775.608 118.316 766.881 Q118.316 758.131 121.371 753.547 Q124.45 748.941 130.26 748.941 Z" fill="#000000" fill-rule="evenodd" fill-opacity="1" /><path clip-path="url(#clip890)" d="M 0 0 M76.6495 425.548 Q73.5013 425.548 71.6495 427.7 Q69.8208 429.853 69.8208 433.603 Q69.8208 437.33 71.6495 439.506 Q73.5013 441.659 76.6495 441.659 Q79.7976 441.659 81.6263 439.506 Q83.4781 437.33 83.4781 433.603 Q83.4781 429.853 81.6263 427.7 Q79.7976 425.548 76.6495 425.548 M85.9318 410.895 L85.9318 415.154 Q84.1726 414.321 82.367 413.881 Q80.5846 413.441 78.8254 413.441 Q74.1958 413.441 71.7421 416.566 Q69.3115 419.691 68.9643 426.011 Q70.33 423.997 72.3902 422.932 Q74.4504 421.844 76.9272 421.844 Q82.1355 421.844 85.1448 425.015 Q88.1772 428.163 88.1772 433.603 Q88.1772 438.927 85.029 442.145 Q81.8809 445.362 76.6495 445.362 Q70.6541 445.362 67.4828 440.779 Q64.3116 436.173 64.3116 427.446 Q64.3116 419.251 68.2004 414.39 Q72.0893 409.506 78.6402 409.506 Q80.3994 409.506 82.1818 409.853 Q83.9874 410.201 85.9318 410.895 Z" fill="#000000" fill-rule="evenodd" fill-opacity="1" /><path clip-path="url(#clip890)" d="M 0 0 M103.247 413.21 Q99.6354 413.21 97.8068 416.775 Q96.0012 420.316 96.0012 427.446 Q96.0012 434.552 97.8068 438.117 Q99.6354 441.659 103.247 441.659 Q106.881 441.659 108.686 438.117 Q110.515 434.552 110.515 427.446 Q110.515 420.316 108.686 416.775 Q106.881 413.21 103.247 413.21 M103.247 409.506 Q109.057 409.506 112.112 414.113 Q115.191 418.696 115.191 427.446 Q115.191 436.173 112.112 440.779 Q109.057 445.362 103.247 445.362 Q97.4364 445.362 94.3577 440.779 Q91.3022 436.173 91.3022 427.446 Q91.3022 418.696 94.3577 414.113 Q97.4364 409.506 103.247 409.506 Z" fill="#000000" fill-rule="evenodd" fill-opacity="1" /><path clip-path="url(#clip890)" d="M 0 0 M130.26 413.21 Q126.649 413.21 124.82 416.775 Q123.015 420.316 123.015 427.446 Q123.015 434.552 124.82 438.117 Q126.649 441.659 130.26 441.659 Q133.895 441.659 135.7 438.117 Q137.529 434.552 137.529 427.446 Q137.529 420.316 135.7 416.775 Q133.895 413.21 130.26 413.21 M130.26 409.506 Q136.07 409.506 139.126 414.113 Q142.205 418.696 142.205 427.446 Q142.205 436.173 139.126 440.779 Q136.07 445.362 130.26 445.362 Q124.45 445.362 121.371 440.779 Q118.316 436.173 118.316 427.446 Q118.316 418.696 121.371 414.113 Q124.45 409.506 130.26 409.506 Z" fill="#000000" fill-rule="evenodd" fill-opacity="1" /><path clip-path="url(#clip890)" d="M 0 0 M76.3254 88.8443 Q72.9921 88.8443 71.0708 90.6267 Q69.1726 92.4091 69.1726 95.5341 Q69.1726 98.6591 71.0708 100.441 Q72.9921 102.224 76.3254 102.224 Q79.6587 102.224 81.58 100.441 Q83.5013 98.6359 83.5013 95.5341 Q83.5013 92.4091 81.58 90.6267 Q79.6819 88.8443 76.3254 88.8443 M71.6495 86.8536 Q68.6402 86.1129 66.9504 84.0527 Q65.2838 81.9925 65.2838 79.0296 Q65.2838 74.8861 68.2236 72.4787 Q71.1865 70.0713 76.3254 70.0713 Q81.4874 70.0713 84.4272 72.4787 Q87.367 74.8861 87.367 79.0296 Q87.367 81.9925 85.6772 84.0527 Q84.0105 86.1129 81.0244 86.8536 Q84.404 87.6406 86.279 89.9323 Q88.1772 92.2239 88.1772 95.5341 Q88.1772 100.557 85.0985 103.242 Q82.0429 105.928 76.3254 105.928 Q70.6078 105.928 67.5291 103.242 Q64.4736 100.557 64.4736 95.5341 Q64.4736 92.2239 66.3717 89.9323 Q68.2699 87.6406 71.6495 86.8536 M69.9365 79.4694 Q69.9365 82.1545 71.6032 83.6592 Q73.293 85.1638 76.3254 85.1638 Q79.3346 85.1638 81.0244 83.6592 Q82.7374 82.1545 82.7374 79.4694 Q82.7374 76.7842 81.0244 75.2796 Q79.3346 73.775 76.3254 73.775 Q73.293 73.775 71.6032 75.2796 Q69.9365 76.7842 69.9365 79.4694 Z" fill="#000000" fill-rule="evenodd" fill-opacity="1" /><path clip-path="url(#clip890)" d="M 0 0 M103.247 73.775 Q99.6354 73.775 97.8068 77.3398 Q96.0012 80.8814 96.0012 88.011 Q96.0012 95.1174 97.8068 98.6822 Q99.6354 102.224 103.247 102.224 Q106.881 102.224 108.686 98.6822 Q110.515 95.1174 110.515 88.011 Q110.515 80.8814 108.686 77.3398 Q106.881 73.775 103.247 73.775 M103.247 70.0713 Q109.057 70.0713 112.112 74.6777 Q115.191 79.261 115.191 88.011 Q115.191 96.7378 112.112 101.344 Q109.057 105.928 103.247 105.928 Q97.4364 105.928 94.3577 101.344 Q91.3022 96.7378 91.3022 88.011 Q91.3022 79.261 94.3577 74.6777 Q97.4364 70.0713 103.247 70.0713 Z" fill="#000000" fill-rule="evenodd" fill-opacity="1" /><path clip-path="url(#clip890)" d="M 0 0 M130.26 73.775 Q126.649 73.775 124.82 77.3398 Q123.015 80.8814 123.015 88.011 Q123.015 95.1174 124.82 98.6822 Q126.649 102.224 130.26 102.224 Q133.895 102.224 135.7 98.6822 Q137.529 95.1174 137.529 88.011 Q137.529 80.8814 135.7 77.3398 Q133.895 73.775 130.26 73.775 M130.26 70.0713 Q136.07 70.0713 139.126 74.6777 Q142.205 79.261 142.205 88.011 Q142.205 96.7378 139.126 101.344 Q136.07 105.928 130.26 105.928 Q124.45 105.928 121.371 101.344 Q118.316 96.7378 118.316 88.011 Q118.316 79.261 121.371 74.6777 Q124.45 70.0713 130.26 70.0713 Z" fill="#000000" fill-rule="evenodd" fill-opacity="1" /><path clip-path="url(#clip892)" d="
M286.469 1444.02 L286.469 1445.72 L315.514 1445.72 L315.514 1444.02 L286.469 1444.02 L286.469 1444.02  Z
  " fill="#009af9" fill-rule="evenodd" fill-opacity="1"/>
<polyline clip-path="url(#clip892)" style="stroke:#000000; stroke-width:4; stroke-opacity:1; fill:none" points="
  286.469,1444.02 286.469,1445.72 315.514,1445.72 315.514,1444.02 286.469,1444.02 
  "/>
<path clip-path="url(#clip892)" d="
M315.514 1445.72 L315.514 1445.72 L344.559 1445.72 L344.559 1445.72 L315.514 1445.72 L315.514 1445.72  Z
  " fill="#009af9" fill-rule="evenodd" fill-opacity="1"/>
<polyline clip-path="url(#clip892)" style="stroke:#000000; stroke-width:4; stroke-opacity:1; fill:none" points="
  315.514,1445.72 315.514,1445.72 344.559,1445.72 315.514,1445.72 
  "/>
<path clip-path="url(#clip892)" d="
M344.559 1444.02 L344.559 1445.72 L373.604 1445.72 L373.604 1444.02 L344.559 1444.02 L344.559 1444.02  Z
  " fill="#009af9" fill-rule="evenodd" fill-opacity="1"/>
<polyline clip-path="url(#clip892)" style="stroke:#000000; stroke-width:4; stroke-opacity:1; fill:none" points="
  344.559,1444.02 344.559,1445.72 373.604,1445.72 373.604,1444.02 344.559,1444.02 
  "/>
<path clip-path="url(#clip892)" d="
M373.604 1445.72 L373.604 1445.72 L402.649 1445.72 L402.649 1445.72 L373.604 1445.72 L373.604 1445.72  Z
  " fill="#009af9" fill-rule="evenodd" fill-opacity="1"/>
<polyline clip-path="url(#clip892)" style="stroke:#000000; stroke-width:4; stroke-opacity:1; fill:none" points="
  373.604,1445.72 373.604,1445.72 402.649,1445.72 373.604,1445.72 
  "/>
<path clip-path="url(#clip892)" d="
M402.649 1444.02 L402.649 1445.72 L431.694 1445.72 L431.694 1444.02 L402.649 1444.02 L402.649 1444.02  Z
  " fill="#009af9" fill-rule="evenodd" fill-opacity="1"/>
<polyline clip-path="url(#clip892)" style="stroke:#000000; stroke-width:4; stroke-opacity:1; fill:none" points="
  402.649,1444.02 402.649,1445.72 431.694,1445.72 431.694,1444.02 402.649,1444.02 
  "/>
<path clip-path="url(#clip892)" d="
M431.694 1438.93 L431.694 1445.72 L460.74 1445.72 L460.74 1438.93 L431.694 1438.93 L431.694 1438.93  Z
  " fill="#009af9" fill-rule="evenodd" fill-opacity="1"/>
<polyline clip-path="url(#clip892)" style="stroke:#000000; stroke-width:4; stroke-opacity:1; fill:none" points="
  431.694,1438.93 431.694,1445.72 460.74,1445.72 460.74,1438.93 431.694,1438.93 
  "/>
<path clip-path="url(#clip892)" d="
M460.74 1444.02 L460.74 1445.72 L489.785 1445.72 L489.785 1444.02 L460.74 1444.02 L460.74 1444.02  Z
  " fill="#009af9" fill-rule="evenodd" fill-opacity="1"/>
<polyline clip-path="url(#clip892)" style="stroke:#000000; stroke-width:4; stroke-opacity:1; fill:none" points="
  460.74,1444.02 460.74,1445.72 489.785,1445.72 489.785,1444.02 460.74,1444.02 
  "/>
<path clip-path="url(#clip892)" d="
M489.785 1445.72 L489.785 1445.72 L518.83 1445.72 L518.83 1445.72 L489.785 1445.72 L489.785 1445.72  Z
  " fill="#009af9" fill-rule="evenodd" fill-opacity="1"/>
<polyline clip-path="url(#clip892)" style="stroke:#000000; stroke-width:4; stroke-opacity:1; fill:none" points="
  489.785,1445.72 489.785,1445.72 518.83,1445.72 489.785,1445.72 
  "/>
<path clip-path="url(#clip892)" d="
M518.83 1440.62 L518.83 1445.72 L547.875 1445.72 L547.875 1440.62 L518.83 1440.62 L518.83 1440.62  Z
  " fill="#009af9" fill-rule="evenodd" fill-opacity="1"/>
<polyline clip-path="url(#clip892)" style="stroke:#000000; stroke-width:4; stroke-opacity:1; fill:none" points="
  518.83,1440.62 518.83,1445.72 547.875,1445.72 547.875,1440.62 518.83,1440.62 
  "/>
<path clip-path="url(#clip892)" d="
M547.875 1444.02 L547.875 1445.72 L576.92 1445.72 L576.92 1444.02 L547.875 1444.02 L547.875 1444.02  Z
  " fill="#009af9" fill-rule="evenodd" fill-opacity="1"/>
<polyline clip-path="url(#clip892)" style="stroke:#000000; stroke-width:4; stroke-opacity:1; fill:none" points="
  547.875,1444.02 547.875,1445.72 576.92,1445.72 576.92,1444.02 547.875,1444.02 
  "/>
<path clip-path="url(#clip892)" d="
M576.92 1442.32 L576.92 1445.72 L605.965 1445.72 L605.965 1442.32 L576.92 1442.32 L576.92 1442.32  Z
  " fill="#009af9" fill-rule="evenodd" fill-opacity="1"/>
<polyline clip-path="url(#clip892)" style="stroke:#000000; stroke-width:4; stroke-opacity:1; fill:none" points="
  576.92,1442.32 576.92,1445.72 605.965,1445.72 605.965,1442.32 576.92,1442.32 
  "/>
<path clip-path="url(#clip892)" d="
M605.965 1438.93 L605.965 1445.72 L635.01 1445.72 L635.01 1438.93 L605.965 1438.93 L605.965 1438.93  Z
  " fill="#009af9" fill-rule="evenodd" fill-opacity="1"/>
<polyline clip-path="url(#clip892)" style="stroke:#000000; stroke-width:4; stroke-opacity:1; fill:none" points="
  605.965,1438.93 605.965,1445.72 635.01,1445.72 635.01,1438.93 605.965,1438.93 
  "/>
<path clip-path="url(#clip892)" d="
M635.01 1433.84 L635.01 1445.72 L664.055 1445.72 L664.055 1433.84 L635.01 1433.84 L635.01 1433.84  Z
  " fill="#009af9" fill-rule="evenodd" fill-opacity="1"/>
<polyline clip-path="url(#clip892)" style="stroke:#000000; stroke-width:4; stroke-opacity:1; fill:none" points="
  635.01,1433.84 635.01,1445.72 664.055,1445.72 664.055,1433.84 635.01,1433.84 
  "/>
<path clip-path="url(#clip892)" d="
M664.055 1427.05 L664.055 1445.72 L693.101 1445.72 L693.101 1427.05 L664.055 1427.05 L664.055 1427.05  Z
  " fill="#009af9" fill-rule="evenodd" fill-opacity="1"/>
<polyline clip-path="url(#clip892)" style="stroke:#000000; stroke-width:4; stroke-opacity:1; fill:none" points="
  664.055,1427.05 664.055,1445.72 693.101,1445.72 693.101,1427.05 664.055,1427.05 
  "/>
<path clip-path="url(#clip892)" d="
M693.101 1421.96 L693.101 1445.72 L722.146 1445.72 L722.146 1421.96 L693.101 1421.96 L693.101 1421.96  Z
  " fill="#009af9" fill-rule="evenodd" fill-opacity="1"/>
<polyline clip-path="url(#clip892)" style="stroke:#000000; stroke-width:4; stroke-opacity:1; fill:none" points="
  693.101,1421.96 693.101,1445.72 722.146,1445.72 722.146,1421.96 693.101,1421.96 
  "/>
<path clip-path="url(#clip892)" d="
M722.146 1420.26 L722.146 1445.72 L751.191 1445.72 L751.191 1420.26 L722.146 1420.26 L722.146 1420.26  Z
  " fill="#009af9" fill-rule="evenodd" fill-opacity="1"/>
<polyline clip-path="url(#clip892)" style="stroke:#000000; stroke-width:4; stroke-opacity:1; fill:none" points="
  722.146,1420.26 722.146,1445.72 751.191,1445.72 751.191,1420.26 722.146,1420.26 
  "/>
<path clip-path="url(#clip892)" d="
M751.191 1427.05 L751.191 1445.72 L780.236 1445.72 L780.236 1427.05 L751.191 1427.05 L751.191 1427.05  Z
  " fill="#009af9" fill-rule="evenodd" fill-opacity="1"/>
<polyline clip-path="url(#clip892)" style="stroke:#000000; stroke-width:4; stroke-opacity:1; fill:none" points="
  751.191,1427.05 751.191,1445.72 780.236,1445.72 780.236,1427.05 751.191,1427.05 
  "/>
<path clip-path="url(#clip892)" d="
M780.236 1415.17 L780.236 1445.72 L809.281 1445.72 L809.281 1415.17 L780.236 1415.17 L780.236 1415.17  Z
  " fill="#009af9" fill-rule="evenodd" fill-opacity="1"/>
<polyline clip-path="url(#clip892)" style="stroke:#000000; stroke-width:4; stroke-opacity:1; fill:none" points="
  780.236,1415.17 780.236,1445.72 809.281,1445.72 809.281,1415.17 780.236,1415.17 
  "/>
<path clip-path="url(#clip892)" d="
M809.281 1404.98 L809.281 1445.72 L838.326 1445.72 L838.326 1404.98 L809.281 1404.98 L809.281 1404.98  Z
  " fill="#009af9" fill-rule="evenodd" fill-opacity="1"/>
<polyline clip-path="url(#clip892)" style="stroke:#000000; stroke-width:4; stroke-opacity:1; fill:none" points="
  809.281,1404.98 809.281,1445.72 838.326,1445.72 838.326,1404.98 809.281,1404.98 
  "/>
<path clip-path="url(#clip892)" d="
M838.326 1393.1 L838.326 1445.72 L867.371 1445.72 L867.371 1393.1 L838.326 1393.1 L838.326 1393.1  Z
  " fill="#009af9" fill-rule="evenodd" fill-opacity="1"/>
<polyline clip-path="url(#clip892)" style="stroke:#000000; stroke-width:4; stroke-opacity:1; fill:none" points="
  838.326,1393.1 838.326,1445.72 867.371,1445.72 867.371,1393.1 838.326,1393.1 
  "/>
<path clip-path="url(#clip892)" d="
M867.371 1391.41 L867.371 1445.72 L896.416 1445.72 L896.416 1391.41 L867.371 1391.41 L867.371 1391.41  Z
  " fill="#009af9" fill-rule="evenodd" fill-opacity="1"/>
<polyline clip-path="url(#clip892)" style="stroke:#000000; stroke-width:4; stroke-opacity:1; fill:none" points="
  867.371,1391.41 867.371,1445.72 896.416,1445.72 896.416,1391.41 867.371,1391.41 
  "/>
<path clip-path="url(#clip892)" d="
M896.416 1360.86 L896.416 1445.72 L925.461 1445.72 L925.461 1360.86 L896.416 1360.86 L896.416 1360.86  Z
  " fill="#009af9" fill-rule="evenodd" fill-opacity="1"/>
<polyline clip-path="url(#clip892)" style="stroke:#000000; stroke-width:4; stroke-opacity:1; fill:none" points="
  896.416,1360.86 896.416,1445.72 925.461,1445.72 925.461,1360.86 896.416,1360.86 
  "/>
<path clip-path="url(#clip892)" d="
M925.461 1359.16 L925.461 1445.72 L954.507 1445.72 L954.507 1359.16 L925.461 1359.16 L925.461 1359.16  Z
  " fill="#009af9" fill-rule="evenodd" fill-opacity="1"/>
<polyline clip-path="url(#clip892)" style="stroke:#000000; stroke-width:4; stroke-opacity:1; fill:none" points="
  925.461,1359.16 925.461,1445.72 954.507,1445.72 954.507,1359.16 925.461,1359.16 
  "/>
<path clip-path="url(#clip892)" d="
M954.507 1342.19 L954.507 1445.72 L983.552 1445.72 L983.552 1342.19 L954.507 1342.19 L954.507 1342.19  Z
  " fill="#009af9" fill-rule="evenodd" fill-opacity="1"/>
<polyline clip-path="url(#clip892)" style="stroke:#000000; stroke-width:4; stroke-opacity:1; fill:none" points="
  954.507,1342.19 954.507,1445.72 983.552,1445.72 983.552,1342.19 954.507,1342.19 
  "/>
<path clip-path="url(#clip892)" d="
M983.552 1357.46 L983.552 1445.72 L1012.6 1445.72 L1012.6 1357.46 L983.552 1357.46 L983.552 1357.46  Z
  " fill="#009af9" fill-rule="evenodd" fill-opacity="1"/>
<polyline clip-path="url(#clip892)" style="stroke:#000000; stroke-width:4; stroke-opacity:1; fill:none" points="
  983.552,1357.46 983.552,1445.72 1012.6,1445.72 1012.6,1357.46 983.552,1357.46 
  "/>
<path clip-path="url(#clip892)" d="
M1012.6 1313.34 L1012.6 1445.72 L1041.64 1445.72 L1041.64 1313.34 L1012.6 1313.34 L1012.6 1313.34  Z
  " fill="#009af9" fill-rule="evenodd" fill-opacity="1"/>
<polyline clip-path="url(#clip892)" style="stroke:#000000; stroke-width:4; stroke-opacity:1; fill:none" points="
  1012.6,1313.34 1012.6,1445.72 1041.64,1445.72 1041.64,1313.34 1012.6,1313.34 
  "/>
<path clip-path="url(#clip892)" d="
M1041.64 1313.34 L1041.64 1445.72 L1070.69 1445.72 L1070.69 1313.34 L1041.64 1313.34 L1041.64 1313.34  Z
  " fill="#009af9" fill-rule="evenodd" fill-opacity="1"/>
<polyline clip-path="url(#clip892)" style="stroke:#000000; stroke-width:4; stroke-opacity:1; fill:none" points="
  1041.64,1313.34 1041.64,1445.72 1070.69,1445.72 1070.69,1313.34 1041.64,1313.34 
  "/>
<path clip-path="url(#clip892)" d="
M1070.69 1299.76 L1070.69 1445.72 L1099.73 1445.72 L1099.73 1299.76 L1070.69 1299.76 L1070.69 1299.76  Z
  " fill="#009af9" fill-rule="evenodd" fill-opacity="1"/>
<polyline clip-path="url(#clip892)" style="stroke:#000000; stroke-width:4; stroke-opacity:1; fill:none" points="
  1070.69,1299.76 1070.69,1445.72 1099.73,1445.72 1099.73,1299.76 1070.69,1299.76 
  "/>
<path clip-path="url(#clip892)" d="
M1099.73 1330.31 L1099.73 1445.72 L1128.78 1445.72 L1128.78 1330.31 L1099.73 1330.31 L1099.73 1330.31  Z
  " fill="#009af9" fill-rule="evenodd" fill-opacity="1"/>
<polyline clip-path="url(#clip892)" style="stroke:#000000; stroke-width:4; stroke-opacity:1; fill:none" points="
  1099.73,1330.31 1099.73,1445.72 1128.78,1445.72 1128.78,1330.31 1099.73,1330.31 
  "/>
<path clip-path="url(#clip892)" d="
M1128.78 1301.46 L1128.78 1445.72 L1157.82 1445.72 L1157.82 1301.46 L1128.78 1301.46 L1128.78 1301.46  Z
  " fill="#009af9" fill-rule="evenodd" fill-opacity="1"/>
<polyline clip-path="url(#clip892)" style="stroke:#000000; stroke-width:4; stroke-opacity:1; fill:none" points="
  1128.78,1301.46 1128.78,1445.72 1157.82,1445.72 1157.82,1301.46 1128.78,1301.46 
  "/>
<path clip-path="url(#clip892)" d="
M1157.82 1248.84 L1157.82 1445.72 L1186.87 1445.72 L1186.87 1248.84 L1157.82 1248.84 L1157.82 1248.84  Z
  " fill="#009af9" fill-rule="evenodd" fill-opacity="1"/>
<polyline clip-path="url(#clip892)" style="stroke:#000000; stroke-width:4; stroke-opacity:1; fill:none" points="
  1157.82,1248.84 1157.82,1445.72 1186.87,1445.72 1186.87,1248.84 1157.82,1248.84 
  "/>
<path clip-path="url(#clip892)" d="
M1186.87 1276 L1186.87 1445.72 L1215.91 1445.72 L1215.91 1276 L1186.87 1276 L1186.87 1276  Z
  " fill="#009af9" fill-rule="evenodd" fill-opacity="1"/>
<polyline clip-path="url(#clip892)" style="stroke:#000000; stroke-width:4; stroke-opacity:1; fill:none" points="
  1186.87,1276 1186.87,1445.72 1215.91,1445.72 1215.91,1276 1186.87,1276 
  "/>
<path clip-path="url(#clip892)" d="
M1215.91 1274.3 L1215.91 1445.72 L1244.96 1445.72 L1244.96 1274.3 L1215.91 1274.3 L1215.91 1274.3  Z
  " fill="#009af9" fill-rule="evenodd" fill-opacity="1"/>
<polyline clip-path="url(#clip892)" style="stroke:#000000; stroke-width:4; stroke-opacity:1; fill:none" points="
  1215.91,1274.3 1215.91,1445.72 1244.96,1445.72 1244.96,1274.3 1215.91,1274.3 
  "/>
<path clip-path="url(#clip892)" d="
M1244.96 1250.54 L1244.96 1445.72 L1274 1445.72 L1274 1250.54 L1244.96 1250.54 L1244.96 1250.54  Z
  " fill="#009af9" fill-rule="evenodd" fill-opacity="1"/>
<polyline clip-path="url(#clip892)" style="stroke:#000000; stroke-width:4; stroke-opacity:1; fill:none" points="
  1244.96,1250.54 1244.96,1445.72 1274,1445.72 1274,1250.54 1244.96,1250.54 
  "/>
<path clip-path="url(#clip892)" d="
M1274 1196.23 L1274 1445.72 L1303.05 1445.72 L1303.05 1196.23 L1274 1196.23 L1274 1196.23  Z
  " fill="#009af9" fill-rule="evenodd" fill-opacity="1"/>
<polyline clip-path="url(#clip892)" style="stroke:#000000; stroke-width:4; stroke-opacity:1; fill:none" points="
  1274,1196.23 1274,1445.72 1303.05,1445.72 1303.05,1196.23 1274,1196.23 
  "/>
<path clip-path="url(#clip892)" d="
M1303.05 1243.75 L1303.05 1445.72 L1332.09 1445.72 L1332.09 1243.75 L1303.05 1243.75 L1303.05 1243.75  Z
  " fill="#009af9" fill-rule="evenodd" fill-opacity="1"/>
<polyline clip-path="url(#clip892)" style="stroke:#000000; stroke-width:4; stroke-opacity:1; fill:none" points="
  1303.05,1243.75 1303.05,1445.72 1332.09,1445.72 1332.09,1243.75 1303.05,1243.75 
  "/>
<path clip-path="url(#clip892)" d="
M1332.09 1235.27 L1332.09 1445.72 L1361.14 1445.72 L1361.14 1235.27 L1332.09 1235.27 L1332.09 1235.27  Z
  " fill="#009af9" fill-rule="evenodd" fill-opacity="1"/>
<polyline clip-path="url(#clip892)" style="stroke:#000000; stroke-width:4; stroke-opacity:1; fill:none" points="
  1332.09,1235.27 1332.09,1445.72 1361.14,1445.72 1361.14,1235.27 1332.09,1235.27 
  "/>
<path clip-path="url(#clip892)" d="
M1361.14 1211.51 L1361.14 1445.72 L1390.18 1445.72 L1390.18 1211.51 L1361.14 1211.51 L1361.14 1211.51  Z
  " fill="#009af9" fill-rule="evenodd" fill-opacity="1"/>
<polyline clip-path="url(#clip892)" style="stroke:#000000; stroke-width:4; stroke-opacity:1; fill:none" points="
  1361.14,1211.51 1361.14,1445.72 1390.18,1445.72 1390.18,1211.51 1361.14,1211.51 
  "/>
<path clip-path="url(#clip892)" d="
M1390.18 1175.86 L1390.18 1445.72 L1419.23 1445.72 L1419.23 1175.86 L1390.18 1175.86 L1390.18 1175.86  Z
  " fill="#009af9" fill-rule="evenodd" fill-opacity="1"/>
<polyline clip-path="url(#clip892)" style="stroke:#000000; stroke-width:4; stroke-opacity:1; fill:none" points="
  1390.18,1175.86 1390.18,1445.72 1419.23,1445.72 1419.23,1175.86 1390.18,1175.86 
  "/>
<path clip-path="url(#clip892)" d="
M1419.23 775.332 L1419.23 1445.72 L1448.27 1445.72 L1448.27 775.332 L1419.23 775.332 L1419.23 775.332  Z
  " fill="#009af9" fill-rule="evenodd" fill-opacity="1"/>
<polyline clip-path="url(#clip892)" style="stroke:#000000; stroke-width:4; stroke-opacity:1; fill:none" points="
  1419.23,775.332 1419.23,1445.72 1448.27,1445.72 1448.27,775.332 1419.23,775.332 
  "/>
<path clip-path="url(#clip892)" d="
M1448.27 132.103 L1448.27 1445.72 L1477.32 1445.72 L1477.32 132.103 L1448.27 132.103 L1448.27 132.103  Z
  " fill="#009af9" fill-rule="evenodd" fill-opacity="1"/>
<polyline clip-path="url(#clip892)" style="stroke:#000000; stroke-width:4; stroke-opacity:1; fill:none" points="
  1448.27,132.103 1448.27,1445.72 1477.32,1445.72 1477.32,132.103 1448.27,132.103 
  "/>
<path clip-path="url(#clip892)" d="
M1477.32 87.9763 L1477.32 1445.72 L1506.36 1445.72 L1506.36 87.9763 L1477.32 87.9763 L1477.32 87.9763  Z
  " fill="#009af9" fill-rule="evenodd" fill-opacity="1"/>
<polyline clip-path="url(#clip892)" style="stroke:#000000; stroke-width:4; stroke-opacity:1; fill:none" points="
  1477.32,87.9763 1477.32,1445.72 1506.36,1445.72 1506.36,87.9763 1477.32,87.9763 
  "/>
<path clip-path="url(#clip892)" d="
M1506.36 819.458 L1506.36 1445.72 L1535.41 1445.72 L1535.41 819.458 L1506.36 819.458 L1506.36 819.458  Z
  " fill="#009af9" fill-rule="evenodd" fill-opacity="1"/>
<polyline clip-path="url(#clip892)" style="stroke:#000000; stroke-width:4; stroke-opacity:1; fill:none" points="
  1506.36,819.458 1506.36,1445.72 1535.41,1445.72 1535.41,819.458 1506.36,819.458 
  "/>
<path clip-path="url(#clip892)" d="
M1535.41 1250.54 L1535.41 1445.72 L1564.45 1445.72 L1564.45 1250.54 L1535.41 1250.54 L1535.41 1250.54  Z
  " fill="#009af9" fill-rule="evenodd" fill-opacity="1"/>
<polyline clip-path="url(#clip892)" style="stroke:#000000; stroke-width:4; stroke-opacity:1; fill:none" points="
  1535.41,1250.54 1535.41,1445.72 1564.45,1445.72 1564.45,1250.54 1535.41,1250.54 
  "/>
<path clip-path="url(#clip892)" d="
M1564.45 1332.01 L1564.45 1445.72 L1593.5 1445.72 L1593.5 1332.01 L1564.45 1332.01 L1564.45 1332.01  Z
  " fill="#009af9" fill-rule="evenodd" fill-opacity="1"/>
<polyline clip-path="url(#clip892)" style="stroke:#000000; stroke-width:4; stroke-opacity:1; fill:none" points="
  1564.45,1332.01 1564.45,1445.72 1593.5,1445.72 1593.5,1332.01 1564.45,1332.01 
  "/>
<path clip-path="url(#clip892)" d="
M1593.5 1337.1 L1593.5 1445.72 L1622.54 1445.72 L1622.54 1337.1 L1593.5 1337.1 L1593.5 1337.1  Z
  " fill="#009af9" fill-rule="evenodd" fill-opacity="1"/>
<polyline clip-path="url(#clip892)" style="stroke:#000000; stroke-width:4; stroke-opacity:1; fill:none" points="
  1593.5,1337.1 1593.5,1445.72 1622.54,1445.72 1622.54,1337.1 1593.5,1337.1 
  "/>
<path clip-path="url(#clip892)" d="
M1622.54 1313.34 L1622.54 1445.72 L1651.59 1445.72 L1651.59 1313.34 L1622.54 1313.34 L1622.54 1313.34  Z
  " fill="#009af9" fill-rule="evenodd" fill-opacity="1"/>
<polyline clip-path="url(#clip892)" style="stroke:#000000; stroke-width:4; stroke-opacity:1; fill:none" points="
  1622.54,1313.34 1622.54,1445.72 1651.59,1445.72 1651.59,1313.34 1622.54,1313.34 
  "/>
<path clip-path="url(#clip892)" d="
M1651.59 1330.31 L1651.59 1445.72 L1680.63 1445.72 L1680.63 1330.31 L1651.59 1330.31 L1651.59 1330.31  Z
  " fill="#009af9" fill-rule="evenodd" fill-opacity="1"/>
<polyline clip-path="url(#clip892)" style="stroke:#000000; stroke-width:4; stroke-opacity:1; fill:none" points="
  1651.59,1330.31 1651.59,1445.72 1680.63,1445.72 1680.63,1330.31 1651.59,1330.31 
  "/>
<path clip-path="url(#clip892)" d="
M1680.63 1348.98 L1680.63 1445.72 L1709.68 1445.72 L1709.68 1348.98 L1680.63 1348.98 L1680.63 1348.98  Z
  " fill="#009af9" fill-rule="evenodd" fill-opacity="1"/>
<polyline clip-path="url(#clip892)" style="stroke:#000000; stroke-width:4; stroke-opacity:1; fill:none" points="
  1680.63,1348.98 1680.63,1445.72 1709.68,1445.72 1709.68,1348.98 1680.63,1348.98 
  "/>
<path clip-path="url(#clip892)" d="
M1709.68 1365.95 L1709.68 1445.72 L1738.72 1445.72 L1738.72 1365.95 L1709.68 1365.95 L1709.68 1365.95  Z
  " fill="#009af9" fill-rule="evenodd" fill-opacity="1"/>
<polyline clip-path="url(#clip892)" style="stroke:#000000; stroke-width:4; stroke-opacity:1; fill:none" points="
  1709.68,1365.95 1709.68,1445.72 1738.72,1445.72 1738.72,1365.95 1709.68,1365.95 
  "/>
<path clip-path="url(#clip892)" d="
M1738.72 1374.43 L1738.72 1445.72 L1767.77 1445.72 L1767.77 1374.43 L1738.72 1374.43 L1738.72 1374.43  Z
  " fill="#009af9" fill-rule="evenodd" fill-opacity="1"/>
<polyline clip-path="url(#clip892)" style="stroke:#000000; stroke-width:4; stroke-opacity:1; fill:none" points="
  1738.72,1374.43 1738.72,1445.72 1767.77,1445.72 1767.77,1374.43 1738.72,1374.43 
  "/>
<path clip-path="url(#clip892)" d="
M1767.77 1382.92 L1767.77 1445.72 L1796.81 1445.72 L1796.81 1382.92 L1767.77 1382.92 L1767.77 1382.92  Z
  " fill="#009af9" fill-rule="evenodd" fill-opacity="1"/>
<polyline clip-path="url(#clip892)" style="stroke:#000000; stroke-width:4; stroke-opacity:1; fill:none" points="
  1767.77,1382.92 1767.77,1445.72 1796.81,1445.72 1796.81,1382.92 1767.77,1382.92 
  "/>
<path clip-path="url(#clip892)" d="
M1796.81 1393.1 L1796.81 1445.72 L1825.86 1445.72 L1825.86 1393.1 L1796.81 1393.1 L1796.81 1393.1  Z
  " fill="#009af9" fill-rule="evenodd" fill-opacity="1"/>
<polyline clip-path="url(#clip892)" style="stroke:#000000; stroke-width:4; stroke-opacity:1; fill:none" points="
  1796.81,1393.1 1796.81,1445.72 1825.86,1445.72 1825.86,1393.1 1796.81,1393.1 
  "/>
<path clip-path="url(#clip892)" d="
M1825.86 1393.1 L1825.86 1445.72 L1854.91 1445.72 L1854.91 1393.1 L1825.86 1393.1 L1825.86 1393.1  Z
  " fill="#009af9" fill-rule="evenodd" fill-opacity="1"/>
<polyline clip-path="url(#clip892)" style="stroke:#000000; stroke-width:4; stroke-opacity:1; fill:none" points="
  1825.86,1393.1 1825.86,1445.72 1854.91,1445.72 1854.91,1393.1 1825.86,1393.1 
  "/>
<path clip-path="url(#clip892)" d="
M1854.91 1410.08 L1854.91 1445.72 L1883.95 1445.72 L1883.95 1410.08 L1854.91 1410.08 L1854.91 1410.08  Z
  " fill="#009af9" fill-rule="evenodd" fill-opacity="1"/>
<polyline clip-path="url(#clip892)" style="stroke:#000000; stroke-width:4; stroke-opacity:1; fill:none" points="
  1854.91,1410.08 1854.91,1445.72 1883.95,1445.72 1883.95,1410.08 1854.91,1410.08 
  "/>
<path clip-path="url(#clip892)" d="
M1883.95 1411.77 L1883.95 1445.72 L1913 1445.72 L1913 1411.77 L1883.95 1411.77 L1883.95 1411.77  Z
  " fill="#009af9" fill-rule="evenodd" fill-opacity="1"/>
<polyline clip-path="url(#clip892)" style="stroke:#000000; stroke-width:4; stroke-opacity:1; fill:none" points="
  1883.95,1411.77 1883.95,1445.72 1913,1445.72 1913,1411.77 1883.95,1411.77 
  "/>
<path clip-path="url(#clip892)" d="
M1913 1416.86 L1913 1445.72 L1942.04 1445.72 L1942.04 1416.86 L1913 1416.86 L1913 1416.86  Z
  " fill="#009af9" fill-rule="evenodd" fill-opacity="1"/>
<polyline clip-path="url(#clip892)" style="stroke:#000000; stroke-width:4; stroke-opacity:1; fill:none" points="
  1913,1416.86 1913,1445.72 1942.04,1445.72 1942.04,1416.86 1913,1416.86 
  "/>
<path clip-path="url(#clip892)" d="
M1942.04 1421.96 L1942.04 1445.72 L1971.09 1445.72 L1971.09 1421.96 L1942.04 1421.96 L1942.04 1421.96  Z
  " fill="#009af9" fill-rule="evenodd" fill-opacity="1"/>
<polyline clip-path="url(#clip892)" style="stroke:#000000; stroke-width:4; stroke-opacity:1; fill:none" points="
  1942.04,1421.96 1942.04,1445.72 1971.09,1445.72 1971.09,1421.96 1942.04,1421.96 
  "/>
<path clip-path="url(#clip892)" d="
M1971.09 1430.44 L1971.09 1445.72 L2000.13 1445.72 L2000.13 1430.44 L1971.09 1430.44 L1971.09 1430.44  Z
  " fill="#009af9" fill-rule="evenodd" fill-opacity="1"/>
<polyline clip-path="url(#clip892)" style="stroke:#000000; stroke-width:4; stroke-opacity:1; fill:none" points="
  1971.09,1430.44 1971.09,1445.72 2000.13,1445.72 2000.13,1430.44 1971.09,1430.44 
  "/>
<path clip-path="url(#clip892)" d="
M2000.13 1435.53 L2000.13 1445.72 L2029.18 1445.72 L2029.18 1435.53 L2000.13 1435.53 L2000.13 1435.53  Z
  " fill="#009af9" fill-rule="evenodd" fill-opacity="1"/>
<polyline clip-path="url(#clip892)" style="stroke:#000000; stroke-width:4; stroke-opacity:1; fill:none" points="
  2000.13,1435.53 2000.13,1445.72 2029.18,1445.72 2029.18,1435.53 2000.13,1435.53 
  "/>
<path clip-path="url(#clip892)" d="
M2029.18 1430.44 L2029.18 1445.72 L2058.22 1445.72 L2058.22 1430.44 L2029.18 1430.44 L2029.18 1430.44  Z
  " fill="#009af9" fill-rule="evenodd" fill-opacity="1"/>
<polyline clip-path="url(#clip892)" style="stroke:#000000; stroke-width:4; stroke-opacity:1; fill:none" points="
  2029.18,1430.44 2029.18,1445.72 2058.22,1445.72 2058.22,1430.44 2029.18,1430.44 
  "/>
<path clip-path="url(#clip892)" d="
M2058.22 1435.53 L2058.22 1445.72 L2087.27 1445.72 L2087.27 1435.53 L2058.22 1435.53 L2058.22 1435.53  Z
  " fill="#009af9" fill-rule="evenodd" fill-opacity="1"/>
<polyline clip-path="url(#clip892)" style="stroke:#000000; stroke-width:4; stroke-opacity:1; fill:none" points="
  2058.22,1435.53 2058.22,1445.72 2087.27,1445.72 2087.27,1435.53 2058.22,1435.53 
  "/>
<path clip-path="url(#clip892)" d="
M2087.27 1438.93 L2087.27 1445.72 L2116.31 1445.72 L2116.31 1438.93 L2087.27 1438.93 L2087.27 1438.93  Z
  " fill="#009af9" fill-rule="evenodd" fill-opacity="1"/>
<polyline clip-path="url(#clip892)" style="stroke:#000000; stroke-width:4; stroke-opacity:1; fill:none" points="
  2087.27,1438.93 2087.27,1445.72 2116.31,1445.72 2116.31,1438.93 2087.27,1438.93 
  "/>
<path clip-path="url(#clip892)" d="
M2116.31 1438.93 L2116.31 1445.72 L2145.36 1445.72 L2145.36 1438.93 L2116.31 1438.93 L2116.31 1438.93  Z
  " fill="#009af9" fill-rule="evenodd" fill-opacity="1"/>
<polyline clip-path="url(#clip892)" style="stroke:#000000; stroke-width:4; stroke-opacity:1; fill:none" points="
  2116.31,1438.93 2116.31,1445.72 2145.36,1445.72 2145.36,1438.93 2116.31,1438.93 
  "/>
<path clip-path="url(#clip892)" d="
M2145.36 1440.62 L2145.36 1445.72 L2174.4 1445.72 L2174.4 1440.62 L2145.36 1440.62 L2145.36 1440.62  Z
  " fill="#009af9" fill-rule="evenodd" fill-opacity="1"/>
<polyline clip-path="url(#clip892)" style="stroke:#000000; stroke-width:4; stroke-opacity:1; fill:none" points="
  2145.36,1440.62 2145.36,1445.72 2174.4,1445.72 2174.4,1440.62 2145.36,1440.62 
  "/>
<path clip-path="url(#clip892)" d="
M2174.4 1445.72 L2174.4 1445.72 L2203.45 1445.72 L2203.45 1445.72 L2174.4 1445.72 L2174.4 1445.72  Z
  " fill="#009af9" fill-rule="evenodd" fill-opacity="1"/>
<polyline clip-path="url(#clip892)" style="stroke:#000000; stroke-width:4; stroke-opacity:1; fill:none" points="
  2174.4,1445.72 2174.4,1445.72 2203.45,1445.72 2174.4,1445.72 
  "/>
<path clip-path="url(#clip892)" d="
M2203.45 1440.62 L2203.45 1445.72 L2232.49 1445.72 L2232.49 1440.62 L2203.45 1440.62 L2203.45 1440.62  Z
  " fill="#009af9" fill-rule="evenodd" fill-opacity="1"/>
<polyline clip-path="url(#clip892)" style="stroke:#000000; stroke-width:4; stroke-opacity:1; fill:none" points="
  2203.45,1440.62 2203.45,1445.72 2232.49,1445.72 2232.49,1440.62 2203.45,1440.62 
  "/>
<path clip-path="url(#clip890)" d="
M2061.74 155.698 L2352.76 155.698 L2352.76 34.7376 L2061.74 34.7376  Z
  " fill="#ffffff" fill-rule="evenodd" fill-opacity="1"/>
<polyline clip-path="url(#clip890)" style="stroke:#000000; stroke-width:4; stroke-opacity:1; fill:none" points="
  2061.74,155.698 2352.76,155.698 2352.76,34.7376 2061.74,34.7376 2061.74,155.698 
  "/>
<path clip-path="url(#clip890)" d="
M2085.74 119.41 L2229.74 119.41 L2229.74 71.0256 L2085.74 71.0256 L2085.74 119.41  Z
  " fill="#009af9" fill-rule="evenodd" fill-opacity="1"/>
<polyline clip-path="url(#clip890)" style="stroke:#000000; stroke-width:4; stroke-opacity:1; fill:none" points="
  2085.74,119.41 2229.74,119.41 2229.74,71.0256 2085.74,71.0256 2085.74,119.41 
  "/>
<path clip-path="url(#clip890)" d="M 0 0 M2267.58 114.905 Q2265.77 119.535 2264.06 120.947 Q2262.35 122.359 2259.48 122.359 L2256.08 122.359 L2256.08 118.794 L2258.58 118.794 Q2260.33 118.794 2261.31 117.96 Q2262.28 117.127 2263.46 114.025 L2264.22 112.081 L2253.74 86.5718 L2258.25 86.5718 L2266.35 106.849 L2274.46 86.5718 L2278.97 86.5718 L2267.58 114.905 Z" fill="#000000" fill-rule="evenodd" fill-opacity="1" /><path clip-path="url(#clip890)" d="M 0 0 M2284.85 108.562 L2292.49 108.562 L2292.49 82.1968 L2284.18 83.8634 L2284.18 79.6042 L2292.44 77.9376 L2297.12 77.9376 L2297.12 108.562 L2304.76 108.562 L2304.76 112.498 L2284.85 112.498 L2284.85 108.562 Z" fill="#000000" fill-rule="evenodd" fill-opacity="1" /></svg>
