<?xml version="1.0" encoding="utf-8"?>
<svg xmlns="http://www.w3.org/2000/svg" xmlns:xlink="http://www.w3.org/1999/xlink" width="600" height="400" viewBox="0 0 2400 1600">
<defs>
  <clipPath id="clip190">
    <rect x="0" y="0" width="2400" height="1600"/>
  </clipPath>
</defs>
<path clip-path="url(#clip190)" d="
M0 1600 L2400 1600 L2400 0 L0 0  Z
  " fill="#ffffff" fill-rule="evenodd" fill-opacity="1"/>
<defs>
  <clipPath id="clip191">
    <rect x="480" y="0" width="1681" height="1600"/>
  </clipPath>
</defs>
<path clip-path="url(#clip190)" d="
M166.205 1486.45 L2352.76 1486.45 L2352.76 47.2441 L166.205 47.2441  Z
  " fill="#ffffff" fill-rule="evenodd" fill-opacity="1"/>
<defs>
  <clipPath id="clip192">
    <rect x="166" y="47" width="2188" height="1440"/>
  </clipPath>
</defs>
<polyline clip-path="url(#clip192)" style="stroke:#000000; stroke-width:2; stroke-opacity:0.1; fill:none" points="
  402.649,1486.45 402.649,47.2441 
  "/>
<polyline clip-path="url(#clip192)" style="stroke:#000000; stroke-width:2; stroke-opacity:0.1; fill:none" points="
  693.101,1486.45 693.101,47.2441 
  "/>
<polyline clip-path="url(#clip192)" style="stroke:#000000; stroke-width:2; stroke-opacity:0.1; fill:none" points="
  983.552,1486.45 983.552,47.2441 
  "/>
<polyline clip-path="url(#clip192)" style="stroke:#000000; stroke-width:2; stroke-opacity:0.1; fill:none" points="
  1274,1486.45 1274,47.2441 
  "/>
<polyline clip-path="url(#clip192)" style="stroke:#000000; stroke-width:2; stroke-opacity:0.1; fill:none" points="
  1564.45,1486.45 1564.45,47.2441 
  "/>
<polyline clip-path="url(#clip192)" style="stroke:#000000; stroke-width:2; stroke-opacity:0.1; fill:none" points="
  1854.91,1486.45 1854.91,47.2441 
  "/>
<polyline clip-path="url(#clip192)" style="stroke:#000000; stroke-width:2; stroke-opacity:0.1; fill:none" points="
  2145.36,1486.45 2145.36,47.2441 
  "/>
<polyline clip-path="url(#clip192)" style="stroke:#000000; stroke-width:2; stroke-opacity:0.1; fill:none" points="
  166.205,1445.72 2352.76,1445.72 
  "/>
<polyline clip-path="url(#clip192)" style="stroke:#000000; stroke-width:2; stroke-opacity:0.1; fill:none" points="
  166.205,1108.39 2352.76,1108.39 
  "/>
<polyline clip-path="url(#clip192)" style="stroke:#000000; stroke-width:2; stroke-opacity:0.1; fill:none" points="
  166.205,771.063 2352.76,771.063 
  "/>
<polyline clip-path="url(#clip192)" style="stroke:#000000; stroke-width:2; stroke-opacity:0.1; fill:none" points="
  166.205,433.736 2352.76,433.736 
  "/>
<polyline clip-path="url(#clip192)" style="stroke:#000000; stroke-width:2; stroke-opacity:0.1; fill:none" points="
  166.205,96.4094 2352.76,96.4094 
  "/>
<polyline clip-path="url(#clip190)" style="stroke:#000000; stroke-width:4; stroke-opacity:1; fill:none" points="
  166.205,1486.45 2352.76,1486.45 
  "/>
<polyline clip-path="url(#clip190)" style="stroke:#000000; stroke-width:4; stroke-opacity:1; fill:none" points="
  166.205,1486.45 166.205,47.2441 
  "/>
<polyline clip-path="url(#clip190)" style="stroke:#000000; stroke-width:4; stroke-opacity:1; fill:none" points="
  402.649,1486.45 402.649,1469.18 
  "/>
<polyline clip-path="url(#clip190)" style="stroke:#000000; stroke-width:4; stroke-opacity:1; fill:none" points="
  693.101,1486.45 693.101,1469.18 
  "/>
<polyline clip-path="url(#clip190)" style="stroke:#000000; stroke-width:4; stroke-opacity:1; fill:none" points="
  983.552,1486.45 983.552,1469.18 
  "/>
<polyline clip-path="url(#clip190)" style="stroke:#000000; stroke-width:4; stroke-opacity:1; fill:none" points="
  1274,1486.45 1274,1469.18 
  "/>
<polyline clip-path="url(#clip190)" style="stroke:#000000; stroke-width:4; stroke-opacity:1; fill:none" points="
  1564.45,1486.45 1564.45,1469.18 
  "/>
<polyline clip-path="url(#clip190)" style="stroke:#000000; stroke-width:4; stroke-opacity:1; fill:none" points="
  1854.91,1486.45 1854.91,1469.18 
  "/>
<polyline clip-path="url(#clip190)" style="stroke:#000000; stroke-width:4; stroke-opacity:1; fill:none" points="
  2145.36,1486.45 2145.36,1469.18 
  "/>
<polyline clip-path="url(#clip190)" style="stroke:#000000; stroke-width:4; stroke-opacity:1; fill:none" points="
  166.205,1445.72 192.443,1445.72 
  "/>
<polyline clip-path="url(#clip190)" style="stroke:#000000; stroke-width:4; stroke-opacity:1; fill:none" points="
  166.205,1108.39 192.443,1108.39 
  "/>
<polyline clip-path="url(#clip190)" style="stroke:#000000; stroke-width:4; stroke-opacity:1; fill:none" points="
  166.205,771.063 192.443,771.063 
  "/>
<polyline clip-path="url(#clip190)" style="stroke:#000000; stroke-width:4; stroke-opacity:1; fill:none" points="
  166.205,433.736 192.443,433.736 
  "/>
<polyline clip-path="url(#clip190)" style="stroke:#000000; stroke-width:4; stroke-opacity:1; fill:none" points="
  166.205,96.4094 192.443,96.4094 
  "/>
<path clip-path="url(#clip190)" d="M 0 0 M374.224 1523.09 L403.899 1523.09 L403.899 1527.03 L374.224 1527.03 L374.224 1523.09 Z" fill="#000000" fill-rule="evenodd" fill-opacity="1" /><path clip-path="url(#clip190)" d="M 0 0 M419.547 1520.78 Q416.399 1520.78 414.547 1522.93 Q412.719 1525.08 412.719 1528.83 Q412.719 1532.56 414.547 1534.73 Q416.399 1536.89 419.547 1536.89 Q422.696 1536.89 424.524 1534.73 Q426.376 1532.56 426.376 1528.83 Q426.376 1525.08 424.524 1522.93 Q422.696 1520.78 419.547 1520.78 M428.83 1506.12 L428.83 1510.38 Q427.071 1509.55 425.265 1509.11 Q423.483 1508.67 421.723 1508.67 Q417.094 1508.67 414.64 1511.8 Q412.209 1514.92 411.862 1521.24 Q413.228 1519.23 415.288 1518.16 Q417.348 1517.07 419.825 1517.07 Q425.033 1517.07 428.043 1520.24 Q431.075 1523.39 431.075 1528.83 Q431.075 1534.16 427.927 1537.37 Q424.779 1540.59 419.547 1540.59 Q413.552 1540.59 410.381 1536.01 Q407.21 1531.4 407.21 1522.67 Q407.21 1514.48 411.098 1509.62 Q414.987 1504.73 421.538 1504.73 Q423.297 1504.73 425.08 1505.08 Q426.885 1505.43 428.83 1506.12 Z" fill="#000000" fill-rule="evenodd" fill-opacity="1" /><path clip-path="url(#clip190)" d="M 0 0 M664.513 1523.09 L694.188 1523.09 L694.188 1527.03 L664.513 1527.03 L664.513 1523.09 Z" fill="#000000" fill-rule="evenodd" fill-opacity="1" /><path clip-path="url(#clip190)" d="M 0 0 M712.105 1509.43 L700.3 1527.88 L712.105 1527.88 L712.105 1509.43 M710.878 1505.36 L716.758 1505.36 L716.758 1527.88 L721.688 1527.88 L721.688 1531.77 L716.758 1531.77 L716.758 1539.92 L712.105 1539.92 L712.105 1531.77 L696.503 1531.77 L696.503 1527.26 L710.878 1505.36 Z" fill="#000000" fill-rule="evenodd" fill-opacity="1" /><path clip-path="url(#clip190)" d="M 0 0 M956.006 1523.09 L985.681 1523.09 L985.681 1527.03 L956.006 1527.03 L956.006 1523.09 Z" fill="#000000" fill-rule="evenodd" fill-opacity="1" /><path clip-path="url(#clip190)" d="M 0 0 M994.778 1535.98 L1011.1 1535.98 L1011.1 1539.92 L989.153 1539.92 L989.153 1535.98 Q991.816 1533.23 996.399 1528.6 Q1001.01 1523.95 1002.19 1522.61 Q1004.43 1520.08 1005.31 1518.35 Q1006.21 1516.59 1006.21 1514.9 Q1006.21 1512.14 1004.27 1510.41 Q1002.35 1508.67 999.246 1508.67 Q997.047 1508.67 994.593 1509.43 Q992.163 1510.2 989.385 1511.75 L989.385 1507.03 Q992.209 1505.89 994.663 1505.31 Q997.116 1504.73 999.153 1504.73 Q1004.52 1504.73 1007.72 1507.42 Q1010.91 1510.11 1010.91 1514.6 Q1010.91 1516.73 1010.1 1518.65 Q1009.32 1520.54 1007.21 1523.14 Q1006.63 1523.81 1003.53 1527.03 Q1000.43 1530.22 994.778 1535.98 Z" fill="#000000" fill-rule="evenodd" fill-opacity="1" /><path clip-path="url(#clip190)" d="M 0 0 M1274 1508.44 Q1270.39 1508.44 1268.56 1512 Q1266.76 1515.55 1266.76 1522.67 Q1266.76 1529.78 1268.56 1533.35 Q1270.39 1536.89 1274 1536.89 Q1277.64 1536.89 1279.44 1533.35 Q1281.27 1529.78 1281.27 1522.67 Q1281.27 1515.55 1279.44 1512 Q1277.64 1508.44 1274 1508.44 M1274 1504.73 Q1279.81 1504.73 1282.87 1509.34 Q1285.95 1513.92 1285.95 1522.67 Q1285.95 1531.4 1282.87 1536.01 Q1279.81 1540.59 1274 1540.59 Q1268.19 1540.59 1265.11 1536.01 Q1262.06 1531.4 1262.06 1522.67 Q1262.06 1513.92 1265.11 1509.34 Q1268.19 1504.73 1274 1504.73 Z" fill="#000000" fill-rule="evenodd" fill-opacity="1" /><path clip-path="url(#clip190)" d="M 0 0 M1559.11 1535.98 L1575.43 1535.98 L1575.43 1539.92 L1553.48 1539.92 L1553.48 1535.98 Q1556.14 1533.23 1560.73 1528.6 Q1565.33 1523.95 1566.51 1522.61 Q1568.76 1520.08 1569.64 1518.35 Q1570.54 1516.59 1570.54 1514.9 Q1570.54 1512.14 1568.6 1510.41 Q1566.68 1508.67 1563.57 1508.67 Q1561.38 1508.67 1558.92 1509.43 Q1556.49 1510.2 1553.71 1511.75 L1553.71 1507.03 Q1556.54 1505.89 1558.99 1505.31 Q1561.44 1504.73 1563.48 1504.73 Q1568.85 1504.73 1572.05 1507.42 Q1575.24 1510.11 1575.24 1514.6 Q1575.24 1516.73 1574.43 1518.65 Q1573.64 1520.54 1571.54 1523.14 Q1570.96 1523.81 1567.86 1527.03 Q1564.75 1530.22 1559.11 1535.98 Z" fill="#000000" fill-rule="evenodd" fill-opacity="1" /><path clip-path="url(#clip190)" d="M 0 0 M1857.91 1509.43 L1846.11 1527.88 L1857.91 1527.88 L1857.91 1509.43 M1856.69 1505.36 L1862.57 1505.36 L1862.57 1527.88 L1867.5 1527.88 L1867.5 1531.77 L1862.57 1531.77 L1862.57 1539.92 L1857.91 1539.92 L1857.91 1531.77 L1842.31 1531.77 L1842.31 1527.26 L1856.69 1505.36 Z" fill="#000000" fill-rule="evenodd" fill-opacity="1" /><path clip-path="url(#clip190)" d="M 0 0 M2145.76 1520.78 Q2142.61 1520.78 2140.76 1522.93 Q2138.93 1525.08 2138.93 1528.83 Q2138.93 1532.56 2140.76 1534.73 Q2142.61 1536.89 2145.76 1536.89 Q2148.91 1536.89 2150.74 1534.73 Q2152.59 1532.56 2152.59 1528.83 Q2152.59 1525.08 2150.74 1522.93 Q2148.91 1520.78 2145.76 1520.78 M2155.04 1506.12 L2155.04 1510.38 Q2153.28 1509.55 2151.48 1509.11 Q2149.7 1508.67 2147.94 1508.67 Q2143.31 1508.67 2140.85 1511.8 Q2138.42 1514.92 2138.08 1521.24 Q2139.44 1519.23 2141.5 1518.16 Q2143.56 1517.07 2146.04 1517.07 Q2151.25 1517.07 2154.26 1520.24 Q2157.29 1523.39 2157.29 1528.83 Q2157.29 1534.16 2154.14 1537.37 Q2150.99 1540.59 2145.76 1540.59 Q2139.77 1540.59 2136.59 1536.01 Q2133.42 1531.4 2133.42 1522.67 Q2133.42 1514.48 2137.31 1509.62 Q2141.2 1504.73 2147.75 1504.73 Q2149.51 1504.73 2151.29 1505.08 Q2153.1 1505.43 2155.04 1506.12 Z" fill="#000000" fill-rule="evenodd" fill-opacity="1" /><path clip-path="url(#clip190)" d="M 0 0 M130.26 1431.51 Q126.649 1431.51 124.82 1435.08 Q123.015 1438.62 123.015 1445.75 Q123.015 1452.86 124.82 1456.42 Q126.649 1459.96 130.26 1459.96 Q133.895 1459.96 135.7 1456.42 Q137.529 1452.86 137.529 1445.75 Q137.529 1438.62 135.7 1435.08 Q133.895 1431.51 130.26 1431.51 M130.26 1427.81 Q136.07 1427.81 139.126 1432.42 Q142.205 1437 142.205 1445.75 Q142.205 1454.48 139.126 1459.08 Q136.07 1463.67 130.26 1463.67 Q124.45 1463.67 121.371 1459.08 Q118.316 1454.48 118.316 1445.75 Q118.316 1437 121.371 1432.42 Q124.45 1427.81 130.26 1427.81 Z" fill="#000000" fill-rule="evenodd" fill-opacity="1" /><path clip-path="url(#clip190)" d="M 0 0 M71.8578 1121.73 L88.1772 1121.73 L88.1772 1125.67 L66.2328 1125.67 L66.2328 1121.73 Q68.8949 1118.98 73.4782 1114.35 Q78.0846 1109.7 79.2652 1108.35 Q81.5105 1105.83 82.3902 1104.1 Q83.2929 1102.34 83.2929 1100.65 Q83.2929 1097.89 81.3485 1096.16 Q79.4272 1094.42 76.3254 1094.42 Q74.1263 1094.42 71.6726 1095.18 Q69.2421 1095.95 66.4643 1097.5 L66.4643 1092.78 Q69.2884 1091.64 71.7421 1091.06 Q74.1958 1090.48 76.2328 1090.48 Q81.6031 1090.48 84.7976 1093.17 Q87.992 1095.85 87.992 1100.35 Q87.992 1102.47 87.1818 1104.4 Q86.3948 1106.29 84.2883 1108.89 Q83.7096 1109.56 80.6078 1112.78 Q77.5059 1115.97 71.8578 1121.73 Z" fill="#000000" fill-rule="evenodd" fill-opacity="1" /><path clip-path="url(#clip190)" d="M 0 0 M103.247 1094.19 Q99.6354 1094.19 97.8068 1097.75 Q96.0012 1101.29 96.0012 1108.42 Q96.0012 1115.53 97.8068 1119.1 Q99.6354 1122.64 103.247 1122.64 Q106.881 1122.64 108.686 1119.1 Q110.515 1115.53 110.515 1108.42 Q110.515 1101.29 108.686 1097.75 Q106.881 1094.19 103.247 1094.19 M103.247 1090.48 Q109.057 1090.48 112.112 1095.09 Q115.191 1099.67 115.191 1108.42 Q115.191 1117.15 112.112 1121.76 Q109.057 1126.34 103.247 1126.34 Q97.4364 1126.34 94.3577 1121.76 Q91.3022 1117.15 91.3022 1108.42 Q91.3022 1099.67 94.3577 1095.09 Q97.4364 1090.48 103.247 1090.48 Z" fill="#000000" fill-rule="evenodd" fill-opacity="1" /><path clip-path="url(#clip190)" d="M 0 0 M130.26 1094.19 Q126.649 1094.19 124.82 1097.75 Q123.015 1101.29 123.015 1108.42 Q123.015 1115.53 124.82 1119.1 Q126.649 1122.64 130.26 1122.64 Q133.895 1122.64 135.7 1119.1 Q137.529 1115.53 137.529 1108.42 Q137.529 1101.29 135.7 1097.75 Q133.895 1094.19 130.26 1094.19 M130.26 1090.48 Q136.07 1090.48 139.126 1095.09 Q142.205 1099.67 142.205 1108.42 Q142.205 1117.15 139.126 1121.76 Q136.07 1126.34 130.26 1126.34 Q124.45 1126.34 121.371 1121.76 Q118.316 1117.15 118.316 1108.42 Q118.316 1099.67 121.371 1095.09 Q124.45 1090.48 130.26 1090.48 Z" fill="#000000" fill-rule="evenodd" fill-opacity="1" /><path clip-path="url(#clip190)" d="M 0 0 M78.5939 757.857 L66.7884 776.306 L78.5939 776.306 L78.5939 757.857 M77.367 753.783 L83.2466 753.783 L83.2466 776.306 L88.1772 776.306 L88.1772 780.194 L83.2466 780.194 L83.2466 788.343 L78.5939 788.343 L78.5939 780.194 L62.9921 780.194 L62.9921 775.681 L77.367 753.783 Z" fill="#000000" fill-rule="evenodd" fill-opacity="1" /><path clip-path="url(#clip190)" d="M 0 0 M103.247 756.861 Q99.6354 756.861 97.8068 760.426 Q96.0012 763.968 96.0012 771.097 Q96.0012 778.204 97.8068 781.769 Q99.6354 785.31 103.247 785.31 Q106.881 785.31 108.686 781.769 Q110.515 778.204 110.515 771.097 Q110.515 763.968 108.686 760.426 Q106.881 756.861 103.247 756.861 M103.247 753.158 Q109.057 753.158 112.112 757.764 Q115.191 762.347 115.191 771.097 Q115.191 779.824 112.112 784.431 Q109.057 789.014 103.247 789.014 Q97.4364 789.014 94.3577 784.431 Q91.3022 779.824 91.3022 771.097 Q91.3022 762.347 94.3577 757.764 Q97.4364 753.158 103.247 753.158 Z" fill="#000000" fill-rule="evenodd" fill-opacity="1" /><path clip-path="url(#clip190)" d="M 0 0 M130.26 756.861 Q126.649 756.861 124.82 760.426 Q123.015 763.968 123.015 771.097 Q123.015 778.204 124.82 781.769 Q126.649 785.31 130.26 785.31 Q133.895 785.31 135.7 781.769 Q137.529 778.204 137.529 771.097 Q137.529 763.968 135.7 760.426 Q133.895 756.861 130.26 756.861 M130.26 753.158 Q136.07 753.158 139.126 757.764 Q142.205 762.347 142.205 771.097 Q142.205 779.824 139.126 784.431 Q136.07 789.014 130.26 789.014 Q124.45 789.014 121.371 784.431 Q118.316 779.824 118.316 771.097 Q118.316 762.347 121.371 757.764 Q124.45 753.158 130.26 753.158 Z" fill="#000000" fill-rule="evenodd" fill-opacity="1" /><path clip-path="url(#clip190)" d="M 0 0 M76.6495 431.873 Q73.5013 431.873 71.6495 434.025 Q69.8208 436.178 69.8208 439.928 Q69.8208 443.655 71.6495 445.831 Q73.5013 447.984 76.6495 447.984 Q79.7976 447.984 81.6263 445.831 Q83.4781 443.655 83.4781 439.928 Q83.4781 436.178 81.6263 434.025 Q79.7976 431.873 76.6495 431.873 M85.9318 417.22 L85.9318 421.479 Q84.1726 420.646 82.367 420.206 Q80.5846 419.766 78.8254 419.766 Q74.1958 419.766 71.7421 422.891 Q69.3115 426.016 68.9643 432.336 Q70.33 430.322 72.3902 429.257 Q74.4504 428.169 76.9272 428.169 Q82.1355 428.169 85.1448 431.34 Q88.1772 434.488 88.1772 439.928 Q88.1772 445.252 85.029 448.47 Q81.8809 451.687 76.6495 451.687 Q70.6541 451.687 67.4828 447.104 Q64.3116 442.498 64.3116 433.771 Q64.3116 425.576 68.2004 420.715 Q72.0893 415.831 78.6402 415.831 Q80.3994 415.831 82.1818 416.178 Q83.9874 416.525 85.9318 417.22 Z" fill="#000000" fill-rule="evenodd" fill-opacity="1" /><path clip-path="url(#clip190)" d="M 0 0 M103.247 419.535 Q99.6354 419.535 97.8068 423.099 Q96.0012 426.641 96.0012 433.771 Q96.0012 440.877 97.8068 444.442 Q99.6354 447.984 103.247 447.984 Q106.881 447.984 108.686 444.442 Q110.515 440.877 110.515 433.771 Q110.515 426.641 108.686 423.099 Q106.881 419.535 103.247 419.535 M103.247 415.831 Q109.057 415.831 112.112 420.437 Q115.191 425.021 115.191 433.771 Q115.191 442.498 112.112 447.104 Q109.057 451.687 103.247 451.687 Q97.4364 451.687 94.3577 447.104 Q91.3022 442.498 91.3022 433.771 Q91.3022 425.021 94.3577 420.437 Q97.4364 415.831 103.247 415.831 Z" fill="#000000" fill-rule="evenodd" fill-opacity="1" /><path clip-path="url(#clip190)" d="M 0 0 M130.26 419.535 Q126.649 419.535 124.82 423.099 Q123.015 426.641 123.015 433.771 Q123.015 440.877 124.82 444.442 Q126.649 447.984 130.26 447.984 Q133.895 447.984 135.7 444.442 Q137.529 440.877 137.529 433.771 Q137.529 426.641 135.7 423.099 Q133.895 419.535 130.26 419.535 M130.26 415.831 Q136.07 415.831 139.126 420.437 Q142.205 425.021 142.205 433.771 Q142.205 442.498 139.126 447.104 Q136.07 451.687 130.26 451.687 Q124.45 451.687 121.371 447.104 Q118.316 442.498 118.316 433.771 Q118.316 425.021 121.371 420.437 Q124.45 415.831 130.26 415.831 Z" fill="#000000" fill-rule="evenodd" fill-opacity="1" /><path clip-path="url(#clip190)" d="M 0 0 M76.3254 97.2775 Q72.9921 97.2775 71.0708 99.0599 Q69.1726 100.842 69.1726 103.967 Q69.1726 107.092 71.0708 108.875 Q72.9921 110.657 76.3254 110.657 Q79.6587 110.657 81.58 108.875 Q83.5013 107.069 83.5013 103.967 Q83.5013 100.842 81.58 99.0599 Q79.6819 97.2775 76.3254 97.2775 M71.6495 95.2868 Q68.6402 94.546 66.9504 92.4859 Q65.2838 90.4257 65.2838 87.4627 Q65.2838 83.3192 68.2236 80.9118 Q71.1865 78.5044 76.3254 78.5044 Q81.4874 78.5044 84.4272 80.9118 Q87.367 83.3192 87.367 87.4627 Q87.367 90.4257 85.6772 92.4859 Q84.0105 94.546 81.0244 95.2868 Q84.404 96.0738 86.279 98.3654 Q88.1772 100.657 88.1772 103.967 Q88.1772 108.99 85.0985 111.676 Q82.0429 114.361 76.3254 114.361 Q70.6078 114.361 67.5291 111.676 Q64.4736 108.99 64.4736 103.967 Q64.4736 100.657 66.3717 98.3654 Q68.2699 96.0738 71.6495 95.2868 M69.9365 87.9025 Q69.9365 90.5877 71.6032 92.0923 Q73.293 93.597 76.3254 93.597 Q79.3346 93.597 81.0244 92.0923 Q82.7374 90.5877 82.7374 87.9025 Q82.7374 85.2174 81.0244 83.7127 Q79.3346 82.2081 76.3254 82.2081 Q73.293 82.2081 71.6032 83.7127 Q69.9365 85.2174 69.9365 87.9025 Z" fill="#000000" fill-rule="evenodd" fill-opacity="1" /><path clip-path="url(#clip190)" d="M 0 0 M103.247 82.2081 Q99.6354 82.2081 97.8068 85.7729 Q96.0012 89.3146 96.0012 96.4442 Q96.0012 103.551 97.8068 107.115 Q99.6354 110.657 103.247 110.657 Q106.881 110.657 108.686 107.115 Q110.515 103.551 110.515 96.4442 Q110.515 89.3146 108.686 85.7729 Q106.881 82.2081 103.247 82.2081 M103.247 78.5044 Q109.057 78.5044 112.112 83.1109 Q115.191 87.6942 115.191 96.4442 Q115.191 105.171 112.112 109.777 Q109.057 114.361 103.247 114.361 Q97.4364 114.361 94.3577 109.777 Q91.3022 105.171 91.3022 96.4442 Q91.3022 87.6942 94.3577 83.1109 Q97.4364 78.5044 103.247 78.5044 Z" fill="#000000" fill-rule="evenodd" fill-opacity="1" /><path clip-path="url(#clip190)" d="M 0 0 M130.26 82.2081 Q126.649 82.2081 124.82 85.7729 Q123.015 89.3146 123.015 96.4442 Q123.015 103.551 124.82 107.115 Q126.649 110.657 130.26 110.657 Q133.895 110.657 135.7 107.115 Q137.529 103.551 137.529 96.4442 Q137.529 89.3146 135.7 85.7729 Q133.895 82.2081 130.26 82.2081 M130.26 78.5044 Q136.07 78.5044 139.126 83.1109 Q142.205 87.6942 142.205 96.4442 Q142.205 105.171 139.126 109.777 Q136.07 114.361 130.26 114.361 Q124.45 114.361 121.371 109.777 Q118.316 105.171 118.316 96.4442 Q118.316 87.6942 121.371 83.1109 Q124.45 78.5044 130.26 78.5044 Z" fill="#000000" fill-rule="evenodd" fill-opacity="1" /><path clip-path="url(#clip192)" d="
M286.469 1444.03 L286.469 1445.72 L315.514 1445.72 L315.514 1444.03 L286.469 1444.03 L286.469 1444.03  Z
  " fill="#009af9" fill-rule="evenodd" fill-opacity="1"/>
<polyline clip-path="url(#clip192)" style="stroke:#000000; stroke-width:4; stroke-opacity:1; fill:none" points="
  286.469,1444.03 286.469,1445.72 315.514,1445.72 315.514,1444.03 286.469,1444.03 
  "/>
<path clip-path="url(#clip192)" d="
M315.514 1442.34 L315.514 1445.72 L344.559 1445.72 L344.559 1442.34 L315.514 1442.34 L315.514 1442.34  Z
  " fill="#009af9" fill-rule="evenodd" fill-opacity="1"/>
<polyline clip-path="url(#clip192)" style="stroke:#000000; stroke-width:4; stroke-opacity:1; fill:none" points="
  315.514,1442.34 315.514,1445.72 344.559,1445.72 344.559,1442.34 315.514,1442.34 
  "/>
<path clip-path="url(#clip192)" d="
M344.559 1444.03 L344.559 1445.72 L373.604 1445.72 L373.604 1444.03 L344.559 1444.03 L344.559 1444.03  Z
  " fill="#009af9" fill-rule="evenodd" fill-opacity="1"/>
<polyline clip-path="url(#clip192)" style="stroke:#000000; stroke-width:4; stroke-opacity:1; fill:none" points="
  344.559,1444.03 344.559,1445.72 373.604,1445.72 373.604,1444.03 344.559,1444.03 
  "/>
<path clip-path="url(#clip192)" d="
M373.604 1444.03 L373.604 1445.72 L402.649 1445.72 L402.649 1444.03 L373.604 1444.03 L373.604 1444.03  Z
  " fill="#009af9" fill-rule="evenodd" fill-opacity="1"/>
<polyline clip-path="url(#clip192)" style="stroke:#000000; stroke-width:4; stroke-opacity:1; fill:none" points="
  373.604,1444.03 373.604,1445.72 402.649,1445.72 402.649,1444.03 373.604,1444.03 
  "/>
<path clip-path="url(#clip192)" d="
M402.649 1444.03 L402.649 1445.72 L431.694 1445.72 L431.694 1444.03 L402.649 1444.03 L402.649 1444.03  Z
  " fill="#009af9" fill-rule="evenodd" fill-opacity="1"/>
<polyline clip-path="url(#clip192)" style="stroke:#000000; stroke-width:4; stroke-opacity:1; fill:none" points="
  402.649,1444.03 402.649,1445.72 431.694,1445.72 431.694,1444.03 402.649,1444.03 
  "/>
<path clip-path="url(#clip192)" d="
M431.694 1437.28 L431.694 1445.72 L460.74 1445.72 L460.74 1437.28 L431.694 1437.28 L431.694 1437.28  Z
  " fill="#009af9" fill-rule="evenodd" fill-opacity="1"/>
<polyline clip-path="url(#clip192)" style="stroke:#000000; stroke-width:4; stroke-opacity:1; fill:none" points="
  431.694,1437.28 431.694,1445.72 460.74,1445.72 460.74,1437.28 431.694,1437.28 
  "/>
<path clip-path="url(#clip192)" d="
M460.74 1444.03 L460.74 1445.72 L489.785 1445.72 L489.785 1444.03 L460.74 1444.03 L460.74 1444.03  Z
  " fill="#009af9" fill-rule="evenodd" fill-opacity="1"/>
<polyline clip-path="url(#clip192)" style="stroke:#000000; stroke-width:4; stroke-opacity:1; fill:none" points="
  460.74,1444.03 460.74,1445.72 489.785,1445.72 489.785,1444.03 460.74,1444.03 
  "/>
<path clip-path="url(#clip192)" d="
M489.785 1445.72 L489.785 1445.72 L518.83 1445.72 L518.83 1445.72 L489.785 1445.72 L489.785 1445.72  Z
  " fill="#009af9" fill-rule="evenodd" fill-opacity="1"/>
<polyline clip-path="url(#clip192)" style="stroke:#000000; stroke-width:4; stroke-opacity:1; fill:none" points="
  489.785,1445.72 489.785,1445.72 518.83,1445.72 489.785,1445.72 
  "/>
<path clip-path="url(#clip192)" d="
M518.83 1430.54 L518.83 1445.72 L547.875 1445.72 L547.875 1430.54 L518.83 1430.54 L518.83 1430.54  Z
  " fill="#009af9" fill-rule="evenodd" fill-opacity="1"/>
<polyline clip-path="url(#clip192)" style="stroke:#000000; stroke-width:4; stroke-opacity:1; fill:none" points="
  518.83,1430.54 518.83,1445.72 547.875,1445.72 547.875,1430.54 518.83,1430.54 
  "/>
<path clip-path="url(#clip192)" d="
M547.875 1430.54 L547.875 1445.72 L576.92 1445.72 L576.92 1430.54 L547.875 1430.54 L547.875 1430.54  Z
  " fill="#009af9" fill-rule="evenodd" fill-opacity="1"/>
<polyline clip-path="url(#clip192)" style="stroke:#000000; stroke-width:4; stroke-opacity:1; fill:none" points="
  547.875,1430.54 547.875,1445.72 576.92,1445.72 576.92,1430.54 547.875,1430.54 
  "/>
<path clip-path="url(#clip192)" d="
M576.92 1430.54 L576.92 1445.72 L605.965 1445.72 L605.965 1430.54 L576.92 1430.54 L576.92 1430.54  Z
  " fill="#009af9" fill-rule="evenodd" fill-opacity="1"/>
<polyline clip-path="url(#clip192)" style="stroke:#000000; stroke-width:4; stroke-opacity:1; fill:none" points="
  576.92,1430.54 576.92,1445.72 605.965,1445.72 605.965,1430.54 576.92,1430.54 
  "/>
<path clip-path="url(#clip192)" d="
M605.965 1437.28 L605.965 1445.72 L635.01 1445.72 L635.01 1437.28 L605.965 1437.28 L605.965 1437.28  Z
  " fill="#009af9" fill-rule="evenodd" fill-opacity="1"/>
<polyline clip-path="url(#clip192)" style="stroke:#000000; stroke-width:4; stroke-opacity:1; fill:none" points="
  605.965,1437.28 605.965,1445.72 635.01,1445.72 635.01,1437.28 605.965,1437.28 
  "/>
<path clip-path="url(#clip192)" d="
M635.01 1417.04 L635.01 1445.72 L664.055 1445.72 L664.055 1417.04 L635.01 1417.04 L635.01 1417.04  Z
  " fill="#009af9" fill-rule="evenodd" fill-opacity="1"/>
<polyline clip-path="url(#clip192)" style="stroke:#000000; stroke-width:4; stroke-opacity:1; fill:none" points="
  635.01,1417.04 635.01,1445.72 664.055,1445.72 664.055,1417.04 635.01,1417.04 
  "/>
<path clip-path="url(#clip192)" d="
M664.055 1425.48 L664.055 1445.72 L693.101 1445.72 L693.101 1425.48 L664.055 1425.48 L664.055 1425.48  Z
  " fill="#009af9" fill-rule="evenodd" fill-opacity="1"/>
<polyline clip-path="url(#clip192)" style="stroke:#000000; stroke-width:4; stroke-opacity:1; fill:none" points="
  664.055,1425.48 664.055,1445.72 693.101,1445.72 693.101,1425.48 664.055,1425.48 
  "/>
<path clip-path="url(#clip192)" d="
M693.101 1417.04 L693.101 1445.72 L722.146 1445.72 L722.146 1417.04 L693.101 1417.04 L693.101 1417.04  Z
  " fill="#009af9" fill-rule="evenodd" fill-opacity="1"/>
<polyline clip-path="url(#clip192)" style="stroke:#000000; stroke-width:4; stroke-opacity:1; fill:none" points="
  693.101,1417.04 693.101,1445.72 722.146,1445.72 722.146,1417.04 693.101,1417.04 
  "/>
<path clip-path="url(#clip192)" d="
M722.146 1408.61 L722.146 1445.72 L751.191 1445.72 L751.191 1408.61 L722.146 1408.61 L722.146 1408.61  Z
  " fill="#009af9" fill-rule="evenodd" fill-opacity="1"/>
<polyline clip-path="url(#clip192)" style="stroke:#000000; stroke-width:4; stroke-opacity:1; fill:none" points="
  722.146,1408.61 722.146,1445.72 751.191,1445.72 751.191,1408.61 722.146,1408.61 
  "/>
<path clip-path="url(#clip192)" d="
M751.191 1401.86 L751.191 1445.72 L780.236 1445.72 L780.236 1401.86 L751.191 1401.86 L751.191 1401.86  Z
  " fill="#009af9" fill-rule="evenodd" fill-opacity="1"/>
<polyline clip-path="url(#clip192)" style="stroke:#000000; stroke-width:4; stroke-opacity:1; fill:none" points="
  751.191,1401.86 751.191,1445.72 780.236,1445.72 780.236,1401.86 751.191,1401.86 
  "/>
<path clip-path="url(#clip192)" d="
M780.236 1406.92 L780.236 1445.72 L809.281 1445.72 L809.281 1406.92 L780.236 1406.92 L780.236 1406.92  Z
  " fill="#009af9" fill-rule="evenodd" fill-opacity="1"/>
<polyline clip-path="url(#clip192)" style="stroke:#000000; stroke-width:4; stroke-opacity:1; fill:none" points="
  780.236,1406.92 780.236,1445.72 809.281,1445.72 809.281,1406.92 780.236,1406.92 
  "/>
<path clip-path="url(#clip192)" d="
M809.281 1398.49 L809.281 1445.72 L838.326 1445.72 L838.326 1398.49 L809.281 1398.49 L809.281 1398.49  Z
  " fill="#009af9" fill-rule="evenodd" fill-opacity="1"/>
<polyline clip-path="url(#clip192)" style="stroke:#000000; stroke-width:4; stroke-opacity:1; fill:none" points="
  809.281,1398.49 809.281,1445.72 838.326,1445.72 838.326,1398.49 809.281,1398.49 
  "/>
<path clip-path="url(#clip192)" d="
M838.326 1376.56 L838.326 1445.72 L867.371 1445.72 L867.371 1376.56 L838.326 1376.56 L838.326 1376.56  Z
  " fill="#009af9" fill-rule="evenodd" fill-opacity="1"/>
<polyline clip-path="url(#clip192)" style="stroke:#000000; stroke-width:4; stroke-opacity:1; fill:none" points="
  838.326,1376.56 838.326,1445.72 867.371,1445.72 867.371,1376.56 838.326,1376.56 
  "/>
<path clip-path="url(#clip192)" d="
M867.371 1358.01 L867.371 1445.72 L896.416 1445.72 L896.416 1358.01 L867.371 1358.01 L867.371 1358.01  Z
  " fill="#009af9" fill-rule="evenodd" fill-opacity="1"/>
<polyline clip-path="url(#clip192)" style="stroke:#000000; stroke-width:4; stroke-opacity:1; fill:none" points="
  867.371,1358.01 867.371,1445.72 896.416,1445.72 896.416,1358.01 867.371,1358.01 
  "/>
<path clip-path="url(#clip192)" d="
M896.416 1342.83 L896.416 1445.72 L925.461 1445.72 L925.461 1342.83 L896.416 1342.83 L896.416 1342.83  Z
  " fill="#009af9" fill-rule="evenodd" fill-opacity="1"/>
<polyline clip-path="url(#clip192)" style="stroke:#000000; stroke-width:4; stroke-opacity:1; fill:none" points="
  896.416,1342.83 896.416,1445.72 925.461,1445.72 925.461,1342.83 896.416,1342.83 
  "/>
<path clip-path="url(#clip192)" d="
M925.461 1352.95 L925.461 1445.72 L954.507 1445.72 L954.507 1352.95 L925.461 1352.95 L925.461 1352.95  Z
  " fill="#009af9" fill-rule="evenodd" fill-opacity="1"/>
<polyline clip-path="url(#clip192)" style="stroke:#000000; stroke-width:4; stroke-opacity:1; fill:none" points="
  925.461,1352.95 925.461,1445.72 954.507,1445.72 954.507,1352.95 925.461,1352.95 
  "/>
<path clip-path="url(#clip192)" d="
M954.507 1351.26 L954.507 1445.72 L983.552 1445.72 L983.552 1351.26 L954.507 1351.26 L954.507 1351.26  Z
  " fill="#009af9" fill-rule="evenodd" fill-opacity="1"/>
<polyline clip-path="url(#clip192)" style="stroke:#000000; stroke-width:4; stroke-opacity:1; fill:none" points="
  954.507,1351.26 954.507,1445.72 983.552,1445.72 983.552,1351.26 954.507,1351.26 
  "/>
<path clip-path="url(#clip192)" d="
M983.552 1287.17 L983.552 1445.72 L1012.6 1445.72 L1012.6 1287.17 L983.552 1287.17 L983.552 1287.17  Z
  " fill="#009af9" fill-rule="evenodd" fill-opacity="1"/>
<polyline clip-path="url(#clip192)" style="stroke:#000000; stroke-width:4; stroke-opacity:1; fill:none" points="
  983.552,1287.17 983.552,1445.72 1012.6,1445.72 1012.6,1287.17 983.552,1287.17 
  "/>
<path clip-path="url(#clip192)" d="
M1012.6 1293.92 L1012.6 1445.72 L1041.64 1445.72 L1041.64 1293.92 L1012.6 1293.92 L1012.6 1293.92  Z
  " fill="#009af9" fill-rule="evenodd" fill-opacity="1"/>
<polyline clip-path="url(#clip192)" style="stroke:#000000; stroke-width:4; stroke-opacity:1; fill:none" points="
  1012.6,1293.92 1012.6,1445.72 1041.64,1445.72 1041.64,1293.92 1012.6,1293.92 
  "/>
<path clip-path="url(#clip192)" d="
M1041.64 1287.17 L1041.64 1445.72 L1070.69 1445.72 L1070.69 1287.17 L1041.64 1287.17 L1041.64 1287.17  Z
  " fill="#009af9" fill-rule="evenodd" fill-opacity="1"/>
<polyline clip-path="url(#clip192)" style="stroke:#000000; stroke-width:4; stroke-opacity:1; fill:none" points="
  1041.64,1287.17 1041.64,1445.72 1070.69,1445.72 1070.69,1287.17 1041.64,1287.17 
  "/>
<path clip-path="url(#clip192)" d="
M1070.69 1273.68 L1070.69 1445.72 L1099.73 1445.72 L1099.73 1273.68 L1070.69 1273.68 L1070.69 1273.68  Z
  " fill="#009af9" fill-rule="evenodd" fill-opacity="1"/>
<polyline clip-path="url(#clip192)" style="stroke:#000000; stroke-width:4; stroke-opacity:1; fill:none" points="
  1070.69,1273.68 1070.69,1445.72 1099.73,1445.72 1099.73,1273.68 1070.69,1273.68 
  "/>
<path clip-path="url(#clip192)" d="
M1099.73 1307.41 L1099.73 1445.72 L1128.78 1445.72 L1128.78 1307.41 L1099.73 1307.41 L1099.73 1307.41  Z
  " fill="#009af9" fill-rule="evenodd" fill-opacity="1"/>
<polyline clip-path="url(#clip192)" style="stroke:#000000; stroke-width:4; stroke-opacity:1; fill:none" points="
  1099.73,1307.41 1099.73,1445.72 1128.78,1445.72 1128.78,1307.41 1099.73,1307.41 
  "/>
<path clip-path="url(#clip192)" d="
M1128.78 1248.38 L1128.78 1445.72 L1157.82 1445.72 L1157.82 1248.38 L1128.78 1248.38 L1128.78 1248.38  Z
  " fill="#009af9" fill-rule="evenodd" fill-opacity="1"/>
<polyline clip-path="url(#clip192)" style="stroke:#000000; stroke-width:4; stroke-opacity:1; fill:none" points="
  1128.78,1248.38 1128.78,1445.72 1157.82,1445.72 1157.82,1248.38 1128.78,1248.38 
  "/>
<path clip-path="url(#clip192)" d="
M1157.82 1278.74 L1157.82 1445.72 L1186.87 1445.72 L1186.87 1278.74 L1157.82 1278.74 L1157.82 1278.74  Z
  " fill="#009af9" fill-rule="evenodd" fill-opacity="1"/>
<polyline clip-path="url(#clip192)" style="stroke:#000000; stroke-width:4; stroke-opacity:1; fill:none" points="
  1157.82,1278.74 1157.82,1445.72 1186.87,1445.72 1186.87,1278.74 1157.82,1278.74 
  "/>
<path clip-path="url(#clip192)" d="
M1186.87 1251.75 L1186.87 1445.72 L1215.91 1445.72 L1215.91 1251.75 L1186.87 1251.75 L1186.87 1251.75  Z
  " fill="#009af9" fill-rule="evenodd" fill-opacity="1"/>
<polyline clip-path="url(#clip192)" style="stroke:#000000; stroke-width:4; stroke-opacity:1; fill:none" points="
  1186.87,1251.75 1186.87,1445.72 1215.91,1445.72 1215.91,1251.75 1186.87,1251.75 
  "/>
<path clip-path="url(#clip192)" d="
M1215.91 1223.08 L1215.91 1445.72 L1244.96 1445.72 L1244.96 1223.08 L1215.91 1223.08 L1215.91 1223.08  Z
  " fill="#009af9" fill-rule="evenodd" fill-opacity="1"/>
<polyline clip-path="url(#clip192)" style="stroke:#000000; stroke-width:4; stroke-opacity:1; fill:none" points="
  1215.91,1223.08 1215.91,1445.72 1244.96,1445.72 1244.96,1223.08 1215.91,1223.08 
  "/>
<path clip-path="url(#clip192)" d="
M1244.96 1231.51 L1244.96 1445.72 L1274 1445.72 L1274 1231.51 L1244.96 1231.51 L1244.96 1231.51  Z
  " fill="#009af9" fill-rule="evenodd" fill-opacity="1"/>
<polyline clip-path="url(#clip192)" style="stroke:#000000; stroke-width:4; stroke-opacity:1; fill:none" points="
  1244.96,1231.51 1244.96,1445.72 1274,1445.72 1274,1231.51 1244.96,1231.51 
  "/>
<path clip-path="url(#clip192)" d="
M1274 1238.26 L1274 1445.72 L1303.05 1445.72 L1303.05 1238.26 L1274 1238.26 L1274 1238.26  Z
  " fill="#009af9" fill-rule="evenodd" fill-opacity="1"/>
<polyline clip-path="url(#clip192)" style="stroke:#000000; stroke-width:4; stroke-opacity:1; fill:none" points="
  1274,1238.26 1274,1445.72 1303.05,1445.72 1303.05,1238.26 1274,1238.26 
  "/>
<path clip-path="url(#clip192)" d="
M1303.05 1223.08 L1303.05 1445.72 L1332.09 1445.72 L1332.09 1223.08 L1303.05 1223.08 L1303.05 1223.08  Z
  " fill="#009af9" fill-rule="evenodd" fill-opacity="1"/>
<polyline clip-path="url(#clip192)" style="stroke:#000000; stroke-width:4; stroke-opacity:1; fill:none" points="
  1303.05,1223.08 1303.05,1445.72 1332.09,1445.72 1332.09,1223.08 1303.05,1223.08 
  "/>
<path clip-path="url(#clip192)" d="
M1332.09 1157.3 L1332.09 1445.72 L1361.14 1445.72 L1361.14 1157.3 L1332.09 1157.3 L1332.09 1157.3  Z
  " fill="#009af9" fill-rule="evenodd" fill-opacity="1"/>
<polyline clip-path="url(#clip192)" style="stroke:#000000; stroke-width:4; stroke-opacity:1; fill:none" points="
  1332.09,1157.3 1332.09,1445.72 1361.14,1445.72 1361.14,1157.3 1332.09,1157.3 
  "/>
<path clip-path="url(#clip192)" d="
M1361.14 782.869 L1361.14 1445.72 L1390.18 1445.72 L1390.18 782.869 L1361.14 782.869 L1361.14 782.869  Z
  " fill="#009af9" fill-rule="evenodd" fill-opacity="1"/>
<polyline clip-path="url(#clip192)" style="stroke:#000000; stroke-width:4; stroke-opacity:1; fill:none" points="
  1361.14,782.869 1361.14,1445.72 1390.18,1445.72 1390.18,782.869 1361.14,782.869 
  "/>
<path clip-path="url(#clip192)" d="
M1390.18 87.9763 L1390.18 1445.72 L1419.23 1445.72 L1419.23 87.9763 L1390.18 87.9763 L1390.18 87.9763  Z
  " fill="#009af9" fill-rule="evenodd" fill-opacity="1"/>
<polyline clip-path="url(#clip192)" style="stroke:#000000; stroke-width:4; stroke-opacity:1; fill:none" points="
  1390.18,87.9763 1390.18,1445.72 1419.23,1445.72 1419.23,87.9763 1390.18,87.9763 
  "/>
<path clip-path="url(#clip192)" d="
M1419.23 199.294 L1419.23 1445.72 L1448.27 1445.72 L1448.27 199.294 L1419.23 199.294 L1419.23 199.294  Z
  " fill="#009af9" fill-rule="evenodd" fill-opacity="1"/>
<polyline clip-path="url(#clip192)" style="stroke:#000000; stroke-width:4; stroke-opacity:1; fill:none" points="
  1419.23,199.294 1419.23,1445.72 1448.27,1445.72 1448.27,199.294 1419.23,199.294 
  "/>
<path clip-path="url(#clip192)" d="
M1448.27 825.035 L1448.27 1445.72 L1477.32 1445.72 L1477.32 825.035 L1448.27 825.035 L1448.27 825.035  Z
  " fill="#009af9" fill-rule="evenodd" fill-opacity="1"/>
<polyline clip-path="url(#clip192)" style="stroke:#000000; stroke-width:4; stroke-opacity:1; fill:none" points="
  1448.27,825.035 1448.27,1445.72 1477.32,1445.72 1477.32,825.035 1448.27,825.035 
  "/>
<path clip-path="url(#clip192)" d="
M1477.32 1204.53 L1477.32 1445.72 L1506.36 1445.72 L1506.36 1204.53 L1477.32 1204.53 L1477.32 1204.53  Z
  " fill="#009af9" fill-rule="evenodd" fill-opacity="1"/>
<polyline clip-path="url(#clip192)" style="stroke:#000000; stroke-width:4; stroke-opacity:1; fill:none" points="
  1477.32,1204.53 1477.32,1445.72 1506.36,1445.72 1506.36,1204.53 1477.32,1204.53 
  "/>
<path clip-path="url(#clip192)" d="
M1506.36 1342.83 L1506.36 1445.72 L1535.41 1445.72 L1535.41 1342.83 L1506.36 1342.83 L1506.36 1342.83  Z
  " fill="#009af9" fill-rule="evenodd" fill-opacity="1"/>
<polyline clip-path="url(#clip192)" style="stroke:#000000; stroke-width:4; stroke-opacity:1; fill:none" points="
  1506.36,1342.83 1506.36,1445.72 1535.41,1445.72 1535.41,1342.83 1506.36,1342.83 
  "/>
<path clip-path="url(#clip192)" d="
M1535.41 1314.16 L1535.41 1445.72 L1564.45 1445.72 L1564.45 1314.16 L1535.41 1314.16 L1535.41 1314.16  Z
  " fill="#009af9" fill-rule="evenodd" fill-opacity="1"/>
<polyline clip-path="url(#clip192)" style="stroke:#000000; stroke-width:4; stroke-opacity:1; fill:none" points="
  1535.41,1314.16 1535.41,1445.72 1564.45,1445.72 1564.45,1314.16 1535.41,1314.16 
  "/>
<path clip-path="url(#clip192)" d="
M1564.45 1320.9 L1564.45 1445.72 L1593.5 1445.72 L1593.5 1320.9 L1564.45 1320.9 L1564.45 1320.9  Z
  " fill="#009af9" fill-rule="evenodd" fill-opacity="1"/>
<polyline clip-path="url(#clip192)" style="stroke:#000000; stroke-width:4; stroke-opacity:1; fill:none" points="
  1564.45,1320.9 1564.45,1445.72 1593.5,1445.72 1593.5,1320.9 1564.45,1320.9 
  "/>
<path clip-path="url(#clip192)" d="
M1593.5 1363.07 L1593.5 1445.72 L1622.54 1445.72 L1622.54 1363.07 L1593.5 1363.07 L1593.5 1363.07  Z
  " fill="#009af9" fill-rule="evenodd" fill-opacity="1"/>
<polyline clip-path="url(#clip192)" style="stroke:#000000; stroke-width:4; stroke-opacity:1; fill:none" points="
  1593.5,1363.07 1593.5,1445.72 1622.54,1445.72 1622.54,1363.07 1593.5,1363.07 
  "/>
<path clip-path="url(#clip192)" d="
M1622.54 1336.08 L1622.54 1445.72 L1651.59 1445.72 L1651.59 1336.08 L1622.54 1336.08 L1622.54 1336.08  Z
  " fill="#009af9" fill-rule="evenodd" fill-opacity="1"/>
<polyline clip-path="url(#clip192)" style="stroke:#000000; stroke-width:4; stroke-opacity:1; fill:none" points="
  1622.54,1336.08 1622.54,1445.72 1651.59,1445.72 1651.59,1336.08 1622.54,1336.08 
  "/>
<path clip-path="url(#clip192)" d="
M1651.59 1369.82 L1651.59 1445.72 L1680.63 1445.72 L1680.63 1369.82 L1651.59 1369.82 L1651.59 1369.82  Z
  " fill="#009af9" fill-rule="evenodd" fill-opacity="1"/>
<polyline clip-path="url(#clip192)" style="stroke:#000000; stroke-width:4; stroke-opacity:1; fill:none" points="
  1651.59,1369.82 1651.59,1445.72 1680.63,1445.72 1680.63,1369.82 1651.59,1369.82 
  "/>
<path clip-path="url(#clip192)" d="
M1680.63 1354.64 L1680.63 1445.72 L1709.68 1445.72 L1709.68 1354.64 L1680.63 1354.64 L1680.63 1354.64  Z
  " fill="#009af9" fill-rule="evenodd" fill-opacity="1"/>
<polyline clip-path="url(#clip192)" style="stroke:#000000; stroke-width:4; stroke-opacity:1; fill:none" points="
  1680.63,1354.64 1680.63,1445.72 1709.68,1445.72 1709.68,1354.64 1680.63,1354.64 
  "/>
<path clip-path="url(#clip192)" d="
M1709.68 1386.68 L1709.68 1445.72 L1738.72 1445.72 L1738.72 1386.68 L1709.68 1386.68 L1709.68 1386.68  Z
  " fill="#009af9" fill-rule="evenodd" fill-opacity="1"/>
<polyline clip-path="url(#clip192)" style="stroke:#000000; stroke-width:4; stroke-opacity:1; fill:none" points="
  1709.68,1386.68 1709.68,1445.72 1738.72,1445.72 1738.72,1386.68 1709.68,1386.68 
  "/>
<path clip-path="url(#clip192)" d="
M1738.72 1398.49 L1738.72 1445.72 L1767.77 1445.72 L1767.77 1398.49 L1738.72 1398.49 L1738.72 1398.49  Z
  " fill="#009af9" fill-rule="evenodd" fill-opacity="1"/>
<polyline clip-path="url(#clip192)" style="stroke:#000000; stroke-width:4; stroke-opacity:1; fill:none" points="
  1738.72,1398.49 1738.72,1445.72 1767.77,1445.72 1767.77,1398.49 1738.72,1398.49 
  "/>
<path clip-path="url(#clip192)" d="
M1767.77 1398.49 L1767.77 1445.72 L1796.81 1445.72 L1796.81 1398.49 L1767.77 1398.49 L1767.77 1398.49  Z
  " fill="#009af9" fill-rule="evenodd" fill-opacity="1"/>
<polyline clip-path="url(#clip192)" style="stroke:#000000; stroke-width:4; stroke-opacity:1; fill:none" points="
  1767.77,1398.49 1767.77,1445.72 1796.81,1445.72 1796.81,1398.49 1767.77,1398.49 
  "/>
<path clip-path="url(#clip192)" d="
M1796.81 1417.04 L1796.81 1445.72 L1825.86 1445.72 L1825.86 1417.04 L1796.81 1417.04 L1796.81 1417.04  Z
  " fill="#009af9" fill-rule="evenodd" fill-opacity="1"/>
<polyline clip-path="url(#clip192)" style="stroke:#000000; stroke-width:4; stroke-opacity:1; fill:none" points="
  1796.81,1417.04 1796.81,1445.72 1825.86,1445.72 1825.86,1417.04 1796.81,1417.04 
  "/>
<path clip-path="url(#clip192)" d="
M1825.86 1410.3 L1825.86 1445.72 L1854.91 1445.72 L1854.91 1410.3 L1825.86 1410.3 L1825.86 1410.3  Z
  " fill="#009af9" fill-rule="evenodd" fill-opacity="1"/>
<polyline clip-path="url(#clip192)" style="stroke:#000000; stroke-width:4; stroke-opacity:1; fill:none" points="
  1825.86,1410.3 1825.86,1445.72 1854.91,1445.72 1854.91,1410.3 1825.86,1410.3 
  "/>
<path clip-path="url(#clip192)" d="
M1854.91 1413.67 L1854.91 1445.72 L1883.95 1445.72 L1883.95 1413.67 L1854.91 1413.67 L1854.91 1413.67  Z
  " fill="#009af9" fill-rule="evenodd" fill-opacity="1"/>
<polyline clip-path="url(#clip192)" style="stroke:#000000; stroke-width:4; stroke-opacity:1; fill:none" points="
  1854.91,1413.67 1854.91,1445.72 1883.95,1445.72 1883.95,1413.67 1854.91,1413.67 
  "/>
<path clip-path="url(#clip192)" d="
M1883.95 1435.6 L1883.95 1445.72 L1913 1445.72 L1913 1435.6 L1883.95 1435.6 L1883.95 1435.6  Z
  " fill="#009af9" fill-rule="evenodd" fill-opacity="1"/>
<polyline clip-path="url(#clip192)" style="stroke:#000000; stroke-width:4; stroke-opacity:1; fill:none" points="
  1883.95,1435.6 1883.95,1445.72 1913,1445.72 1913,1435.6 1883.95,1435.6 
  "/>
<path clip-path="url(#clip192)" d="
M1913 1442.34 L1913 1445.72 L1942.04 1445.72 L1942.04 1442.34 L1913 1442.34 L1913 1442.34  Z
  " fill="#009af9" fill-rule="evenodd" fill-opacity="1"/>
<polyline clip-path="url(#clip192)" style="stroke:#000000; stroke-width:4; stroke-opacity:1; fill:none" points="
  1913,1442.34 1913,1445.72 1942.04,1445.72 1942.04,1442.34 1913,1442.34 
  "/>
<path clip-path="url(#clip192)" d="
M1942.04 1428.85 L1942.04 1445.72 L1971.09 1445.72 L1971.09 1428.85 L1942.04 1428.85 L1942.04 1428.85  Z
  " fill="#009af9" fill-rule="evenodd" fill-opacity="1"/>
<polyline clip-path="url(#clip192)" style="stroke:#000000; stroke-width:4; stroke-opacity:1; fill:none" points="
  1942.04,1428.85 1942.04,1445.72 1971.09,1445.72 1971.09,1428.85 1942.04,1428.85 
  "/>
<path clip-path="url(#clip192)" d="
M1971.09 1430.54 L1971.09 1445.72 L2000.13 1445.72 L2000.13 1430.54 L1971.09 1430.54 L1971.09 1430.54  Z
  " fill="#009af9" fill-rule="evenodd" fill-opacity="1"/>
<polyline clip-path="url(#clip192)" style="stroke:#000000; stroke-width:4; stroke-opacity:1; fill:none" points="
  1971.09,1430.54 1971.09,1445.72 2000.13,1445.72 2000.13,1430.54 1971.09,1430.54 
  "/>
<path clip-path="url(#clip192)" d="
M2000.13 1442.34 L2000.13 1445.72 L2029.18 1445.72 L2029.18 1442.34 L2000.13 1442.34 L2000.13 1442.34  Z
  " fill="#009af9" fill-rule="evenodd" fill-opacity="1"/>
<polyline clip-path="url(#clip192)" style="stroke:#000000; stroke-width:4; stroke-opacity:1; fill:none" points="
  2000.13,1442.34 2000.13,1445.72 2029.18,1445.72 2029.18,1442.34 2000.13,1442.34 
  "/>
<path clip-path="url(#clip192)" d="
M2029.18 1433.91 L2029.18 1445.72 L2058.22 1445.72 L2058.22 1433.91 L2029.18 1433.91 L2029.18 1433.91  Z
  " fill="#009af9" fill-rule="evenodd" fill-opacity="1"/>
<polyline clip-path="url(#clip192)" style="stroke:#000000; stroke-width:4; stroke-opacity:1; fill:none" points="
  2029.18,1433.91 2029.18,1445.72 2058.22,1445.72 2058.22,1433.91 2029.18,1433.91 
  "/>
<path clip-path="url(#clip192)" d="
M2058.22 1444.03 L2058.22 1445.72 L2087.27 1445.72 L2087.27 1444.03 L2058.22 1444.03 L2058.22 1444.03  Z
  " fill="#009af9" fill-rule="evenodd" fill-opacity="1"/>
<polyline clip-path="url(#clip192)" style="stroke:#000000; stroke-width:4; stroke-opacity:1; fill:none" points="
  2058.22,1444.03 2058.22,1445.72 2087.27,1445.72 2087.27,1444.03 2058.22,1444.03 
  "/>
<path clip-path="url(#clip192)" d="
M2087.27 1437.28 L2087.27 1445.72 L2116.31 1445.72 L2116.31 1437.28 L2087.27 1437.28 L2087.27 1437.28  Z
  " fill="#009af9" fill-rule="evenodd" fill-opacity="1"/>
<polyline clip-path="url(#clip192)" style="stroke:#000000; stroke-width:4; stroke-opacity:1; fill:none" points="
  2087.27,1437.28 2087.27,1445.72 2116.31,1445.72 2116.31,1437.28 2087.27,1437.28 
  "/>
<path clip-path="url(#clip192)" d="
M2116.31 1442.34 L2116.31 1445.72 L2145.36 1445.72 L2145.36 1442.34 L2116.31 1442.34 L2116.31 1442.34  Z
  " fill="#009af9" fill-rule="evenodd" fill-opacity="1"/>
<polyline clip-path="url(#clip192)" style="stroke:#000000; stroke-width:4; stroke-opacity:1; fill:none" points="
  2116.31,1442.34 2116.31,1445.72 2145.36,1445.72 2145.36,1442.34 2116.31,1442.34 
  "/>
<path clip-path="url(#clip192)" d="
M2145.36 1445.72 L2145.36 1445.72 L2174.4 1445.72 L2174.4 1445.72 L2145.36 1445.72 L2145.36 1445.72  Z
  " fill="#009af9" fill-rule="evenodd" fill-opacity="1"/>
<polyline clip-path="url(#clip192)" style="stroke:#000000; stroke-width:4; stroke-opacity:1; fill:none" points="
  2145.36,1445.72 2145.36,1445.72 2174.4,1445.72 2145.36,1445.72 
  "/>
<path clip-path="url(#clip192)" d="
M2174.4 1444.03 L2174.4 1445.72 L2203.45 1445.72 L2203.45 1444.03 L2174.4 1444.03 L2174.4 1444.03  Z
  " fill="#009af9" fill-rule="evenodd" fill-opacity="1"/>
<polyline clip-path="url(#clip192)" style="stroke:#000000; stroke-width:4; stroke-opacity:1; fill:none" points="
  2174.4,1444.03 2174.4,1445.72 2203.45,1445.72 2203.45,1444.03 2174.4,1444.03 
  "/>
<path clip-path="url(#clip192)" d="
M2203.45 1444.03 L2203.45 1445.72 L2232.49 1445.72 L2232.49 1444.03 L2203.45 1444.03 L2203.45 1444.03  Z
  " fill="#009af9" fill-rule="evenodd" fill-opacity="1"/>
<polyline clip-path="url(#clip192)" style="stroke:#000000; stroke-width:4; stroke-opacity:1; fill:none" points="
  2203.45,1444.03 2203.45,1445.72 2232.49,1445.72 2232.49,1444.03 2203.45,1444.03 
  "/>
<path clip-path="url(#clip190)" d="
M1985.9 216.178 L2279.87 216.178 L2279.87 95.2176 L1985.9 95.2176  Z
  " fill="#ffffff" fill-rule="evenodd" fill-opacity="1"/>
<polyline clip-path="url(#clip190)" style="stroke:#000000; stroke-width:4; stroke-opacity:1; fill:none" points="
  1985.9,216.178 2279.87,216.178 2279.87,95.2176 1985.9,95.2176 1985.9,216.178 
  "/>
<path clip-path="url(#clip190)" d="
M2010.2 179.89 L2155.97 179.89 L2155.97 131.506 L2010.2 131.506 L2010.2 179.89  Z
  " fill="#009af9" fill-rule="evenodd" fill-opacity="1"/>
<polyline clip-path="url(#clip190)" style="stroke:#000000; stroke-width:4; stroke-opacity:1; fill:none" points="
  2010.2,179.89 2155.97,179.89 2155.97,131.506 2010.2,131.506 2010.2,179.89 
  "/>
<path clip-path="url(#clip190)" d="M 0 0 M2194.11 175.385 Q2192.3 180.015 2190.59 181.427 Q2188.87 182.839 2186 182.839 L2182.6 182.839 L2182.6 179.274 L2185.1 179.274 Q2186.86 179.274 2187.83 178.44 Q2188.8 177.607 2189.98 174.505 L2190.75 172.561 L2180.26 147.052 L2184.78 147.052 L2192.88 167.329 L2200.98 147.052 L2205.49 147.052 L2194.11 175.385 Z" fill="#000000" fill-rule="evenodd" fill-opacity="1" /><path clip-path="url(#clip190)" d="M 0 0 M2211.37 169.042 L2219.01 169.042 L2219.01 142.677 L2210.7 144.343 L2210.7 140.084 L2218.97 138.418 L2223.64 138.418 L2223.64 169.042 L2231.28 169.042 L2231.28 172.978 L2211.37 172.978 L2211.37 169.042 Z" fill="#000000" fill-rule="evenodd" fill-opacity="1" /></svg>
