<?xml version="1.0" encoding="utf-8"?>
<svg xmlns="http://www.w3.org/2000/svg" xmlns:xlink="http://www.w3.org/1999/xlink" width="600" height="400" viewBox="0 0 2400 1600">
<defs>
  <clipPath id="clip430">
    <rect x="0" y="0" width="2400" height="1600"/>
  </clipPath>
</defs>
<path clip-path="url(#clip430)" d="
M0 1600 L2400 1600 L2400 0 L0 0  Z
  " fill="#ffffff" fill-rule="evenodd" fill-opacity="1"/>
<defs>
  <clipPath id="clip431">
    <rect x="480" y="0" width="1681" height="1600"/>
  </clipPath>
</defs>
<path clip-path="url(#clip430)" d="
M166.205 1486.45 L2352.76 1486.45 L2352.76 47.2441 L166.205 47.2441  Z
  " fill="#ffffff" fill-rule="evenodd" fill-opacity="1"/>
<defs>
  <clipPath id="clip432">
    <rect x="166" y="47" width="2188" height="1440"/>
  </clipPath>
</defs>
<polyline clip-path="url(#clip432)" style="stroke:#000000; stroke-width:2; stroke-opacity:0.1; fill:none" points="
  412.388,1486.45 412.388,47.2441 
  "/>
<polyline clip-path="url(#clip432)" style="stroke:#000000; stroke-width:2; stroke-opacity:0.1; fill:none" points="
  698.568,1486.45 698.568,47.2441 
  "/>
<polyline clip-path="url(#clip432)" style="stroke:#000000; stroke-width:2; stroke-opacity:0.1; fill:none" points="
  984.748,1486.45 984.748,47.2441 
  "/>
<polyline clip-path="url(#clip432)" style="stroke:#000000; stroke-width:2; stroke-opacity:0.1; fill:none" points="
  1270.93,1486.45 1270.93,47.2441 
  "/>
<polyline clip-path="url(#clip432)" style="stroke:#000000; stroke-width:2; stroke-opacity:0.1; fill:none" points="
  1557.11,1486.45 1557.11,47.2441 
  "/>
<polyline clip-path="url(#clip432)" style="stroke:#000000; stroke-width:2; stroke-opacity:0.1; fill:none" points="
  1843.29,1486.45 1843.29,47.2441 
  "/>
<polyline clip-path="url(#clip432)" style="stroke:#000000; stroke-width:2; stroke-opacity:0.1; fill:none" points="
  2129.47,1486.45 2129.47,47.2441 
  "/>
<polyline clip-path="url(#clip432)" style="stroke:#000000; stroke-width:2; stroke-opacity:0.1; fill:none" points="
  166.205,1445.72 2352.76,1445.72 
  "/>
<polyline clip-path="url(#clip432)" style="stroke:#000000; stroke-width:2; stroke-opacity:0.1; fill:none" points="
  166.205,1110.88 2352.76,1110.88 
  "/>
<polyline clip-path="url(#clip432)" style="stroke:#000000; stroke-width:2; stroke-opacity:0.1; fill:none" points="
  166.205,776.054 2352.76,776.054 
  "/>
<polyline clip-path="url(#clip432)" style="stroke:#000000; stroke-width:2; stroke-opacity:0.1; fill:none" points="
  166.205,441.223 2352.76,441.223 
  "/>
<polyline clip-path="url(#clip432)" style="stroke:#000000; stroke-width:2; stroke-opacity:0.1; fill:none" points="
  166.205,106.392 2352.76,106.392 
  "/>
<polyline clip-path="url(#clip430)" style="stroke:#000000; stroke-width:4; stroke-opacity:1; fill:none" points="
  166.205,1486.45 2352.76,1486.45 
  "/>
<polyline clip-path="url(#clip430)" style="stroke:#000000; stroke-width:4; stroke-opacity:1; fill:none" points="
  166.205,1486.45 166.205,47.2441 
  "/>
<polyline clip-path="url(#clip430)" style="stroke:#000000; stroke-width:4; stroke-opacity:1; fill:none" points="
  412.388,1486.45 412.388,1469.18 
  "/>
<polyline clip-path="url(#clip430)" style="stroke:#000000; stroke-width:4; stroke-opacity:1; fill:none" points="
  698.568,1486.45 698.568,1469.18 
  "/>
<polyline clip-path="url(#clip430)" style="stroke:#000000; stroke-width:4; stroke-opacity:1; fill:none" points="
  984.748,1486.45 984.748,1469.18 
  "/>
<polyline clip-path="url(#clip430)" style="stroke:#000000; stroke-width:4; stroke-opacity:1; fill:none" points="
  1270.93,1486.45 1270.93,1469.18 
  "/>
<polyline clip-path="url(#clip430)" style="stroke:#000000; stroke-width:4; stroke-opacity:1; fill:none" points="
  1557.11,1486.45 1557.11,1469.18 
  "/>
<polyline clip-path="url(#clip430)" style="stroke:#000000; stroke-width:4; stroke-opacity:1; fill:none" points="
  1843.29,1486.45 1843.29,1469.18 
  "/>
<polyline clip-path="url(#clip430)" style="stroke:#000000; stroke-width:4; stroke-opacity:1; fill:none" points="
  2129.47,1486.45 2129.47,1469.18 
  "/>
<polyline clip-path="url(#clip430)" style="stroke:#000000; stroke-width:4; stroke-opacity:1; fill:none" points="
  166.205,1445.72 192.443,1445.72 
  "/>
<polyline clip-path="url(#clip430)" style="stroke:#000000; stroke-width:4; stroke-opacity:1; fill:none" points="
  166.205,1110.88 192.443,1110.88 
  "/>
<polyline clip-path="url(#clip430)" style="stroke:#000000; stroke-width:4; stroke-opacity:1; fill:none" points="
  166.205,776.054 192.443,776.054 
  "/>
<polyline clip-path="url(#clip430)" style="stroke:#000000; stroke-width:4; stroke-opacity:1; fill:none" points="
  166.205,441.223 192.443,441.223 
  "/>
<polyline clip-path="url(#clip430)" style="stroke:#000000; stroke-width:4; stroke-opacity:1; fill:none" points="
  166.205,106.392 192.443,106.392 
  "/>
<path clip-path="url(#clip430)" d="M 0 0 M366.509 1523.09 L396.184 1523.09 L396.184 1527.03 L366.509 1527.03 L366.509 1523.09 Z" fill="#000000" fill-rule="evenodd" fill-opacity="1" /><path clip-path="url(#clip430)" d="M 0 0 M400.073 1505.36 L422.295 1505.36 L422.295 1507.35 L409.749 1539.92 L404.865 1539.92 L416.67 1509.3 L400.073 1509.3 L400.073 1505.36 Z" fill="#000000" fill-rule="evenodd" fill-opacity="1" /><path clip-path="url(#clip430)" d="M 0 0 M427.365 1534.04 L432.249 1534.04 L432.249 1539.92 L427.365 1539.92 L427.365 1534.04 Z" fill="#000000" fill-rule="evenodd" fill-opacity="1" /><path clip-path="url(#clip430)" d="M 0 0 M437.365 1505.36 L455.721 1505.36 L455.721 1509.3 L441.647 1509.3 L441.647 1517.77 Q442.666 1517.42 443.684 1517.26 Q444.703 1517.07 445.721 1517.07 Q451.508 1517.07 454.888 1520.24 Q458.267 1523.42 458.267 1528.83 Q458.267 1534.41 454.795 1537.51 Q451.323 1540.59 445.004 1540.59 Q442.828 1540.59 440.559 1540.22 Q438.314 1539.85 435.906 1539.11 L435.906 1534.41 Q437.99 1535.54 440.212 1536.1 Q442.434 1536.66 444.911 1536.66 Q448.916 1536.66 451.254 1534.55 Q453.591 1532.44 453.591 1528.83 Q453.591 1525.22 451.254 1523.11 Q448.916 1521.01 444.911 1521.01 Q443.036 1521.01 441.161 1521.42 Q439.309 1521.84 437.365 1522.72 L437.365 1505.36 Z" fill="#000000" fill-rule="evenodd" fill-opacity="1" /><path clip-path="url(#clip430)" d="M 0 0 M652.237 1523.09 L681.913 1523.09 L681.913 1527.03 L652.237 1527.03 L652.237 1523.09 Z" fill="#000000" fill-rule="evenodd" fill-opacity="1" /><path clip-path="url(#clip430)" d="M 0 0 M687.029 1505.36 L705.385 1505.36 L705.385 1509.3 L691.311 1509.3 L691.311 1517.77 Q692.329 1517.42 693.348 1517.26 Q694.366 1517.07 695.385 1517.07 Q701.172 1517.07 704.552 1520.24 Q707.931 1523.42 707.931 1528.83 Q707.931 1534.41 704.459 1537.51 Q700.987 1540.59 694.667 1540.59 Q692.491 1540.59 690.223 1540.22 Q687.978 1539.85 685.57 1539.11 L685.57 1534.41 Q687.654 1535.54 689.876 1536.1 Q692.098 1536.66 694.575 1536.66 Q698.579 1536.66 700.917 1534.55 Q703.255 1532.44 703.255 1528.83 Q703.255 1525.22 700.917 1523.11 Q698.579 1521.01 694.575 1521.01 Q692.7 1521.01 690.825 1521.42 Q688.973 1521.84 687.029 1522.72 L687.029 1505.36 Z" fill="#000000" fill-rule="evenodd" fill-opacity="1" /><path clip-path="url(#clip430)" d="M 0 0 M713.001 1534.04 L717.885 1534.04 L717.885 1539.92 L713.001 1539.92 L713.001 1534.04 Z" fill="#000000" fill-rule="evenodd" fill-opacity="1" /><path clip-path="url(#clip430)" d="M 0 0 M732.954 1508.44 Q729.343 1508.44 727.514 1512 Q725.709 1515.55 725.709 1522.67 Q725.709 1529.78 727.514 1533.35 Q729.343 1536.89 732.954 1536.89 Q736.588 1536.89 738.394 1533.35 Q740.223 1529.78 740.223 1522.67 Q740.223 1515.55 738.394 1512 Q736.588 1508.44 732.954 1508.44 M732.954 1504.73 Q738.764 1504.73 741.82 1509.34 Q744.899 1513.92 744.899 1522.67 Q744.899 1531.4 741.82 1536.01 Q738.764 1540.59 732.954 1540.59 Q727.144 1540.59 724.065 1536.01 Q721.01 1531.4 721.01 1522.67 Q721.01 1513.92 724.065 1509.34 Q727.144 1504.73 732.954 1504.73 Z" fill="#000000" fill-rule="evenodd" fill-opacity="1" /><path clip-path="url(#clip430)" d="M 0 0 M939.215 1523.09 L968.891 1523.09 L968.891 1527.03 L939.215 1527.03 L939.215 1523.09 Z" fill="#000000" fill-rule="evenodd" fill-opacity="1" /><path clip-path="url(#clip430)" d="M 0 0 M977.988 1535.98 L994.308 1535.98 L994.308 1539.92 L972.363 1539.92 L972.363 1535.98 Q975.025 1533.23 979.609 1528.6 Q984.215 1523.95 985.396 1522.61 Q987.641 1520.08 988.521 1518.35 Q989.424 1516.59 989.424 1514.9 Q989.424 1512.14 987.479 1510.41 Q985.558 1508.67 982.456 1508.67 Q980.257 1508.67 977.803 1509.43 Q975.373 1510.2 972.595 1511.75 L972.595 1507.03 Q975.419 1505.89 977.873 1505.31 Q980.326 1504.73 982.363 1504.73 Q987.734 1504.73 990.928 1507.42 Q994.123 1510.11 994.123 1514.6 Q994.123 1516.73 993.312 1518.65 Q992.525 1520.54 990.419 1523.14 Q989.84 1523.81 986.738 1527.03 Q983.637 1530.22 977.988 1535.98 Z" fill="#000000" fill-rule="evenodd" fill-opacity="1" /><path clip-path="url(#clip430)" d="M 0 0 M999.377 1534.04 L1004.26 1534.04 L1004.26 1539.92 L999.377 1539.92 L999.377 1534.04 Z" fill="#000000" fill-rule="evenodd" fill-opacity="1" /><path clip-path="url(#clip430)" d="M 0 0 M1009.38 1505.36 L1027.73 1505.36 L1027.73 1509.3 L1013.66 1509.3 L1013.66 1517.77 Q1014.68 1517.42 1015.7 1517.26 Q1016.72 1517.07 1017.73 1517.07 Q1023.52 1517.07 1026.9 1520.24 Q1030.28 1523.42 1030.28 1528.83 Q1030.28 1534.41 1026.81 1537.51 Q1023.34 1540.59 1017.02 1540.59 Q1014.84 1540.59 1012.57 1540.22 Q1010.33 1539.85 1007.92 1539.11 L1007.92 1534.41 Q1010 1535.54 1012.22 1536.1 Q1014.45 1536.66 1016.92 1536.66 Q1020.93 1536.66 1023.27 1534.55 Q1025.6 1532.44 1025.6 1528.83 Q1025.6 1525.22 1023.27 1523.11 Q1020.93 1521.01 1016.92 1521.01 Q1015.05 1521.01 1013.17 1521.42 Q1011.32 1521.84 1009.38 1522.72 L1009.38 1505.36 Z" fill="#000000" fill-rule="evenodd" fill-opacity="1" /><path clip-path="url(#clip430)" d="M 0 0 M1252.44 1508.44 Q1248.83 1508.44 1247 1512 Q1245.2 1515.55 1245.2 1522.67 Q1245.2 1529.78 1247 1533.35 Q1248.83 1536.89 1252.44 1536.89 Q1256.08 1536.89 1257.88 1533.35 Q1259.71 1529.78 1259.71 1522.67 Q1259.71 1515.55 1257.88 1512 Q1256.08 1508.44 1252.44 1508.44 M1252.44 1504.73 Q1258.25 1504.73 1261.31 1509.34 Q1264.39 1513.92 1264.39 1522.67 Q1264.39 1531.4 1261.31 1536.01 Q1258.25 1540.59 1252.44 1540.59 Q1246.63 1540.59 1243.55 1536.01 Q1240.5 1531.4 1240.5 1522.67 Q1240.5 1513.92 1243.55 1509.34 Q1246.63 1504.73 1252.44 1504.73 Z" fill="#000000" fill-rule="evenodd" fill-opacity="1" /><path clip-path="url(#clip430)" d="M 0 0 M1269.46 1534.04 L1274.34 1534.04 L1274.34 1539.92 L1269.46 1539.92 L1269.46 1534.04 Z" fill="#000000" fill-rule="evenodd" fill-opacity="1" /><path clip-path="url(#clip430)" d="M 0 0 M1289.41 1508.44 Q1285.8 1508.44 1283.97 1512 Q1282.17 1515.55 1282.17 1522.67 Q1282.17 1529.78 1283.97 1533.35 Q1285.8 1536.89 1289.41 1536.89 Q1293.05 1536.89 1294.85 1533.35 Q1296.68 1529.78 1296.68 1522.67 Q1296.68 1515.55 1294.85 1512 Q1293.05 1508.44 1289.41 1508.44 M1289.41 1504.73 Q1295.22 1504.73 1298.28 1509.34 Q1301.36 1513.92 1301.36 1522.67 Q1301.36 1531.4 1298.28 1536.01 Q1295.22 1540.59 1289.41 1540.59 Q1283.6 1540.59 1280.52 1536.01 Q1277.47 1531.4 1277.47 1522.67 Q1277.47 1513.92 1280.52 1509.34 Q1283.6 1504.73 1289.41 1504.73 Z" fill="#000000" fill-rule="evenodd" fill-opacity="1" /><path clip-path="url(#clip430)" d="M 0 0 M1533.77 1535.98 L1550.09 1535.98 L1550.09 1539.92 L1528.15 1539.92 L1528.15 1535.98 Q1530.81 1533.23 1535.39 1528.6 Q1540 1523.95 1541.18 1522.61 Q1543.43 1520.08 1544.31 1518.35 Q1545.21 1516.59 1545.21 1514.9 Q1545.21 1512.14 1543.26 1510.41 Q1541.34 1508.67 1538.24 1508.67 Q1536.04 1508.67 1533.59 1509.43 Q1531.16 1510.2 1528.38 1511.75 L1528.38 1507.03 Q1531.2 1505.89 1533.66 1505.31 Q1536.11 1504.73 1538.15 1504.73 Q1543.52 1504.73 1546.71 1507.42 Q1549.91 1510.11 1549.91 1514.6 Q1549.91 1516.73 1549.1 1518.65 Q1548.31 1520.54 1546.2 1523.14 Q1545.63 1523.81 1542.52 1527.03 Q1539.42 1530.22 1533.77 1535.98 Z" fill="#000000" fill-rule="evenodd" fill-opacity="1" /><path clip-path="url(#clip430)" d="M 0 0 M1555.16 1534.04 L1560.05 1534.04 L1560.05 1539.92 L1555.16 1539.92 L1555.16 1534.04 Z" fill="#000000" fill-rule="evenodd" fill-opacity="1" /><path clip-path="url(#clip430)" d="M 0 0 M1565.16 1505.36 L1583.52 1505.36 L1583.52 1509.3 L1569.45 1509.3 L1569.45 1517.77 Q1570.46 1517.42 1571.48 1517.26 Q1572.5 1517.07 1573.52 1517.07 Q1579.31 1517.07 1582.69 1520.24 Q1586.07 1523.42 1586.07 1528.83 Q1586.07 1534.41 1582.59 1537.51 Q1579.12 1540.59 1572.8 1540.59 Q1570.63 1540.59 1568.36 1540.22 Q1566.11 1539.85 1563.7 1539.11 L1563.7 1534.41 Q1565.79 1535.54 1568.01 1536.1 Q1570.23 1536.66 1572.71 1536.66 Q1576.71 1536.66 1579.05 1534.55 Q1581.39 1532.44 1581.39 1528.83 Q1581.39 1525.22 1579.05 1523.11 Q1576.71 1521.01 1572.71 1521.01 Q1570.83 1521.01 1568.96 1521.42 Q1567.11 1521.84 1565.16 1522.72 L1565.16 1505.36 Z" fill="#000000" fill-rule="evenodd" fill-opacity="1" /><path clip-path="url(#clip430)" d="M 0 0 M1815.08 1505.36 L1833.44 1505.36 L1833.44 1509.3 L1819.36 1509.3 L1819.36 1517.77 Q1820.38 1517.42 1821.4 1517.26 Q1822.42 1517.07 1823.44 1517.07 Q1829.22 1517.07 1832.6 1520.24 Q1835.98 1523.42 1835.98 1528.83 Q1835.98 1534.41 1832.51 1537.51 Q1829.04 1540.59 1822.72 1540.59 Q1820.54 1540.59 1818.28 1540.22 Q1816.03 1539.85 1813.62 1539.11 L1813.62 1534.41 Q1815.71 1535.54 1817.93 1536.1 Q1820.15 1536.66 1822.63 1536.66 Q1826.63 1536.66 1828.97 1534.55 Q1831.31 1532.44 1831.31 1528.83 Q1831.31 1525.22 1828.97 1523.11 Q1826.63 1521.01 1822.63 1521.01 Q1820.75 1521.01 1818.88 1521.42 Q1817.03 1521.84 1815.08 1522.72 L1815.08 1505.36 Z" fill="#000000" fill-rule="evenodd" fill-opacity="1" /><path clip-path="url(#clip430)" d="M 0 0 M1841.05 1534.04 L1845.94 1534.04 L1845.94 1539.92 L1841.05 1539.92 L1841.05 1534.04 Z" fill="#000000" fill-rule="evenodd" fill-opacity="1" /><path clip-path="url(#clip430)" d="M 0 0 M1861.01 1508.44 Q1857.4 1508.44 1855.57 1512 Q1853.76 1515.55 1853.76 1522.67 Q1853.76 1529.78 1855.57 1533.35 Q1857.4 1536.89 1861.01 1536.89 Q1864.64 1536.89 1866.45 1533.35 Q1868.28 1529.78 1868.28 1522.67 Q1868.28 1515.55 1866.45 1512 Q1864.64 1508.44 1861.01 1508.44 M1861.01 1504.73 Q1866.82 1504.73 1869.87 1509.34 Q1872.95 1513.92 1872.95 1522.67 Q1872.95 1531.4 1869.87 1536.01 Q1866.82 1540.59 1861.01 1540.59 Q1855.2 1540.59 1852.12 1536.01 Q1849.06 1531.4 1849.06 1522.67 Q1849.06 1513.92 1852.12 1509.34 Q1855.2 1504.73 1861.01 1504.73 Z" fill="#000000" fill-rule="evenodd" fill-opacity="1" /><path clip-path="url(#clip430)" d="M 0 0 M2100.37 1505.36 L2122.59 1505.36 L2122.59 1507.35 L2110.05 1539.92 L2105.16 1539.92 L2116.97 1509.3 L2100.37 1509.3 L2100.37 1505.36 Z" fill="#000000" fill-rule="evenodd" fill-opacity="1" /><path clip-path="url(#clip430)" d="M 0 0 M2127.66 1534.04 L2132.55 1534.04 L2132.55 1539.92 L2127.66 1539.92 L2127.66 1534.04 Z" fill="#000000" fill-rule="evenodd" fill-opacity="1" /><path clip-path="url(#clip430)" d="M 0 0 M2137.66 1505.36 L2156.02 1505.36 L2156.02 1509.3 L2141.94 1509.3 L2141.94 1517.77 Q2142.96 1517.42 2143.98 1517.26 Q2145 1517.07 2146.02 1517.07 Q2151.8 1517.07 2155.18 1520.24 Q2158.56 1523.42 2158.56 1528.83 Q2158.56 1534.41 2155.09 1537.51 Q2151.62 1540.59 2145.3 1540.59 Q2143.12 1540.59 2140.86 1540.22 Q2138.61 1539.85 2136.2 1539.11 L2136.2 1534.41 Q2138.29 1535.54 2140.51 1536.1 Q2142.73 1536.66 2145.21 1536.66 Q2149.21 1536.66 2151.55 1534.55 Q2153.89 1532.44 2153.89 1528.83 Q2153.89 1525.22 2151.55 1523.11 Q2149.21 1521.01 2145.21 1521.01 Q2143.33 1521.01 2141.46 1521.42 Q2139.61 1521.84 2137.66 1522.72 L2137.66 1505.36 Z" fill="#000000" fill-rule="evenodd" fill-opacity="1" /><path clip-path="url(#clip430)" d="M 0 0 M130.26 1431.51 Q126.649 1431.51 124.82 1435.08 Q123.015 1438.62 123.015 1445.75 Q123.015 1452.86 124.82 1456.42 Q126.649 1459.96 130.26 1459.96 Q133.895 1459.96 135.7 1456.42 Q137.529 1452.86 137.529 1445.75 Q137.529 1438.62 135.7 1435.08 Q133.895 1431.51 130.26 1431.51 M130.26 1427.81 Q136.07 1427.81 139.126 1432.42 Q142.205 1437 142.205 1445.75 Q142.205 1454.48 139.126 1459.08 Q136.07 1463.67 130.26 1463.67 Q124.45 1463.67 121.371 1459.08 Q118.316 1454.48 118.316 1445.75 Q118.316 1437 121.371 1432.42 Q124.45 1427.81 130.26 1427.81 Z" fill="#000000" fill-rule="evenodd" fill-opacity="1" /><path clip-path="url(#clip430)" d="M 0 0 M71.8578 1124.23 L88.1772 1124.23 L88.1772 1128.16 L66.2328 1128.16 L66.2328 1124.23 Q68.8949 1121.47 73.4782 1116.85 Q78.0846 1112.19 79.2652 1110.85 Q81.5105 1108.33 82.3902 1106.59 Q83.2929 1104.83 83.2929 1103.14 Q83.2929 1100.39 81.3485 1098.65 Q79.4272 1096.91 76.3254 1096.91 Q74.1263 1096.91 71.6726 1097.68 Q69.2421 1098.44 66.4643 1099.99 L66.4643 1095.27 Q69.2884 1094.14 71.7421 1093.56 Q74.1958 1092.98 76.2328 1092.98 Q81.6031 1092.98 84.7976 1095.66 Q87.992 1098.35 87.992 1102.84 Q87.992 1104.97 87.1818 1106.89 Q86.3948 1108.79 84.2883 1111.38 Q83.7096 1112.05 80.6078 1115.27 Q77.5059 1118.47 71.8578 1124.23 Z" fill="#000000" fill-rule="evenodd" fill-opacity="1" /><path clip-path="url(#clip430)" d="M 0 0 M103.247 1096.68 Q99.6354 1096.68 97.8068 1100.25 Q96.0012 1103.79 96.0012 1110.92 Q96.0012 1118.03 97.8068 1121.59 Q99.6354 1125.13 103.247 1125.13 Q106.881 1125.13 108.686 1121.59 Q110.515 1118.03 110.515 1110.92 Q110.515 1103.79 108.686 1100.25 Q106.881 1096.68 103.247 1096.68 M103.247 1092.98 Q109.057 1092.98 112.112 1097.59 Q115.191 1102.17 115.191 1110.92 Q115.191 1119.65 112.112 1124.25 Q109.057 1128.84 103.247 1128.84 Q97.4364 1128.84 94.3577 1124.25 Q91.3022 1119.65 91.3022 1110.92 Q91.3022 1102.17 94.3577 1097.59 Q97.4364 1092.98 103.247 1092.98 Z" fill="#000000" fill-rule="evenodd" fill-opacity="1" /><path clip-path="url(#clip430)" d="M 0 0 M130.26 1096.68 Q126.649 1096.68 124.82 1100.25 Q123.015 1103.79 123.015 1110.92 Q123.015 1118.03 124.82 1121.59 Q126.649 1125.13 130.26 1125.13 Q133.895 1125.13 135.7 1121.59 Q137.529 1118.03 137.529 1110.92 Q137.529 1103.79 135.7 1100.25 Q133.895 1096.68 130.26 1096.68 M130.26 1092.98 Q136.07 1092.98 139.126 1097.59 Q142.205 1102.17 142.205 1110.92 Q142.205 1119.65 139.126 1124.25 Q136.07 1128.84 130.26 1128.84 Q124.45 1128.84 121.371 1124.25 Q118.316 1119.65 118.316 1110.92 Q118.316 1102.17 121.371 1097.59 Q124.45 1092.98 130.26 1092.98 Z" fill="#000000" fill-rule="evenodd" fill-opacity="1" /><path clip-path="url(#clip430)" d="M 0 0 M78.5939 762.848 L66.7884 781.297 L78.5939 781.297 L78.5939 762.848 M77.367 758.774 L83.2466 758.774 L83.2466 781.297 L88.1772 781.297 L88.1772 785.186 L83.2466 785.186 L83.2466 793.334 L78.5939 793.334 L78.5939 785.186 L62.9921 785.186 L62.9921 780.672 L77.367 758.774 Z" fill="#000000" fill-rule="evenodd" fill-opacity="1" /><path clip-path="url(#clip430)" d="M 0 0 M103.247 761.853 Q99.6354 761.853 97.8068 765.417 Q96.0012 768.959 96.0012 776.089 Q96.0012 783.195 97.8068 786.76 Q99.6354 790.301 103.247 790.301 Q106.881 790.301 108.686 786.76 Q110.515 783.195 110.515 776.089 Q110.515 768.959 108.686 765.417 Q106.881 761.853 103.247 761.853 M103.247 758.149 Q109.057 758.149 112.112 762.755 Q115.191 767.339 115.191 776.089 Q115.191 784.815 112.112 789.422 Q109.057 794.005 103.247 794.005 Q97.4364 794.005 94.3577 789.422 Q91.3022 784.815 91.3022 776.089 Q91.3022 767.339 94.3577 762.755 Q97.4364 758.149 103.247 758.149 Z" fill="#000000" fill-rule="evenodd" fill-opacity="1" /><path clip-path="url(#clip430)" d="M 0 0 M130.26 761.853 Q126.649 761.853 124.82 765.417 Q123.015 768.959 123.015 776.089 Q123.015 783.195 124.82 786.76 Q126.649 790.301 130.26 790.301 Q133.895 790.301 135.7 786.76 Q137.529 783.195 137.529 776.089 Q137.529 768.959 135.7 765.417 Q133.895 761.853 130.26 761.853 M130.26 758.149 Q136.07 758.149 139.126 762.755 Q142.205 767.339 142.205 776.089 Q142.205 784.815 139.126 789.422 Q136.07 794.005 130.26 794.005 Q124.45 794.005 121.371 789.422 Q118.316 784.815 118.316 776.089 Q118.316 767.339 121.371 762.755 Q124.45 758.149 130.26 758.149 Z" fill="#000000" fill-rule="evenodd" fill-opacity="1" /><path clip-path="url(#clip430)" d="M 0 0 M76.6495 439.359 Q73.5013 439.359 71.6495 441.512 Q69.8208 443.665 69.8208 447.415 Q69.8208 451.142 71.6495 453.318 Q73.5013 455.471 76.6495 455.471 Q79.7976 455.471 81.6263 453.318 Q83.4781 451.142 83.4781 447.415 Q83.4781 443.665 81.6263 441.512 Q79.7976 439.359 76.6495 439.359 M85.9318 424.707 L85.9318 428.966 Q84.1726 428.133 82.367 427.693 Q80.5846 427.253 78.8254 427.253 Q74.1958 427.253 71.7421 430.378 Q69.3115 433.503 68.9643 439.822 Q70.33 437.809 72.3902 436.744 Q74.4504 435.656 76.9272 435.656 Q82.1355 435.656 85.1448 438.827 Q88.1772 441.975 88.1772 447.415 Q88.1772 452.739 85.029 455.957 Q81.8809 459.174 76.6495 459.174 Q70.6541 459.174 67.4828 454.591 Q64.3116 449.984 64.3116 441.258 Q64.3116 433.063 68.2004 428.202 Q72.0893 423.318 78.6402 423.318 Q80.3994 423.318 82.1818 423.665 Q83.9874 424.012 85.9318 424.707 Z" fill="#000000" fill-rule="evenodd" fill-opacity="1" /><path clip-path="url(#clip430)" d="M 0 0 M103.247 427.022 Q99.6354 427.022 97.8068 430.586 Q96.0012 434.128 96.0012 441.258 Q96.0012 448.364 97.8068 451.929 Q99.6354 455.471 103.247 455.471 Q106.881 455.471 108.686 451.929 Q110.515 448.364 110.515 441.258 Q110.515 434.128 108.686 430.586 Q106.881 427.022 103.247 427.022 M103.247 423.318 Q109.057 423.318 112.112 427.924 Q115.191 432.508 115.191 441.258 Q115.191 449.984 112.112 454.591 Q109.057 459.174 103.247 459.174 Q97.4364 459.174 94.3577 454.591 Q91.3022 449.984 91.3022 441.258 Q91.3022 432.508 94.3577 427.924 Q97.4364 423.318 103.247 423.318 Z" fill="#000000" fill-rule="evenodd" fill-opacity="1" /><path clip-path="url(#clip430)" d="M 0 0 M130.26 427.022 Q126.649 427.022 124.82 430.586 Q123.015 434.128 123.015 441.258 Q123.015 448.364 124.82 451.929 Q126.649 455.471 130.26 455.471 Q133.895 455.471 135.7 451.929 Q137.529 448.364 137.529 441.258 Q137.529 434.128 135.7 430.586 Q133.895 427.022 130.26 427.022 M130.26 423.318 Q136.07 423.318 139.126 427.924 Q142.205 432.508 142.205 441.258 Q142.205 449.984 139.126 454.591 Q136.07 459.174 130.26 459.174 Q124.45 459.174 121.371 454.591 Q118.316 449.984 118.316 441.258 Q118.316 432.508 121.371 427.924 Q124.45 423.318 130.26 423.318 Z" fill="#000000" fill-rule="evenodd" fill-opacity="1" /><path clip-path="url(#clip430)" d="M 0 0 M76.3254 107.26 Q72.9921 107.26 71.0708 109.042 Q69.1726 110.825 69.1726 113.95 Q69.1726 117.075 71.0708 118.857 Q72.9921 120.64 76.3254 120.64 Q79.6587 120.64 81.58 118.857 Q83.5013 117.052 83.5013 113.95 Q83.5013 110.825 81.58 109.042 Q79.6819 107.26 76.3254 107.26 M71.6495 105.269 Q68.6402 104.529 66.9504 102.468 Q65.2838 100.408 65.2838 97.4453 Q65.2838 93.3018 68.2236 90.8944 Q71.1865 88.487 76.3254 88.487 Q81.4874 88.487 84.4272 90.8944 Q87.367 93.3018 87.367 97.4453 Q87.367 100.408 85.6772 102.468 Q84.0105 104.529 81.0244 105.269 Q84.404 106.056 86.279 108.348 Q88.1772 110.64 88.1772 113.95 Q88.1772 118.973 85.0985 121.658 Q82.0429 124.343 76.3254 124.343 Q70.6078 124.343 67.5291 121.658 Q64.4736 118.973 64.4736 113.95 Q64.4736 110.64 66.3717 108.348 Q68.2699 106.056 71.6495 105.269 M69.9365 97.8851 Q69.9365 100.57 71.6032 102.075 Q73.293 103.579 76.3254 103.579 Q79.3346 103.579 81.0244 102.075 Q82.7374 100.57 82.7374 97.8851 Q82.7374 95.1999 81.0244 93.6953 Q79.3346 92.1907 76.3254 92.1907 Q73.293 92.1907 71.6032 93.6953 Q69.9365 95.1999 69.9365 97.8851 Z" fill="#000000" fill-rule="evenodd" fill-opacity="1" /><path clip-path="url(#clip430)" d="M 0 0 M103.247 92.1907 Q99.6354 92.1907 97.8068 95.7555 Q96.0012 99.2971 96.0012 106.427 Q96.0012 113.533 97.8068 117.098 Q99.6354 120.64 103.247 120.64 Q106.881 120.64 108.686 117.098 Q110.515 113.533 110.515 106.427 Q110.515 99.2971 108.686 95.7555 Q106.881 92.1907 103.247 92.1907 M103.247 88.487 Q109.057 88.487 112.112 93.0934 Q115.191 97.6767 115.191 106.427 Q115.191 115.154 112.112 119.76 Q109.057 124.343 103.247 124.343 Q97.4364 124.343 94.3577 119.76 Q91.3022 115.154 91.3022 106.427 Q91.3022 97.6767 94.3577 93.0934 Q97.4364 88.487 103.247 88.487 Z" fill="#000000" fill-rule="evenodd" fill-opacity="1" /><path clip-path="url(#clip430)" d="M 0 0 M130.26 92.1907 Q126.649 92.1907 124.82 95.7555 Q123.015 99.2971 123.015 106.427 Q123.015 113.533 124.82 117.098 Q126.649 120.64 130.26 120.64 Q133.895 120.64 135.7 117.098 Q137.529 113.533 137.529 106.427 Q137.529 99.2971 135.7 95.7555 Q133.895 92.1907 130.26 92.1907 M130.26 88.487 Q136.07 88.487 139.126 93.0934 Q142.205 97.6767 142.205 106.427 Q142.205 115.154 139.126 119.76 Q136.07 124.343 130.26 124.343 Q124.45 124.343 121.371 119.76 Q118.316 115.154 118.316 106.427 Q118.316 97.6767 121.371 93.0934 Q124.45 88.487 130.26 88.487 Z" fill="#000000" fill-rule="evenodd" fill-opacity="1" /><path clip-path="url(#clip432)" d="
M286.469 1444.04 L286.469 1445.72 L309.363 1445.72 L309.363 1444.04 L286.469 1444.04 L286.469 1444.04  Z
  " fill="#009af9" fill-rule="evenodd" fill-opacity="1"/>
<polyline clip-path="url(#clip432)" style="stroke:#000000; stroke-width:4; stroke-opacity:1; fill:none" points="
  286.469,1444.04 286.469,1445.72 309.363,1445.72 309.363,1444.04 286.469,1444.04 
  "/>
<path clip-path="url(#clip432)" d="
M309.363 1445.72 L309.363 1445.72 L332.258 1445.72 L332.258 1445.72 L309.363 1445.72 L309.363 1445.72  Z
  " fill="#009af9" fill-rule="evenodd" fill-opacity="1"/>
<polyline clip-path="url(#clip432)" style="stroke:#000000; stroke-width:4; stroke-opacity:1; fill:none" points="
  309.363,1445.72 309.363,1445.72 332.258,1445.72 309.363,1445.72 
  "/>
<path clip-path="url(#clip432)" d="
M332.258 1445.72 L332.258 1445.72 L355.152 1445.72 L355.152 1445.72 L332.258 1445.72 L332.258 1445.72  Z
  " fill="#009af9" fill-rule="evenodd" fill-opacity="1"/>
<polyline clip-path="url(#clip432)" style="stroke:#000000; stroke-width:4; stroke-opacity:1; fill:none" points="
  332.258,1445.72 332.258,1445.72 355.152,1445.72 332.258,1445.72 
  "/>
<path clip-path="url(#clip432)" d="
M355.152 1445.72 L355.152 1445.72 L378.046 1445.72 L378.046 1445.72 L355.152 1445.72 L355.152 1445.72  Z
  " fill="#009af9" fill-rule="evenodd" fill-opacity="1"/>
<polyline clip-path="url(#clip432)" style="stroke:#000000; stroke-width:4; stroke-opacity:1; fill:none" points="
  355.152,1445.72 355.152,1445.72 378.046,1445.72 355.152,1445.72 
  "/>
<path clip-path="url(#clip432)" d="
M378.046 1445.72 L378.046 1445.72 L400.941 1445.72 L400.941 1445.72 L378.046 1445.72 L378.046 1445.72  Z
  " fill="#009af9" fill-rule="evenodd" fill-opacity="1"/>
<polyline clip-path="url(#clip432)" style="stroke:#000000; stroke-width:4; stroke-opacity:1; fill:none" points="
  378.046,1445.72 378.046,1445.72 400.941,1445.72 378.046,1445.72 
  "/>
<path clip-path="url(#clip432)" d="
M400.941 1445.72 L400.941 1445.72 L423.835 1445.72 L423.835 1445.72 L400.941 1445.72 L400.941 1445.72  Z
  " fill="#009af9" fill-rule="evenodd" fill-opacity="1"/>
<polyline clip-path="url(#clip432)" style="stroke:#000000; stroke-width:4; stroke-opacity:1; fill:none" points="
  400.941,1445.72 400.941,1445.72 423.835,1445.72 400.941,1445.72 
  "/>
<path clip-path="url(#clip432)" d="
M423.835 1445.72 L423.835 1445.72 L446.73 1445.72 L446.73 1445.72 L423.835 1445.72 L423.835 1445.72  Z
  " fill="#009af9" fill-rule="evenodd" fill-opacity="1"/>
<polyline clip-path="url(#clip432)" style="stroke:#000000; stroke-width:4; stroke-opacity:1; fill:none" points="
  423.835,1445.72 423.835,1445.72 446.73,1445.72 423.835,1445.72 
  "/>
<path clip-path="url(#clip432)" d="
M446.73 1445.72 L446.73 1445.72 L469.624 1445.72 L469.624 1445.72 L446.73 1445.72 L446.73 1445.72  Z
  " fill="#009af9" fill-rule="evenodd" fill-opacity="1"/>
<polyline clip-path="url(#clip432)" style="stroke:#000000; stroke-width:4; stroke-opacity:1; fill:none" points="
  446.73,1445.72 446.73,1445.72 469.624,1445.72 446.73,1445.72 
  "/>
<path clip-path="url(#clip432)" d="
M469.624 1445.72 L469.624 1445.72 L492.518 1445.72 L492.518 1445.72 L469.624 1445.72 L469.624 1445.72  Z
  " fill="#009af9" fill-rule="evenodd" fill-opacity="1"/>
<polyline clip-path="url(#clip432)" style="stroke:#000000; stroke-width:4; stroke-opacity:1; fill:none" points="
  469.624,1445.72 469.624,1445.72 492.518,1445.72 469.624,1445.72 
  "/>
<path clip-path="url(#clip432)" d="
M492.518 1444.04 L492.518 1445.72 L515.413 1445.72 L515.413 1444.04 L492.518 1444.04 L492.518 1444.04  Z
  " fill="#009af9" fill-rule="evenodd" fill-opacity="1"/>
<polyline clip-path="url(#clip432)" style="stroke:#000000; stroke-width:4; stroke-opacity:1; fill:none" points="
  492.518,1444.04 492.518,1445.72 515.413,1445.72 515.413,1444.04 492.518,1444.04 
  "/>
<path clip-path="url(#clip432)" d="
M515.413 1444.04 L515.413 1445.72 L538.307 1445.72 L538.307 1444.04 L515.413 1444.04 L515.413 1444.04  Z
  " fill="#009af9" fill-rule="evenodd" fill-opacity="1"/>
<polyline clip-path="url(#clip432)" style="stroke:#000000; stroke-width:4; stroke-opacity:1; fill:none" points="
  515.413,1444.04 515.413,1445.72 538.307,1445.72 538.307,1444.04 515.413,1444.04 
  "/>
<path clip-path="url(#clip432)" d="
M538.307 1445.72 L538.307 1445.72 L561.202 1445.72 L561.202 1445.72 L538.307 1445.72 L538.307 1445.72  Z
  " fill="#009af9" fill-rule="evenodd" fill-opacity="1"/>
<polyline clip-path="url(#clip432)" style="stroke:#000000; stroke-width:4; stroke-opacity:1; fill:none" points="
  538.307,1445.72 538.307,1445.72 561.202,1445.72 538.307,1445.72 
  "/>
<path clip-path="url(#clip432)" d="
M561.202 1445.72 L561.202 1445.72 L584.096 1445.72 L584.096 1445.72 L561.202 1445.72 L561.202 1445.72  Z
  " fill="#009af9" fill-rule="evenodd" fill-opacity="1"/>
<polyline clip-path="url(#clip432)" style="stroke:#000000; stroke-width:4; stroke-opacity:1; fill:none" points="
  561.202,1445.72 561.202,1445.72 584.096,1445.72 561.202,1445.72 
  "/>
<path clip-path="url(#clip432)" d="
M584.096 1442.37 L584.096 1445.72 L606.99 1445.72 L606.99 1442.37 L584.096 1442.37 L584.096 1442.37  Z
  " fill="#009af9" fill-rule="evenodd" fill-opacity="1"/>
<polyline clip-path="url(#clip432)" style="stroke:#000000; stroke-width:4; stroke-opacity:1; fill:none" points="
  584.096,1442.37 584.096,1445.72 606.99,1445.72 606.99,1442.37 584.096,1442.37 
  "/>
<path clip-path="url(#clip432)" d="
M606.99 1439.02 L606.99 1445.72 L629.885 1445.72 L629.885 1439.02 L606.99 1439.02 L606.99 1439.02  Z
  " fill="#009af9" fill-rule="evenodd" fill-opacity="1"/>
<polyline clip-path="url(#clip432)" style="stroke:#000000; stroke-width:4; stroke-opacity:1; fill:none" points="
  606.99,1439.02 606.99,1445.72 629.885,1445.72 629.885,1439.02 606.99,1439.02 
  "/>
<path clip-path="url(#clip432)" d="
M629.885 1440.69 L629.885 1445.72 L652.779 1445.72 L652.779 1440.69 L629.885 1440.69 L629.885 1440.69  Z
  " fill="#009af9" fill-rule="evenodd" fill-opacity="1"/>
<polyline clip-path="url(#clip432)" style="stroke:#000000; stroke-width:4; stroke-opacity:1; fill:none" points="
  629.885,1440.69 629.885,1445.72 652.779,1445.72 652.779,1440.69 629.885,1440.69 
  "/>
<path clip-path="url(#clip432)" d="
M652.779 1440.69 L652.779 1445.72 L675.673 1445.72 L675.673 1440.69 L652.779 1440.69 L652.779 1440.69  Z
  " fill="#009af9" fill-rule="evenodd" fill-opacity="1"/>
<polyline clip-path="url(#clip432)" style="stroke:#000000; stroke-width:4; stroke-opacity:1; fill:none" points="
  652.779,1440.69 652.779,1445.72 675.673,1445.72 675.673,1440.69 652.779,1440.69 
  "/>
<path clip-path="url(#clip432)" d="
M675.673 1439.02 L675.673 1445.72 L698.568 1445.72 L698.568 1439.02 L675.673 1439.02 L675.673 1439.02  Z
  " fill="#009af9" fill-rule="evenodd" fill-opacity="1"/>
<polyline clip-path="url(#clip432)" style="stroke:#000000; stroke-width:4; stroke-opacity:1; fill:none" points="
  675.673,1439.02 675.673,1445.72 698.568,1445.72 698.568,1439.02 675.673,1439.02 
  "/>
<path clip-path="url(#clip432)" d="
M698.568 1437.34 L698.568 1445.72 L721.462 1445.72 L721.462 1437.34 L698.568 1437.34 L698.568 1437.34  Z
  " fill="#009af9" fill-rule="evenodd" fill-opacity="1"/>
<polyline clip-path="url(#clip432)" style="stroke:#000000; stroke-width:4; stroke-opacity:1; fill:none" points="
  698.568,1437.34 698.568,1445.72 721.462,1445.72 721.462,1437.34 698.568,1437.34 
  "/>
<path clip-path="url(#clip432)" d="
M721.462 1439.02 L721.462 1445.72 L744.357 1445.72 L744.357 1439.02 L721.462 1439.02 L721.462 1439.02  Z
  " fill="#009af9" fill-rule="evenodd" fill-opacity="1"/>
<polyline clip-path="url(#clip432)" style="stroke:#000000; stroke-width:4; stroke-opacity:1; fill:none" points="
  721.462,1439.02 721.462,1445.72 744.357,1445.72 744.357,1439.02 721.462,1439.02 
  "/>
<path clip-path="url(#clip432)" d="
M744.357 1420.6 L744.357 1445.72 L767.251 1445.72 L767.251 1420.6 L744.357 1420.6 L744.357 1420.6  Z
  " fill="#009af9" fill-rule="evenodd" fill-opacity="1"/>
<polyline clip-path="url(#clip432)" style="stroke:#000000; stroke-width:4; stroke-opacity:1; fill:none" points="
  744.357,1420.6 744.357,1445.72 767.251,1445.72 767.251,1420.6 744.357,1420.6 
  "/>
<path clip-path="url(#clip432)" d="
M767.251 1418.93 L767.251 1445.72 L790.145 1445.72 L790.145 1418.93 L767.251 1418.93 L767.251 1418.93  Z
  " fill="#009af9" fill-rule="evenodd" fill-opacity="1"/>
<polyline clip-path="url(#clip432)" style="stroke:#000000; stroke-width:4; stroke-opacity:1; fill:none" points="
  767.251,1418.93 767.251,1445.72 790.145,1445.72 790.145,1418.93 767.251,1418.93 
  "/>
<path clip-path="url(#clip432)" d="
M790.145 1423.95 L790.145 1445.72 L813.04 1445.72 L813.04 1423.95 L790.145 1423.95 L790.145 1423.95  Z
  " fill="#009af9" fill-rule="evenodd" fill-opacity="1"/>
<polyline clip-path="url(#clip432)" style="stroke:#000000; stroke-width:4; stroke-opacity:1; fill:none" points="
  790.145,1423.95 790.145,1445.72 813.04,1445.72 813.04,1423.95 790.145,1423.95 
  "/>
<path clip-path="url(#clip432)" d="
M813.04 1418.93 L813.04 1445.72 L835.934 1445.72 L835.934 1418.93 L813.04 1418.93 L813.04 1418.93  Z
  " fill="#009af9" fill-rule="evenodd" fill-opacity="1"/>
<polyline clip-path="url(#clip432)" style="stroke:#000000; stroke-width:4; stroke-opacity:1; fill:none" points="
  813.04,1418.93 813.04,1445.72 835.934,1445.72 835.934,1418.93 813.04,1418.93 
  "/>
<path clip-path="url(#clip432)" d="
M835.934 1413.91 L835.934 1445.72 L858.829 1445.72 L858.829 1413.91 L835.934 1413.91 L835.934 1413.91  Z
  " fill="#009af9" fill-rule="evenodd" fill-opacity="1"/>
<polyline clip-path="url(#clip432)" style="stroke:#000000; stroke-width:4; stroke-opacity:1; fill:none" points="
  835.934,1413.91 835.934,1445.72 858.829,1445.72 858.829,1413.91 835.934,1413.91 
  "/>
<path clip-path="url(#clip432)" d="
M858.829 1407.21 L858.829 1445.72 L881.723 1445.72 L881.723 1407.21 L858.829 1407.21 L858.829 1407.21  Z
  " fill="#009af9" fill-rule="evenodd" fill-opacity="1"/>
<polyline clip-path="url(#clip432)" style="stroke:#000000; stroke-width:4; stroke-opacity:1; fill:none" points="
  858.829,1407.21 858.829,1445.72 881.723,1445.72 881.723,1407.21 858.829,1407.21 
  "/>
<path clip-path="url(#clip432)" d="
M881.723 1388.79 L881.723 1445.72 L904.617 1445.72 L904.617 1388.79 L881.723 1388.79 L881.723 1388.79  Z
  " fill="#009af9" fill-rule="evenodd" fill-opacity="1"/>
<polyline clip-path="url(#clip432)" style="stroke:#000000; stroke-width:4; stroke-opacity:1; fill:none" points="
  881.723,1388.79 881.723,1445.72 904.617,1445.72 904.617,1388.79 881.723,1388.79 
  "/>
<path clip-path="url(#clip432)" d="
M904.617 1403.86 L904.617 1445.72 L927.512 1445.72 L927.512 1403.86 L904.617 1403.86 L904.617 1403.86  Z
  " fill="#009af9" fill-rule="evenodd" fill-opacity="1"/>
<polyline clip-path="url(#clip432)" style="stroke:#000000; stroke-width:4; stroke-opacity:1; fill:none" points="
  904.617,1403.86 904.617,1445.72 927.512,1445.72 927.512,1403.86 904.617,1403.86 
  "/>
<path clip-path="url(#clip432)" d="
M927.512 1388.79 L927.512 1445.72 L950.406 1445.72 L950.406 1388.79 L927.512 1388.79 L927.512 1388.79  Z
  " fill="#009af9" fill-rule="evenodd" fill-opacity="1"/>
<polyline clip-path="url(#clip432)" style="stroke:#000000; stroke-width:4; stroke-opacity:1; fill:none" points="
  927.512,1388.79 927.512,1445.72 950.406,1445.72 950.406,1388.79 927.512,1388.79 
  "/>
<path clip-path="url(#clip432)" d="
M950.406 1360.33 L950.406 1445.72 L973.3 1445.72 L973.3 1360.33 L950.406 1360.33 L950.406 1360.33  Z
  " fill="#009af9" fill-rule="evenodd" fill-opacity="1"/>
<polyline clip-path="url(#clip432)" style="stroke:#000000; stroke-width:4; stroke-opacity:1; fill:none" points="
  950.406,1360.33 950.406,1445.72 973.3,1445.72 973.3,1360.33 950.406,1360.33 
  "/>
<path clip-path="url(#clip432)" d="
M973.3 1356.99 L973.3 1445.72 L996.195 1445.72 L996.195 1356.99 L973.3 1356.99 L973.3 1356.99  Z
  " fill="#009af9" fill-rule="evenodd" fill-opacity="1"/>
<polyline clip-path="url(#clip432)" style="stroke:#000000; stroke-width:4; stroke-opacity:1; fill:none" points="
  973.3,1356.99 973.3,1445.72 996.195,1445.72 996.195,1356.99 973.3,1356.99 
  "/>
<path clip-path="url(#clip432)" d="
M996.195 1328.52 L996.195 1445.72 L1019.09 1445.72 L1019.09 1328.52 L996.195 1328.52 L996.195 1328.52  Z
  " fill="#009af9" fill-rule="evenodd" fill-opacity="1"/>
<polyline clip-path="url(#clip432)" style="stroke:#000000; stroke-width:4; stroke-opacity:1; fill:none" points="
  996.195,1328.52 996.195,1445.72 1019.09,1445.72 1019.09,1328.52 996.195,1328.52 
  "/>
<path clip-path="url(#clip432)" d="
M1019.09 1313.46 L1019.09 1445.72 L1041.98 1445.72 L1041.98 1313.46 L1019.09 1313.46 L1019.09 1313.46  Z
  " fill="#009af9" fill-rule="evenodd" fill-opacity="1"/>
<polyline clip-path="url(#clip432)" style="stroke:#000000; stroke-width:4; stroke-opacity:1; fill:none" points="
  1019.09,1313.46 1019.09,1445.72 1041.98,1445.72 1041.98,1313.46 1019.09,1313.46 
  "/>
<path clip-path="url(#clip432)" d="
M1041.98 1305.09 L1041.98 1445.72 L1064.88 1445.72 L1064.88 1305.09 L1041.98 1305.09 L1041.98 1305.09  Z
  " fill="#009af9" fill-rule="evenodd" fill-opacity="1"/>
<polyline clip-path="url(#clip432)" style="stroke:#000000; stroke-width:4; stroke-opacity:1; fill:none" points="
  1041.98,1305.09 1041.98,1445.72 1064.88,1445.72 1064.88,1305.09 1041.98,1305.09 
  "/>
<path clip-path="url(#clip432)" d="
M1064.88 1295.04 L1064.88 1445.72 L1087.77 1445.72 L1087.77 1295.04 L1064.88 1295.04 L1064.88 1295.04  Z
  " fill="#009af9" fill-rule="evenodd" fill-opacity="1"/>
<polyline clip-path="url(#clip432)" style="stroke:#000000; stroke-width:4; stroke-opacity:1; fill:none" points="
  1064.88,1295.04 1064.88,1445.72 1087.77,1445.72 1087.77,1295.04 1064.88,1295.04 
  "/>
<path clip-path="url(#clip432)" d="
M1087.77 1254.86 L1087.77 1445.72 L1110.67 1445.72 L1110.67 1254.86 L1087.77 1254.86 L1087.77 1254.86  Z
  " fill="#009af9" fill-rule="evenodd" fill-opacity="1"/>
<polyline clip-path="url(#clip432)" style="stroke:#000000; stroke-width:4; stroke-opacity:1; fill:none" points="
  1087.77,1254.86 1087.77,1445.72 1110.67,1445.72 1110.67,1254.86 1087.77,1254.86 
  "/>
<path clip-path="url(#clip432)" d="
M1110.67 1298.39 L1110.67 1445.72 L1133.56 1445.72 L1133.56 1298.39 L1110.67 1298.39 L1110.67 1298.39  Z
  " fill="#009af9" fill-rule="evenodd" fill-opacity="1"/>
<polyline clip-path="url(#clip432)" style="stroke:#000000; stroke-width:4; stroke-opacity:1; fill:none" points="
  1110.67,1298.39 1110.67,1445.72 1133.56,1445.72 1133.56,1298.39 1110.67,1298.39 
  "/>
<path clip-path="url(#clip432)" d="
M1133.56 1273.28 L1133.56 1445.72 L1156.46 1445.72 L1156.46 1273.28 L1133.56 1273.28 L1133.56 1273.28  Z
  " fill="#009af9" fill-rule="evenodd" fill-opacity="1"/>
<polyline clip-path="url(#clip432)" style="stroke:#000000; stroke-width:4; stroke-opacity:1; fill:none" points="
  1133.56,1273.28 1133.56,1445.72 1156.46,1445.72 1156.46,1273.28 1133.56,1273.28 
  "/>
<path clip-path="url(#clip432)" d="
M1156.46 1285 L1156.46 1445.72 L1179.35 1445.72 L1179.35 1285 L1156.46 1285 L1156.46 1285  Z
  " fill="#009af9" fill-rule="evenodd" fill-opacity="1"/>
<polyline clip-path="url(#clip432)" style="stroke:#000000; stroke-width:4; stroke-opacity:1; fill:none" points="
  1156.46,1285 1156.46,1445.72 1179.35,1445.72 1179.35,1285 1156.46,1285 
  "/>
<path clip-path="url(#clip432)" d="
M1179.35 1261.56 L1179.35 1445.72 L1202.24 1445.72 L1202.24 1261.56 L1179.35 1261.56 L1179.35 1261.56  Z
  " fill="#009af9" fill-rule="evenodd" fill-opacity="1"/>
<polyline clip-path="url(#clip432)" style="stroke:#000000; stroke-width:4; stroke-opacity:1; fill:none" points="
  1179.35,1261.56 1179.35,1445.72 1202.24,1445.72 1202.24,1261.56 1179.35,1261.56 
  "/>
<path clip-path="url(#clip432)" d="
M1202.24 1266.58 L1202.24 1445.72 L1225.14 1445.72 L1225.14 1266.58 L1202.24 1266.58 L1202.24 1266.58  Z
  " fill="#009af9" fill-rule="evenodd" fill-opacity="1"/>
<polyline clip-path="url(#clip432)" style="stroke:#000000; stroke-width:4; stroke-opacity:1; fill:none" points="
  1202.24,1266.58 1202.24,1445.72 1225.14,1445.72 1225.14,1266.58 1202.24,1266.58 
  "/>
<path clip-path="url(#clip432)" d="
M1225.14 1229.75 L1225.14 1445.72 L1248.03 1445.72 L1248.03 1229.75 L1225.14 1229.75 L1225.14 1229.75  Z
  " fill="#009af9" fill-rule="evenodd" fill-opacity="1"/>
<polyline clip-path="url(#clip432)" style="stroke:#000000; stroke-width:4; stroke-opacity:1; fill:none" points="
  1225.14,1229.75 1225.14,1445.72 1248.03,1445.72 1248.03,1229.75 1225.14,1229.75 
  "/>
<path clip-path="url(#clip432)" d="
M1248.03 1234.77 L1248.03 1445.72 L1270.93 1445.72 L1270.93 1234.77 L1248.03 1234.77 L1248.03 1234.77  Z
  " fill="#009af9" fill-rule="evenodd" fill-opacity="1"/>
<polyline clip-path="url(#clip432)" style="stroke:#000000; stroke-width:4; stroke-opacity:1; fill:none" points="
  1248.03,1234.77 1248.03,1445.72 1270.93,1445.72 1270.93,1234.77 1248.03,1234.77 
  "/>
<path clip-path="url(#clip432)" d="
M1270.93 1246.49 L1270.93 1445.72 L1293.82 1445.72 L1293.82 1246.49 L1270.93 1246.49 L1270.93 1246.49  Z
  " fill="#009af9" fill-rule="evenodd" fill-opacity="1"/>
<polyline clip-path="url(#clip432)" style="stroke:#000000; stroke-width:4; stroke-opacity:1; fill:none" points="
  1270.93,1246.49 1270.93,1445.72 1293.82,1445.72 1293.82,1246.49 1270.93,1246.49 
  "/>
<path clip-path="url(#clip432)" d="
M1293.82 1293.37 L1293.82 1445.72 L1316.72 1445.72 L1316.72 1293.37 L1293.82 1293.37 L1293.82 1293.37  Z
  " fill="#009af9" fill-rule="evenodd" fill-opacity="1"/>
<polyline clip-path="url(#clip432)" style="stroke:#000000; stroke-width:4; stroke-opacity:1; fill:none" points="
  1293.82,1293.37 1293.82,1445.72 1316.72,1445.72 1316.72,1293.37 1293.82,1293.37 
  "/>
<path clip-path="url(#clip432)" d="
M1316.72 1196.27 L1316.72 1445.72 L1339.61 1445.72 L1339.61 1196.27 L1316.72 1196.27 L1316.72 1196.27  Z
  " fill="#009af9" fill-rule="evenodd" fill-opacity="1"/>
<polyline clip-path="url(#clip432)" style="stroke:#000000; stroke-width:4; stroke-opacity:1; fill:none" points="
  1316.72,1196.27 1316.72,1445.72 1339.61,1445.72 1339.61,1196.27 1316.72,1196.27 
  "/>
<path clip-path="url(#clip432)" d="
M1339.61 789.447 L1339.61 1445.72 L1362.51 1445.72 L1362.51 789.447 L1339.61 789.447 L1339.61 789.447  Z
  " fill="#009af9" fill-rule="evenodd" fill-opacity="1"/>
<polyline clip-path="url(#clip432)" style="stroke:#000000; stroke-width:4; stroke-opacity:1; fill:none" points="
  1339.61,789.447 1339.61,1445.72 1362.51,1445.72 1362.51,789.447 1339.61,789.447 
  "/>
<path clip-path="url(#clip432)" d="
M1362.51 87.9763 L1362.51 1445.72 L1385.4 1445.72 L1385.4 87.9763 L1362.51 87.9763 L1362.51 87.9763  Z
  " fill="#009af9" fill-rule="evenodd" fill-opacity="1"/>
<polyline clip-path="url(#clip432)" style="stroke:#000000; stroke-width:4; stroke-opacity:1; fill:none" points="
  1362.51,87.9763 1362.51,1445.72 1385.4,1445.72 1385.4,87.9763 1362.51,87.9763 
  "/>
<path clip-path="url(#clip432)" d="
M1385.4 89.6504 L1385.4 1445.72 L1408.29 1445.72 L1408.29 89.6504 L1385.4 89.6504 L1385.4 89.6504  Z
  " fill="#009af9" fill-rule="evenodd" fill-opacity="1"/>
<polyline clip-path="url(#clip432)" style="stroke:#000000; stroke-width:4; stroke-opacity:1; fill:none" points="
  1385.4,89.6504 1385.4,1445.72 1408.29,1445.72 1408.29,89.6504 1385.4,89.6504 
  "/>
<path clip-path="url(#clip432)" d="
M1408.29 834.649 L1408.29 1445.72 L1431.19 1445.72 L1431.19 834.649 L1408.29 834.649 L1408.29 834.649  Z
  " fill="#009af9" fill-rule="evenodd" fill-opacity="1"/>
<polyline clip-path="url(#clip432)" style="stroke:#000000; stroke-width:4; stroke-opacity:1; fill:none" points="
  1408.29,834.649 1408.29,1445.72 1431.19,1445.72 1431.19,834.649 1408.29,834.649 
  "/>
<path clip-path="url(#clip432)" d="
M1431.19 1239.79 L1431.19 1445.72 L1454.08 1445.72 L1454.08 1239.79 L1431.19 1239.79 L1431.19 1239.79  Z
  " fill="#009af9" fill-rule="evenodd" fill-opacity="1"/>
<polyline clip-path="url(#clip432)" style="stroke:#000000; stroke-width:4; stroke-opacity:1; fill:none" points="
  1431.19,1239.79 1431.19,1445.72 1454.08,1445.72 1454.08,1239.79 1431.19,1239.79 
  "/>
<path clip-path="url(#clip432)" d="
M1454.08 1316.81 L1454.08 1445.72 L1476.98 1445.72 L1476.98 1316.81 L1454.08 1316.81 L1454.08 1316.81  Z
  " fill="#009af9" fill-rule="evenodd" fill-opacity="1"/>
<polyline clip-path="url(#clip432)" style="stroke:#000000; stroke-width:4; stroke-opacity:1; fill:none" points="
  1454.08,1316.81 1454.08,1445.72 1476.98,1445.72 1476.98,1316.81 1454.08,1316.81 
  "/>
<path clip-path="url(#clip432)" d="
M1476.98 1340.24 L1476.98 1445.72 L1499.87 1445.72 L1499.87 1340.24 L1476.98 1340.24 L1476.98 1340.24  Z
  " fill="#009af9" fill-rule="evenodd" fill-opacity="1"/>
<polyline clip-path="url(#clip432)" style="stroke:#000000; stroke-width:4; stroke-opacity:1; fill:none" points="
  1476.98,1340.24 1476.98,1445.72 1499.87,1445.72 1499.87,1340.24 1476.98,1340.24 
  "/>
<path clip-path="url(#clip432)" d="
M1499.87 1340.24 L1499.87 1445.72 L1522.77 1445.72 L1522.77 1340.24 L1499.87 1340.24 L1499.87 1340.24  Z
  " fill="#009af9" fill-rule="evenodd" fill-opacity="1"/>
<polyline clip-path="url(#clip432)" style="stroke:#000000; stroke-width:4; stroke-opacity:1; fill:none" points="
  1499.87,1340.24 1499.87,1445.72 1522.77,1445.72 1522.77,1340.24 1499.87,1340.24 
  "/>
<path clip-path="url(#clip432)" d="
M1522.77 1331.87 L1522.77 1445.72 L1545.66 1445.72 L1545.66 1331.87 L1522.77 1331.87 L1522.77 1331.87  Z
  " fill="#009af9" fill-rule="evenodd" fill-opacity="1"/>
<polyline clip-path="url(#clip432)" style="stroke:#000000; stroke-width:4; stroke-opacity:1; fill:none" points="
  1522.77,1331.87 1522.77,1445.72 1545.66,1445.72 1545.66,1331.87 1522.77,1331.87 
  "/>
<path clip-path="url(#clip432)" d="
M1545.66 1365.36 L1545.66 1445.72 L1568.55 1445.72 L1568.55 1365.36 L1545.66 1365.36 L1545.66 1365.36  Z
  " fill="#009af9" fill-rule="evenodd" fill-opacity="1"/>
<polyline clip-path="url(#clip432)" style="stroke:#000000; stroke-width:4; stroke-opacity:1; fill:none" points="
  1545.66,1365.36 1545.66,1445.72 1568.55,1445.72 1568.55,1365.36 1545.66,1365.36 
  "/>
<path clip-path="url(#clip432)" d="
M1568.55 1373.73 L1568.55 1445.72 L1591.45 1445.72 L1591.45 1373.73 L1568.55 1373.73 L1568.55 1373.73  Z
  " fill="#009af9" fill-rule="evenodd" fill-opacity="1"/>
<polyline clip-path="url(#clip432)" style="stroke:#000000; stroke-width:4; stroke-opacity:1; fill:none" points="
  1568.55,1373.73 1568.55,1445.72 1591.45,1445.72 1591.45,1373.73 1568.55,1373.73 
  "/>
<path clip-path="url(#clip432)" d="
M1591.45 1367.03 L1591.45 1445.72 L1614.34 1445.72 L1614.34 1367.03 L1591.45 1367.03 L1591.45 1367.03  Z
  " fill="#009af9" fill-rule="evenodd" fill-opacity="1"/>
<polyline clip-path="url(#clip432)" style="stroke:#000000; stroke-width:4; stroke-opacity:1; fill:none" points="
  1591.45,1367.03 1591.45,1445.72 1614.34,1445.72 1614.34,1367.03 1591.45,1367.03 
  "/>
<path clip-path="url(#clip432)" d="
M1614.34 1388.79 L1614.34 1445.72 L1637.24 1445.72 L1637.24 1388.79 L1614.34 1388.79 L1614.34 1388.79  Z
  " fill="#009af9" fill-rule="evenodd" fill-opacity="1"/>
<polyline clip-path="url(#clip432)" style="stroke:#000000; stroke-width:4; stroke-opacity:1; fill:none" points="
  1614.34,1388.79 1614.34,1445.72 1637.24,1445.72 1637.24,1388.79 1614.34,1388.79 
  "/>
<path clip-path="url(#clip432)" d="
M1637.24 1387.12 L1637.24 1445.72 L1660.13 1445.72 L1660.13 1387.12 L1637.24 1387.12 L1637.24 1387.12  Z
  " fill="#009af9" fill-rule="evenodd" fill-opacity="1"/>
<polyline clip-path="url(#clip432)" style="stroke:#000000; stroke-width:4; stroke-opacity:1; fill:none" points="
  1637.24,1387.12 1637.24,1445.72 1660.13,1445.72 1660.13,1387.12 1637.24,1387.12 
  "/>
<path clip-path="url(#clip432)" d="
M1660.13 1418.93 L1660.13 1445.72 L1683.03 1445.72 L1683.03 1418.93 L1660.13 1418.93 L1660.13 1418.93  Z
  " fill="#009af9" fill-rule="evenodd" fill-opacity="1"/>
<polyline clip-path="url(#clip432)" style="stroke:#000000; stroke-width:4; stroke-opacity:1; fill:none" points="
  1660.13,1418.93 1660.13,1445.72 1683.03,1445.72 1683.03,1418.93 1660.13,1418.93 
  "/>
<path clip-path="url(#clip432)" d="
M1683.03 1410.56 L1683.03 1445.72 L1705.92 1445.72 L1705.92 1410.56 L1683.03 1410.56 L1683.03 1410.56  Z
  " fill="#009af9" fill-rule="evenodd" fill-opacity="1"/>
<polyline clip-path="url(#clip432)" style="stroke:#000000; stroke-width:4; stroke-opacity:1; fill:none" points="
  1683.03,1410.56 1683.03,1445.72 1705.92,1445.72 1705.92,1410.56 1683.03,1410.56 
  "/>
<path clip-path="url(#clip432)" d="
M1705.92 1420.6 L1705.92 1445.72 L1728.82 1445.72 L1728.82 1420.6 L1705.92 1420.6 L1705.92 1420.6  Z
  " fill="#009af9" fill-rule="evenodd" fill-opacity="1"/>
<polyline clip-path="url(#clip432)" style="stroke:#000000; stroke-width:4; stroke-opacity:1; fill:none" points="
  1705.92,1420.6 1705.92,1445.72 1728.82,1445.72 1728.82,1420.6 1705.92,1420.6 
  "/>
<path clip-path="url(#clip432)" d="
M1728.82 1413.91 L1728.82 1445.72 L1751.71 1445.72 L1751.71 1413.91 L1728.82 1413.91 L1728.82 1413.91  Z
  " fill="#009af9" fill-rule="evenodd" fill-opacity="1"/>
<polyline clip-path="url(#clip432)" style="stroke:#000000; stroke-width:4; stroke-opacity:1; fill:none" points="
  1728.82,1413.91 1728.82,1445.72 1751.71,1445.72 1751.71,1413.91 1728.82,1413.91 
  "/>
<path clip-path="url(#clip432)" d="
M1751.71 1417.26 L1751.71 1445.72 L1774.6 1445.72 L1774.6 1417.26 L1751.71 1417.26 L1751.71 1417.26  Z
  " fill="#009af9" fill-rule="evenodd" fill-opacity="1"/>
<polyline clip-path="url(#clip432)" style="stroke:#000000; stroke-width:4; stroke-opacity:1; fill:none" points="
  1751.71,1417.26 1751.71,1445.72 1774.6,1445.72 1774.6,1417.26 1751.71,1417.26 
  "/>
<path clip-path="url(#clip432)" d="
M1774.6 1423.95 L1774.6 1445.72 L1797.5 1445.72 L1797.5 1423.95 L1774.6 1423.95 L1774.6 1423.95  Z
  " fill="#009af9" fill-rule="evenodd" fill-opacity="1"/>
<polyline clip-path="url(#clip432)" style="stroke:#000000; stroke-width:4; stroke-opacity:1; fill:none" points="
  1774.6,1423.95 1774.6,1445.72 1797.5,1445.72 1797.5,1423.95 1774.6,1423.95 
  "/>
<path clip-path="url(#clip432)" d="
M1797.5 1428.97 L1797.5 1445.72 L1820.39 1445.72 L1820.39 1428.97 L1797.5 1428.97 L1797.5 1428.97  Z
  " fill="#009af9" fill-rule="evenodd" fill-opacity="1"/>
<polyline clip-path="url(#clip432)" style="stroke:#000000; stroke-width:4; stroke-opacity:1; fill:none" points="
  1797.5,1428.97 1797.5,1445.72 1820.39,1445.72 1820.39,1428.97 1797.5,1428.97 
  "/>
<path clip-path="url(#clip432)" d="
M1820.39 1435.67 L1820.39 1445.72 L1843.29 1445.72 L1843.29 1435.67 L1820.39 1435.67 L1820.39 1435.67  Z
  " fill="#009af9" fill-rule="evenodd" fill-opacity="1"/>
<polyline clip-path="url(#clip432)" style="stroke:#000000; stroke-width:4; stroke-opacity:1; fill:none" points="
  1820.39,1435.67 1820.39,1445.72 1843.29,1445.72 1843.29,1435.67 1820.39,1435.67 
  "/>
<path clip-path="url(#clip432)" d="
M1843.29 1432.32 L1843.29 1445.72 L1866.18 1445.72 L1866.18 1432.32 L1843.29 1432.32 L1843.29 1432.32  Z
  " fill="#009af9" fill-rule="evenodd" fill-opacity="1"/>
<polyline clip-path="url(#clip432)" style="stroke:#000000; stroke-width:4; stroke-opacity:1; fill:none" points="
  1843.29,1432.32 1843.29,1445.72 1866.18,1445.72 1866.18,1432.32 1843.29,1432.32 
  "/>
<path clip-path="url(#clip432)" d="
M1866.18 1442.37 L1866.18 1445.72 L1889.08 1445.72 L1889.08 1442.37 L1866.18 1442.37 L1866.18 1442.37  Z
  " fill="#009af9" fill-rule="evenodd" fill-opacity="1"/>
<polyline clip-path="url(#clip432)" style="stroke:#000000; stroke-width:4; stroke-opacity:1; fill:none" points="
  1866.18,1442.37 1866.18,1445.72 1889.08,1445.72 1889.08,1442.37 1866.18,1442.37 
  "/>
<path clip-path="url(#clip432)" d="
M1889.08 1439.02 L1889.08 1445.72 L1911.97 1445.72 L1911.97 1439.02 L1889.08 1439.02 L1889.08 1439.02  Z
  " fill="#009af9" fill-rule="evenodd" fill-opacity="1"/>
<polyline clip-path="url(#clip432)" style="stroke:#000000; stroke-width:4; stroke-opacity:1; fill:none" points="
  1889.08,1439.02 1889.08,1445.72 1911.97,1445.72 1911.97,1439.02 1889.08,1439.02 
  "/>
<path clip-path="url(#clip432)" d="
M1911.97 1442.37 L1911.97 1445.72 L1934.86 1445.72 L1934.86 1442.37 L1911.97 1442.37 L1911.97 1442.37  Z
  " fill="#009af9" fill-rule="evenodd" fill-opacity="1"/>
<polyline clip-path="url(#clip432)" style="stroke:#000000; stroke-width:4; stroke-opacity:1; fill:none" points="
  1911.97,1442.37 1911.97,1445.72 1934.86,1445.72 1934.86,1442.37 1911.97,1442.37 
  "/>
<path clip-path="url(#clip432)" d="
M1934.86 1445.72 L1934.86 1445.72 L1957.76 1445.72 L1957.76 1445.72 L1934.86 1445.72 L1934.86 1445.72  Z
  " fill="#009af9" fill-rule="evenodd" fill-opacity="1"/>
<polyline clip-path="url(#clip432)" style="stroke:#000000; stroke-width:4; stroke-opacity:1; fill:none" points="
  1934.86,1445.72 1934.86,1445.72 1957.76,1445.72 1934.86,1445.72 
  "/>
<path clip-path="url(#clip432)" d="
M1957.76 1445.72 L1957.76 1445.72 L1980.65 1445.72 L1980.65 1445.72 L1957.76 1445.72 L1957.76 1445.72  Z
  " fill="#009af9" fill-rule="evenodd" fill-opacity="1"/>
<polyline clip-path="url(#clip432)" style="stroke:#000000; stroke-width:4; stroke-opacity:1; fill:none" points="
  1957.76,1445.72 1957.76,1445.72 1980.65,1445.72 1957.76,1445.72 
  "/>
<path clip-path="url(#clip432)" d="
M1980.65 1439.02 L1980.65 1445.72 L2003.55 1445.72 L2003.55 1439.02 L1980.65 1439.02 L1980.65 1439.02  Z
  " fill="#009af9" fill-rule="evenodd" fill-opacity="1"/>
<polyline clip-path="url(#clip432)" style="stroke:#000000; stroke-width:4; stroke-opacity:1; fill:none" points="
  1980.65,1439.02 1980.65,1445.72 2003.55,1445.72 2003.55,1439.02 1980.65,1439.02 
  "/>
<path clip-path="url(#clip432)" d="
M2003.55 1445.72 L2003.55 1445.72 L2026.44 1445.72 L2026.44 1445.72 L2003.55 1445.72 L2003.55 1445.72  Z
  " fill="#009af9" fill-rule="evenodd" fill-opacity="1"/>
<polyline clip-path="url(#clip432)" style="stroke:#000000; stroke-width:4; stroke-opacity:1; fill:none" points="
  2003.55,1445.72 2003.55,1445.72 2026.44,1445.72 2003.55,1445.72 
  "/>
<path clip-path="url(#clip432)" d="
M2026.44 1445.72 L2026.44 1445.72 L2049.34 1445.72 L2049.34 1445.72 L2026.44 1445.72 L2026.44 1445.72  Z
  " fill="#009af9" fill-rule="evenodd" fill-opacity="1"/>
<polyline clip-path="url(#clip432)" style="stroke:#000000; stroke-width:4; stroke-opacity:1; fill:none" points="
  2026.44,1445.72 2026.44,1445.72 2049.34,1445.72 2026.44,1445.72 
  "/>
<path clip-path="url(#clip432)" d="
M2049.34 1445.72 L2049.34 1445.72 L2072.23 1445.72 L2072.23 1445.72 L2049.34 1445.72 L2049.34 1445.72  Z
  " fill="#009af9" fill-rule="evenodd" fill-opacity="1"/>
<polyline clip-path="url(#clip432)" style="stroke:#000000; stroke-width:4; stroke-opacity:1; fill:none" points="
  2049.34,1445.72 2049.34,1445.72 2072.23,1445.72 2049.34,1445.72 
  "/>
<path clip-path="url(#clip432)" d="
M2072.23 1445.72 L2072.23 1445.72 L2095.13 1445.72 L2095.13 1445.72 L2072.23 1445.72 L2072.23 1445.72  Z
  " fill="#009af9" fill-rule="evenodd" fill-opacity="1"/>
<polyline clip-path="url(#clip432)" style="stroke:#000000; stroke-width:4; stroke-opacity:1; fill:none" points="
  2072.23,1445.72 2072.23,1445.72 2095.13,1445.72 2072.23,1445.72 
  "/>
<path clip-path="url(#clip432)" d="
M2095.13 1444.04 L2095.13 1445.72 L2118.02 1445.72 L2118.02 1444.04 L2095.13 1444.04 L2095.13 1444.04  Z
  " fill="#009af9" fill-rule="evenodd" fill-opacity="1"/>
<polyline clip-path="url(#clip432)" style="stroke:#000000; stroke-width:4; stroke-opacity:1; fill:none" points="
  2095.13,1444.04 2095.13,1445.72 2118.02,1445.72 2118.02,1444.04 2095.13,1444.04 
  "/>
<path clip-path="url(#clip432)" d="
M2118.02 1445.72 L2118.02 1445.72 L2140.91 1445.72 L2140.91 1445.72 L2118.02 1445.72 L2118.02 1445.72  Z
  " fill="#009af9" fill-rule="evenodd" fill-opacity="1"/>
<polyline clip-path="url(#clip432)" style="stroke:#000000; stroke-width:4; stroke-opacity:1; fill:none" points="
  2118.02,1445.72 2118.02,1445.72 2140.91,1445.72 2118.02,1445.72 
  "/>
<path clip-path="url(#clip432)" d="
M2140.91 1445.72 L2140.91 1445.72 L2163.81 1445.72 L2163.81 1445.72 L2140.91 1445.72 L2140.91 1445.72  Z
  " fill="#009af9" fill-rule="evenodd" fill-opacity="1"/>
<polyline clip-path="url(#clip432)" style="stroke:#000000; stroke-width:4; stroke-opacity:1; fill:none" points="
  2140.91,1445.72 2140.91,1445.72 2163.81,1445.72 2140.91,1445.72 
  "/>
<path clip-path="url(#clip432)" d="
M2163.81 1445.72 L2163.81 1445.72 L2186.7 1445.72 L2186.7 1445.72 L2163.81 1445.72 L2163.81 1445.72  Z
  " fill="#009af9" fill-rule="evenodd" fill-opacity="1"/>
<polyline clip-path="url(#clip432)" style="stroke:#000000; stroke-width:4; stroke-opacity:1; fill:none" points="
  2163.81,1445.72 2163.81,1445.72 2186.7,1445.72 2163.81,1445.72 
  "/>
<path clip-path="url(#clip432)" d="
M2186.7 1445.72 L2186.7 1445.72 L2209.6 1445.72 L2209.6 1445.72 L2186.7 1445.72 L2186.7 1445.72  Z
  " fill="#009af9" fill-rule="evenodd" fill-opacity="1"/>
<polyline clip-path="url(#clip432)" style="stroke:#000000; stroke-width:4; stroke-opacity:1; fill:none" points="
  2186.7,1445.72 2186.7,1445.72 2209.6,1445.72 2186.7,1445.72 
  "/>
<path clip-path="url(#clip432)" d="
M2209.6 1444.04 L2209.6 1445.72 L2232.49 1445.72 L2232.49 1444.04 L2209.6 1444.04 L2209.6 1444.04  Z
  " fill="#009af9" fill-rule="evenodd" fill-opacity="1"/>
<polyline clip-path="url(#clip432)" style="stroke:#000000; stroke-width:4; stroke-opacity:1; fill:none" points="
  2209.6,1444.04 2209.6,1445.72 2232.49,1445.72 2232.49,1444.04 2209.6,1444.04 
  "/>
<path clip-path="url(#clip430)" d="
M1985.9 216.178 L2279.87 216.178 L2279.87 95.2176 L1985.9 95.2176  Z
  " fill="#ffffff" fill-rule="evenodd" fill-opacity="1"/>
<polyline clip-path="url(#clip430)" style="stroke:#000000; stroke-width:4; stroke-opacity:1; fill:none" points="
  1985.9,216.178 2279.87,216.178 2279.87,95.2176 1985.9,95.2176 1985.9,216.178 
  "/>
<path clip-path="url(#clip430)" d="
M2010.2 179.89 L2155.97 179.89 L2155.97 131.506 L2010.2 131.506 L2010.2 179.89  Z
  " fill="#009af9" fill-rule="evenodd" fill-opacity="1"/>
<polyline clip-path="url(#clip430)" style="stroke:#000000; stroke-width:4; stroke-opacity:1; fill:none" points="
  2010.2,179.89 2155.97,179.89 2155.97,131.506 2010.2,131.506 2010.2,179.89 
  "/>
<path clip-path="url(#clip430)" d="M 0 0 M2194.11 175.385 Q2192.3 180.015 2190.59 181.427 Q2188.87 182.839 2186 182.839 L2182.6 182.839 L2182.6 179.274 L2185.1 179.274 Q2186.86 179.274 2187.83 178.44 Q2188.8 177.607 2189.98 174.505 L2190.75 172.561 L2180.26 147.052 L2184.78 147.052 L2192.88 167.329 L2200.98 147.052 L2205.49 147.052 L2194.11 175.385 Z" fill="#000000" fill-rule="evenodd" fill-opacity="1" /><path clip-path="url(#clip430)" d="M 0 0 M2211.37 169.042 L2219.01 169.042 L2219.01 142.677 L2210.7 144.343 L2210.7 140.084 L2218.97 138.418 L2223.64 138.418 L2223.64 169.042 L2231.28 169.042 L2231.28 172.978 L2211.37 172.978 L2211.37 169.042 Z" fill="#000000" fill-rule="evenodd" fill-opacity="1" /></svg>
