<?xml version="1.0" encoding="utf-8"?>
<svg xmlns="http://www.w3.org/2000/svg" xmlns:xlink="http://www.w3.org/1999/xlink" width="600" height="400" viewBox="0 0 2400 1600">
<defs>
  <clipPath id="clip840">
    <rect x="0" y="0" width="2400" height="1600"/>
  </clipPath>
</defs>
<path clip-path="url(#clip840)" d="
M0 1600 L2400 1600 L2400 0 L0 0  Z
  " fill="#ffffff" fill-rule="evenodd" fill-opacity="1"/>
<defs>
  <clipPath id="clip841">
    <rect x="480" y="0" width="1681" height="1600"/>
  </clipPath>
</defs>
<path clip-path="url(#clip840)" d="
M166.205 1486.45 L2352.76 1486.45 L2352.76 47.2441 L166.205 47.2441  Z
  " fill="#ffffff" fill-rule="evenodd" fill-opacity="1"/>
<defs>
  <clipPath id="clip842">
    <rect x="166" y="47" width="2188" height="1440"/>
  </clipPath>
</defs>
<polyline clip-path="url(#clip842)" style="stroke:#000000; stroke-width:2; stroke-opacity:0.1; fill:none" points="
  396.104,1486.45 396.104,47.2441 
  "/>
<polyline clip-path="url(#clip842)" style="stroke:#000000; stroke-width:2; stroke-opacity:0.1; fill:none" points="
  807.236,1486.45 807.236,47.2441 
  "/>
<polyline clip-path="url(#clip842)" style="stroke:#000000; stroke-width:2; stroke-opacity:0.1; fill:none" points="
  1218.37,1486.45 1218.37,47.2441 
  "/>
<polyline clip-path="url(#clip842)" style="stroke:#000000; stroke-width:2; stroke-opacity:0.1; fill:none" points="
  1629.5,1486.45 1629.5,47.2441 
  "/>
<polyline clip-path="url(#clip842)" style="stroke:#000000; stroke-width:2; stroke-opacity:0.1; fill:none" points="
  2040.63,1486.45 2040.63,47.2441 
  "/>
<polyline clip-path="url(#clip842)" style="stroke:#000000; stroke-width:2; stroke-opacity:0.1; fill:none" points="
  166.205,1445.72 2352.76,1445.72 
  "/>
<polyline clip-path="url(#clip842)" style="stroke:#000000; stroke-width:2; stroke-opacity:0.1; fill:none" points="
  166.205,1109.23 2352.76,1109.23 
  "/>
<polyline clip-path="url(#clip842)" style="stroke:#000000; stroke-width:2; stroke-opacity:0.1; fill:none" points="
  166.205,772.735 2352.76,772.735 
  "/>
<polyline clip-path="url(#clip842)" style="stroke:#000000; stroke-width:2; stroke-opacity:0.1; fill:none" points="
  166.205,436.244 2352.76,436.244 
  "/>
<polyline clip-path="url(#clip842)" style="stroke:#000000; stroke-width:2; stroke-opacity:0.1; fill:none" points="
  166.205,99.7534 2352.76,99.7534 
  "/>
<polyline clip-path="url(#clip840)" style="stroke:#000000; stroke-width:4; stroke-opacity:1; fill:none" points="
  166.205,1486.45 2352.76,1486.45 
  "/>
<polyline clip-path="url(#clip840)" style="stroke:#000000; stroke-width:4; stroke-opacity:1; fill:none" points="
  166.205,1486.45 166.205,47.2441 
  "/>
<polyline clip-path="url(#clip840)" style="stroke:#000000; stroke-width:4; stroke-opacity:1; fill:none" points="
  396.104,1486.45 396.104,1469.18 
  "/>
<polyline clip-path="url(#clip840)" style="stroke:#000000; stroke-width:4; stroke-opacity:1; fill:none" points="
  807.236,1486.45 807.236,1469.18 
  "/>
<polyline clip-path="url(#clip840)" style="stroke:#000000; stroke-width:4; stroke-opacity:1; fill:none" points="
  1218.37,1486.45 1218.37,1469.18 
  "/>
<polyline clip-path="url(#clip840)" style="stroke:#000000; stroke-width:4; stroke-opacity:1; fill:none" points="
  1629.5,1486.45 1629.5,1469.18 
  "/>
<polyline clip-path="url(#clip840)" style="stroke:#000000; stroke-width:4; stroke-opacity:1; fill:none" points="
  2040.63,1486.45 2040.63,1469.18 
  "/>
<polyline clip-path="url(#clip840)" style="stroke:#000000; stroke-width:4; stroke-opacity:1; fill:none" points="
  166.205,1445.72 192.443,1445.72 
  "/>
<polyline clip-path="url(#clip840)" style="stroke:#000000; stroke-width:4; stroke-opacity:1; fill:none" points="
  166.205,1109.23 192.443,1109.23 
  "/>
<polyline clip-path="url(#clip840)" style="stroke:#000000; stroke-width:4; stroke-opacity:1; fill:none" points="
  166.205,772.735 192.443,772.735 
  "/>
<polyline clip-path="url(#clip840)" style="stroke:#000000; stroke-width:4; stroke-opacity:1; fill:none" points="
  166.205,436.244 192.443,436.244 
  "/>
<polyline clip-path="url(#clip840)" style="stroke:#000000; stroke-width:4; stroke-opacity:1; fill:none" points="
  166.205,99.7534 192.443,99.7534 
  "/>
<path clip-path="url(#clip840)" d="M 0 0 M367.678 1523.09 L397.354 1523.09 L397.354 1527.03 L367.678 1527.03 L367.678 1523.09 Z" fill="#000000" fill-rule="evenodd" fill-opacity="1" /><path clip-path="url(#clip840)" d="M 0 0 M413.002 1520.78 Q409.854 1520.78 408.002 1522.93 Q406.173 1525.08 406.173 1528.83 Q406.173 1532.56 408.002 1534.73 Q409.854 1536.89 413.002 1536.89 Q416.15 1536.89 417.979 1534.73 Q419.831 1532.56 419.831 1528.83 Q419.831 1525.08 417.979 1522.93 Q416.15 1520.78 413.002 1520.78 M422.284 1506.12 L422.284 1510.38 Q420.525 1509.55 418.72 1509.11 Q416.937 1508.67 415.178 1508.67 Q410.548 1508.67 408.095 1511.8 Q405.664 1514.92 405.317 1521.24 Q406.683 1519.23 408.743 1518.16 Q410.803 1517.07 413.28 1517.07 Q418.488 1517.07 421.497 1520.24 Q424.53 1523.39 424.53 1528.83 Q424.53 1534.16 421.382 1537.37 Q418.233 1540.59 413.002 1540.59 Q407.007 1540.59 403.835 1536.01 Q400.664 1531.4 400.664 1522.67 Q400.664 1514.48 404.553 1509.62 Q408.442 1504.73 414.993 1504.73 Q416.752 1504.73 418.534 1505.08 Q420.34 1505.43 422.284 1506.12 Z" fill="#000000" fill-rule="evenodd" fill-opacity="1" /><path clip-path="url(#clip840)" d="M 0 0 M779.215 1523.09 L808.891 1523.09 L808.891 1527.03 L779.215 1527.03 L779.215 1523.09 Z" fill="#000000" fill-rule="evenodd" fill-opacity="1" /><path clip-path="url(#clip840)" d="M 0 0 M828.127 1521.29 Q831.483 1522 833.358 1524.27 Q835.256 1526.54 835.256 1529.87 Q835.256 1534.99 831.738 1537.79 Q828.219 1540.59 821.738 1540.59 Q819.562 1540.59 817.247 1540.15 Q814.955 1539.73 812.502 1538.88 L812.502 1534.36 Q814.446 1535.5 816.761 1536.08 Q819.076 1536.66 821.599 1536.66 Q825.997 1536.66 828.289 1534.92 Q830.603 1533.18 830.603 1529.87 Q830.603 1526.82 828.451 1525.11 Q826.321 1523.37 822.502 1523.37 L818.474 1523.37 L818.474 1519.53 L822.687 1519.53 Q826.136 1519.53 827.965 1518.16 Q829.793 1516.77 829.793 1514.18 Q829.793 1511.52 827.895 1510.11 Q826.02 1508.67 822.502 1508.67 Q820.58 1508.67 818.381 1509.09 Q816.182 1509.5 813.543 1510.38 L813.543 1506.22 Q816.205 1505.48 818.52 1505.11 Q820.858 1504.73 822.918 1504.73 Q828.242 1504.73 831.344 1507.17 Q834.446 1509.57 834.446 1513.69 Q834.446 1516.56 832.803 1518.55 Q831.159 1520.52 828.127 1521.29 Z" fill="#000000" fill-rule="evenodd" fill-opacity="1" /><path clip-path="url(#clip840)" d="M 0 0 M1218.37 1508.44 Q1214.76 1508.44 1212.93 1512 Q1211.12 1515.55 1211.12 1522.67 Q1211.12 1529.78 1212.93 1533.35 Q1214.76 1536.89 1218.37 1536.89 Q1222 1536.89 1223.81 1533.35 Q1225.64 1529.78 1225.64 1522.67 Q1225.64 1515.55 1223.81 1512 Q1222 1508.44 1218.37 1508.44 M1218.37 1504.73 Q1224.18 1504.73 1227.23 1509.34 Q1230.31 1513.92 1230.31 1522.67 Q1230.31 1531.4 1227.23 1536.01 Q1224.18 1540.59 1218.37 1540.59 Q1212.56 1540.59 1209.48 1536.01 Q1206.42 1531.4 1206.42 1522.67 Q1206.42 1513.92 1209.48 1509.34 Q1212.56 1504.73 1218.37 1504.73 Z" fill="#000000" fill-rule="evenodd" fill-opacity="1" /><path clip-path="url(#clip840)" d="M 0 0 M1633.75 1521.29 Q1637.1 1522 1638.98 1524.27 Q1640.88 1526.54 1640.88 1529.87 Q1640.88 1534.99 1637.36 1537.79 Q1633.84 1540.59 1627.36 1540.59 Q1625.18 1540.59 1622.87 1540.15 Q1620.58 1539.73 1618.12 1538.88 L1618.12 1534.36 Q1620.07 1535.5 1622.38 1536.08 Q1624.7 1536.66 1627.22 1536.66 Q1631.62 1536.66 1633.91 1534.92 Q1636.22 1533.18 1636.22 1529.87 Q1636.22 1526.82 1634.07 1525.11 Q1631.94 1523.37 1628.12 1523.37 L1624.09 1523.37 L1624.09 1519.53 L1628.31 1519.53 Q1631.76 1519.53 1633.58 1518.16 Q1635.41 1516.77 1635.41 1514.18 Q1635.41 1511.52 1633.51 1510.11 Q1631.64 1508.67 1628.12 1508.67 Q1626.2 1508.67 1624 1509.09 Q1621.8 1509.5 1619.16 1510.38 L1619.16 1506.22 Q1621.83 1505.48 1624.14 1505.11 Q1626.48 1504.73 1628.54 1504.73 Q1633.86 1504.73 1636.96 1507.17 Q1640.07 1509.57 1640.07 1513.69 Q1640.07 1516.56 1638.42 1518.55 Q1636.78 1520.52 1633.75 1521.29 Z" fill="#000000" fill-rule="evenodd" fill-opacity="1" /><path clip-path="url(#clip840)" d="M 0 0 M2041.04 1520.78 Q2037.89 1520.78 2036.04 1522.93 Q2034.21 1525.08 2034.21 1528.83 Q2034.21 1532.56 2036.04 1534.73 Q2037.89 1536.89 2041.04 1536.89 Q2044.18 1536.89 2046.01 1534.73 Q2047.86 1532.56 2047.86 1528.83 Q2047.86 1525.08 2046.01 1522.93 Q2044.18 1520.78 2041.04 1520.78 M2050.32 1506.12 L2050.32 1510.38 Q2048.56 1509.55 2046.75 1509.11 Q2044.97 1508.67 2043.21 1508.67 Q2038.58 1508.67 2036.13 1511.8 Q2033.7 1514.92 2033.35 1521.24 Q2034.72 1519.23 2036.78 1518.16 Q2038.84 1517.07 2041.31 1517.07 Q2046.52 1517.07 2049.53 1520.24 Q2052.56 1523.39 2052.56 1528.83 Q2052.56 1534.16 2049.41 1537.37 Q2046.27 1540.59 2041.04 1540.59 Q2035.04 1540.59 2031.87 1536.01 Q2028.7 1531.4 2028.7 1522.67 Q2028.7 1514.48 2032.59 1509.62 Q2036.48 1504.73 2043.03 1504.73 Q2044.79 1504.73 2046.57 1505.08 Q2048.37 1505.43 2050.32 1506.12 Z" fill="#000000" fill-rule="evenodd" fill-opacity="1" /><path clip-path="url(#clip840)" d="M 0 0 M130.26 1431.51 Q126.649 1431.51 124.82 1435.08 Q123.015 1438.62 123.015 1445.75 Q123.015 1452.86 124.82 1456.42 Q126.649 1459.96 130.26 1459.96 Q133.895 1459.96 135.7 1456.42 Q137.529 1452.86 137.529 1445.75 Q137.529 1438.62 135.7 1435.08 Q133.895 1431.51 130.26 1431.51 M130.26 1427.81 Q136.07 1427.81 139.126 1432.42 Q142.205 1437 142.205 1445.75 Q142.205 1454.48 139.126 1459.08 Q136.07 1463.67 130.26 1463.67 Q124.45 1463.67 121.371 1459.08 Q118.316 1454.48 118.316 1445.75 Q118.316 1437 121.371 1432.42 Q124.45 1427.81 130.26 1427.81 Z" fill="#000000" fill-rule="evenodd" fill-opacity="1" /><path clip-path="url(#clip840)" d="M 0 0 M71.8578 1122.57 L88.1772 1122.57 L88.1772 1126.51 L66.2328 1126.51 L66.2328 1122.57 Q68.8949 1119.82 73.4782 1115.19 Q78.0846 1110.53 79.2652 1109.19 Q81.5105 1106.67 82.3902 1104.93 Q83.2929 1103.17 83.2929 1101.48 Q83.2929 1098.73 81.3485 1096.99 Q79.4272 1095.26 76.3254 1095.26 Q74.1263 1095.26 71.6726 1096.02 Q69.2421 1096.78 66.4643 1098.33 L66.4643 1093.61 Q69.2884 1092.48 71.7421 1091.9 Q74.1958 1091.32 76.2328 1091.32 Q81.6031 1091.32 84.7976 1094.01 Q87.992 1096.69 87.992 1101.18 Q87.992 1103.31 87.1818 1105.23 Q86.3948 1107.13 84.2883 1109.72 Q83.7096 1110.39 80.6078 1113.61 Q77.5059 1116.81 71.8578 1122.57 Z" fill="#000000" fill-rule="evenodd" fill-opacity="1" /><path clip-path="url(#clip840)" d="M 0 0 M103.247 1095.02 Q99.6354 1095.02 97.8068 1098.59 Q96.0012 1102.13 96.0012 1109.26 Q96.0012 1116.37 97.8068 1119.93 Q99.6354 1123.47 103.247 1123.47 Q106.881 1123.47 108.686 1119.93 Q110.515 1116.37 110.515 1109.26 Q110.515 1102.13 108.686 1098.59 Q106.881 1095.02 103.247 1095.02 M103.247 1091.32 Q109.057 1091.32 112.112 1095.93 Q115.191 1100.51 115.191 1109.26 Q115.191 1117.99 112.112 1122.59 Q109.057 1127.18 103.247 1127.18 Q97.4364 1127.18 94.3577 1122.59 Q91.3022 1117.99 91.3022 1109.26 Q91.3022 1100.51 94.3577 1095.93 Q97.4364 1091.32 103.247 1091.32 Z" fill="#000000" fill-rule="evenodd" fill-opacity="1" /><path clip-path="url(#clip840)" d="M 0 0 M130.26 1095.02 Q126.649 1095.02 124.82 1098.59 Q123.015 1102.13 123.015 1109.26 Q123.015 1116.37 124.82 1119.93 Q126.649 1123.47 130.26 1123.47 Q133.895 1123.47 135.7 1119.93 Q137.529 1116.37 137.529 1109.26 Q137.529 1102.13 135.7 1098.59 Q133.895 1095.02 130.26 1095.02 M130.26 1091.32 Q136.07 1091.32 139.126 1095.93 Q142.205 1100.51 142.205 1109.26 Q142.205 1117.99 139.126 1122.59 Q136.07 1127.18 130.26 1127.18 Q124.45 1127.18 121.371 1122.59 Q118.316 1117.99 118.316 1109.26 Q118.316 1100.51 121.371 1095.93 Q124.45 1091.32 130.26 1091.32 Z" fill="#000000" fill-rule="evenodd" fill-opacity="1" /><path clip-path="url(#clip840)" d="M 0 0 M78.5939 759.529 L66.7884 777.978 L78.5939 777.978 L78.5939 759.529 M77.367 755.455 L83.2466 755.455 L83.2466 777.978 L88.1772 777.978 L88.1772 781.866 L83.2466 781.866 L83.2466 790.015 L78.5939 790.015 L78.5939 781.866 L62.9921 781.866 L62.9921 777.353 L77.367 755.455 Z" fill="#000000" fill-rule="evenodd" fill-opacity="1" /><path clip-path="url(#clip840)" d="M 0 0 M103.247 758.533 Q99.6354 758.533 97.8068 762.098 Q96.0012 765.64 96.0012 772.769 Q96.0012 779.876 97.8068 783.441 Q99.6354 786.982 103.247 786.982 Q106.881 786.982 108.686 783.441 Q110.515 779.876 110.515 772.769 Q110.515 765.64 108.686 762.098 Q106.881 758.533 103.247 758.533 M103.247 754.83 Q109.057 754.83 112.112 759.436 Q115.191 764.019 115.191 772.769 Q115.191 781.496 112.112 786.103 Q109.057 790.686 103.247 790.686 Q97.4364 790.686 94.3577 786.103 Q91.3022 781.496 91.3022 772.769 Q91.3022 764.019 94.3577 759.436 Q97.4364 754.83 103.247 754.83 Z" fill="#000000" fill-rule="evenodd" fill-opacity="1" /><path clip-path="url(#clip840)" d="M 0 0 M130.26 758.533 Q126.649 758.533 124.82 762.098 Q123.015 765.64 123.015 772.769 Q123.015 779.876 124.82 783.441 Q126.649 786.982 130.26 786.982 Q133.895 786.982 135.7 783.441 Q137.529 779.876 137.529 772.769 Q137.529 765.64 135.7 762.098 Q133.895 758.533 130.26 758.533 M130.26 754.83 Q136.07 754.83 139.126 759.436 Q142.205 764.019 142.205 772.769 Q142.205 781.496 139.126 786.103 Q136.07 790.686 130.26 790.686 Q124.45 790.686 121.371 786.103 Q118.316 781.496 118.316 772.769 Q118.316 764.019 121.371 759.436 Q124.45 754.83 130.26 754.83 Z" fill="#000000" fill-rule="evenodd" fill-opacity="1" /><path clip-path="url(#clip840)" d="M 0 0 M76.6495 434.381 Q73.5013 434.381 71.6495 436.533 Q69.8208 438.686 69.8208 442.436 Q69.8208 446.163 71.6495 448.339 Q73.5013 450.492 76.6495 450.492 Q79.7976 450.492 81.6263 448.339 Q83.4781 446.163 83.4781 442.436 Q83.4781 438.686 81.6263 436.533 Q79.7976 434.381 76.6495 434.381 M85.9318 419.728 L85.9318 423.987 Q84.1726 423.154 82.367 422.714 Q80.5846 422.274 78.8254 422.274 Q74.1958 422.274 71.7421 425.399 Q69.3115 428.524 68.9643 434.844 Q70.33 432.83 72.3902 431.765 Q74.4504 430.677 76.9272 430.677 Q82.1355 430.677 85.1448 433.848 Q88.1772 436.996 88.1772 442.436 Q88.1772 447.76 85.029 450.978 Q81.8809 454.195 76.6495 454.195 Q70.6541 454.195 67.4828 449.612 Q64.3116 445.006 64.3116 436.279 Q64.3116 428.084 68.2004 423.223 Q72.0893 418.339 78.6402 418.339 Q80.3994 418.339 82.1818 418.686 Q83.9874 419.033 85.9318 419.728 Z" fill="#000000" fill-rule="evenodd" fill-opacity="1" /><path clip-path="url(#clip840)" d="M 0 0 M103.247 422.043 Q99.6354 422.043 97.8068 425.607 Q96.0012 429.149 96.0012 436.279 Q96.0012 443.385 97.8068 446.95 Q99.6354 450.492 103.247 450.492 Q106.881 450.492 108.686 446.95 Q110.515 443.385 110.515 436.279 Q110.515 429.149 108.686 425.607 Q106.881 422.043 103.247 422.043 M103.247 418.339 Q109.057 418.339 112.112 422.945 Q115.191 427.529 115.191 436.279 Q115.191 445.006 112.112 449.612 Q109.057 454.195 103.247 454.195 Q97.4364 454.195 94.3577 449.612 Q91.3022 445.006 91.3022 436.279 Q91.3022 427.529 94.3577 422.945 Q97.4364 418.339 103.247 418.339 Z" fill="#000000" fill-rule="evenodd" fill-opacity="1" /><path clip-path="url(#clip840)" d="M 0 0 M130.26 422.043 Q126.649 422.043 124.82 425.607 Q123.015 429.149 123.015 436.279 Q123.015 443.385 124.82 446.95 Q126.649 450.492 130.26 450.492 Q133.895 450.492 135.7 446.95 Q137.529 443.385 137.529 436.279 Q137.529 429.149 135.7 425.607 Q133.895 422.043 130.26 422.043 M130.26 418.339 Q136.07 418.339 139.126 422.945 Q142.205 427.529 142.205 436.279 Q142.205 445.006 139.126 449.612 Q136.07 454.195 130.26 454.195 Q124.45 454.195 121.371 449.612 Q118.316 445.006 118.316 436.279 Q118.316 427.529 121.371 422.945 Q124.45 418.339 130.26 418.339 Z" fill="#000000" fill-rule="evenodd" fill-opacity="1" /><path clip-path="url(#clip840)" d="M 0 0 M76.3254 100.621 Q72.9921 100.621 71.0708 102.404 Q69.1726 104.186 69.1726 107.311 Q69.1726 110.436 71.0708 112.219 Q72.9921 114.001 76.3254 114.001 Q79.6587 114.001 81.58 112.219 Q83.5013 110.413 83.5013 107.311 Q83.5013 104.186 81.58 102.404 Q79.6819 100.621 76.3254 100.621 M71.6495 98.6308 Q68.6402 97.89 66.9504 95.8299 Q65.2838 93.7697 65.2838 90.8067 Q65.2838 86.6632 68.2236 84.2558 Q71.1865 81.8484 76.3254 81.8484 Q81.4874 81.8484 84.4272 84.2558 Q87.367 86.6632 87.367 90.8067 Q87.367 93.7697 85.6772 95.8299 Q84.0105 97.89 81.0244 98.6308 Q84.404 99.4178 86.279 101.709 Q88.1772 104.001 88.1772 107.311 Q88.1772 112.334 85.0985 115.02 Q82.0429 117.705 76.3254 117.705 Q70.6078 117.705 67.5291 115.02 Q64.4736 112.334 64.4736 107.311 Q64.4736 104.001 66.3717 101.709 Q68.2699 99.4178 71.6495 98.6308 M69.9365 91.2465 Q69.9365 93.9317 71.6032 95.4363 Q73.293 96.941 76.3254 96.941 Q79.3346 96.941 81.0244 95.4363 Q82.7374 93.9317 82.7374 91.2465 Q82.7374 88.5614 81.0244 87.0568 Q79.3346 85.5521 76.3254 85.5521 Q73.293 85.5521 71.6032 87.0568 Q69.9365 88.5614 69.9365 91.2465 Z" fill="#000000" fill-rule="evenodd" fill-opacity="1" /><path clip-path="url(#clip840)" d="M 0 0 M103.247 85.5521 Q99.6354 85.5521 97.8068 89.1169 Q96.0012 92.6586 96.0012 99.7882 Q96.0012 106.895 97.8068 110.459 Q99.6354 114.001 103.247 114.001 Q106.881 114.001 108.686 110.459 Q110.515 106.895 110.515 99.7882 Q110.515 92.6586 108.686 89.1169 Q106.881 85.5521 103.247 85.5521 M103.247 81.8484 Q109.057 81.8484 112.112 86.4549 Q115.191 91.0382 115.191 99.7882 Q115.191 108.515 112.112 113.121 Q109.057 117.705 103.247 117.705 Q97.4364 117.705 94.3577 113.121 Q91.3022 108.515 91.3022 99.7882 Q91.3022 91.0382 94.3577 86.4549 Q97.4364 81.8484 103.247 81.8484 Z" fill="#000000" fill-rule="evenodd" fill-opacity="1" /><path clip-path="url(#clip840)" d="M 0 0 M130.26 85.5521 Q126.649 85.5521 124.82 89.1169 Q123.015 92.6586 123.015 99.7882 Q123.015 106.895 124.82 110.459 Q126.649 114.001 130.26 114.001 Q133.895 114.001 135.7 110.459 Q137.529 106.895 137.529 99.7882 Q137.529 92.6586 135.7 89.1169 Q133.895 85.5521 130.26 85.5521 M130.26 81.8484 Q136.07 81.8484 139.126 86.4549 Q142.205 91.0382 142.205 99.7882 Q142.205 108.515 139.126 113.121 Q136.07 117.705 130.26 117.705 Q124.45 117.705 121.371 113.121 Q118.316 108.515 118.316 99.7882 Q118.316 91.0382 121.371 86.4549 Q124.45 81.8484 130.26 81.8484 Z" fill="#000000" fill-rule="evenodd" fill-opacity="1" /><path clip-path="url(#clip842)" d="
M286.469 1444.03 L286.469 1445.72 L313.878 1445.72 L313.878 1444.03 L286.469 1444.03 L286.469 1444.03  Z
  " fill="#009af9" fill-rule="evenodd" fill-opacity="1"/>
<polyline clip-path="url(#clip842)" style="stroke:#000000; stroke-width:4; stroke-opacity:1; fill:none" points="
  286.469,1444.03 286.469,1445.72 313.878,1445.72 313.878,1444.03 286.469,1444.03 
  "/>
<path clip-path="url(#clip842)" d="
M313.878 1445.72 L313.878 1445.72 L341.286 1445.72 L341.286 1445.72 L313.878 1445.72 L313.878 1445.72  Z
  " fill="#009af9" fill-rule="evenodd" fill-opacity="1"/>
<polyline clip-path="url(#clip842)" style="stroke:#000000; stroke-width:4; stroke-opacity:1; fill:none" points="
  313.878,1445.72 313.878,1445.72 341.286,1445.72 313.878,1445.72 
  "/>
<path clip-path="url(#clip842)" d="
M341.286 1444.03 L341.286 1445.72 L368.695 1445.72 L368.695 1444.03 L341.286 1444.03 L341.286 1444.03  Z
  " fill="#009af9" fill-rule="evenodd" fill-opacity="1"/>
<polyline clip-path="url(#clip842)" style="stroke:#000000; stroke-width:4; stroke-opacity:1; fill:none" points="
  341.286,1444.03 341.286,1445.72 368.695,1445.72 368.695,1444.03 341.286,1444.03 
  "/>
<path clip-path="url(#clip842)" d="
M368.695 1442.35 L368.695 1445.72 L396.104 1445.72 L396.104 1442.35 L368.695 1442.35 L368.695 1442.35  Z
  " fill="#009af9" fill-rule="evenodd" fill-opacity="1"/>
<polyline clip-path="url(#clip842)" style="stroke:#000000; stroke-width:4; stroke-opacity:1; fill:none" points="
  368.695,1442.35 368.695,1445.72 396.104,1445.72 396.104,1442.35 368.695,1442.35 
  "/>
<path clip-path="url(#clip842)" d="
M396.104 1442.35 L396.104 1445.72 L423.513 1445.72 L423.513 1442.35 L396.104 1442.35 L396.104 1442.35  Z
  " fill="#009af9" fill-rule="evenodd" fill-opacity="1"/>
<polyline clip-path="url(#clip842)" style="stroke:#000000; stroke-width:4; stroke-opacity:1; fill:none" points="
  396.104,1442.35 396.104,1445.72 423.513,1445.72 423.513,1442.35 396.104,1442.35 
  "/>
<path clip-path="url(#clip842)" d="
M423.513 1442.35 L423.513 1445.72 L450.922 1445.72 L450.922 1442.35 L423.513 1442.35 L423.513 1442.35  Z
  " fill="#009af9" fill-rule="evenodd" fill-opacity="1"/>
<polyline clip-path="url(#clip842)" style="stroke:#000000; stroke-width:4; stroke-opacity:1; fill:none" points="
  423.513,1442.35 423.513,1445.72 450.922,1445.72 450.922,1442.35 423.513,1442.35 
  "/>
<path clip-path="url(#clip842)" d="
M450.922 1442.35 L450.922 1445.72 L478.33 1445.72 L478.33 1442.35 L450.922 1442.35 L450.922 1442.35  Z
  " fill="#009af9" fill-rule="evenodd" fill-opacity="1"/>
<polyline clip-path="url(#clip842)" style="stroke:#000000; stroke-width:4; stroke-opacity:1; fill:none" points="
  450.922,1442.35 450.922,1445.72 478.33,1445.72 478.33,1442.35 450.922,1442.35 
  "/>
<path clip-path="url(#clip842)" d="
M478.33 1440.67 L478.33 1445.72 L505.739 1445.72 L505.739 1440.67 L478.33 1440.67 L478.33 1440.67  Z
  " fill="#009af9" fill-rule="evenodd" fill-opacity="1"/>
<polyline clip-path="url(#clip842)" style="stroke:#000000; stroke-width:4; stroke-opacity:1; fill:none" points="
  478.33,1440.67 478.33,1445.72 505.739,1445.72 505.739,1440.67 478.33,1440.67 
  "/>
<path clip-path="url(#clip842)" d="
M505.739 1437.3 L505.739 1445.72 L533.148 1445.72 L533.148 1437.3 L505.739 1437.3 L505.739 1437.3  Z
  " fill="#009af9" fill-rule="evenodd" fill-opacity="1"/>
<polyline clip-path="url(#clip842)" style="stroke:#000000; stroke-width:4; stroke-opacity:1; fill:none" points="
  505.739,1437.3 505.739,1445.72 533.148,1445.72 533.148,1437.3 505.739,1437.3 
  "/>
<path clip-path="url(#clip842)" d="
M533.148 1437.3 L533.148 1445.72 L560.557 1445.72 L560.557 1437.3 L533.148 1437.3 L533.148 1437.3  Z
  " fill="#009af9" fill-rule="evenodd" fill-opacity="1"/>
<polyline clip-path="url(#clip842)" style="stroke:#000000; stroke-width:4; stroke-opacity:1; fill:none" points="
  533.148,1437.3 533.148,1445.72 560.557,1445.72 560.557,1437.3 533.148,1437.3 
  "/>
<path clip-path="url(#clip842)" d="
M560.557 1427.21 L560.557 1445.72 L587.965 1445.72 L587.965 1427.21 L560.557 1427.21 L560.557 1427.21  Z
  " fill="#009af9" fill-rule="evenodd" fill-opacity="1"/>
<polyline clip-path="url(#clip842)" style="stroke:#000000; stroke-width:4; stroke-opacity:1; fill:none" points="
  560.557,1427.21 560.557,1445.72 587.965,1445.72 587.965,1427.21 560.557,1427.21 
  "/>
<path clip-path="url(#clip842)" d="
M587.965 1422.16 L587.965 1445.72 L615.374 1445.72 L615.374 1422.16 L587.965 1422.16 L587.965 1422.16  Z
  " fill="#009af9" fill-rule="evenodd" fill-opacity="1"/>
<polyline clip-path="url(#clip842)" style="stroke:#000000; stroke-width:4; stroke-opacity:1; fill:none" points="
  587.965,1422.16 587.965,1445.72 615.374,1445.72 615.374,1422.16 587.965,1422.16 
  "/>
<path clip-path="url(#clip842)" d="
M615.374 1430.57 L615.374 1445.72 L642.783 1445.72 L642.783 1430.57 L615.374 1430.57 L615.374 1430.57  Z
  " fill="#009af9" fill-rule="evenodd" fill-opacity="1"/>
<polyline clip-path="url(#clip842)" style="stroke:#000000; stroke-width:4; stroke-opacity:1; fill:none" points="
  615.374,1430.57 615.374,1445.72 642.783,1445.72 642.783,1430.57 615.374,1430.57 
  "/>
<path clip-path="url(#clip842)" d="
M642.783 1415.43 L642.783 1445.72 L670.192 1445.72 L670.192 1415.43 L642.783 1415.43 L642.783 1415.43  Z
  " fill="#009af9" fill-rule="evenodd" fill-opacity="1"/>
<polyline clip-path="url(#clip842)" style="stroke:#000000; stroke-width:4; stroke-opacity:1; fill:none" points="
  642.783,1415.43 642.783,1445.72 670.192,1445.72 670.192,1415.43 642.783,1415.43 
  "/>
<path clip-path="url(#clip842)" d="
M670.192 1420.48 L670.192 1445.72 L697.6 1445.72 L697.6 1420.48 L670.192 1420.48 L670.192 1420.48  Z
  " fill="#009af9" fill-rule="evenodd" fill-opacity="1"/>
<polyline clip-path="url(#clip842)" style="stroke:#000000; stroke-width:4; stroke-opacity:1; fill:none" points="
  670.192,1420.48 670.192,1445.72 697.6,1445.72 697.6,1420.48 670.192,1420.48 
  "/>
<path clip-path="url(#clip842)" d="
M697.6 1413.75 L697.6 1445.72 L725.009 1445.72 L725.009 1413.75 L697.6 1413.75 L697.6 1413.75  Z
  " fill="#009af9" fill-rule="evenodd" fill-opacity="1"/>
<polyline clip-path="url(#clip842)" style="stroke:#000000; stroke-width:4; stroke-opacity:1; fill:none" points="
  697.6,1413.75 697.6,1445.72 725.009,1445.72 725.009,1413.75 697.6,1413.75 
  "/>
<path clip-path="url(#clip842)" d="
M725.009 1400.29 L725.009 1445.72 L752.418 1445.72 L752.418 1400.29 L725.009 1400.29 L725.009 1400.29  Z
  " fill="#009af9" fill-rule="evenodd" fill-opacity="1"/>
<polyline clip-path="url(#clip842)" style="stroke:#000000; stroke-width:4; stroke-opacity:1; fill:none" points="
  725.009,1400.29 725.009,1445.72 752.418,1445.72 752.418,1400.29 725.009,1400.29 
  "/>
<path clip-path="url(#clip842)" d="
M752.418 1388.51 L752.418 1445.72 L779.827 1445.72 L779.827 1388.51 L752.418 1388.51 L752.418 1388.51  Z
  " fill="#009af9" fill-rule="evenodd" fill-opacity="1"/>
<polyline clip-path="url(#clip842)" style="stroke:#000000; stroke-width:4; stroke-opacity:1; fill:none" points="
  752.418,1388.51 752.418,1445.72 779.827,1445.72 779.827,1388.51 752.418,1388.51 
  "/>
<path clip-path="url(#clip842)" d="
M779.827 1373.37 L779.827 1445.72 L807.236 1445.72 L807.236 1373.37 L779.827 1373.37 L779.827 1373.37  Z
  " fill="#009af9" fill-rule="evenodd" fill-opacity="1"/>
<polyline clip-path="url(#clip842)" style="stroke:#000000; stroke-width:4; stroke-opacity:1; fill:none" points="
  779.827,1373.37 779.827,1445.72 807.236,1445.72 807.236,1373.37 779.827,1373.37 
  "/>
<path clip-path="url(#clip842)" d="
M807.236 1388.51 L807.236 1445.72 L834.644 1445.72 L834.644 1388.51 L807.236 1388.51 L807.236 1388.51  Z
  " fill="#009af9" fill-rule="evenodd" fill-opacity="1"/>
<polyline clip-path="url(#clip842)" style="stroke:#000000; stroke-width:4; stroke-opacity:1; fill:none" points="
  807.236,1388.51 807.236,1445.72 834.644,1445.72 834.644,1388.51 807.236,1388.51 
  "/>
<path clip-path="url(#clip842)" d="
M834.644 1351.5 L834.644 1445.72 L862.053 1445.72 L862.053 1351.5 L834.644 1351.5 L834.644 1351.5  Z
  " fill="#009af9" fill-rule="evenodd" fill-opacity="1"/>
<polyline clip-path="url(#clip842)" style="stroke:#000000; stroke-width:4; stroke-opacity:1; fill:none" points="
  834.644,1351.5 834.644,1445.72 862.053,1445.72 862.053,1351.5 834.644,1351.5 
  "/>
<path clip-path="url(#clip842)" d="
M862.053 1338.04 L862.053 1445.72 L889.462 1445.72 L889.462 1338.04 L862.053 1338.04 L862.053 1338.04  Z
  " fill="#009af9" fill-rule="evenodd" fill-opacity="1"/>
<polyline clip-path="url(#clip842)" style="stroke:#000000; stroke-width:4; stroke-opacity:1; fill:none" points="
  862.053,1338.04 862.053,1445.72 889.462,1445.72 889.462,1338.04 862.053,1338.04 
  "/>
<path clip-path="url(#clip842)" d="
M889.462 1346.45 L889.462 1445.72 L916.871 1445.72 L916.871 1346.45 L889.462 1346.45 L889.462 1346.45  Z
  " fill="#009af9" fill-rule="evenodd" fill-opacity="1"/>
<polyline clip-path="url(#clip842)" style="stroke:#000000; stroke-width:4; stroke-opacity:1; fill:none" points="
  889.462,1346.45 889.462,1445.72 916.871,1445.72 916.871,1346.45 889.462,1346.45 
  "/>
<path clip-path="url(#clip842)" d="
M916.871 1332.99 L916.871 1445.72 L944.279 1445.72 L944.279 1332.99 L916.871 1332.99 L916.871 1332.99  Z
  " fill="#009af9" fill-rule="evenodd" fill-opacity="1"/>
<polyline clip-path="url(#clip842)" style="stroke:#000000; stroke-width:4; stroke-opacity:1; fill:none" points="
  916.871,1332.99 916.871,1445.72 944.279,1445.72 944.279,1332.99 916.871,1332.99 
  "/>
<path clip-path="url(#clip842)" d="
M944.279 1331.31 L944.279 1445.72 L971.688 1445.72 L971.688 1331.31 L944.279 1331.31 L944.279 1331.31  Z
  " fill="#009af9" fill-rule="evenodd" fill-opacity="1"/>
<polyline clip-path="url(#clip842)" style="stroke:#000000; stroke-width:4; stroke-opacity:1; fill:none" points="
  944.279,1331.31 944.279,1445.72 971.688,1445.72 971.688,1331.31 944.279,1331.31 
  "/>
<path clip-path="url(#clip842)" d="
M971.688 1329.63 L971.688 1445.72 L999.097 1445.72 L999.097 1329.63 L971.688 1329.63 L971.688 1329.63  Z
  " fill="#009af9" fill-rule="evenodd" fill-opacity="1"/>
<polyline clip-path="url(#clip842)" style="stroke:#000000; stroke-width:4; stroke-opacity:1; fill:none" points="
  971.688,1329.63 971.688,1445.72 999.097,1445.72 999.097,1329.63 971.688,1329.63 
  "/>
<path clip-path="url(#clip842)" d="
M999.097 1302.71 L999.097 1445.72 L1026.51 1445.72 L1026.51 1302.71 L999.097 1302.71 L999.097 1302.71  Z
  " fill="#009af9" fill-rule="evenodd" fill-opacity="1"/>
<polyline clip-path="url(#clip842)" style="stroke:#000000; stroke-width:4; stroke-opacity:1; fill:none" points="
  999.097,1302.71 999.097,1445.72 1026.51,1445.72 1026.51,1302.71 999.097,1302.71 
  "/>
<path clip-path="url(#clip842)" d="
M1026.51 1307.75 L1026.51 1445.72 L1053.91 1445.72 L1053.91 1307.75 L1026.51 1307.75 L1026.51 1307.75  Z
  " fill="#009af9" fill-rule="evenodd" fill-opacity="1"/>
<polyline clip-path="url(#clip842)" style="stroke:#000000; stroke-width:4; stroke-opacity:1; fill:none" points="
  1026.51,1307.75 1026.51,1445.72 1053.91,1445.72 1053.91,1307.75 1026.51,1307.75 
  "/>
<path clip-path="url(#clip842)" d="
M1053.91 1274.11 L1053.91 1445.72 L1081.32 1445.72 L1081.32 1274.11 L1053.91 1274.11 L1053.91 1274.11  Z
  " fill="#009af9" fill-rule="evenodd" fill-opacity="1"/>
<polyline clip-path="url(#clip842)" style="stroke:#000000; stroke-width:4; stroke-opacity:1; fill:none" points="
  1053.91,1274.11 1053.91,1445.72 1081.32,1445.72 1081.32,1274.11 1053.91,1274.11 
  "/>
<path clip-path="url(#clip842)" d="
M1081.32 1267.38 L1081.32 1445.72 L1108.73 1445.72 L1108.73 1267.38 L1081.32 1267.38 L1081.32 1267.38  Z
  " fill="#009af9" fill-rule="evenodd" fill-opacity="1"/>
<polyline clip-path="url(#clip842)" style="stroke:#000000; stroke-width:4; stroke-opacity:1; fill:none" points="
  1081.32,1267.38 1081.32,1445.72 1108.73,1445.72 1108.73,1267.38 1081.32,1267.38 
  "/>
<path clip-path="url(#clip842)" d="
M1108.73 1228.68 L1108.73 1445.72 L1136.14 1445.72 L1136.14 1228.68 L1108.73 1228.68 L1108.73 1228.68  Z
  " fill="#009af9" fill-rule="evenodd" fill-opacity="1"/>
<polyline clip-path="url(#clip842)" style="stroke:#000000; stroke-width:4; stroke-opacity:1; fill:none" points="
  1108.73,1228.68 1108.73,1445.72 1136.14,1445.72 1136.14,1228.68 1108.73,1228.68 
  "/>
<path clip-path="url(#clip842)" d="
M1136.14 1211.85 L1136.14 1445.72 L1163.55 1445.72 L1163.55 1211.85 L1136.14 1211.85 L1136.14 1211.85  Z
  " fill="#009af9" fill-rule="evenodd" fill-opacity="1"/>
<polyline clip-path="url(#clip842)" style="stroke:#000000; stroke-width:4; stroke-opacity:1; fill:none" points="
  1136.14,1211.85 1136.14,1445.72 1163.55,1445.72 1163.55,1211.85 1136.14,1211.85 
  "/>
<path clip-path="url(#clip842)" d="
M1163.55 1215.22 L1163.55 1445.72 L1190.96 1445.72 L1190.96 1215.22 L1163.55 1215.22 L1163.55 1215.22  Z
  " fill="#009af9" fill-rule="evenodd" fill-opacity="1"/>
<polyline clip-path="url(#clip842)" style="stroke:#000000; stroke-width:4; stroke-opacity:1; fill:none" points="
  1163.55,1215.22 1163.55,1445.72 1190.96,1445.72 1190.96,1215.22 1163.55,1215.22 
  "/>
<path clip-path="url(#clip842)" d="
M1190.96 1258.96 L1190.96 1445.72 L1218.37 1445.72 L1218.37 1258.96 L1190.96 1258.96 L1190.96 1258.96  Z
  " fill="#009af9" fill-rule="evenodd" fill-opacity="1"/>
<polyline clip-path="url(#clip842)" style="stroke:#000000; stroke-width:4; stroke-opacity:1; fill:none" points="
  1190.96,1258.96 1190.96,1445.72 1218.37,1445.72 1218.37,1258.96 1190.96,1258.96 
  "/>
<path clip-path="url(#clip842)" d="
M1218.37 1248.87 L1218.37 1445.72 L1245.78 1445.72 L1245.78 1248.87 L1218.37 1248.87 L1218.37 1248.87  Z
  " fill="#009af9" fill-rule="evenodd" fill-opacity="1"/>
<polyline clip-path="url(#clip842)" style="stroke:#000000; stroke-width:4; stroke-opacity:1; fill:none" points="
  1218.37,1248.87 1218.37,1445.72 1245.78,1445.72 1245.78,1248.87 1218.37,1248.87 
  "/>
<path clip-path="url(#clip842)" d="
M1245.78 1225.31 L1245.78 1445.72 L1273.18 1445.72 L1273.18 1225.31 L1245.78 1225.31 L1245.78 1225.31  Z
  " fill="#009af9" fill-rule="evenodd" fill-opacity="1"/>
<polyline clip-path="url(#clip842)" style="stroke:#000000; stroke-width:4; stroke-opacity:1; fill:none" points="
  1245.78,1225.31 1245.78,1445.72 1273.18,1445.72 1273.18,1225.31 1245.78,1225.31 
  "/>
<path clip-path="url(#clip842)" d="
M1273.18 1184.94 L1273.18 1445.72 L1300.59 1445.72 L1300.59 1184.94 L1273.18 1184.94 L1273.18 1184.94  Z
  " fill="#009af9" fill-rule="evenodd" fill-opacity="1"/>
<polyline clip-path="url(#clip842)" style="stroke:#000000; stroke-width:4; stroke-opacity:1; fill:none" points="
  1273.18,1184.94 1273.18,1445.72 1300.59,1445.72 1300.59,1184.94 1273.18,1184.94 
  "/>
<path clip-path="url(#clip842)" d="
M1300.59 803.019 L1300.59 1445.72 L1328 1445.72 L1328 803.019 L1300.59 803.019 L1300.59 803.019  Z
  " fill="#009af9" fill-rule="evenodd" fill-opacity="1"/>
<polyline clip-path="url(#clip842)" style="stroke:#000000; stroke-width:4; stroke-opacity:1; fill:none" points="
  1300.59,803.019 1300.59,1445.72 1328,1445.72 1328,803.019 1300.59,803.019 
  "/>
<path clip-path="url(#clip842)" d="
M1328 87.9763 L1328 1445.72 L1355.41 1445.72 L1355.41 87.9763 L1328 87.9763 L1328 87.9763  Z
  " fill="#009af9" fill-rule="evenodd" fill-opacity="1"/>
<polyline clip-path="url(#clip842)" style="stroke:#000000; stroke-width:4; stroke-opacity:1; fill:none" points="
  1328,87.9763 1328,1445.72 1355.41,1445.72 1355.41,87.9763 1328,87.9763 
  "/>
<path clip-path="url(#clip842)" d="
M1355.41 130.038 L1355.41 1445.72 L1382.82 1445.72 L1382.82 130.038 L1355.41 130.038 L1355.41 130.038  Z
  " fill="#009af9" fill-rule="evenodd" fill-opacity="1"/>
<polyline clip-path="url(#clip842)" style="stroke:#000000; stroke-width:4; stroke-opacity:1; fill:none" points="
  1355.41,130.038 1355.41,1445.72 1382.82,1445.72 1382.82,130.038 1355.41,130.038 
  "/>
<path clip-path="url(#clip842)" d="
M1382.82 829.938 L1382.82 1445.72 L1410.23 1445.72 L1410.23 829.938 L1382.82 829.938 L1382.82 829.938  Z
  " fill="#009af9" fill-rule="evenodd" fill-opacity="1"/>
<polyline clip-path="url(#clip842)" style="stroke:#000000; stroke-width:4; stroke-opacity:1; fill:none" points="
  1382.82,829.938 1382.82,1445.72 1410.23,1445.72 1410.23,829.938 1382.82,829.938 
  "/>
<path clip-path="url(#clip842)" d="
M1410.23 1225.31 L1410.23 1445.72 L1437.64 1445.72 L1437.64 1225.31 L1410.23 1225.31 L1410.23 1225.31  Z
  " fill="#009af9" fill-rule="evenodd" fill-opacity="1"/>
<polyline clip-path="url(#clip842)" style="stroke:#000000; stroke-width:4; stroke-opacity:1; fill:none" points="
  1410.23,1225.31 1410.23,1445.72 1437.64,1445.72 1437.64,1225.31 1410.23,1225.31 
  "/>
<path clip-path="url(#clip842)" d="
M1437.64 1316.17 L1437.64 1445.72 L1465.05 1445.72 L1465.05 1316.17 L1437.64 1316.17 L1437.64 1316.17  Z
  " fill="#009af9" fill-rule="evenodd" fill-opacity="1"/>
<polyline clip-path="url(#clip842)" style="stroke:#000000; stroke-width:4; stroke-opacity:1; fill:none" points="
  1437.64,1316.17 1437.64,1445.72 1465.05,1445.72 1465.05,1316.17 1437.64,1316.17 
  "/>
<path clip-path="url(#clip842)" d="
M1465.05 1331.31 L1465.05 1445.72 L1492.45 1445.72 L1492.45 1331.31 L1465.05 1331.31 L1465.05 1331.31  Z
  " fill="#009af9" fill-rule="evenodd" fill-opacity="1"/>
<polyline clip-path="url(#clip842)" style="stroke:#000000; stroke-width:4; stroke-opacity:1; fill:none" points="
  1465.05,1331.31 1465.05,1445.72 1492.45,1445.72 1492.45,1331.31 1465.05,1331.31 
  "/>
<path clip-path="url(#clip842)" d="
M1492.45 1358.23 L1492.45 1445.72 L1519.86 1445.72 L1519.86 1358.23 L1492.45 1358.23 L1492.45 1358.23  Z
  " fill="#009af9" fill-rule="evenodd" fill-opacity="1"/>
<polyline clip-path="url(#clip842)" style="stroke:#000000; stroke-width:4; stroke-opacity:1; fill:none" points="
  1492.45,1358.23 1492.45,1445.72 1519.86,1445.72 1519.86,1358.23 1492.45,1358.23 
  "/>
<path clip-path="url(#clip842)" d="
M1519.86 1353.18 L1519.86 1445.72 L1547.27 1445.72 L1547.27 1353.18 L1519.86 1353.18 L1519.86 1353.18  Z
  " fill="#009af9" fill-rule="evenodd" fill-opacity="1"/>
<polyline clip-path="url(#clip842)" style="stroke:#000000; stroke-width:4; stroke-opacity:1; fill:none" points="
  1519.86,1353.18 1519.86,1445.72 1547.27,1445.72 1547.27,1353.18 1519.86,1353.18 
  "/>
<path clip-path="url(#clip842)" d="
M1547.27 1334.67 L1547.27 1445.72 L1574.68 1445.72 L1574.68 1334.67 L1547.27 1334.67 L1547.27 1334.67  Z
  " fill="#009af9" fill-rule="evenodd" fill-opacity="1"/>
<polyline clip-path="url(#clip842)" style="stroke:#000000; stroke-width:4; stroke-opacity:1; fill:none" points="
  1547.27,1334.67 1547.27,1445.72 1574.68,1445.72 1574.68,1334.67 1547.27,1334.67 
  "/>
<path clip-path="url(#clip842)" d="
M1574.68 1354.86 L1574.68 1445.72 L1602.09 1445.72 L1602.09 1354.86 L1574.68 1354.86 L1574.68 1354.86  Z
  " fill="#009af9" fill-rule="evenodd" fill-opacity="1"/>
<polyline clip-path="url(#clip842)" style="stroke:#000000; stroke-width:4; stroke-opacity:1; fill:none" points="
  1574.68,1354.86 1574.68,1445.72 1602.09,1445.72 1602.09,1354.86 1574.68,1354.86 
  "/>
<path clip-path="url(#clip842)" d="
M1602.09 1370.01 L1602.09 1445.72 L1629.5 1445.72 L1629.5 1370.01 L1602.09 1370.01 L1602.09 1370.01  Z
  " fill="#009af9" fill-rule="evenodd" fill-opacity="1"/>
<polyline clip-path="url(#clip842)" style="stroke:#000000; stroke-width:4; stroke-opacity:1; fill:none" points="
  1602.09,1370.01 1602.09,1445.72 1629.5,1445.72 1629.5,1370.01 1602.09,1370.01 
  "/>
<path clip-path="url(#clip842)" d="
M1629.5 1370.01 L1629.5 1445.72 L1656.91 1445.72 L1656.91 1370.01 L1629.5 1370.01 L1629.5 1370.01  Z
  " fill="#009af9" fill-rule="evenodd" fill-opacity="1"/>
<polyline clip-path="url(#clip842)" style="stroke:#000000; stroke-width:4; stroke-opacity:1; fill:none" points="
  1629.5,1370.01 1629.5,1445.72 1656.91,1445.72 1656.91,1370.01 1629.5,1370.01 
  "/>
<path clip-path="url(#clip842)" d="
M1656.91 1388.51 L1656.91 1445.72 L1684.32 1445.72 L1684.32 1388.51 L1656.91 1388.51 L1656.91 1388.51  Z
  " fill="#009af9" fill-rule="evenodd" fill-opacity="1"/>
<polyline clip-path="url(#clip842)" style="stroke:#000000; stroke-width:4; stroke-opacity:1; fill:none" points="
  1656.91,1388.51 1656.91,1445.72 1684.32,1445.72 1684.32,1388.51 1656.91,1388.51 
  "/>
<path clip-path="url(#clip842)" d="
M1684.32 1415.43 L1684.32 1445.72 L1711.73 1445.72 L1711.73 1415.43 L1684.32 1415.43 L1684.32 1415.43  Z
  " fill="#009af9" fill-rule="evenodd" fill-opacity="1"/>
<polyline clip-path="url(#clip842)" style="stroke:#000000; stroke-width:4; stroke-opacity:1; fill:none" points="
  1684.32,1415.43 1684.32,1445.72 1711.73,1445.72 1711.73,1415.43 1684.32,1415.43 
  "/>
<path clip-path="url(#clip842)" d="
M1711.73 1423.84 L1711.73 1445.72 L1739.13 1445.72 L1739.13 1423.84 L1711.73 1423.84 L1711.73 1423.84  Z
  " fill="#009af9" fill-rule="evenodd" fill-opacity="1"/>
<polyline clip-path="url(#clip842)" style="stroke:#000000; stroke-width:4; stroke-opacity:1; fill:none" points="
  1711.73,1423.84 1711.73,1445.72 1739.13,1445.72 1739.13,1423.84 1711.73,1423.84 
  "/>
<path clip-path="url(#clip842)" d="
M1739.13 1418.8 L1739.13 1445.72 L1766.54 1445.72 L1766.54 1418.8 L1739.13 1418.8 L1739.13 1418.8  Z
  " fill="#009af9" fill-rule="evenodd" fill-opacity="1"/>
<polyline clip-path="url(#clip842)" style="stroke:#000000; stroke-width:4; stroke-opacity:1; fill:none" points="
  1739.13,1418.8 1739.13,1445.72 1766.54,1445.72 1766.54,1418.8 1739.13,1418.8 
  "/>
<path clip-path="url(#clip842)" d="
M1766.54 1408.7 L1766.54 1445.72 L1793.95 1445.72 L1793.95 1408.7 L1766.54 1408.7 L1766.54 1408.7  Z
  " fill="#009af9" fill-rule="evenodd" fill-opacity="1"/>
<polyline clip-path="url(#clip842)" style="stroke:#000000; stroke-width:4; stroke-opacity:1; fill:none" points="
  1766.54,1408.7 1766.54,1445.72 1793.95,1445.72 1793.95,1408.7 1766.54,1408.7 
  "/>
<path clip-path="url(#clip842)" d="
M1793.95 1433.94 L1793.95 1445.72 L1821.36 1445.72 L1821.36 1433.94 L1793.95 1433.94 L1793.95 1433.94  Z
  " fill="#009af9" fill-rule="evenodd" fill-opacity="1"/>
<polyline clip-path="url(#clip842)" style="stroke:#000000; stroke-width:4; stroke-opacity:1; fill:none" points="
  1793.95,1433.94 1793.95,1445.72 1821.36,1445.72 1821.36,1433.94 1793.95,1433.94 
  "/>
<path clip-path="url(#clip842)" d="
M1821.36 1425.53 L1821.36 1445.72 L1848.77 1445.72 L1848.77 1425.53 L1821.36 1425.53 L1821.36 1425.53  Z
  " fill="#009af9" fill-rule="evenodd" fill-opacity="1"/>
<polyline clip-path="url(#clip842)" style="stroke:#000000; stroke-width:4; stroke-opacity:1; fill:none" points="
  1821.36,1425.53 1821.36,1445.72 1848.77,1445.72 1848.77,1425.53 1821.36,1425.53 
  "/>
<path clip-path="url(#clip842)" d="
M1848.77 1430.57 L1848.77 1445.72 L1876.18 1445.72 L1876.18 1430.57 L1848.77 1430.57 L1848.77 1430.57  Z
  " fill="#009af9" fill-rule="evenodd" fill-opacity="1"/>
<polyline clip-path="url(#clip842)" style="stroke:#000000; stroke-width:4; stroke-opacity:1; fill:none" points="
  1848.77,1430.57 1848.77,1445.72 1876.18,1445.72 1876.18,1430.57 1848.77,1430.57 
  "/>
<path clip-path="url(#clip842)" d="
M1876.18 1435.62 L1876.18 1445.72 L1903.59 1445.72 L1903.59 1435.62 L1876.18 1435.62 L1876.18 1435.62  Z
  " fill="#009af9" fill-rule="evenodd" fill-opacity="1"/>
<polyline clip-path="url(#clip842)" style="stroke:#000000; stroke-width:4; stroke-opacity:1; fill:none" points="
  1876.18,1435.62 1876.18,1445.72 1903.59,1445.72 1903.59,1435.62 1876.18,1435.62 
  "/>
<path clip-path="url(#clip842)" d="
M1903.59 1440.67 L1903.59 1445.72 L1931 1445.72 L1931 1440.67 L1903.59 1440.67 L1903.59 1440.67  Z
  " fill="#009af9" fill-rule="evenodd" fill-opacity="1"/>
<polyline clip-path="url(#clip842)" style="stroke:#000000; stroke-width:4; stroke-opacity:1; fill:none" points="
  1903.59,1440.67 1903.59,1445.72 1931,1445.72 1931,1440.67 1903.59,1440.67 
  "/>
<path clip-path="url(#clip842)" d="
M1931 1442.35 L1931 1445.72 L1958.4 1445.72 L1958.4 1442.35 L1931 1442.35 L1931 1442.35  Z
  " fill="#009af9" fill-rule="evenodd" fill-opacity="1"/>
<polyline clip-path="url(#clip842)" style="stroke:#000000; stroke-width:4; stroke-opacity:1; fill:none" points="
  1931,1442.35 1931,1445.72 1958.4,1445.72 1958.4,1442.35 1931,1442.35 
  "/>
<path clip-path="url(#clip842)" d="
M1958.4 1442.35 L1958.4 1445.72 L1985.81 1445.72 L1985.81 1442.35 L1958.4 1442.35 L1958.4 1442.35  Z
  " fill="#009af9" fill-rule="evenodd" fill-opacity="1"/>
<polyline clip-path="url(#clip842)" style="stroke:#000000; stroke-width:4; stroke-opacity:1; fill:none" points="
  1958.4,1442.35 1958.4,1445.72 1985.81,1445.72 1985.81,1442.35 1958.4,1442.35 
  "/>
<path clip-path="url(#clip842)" d="
M1985.81 1444.03 L1985.81 1445.72 L2013.22 1445.72 L2013.22 1444.03 L1985.81 1444.03 L1985.81 1444.03  Z
  " fill="#009af9" fill-rule="evenodd" fill-opacity="1"/>
<polyline clip-path="url(#clip842)" style="stroke:#000000; stroke-width:4; stroke-opacity:1; fill:none" points="
  1985.81,1444.03 1985.81,1445.72 2013.22,1445.72 2013.22,1444.03 1985.81,1444.03 
  "/>
<path clip-path="url(#clip842)" d="
M2013.22 1445.72 L2013.22 1445.72 L2040.63 1445.72 L2040.63 1445.72 L2013.22 1445.72 L2013.22 1445.72  Z
  " fill="#009af9" fill-rule="evenodd" fill-opacity="1"/>
<polyline clip-path="url(#clip842)" style="stroke:#000000; stroke-width:4; stroke-opacity:1; fill:none" points="
  2013.22,1445.72 2013.22,1445.72 2040.63,1445.72 2013.22,1445.72 
  "/>
<path clip-path="url(#clip842)" d="
M2040.63 1445.72 L2040.63 1445.72 L2068.04 1445.72 L2068.04 1445.72 L2040.63 1445.72 L2040.63 1445.72  Z
  " fill="#009af9" fill-rule="evenodd" fill-opacity="1"/>
<polyline clip-path="url(#clip842)" style="stroke:#000000; stroke-width:4; stroke-opacity:1; fill:none" points="
  2040.63,1445.72 2040.63,1445.72 2068.04,1445.72 2040.63,1445.72 
  "/>
<path clip-path="url(#clip842)" d="
M2068.04 1445.72 L2068.04 1445.72 L2095.45 1445.72 L2095.45 1445.72 L2068.04 1445.72 L2068.04 1445.72  Z
  " fill="#009af9" fill-rule="evenodd" fill-opacity="1"/>
<polyline clip-path="url(#clip842)" style="stroke:#000000; stroke-width:4; stroke-opacity:1; fill:none" points="
  2068.04,1445.72 2068.04,1445.72 2095.45,1445.72 2068.04,1445.72 
  "/>
<path clip-path="url(#clip842)" d="
M2095.45 1445.72 L2095.45 1445.72 L2122.86 1445.72 L2122.86 1445.72 L2095.45 1445.72 L2095.45 1445.72  Z
  " fill="#009af9" fill-rule="evenodd" fill-opacity="1"/>
<polyline clip-path="url(#clip842)" style="stroke:#000000; stroke-width:4; stroke-opacity:1; fill:none" points="
  2095.45,1445.72 2095.45,1445.72 2122.86,1445.72 2095.45,1445.72 
  "/>
<path clip-path="url(#clip842)" d="
M2122.86 1445.72 L2122.86 1445.72 L2150.27 1445.72 L2150.27 1445.72 L2122.86 1445.72 L2122.86 1445.72  Z
  " fill="#009af9" fill-rule="evenodd" fill-opacity="1"/>
<polyline clip-path="url(#clip842)" style="stroke:#000000; stroke-width:4; stroke-opacity:1; fill:none" points="
  2122.86,1445.72 2122.86,1445.72 2150.27,1445.72 2122.86,1445.72 
  "/>
<path clip-path="url(#clip842)" d="
M2150.27 1445.72 L2150.27 1445.72 L2177.67 1445.72 L2177.67 1445.72 L2150.27 1445.72 L2150.27 1445.72  Z
  " fill="#009af9" fill-rule="evenodd" fill-opacity="1"/>
<polyline clip-path="url(#clip842)" style="stroke:#000000; stroke-width:4; stroke-opacity:1; fill:none" points="
  2150.27,1445.72 2150.27,1445.72 2177.67,1445.72 2150.27,1445.72 
  "/>
<path clip-path="url(#clip842)" d="
M2177.67 1445.72 L2177.67 1445.72 L2205.08 1445.72 L2205.08 1445.72 L2177.67 1445.72 L2177.67 1445.72  Z
  " fill="#009af9" fill-rule="evenodd" fill-opacity="1"/>
<polyline clip-path="url(#clip842)" style="stroke:#000000; stroke-width:4; stroke-opacity:1; fill:none" points="
  2177.67,1445.72 2177.67,1445.72 2205.08,1445.72 2177.67,1445.72 
  "/>
<path clip-path="url(#clip842)" d="
M2205.08 1444.03 L2205.08 1445.72 L2232.49 1445.72 L2232.49 1444.03 L2205.08 1444.03 L2205.08 1444.03  Z
  " fill="#009af9" fill-rule="evenodd" fill-opacity="1"/>
<polyline clip-path="url(#clip842)" style="stroke:#000000; stroke-width:4; stroke-opacity:1; fill:none" points="
  2205.08,1444.03 2205.08,1445.72 2232.49,1445.72 2232.49,1444.03 2205.08,1444.03 
  "/>
<path clip-path="url(#clip840)" d="
M1985.9 216.178 L2279.87 216.178 L2279.87 95.2176 L1985.9 95.2176  Z
  " fill="#ffffff" fill-rule="evenodd" fill-opacity="1"/>
<polyline clip-path="url(#clip840)" style="stroke:#000000; stroke-width:4; stroke-opacity:1; fill:none" points="
  1985.9,216.178 2279.87,216.178 2279.87,95.2176 1985.9,95.2176 1985.9,216.178 
  "/>
<path clip-path="url(#clip840)" d="
M2010.2 179.89 L2155.97 179.89 L2155.97 131.506 L2010.2 131.506 L2010.2 179.89  Z
  " fill="#009af9" fill-rule="evenodd" fill-opacity="1"/>
<polyline clip-path="url(#clip840)" style="stroke:#000000; stroke-width:4; stroke-opacity:1; fill:none" points="
  2010.2,179.89 2155.97,179.89 2155.97,131.506 2010.2,131.506 2010.2,179.89 
  "/>
<path clip-path="url(#clip840)" d="M 0 0 M2194.11 175.385 Q2192.3 180.015 2190.59 181.427 Q2188.87 182.839 2186 182.839 L2182.6 182.839 L2182.6 179.274 L2185.1 179.274 Q2186.86 179.274 2187.83 178.44 Q2188.8 177.607 2189.98 174.505 L2190.75 172.561 L2180.26 147.052 L2184.78 147.052 L2192.88 167.329 L2200.98 147.052 L2205.49 147.052 L2194.11 175.385 Z" fill="#000000" fill-rule="evenodd" fill-opacity="1" /><path clip-path="url(#clip840)" d="M 0 0 M2211.37 169.042 L2219.01 169.042 L2219.01 142.677 L2210.7 144.343 L2210.7 140.084 L2218.97 138.418 L2223.64 138.418 L2223.64 169.042 L2231.28 169.042 L2231.28 172.978 L2211.37 172.978 L2211.37 169.042 Z" fill="#000000" fill-rule="evenodd" fill-opacity="1" /></svg>
