<?xml version="1.0" encoding="utf-8"?>
<svg xmlns="http://www.w3.org/2000/svg" xmlns:xlink="http://www.w3.org/1999/xlink" width="600" height="400" viewBox="0 0 2400 1600">
<defs>
  <clipPath id="clip260">
    <rect x="0" y="0" width="2400" height="1600"/>
  </clipPath>
</defs>
<path clip-path="url(#clip260)" d="
M0 1600 L2400 1600 L2400 0 L0 0  Z
  " fill="#ffffff" fill-rule="evenodd" fill-opacity="1"/>
<defs>
  <clipPath id="clip261">
    <rect x="480" y="0" width="1681" height="1600"/>
  </clipPath>
</defs>
<path clip-path="url(#clip260)" d="
M166.205 1486.45 L2352.76 1486.45 L2352.76 47.2441 L166.205 47.2441  Z
  " fill="#ffffff" fill-rule="evenodd" fill-opacity="1"/>
<defs>
  <clipPath id="clip262">
    <rect x="166" y="47" width="2188" height="1440"/>
  </clipPath>
</defs>
<polyline clip-path="url(#clip262)" style="stroke:#000000; stroke-width:2; stroke-opacity:0.1; fill:none" points="
  346.531,1486.45 346.531,47.2441 
  "/>
<polyline clip-path="url(#clip262)" style="stroke:#000000; stroke-width:2; stroke-opacity:0.1; fill:none" points="
  646.843,1486.45 646.843,47.2441 
  "/>
<polyline clip-path="url(#clip262)" style="stroke:#000000; stroke-width:2; stroke-opacity:0.1; fill:none" points="
  947.156,1486.45 947.156,47.2441 
  "/>
<polyline clip-path="url(#clip262)" style="stroke:#000000; stroke-width:2; stroke-opacity:0.1; fill:none" points="
  1247.47,1486.45 1247.47,47.2441 
  "/>
<polyline clip-path="url(#clip262)" style="stroke:#000000; stroke-width:2; stroke-opacity:0.1; fill:none" points="
  1547.78,1486.45 1547.78,47.2441 
  "/>
<polyline clip-path="url(#clip262)" style="stroke:#000000; stroke-width:2; stroke-opacity:0.1; fill:none" points="
  1848.09,1486.45 1848.09,47.2441 
  "/>
<polyline clip-path="url(#clip262)" style="stroke:#000000; stroke-width:2; stroke-opacity:0.1; fill:none" points="
  2148.4,1486.45 2148.4,47.2441 
  "/>
<polyline clip-path="url(#clip262)" style="stroke:#000000; stroke-width:2; stroke-opacity:0.1; fill:none" points="
  166.205,1445.72 2352.76,1445.72 
  "/>
<polyline clip-path="url(#clip262)" style="stroke:#000000; stroke-width:2; stroke-opacity:0.1; fill:none" points="
  166.205,1109.23 2352.76,1109.23 
  "/>
<polyline clip-path="url(#clip262)" style="stroke:#000000; stroke-width:2; stroke-opacity:0.1; fill:none" points="
  166.205,772.735 2352.76,772.735 
  "/>
<polyline clip-path="url(#clip262)" style="stroke:#000000; stroke-width:2; stroke-opacity:0.1; fill:none" points="
  166.205,436.244 2352.76,436.244 
  "/>
<polyline clip-path="url(#clip262)" style="stroke:#000000; stroke-width:2; stroke-opacity:0.1; fill:none" points="
  166.205,99.7534 2352.76,99.7534 
  "/>
<polyline clip-path="url(#clip260)" style="stroke:#000000; stroke-width:4; stroke-opacity:1; fill:none" points="
  166.205,1486.45 2352.76,1486.45 
  "/>
<polyline clip-path="url(#clip260)" style="stroke:#000000; stroke-width:4; stroke-opacity:1; fill:none" points="
  166.205,1486.45 166.205,47.2441 
  "/>
<polyline clip-path="url(#clip260)" style="stroke:#000000; stroke-width:4; stroke-opacity:1; fill:none" points="
  346.531,1486.45 346.531,1469.18 
  "/>
<polyline clip-path="url(#clip260)" style="stroke:#000000; stroke-width:4; stroke-opacity:1; fill:none" points="
  646.843,1486.45 646.843,1469.18 
  "/>
<polyline clip-path="url(#clip260)" style="stroke:#000000; stroke-width:4; stroke-opacity:1; fill:none" points="
  947.156,1486.45 947.156,1469.18 
  "/>
<polyline clip-path="url(#clip260)" style="stroke:#000000; stroke-width:4; stroke-opacity:1; fill:none" points="
  1247.47,1486.45 1247.47,1469.18 
  "/>
<polyline clip-path="url(#clip260)" style="stroke:#000000; stroke-width:4; stroke-opacity:1; fill:none" points="
  1547.78,1486.45 1547.78,1469.18 
  "/>
<polyline clip-path="url(#clip260)" style="stroke:#000000; stroke-width:4; stroke-opacity:1; fill:none" points="
  1848.09,1486.45 1848.09,1469.18 
  "/>
<polyline clip-path="url(#clip260)" style="stroke:#000000; stroke-width:4; stroke-opacity:1; fill:none" points="
  2148.4,1486.45 2148.4,1469.18 
  "/>
<polyline clip-path="url(#clip260)" style="stroke:#000000; stroke-width:4; stroke-opacity:1; fill:none" points="
  166.205,1445.72 192.443,1445.72 
  "/>
<polyline clip-path="url(#clip260)" style="stroke:#000000; stroke-width:4; stroke-opacity:1; fill:none" points="
  166.205,1109.23 192.443,1109.23 
  "/>
<polyline clip-path="url(#clip260)" style="stroke:#000000; stroke-width:4; stroke-opacity:1; fill:none" points="
  166.205,772.735 192.443,772.735 
  "/>
<polyline clip-path="url(#clip260)" style="stroke:#000000; stroke-width:4; stroke-opacity:1; fill:none" points="
  166.205,436.244 192.443,436.244 
  "/>
<polyline clip-path="url(#clip260)" style="stroke:#000000; stroke-width:4; stroke-opacity:1; fill:none" points="
  166.205,99.7534 192.443,99.7534 
  "/>
<path clip-path="url(#clip260)" d="M 0 0 M300.652 1523.09 L330.328 1523.09 L330.328 1527.03 L300.652 1527.03 L300.652 1523.09 Z" fill="#000000" fill-rule="evenodd" fill-opacity="1" /><path clip-path="url(#clip260)" d="M 0 0 M334.217 1505.36 L356.439 1505.36 L356.439 1507.35 L343.892 1539.92 L339.008 1539.92 L350.814 1509.3 L334.217 1509.3 L334.217 1505.36 Z" fill="#000000" fill-rule="evenodd" fill-opacity="1" /><path clip-path="url(#clip260)" d="M 0 0 M361.508 1534.04 L366.392 1534.04 L366.392 1539.92 L361.508 1539.92 L361.508 1534.04 Z" fill="#000000" fill-rule="evenodd" fill-opacity="1" /><path clip-path="url(#clip260)" d="M 0 0 M371.508 1505.36 L389.864 1505.36 L389.864 1509.3 L375.79 1509.3 L375.79 1517.77 Q376.809 1517.42 377.827 1517.26 Q378.846 1517.07 379.864 1517.07 Q385.651 1517.07 389.031 1520.24 Q392.411 1523.42 392.411 1528.83 Q392.411 1534.41 388.938 1537.51 Q385.466 1540.59 379.147 1540.59 Q376.971 1540.59 374.702 1540.22 Q372.457 1539.85 370.05 1539.11 L370.05 1534.41 Q372.133 1535.54 374.355 1536.1 Q376.577 1536.66 379.054 1536.66 Q383.059 1536.66 385.397 1534.55 Q387.735 1532.44 387.735 1528.83 Q387.735 1525.22 385.397 1523.11 Q383.059 1521.01 379.054 1521.01 Q377.179 1521.01 375.304 1521.42 Q373.452 1521.84 371.508 1522.72 L371.508 1505.36 Z" fill="#000000" fill-rule="evenodd" fill-opacity="1" /><path clip-path="url(#clip260)" d="M 0 0 M600.513 1523.09 L630.188 1523.09 L630.188 1527.03 L600.513 1527.03 L600.513 1523.09 Z" fill="#000000" fill-rule="evenodd" fill-opacity="1" /><path clip-path="url(#clip260)" d="M 0 0 M635.304 1505.36 L653.661 1505.36 L653.661 1509.3 L639.587 1509.3 L639.587 1517.77 Q640.605 1517.42 641.624 1517.26 Q642.642 1517.07 643.661 1517.07 Q649.448 1517.07 652.827 1520.24 Q656.207 1523.42 656.207 1528.83 Q656.207 1534.41 652.735 1537.51 Q649.262 1540.59 642.943 1540.59 Q640.767 1540.59 638.499 1540.22 Q636.253 1539.85 633.846 1539.11 L633.846 1534.41 Q635.929 1535.54 638.151 1536.1 Q640.374 1536.66 642.85 1536.66 Q646.855 1536.66 649.193 1534.55 Q651.531 1532.44 651.531 1528.83 Q651.531 1525.22 649.193 1523.11 Q646.855 1521.01 642.85 1521.01 Q640.975 1521.01 639.1 1521.42 Q637.249 1521.84 635.304 1522.72 L635.304 1505.36 Z" fill="#000000" fill-rule="evenodd" fill-opacity="1" /><path clip-path="url(#clip260)" d="M 0 0 M661.276 1534.04 L666.16 1534.04 L666.16 1539.92 L661.276 1539.92 L661.276 1534.04 Z" fill="#000000" fill-rule="evenodd" fill-opacity="1" /><path clip-path="url(#clip260)" d="M 0 0 M681.23 1508.44 Q677.619 1508.44 675.79 1512 Q673.985 1515.55 673.985 1522.67 Q673.985 1529.78 675.79 1533.35 Q677.619 1536.89 681.23 1536.89 Q684.864 1536.89 686.67 1533.35 Q688.498 1529.78 688.498 1522.67 Q688.498 1515.55 686.67 1512 Q684.864 1508.44 681.23 1508.44 M681.23 1504.73 Q687.04 1504.73 690.096 1509.34 Q693.174 1513.92 693.174 1522.67 Q693.174 1531.4 690.096 1536.01 Q687.04 1540.59 681.23 1540.59 Q675.42 1540.59 672.341 1536.01 Q669.285 1531.4 669.285 1522.67 Q669.285 1513.92 672.341 1509.34 Q675.42 1504.73 681.23 1504.73 Z" fill="#000000" fill-rule="evenodd" fill-opacity="1" /><path clip-path="url(#clip260)" d="M 0 0 M901.623 1523.09 L931.299 1523.09 L931.299 1527.03 L901.623 1527.03 L901.623 1523.09 Z" fill="#000000" fill-rule="evenodd" fill-opacity="1" /><path clip-path="url(#clip260)" d="M 0 0 M940.396 1535.98 L956.716 1535.98 L956.716 1539.92 L934.771 1539.92 L934.771 1535.98 Q937.433 1533.23 942.017 1528.6 Q946.623 1523.95 947.804 1522.61 Q950.049 1520.08 950.929 1518.35 Q951.832 1516.59 951.832 1514.9 Q951.832 1512.14 949.887 1510.41 Q947.966 1508.67 944.864 1508.67 Q942.665 1508.67 940.211 1509.43 Q937.781 1510.2 935.003 1511.75 L935.003 1507.03 Q937.827 1505.89 940.281 1505.31 Q942.734 1504.73 944.771 1504.73 Q950.142 1504.73 953.336 1507.42 Q956.531 1510.11 956.531 1514.6 Q956.531 1516.73 955.72 1518.65 Q954.933 1520.54 952.827 1523.14 Q952.248 1523.81 949.146 1527.03 Q946.045 1530.22 940.396 1535.98 Z" fill="#000000" fill-rule="evenodd" fill-opacity="1" /><path clip-path="url(#clip260)" d="M 0 0 M961.785 1534.04 L966.669 1534.04 L966.669 1539.92 L961.785 1539.92 L961.785 1534.04 Z" fill="#000000" fill-rule="evenodd" fill-opacity="1" /><path clip-path="url(#clip260)" d="M 0 0 M971.785 1505.36 L990.142 1505.36 L990.142 1509.3 L976.068 1509.3 L976.068 1517.77 Q977.086 1517.42 978.105 1517.26 Q979.123 1517.07 980.142 1517.07 Q985.929 1517.07 989.308 1520.24 Q992.688 1523.42 992.688 1528.83 Q992.688 1534.41 989.216 1537.51 Q985.743 1540.59 979.424 1540.59 Q977.248 1540.59 974.98 1540.22 Q972.734 1539.85 970.327 1539.11 L970.327 1534.41 Q972.41 1535.54 974.632 1536.1 Q976.855 1536.66 979.331 1536.66 Q983.336 1536.66 985.674 1534.55 Q988.012 1532.44 988.012 1528.83 Q988.012 1525.22 985.674 1523.11 Q983.336 1521.01 979.331 1521.01 Q977.456 1521.01 975.581 1521.42 Q973.73 1521.84 971.785 1522.72 L971.785 1505.36 Z" fill="#000000" fill-rule="evenodd" fill-opacity="1" /><path clip-path="url(#clip260)" d="M 0 0 M1228.98 1508.44 Q1225.37 1508.44 1223.54 1512 Q1221.74 1515.55 1221.74 1522.67 Q1221.74 1529.78 1223.54 1533.35 Q1225.37 1536.89 1228.98 1536.89 Q1232.62 1536.89 1234.42 1533.35 Q1236.25 1529.78 1236.25 1522.67 Q1236.25 1515.55 1234.42 1512 Q1232.62 1508.44 1228.98 1508.44 M1228.98 1504.73 Q1234.79 1504.73 1237.85 1509.34 Q1240.93 1513.92 1240.93 1522.67 Q1240.93 1531.4 1237.85 1536.01 Q1234.79 1540.59 1228.98 1540.59 Q1223.17 1540.59 1220.1 1536.01 Q1217.04 1531.4 1217.04 1522.67 Q1217.04 1513.92 1220.1 1509.34 Q1223.17 1504.73 1228.98 1504.73 Z" fill="#000000" fill-rule="evenodd" fill-opacity="1" /><path clip-path="url(#clip260)" d="M 0 0 M1246 1534.04 L1250.88 1534.04 L1250.88 1539.92 L1246 1539.92 L1246 1534.04 Z" fill="#000000" fill-rule="evenodd" fill-opacity="1" /><path clip-path="url(#clip260)" d="M 0 0 M1265.95 1508.44 Q1262.34 1508.44 1260.51 1512 Q1258.71 1515.55 1258.71 1522.67 Q1258.71 1529.78 1260.51 1533.35 Q1262.34 1536.89 1265.95 1536.89 Q1269.59 1536.89 1271.39 1533.35 Q1273.22 1529.78 1273.22 1522.67 Q1273.22 1515.55 1271.39 1512 Q1269.59 1508.44 1265.95 1508.44 M1265.95 1504.73 Q1271.76 1504.73 1274.82 1509.34 Q1277.9 1513.92 1277.9 1522.67 Q1277.9 1531.4 1274.82 1536.01 Q1271.76 1540.59 1265.95 1540.59 Q1260.14 1540.59 1257.06 1536.01 Q1254.01 1531.4 1254.01 1522.67 Q1254.01 1513.92 1257.06 1509.34 Q1260.14 1504.73 1265.95 1504.73 Z" fill="#000000" fill-rule="evenodd" fill-opacity="1" /><path clip-path="url(#clip260)" d="M 0 0 M1524.45 1535.98 L1540.77 1535.98 L1540.77 1539.92 L1518.82 1539.92 L1518.82 1535.98 Q1521.48 1533.23 1526.07 1528.6 Q1530.67 1523.95 1531.85 1522.61 Q1534.1 1520.08 1534.98 1518.35 Q1535.88 1516.59 1535.88 1514.9 Q1535.88 1512.14 1533.94 1510.41 Q1532.02 1508.67 1528.91 1508.67 Q1526.72 1508.67 1524.26 1509.43 Q1521.83 1510.2 1519.05 1511.75 L1519.05 1507.03 Q1521.88 1505.89 1524.33 1505.31 Q1526.78 1504.73 1528.82 1504.73 Q1534.19 1504.73 1537.39 1507.42 Q1540.58 1510.11 1540.58 1514.6 Q1540.58 1516.73 1539.77 1518.65 Q1538.98 1520.54 1536.88 1523.14 Q1536.3 1523.81 1533.2 1527.03 Q1530.09 1530.22 1524.45 1535.98 Z" fill="#000000" fill-rule="evenodd" fill-opacity="1" /><path clip-path="url(#clip260)" d="M 0 0 M1545.84 1534.04 L1550.72 1534.04 L1550.72 1539.92 L1545.84 1539.92 L1545.84 1534.04 Z" fill="#000000" fill-rule="evenodd" fill-opacity="1" /><path clip-path="url(#clip260)" d="M 0 0 M1555.84 1505.36 L1574.19 1505.36 L1574.19 1509.3 L1560.12 1509.3 L1560.12 1517.77 Q1561.14 1517.42 1562.15 1517.26 Q1563.17 1517.07 1564.19 1517.07 Q1569.98 1517.07 1573.36 1520.24 Q1576.74 1523.42 1576.74 1528.83 Q1576.74 1534.41 1573.27 1537.51 Q1569.79 1540.59 1563.47 1540.59 Q1561.3 1540.59 1559.03 1540.22 Q1556.78 1539.85 1554.38 1539.11 L1554.38 1534.41 Q1556.46 1535.54 1558.68 1536.1 Q1560.9 1536.66 1563.38 1536.66 Q1567.39 1536.66 1569.72 1534.55 Q1572.06 1532.44 1572.06 1528.83 Q1572.06 1525.22 1569.72 1523.11 Q1567.39 1521.01 1563.38 1521.01 Q1561.51 1521.01 1559.63 1521.42 Q1557.78 1521.84 1555.84 1522.72 L1555.84 1505.36 Z" fill="#000000" fill-rule="evenodd" fill-opacity="1" /><path clip-path="url(#clip260)" d="M 0 0 M1819.89 1505.36 L1838.24 1505.36 L1838.24 1509.3 L1824.17 1509.3 L1824.17 1517.77 Q1825.19 1517.42 1826.21 1517.26 Q1827.22 1517.07 1828.24 1517.07 Q1834.03 1517.07 1837.41 1520.24 Q1840.79 1523.42 1840.79 1528.83 Q1840.79 1534.41 1837.32 1537.51 Q1833.84 1540.59 1827.53 1540.59 Q1825.35 1540.59 1823.08 1540.22 Q1820.84 1539.85 1818.43 1539.11 L1818.43 1534.41 Q1820.51 1535.54 1822.73 1536.1 Q1824.96 1536.66 1827.43 1536.66 Q1831.44 1536.66 1833.78 1534.55 Q1836.11 1532.44 1836.11 1528.83 Q1836.11 1525.22 1833.78 1523.11 Q1831.44 1521.01 1827.43 1521.01 Q1825.56 1521.01 1823.68 1521.42 Q1821.83 1521.84 1819.89 1522.72 L1819.89 1505.36 Z" fill="#000000" fill-rule="evenodd" fill-opacity="1" /><path clip-path="url(#clip260)" d="M 0 0 M1845.86 1534.04 L1850.74 1534.04 L1850.74 1539.92 L1845.86 1539.92 L1845.86 1534.04 Z" fill="#000000" fill-rule="evenodd" fill-opacity="1" /><path clip-path="url(#clip260)" d="M 0 0 M1865.81 1508.44 Q1862.2 1508.44 1860.37 1512 Q1858.57 1515.55 1858.57 1522.67 Q1858.57 1529.78 1860.37 1533.35 Q1862.2 1536.89 1865.81 1536.89 Q1869.45 1536.89 1871.25 1533.35 Q1873.08 1529.78 1873.08 1522.67 Q1873.08 1515.55 1871.25 1512 Q1869.45 1508.44 1865.81 1508.44 M1865.81 1504.73 Q1871.62 1504.73 1874.68 1509.34 Q1877.76 1513.92 1877.76 1522.67 Q1877.76 1531.4 1874.68 1536.01 Q1871.62 1540.59 1865.81 1540.59 Q1860 1540.59 1856.92 1536.01 Q1853.87 1531.4 1853.87 1522.67 Q1853.87 1513.92 1856.92 1509.34 Q1860 1504.73 1865.81 1504.73 Z" fill="#000000" fill-rule="evenodd" fill-opacity="1" /><path clip-path="url(#clip260)" d="M 0 0 M2119.31 1505.36 L2141.53 1505.36 L2141.53 1507.35 L2128.98 1539.92 L2124.1 1539.92 L2135.9 1509.3 L2119.31 1509.3 L2119.31 1505.36 Z" fill="#000000" fill-rule="evenodd" fill-opacity="1" /><path clip-path="url(#clip260)" d="M 0 0 M2146.6 1534.04 L2151.48 1534.04 L2151.48 1539.92 L2146.6 1539.92 L2146.6 1534.04 Z" fill="#000000" fill-rule="evenodd" fill-opacity="1" /><path clip-path="url(#clip260)" d="M 0 0 M2156.6 1505.36 L2174.96 1505.36 L2174.96 1509.3 L2160.88 1509.3 L2160.88 1517.77 Q2161.9 1517.42 2162.92 1517.26 Q2163.94 1517.07 2164.96 1517.07 Q2170.74 1517.07 2174.12 1520.24 Q2177.5 1523.42 2177.5 1528.83 Q2177.5 1534.41 2174.03 1537.51 Q2170.56 1540.59 2164.24 1540.59 Q2162.06 1540.59 2159.79 1540.22 Q2157.55 1539.85 2155.14 1539.11 L2155.14 1534.41 Q2157.22 1535.54 2159.45 1536.1 Q2161.67 1536.66 2164.14 1536.66 Q2168.15 1536.66 2170.49 1534.55 Q2172.83 1532.44 2172.83 1528.83 Q2172.83 1525.22 2170.49 1523.11 Q2168.15 1521.01 2164.14 1521.01 Q2162.27 1521.01 2160.39 1521.42 Q2158.54 1521.84 2156.6 1522.72 L2156.6 1505.36 Z" fill="#000000" fill-rule="evenodd" fill-opacity="1" /><path clip-path="url(#clip260)" d="M 0 0 M130.26 1431.51 Q126.649 1431.51 124.82 1435.08 Q123.015 1438.62 123.015 1445.75 Q123.015 1452.86 124.82 1456.42 Q126.649 1459.96 130.26 1459.96 Q133.895 1459.96 135.7 1456.42 Q137.529 1452.86 137.529 1445.75 Q137.529 1438.62 135.7 1435.08 Q133.895 1431.51 130.26 1431.51 M130.26 1427.81 Q136.07 1427.81 139.126 1432.42 Q142.205 1437 142.205 1445.75 Q142.205 1454.48 139.126 1459.08 Q136.07 1463.67 130.26 1463.67 Q124.45 1463.67 121.371 1459.08 Q118.316 1454.48 118.316 1445.75 Q118.316 1437 121.371 1432.42 Q124.45 1427.81 130.26 1427.81 Z" fill="#000000" fill-rule="evenodd" fill-opacity="1" /><path clip-path="url(#clip260)" d="M 0 0 M71.8578 1122.57 L88.1772 1122.57 L88.1772 1126.51 L66.2328 1126.51 L66.2328 1122.57 Q68.8949 1119.82 73.4782 1115.19 Q78.0846 1110.53 79.2652 1109.19 Q81.5105 1106.67 82.3902 1104.93 Q83.2929 1103.17 83.2929 1101.48 Q83.2929 1098.73 81.3485 1096.99 Q79.4272 1095.26 76.3254 1095.26 Q74.1263 1095.26 71.6726 1096.02 Q69.2421 1096.78 66.4643 1098.33 L66.4643 1093.61 Q69.2884 1092.48 71.7421 1091.9 Q74.1958 1091.32 76.2328 1091.32 Q81.6031 1091.32 84.7976 1094.01 Q87.992 1096.69 87.992 1101.18 Q87.992 1103.31 87.1818 1105.23 Q86.3948 1107.13 84.2883 1109.72 Q83.7096 1110.39 80.6078 1113.61 Q77.5059 1116.81 71.8578 1122.57 Z" fill="#000000" fill-rule="evenodd" fill-opacity="1" /><path clip-path="url(#clip260)" d="M 0 0 M103.247 1095.02 Q99.6354 1095.02 97.8068 1098.59 Q96.0012 1102.13 96.0012 1109.26 Q96.0012 1116.37 97.8068 1119.93 Q99.6354 1123.47 103.247 1123.47 Q106.881 1123.47 108.686 1119.93 Q110.515 1116.37 110.515 1109.26 Q110.515 1102.13 108.686 1098.59 Q106.881 1095.02 103.247 1095.02 M103.247 1091.32 Q109.057 1091.32 112.112 1095.93 Q115.191 1100.51 115.191 1109.26 Q115.191 1117.99 112.112 1122.59 Q109.057 1127.18 103.247 1127.18 Q97.4364 1127.18 94.3577 1122.59 Q91.3022 1117.99 91.3022 1109.26 Q91.3022 1100.51 94.3577 1095.93 Q97.4364 1091.32 103.247 1091.32 Z" fill="#000000" fill-rule="evenodd" fill-opacity="1" /><path clip-path="url(#clip260)" d="M 0 0 M130.26 1095.02 Q126.649 1095.02 124.82 1098.59 Q123.015 1102.13 123.015 1109.26 Q123.015 1116.37 124.82 1119.93 Q126.649 1123.47 130.26 1123.47 Q133.895 1123.47 135.7 1119.93 Q137.529 1116.37 137.529 1109.26 Q137.529 1102.13 135.7 1098.59 Q133.895 1095.02 130.26 1095.02 M130.26 1091.32 Q136.07 1091.32 139.126 1095.93 Q142.205 1100.51 142.205 1109.26 Q142.205 1117.99 139.126 1122.59 Q136.07 1127.18 130.26 1127.18 Q124.45 1127.18 121.371 1122.59 Q118.316 1117.99 118.316 1109.26 Q118.316 1100.51 121.371 1095.93 Q124.45 1091.32 130.26 1091.32 Z" fill="#000000" fill-rule="evenodd" fill-opacity="1" /><path clip-path="url(#clip260)" d="M 0 0 M78.5939 759.529 L66.7884 777.978 L78.5939 777.978 L78.5939 759.529 M77.367 755.455 L83.2466 755.455 L83.2466 777.978 L88.1772 777.978 L88.1772 781.866 L83.2466 781.866 L83.2466 790.015 L78.5939 790.015 L78.5939 781.866 L62.9921 781.866 L62.9921 777.353 L77.367 755.455 Z" fill="#000000" fill-rule="evenodd" fill-opacity="1" /><path clip-path="url(#clip260)" d="M 0 0 M103.247 758.533 Q99.6354 758.533 97.8068 762.098 Q96.0012 765.64 96.0012 772.769 Q96.0012 779.876 97.8068 783.441 Q99.6354 786.982 103.247 786.982 Q106.881 786.982 108.686 783.441 Q110.515 779.876 110.515 772.769 Q110.515 765.64 108.686 762.098 Q106.881 758.533 103.247 758.533 M103.247 754.83 Q109.057 754.83 112.112 759.436 Q115.191 764.019 115.191 772.769 Q115.191 781.496 112.112 786.103 Q109.057 790.686 103.247 790.686 Q97.4364 790.686 94.3577 786.103 Q91.3022 781.496 91.3022 772.769 Q91.3022 764.019 94.3577 759.436 Q97.4364 754.83 103.247 754.83 Z" fill="#000000" fill-rule="evenodd" fill-opacity="1" /><path clip-path="url(#clip260)" d="M 0 0 M130.26 758.533 Q126.649 758.533 124.82 762.098 Q123.015 765.64 123.015 772.769 Q123.015 779.876 124.82 783.441 Q126.649 786.982 130.26 786.982 Q133.895 786.982 135.7 783.441 Q137.529 779.876 137.529 772.769 Q137.529 765.64 135.7 762.098 Q133.895 758.533 130.26 758.533 M130.26 754.83 Q136.07 754.83 139.126 759.436 Q142.205 764.019 142.205 772.769 Q142.205 781.496 139.126 786.103 Q136.07 790.686 130.26 790.686 Q124.45 790.686 121.371 786.103 Q118.316 781.496 118.316 772.769 Q118.316 764.019 121.371 759.436 Q124.45 754.83 130.26 754.83 Z" fill="#000000" fill-rule="evenodd" fill-opacity="1" /><path clip-path="url(#clip260)" d="M 0 0 M76.6495 434.381 Q73.5013 434.381 71.6495 436.533 Q69.8208 438.686 69.8208 442.436 Q69.8208 446.163 71.6495 448.339 Q73.5013 450.492 76.6495 450.492 Q79.7976 450.492 81.6263 448.339 Q83.4781 446.163 83.4781 442.436 Q83.4781 438.686 81.6263 436.533 Q79.7976 434.381 76.6495 434.381 M85.9318 419.728 L85.9318 423.987 Q84.1726 423.154 82.367 422.714 Q80.5846 422.274 78.8254 422.274 Q74.1958 422.274 71.7421 425.399 Q69.3115 428.524 68.9643 434.844 Q70.33 432.83 72.3902 431.765 Q74.4504 430.677 76.9272 430.677 Q82.1355 430.677 85.1448 433.848 Q88.1772 436.996 88.1772 442.436 Q88.1772 447.76 85.029 450.978 Q81.8809 454.195 76.6495 454.195 Q70.6541 454.195 67.4828 449.612 Q64.3116 445.006 64.3116 436.279 Q64.3116 428.084 68.2004 423.223 Q72.0893 418.339 78.6402 418.339 Q80.3994 418.339 82.1818 418.686 Q83.9874 419.033 85.9318 419.728 Z" fill="#000000" fill-rule="evenodd" fill-opacity="1" /><path clip-path="url(#clip260)" d="M 0 0 M103.247 422.043 Q99.6354 422.043 97.8068 425.607 Q96.0012 429.149 96.0012 436.279 Q96.0012 443.385 97.8068 446.95 Q99.6354 450.492 103.247 450.492 Q106.881 450.492 108.686 446.95 Q110.515 443.385 110.515 436.279 Q110.515 429.149 108.686 425.607 Q106.881 422.043 103.247 422.043 M103.247 418.339 Q109.057 418.339 112.112 422.945 Q115.191 427.529 115.191 436.279 Q115.191 445.006 112.112 449.612 Q109.057 454.195 103.247 454.195 Q97.4364 454.195 94.3577 449.612 Q91.3022 445.006 91.3022 436.279 Q91.3022 427.529 94.3577 422.945 Q97.4364 418.339 103.247 418.339 Z" fill="#000000" fill-rule="evenodd" fill-opacity="1" /><path clip-path="url(#clip260)" d="M 0 0 M130.26 422.043 Q126.649 422.043 124.82 425.607 Q123.015 429.149 123.015 436.279 Q123.015 443.385 124.82 446.95 Q126.649 450.492 130.26 450.492 Q133.895 450.492 135.7 446.95 Q137.529 443.385 137.529 436.279 Q137.529 429.149 135.7 425.607 Q133.895 422.043 130.26 422.043 M130.26 418.339 Q136.07 418.339 139.126 422.945 Q142.205 427.529 142.205 436.279 Q142.205 445.006 139.126 449.612 Q136.07 454.195 130.26 454.195 Q124.45 454.195 121.371 449.612 Q118.316 445.006 118.316 436.279 Q118.316 427.529 121.371 422.945 Q124.45 418.339 130.26 418.339 Z" fill="#000000" fill-rule="evenodd" fill-opacity="1" /><path clip-path="url(#clip260)" d="M 0 0 M76.3254 100.621 Q72.9921 100.621 71.0708 102.404 Q69.1726 104.186 69.1726 107.311 Q69.1726 110.436 71.0708 112.219 Q72.9921 114.001 76.3254 114.001 Q79.6587 114.001 81.58 112.219 Q83.5013 110.413 83.5013 107.311 Q83.5013 104.186 81.58 102.404 Q79.6819 100.621 76.3254 100.621 M71.6495 98.6308 Q68.6402 97.89 66.9504 95.8299 Q65.2838 93.7697 65.2838 90.8067 Q65.2838 86.6632 68.2236 84.2558 Q71.1865 81.8484 76.3254 81.8484 Q81.4874 81.8484 84.4272 84.2558 Q87.367 86.6632 87.367 90.8067 Q87.367 93.7697 85.6772 95.8299 Q84.0105 97.89 81.0244 98.6308 Q84.404 99.4178 86.279 101.709 Q88.1772 104.001 88.1772 107.311 Q88.1772 112.334 85.0985 115.02 Q82.0429 117.705 76.3254 117.705 Q70.6078 117.705 67.5291 115.02 Q64.4736 112.334 64.4736 107.311 Q64.4736 104.001 66.3717 101.709 Q68.2699 99.4178 71.6495 98.6308 M69.9365 91.2465 Q69.9365 93.9317 71.6032 95.4363 Q73.293 96.941 76.3254 96.941 Q79.3346 96.941 81.0244 95.4363 Q82.7374 93.9317 82.7374 91.2465 Q82.7374 88.5614 81.0244 87.0568 Q79.3346 85.5521 76.3254 85.5521 Q73.293 85.5521 71.6032 87.0568 Q69.9365 88.5614 69.9365 91.2465 Z" fill="#000000" fill-rule="evenodd" fill-opacity="1" /><path clip-path="url(#clip260)" d="M 0 0 M103.247 85.5521 Q99.6354 85.5521 97.8068 89.1169 Q96.0012 92.6586 96.0012 99.7882 Q96.0012 106.895 97.8068 110.459 Q99.6354 114.001 103.247 114.001 Q106.881 114.001 108.686 110.459 Q110.515 106.895 110.515 99.7882 Q110.515 92.6586 108.686 89.1169 Q106.881 85.5521 103.247 85.5521 M103.247 81.8484 Q109.057 81.8484 112.112 86.4549 Q115.191 91.0382 115.191 99.7882 Q115.191 108.515 112.112 113.121 Q109.057 117.705 103.247 117.705 Q97.4364 117.705 94.3577 113.121 Q91.3022 108.515 91.3022 99.7882 Q91.3022 91.0382 94.3577 86.4549 Q97.4364 81.8484 103.247 81.8484 Z" fill="#000000" fill-rule="evenodd" fill-opacity="1" /><path clip-path="url(#clip260)" d="M 0 0 M130.26 85.5521 Q126.649 85.5521 124.82 89.1169 Q123.015 92.6586 123.015 99.7882 Q123.015 106.895 124.82 110.459 Q126.649 114.001 130.26 114.001 Q133.895 114.001 135.7 110.459 Q137.529 106.895 137.529 99.7882 Q137.529 92.6586 135.7 89.1169 Q133.895 85.5521 130.26 85.5521 M130.26 81.8484 Q136.07 81.8484 139.126 86.4549 Q142.205 91.0382 142.205 99.7882 Q142.205 108.515 139.126 113.121 Q136.07 117.705 130.26 117.705 Q124.45 117.705 121.371 113.121 Q118.316 108.515 118.316 99.7882 Q118.316 91.0382 121.371 86.4549 Q124.45 81.8484 130.26 81.8484 Z" fill="#000000" fill-rule="evenodd" fill-opacity="1" /><path clip-path="url(#clip262)" d="
M286.469 1444.03 L286.469 1445.72 L310.494 1445.72 L310.494 1444.03 L286.469 1444.03 L286.469 1444.03  Z
  " fill="#009af9" fill-rule="evenodd" fill-opacity="1"/>
<polyline clip-path="url(#clip262)" style="stroke:#000000; stroke-width:4; stroke-opacity:1; fill:none" points="
  286.469,1444.03 286.469,1445.72 310.494,1445.72 310.494,1444.03 286.469,1444.03 
  "/>
<path clip-path="url(#clip262)" d="
M310.494 1445.72 L310.494 1445.72 L334.519 1445.72 L334.519 1445.72 L310.494 1445.72 L310.494 1445.72  Z
  " fill="#009af9" fill-rule="evenodd" fill-opacity="1"/>
<polyline clip-path="url(#clip262)" style="stroke:#000000; stroke-width:4; stroke-opacity:1; fill:none" points="
  310.494,1445.72 310.494,1445.72 334.519,1445.72 310.494,1445.72 
  "/>
<path clip-path="url(#clip262)" d="
M334.519 1445.72 L334.519 1445.72 L358.544 1445.72 L358.544 1445.72 L334.519 1445.72 L334.519 1445.72  Z
  " fill="#009af9" fill-rule="evenodd" fill-opacity="1"/>
<polyline clip-path="url(#clip262)" style="stroke:#000000; stroke-width:4; stroke-opacity:1; fill:none" points="
  334.519,1445.72 334.519,1445.72 358.544,1445.72 334.519,1445.72 
  "/>
<path clip-path="url(#clip262)" d="
M358.544 1445.72 L358.544 1445.72 L382.569 1445.72 L382.569 1445.72 L358.544 1445.72 L358.544 1445.72  Z
  " fill="#009af9" fill-rule="evenodd" fill-opacity="1"/>
<polyline clip-path="url(#clip262)" style="stroke:#000000; stroke-width:4; stroke-opacity:1; fill:none" points="
  358.544,1445.72 358.544,1445.72 382.569,1445.72 358.544,1445.72 
  "/>
<path clip-path="url(#clip262)" d="
M382.569 1445.72 L382.569 1445.72 L406.594 1445.72 L406.594 1445.72 L382.569 1445.72 L382.569 1445.72  Z
  " fill="#009af9" fill-rule="evenodd" fill-opacity="1"/>
<polyline clip-path="url(#clip262)" style="stroke:#000000; stroke-width:4; stroke-opacity:1; fill:none" points="
  382.569,1445.72 382.569,1445.72 406.594,1445.72 382.569,1445.72 
  "/>
<path clip-path="url(#clip262)" d="
M406.594 1445.72 L406.594 1445.72 L430.619 1445.72 L430.619 1445.72 L406.594 1445.72 L406.594 1445.72  Z
  " fill="#009af9" fill-rule="evenodd" fill-opacity="1"/>
<polyline clip-path="url(#clip262)" style="stroke:#000000; stroke-width:4; stroke-opacity:1; fill:none" points="
  406.594,1445.72 406.594,1445.72 430.619,1445.72 406.594,1445.72 
  "/>
<path clip-path="url(#clip262)" d="
M430.619 1445.72 L430.619 1445.72 L454.644 1445.72 L454.644 1445.72 L430.619 1445.72 L430.619 1445.72  Z
  " fill="#009af9" fill-rule="evenodd" fill-opacity="1"/>
<polyline clip-path="url(#clip262)" style="stroke:#000000; stroke-width:4; stroke-opacity:1; fill:none" points="
  430.619,1445.72 430.619,1445.72 454.644,1445.72 430.619,1445.72 
  "/>
<path clip-path="url(#clip262)" d="
M454.644 1444.03 L454.644 1445.72 L478.669 1445.72 L478.669 1444.03 L454.644 1444.03 L454.644 1444.03  Z
  " fill="#009af9" fill-rule="evenodd" fill-opacity="1"/>
<polyline clip-path="url(#clip262)" style="stroke:#000000; stroke-width:4; stroke-opacity:1; fill:none" points="
  454.644,1444.03 454.644,1445.72 478.669,1445.72 478.669,1444.03 454.644,1444.03 
  "/>
<path clip-path="url(#clip262)" d="
M478.669 1445.72 L478.669 1445.72 L502.694 1445.72 L502.694 1445.72 L478.669 1445.72 L478.669 1445.72  Z
  " fill="#009af9" fill-rule="evenodd" fill-opacity="1"/>
<polyline clip-path="url(#clip262)" style="stroke:#000000; stroke-width:4; stroke-opacity:1; fill:none" points="
  478.669,1445.72 478.669,1445.72 502.694,1445.72 478.669,1445.72 
  "/>
<path clip-path="url(#clip262)" d="
M502.694 1444.03 L502.694 1445.72 L526.719 1445.72 L526.719 1444.03 L502.694 1444.03 L502.694 1444.03  Z
  " fill="#009af9" fill-rule="evenodd" fill-opacity="1"/>
<polyline clip-path="url(#clip262)" style="stroke:#000000; stroke-width:4; stroke-opacity:1; fill:none" points="
  502.694,1444.03 502.694,1445.72 526.719,1445.72 526.719,1444.03 502.694,1444.03 
  "/>
<path clip-path="url(#clip262)" d="
M526.719 1445.72 L526.719 1445.72 L550.744 1445.72 L550.744 1445.72 L526.719 1445.72 L526.719 1445.72  Z
  " fill="#009af9" fill-rule="evenodd" fill-opacity="1"/>
<polyline clip-path="url(#clip262)" style="stroke:#000000; stroke-width:4; stroke-opacity:1; fill:none" points="
  526.719,1445.72 526.719,1445.72 550.744,1445.72 526.719,1445.72 
  "/>
<path clip-path="url(#clip262)" d="
M550.744 1445.72 L550.744 1445.72 L574.769 1445.72 L574.769 1445.72 L550.744 1445.72 L550.744 1445.72  Z
  " fill="#009af9" fill-rule="evenodd" fill-opacity="1"/>
<polyline clip-path="url(#clip262)" style="stroke:#000000; stroke-width:4; stroke-opacity:1; fill:none" points="
  550.744,1445.72 550.744,1445.72 574.769,1445.72 550.744,1445.72 
  "/>
<path clip-path="url(#clip262)" d="
M574.769 1444.03 L574.769 1445.72 L598.794 1445.72 L598.794 1444.03 L574.769 1444.03 L574.769 1444.03  Z
  " fill="#009af9" fill-rule="evenodd" fill-opacity="1"/>
<polyline clip-path="url(#clip262)" style="stroke:#000000; stroke-width:4; stroke-opacity:1; fill:none" points="
  574.769,1444.03 574.769,1445.72 598.794,1445.72 598.794,1444.03 574.769,1444.03 
  "/>
<path clip-path="url(#clip262)" d="
M598.794 1438.99 L598.794 1445.72 L622.818 1445.72 L622.818 1438.99 L598.794 1438.99 L598.794 1438.99  Z
  " fill="#009af9" fill-rule="evenodd" fill-opacity="1"/>
<polyline clip-path="url(#clip262)" style="stroke:#000000; stroke-width:4; stroke-opacity:1; fill:none" points="
  598.794,1438.99 598.794,1445.72 622.818,1445.72 622.818,1438.99 598.794,1438.99 
  "/>
<path clip-path="url(#clip262)" d="
M622.818 1437.3 L622.818 1445.72 L646.843 1445.72 L646.843 1437.3 L622.818 1437.3 L622.818 1437.3  Z
  " fill="#009af9" fill-rule="evenodd" fill-opacity="1"/>
<polyline clip-path="url(#clip262)" style="stroke:#000000; stroke-width:4; stroke-opacity:1; fill:none" points="
  622.818,1437.3 622.818,1445.72 646.843,1445.72 646.843,1437.3 622.818,1437.3 
  "/>
<path clip-path="url(#clip262)" d="
M646.843 1435.62 L646.843 1445.72 L670.868 1445.72 L670.868 1435.62 L646.843 1435.62 L646.843 1435.62  Z
  " fill="#009af9" fill-rule="evenodd" fill-opacity="1"/>
<polyline clip-path="url(#clip262)" style="stroke:#000000; stroke-width:4; stroke-opacity:1; fill:none" points="
  646.843,1435.62 646.843,1445.72 670.868,1445.72 670.868,1435.62 646.843,1435.62 
  "/>
<path clip-path="url(#clip262)" d="
M670.868 1425.53 L670.868 1445.72 L694.893 1445.72 L694.893 1425.53 L670.868 1425.53 L670.868 1425.53  Z
  " fill="#009af9" fill-rule="evenodd" fill-opacity="1"/>
<polyline clip-path="url(#clip262)" style="stroke:#000000; stroke-width:4; stroke-opacity:1; fill:none" points="
  670.868,1425.53 670.868,1445.72 694.893,1445.72 694.893,1425.53 670.868,1425.53 
  "/>
<path clip-path="url(#clip262)" d="
M694.893 1427.21 L694.893 1445.72 L718.918 1445.72 L718.918 1427.21 L694.893 1427.21 L694.893 1427.21  Z
  " fill="#009af9" fill-rule="evenodd" fill-opacity="1"/>
<polyline clip-path="url(#clip262)" style="stroke:#000000; stroke-width:4; stroke-opacity:1; fill:none" points="
  694.893,1427.21 694.893,1445.72 718.918,1445.72 718.918,1427.21 694.893,1427.21 
  "/>
<path clip-path="url(#clip262)" d="
M718.918 1415.43 L718.918 1445.72 L742.943 1445.72 L742.943 1415.43 L718.918 1415.43 L718.918 1415.43  Z
  " fill="#009af9" fill-rule="evenodd" fill-opacity="1"/>
<polyline clip-path="url(#clip262)" style="stroke:#000000; stroke-width:4; stroke-opacity:1; fill:none" points="
  718.918,1415.43 718.918,1445.72 742.943,1445.72 742.943,1415.43 718.918,1415.43 
  "/>
<path clip-path="url(#clip262)" d="
M742.943 1423.84 L742.943 1445.72 L766.968 1445.72 L766.968 1423.84 L742.943 1423.84 L742.943 1423.84  Z
  " fill="#009af9" fill-rule="evenodd" fill-opacity="1"/>
<polyline clip-path="url(#clip262)" style="stroke:#000000; stroke-width:4; stroke-opacity:1; fill:none" points="
  742.943,1423.84 742.943,1445.72 766.968,1445.72 766.968,1423.84 742.943,1423.84 
  "/>
<path clip-path="url(#clip262)" d="
M766.968 1398.61 L766.968 1445.72 L790.993 1445.72 L790.993 1398.61 L766.968 1398.61 L766.968 1398.61  Z
  " fill="#009af9" fill-rule="evenodd" fill-opacity="1"/>
<polyline clip-path="url(#clip262)" style="stroke:#000000; stroke-width:4; stroke-opacity:1; fill:none" points="
  766.968,1398.61 766.968,1445.72 790.993,1445.72 790.993,1398.61 766.968,1398.61 
  "/>
<path clip-path="url(#clip262)" d="
M790.993 1410.38 L790.993 1445.72 L815.018 1445.72 L815.018 1410.38 L790.993 1410.38 L790.993 1410.38  Z
  " fill="#009af9" fill-rule="evenodd" fill-opacity="1"/>
<polyline clip-path="url(#clip262)" style="stroke:#000000; stroke-width:4; stroke-opacity:1; fill:none" points="
  790.993,1410.38 790.993,1445.72 815.018,1445.72 815.018,1410.38 790.993,1410.38 
  "/>
<path clip-path="url(#clip262)" d="
M815.018 1413.75 L815.018 1445.72 L839.043 1445.72 L839.043 1413.75 L815.018 1413.75 L815.018 1413.75  Z
  " fill="#009af9" fill-rule="evenodd" fill-opacity="1"/>
<polyline clip-path="url(#clip262)" style="stroke:#000000; stroke-width:4; stroke-opacity:1; fill:none" points="
  815.018,1413.75 815.018,1445.72 839.043,1445.72 839.043,1413.75 815.018,1413.75 
  "/>
<path clip-path="url(#clip262)" d="
M839.043 1400.29 L839.043 1445.72 L863.068 1445.72 L863.068 1400.29 L839.043 1400.29 L839.043 1400.29  Z
  " fill="#009af9" fill-rule="evenodd" fill-opacity="1"/>
<polyline clip-path="url(#clip262)" style="stroke:#000000; stroke-width:4; stroke-opacity:1; fill:none" points="
  839.043,1400.29 839.043,1445.72 863.068,1445.72 863.068,1400.29 839.043,1400.29 
  "/>
<path clip-path="url(#clip262)" d="
M863.068 1386.83 L863.068 1445.72 L887.093 1445.72 L887.093 1386.83 L863.068 1386.83 L863.068 1386.83  Z
  " fill="#009af9" fill-rule="evenodd" fill-opacity="1"/>
<polyline clip-path="url(#clip262)" style="stroke:#000000; stroke-width:4; stroke-opacity:1; fill:none" points="
  863.068,1386.83 863.068,1445.72 887.093,1445.72 887.093,1386.83 863.068,1386.83 
  "/>
<path clip-path="url(#clip262)" d="
M887.093 1385.15 L887.093 1445.72 L911.118 1445.72 L911.118 1385.15 L887.093 1385.15 L887.093 1385.15  Z
  " fill="#009af9" fill-rule="evenodd" fill-opacity="1"/>
<polyline clip-path="url(#clip262)" style="stroke:#000000; stroke-width:4; stroke-opacity:1; fill:none" points="
  887.093,1385.15 887.093,1445.72 911.118,1445.72 911.118,1385.15 887.093,1385.15 
  "/>
<path clip-path="url(#clip262)" d="
M911.118 1356.55 L911.118 1445.72 L935.143 1445.72 L935.143 1356.55 L911.118 1356.55 L911.118 1356.55  Z
  " fill="#009af9" fill-rule="evenodd" fill-opacity="1"/>
<polyline clip-path="url(#clip262)" style="stroke:#000000; stroke-width:4; stroke-opacity:1; fill:none" points="
  911.118,1356.55 911.118,1445.72 935.143,1445.72 935.143,1356.55 911.118,1356.55 
  "/>
<path clip-path="url(#clip262)" d="
M935.143 1344.77 L935.143 1445.72 L959.168 1445.72 L959.168 1344.77 L935.143 1344.77 L935.143 1344.77  Z
  " fill="#009af9" fill-rule="evenodd" fill-opacity="1"/>
<polyline clip-path="url(#clip262)" style="stroke:#000000; stroke-width:4; stroke-opacity:1; fill:none" points="
  935.143,1344.77 935.143,1445.72 959.168,1445.72 959.168,1344.77 935.143,1344.77 
  "/>
<path clip-path="url(#clip262)" d="
M959.168 1349.82 L959.168 1445.72 L983.193 1445.72 L983.193 1349.82 L959.168 1349.82 L959.168 1349.82  Z
  " fill="#009af9" fill-rule="evenodd" fill-opacity="1"/>
<polyline clip-path="url(#clip262)" style="stroke:#000000; stroke-width:4; stroke-opacity:1; fill:none" points="
  959.168,1349.82 959.168,1445.72 983.193,1445.72 983.193,1349.82 959.168,1349.82 
  "/>
<path clip-path="url(#clip262)" d="
M983.193 1312.8 L983.193 1445.72 L1007.22 1445.72 L1007.22 1312.8 L983.193 1312.8 L983.193 1312.8  Z
  " fill="#009af9" fill-rule="evenodd" fill-opacity="1"/>
<polyline clip-path="url(#clip262)" style="stroke:#000000; stroke-width:4; stroke-opacity:1; fill:none" points="
  983.193,1312.8 983.193,1445.72 1007.22,1445.72 1007.22,1312.8 983.193,1312.8 
  "/>
<path clip-path="url(#clip262)" d="
M1007.22 1326.26 L1007.22 1445.72 L1031.24 1445.72 L1031.24 1326.26 L1007.22 1326.26 L1007.22 1326.26  Z
  " fill="#009af9" fill-rule="evenodd" fill-opacity="1"/>
<polyline clip-path="url(#clip262)" style="stroke:#000000; stroke-width:4; stroke-opacity:1; fill:none" points="
  1007.22,1326.26 1007.22,1445.72 1031.24,1445.72 1031.24,1326.26 1007.22,1326.26 
  "/>
<path clip-path="url(#clip262)" d="
M1031.24 1326.26 L1031.24 1445.72 L1055.27 1445.72 L1055.27 1326.26 L1031.24 1326.26 L1031.24 1326.26  Z
  " fill="#009af9" fill-rule="evenodd" fill-opacity="1"/>
<polyline clip-path="url(#clip262)" style="stroke:#000000; stroke-width:4; stroke-opacity:1; fill:none" points="
  1031.24,1326.26 1031.24,1445.72 1055.27,1445.72 1055.27,1326.26 1031.24,1326.26 
  "/>
<path clip-path="url(#clip262)" d="
M1055.27 1312.8 L1055.27 1445.72 L1079.29 1445.72 L1079.29 1312.8 L1055.27 1312.8 L1055.27 1312.8  Z
  " fill="#009af9" fill-rule="evenodd" fill-opacity="1"/>
<polyline clip-path="url(#clip262)" style="stroke:#000000; stroke-width:4; stroke-opacity:1; fill:none" points="
  1055.27,1312.8 1055.27,1445.72 1079.29,1445.72 1079.29,1312.8 1055.27,1312.8 
  "/>
<path clip-path="url(#clip262)" d="
M1079.29 1282.52 L1079.29 1445.72 L1103.32 1445.72 L1103.32 1282.52 L1079.29 1282.52 L1079.29 1282.52  Z
  " fill="#009af9" fill-rule="evenodd" fill-opacity="1"/>
<polyline clip-path="url(#clip262)" style="stroke:#000000; stroke-width:4; stroke-opacity:1; fill:none" points="
  1079.29,1282.52 1079.29,1445.72 1103.32,1445.72 1103.32,1282.52 1079.29,1282.52 
  "/>
<path clip-path="url(#clip262)" d="
M1103.32 1292.61 L1103.32 1445.72 L1127.34 1445.72 L1127.34 1292.61 L1103.32 1292.61 L1103.32 1292.61  Z
  " fill="#009af9" fill-rule="evenodd" fill-opacity="1"/>
<polyline clip-path="url(#clip262)" style="stroke:#000000; stroke-width:4; stroke-opacity:1; fill:none" points="
  1103.32,1292.61 1103.32,1445.72 1127.34,1445.72 1127.34,1292.61 1103.32,1292.61 
  "/>
<path clip-path="url(#clip262)" d="
M1127.34 1274.11 L1127.34 1445.72 L1151.37 1445.72 L1151.37 1274.11 L1127.34 1274.11 L1127.34 1274.11  Z
  " fill="#009af9" fill-rule="evenodd" fill-opacity="1"/>
<polyline clip-path="url(#clip262)" style="stroke:#000000; stroke-width:4; stroke-opacity:1; fill:none" points="
  1127.34,1274.11 1127.34,1445.72 1151.37,1445.72 1151.37,1274.11 1127.34,1274.11 
  "/>
<path clip-path="url(#clip262)" d="
M1151.37 1257.28 L1151.37 1445.72 L1175.39 1445.72 L1175.39 1257.28 L1151.37 1257.28 L1151.37 1257.28  Z
  " fill="#009af9" fill-rule="evenodd" fill-opacity="1"/>
<polyline clip-path="url(#clip262)" style="stroke:#000000; stroke-width:4; stroke-opacity:1; fill:none" points="
  1151.37,1257.28 1151.37,1445.72 1175.39,1445.72 1175.39,1257.28 1151.37,1257.28 
  "/>
<path clip-path="url(#clip262)" d="
M1175.39 1260.65 L1175.39 1445.72 L1199.42 1445.72 L1199.42 1260.65 L1175.39 1260.65 L1175.39 1260.65  Z
  " fill="#009af9" fill-rule="evenodd" fill-opacity="1"/>
<polyline clip-path="url(#clip262)" style="stroke:#000000; stroke-width:4; stroke-opacity:1; fill:none" points="
  1175.39,1260.65 1175.39,1445.72 1199.42,1445.72 1199.42,1260.65 1175.39,1260.65 
  "/>
<path clip-path="url(#clip262)" d="
M1199.42 1233.73 L1199.42 1445.72 L1223.44 1445.72 L1223.44 1233.73 L1199.42 1233.73 L1199.42 1233.73  Z
  " fill="#009af9" fill-rule="evenodd" fill-opacity="1"/>
<polyline clip-path="url(#clip262)" style="stroke:#000000; stroke-width:4; stroke-opacity:1; fill:none" points="
  1199.42,1233.73 1199.42,1445.72 1223.44,1445.72 1223.44,1233.73 1199.42,1233.73 
  "/>
<path clip-path="url(#clip262)" d="
M1223.44 1258.96 L1223.44 1445.72 L1247.47 1445.72 L1247.47 1258.96 L1223.44 1258.96 L1223.44 1258.96  Z
  " fill="#009af9" fill-rule="evenodd" fill-opacity="1"/>
<polyline clip-path="url(#clip262)" style="stroke:#000000; stroke-width:4; stroke-opacity:1; fill:none" points="
  1223.44,1258.96 1223.44,1445.72 1247.47,1445.72 1247.47,1258.96 1223.44,1258.96 
  "/>
<path clip-path="url(#clip262)" d="
M1247.47 1245.5 L1247.47 1445.72 L1271.49 1445.72 L1271.49 1245.5 L1247.47 1245.5 L1247.47 1245.5  Z
  " fill="#009af9" fill-rule="evenodd" fill-opacity="1"/>
<polyline clip-path="url(#clip262)" style="stroke:#000000; stroke-width:4; stroke-opacity:1; fill:none" points="
  1247.47,1245.5 1247.47,1445.72 1271.49,1445.72 1271.49,1245.5 1247.47,1245.5 
  "/>
<path clip-path="url(#clip262)" d="
M1271.49 1248.87 L1271.49 1445.72 L1295.52 1445.72 L1295.52 1248.87 L1271.49 1248.87 L1271.49 1248.87  Z
  " fill="#009af9" fill-rule="evenodd" fill-opacity="1"/>
<polyline clip-path="url(#clip262)" style="stroke:#000000; stroke-width:4; stroke-opacity:1; fill:none" points="
  1271.49,1248.87 1271.49,1445.72 1295.52,1445.72 1295.52,1248.87 1271.49,1248.87 
  "/>
<path clip-path="url(#clip262)" d="
M1295.52 1201.76 L1295.52 1445.72 L1319.54 1445.72 L1319.54 1201.76 L1295.52 1201.76 L1295.52 1201.76  Z
  " fill="#009af9" fill-rule="evenodd" fill-opacity="1"/>
<polyline clip-path="url(#clip262)" style="stroke:#000000; stroke-width:4; stroke-opacity:1; fill:none" points="
  1295.52,1201.76 1295.52,1445.72 1319.54,1445.72 1319.54,1201.76 1295.52,1201.76 
  "/>
<path clip-path="url(#clip262)" d="
M1319.54 772.735 L1319.54 1445.72 L1343.57 1445.72 L1343.57 772.735 L1319.54 772.735 L1319.54 772.735  Z
  " fill="#009af9" fill-rule="evenodd" fill-opacity="1"/>
<polyline clip-path="url(#clip262)" style="stroke:#000000; stroke-width:4; stroke-opacity:1; fill:none" points="
  1319.54,772.735 1319.54,1445.72 1343.57,1445.72 1343.57,772.735 1319.54,772.735 
  "/>
<path clip-path="url(#clip262)" d="
M1343.57 87.9763 L1343.57 1445.72 L1367.59 1445.72 L1367.59 87.9763 L1343.57 87.9763 L1343.57 87.9763  Z
  " fill="#009af9" fill-rule="evenodd" fill-opacity="1"/>
<polyline clip-path="url(#clip262)" style="stroke:#000000; stroke-width:4; stroke-opacity:1; fill:none" points="
  1343.57,87.9763 1343.57,1445.72 1367.59,1445.72 1367.59,87.9763 1343.57,87.9763 
  "/>
<path clip-path="url(#clip262)" d="
M1367.59 123.308 L1367.59 1445.72 L1391.62 1445.72 L1391.62 123.308 L1367.59 123.308 L1367.59 123.308  Z
  " fill="#009af9" fill-rule="evenodd" fill-opacity="1"/>
<polyline clip-path="url(#clip262)" style="stroke:#000000; stroke-width:4; stroke-opacity:1; fill:none" points="
  1367.59,123.308 1367.59,1445.72 1391.62,1445.72 1391.62,123.308 1367.59,123.308 
  "/>
<path clip-path="url(#clip262)" d="
M1391.62 824.891 L1391.62 1445.72 L1415.64 1445.72 L1415.64 824.891 L1391.62 824.891 L1391.62 824.891  Z
  " fill="#009af9" fill-rule="evenodd" fill-opacity="1"/>
<polyline clip-path="url(#clip262)" style="stroke:#000000; stroke-width:4; stroke-opacity:1; fill:none" points="
  1391.62,824.891 1391.62,1445.72 1415.64,1445.72 1415.64,824.891 1391.62,824.891 
  "/>
<path clip-path="url(#clip262)" d="
M1415.64 1195.03 L1415.64 1445.72 L1439.67 1445.72 L1439.67 1195.03 L1415.64 1195.03 L1415.64 1195.03  Z
  " fill="#009af9" fill-rule="evenodd" fill-opacity="1"/>
<polyline clip-path="url(#clip262)" style="stroke:#000000; stroke-width:4; stroke-opacity:1; fill:none" points="
  1415.64,1195.03 1415.64,1445.72 1439.67,1445.72 1439.67,1195.03 1415.64,1195.03 
  "/>
<path clip-path="url(#clip262)" d="
M1439.67 1294.29 L1439.67 1445.72 L1463.69 1445.72 L1463.69 1294.29 L1439.67 1294.29 L1439.67 1294.29  Z
  " fill="#009af9" fill-rule="evenodd" fill-opacity="1"/>
<polyline clip-path="url(#clip262)" style="stroke:#000000; stroke-width:4; stroke-opacity:1; fill:none" points="
  1439.67,1294.29 1439.67,1445.72 1463.69,1445.72 1463.69,1294.29 1439.67,1294.29 
  "/>
<path clip-path="url(#clip262)" d="
M1463.69 1324.58 L1463.69 1445.72 L1487.72 1445.72 L1487.72 1324.58 L1463.69 1324.58 L1463.69 1324.58  Z
  " fill="#009af9" fill-rule="evenodd" fill-opacity="1"/>
<polyline clip-path="url(#clip262)" style="stroke:#000000; stroke-width:4; stroke-opacity:1; fill:none" points="
  1463.69,1324.58 1463.69,1445.72 1487.72,1445.72 1487.72,1324.58 1463.69,1324.58 
  "/>
<path clip-path="url(#clip262)" d="
M1487.72 1321.21 L1487.72 1445.72 L1511.74 1445.72 L1511.74 1321.21 L1487.72 1321.21 L1487.72 1321.21  Z
  " fill="#009af9" fill-rule="evenodd" fill-opacity="1"/>
<polyline clip-path="url(#clip262)" style="stroke:#000000; stroke-width:4; stroke-opacity:1; fill:none" points="
  1487.72,1321.21 1487.72,1445.72 1511.74,1445.72 1511.74,1321.21 1487.72,1321.21 
  "/>
<path clip-path="url(#clip262)" d="
M1511.74 1341.4 L1511.74 1445.72 L1535.77 1445.72 L1535.77 1341.4 L1511.74 1341.4 L1511.74 1341.4  Z
  " fill="#009af9" fill-rule="evenodd" fill-opacity="1"/>
<polyline clip-path="url(#clip262)" style="stroke:#000000; stroke-width:4; stroke-opacity:1; fill:none" points="
  1511.74,1341.4 1511.74,1445.72 1535.77,1445.72 1535.77,1341.4 1511.74,1341.4 
  "/>
<path clip-path="url(#clip262)" d="
M1535.77 1348.13 L1535.77 1445.72 L1559.79 1445.72 L1559.79 1348.13 L1535.77 1348.13 L1535.77 1348.13  Z
  " fill="#009af9" fill-rule="evenodd" fill-opacity="1"/>
<polyline clip-path="url(#clip262)" style="stroke:#000000; stroke-width:4; stroke-opacity:1; fill:none" points="
  1535.77,1348.13 1535.77,1445.72 1559.79,1445.72 1559.79,1348.13 1535.77,1348.13 
  "/>
<path clip-path="url(#clip262)" d="
M1559.79 1370.01 L1559.79 1445.72 L1583.82 1445.72 L1583.82 1370.01 L1559.79 1370.01 L1559.79 1370.01  Z
  " fill="#009af9" fill-rule="evenodd" fill-opacity="1"/>
<polyline clip-path="url(#clip262)" style="stroke:#000000; stroke-width:4; stroke-opacity:1; fill:none" points="
  1559.79,1370.01 1559.79,1445.72 1583.82,1445.72 1583.82,1370.01 1559.79,1370.01 
  "/>
<path clip-path="url(#clip262)" d="
M1583.82 1375.05 L1583.82 1445.72 L1607.84 1445.72 L1607.84 1375.05 L1583.82 1375.05 L1583.82 1375.05  Z
  " fill="#009af9" fill-rule="evenodd" fill-opacity="1"/>
<polyline clip-path="url(#clip262)" style="stroke:#000000; stroke-width:4; stroke-opacity:1; fill:none" points="
  1583.82,1375.05 1583.82,1445.72 1607.84,1445.72 1607.84,1375.05 1583.82,1375.05 
  "/>
<path clip-path="url(#clip262)" d="
M1607.84 1371.69 L1607.84 1445.72 L1631.87 1445.72 L1631.87 1371.69 L1607.84 1371.69 L1607.84 1371.69  Z
  " fill="#009af9" fill-rule="evenodd" fill-opacity="1"/>
<polyline clip-path="url(#clip262)" style="stroke:#000000; stroke-width:4; stroke-opacity:1; fill:none" points="
  1607.84,1371.69 1607.84,1445.72 1631.87,1445.72 1631.87,1371.69 1607.84,1371.69 
  "/>
<path clip-path="url(#clip262)" d="
M1631.87 1396.92 L1631.87 1445.72 L1655.89 1445.72 L1655.89 1396.92 L1631.87 1396.92 L1631.87 1396.92  Z
  " fill="#009af9" fill-rule="evenodd" fill-opacity="1"/>
<polyline clip-path="url(#clip262)" style="stroke:#000000; stroke-width:4; stroke-opacity:1; fill:none" points="
  1631.87,1396.92 1631.87,1445.72 1655.89,1445.72 1655.89,1396.92 1631.87,1396.92 
  "/>
<path clip-path="url(#clip262)" d="
M1655.89 1401.97 L1655.89 1445.72 L1679.92 1445.72 L1679.92 1401.97 L1655.89 1401.97 L1655.89 1401.97  Z
  " fill="#009af9" fill-rule="evenodd" fill-opacity="1"/>
<polyline clip-path="url(#clip262)" style="stroke:#000000; stroke-width:4; stroke-opacity:1; fill:none" points="
  1655.89,1401.97 1655.89,1445.72 1679.92,1445.72 1679.92,1401.97 1655.89,1401.97 
  "/>
<path clip-path="url(#clip262)" d="
M1679.92 1400.29 L1679.92 1445.72 L1703.94 1445.72 L1703.94 1400.29 L1679.92 1400.29 L1679.92 1400.29  Z
  " fill="#009af9" fill-rule="evenodd" fill-opacity="1"/>
<polyline clip-path="url(#clip262)" style="stroke:#000000; stroke-width:4; stroke-opacity:1; fill:none" points="
  1679.92,1400.29 1679.92,1445.72 1703.94,1445.72 1703.94,1400.29 1679.92,1400.29 
  "/>
<path clip-path="url(#clip262)" d="
M1703.94 1415.43 L1703.94 1445.72 L1727.97 1445.72 L1727.97 1415.43 L1703.94 1415.43 L1703.94 1415.43  Z
  " fill="#009af9" fill-rule="evenodd" fill-opacity="1"/>
<polyline clip-path="url(#clip262)" style="stroke:#000000; stroke-width:4; stroke-opacity:1; fill:none" points="
  1703.94,1415.43 1703.94,1445.72 1727.97,1445.72 1727.97,1415.43 1703.94,1415.43 
  "/>
<path clip-path="url(#clip262)" d="
M1727.97 1418.8 L1727.97 1445.72 L1751.99 1445.72 L1751.99 1418.8 L1727.97 1418.8 L1727.97 1418.8  Z
  " fill="#009af9" fill-rule="evenodd" fill-opacity="1"/>
<polyline clip-path="url(#clip262)" style="stroke:#000000; stroke-width:4; stroke-opacity:1; fill:none" points="
  1727.97,1418.8 1727.97,1445.72 1751.99,1445.72 1751.99,1418.8 1727.97,1418.8 
  "/>
<path clip-path="url(#clip262)" d="
M1751.99 1432.26 L1751.99 1445.72 L1776.02 1445.72 L1776.02 1432.26 L1751.99 1432.26 L1751.99 1432.26  Z
  " fill="#009af9" fill-rule="evenodd" fill-opacity="1"/>
<polyline clip-path="url(#clip262)" style="stroke:#000000; stroke-width:4; stroke-opacity:1; fill:none" points="
  1751.99,1432.26 1751.99,1445.72 1776.02,1445.72 1776.02,1432.26 1751.99,1432.26 
  "/>
<path clip-path="url(#clip262)" d="
M1776.02 1433.94 L1776.02 1445.72 L1800.04 1445.72 L1800.04 1433.94 L1776.02 1433.94 L1776.02 1433.94  Z
  " fill="#009af9" fill-rule="evenodd" fill-opacity="1"/>
<polyline clip-path="url(#clip262)" style="stroke:#000000; stroke-width:4; stroke-opacity:1; fill:none" points="
  1776.02,1433.94 1776.02,1445.72 1800.04,1445.72 1800.04,1433.94 1776.02,1433.94 
  "/>
<path clip-path="url(#clip262)" d="
M1800.04 1437.3 L1800.04 1445.72 L1824.07 1445.72 L1824.07 1437.3 L1800.04 1437.3 L1800.04 1437.3  Z
  " fill="#009af9" fill-rule="evenodd" fill-opacity="1"/>
<polyline clip-path="url(#clip262)" style="stroke:#000000; stroke-width:4; stroke-opacity:1; fill:none" points="
  1800.04,1437.3 1800.04,1445.72 1824.07,1445.72 1824.07,1437.3 1800.04,1437.3 
  "/>
<path clip-path="url(#clip262)" d="
M1824.07 1430.57 L1824.07 1445.72 L1848.09 1445.72 L1848.09 1430.57 L1824.07 1430.57 L1824.07 1430.57  Z
  " fill="#009af9" fill-rule="evenodd" fill-opacity="1"/>
<polyline clip-path="url(#clip262)" style="stroke:#000000; stroke-width:4; stroke-opacity:1; fill:none" points="
  1824.07,1430.57 1824.07,1445.72 1848.09,1445.72 1848.09,1430.57 1824.07,1430.57 
  "/>
<path clip-path="url(#clip262)" d="
M1848.09 1438.99 L1848.09 1445.72 L1872.12 1445.72 L1872.12 1438.99 L1848.09 1438.99 L1848.09 1438.99  Z
  " fill="#009af9" fill-rule="evenodd" fill-opacity="1"/>
<polyline clip-path="url(#clip262)" style="stroke:#000000; stroke-width:4; stroke-opacity:1; fill:none" points="
  1848.09,1438.99 1848.09,1445.72 1872.12,1445.72 1872.12,1438.99 1848.09,1438.99 
  "/>
<path clip-path="url(#clip262)" d="
M1872.12 1440.67 L1872.12 1445.72 L1896.14 1445.72 L1896.14 1440.67 L1872.12 1440.67 L1872.12 1440.67  Z
  " fill="#009af9" fill-rule="evenodd" fill-opacity="1"/>
<polyline clip-path="url(#clip262)" style="stroke:#000000; stroke-width:4; stroke-opacity:1; fill:none" points="
  1872.12,1440.67 1872.12,1445.72 1896.14,1445.72 1896.14,1440.67 1872.12,1440.67 
  "/>
<path clip-path="url(#clip262)" d="
M1896.14 1440.67 L1896.14 1445.72 L1920.17 1445.72 L1920.17 1440.67 L1896.14 1440.67 L1896.14 1440.67  Z
  " fill="#009af9" fill-rule="evenodd" fill-opacity="1"/>
<polyline clip-path="url(#clip262)" style="stroke:#000000; stroke-width:4; stroke-opacity:1; fill:none" points="
  1896.14,1440.67 1896.14,1445.72 1920.17,1445.72 1920.17,1440.67 1896.14,1440.67 
  "/>
<path clip-path="url(#clip262)" d="
M1920.17 1444.03 L1920.17 1445.72 L1944.19 1445.72 L1944.19 1444.03 L1920.17 1444.03 L1920.17 1444.03  Z
  " fill="#009af9" fill-rule="evenodd" fill-opacity="1"/>
<polyline clip-path="url(#clip262)" style="stroke:#000000; stroke-width:4; stroke-opacity:1; fill:none" points="
  1920.17,1444.03 1920.17,1445.72 1944.19,1445.72 1944.19,1444.03 1920.17,1444.03 
  "/>
<path clip-path="url(#clip262)" d="
M1944.19 1442.35 L1944.19 1445.72 L1968.22 1445.72 L1968.22 1442.35 L1944.19 1442.35 L1944.19 1442.35  Z
  " fill="#009af9" fill-rule="evenodd" fill-opacity="1"/>
<polyline clip-path="url(#clip262)" style="stroke:#000000; stroke-width:4; stroke-opacity:1; fill:none" points="
  1944.19,1442.35 1944.19,1445.72 1968.22,1445.72 1968.22,1442.35 1944.19,1442.35 
  "/>
<path clip-path="url(#clip262)" d="
M1968.22 1444.03 L1968.22 1445.72 L1992.24 1445.72 L1992.24 1444.03 L1968.22 1444.03 L1968.22 1444.03  Z
  " fill="#009af9" fill-rule="evenodd" fill-opacity="1"/>
<polyline clip-path="url(#clip262)" style="stroke:#000000; stroke-width:4; stroke-opacity:1; fill:none" points="
  1968.22,1444.03 1968.22,1445.72 1992.24,1445.72 1992.24,1444.03 1968.22,1444.03 
  "/>
<path clip-path="url(#clip262)" d="
M1992.24 1445.72 L1992.24 1445.72 L2016.27 1445.72 L2016.27 1445.72 L1992.24 1445.72 L1992.24 1445.72  Z
  " fill="#009af9" fill-rule="evenodd" fill-opacity="1"/>
<polyline clip-path="url(#clip262)" style="stroke:#000000; stroke-width:4; stroke-opacity:1; fill:none" points="
  1992.24,1445.72 1992.24,1445.72 2016.27,1445.72 1992.24,1445.72 
  "/>
<path clip-path="url(#clip262)" d="
M2016.27 1445.72 L2016.27 1445.72 L2040.29 1445.72 L2040.29 1445.72 L2016.27 1445.72 L2016.27 1445.72  Z
  " fill="#009af9" fill-rule="evenodd" fill-opacity="1"/>
<polyline clip-path="url(#clip262)" style="stroke:#000000; stroke-width:4; stroke-opacity:1; fill:none" points="
  2016.27,1445.72 2016.27,1445.72 2040.29,1445.72 2016.27,1445.72 
  "/>
<path clip-path="url(#clip262)" d="
M2040.29 1444.03 L2040.29 1445.72 L2064.32 1445.72 L2064.32 1444.03 L2040.29 1444.03 L2040.29 1444.03  Z
  " fill="#009af9" fill-rule="evenodd" fill-opacity="1"/>
<polyline clip-path="url(#clip262)" style="stroke:#000000; stroke-width:4; stroke-opacity:1; fill:none" points="
  2040.29,1444.03 2040.29,1445.72 2064.32,1445.72 2064.32,1444.03 2040.29,1444.03 
  "/>
<path clip-path="url(#clip262)" d="
M2064.32 1444.03 L2064.32 1445.72 L2088.34 1445.72 L2088.34 1444.03 L2064.32 1444.03 L2064.32 1444.03  Z
  " fill="#009af9" fill-rule="evenodd" fill-opacity="1"/>
<polyline clip-path="url(#clip262)" style="stroke:#000000; stroke-width:4; stroke-opacity:1; fill:none" points="
  2064.32,1444.03 2064.32,1445.72 2088.34,1445.72 2088.34,1444.03 2064.32,1444.03 
  "/>
<path clip-path="url(#clip262)" d="
M2088.34 1444.03 L2088.34 1445.72 L2112.37 1445.72 L2112.37 1444.03 L2088.34 1444.03 L2088.34 1444.03  Z
  " fill="#009af9" fill-rule="evenodd" fill-opacity="1"/>
<polyline clip-path="url(#clip262)" style="stroke:#000000; stroke-width:4; stroke-opacity:1; fill:none" points="
  2088.34,1444.03 2088.34,1445.72 2112.37,1445.72 2112.37,1444.03 2088.34,1444.03 
  "/>
<path clip-path="url(#clip262)" d="
M2112.37 1445.72 L2112.37 1445.72 L2136.39 1445.72 L2136.39 1445.72 L2112.37 1445.72 L2112.37 1445.72  Z
  " fill="#009af9" fill-rule="evenodd" fill-opacity="1"/>
<polyline clip-path="url(#clip262)" style="stroke:#000000; stroke-width:4; stroke-opacity:1; fill:none" points="
  2112.37,1445.72 2112.37,1445.72 2136.39,1445.72 2112.37,1445.72 
  "/>
<path clip-path="url(#clip262)" d="
M2136.39 1445.72 L2136.39 1445.72 L2160.42 1445.72 L2160.42 1445.72 L2136.39 1445.72 L2136.39 1445.72  Z
  " fill="#009af9" fill-rule="evenodd" fill-opacity="1"/>
<polyline clip-path="url(#clip262)" style="stroke:#000000; stroke-width:4; stroke-opacity:1; fill:none" points="
  2136.39,1445.72 2136.39,1445.72 2160.42,1445.72 2136.39,1445.72 
  "/>
<path clip-path="url(#clip262)" d="
M2160.42 1445.72 L2160.42 1445.72 L2184.44 1445.72 L2184.44 1445.72 L2160.42 1445.72 L2160.42 1445.72  Z
  " fill="#009af9" fill-rule="evenodd" fill-opacity="1"/>
<polyline clip-path="url(#clip262)" style="stroke:#000000; stroke-width:4; stroke-opacity:1; fill:none" points="
  2160.42,1445.72 2160.42,1445.72 2184.44,1445.72 2160.42,1445.72 
  "/>
<path clip-path="url(#clip262)" d="
M2184.44 1445.72 L2184.44 1445.72 L2208.47 1445.72 L2208.47 1445.72 L2184.44 1445.72 L2184.44 1445.72  Z
  " fill="#009af9" fill-rule="evenodd" fill-opacity="1"/>
<polyline clip-path="url(#clip262)" style="stroke:#000000; stroke-width:4; stroke-opacity:1; fill:none" points="
  2184.44,1445.72 2184.44,1445.72 2208.47,1445.72 2184.44,1445.72 
  "/>
<path clip-path="url(#clip262)" d="
M2208.47 1444.03 L2208.47 1445.72 L2232.49 1445.72 L2232.49 1444.03 L2208.47 1444.03 L2208.47 1444.03  Z
  " fill="#009af9" fill-rule="evenodd" fill-opacity="1"/>
<polyline clip-path="url(#clip262)" style="stroke:#000000; stroke-width:4; stroke-opacity:1; fill:none" points="
  2208.47,1444.03 2208.47,1445.72 2232.49,1445.72 2232.49,1444.03 2208.47,1444.03 
  "/>
<path clip-path="url(#clip260)" d="
M1985.9 216.178 L2279.87 216.178 L2279.87 95.2176 L1985.9 95.2176  Z
  " fill="#ffffff" fill-rule="evenodd" fill-opacity="1"/>
<polyline clip-path="url(#clip260)" style="stroke:#000000; stroke-width:4; stroke-opacity:1; fill:none" points="
  1985.9,216.178 2279.87,216.178 2279.87,95.2176 1985.9,95.2176 1985.9,216.178 
  "/>
<path clip-path="url(#clip260)" d="
M2010.2 179.89 L2155.97 179.89 L2155.97 131.506 L2010.2 131.506 L2010.2 179.89  Z
  " fill="#009af9" fill-rule="evenodd" fill-opacity="1"/>
<polyline clip-path="url(#clip260)" style="stroke:#000000; stroke-width:4; stroke-opacity:1; fill:none" points="
  2010.2,179.89 2155.97,179.89 2155.97,131.506 2010.2,131.506 2010.2,179.89 
  "/>
<path clip-path="url(#clip260)" d="M 0 0 M2194.11 175.385 Q2192.3 180.015 2190.59 181.427 Q2188.87 182.839 2186 182.839 L2182.6 182.839 L2182.6 179.274 L2185.1 179.274 Q2186.86 179.274 2187.83 178.44 Q2188.8 177.607 2189.98 174.505 L2190.75 172.561 L2180.26 147.052 L2184.78 147.052 L2192.88 167.329 L2200.98 147.052 L2205.49 147.052 L2194.11 175.385 Z" fill="#000000" fill-rule="evenodd" fill-opacity="1" /><path clip-path="url(#clip260)" d="M 0 0 M2211.37 169.042 L2219.01 169.042 L2219.01 142.677 L2210.7 144.343 L2210.7 140.084 L2218.97 138.418 L2223.64 138.418 L2223.64 169.042 L2231.28 169.042 L2231.28 172.978 L2211.37 172.978 L2211.37 169.042 Z" fill="#000000" fill-rule="evenodd" fill-opacity="1" /></svg>
