<?xml version="1.0" encoding="utf-8"?>
<svg xmlns="http://www.w3.org/2000/svg" xmlns:xlink="http://www.w3.org/1999/xlink" width="600" height="400" viewBox="0 0 2400 1600">
<defs>
  <clipPath id="clip470">
    <rect x="0" y="0" width="2400" height="1600"/>
  </clipPath>
</defs>
<path clip-path="url(#clip470)" d="
M0 1600 L2400 1600 L2400 0 L0 0  Z
  " fill="#ffffff" fill-rule="evenodd" fill-opacity="1"/>
<defs>
  <clipPath id="clip471">
    <rect x="480" y="0" width="1681" height="1600"/>
  </clipPath>
</defs>
<path clip-path="url(#clip470)" d="
M166.205 1486.45 L2352.76 1486.45 L2352.76 47.2441 L166.205 47.2441  Z
  " fill="#ffffff" fill-rule="evenodd" fill-opacity="1"/>
<defs>
  <clipPath id="clip472">
    <rect x="166" y="47" width="2188" height="1440"/>
  </clipPath>
</defs>
<polyline clip-path="url(#clip472)" style="stroke:#000000; stroke-width:2; stroke-opacity:0.1; fill:none" points="
  397.318,1486.45 397.318,47.2441 
  "/>
<polyline clip-path="url(#clip472)" style="stroke:#000000; stroke-width:2; stroke-opacity:0.1; fill:none" points="
  705.233,1486.45 705.233,47.2441 
  "/>
<polyline clip-path="url(#clip472)" style="stroke:#000000; stroke-width:2; stroke-opacity:0.1; fill:none" points="
  1013.15,1486.45 1013.15,47.2441 
  "/>
<polyline clip-path="url(#clip472)" style="stroke:#000000; stroke-width:2; stroke-opacity:0.1; fill:none" points="
  1321.06,1486.45 1321.06,47.2441 
  "/>
<polyline clip-path="url(#clip472)" style="stroke:#000000; stroke-width:2; stroke-opacity:0.1; fill:none" points="
  1628.98,1486.45 1628.98,47.2441 
  "/>
<polyline clip-path="url(#clip472)" style="stroke:#000000; stroke-width:2; stroke-opacity:0.1; fill:none" points="
  1936.89,1486.45 1936.89,47.2441 
  "/>
<polyline clip-path="url(#clip472)" style="stroke:#000000; stroke-width:2; stroke-opacity:0.1; fill:none" points="
  2244.81,1486.45 2244.81,47.2441 
  "/>
<polyline clip-path="url(#clip472)" style="stroke:#000000; stroke-width:2; stroke-opacity:0.1; fill:none" points="
  166.205,1445.72 2352.76,1445.72 
  "/>
<polyline clip-path="url(#clip472)" style="stroke:#000000; stroke-width:2; stroke-opacity:0.1; fill:none" points="
  166.205,1096.68 2352.76,1096.68 
  "/>
<polyline clip-path="url(#clip472)" style="stroke:#000000; stroke-width:2; stroke-opacity:0.1; fill:none" points="
  166.205,747.649 2352.76,747.649 
  "/>
<polyline clip-path="url(#clip472)" style="stroke:#000000; stroke-width:2; stroke-opacity:0.1; fill:none" points="
  166.205,398.616 2352.76,398.616 
  "/>
<polyline clip-path="url(#clip472)" style="stroke:#000000; stroke-width:2; stroke-opacity:0.1; fill:none" points="
  166.205,49.5826 2352.76,49.5826 
  "/>
<polyline clip-path="url(#clip470)" style="stroke:#000000; stroke-width:4; stroke-opacity:1; fill:none" points="
  166.205,1486.45 2352.76,1486.45 
  "/>
<polyline clip-path="url(#clip470)" style="stroke:#000000; stroke-width:4; stroke-opacity:1; fill:none" points="
  166.205,1486.45 166.205,47.2441 
  "/>
<polyline clip-path="url(#clip470)" style="stroke:#000000; stroke-width:4; stroke-opacity:1; fill:none" points="
  397.318,1486.45 397.318,1469.18 
  "/>
<polyline clip-path="url(#clip470)" style="stroke:#000000; stroke-width:4; stroke-opacity:1; fill:none" points="
  705.233,1486.45 705.233,1469.18 
  "/>
<polyline clip-path="url(#clip470)" style="stroke:#000000; stroke-width:4; stroke-opacity:1; fill:none" points="
  1013.15,1486.45 1013.15,1469.18 
  "/>
<polyline clip-path="url(#clip470)" style="stroke:#000000; stroke-width:4; stroke-opacity:1; fill:none" points="
  1321.06,1486.45 1321.06,1469.18 
  "/>
<polyline clip-path="url(#clip470)" style="stroke:#000000; stroke-width:4; stroke-opacity:1; fill:none" points="
  1628.98,1486.45 1628.98,1469.18 
  "/>
<polyline clip-path="url(#clip470)" style="stroke:#000000; stroke-width:4; stroke-opacity:1; fill:none" points="
  1936.89,1486.45 1936.89,1469.18 
  "/>
<polyline clip-path="url(#clip470)" style="stroke:#000000; stroke-width:4; stroke-opacity:1; fill:none" points="
  2244.81,1486.45 2244.81,1469.18 
  "/>
<polyline clip-path="url(#clip470)" style="stroke:#000000; stroke-width:4; stroke-opacity:1; fill:none" points="
  166.205,1445.72 192.443,1445.72 
  "/>
<polyline clip-path="url(#clip470)" style="stroke:#000000; stroke-width:4; stroke-opacity:1; fill:none" points="
  166.205,1096.68 192.443,1096.68 
  "/>
<polyline clip-path="url(#clip470)" style="stroke:#000000; stroke-width:4; stroke-opacity:1; fill:none" points="
  166.205,747.649 192.443,747.649 
  "/>
<polyline clip-path="url(#clip470)" style="stroke:#000000; stroke-width:4; stroke-opacity:1; fill:none" points="
  166.205,398.616 192.443,398.616 
  "/>
<polyline clip-path="url(#clip470)" style="stroke:#000000; stroke-width:4; stroke-opacity:1; fill:none" points="
  166.205,49.5826 192.443,49.5826 
  "/>
<path clip-path="url(#clip470)" d="M 0 0 M351.439 1523.09 L381.115 1523.09 L381.115 1527.03 L351.439 1527.03 L351.439 1523.09 Z" fill="#000000" fill-rule="evenodd" fill-opacity="1" /><path clip-path="url(#clip470)" d="M 0 0 M385.004 1505.36 L407.226 1505.36 L407.226 1507.35 L394.679 1539.92 L389.795 1539.92 L401.601 1509.3 L385.004 1509.3 L385.004 1505.36 Z" fill="#000000" fill-rule="evenodd" fill-opacity="1" /><path clip-path="url(#clip470)" d="M 0 0 M412.295 1534.04 L417.179 1534.04 L417.179 1539.92 L412.295 1539.92 L412.295 1534.04 Z" fill="#000000" fill-rule="evenodd" fill-opacity="1" /><path clip-path="url(#clip470)" d="M 0 0 M422.295 1505.36 L440.651 1505.36 L440.651 1509.3 L426.577 1509.3 L426.577 1517.77 Q427.596 1517.42 428.614 1517.26 Q429.633 1517.07 430.651 1517.07 Q436.438 1517.07 439.818 1520.24 Q443.198 1523.42 443.198 1528.83 Q443.198 1534.41 439.725 1537.51 Q436.253 1540.59 429.934 1540.59 Q427.758 1540.59 425.489 1540.22 Q423.244 1539.85 420.837 1539.11 L420.837 1534.41 Q422.92 1535.54 425.142 1536.1 Q427.364 1536.66 429.841 1536.66 Q433.846 1536.66 436.184 1534.55 Q438.522 1532.44 438.522 1528.83 Q438.522 1525.22 436.184 1523.11 Q433.846 1521.01 429.841 1521.01 Q427.966 1521.01 426.091 1521.42 Q424.239 1521.84 422.295 1522.72 L422.295 1505.36 Z" fill="#000000" fill-rule="evenodd" fill-opacity="1" /><path clip-path="url(#clip470)" d="M 0 0 M658.903 1523.09 L688.578 1523.09 L688.578 1527.03 L658.903 1527.03 L658.903 1523.09 Z" fill="#000000" fill-rule="evenodd" fill-opacity="1" /><path clip-path="url(#clip470)" d="M 0 0 M693.694 1505.36 L712.05 1505.36 L712.05 1509.3 L697.976 1509.3 L697.976 1517.77 Q698.995 1517.42 700.013 1517.26 Q701.032 1517.07 702.05 1517.07 Q707.837 1517.07 711.217 1520.24 Q714.597 1523.42 714.597 1528.83 Q714.597 1534.41 711.124 1537.51 Q707.652 1540.59 701.333 1540.59 Q699.157 1540.59 696.888 1540.22 Q694.643 1539.85 692.236 1539.11 L692.236 1534.41 Q694.319 1535.54 696.541 1536.1 Q698.763 1536.66 701.24 1536.66 Q705.245 1536.66 707.583 1534.55 Q709.921 1532.44 709.921 1528.83 Q709.921 1525.22 707.583 1523.11 Q705.245 1521.01 701.24 1521.01 Q699.365 1521.01 697.49 1521.42 Q695.638 1521.84 693.694 1522.72 L693.694 1505.36 Z" fill="#000000" fill-rule="evenodd" fill-opacity="1" /><path clip-path="url(#clip470)" d="M 0 0 M719.666 1534.04 L724.55 1534.04 L724.55 1539.92 L719.666 1539.92 L719.666 1534.04 Z" fill="#000000" fill-rule="evenodd" fill-opacity="1" /><path clip-path="url(#clip470)" d="M 0 0 M739.62 1508.44 Q736.009 1508.44 734.18 1512 Q732.374 1515.55 732.374 1522.67 Q732.374 1529.78 734.18 1533.35 Q736.009 1536.89 739.62 1536.89 Q743.254 1536.89 745.059 1533.35 Q746.888 1529.78 746.888 1522.67 Q746.888 1515.55 745.059 1512 Q743.254 1508.44 739.62 1508.44 M739.62 1504.73 Q745.43 1504.73 748.485 1509.34 Q751.564 1513.92 751.564 1522.67 Q751.564 1531.4 748.485 1536.01 Q745.43 1540.59 739.62 1540.59 Q733.81 1540.59 730.731 1536.01 Q727.675 1531.4 727.675 1522.67 Q727.675 1513.92 730.731 1509.34 Q733.81 1504.73 739.62 1504.73 Z" fill="#000000" fill-rule="evenodd" fill-opacity="1" /><path clip-path="url(#clip470)" d="M 0 0 M967.616 1523.09 L997.292 1523.09 L997.292 1527.03 L967.616 1527.03 L967.616 1523.09 Z" fill="#000000" fill-rule="evenodd" fill-opacity="1" /><path clip-path="url(#clip470)" d="M 0 0 M1006.39 1535.98 L1022.71 1535.98 L1022.71 1539.92 L1000.76 1539.92 L1000.76 1535.98 Q1003.43 1533.23 1008.01 1528.6 Q1012.62 1523.95 1013.8 1522.61 Q1016.04 1520.08 1016.92 1518.35 Q1017.82 1516.59 1017.82 1514.9 Q1017.82 1512.14 1015.88 1510.41 Q1013.96 1508.67 1010.86 1508.67 Q1008.66 1508.67 1006.2 1509.43 Q1003.77 1510.2 1001 1511.75 L1001 1507.03 Q1003.82 1505.89 1006.27 1505.31 Q1008.73 1504.73 1010.76 1504.73 Q1016.13 1504.73 1019.33 1507.42 Q1022.52 1510.11 1022.52 1514.6 Q1022.52 1516.73 1021.71 1518.65 Q1020.93 1520.54 1018.82 1523.14 Q1018.24 1523.81 1015.14 1527.03 Q1012.04 1530.22 1006.39 1535.98 Z" fill="#000000" fill-rule="evenodd" fill-opacity="1" /><path clip-path="url(#clip470)" d="M 0 0 M1027.78 1534.04 L1032.66 1534.04 L1032.66 1539.92 L1027.78 1539.92 L1027.78 1534.04 Z" fill="#000000" fill-rule="evenodd" fill-opacity="1" /><path clip-path="url(#clip470)" d="M 0 0 M1037.78 1505.36 L1056.13 1505.36 L1056.13 1509.3 L1042.06 1509.3 L1042.06 1517.77 Q1043.08 1517.42 1044.1 1517.26 Q1045.12 1517.07 1046.13 1517.07 Q1051.92 1517.07 1055.3 1520.24 Q1058.68 1523.42 1058.68 1528.83 Q1058.68 1534.41 1055.21 1537.51 Q1051.74 1540.59 1045.42 1540.59 Q1043.24 1540.59 1040.97 1540.22 Q1038.73 1539.85 1036.32 1539.11 L1036.32 1534.41 Q1038.4 1535.54 1040.62 1536.1 Q1042.85 1536.66 1045.32 1536.66 Q1049.33 1536.66 1051.67 1534.55 Q1054 1532.44 1054 1528.83 Q1054 1525.22 1051.67 1523.11 Q1049.33 1521.01 1045.32 1521.01 Q1043.45 1521.01 1041.57 1521.42 Q1039.72 1521.84 1037.78 1522.72 L1037.78 1505.36 Z" fill="#000000" fill-rule="evenodd" fill-opacity="1" /><path clip-path="url(#clip470)" d="M 0 0 M1302.58 1508.44 Q1298.97 1508.44 1297.14 1512 Q1295.33 1515.55 1295.33 1522.67 Q1295.33 1529.78 1297.14 1533.35 Q1298.97 1536.89 1302.58 1536.89 Q1306.21 1536.89 1308.02 1533.35 Q1309.85 1529.78 1309.85 1522.67 Q1309.85 1515.55 1308.02 1512 Q1306.21 1508.44 1302.58 1508.44 M1302.58 1504.73 Q1308.39 1504.73 1311.45 1509.34 Q1314.52 1513.92 1314.52 1522.67 Q1314.52 1531.4 1311.45 1536.01 Q1308.39 1540.59 1302.58 1540.59 Q1296.77 1540.59 1293.69 1536.01 Q1290.64 1531.4 1290.64 1522.67 Q1290.64 1513.92 1293.69 1509.34 Q1296.77 1504.73 1302.58 1504.73 Z" fill="#000000" fill-rule="evenodd" fill-opacity="1" /><path clip-path="url(#clip470)" d="M 0 0 M1319.59 1534.04 L1324.48 1534.04 L1324.48 1539.92 L1319.59 1539.92 L1319.59 1534.04 Z" fill="#000000" fill-rule="evenodd" fill-opacity="1" /><path clip-path="url(#clip470)" d="M 0 0 M1339.55 1508.44 Q1335.94 1508.44 1334.11 1512 Q1332.3 1515.55 1332.3 1522.67 Q1332.3 1529.78 1334.11 1533.35 Q1335.94 1536.89 1339.55 1536.89 Q1343.18 1536.89 1344.99 1533.35 Q1346.82 1529.78 1346.82 1522.67 Q1346.82 1515.55 1344.99 1512 Q1343.18 1508.44 1339.55 1508.44 M1339.55 1504.73 Q1345.36 1504.73 1348.41 1509.34 Q1351.49 1513.92 1351.49 1522.67 Q1351.49 1531.4 1348.41 1536.01 Q1345.36 1540.59 1339.55 1540.59 Q1333.74 1540.59 1330.66 1536.01 Q1327.6 1531.4 1327.6 1522.67 Q1327.6 1513.92 1330.66 1509.34 Q1333.74 1504.73 1339.55 1504.73 Z" fill="#000000" fill-rule="evenodd" fill-opacity="1" /><path clip-path="url(#clip470)" d="M 0 0 M1605.65 1535.98 L1621.96 1535.98 L1621.96 1539.92 L1600.02 1539.92 L1600.02 1535.98 Q1602.68 1533.23 1607.27 1528.6 Q1611.87 1523.95 1613.05 1522.61 Q1615.3 1520.08 1616.18 1518.35 Q1617.08 1516.59 1617.08 1514.9 Q1617.08 1512.14 1615.14 1510.41 Q1613.21 1508.67 1610.11 1508.67 Q1607.91 1508.67 1605.46 1509.43 Q1603.03 1510.2 1600.25 1511.75 L1600.25 1507.03 Q1603.08 1505.89 1605.53 1505.31 Q1607.98 1504.73 1610.02 1504.73 Q1615.39 1504.73 1618.58 1507.42 Q1621.78 1510.11 1621.78 1514.6 Q1621.78 1516.73 1620.97 1518.65 Q1620.18 1520.54 1618.08 1523.14 Q1617.5 1523.81 1614.4 1527.03 Q1611.29 1530.22 1605.65 1535.98 Z" fill="#000000" fill-rule="evenodd" fill-opacity="1" /><path clip-path="url(#clip470)" d="M 0 0 M1627.03 1534.04 L1631.92 1534.04 L1631.92 1539.92 L1627.03 1539.92 L1627.03 1534.04 Z" fill="#000000" fill-rule="evenodd" fill-opacity="1" /><path clip-path="url(#clip470)" d="M 0 0 M1637.03 1505.36 L1655.39 1505.36 L1655.39 1509.3 L1641.32 1509.3 L1641.32 1517.77 Q1642.33 1517.42 1643.35 1517.26 Q1644.37 1517.07 1645.39 1517.07 Q1651.18 1517.07 1654.56 1520.24 Q1657.94 1523.42 1657.94 1528.83 Q1657.94 1534.41 1654.46 1537.51 Q1650.99 1540.59 1644.67 1540.59 Q1642.5 1540.59 1640.23 1540.22 Q1637.98 1539.85 1635.58 1539.11 L1635.58 1534.41 Q1637.66 1535.54 1639.88 1536.1 Q1642.1 1536.66 1644.58 1536.66 Q1648.58 1536.66 1650.92 1534.55 Q1653.26 1532.44 1653.26 1528.83 Q1653.26 1525.22 1650.92 1523.11 Q1648.58 1521.01 1644.58 1521.01 Q1642.71 1521.01 1640.83 1521.42 Q1638.98 1521.84 1637.03 1522.72 L1637.03 1505.36 Z" fill="#000000" fill-rule="evenodd" fill-opacity="1" /><path clip-path="url(#clip470)" d="M 0 0 M1908.69 1505.36 L1927.04 1505.36 L1927.04 1509.3 L1912.97 1509.3 L1912.97 1517.77 Q1913.99 1517.42 1915.01 1517.26 Q1916.03 1517.07 1917.04 1517.07 Q1922.83 1517.07 1926.21 1520.24 Q1929.59 1523.42 1929.59 1528.83 Q1929.59 1534.41 1926.12 1537.51 Q1922.65 1540.59 1916.33 1540.59 Q1914.15 1540.59 1911.88 1540.22 Q1909.64 1539.85 1907.23 1539.11 L1907.23 1534.41 Q1909.31 1535.54 1911.53 1536.1 Q1913.76 1536.66 1916.23 1536.66 Q1920.24 1536.66 1922.58 1534.55 Q1924.91 1532.44 1924.91 1528.83 Q1924.91 1525.22 1922.58 1523.11 Q1920.24 1521.01 1916.23 1521.01 Q1914.36 1521.01 1912.48 1521.42 Q1910.63 1521.84 1908.69 1522.72 L1908.69 1505.36 Z" fill="#000000" fill-rule="evenodd" fill-opacity="1" /><path clip-path="url(#clip470)" d="M 0 0 M1934.66 1534.04 L1939.54 1534.04 L1939.54 1539.92 L1934.66 1539.92 L1934.66 1534.04 Z" fill="#000000" fill-rule="evenodd" fill-opacity="1" /><path clip-path="url(#clip470)" d="M 0 0 M1954.61 1508.44 Q1951 1508.44 1949.17 1512 Q1947.37 1515.55 1947.37 1522.67 Q1947.37 1529.78 1949.17 1533.35 Q1951 1536.89 1954.61 1536.89 Q1958.25 1536.89 1960.05 1533.35 Q1961.88 1529.78 1961.88 1522.67 Q1961.88 1515.55 1960.05 1512 Q1958.25 1508.44 1954.61 1508.44 M1954.61 1504.73 Q1960.42 1504.73 1963.48 1509.34 Q1966.56 1513.92 1966.56 1522.67 Q1966.56 1531.4 1963.48 1536.01 Q1960.42 1540.59 1954.61 1540.59 Q1948.8 1540.59 1945.72 1536.01 Q1942.67 1531.4 1942.67 1522.67 Q1942.67 1513.92 1945.72 1509.34 Q1948.8 1504.73 1954.61 1504.73 Z" fill="#000000" fill-rule="evenodd" fill-opacity="1" /><path clip-path="url(#clip470)" d="M 0 0 M2215.71 1505.36 L2237.93 1505.36 L2237.93 1507.35 L2225.39 1539.92 L2220.5 1539.92 L2232.31 1509.3 L2215.71 1509.3 L2215.71 1505.36 Z" fill="#000000" fill-rule="evenodd" fill-opacity="1" /><path clip-path="url(#clip470)" d="M 0 0 M2243 1534.04 L2247.89 1534.04 L2247.89 1539.92 L2243 1539.92 L2243 1534.04 Z" fill="#000000" fill-rule="evenodd" fill-opacity="1" /><path clip-path="url(#clip470)" d="M 0 0 M2253 1505.36 L2271.36 1505.36 L2271.36 1509.3 L2257.29 1509.3 L2257.29 1517.77 Q2258.3 1517.42 2259.32 1517.26 Q2260.34 1517.07 2261.36 1517.07 Q2267.15 1517.07 2270.53 1520.24 Q2273.91 1523.42 2273.91 1528.83 Q2273.91 1534.41 2270.43 1537.51 Q2266.96 1540.59 2260.64 1540.59 Q2258.47 1540.59 2256.2 1540.22 Q2253.95 1539.85 2251.54 1539.11 L2251.54 1534.41 Q2253.63 1535.54 2255.85 1536.1 Q2258.07 1536.66 2260.55 1536.66 Q2264.55 1536.66 2266.89 1534.55 Q2269.23 1532.44 2269.23 1528.83 Q2269.23 1525.22 2266.89 1523.11 Q2264.55 1521.01 2260.55 1521.01 Q2258.67 1521.01 2256.8 1521.42 Q2254.95 1521.84 2253 1522.72 L2253 1505.36 Z" fill="#000000" fill-rule="evenodd" fill-opacity="1" /><path clip-path="url(#clip470)" d="M 0 0 M130.26 1431.51 Q126.649 1431.51 124.82 1435.08 Q123.015 1438.62 123.015 1445.75 Q123.015 1452.86 124.82 1456.42 Q126.649 1459.96 130.26 1459.96 Q133.895 1459.96 135.7 1456.42 Q137.529 1452.86 137.529 1445.75 Q137.529 1438.62 135.7 1435.08 Q133.895 1431.51 130.26 1431.51 M130.26 1427.81 Q136.07 1427.81 139.126 1432.42 Q142.205 1437 142.205 1445.75 Q142.205 1454.48 139.126 1459.08 Q136.07 1463.67 130.26 1463.67 Q124.45 1463.67 121.371 1459.08 Q118.316 1454.48 118.316 1445.75 Q118.316 1437 121.371 1432.42 Q124.45 1427.81 130.26 1427.81 Z" fill="#000000" fill-rule="evenodd" fill-opacity="1" /><path clip-path="url(#clip470)" d="M 0 0 M71.8578 1110.03 L88.1772 1110.03 L88.1772 1113.96 L66.2328 1113.96 L66.2328 1110.03 Q68.8949 1107.27 73.4782 1102.64 Q78.0846 1097.99 79.2652 1096.65 Q81.5105 1094.12 82.3902 1092.39 Q83.2929 1090.63 83.2929 1088.94 Q83.2929 1086.18 81.3485 1084.45 Q79.4272 1082.71 76.3254 1082.71 Q74.1263 1082.71 71.6726 1083.48 Q69.2421 1084.24 66.4643 1085.79 L66.4643 1081.07 Q69.2884 1079.93 71.7421 1079.36 Q74.1958 1078.78 76.2328 1078.78 Q81.6031 1078.78 84.7976 1081.46 Q87.992 1084.15 87.992 1088.64 Q87.992 1090.77 87.1818 1092.69 Q86.3948 1094.59 84.2883 1097.18 Q83.7096 1097.85 80.6078 1101.07 Q77.5059 1104.26 71.8578 1110.03 Z" fill="#000000" fill-rule="evenodd" fill-opacity="1" /><path clip-path="url(#clip470)" d="M 0 0 M103.247 1082.48 Q99.6354 1082.48 97.8068 1086.05 Q96.0012 1089.59 96.0012 1096.72 Q96.0012 1103.82 97.8068 1107.39 Q99.6354 1110.93 103.247 1110.93 Q106.881 1110.93 108.686 1107.39 Q110.515 1103.82 110.515 1096.72 Q110.515 1089.59 108.686 1086.05 Q106.881 1082.48 103.247 1082.48 M103.247 1078.78 Q109.057 1078.78 112.112 1083.38 Q115.191 1087.97 115.191 1096.72 Q115.191 1105.44 112.112 1110.05 Q109.057 1114.63 103.247 1114.63 Q97.4364 1114.63 94.3577 1110.05 Q91.3022 1105.44 91.3022 1096.72 Q91.3022 1087.97 94.3577 1083.38 Q97.4364 1078.78 103.247 1078.78 Z" fill="#000000" fill-rule="evenodd" fill-opacity="1" /><path clip-path="url(#clip470)" d="M 0 0 M130.26 1082.48 Q126.649 1082.48 124.82 1086.05 Q123.015 1089.59 123.015 1096.72 Q123.015 1103.82 124.82 1107.39 Q126.649 1110.93 130.26 1110.93 Q133.895 1110.93 135.7 1107.39 Q137.529 1103.82 137.529 1096.72 Q137.529 1089.59 135.7 1086.05 Q133.895 1082.48 130.26 1082.48 M130.26 1078.78 Q136.07 1078.78 139.126 1083.38 Q142.205 1087.97 142.205 1096.72 Q142.205 1105.44 139.126 1110.05 Q136.07 1114.63 130.26 1114.63 Q124.45 1114.63 121.371 1110.05 Q118.316 1105.44 118.316 1096.72 Q118.316 1087.97 121.371 1083.38 Q124.45 1078.78 130.26 1078.78 Z" fill="#000000" fill-rule="evenodd" fill-opacity="1" /><path clip-path="url(#clip470)" d="M 0 0 M78.5939 734.443 L66.7884 752.892 L78.5939 752.892 L78.5939 734.443 M77.367 730.369 L83.2466 730.369 L83.2466 752.892 L88.1772 752.892 L88.1772 756.781 L83.2466 756.781 L83.2466 764.929 L78.5939 764.929 L78.5939 756.781 L62.9921 756.781 L62.9921 752.267 L77.367 730.369 Z" fill="#000000" fill-rule="evenodd" fill-opacity="1" /><path clip-path="url(#clip470)" d="M 0 0 M103.247 733.448 Q99.6354 733.448 97.8068 737.013 Q96.0012 740.554 96.0012 747.684 Q96.0012 754.79 97.8068 758.355 Q99.6354 761.897 103.247 761.897 Q106.881 761.897 108.686 758.355 Q110.515 754.79 110.515 747.684 Q110.515 740.554 108.686 737.013 Q106.881 733.448 103.247 733.448 M103.247 729.744 Q109.057 729.744 112.112 734.351 Q115.191 738.934 115.191 747.684 Q115.191 756.411 112.112 761.017 Q109.057 765.6 103.247 765.6 Q97.4364 765.6 94.3577 761.017 Q91.3022 756.411 91.3022 747.684 Q91.3022 738.934 94.3577 734.351 Q97.4364 729.744 103.247 729.744 Z" fill="#000000" fill-rule="evenodd" fill-opacity="1" /><path clip-path="url(#clip470)" d="M 0 0 M130.26 733.448 Q126.649 733.448 124.82 737.013 Q123.015 740.554 123.015 747.684 Q123.015 754.79 124.82 758.355 Q126.649 761.897 130.26 761.897 Q133.895 761.897 135.7 758.355 Q137.529 754.79 137.529 747.684 Q137.529 740.554 135.7 737.013 Q133.895 733.448 130.26 733.448 M130.26 729.744 Q136.07 729.744 139.126 734.351 Q142.205 738.934 142.205 747.684 Q142.205 756.411 139.126 761.017 Q136.07 765.6 130.26 765.6 Q124.45 765.6 121.371 761.017 Q118.316 756.411 118.316 747.684 Q118.316 738.934 121.371 734.351 Q124.45 729.744 130.26 729.744 Z" fill="#000000" fill-rule="evenodd" fill-opacity="1" /><path clip-path="url(#clip470)" d="M 0 0 M76.6495 396.752 Q73.5013 396.752 71.6495 398.905 Q69.8208 401.058 69.8208 404.808 Q69.8208 408.535 71.6495 410.711 Q73.5013 412.863 76.6495 412.863 Q79.7976 412.863 81.6263 410.711 Q83.4781 408.535 83.4781 404.808 Q83.4781 401.058 81.6263 398.905 Q79.7976 396.752 76.6495 396.752 M85.9318 382.1 L85.9318 386.359 Q84.1726 385.526 82.367 385.086 Q80.5846 384.646 78.8254 384.646 Q74.1958 384.646 71.7421 387.771 Q69.3115 390.896 68.9643 397.215 Q70.33 395.202 72.3902 394.137 Q74.4504 393.049 76.9272 393.049 Q82.1355 393.049 85.1448 396.22 Q88.1772 399.368 88.1772 404.808 Q88.1772 410.132 85.029 413.35 Q81.8809 416.567 76.6495 416.567 Q70.6541 416.567 67.4828 411.984 Q64.3116 407.377 64.3116 398.651 Q64.3116 390.456 68.2004 385.595 Q72.0893 380.711 78.6402 380.711 Q80.3994 380.711 82.1818 381.058 Q83.9874 381.405 85.9318 382.1 Z" fill="#000000" fill-rule="evenodd" fill-opacity="1" /><path clip-path="url(#clip470)" d="M 0 0 M103.247 384.415 Q99.6354 384.415 97.8068 387.979 Q96.0012 391.521 96.0012 398.651 Q96.0012 405.757 97.8068 409.322 Q99.6354 412.863 103.247 412.863 Q106.881 412.863 108.686 409.322 Q110.515 405.757 110.515 398.651 Q110.515 391.521 108.686 387.979 Q106.881 384.415 103.247 384.415 M103.247 380.711 Q109.057 380.711 112.112 385.317 Q115.191 389.901 115.191 398.651 Q115.191 407.377 112.112 411.984 Q109.057 416.567 103.247 416.567 Q97.4364 416.567 94.3577 411.984 Q91.3022 407.377 91.3022 398.651 Q91.3022 389.901 94.3577 385.317 Q97.4364 380.711 103.247 380.711 Z" fill="#000000" fill-rule="evenodd" fill-opacity="1" /><path clip-path="url(#clip470)" d="M 0 0 M130.26 384.415 Q126.649 384.415 124.82 387.979 Q123.015 391.521 123.015 398.651 Q123.015 405.757 124.82 409.322 Q126.649 412.863 130.26 412.863 Q133.895 412.863 135.7 409.322 Q137.529 405.757 137.529 398.651 Q137.529 391.521 135.7 387.979 Q133.895 384.415 130.26 384.415 M130.26 380.711 Q136.07 380.711 139.126 385.317 Q142.205 389.901 142.205 398.651 Q142.205 407.377 139.126 411.984 Q136.07 416.567 130.26 416.567 Q124.45 416.567 121.371 411.984 Q118.316 407.377 118.316 398.651 Q118.316 389.901 121.371 385.317 Q124.45 380.711 130.26 380.711 Z" fill="#000000" fill-rule="evenodd" fill-opacity="1" /><path clip-path="url(#clip470)" d="M 0 0 M76.3254 50.4507 Q72.9921 50.4507 71.0708 52.2331 Q69.1726 54.0155 69.1726 57.1404 Q69.1726 60.2654 71.0708 62.0478 Q72.9921 63.8302 76.3254 63.8302 Q79.6587 63.8302 81.58 62.0478 Q83.5013 60.2423 83.5013 57.1404 Q83.5013 54.0155 81.58 52.2331 Q79.6819 50.4507 76.3254 50.4507 M71.6495 48.4599 Q68.6402 47.7192 66.9504 45.659 Q65.2838 43.5989 65.2838 40.6359 Q65.2838 36.4924 68.2236 34.085 Q71.1865 31.6776 76.3254 31.6776 Q81.4874 31.6776 84.4272 34.085 Q87.367 36.4924 87.367 40.6359 Q87.367 43.5989 85.6772 45.659 Q84.0105 47.7192 81.0244 48.4599 Q84.404 49.247 86.279 51.5386 Q88.1772 53.8303 88.1772 57.1404 Q88.1772 62.1636 85.0985 64.8487 Q82.0429 67.5339 76.3254 67.5339 Q70.6078 67.5339 67.5291 64.8487 Q64.4736 62.1636 64.4736 57.1404 Q64.4736 53.8303 66.3717 51.5386 Q68.2699 49.247 71.6495 48.4599 M69.9365 41.0757 Q69.9365 43.7609 71.6032 45.2655 Q73.293 46.7701 76.3254 46.7701 Q79.3346 46.7701 81.0244 45.2655 Q82.7374 43.7609 82.7374 41.0757 Q82.7374 38.3905 81.0244 36.8859 Q79.3346 35.3813 76.3254 35.3813 Q73.293 35.3813 71.6032 36.8859 Q69.9365 38.3905 69.9365 41.0757 Z" fill="#000000" fill-rule="evenodd" fill-opacity="1" /><path clip-path="url(#clip470)" d="M 0 0 M103.247 35.3813 Q99.6354 35.3813 97.8068 38.9461 Q96.0012 42.4877 96.0012 49.6173 Q96.0012 56.7238 97.8068 60.2886 Q99.6354 63.8302 103.247 63.8302 Q106.881 63.8302 108.686 60.2886 Q110.515 56.7238 110.515 49.6173 Q110.515 42.4877 108.686 38.9461 Q106.881 35.3813 103.247 35.3813 M103.247 31.6776 Q109.057 31.6776 112.112 36.2841 Q115.191 40.8674 115.191 49.6173 Q115.191 58.3441 112.112 62.9506 Q109.057 67.5339 103.247 67.5339 Q97.4364 67.5339 94.3577 62.9506 Q91.3022 58.3441 91.3022 49.6173 Q91.3022 40.8674 94.3577 36.2841 Q97.4364 31.6776 103.247 31.6776 Z" fill="#000000" fill-rule="evenodd" fill-opacity="1" /><path clip-path="url(#clip470)" d="M 0 0 M130.26 35.3813 Q126.649 35.3813 124.82 38.9461 Q123.015 42.4877 123.015 49.6173 Q123.015 56.7238 124.82 60.2886 Q126.649 63.8302 130.26 63.8302 Q133.895 63.8302 135.7 60.2886 Q137.529 56.7238 137.529 49.6173 Q137.529 42.4877 135.7 38.9461 Q133.895 35.3813 130.26 35.3813 M130.26 31.6776 Q136.07 31.6776 139.126 36.2841 Q142.205 40.8674 142.205 49.6173 Q142.205 58.3441 139.126 62.9506 Q136.07 67.5339 130.26 67.5339 Q124.45 67.5339 121.371 62.9506 Q118.316 58.3441 118.316 49.6173 Q118.316 40.8674 121.371 36.2841 Q124.45 31.6776 130.26 31.6776 Z" fill="#000000" fill-rule="evenodd" fill-opacity="1" /><path clip-path="url(#clip472)" d="
M286.469 1443.97 L286.469 1445.72 L311.102 1445.72 L311.102 1443.97 L286.469 1443.97 L286.469 1443.97  Z
  " fill="#009af9" fill-rule="evenodd" fill-opacity="1"/>
<polyline clip-path="url(#clip472)" style="stroke:#000000; stroke-width:4; stroke-opacity:1; fill:none" points="
  286.469,1443.97 286.469,1445.72 311.102,1445.72 311.102,1443.97 286.469,1443.97 
  "/>
<path clip-path="url(#clip472)" d="
M311.102 1445.72 L311.102 1445.72 L335.735 1445.72 L335.735 1445.72 L311.102 1445.72 L311.102 1445.72  Z
  " fill="#009af9" fill-rule="evenodd" fill-opacity="1"/>
<polyline clip-path="url(#clip472)" style="stroke:#000000; stroke-width:4; stroke-opacity:1; fill:none" points="
  311.102,1445.72 311.102,1445.72 335.735,1445.72 311.102,1445.72 
  "/>
<path clip-path="url(#clip472)" d="
M335.735 1445.72 L335.735 1445.72 L360.368 1445.72 L360.368 1445.72 L335.735 1445.72 L335.735 1445.72  Z
  " fill="#009af9" fill-rule="evenodd" fill-opacity="1"/>
<polyline clip-path="url(#clip472)" style="stroke:#000000; stroke-width:4; stroke-opacity:1; fill:none" points="
  335.735,1445.72 335.735,1445.72 360.368,1445.72 335.735,1445.72 
  "/>
<path clip-path="url(#clip472)" d="
M360.368 1443.97 L360.368 1445.72 L385.002 1445.72 L385.002 1443.97 L360.368 1443.97 L360.368 1443.97  Z
  " fill="#009af9" fill-rule="evenodd" fill-opacity="1"/>
<polyline clip-path="url(#clip472)" style="stroke:#000000; stroke-width:4; stroke-opacity:1; fill:none" points="
  360.368,1443.97 360.368,1445.72 385.002,1445.72 385.002,1443.97 360.368,1443.97 
  "/>
<path clip-path="url(#clip472)" d="
M385.002 1445.72 L385.002 1445.72 L409.635 1445.72 L409.635 1445.72 L385.002 1445.72 L385.002 1445.72  Z
  " fill="#009af9" fill-rule="evenodd" fill-opacity="1"/>
<polyline clip-path="url(#clip472)" style="stroke:#000000; stroke-width:4; stroke-opacity:1; fill:none" points="
  385.002,1445.72 385.002,1445.72 409.635,1445.72 385.002,1445.72 
  "/>
<path clip-path="url(#clip472)" d="
M409.635 1445.72 L409.635 1445.72 L434.268 1445.72 L434.268 1445.72 L409.635 1445.72 L409.635 1445.72  Z
  " fill="#009af9" fill-rule="evenodd" fill-opacity="1"/>
<polyline clip-path="url(#clip472)" style="stroke:#000000; stroke-width:4; stroke-opacity:1; fill:none" points="
  409.635,1445.72 409.635,1445.72 434.268,1445.72 409.635,1445.72 
  "/>
<path clip-path="url(#clip472)" d="
M434.268 1445.72 L434.268 1445.72 L458.901 1445.72 L458.901 1445.72 L434.268 1445.72 L434.268 1445.72  Z
  " fill="#009af9" fill-rule="evenodd" fill-opacity="1"/>
<polyline clip-path="url(#clip472)" style="stroke:#000000; stroke-width:4; stroke-opacity:1; fill:none" points="
  434.268,1445.72 434.268,1445.72 458.901,1445.72 434.268,1445.72 
  "/>
<path clip-path="url(#clip472)" d="
M458.901 1445.72 L458.901 1445.72 L483.534 1445.72 L483.534 1445.72 L458.901 1445.72 L458.901 1445.72  Z
  " fill="#009af9" fill-rule="evenodd" fill-opacity="1"/>
<polyline clip-path="url(#clip472)" style="stroke:#000000; stroke-width:4; stroke-opacity:1; fill:none" points="
  458.901,1445.72 458.901,1445.72 483.534,1445.72 458.901,1445.72 
  "/>
<path clip-path="url(#clip472)" d="
M483.534 1445.72 L483.534 1445.72 L508.168 1445.72 L508.168 1445.72 L483.534 1445.72 L483.534 1445.72  Z
  " fill="#009af9" fill-rule="evenodd" fill-opacity="1"/>
<polyline clip-path="url(#clip472)" style="stroke:#000000; stroke-width:4; stroke-opacity:1; fill:none" points="
  483.534,1445.72 483.534,1445.72 508.168,1445.72 483.534,1445.72 
  "/>
<path clip-path="url(#clip472)" d="
M508.168 1445.72 L508.168 1445.72 L532.801 1445.72 L532.801 1445.72 L508.168 1445.72 L508.168 1445.72  Z
  " fill="#009af9" fill-rule="evenodd" fill-opacity="1"/>
<polyline clip-path="url(#clip472)" style="stroke:#000000; stroke-width:4; stroke-opacity:1; fill:none" points="
  508.168,1445.72 508.168,1445.72 532.801,1445.72 508.168,1445.72 
  "/>
<path clip-path="url(#clip472)" d="
M532.801 1442.23 L532.801 1445.72 L557.434 1445.72 L557.434 1442.23 L532.801 1442.23 L532.801 1442.23  Z
  " fill="#009af9" fill-rule="evenodd" fill-opacity="1"/>
<polyline clip-path="url(#clip472)" style="stroke:#000000; stroke-width:4; stroke-opacity:1; fill:none" points="
  532.801,1442.23 532.801,1445.72 557.434,1445.72 557.434,1442.23 532.801,1442.23 
  "/>
<path clip-path="url(#clip472)" d="
M557.434 1440.48 L557.434 1445.72 L582.067 1445.72 L582.067 1440.48 L557.434 1440.48 L557.434 1440.48  Z
  " fill="#009af9" fill-rule="evenodd" fill-opacity="1"/>
<polyline clip-path="url(#clip472)" style="stroke:#000000; stroke-width:4; stroke-opacity:1; fill:none" points="
  557.434,1440.48 557.434,1445.72 582.067,1445.72 582.067,1440.48 557.434,1440.48 
  "/>
<path clip-path="url(#clip472)" d="
M582.067 1440.48 L582.067 1445.72 L606.7 1445.72 L606.7 1440.48 L582.067 1440.48 L582.067 1440.48  Z
  " fill="#009af9" fill-rule="evenodd" fill-opacity="1"/>
<polyline clip-path="url(#clip472)" style="stroke:#000000; stroke-width:4; stroke-opacity:1; fill:none" points="
  582.067,1440.48 582.067,1445.72 606.7,1445.72 606.7,1440.48 582.067,1440.48 
  "/>
<path clip-path="url(#clip472)" d="
M606.7 1443.97 L606.7 1445.72 L631.334 1445.72 L631.334 1443.97 L606.7 1443.97 L606.7 1443.97  Z
  " fill="#009af9" fill-rule="evenodd" fill-opacity="1"/>
<polyline clip-path="url(#clip472)" style="stroke:#000000; stroke-width:4; stroke-opacity:1; fill:none" points="
  606.7,1443.97 606.7,1445.72 631.334,1445.72 631.334,1443.97 606.7,1443.97 
  "/>
<path clip-path="url(#clip472)" d="
M631.334 1443.97 L631.334 1445.72 L655.967 1445.72 L655.967 1443.97 L631.334 1443.97 L631.334 1443.97  Z
  " fill="#009af9" fill-rule="evenodd" fill-opacity="1"/>
<polyline clip-path="url(#clip472)" style="stroke:#000000; stroke-width:4; stroke-opacity:1; fill:none" points="
  631.334,1443.97 631.334,1445.72 655.967,1445.72 655.967,1443.97 631.334,1443.97 
  "/>
<path clip-path="url(#clip472)" d="
M655.967 1443.97 L655.967 1445.72 L680.6 1445.72 L680.6 1443.97 L655.967 1443.97 L655.967 1443.97  Z
  " fill="#009af9" fill-rule="evenodd" fill-opacity="1"/>
<polyline clip-path="url(#clip472)" style="stroke:#000000; stroke-width:4; stroke-opacity:1; fill:none" points="
  655.967,1443.97 655.967,1445.72 680.6,1445.72 680.6,1443.97 655.967,1443.97 
  "/>
<path clip-path="url(#clip472)" d="
M680.6 1436.99 L680.6 1445.72 L705.233 1445.72 L705.233 1436.99 L680.6 1436.99 L680.6 1436.99  Z
  " fill="#009af9" fill-rule="evenodd" fill-opacity="1"/>
<polyline clip-path="url(#clip472)" style="stroke:#000000; stroke-width:4; stroke-opacity:1; fill:none" points="
  680.6,1436.99 680.6,1445.72 705.233,1445.72 705.233,1436.99 680.6,1436.99 
  "/>
<path clip-path="url(#clip472)" d="
M705.233 1435.24 L705.233 1445.72 L729.866 1445.72 L729.866 1435.24 L705.233 1435.24 L705.233 1435.24  Z
  " fill="#009af9" fill-rule="evenodd" fill-opacity="1"/>
<polyline clip-path="url(#clip472)" style="stroke:#000000; stroke-width:4; stroke-opacity:1; fill:none" points="
  705.233,1435.24 705.233,1445.72 729.866,1445.72 729.866,1435.24 705.233,1435.24 
  "/>
<path clip-path="url(#clip472)" d="
M729.866 1433.5 L729.866 1445.72 L754.5 1445.72 L754.5 1433.5 L729.866 1433.5 L729.866 1433.5  Z
  " fill="#009af9" fill-rule="evenodd" fill-opacity="1"/>
<polyline clip-path="url(#clip472)" style="stroke:#000000; stroke-width:4; stroke-opacity:1; fill:none" points="
  729.866,1433.5 729.866,1445.72 754.5,1445.72 754.5,1433.5 729.866,1433.5 
  "/>
<path clip-path="url(#clip472)" d="
M754.5 1435.24 L754.5 1445.72 L779.133 1445.72 L779.133 1435.24 L754.5 1435.24 L754.5 1435.24  Z
  " fill="#009af9" fill-rule="evenodd" fill-opacity="1"/>
<polyline clip-path="url(#clip472)" style="stroke:#000000; stroke-width:4; stroke-opacity:1; fill:none" points="
  754.5,1435.24 754.5,1445.72 779.133,1445.72 779.133,1435.24 754.5,1435.24 
  "/>
<path clip-path="url(#clip472)" d="
M779.133 1430.01 L779.133 1445.72 L803.766 1445.72 L803.766 1430.01 L779.133 1430.01 L779.133 1430.01  Z
  " fill="#009af9" fill-rule="evenodd" fill-opacity="1"/>
<polyline clip-path="url(#clip472)" style="stroke:#000000; stroke-width:4; stroke-opacity:1; fill:none" points="
  779.133,1430.01 779.133,1445.72 803.766,1445.72 803.766,1430.01 779.133,1430.01 
  "/>
<path clip-path="url(#clip472)" d="
M803.766 1419.54 L803.766 1445.72 L828.399 1445.72 L828.399 1419.54 L803.766 1419.54 L803.766 1419.54  Z
  " fill="#009af9" fill-rule="evenodd" fill-opacity="1"/>
<polyline clip-path="url(#clip472)" style="stroke:#000000; stroke-width:4; stroke-opacity:1; fill:none" points="
  803.766,1419.54 803.766,1445.72 828.399,1445.72 828.399,1419.54 803.766,1419.54 
  "/>
<path clip-path="url(#clip472)" d="
M828.399 1407.32 L828.399 1445.72 L853.032 1445.72 L853.032 1407.32 L828.399 1407.32 L828.399 1407.32  Z
  " fill="#009af9" fill-rule="evenodd" fill-opacity="1"/>
<polyline clip-path="url(#clip472)" style="stroke:#000000; stroke-width:4; stroke-opacity:1; fill:none" points="
  828.399,1407.32 828.399,1445.72 853.032,1445.72 853.032,1407.32 828.399,1407.32 
  "/>
<path clip-path="url(#clip472)" d="
M853.032 1407.32 L853.032 1445.72 L877.666 1445.72 L877.666 1407.32 L853.032 1407.32 L853.032 1407.32  Z
  " fill="#009af9" fill-rule="evenodd" fill-opacity="1"/>
<polyline clip-path="url(#clip472)" style="stroke:#000000; stroke-width:4; stroke-opacity:1; fill:none" points="
  853.032,1407.32 853.032,1445.72 877.666,1445.72 877.666,1407.32 853.032,1407.32 
  "/>
<path clip-path="url(#clip472)" d="
M877.666 1398.6 L877.666 1445.72 L902.299 1445.72 L902.299 1398.6 L877.666 1398.6 L877.666 1398.6  Z
  " fill="#009af9" fill-rule="evenodd" fill-opacity="1"/>
<polyline clip-path="url(#clip472)" style="stroke:#000000; stroke-width:4; stroke-opacity:1; fill:none" points="
  877.666,1398.6 877.666,1445.72 902.299,1445.72 902.299,1398.6 877.666,1398.6 
  "/>
<path clip-path="url(#clip472)" d="
M902.299 1384.63 L902.299 1445.72 L926.932 1445.72 L926.932 1384.63 L902.299 1384.63 L902.299 1384.63  Z
  " fill="#009af9" fill-rule="evenodd" fill-opacity="1"/>
<polyline clip-path="url(#clip472)" style="stroke:#000000; stroke-width:4; stroke-opacity:1; fill:none" points="
  902.299,1384.63 902.299,1445.72 926.932,1445.72 926.932,1384.63 902.299,1384.63 
  "/>
<path clip-path="url(#clip472)" d="
M926.932 1381.14 L926.932 1445.72 L951.565 1445.72 L951.565 1381.14 L926.932 1381.14 L926.932 1381.14  Z
  " fill="#009af9" fill-rule="evenodd" fill-opacity="1"/>
<polyline clip-path="url(#clip472)" style="stroke:#000000; stroke-width:4; stroke-opacity:1; fill:none" points="
  926.932,1381.14 926.932,1445.72 951.565,1445.72 951.565,1381.14 926.932,1381.14 
  "/>
<path clip-path="url(#clip472)" d="
M951.565 1377.65 L951.565 1445.72 L976.198 1445.72 L976.198 1377.65 L951.565 1377.65 L951.565 1377.65  Z
  " fill="#009af9" fill-rule="evenodd" fill-opacity="1"/>
<polyline clip-path="url(#clip472)" style="stroke:#000000; stroke-width:4; stroke-opacity:1; fill:none" points="
  951.565,1377.65 951.565,1445.72 976.198,1445.72 976.198,1377.65 951.565,1377.65 
  "/>
<path clip-path="url(#clip472)" d="
M976.198 1358.46 L976.198 1445.72 L1000.83 1445.72 L1000.83 1358.46 L976.198 1358.46 L976.198 1358.46  Z
  " fill="#009af9" fill-rule="evenodd" fill-opacity="1"/>
<polyline clip-path="url(#clip472)" style="stroke:#000000; stroke-width:4; stroke-opacity:1; fill:none" points="
  976.198,1358.46 976.198,1445.72 1000.83,1445.72 1000.83,1358.46 976.198,1358.46 
  "/>
<path clip-path="url(#clip472)" d="
M1000.83 1335.77 L1000.83 1445.72 L1025.46 1445.72 L1025.46 1335.77 L1000.83 1335.77 L1000.83 1335.77  Z
  " fill="#009af9" fill-rule="evenodd" fill-opacity="1"/>
<polyline clip-path="url(#clip472)" style="stroke:#000000; stroke-width:4; stroke-opacity:1; fill:none" points="
  1000.83,1335.77 1000.83,1445.72 1025.46,1445.72 1025.46,1335.77 1000.83,1335.77 
  "/>
<path clip-path="url(#clip472)" d="
M1025.46 1339.26 L1025.46 1445.72 L1050.1 1445.72 L1050.1 1339.26 L1025.46 1339.26 L1025.46 1339.26  Z
  " fill="#009af9" fill-rule="evenodd" fill-opacity="1"/>
<polyline clip-path="url(#clip472)" style="stroke:#000000; stroke-width:4; stroke-opacity:1; fill:none" points="
  1025.46,1339.26 1025.46,1445.72 1050.1,1445.72 1050.1,1339.26 1025.46,1339.26 
  "/>
<path clip-path="url(#clip472)" d="
M1050.1 1332.28 L1050.1 1445.72 L1074.73 1445.72 L1074.73 1332.28 L1050.1 1332.28 L1050.1 1332.28  Z
  " fill="#009af9" fill-rule="evenodd" fill-opacity="1"/>
<polyline clip-path="url(#clip472)" style="stroke:#000000; stroke-width:4; stroke-opacity:1; fill:none" points="
  1050.1,1332.28 1050.1,1445.72 1074.73,1445.72 1074.73,1332.28 1050.1,1332.28 
  "/>
<path clip-path="url(#clip472)" d="
M1074.73 1307.85 L1074.73 1445.72 L1099.36 1445.72 L1099.36 1307.85 L1074.73 1307.85 L1074.73 1307.85  Z
  " fill="#009af9" fill-rule="evenodd" fill-opacity="1"/>
<polyline clip-path="url(#clip472)" style="stroke:#000000; stroke-width:4; stroke-opacity:1; fill:none" points="
  1074.73,1307.85 1074.73,1445.72 1099.36,1445.72 1099.36,1307.85 1074.73,1307.85 
  "/>
<path clip-path="url(#clip472)" d="
M1099.36 1302.61 L1099.36 1445.72 L1124 1445.72 L1124 1302.61 L1099.36 1302.61 L1099.36 1302.61  Z
  " fill="#009af9" fill-rule="evenodd" fill-opacity="1"/>
<polyline clip-path="url(#clip472)" style="stroke:#000000; stroke-width:4; stroke-opacity:1; fill:none" points="
  1099.36,1302.61 1099.36,1445.72 1124,1445.72 1124,1302.61 1099.36,1302.61 
  "/>
<path clip-path="url(#clip472)" d="
M1124 1281.67 L1124 1445.72 L1148.63 1445.72 L1148.63 1281.67 L1124 1281.67 L1124 1281.67  Z
  " fill="#009af9" fill-rule="evenodd" fill-opacity="1"/>
<polyline clip-path="url(#clip472)" style="stroke:#000000; stroke-width:4; stroke-opacity:1; fill:none" points="
  1124,1281.67 1124,1445.72 1148.63,1445.72 1148.63,1281.67 1124,1281.67 
  "/>
<path clip-path="url(#clip472)" d="
M1148.63 1255.49 L1148.63 1445.72 L1173.26 1445.72 L1173.26 1255.49 L1148.63 1255.49 L1148.63 1255.49  Z
  " fill="#009af9" fill-rule="evenodd" fill-opacity="1"/>
<polyline clip-path="url(#clip472)" style="stroke:#000000; stroke-width:4; stroke-opacity:1; fill:none" points="
  1148.63,1255.49 1148.63,1445.72 1173.26,1445.72 1173.26,1255.49 1148.63,1255.49 
  "/>
<path clip-path="url(#clip472)" d="
M1173.26 1269.45 L1173.26 1445.72 L1197.9 1445.72 L1197.9 1269.45 L1173.26 1269.45 L1173.26 1269.45  Z
  " fill="#009af9" fill-rule="evenodd" fill-opacity="1"/>
<polyline clip-path="url(#clip472)" style="stroke:#000000; stroke-width:4; stroke-opacity:1; fill:none" points="
  1173.26,1269.45 1173.26,1445.72 1197.9,1445.72 1197.9,1269.45 1173.26,1269.45 
  "/>
<path clip-path="url(#clip472)" d="
M1197.9 1265.96 L1197.9 1445.72 L1222.53 1445.72 L1222.53 1265.96 L1197.9 1265.96 L1197.9 1265.96  Z
  " fill="#009af9" fill-rule="evenodd" fill-opacity="1"/>
<polyline clip-path="url(#clip472)" style="stroke:#000000; stroke-width:4; stroke-opacity:1; fill:none" points="
  1197.9,1265.96 1197.9,1445.72 1222.53,1445.72 1222.53,1265.96 1197.9,1265.96 
  "/>
<path clip-path="url(#clip472)" d="
M1222.53 1258.98 L1222.53 1445.72 L1247.16 1445.72 L1247.16 1258.98 L1222.53 1258.98 L1222.53 1258.98  Z
  " fill="#009af9" fill-rule="evenodd" fill-opacity="1"/>
<polyline clip-path="url(#clip472)" style="stroke:#000000; stroke-width:4; stroke-opacity:1; fill:none" points="
  1222.53,1258.98 1222.53,1445.72 1247.16,1445.72 1247.16,1258.98 1222.53,1258.98 
  "/>
<path clip-path="url(#clip472)" d="
M1247.16 1231.06 L1247.16 1445.72 L1271.8 1445.72 L1271.8 1231.06 L1247.16 1231.06 L1247.16 1231.06  Z
  " fill="#009af9" fill-rule="evenodd" fill-opacity="1"/>
<polyline clip-path="url(#clip472)" style="stroke:#000000; stroke-width:4; stroke-opacity:1; fill:none" points="
  1247.16,1231.06 1247.16,1445.72 1271.8,1445.72 1271.8,1231.06 1247.16,1231.06 
  "/>
<path clip-path="url(#clip472)" d="
M1271.8 1185.69 L1271.8 1445.72 L1296.43 1445.72 L1296.43 1185.69 L1271.8 1185.69 L1271.8 1185.69  Z
  " fill="#009af9" fill-rule="evenodd" fill-opacity="1"/>
<polyline clip-path="url(#clip472)" style="stroke:#000000; stroke-width:4; stroke-opacity:1; fill:none" points="
  1271.8,1185.69 1271.8,1445.72 1296.43,1445.72 1296.43,1185.69 1271.8,1185.69 
  "/>
<path clip-path="url(#clip472)" d="
M1296.43 1248.51 L1296.43 1445.72 L1321.06 1445.72 L1321.06 1248.51 L1296.43 1248.51 L1296.43 1248.51  Z
  " fill="#009af9" fill-rule="evenodd" fill-opacity="1"/>
<polyline clip-path="url(#clip472)" style="stroke:#000000; stroke-width:4; stroke-opacity:1; fill:none" points="
  1296.43,1248.51 1296.43,1445.72 1321.06,1445.72 1321.06,1248.51 1296.43,1248.51 
  "/>
<path clip-path="url(#clip472)" d="
M1321.06 1217.1 L1321.06 1445.72 L1345.7 1445.72 L1345.7 1217.1 L1321.06 1217.1 L1321.06 1217.1  Z
  " fill="#009af9" fill-rule="evenodd" fill-opacity="1"/>
<polyline clip-path="url(#clip472)" style="stroke:#000000; stroke-width:4; stroke-opacity:1; fill:none" points="
  1321.06,1217.1 1321.06,1445.72 1345.7,1445.72 1345.7,1217.1 1321.06,1217.1 
  "/>
<path clip-path="url(#clip472)" d="
M1345.7 1238.04 L1345.7 1445.72 L1370.33 1445.72 L1370.33 1238.04 L1345.7 1238.04 L1345.7 1238.04  Z
  " fill="#009af9" fill-rule="evenodd" fill-opacity="1"/>
<polyline clip-path="url(#clip472)" style="stroke:#000000; stroke-width:4; stroke-opacity:1; fill:none" points="
  1345.7,1238.04 1345.7,1445.72 1370.33,1445.72 1370.33,1238.04 1345.7,1238.04 
  "/>
<path clip-path="url(#clip472)" d="
M1370.33 1157.76 L1370.33 1445.72 L1394.96 1445.72 L1394.96 1157.76 L1370.33 1157.76 L1370.33 1157.76  Z
  " fill="#009af9" fill-rule="evenodd" fill-opacity="1"/>
<polyline clip-path="url(#clip472)" style="stroke:#000000; stroke-width:4; stroke-opacity:1; fill:none" points="
  1370.33,1157.76 1370.33,1445.72 1394.96,1445.72 1394.96,1157.76 1370.33,1157.76 
  "/>
<path clip-path="url(#clip472)" d="
M1394.96 813.965 L1394.96 1445.72 L1419.6 1445.72 L1419.6 813.965 L1394.96 813.965 L1394.96 813.965  Z
  " fill="#009af9" fill-rule="evenodd" fill-opacity="1"/>
<polyline clip-path="url(#clip472)" style="stroke:#000000; stroke-width:4; stroke-opacity:1; fill:none" points="
  1394.96,813.965 1394.96,1445.72 1419.6,1445.72 1419.6,813.965 1394.96,813.965 
  "/>
<path clip-path="url(#clip472)" d="
M1419.6 87.9763 L1419.6 1445.72 L1444.23 1445.72 L1444.23 87.9763 L1419.6 87.9763 L1419.6 87.9763  Z
  " fill="#009af9" fill-rule="evenodd" fill-opacity="1"/>
<polyline clip-path="url(#clip472)" style="stroke:#000000; stroke-width:4; stroke-opacity:1; fill:none" points="
  1419.6,87.9763 1419.6,1445.72 1444.23,1445.72 1444.23,87.9763 1419.6,87.9763 
  "/>
<path clip-path="url(#clip472)" d="
M1444.23 93.2118 L1444.23 1445.72 L1468.86 1445.72 L1468.86 93.2118 L1444.23 93.2118 L1444.23 93.2118  Z
  " fill="#009af9" fill-rule="evenodd" fill-opacity="1"/>
<polyline clip-path="url(#clip472)" style="stroke:#000000; stroke-width:4; stroke-opacity:1; fill:none" points="
  1444.23,93.2118 1444.23,1445.72 1468.86,1445.72 1468.86,93.2118 1444.23,93.2118 
  "/>
<path clip-path="url(#clip472)" d="
M1468.86 820.946 L1468.86 1445.72 L1493.5 1445.72 L1493.5 820.946 L1468.86 820.946 L1468.86 820.946  Z
  " fill="#009af9" fill-rule="evenodd" fill-opacity="1"/>
<polyline clip-path="url(#clip472)" style="stroke:#000000; stroke-width:4; stroke-opacity:1; fill:none" points="
  1468.86,820.946 1468.86,1445.72 1493.5,1445.72 1493.5,820.946 1468.86,820.946 
  "/>
<path clip-path="url(#clip472)" d="
M1493.5 1203.14 L1493.5 1445.72 L1518.13 1445.72 L1518.13 1203.14 L1493.5 1203.14 L1493.5 1203.14  Z
  " fill="#009af9" fill-rule="evenodd" fill-opacity="1"/>
<polyline clip-path="url(#clip472)" style="stroke:#000000; stroke-width:4; stroke-opacity:1; fill:none" points="
  1493.5,1203.14 1493.5,1445.72 1518.13,1445.72 1518.13,1203.14 1493.5,1203.14 
  "/>
<path clip-path="url(#clip472)" d="
M1518.13 1286.91 L1518.13 1445.72 L1542.76 1445.72 L1542.76 1286.91 L1518.13 1286.91 L1518.13 1286.91  Z
  " fill="#009af9" fill-rule="evenodd" fill-opacity="1"/>
<polyline clip-path="url(#clip472)" style="stroke:#000000; stroke-width:4; stroke-opacity:1; fill:none" points="
  1518.13,1286.91 1518.13,1445.72 1542.76,1445.72 1542.76,1286.91 1518.13,1286.91 
  "/>
<path clip-path="url(#clip472)" d="
M1542.76 1316.57 L1542.76 1445.72 L1567.4 1445.72 L1567.4 1316.57 L1542.76 1316.57 L1542.76 1316.57  Z
  " fill="#009af9" fill-rule="evenodd" fill-opacity="1"/>
<polyline clip-path="url(#clip472)" style="stroke:#000000; stroke-width:4; stroke-opacity:1; fill:none" points="
  1542.76,1316.57 1542.76,1445.72 1567.4,1445.72 1567.4,1316.57 1542.76,1316.57 
  "/>
<path clip-path="url(#clip472)" d="
M1567.4 1339.26 L1567.4 1445.72 L1592.03 1445.72 L1592.03 1339.26 L1567.4 1339.26 L1567.4 1339.26  Z
  " fill="#009af9" fill-rule="evenodd" fill-opacity="1"/>
<polyline clip-path="url(#clip472)" style="stroke:#000000; stroke-width:4; stroke-opacity:1; fill:none" points="
  1567.4,1339.26 1567.4,1445.72 1592.03,1445.72 1592.03,1339.26 1567.4,1339.26 
  "/>
<path clip-path="url(#clip472)" d="
M1592.03 1327.04 L1592.03 1445.72 L1616.66 1445.72 L1616.66 1327.04 L1592.03 1327.04 L1592.03 1327.04  Z
  " fill="#009af9" fill-rule="evenodd" fill-opacity="1"/>
<polyline clip-path="url(#clip472)" style="stroke:#000000; stroke-width:4; stroke-opacity:1; fill:none" points="
  1592.03,1327.04 1592.03,1445.72 1616.66,1445.72 1616.66,1327.04 1592.03,1327.04 
  "/>
<path clip-path="url(#clip472)" d="
M1616.66 1337.52 L1616.66 1445.72 L1641.29 1445.72 L1641.29 1337.52 L1616.66 1337.52 L1616.66 1337.52  Z
  " fill="#009af9" fill-rule="evenodd" fill-opacity="1"/>
<polyline clip-path="url(#clip472)" style="stroke:#000000; stroke-width:4; stroke-opacity:1; fill:none" points="
  1616.66,1337.52 1616.66,1445.72 1641.29,1445.72 1641.29,1337.52 1616.66,1337.52 
  "/>
<path clip-path="url(#clip472)" d="
M1641.29 1367.18 L1641.29 1445.72 L1665.93 1445.72 L1665.93 1367.18 L1641.29 1367.18 L1641.29 1367.18  Z
  " fill="#009af9" fill-rule="evenodd" fill-opacity="1"/>
<polyline clip-path="url(#clip472)" style="stroke:#000000; stroke-width:4; stroke-opacity:1; fill:none" points="
  1641.29,1367.18 1641.29,1445.72 1665.93,1445.72 1665.93,1367.18 1641.29,1367.18 
  "/>
<path clip-path="url(#clip472)" d="
M1665.93 1377.65 L1665.93 1445.72 L1690.56 1445.72 L1690.56 1377.65 L1665.93 1377.65 L1665.93 1377.65  Z
  " fill="#009af9" fill-rule="evenodd" fill-opacity="1"/>
<polyline clip-path="url(#clip472)" style="stroke:#000000; stroke-width:4; stroke-opacity:1; fill:none" points="
  1665.93,1377.65 1665.93,1445.72 1690.56,1445.72 1690.56,1377.65 1665.93,1377.65 
  "/>
<path clip-path="url(#clip472)" d="
M1690.56 1384.63 L1690.56 1445.72 L1715.19 1445.72 L1715.19 1384.63 L1690.56 1384.63 L1690.56 1384.63  Z
  " fill="#009af9" fill-rule="evenodd" fill-opacity="1"/>
<polyline clip-path="url(#clip472)" style="stroke:#000000; stroke-width:4; stroke-opacity:1; fill:none" points="
  1690.56,1384.63 1690.56,1445.72 1715.19,1445.72 1715.19,1384.63 1690.56,1384.63 
  "/>
<path clip-path="url(#clip472)" d="
M1715.19 1388.13 L1715.19 1445.72 L1739.83 1445.72 L1739.83 1388.13 L1715.19 1388.13 L1715.19 1388.13  Z
  " fill="#009af9" fill-rule="evenodd" fill-opacity="1"/>
<polyline clip-path="url(#clip472)" style="stroke:#000000; stroke-width:4; stroke-opacity:1; fill:none" points="
  1715.19,1388.13 1715.19,1445.72 1739.83,1445.72 1739.83,1388.13 1715.19,1388.13 
  "/>
<path clip-path="url(#clip472)" d="
M1739.83 1405.58 L1739.83 1445.72 L1764.46 1445.72 L1764.46 1405.58 L1739.83 1405.58 L1739.83 1405.58  Z
  " fill="#009af9" fill-rule="evenodd" fill-opacity="1"/>
<polyline clip-path="url(#clip472)" style="stroke:#000000; stroke-width:4; stroke-opacity:1; fill:none" points="
  1739.83,1405.58 1739.83,1445.72 1764.46,1445.72 1764.46,1405.58 1739.83,1405.58 
  "/>
<path clip-path="url(#clip472)" d="
M1764.46 1410.81 L1764.46 1445.72 L1789.09 1445.72 L1789.09 1410.81 L1764.46 1410.81 L1764.46 1410.81  Z
  " fill="#009af9" fill-rule="evenodd" fill-opacity="1"/>
<polyline clip-path="url(#clip472)" style="stroke:#000000; stroke-width:4; stroke-opacity:1; fill:none" points="
  1764.46,1410.81 1764.46,1445.72 1789.09,1445.72 1789.09,1410.81 1764.46,1410.81 
  "/>
<path clip-path="url(#clip472)" d="
M1789.09 1414.3 L1789.09 1445.72 L1813.73 1445.72 L1813.73 1414.3 L1789.09 1414.3 L1789.09 1414.3  Z
  " fill="#009af9" fill-rule="evenodd" fill-opacity="1"/>
<polyline clip-path="url(#clip472)" style="stroke:#000000; stroke-width:4; stroke-opacity:1; fill:none" points="
  1789.09,1414.3 1789.09,1445.72 1813.73,1445.72 1813.73,1414.3 1789.09,1414.3 
  "/>
<path clip-path="url(#clip472)" d="
M1813.73 1433.5 L1813.73 1445.72 L1838.36 1445.72 L1838.36 1433.5 L1813.73 1433.5 L1813.73 1433.5  Z
  " fill="#009af9" fill-rule="evenodd" fill-opacity="1"/>
<polyline clip-path="url(#clip472)" style="stroke:#000000; stroke-width:4; stroke-opacity:1; fill:none" points="
  1813.73,1433.5 1813.73,1445.72 1838.36,1445.72 1838.36,1433.5 1813.73,1433.5 
  "/>
<path clip-path="url(#clip472)" d="
M1838.36 1423.03 L1838.36 1445.72 L1862.99 1445.72 L1862.99 1423.03 L1838.36 1423.03 L1838.36 1423.03  Z
  " fill="#009af9" fill-rule="evenodd" fill-opacity="1"/>
<polyline clip-path="url(#clip472)" style="stroke:#000000; stroke-width:4; stroke-opacity:1; fill:none" points="
  1838.36,1423.03 1838.36,1445.72 1862.99,1445.72 1862.99,1423.03 1838.36,1423.03 
  "/>
<path clip-path="url(#clip472)" d="
M1862.99 1426.52 L1862.99 1445.72 L1887.63 1445.72 L1887.63 1426.52 L1862.99 1426.52 L1862.99 1426.52  Z
  " fill="#009af9" fill-rule="evenodd" fill-opacity="1"/>
<polyline clip-path="url(#clip472)" style="stroke:#000000; stroke-width:4; stroke-opacity:1; fill:none" points="
  1862.99,1426.52 1862.99,1445.72 1887.63,1445.72 1887.63,1426.52 1862.99,1426.52 
  "/>
<path clip-path="url(#clip472)" d="
M1887.63 1433.5 L1887.63 1445.72 L1912.26 1445.72 L1912.26 1433.5 L1887.63 1433.5 L1887.63 1433.5  Z
  " fill="#009af9" fill-rule="evenodd" fill-opacity="1"/>
<polyline clip-path="url(#clip472)" style="stroke:#000000; stroke-width:4; stroke-opacity:1; fill:none" points="
  1887.63,1433.5 1887.63,1445.72 1912.26,1445.72 1912.26,1433.5 1887.63,1433.5 
  "/>
<path clip-path="url(#clip472)" d="
M1912.26 1433.5 L1912.26 1445.72 L1936.89 1445.72 L1936.89 1433.5 L1912.26 1433.5 L1912.26 1433.5  Z
  " fill="#009af9" fill-rule="evenodd" fill-opacity="1"/>
<polyline clip-path="url(#clip472)" style="stroke:#000000; stroke-width:4; stroke-opacity:1; fill:none" points="
  1912.26,1433.5 1912.26,1445.72 1936.89,1445.72 1936.89,1433.5 1912.26,1433.5 
  "/>
<path clip-path="url(#clip472)" d="
M1936.89 1442.23 L1936.89 1445.72 L1961.53 1445.72 L1961.53 1442.23 L1936.89 1442.23 L1936.89 1442.23  Z
  " fill="#009af9" fill-rule="evenodd" fill-opacity="1"/>
<polyline clip-path="url(#clip472)" style="stroke:#000000; stroke-width:4; stroke-opacity:1; fill:none" points="
  1936.89,1442.23 1936.89,1445.72 1961.53,1445.72 1961.53,1442.23 1936.89,1442.23 
  "/>
<path clip-path="url(#clip472)" d="
M1961.53 1436.99 L1961.53 1445.72 L1986.16 1445.72 L1986.16 1436.99 L1961.53 1436.99 L1961.53 1436.99  Z
  " fill="#009af9" fill-rule="evenodd" fill-opacity="1"/>
<polyline clip-path="url(#clip472)" style="stroke:#000000; stroke-width:4; stroke-opacity:1; fill:none" points="
  1961.53,1436.99 1961.53,1445.72 1986.16,1445.72 1986.16,1436.99 1961.53,1436.99 
  "/>
<path clip-path="url(#clip472)" d="
M1986.16 1436.99 L1986.16 1445.72 L2010.79 1445.72 L2010.79 1436.99 L1986.16 1436.99 L1986.16 1436.99  Z
  " fill="#009af9" fill-rule="evenodd" fill-opacity="1"/>
<polyline clip-path="url(#clip472)" style="stroke:#000000; stroke-width:4; stroke-opacity:1; fill:none" points="
  1986.16,1436.99 1986.16,1445.72 2010.79,1445.72 2010.79,1436.99 1986.16,1436.99 
  "/>
<path clip-path="url(#clip472)" d="
M2010.79 1442.23 L2010.79 1445.72 L2035.43 1445.72 L2035.43 1442.23 L2010.79 1442.23 L2010.79 1442.23  Z
  " fill="#009af9" fill-rule="evenodd" fill-opacity="1"/>
<polyline clip-path="url(#clip472)" style="stroke:#000000; stroke-width:4; stroke-opacity:1; fill:none" points="
  2010.79,1442.23 2010.79,1445.72 2035.43,1445.72 2035.43,1442.23 2010.79,1442.23 
  "/>
<path clip-path="url(#clip472)" d="
M2035.43 1443.97 L2035.43 1445.72 L2060.06 1445.72 L2060.06 1443.97 L2035.43 1443.97 L2035.43 1443.97  Z
  " fill="#009af9" fill-rule="evenodd" fill-opacity="1"/>
<polyline clip-path="url(#clip472)" style="stroke:#000000; stroke-width:4; stroke-opacity:1; fill:none" points="
  2035.43,1443.97 2035.43,1445.72 2060.06,1445.72 2060.06,1443.97 2035.43,1443.97 
  "/>
<path clip-path="url(#clip472)" d="
M2060.06 1445.72 L2060.06 1445.72 L2084.69 1445.72 L2084.69 1445.72 L2060.06 1445.72 L2060.06 1445.72  Z
  " fill="#009af9" fill-rule="evenodd" fill-opacity="1"/>
<polyline clip-path="url(#clip472)" style="stroke:#000000; stroke-width:4; stroke-opacity:1; fill:none" points="
  2060.06,1445.72 2060.06,1445.72 2084.69,1445.72 2060.06,1445.72 
  "/>
<path clip-path="url(#clip472)" d="
M2084.69 1443.97 L2084.69 1445.72 L2109.33 1445.72 L2109.33 1443.97 L2084.69 1443.97 L2084.69 1443.97  Z
  " fill="#009af9" fill-rule="evenodd" fill-opacity="1"/>
<polyline clip-path="url(#clip472)" style="stroke:#000000; stroke-width:4; stroke-opacity:1; fill:none" points="
  2084.69,1443.97 2084.69,1445.72 2109.33,1445.72 2109.33,1443.97 2084.69,1443.97 
  "/>
<path clip-path="url(#clip472)" d="
M2109.33 1445.72 L2109.33 1445.72 L2133.96 1445.72 L2133.96 1445.72 L2109.33 1445.72 L2109.33 1445.72  Z
  " fill="#009af9" fill-rule="evenodd" fill-opacity="1"/>
<polyline clip-path="url(#clip472)" style="stroke:#000000; stroke-width:4; stroke-opacity:1; fill:none" points="
  2109.33,1445.72 2109.33,1445.72 2133.96,1445.72 2109.33,1445.72 
  "/>
<path clip-path="url(#clip472)" d="
M2133.96 1445.72 L2133.96 1445.72 L2158.59 1445.72 L2158.59 1445.72 L2133.96 1445.72 L2133.96 1445.72  Z
  " fill="#009af9" fill-rule="evenodd" fill-opacity="1"/>
<polyline clip-path="url(#clip472)" style="stroke:#000000; stroke-width:4; stroke-opacity:1; fill:none" points="
  2133.96,1445.72 2133.96,1445.72 2158.59,1445.72 2133.96,1445.72 
  "/>
<path clip-path="url(#clip472)" d="
M2158.59 1445.72 L2158.59 1445.72 L2183.23 1445.72 L2183.23 1445.72 L2158.59 1445.72 L2158.59 1445.72  Z
  " fill="#009af9" fill-rule="evenodd" fill-opacity="1"/>
<polyline clip-path="url(#clip472)" style="stroke:#000000; stroke-width:4; stroke-opacity:1; fill:none" points="
  2158.59,1445.72 2158.59,1445.72 2183.23,1445.72 2158.59,1445.72 
  "/>
<path clip-path="url(#clip472)" d="
M2183.23 1445.72 L2183.23 1445.72 L2207.86 1445.72 L2207.86 1445.72 L2183.23 1445.72 L2183.23 1445.72  Z
  " fill="#009af9" fill-rule="evenodd" fill-opacity="1"/>
<polyline clip-path="url(#clip472)" style="stroke:#000000; stroke-width:4; stroke-opacity:1; fill:none" points="
  2183.23,1445.72 2183.23,1445.72 2207.86,1445.72 2183.23,1445.72 
  "/>
<path clip-path="url(#clip472)" d="
M2207.86 1443.97 L2207.86 1445.72 L2232.49 1445.72 L2232.49 1443.97 L2207.86 1443.97 L2207.86 1443.97  Z
  " fill="#009af9" fill-rule="evenodd" fill-opacity="1"/>
<polyline clip-path="url(#clip472)" style="stroke:#000000; stroke-width:4; stroke-opacity:1; fill:none" points="
  2207.86,1443.97 2207.86,1445.72 2232.49,1445.72 2232.49,1443.97 2207.86,1443.97 
  "/>
<path clip-path="url(#clip470)" d="
M1985.9 216.178 L2279.87 216.178 L2279.87 95.2176 L1985.9 95.2176  Z
  " fill="#ffffff" fill-rule="evenodd" fill-opacity="1"/>
<polyline clip-path="url(#clip470)" style="stroke:#000000; stroke-width:4; stroke-opacity:1; fill:none" points="
  1985.9,216.178 2279.87,216.178 2279.87,95.2176 1985.9,95.2176 1985.9,216.178 
  "/>
<path clip-path="url(#clip470)" d="
M2010.2 179.89 L2155.97 179.89 L2155.97 131.506 L2010.2 131.506 L2010.2 179.89  Z
  " fill="#009af9" fill-rule="evenodd" fill-opacity="1"/>
<polyline clip-path="url(#clip470)" style="stroke:#000000; stroke-width:4; stroke-opacity:1; fill:none" points="
  2010.2,179.89 2155.97,179.89 2155.97,131.506 2010.2,131.506 2010.2,179.89 
  "/>
<path clip-path="url(#clip470)" d="M 0 0 M2194.11 175.385 Q2192.3 180.015 2190.59 181.427 Q2188.87 182.839 2186 182.839 L2182.6 182.839 L2182.6 179.274 L2185.1 179.274 Q2186.86 179.274 2187.83 178.44 Q2188.8 177.607 2189.98 174.505 L2190.75 172.561 L2180.26 147.052 L2184.78 147.052 L2192.88 167.329 L2200.98 147.052 L2205.49 147.052 L2194.11 175.385 Z" fill="#000000" fill-rule="evenodd" fill-opacity="1" /><path clip-path="url(#clip470)" d="M 0 0 M2211.37 169.042 L2219.01 169.042 L2219.01 142.677 L2210.7 144.343 L2210.7 140.084 L2218.97 138.418 L2223.64 138.418 L2223.64 169.042 L2231.28 169.042 L2231.28 172.978 L2211.37 172.978 L2211.37 169.042 Z" fill="#000000" fill-rule="evenodd" fill-opacity="1" /></svg>
