<?xml version="1.0" encoding="utf-8"?>
<svg xmlns="http://www.w3.org/2000/svg" xmlns:xlink="http://www.w3.org/1999/xlink" width="600" height="400" viewBox="0 0 2400 1600">
<defs>
  <clipPath id="clip940">
    <rect x="0" y="0" width="2400" height="1600"/>
  </clipPath>
</defs>
<path clip-path="url(#clip940)" d="
M0 1600 L2400 1600 L2400 0 L0 0  Z
  " fill="#ffffff" fill-rule="evenodd" fill-opacity="1"/>
<defs>
  <clipPath id="clip941">
    <rect x="480" y="0" width="1681" height="1600"/>
  </clipPath>
</defs>
<path clip-path="url(#clip940)" d="
M166.205 1486.45 L2352.76 1486.45 L2352.76 47.2441 L166.205 47.2441  Z
  " fill="#ffffff" fill-rule="evenodd" fill-opacity="1"/>
<defs>
  <clipPath id="clip942">
    <rect x="166" y="47" width="2188" height="1440"/>
  </clipPath>
</defs>
<polyline clip-path="url(#clip942)" style="stroke:#000000; stroke-width:2; stroke-opacity:0.1; fill:none" points="
  429.559,1486.45 429.559,47.2441 
  "/>
<polyline clip-path="url(#clip942)" style="stroke:#000000; stroke-width:2; stroke-opacity:0.1; fill:none" points="
  715.739,1486.45 715.739,47.2441 
  "/>
<polyline clip-path="url(#clip942)" style="stroke:#000000; stroke-width:2; stroke-opacity:0.1; fill:none" points="
  1001.92,1486.45 1001.92,47.2441 
  "/>
<polyline clip-path="url(#clip942)" style="stroke:#000000; stroke-width:2; stroke-opacity:0.1; fill:none" points="
  1288.1,1486.45 1288.1,47.2441 
  "/>
<polyline clip-path="url(#clip942)" style="stroke:#000000; stroke-width:2; stroke-opacity:0.1; fill:none" points="
  1574.28,1486.45 1574.28,47.2441 
  "/>
<polyline clip-path="url(#clip942)" style="stroke:#000000; stroke-width:2; stroke-opacity:0.1; fill:none" points="
  1860.46,1486.45 1860.46,47.2441 
  "/>
<polyline clip-path="url(#clip942)" style="stroke:#000000; stroke-width:2; stroke-opacity:0.1; fill:none" points="
  2146.64,1486.45 2146.64,47.2441 
  "/>
<polyline clip-path="url(#clip942)" style="stroke:#000000; stroke-width:2; stroke-opacity:0.1; fill:none" points="
  166.205,1445.72 2352.76,1445.72 
  "/>
<polyline clip-path="url(#clip942)" style="stroke:#000000; stroke-width:2; stroke-opacity:0.1; fill:none" points="
  166.205,1109.64 2352.76,1109.64 
  "/>
<polyline clip-path="url(#clip942)" style="stroke:#000000; stroke-width:2; stroke-opacity:0.1; fill:none" points="
  166.205,773.567 2352.76,773.567 
  "/>
<polyline clip-path="url(#clip942)" style="stroke:#000000; stroke-width:2; stroke-opacity:0.1; fill:none" points="
  166.205,437.493 2352.76,437.493 
  "/>
<polyline clip-path="url(#clip942)" style="stroke:#000000; stroke-width:2; stroke-opacity:0.1; fill:none" points="
  166.205,101.419 2352.76,101.419 
  "/>
<polyline clip-path="url(#clip940)" style="stroke:#000000; stroke-width:4; stroke-opacity:1; fill:none" points="
  166.205,1486.45 2352.76,1486.45 
  "/>
<polyline clip-path="url(#clip940)" style="stroke:#000000; stroke-width:4; stroke-opacity:1; fill:none" points="
  166.205,1486.45 166.205,47.2441 
  "/>
<polyline clip-path="url(#clip940)" style="stroke:#000000; stroke-width:4; stroke-opacity:1; fill:none" points="
  429.559,1486.45 429.559,1469.18 
  "/>
<polyline clip-path="url(#clip940)" style="stroke:#000000; stroke-width:4; stroke-opacity:1; fill:none" points="
  715.739,1486.45 715.739,1469.18 
  "/>
<polyline clip-path="url(#clip940)" style="stroke:#000000; stroke-width:4; stroke-opacity:1; fill:none" points="
  1001.92,1486.45 1001.92,1469.18 
  "/>
<polyline clip-path="url(#clip940)" style="stroke:#000000; stroke-width:4; stroke-opacity:1; fill:none" points="
  1288.1,1486.45 1288.1,1469.18 
  "/>
<polyline clip-path="url(#clip940)" style="stroke:#000000; stroke-width:4; stroke-opacity:1; fill:none" points="
  1574.28,1486.45 1574.28,1469.18 
  "/>
<polyline clip-path="url(#clip940)" style="stroke:#000000; stroke-width:4; stroke-opacity:1; fill:none" points="
  1860.46,1486.45 1860.46,1469.18 
  "/>
<polyline clip-path="url(#clip940)" style="stroke:#000000; stroke-width:4; stroke-opacity:1; fill:none" points="
  2146.64,1486.45 2146.64,1469.18 
  "/>
<polyline clip-path="url(#clip940)" style="stroke:#000000; stroke-width:4; stroke-opacity:1; fill:none" points="
  166.205,1445.72 192.443,1445.72 
  "/>
<polyline clip-path="url(#clip940)" style="stroke:#000000; stroke-width:4; stroke-opacity:1; fill:none" points="
  166.205,1109.64 192.443,1109.64 
  "/>
<polyline clip-path="url(#clip940)" style="stroke:#000000; stroke-width:4; stroke-opacity:1; fill:none" points="
  166.205,773.567 192.443,773.567 
  "/>
<polyline clip-path="url(#clip940)" style="stroke:#000000; stroke-width:4; stroke-opacity:1; fill:none" points="
  166.205,437.493 192.443,437.493 
  "/>
<polyline clip-path="url(#clip940)" style="stroke:#000000; stroke-width:4; stroke-opacity:1; fill:none" points="
  166.205,101.419 192.443,101.419 
  "/>
<path clip-path="url(#clip940)" d="M 0 0 M401.133 1523.09 L430.809 1523.09 L430.809 1527.03 L401.133 1527.03 L401.133 1523.09 Z" fill="#000000" fill-rule="evenodd" fill-opacity="1" /><path clip-path="url(#clip940)" d="M 0 0 M446.457 1520.78 Q443.309 1520.78 441.457 1522.93 Q439.628 1525.08 439.628 1528.83 Q439.628 1532.56 441.457 1534.73 Q443.309 1536.89 446.457 1536.89 Q449.605 1536.89 451.434 1534.73 Q453.286 1532.56 453.286 1528.83 Q453.286 1525.08 451.434 1522.93 Q449.605 1520.78 446.457 1520.78 M455.739 1506.12 L455.739 1510.38 Q453.98 1509.55 452.174 1509.11 Q450.392 1508.67 448.633 1508.67 Q444.003 1508.67 441.549 1511.8 Q439.119 1514.92 438.772 1521.24 Q440.137 1519.23 442.198 1518.16 Q444.258 1517.07 446.735 1517.07 Q451.943 1517.07 454.952 1520.24 Q457.985 1523.39 457.985 1528.83 Q457.985 1534.16 454.836 1537.37 Q451.688 1540.59 446.457 1540.59 Q440.462 1540.59 437.29 1536.01 Q434.119 1531.4 434.119 1522.67 Q434.119 1514.48 438.008 1509.62 Q441.897 1504.73 448.448 1504.73 Q450.207 1504.73 451.989 1505.08 Q453.795 1505.43 455.739 1506.12 Z" fill="#000000" fill-rule="evenodd" fill-opacity="1" /><path clip-path="url(#clip940)" d="M 0 0 M687.151 1523.09 L716.827 1523.09 L716.827 1527.03 L687.151 1527.03 L687.151 1523.09 Z" fill="#000000" fill-rule="evenodd" fill-opacity="1" /><path clip-path="url(#clip940)" d="M 0 0 M734.743 1509.43 L722.938 1527.88 L734.743 1527.88 L734.743 1509.43 M733.516 1505.36 L739.396 1505.36 L739.396 1527.88 L744.326 1527.88 L744.326 1531.77 L739.396 1531.77 L739.396 1539.92 L734.743 1539.92 L734.743 1531.77 L719.141 1531.77 L719.141 1527.26 L733.516 1505.36 Z" fill="#000000" fill-rule="evenodd" fill-opacity="1" /><path clip-path="url(#clip940)" d="M 0 0 M974.372 1523.09 L1004.05 1523.09 L1004.05 1527.03 L974.372 1527.03 L974.372 1523.09 Z" fill="#000000" fill-rule="evenodd" fill-opacity="1" /><path clip-path="url(#clip940)" d="M 0 0 M1013.15 1535.98 L1029.46 1535.98 L1029.46 1539.92 L1007.52 1539.92 L1007.52 1535.98 Q1010.18 1533.23 1014.77 1528.6 Q1019.37 1523.95 1020.55 1522.61 Q1022.8 1520.08 1023.68 1518.35 Q1024.58 1516.59 1024.58 1514.9 Q1024.58 1512.14 1022.64 1510.41 Q1020.71 1508.67 1017.61 1508.67 Q1015.41 1508.67 1012.96 1509.43 Q1010.53 1510.2 1007.75 1511.75 L1007.75 1507.03 Q1010.58 1505.89 1013.03 1505.31 Q1015.48 1504.73 1017.52 1504.73 Q1022.89 1504.73 1026.08 1507.42 Q1029.28 1510.11 1029.28 1514.6 Q1029.28 1516.73 1028.47 1518.65 Q1027.68 1520.54 1025.58 1523.14 Q1025 1523.81 1021.9 1527.03 Q1018.79 1530.22 1013.15 1535.98 Z" fill="#000000" fill-rule="evenodd" fill-opacity="1" /><path clip-path="url(#clip940)" d="M 0 0 M1288.1 1508.44 Q1284.49 1508.44 1282.66 1512 Q1280.85 1515.55 1280.85 1522.67 Q1280.85 1529.78 1282.66 1533.35 Q1284.49 1536.89 1288.1 1536.89 Q1291.73 1536.89 1293.54 1533.35 Q1295.37 1529.78 1295.37 1522.67 Q1295.37 1515.55 1293.54 1512 Q1291.73 1508.44 1288.1 1508.44 M1288.1 1504.73 Q1293.91 1504.73 1296.96 1509.34 Q1300.04 1513.92 1300.04 1522.67 Q1300.04 1531.4 1296.96 1536.01 Q1293.91 1540.59 1288.1 1540.59 Q1282.29 1540.59 1279.21 1536.01 Q1276.15 1531.4 1276.15 1522.67 Q1276.15 1513.92 1279.21 1509.34 Q1282.29 1504.73 1288.1 1504.73 Z" fill="#000000" fill-rule="evenodd" fill-opacity="1" /><path clip-path="url(#clip940)" d="M 0 0 M1568.93 1535.98 L1585.25 1535.98 L1585.25 1539.92 L1563.31 1539.92 L1563.31 1535.98 Q1565.97 1533.23 1570.55 1528.6 Q1575.16 1523.95 1576.34 1522.61 Q1578.58 1520.08 1579.46 1518.35 Q1580.37 1516.59 1580.37 1514.9 Q1580.37 1512.14 1578.42 1510.41 Q1576.5 1508.67 1573.4 1508.67 Q1571.2 1508.67 1568.75 1509.43 Q1566.32 1510.2 1563.54 1511.75 L1563.54 1507.03 Q1566.36 1505.89 1568.82 1505.31 Q1571.27 1504.73 1573.31 1504.73 Q1578.68 1504.73 1581.87 1507.42 Q1585.07 1510.11 1585.07 1514.6 Q1585.07 1516.73 1584.25 1518.65 Q1583.47 1520.54 1581.36 1523.14 Q1580.78 1523.81 1577.68 1527.03 Q1574.58 1530.22 1568.93 1535.98 Z" fill="#000000" fill-rule="evenodd" fill-opacity="1" /><path clip-path="url(#clip940)" d="M 0 0 M1863.47 1509.43 L1851.66 1527.88 L1863.47 1527.88 L1863.47 1509.43 M1862.24 1505.36 L1868.12 1505.36 L1868.12 1527.88 L1873.05 1527.88 L1873.05 1531.77 L1868.12 1531.77 L1868.12 1539.92 L1863.47 1539.92 L1863.47 1531.77 L1847.87 1531.77 L1847.87 1527.26 L1862.24 1505.36 Z" fill="#000000" fill-rule="evenodd" fill-opacity="1" /><path clip-path="url(#clip940)" d="M 0 0 M2147.04 1520.78 Q2143.89 1520.78 2142.04 1522.93 Q2140.21 1525.08 2140.21 1528.83 Q2140.21 1532.56 2142.04 1534.73 Q2143.89 1536.89 2147.04 1536.89 Q2150.19 1536.89 2152.02 1534.73 Q2153.87 1532.56 2153.87 1528.83 Q2153.87 1525.08 2152.02 1522.93 Q2150.19 1520.78 2147.04 1520.78 M2156.33 1506.12 L2156.33 1510.38 Q2154.57 1509.55 2152.76 1509.11 Q2150.98 1508.67 2149.22 1508.67 Q2144.59 1508.67 2142.14 1511.8 Q2139.7 1514.92 2139.36 1521.24 Q2140.72 1519.23 2142.78 1518.16 Q2144.84 1517.07 2147.32 1517.07 Q2152.53 1517.07 2155.54 1520.24 Q2158.57 1523.39 2158.57 1528.83 Q2158.57 1534.16 2155.42 1537.37 Q2152.27 1540.59 2147.04 1540.59 Q2141.05 1540.59 2137.88 1536.01 Q2134.7 1531.4 2134.7 1522.67 Q2134.7 1514.48 2138.59 1509.62 Q2142.48 1504.73 2149.03 1504.73 Q2150.79 1504.73 2152.58 1505.08 Q2154.38 1505.43 2156.33 1506.12 Z" fill="#000000" fill-rule="evenodd" fill-opacity="1" /><path clip-path="url(#clip940)" d="M 0 0 M130.26 1431.51 Q126.649 1431.51 124.82 1435.08 Q123.015 1438.62 123.015 1445.75 Q123.015 1452.86 124.82 1456.42 Q126.649 1459.96 130.26 1459.96 Q133.895 1459.96 135.7 1456.42 Q137.529 1452.86 137.529 1445.75 Q137.529 1438.62 135.7 1435.08 Q133.895 1431.51 130.26 1431.51 M130.26 1427.81 Q136.07 1427.81 139.126 1432.42 Q142.205 1437 142.205 1445.75 Q142.205 1454.48 139.126 1459.08 Q136.07 1463.67 130.26 1463.67 Q124.45 1463.67 121.371 1459.08 Q118.316 1454.48 118.316 1445.75 Q118.316 1437 121.371 1432.42 Q124.45 1427.81 130.26 1427.81 Z" fill="#000000" fill-rule="evenodd" fill-opacity="1" /><path clip-path="url(#clip940)" d="M 0 0 M71.8578 1122.99 L88.1772 1122.99 L88.1772 1126.92 L66.2328 1126.92 L66.2328 1122.99 Q68.8949 1120.23 73.4782 1115.6 Q78.0846 1110.95 79.2652 1109.61 Q81.5105 1107.08 82.3902 1105.35 Q83.2929 1103.59 83.2929 1101.9 Q83.2929 1099.14 81.3485 1097.41 Q79.4272 1095.67 76.3254 1095.67 Q74.1263 1095.67 71.6726 1096.44 Q69.2421 1097.2 66.4643 1098.75 L66.4643 1094.03 Q69.2884 1092.89 71.7421 1092.32 Q74.1958 1091.74 76.2328 1091.74 Q81.6031 1091.74 84.7976 1094.42 Q87.992 1097.11 87.992 1101.6 Q87.992 1103.73 87.1818 1105.65 Q86.3948 1107.55 84.2883 1110.14 Q83.7096 1110.81 80.6078 1114.03 Q77.5059 1117.22 71.8578 1122.99 Z" fill="#000000" fill-rule="evenodd" fill-opacity="1" /><path clip-path="url(#clip940)" d="M 0 0 M103.247 1095.44 Q99.6354 1095.44 97.8068 1099.01 Q96.0012 1102.55 96.0012 1109.68 Q96.0012 1116.78 97.8068 1120.35 Q99.6354 1123.89 103.247 1123.89 Q106.881 1123.89 108.686 1120.35 Q110.515 1116.78 110.515 1109.68 Q110.515 1102.55 108.686 1099.01 Q106.881 1095.44 103.247 1095.44 M103.247 1091.74 Q109.057 1091.74 112.112 1096.34 Q115.191 1100.93 115.191 1109.68 Q115.191 1118.4 112.112 1123.01 Q109.057 1127.59 103.247 1127.59 Q97.4364 1127.59 94.3577 1123.01 Q91.3022 1118.4 91.3022 1109.68 Q91.3022 1100.93 94.3577 1096.34 Q97.4364 1091.74 103.247 1091.74 Z" fill="#000000" fill-rule="evenodd" fill-opacity="1" /><path clip-path="url(#clip940)" d="M 0 0 M130.26 1095.44 Q126.649 1095.44 124.82 1099.01 Q123.015 1102.55 123.015 1109.68 Q123.015 1116.78 124.82 1120.35 Q126.649 1123.89 130.26 1123.89 Q133.895 1123.89 135.7 1120.35 Q137.529 1116.78 137.529 1109.68 Q137.529 1102.55 135.7 1099.01 Q133.895 1095.44 130.26 1095.44 M130.26 1091.74 Q136.07 1091.74 139.126 1096.34 Q142.205 1100.93 142.205 1109.68 Q142.205 1118.4 139.126 1123.01 Q136.07 1127.59 130.26 1127.59 Q124.45 1127.59 121.371 1123.01 Q118.316 1118.4 118.316 1109.68 Q118.316 1100.93 121.371 1096.34 Q124.45 1091.74 130.26 1091.74 Z" fill="#000000" fill-rule="evenodd" fill-opacity="1" /><path clip-path="url(#clip940)" d="M 0 0 M78.5939 760.362 L66.7884 778.81 L78.5939 778.81 L78.5939 760.362 M77.367 756.287 L83.2466 756.287 L83.2466 778.81 L88.1772 778.81 L88.1772 782.699 L83.2466 782.699 L83.2466 790.847 L78.5939 790.847 L78.5939 782.699 L62.9921 782.699 L62.9921 778.185 L77.367 756.287 Z" fill="#000000" fill-rule="evenodd" fill-opacity="1" /><path clip-path="url(#clip940)" d="M 0 0 M103.247 759.366 Q99.6354 759.366 97.8068 762.931 Q96.0012 766.473 96.0012 773.602 Q96.0012 780.709 97.8068 784.273 Q99.6354 787.815 103.247 787.815 Q106.881 787.815 108.686 784.273 Q110.515 780.709 110.515 773.602 Q110.515 766.473 108.686 762.931 Q106.881 759.366 103.247 759.366 M103.247 755.662 Q109.057 755.662 112.112 760.269 Q115.191 764.852 115.191 773.602 Q115.191 782.329 112.112 786.935 Q109.057 791.519 103.247 791.519 Q97.4364 791.519 94.3577 786.935 Q91.3022 782.329 91.3022 773.602 Q91.3022 764.852 94.3577 760.269 Q97.4364 755.662 103.247 755.662 Z" fill="#000000" fill-rule="evenodd" fill-opacity="1" /><path clip-path="url(#clip940)" d="M 0 0 M130.26 759.366 Q126.649 759.366 124.82 762.931 Q123.015 766.473 123.015 773.602 Q123.015 780.709 124.82 784.273 Q126.649 787.815 130.26 787.815 Q133.895 787.815 135.7 784.273 Q137.529 780.709 137.529 773.602 Q137.529 766.473 135.7 762.931 Q133.895 759.366 130.26 759.366 M130.26 755.662 Q136.07 755.662 139.126 760.269 Q142.205 764.852 142.205 773.602 Q142.205 782.329 139.126 786.935 Q136.07 791.519 130.26 791.519 Q124.45 791.519 121.371 786.935 Q118.316 782.329 118.316 773.602 Q118.316 764.852 121.371 760.269 Q124.45 755.662 130.26 755.662 Z" fill="#000000" fill-rule="evenodd" fill-opacity="1" /><path clip-path="url(#clip940)" d="M 0 0 M76.6495 435.63 Q73.5013 435.63 71.6495 437.783 Q69.8208 439.935 69.8208 443.685 Q69.8208 447.412 71.6495 449.588 Q73.5013 451.741 76.6495 451.741 Q79.7976 451.741 81.6263 449.588 Q83.4781 447.412 83.4781 443.685 Q83.4781 439.935 81.6263 437.783 Q79.7976 435.63 76.6495 435.63 M85.9318 420.977 L85.9318 425.236 Q84.1726 424.403 82.367 423.963 Q80.5846 423.524 78.8254 423.524 Q74.1958 423.524 71.7421 426.649 Q69.3115 429.773 68.9643 436.093 Q70.33 434.079 72.3902 433.014 Q74.4504 431.926 76.9272 431.926 Q82.1355 431.926 85.1448 435.098 Q88.1772 438.246 88.1772 443.685 Q88.1772 449.009 85.029 452.227 Q81.8809 455.445 76.6495 455.445 Q70.6541 455.445 67.4828 450.861 Q64.3116 446.255 64.3116 437.528 Q64.3116 429.334 68.2004 424.473 Q72.0893 419.588 78.6402 419.588 Q80.3994 419.588 82.1818 419.936 Q83.9874 420.283 85.9318 420.977 Z" fill="#000000" fill-rule="evenodd" fill-opacity="1" /><path clip-path="url(#clip940)" d="M 0 0 M103.247 423.292 Q99.6354 423.292 97.8068 426.857 Q96.0012 430.398 96.0012 437.528 Q96.0012 444.635 97.8068 448.199 Q99.6354 451.741 103.247 451.741 Q106.881 451.741 108.686 448.199 Q110.515 444.635 110.515 437.528 Q110.515 430.398 108.686 426.857 Q106.881 423.292 103.247 423.292 M103.247 419.588 Q109.057 419.588 112.112 424.195 Q115.191 428.778 115.191 437.528 Q115.191 446.255 112.112 450.861 Q109.057 455.445 103.247 455.445 Q97.4364 455.445 94.3577 450.861 Q91.3022 446.255 91.3022 437.528 Q91.3022 428.778 94.3577 424.195 Q97.4364 419.588 103.247 419.588 Z" fill="#000000" fill-rule="evenodd" fill-opacity="1" /><path clip-path="url(#clip940)" d="M 0 0 M130.26 423.292 Q126.649 423.292 124.82 426.857 Q123.015 430.398 123.015 437.528 Q123.015 444.635 124.82 448.199 Q126.649 451.741 130.26 451.741 Q133.895 451.741 135.7 448.199 Q137.529 444.635 137.529 437.528 Q137.529 430.398 135.7 426.857 Q133.895 423.292 130.26 423.292 M130.26 419.588 Q136.07 419.588 139.126 424.195 Q142.205 428.778 142.205 437.528 Q142.205 446.255 139.126 450.861 Q136.07 455.445 130.26 455.445 Q124.45 455.445 121.371 450.861 Q118.316 446.255 118.316 437.528 Q118.316 428.778 121.371 424.195 Q124.45 419.588 130.26 419.588 Z" fill="#000000" fill-rule="evenodd" fill-opacity="1" /><path clip-path="url(#clip940)" d="M 0 0 M76.3254 102.287 Q72.9921 102.287 71.0708 104.07 Q69.1726 105.852 69.1726 108.977 Q69.1726 112.102 71.0708 113.884 Q72.9921 115.667 76.3254 115.667 Q79.6587 115.667 81.58 113.884 Q83.5013 112.079 83.5013 108.977 Q83.5013 105.852 81.58 104.07 Q79.6819 102.287 76.3254 102.287 M71.6495 100.297 Q68.6402 99.5558 66.9504 97.4957 Q65.2838 95.4355 65.2838 92.4725 Q65.2838 88.329 68.2236 85.9216 Q71.1865 83.5142 76.3254 83.5142 Q81.4874 83.5142 84.4272 85.9216 Q87.367 88.329 87.367 92.4725 Q87.367 95.4355 85.6772 97.4957 Q84.0105 99.5558 81.0244 100.297 Q84.404 101.084 86.279 103.375 Q88.1772 105.667 88.1772 108.977 Q88.1772 114 85.0985 116.685 Q82.0429 119.371 76.3254 119.371 Q70.6078 119.371 67.5291 116.685 Q64.4736 114 64.4736 108.977 Q64.4736 105.667 66.3717 103.375 Q68.2699 101.084 71.6495 100.297 M69.9365 92.9123 Q69.9365 95.5975 71.6032 97.1021 Q73.293 98.6068 76.3254 98.6068 Q79.3346 98.6068 81.0244 97.1021 Q82.7374 95.5975 82.7374 92.9123 Q82.7374 90.2272 81.0244 88.7226 Q79.3346 87.2179 76.3254 87.2179 Q73.293 87.2179 71.6032 88.7226 Q69.9365 90.2272 69.9365 92.9123 Z" fill="#000000" fill-rule="evenodd" fill-opacity="1" /><path clip-path="url(#clip940)" d="M 0 0 M103.247 87.2179 Q99.6354 87.2179 97.8068 90.7827 Q96.0012 94.3244 96.0012 101.454 Q96.0012 108.56 97.8068 112.125 Q99.6354 115.667 103.247 115.667 Q106.881 115.667 108.686 112.125 Q110.515 108.56 110.515 101.454 Q110.515 94.3244 108.686 90.7827 Q106.881 87.2179 103.247 87.2179 M103.247 83.5142 Q109.057 83.5142 112.112 88.1207 Q115.191 92.704 115.191 101.454 Q115.191 110.181 112.112 114.787 Q109.057 119.371 103.247 119.371 Q97.4364 119.371 94.3577 114.787 Q91.3022 110.181 91.3022 101.454 Q91.3022 92.704 94.3577 88.1207 Q97.4364 83.5142 103.247 83.5142 Z" fill="#000000" fill-rule="evenodd" fill-opacity="1" /><path clip-path="url(#clip940)" d="M 0 0 M130.26 87.2179 Q126.649 87.2179 124.82 90.7827 Q123.015 94.3244 123.015 101.454 Q123.015 108.56 124.82 112.125 Q126.649 115.667 130.26 115.667 Q133.895 115.667 135.7 112.125 Q137.529 108.56 137.529 101.454 Q137.529 94.3244 135.7 90.7827 Q133.895 87.2179 130.26 87.2179 M130.26 83.5142 Q136.07 83.5142 139.126 88.1207 Q142.205 92.704 142.205 101.454 Q142.205 110.181 139.126 114.787 Q136.07 119.371 130.26 119.371 Q124.45 119.371 121.371 114.787 Q118.316 110.181 118.316 101.454 Q118.316 92.704 121.371 88.1207 Q124.45 83.5142 130.26 83.5142 Z" fill="#000000" fill-rule="evenodd" fill-opacity="1" /><path clip-path="url(#clip942)" d="
M286.469 1444.04 L286.469 1445.72 L315.087 1445.72 L315.087 1444.04 L286.469 1444.04 L286.469 1444.04  Z
  " fill="#009af9" fill-rule="evenodd" fill-opacity="1"/>
<polyline clip-path="url(#clip942)" style="stroke:#000000; stroke-width:4; stroke-opacity:1; fill:none" points="
  286.469,1444.04 286.469,1445.72 315.087,1445.72 315.087,1444.04 286.469,1444.04 
  "/>
<path clip-path="url(#clip942)" d="
M315.087 1445.72 L315.087 1445.72 L343.705 1445.72 L343.705 1445.72 L315.087 1445.72 L315.087 1445.72  Z
  " fill="#009af9" fill-rule="evenodd" fill-opacity="1"/>
<polyline clip-path="url(#clip942)" style="stroke:#000000; stroke-width:4; stroke-opacity:1; fill:none" points="
  315.087,1445.72 315.087,1445.72 343.705,1445.72 315.087,1445.72 
  "/>
<path clip-path="url(#clip942)" d="
M343.705 1445.72 L343.705 1445.72 L372.323 1445.72 L372.323 1445.72 L343.705 1445.72 L343.705 1445.72  Z
  " fill="#009af9" fill-rule="evenodd" fill-opacity="1"/>
<polyline clip-path="url(#clip942)" style="stroke:#000000; stroke-width:4; stroke-opacity:1; fill:none" points="
  343.705,1445.72 343.705,1445.72 372.323,1445.72 343.705,1445.72 
  "/>
<path clip-path="url(#clip942)" d="
M372.323 1442.35 L372.323 1445.72 L400.941 1445.72 L400.941 1442.35 L372.323 1442.35 L372.323 1442.35  Z
  " fill="#009af9" fill-rule="evenodd" fill-opacity="1"/>
<polyline clip-path="url(#clip942)" style="stroke:#000000; stroke-width:4; stroke-opacity:1; fill:none" points="
  372.323,1442.35 372.323,1445.72 400.941,1445.72 400.941,1442.35 372.323,1442.35 
  "/>
<path clip-path="url(#clip942)" d="
M400.941 1444.04 L400.941 1445.72 L429.559 1445.72 L429.559 1444.04 L400.941 1444.04 L400.941 1444.04  Z
  " fill="#009af9" fill-rule="evenodd" fill-opacity="1"/>
<polyline clip-path="url(#clip942)" style="stroke:#000000; stroke-width:4; stroke-opacity:1; fill:none" points="
  400.941,1444.04 400.941,1445.72 429.559,1445.72 429.559,1444.04 400.941,1444.04 
  "/>
<path clip-path="url(#clip942)" d="
M429.559 1444.04 L429.559 1445.72 L458.177 1445.72 L458.177 1444.04 L429.559 1444.04 L429.559 1444.04  Z
  " fill="#009af9" fill-rule="evenodd" fill-opacity="1"/>
<polyline clip-path="url(#clip942)" style="stroke:#000000; stroke-width:4; stroke-opacity:1; fill:none" points="
  429.559,1444.04 429.559,1445.72 458.177,1445.72 458.177,1444.04 429.559,1444.04 
  "/>
<path clip-path="url(#clip942)" d="
M458.177 1442.35 L458.177 1445.72 L486.795 1445.72 L486.795 1442.35 L458.177 1442.35 L458.177 1442.35  Z
  " fill="#009af9" fill-rule="evenodd" fill-opacity="1"/>
<polyline clip-path="url(#clip942)" style="stroke:#000000; stroke-width:4; stroke-opacity:1; fill:none" points="
  458.177,1442.35 458.177,1445.72 486.795,1445.72 486.795,1442.35 458.177,1442.35 
  "/>
<path clip-path="url(#clip942)" d="
M486.795 1442.35 L486.795 1445.72 L515.413 1445.72 L515.413 1442.35 L486.795 1442.35 L486.795 1442.35  Z
  " fill="#009af9" fill-rule="evenodd" fill-opacity="1"/>
<polyline clip-path="url(#clip942)" style="stroke:#000000; stroke-width:4; stroke-opacity:1; fill:none" points="
  486.795,1442.35 486.795,1445.72 515.413,1445.72 515.413,1442.35 486.795,1442.35 
  "/>
<path clip-path="url(#clip942)" d="
M515.413 1438.99 L515.413 1445.72 L544.031 1445.72 L544.031 1438.99 L515.413 1438.99 L515.413 1438.99  Z
  " fill="#009af9" fill-rule="evenodd" fill-opacity="1"/>
<polyline clip-path="url(#clip942)" style="stroke:#000000; stroke-width:4; stroke-opacity:1; fill:none" points="
  515.413,1438.99 515.413,1445.72 544.031,1445.72 544.031,1438.99 515.413,1438.99 
  "/>
<path clip-path="url(#clip942)" d="
M544.031 1433.95 L544.031 1445.72 L572.649 1445.72 L572.649 1433.95 L544.031 1433.95 L544.031 1433.95  Z
  " fill="#009af9" fill-rule="evenodd" fill-opacity="1"/>
<polyline clip-path="url(#clip942)" style="stroke:#000000; stroke-width:4; stroke-opacity:1; fill:none" points="
  544.031,1433.95 544.031,1445.72 572.649,1445.72 572.649,1433.95 544.031,1433.95 
  "/>
<path clip-path="url(#clip942)" d="
M572.649 1432.27 L572.649 1445.72 L601.267 1445.72 L601.267 1432.27 L572.649 1432.27 L572.649 1432.27  Z
  " fill="#009af9" fill-rule="evenodd" fill-opacity="1"/>
<polyline clip-path="url(#clip942)" style="stroke:#000000; stroke-width:4; stroke-opacity:1; fill:none" points="
  572.649,1432.27 572.649,1445.72 601.267,1445.72 601.267,1432.27 572.649,1432.27 
  "/>
<path clip-path="url(#clip942)" d="
M601.267 1423.87 L601.267 1445.72 L629.885 1445.72 L629.885 1423.87 L601.267 1423.87 L601.267 1423.87  Z
  " fill="#009af9" fill-rule="evenodd" fill-opacity="1"/>
<polyline clip-path="url(#clip942)" style="stroke:#000000; stroke-width:4; stroke-opacity:1; fill:none" points="
  601.267,1423.87 601.267,1445.72 629.885,1445.72 629.885,1423.87 601.267,1423.87 
  "/>
<path clip-path="url(#clip942)" d="
M629.885 1425.55 L629.885 1445.72 L658.503 1445.72 L658.503 1425.55 L629.885 1425.55 L629.885 1425.55  Z
  " fill="#009af9" fill-rule="evenodd" fill-opacity="1"/>
<polyline clip-path="url(#clip942)" style="stroke:#000000; stroke-width:4; stroke-opacity:1; fill:none" points="
  629.885,1425.55 629.885,1445.72 658.503,1445.72 658.503,1425.55 629.885,1425.55 
  "/>
<path clip-path="url(#clip942)" d="
M658.503 1430.59 L658.503 1445.72 L687.121 1445.72 L687.121 1430.59 L658.503 1430.59 L658.503 1430.59  Z
  " fill="#009af9" fill-rule="evenodd" fill-opacity="1"/>
<polyline clip-path="url(#clip942)" style="stroke:#000000; stroke-width:4; stroke-opacity:1; fill:none" points="
  658.503,1430.59 658.503,1445.72 687.121,1445.72 687.121,1430.59 658.503,1430.59 
  "/>
<path clip-path="url(#clip942)" d="
M687.121 1415.47 L687.121 1445.72 L715.739 1445.72 L715.739 1415.47 L687.121 1415.47 L687.121 1415.47  Z
  " fill="#009af9" fill-rule="evenodd" fill-opacity="1"/>
<polyline clip-path="url(#clip942)" style="stroke:#000000; stroke-width:4; stroke-opacity:1; fill:none" points="
  687.121,1415.47 687.121,1445.72 715.739,1445.72 715.739,1415.47 687.121,1415.47 
  "/>
<path clip-path="url(#clip942)" d="
M715.739 1412.11 L715.739 1445.72 L744.357 1445.72 L744.357 1412.11 L715.739 1412.11 L715.739 1412.11  Z
  " fill="#009af9" fill-rule="evenodd" fill-opacity="1"/>
<polyline clip-path="url(#clip942)" style="stroke:#000000; stroke-width:4; stroke-opacity:1; fill:none" points="
  715.739,1412.11 715.739,1445.72 744.357,1445.72 744.357,1412.11 715.739,1412.11 
  "/>
<path clip-path="url(#clip942)" d="
M744.357 1412.11 L744.357 1445.72 L772.975 1445.72 L772.975 1412.11 L744.357 1412.11 L744.357 1412.11  Z
  " fill="#009af9" fill-rule="evenodd" fill-opacity="1"/>
<polyline clip-path="url(#clip942)" style="stroke:#000000; stroke-width:4; stroke-opacity:1; fill:none" points="
  744.357,1412.11 744.357,1445.72 772.975,1445.72 772.975,1412.11 744.357,1412.11 
  "/>
<path clip-path="url(#clip942)" d="
M772.975 1398.67 L772.975 1445.72 L801.593 1445.72 L801.593 1398.67 L772.975 1398.67 L772.975 1398.67  Z
  " fill="#009af9" fill-rule="evenodd" fill-opacity="1"/>
<polyline clip-path="url(#clip942)" style="stroke:#000000; stroke-width:4; stroke-opacity:1; fill:none" points="
  772.975,1398.67 772.975,1445.72 801.593,1445.72 801.593,1398.67 772.975,1398.67 
  "/>
<path clip-path="url(#clip942)" d="
M801.593 1395.3 L801.593 1445.72 L830.211 1445.72 L830.211 1395.3 L801.593 1395.3 L801.593 1395.3  Z
  " fill="#009af9" fill-rule="evenodd" fill-opacity="1"/>
<polyline clip-path="url(#clip942)" style="stroke:#000000; stroke-width:4; stroke-opacity:1; fill:none" points="
  801.593,1395.3 801.593,1445.72 830.211,1445.72 830.211,1395.3 801.593,1395.3 
  "/>
<path clip-path="url(#clip942)" d="
M830.211 1388.58 L830.211 1445.72 L858.829 1445.72 L858.829 1388.58 L830.211 1388.58 L830.211 1388.58  Z
  " fill="#009af9" fill-rule="evenodd" fill-opacity="1"/>
<polyline clip-path="url(#clip942)" style="stroke:#000000; stroke-width:4; stroke-opacity:1; fill:none" points="
  830.211,1388.58 830.211,1445.72 858.829,1445.72 858.829,1388.58 830.211,1388.58 
  "/>
<path clip-path="url(#clip942)" d="
M858.829 1370.1 L858.829 1445.72 L887.447 1445.72 L887.447 1370.1 L858.829 1370.1 L858.829 1370.1  Z
  " fill="#009af9" fill-rule="evenodd" fill-opacity="1"/>
<polyline clip-path="url(#clip942)" style="stroke:#000000; stroke-width:4; stroke-opacity:1; fill:none" points="
  858.829,1370.1 858.829,1445.72 887.447,1445.72 887.447,1370.1 858.829,1370.1 
  "/>
<path clip-path="url(#clip942)" d="
M887.447 1358.34 L887.447 1445.72 L916.064 1445.72 L916.064 1358.34 L887.447 1358.34 L887.447 1358.34  Z
  " fill="#009af9" fill-rule="evenodd" fill-opacity="1"/>
<polyline clip-path="url(#clip942)" style="stroke:#000000; stroke-width:4; stroke-opacity:1; fill:none" points="
  887.447,1358.34 887.447,1445.72 916.064,1445.72 916.064,1358.34 887.447,1358.34 
  "/>
<path clip-path="url(#clip942)" d="
M916.064 1361.7 L916.064 1445.72 L944.682 1445.72 L944.682 1361.7 L916.064 1361.7 L916.064 1361.7  Z
  " fill="#009af9" fill-rule="evenodd" fill-opacity="1"/>
<polyline clip-path="url(#clip942)" style="stroke:#000000; stroke-width:4; stroke-opacity:1; fill:none" points="
  916.064,1361.7 916.064,1445.72 944.682,1445.72 944.682,1361.7 916.064,1361.7 
  "/>
<path clip-path="url(#clip942)" d="
M944.682 1354.98 L944.682 1445.72 L973.3 1445.72 L973.3 1354.98 L944.682 1354.98 L944.682 1354.98  Z
  " fill="#009af9" fill-rule="evenodd" fill-opacity="1"/>
<polyline clip-path="url(#clip942)" style="stroke:#000000; stroke-width:4; stroke-opacity:1; fill:none" points="
  944.682,1354.98 944.682,1445.72 973.3,1445.72 973.3,1354.98 944.682,1354.98 
  "/>
<path clip-path="url(#clip942)" d="
M973.3 1343.21 L973.3 1445.72 L1001.92 1445.72 L1001.92 1343.21 L973.3 1343.21 L973.3 1343.21  Z
  " fill="#009af9" fill-rule="evenodd" fill-opacity="1"/>
<polyline clip-path="url(#clip942)" style="stroke:#000000; stroke-width:4; stroke-opacity:1; fill:none" points="
  973.3,1343.21 973.3,1445.72 1001.92,1445.72 1001.92,1343.21 973.3,1343.21 
  "/>
<path clip-path="url(#clip942)" d="
M1001.92 1314.65 L1001.92 1445.72 L1030.54 1445.72 L1030.54 1314.65 L1001.92 1314.65 L1001.92 1314.65  Z
  " fill="#009af9" fill-rule="evenodd" fill-opacity="1"/>
<polyline clip-path="url(#clip942)" style="stroke:#000000; stroke-width:4; stroke-opacity:1; fill:none" points="
  1001.92,1314.65 1001.92,1445.72 1030.54,1445.72 1030.54,1314.65 1001.92,1314.65 
  "/>
<path clip-path="url(#clip942)" d="
M1030.54 1302.88 L1030.54 1445.72 L1059.15 1445.72 L1059.15 1302.88 L1030.54 1302.88 L1030.54 1302.88  Z
  " fill="#009af9" fill-rule="evenodd" fill-opacity="1"/>
<polyline clip-path="url(#clip942)" style="stroke:#000000; stroke-width:4; stroke-opacity:1; fill:none" points="
  1030.54,1302.88 1030.54,1445.72 1059.15,1445.72 1059.15,1302.88 1030.54,1302.88 
  "/>
<path clip-path="url(#clip942)" d="
M1059.15 1287.76 L1059.15 1445.72 L1087.77 1445.72 L1087.77 1287.76 L1059.15 1287.76 L1059.15 1287.76  Z
  " fill="#009af9" fill-rule="evenodd" fill-opacity="1"/>
<polyline clip-path="url(#clip942)" style="stroke:#000000; stroke-width:4; stroke-opacity:1; fill:none" points="
  1059.15,1287.76 1059.15,1445.72 1087.77,1445.72 1087.77,1287.76 1059.15,1287.76 
  "/>
<path clip-path="url(#clip942)" d="
M1087.77 1284.4 L1087.77 1445.72 L1116.39 1445.72 L1116.39 1284.4 L1087.77 1284.4 L1087.77 1284.4  Z
  " fill="#009af9" fill-rule="evenodd" fill-opacity="1"/>
<polyline clip-path="url(#clip942)" style="stroke:#000000; stroke-width:4; stroke-opacity:1; fill:none" points="
  1087.77,1284.4 1087.77,1445.72 1116.39,1445.72 1116.39,1284.4 1087.77,1284.4 
  "/>
<path clip-path="url(#clip942)" d="
M1116.39 1265.92 L1116.39 1445.72 L1145.01 1445.72 L1145.01 1265.92 L1116.39 1265.92 L1116.39 1265.92  Z
  " fill="#009af9" fill-rule="evenodd" fill-opacity="1"/>
<polyline clip-path="url(#clip942)" style="stroke:#000000; stroke-width:4; stroke-opacity:1; fill:none" points="
  1116.39,1265.92 1116.39,1445.72 1145.01,1445.72 1145.01,1265.92 1116.39,1265.92 
  "/>
<path clip-path="url(#clip942)" d="
M1145.01 1276 L1145.01 1445.72 L1173.63 1445.72 L1173.63 1276 L1145.01 1276 L1145.01 1276  Z
  " fill="#009af9" fill-rule="evenodd" fill-opacity="1"/>
<polyline clip-path="url(#clip942)" style="stroke:#000000; stroke-width:4; stroke-opacity:1; fill:none" points="
  1145.01,1276 1145.01,1445.72 1173.63,1445.72 1173.63,1276 1145.01,1276 
  "/>
<path clip-path="url(#clip942)" d="
M1173.63 1272.64 L1173.63 1445.72 L1202.24 1445.72 L1202.24 1272.64 L1173.63 1272.64 L1173.63 1272.64  Z
  " fill="#009af9" fill-rule="evenodd" fill-opacity="1"/>
<polyline clip-path="url(#clip942)" style="stroke:#000000; stroke-width:4; stroke-opacity:1; fill:none" points="
  1173.63,1272.64 1173.63,1445.72 1202.24,1445.72 1202.24,1272.64 1173.63,1272.64 
  "/>
<path clip-path="url(#clip942)" d="
M1202.24 1272.64 L1202.24 1445.72 L1230.86 1445.72 L1230.86 1272.64 L1202.24 1272.64 L1202.24 1272.64  Z
  " fill="#009af9" fill-rule="evenodd" fill-opacity="1"/>
<polyline clip-path="url(#clip942)" style="stroke:#000000; stroke-width:4; stroke-opacity:1; fill:none" points="
  1202.24,1272.64 1202.24,1445.72 1230.86,1445.72 1230.86,1272.64 1202.24,1272.64 
  "/>
<path clip-path="url(#clip942)" d="
M1230.86 1239.03 L1230.86 1445.72 L1259.48 1445.72 L1259.48 1239.03 L1230.86 1239.03 L1230.86 1239.03  Z
  " fill="#009af9" fill-rule="evenodd" fill-opacity="1"/>
<polyline clip-path="url(#clip942)" style="stroke:#000000; stroke-width:4; stroke-opacity:1; fill:none" points="
  1230.86,1239.03 1230.86,1445.72 1259.48,1445.72 1259.48,1239.03 1230.86,1239.03 
  "/>
<path clip-path="url(#clip942)" d="
M1259.48 1242.39 L1259.48 1445.72 L1288.1 1445.72 L1288.1 1242.39 L1259.48 1242.39 L1259.48 1242.39  Z
  " fill="#009af9" fill-rule="evenodd" fill-opacity="1"/>
<polyline clip-path="url(#clip942)" style="stroke:#000000; stroke-width:4; stroke-opacity:1; fill:none" points="
  1259.48,1242.39 1259.48,1445.72 1288.1,1445.72 1288.1,1242.39 1259.48,1242.39 
  "/>
<path clip-path="url(#clip942)" d="
M1288.1 1249.11 L1288.1 1445.72 L1316.72 1445.72 L1316.72 1249.11 L1288.1 1249.11 L1288.1 1249.11  Z
  " fill="#009af9" fill-rule="evenodd" fill-opacity="1"/>
<polyline clip-path="url(#clip942)" style="stroke:#000000; stroke-width:4; stroke-opacity:1; fill:none" points="
  1288.1,1249.11 1288.1,1445.72 1316.72,1445.72 1316.72,1249.11 1288.1,1249.11 
  "/>
<path clip-path="url(#clip942)" d="
M1316.72 1233.99 L1316.72 1445.72 L1345.33 1445.72 L1345.33 1233.99 L1316.72 1233.99 L1316.72 1233.99  Z
  " fill="#009af9" fill-rule="evenodd" fill-opacity="1"/>
<polyline clip-path="url(#clip942)" style="stroke:#000000; stroke-width:4; stroke-opacity:1; fill:none" points="
  1316.72,1233.99 1316.72,1445.72 1345.33,1445.72 1345.33,1233.99 1316.72,1233.99 
  "/>
<path clip-path="url(#clip942)" d="
M1345.33 1165.09 L1345.33 1445.72 L1373.95 1445.72 L1373.95 1165.09 L1345.33 1165.09 L1345.33 1165.09  Z
  " fill="#009af9" fill-rule="evenodd" fill-opacity="1"/>
<polyline clip-path="url(#clip942)" style="stroke:#000000; stroke-width:4; stroke-opacity:1; fill:none" points="
  1345.33,1165.09 1345.33,1445.72 1373.95,1445.72 1373.95,1165.09 1345.33,1165.09 
  "/>
<path clip-path="url(#clip942)" d="
M1373.95 834.061 L1373.95 1445.72 L1402.57 1445.72 L1402.57 834.061 L1373.95 834.061 L1373.95 834.061  Z
  " fill="#009af9" fill-rule="evenodd" fill-opacity="1"/>
<polyline clip-path="url(#clip942)" style="stroke:#000000; stroke-width:4; stroke-opacity:1; fill:none" points="
  1373.95,834.061 1373.95,1445.72 1402.57,1445.72 1402.57,834.061 1373.95,834.061 
  "/>
<path clip-path="url(#clip942)" d="
M1402.57 87.9763 L1402.57 1445.72 L1431.19 1445.72 L1431.19 87.9763 L1402.57 87.9763 L1402.57 87.9763  Z
  " fill="#009af9" fill-rule="evenodd" fill-opacity="1"/>
<polyline clip-path="url(#clip942)" style="stroke:#000000; stroke-width:4; stroke-opacity:1; fill:none" points="
  1402.57,87.9763 1402.57,1445.72 1431.19,1445.72 1431.19,87.9763 1402.57,87.9763 
  "/>
<path clip-path="url(#clip942)" d="
M1431.19 155.191 L1431.19 1445.72 L1459.81 1445.72 L1459.81 155.191 L1431.19 155.191 L1431.19 155.191  Z
  " fill="#009af9" fill-rule="evenodd" fill-opacity="1"/>
<polyline clip-path="url(#clip942)" style="stroke:#000000; stroke-width:4; stroke-opacity:1; fill:none" points="
  1431.19,155.191 1431.19,1445.72 1459.81,1445.72 1459.81,155.191 1431.19,155.191 
  "/>
<path clip-path="url(#clip942)" d="
M1459.81 860.947 L1459.81 1445.72 L1488.42 1445.72 L1488.42 860.947 L1459.81 860.947 L1459.81 860.947  Z
  " fill="#009af9" fill-rule="evenodd" fill-opacity="1"/>
<polyline clip-path="url(#clip942)" style="stroke:#000000; stroke-width:4; stroke-opacity:1; fill:none" points="
  1459.81,860.947 1459.81,1445.72 1488.42,1445.72 1488.42,860.947 1459.81,860.947 
  "/>
<path clip-path="url(#clip942)" d="
M1488.42 1218.87 L1488.42 1445.72 L1517.04 1445.72 L1517.04 1218.87 L1488.42 1218.87 L1488.42 1218.87  Z
  " fill="#009af9" fill-rule="evenodd" fill-opacity="1"/>
<polyline clip-path="url(#clip942)" style="stroke:#000000; stroke-width:4; stroke-opacity:1; fill:none" points="
  1488.42,1218.87 1488.42,1445.72 1517.04,1445.72 1517.04,1218.87 1488.42,1218.87 
  "/>
<path clip-path="url(#clip942)" d="
M1517.04 1274.32 L1517.04 1445.72 L1545.66 1445.72 L1545.66 1274.32 L1517.04 1274.32 L1517.04 1274.32  Z
  " fill="#009af9" fill-rule="evenodd" fill-opacity="1"/>
<polyline clip-path="url(#clip942)" style="stroke:#000000; stroke-width:4; stroke-opacity:1; fill:none" points="
  1517.04,1274.32 1517.04,1445.72 1545.66,1445.72 1545.66,1274.32 1517.04,1274.32 
  "/>
<path clip-path="url(#clip942)" d="
M1545.66 1318.01 L1545.66 1445.72 L1574.28 1445.72 L1574.28 1318.01 L1545.66 1318.01 L1545.66 1318.01  Z
  " fill="#009af9" fill-rule="evenodd" fill-opacity="1"/>
<polyline clip-path="url(#clip942)" style="stroke:#000000; stroke-width:4; stroke-opacity:1; fill:none" points="
  1545.66,1318.01 1545.66,1445.72 1574.28,1445.72 1574.28,1318.01 1545.66,1318.01 
  "/>
<path clip-path="url(#clip942)" d="
M1574.28 1333.13 L1574.28 1445.72 L1602.9 1445.72 L1602.9 1333.13 L1574.28 1333.13 L1574.28 1333.13  Z
  " fill="#009af9" fill-rule="evenodd" fill-opacity="1"/>
<polyline clip-path="url(#clip942)" style="stroke:#000000; stroke-width:4; stroke-opacity:1; fill:none" points="
  1574.28,1333.13 1574.28,1445.72 1602.9,1445.72 1602.9,1333.13 1574.28,1333.13 
  "/>
<path clip-path="url(#clip942)" d="
M1602.9 1324.73 L1602.9 1445.72 L1631.51 1445.72 L1631.51 1324.73 L1602.9 1324.73 L1602.9 1324.73  Z
  " fill="#009af9" fill-rule="evenodd" fill-opacity="1"/>
<polyline clip-path="url(#clip942)" style="stroke:#000000; stroke-width:4; stroke-opacity:1; fill:none" points="
  1602.9,1324.73 1602.9,1445.72 1631.51,1445.72 1631.51,1324.73 1602.9,1324.73 
  "/>
<path clip-path="url(#clip942)" d="
M1631.51 1358.34 L1631.51 1445.72 L1660.13 1445.72 L1660.13 1358.34 L1631.51 1358.34 L1631.51 1358.34  Z
  " fill="#009af9" fill-rule="evenodd" fill-opacity="1"/>
<polyline clip-path="url(#clip942)" style="stroke:#000000; stroke-width:4; stroke-opacity:1; fill:none" points="
  1631.51,1358.34 1631.51,1445.72 1660.13,1445.72 1660.13,1358.34 1631.51,1358.34 
  "/>
<path clip-path="url(#clip942)" d="
M1660.13 1343.21 L1660.13 1445.72 L1688.75 1445.72 L1688.75 1343.21 L1660.13 1343.21 L1660.13 1343.21  Z
  " fill="#009af9" fill-rule="evenodd" fill-opacity="1"/>
<polyline clip-path="url(#clip942)" style="stroke:#000000; stroke-width:4; stroke-opacity:1; fill:none" points="
  1660.13,1343.21 1660.13,1445.72 1688.75,1445.72 1688.75,1343.21 1660.13,1343.21 
  "/>
<path clip-path="url(#clip942)" d="
M1688.75 1378.5 L1688.75 1445.72 L1717.37 1445.72 L1717.37 1378.5 L1688.75 1378.5 L1688.75 1378.5  Z
  " fill="#009af9" fill-rule="evenodd" fill-opacity="1"/>
<polyline clip-path="url(#clip942)" style="stroke:#000000; stroke-width:4; stroke-opacity:1; fill:none" points="
  1688.75,1378.5 1688.75,1445.72 1717.37,1445.72 1717.37,1378.5 1688.75,1378.5 
  "/>
<path clip-path="url(#clip942)" d="
M1717.37 1388.58 L1717.37 1445.72 L1745.99 1445.72 L1745.99 1388.58 L1717.37 1388.58 L1717.37 1388.58  Z
  " fill="#009af9" fill-rule="evenodd" fill-opacity="1"/>
<polyline clip-path="url(#clip942)" style="stroke:#000000; stroke-width:4; stroke-opacity:1; fill:none" points="
  1717.37,1388.58 1717.37,1445.72 1745.99,1445.72 1745.99,1388.58 1717.37,1388.58 
  "/>
<path clip-path="url(#clip942)" d="
M1745.99 1395.3 L1745.99 1445.72 L1774.6 1445.72 L1774.6 1395.3 L1745.99 1395.3 L1745.99 1395.3  Z
  " fill="#009af9" fill-rule="evenodd" fill-opacity="1"/>
<polyline clip-path="url(#clip942)" style="stroke:#000000; stroke-width:4; stroke-opacity:1; fill:none" points="
  1745.99,1395.3 1745.99,1445.72 1774.6,1445.72 1774.6,1395.3 1745.99,1395.3 
  "/>
<path clip-path="url(#clip942)" d="
M1774.6 1396.98 L1774.6 1445.72 L1803.22 1445.72 L1803.22 1396.98 L1774.6 1396.98 L1774.6 1396.98  Z
  " fill="#009af9" fill-rule="evenodd" fill-opacity="1"/>
<polyline clip-path="url(#clip942)" style="stroke:#000000; stroke-width:4; stroke-opacity:1; fill:none" points="
  1774.6,1396.98 1774.6,1445.72 1803.22,1445.72 1803.22,1396.98 1774.6,1396.98 
  "/>
<path clip-path="url(#clip942)" d="
M1803.22 1407.07 L1803.22 1445.72 L1831.84 1445.72 L1831.84 1407.07 L1803.22 1407.07 L1803.22 1407.07  Z
  " fill="#009af9" fill-rule="evenodd" fill-opacity="1"/>
<polyline clip-path="url(#clip942)" style="stroke:#000000; stroke-width:4; stroke-opacity:1; fill:none" points="
  1803.22,1407.07 1803.22,1445.72 1831.84,1445.72 1831.84,1407.07 1803.22,1407.07 
  "/>
<path clip-path="url(#clip942)" d="
M1831.84 1417.15 L1831.84 1445.72 L1860.46 1445.72 L1860.46 1417.15 L1831.84 1417.15 L1831.84 1417.15  Z
  " fill="#009af9" fill-rule="evenodd" fill-opacity="1"/>
<polyline clip-path="url(#clip942)" style="stroke:#000000; stroke-width:4; stroke-opacity:1; fill:none" points="
  1831.84,1417.15 1831.84,1445.72 1860.46,1445.72 1860.46,1417.15 1831.84,1417.15 
  "/>
<path clip-path="url(#clip942)" d="
M1860.46 1415.47 L1860.46 1445.72 L1889.08 1445.72 L1889.08 1415.47 L1860.46 1415.47 L1860.46 1415.47  Z
  " fill="#009af9" fill-rule="evenodd" fill-opacity="1"/>
<polyline clip-path="url(#clip942)" style="stroke:#000000; stroke-width:4; stroke-opacity:1; fill:none" points="
  1860.46,1415.47 1860.46,1445.72 1889.08,1445.72 1889.08,1415.47 1860.46,1415.47 
  "/>
<path clip-path="url(#clip942)" d="
M1889.08 1417.15 L1889.08 1445.72 L1917.69 1445.72 L1917.69 1417.15 L1889.08 1417.15 L1889.08 1417.15  Z
  " fill="#009af9" fill-rule="evenodd" fill-opacity="1"/>
<polyline clip-path="url(#clip942)" style="stroke:#000000; stroke-width:4; stroke-opacity:1; fill:none" points="
  1889.08,1417.15 1889.08,1445.72 1917.69,1445.72 1917.69,1417.15 1889.08,1417.15 
  "/>
<path clip-path="url(#clip942)" d="
M1917.69 1423.87 L1917.69 1445.72 L1946.31 1445.72 L1946.31 1423.87 L1917.69 1423.87 L1917.69 1423.87  Z
  " fill="#009af9" fill-rule="evenodd" fill-opacity="1"/>
<polyline clip-path="url(#clip942)" style="stroke:#000000; stroke-width:4; stroke-opacity:1; fill:none" points="
  1917.69,1423.87 1917.69,1445.72 1946.31,1445.72 1946.31,1423.87 1917.69,1423.87 
  "/>
<path clip-path="url(#clip942)" d="
M1946.31 1432.27 L1946.31 1445.72 L1974.93 1445.72 L1974.93 1432.27 L1946.31 1432.27 L1946.31 1432.27  Z
  " fill="#009af9" fill-rule="evenodd" fill-opacity="1"/>
<polyline clip-path="url(#clip942)" style="stroke:#000000; stroke-width:4; stroke-opacity:1; fill:none" points="
  1946.31,1432.27 1946.31,1445.72 1974.93,1445.72 1974.93,1432.27 1946.31,1432.27 
  "/>
<path clip-path="url(#clip942)" d="
M1974.93 1438.99 L1974.93 1445.72 L2003.55 1445.72 L2003.55 1438.99 L1974.93 1438.99 L1974.93 1438.99  Z
  " fill="#009af9" fill-rule="evenodd" fill-opacity="1"/>
<polyline clip-path="url(#clip942)" style="stroke:#000000; stroke-width:4; stroke-opacity:1; fill:none" points="
  1974.93,1438.99 1974.93,1445.72 2003.55,1445.72 2003.55,1438.99 1974.93,1438.99 
  "/>
<path clip-path="url(#clip942)" d="
M2003.55 1435.63 L2003.55 1445.72 L2032.17 1445.72 L2032.17 1435.63 L2003.55 1435.63 L2003.55 1435.63  Z
  " fill="#009af9" fill-rule="evenodd" fill-opacity="1"/>
<polyline clip-path="url(#clip942)" style="stroke:#000000; stroke-width:4; stroke-opacity:1; fill:none" points="
  2003.55,1435.63 2003.55,1445.72 2032.17,1445.72 2032.17,1435.63 2003.55,1435.63 
  "/>
<path clip-path="url(#clip942)" d="
M2032.17 1442.35 L2032.17 1445.72 L2060.78 1445.72 L2060.78 1442.35 L2032.17 1442.35 L2032.17 1442.35  Z
  " fill="#009af9" fill-rule="evenodd" fill-opacity="1"/>
<polyline clip-path="url(#clip942)" style="stroke:#000000; stroke-width:4; stroke-opacity:1; fill:none" points="
  2032.17,1442.35 2032.17,1445.72 2060.78,1445.72 2060.78,1442.35 2032.17,1442.35 
  "/>
<path clip-path="url(#clip942)" d="
M2060.78 1437.31 L2060.78 1445.72 L2089.4 1445.72 L2089.4 1437.31 L2060.78 1437.31 L2060.78 1437.31  Z
  " fill="#009af9" fill-rule="evenodd" fill-opacity="1"/>
<polyline clip-path="url(#clip942)" style="stroke:#000000; stroke-width:4; stroke-opacity:1; fill:none" points="
  2060.78,1437.31 2060.78,1445.72 2089.4,1445.72 2089.4,1437.31 2060.78,1437.31 
  "/>
<path clip-path="url(#clip942)" d="
M2089.4 1440.67 L2089.4 1445.72 L2118.02 1445.72 L2118.02 1440.67 L2089.4 1440.67 L2089.4 1440.67  Z
  " fill="#009af9" fill-rule="evenodd" fill-opacity="1"/>
<polyline clip-path="url(#clip942)" style="stroke:#000000; stroke-width:4; stroke-opacity:1; fill:none" points="
  2089.4,1440.67 2089.4,1445.72 2118.02,1445.72 2118.02,1440.67 2089.4,1440.67 
  "/>
<path clip-path="url(#clip942)" d="
M2118.02 1445.72 L2118.02 1445.72 L2146.64 1445.72 L2146.64 1445.72 L2118.02 1445.72 L2118.02 1445.72  Z
  " fill="#009af9" fill-rule="evenodd" fill-opacity="1"/>
<polyline clip-path="url(#clip942)" style="stroke:#000000; stroke-width:4; stroke-opacity:1; fill:none" points="
  2118.02,1445.72 2118.02,1445.72 2146.64,1445.72 2118.02,1445.72 
  "/>
<path clip-path="url(#clip942)" d="
M2146.64 1444.04 L2146.64 1445.72 L2175.26 1445.72 L2175.26 1444.04 L2146.64 1444.04 L2146.64 1444.04  Z
  " fill="#009af9" fill-rule="evenodd" fill-opacity="1"/>
<polyline clip-path="url(#clip942)" style="stroke:#000000; stroke-width:4; stroke-opacity:1; fill:none" points="
  2146.64,1444.04 2146.64,1445.72 2175.26,1445.72 2175.26,1444.04 2146.64,1444.04 
  "/>
<path clip-path="url(#clip942)" d="
M2175.26 1445.72 L2175.26 1445.72 L2203.87 1445.72 L2203.87 1445.72 L2175.26 1445.72 L2175.26 1445.72  Z
  " fill="#009af9" fill-rule="evenodd" fill-opacity="1"/>
<polyline clip-path="url(#clip942)" style="stroke:#000000; stroke-width:4; stroke-opacity:1; fill:none" points="
  2175.26,1445.72 2175.26,1445.72 2203.87,1445.72 2175.26,1445.72 
  "/>
<path clip-path="url(#clip942)" d="
M2203.87 1442.35 L2203.87 1445.72 L2232.49 1445.72 L2232.49 1442.35 L2203.87 1442.35 L2203.87 1442.35  Z
  " fill="#009af9" fill-rule="evenodd" fill-opacity="1"/>
<polyline clip-path="url(#clip942)" style="stroke:#000000; stroke-width:4; stroke-opacity:1; fill:none" points="
  2203.87,1442.35 2203.87,1445.72 2232.49,1445.72 2232.49,1442.35 2203.87,1442.35 
  "/>
<path clip-path="url(#clip940)" d="
M1985.9 216.178 L2279.87 216.178 L2279.87 95.2176 L1985.9 95.2176  Z
  " fill="#ffffff" fill-rule="evenodd" fill-opacity="1"/>
<polyline clip-path="url(#clip940)" style="stroke:#000000; stroke-width:4; stroke-opacity:1; fill:none" points="
  1985.9,216.178 2279.87,216.178 2279.87,95.2176 1985.9,95.2176 1985.9,216.178 
  "/>
<path clip-path="url(#clip940)" d="
M2010.2 179.89 L2155.97 179.89 L2155.97 131.506 L2010.2 131.506 L2010.2 179.89  Z
  " fill="#009af9" fill-rule="evenodd" fill-opacity="1"/>
<polyline clip-path="url(#clip940)" style="stroke:#000000; stroke-width:4; stroke-opacity:1; fill:none" points="
  2010.2,179.89 2155.97,179.89 2155.97,131.506 2010.2,131.506 2010.2,179.89 
  "/>
<path clip-path="url(#clip940)" d="M 0 0 M2194.11 175.385 Q2192.3 180.015 2190.59 181.427 Q2188.87 182.839 2186 182.839 L2182.6 182.839 L2182.6 179.274 L2185.1 179.274 Q2186.86 179.274 2187.83 178.44 Q2188.8 177.607 2189.98 174.505 L2190.75 172.561 L2180.26 147.052 L2184.78 147.052 L2192.88 167.329 L2200.98 147.052 L2205.49 147.052 L2194.11 175.385 Z" fill="#000000" fill-rule="evenodd" fill-opacity="1" /><path clip-path="url(#clip940)" d="M 0 0 M2211.37 169.042 L2219.01 169.042 L2219.01 142.677 L2210.7 144.343 L2210.7 140.084 L2218.97 138.418 L2223.64 138.418 L2223.64 169.042 L2231.28 169.042 L2231.28 172.978 L2211.37 172.978 L2211.37 169.042 Z" fill="#000000" fill-rule="evenodd" fill-opacity="1" /></svg>
