<?xml version="1.0" encoding="utf-8"?>
<svg xmlns="http://www.w3.org/2000/svg" xmlns:xlink="http://www.w3.org/1999/xlink" width="600" height="400" viewBox="0 0 2400 1600">
<defs>
  <clipPath id="clip940">
    <rect x="0" y="0" width="2400" height="1600"/>
  </clipPath>
</defs>
<path clip-path="url(#clip940)" d="
M0 1600 L2400 1600 L2400 0 L0 0  Z
  " fill="#ffffff" fill-rule="evenodd" fill-opacity="1"/>
<defs>
  <clipPath id="clip941">
    <rect x="480" y="0" width="1681" height="1600"/>
  </clipPath>
</defs>
<path clip-path="url(#clip940)" d="
M166.205 1486.45 L2352.76 1486.45 L2352.76 47.2441 L166.205 47.2441  Z
  " fill="#ffffff" fill-rule="evenodd" fill-opacity="1"/>
<defs>
  <clipPath id="clip942">
    <rect x="166" y="47" width="2188" height="1440"/>
  </clipPath>
</defs>
<polyline clip-path="url(#clip942)" style="stroke:#000000; stroke-width:2; stroke-opacity:0.1; fill:none" points="
  539.199,1486.45 539.199,47.2441 
  "/>
<polyline clip-path="url(#clip942)" style="stroke:#000000; stroke-width:2; stroke-opacity:0.1; fill:none" points="
  918.294,1486.45 918.294,47.2441 
  "/>
<polyline clip-path="url(#clip942)" style="stroke:#000000; stroke-width:2; stroke-opacity:0.1; fill:none" points="
  1297.39,1486.45 1297.39,47.2441 
  "/>
<polyline clip-path="url(#clip942)" style="stroke:#000000; stroke-width:2; stroke-opacity:0.1; fill:none" points="
  1676.49,1486.45 1676.49,47.2441 
  "/>
<polyline clip-path="url(#clip942)" style="stroke:#000000; stroke-width:2; stroke-opacity:0.1; fill:none" points="
  2055.58,1486.45 2055.58,47.2441 
  "/>
<polyline clip-path="url(#clip942)" style="stroke:#000000; stroke-width:2; stroke-opacity:0.1; fill:none" points="
  166.205,1445.72 2352.76,1445.72 
  "/>
<polyline clip-path="url(#clip942)" style="stroke:#000000; stroke-width:2; stroke-opacity:0.1; fill:none" points="
  166.205,1115.77 2352.76,1115.77 
  "/>
<polyline clip-path="url(#clip942)" style="stroke:#000000; stroke-width:2; stroke-opacity:0.1; fill:none" points="
  166.205,785.818 2352.76,785.818 
  "/>
<polyline clip-path="url(#clip942)" style="stroke:#000000; stroke-width:2; stroke-opacity:0.1; fill:none" points="
  166.205,455.869 2352.76,455.869 
  "/>
<polyline clip-path="url(#clip942)" style="stroke:#000000; stroke-width:2; stroke-opacity:0.1; fill:none" points="
  166.205,125.92 2352.76,125.92 
  "/>
<polyline clip-path="url(#clip940)" style="stroke:#000000; stroke-width:4; stroke-opacity:1; fill:none" points="
  166.205,1486.45 2352.76,1486.45 
  "/>
<polyline clip-path="url(#clip940)" style="stroke:#000000; stroke-width:4; stroke-opacity:1; fill:none" points="
  166.205,1486.45 166.205,47.2441 
  "/>
<polyline clip-path="url(#clip940)" style="stroke:#000000; stroke-width:4; stroke-opacity:1; fill:none" points="
  539.199,1486.45 539.199,1469.18 
  "/>
<polyline clip-path="url(#clip940)" style="stroke:#000000; stroke-width:4; stroke-opacity:1; fill:none" points="
  918.294,1486.45 918.294,1469.18 
  "/>
<polyline clip-path="url(#clip940)" style="stroke:#000000; stroke-width:4; stroke-opacity:1; fill:none" points="
  1297.39,1486.45 1297.39,1469.18 
  "/>
<polyline clip-path="url(#clip940)" style="stroke:#000000; stroke-width:4; stroke-opacity:1; fill:none" points="
  1676.49,1486.45 1676.49,1469.18 
  "/>
<polyline clip-path="url(#clip940)" style="stroke:#000000; stroke-width:4; stroke-opacity:1; fill:none" points="
  2055.58,1486.45 2055.58,1469.18 
  "/>
<polyline clip-path="url(#clip940)" style="stroke:#000000; stroke-width:4; stroke-opacity:1; fill:none" points="
  166.205,1445.72 192.443,1445.72 
  "/>
<polyline clip-path="url(#clip940)" style="stroke:#000000; stroke-width:4; stroke-opacity:1; fill:none" points="
  166.205,1115.77 192.443,1115.77 
  "/>
<polyline clip-path="url(#clip940)" style="stroke:#000000; stroke-width:4; stroke-opacity:1; fill:none" points="
  166.205,785.818 192.443,785.818 
  "/>
<polyline clip-path="url(#clip940)" style="stroke:#000000; stroke-width:4; stroke-opacity:1; fill:none" points="
  166.205,455.869 192.443,455.869 
  "/>
<polyline clip-path="url(#clip940)" style="stroke:#000000; stroke-width:4; stroke-opacity:1; fill:none" points="
  166.205,125.92 192.443,125.92 
  "/>
<path clip-path="url(#clip940)" d="M 0 0 M510.773 1523.09 L540.449 1523.09 L540.449 1527.03 L510.773 1527.03 L510.773 1523.09 Z" fill="#000000" fill-rule="evenodd" fill-opacity="1" /><path clip-path="url(#clip940)" d="M 0 0 M556.097 1520.78 Q552.949 1520.78 551.097 1522.93 Q549.269 1525.08 549.269 1528.83 Q549.269 1532.56 551.097 1534.73 Q552.949 1536.89 556.097 1536.89 Q559.245 1536.89 561.074 1534.73 Q562.926 1532.56 562.926 1528.83 Q562.926 1525.08 561.074 1522.93 Q559.245 1520.78 556.097 1520.78 M565.38 1506.12 L565.38 1510.38 Q563.62 1509.55 561.815 1509.11 Q560.032 1508.67 558.273 1508.67 Q553.643 1508.67 551.19 1511.8 Q548.759 1514.92 548.412 1521.24 Q549.778 1519.23 551.838 1518.16 Q553.898 1517.07 556.375 1517.07 Q561.583 1517.07 564.592 1520.24 Q567.625 1523.39 567.625 1528.83 Q567.625 1534.16 564.477 1537.37 Q561.329 1540.59 556.097 1540.59 Q550.102 1540.59 546.931 1536.01 Q543.759 1531.4 543.759 1522.67 Q543.759 1514.48 547.648 1509.62 Q551.537 1504.73 558.088 1504.73 Q559.847 1504.73 561.63 1505.08 Q563.435 1505.43 565.38 1506.12 Z" fill="#000000" fill-rule="evenodd" fill-opacity="1" /><path clip-path="url(#clip940)" d="M 0 0 M890.274 1523.09 L919.95 1523.09 L919.95 1527.03 L890.274 1527.03 L890.274 1523.09 Z" fill="#000000" fill-rule="evenodd" fill-opacity="1" /><path clip-path="url(#clip940)" d="M 0 0 M939.186 1521.29 Q942.542 1522 944.417 1524.27 Q946.315 1526.54 946.315 1529.87 Q946.315 1534.99 942.797 1537.79 Q939.278 1540.59 932.797 1540.59 Q930.621 1540.59 928.306 1540.15 Q926.014 1539.73 923.561 1538.88 L923.561 1534.36 Q925.505 1535.5 927.82 1536.08 Q930.135 1536.66 932.658 1536.66 Q937.056 1536.66 939.348 1534.92 Q941.662 1533.18 941.662 1529.87 Q941.662 1526.82 939.51 1525.11 Q937.38 1523.37 933.561 1523.37 L929.533 1523.37 L929.533 1519.53 L933.746 1519.53 Q937.195 1519.53 939.024 1518.16 Q940.852 1516.77 940.852 1514.18 Q940.852 1511.52 938.954 1510.11 Q937.079 1508.67 933.561 1508.67 Q931.639 1508.67 929.44 1509.09 Q927.241 1509.5 924.602 1510.38 L924.602 1506.22 Q927.264 1505.48 929.579 1505.11 Q931.917 1504.73 933.977 1504.73 Q939.301 1504.73 942.403 1507.17 Q945.505 1509.57 945.505 1513.69 Q945.505 1516.56 943.861 1518.55 Q942.218 1520.52 939.186 1521.29 Z" fill="#000000" fill-rule="evenodd" fill-opacity="1" /><path clip-path="url(#clip940)" d="M 0 0 M1297.39 1508.44 Q1293.78 1508.44 1291.95 1512 Q1290.14 1515.55 1290.14 1522.67 Q1290.14 1529.78 1291.95 1533.35 Q1293.78 1536.89 1297.39 1536.89 Q1301.02 1536.89 1302.83 1533.35 Q1304.66 1529.78 1304.66 1522.67 Q1304.66 1515.55 1302.83 1512 Q1301.02 1508.44 1297.39 1508.44 M1297.39 1504.73 Q1303.2 1504.73 1306.26 1509.34 Q1309.33 1513.92 1309.33 1522.67 Q1309.33 1531.4 1306.26 1536.01 Q1303.2 1540.59 1297.39 1540.59 Q1291.58 1540.59 1288.5 1536.01 Q1285.45 1531.4 1285.45 1522.67 Q1285.45 1513.92 1288.5 1509.34 Q1291.58 1504.73 1297.39 1504.73 Z" fill="#000000" fill-rule="evenodd" fill-opacity="1" /><path clip-path="url(#clip940)" d="M 0 0 M1680.73 1521.29 Q1684.09 1522 1685.96 1524.27 Q1687.86 1526.54 1687.86 1529.87 Q1687.86 1534.99 1684.34 1537.79 Q1680.83 1540.59 1674.34 1540.59 Q1672.17 1540.59 1669.85 1540.15 Q1667.56 1539.73 1665.11 1538.88 L1665.11 1534.36 Q1667.05 1535.5 1669.37 1536.08 Q1671.68 1536.66 1674.21 1536.66 Q1678.6 1536.66 1680.89 1534.92 Q1683.21 1533.18 1683.21 1529.87 Q1683.21 1526.82 1681.06 1525.11 Q1678.93 1523.37 1675.11 1523.37 L1671.08 1523.37 L1671.08 1519.53 L1675.29 1519.53 Q1678.74 1519.53 1680.57 1518.16 Q1682.4 1516.77 1682.4 1514.18 Q1682.4 1511.52 1680.5 1510.11 Q1678.63 1508.67 1675.11 1508.67 Q1673.19 1508.67 1670.99 1509.09 Q1668.79 1509.5 1666.15 1510.38 L1666.15 1506.22 Q1668.81 1505.48 1671.13 1505.11 Q1673.46 1504.73 1675.52 1504.73 Q1680.85 1504.73 1683.95 1507.17 Q1687.05 1509.57 1687.05 1513.69 Q1687.05 1516.56 1685.41 1518.55 Q1683.77 1520.52 1680.73 1521.29 Z" fill="#000000" fill-rule="evenodd" fill-opacity="1" /><path clip-path="url(#clip940)" d="M 0 0 M2055.99 1520.78 Q2052.84 1520.78 2050.99 1522.93 Q2049.16 1525.08 2049.16 1528.83 Q2049.16 1532.56 2050.99 1534.73 Q2052.84 1536.89 2055.99 1536.89 Q2059.13 1536.89 2060.96 1534.73 Q2062.81 1532.56 2062.81 1528.83 Q2062.81 1525.08 2060.96 1522.93 Q2059.13 1520.78 2055.99 1520.78 M2065.27 1506.12 L2065.27 1510.38 Q2063.51 1509.55 2061.7 1509.11 Q2059.92 1508.67 2058.16 1508.67 Q2053.53 1508.67 2051.08 1511.8 Q2048.65 1514.92 2048.3 1521.24 Q2049.67 1519.23 2051.73 1518.16 Q2053.79 1517.07 2056.26 1517.07 Q2061.47 1517.07 2064.48 1520.24 Q2067.51 1523.39 2067.51 1528.83 Q2067.51 1534.16 2064.37 1537.37 Q2061.22 1540.59 2055.99 1540.59 Q2049.99 1540.59 2046.82 1536.01 Q2043.65 1531.4 2043.65 1522.67 Q2043.65 1514.48 2047.54 1509.62 Q2051.43 1504.73 2057.98 1504.73 Q2059.74 1504.73 2061.52 1505.08 Q2063.32 1505.43 2065.27 1506.12 Z" fill="#000000" fill-rule="evenodd" fill-opacity="1" /><path clip-path="url(#clip940)" d="M 0 0 M130.26 1431.51 Q126.649 1431.51 124.82 1435.08 Q123.015 1438.62 123.015 1445.75 Q123.015 1452.86 124.82 1456.42 Q126.649 1459.96 130.26 1459.96 Q133.895 1459.96 135.7 1456.42 Q137.529 1452.86 137.529 1445.75 Q137.529 1438.62 135.7 1435.08 Q133.895 1431.51 130.26 1431.51 M130.26 1427.81 Q136.07 1427.81 139.126 1432.42 Q142.205 1437 142.205 1445.75 Q142.205 1454.48 139.126 1459.08 Q136.07 1463.67 130.26 1463.67 Q124.45 1463.67 121.371 1459.08 Q118.316 1454.48 118.316 1445.75 Q118.316 1437 121.371 1432.42 Q124.45 1427.81 130.26 1427.81 Z" fill="#000000" fill-rule="evenodd" fill-opacity="1" /><path clip-path="url(#clip940)" d="M 0 0 M71.8578 1129.11 L88.1772 1129.11 L88.1772 1133.05 L66.2328 1133.05 L66.2328 1129.11 Q68.8949 1126.36 73.4782 1121.73 Q78.0846 1117.07 79.2652 1115.73 Q81.5105 1113.21 82.3902 1111.47 Q83.2929 1109.71 83.2929 1108.02 Q83.2929 1105.27 81.3485 1103.53 Q79.4272 1101.8 76.3254 1101.8 Q74.1263 1101.8 71.6726 1102.56 Q69.2421 1103.32 66.4643 1104.88 L66.4643 1100.15 Q69.2884 1099.02 71.7421 1098.44 Q74.1958 1097.86 76.2328 1097.86 Q81.6031 1097.86 84.7976 1100.55 Q87.992 1103.23 87.992 1107.72 Q87.992 1109.85 87.1818 1111.77 Q86.3948 1113.67 84.2883 1116.26 Q83.7096 1116.94 80.6078 1120.15 Q77.5059 1123.35 71.8578 1129.11 Z" fill="#000000" fill-rule="evenodd" fill-opacity="1" /><path clip-path="url(#clip940)" d="M 0 0 M103.247 1101.57 Q99.6354 1101.57 97.8068 1105.13 Q96.0012 1108.67 96.0012 1115.8 Q96.0012 1122.91 97.8068 1126.47 Q99.6354 1130.01 103.247 1130.01 Q106.881 1130.01 108.686 1126.47 Q110.515 1122.91 110.515 1115.8 Q110.515 1108.67 108.686 1105.13 Q106.881 1101.57 103.247 1101.57 M103.247 1097.86 Q109.057 1097.86 112.112 1102.47 Q115.191 1107.05 115.191 1115.8 Q115.191 1124.53 112.112 1129.13 Q109.057 1133.72 103.247 1133.72 Q97.4364 1133.72 94.3577 1129.13 Q91.3022 1124.53 91.3022 1115.8 Q91.3022 1107.05 94.3577 1102.47 Q97.4364 1097.86 103.247 1097.86 Z" fill="#000000" fill-rule="evenodd" fill-opacity="1" /><path clip-path="url(#clip940)" d="M 0 0 M130.26 1101.57 Q126.649 1101.57 124.82 1105.13 Q123.015 1108.67 123.015 1115.8 Q123.015 1122.91 124.82 1126.47 Q126.649 1130.01 130.26 1130.01 Q133.895 1130.01 135.7 1126.47 Q137.529 1122.91 137.529 1115.8 Q137.529 1108.67 135.7 1105.13 Q133.895 1101.57 130.26 1101.57 M130.26 1097.86 Q136.07 1097.86 139.126 1102.47 Q142.205 1107.05 142.205 1115.8 Q142.205 1124.53 139.126 1129.13 Q136.07 1133.72 130.26 1133.72 Q124.45 1133.72 121.371 1129.13 Q118.316 1124.53 118.316 1115.8 Q118.316 1107.05 121.371 1102.47 Q124.45 1097.86 130.26 1097.86 Z" fill="#000000" fill-rule="evenodd" fill-opacity="1" /><path clip-path="url(#clip940)" d="M 0 0 M78.5939 772.612 L66.7884 791.061 L78.5939 791.061 L78.5939 772.612 M77.367 768.538 L83.2466 768.538 L83.2466 791.061 L88.1772 791.061 L88.1772 794.95 L83.2466 794.95 L83.2466 803.098 L78.5939 803.098 L78.5939 794.95 L62.9921 794.95 L62.9921 790.436 L77.367 768.538 Z" fill="#000000" fill-rule="evenodd" fill-opacity="1" /><path clip-path="url(#clip940)" d="M 0 0 M103.247 771.617 Q99.6354 771.617 97.8068 775.182 Q96.0012 778.723 96.0012 785.853 Q96.0012 792.959 97.8068 796.524 Q99.6354 800.066 103.247 800.066 Q106.881 800.066 108.686 796.524 Q110.515 792.959 110.515 785.853 Q110.515 778.723 108.686 775.182 Q106.881 771.617 103.247 771.617 M103.247 767.913 Q109.057 767.913 112.112 772.52 Q115.191 777.103 115.191 785.853 Q115.191 794.58 112.112 799.186 Q109.057 803.769 103.247 803.769 Q97.4364 803.769 94.3577 799.186 Q91.3022 794.58 91.3022 785.853 Q91.3022 777.103 94.3577 772.52 Q97.4364 767.913 103.247 767.913 Z" fill="#000000" fill-rule="evenodd" fill-opacity="1" /><path clip-path="url(#clip940)" d="M 0 0 M130.26 771.617 Q126.649 771.617 124.82 775.182 Q123.015 778.723 123.015 785.853 Q123.015 792.959 124.82 796.524 Q126.649 800.066 130.26 800.066 Q133.895 800.066 135.7 796.524 Q137.529 792.959 137.529 785.853 Q137.529 778.723 135.7 775.182 Q133.895 771.617 130.26 771.617 M130.26 767.913 Q136.07 767.913 139.126 772.52 Q142.205 777.103 142.205 785.853 Q142.205 794.58 139.126 799.186 Q136.07 803.769 130.26 803.769 Q124.45 803.769 121.371 799.186 Q118.316 794.58 118.316 785.853 Q118.316 777.103 121.371 772.52 Q124.45 767.913 130.26 767.913 Z" fill="#000000" fill-rule="evenodd" fill-opacity="1" /><path clip-path="url(#clip940)" d="M 0 0 M76.6495 454.006 Q73.5013 454.006 71.6495 456.159 Q69.8208 458.311 69.8208 462.061 Q69.8208 465.788 71.6495 467.964 Q73.5013 470.117 76.6495 470.117 Q79.7976 470.117 81.6263 467.964 Q83.4781 465.788 83.4781 462.061 Q83.4781 458.311 81.6263 456.159 Q79.7976 454.006 76.6495 454.006 M85.9318 439.353 L85.9318 443.612 Q84.1726 442.779 82.367 442.339 Q80.5846 441.899 78.8254 441.899 Q74.1958 441.899 71.7421 445.024 Q69.3115 448.149 68.9643 454.469 Q70.33 452.455 72.3902 451.39 Q74.4504 450.302 76.9272 450.302 Q82.1355 450.302 85.1448 453.473 Q88.1772 456.622 88.1772 462.061 Q88.1772 467.385 85.029 470.603 Q81.8809 473.821 76.6495 473.821 Q70.6541 473.821 67.4828 469.237 Q64.3116 464.631 64.3116 455.904 Q64.3116 447.71 68.2004 442.848 Q72.0893 437.964 78.6402 437.964 Q80.3994 437.964 82.1818 438.311 Q83.9874 438.659 85.9318 439.353 Z" fill="#000000" fill-rule="evenodd" fill-opacity="1" /><path clip-path="url(#clip940)" d="M 0 0 M103.247 441.668 Q99.6354 441.668 97.8068 445.233 Q96.0012 448.774 96.0012 455.904 Q96.0012 463.01 97.8068 466.575 Q99.6354 470.117 103.247 470.117 Q106.881 470.117 108.686 466.575 Q110.515 463.01 110.515 455.904 Q110.515 448.774 108.686 445.233 Q106.881 441.668 103.247 441.668 M103.247 437.964 Q109.057 437.964 112.112 442.571 Q115.191 447.154 115.191 455.904 Q115.191 464.631 112.112 469.237 Q109.057 473.821 103.247 473.821 Q97.4364 473.821 94.3577 469.237 Q91.3022 464.631 91.3022 455.904 Q91.3022 447.154 94.3577 442.571 Q97.4364 437.964 103.247 437.964 Z" fill="#000000" fill-rule="evenodd" fill-opacity="1" /><path clip-path="url(#clip940)" d="M 0 0 M130.26 441.668 Q126.649 441.668 124.82 445.233 Q123.015 448.774 123.015 455.904 Q123.015 463.01 124.82 466.575 Q126.649 470.117 130.26 470.117 Q133.895 470.117 135.7 466.575 Q137.529 463.01 137.529 455.904 Q137.529 448.774 135.7 445.233 Q133.895 441.668 130.26 441.668 M130.26 437.964 Q136.07 437.964 139.126 442.571 Q142.205 447.154 142.205 455.904 Q142.205 464.631 139.126 469.237 Q136.07 473.821 130.26 473.821 Q124.45 473.821 121.371 469.237 Q118.316 464.631 118.316 455.904 Q118.316 447.154 121.371 442.571 Q124.45 437.964 130.26 437.964 Z" fill="#000000" fill-rule="evenodd" fill-opacity="1" /><path clip-path="url(#clip940)" d="M 0 0 M76.3254 126.788 Q72.9921 126.788 71.0708 128.571 Q69.1726 130.353 69.1726 133.478 Q69.1726 136.603 71.0708 138.386 Q72.9921 140.168 76.3254 140.168 Q79.6587 140.168 81.58 138.386 Q83.5013 136.58 83.5013 133.478 Q83.5013 130.353 81.58 128.571 Q79.6819 126.788 76.3254 126.788 M71.6495 124.798 Q68.6402 124.057 66.9504 121.997 Q65.2838 119.937 65.2838 116.974 Q65.2838 112.83 68.2236 110.423 Q71.1865 108.015 76.3254 108.015 Q81.4874 108.015 84.4272 110.423 Q87.367 112.83 87.367 116.974 Q87.367 119.937 85.6772 121.997 Q84.0105 124.057 81.0244 124.798 Q84.404 125.585 86.279 127.876 Q88.1772 130.168 88.1772 133.478 Q88.1772 138.501 85.0985 141.187 Q82.0429 143.872 76.3254 143.872 Q70.6078 143.872 67.5291 141.187 Q64.4736 138.501 64.4736 133.478 Q64.4736 130.168 66.3717 127.876 Q68.2699 125.585 71.6495 124.798 M69.9365 117.413 Q69.9365 120.099 71.6032 121.603 Q73.293 123.108 76.3254 123.108 Q79.3346 123.108 81.0244 121.603 Q82.7374 120.099 82.7374 117.413 Q82.7374 114.728 81.0244 113.224 Q79.3346 111.719 76.3254 111.719 Q73.293 111.719 71.6032 113.224 Q69.9365 114.728 69.9365 117.413 Z" fill="#000000" fill-rule="evenodd" fill-opacity="1" /><path clip-path="url(#clip940)" d="M 0 0 M103.247 111.719 Q99.6354 111.719 97.8068 115.284 Q96.0012 118.826 96.0012 125.955 Q96.0012 133.062 97.8068 136.626 Q99.6354 140.168 103.247 140.168 Q106.881 140.168 108.686 136.626 Q110.515 133.062 110.515 125.955 Q110.515 118.826 108.686 115.284 Q106.881 111.719 103.247 111.719 M103.247 108.015 Q109.057 108.015 112.112 112.622 Q115.191 117.205 115.191 125.955 Q115.191 134.682 112.112 139.288 Q109.057 143.872 103.247 143.872 Q97.4364 143.872 94.3577 139.288 Q91.3022 134.682 91.3022 125.955 Q91.3022 117.205 94.3577 112.622 Q97.4364 108.015 103.247 108.015 Z" fill="#000000" fill-rule="evenodd" fill-opacity="1" /><path clip-path="url(#clip940)" d="M 0 0 M130.26 111.719 Q126.649 111.719 124.82 115.284 Q123.015 118.826 123.015 125.955 Q123.015 133.062 124.82 136.626 Q126.649 140.168 130.26 140.168 Q133.895 140.168 135.7 136.626 Q137.529 133.062 137.529 125.955 Q137.529 118.826 135.7 115.284 Q133.895 111.719 130.26 111.719 M130.26 108.015 Q136.07 108.015 139.126 112.622 Q142.205 117.205 142.205 125.955 Q142.205 134.682 139.126 139.288 Q136.07 143.872 130.26 143.872 Q124.45 143.872 121.371 139.288 Q118.316 134.682 118.316 125.955 Q118.316 117.205 121.371 112.622 Q124.45 108.015 130.26 108.015 Z" fill="#000000" fill-rule="evenodd" fill-opacity="1" /><path clip-path="url(#clip942)" d="
M286.469 1444.07 L286.469 1445.72 L311.742 1445.72 L311.742 1444.07 L286.469 1444.07 L286.469 1444.07  Z
  " fill="#009af9" fill-rule="evenodd" fill-opacity="1"/>
<polyline clip-path="url(#clip942)" style="stroke:#000000; stroke-width:4; stroke-opacity:1; fill:none" points="
  286.469,1444.07 286.469,1445.72 311.742,1445.72 311.742,1444.07 286.469,1444.07 
  "/>
<path clip-path="url(#clip942)" d="
M311.742 1445.72 L311.742 1445.72 L337.015 1445.72 L337.015 1445.72 L311.742 1445.72 L311.742 1445.72  Z
  " fill="#009af9" fill-rule="evenodd" fill-opacity="1"/>
<polyline clip-path="url(#clip942)" style="stroke:#000000; stroke-width:4; stroke-opacity:1; fill:none" points="
  311.742,1445.72 311.742,1445.72 337.015,1445.72 311.742,1445.72 
  "/>
<path clip-path="url(#clip942)" d="
M337.015 1445.72 L337.015 1445.72 L362.288 1445.72 L362.288 1445.72 L337.015 1445.72 L337.015 1445.72  Z
  " fill="#009af9" fill-rule="evenodd" fill-opacity="1"/>
<polyline clip-path="url(#clip942)" style="stroke:#000000; stroke-width:4; stroke-opacity:1; fill:none" points="
  337.015,1445.72 337.015,1445.72 362.288,1445.72 337.015,1445.72 
  "/>
<path clip-path="url(#clip942)" d="
M362.288 1445.72 L362.288 1445.72 L387.561 1445.72 L387.561 1445.72 L362.288 1445.72 L362.288 1445.72  Z
  " fill="#009af9" fill-rule="evenodd" fill-opacity="1"/>
<polyline clip-path="url(#clip942)" style="stroke:#000000; stroke-width:4; stroke-opacity:1; fill:none" points="
  362.288,1445.72 362.288,1445.72 387.561,1445.72 362.288,1445.72 
  "/>
<path clip-path="url(#clip942)" d="
M387.561 1444.07 L387.561 1445.72 L412.834 1445.72 L412.834 1444.07 L387.561 1444.07 L387.561 1444.07  Z
  " fill="#009af9" fill-rule="evenodd" fill-opacity="1"/>
<polyline clip-path="url(#clip942)" style="stroke:#000000; stroke-width:4; stroke-opacity:1; fill:none" points="
  387.561,1444.07 387.561,1445.72 412.834,1445.72 412.834,1444.07 387.561,1444.07 
  "/>
<path clip-path="url(#clip942)" d="
M412.834 1442.42 L412.834 1445.72 L438.107 1445.72 L438.107 1442.42 L412.834 1442.42 L412.834 1442.42  Z
  " fill="#009af9" fill-rule="evenodd" fill-opacity="1"/>
<polyline clip-path="url(#clip942)" style="stroke:#000000; stroke-width:4; stroke-opacity:1; fill:none" points="
  412.834,1442.42 412.834,1445.72 438.107,1445.72 438.107,1442.42 412.834,1442.42 
  "/>
<path clip-path="url(#clip942)" d="
M438.107 1444.07 L438.107 1445.72 L463.38 1445.72 L463.38 1444.07 L438.107 1444.07 L438.107 1444.07  Z
  " fill="#009af9" fill-rule="evenodd" fill-opacity="1"/>
<polyline clip-path="url(#clip942)" style="stroke:#000000; stroke-width:4; stroke-opacity:1; fill:none" points="
  438.107,1444.07 438.107,1445.72 463.38,1445.72 463.38,1444.07 438.107,1444.07 
  "/>
<path clip-path="url(#clip942)" d="
M463.38 1442.42 L463.38 1445.72 L488.653 1445.72 L488.653 1442.42 L463.38 1442.42 L463.38 1442.42  Z
  " fill="#009af9" fill-rule="evenodd" fill-opacity="1"/>
<polyline clip-path="url(#clip942)" style="stroke:#000000; stroke-width:4; stroke-opacity:1; fill:none" points="
  463.38,1442.42 463.38,1445.72 488.653,1445.72 488.653,1442.42 463.38,1442.42 
  "/>
<path clip-path="url(#clip942)" d="
M488.653 1444.07 L488.653 1445.72 L513.926 1445.72 L513.926 1444.07 L488.653 1444.07 L488.653 1444.07  Z
  " fill="#009af9" fill-rule="evenodd" fill-opacity="1"/>
<polyline clip-path="url(#clip942)" style="stroke:#000000; stroke-width:4; stroke-opacity:1; fill:none" points="
  488.653,1444.07 488.653,1445.72 513.926,1445.72 513.926,1444.07 488.653,1444.07 
  "/>
<path clip-path="url(#clip942)" d="
M513.926 1442.42 L513.926 1445.72 L539.199 1445.72 L539.199 1442.42 L513.926 1442.42 L513.926 1442.42  Z
  " fill="#009af9" fill-rule="evenodd" fill-opacity="1"/>
<polyline clip-path="url(#clip942)" style="stroke:#000000; stroke-width:4; stroke-opacity:1; fill:none" points="
  513.926,1442.42 513.926,1445.72 539.199,1445.72 539.199,1442.42 513.926,1442.42 
  "/>
<path clip-path="url(#clip942)" d="
M539.199 1445.72 L539.199 1445.72 L564.472 1445.72 L564.472 1445.72 L539.199 1445.72 L539.199 1445.72  Z
  " fill="#009af9" fill-rule="evenodd" fill-opacity="1"/>
<polyline clip-path="url(#clip942)" style="stroke:#000000; stroke-width:4; stroke-opacity:1; fill:none" points="
  539.199,1445.72 539.199,1445.72 564.472,1445.72 539.199,1445.72 
  "/>
<path clip-path="url(#clip942)" d="
M564.472 1442.42 L564.472 1445.72 L589.745 1445.72 L589.745 1442.42 L564.472 1442.42 L564.472 1442.42  Z
  " fill="#009af9" fill-rule="evenodd" fill-opacity="1"/>
<polyline clip-path="url(#clip942)" style="stroke:#000000; stroke-width:4; stroke-opacity:1; fill:none" points="
  564.472,1442.42 564.472,1445.72 589.745,1445.72 589.745,1442.42 564.472,1442.42 
  "/>
<path clip-path="url(#clip942)" d="
M589.745 1437.47 L589.745 1445.72 L615.018 1445.72 L615.018 1437.47 L589.745 1437.47 L589.745 1437.47  Z
  " fill="#009af9" fill-rule="evenodd" fill-opacity="1"/>
<polyline clip-path="url(#clip942)" style="stroke:#000000; stroke-width:4; stroke-opacity:1; fill:none" points="
  589.745,1437.47 589.745,1445.72 615.018,1445.72 615.018,1437.47 589.745,1437.47 
  "/>
<path clip-path="url(#clip942)" d="
M615.018 1439.12 L615.018 1445.72 L640.291 1445.72 L640.291 1439.12 L615.018 1439.12 L615.018 1439.12  Z
  " fill="#009af9" fill-rule="evenodd" fill-opacity="1"/>
<polyline clip-path="url(#clip942)" style="stroke:#000000; stroke-width:4; stroke-opacity:1; fill:none" points="
  615.018,1439.12 615.018,1445.72 640.291,1445.72 640.291,1439.12 615.018,1439.12 
  "/>
<path clip-path="url(#clip942)" d="
M640.291 1444.07 L640.291 1445.72 L665.564 1445.72 L665.564 1444.07 L640.291 1444.07 L640.291 1444.07  Z
  " fill="#009af9" fill-rule="evenodd" fill-opacity="1"/>
<polyline clip-path="url(#clip942)" style="stroke:#000000; stroke-width:4; stroke-opacity:1; fill:none" points="
  640.291,1444.07 640.291,1445.72 665.564,1445.72 665.564,1444.07 640.291,1444.07 
  "/>
<path clip-path="url(#clip942)" d="
M665.564 1442.42 L665.564 1445.72 L690.837 1445.72 L690.837 1442.42 L665.564 1442.42 L665.564 1442.42  Z
  " fill="#009af9" fill-rule="evenodd" fill-opacity="1"/>
<polyline clip-path="url(#clip942)" style="stroke:#000000; stroke-width:4; stroke-opacity:1; fill:none" points="
  665.564,1442.42 665.564,1445.72 690.837,1445.72 690.837,1442.42 665.564,1442.42 
  "/>
<path clip-path="url(#clip942)" d="
M690.837 1430.87 L690.837 1445.72 L716.11 1445.72 L716.11 1430.87 L690.837 1430.87 L690.837 1430.87  Z
  " fill="#009af9" fill-rule="evenodd" fill-opacity="1"/>
<polyline clip-path="url(#clip942)" style="stroke:#000000; stroke-width:4; stroke-opacity:1; fill:none" points="
  690.837,1430.87 690.837,1445.72 716.11,1445.72 716.11,1430.87 690.837,1430.87 
  "/>
<path clip-path="url(#clip942)" d="
M716.11 1432.52 L716.11 1445.72 L741.383 1445.72 L741.383 1432.52 L716.11 1432.52 L716.11 1432.52  Z
  " fill="#009af9" fill-rule="evenodd" fill-opacity="1"/>
<polyline clip-path="url(#clip942)" style="stroke:#000000; stroke-width:4; stroke-opacity:1; fill:none" points="
  716.11,1432.52 716.11,1445.72 741.383,1445.72 741.383,1432.52 716.11,1432.52 
  "/>
<path clip-path="url(#clip942)" d="
M741.383 1425.92 L741.383 1445.72 L766.656 1445.72 L766.656 1425.92 L741.383 1425.92 L741.383 1425.92  Z
  " fill="#009af9" fill-rule="evenodd" fill-opacity="1"/>
<polyline clip-path="url(#clip942)" style="stroke:#000000; stroke-width:4; stroke-opacity:1; fill:none" points="
  741.383,1425.92 741.383,1445.72 766.656,1445.72 766.656,1425.92 741.383,1425.92 
  "/>
<path clip-path="url(#clip942)" d="
M766.656 1420.97 L766.656 1445.72 L791.929 1445.72 L791.929 1420.97 L766.656 1420.97 L766.656 1420.97  Z
  " fill="#009af9" fill-rule="evenodd" fill-opacity="1"/>
<polyline clip-path="url(#clip942)" style="stroke:#000000; stroke-width:4; stroke-opacity:1; fill:none" points="
  766.656,1420.97 766.656,1445.72 791.929,1445.72 791.929,1420.97 766.656,1420.97 
  "/>
<path clip-path="url(#clip942)" d="
M791.929 1412.72 L791.929 1445.72 L817.202 1445.72 L817.202 1412.72 L791.929 1412.72 L791.929 1412.72  Z
  " fill="#009af9" fill-rule="evenodd" fill-opacity="1"/>
<polyline clip-path="url(#clip942)" style="stroke:#000000; stroke-width:4; stroke-opacity:1; fill:none" points="
  791.929,1412.72 791.929,1445.72 817.202,1445.72 817.202,1412.72 791.929,1412.72 
  "/>
<path clip-path="url(#clip942)" d="
M817.202 1407.77 L817.202 1445.72 L842.475 1445.72 L842.475 1407.77 L817.202 1407.77 L817.202 1407.77  Z
  " fill="#009af9" fill-rule="evenodd" fill-opacity="1"/>
<polyline clip-path="url(#clip942)" style="stroke:#000000; stroke-width:4; stroke-opacity:1; fill:none" points="
  817.202,1407.77 817.202,1445.72 842.475,1445.72 842.475,1407.77 817.202,1407.77 
  "/>
<path clip-path="url(#clip942)" d="
M842.475 1402.82 L842.475 1445.72 L867.748 1445.72 L867.748 1402.82 L842.475 1402.82 L842.475 1402.82  Z
  " fill="#009af9" fill-rule="evenodd" fill-opacity="1"/>
<polyline clip-path="url(#clip942)" style="stroke:#000000; stroke-width:4; stroke-opacity:1; fill:none" points="
  842.475,1402.82 842.475,1445.72 867.748,1445.72 867.748,1402.82 842.475,1402.82 
  "/>
<path clip-path="url(#clip942)" d="
M867.748 1399.52 L867.748 1445.72 L893.021 1445.72 L893.021 1399.52 L867.748 1399.52 L867.748 1399.52  Z
  " fill="#009af9" fill-rule="evenodd" fill-opacity="1"/>
<polyline clip-path="url(#clip942)" style="stroke:#000000; stroke-width:4; stroke-opacity:1; fill:none" points="
  867.748,1399.52 867.748,1445.72 893.021,1445.72 893.021,1399.52 867.748,1399.52 
  "/>
<path clip-path="url(#clip942)" d="
M893.021 1381.38 L893.021 1445.72 L918.294 1445.72 L918.294 1381.38 L893.021 1381.38 L893.021 1381.38  Z
  " fill="#009af9" fill-rule="evenodd" fill-opacity="1"/>
<polyline clip-path="url(#clip942)" style="stroke:#000000; stroke-width:4; stroke-opacity:1; fill:none" points="
  893.021,1381.38 893.021,1445.72 918.294,1445.72 918.294,1381.38 893.021,1381.38 
  "/>
<path clip-path="url(#clip942)" d="
M918.294 1371.48 L918.294 1445.72 L943.567 1445.72 L943.567 1371.48 L918.294 1371.48 L918.294 1371.48  Z
  " fill="#009af9" fill-rule="evenodd" fill-opacity="1"/>
<polyline clip-path="url(#clip942)" style="stroke:#000000; stroke-width:4; stroke-opacity:1; fill:none" points="
  918.294,1371.48 918.294,1445.72 943.567,1445.72 943.567,1371.48 918.294,1371.48 
  "/>
<path clip-path="url(#clip942)" d="
M943.567 1371.48 L943.567 1445.72 L968.841 1445.72 L968.841 1371.48 L943.567 1371.48 L943.567 1371.48  Z
  " fill="#009af9" fill-rule="evenodd" fill-opacity="1"/>
<polyline clip-path="url(#clip942)" style="stroke:#000000; stroke-width:4; stroke-opacity:1; fill:none" points="
  943.567,1371.48 943.567,1445.72 968.841,1445.72 968.841,1371.48 943.567,1371.48 
  "/>
<path clip-path="url(#clip942)" d="
M968.841 1354.98 L968.841 1445.72 L994.114 1445.72 L994.114 1354.98 L968.841 1354.98 L968.841 1354.98  Z
  " fill="#009af9" fill-rule="evenodd" fill-opacity="1"/>
<polyline clip-path="url(#clip942)" style="stroke:#000000; stroke-width:4; stroke-opacity:1; fill:none" points="
  968.841,1354.98 968.841,1445.72 994.114,1445.72 994.114,1354.98 968.841,1354.98 
  "/>
<path clip-path="url(#clip942)" d="
M994.114 1333.53 L994.114 1445.72 L1019.39 1445.72 L1019.39 1333.53 L994.114 1333.53 L994.114 1333.53  Z
  " fill="#009af9" fill-rule="evenodd" fill-opacity="1"/>
<polyline clip-path="url(#clip942)" style="stroke:#000000; stroke-width:4; stroke-opacity:1; fill:none" points="
  994.114,1333.53 994.114,1445.72 1019.39,1445.72 1019.39,1333.53 994.114,1333.53 
  "/>
<path clip-path="url(#clip942)" d="
M1019.39 1326.93 L1019.39 1445.72 L1044.66 1445.72 L1044.66 1326.93 L1019.39 1326.93 L1019.39 1326.93  Z
  " fill="#009af9" fill-rule="evenodd" fill-opacity="1"/>
<polyline clip-path="url(#clip942)" style="stroke:#000000; stroke-width:4; stroke-opacity:1; fill:none" points="
  1019.39,1326.93 1019.39,1445.72 1044.66,1445.72 1044.66,1326.93 1019.39,1326.93 
  "/>
<path clip-path="url(#clip942)" d="
M1044.66 1315.39 L1044.66 1445.72 L1069.93 1445.72 L1069.93 1315.39 L1044.66 1315.39 L1044.66 1315.39  Z
  " fill="#009af9" fill-rule="evenodd" fill-opacity="1"/>
<polyline clip-path="url(#clip942)" style="stroke:#000000; stroke-width:4; stroke-opacity:1; fill:none" points="
  1044.66,1315.39 1044.66,1445.72 1069.93,1445.72 1069.93,1315.39 1044.66,1315.39 
  "/>
<path clip-path="url(#clip942)" d="
M1069.93 1326.93 L1069.93 1445.72 L1095.21 1445.72 L1095.21 1326.93 L1069.93 1326.93 L1069.93 1326.93  Z
  " fill="#009af9" fill-rule="evenodd" fill-opacity="1"/>
<polyline clip-path="url(#clip942)" style="stroke:#000000; stroke-width:4; stroke-opacity:1; fill:none" points="
  1069.93,1326.93 1069.93,1445.72 1095.21,1445.72 1095.21,1326.93 1069.93,1326.93 
  "/>
<path clip-path="url(#clip942)" d="
M1095.21 1297.24 L1095.21 1445.72 L1120.48 1445.72 L1120.48 1297.24 L1095.21 1297.24 L1095.21 1297.24  Z
  " fill="#009af9" fill-rule="evenodd" fill-opacity="1"/>
<polyline clip-path="url(#clip942)" style="stroke:#000000; stroke-width:4; stroke-opacity:1; fill:none" points="
  1095.21,1297.24 1095.21,1445.72 1120.48,1445.72 1120.48,1297.24 1095.21,1297.24 
  "/>
<path clip-path="url(#clip942)" d="
M1120.48 1305.49 L1120.48 1445.72 L1145.75 1445.72 L1145.75 1305.49 L1120.48 1305.49 L1120.48 1305.49  Z
  " fill="#009af9" fill-rule="evenodd" fill-opacity="1"/>
<polyline clip-path="url(#clip942)" style="stroke:#000000; stroke-width:4; stroke-opacity:1; fill:none" points="
  1120.48,1305.49 1120.48,1445.72 1145.75,1445.72 1145.75,1305.49 1120.48,1305.49 
  "/>
<path clip-path="url(#clip942)" d="
M1145.75 1288.99 L1145.75 1445.72 L1171.02 1445.72 L1171.02 1288.99 L1145.75 1288.99 L1145.75 1288.99  Z
  " fill="#009af9" fill-rule="evenodd" fill-opacity="1"/>
<polyline clip-path="url(#clip942)" style="stroke:#000000; stroke-width:4; stroke-opacity:1; fill:none" points="
  1145.75,1288.99 1145.75,1445.72 1171.02,1445.72 1171.02,1288.99 1145.75,1288.99 
  "/>
<path clip-path="url(#clip942)" d="
M1171.02 1293.94 L1171.02 1445.72 L1196.3 1445.72 L1196.3 1293.94 L1171.02 1293.94 L1171.02 1293.94  Z
  " fill="#009af9" fill-rule="evenodd" fill-opacity="1"/>
<polyline clip-path="url(#clip942)" style="stroke:#000000; stroke-width:4; stroke-opacity:1; fill:none" points="
  1171.02,1293.94 1171.02,1445.72 1196.3,1445.72 1196.3,1293.94 1171.02,1293.94 
  "/>
<path clip-path="url(#clip942)" d="
M1196.3 1249.4 L1196.3 1445.72 L1221.57 1445.72 L1221.57 1249.4 L1196.3 1249.4 L1196.3 1249.4  Z
  " fill="#009af9" fill-rule="evenodd" fill-opacity="1"/>
<polyline clip-path="url(#clip942)" style="stroke:#000000; stroke-width:4; stroke-opacity:1; fill:none" points="
  1196.3,1249.4 1196.3,1445.72 1221.57,1445.72 1221.57,1249.4 1196.3,1249.4 
  "/>
<path clip-path="url(#clip942)" d="
M1221.57 1251.05 L1221.57 1445.72 L1246.84 1445.72 L1246.84 1251.05 L1221.57 1251.05 L1221.57 1251.05  Z
  " fill="#009af9" fill-rule="evenodd" fill-opacity="1"/>
<polyline clip-path="url(#clip942)" style="stroke:#000000; stroke-width:4; stroke-opacity:1; fill:none" points="
  1221.57,1251.05 1221.57,1445.72 1246.84,1445.72 1246.84,1251.05 1221.57,1251.05 
  "/>
<path clip-path="url(#clip942)" d="
M1246.84 1241.15 L1246.84 1445.72 L1272.12 1445.72 L1272.12 1241.15 L1246.84 1241.15 L1246.84 1241.15  Z
  " fill="#009af9" fill-rule="evenodd" fill-opacity="1"/>
<polyline clip-path="url(#clip942)" style="stroke:#000000; stroke-width:4; stroke-opacity:1; fill:none" points="
  1246.84,1241.15 1246.84,1445.72 1272.12,1445.72 1272.12,1241.15 1246.84,1241.15 
  "/>
<path clip-path="url(#clip942)" d="
M1272.12 1256 L1272.12 1445.72 L1297.39 1445.72 L1297.39 1256 L1272.12 1256 L1272.12 1256  Z
  " fill="#009af9" fill-rule="evenodd" fill-opacity="1"/>
<polyline clip-path="url(#clip942)" style="stroke:#000000; stroke-width:4; stroke-opacity:1; fill:none" points="
  1272.12,1256 1272.12,1445.72 1297.39,1445.72 1297.39,1256 1272.12,1256 
  "/>
<path clip-path="url(#clip942)" d="
M1297.39 1264.24 L1297.39 1445.72 L1322.66 1445.72 L1322.66 1264.24 L1297.39 1264.24 L1297.39 1264.24  Z
  " fill="#009af9" fill-rule="evenodd" fill-opacity="1"/>
<polyline clip-path="url(#clip942)" style="stroke:#000000; stroke-width:4; stroke-opacity:1; fill:none" points="
  1297.39,1264.24 1297.39,1445.72 1322.66,1445.72 1322.66,1264.24 1297.39,1264.24 
  "/>
<path clip-path="url(#clip942)" d="
M1322.66 1231.25 L1322.66 1445.72 L1347.94 1445.72 L1347.94 1231.25 L1322.66 1231.25 L1322.66 1231.25  Z
  " fill="#009af9" fill-rule="evenodd" fill-opacity="1"/>
<polyline clip-path="url(#clip942)" style="stroke:#000000; stroke-width:4; stroke-opacity:1; fill:none" points="
  1322.66,1231.25 1322.66,1445.72 1347.94,1445.72 1347.94,1231.25 1322.66,1231.25 
  "/>
<path clip-path="url(#clip942)" d="
M1347.94 1176.81 L1347.94 1445.72 L1373.21 1445.72 L1373.21 1176.81 L1347.94 1176.81 L1347.94 1176.81  Z
  " fill="#009af9" fill-rule="evenodd" fill-opacity="1"/>
<polyline clip-path="url(#clip942)" style="stroke:#000000; stroke-width:4; stroke-opacity:1; fill:none" points="
  1347.94,1176.81 1347.94,1445.72 1373.21,1445.72 1373.21,1176.81 1347.94,1176.81 
  "/>
<path clip-path="url(#clip942)" d="
M1373.21 769.321 L1373.21 1445.72 L1398.48 1445.72 L1398.48 769.321 L1373.21 769.321 L1373.21 769.321  Z
  " fill="#009af9" fill-rule="evenodd" fill-opacity="1"/>
<polyline clip-path="url(#clip942)" style="stroke:#000000; stroke-width:4; stroke-opacity:1; fill:none" points="
  1373.21,769.321 1373.21,1445.72 1398.48,1445.72 1398.48,769.321 1373.21,769.321 
  "/>
<path clip-path="url(#clip942)" d="
M1398.48 149.017 L1398.48 1445.72 L1423.75 1445.72 L1423.75 149.017 L1398.48 149.017 L1398.48 149.017  Z
  " fill="#009af9" fill-rule="evenodd" fill-opacity="1"/>
<polyline clip-path="url(#clip942)" style="stroke:#000000; stroke-width:4; stroke-opacity:1; fill:none" points="
  1398.48,149.017 1398.48,1445.72 1423.75,1445.72 1423.75,149.017 1398.48,149.017 
  "/>
<path clip-path="url(#clip942)" d="
M1423.75 87.9763 L1423.75 1445.72 L1449.03 1445.72 L1449.03 87.9763 L1423.75 87.9763 L1423.75 87.9763  Z
  " fill="#009af9" fill-rule="evenodd" fill-opacity="1"/>
<polyline clip-path="url(#clip942)" style="stroke:#000000; stroke-width:4; stroke-opacity:1; fill:none" points="
  1423.75,87.9763 1423.75,1445.72 1449.03,1445.72 1449.03,87.9763 1423.75,87.9763 
  "/>
<path clip-path="url(#clip942)" d="
M1449.03 881.503 L1449.03 1445.72 L1474.3 1445.72 L1474.3 881.503 L1449.03 881.503 L1449.03 881.503  Z
  " fill="#009af9" fill-rule="evenodd" fill-opacity="1"/>
<polyline clip-path="url(#clip942)" style="stroke:#000000; stroke-width:4; stroke-opacity:1; fill:none" points="
  1449.03,881.503 1449.03,1445.72 1474.3,1445.72 1474.3,881.503 1449.03,881.503 
  "/>
<path clip-path="url(#clip942)" d="
M1474.3 1264.24 L1474.3 1445.72 L1499.57 1445.72 L1499.57 1264.24 L1474.3 1264.24 L1474.3 1264.24  Z
  " fill="#009af9" fill-rule="evenodd" fill-opacity="1"/>
<polyline clip-path="url(#clip942)" style="stroke:#000000; stroke-width:4; stroke-opacity:1; fill:none" points="
  1474.3,1264.24 1474.3,1445.72 1499.57,1445.72 1499.57,1264.24 1474.3,1264.24 
  "/>
<path clip-path="url(#clip942)" d="
M1499.57 1298.89 L1499.57 1445.72 L1524.85 1445.72 L1524.85 1298.89 L1499.57 1298.89 L1499.57 1298.89  Z
  " fill="#009af9" fill-rule="evenodd" fill-opacity="1"/>
<polyline clip-path="url(#clip942)" style="stroke:#000000; stroke-width:4; stroke-opacity:1; fill:none" points="
  1499.57,1298.89 1499.57,1445.72 1524.85,1445.72 1524.85,1298.89 1499.57,1298.89 
  "/>
<path clip-path="url(#clip942)" d="
M1524.85 1312.09 L1524.85 1445.72 L1550.12 1445.72 L1550.12 1312.09 L1524.85 1312.09 L1524.85 1312.09  Z
  " fill="#009af9" fill-rule="evenodd" fill-opacity="1"/>
<polyline clip-path="url(#clip942)" style="stroke:#000000; stroke-width:4; stroke-opacity:1; fill:none" points="
  1524.85,1312.09 1524.85,1445.72 1550.12,1445.72 1550.12,1312.09 1524.85,1312.09 
  "/>
<path clip-path="url(#clip942)" d="
M1550.12 1325.28 L1550.12 1445.72 L1575.39 1445.72 L1575.39 1325.28 L1550.12 1325.28 L1550.12 1325.28  Z
  " fill="#009af9" fill-rule="evenodd" fill-opacity="1"/>
<polyline clip-path="url(#clip942)" style="stroke:#000000; stroke-width:4; stroke-opacity:1; fill:none" points="
  1550.12,1325.28 1550.12,1445.72 1575.39,1445.72 1575.39,1325.28 1550.12,1325.28 
  "/>
<path clip-path="url(#clip942)" d="
M1575.39 1354.98 L1575.39 1445.72 L1600.67 1445.72 L1600.67 1354.98 L1575.39 1354.98 L1575.39 1354.98  Z
  " fill="#009af9" fill-rule="evenodd" fill-opacity="1"/>
<polyline clip-path="url(#clip942)" style="stroke:#000000; stroke-width:4; stroke-opacity:1; fill:none" points="
  1575.39,1354.98 1575.39,1445.72 1600.67,1445.72 1600.67,1354.98 1575.39,1354.98 
  "/>
<path clip-path="url(#clip942)" d="
M1600.67 1346.73 L1600.67 1445.72 L1625.94 1445.72 L1625.94 1346.73 L1600.67 1346.73 L1600.67 1346.73  Z
  " fill="#009af9" fill-rule="evenodd" fill-opacity="1"/>
<polyline clip-path="url(#clip942)" style="stroke:#000000; stroke-width:4; stroke-opacity:1; fill:none" points="
  1600.67,1346.73 1600.67,1445.72 1625.94,1445.72 1625.94,1346.73 1600.67,1346.73 
  "/>
<path clip-path="url(#clip942)" d="
M1625.94 1351.68 L1625.94 1445.72 L1651.21 1445.72 L1651.21 1351.68 L1625.94 1351.68 L1625.94 1351.68  Z
  " fill="#009af9" fill-rule="evenodd" fill-opacity="1"/>
<polyline clip-path="url(#clip942)" style="stroke:#000000; stroke-width:4; stroke-opacity:1; fill:none" points="
  1625.94,1351.68 1625.94,1445.72 1651.21,1445.72 1651.21,1351.68 1625.94,1351.68 
  "/>
<path clip-path="url(#clip942)" d="
M1651.21 1387.97 L1651.21 1445.72 L1676.49 1445.72 L1676.49 1387.97 L1651.21 1387.97 L1651.21 1387.97  Z
  " fill="#009af9" fill-rule="evenodd" fill-opacity="1"/>
<polyline clip-path="url(#clip942)" style="stroke:#000000; stroke-width:4; stroke-opacity:1; fill:none" points="
  1651.21,1387.97 1651.21,1445.72 1676.49,1445.72 1676.49,1387.97 1651.21,1387.97 
  "/>
<path clip-path="url(#clip942)" d="
M1676.49 1379.73 L1676.49 1445.72 L1701.76 1445.72 L1701.76 1379.73 L1676.49 1379.73 L1676.49 1379.73  Z
  " fill="#009af9" fill-rule="evenodd" fill-opacity="1"/>
<polyline clip-path="url(#clip942)" style="stroke:#000000; stroke-width:4; stroke-opacity:1; fill:none" points="
  1676.49,1379.73 1676.49,1445.72 1701.76,1445.72 1701.76,1379.73 1676.49,1379.73 
  "/>
<path clip-path="url(#clip942)" d="
M1701.76 1391.27 L1701.76 1445.72 L1727.03 1445.72 L1727.03 1391.27 L1701.76 1391.27 L1701.76 1391.27  Z
  " fill="#009af9" fill-rule="evenodd" fill-opacity="1"/>
<polyline clip-path="url(#clip942)" style="stroke:#000000; stroke-width:4; stroke-opacity:1; fill:none" points="
  1701.76,1391.27 1701.76,1445.72 1727.03,1445.72 1727.03,1391.27 1701.76,1391.27 
  "/>
<path clip-path="url(#clip942)" d="
M1727.03 1416.02 L1727.03 1445.72 L1752.3 1445.72 L1752.3 1416.02 L1727.03 1416.02 L1727.03 1416.02  Z
  " fill="#009af9" fill-rule="evenodd" fill-opacity="1"/>
<polyline clip-path="url(#clip942)" style="stroke:#000000; stroke-width:4; stroke-opacity:1; fill:none" points="
  1727.03,1416.02 1727.03,1445.72 1752.3,1445.72 1752.3,1416.02 1727.03,1416.02 
  "/>
<path clip-path="url(#clip942)" d="
M1752.3 1407.77 L1752.3 1445.72 L1777.58 1445.72 L1777.58 1407.77 L1752.3 1407.77 L1752.3 1407.77  Z
  " fill="#009af9" fill-rule="evenodd" fill-opacity="1"/>
<polyline clip-path="url(#clip942)" style="stroke:#000000; stroke-width:4; stroke-opacity:1; fill:none" points="
  1752.3,1407.77 1752.3,1445.72 1777.58,1445.72 1777.58,1407.77 1752.3,1407.77 
  "/>
<path clip-path="url(#clip942)" d="
M1777.58 1411.07 L1777.58 1445.72 L1802.85 1445.72 L1802.85 1411.07 L1777.58 1411.07 L1777.58 1411.07  Z
  " fill="#009af9" fill-rule="evenodd" fill-opacity="1"/>
<polyline clip-path="url(#clip942)" style="stroke:#000000; stroke-width:4; stroke-opacity:1; fill:none" points="
  1777.58,1411.07 1777.58,1445.72 1802.85,1445.72 1802.85,1411.07 1777.58,1411.07 
  "/>
<path clip-path="url(#clip942)" d="
M1802.85 1430.87 L1802.85 1445.72 L1828.12 1445.72 L1828.12 1430.87 L1802.85 1430.87 L1802.85 1430.87  Z
  " fill="#009af9" fill-rule="evenodd" fill-opacity="1"/>
<polyline clip-path="url(#clip942)" style="stroke:#000000; stroke-width:4; stroke-opacity:1; fill:none" points="
  1802.85,1430.87 1802.85,1445.72 1828.12,1445.72 1828.12,1430.87 1802.85,1430.87 
  "/>
<path clip-path="url(#clip942)" d="
M1828.12 1422.62 L1828.12 1445.72 L1853.4 1445.72 L1853.4 1422.62 L1828.12 1422.62 L1828.12 1422.62  Z
  " fill="#009af9" fill-rule="evenodd" fill-opacity="1"/>
<polyline clip-path="url(#clip942)" style="stroke:#000000; stroke-width:4; stroke-opacity:1; fill:none" points="
  1828.12,1422.62 1828.12,1445.72 1853.4,1445.72 1853.4,1422.62 1828.12,1422.62 
  "/>
<path clip-path="url(#clip942)" d="
M1853.4 1434.17 L1853.4 1445.72 L1878.67 1445.72 L1878.67 1434.17 L1853.4 1434.17 L1853.4 1434.17  Z
  " fill="#009af9" fill-rule="evenodd" fill-opacity="1"/>
<polyline clip-path="url(#clip942)" style="stroke:#000000; stroke-width:4; stroke-opacity:1; fill:none" points="
  1853.4,1434.17 1853.4,1445.72 1878.67,1445.72 1878.67,1434.17 1853.4,1434.17 
  "/>
<path clip-path="url(#clip942)" d="
M1878.67 1434.17 L1878.67 1445.72 L1903.94 1445.72 L1903.94 1434.17 L1878.67 1434.17 L1878.67 1434.17  Z
  " fill="#009af9" fill-rule="evenodd" fill-opacity="1"/>
<polyline clip-path="url(#clip942)" style="stroke:#000000; stroke-width:4; stroke-opacity:1; fill:none" points="
  1878.67,1434.17 1878.67,1445.72 1903.94,1445.72 1903.94,1434.17 1878.67,1434.17 
  "/>
<path clip-path="url(#clip942)" d="
M1903.94 1440.77 L1903.94 1445.72 L1929.22 1445.72 L1929.22 1440.77 L1903.94 1440.77 L1903.94 1440.77  Z
  " fill="#009af9" fill-rule="evenodd" fill-opacity="1"/>
<polyline clip-path="url(#clip942)" style="stroke:#000000; stroke-width:4; stroke-opacity:1; fill:none" points="
  1903.94,1440.77 1903.94,1445.72 1929.22,1445.72 1929.22,1440.77 1903.94,1440.77 
  "/>
<path clip-path="url(#clip942)" d="
M1929.22 1435.82 L1929.22 1445.72 L1954.49 1445.72 L1954.49 1435.82 L1929.22 1435.82 L1929.22 1435.82  Z
  " fill="#009af9" fill-rule="evenodd" fill-opacity="1"/>
<polyline clip-path="url(#clip942)" style="stroke:#000000; stroke-width:4; stroke-opacity:1; fill:none" points="
  1929.22,1435.82 1929.22,1445.72 1954.49,1445.72 1954.49,1435.82 1929.22,1435.82 
  "/>
<path clip-path="url(#clip942)" d="
M1954.49 1435.82 L1954.49 1445.72 L1979.76 1445.72 L1979.76 1435.82 L1954.49 1435.82 L1954.49 1435.82  Z
  " fill="#009af9" fill-rule="evenodd" fill-opacity="1"/>
<polyline clip-path="url(#clip942)" style="stroke:#000000; stroke-width:4; stroke-opacity:1; fill:none" points="
  1954.49,1435.82 1954.49,1445.72 1979.76,1445.72 1979.76,1435.82 1954.49,1435.82 
  "/>
<path clip-path="url(#clip942)" d="
M1979.76 1444.07 L1979.76 1445.72 L2005.03 1445.72 L2005.03 1444.07 L1979.76 1444.07 L1979.76 1444.07  Z
  " fill="#009af9" fill-rule="evenodd" fill-opacity="1"/>
<polyline clip-path="url(#clip942)" style="stroke:#000000; stroke-width:4; stroke-opacity:1; fill:none" points="
  1979.76,1444.07 1979.76,1445.72 2005.03,1445.72 2005.03,1444.07 1979.76,1444.07 
  "/>
<path clip-path="url(#clip942)" d="
M2005.03 1444.07 L2005.03 1445.72 L2030.31 1445.72 L2030.31 1444.07 L2005.03 1444.07 L2005.03 1444.07  Z
  " fill="#009af9" fill-rule="evenodd" fill-opacity="1"/>
<polyline clip-path="url(#clip942)" style="stroke:#000000; stroke-width:4; stroke-opacity:1; fill:none" points="
  2005.03,1444.07 2005.03,1445.72 2030.31,1445.72 2030.31,1444.07 2005.03,1444.07 
  "/>
<path clip-path="url(#clip942)" d="
M2030.31 1442.42 L2030.31 1445.72 L2055.58 1445.72 L2055.58 1442.42 L2030.31 1442.42 L2030.31 1442.42  Z
  " fill="#009af9" fill-rule="evenodd" fill-opacity="1"/>
<polyline clip-path="url(#clip942)" style="stroke:#000000; stroke-width:4; stroke-opacity:1; fill:none" points="
  2030.31,1442.42 2030.31,1445.72 2055.58,1445.72 2055.58,1442.42 2030.31,1442.42 
  "/>
<path clip-path="url(#clip942)" d="
M2055.58 1442.42 L2055.58 1445.72 L2080.85 1445.72 L2080.85 1442.42 L2055.58 1442.42 L2055.58 1442.42  Z
  " fill="#009af9" fill-rule="evenodd" fill-opacity="1"/>
<polyline clip-path="url(#clip942)" style="stroke:#000000; stroke-width:4; stroke-opacity:1; fill:none" points="
  2055.58,1442.42 2055.58,1445.72 2080.85,1445.72 2080.85,1442.42 2055.58,1442.42 
  "/>
<path clip-path="url(#clip942)" d="
M2080.85 1440.77 L2080.85 1445.72 L2106.13 1445.72 L2106.13 1440.77 L2080.85 1440.77 L2080.85 1440.77  Z
  " fill="#009af9" fill-rule="evenodd" fill-opacity="1"/>
<polyline clip-path="url(#clip942)" style="stroke:#000000; stroke-width:4; stroke-opacity:1; fill:none" points="
  2080.85,1440.77 2080.85,1445.72 2106.13,1445.72 2106.13,1440.77 2080.85,1440.77 
  "/>
<path clip-path="url(#clip942)" d="
M2106.13 1445.72 L2106.13 1445.72 L2131.4 1445.72 L2131.4 1445.72 L2106.13 1445.72 L2106.13 1445.72  Z
  " fill="#009af9" fill-rule="evenodd" fill-opacity="1"/>
<polyline clip-path="url(#clip942)" style="stroke:#000000; stroke-width:4; stroke-opacity:1; fill:none" points="
  2106.13,1445.72 2106.13,1445.72 2131.4,1445.72 2106.13,1445.72 
  "/>
<path clip-path="url(#clip942)" d="
M2131.4 1445.72 L2131.4 1445.72 L2156.67 1445.72 L2156.67 1445.72 L2131.4 1445.72 L2131.4 1445.72  Z
  " fill="#009af9" fill-rule="evenodd" fill-opacity="1"/>
<polyline clip-path="url(#clip942)" style="stroke:#000000; stroke-width:4; stroke-opacity:1; fill:none" points="
  2131.4,1445.72 2131.4,1445.72 2156.67,1445.72 2131.4,1445.72 
  "/>
<path clip-path="url(#clip942)" d="
M2156.67 1445.72 L2156.67 1445.72 L2181.95 1445.72 L2181.95 1445.72 L2156.67 1445.72 L2156.67 1445.72  Z
  " fill="#009af9" fill-rule="evenodd" fill-opacity="1"/>
<polyline clip-path="url(#clip942)" style="stroke:#000000; stroke-width:4; stroke-opacity:1; fill:none" points="
  2156.67,1445.72 2156.67,1445.72 2181.95,1445.72 2156.67,1445.72 
  "/>
<path clip-path="url(#clip942)" d="
M2181.95 1444.07 L2181.95 1445.72 L2207.22 1445.72 L2207.22 1444.07 L2181.95 1444.07 L2181.95 1444.07  Z
  " fill="#009af9" fill-rule="evenodd" fill-opacity="1"/>
<polyline clip-path="url(#clip942)" style="stroke:#000000; stroke-width:4; stroke-opacity:1; fill:none" points="
  2181.95,1444.07 2181.95,1445.72 2207.22,1445.72 2207.22,1444.07 2181.95,1444.07 
  "/>
<path clip-path="url(#clip942)" d="
M2207.22 1444.07 L2207.22 1445.72 L2232.49 1445.72 L2232.49 1444.07 L2207.22 1444.07 L2207.22 1444.07  Z
  " fill="#009af9" fill-rule="evenodd" fill-opacity="1"/>
<polyline clip-path="url(#clip942)" style="stroke:#000000; stroke-width:4; stroke-opacity:1; fill:none" points="
  2207.22,1444.07 2207.22,1445.72 2232.49,1445.72 2232.49,1444.07 2207.22,1444.07 
  "/>
<path clip-path="url(#clip940)" d="
M1985.9 216.178 L2279.87 216.178 L2279.87 95.2176 L1985.9 95.2176  Z
  " fill="#ffffff" fill-rule="evenodd" fill-opacity="1"/>
<polyline clip-path="url(#clip940)" style="stroke:#000000; stroke-width:4; stroke-opacity:1; fill:none" points="
  1985.9,216.178 2279.87,216.178 2279.87,95.2176 1985.9,95.2176 1985.9,216.178 
  "/>
<path clip-path="url(#clip940)" d="
M2010.2 179.89 L2155.97 179.89 L2155.97 131.506 L2010.2 131.506 L2010.2 179.89  Z
  " fill="#009af9" fill-rule="evenodd" fill-opacity="1"/>
<polyline clip-path="url(#clip940)" style="stroke:#000000; stroke-width:4; stroke-opacity:1; fill:none" points="
  2010.2,179.89 2155.97,179.89 2155.97,131.506 2010.2,131.506 2010.2,179.89 
  "/>
<path clip-path="url(#clip940)" d="M 0 0 M2194.11 175.385 Q2192.3 180.015 2190.59 181.427 Q2188.87 182.839 2186 182.839 L2182.6 182.839 L2182.6 179.274 L2185.1 179.274 Q2186.86 179.274 2187.83 178.44 Q2188.8 177.607 2189.98 174.505 L2190.75 172.561 L2180.26 147.052 L2184.78 147.052 L2192.88 167.329 L2200.98 147.052 L2205.49 147.052 L2194.11 175.385 Z" fill="#000000" fill-rule="evenodd" fill-opacity="1" /><path clip-path="url(#clip940)" d="M 0 0 M2211.37 169.042 L2219.01 169.042 L2219.01 142.677 L2210.7 144.343 L2210.7 140.084 L2218.97 138.418 L2223.64 138.418 L2223.64 169.042 L2231.28 169.042 L2231.28 172.978 L2211.37 172.978 L2211.37 169.042 Z" fill="#000000" fill-rule="evenodd" fill-opacity="1" /></svg>
