<?xml version="1.0" encoding="utf-8"?>
<svg xmlns="http://www.w3.org/2000/svg" xmlns:xlink="http://www.w3.org/1999/xlink" width="600" height="400" viewBox="0 0 2400 1600">
<defs>
  <clipPath id="clip350">
    <rect x="0" y="0" width="2400" height="1600"/>
  </clipPath>
</defs>
<path clip-path="url(#clip350)" d="
M0 1600 L2400 1600 L2400 0 L0 0  Z
  " fill="#ffffff" fill-rule="evenodd" fill-opacity="1"/>
<defs>
  <clipPath id="clip351">
    <rect x="480" y="0" width="1681" height="1600"/>
  </clipPath>
</defs>
<path clip-path="url(#clip350)" d="
M166.205 1486.45 L2352.76 1486.45 L2352.76 47.2441 L166.205 47.2441  Z
  " fill="#ffffff" fill-rule="evenodd" fill-opacity="1"/>
<defs>
  <clipPath id="clip352">
    <rect x="166" y="47" width="2188" height="1440"/>
  </clipPath>
</defs>
<polyline clip-path="url(#clip352)" style="stroke:#000000; stroke-width:2; stroke-opacity:0.1; fill:none" points="
  402.649,1486.45 402.649,47.2441 
  "/>
<polyline clip-path="url(#clip352)" style="stroke:#000000; stroke-width:2; stroke-opacity:0.1; fill:none" points="
  693.101,1486.45 693.101,47.2441 
  "/>
<polyline clip-path="url(#clip352)" style="stroke:#000000; stroke-width:2; stroke-opacity:0.1; fill:none" points="
  983.552,1486.45 983.552,47.2441 
  "/>
<polyline clip-path="url(#clip352)" style="stroke:#000000; stroke-width:2; stroke-opacity:0.1; fill:none" points="
  1274,1486.45 1274,47.2441 
  "/>
<polyline clip-path="url(#clip352)" style="stroke:#000000; stroke-width:2; stroke-opacity:0.1; fill:none" points="
  1564.45,1486.45 1564.45,47.2441 
  "/>
<polyline clip-path="url(#clip352)" style="stroke:#000000; stroke-width:2; stroke-opacity:0.1; fill:none" points="
  1854.91,1486.45 1854.91,47.2441 
  "/>
<polyline clip-path="url(#clip352)" style="stroke:#000000; stroke-width:2; stroke-opacity:0.1; fill:none" points="
  2145.36,1486.45 2145.36,47.2441 
  "/>
<polyline clip-path="url(#clip352)" style="stroke:#000000; stroke-width:2; stroke-opacity:0.1; fill:none" points="
  166.205,1445.72 2352.76,1445.72 
  "/>
<polyline clip-path="url(#clip352)" style="stroke:#000000; stroke-width:2; stroke-opacity:0.1; fill:none" points="
  166.205,1116.17 2352.76,1116.17 
  "/>
<polyline clip-path="url(#clip352)" style="stroke:#000000; stroke-width:2; stroke-opacity:0.1; fill:none" points="
  166.205,786.619 2352.76,786.619 
  "/>
<polyline clip-path="url(#clip352)" style="stroke:#000000; stroke-width:2; stroke-opacity:0.1; fill:none" points="
  166.205,457.07 2352.76,457.07 
  "/>
<polyline clip-path="url(#clip352)" style="stroke:#000000; stroke-width:2; stroke-opacity:0.1; fill:none" points="
  166.205,127.522 2352.76,127.522 
  "/>
<polyline clip-path="url(#clip350)" style="stroke:#000000; stroke-width:4; stroke-opacity:1; fill:none" points="
  166.205,1486.45 2352.76,1486.45 
  "/>
<polyline clip-path="url(#clip350)" style="stroke:#000000; stroke-width:4; stroke-opacity:1; fill:none" points="
  166.205,1486.45 166.205,47.2441 
  "/>
<polyline clip-path="url(#clip350)" style="stroke:#000000; stroke-width:4; stroke-opacity:1; fill:none" points="
  402.649,1486.45 402.649,1469.18 
  "/>
<polyline clip-path="url(#clip350)" style="stroke:#000000; stroke-width:4; stroke-opacity:1; fill:none" points="
  693.101,1486.45 693.101,1469.18 
  "/>
<polyline clip-path="url(#clip350)" style="stroke:#000000; stroke-width:4; stroke-opacity:1; fill:none" points="
  983.552,1486.45 983.552,1469.18 
  "/>
<polyline clip-path="url(#clip350)" style="stroke:#000000; stroke-width:4; stroke-opacity:1; fill:none" points="
  1274,1486.45 1274,1469.18 
  "/>
<polyline clip-path="url(#clip350)" style="stroke:#000000; stroke-width:4; stroke-opacity:1; fill:none" points="
  1564.45,1486.45 1564.45,1469.18 
  "/>
<polyline clip-path="url(#clip350)" style="stroke:#000000; stroke-width:4; stroke-opacity:1; fill:none" points="
  1854.91,1486.45 1854.91,1469.18 
  "/>
<polyline clip-path="url(#clip350)" style="stroke:#000000; stroke-width:4; stroke-opacity:1; fill:none" points="
  2145.36,1486.45 2145.36,1469.18 
  "/>
<polyline clip-path="url(#clip350)" style="stroke:#000000; stroke-width:4; stroke-opacity:1; fill:none" points="
  166.205,1445.72 192.443,1445.72 
  "/>
<polyline clip-path="url(#clip350)" style="stroke:#000000; stroke-width:4; stroke-opacity:1; fill:none" points="
  166.205,1116.17 192.443,1116.17 
  "/>
<polyline clip-path="url(#clip350)" style="stroke:#000000; stroke-width:4; stroke-opacity:1; fill:none" points="
  166.205,786.619 192.443,786.619 
  "/>
<polyline clip-path="url(#clip350)" style="stroke:#000000; stroke-width:4; stroke-opacity:1; fill:none" points="
  166.205,457.07 192.443,457.07 
  "/>
<polyline clip-path="url(#clip350)" style="stroke:#000000; stroke-width:4; stroke-opacity:1; fill:none" points="
  166.205,127.522 192.443,127.522 
  "/>
<path clip-path="url(#clip350)" d="M 0 0 M374.224 1523.09 L403.899 1523.09 L403.899 1527.03 L374.224 1527.03 L374.224 1523.09 Z" fill="#000000" fill-rule="evenodd" fill-opacity="1" /><path clip-path="url(#clip350)" d="M 0 0 M419.547 1520.78 Q416.399 1520.78 414.547 1522.93 Q412.719 1525.08 412.719 1528.83 Q412.719 1532.56 414.547 1534.73 Q416.399 1536.89 419.547 1536.89 Q422.696 1536.89 424.524 1534.73 Q426.376 1532.56 426.376 1528.83 Q426.376 1525.08 424.524 1522.93 Q422.696 1520.78 419.547 1520.78 M428.83 1506.12 L428.83 1510.38 Q427.071 1509.55 425.265 1509.11 Q423.483 1508.67 421.723 1508.67 Q417.094 1508.67 414.64 1511.8 Q412.209 1514.92 411.862 1521.24 Q413.228 1519.23 415.288 1518.16 Q417.348 1517.07 419.825 1517.07 Q425.033 1517.07 428.043 1520.24 Q431.075 1523.39 431.075 1528.83 Q431.075 1534.16 427.927 1537.37 Q424.779 1540.59 419.547 1540.59 Q413.552 1540.59 410.381 1536.01 Q407.21 1531.4 407.21 1522.67 Q407.21 1514.48 411.098 1509.62 Q414.987 1504.73 421.538 1504.73 Q423.297 1504.73 425.08 1505.08 Q426.885 1505.43 428.83 1506.12 Z" fill="#000000" fill-rule="evenodd" fill-opacity="1" /><path clip-path="url(#clip350)" d="M 0 0 M664.513 1523.09 L694.188 1523.09 L694.188 1527.03 L664.513 1527.03 L664.513 1523.09 Z" fill="#000000" fill-rule="evenodd" fill-opacity="1" /><path clip-path="url(#clip350)" d="M 0 0 M712.105 1509.43 L700.3 1527.88 L712.105 1527.88 L712.105 1509.43 M710.878 1505.36 L716.758 1505.36 L716.758 1527.88 L721.688 1527.88 L721.688 1531.77 L716.758 1531.77 L716.758 1539.92 L712.105 1539.92 L712.105 1531.77 L696.503 1531.77 L696.503 1527.26 L710.878 1505.36 Z" fill="#000000" fill-rule="evenodd" fill-opacity="1" /><path clip-path="url(#clip350)" d="M 0 0 M956.006 1523.09 L985.681 1523.09 L985.681 1527.03 L956.006 1527.03 L956.006 1523.09 Z" fill="#000000" fill-rule="evenodd" fill-opacity="1" /><path clip-path="url(#clip350)" d="M 0 0 M994.778 1535.98 L1011.1 1535.98 L1011.1 1539.92 L989.153 1539.92 L989.153 1535.98 Q991.816 1533.23 996.399 1528.6 Q1001.01 1523.95 1002.19 1522.61 Q1004.43 1520.08 1005.31 1518.35 Q1006.21 1516.59 1006.21 1514.9 Q1006.21 1512.14 1004.27 1510.41 Q1002.35 1508.67 999.246 1508.67 Q997.047 1508.67 994.593 1509.43 Q992.163 1510.2 989.385 1511.75 L989.385 1507.03 Q992.209 1505.89 994.663 1505.31 Q997.116 1504.73 999.153 1504.73 Q1004.52 1504.73 1007.72 1507.42 Q1010.91 1510.11 1010.91 1514.6 Q1010.91 1516.73 1010.1 1518.65 Q1009.32 1520.54 1007.21 1523.14 Q1006.63 1523.81 1003.53 1527.03 Q1000.43 1530.22 994.778 1535.98 Z" fill="#000000" fill-rule="evenodd" fill-opacity="1" /><path clip-path="url(#clip350)" d="M 0 0 M1274 1508.44 Q1270.39 1508.44 1268.56 1512 Q1266.76 1515.55 1266.76 1522.67 Q1266.76 1529.78 1268.56 1533.35 Q1270.39 1536.89 1274 1536.89 Q1277.64 1536.89 1279.44 1533.35 Q1281.27 1529.78 1281.27 1522.67 Q1281.27 1515.55 1279.44 1512 Q1277.64 1508.44 1274 1508.44 M1274 1504.73 Q1279.81 1504.73 1282.87 1509.34 Q1285.95 1513.92 1285.95 1522.67 Q1285.95 1531.4 1282.87 1536.01 Q1279.81 1540.59 1274 1540.59 Q1268.19 1540.59 1265.11 1536.01 Q1262.06 1531.4 1262.06 1522.67 Q1262.06 1513.92 1265.11 1509.34 Q1268.19 1504.73 1274 1504.73 Z" fill="#000000" fill-rule="evenodd" fill-opacity="1" /><path clip-path="url(#clip350)" d="M 0 0 M1559.11 1535.98 L1575.43 1535.98 L1575.43 1539.92 L1553.48 1539.92 L1553.48 1535.98 Q1556.14 1533.23 1560.73 1528.6 Q1565.33 1523.95 1566.51 1522.61 Q1568.76 1520.08 1569.64 1518.35 Q1570.54 1516.59 1570.54 1514.9 Q1570.54 1512.14 1568.6 1510.41 Q1566.68 1508.67 1563.57 1508.67 Q1561.38 1508.67 1558.92 1509.43 Q1556.49 1510.2 1553.71 1511.75 L1553.71 1507.03 Q1556.54 1505.89 1558.99 1505.31 Q1561.44 1504.73 1563.48 1504.73 Q1568.85 1504.73 1572.05 1507.42 Q1575.24 1510.11 1575.24 1514.6 Q1575.24 1516.73 1574.43 1518.65 Q1573.64 1520.54 1571.54 1523.14 Q1570.96 1523.81 1567.86 1527.03 Q1564.75 1530.22 1559.11 1535.98 Z" fill="#000000" fill-rule="evenodd" fill-opacity="1" /><path clip-path="url(#clip350)" d="M 0 0 M1857.91 1509.43 L1846.11 1527.88 L1857.91 1527.88 L1857.91 1509.43 M1856.69 1505.36 L1862.57 1505.36 L1862.57 1527.88 L1867.5 1527.88 L1867.5 1531.77 L1862.57 1531.77 L1862.57 1539.92 L1857.91 1539.92 L1857.91 1531.77 L1842.31 1531.77 L1842.31 1527.26 L1856.69 1505.36 Z" fill="#000000" fill-rule="evenodd" fill-opacity="1" /><path clip-path="url(#clip350)" d="M 0 0 M2145.76 1520.78 Q2142.61 1520.78 2140.76 1522.93 Q2138.93 1525.08 2138.93 1528.83 Q2138.93 1532.56 2140.76 1534.73 Q2142.61 1536.89 2145.76 1536.89 Q2148.91 1536.89 2150.74 1534.73 Q2152.59 1532.56 2152.59 1528.83 Q2152.59 1525.08 2150.74 1522.93 Q2148.91 1520.78 2145.76 1520.78 M2155.04 1506.12 L2155.04 1510.38 Q2153.28 1509.55 2151.48 1509.11 Q2149.7 1508.67 2147.94 1508.67 Q2143.31 1508.67 2140.85 1511.8 Q2138.42 1514.92 2138.08 1521.24 Q2139.44 1519.23 2141.5 1518.16 Q2143.56 1517.07 2146.04 1517.07 Q2151.25 1517.07 2154.26 1520.24 Q2157.29 1523.39 2157.29 1528.83 Q2157.29 1534.16 2154.14 1537.37 Q2150.99 1540.59 2145.76 1540.59 Q2139.77 1540.59 2136.59 1536.01 Q2133.42 1531.4 2133.42 1522.67 Q2133.42 1514.48 2137.31 1509.62 Q2141.2 1504.73 2147.75 1504.73 Q2149.51 1504.73 2151.29 1505.08 Q2153.1 1505.43 2155.04 1506.12 Z" fill="#000000" fill-rule="evenodd" fill-opacity="1" /><path clip-path="url(#clip350)" d="M 0 0 M130.26 1431.51 Q126.649 1431.51 124.82 1435.08 Q123.015 1438.62 123.015 1445.75 Q123.015 1452.86 124.82 1456.42 Q126.649 1459.96 130.26 1459.96 Q133.895 1459.96 135.7 1456.42 Q137.529 1452.86 137.529 1445.75 Q137.529 1438.62 135.7 1435.08 Q133.895 1431.51 130.26 1431.51 M130.26 1427.81 Q136.07 1427.81 139.126 1432.42 Q142.205 1437 142.205 1445.75 Q142.205 1454.48 139.126 1459.08 Q136.07 1463.67 130.26 1463.67 Q124.45 1463.67 121.371 1459.08 Q118.316 1454.48 118.316 1445.75 Q118.316 1437 121.371 1432.42 Q124.45 1427.81 130.26 1427.81 Z" fill="#000000" fill-rule="evenodd" fill-opacity="1" /><path clip-path="url(#clip350)" d="M 0 0 M71.8578 1129.51 L88.1772 1129.51 L88.1772 1133.45 L66.2328 1133.45 L66.2328 1129.51 Q68.8949 1126.76 73.4782 1122.13 Q78.0846 1117.48 79.2652 1116.13 Q81.5105 1113.61 82.3902 1111.87 Q83.2929 1110.11 83.2929 1108.42 Q83.2929 1105.67 81.3485 1103.93 Q79.4272 1102.2 76.3254 1102.2 Q74.1263 1102.2 71.6726 1102.96 Q69.2421 1103.73 66.4643 1105.28 L66.4643 1100.55 Q69.2884 1099.42 71.7421 1098.84 Q74.1958 1098.26 76.2328 1098.26 Q81.6031 1098.26 84.7976 1100.95 Q87.992 1103.63 87.992 1108.12 Q87.992 1110.25 87.1818 1112.17 Q86.3948 1114.07 84.2883 1116.66 Q83.7096 1117.34 80.6078 1120.55 Q77.5059 1123.75 71.8578 1129.51 Z" fill="#000000" fill-rule="evenodd" fill-opacity="1" /><path clip-path="url(#clip350)" d="M 0 0 M103.247 1101.97 Q99.6354 1101.97 97.8068 1105.53 Q96.0012 1109.07 96.0012 1116.2 Q96.0012 1123.31 97.8068 1126.87 Q99.6354 1130.41 103.247 1130.41 Q106.881 1130.41 108.686 1126.87 Q110.515 1123.31 110.515 1116.2 Q110.515 1109.07 108.686 1105.53 Q106.881 1101.97 103.247 1101.97 M103.247 1098.26 Q109.057 1098.26 112.112 1102.87 Q115.191 1107.45 115.191 1116.2 Q115.191 1124.93 112.112 1129.54 Q109.057 1134.12 103.247 1134.12 Q97.4364 1134.12 94.3577 1129.54 Q91.3022 1124.93 91.3022 1116.2 Q91.3022 1107.45 94.3577 1102.87 Q97.4364 1098.26 103.247 1098.26 Z" fill="#000000" fill-rule="evenodd" fill-opacity="1" /><path clip-path="url(#clip350)" d="M 0 0 M130.26 1101.97 Q126.649 1101.97 124.82 1105.53 Q123.015 1109.07 123.015 1116.2 Q123.015 1123.31 124.82 1126.87 Q126.649 1130.41 130.26 1130.41 Q133.895 1130.41 135.7 1126.87 Q137.529 1123.31 137.529 1116.2 Q137.529 1109.07 135.7 1105.53 Q133.895 1101.97 130.26 1101.97 M130.26 1098.26 Q136.07 1098.26 139.126 1102.87 Q142.205 1107.45 142.205 1116.2 Q142.205 1124.93 139.126 1129.54 Q136.07 1134.12 130.26 1134.12 Q124.45 1134.12 121.371 1129.54 Q118.316 1124.93 118.316 1116.2 Q118.316 1107.45 121.371 1102.87 Q124.45 1098.26 130.26 1098.26 Z" fill="#000000" fill-rule="evenodd" fill-opacity="1" /><path clip-path="url(#clip350)" d="M 0 0 M78.5939 773.413 L66.7884 791.862 L78.5939 791.862 L78.5939 773.413 M77.367 769.339 L83.2466 769.339 L83.2466 791.862 L88.1772 791.862 L88.1772 795.751 L83.2466 795.751 L83.2466 803.899 L78.5939 803.899 L78.5939 795.751 L62.9921 795.751 L62.9921 791.237 L77.367 769.339 Z" fill="#000000" fill-rule="evenodd" fill-opacity="1" /><path clip-path="url(#clip350)" d="M 0 0 M103.247 772.418 Q99.6354 772.418 97.8068 775.982 Q96.0012 779.524 96.0012 786.654 Q96.0012 793.76 97.8068 797.325 Q99.6354 800.866 103.247 800.866 Q106.881 800.866 108.686 797.325 Q110.515 793.76 110.515 786.654 Q110.515 779.524 108.686 775.982 Q106.881 772.418 103.247 772.418 M103.247 768.714 Q109.057 768.714 112.112 773.32 Q115.191 777.904 115.191 786.654 Q115.191 795.38 112.112 799.987 Q109.057 804.57 103.247 804.57 Q97.4364 804.57 94.3577 799.987 Q91.3022 795.38 91.3022 786.654 Q91.3022 777.904 94.3577 773.32 Q97.4364 768.714 103.247 768.714 Z" fill="#000000" fill-rule="evenodd" fill-opacity="1" /><path clip-path="url(#clip350)" d="M 0 0 M130.26 772.418 Q126.649 772.418 124.82 775.982 Q123.015 779.524 123.015 786.654 Q123.015 793.76 124.82 797.325 Q126.649 800.866 130.26 800.866 Q133.895 800.866 135.7 797.325 Q137.529 793.76 137.529 786.654 Q137.529 779.524 135.7 775.982 Q133.895 772.418 130.26 772.418 M130.26 768.714 Q136.07 768.714 139.126 773.32 Q142.205 777.904 142.205 786.654 Q142.205 795.38 139.126 799.987 Q136.07 804.57 130.26 804.57 Q124.45 804.57 121.371 799.987 Q118.316 795.38 118.316 786.654 Q118.316 777.904 121.371 773.32 Q124.45 768.714 130.26 768.714 Z" fill="#000000" fill-rule="evenodd" fill-opacity="1" /><path clip-path="url(#clip350)" d="M 0 0 M76.6495 455.207 Q73.5013 455.207 71.6495 457.36 Q69.8208 459.513 69.8208 463.263 Q69.8208 466.989 71.6495 469.165 Q73.5013 471.318 76.6495 471.318 Q79.7976 471.318 81.6263 469.165 Q83.4781 466.989 83.4781 463.263 Q83.4781 459.513 81.6263 457.36 Q79.7976 455.207 76.6495 455.207 M85.9318 440.554 L85.9318 444.814 Q84.1726 443.98 82.367 443.54 Q80.5846 443.101 78.8254 443.101 Q74.1958 443.101 71.7421 446.226 Q69.3115 449.351 68.9643 455.67 Q70.33 453.656 72.3902 452.591 Q74.4504 451.503 76.9272 451.503 Q82.1355 451.503 85.1448 454.675 Q88.1772 457.823 88.1772 463.263 Q88.1772 468.587 85.029 471.804 Q81.8809 475.022 76.6495 475.022 Q70.6541 475.022 67.4828 470.438 Q64.3116 465.832 64.3116 457.105 Q64.3116 448.911 68.2004 444.05 Q72.0893 439.165 78.6402 439.165 Q80.3994 439.165 82.1818 439.513 Q83.9874 439.86 85.9318 440.554 Z" fill="#000000" fill-rule="evenodd" fill-opacity="1" /><path clip-path="url(#clip350)" d="M 0 0 M103.247 442.869 Q99.6354 442.869 97.8068 446.434 Q96.0012 449.976 96.0012 457.105 Q96.0012 464.212 97.8068 467.776 Q99.6354 471.318 103.247 471.318 Q106.881 471.318 108.686 467.776 Q110.515 464.212 110.515 457.105 Q110.515 449.976 108.686 446.434 Q106.881 442.869 103.247 442.869 M103.247 439.165 Q109.057 439.165 112.112 443.772 Q115.191 448.355 115.191 457.105 Q115.191 465.832 112.112 470.438 Q109.057 475.022 103.247 475.022 Q97.4364 475.022 94.3577 470.438 Q91.3022 465.832 91.3022 457.105 Q91.3022 448.355 94.3577 443.772 Q97.4364 439.165 103.247 439.165 Z" fill="#000000" fill-rule="evenodd" fill-opacity="1" /><path clip-path="url(#clip350)" d="M 0 0 M130.26 442.869 Q126.649 442.869 124.82 446.434 Q123.015 449.976 123.015 457.105 Q123.015 464.212 124.82 467.776 Q126.649 471.318 130.26 471.318 Q133.895 471.318 135.7 467.776 Q137.529 464.212 137.529 457.105 Q137.529 449.976 135.7 446.434 Q133.895 442.869 130.26 442.869 M130.26 439.165 Q136.07 439.165 139.126 443.772 Q142.205 448.355 142.205 457.105 Q142.205 465.832 139.126 470.438 Q136.07 475.022 130.26 475.022 Q124.45 475.022 121.371 470.438 Q118.316 465.832 118.316 457.105 Q118.316 448.355 121.371 443.772 Q124.45 439.165 130.26 439.165 Z" fill="#000000" fill-rule="evenodd" fill-opacity="1" /><path clip-path="url(#clip350)" d="M 0 0 M76.3254 128.39 Q72.9921 128.39 71.0708 130.173 Q69.1726 131.955 69.1726 135.08 Q69.1726 138.205 71.0708 139.987 Q72.9921 141.77 76.3254 141.77 Q79.6587 141.77 81.58 139.987 Q83.5013 138.182 83.5013 135.08 Q83.5013 131.955 81.58 130.173 Q79.6819 128.39 76.3254 128.39 M71.6495 126.399 Q68.6402 125.659 66.9504 123.598 Q65.2838 121.538 65.2838 118.575 Q65.2838 114.432 68.2236 112.024 Q71.1865 109.617 76.3254 109.617 Q81.4874 109.617 84.4272 112.024 Q87.367 114.432 87.367 118.575 Q87.367 121.538 85.6772 123.598 Q84.0105 125.659 81.0244 126.399 Q84.404 127.186 86.279 129.478 Q88.1772 131.77 88.1772 135.08 Q88.1772 140.103 85.0985 142.788 Q82.0429 145.473 76.3254 145.473 Q70.6078 145.473 67.5291 142.788 Q64.4736 140.103 64.4736 135.08 Q64.4736 131.77 66.3717 129.478 Q68.2699 127.186 71.6495 126.399 M69.9365 119.015 Q69.9365 121.7 71.6032 123.205 Q73.293 124.71 76.3254 124.71 Q79.3346 124.71 81.0244 123.205 Q82.7374 121.7 82.7374 119.015 Q82.7374 116.33 81.0244 114.825 Q79.3346 113.321 76.3254 113.321 Q73.293 113.321 71.6032 114.825 Q69.9365 116.33 69.9365 119.015 Z" fill="#000000" fill-rule="evenodd" fill-opacity="1" /><path clip-path="url(#clip350)" d="M 0 0 M103.247 113.321 Q99.6354 113.321 97.8068 116.886 Q96.0012 120.427 96.0012 127.557 Q96.0012 134.663 97.8068 138.228 Q99.6354 141.77 103.247 141.77 Q106.881 141.77 108.686 138.228 Q110.515 134.663 110.515 127.557 Q110.515 120.427 108.686 116.886 Q106.881 113.321 103.247 113.321 M103.247 109.617 Q109.057 109.617 112.112 114.224 Q115.191 118.807 115.191 127.557 Q115.191 136.284 112.112 140.89 Q109.057 145.473 103.247 145.473 Q97.4364 145.473 94.3577 140.89 Q91.3022 136.284 91.3022 127.557 Q91.3022 118.807 94.3577 114.224 Q97.4364 109.617 103.247 109.617 Z" fill="#000000" fill-rule="evenodd" fill-opacity="1" /><path clip-path="url(#clip350)" d="M 0 0 M130.26 113.321 Q126.649 113.321 124.82 116.886 Q123.015 120.427 123.015 127.557 Q123.015 134.663 124.82 138.228 Q126.649 141.77 130.26 141.77 Q133.895 141.77 135.7 138.228 Q137.529 134.663 137.529 127.557 Q137.529 120.427 135.7 116.886 Q133.895 113.321 130.26 113.321 M130.26 109.617 Q136.07 109.617 139.126 114.224 Q142.205 118.807 142.205 127.557 Q142.205 136.284 139.126 140.89 Q136.07 145.473 130.26 145.473 Q124.45 145.473 121.371 140.89 Q118.316 136.284 118.316 127.557 Q118.316 118.807 121.371 114.224 Q124.45 109.617 130.26 109.617 Z" fill="#000000" fill-rule="evenodd" fill-opacity="1" /><path clip-path="url(#clip352)" d="
M286.469 1444.07 L286.469 1445.72 L315.514 1445.72 L315.514 1444.07 L286.469 1444.07 L286.469 1444.07  Z
  " fill="#009af9" fill-rule="evenodd" fill-opacity="1"/>
<polyline clip-path="url(#clip352)" style="stroke:#000000; stroke-width:4; stroke-opacity:1; fill:none" points="
  286.469,1444.07 286.469,1445.72 315.514,1445.72 315.514,1444.07 286.469,1444.07 
  "/>
<path clip-path="url(#clip352)" d="
M315.514 1445.72 L315.514 1445.72 L344.559 1445.72 L344.559 1445.72 L315.514 1445.72 L315.514 1445.72  Z
  " fill="#009af9" fill-rule="evenodd" fill-opacity="1"/>
<polyline clip-path="url(#clip352)" style="stroke:#000000; stroke-width:4; stroke-opacity:1; fill:none" points="
  315.514,1445.72 315.514,1445.72 344.559,1445.72 315.514,1445.72 
  "/>
<path clip-path="url(#clip352)" d="
M344.559 1445.72 L344.559 1445.72 L373.604 1445.72 L373.604 1445.72 L344.559 1445.72 L344.559 1445.72  Z
  " fill="#009af9" fill-rule="evenodd" fill-opacity="1"/>
<polyline clip-path="url(#clip352)" style="stroke:#000000; stroke-width:4; stroke-opacity:1; fill:none" points="
  344.559,1445.72 344.559,1445.72 373.604,1445.72 344.559,1445.72 
  "/>
<path clip-path="url(#clip352)" d="
M373.604 1444.07 L373.604 1445.72 L402.649 1445.72 L402.649 1444.07 L373.604 1444.07 L373.604 1444.07  Z
  " fill="#009af9" fill-rule="evenodd" fill-opacity="1"/>
<polyline clip-path="url(#clip352)" style="stroke:#000000; stroke-width:4; stroke-opacity:1; fill:none" points="
  373.604,1444.07 373.604,1445.72 402.649,1445.72 402.649,1444.07 373.604,1444.07 
  "/>
<path clip-path="url(#clip352)" d="
M402.649 1445.72 L402.649 1445.72 L431.694 1445.72 L431.694 1445.72 L402.649 1445.72 L402.649 1445.72  Z
  " fill="#009af9" fill-rule="evenodd" fill-opacity="1"/>
<polyline clip-path="url(#clip352)" style="stroke:#000000; stroke-width:4; stroke-opacity:1; fill:none" points="
  402.649,1445.72 402.649,1445.72 431.694,1445.72 402.649,1445.72 
  "/>
<path clip-path="url(#clip352)" d="
M431.694 1440.77 L431.694 1445.72 L460.74 1445.72 L460.74 1440.77 L431.694 1440.77 L431.694 1440.77  Z
  " fill="#009af9" fill-rule="evenodd" fill-opacity="1"/>
<polyline clip-path="url(#clip352)" style="stroke:#000000; stroke-width:4; stroke-opacity:1; fill:none" points="
  431.694,1440.77 431.694,1445.72 460.74,1445.72 460.74,1440.77 431.694,1440.77 
  "/>
<path clip-path="url(#clip352)" d="
M460.74 1442.42 L460.74 1445.72 L489.785 1445.72 L489.785 1442.42 L460.74 1442.42 L460.74 1442.42  Z
  " fill="#009af9" fill-rule="evenodd" fill-opacity="1"/>
<polyline clip-path="url(#clip352)" style="stroke:#000000; stroke-width:4; stroke-opacity:1; fill:none" points="
  460.74,1442.42 460.74,1445.72 489.785,1445.72 489.785,1442.42 460.74,1442.42 
  "/>
<path clip-path="url(#clip352)" d="
M489.785 1439.12 L489.785 1445.72 L518.83 1445.72 L518.83 1439.12 L489.785 1439.12 L489.785 1439.12  Z
  " fill="#009af9" fill-rule="evenodd" fill-opacity="1"/>
<polyline clip-path="url(#clip352)" style="stroke:#000000; stroke-width:4; stroke-opacity:1; fill:none" points="
  489.785,1439.12 489.785,1445.72 518.83,1445.72 518.83,1439.12 489.785,1439.12 
  "/>
<path clip-path="url(#clip352)" d="
M518.83 1429.24 L518.83 1445.72 L547.875 1445.72 L547.875 1429.24 L518.83 1429.24 L518.83 1429.24  Z
  " fill="#009af9" fill-rule="evenodd" fill-opacity="1"/>
<polyline clip-path="url(#clip352)" style="stroke:#000000; stroke-width:4; stroke-opacity:1; fill:none" points="
  518.83,1429.24 518.83,1445.72 547.875,1445.72 547.875,1429.24 518.83,1429.24 
  "/>
<path clip-path="url(#clip352)" d="
M547.875 1439.12 L547.875 1445.72 L576.92 1445.72 L576.92 1439.12 L547.875 1439.12 L547.875 1439.12  Z
  " fill="#009af9" fill-rule="evenodd" fill-opacity="1"/>
<polyline clip-path="url(#clip352)" style="stroke:#000000; stroke-width:4; stroke-opacity:1; fill:none" points="
  547.875,1439.12 547.875,1445.72 576.92,1445.72 576.92,1439.12 547.875,1439.12 
  "/>
<path clip-path="url(#clip352)" d="
M576.92 1434.18 L576.92 1445.72 L605.965 1445.72 L605.965 1434.18 L576.92 1434.18 L576.92 1434.18  Z
  " fill="#009af9" fill-rule="evenodd" fill-opacity="1"/>
<polyline clip-path="url(#clip352)" style="stroke:#000000; stroke-width:4; stroke-opacity:1; fill:none" points="
  576.92,1434.18 576.92,1445.72 605.965,1445.72 605.965,1434.18 576.92,1434.18 
  "/>
<path clip-path="url(#clip352)" d="
M605.965 1421 L605.965 1445.72 L635.01 1445.72 L635.01 1421 L605.965 1421 L605.965 1421  Z
  " fill="#009af9" fill-rule="evenodd" fill-opacity="1"/>
<polyline clip-path="url(#clip352)" style="stroke:#000000; stroke-width:4; stroke-opacity:1; fill:none" points="
  605.965,1421 605.965,1445.72 635.01,1445.72 635.01,1421 605.965,1421 
  "/>
<path clip-path="url(#clip352)" d="
M635.01 1422.65 L635.01 1445.72 L664.055 1445.72 L664.055 1422.65 L635.01 1422.65 L635.01 1422.65  Z
  " fill="#009af9" fill-rule="evenodd" fill-opacity="1"/>
<polyline clip-path="url(#clip352)" style="stroke:#000000; stroke-width:4; stroke-opacity:1; fill:none" points="
  635.01,1422.65 635.01,1445.72 664.055,1445.72 664.055,1422.65 635.01,1422.65 
  "/>
<path clip-path="url(#clip352)" d="
M664.055 1416.06 L664.055 1445.72 L693.101 1445.72 L693.101 1416.06 L664.055 1416.06 L664.055 1416.06  Z
  " fill="#009af9" fill-rule="evenodd" fill-opacity="1"/>
<polyline clip-path="url(#clip352)" style="stroke:#000000; stroke-width:4; stroke-opacity:1; fill:none" points="
  664.055,1416.06 664.055,1445.72 693.101,1445.72 693.101,1416.06 664.055,1416.06 
  "/>
<path clip-path="url(#clip352)" d="
M693.101 1416.06 L693.101 1445.72 L722.146 1445.72 L722.146 1416.06 L693.101 1416.06 L693.101 1416.06  Z
  " fill="#009af9" fill-rule="evenodd" fill-opacity="1"/>
<polyline clip-path="url(#clip352)" style="stroke:#000000; stroke-width:4; stroke-opacity:1; fill:none" points="
  693.101,1416.06 693.101,1445.72 722.146,1445.72 722.146,1416.06 693.101,1416.06 
  "/>
<path clip-path="url(#clip352)" d="
M722.146 1404.52 L722.146 1445.72 L751.191 1445.72 L751.191 1404.52 L722.146 1404.52 L722.146 1404.52  Z
  " fill="#009af9" fill-rule="evenodd" fill-opacity="1"/>
<polyline clip-path="url(#clip352)" style="stroke:#000000; stroke-width:4; stroke-opacity:1; fill:none" points="
  722.146,1404.52 722.146,1445.72 751.191,1445.72 751.191,1404.52 722.146,1404.52 
  "/>
<path clip-path="url(#clip352)" d="
M751.191 1401.23 L751.191 1445.72 L780.236 1445.72 L780.236 1401.23 L751.191 1401.23 L751.191 1401.23  Z
  " fill="#009af9" fill-rule="evenodd" fill-opacity="1"/>
<polyline clip-path="url(#clip352)" style="stroke:#000000; stroke-width:4; stroke-opacity:1; fill:none" points="
  751.191,1401.23 751.191,1445.72 780.236,1445.72 780.236,1401.23 751.191,1401.23 
  "/>
<path clip-path="url(#clip352)" d="
M780.236 1384.75 L780.236 1445.72 L809.281 1445.72 L809.281 1384.75 L780.236 1384.75 L780.236 1384.75  Z
  " fill="#009af9" fill-rule="evenodd" fill-opacity="1"/>
<polyline clip-path="url(#clip352)" style="stroke:#000000; stroke-width:4; stroke-opacity:1; fill:none" points="
  780.236,1384.75 780.236,1445.72 809.281,1445.72 809.281,1384.75 780.236,1384.75 
  "/>
<path clip-path="url(#clip352)" d="
M809.281 1381.45 L809.281 1445.72 L838.326 1445.72 L838.326 1381.45 L809.281 1381.45 L809.281 1381.45  Z
  " fill="#009af9" fill-rule="evenodd" fill-opacity="1"/>
<polyline clip-path="url(#clip352)" style="stroke:#000000; stroke-width:4; stroke-opacity:1; fill:none" points="
  809.281,1381.45 809.281,1445.72 838.326,1445.72 838.326,1381.45 809.281,1381.45 
  "/>
<path clip-path="url(#clip352)" d="
M838.326 1373.22 L838.326 1445.72 L867.371 1445.72 L867.371 1373.22 L838.326 1373.22 L838.326 1373.22  Z
  " fill="#009af9" fill-rule="evenodd" fill-opacity="1"/>
<polyline clip-path="url(#clip352)" style="stroke:#000000; stroke-width:4; stroke-opacity:1; fill:none" points="
  838.326,1373.22 838.326,1445.72 867.371,1445.72 867.371,1373.22 838.326,1373.22 
  "/>
<path clip-path="url(#clip352)" d="
M867.371 1371.57 L867.371 1445.72 L896.416 1445.72 L896.416 1371.57 L867.371 1371.57 L867.371 1371.57  Z
  " fill="#009af9" fill-rule="evenodd" fill-opacity="1"/>
<polyline clip-path="url(#clip352)" style="stroke:#000000; stroke-width:4; stroke-opacity:1; fill:none" points="
  867.371,1371.57 867.371,1445.72 896.416,1445.72 896.416,1371.57 867.371,1371.57 
  "/>
<path clip-path="url(#clip352)" d="
M896.416 1340.26 L896.416 1445.72 L925.461 1445.72 L925.461 1340.26 L896.416 1340.26 L896.416 1340.26  Z
  " fill="#009af9" fill-rule="evenodd" fill-opacity="1"/>
<polyline clip-path="url(#clip352)" style="stroke:#000000; stroke-width:4; stroke-opacity:1; fill:none" points="
  896.416,1340.26 896.416,1445.72 925.461,1445.72 925.461,1340.26 896.416,1340.26 
  "/>
<path clip-path="url(#clip352)" d="
M925.461 1346.85 L925.461 1445.72 L954.507 1445.72 L954.507 1346.85 L925.461 1346.85 L925.461 1346.85  Z
  " fill="#009af9" fill-rule="evenodd" fill-opacity="1"/>
<polyline clip-path="url(#clip352)" style="stroke:#000000; stroke-width:4; stroke-opacity:1; fill:none" points="
  925.461,1346.85 925.461,1445.72 954.507,1445.72 954.507,1346.85 925.461,1346.85 
  "/>
<path clip-path="url(#clip352)" d="
M954.507 1348.5 L954.507 1445.72 L983.552 1445.72 L983.552 1348.5 L954.507 1348.5 L954.507 1348.5  Z
  " fill="#009af9" fill-rule="evenodd" fill-opacity="1"/>
<polyline clip-path="url(#clip352)" style="stroke:#000000; stroke-width:4; stroke-opacity:1; fill:none" points="
  954.507,1348.5 954.507,1445.72 983.552,1445.72 983.552,1348.5 954.507,1348.5 
  "/>
<path clip-path="url(#clip352)" d="
M983.552 1307.31 L983.552 1445.72 L1012.6 1445.72 L1012.6 1307.31 L983.552 1307.31 L983.552 1307.31  Z
  " fill="#009af9" fill-rule="evenodd" fill-opacity="1"/>
<polyline clip-path="url(#clip352)" style="stroke:#000000; stroke-width:4; stroke-opacity:1; fill:none" points="
  983.552,1307.31 983.552,1445.72 1012.6,1445.72 1012.6,1307.31 983.552,1307.31 
  "/>
<path clip-path="url(#clip352)" d="
M1012.6 1312.25 L1012.6 1445.72 L1041.64 1445.72 L1041.64 1312.25 L1012.6 1312.25 L1012.6 1312.25  Z
  " fill="#009af9" fill-rule="evenodd" fill-opacity="1"/>
<polyline clip-path="url(#clip352)" style="stroke:#000000; stroke-width:4; stroke-opacity:1; fill:none" points="
  1012.6,1312.25 1012.6,1445.72 1041.64,1445.72 1041.64,1312.25 1012.6,1312.25 
  "/>
<path clip-path="url(#clip352)" d="
M1041.64 1320.49 L1041.64 1445.72 L1070.69 1445.72 L1070.69 1320.49 L1041.64 1320.49 L1041.64 1320.49  Z
  " fill="#009af9" fill-rule="evenodd" fill-opacity="1"/>
<polyline clip-path="url(#clip352)" style="stroke:#000000; stroke-width:4; stroke-opacity:1; fill:none" points="
  1041.64,1320.49 1041.64,1445.72 1070.69,1445.72 1070.69,1320.49 1041.64,1320.49 
  "/>
<path clip-path="url(#clip352)" d="
M1070.69 1284.24 L1070.69 1445.72 L1099.73 1445.72 L1099.73 1284.24 L1070.69 1284.24 L1070.69 1284.24  Z
  " fill="#009af9" fill-rule="evenodd" fill-opacity="1"/>
<polyline clip-path="url(#clip352)" style="stroke:#000000; stroke-width:4; stroke-opacity:1; fill:none" points="
  1070.69,1284.24 1070.69,1445.72 1099.73,1445.72 1099.73,1284.24 1070.69,1284.24 
  "/>
<path clip-path="url(#clip352)" d="
M1099.73 1289.18 L1099.73 1445.72 L1128.78 1445.72 L1128.78 1289.18 L1099.73 1289.18 L1099.73 1289.18  Z
  " fill="#009af9" fill-rule="evenodd" fill-opacity="1"/>
<polyline clip-path="url(#clip352)" style="stroke:#000000; stroke-width:4; stroke-opacity:1; fill:none" points="
  1099.73,1289.18 1099.73,1445.72 1128.78,1445.72 1128.78,1289.18 1099.73,1289.18 
  "/>
<path clip-path="url(#clip352)" d="
M1128.78 1267.76 L1128.78 1445.72 L1157.82 1445.72 L1157.82 1267.76 L1128.78 1267.76 L1128.78 1267.76  Z
  " fill="#009af9" fill-rule="evenodd" fill-opacity="1"/>
<polyline clip-path="url(#clip352)" style="stroke:#000000; stroke-width:4; stroke-opacity:1; fill:none" points="
  1128.78,1267.76 1128.78,1445.72 1157.82,1445.72 1157.82,1267.76 1128.78,1267.76 
  "/>
<path clip-path="url(#clip352)" d="
M1157.82 1285.88 L1157.82 1445.72 L1186.87 1445.72 L1186.87 1285.88 L1157.82 1285.88 L1157.82 1285.88  Z
  " fill="#009af9" fill-rule="evenodd" fill-opacity="1"/>
<polyline clip-path="url(#clip352)" style="stroke:#000000; stroke-width:4; stroke-opacity:1; fill:none" points="
  1157.82,1285.88 1157.82,1445.72 1186.87,1445.72 1186.87,1285.88 1157.82,1285.88 
  "/>
<path clip-path="url(#clip352)" d="
M1186.87 1226.57 L1186.87 1445.72 L1215.91 1445.72 L1215.91 1226.57 L1186.87 1226.57 L1186.87 1226.57  Z
  " fill="#009af9" fill-rule="evenodd" fill-opacity="1"/>
<polyline clip-path="url(#clip352)" style="stroke:#000000; stroke-width:4; stroke-opacity:1; fill:none" points="
  1186.87,1226.57 1186.87,1445.72 1215.91,1445.72 1215.91,1226.57 1186.87,1226.57 
  "/>
<path clip-path="url(#clip352)" d="
M1215.91 1269.41 L1215.91 1445.72 L1244.96 1445.72 L1244.96 1269.41 L1215.91 1269.41 L1215.91 1269.41  Z
  " fill="#009af9" fill-rule="evenodd" fill-opacity="1"/>
<polyline clip-path="url(#clip352)" style="stroke:#000000; stroke-width:4; stroke-opacity:1; fill:none" points="
  1215.91,1269.41 1215.91,1445.72 1244.96,1445.72 1244.96,1269.41 1215.91,1269.41 
  "/>
<path clip-path="url(#clip352)" d="
M1244.96 1256.23 L1244.96 1445.72 L1274 1445.72 L1274 1256.23 L1244.96 1256.23 L1244.96 1256.23  Z
  " fill="#009af9" fill-rule="evenodd" fill-opacity="1"/>
<polyline clip-path="url(#clip352)" style="stroke:#000000; stroke-width:4; stroke-opacity:1; fill:none" points="
  1244.96,1256.23 1244.96,1445.72 1274,1445.72 1274,1256.23 1244.96,1256.23 
  "/>
<path clip-path="url(#clip352)" d="
M1274 1241.4 L1274 1445.72 L1303.05 1445.72 L1303.05 1241.4 L1274 1241.4 L1274 1241.4  Z
  " fill="#009af9" fill-rule="evenodd" fill-opacity="1"/>
<polyline clip-path="url(#clip352)" style="stroke:#000000; stroke-width:4; stroke-opacity:1; fill:none" points="
  1274,1241.4 1274,1445.72 1303.05,1445.72 1303.05,1241.4 1274,1241.4 
  "/>
<path clip-path="url(#clip352)" d="
M1303.05 1259.52 L1303.05 1445.72 L1332.09 1445.72 L1332.09 1259.52 L1303.05 1259.52 L1303.05 1259.52  Z
  " fill="#009af9" fill-rule="evenodd" fill-opacity="1"/>
<polyline clip-path="url(#clip352)" style="stroke:#000000; stroke-width:4; stroke-opacity:1; fill:none" points="
  1303.05,1259.52 1303.05,1445.72 1332.09,1445.72 1332.09,1259.52 1303.05,1259.52 
  "/>
<path clip-path="url(#clip352)" d="
M1332.09 1145.83 L1332.09 1445.72 L1361.14 1445.72 L1361.14 1145.83 L1332.09 1145.83 L1332.09 1145.83  Z
  " fill="#009af9" fill-rule="evenodd" fill-opacity="1"/>
<polyline clip-path="url(#clip352)" style="stroke:#000000; stroke-width:4; stroke-opacity:1; fill:none" points="
  1332.09,1145.83 1332.09,1445.72 1361.14,1445.72 1361.14,1145.83 1332.09,1145.83 
  "/>
<path clip-path="url(#clip352)" d="
M1361.14 855.824 L1361.14 1445.72 L1390.18 1445.72 L1390.18 855.824 L1361.14 855.824 L1361.14 855.824  Z
  " fill="#009af9" fill-rule="evenodd" fill-opacity="1"/>
<polyline clip-path="url(#clip352)" style="stroke:#000000; stroke-width:4; stroke-opacity:1; fill:none" points="
  1361.14,855.824 1361.14,1445.72 1390.18,1445.72 1390.18,855.824 1361.14,855.824 
  "/>
<path clip-path="url(#clip352)" d="
M1390.18 150.59 L1390.18 1445.72 L1419.23 1445.72 L1419.23 150.59 L1390.18 150.59 L1390.18 150.59  Z
  " fill="#009af9" fill-rule="evenodd" fill-opacity="1"/>
<polyline clip-path="url(#clip352)" style="stroke:#000000; stroke-width:4; stroke-opacity:1; fill:none" points="
  1390.18,150.59 1390.18,1445.72 1419.23,1445.72 1419.23,150.59 1390.18,150.59 
  "/>
<path clip-path="url(#clip352)" d="
M1419.23 87.9763 L1419.23 1445.72 L1448.27 1445.72 L1448.27 87.9763 L1419.23 87.9763 L1419.23 87.9763  Z
  " fill="#009af9" fill-rule="evenodd" fill-opacity="1"/>
<polyline clip-path="url(#clip352)" style="stroke:#000000; stroke-width:4; stroke-opacity:1; fill:none" points="
  1419.23,87.9763 1419.23,1445.72 1448.27,1445.72 1448.27,87.9763 1419.23,87.9763 
  "/>
<path clip-path="url(#clip352)" d="
M1448.27 867.358 L1448.27 1445.72 L1477.32 1445.72 L1477.32 867.358 L1448.27 867.358 L1448.27 867.358  Z
  " fill="#009af9" fill-rule="evenodd" fill-opacity="1"/>
<polyline clip-path="url(#clip352)" style="stroke:#000000; stroke-width:4; stroke-opacity:1; fill:none" points="
  1448.27,867.358 1448.27,1445.72 1477.32,1445.72 1477.32,867.358 1448.27,867.358 
  "/>
<path clip-path="url(#clip352)" d="
M1477.32 1259.52 L1477.32 1445.72 L1506.36 1445.72 L1506.36 1259.52 L1477.32 1259.52 L1477.32 1259.52  Z
  " fill="#009af9" fill-rule="evenodd" fill-opacity="1"/>
<polyline clip-path="url(#clip352)" style="stroke:#000000; stroke-width:4; stroke-opacity:1; fill:none" points="
  1477.32,1259.52 1477.32,1445.72 1506.36,1445.72 1506.36,1259.52 1477.32,1259.52 
  "/>
<path clip-path="url(#clip352)" d="
M1506.36 1312.25 L1506.36 1445.72 L1535.41 1445.72 L1535.41 1312.25 L1506.36 1312.25 L1506.36 1312.25  Z
  " fill="#009af9" fill-rule="evenodd" fill-opacity="1"/>
<polyline clip-path="url(#clip352)" style="stroke:#000000; stroke-width:4; stroke-opacity:1; fill:none" points="
  1506.36,1312.25 1506.36,1445.72 1535.41,1445.72 1535.41,1312.25 1506.36,1312.25 
  "/>
<path clip-path="url(#clip352)" d="
M1535.41 1325.43 L1535.41 1445.72 L1564.45 1445.72 L1564.45 1325.43 L1535.41 1325.43 L1535.41 1325.43  Z
  " fill="#009af9" fill-rule="evenodd" fill-opacity="1"/>
<polyline clip-path="url(#clip352)" style="stroke:#000000; stroke-width:4; stroke-opacity:1; fill:none" points="
  1535.41,1325.43 1535.41,1445.72 1564.45,1445.72 1564.45,1325.43 1535.41,1325.43 
  "/>
<path clip-path="url(#clip352)" d="
M1564.45 1307.31 L1564.45 1445.72 L1593.5 1445.72 L1593.5 1307.31 L1564.45 1307.31 L1564.45 1307.31  Z
  " fill="#009af9" fill-rule="evenodd" fill-opacity="1"/>
<polyline clip-path="url(#clip352)" style="stroke:#000000; stroke-width:4; stroke-opacity:1; fill:none" points="
  1564.45,1307.31 1564.45,1445.72 1593.5,1445.72 1593.5,1307.31 1564.45,1307.31 
  "/>
<path clip-path="url(#clip352)" d="
M1593.5 1320.49 L1593.5 1445.72 L1622.54 1445.72 L1622.54 1320.49 L1593.5 1320.49 L1593.5 1320.49  Z
  " fill="#009af9" fill-rule="evenodd" fill-opacity="1"/>
<polyline clip-path="url(#clip352)" style="stroke:#000000; stroke-width:4; stroke-opacity:1; fill:none" points="
  1593.5,1320.49 1593.5,1445.72 1622.54,1445.72 1622.54,1320.49 1593.5,1320.49 
  "/>
<path clip-path="url(#clip352)" d="
M1622.54 1327.08 L1622.54 1445.72 L1651.59 1445.72 L1651.59 1327.08 L1622.54 1327.08 L1622.54 1327.08  Z
  " fill="#009af9" fill-rule="evenodd" fill-opacity="1"/>
<polyline clip-path="url(#clip352)" style="stroke:#000000; stroke-width:4; stroke-opacity:1; fill:none" points="
  1622.54,1327.08 1622.54,1445.72 1651.59,1445.72 1651.59,1327.08 1622.54,1327.08 
  "/>
<path clip-path="url(#clip352)" d="
M1651.59 1378.16 L1651.59 1445.72 L1680.63 1445.72 L1680.63 1378.16 L1651.59 1378.16 L1651.59 1378.16  Z
  " fill="#009af9" fill-rule="evenodd" fill-opacity="1"/>
<polyline clip-path="url(#clip352)" style="stroke:#000000; stroke-width:4; stroke-opacity:1; fill:none" points="
  1651.59,1378.16 1651.59,1445.72 1680.63,1445.72 1680.63,1378.16 1651.59,1378.16 
  "/>
<path clip-path="url(#clip352)" d="
M1680.63 1388.04 L1680.63 1445.72 L1709.68 1445.72 L1709.68 1388.04 L1680.63 1388.04 L1680.63 1388.04  Z
  " fill="#009af9" fill-rule="evenodd" fill-opacity="1"/>
<polyline clip-path="url(#clip352)" style="stroke:#000000; stroke-width:4; stroke-opacity:1; fill:none" points="
  1680.63,1388.04 1680.63,1445.72 1709.68,1445.72 1709.68,1388.04 1680.63,1388.04 
  "/>
<path clip-path="url(#clip352)" d="
M1709.68 1389.69 L1709.68 1445.72 L1738.72 1445.72 L1738.72 1389.69 L1709.68 1389.69 L1709.68 1389.69  Z
  " fill="#009af9" fill-rule="evenodd" fill-opacity="1"/>
<polyline clip-path="url(#clip352)" style="stroke:#000000; stroke-width:4; stroke-opacity:1; fill:none" points="
  1709.68,1389.69 1709.68,1445.72 1738.72,1445.72 1738.72,1389.69 1709.68,1389.69 
  "/>
<path clip-path="url(#clip352)" d="
M1738.72 1389.69 L1738.72 1445.72 L1767.77 1445.72 L1767.77 1389.69 L1738.72 1389.69 L1738.72 1389.69  Z
  " fill="#009af9" fill-rule="evenodd" fill-opacity="1"/>
<polyline clip-path="url(#clip352)" style="stroke:#000000; stroke-width:4; stroke-opacity:1; fill:none" points="
  1738.72,1389.69 1738.72,1445.72 1767.77,1445.72 1767.77,1389.69 1738.72,1389.69 
  "/>
<path clip-path="url(#clip352)" d="
M1767.77 1414.41 L1767.77 1445.72 L1796.81 1445.72 L1796.81 1414.41 L1767.77 1414.41 L1767.77 1414.41  Z
  " fill="#009af9" fill-rule="evenodd" fill-opacity="1"/>
<polyline clip-path="url(#clip352)" style="stroke:#000000; stroke-width:4; stroke-opacity:1; fill:none" points="
  1767.77,1414.41 1767.77,1445.72 1796.81,1445.72 1796.81,1414.41 1767.77,1414.41 
  "/>
<path clip-path="url(#clip352)" d="
M1796.81 1406.17 L1796.81 1445.72 L1825.86 1445.72 L1825.86 1406.17 L1796.81 1406.17 L1796.81 1406.17  Z
  " fill="#009af9" fill-rule="evenodd" fill-opacity="1"/>
<polyline clip-path="url(#clip352)" style="stroke:#000000; stroke-width:4; stroke-opacity:1; fill:none" points="
  1796.81,1406.17 1796.81,1445.72 1825.86,1445.72 1825.86,1406.17 1796.81,1406.17 
  "/>
<path clip-path="url(#clip352)" d="
M1825.86 1414.41 L1825.86 1445.72 L1854.91 1445.72 L1854.91 1414.41 L1825.86 1414.41 L1825.86 1414.41  Z
  " fill="#009af9" fill-rule="evenodd" fill-opacity="1"/>
<polyline clip-path="url(#clip352)" style="stroke:#000000; stroke-width:4; stroke-opacity:1; fill:none" points="
  1825.86,1414.41 1825.86,1445.72 1854.91,1445.72 1854.91,1414.41 1825.86,1414.41 
  "/>
<path clip-path="url(#clip352)" d="
M1854.91 1427.59 L1854.91 1445.72 L1883.95 1445.72 L1883.95 1427.59 L1854.91 1427.59 L1854.91 1427.59  Z
  " fill="#009af9" fill-rule="evenodd" fill-opacity="1"/>
<polyline clip-path="url(#clip352)" style="stroke:#000000; stroke-width:4; stroke-opacity:1; fill:none" points="
  1854.91,1427.59 1854.91,1445.72 1883.95,1445.72 1883.95,1427.59 1854.91,1427.59 
  "/>
<path clip-path="url(#clip352)" d="
M1883.95 1434.18 L1883.95 1445.72 L1913 1445.72 L1913 1434.18 L1883.95 1434.18 L1883.95 1434.18  Z
  " fill="#009af9" fill-rule="evenodd" fill-opacity="1"/>
<polyline clip-path="url(#clip352)" style="stroke:#000000; stroke-width:4; stroke-opacity:1; fill:none" points="
  1883.95,1434.18 1883.95,1445.72 1913,1445.72 1913,1434.18 1883.95,1434.18 
  "/>
<path clip-path="url(#clip352)" d="
M1913 1422.65 L1913 1445.72 L1942.04 1445.72 L1942.04 1422.65 L1913 1422.65 L1913 1422.65  Z
  " fill="#009af9" fill-rule="evenodd" fill-opacity="1"/>
<polyline clip-path="url(#clip352)" style="stroke:#000000; stroke-width:4; stroke-opacity:1; fill:none" points="
  1913,1422.65 1913,1445.72 1942.04,1445.72 1942.04,1422.65 1913,1422.65 
  "/>
<path clip-path="url(#clip352)" d="
M1942.04 1432.53 L1942.04 1445.72 L1971.09 1445.72 L1971.09 1432.53 L1942.04 1432.53 L1942.04 1432.53  Z
  " fill="#009af9" fill-rule="evenodd" fill-opacity="1"/>
<polyline clip-path="url(#clip352)" style="stroke:#000000; stroke-width:4; stroke-opacity:1; fill:none" points="
  1942.04,1432.53 1942.04,1445.72 1971.09,1445.72 1971.09,1432.53 1942.04,1432.53 
  "/>
<path clip-path="url(#clip352)" d="
M1971.09 1437.48 L1971.09 1445.72 L2000.13 1445.72 L2000.13 1437.48 L1971.09 1437.48 L1971.09 1437.48  Z
  " fill="#009af9" fill-rule="evenodd" fill-opacity="1"/>
<polyline clip-path="url(#clip352)" style="stroke:#000000; stroke-width:4; stroke-opacity:1; fill:none" points="
  1971.09,1437.48 1971.09,1445.72 2000.13,1445.72 2000.13,1437.48 1971.09,1437.48 
  "/>
<path clip-path="url(#clip352)" d="
M2000.13 1439.12 L2000.13 1445.72 L2029.18 1445.72 L2029.18 1439.12 L2000.13 1439.12 L2000.13 1439.12  Z
  " fill="#009af9" fill-rule="evenodd" fill-opacity="1"/>
<polyline clip-path="url(#clip352)" style="stroke:#000000; stroke-width:4; stroke-opacity:1; fill:none" points="
  2000.13,1439.12 2000.13,1445.72 2029.18,1445.72 2029.18,1439.12 2000.13,1439.12 
  "/>
<path clip-path="url(#clip352)" d="
M2029.18 1434.18 L2029.18 1445.72 L2058.22 1445.72 L2058.22 1434.18 L2029.18 1434.18 L2029.18 1434.18  Z
  " fill="#009af9" fill-rule="evenodd" fill-opacity="1"/>
<polyline clip-path="url(#clip352)" style="stroke:#000000; stroke-width:4; stroke-opacity:1; fill:none" points="
  2029.18,1434.18 2029.18,1445.72 2058.22,1445.72 2058.22,1434.18 2029.18,1434.18 
  "/>
<path clip-path="url(#clip352)" d="
M2058.22 1442.42 L2058.22 1445.72 L2087.27 1445.72 L2087.27 1442.42 L2058.22 1442.42 L2058.22 1442.42  Z
  " fill="#009af9" fill-rule="evenodd" fill-opacity="1"/>
<polyline clip-path="url(#clip352)" style="stroke:#000000; stroke-width:4; stroke-opacity:1; fill:none" points="
  2058.22,1442.42 2058.22,1445.72 2087.27,1445.72 2087.27,1442.42 2058.22,1442.42 
  "/>
<path clip-path="url(#clip352)" d="
M2087.27 1439.12 L2087.27 1445.72 L2116.31 1445.72 L2116.31 1439.12 L2087.27 1439.12 L2087.27 1439.12  Z
  " fill="#009af9" fill-rule="evenodd" fill-opacity="1"/>
<polyline clip-path="url(#clip352)" style="stroke:#000000; stroke-width:4; stroke-opacity:1; fill:none" points="
  2087.27,1439.12 2087.27,1445.72 2116.31,1445.72 2116.31,1439.12 2087.27,1439.12 
  "/>
<path clip-path="url(#clip352)" d="
M2116.31 1445.72 L2116.31 1445.72 L2145.36 1445.72 L2145.36 1445.72 L2116.31 1445.72 L2116.31 1445.72  Z
  " fill="#009af9" fill-rule="evenodd" fill-opacity="1"/>
<polyline clip-path="url(#clip352)" style="stroke:#000000; stroke-width:4; stroke-opacity:1; fill:none" points="
  2116.31,1445.72 2116.31,1445.72 2145.36,1445.72 2116.31,1445.72 
  "/>
<path clip-path="url(#clip352)" d="
M2145.36 1442.42 L2145.36 1445.72 L2174.4 1445.72 L2174.4 1442.42 L2145.36 1442.42 L2145.36 1442.42  Z
  " fill="#009af9" fill-rule="evenodd" fill-opacity="1"/>
<polyline clip-path="url(#clip352)" style="stroke:#000000; stroke-width:4; stroke-opacity:1; fill:none" points="
  2145.36,1442.42 2145.36,1445.72 2174.4,1445.72 2174.4,1442.42 2145.36,1442.42 
  "/>
<path clip-path="url(#clip352)" d="
M2174.4 1445.72 L2174.4 1445.72 L2203.45 1445.72 L2203.45 1445.72 L2174.4 1445.72 L2174.4 1445.72  Z
  " fill="#009af9" fill-rule="evenodd" fill-opacity="1"/>
<polyline clip-path="url(#clip352)" style="stroke:#000000; stroke-width:4; stroke-opacity:1; fill:none" points="
  2174.4,1445.72 2174.4,1445.72 2203.45,1445.72 2174.4,1445.72 
  "/>
<path clip-path="url(#clip352)" d="
M2203.45 1442.42 L2203.45 1445.72 L2232.49 1445.72 L2232.49 1442.42 L2203.45 1442.42 L2203.45 1442.42  Z
  " fill="#009af9" fill-rule="evenodd" fill-opacity="1"/>
<polyline clip-path="url(#clip352)" style="stroke:#000000; stroke-width:4; stroke-opacity:1; fill:none" points="
  2203.45,1442.42 2203.45,1445.72 2232.49,1445.72 2232.49,1442.42 2203.45,1442.42 
  "/>
<path clip-path="url(#clip350)" d="
M1985.9 216.178 L2279.87 216.178 L2279.87 95.2176 L1985.9 95.2176  Z
  " fill="#ffffff" fill-rule="evenodd" fill-opacity="1"/>
<polyline clip-path="url(#clip350)" style="stroke:#000000; stroke-width:4; stroke-opacity:1; fill:none" points="
  1985.9,216.178 2279.87,216.178 2279.87,95.2176 1985.9,95.2176 1985.9,216.178 
  "/>
<path clip-path="url(#clip350)" d="
M2010.2 179.89 L2155.97 179.89 L2155.97 131.506 L2010.2 131.506 L2010.2 179.89  Z
  " fill="#009af9" fill-rule="evenodd" fill-opacity="1"/>
<polyline clip-path="url(#clip350)" style="stroke:#000000; stroke-width:4; stroke-opacity:1; fill:none" points="
  2010.2,179.89 2155.97,179.89 2155.97,131.506 2010.2,131.506 2010.2,179.89 
  "/>
<path clip-path="url(#clip350)" d="M 0 0 M2194.11 175.385 Q2192.3 180.015 2190.59 181.427 Q2188.87 182.839 2186 182.839 L2182.6 182.839 L2182.6 179.274 L2185.1 179.274 Q2186.86 179.274 2187.83 178.44 Q2188.8 177.607 2189.98 174.505 L2190.75 172.561 L2180.26 147.052 L2184.78 147.052 L2192.88 167.329 L2200.98 147.052 L2205.49 147.052 L2194.11 175.385 Z" fill="#000000" fill-rule="evenodd" fill-opacity="1" /><path clip-path="url(#clip350)" d="M 0 0 M2211.37 169.042 L2219.01 169.042 L2219.01 142.677 L2210.7 144.343 L2210.7 140.084 L2218.97 138.418 L2223.64 138.418 L2223.64 169.042 L2231.28 169.042 L2231.28 172.978 L2211.37 172.978 L2211.37 169.042 Z" fill="#000000" fill-rule="evenodd" fill-opacity="1" /></svg>
