<?xml version="1.0" encoding="utf-8"?>
<svg xmlns="http://www.w3.org/2000/svg" xmlns:xlink="http://www.w3.org/1999/xlink" width="600" height="400" viewBox="0 0 2400 1600">
<defs>
  <clipPath id="clip320">
    <rect x="0" y="0" width="2400" height="1600"/>
  </clipPath>
</defs>
<path clip-path="url(#clip320)" d="
M0 1600 L2400 1600 L2400 0 L0 0  Z
  " fill="#ffffff" fill-rule="evenodd" fill-opacity="1"/>
<defs>
  <clipPath id="clip321">
    <rect x="480" y="0" width="1681" height="1600"/>
  </clipPath>
</defs>
<path clip-path="url(#clip320)" d="
M166.205 1486.45 L2352.76 1486.45 L2352.76 47.2441 L166.205 47.2441  Z
  " fill="#ffffff" fill-rule="evenodd" fill-opacity="1"/>
<defs>
  <clipPath id="clip322">
    <rect x="166" y="47" width="2188" height="1440"/>
  </clipPath>
</defs>
<polyline clip-path="url(#clip322)" style="stroke:#000000; stroke-width:2; stroke-opacity:0.1; fill:none" points="
  373.604,1486.45 373.604,47.2441 
  "/>
<polyline clip-path="url(#clip322)" style="stroke:#000000; stroke-width:2; stroke-opacity:0.1; fill:none" points="
  664.055,1486.45 664.055,47.2441 
  "/>
<polyline clip-path="url(#clip322)" style="stroke:#000000; stroke-width:2; stroke-opacity:0.1; fill:none" points="
  954.507,1486.45 954.507,47.2441 
  "/>
<polyline clip-path="url(#clip322)" style="stroke:#000000; stroke-width:2; stroke-opacity:0.1; fill:none" points="
  1244.96,1486.45 1244.96,47.2441 
  "/>
<polyline clip-path="url(#clip322)" style="stroke:#000000; stroke-width:2; stroke-opacity:0.1; fill:none" points="
  1535.41,1486.45 1535.41,47.2441 
  "/>
<polyline clip-path="url(#clip322)" style="stroke:#000000; stroke-width:2; stroke-opacity:0.1; fill:none" points="
  1825.86,1486.45 1825.86,47.2441 
  "/>
<polyline clip-path="url(#clip322)" style="stroke:#000000; stroke-width:2; stroke-opacity:0.1; fill:none" points="
  2116.31,1486.45 2116.31,47.2441 
  "/>
<polyline clip-path="url(#clip322)" style="stroke:#000000; stroke-width:2; stroke-opacity:0.1; fill:none" points="
  166.205,1445.72 2352.76,1445.72 
  "/>
<polyline clip-path="url(#clip322)" style="stroke:#000000; stroke-width:2; stroke-opacity:0.1; fill:none" points="
  166.205,1096.68 2352.76,1096.68 
  "/>
<polyline clip-path="url(#clip322)" style="stroke:#000000; stroke-width:2; stroke-opacity:0.1; fill:none" points="
  166.205,747.649 2352.76,747.649 
  "/>
<polyline clip-path="url(#clip322)" style="stroke:#000000; stroke-width:2; stroke-opacity:0.1; fill:none" points="
  166.205,398.616 2352.76,398.616 
  "/>
<polyline clip-path="url(#clip322)" style="stroke:#000000; stroke-width:2; stroke-opacity:0.1; fill:none" points="
  166.205,49.5826 2352.76,49.5826 
  "/>
<polyline clip-path="url(#clip320)" style="stroke:#000000; stroke-width:4; stroke-opacity:1; fill:none" points="
  166.205,1486.45 2352.76,1486.45 
  "/>
<polyline clip-path="url(#clip320)" style="stroke:#000000; stroke-width:4; stroke-opacity:1; fill:none" points="
  166.205,1486.45 166.205,47.2441 
  "/>
<polyline clip-path="url(#clip320)" style="stroke:#000000; stroke-width:4; stroke-opacity:1; fill:none" points="
  373.604,1486.45 373.604,1469.18 
  "/>
<polyline clip-path="url(#clip320)" style="stroke:#000000; stroke-width:4; stroke-opacity:1; fill:none" points="
  664.055,1486.45 664.055,1469.18 
  "/>
<polyline clip-path="url(#clip320)" style="stroke:#000000; stroke-width:4; stroke-opacity:1; fill:none" points="
  954.507,1486.45 954.507,1469.18 
  "/>
<polyline clip-path="url(#clip320)" style="stroke:#000000; stroke-width:4; stroke-opacity:1; fill:none" points="
  1244.96,1486.45 1244.96,1469.18 
  "/>
<polyline clip-path="url(#clip320)" style="stroke:#000000; stroke-width:4; stroke-opacity:1; fill:none" points="
  1535.41,1486.45 1535.41,1469.18 
  "/>
<polyline clip-path="url(#clip320)" style="stroke:#000000; stroke-width:4; stroke-opacity:1; fill:none" points="
  1825.86,1486.45 1825.86,1469.18 
  "/>
<polyline clip-path="url(#clip320)" style="stroke:#000000; stroke-width:4; stroke-opacity:1; fill:none" points="
  2116.31,1486.45 2116.31,1469.18 
  "/>
<polyline clip-path="url(#clip320)" style="stroke:#000000; stroke-width:4; stroke-opacity:1; fill:none" points="
  166.205,1445.72 192.443,1445.72 
  "/>
<polyline clip-path="url(#clip320)" style="stroke:#000000; stroke-width:4; stroke-opacity:1; fill:none" points="
  166.205,1096.68 192.443,1096.68 
  "/>
<polyline clip-path="url(#clip320)" style="stroke:#000000; stroke-width:4; stroke-opacity:1; fill:none" points="
  166.205,747.649 192.443,747.649 
  "/>
<polyline clip-path="url(#clip320)" style="stroke:#000000; stroke-width:4; stroke-opacity:1; fill:none" points="
  166.205,398.616 192.443,398.616 
  "/>
<polyline clip-path="url(#clip320)" style="stroke:#000000; stroke-width:4; stroke-opacity:1; fill:none" points="
  166.205,49.5826 192.443,49.5826 
  "/>
<path clip-path="url(#clip320)" d="M 0 0 M345.178 1523.09 L374.854 1523.09 L374.854 1527.03 L345.178 1527.03 L345.178 1523.09 Z" fill="#000000" fill-rule="evenodd" fill-opacity="1" /><path clip-path="url(#clip320)" d="M 0 0 M390.502 1520.78 Q387.354 1520.78 385.502 1522.93 Q383.674 1525.08 383.674 1528.83 Q383.674 1532.56 385.502 1534.73 Q387.354 1536.89 390.502 1536.89 Q393.65 1536.89 395.479 1534.73 Q397.331 1532.56 397.331 1528.83 Q397.331 1525.08 395.479 1522.93 Q393.65 1520.78 390.502 1520.78 M399.785 1506.12 L399.785 1510.38 Q398.025 1509.55 396.22 1509.11 Q394.437 1508.67 392.678 1508.67 Q388.049 1508.67 385.595 1511.8 Q383.164 1514.92 382.817 1521.24 Q384.183 1519.23 386.243 1518.16 Q388.303 1517.07 390.78 1517.07 Q395.988 1517.07 398.998 1520.24 Q402.03 1523.39 402.03 1528.83 Q402.03 1534.16 398.882 1537.37 Q395.734 1540.59 390.502 1540.59 Q384.507 1540.59 381.336 1536.01 Q378.164 1531.4 378.164 1522.67 Q378.164 1514.48 382.053 1509.62 Q385.942 1504.73 392.493 1504.73 Q394.252 1504.73 396.035 1505.08 Q397.84 1505.43 399.785 1506.12 Z" fill="#000000" fill-rule="evenodd" fill-opacity="1" /><path clip-path="url(#clip320)" d="M 0 0 M635.468 1523.09 L665.143 1523.09 L665.143 1527.03 L635.468 1527.03 L635.468 1523.09 Z" fill="#000000" fill-rule="evenodd" fill-opacity="1" /><path clip-path="url(#clip320)" d="M 0 0 M683.06 1509.43 L671.254 1527.88 L683.06 1527.88 L683.06 1509.43 M681.833 1505.36 L687.713 1505.36 L687.713 1527.88 L692.643 1527.88 L692.643 1531.77 L687.713 1531.77 L687.713 1539.92 L683.06 1539.92 L683.06 1531.77 L667.458 1531.77 L667.458 1527.26 L681.833 1505.36 Z" fill="#000000" fill-rule="evenodd" fill-opacity="1" /><path clip-path="url(#clip320)" d="M 0 0 M926.96 1523.09 L956.636 1523.09 L956.636 1527.03 L926.96 1527.03 L926.96 1523.09 Z" fill="#000000" fill-rule="evenodd" fill-opacity="1" /><path clip-path="url(#clip320)" d="M 0 0 M965.733 1535.98 L982.053 1535.98 L982.053 1539.92 L960.108 1539.92 L960.108 1535.98 Q962.77 1533.23 967.354 1528.6 Q971.96 1523.95 973.141 1522.61 Q975.386 1520.08 976.266 1518.35 Q977.168 1516.59 977.168 1514.9 Q977.168 1512.14 975.224 1510.41 Q973.303 1508.67 970.201 1508.67 Q968.002 1508.67 965.548 1509.43 Q963.118 1510.2 960.34 1511.75 L960.34 1507.03 Q963.164 1505.89 965.618 1505.31 Q968.071 1504.73 970.108 1504.73 Q975.479 1504.73 978.673 1507.42 Q981.868 1510.11 981.868 1514.6 Q981.868 1516.73 981.057 1518.65 Q980.27 1520.54 978.164 1523.14 Q977.585 1523.81 974.483 1527.03 Q971.381 1530.22 965.733 1535.98 Z" fill="#000000" fill-rule="evenodd" fill-opacity="1" /><path clip-path="url(#clip320)" d="M 0 0 M1244.96 1508.44 Q1241.35 1508.44 1239.52 1512 Q1237.71 1515.55 1237.71 1522.67 Q1237.71 1529.78 1239.52 1533.35 Q1241.35 1536.89 1244.96 1536.89 Q1248.59 1536.89 1250.4 1533.35 Q1252.23 1529.78 1252.23 1522.67 Q1252.23 1515.55 1250.4 1512 Q1248.59 1508.44 1244.96 1508.44 M1244.96 1504.73 Q1250.77 1504.73 1253.82 1509.34 Q1256.9 1513.92 1256.9 1522.67 Q1256.9 1531.4 1253.82 1536.01 Q1250.77 1540.59 1244.96 1540.59 Q1239.15 1540.59 1236.07 1536.01 Q1233.01 1531.4 1233.01 1522.67 Q1233.01 1513.92 1236.07 1509.34 Q1239.15 1504.73 1244.96 1504.73 Z" fill="#000000" fill-rule="evenodd" fill-opacity="1" /><path clip-path="url(#clip320)" d="M 0 0 M1530.06 1535.98 L1546.38 1535.98 L1546.38 1539.92 L1524.44 1539.92 L1524.44 1535.98 Q1527.1 1533.23 1531.68 1528.6 Q1536.29 1523.95 1537.47 1522.61 Q1539.71 1520.08 1540.59 1518.35 Q1541.5 1516.59 1541.5 1514.9 Q1541.5 1512.14 1539.55 1510.41 Q1537.63 1508.67 1534.53 1508.67 Q1532.33 1508.67 1529.88 1509.43 Q1527.45 1510.2 1524.67 1511.75 L1524.67 1507.03 Q1527.49 1505.89 1529.95 1505.31 Q1532.4 1504.73 1534.44 1504.73 Q1539.81 1504.73 1543 1507.42 Q1546.2 1510.11 1546.2 1514.6 Q1546.2 1516.73 1545.39 1518.65 Q1544.6 1520.54 1542.49 1523.14 Q1541.91 1523.81 1538.81 1527.03 Q1535.71 1530.22 1530.06 1535.98 Z" fill="#000000" fill-rule="evenodd" fill-opacity="1" /><path clip-path="url(#clip320)" d="M 0 0 M1828.87 1509.43 L1817.06 1527.88 L1828.87 1527.88 L1828.87 1509.43 M1827.64 1505.36 L1833.52 1505.36 L1833.52 1527.88 L1838.45 1527.88 L1838.45 1531.77 L1833.52 1531.77 L1833.52 1539.92 L1828.87 1539.92 L1828.87 1531.77 L1813.27 1531.77 L1813.27 1527.26 L1827.64 1505.36 Z" fill="#000000" fill-rule="evenodd" fill-opacity="1" /><path clip-path="url(#clip320)" d="M 0 0 M2116.72 1520.78 Q2113.57 1520.78 2111.72 1522.93 Q2109.89 1525.08 2109.89 1528.83 Q2109.89 1532.56 2111.72 1534.73 Q2113.57 1536.89 2116.72 1536.89 Q2119.86 1536.89 2121.69 1534.73 Q2123.54 1532.56 2123.54 1528.83 Q2123.54 1525.08 2121.69 1522.93 Q2119.86 1520.78 2116.72 1520.78 M2126 1506.12 L2126 1510.38 Q2124.24 1509.55 2122.43 1509.11 Q2120.65 1508.67 2118.89 1508.67 Q2114.26 1508.67 2111.81 1511.8 Q2109.38 1514.92 2109.03 1521.24 Q2110.4 1519.23 2112.46 1518.16 Q2114.52 1517.07 2116.99 1517.07 Q2122.2 1517.07 2125.21 1520.24 Q2128.24 1523.39 2128.24 1528.83 Q2128.24 1534.16 2125.1 1537.37 Q2121.95 1540.59 2116.72 1540.59 Q2110.72 1540.59 2107.55 1536.01 Q2104.38 1531.4 2104.38 1522.67 Q2104.38 1514.48 2108.27 1509.62 Q2112.16 1504.73 2118.71 1504.73 Q2120.47 1504.73 2122.25 1505.08 Q2124.05 1505.43 2126 1506.12 Z" fill="#000000" fill-rule="evenodd" fill-opacity="1" /><path clip-path="url(#clip320)" d="M 0 0 M130.26 1431.51 Q126.649 1431.51 124.82 1435.08 Q123.015 1438.62 123.015 1445.75 Q123.015 1452.86 124.82 1456.42 Q126.649 1459.96 130.26 1459.96 Q133.895 1459.96 135.7 1456.42 Q137.529 1452.86 137.529 1445.75 Q137.529 1438.62 135.7 1435.08 Q133.895 1431.51 130.26 1431.51 M130.26 1427.81 Q136.07 1427.81 139.126 1432.42 Q142.205 1437 142.205 1445.75 Q142.205 1454.48 139.126 1459.08 Q136.07 1463.67 130.26 1463.67 Q124.45 1463.67 121.371 1459.08 Q118.316 1454.48 118.316 1445.75 Q118.316 1437 121.371 1432.42 Q124.45 1427.81 130.26 1427.81 Z" fill="#000000" fill-rule="evenodd" fill-opacity="1" /><path clip-path="url(#clip320)" d="M 0 0 M71.8578 1110.03 L88.1772 1110.03 L88.1772 1113.96 L66.2328 1113.96 L66.2328 1110.03 Q68.8949 1107.27 73.4782 1102.64 Q78.0846 1097.99 79.2652 1096.65 Q81.5105 1094.12 82.3902 1092.39 Q83.2929 1090.63 83.2929 1088.94 Q83.2929 1086.18 81.3485 1084.45 Q79.4272 1082.71 76.3254 1082.71 Q74.1263 1082.71 71.6726 1083.48 Q69.2421 1084.24 66.4643 1085.79 L66.4643 1081.07 Q69.2884 1079.93 71.7421 1079.36 Q74.1958 1078.78 76.2328 1078.78 Q81.6031 1078.78 84.7976 1081.46 Q87.992 1084.15 87.992 1088.64 Q87.992 1090.77 87.1818 1092.69 Q86.3948 1094.59 84.2883 1097.18 Q83.7096 1097.85 80.6078 1101.07 Q77.5059 1104.26 71.8578 1110.03 Z" fill="#000000" fill-rule="evenodd" fill-opacity="1" /><path clip-path="url(#clip320)" d="M 0 0 M103.247 1082.48 Q99.6354 1082.48 97.8068 1086.05 Q96.0012 1089.59 96.0012 1096.72 Q96.0012 1103.82 97.8068 1107.39 Q99.6354 1110.93 103.247 1110.93 Q106.881 1110.93 108.686 1107.39 Q110.515 1103.82 110.515 1096.72 Q110.515 1089.59 108.686 1086.05 Q106.881 1082.48 103.247 1082.48 M103.247 1078.78 Q109.057 1078.78 112.112 1083.38 Q115.191 1087.97 115.191 1096.72 Q115.191 1105.44 112.112 1110.05 Q109.057 1114.63 103.247 1114.63 Q97.4364 1114.63 94.3577 1110.05 Q91.3022 1105.44 91.3022 1096.72 Q91.3022 1087.97 94.3577 1083.38 Q97.4364 1078.78 103.247 1078.78 Z" fill="#000000" fill-rule="evenodd" fill-opacity="1" /><path clip-path="url(#clip320)" d="M 0 0 M130.26 1082.48 Q126.649 1082.48 124.82 1086.05 Q123.015 1089.59 123.015 1096.72 Q123.015 1103.82 124.82 1107.39 Q126.649 1110.93 130.26 1110.93 Q133.895 1110.93 135.7 1107.39 Q137.529 1103.82 137.529 1096.72 Q137.529 1089.59 135.7 1086.05 Q133.895 1082.48 130.26 1082.48 M130.26 1078.78 Q136.07 1078.78 139.126 1083.38 Q142.205 1087.97 142.205 1096.72 Q142.205 1105.44 139.126 1110.05 Q136.07 1114.63 130.26 1114.63 Q124.45 1114.63 121.371 1110.05 Q118.316 1105.44 118.316 1096.72 Q118.316 1087.97 121.371 1083.38 Q124.45 1078.78 130.26 1078.78 Z" fill="#000000" fill-rule="evenodd" fill-opacity="1" /><path clip-path="url(#clip320)" d="M 0 0 M78.5939 734.443 L66.7884 752.892 L78.5939 752.892 L78.5939 734.443 M77.367 730.369 L83.2466 730.369 L83.2466 752.892 L88.1772 752.892 L88.1772 756.781 L83.2466 756.781 L83.2466 764.929 L78.5939 764.929 L78.5939 756.781 L62.9921 756.781 L62.9921 752.267 L77.367 730.369 Z" fill="#000000" fill-rule="evenodd" fill-opacity="1" /><path clip-path="url(#clip320)" d="M 0 0 M103.247 733.448 Q99.6354 733.448 97.8068 737.013 Q96.0012 740.554 96.0012 747.684 Q96.0012 754.79 97.8068 758.355 Q99.6354 761.897 103.247 761.897 Q106.881 761.897 108.686 758.355 Q110.515 754.79 110.515 747.684 Q110.515 740.554 108.686 737.013 Q106.881 733.448 103.247 733.448 M103.247 729.744 Q109.057 729.744 112.112 734.351 Q115.191 738.934 115.191 747.684 Q115.191 756.411 112.112 761.017 Q109.057 765.6 103.247 765.6 Q97.4364 765.6 94.3577 761.017 Q91.3022 756.411 91.3022 747.684 Q91.3022 738.934 94.3577 734.351 Q97.4364 729.744 103.247 729.744 Z" fill="#000000" fill-rule="evenodd" fill-opacity="1" /><path clip-path="url(#clip320)" d="M 0 0 M130.26 733.448 Q126.649 733.448 124.82 737.013 Q123.015 740.554 123.015 747.684 Q123.015 754.79 124.82 758.355 Q126.649 761.897 130.26 761.897 Q133.895 761.897 135.7 758.355 Q137.529 754.79 137.529 747.684 Q137.529 740.554 135.7 737.013 Q133.895 733.448 130.26 733.448 M130.26 729.744 Q136.07 729.744 139.126 734.351 Q142.205 738.934 142.205 747.684 Q142.205 756.411 139.126 761.017 Q136.07 765.6 130.26 765.6 Q124.45 765.6 121.371 761.017 Q118.316 756.411 118.316 747.684 Q118.316 738.934 121.371 734.351 Q124.45 729.744 130.26 729.744 Z" fill="#000000" fill-rule="evenodd" fill-opacity="1" /><path clip-path="url(#clip320)" d="M 0 0 M76.6495 396.752 Q73.5013 396.752 71.6495 398.905 Q69.8208 401.058 69.8208 404.808 Q69.8208 408.535 71.6495 410.711 Q73.5013 412.863 76.6495 412.863 Q79.7976 412.863 81.6263 410.711 Q83.4781 408.535 83.4781 404.808 Q83.4781 401.058 81.6263 398.905 Q79.7976 396.752 76.6495 396.752 M85.9318 382.1 L85.9318 386.359 Q84.1726 385.526 82.367 385.086 Q80.5846 384.646 78.8254 384.646 Q74.1958 384.646 71.7421 387.771 Q69.3115 390.896 68.9643 397.215 Q70.33 395.202 72.3902 394.137 Q74.4504 393.049 76.9272 393.049 Q82.1355 393.049 85.1448 396.22 Q88.1772 399.368 88.1772 404.808 Q88.1772 410.132 85.029 413.35 Q81.8809 416.567 76.6495 416.567 Q70.6541 416.567 67.4828 411.984 Q64.3116 407.377 64.3116 398.651 Q64.3116 390.456 68.2004 385.595 Q72.0893 380.711 78.6402 380.711 Q80.3994 380.711 82.1818 381.058 Q83.9874 381.405 85.9318 382.1 Z" fill="#000000" fill-rule="evenodd" fill-opacity="1" /><path clip-path="url(#clip320)" d="M 0 0 M103.247 384.415 Q99.6354 384.415 97.8068 387.979 Q96.0012 391.521 96.0012 398.651 Q96.0012 405.757 97.8068 409.322 Q99.6354 412.863 103.247 412.863 Q106.881 412.863 108.686 409.322 Q110.515 405.757 110.515 398.651 Q110.515 391.521 108.686 387.979 Q106.881 384.415 103.247 384.415 M103.247 380.711 Q109.057 380.711 112.112 385.317 Q115.191 389.901 115.191 398.651 Q115.191 407.377 112.112 411.984 Q109.057 416.567 103.247 416.567 Q97.4364 416.567 94.3577 411.984 Q91.3022 407.377 91.3022 398.651 Q91.3022 389.901 94.3577 385.317 Q97.4364 380.711 103.247 380.711 Z" fill="#000000" fill-rule="evenodd" fill-opacity="1" /><path clip-path="url(#clip320)" d="M 0 0 M130.26 384.415 Q126.649 384.415 124.82 387.979 Q123.015 391.521 123.015 398.651 Q123.015 405.757 124.82 409.322 Q126.649 412.863 130.26 412.863 Q133.895 412.863 135.7 409.322 Q137.529 405.757 137.529 398.651 Q137.529 391.521 135.7 387.979 Q133.895 384.415 130.26 384.415 M130.26 380.711 Q136.07 380.711 139.126 385.317 Q142.205 389.901 142.205 398.651 Q142.205 407.377 139.126 411.984 Q136.07 416.567 130.26 416.567 Q124.45 416.567 121.371 411.984 Q118.316 407.377 118.316 398.651 Q118.316 389.901 121.371 385.317 Q124.45 380.711 130.26 380.711 Z" fill="#000000" fill-rule="evenodd" fill-opacity="1" /><path clip-path="url(#clip320)" d="M 0 0 M76.3254 50.4507 Q72.9921 50.4507 71.0708 52.2331 Q69.1726 54.0155 69.1726 57.1404 Q69.1726 60.2654 71.0708 62.0478 Q72.9921 63.8302 76.3254 63.8302 Q79.6587 63.8302 81.58 62.0478 Q83.5013 60.2423 83.5013 57.1404 Q83.5013 54.0155 81.58 52.2331 Q79.6819 50.4507 76.3254 50.4507 M71.6495 48.4599 Q68.6402 47.7192 66.9504 45.659 Q65.2838 43.5989 65.2838 40.6359 Q65.2838 36.4924 68.2236 34.085 Q71.1865 31.6776 76.3254 31.6776 Q81.4874 31.6776 84.4272 34.085 Q87.367 36.4924 87.367 40.6359 Q87.367 43.5989 85.6772 45.659 Q84.0105 47.7192 81.0244 48.4599 Q84.404 49.247 86.279 51.5386 Q88.1772 53.8303 88.1772 57.1404 Q88.1772 62.1636 85.0985 64.8487 Q82.0429 67.5339 76.3254 67.5339 Q70.6078 67.5339 67.5291 64.8487 Q64.4736 62.1636 64.4736 57.1404 Q64.4736 53.8303 66.3717 51.5386 Q68.2699 49.247 71.6495 48.4599 M69.9365 41.0757 Q69.9365 43.7609 71.6032 45.2655 Q73.293 46.7701 76.3254 46.7701 Q79.3346 46.7701 81.0244 45.2655 Q82.7374 43.7609 82.7374 41.0757 Q82.7374 38.3905 81.0244 36.8859 Q79.3346 35.3813 76.3254 35.3813 Q73.293 35.3813 71.6032 36.8859 Q69.9365 38.3905 69.9365 41.0757 Z" fill="#000000" fill-rule="evenodd" fill-opacity="1" /><path clip-path="url(#clip320)" d="M 0 0 M103.247 35.3813 Q99.6354 35.3813 97.8068 38.9461 Q96.0012 42.4877 96.0012 49.6173 Q96.0012 56.7238 97.8068 60.2886 Q99.6354 63.8302 103.247 63.8302 Q106.881 63.8302 108.686 60.2886 Q110.515 56.7238 110.515 49.6173 Q110.515 42.4877 108.686 38.9461 Q106.881 35.3813 103.247 35.3813 M103.247 31.6776 Q109.057 31.6776 112.112 36.2841 Q115.191 40.8674 115.191 49.6173 Q115.191 58.3441 112.112 62.9506 Q109.057 67.5339 103.247 67.5339 Q97.4364 67.5339 94.3577 62.9506 Q91.3022 58.3441 91.3022 49.6173 Q91.3022 40.8674 94.3577 36.2841 Q97.4364 31.6776 103.247 31.6776 Z" fill="#000000" fill-rule="evenodd" fill-opacity="1" /><path clip-path="url(#clip320)" d="M 0 0 M130.26 35.3813 Q126.649 35.3813 124.82 38.9461 Q123.015 42.4877 123.015 49.6173 Q123.015 56.7238 124.82 60.2886 Q126.649 63.8302 130.26 63.8302 Q133.895 63.8302 135.7 60.2886 Q137.529 56.7238 137.529 49.6173 Q137.529 42.4877 135.7 38.9461 Q133.895 35.3813 130.26 35.3813 M130.26 31.6776 Q136.07 31.6776 139.126 36.2841 Q142.205 40.8674 142.205 49.6173 Q142.205 58.3441 139.126 62.9506 Q136.07 67.5339 130.26 67.5339 Q124.45 67.5339 121.371 62.9506 Q118.316 58.3441 118.316 49.6173 Q118.316 40.8674 121.371 36.2841 Q124.45 31.6776 130.26 31.6776 Z" fill="#000000" fill-rule="evenodd" fill-opacity="1" /><path clip-path="url(#clip322)" d="
M286.469 1443.97 L286.469 1445.72 L315.514 1445.72 L315.514 1443.97 L286.469 1443.97 L286.469 1443.97  Z
  " fill="#009af9" fill-rule="evenodd" fill-opacity="1"/>
<polyline clip-path="url(#clip322)" style="stroke:#000000; stroke-width:4; stroke-opacity:1; fill:none" points="
  286.469,1443.97 286.469,1445.72 315.514,1445.72 315.514,1443.97 286.469,1443.97 
  "/>
<path clip-path="url(#clip322)" d="
M315.514 1445.72 L315.514 1445.72 L344.559 1445.72 L344.559 1445.72 L315.514 1445.72 L315.514 1445.72  Z
  " fill="#009af9" fill-rule="evenodd" fill-opacity="1"/>
<polyline clip-path="url(#clip322)" style="stroke:#000000; stroke-width:4; stroke-opacity:1; fill:none" points="
  315.514,1445.72 315.514,1445.72 344.559,1445.72 315.514,1445.72 
  "/>
<path clip-path="url(#clip322)" d="
M344.559 1440.48 L344.559 1445.72 L373.604 1445.72 L373.604 1440.48 L344.559 1440.48 L344.559 1440.48  Z
  " fill="#009af9" fill-rule="evenodd" fill-opacity="1"/>
<polyline clip-path="url(#clip322)" style="stroke:#000000; stroke-width:4; stroke-opacity:1; fill:none" points="
  344.559,1440.48 344.559,1445.72 373.604,1445.72 373.604,1440.48 344.559,1440.48 
  "/>
<path clip-path="url(#clip322)" d="
M373.604 1438.74 L373.604 1445.72 L402.649 1445.72 L402.649 1438.74 L373.604 1438.74 L373.604 1438.74  Z
  " fill="#009af9" fill-rule="evenodd" fill-opacity="1"/>
<polyline clip-path="url(#clip322)" style="stroke:#000000; stroke-width:4; stroke-opacity:1; fill:none" points="
  373.604,1438.74 373.604,1445.72 402.649,1445.72 402.649,1438.74 373.604,1438.74 
  "/>
<path clip-path="url(#clip322)" d="
M402.649 1438.74 L402.649 1445.72 L431.694 1445.72 L431.694 1438.74 L402.649 1438.74 L402.649 1438.74  Z
  " fill="#009af9" fill-rule="evenodd" fill-opacity="1"/>
<polyline clip-path="url(#clip322)" style="stroke:#000000; stroke-width:4; stroke-opacity:1; fill:none" points="
  402.649,1438.74 402.649,1445.72 431.694,1445.72 431.694,1438.74 402.649,1438.74 
  "/>
<path clip-path="url(#clip322)" d="
M431.694 1438.74 L431.694 1445.72 L460.74 1445.72 L460.74 1438.74 L431.694 1438.74 L431.694 1438.74  Z
  " fill="#009af9" fill-rule="evenodd" fill-opacity="1"/>
<polyline clip-path="url(#clip322)" style="stroke:#000000; stroke-width:4; stroke-opacity:1; fill:none" points="
  431.694,1438.74 431.694,1445.72 460.74,1445.72 460.74,1438.74 431.694,1438.74 
  "/>
<path clip-path="url(#clip322)" d="
M460.74 1440.48 L460.74 1445.72 L489.785 1445.72 L489.785 1440.48 L460.74 1440.48 L460.74 1440.48  Z
  " fill="#009af9" fill-rule="evenodd" fill-opacity="1"/>
<polyline clip-path="url(#clip322)" style="stroke:#000000; stroke-width:4; stroke-opacity:1; fill:none" points="
  460.74,1440.48 460.74,1445.72 489.785,1445.72 489.785,1440.48 460.74,1440.48 
  "/>
<path clip-path="url(#clip322)" d="
M489.785 1442.23 L489.785 1445.72 L518.83 1445.72 L518.83 1442.23 L489.785 1442.23 L489.785 1442.23  Z
  " fill="#009af9" fill-rule="evenodd" fill-opacity="1"/>
<polyline clip-path="url(#clip322)" style="stroke:#000000; stroke-width:4; stroke-opacity:1; fill:none" points="
  489.785,1442.23 489.785,1445.72 518.83,1445.72 518.83,1442.23 489.785,1442.23 
  "/>
<path clip-path="url(#clip322)" d="
M518.83 1435.24 L518.83 1445.72 L547.875 1445.72 L547.875 1435.24 L518.83 1435.24 L518.83 1435.24  Z
  " fill="#009af9" fill-rule="evenodd" fill-opacity="1"/>
<polyline clip-path="url(#clip322)" style="stroke:#000000; stroke-width:4; stroke-opacity:1; fill:none" points="
  518.83,1435.24 518.83,1445.72 547.875,1445.72 547.875,1435.24 518.83,1435.24 
  "/>
<path clip-path="url(#clip322)" d="
M547.875 1431.75 L547.875 1445.72 L576.92 1445.72 L576.92 1431.75 L547.875 1431.75 L547.875 1431.75  Z
  " fill="#009af9" fill-rule="evenodd" fill-opacity="1"/>
<polyline clip-path="url(#clip322)" style="stroke:#000000; stroke-width:4; stroke-opacity:1; fill:none" points="
  547.875,1431.75 547.875,1445.72 576.92,1445.72 576.92,1431.75 547.875,1431.75 
  "/>
<path clip-path="url(#clip322)" d="
M576.92 1442.23 L576.92 1445.72 L605.965 1445.72 L605.965 1442.23 L576.92 1442.23 L576.92 1442.23  Z
  " fill="#009af9" fill-rule="evenodd" fill-opacity="1"/>
<polyline clip-path="url(#clip322)" style="stroke:#000000; stroke-width:4; stroke-opacity:1; fill:none" points="
  576.92,1442.23 576.92,1445.72 605.965,1445.72 605.965,1442.23 576.92,1442.23 
  "/>
<path clip-path="url(#clip322)" d="
M605.965 1416.05 L605.965 1445.72 L635.01 1445.72 L635.01 1416.05 L605.965 1416.05 L605.965 1416.05  Z
  " fill="#009af9" fill-rule="evenodd" fill-opacity="1"/>
<polyline clip-path="url(#clip322)" style="stroke:#000000; stroke-width:4; stroke-opacity:1; fill:none" points="
  605.965,1416.05 605.965,1445.72 635.01,1445.72 635.01,1416.05 605.965,1416.05 
  "/>
<path clip-path="url(#clip322)" d="
M635.01 1419.54 L635.01 1445.72 L664.055 1445.72 L664.055 1419.54 L635.01 1419.54 L635.01 1419.54  Z
  " fill="#009af9" fill-rule="evenodd" fill-opacity="1"/>
<polyline clip-path="url(#clip322)" style="stroke:#000000; stroke-width:4; stroke-opacity:1; fill:none" points="
  635.01,1419.54 635.01,1445.72 664.055,1445.72 664.055,1419.54 635.01,1419.54 
  "/>
<path clip-path="url(#clip322)" d="
M664.055 1416.05 L664.055 1445.72 L693.101 1445.72 L693.101 1416.05 L664.055 1416.05 L664.055 1416.05  Z
  " fill="#009af9" fill-rule="evenodd" fill-opacity="1"/>
<polyline clip-path="url(#clip322)" style="stroke:#000000; stroke-width:4; stroke-opacity:1; fill:none" points="
  664.055,1416.05 664.055,1445.72 693.101,1445.72 693.101,1416.05 664.055,1416.05 
  "/>
<path clip-path="url(#clip322)" d="
M693.101 1405.58 L693.101 1445.72 L722.146 1445.72 L722.146 1405.58 L693.101 1405.58 L693.101 1405.58  Z
  " fill="#009af9" fill-rule="evenodd" fill-opacity="1"/>
<polyline clip-path="url(#clip322)" style="stroke:#000000; stroke-width:4; stroke-opacity:1; fill:none" points="
  693.101,1405.58 693.101,1445.72 722.146,1445.72 722.146,1405.58 693.101,1405.58 
  "/>
<path clip-path="url(#clip322)" d="
M722.146 1382.89 L722.146 1445.72 L751.191 1445.72 L751.191 1382.89 L722.146 1382.89 L722.146 1382.89  Z
  " fill="#009af9" fill-rule="evenodd" fill-opacity="1"/>
<polyline clip-path="url(#clip322)" style="stroke:#000000; stroke-width:4; stroke-opacity:1; fill:none" points="
  722.146,1382.89 722.146,1445.72 751.191,1445.72 751.191,1382.89 722.146,1382.89 
  "/>
<path clip-path="url(#clip322)" d="
M751.191 1388.13 L751.191 1445.72 L780.236 1445.72 L780.236 1388.13 L751.191 1388.13 L751.191 1388.13  Z
  " fill="#009af9" fill-rule="evenodd" fill-opacity="1"/>
<polyline clip-path="url(#clip322)" style="stroke:#000000; stroke-width:4; stroke-opacity:1; fill:none" points="
  751.191,1388.13 751.191,1445.72 780.236,1445.72 780.236,1388.13 751.191,1388.13 
  "/>
<path clip-path="url(#clip322)" d="
M780.236 1388.13 L780.236 1445.72 L809.281 1445.72 L809.281 1388.13 L780.236 1388.13 L780.236 1388.13  Z
  " fill="#009af9" fill-rule="evenodd" fill-opacity="1"/>
<polyline clip-path="url(#clip322)" style="stroke:#000000; stroke-width:4; stroke-opacity:1; fill:none" points="
  780.236,1388.13 780.236,1445.72 809.281,1445.72 809.281,1388.13 780.236,1388.13 
  "/>
<path clip-path="url(#clip322)" d="
M809.281 1372.42 L809.281 1445.72 L838.326 1445.72 L838.326 1372.42 L809.281 1372.42 L809.281 1372.42  Z
  " fill="#009af9" fill-rule="evenodd" fill-opacity="1"/>
<polyline clip-path="url(#clip322)" style="stroke:#000000; stroke-width:4; stroke-opacity:1; fill:none" points="
  809.281,1372.42 809.281,1445.72 838.326,1445.72 838.326,1372.42 809.281,1372.42 
  "/>
<path clip-path="url(#clip322)" d="
M838.326 1358.46 L838.326 1445.72 L867.371 1445.72 L867.371 1358.46 L838.326 1358.46 L838.326 1358.46  Z
  " fill="#009af9" fill-rule="evenodd" fill-opacity="1"/>
<polyline clip-path="url(#clip322)" style="stroke:#000000; stroke-width:4; stroke-opacity:1; fill:none" points="
  838.326,1358.46 838.326,1445.72 867.371,1445.72 867.371,1358.46 838.326,1358.46 
  "/>
<path clip-path="url(#clip322)" d="
M867.371 1334.03 L867.371 1445.72 L896.416 1445.72 L896.416 1334.03 L867.371 1334.03 L867.371 1334.03  Z
  " fill="#009af9" fill-rule="evenodd" fill-opacity="1"/>
<polyline clip-path="url(#clip322)" style="stroke:#000000; stroke-width:4; stroke-opacity:1; fill:none" points="
  867.371,1334.03 867.371,1445.72 896.416,1445.72 896.416,1334.03 867.371,1334.03 
  "/>
<path clip-path="url(#clip322)" d="
M896.416 1313.08 L896.416 1445.72 L925.461 1445.72 L925.461 1313.08 L896.416 1313.08 L896.416 1313.08  Z
  " fill="#009af9" fill-rule="evenodd" fill-opacity="1"/>
<polyline clip-path="url(#clip322)" style="stroke:#000000; stroke-width:4; stroke-opacity:1; fill:none" points="
  896.416,1313.08 896.416,1445.72 925.461,1445.72 925.461,1313.08 896.416,1313.08 
  "/>
<path clip-path="url(#clip322)" d="
M925.461 1337.52 L925.461 1445.72 L954.507 1445.72 L954.507 1337.52 L925.461 1337.52 L925.461 1337.52  Z
  " fill="#009af9" fill-rule="evenodd" fill-opacity="1"/>
<polyline clip-path="url(#clip322)" style="stroke:#000000; stroke-width:4; stroke-opacity:1; fill:none" points="
  925.461,1337.52 925.461,1445.72 954.507,1445.72 954.507,1337.52 925.461,1337.52 
  "/>
<path clip-path="url(#clip322)" d="
M954.507 1330.53 L954.507 1445.72 L983.552 1445.72 L983.552 1330.53 L954.507 1330.53 L954.507 1330.53  Z
  " fill="#009af9" fill-rule="evenodd" fill-opacity="1"/>
<polyline clip-path="url(#clip322)" style="stroke:#000000; stroke-width:4; stroke-opacity:1; fill:none" points="
  954.507,1330.53 954.507,1445.72 983.552,1445.72 983.552,1330.53 954.507,1330.53 
  "/>
<path clip-path="url(#clip322)" d="
M983.552 1304.36 L983.552 1445.72 L1012.6 1445.72 L1012.6 1304.36 L983.552 1304.36 L983.552 1304.36  Z
  " fill="#009af9" fill-rule="evenodd" fill-opacity="1"/>
<polyline clip-path="url(#clip322)" style="stroke:#000000; stroke-width:4; stroke-opacity:1; fill:none" points="
  983.552,1304.36 983.552,1445.72 1012.6,1445.72 1012.6,1304.36 983.552,1304.36 
  "/>
<path clip-path="url(#clip322)" d="
M1012.6 1330.53 L1012.6 1445.72 L1041.64 1445.72 L1041.64 1330.53 L1012.6 1330.53 L1012.6 1330.53  Z
  " fill="#009af9" fill-rule="evenodd" fill-opacity="1"/>
<polyline clip-path="url(#clip322)" style="stroke:#000000; stroke-width:4; stroke-opacity:1; fill:none" points="
  1012.6,1330.53 1012.6,1445.72 1041.64,1445.72 1041.64,1330.53 1012.6,1330.53 
  "/>
<path clip-path="url(#clip322)" d="
M1041.64 1264.22 L1041.64 1445.72 L1070.69 1445.72 L1070.69 1264.22 L1041.64 1264.22 L1041.64 1264.22  Z
  " fill="#009af9" fill-rule="evenodd" fill-opacity="1"/>
<polyline clip-path="url(#clip322)" style="stroke:#000000; stroke-width:4; stroke-opacity:1; fill:none" points="
  1041.64,1264.22 1041.64,1445.72 1070.69,1445.72 1070.69,1264.22 1041.64,1264.22 
  "/>
<path clip-path="url(#clip322)" d="
M1070.69 1255.49 L1070.69 1445.72 L1099.73 1445.72 L1099.73 1255.49 L1070.69 1255.49 L1070.69 1255.49  Z
  " fill="#009af9" fill-rule="evenodd" fill-opacity="1"/>
<polyline clip-path="url(#clip322)" style="stroke:#000000; stroke-width:4; stroke-opacity:1; fill:none" points="
  1070.69,1255.49 1070.69,1445.72 1099.73,1445.72 1099.73,1255.49 1070.69,1255.49 
  "/>
<path clip-path="url(#clip322)" d="
M1099.73 1253.75 L1099.73 1445.72 L1128.78 1445.72 L1128.78 1253.75 L1099.73 1253.75 L1099.73 1253.75  Z
  " fill="#009af9" fill-rule="evenodd" fill-opacity="1"/>
<polyline clip-path="url(#clip322)" style="stroke:#000000; stroke-width:4; stroke-opacity:1; fill:none" points="
  1099.73,1253.75 1099.73,1445.72 1128.78,1445.72 1128.78,1253.75 1099.73,1253.75 
  "/>
<path clip-path="url(#clip322)" d="
M1128.78 1220.59 L1128.78 1445.72 L1157.82 1445.72 L1157.82 1220.59 L1128.78 1220.59 L1128.78 1220.59  Z
  " fill="#009af9" fill-rule="evenodd" fill-opacity="1"/>
<polyline clip-path="url(#clip322)" style="stroke:#000000; stroke-width:4; stroke-opacity:1; fill:none" points="
  1128.78,1220.59 1128.78,1445.72 1157.82,1445.72 1157.82,1220.59 1128.78,1220.59 
  "/>
<path clip-path="url(#clip322)" d="
M1157.82 1234.55 L1157.82 1445.72 L1186.87 1445.72 L1186.87 1234.55 L1157.82 1234.55 L1157.82 1234.55  Z
  " fill="#009af9" fill-rule="evenodd" fill-opacity="1"/>
<polyline clip-path="url(#clip322)" style="stroke:#000000; stroke-width:4; stroke-opacity:1; fill:none" points="
  1157.82,1234.55 1157.82,1445.72 1186.87,1445.72 1186.87,1234.55 1157.82,1234.55 
  "/>
<path clip-path="url(#clip322)" d="
M1186.87 1241.53 L1186.87 1445.72 L1215.91 1445.72 L1215.91 1241.53 L1186.87 1241.53 L1186.87 1241.53  Z
  " fill="#009af9" fill-rule="evenodd" fill-opacity="1"/>
<polyline clip-path="url(#clip322)" style="stroke:#000000; stroke-width:4; stroke-opacity:1; fill:none" points="
  1186.87,1241.53 1186.87,1445.72 1215.91,1445.72 1215.91,1241.53 1186.87,1241.53 
  "/>
<path clip-path="url(#clip322)" d="
M1215.91 1253.75 L1215.91 1445.72 L1244.96 1445.72 L1244.96 1253.75 L1215.91 1253.75 L1215.91 1253.75  Z
  " fill="#009af9" fill-rule="evenodd" fill-opacity="1"/>
<polyline clip-path="url(#clip322)" style="stroke:#000000; stroke-width:4; stroke-opacity:1; fill:none" points="
  1215.91,1253.75 1215.91,1445.72 1244.96,1445.72 1244.96,1253.75 1215.91,1253.75 
  "/>
<path clip-path="url(#clip322)" d="
M1244.96 1243.28 L1244.96 1445.72 L1274 1445.72 L1274 1243.28 L1244.96 1243.28 L1244.96 1243.28  Z
  " fill="#009af9" fill-rule="evenodd" fill-opacity="1"/>
<polyline clip-path="url(#clip322)" style="stroke:#000000; stroke-width:4; stroke-opacity:1; fill:none" points="
  1244.96,1243.28 1244.96,1445.72 1274,1445.72 1274,1243.28 1244.96,1243.28 
  "/>
<path clip-path="url(#clip322)" d="
M1274 1220.59 L1274 1445.72 L1303.05 1445.72 L1303.05 1220.59 L1274 1220.59 L1274 1220.59  Z
  " fill="#009af9" fill-rule="evenodd" fill-opacity="1"/>
<polyline clip-path="url(#clip322)" style="stroke:#000000; stroke-width:4; stroke-opacity:1; fill:none" points="
  1274,1220.59 1274,1445.72 1303.05,1445.72 1303.05,1220.59 1274,1220.59 
  "/>
<path clip-path="url(#clip322)" d="
M1303.05 1175.21 L1303.05 1445.72 L1332.09 1445.72 L1332.09 1175.21 L1303.05 1175.21 L1303.05 1175.21  Z
  " fill="#009af9" fill-rule="evenodd" fill-opacity="1"/>
<polyline clip-path="url(#clip322)" style="stroke:#000000; stroke-width:4; stroke-opacity:1; fill:none" points="
  1303.05,1175.21 1303.05,1445.72 1332.09,1445.72 1332.09,1175.21 1303.05,1175.21 
  "/>
<path clip-path="url(#clip322)" d="
M1332.09 773.827 L1332.09 1445.72 L1361.14 1445.72 L1361.14 773.827 L1332.09 773.827 L1332.09 773.827  Z
  " fill="#009af9" fill-rule="evenodd" fill-opacity="1"/>
<polyline clip-path="url(#clip322)" style="stroke:#000000; stroke-width:4; stroke-opacity:1; fill:none" points="
  1332.09,773.827 1332.09,1445.72 1361.14,1445.72 1361.14,773.827 1332.09,773.827 
  "/>
<path clip-path="url(#clip322)" d="
M1361.14 107.173 L1361.14 1445.72 L1390.18 1445.72 L1390.18 107.173 L1361.14 107.173 L1361.14 107.173  Z
  " fill="#009af9" fill-rule="evenodd" fill-opacity="1"/>
<polyline clip-path="url(#clip322)" style="stroke:#000000; stroke-width:4; stroke-opacity:1; fill:none" points="
  1361.14,107.173 1361.14,1445.72 1390.18,1445.72 1390.18,107.173 1361.14,107.173 
  "/>
<path clip-path="url(#clip322)" d="
M1390.18 87.9763 L1390.18 1445.72 L1419.23 1445.72 L1419.23 87.9763 L1390.18 87.9763 L1390.18 87.9763  Z
  " fill="#009af9" fill-rule="evenodd" fill-opacity="1"/>
<polyline clip-path="url(#clip322)" style="stroke:#000000; stroke-width:4; stroke-opacity:1; fill:none" points="
  1390.18,87.9763 1390.18,1445.72 1419.23,1445.72 1419.23,87.9763 1390.18,87.9763 
  "/>
<path clip-path="url(#clip322)" d="
M1419.23 763.356 L1419.23 1445.72 L1448.27 1445.72 L1448.27 763.356 L1419.23 763.356 L1419.23 763.356  Z
  " fill="#009af9" fill-rule="evenodd" fill-opacity="1"/>
<polyline clip-path="url(#clip322)" style="stroke:#000000; stroke-width:4; stroke-opacity:1; fill:none" points="
  1419.23,763.356 1419.23,1445.72 1448.27,1445.72 1448.27,763.356 1419.23,763.356 
  "/>
<path clip-path="url(#clip322)" d="
M1448.27 1217.1 L1448.27 1445.72 L1477.32 1445.72 L1477.32 1217.1 L1448.27 1217.1 L1448.27 1217.1  Z
  " fill="#009af9" fill-rule="evenodd" fill-opacity="1"/>
<polyline clip-path="url(#clip322)" style="stroke:#000000; stroke-width:4; stroke-opacity:1; fill:none" points="
  1448.27,1217.1 1448.27,1445.72 1477.32,1445.72 1477.32,1217.1 1448.27,1217.1 
  "/>
<path clip-path="url(#clip322)" d="
M1477.32 1290.4 L1477.32 1445.72 L1506.36 1445.72 L1506.36 1290.4 L1477.32 1290.4 L1477.32 1290.4  Z
  " fill="#009af9" fill-rule="evenodd" fill-opacity="1"/>
<polyline clip-path="url(#clip322)" style="stroke:#000000; stroke-width:4; stroke-opacity:1; fill:none" points="
  1477.32,1290.4 1477.32,1445.72 1506.36,1445.72 1506.36,1290.4 1477.32,1290.4 
  "/>
<path clip-path="url(#clip322)" d="
M1506.36 1285.16 L1506.36 1445.72 L1535.41 1445.72 L1535.41 1285.16 L1506.36 1285.16 L1506.36 1285.16  Z
  " fill="#009af9" fill-rule="evenodd" fill-opacity="1"/>
<polyline clip-path="url(#clip322)" style="stroke:#000000; stroke-width:4; stroke-opacity:1; fill:none" points="
  1506.36,1285.16 1506.36,1445.72 1535.41,1445.72 1535.41,1285.16 1506.36,1285.16 
  "/>
<path clip-path="url(#clip322)" d="
M1535.41 1325.3 L1535.41 1445.72 L1564.45 1445.72 L1564.45 1325.3 L1535.41 1325.3 L1535.41 1325.3  Z
  " fill="#009af9" fill-rule="evenodd" fill-opacity="1"/>
<polyline clip-path="url(#clip322)" style="stroke:#000000; stroke-width:4; stroke-opacity:1; fill:none" points="
  1535.41,1325.3 1535.41,1445.72 1564.45,1445.72 1564.45,1325.3 1535.41,1325.3 
  "/>
<path clip-path="url(#clip322)" d="
M1564.45 1341.01 L1564.45 1445.72 L1593.5 1445.72 L1593.5 1341.01 L1564.45 1341.01 L1564.45 1341.01  Z
  " fill="#009af9" fill-rule="evenodd" fill-opacity="1"/>
<polyline clip-path="url(#clip322)" style="stroke:#000000; stroke-width:4; stroke-opacity:1; fill:none" points="
  1564.45,1341.01 1564.45,1445.72 1593.5,1445.72 1593.5,1341.01 1564.45,1341.01 
  "/>
<path clip-path="url(#clip322)" d="
M1593.5 1360.2 L1593.5 1445.72 L1622.54 1445.72 L1622.54 1360.2 L1593.5 1360.2 L1593.5 1360.2  Z
  " fill="#009af9" fill-rule="evenodd" fill-opacity="1"/>
<polyline clip-path="url(#clip322)" style="stroke:#000000; stroke-width:4; stroke-opacity:1; fill:none" points="
  1593.5,1360.2 1593.5,1445.72 1622.54,1445.72 1622.54,1360.2 1593.5,1360.2 
  "/>
<path clip-path="url(#clip322)" d="
M1622.54 1375.91 L1622.54 1445.72 L1651.59 1445.72 L1651.59 1375.91 L1622.54 1375.91 L1622.54 1375.91  Z
  " fill="#009af9" fill-rule="evenodd" fill-opacity="1"/>
<polyline clip-path="url(#clip322)" style="stroke:#000000; stroke-width:4; stroke-opacity:1; fill:none" points="
  1622.54,1375.91 1622.54,1445.72 1651.59,1445.72 1651.59,1375.91 1622.54,1375.91 
  "/>
<path clip-path="url(#clip322)" d="
M1651.59 1367.18 L1651.59 1445.72 L1680.63 1445.72 L1680.63 1367.18 L1651.59 1367.18 L1651.59 1367.18  Z
  " fill="#009af9" fill-rule="evenodd" fill-opacity="1"/>
<polyline clip-path="url(#clip322)" style="stroke:#000000; stroke-width:4; stroke-opacity:1; fill:none" points="
  1651.59,1367.18 1651.59,1445.72 1680.63,1445.72 1680.63,1367.18 1651.59,1367.18 
  "/>
<path clip-path="url(#clip322)" d="
M1680.63 1372.42 L1680.63 1445.72 L1709.68 1445.72 L1709.68 1372.42 L1680.63 1372.42 L1680.63 1372.42  Z
  " fill="#009af9" fill-rule="evenodd" fill-opacity="1"/>
<polyline clip-path="url(#clip322)" style="stroke:#000000; stroke-width:4; stroke-opacity:1; fill:none" points="
  1680.63,1372.42 1680.63,1445.72 1709.68,1445.72 1709.68,1372.42 1680.63,1372.42 
  "/>
<path clip-path="url(#clip322)" d="
M1709.68 1412.56 L1709.68 1445.72 L1738.72 1445.72 L1738.72 1412.56 L1709.68 1412.56 L1709.68 1412.56  Z
  " fill="#009af9" fill-rule="evenodd" fill-opacity="1"/>
<polyline clip-path="url(#clip322)" style="stroke:#000000; stroke-width:4; stroke-opacity:1; fill:none" points="
  1709.68,1412.56 1709.68,1445.72 1738.72,1445.72 1738.72,1412.56 1709.68,1412.56 
  "/>
<path clip-path="url(#clip322)" d="
M1738.72 1395.11 L1738.72 1445.72 L1767.77 1445.72 L1767.77 1395.11 L1738.72 1395.11 L1738.72 1395.11  Z
  " fill="#009af9" fill-rule="evenodd" fill-opacity="1"/>
<polyline clip-path="url(#clip322)" style="stroke:#000000; stroke-width:4; stroke-opacity:1; fill:none" points="
  1738.72,1395.11 1738.72,1445.72 1767.77,1445.72 1767.77,1395.11 1738.72,1395.11 
  "/>
<path clip-path="url(#clip322)" d="
M1767.77 1417.79 L1767.77 1445.72 L1796.81 1445.72 L1796.81 1417.79 L1767.77 1417.79 L1767.77 1417.79  Z
  " fill="#009af9" fill-rule="evenodd" fill-opacity="1"/>
<polyline clip-path="url(#clip322)" style="stroke:#000000; stroke-width:4; stroke-opacity:1; fill:none" points="
  1767.77,1417.79 1767.77,1445.72 1796.81,1445.72 1796.81,1417.79 1767.77,1417.79 
  "/>
<path clip-path="url(#clip322)" d="
M1796.81 1424.77 L1796.81 1445.72 L1825.86 1445.72 L1825.86 1424.77 L1796.81 1424.77 L1796.81 1424.77  Z
  " fill="#009af9" fill-rule="evenodd" fill-opacity="1"/>
<polyline clip-path="url(#clip322)" style="stroke:#000000; stroke-width:4; stroke-opacity:1; fill:none" points="
  1796.81,1424.77 1796.81,1445.72 1825.86,1445.72 1825.86,1424.77 1796.81,1424.77 
  "/>
<path clip-path="url(#clip322)" d="
M1825.86 1421.28 L1825.86 1445.72 L1854.91 1445.72 L1854.91 1421.28 L1825.86 1421.28 L1825.86 1421.28  Z
  " fill="#009af9" fill-rule="evenodd" fill-opacity="1"/>
<polyline clip-path="url(#clip322)" style="stroke:#000000; stroke-width:4; stroke-opacity:1; fill:none" points="
  1825.86,1421.28 1825.86,1445.72 1854.91,1445.72 1854.91,1421.28 1825.86,1421.28 
  "/>
<path clip-path="url(#clip322)" d="
M1854.91 1426.52 L1854.91 1445.72 L1883.95 1445.72 L1883.95 1426.52 L1854.91 1426.52 L1854.91 1426.52  Z
  " fill="#009af9" fill-rule="evenodd" fill-opacity="1"/>
<polyline clip-path="url(#clip322)" style="stroke:#000000; stroke-width:4; stroke-opacity:1; fill:none" points="
  1854.91,1426.52 1854.91,1445.72 1883.95,1445.72 1883.95,1426.52 1854.91,1426.52 
  "/>
<path clip-path="url(#clip322)" d="
M1883.95 1419.54 L1883.95 1445.72 L1913 1445.72 L1913 1419.54 L1883.95 1419.54 L1883.95 1419.54  Z
  " fill="#009af9" fill-rule="evenodd" fill-opacity="1"/>
<polyline clip-path="url(#clip322)" style="stroke:#000000; stroke-width:4; stroke-opacity:1; fill:none" points="
  1883.95,1419.54 1883.95,1445.72 1913,1445.72 1913,1419.54 1883.95,1419.54 
  "/>
<path clip-path="url(#clip322)" d="
M1913 1436.99 L1913 1445.72 L1942.04 1445.72 L1942.04 1436.99 L1913 1436.99 L1913 1436.99  Z
  " fill="#009af9" fill-rule="evenodd" fill-opacity="1"/>
<polyline clip-path="url(#clip322)" style="stroke:#000000; stroke-width:4; stroke-opacity:1; fill:none" points="
  1913,1436.99 1913,1445.72 1942.04,1445.72 1942.04,1436.99 1913,1436.99 
  "/>
<path clip-path="url(#clip322)" d="
M1942.04 1436.99 L1942.04 1445.72 L1971.09 1445.72 L1971.09 1436.99 L1942.04 1436.99 L1942.04 1436.99  Z
  " fill="#009af9" fill-rule="evenodd" fill-opacity="1"/>
<polyline clip-path="url(#clip322)" style="stroke:#000000; stroke-width:4; stroke-opacity:1; fill:none" points="
  1942.04,1436.99 1942.04,1445.72 1971.09,1445.72 1971.09,1436.99 1942.04,1436.99 
  "/>
<path clip-path="url(#clip322)" d="
M1971.09 1440.48 L1971.09 1445.72 L2000.13 1445.72 L2000.13 1440.48 L1971.09 1440.48 L1971.09 1440.48  Z
  " fill="#009af9" fill-rule="evenodd" fill-opacity="1"/>
<polyline clip-path="url(#clip322)" style="stroke:#000000; stroke-width:4; stroke-opacity:1; fill:none" points="
  1971.09,1440.48 1971.09,1445.72 2000.13,1445.72 2000.13,1440.48 1971.09,1440.48 
  "/>
<path clip-path="url(#clip322)" d="
M2000.13 1440.48 L2000.13 1445.72 L2029.18 1445.72 L2029.18 1440.48 L2000.13 1440.48 L2000.13 1440.48  Z
  " fill="#009af9" fill-rule="evenodd" fill-opacity="1"/>
<polyline clip-path="url(#clip322)" style="stroke:#000000; stroke-width:4; stroke-opacity:1; fill:none" points="
  2000.13,1440.48 2000.13,1445.72 2029.18,1445.72 2029.18,1440.48 2000.13,1440.48 
  "/>
<path clip-path="url(#clip322)" d="
M2029.18 1438.74 L2029.18 1445.72 L2058.22 1445.72 L2058.22 1438.74 L2029.18 1438.74 L2029.18 1438.74  Z
  " fill="#009af9" fill-rule="evenodd" fill-opacity="1"/>
<polyline clip-path="url(#clip322)" style="stroke:#000000; stroke-width:4; stroke-opacity:1; fill:none" points="
  2029.18,1438.74 2029.18,1445.72 2058.22,1445.72 2058.22,1438.74 2029.18,1438.74 
  "/>
<path clip-path="url(#clip322)" d="
M2058.22 1440.48 L2058.22 1445.72 L2087.27 1445.72 L2087.27 1440.48 L2058.22 1440.48 L2058.22 1440.48  Z
  " fill="#009af9" fill-rule="evenodd" fill-opacity="1"/>
<polyline clip-path="url(#clip322)" style="stroke:#000000; stroke-width:4; stroke-opacity:1; fill:none" points="
  2058.22,1440.48 2058.22,1445.72 2087.27,1445.72 2087.27,1440.48 2058.22,1440.48 
  "/>
<path clip-path="url(#clip322)" d="
M2087.27 1445.72 L2087.27 1445.72 L2116.31 1445.72 L2116.31 1445.72 L2087.27 1445.72 L2087.27 1445.72  Z
  " fill="#009af9" fill-rule="evenodd" fill-opacity="1"/>
<polyline clip-path="url(#clip322)" style="stroke:#000000; stroke-width:4; stroke-opacity:1; fill:none" points="
  2087.27,1445.72 2087.27,1445.72 2116.31,1445.72 2087.27,1445.72 
  "/>
<path clip-path="url(#clip322)" d="
M2116.31 1443.97 L2116.31 1445.72 L2145.36 1445.72 L2145.36 1443.97 L2116.31 1443.97 L2116.31 1443.97  Z
  " fill="#009af9" fill-rule="evenodd" fill-opacity="1"/>
<polyline clip-path="url(#clip322)" style="stroke:#000000; stroke-width:4; stroke-opacity:1; fill:none" points="
  2116.31,1443.97 2116.31,1445.72 2145.36,1445.72 2145.36,1443.97 2116.31,1443.97 
  "/>
<path clip-path="url(#clip322)" d="
M2145.36 1440.48 L2145.36 1445.72 L2174.4 1445.72 L2174.4 1440.48 L2145.36 1440.48 L2145.36 1440.48  Z
  " fill="#009af9" fill-rule="evenodd" fill-opacity="1"/>
<polyline clip-path="url(#clip322)" style="stroke:#000000; stroke-width:4; stroke-opacity:1; fill:none" points="
  2145.36,1440.48 2145.36,1445.72 2174.4,1445.72 2174.4,1440.48 2145.36,1440.48 
  "/>
<path clip-path="url(#clip322)" d="
M2174.4 1445.72 L2174.4 1445.72 L2203.45 1445.72 L2203.45 1445.72 L2174.4 1445.72 L2174.4 1445.72  Z
  " fill="#009af9" fill-rule="evenodd" fill-opacity="1"/>
<polyline clip-path="url(#clip322)" style="stroke:#000000; stroke-width:4; stroke-opacity:1; fill:none" points="
  2174.4,1445.72 2174.4,1445.72 2203.45,1445.72 2174.4,1445.72 
  "/>
<path clip-path="url(#clip322)" d="
M2203.45 1443.97 L2203.45 1445.72 L2232.49 1445.72 L2232.49 1443.97 L2203.45 1443.97 L2203.45 1443.97  Z
  " fill="#009af9" fill-rule="evenodd" fill-opacity="1"/>
<polyline clip-path="url(#clip322)" style="stroke:#000000; stroke-width:4; stroke-opacity:1; fill:none" points="
  2203.45,1443.97 2203.45,1445.72 2232.49,1445.72 2232.49,1443.97 2203.45,1443.97 
  "/>
<path clip-path="url(#clip320)" d="
M1985.9 216.178 L2279.87 216.178 L2279.87 95.2176 L1985.9 95.2176  Z
  " fill="#ffffff" fill-rule="evenodd" fill-opacity="1"/>
<polyline clip-path="url(#clip320)" style="stroke:#000000; stroke-width:4; stroke-opacity:1; fill:none" points="
  1985.9,216.178 2279.87,216.178 2279.87,95.2176 1985.9,95.2176 1985.9,216.178 
  "/>
<path clip-path="url(#clip320)" d="
M2010.2 179.89 L2155.97 179.89 L2155.97 131.506 L2010.2 131.506 L2010.2 179.89  Z
  " fill="#009af9" fill-rule="evenodd" fill-opacity="1"/>
<polyline clip-path="url(#clip320)" style="stroke:#000000; stroke-width:4; stroke-opacity:1; fill:none" points="
  2010.2,179.89 2155.97,179.89 2155.97,131.506 2010.2,131.506 2010.2,179.89 
  "/>
<path clip-path="url(#clip320)" d="M 0 0 M2194.11 175.385 Q2192.3 180.015 2190.59 181.427 Q2188.87 182.839 2186 182.839 L2182.6 182.839 L2182.6 179.274 L2185.1 179.274 Q2186.86 179.274 2187.83 178.44 Q2188.8 177.607 2189.98 174.505 L2190.75 172.561 L2180.26 147.052 L2184.78 147.052 L2192.88 167.329 L2200.98 147.052 L2205.49 147.052 L2194.11 175.385 Z" fill="#000000" fill-rule="evenodd" fill-opacity="1" /><path clip-path="url(#clip320)" d="M 0 0 M2211.37 169.042 L2219.01 169.042 L2219.01 142.677 L2210.7 144.343 L2210.7 140.084 L2218.97 138.418 L2223.64 138.418 L2223.64 169.042 L2231.28 169.042 L2231.28 172.978 L2211.37 172.978 L2211.37 169.042 Z" fill="#000000" fill-rule="evenodd" fill-opacity="1" /></svg>
