<?xml version="1.0" encoding="utf-8"?>
<svg xmlns="http://www.w3.org/2000/svg" xmlns:xlink="http://www.w3.org/1999/xlink" width="600" height="400" viewBox="0 0 2400 1600">
<defs>
  <clipPath id="clip760">
    <rect x="0" y="0" width="2400" height="1600"/>
  </clipPath>
</defs>
<path clip-path="url(#clip760)" d="
M0 1600 L2400 1600 L2400 0 L0 0  Z
  " fill="#ffffff" fill-rule="evenodd" fill-opacity="1"/>
<defs>
  <clipPath id="clip761">
    <rect x="480" y="0" width="1681" height="1600"/>
  </clipPath>
</defs>
<path clip-path="url(#clip760)" d="
M166.205 1486.45 L2352.76 1486.45 L2352.76 47.2441 L166.205 47.2441  Z
  " fill="#ffffff" fill-rule="evenodd" fill-opacity="1"/>
<defs>
  <clipPath id="clip762">
    <rect x="166" y="47" width="2188" height="1440"/>
  </clipPath>
</defs>
<polyline clip-path="url(#clip762)" style="stroke:#000000; stroke-width:2; stroke-opacity:0.1; fill:none" points="
  535.959,1486.45 535.959,47.2441 
  "/>
<polyline clip-path="url(#clip762)" style="stroke:#000000; stroke-width:2; stroke-opacity:0.1; fill:none" points="
  910.194,1486.45 910.194,47.2441 
  "/>
<polyline clip-path="url(#clip762)" style="stroke:#000000; stroke-width:2; stroke-opacity:0.1; fill:none" points="
  1284.43,1486.45 1284.43,47.2441 
  "/>
<polyline clip-path="url(#clip762)" style="stroke:#000000; stroke-width:2; stroke-opacity:0.1; fill:none" points="
  1658.66,1486.45 1658.66,47.2441 
  "/>
<polyline clip-path="url(#clip762)" style="stroke:#000000; stroke-width:2; stroke-opacity:0.1; fill:none" points="
  2032.9,1486.45 2032.9,47.2441 
  "/>
<polyline clip-path="url(#clip762)" style="stroke:#000000; stroke-width:2; stroke-opacity:0.1; fill:none" points="
  166.205,1445.72 2352.76,1445.72 
  "/>
<polyline clip-path="url(#clip762)" style="stroke:#000000; stroke-width:2; stroke-opacity:0.1; fill:none" points="
  166.205,1110.88 2352.76,1110.88 
  "/>
<polyline clip-path="url(#clip762)" style="stroke:#000000; stroke-width:2; stroke-opacity:0.1; fill:none" points="
  166.205,776.054 2352.76,776.054 
  "/>
<polyline clip-path="url(#clip762)" style="stroke:#000000; stroke-width:2; stroke-opacity:0.1; fill:none" points="
  166.205,441.223 2352.76,441.223 
  "/>
<polyline clip-path="url(#clip762)" style="stroke:#000000; stroke-width:2; stroke-opacity:0.1; fill:none" points="
  166.205,106.392 2352.76,106.392 
  "/>
<polyline clip-path="url(#clip760)" style="stroke:#000000; stroke-width:4; stroke-opacity:1; fill:none" points="
  166.205,1486.45 2352.76,1486.45 
  "/>
<polyline clip-path="url(#clip760)" style="stroke:#000000; stroke-width:4; stroke-opacity:1; fill:none" points="
  166.205,1486.45 166.205,47.2441 
  "/>
<polyline clip-path="url(#clip760)" style="stroke:#000000; stroke-width:4; stroke-opacity:1; fill:none" points="
  535.959,1486.45 535.959,1469.18 
  "/>
<polyline clip-path="url(#clip760)" style="stroke:#000000; stroke-width:4; stroke-opacity:1; fill:none" points="
  910.194,1486.45 910.194,1469.18 
  "/>
<polyline clip-path="url(#clip760)" style="stroke:#000000; stroke-width:4; stroke-opacity:1; fill:none" points="
  1284.43,1486.45 1284.43,1469.18 
  "/>
<polyline clip-path="url(#clip760)" style="stroke:#000000; stroke-width:4; stroke-opacity:1; fill:none" points="
  1658.66,1486.45 1658.66,1469.18 
  "/>
<polyline clip-path="url(#clip760)" style="stroke:#000000; stroke-width:4; stroke-opacity:1; fill:none" points="
  2032.9,1486.45 2032.9,1469.18 
  "/>
<polyline clip-path="url(#clip760)" style="stroke:#000000; stroke-width:4; stroke-opacity:1; fill:none" points="
  166.205,1445.72 192.443,1445.72 
  "/>
<polyline clip-path="url(#clip760)" style="stroke:#000000; stroke-width:4; stroke-opacity:1; fill:none" points="
  166.205,1110.88 192.443,1110.88 
  "/>
<polyline clip-path="url(#clip760)" style="stroke:#000000; stroke-width:4; stroke-opacity:1; fill:none" points="
  166.205,776.054 192.443,776.054 
  "/>
<polyline clip-path="url(#clip760)" style="stroke:#000000; stroke-width:4; stroke-opacity:1; fill:none" points="
  166.205,441.223 192.443,441.223 
  "/>
<polyline clip-path="url(#clip760)" style="stroke:#000000; stroke-width:4; stroke-opacity:1; fill:none" points="
  166.205,106.392 192.443,106.392 
  "/>
<path clip-path="url(#clip760)" d="M 0 0 M507.533 1523.09 L537.209 1523.09 L537.209 1527.03 L507.533 1527.03 L507.533 1523.09 Z" fill="#000000" fill-rule="evenodd" fill-opacity="1" /><path clip-path="url(#clip760)" d="M 0 0 M552.857 1520.78 Q549.709 1520.78 547.857 1522.93 Q546.028 1525.08 546.028 1528.83 Q546.028 1532.56 547.857 1534.73 Q549.709 1536.89 552.857 1536.89 Q556.005 1536.89 557.834 1534.73 Q559.686 1532.56 559.686 1528.83 Q559.686 1525.08 557.834 1522.93 Q556.005 1520.78 552.857 1520.78 M562.139 1506.12 L562.139 1510.38 Q560.38 1509.55 558.575 1509.11 Q556.792 1508.67 555.033 1508.67 Q550.403 1508.67 547.95 1511.8 Q545.519 1514.92 545.172 1521.24 Q546.538 1519.23 548.598 1518.16 Q550.658 1517.07 553.135 1517.07 Q558.343 1517.07 561.352 1520.24 Q564.385 1523.39 564.385 1528.83 Q564.385 1534.16 561.237 1537.37 Q558.088 1540.59 552.857 1540.59 Q546.862 1540.59 543.69 1536.01 Q540.519 1531.4 540.519 1522.67 Q540.519 1514.48 544.408 1509.62 Q548.297 1504.73 554.848 1504.73 Q556.607 1504.73 558.389 1505.08 Q560.195 1505.43 562.139 1506.12 Z" fill="#000000" fill-rule="evenodd" fill-opacity="1" /><path clip-path="url(#clip760)" d="M 0 0 M882.173 1523.09 L911.849 1523.09 L911.849 1527.03 L882.173 1527.03 L882.173 1523.09 Z" fill="#000000" fill-rule="evenodd" fill-opacity="1" /><path clip-path="url(#clip760)" d="M 0 0 M931.085 1521.29 Q934.442 1522 936.317 1524.27 Q938.215 1526.54 938.215 1529.87 Q938.215 1534.99 934.696 1537.79 Q931.178 1540.59 924.696 1540.59 Q922.52 1540.59 920.206 1540.15 Q917.914 1539.73 915.46 1538.88 L915.46 1534.36 Q917.405 1535.5 919.72 1536.08 Q922.034 1536.66 924.557 1536.66 Q928.956 1536.66 931.247 1534.92 Q933.562 1533.18 933.562 1529.87 Q933.562 1526.82 931.409 1525.11 Q929.28 1523.37 925.46 1523.37 L921.433 1523.37 L921.433 1519.53 L925.645 1519.53 Q929.094 1519.53 930.923 1518.16 Q932.752 1516.77 932.752 1514.18 Q932.752 1511.52 930.854 1510.11 Q928.979 1508.67 925.46 1508.67 Q923.539 1508.67 921.34 1509.09 Q919.141 1509.5 916.502 1510.38 L916.502 1506.22 Q919.164 1505.48 921.479 1505.11 Q923.817 1504.73 925.877 1504.73 Q931.201 1504.73 934.303 1507.17 Q937.405 1509.57 937.405 1513.69 Q937.405 1516.56 935.761 1518.55 Q934.118 1520.52 931.085 1521.29 Z" fill="#000000" fill-rule="evenodd" fill-opacity="1" /><path clip-path="url(#clip760)" d="M 0 0 M1284.43 1508.44 Q1280.82 1508.44 1278.99 1512 Q1277.18 1515.55 1277.18 1522.67 Q1277.18 1529.78 1278.99 1533.35 Q1280.82 1536.89 1284.43 1536.89 Q1288.06 1536.89 1289.87 1533.35 Q1291.7 1529.78 1291.7 1522.67 Q1291.7 1515.55 1289.87 1512 Q1288.06 1508.44 1284.43 1508.44 M1284.43 1504.73 Q1290.24 1504.73 1293.29 1509.34 Q1296.37 1513.92 1296.37 1522.67 Q1296.37 1531.4 1293.29 1536.01 Q1290.24 1540.59 1284.43 1540.59 Q1278.62 1540.59 1275.54 1536.01 Q1272.48 1531.4 1272.48 1522.67 Q1272.48 1513.92 1275.54 1509.34 Q1278.62 1504.73 1284.43 1504.73 Z" fill="#000000" fill-rule="evenodd" fill-opacity="1" /><path clip-path="url(#clip760)" d="M 0 0 M1662.91 1521.29 Q1666.27 1522 1668.14 1524.27 Q1670.04 1526.54 1670.04 1529.87 Q1670.04 1534.99 1666.52 1537.79 Q1663 1540.59 1656.52 1540.59 Q1654.35 1540.59 1652.03 1540.15 Q1649.74 1539.73 1647.29 1538.88 L1647.29 1534.36 Q1649.23 1535.5 1651.55 1536.08 Q1653.86 1536.66 1656.38 1536.66 Q1660.78 1536.66 1663.07 1534.92 Q1665.39 1533.18 1665.39 1529.87 Q1665.39 1526.82 1663.24 1525.11 Q1661.11 1523.37 1657.29 1523.37 L1653.26 1523.37 L1653.26 1519.53 L1657.47 1519.53 Q1660.92 1519.53 1662.75 1518.16 Q1664.58 1516.77 1664.58 1514.18 Q1664.58 1511.52 1662.68 1510.11 Q1660.81 1508.67 1657.29 1508.67 Q1655.37 1508.67 1653.17 1509.09 Q1650.97 1509.5 1648.33 1510.38 L1648.33 1506.22 Q1650.99 1505.48 1653.31 1505.11 Q1655.64 1504.73 1657.7 1504.73 Q1663.03 1504.73 1666.13 1507.17 Q1669.23 1509.57 1669.23 1513.69 Q1669.23 1516.56 1667.59 1518.55 Q1665.94 1520.52 1662.91 1521.29 Z" fill="#000000" fill-rule="evenodd" fill-opacity="1" /><path clip-path="url(#clip760)" d="M 0 0 M2033.3 1520.78 Q2030.16 1520.78 2028.3 1522.93 Q2026.48 1525.08 2026.48 1528.83 Q2026.48 1532.56 2028.3 1534.73 Q2030.16 1536.89 2033.3 1536.89 Q2036.45 1536.89 2038.28 1534.73 Q2040.13 1532.56 2040.13 1528.83 Q2040.13 1525.08 2038.28 1522.93 Q2036.45 1520.78 2033.3 1520.78 M2042.59 1506.12 L2042.59 1510.38 Q2040.83 1509.55 2039.02 1509.11 Q2037.24 1508.67 2035.48 1508.67 Q2030.85 1508.67 2028.4 1511.8 Q2025.97 1514.92 2025.62 1521.24 Q2026.99 1519.23 2029.05 1518.16 Q2031.11 1517.07 2033.58 1517.07 Q2038.79 1517.07 2041.8 1520.24 Q2044.83 1523.39 2044.83 1528.83 Q2044.83 1534.16 2041.68 1537.37 Q2038.54 1540.59 2033.3 1540.59 Q2027.31 1540.59 2024.14 1536.01 Q2020.97 1531.4 2020.97 1522.67 Q2020.97 1514.48 2024.86 1509.62 Q2028.74 1504.73 2035.3 1504.73 Q2037.05 1504.73 2038.84 1505.08 Q2040.64 1505.43 2042.59 1506.12 Z" fill="#000000" fill-rule="evenodd" fill-opacity="1" /><path clip-path="url(#clip760)" d="M 0 0 M130.26 1431.51 Q126.649 1431.51 124.82 1435.08 Q123.015 1438.62 123.015 1445.75 Q123.015 1452.86 124.82 1456.42 Q126.649 1459.96 130.26 1459.96 Q133.895 1459.96 135.7 1456.42 Q137.529 1452.86 137.529 1445.75 Q137.529 1438.62 135.7 1435.08 Q133.895 1431.51 130.26 1431.51 M130.26 1427.81 Q136.07 1427.81 139.126 1432.42 Q142.205 1437 142.205 1445.75 Q142.205 1454.48 139.126 1459.08 Q136.07 1463.67 130.26 1463.67 Q124.45 1463.67 121.371 1459.08 Q118.316 1454.48 118.316 1445.75 Q118.316 1437 121.371 1432.42 Q124.45 1427.81 130.26 1427.81 Z" fill="#000000" fill-rule="evenodd" fill-opacity="1" /><path clip-path="url(#clip760)" d="M 0 0 M71.8578 1124.23 L88.1772 1124.23 L88.1772 1128.16 L66.2328 1128.16 L66.2328 1124.23 Q68.8949 1121.47 73.4782 1116.85 Q78.0846 1112.19 79.2652 1110.85 Q81.5105 1108.33 82.3902 1106.59 Q83.2929 1104.83 83.2929 1103.14 Q83.2929 1100.39 81.3485 1098.65 Q79.4272 1096.91 76.3254 1096.91 Q74.1263 1096.91 71.6726 1097.68 Q69.2421 1098.44 66.4643 1099.99 L66.4643 1095.27 Q69.2884 1094.14 71.7421 1093.56 Q74.1958 1092.98 76.2328 1092.98 Q81.6031 1092.98 84.7976 1095.66 Q87.992 1098.35 87.992 1102.84 Q87.992 1104.97 87.1818 1106.89 Q86.3948 1108.79 84.2883 1111.38 Q83.7096 1112.05 80.6078 1115.27 Q77.5059 1118.47 71.8578 1124.23 Z" fill="#000000" fill-rule="evenodd" fill-opacity="1" /><path clip-path="url(#clip760)" d="M 0 0 M103.247 1096.68 Q99.6354 1096.68 97.8068 1100.25 Q96.0012 1103.79 96.0012 1110.92 Q96.0012 1118.03 97.8068 1121.59 Q99.6354 1125.13 103.247 1125.13 Q106.881 1125.13 108.686 1121.59 Q110.515 1118.03 110.515 1110.92 Q110.515 1103.79 108.686 1100.25 Q106.881 1096.68 103.247 1096.68 M103.247 1092.98 Q109.057 1092.98 112.112 1097.59 Q115.191 1102.17 115.191 1110.92 Q115.191 1119.65 112.112 1124.25 Q109.057 1128.84 103.247 1128.84 Q97.4364 1128.84 94.3577 1124.25 Q91.3022 1119.65 91.3022 1110.92 Q91.3022 1102.17 94.3577 1097.59 Q97.4364 1092.98 103.247 1092.98 Z" fill="#000000" fill-rule="evenodd" fill-opacity="1" /><path clip-path="url(#clip760)" d="M 0 0 M130.26 1096.68 Q126.649 1096.68 124.82 1100.25 Q123.015 1103.79 123.015 1110.92 Q123.015 1118.03 124.82 1121.59 Q126.649 1125.13 130.26 1125.13 Q133.895 1125.13 135.7 1121.59 Q137.529 1118.03 137.529 1110.92 Q137.529 1103.79 135.7 1100.25 Q133.895 1096.68 130.26 1096.68 M130.26 1092.98 Q136.07 1092.98 139.126 1097.59 Q142.205 1102.17 142.205 1110.92 Q142.205 1119.65 139.126 1124.25 Q136.07 1128.84 130.26 1128.84 Q124.45 1128.84 121.371 1124.25 Q118.316 1119.65 118.316 1110.92 Q118.316 1102.17 121.371 1097.59 Q124.45 1092.98 130.26 1092.98 Z" fill="#000000" fill-rule="evenodd" fill-opacity="1" /><path clip-path="url(#clip760)" d="M 0 0 M78.5939 762.848 L66.7884 781.297 L78.5939 781.297 L78.5939 762.848 M77.367 758.774 L83.2466 758.774 L83.2466 781.297 L88.1772 781.297 L88.1772 785.186 L83.2466 785.186 L83.2466 793.334 L78.5939 793.334 L78.5939 785.186 L62.9921 785.186 L62.9921 780.672 L77.367 758.774 Z" fill="#000000" fill-rule="evenodd" fill-opacity="1" /><path clip-path="url(#clip760)" d="M 0 0 M103.247 761.853 Q99.6354 761.853 97.8068 765.417 Q96.0012 768.959 96.0012 776.089 Q96.0012 783.195 97.8068 786.76 Q99.6354 790.301 103.247 790.301 Q106.881 790.301 108.686 786.76 Q110.515 783.195 110.515 776.089 Q110.515 768.959 108.686 765.417 Q106.881 761.853 103.247 761.853 M103.247 758.149 Q109.057 758.149 112.112 762.755 Q115.191 767.339 115.191 776.089 Q115.191 784.815 112.112 789.422 Q109.057 794.005 103.247 794.005 Q97.4364 794.005 94.3577 789.422 Q91.3022 784.815 91.3022 776.089 Q91.3022 767.339 94.3577 762.755 Q97.4364 758.149 103.247 758.149 Z" fill="#000000" fill-rule="evenodd" fill-opacity="1" /><path clip-path="url(#clip760)" d="M 0 0 M130.26 761.853 Q126.649 761.853 124.82 765.417 Q123.015 768.959 123.015 776.089 Q123.015 783.195 124.82 786.76 Q126.649 790.301 130.26 790.301 Q133.895 790.301 135.7 786.76 Q137.529 783.195 137.529 776.089 Q137.529 768.959 135.7 765.417 Q133.895 761.853 130.26 761.853 M130.26 758.149 Q136.07 758.149 139.126 762.755 Q142.205 767.339 142.205 776.089 Q142.205 784.815 139.126 789.422 Q136.07 794.005 130.26 794.005 Q124.45 794.005 121.371 789.422 Q118.316 784.815 118.316 776.089 Q118.316 767.339 121.371 762.755 Q124.45 758.149 130.26 758.149 Z" fill="#000000" fill-rule="evenodd" fill-opacity="1" /><path clip-path="url(#clip760)" d="M 0 0 M76.6495 439.359 Q73.5013 439.359 71.6495 441.512 Q69.8208 443.665 69.8208 447.415 Q69.8208 451.142 71.6495 453.318 Q73.5013 455.471 76.6495 455.471 Q79.7976 455.471 81.6263 453.318 Q83.4781 451.142 83.4781 447.415 Q83.4781 443.665 81.6263 441.512 Q79.7976 439.359 76.6495 439.359 M85.9318 424.707 L85.9318 428.966 Q84.1726 428.133 82.367 427.693 Q80.5846 427.253 78.8254 427.253 Q74.1958 427.253 71.7421 430.378 Q69.3115 433.503 68.9643 439.822 Q70.33 437.809 72.3902 436.744 Q74.4504 435.656 76.9272 435.656 Q82.1355 435.656 85.1448 438.827 Q88.1772 441.975 88.1772 447.415 Q88.1772 452.739 85.029 455.957 Q81.8809 459.174 76.6495 459.174 Q70.6541 459.174 67.4828 454.591 Q64.3116 449.984 64.3116 441.258 Q64.3116 433.063 68.2004 428.202 Q72.0893 423.318 78.6402 423.318 Q80.3994 423.318 82.1818 423.665 Q83.9874 424.012 85.9318 424.707 Z" fill="#000000" fill-rule="evenodd" fill-opacity="1" /><path clip-path="url(#clip760)" d="M 0 0 M103.247 427.022 Q99.6354 427.022 97.8068 430.586 Q96.0012 434.128 96.0012 441.258 Q96.0012 448.364 97.8068 451.929 Q99.6354 455.471 103.247 455.471 Q106.881 455.471 108.686 451.929 Q110.515 448.364 110.515 441.258 Q110.515 434.128 108.686 430.586 Q106.881 427.022 103.247 427.022 M103.247 423.318 Q109.057 423.318 112.112 427.924 Q115.191 432.508 115.191 441.258 Q115.191 449.984 112.112 454.591 Q109.057 459.174 103.247 459.174 Q97.4364 459.174 94.3577 454.591 Q91.3022 449.984 91.3022 441.258 Q91.3022 432.508 94.3577 427.924 Q97.4364 423.318 103.247 423.318 Z" fill="#000000" fill-rule="evenodd" fill-opacity="1" /><path clip-path="url(#clip760)" d="M 0 0 M130.26 427.022 Q126.649 427.022 124.82 430.586 Q123.015 434.128 123.015 441.258 Q123.015 448.364 124.82 451.929 Q126.649 455.471 130.26 455.471 Q133.895 455.471 135.7 451.929 Q137.529 448.364 137.529 441.258 Q137.529 434.128 135.7 430.586 Q133.895 427.022 130.26 427.022 M130.26 423.318 Q136.07 423.318 139.126 427.924 Q142.205 432.508 142.205 441.258 Q142.205 449.984 139.126 454.591 Q136.07 459.174 130.26 459.174 Q124.45 459.174 121.371 454.591 Q118.316 449.984 118.316 441.258 Q118.316 432.508 121.371 427.924 Q124.45 423.318 130.26 423.318 Z" fill="#000000" fill-rule="evenodd" fill-opacity="1" /><path clip-path="url(#clip760)" d="M 0 0 M76.3254 107.26 Q72.9921 107.26 71.0708 109.042 Q69.1726 110.825 69.1726 113.95 Q69.1726 117.075 71.0708 118.857 Q72.9921 120.64 76.3254 120.64 Q79.6587 120.64 81.58 118.857 Q83.5013 117.052 83.5013 113.95 Q83.5013 110.825 81.58 109.042 Q79.6819 107.26 76.3254 107.26 M71.6495 105.269 Q68.6402 104.529 66.9504 102.468 Q65.2838 100.408 65.2838 97.4453 Q65.2838 93.3018 68.2236 90.8944 Q71.1865 88.487 76.3254 88.487 Q81.4874 88.487 84.4272 90.8944 Q87.367 93.3018 87.367 97.4453 Q87.367 100.408 85.6772 102.468 Q84.0105 104.529 81.0244 105.269 Q84.404 106.056 86.279 108.348 Q88.1772 110.64 88.1772 113.95 Q88.1772 118.973 85.0985 121.658 Q82.0429 124.343 76.3254 124.343 Q70.6078 124.343 67.5291 121.658 Q64.4736 118.973 64.4736 113.95 Q64.4736 110.64 66.3717 108.348 Q68.2699 106.056 71.6495 105.269 M69.9365 97.8851 Q69.9365 100.57 71.6032 102.075 Q73.293 103.579 76.3254 103.579 Q79.3346 103.579 81.0244 102.075 Q82.7374 100.57 82.7374 97.8851 Q82.7374 95.1999 81.0244 93.6953 Q79.3346 92.1907 76.3254 92.1907 Q73.293 92.1907 71.6032 93.6953 Q69.9365 95.1999 69.9365 97.8851 Z" fill="#000000" fill-rule="evenodd" fill-opacity="1" /><path clip-path="url(#clip760)" d="M 0 0 M103.247 92.1907 Q99.6354 92.1907 97.8068 95.7555 Q96.0012 99.2971 96.0012 106.427 Q96.0012 113.533 97.8068 117.098 Q99.6354 120.64 103.247 120.64 Q106.881 120.64 108.686 117.098 Q110.515 113.533 110.515 106.427 Q110.515 99.2971 108.686 95.7555 Q106.881 92.1907 103.247 92.1907 M103.247 88.487 Q109.057 88.487 112.112 93.0934 Q115.191 97.6767 115.191 106.427 Q115.191 115.154 112.112 119.76 Q109.057 124.343 103.247 124.343 Q97.4364 124.343 94.3577 119.76 Q91.3022 115.154 91.3022 106.427 Q91.3022 97.6767 94.3577 93.0934 Q97.4364 88.487 103.247 88.487 Z" fill="#000000" fill-rule="evenodd" fill-opacity="1" /><path clip-path="url(#clip760)" d="M 0 0 M130.26 92.1907 Q126.649 92.1907 124.82 95.7555 Q123.015 99.2971 123.015 106.427 Q123.015 113.533 124.82 117.098 Q126.649 120.64 130.26 120.64 Q133.895 120.64 135.7 117.098 Q137.529 113.533 137.529 106.427 Q137.529 99.2971 135.7 95.7555 Q133.895 92.1907 130.26 92.1907 M130.26 88.487 Q136.07 88.487 139.126 93.0934 Q142.205 97.6767 142.205 106.427 Q142.205 115.154 139.126 119.76 Q136.07 124.343 130.26 124.343 Q124.45 124.343 121.371 119.76 Q118.316 115.154 118.316 106.427 Q118.316 97.6767 121.371 93.0934 Q124.45 88.487 130.26 88.487 Z" fill="#000000" fill-rule="evenodd" fill-opacity="1" /><path clip-path="url(#clip762)" d="
M286.469 1444.04 L286.469 1445.72 L311.418 1445.72 L311.418 1444.04 L286.469 1444.04 L286.469 1444.04  Z
  " fill="#009af9" fill-rule="evenodd" fill-opacity="1"/>
<polyline clip-path="url(#clip762)" style="stroke:#000000; stroke-width:4; stroke-opacity:1; fill:none" points="
  286.469,1444.04 286.469,1445.72 311.418,1445.72 311.418,1444.04 286.469,1444.04 
  "/>
<path clip-path="url(#clip762)" d="
M311.418 1445.72 L311.418 1445.72 L336.367 1445.72 L336.367 1445.72 L311.418 1445.72 L311.418 1445.72  Z
  " fill="#009af9" fill-rule="evenodd" fill-opacity="1"/>
<polyline clip-path="url(#clip762)" style="stroke:#000000; stroke-width:4; stroke-opacity:1; fill:none" points="
  311.418,1445.72 311.418,1445.72 336.367,1445.72 311.418,1445.72 
  "/>
<path clip-path="url(#clip762)" d="
M336.367 1445.72 L336.367 1445.72 L361.316 1445.72 L361.316 1445.72 L336.367 1445.72 L336.367 1445.72  Z
  " fill="#009af9" fill-rule="evenodd" fill-opacity="1"/>
<polyline clip-path="url(#clip762)" style="stroke:#000000; stroke-width:4; stroke-opacity:1; fill:none" points="
  336.367,1445.72 336.367,1445.72 361.316,1445.72 336.367,1445.72 
  "/>
<path clip-path="url(#clip762)" d="
M361.316 1445.72 L361.316 1445.72 L386.265 1445.72 L386.265 1445.72 L361.316 1445.72 L361.316 1445.72  Z
  " fill="#009af9" fill-rule="evenodd" fill-opacity="1"/>
<polyline clip-path="url(#clip762)" style="stroke:#000000; stroke-width:4; stroke-opacity:1; fill:none" points="
  361.316,1445.72 361.316,1445.72 386.265,1445.72 361.316,1445.72 
  "/>
<path clip-path="url(#clip762)" d="
M386.265 1444.04 L386.265 1445.72 L411.214 1445.72 L411.214 1444.04 L386.265 1444.04 L386.265 1444.04  Z
  " fill="#009af9" fill-rule="evenodd" fill-opacity="1"/>
<polyline clip-path="url(#clip762)" style="stroke:#000000; stroke-width:4; stroke-opacity:1; fill:none" points="
  386.265,1444.04 386.265,1445.72 411.214,1445.72 411.214,1444.04 386.265,1444.04 
  "/>
<path clip-path="url(#clip762)" d="
M411.214 1445.72 L411.214 1445.72 L436.163 1445.72 L436.163 1445.72 L411.214 1445.72 L411.214 1445.72  Z
  " fill="#009af9" fill-rule="evenodd" fill-opacity="1"/>
<polyline clip-path="url(#clip762)" style="stroke:#000000; stroke-width:4; stroke-opacity:1; fill:none" points="
  411.214,1445.72 411.214,1445.72 436.163,1445.72 411.214,1445.72 
  "/>
<path clip-path="url(#clip762)" d="
M436.163 1444.04 L436.163 1445.72 L461.112 1445.72 L461.112 1444.04 L436.163 1444.04 L436.163 1444.04  Z
  " fill="#009af9" fill-rule="evenodd" fill-opacity="1"/>
<polyline clip-path="url(#clip762)" style="stroke:#000000; stroke-width:4; stroke-opacity:1; fill:none" points="
  436.163,1444.04 436.163,1445.72 461.112,1445.72 461.112,1444.04 436.163,1444.04 
  "/>
<path clip-path="url(#clip762)" d="
M461.112 1445.72 L461.112 1445.72 L486.061 1445.72 L486.061 1445.72 L461.112 1445.72 L461.112 1445.72  Z
  " fill="#009af9" fill-rule="evenodd" fill-opacity="1"/>
<polyline clip-path="url(#clip762)" style="stroke:#000000; stroke-width:4; stroke-opacity:1; fill:none" points="
  461.112,1445.72 461.112,1445.72 486.061,1445.72 461.112,1445.72 
  "/>
<path clip-path="url(#clip762)" d="
M486.061 1442.37 L486.061 1445.72 L511.01 1445.72 L511.01 1442.37 L486.061 1442.37 L486.061 1442.37  Z
  " fill="#009af9" fill-rule="evenodd" fill-opacity="1"/>
<polyline clip-path="url(#clip762)" style="stroke:#000000; stroke-width:4; stroke-opacity:1; fill:none" points="
  486.061,1442.37 486.061,1445.72 511.01,1445.72 511.01,1442.37 486.061,1442.37 
  "/>
<path clip-path="url(#clip762)" d="
M511.01 1442.37 L511.01 1445.72 L535.959 1445.72 L535.959 1442.37 L511.01 1442.37 L511.01 1442.37  Z
  " fill="#009af9" fill-rule="evenodd" fill-opacity="1"/>
<polyline clip-path="url(#clip762)" style="stroke:#000000; stroke-width:4; stroke-opacity:1; fill:none" points="
  511.01,1442.37 511.01,1445.72 535.959,1445.72 535.959,1442.37 511.01,1442.37 
  "/>
<path clip-path="url(#clip762)" d="
M535.959 1440.69 L535.959 1445.72 L560.908 1445.72 L560.908 1440.69 L535.959 1440.69 L535.959 1440.69  Z
  " fill="#009af9" fill-rule="evenodd" fill-opacity="1"/>
<polyline clip-path="url(#clip762)" style="stroke:#000000; stroke-width:4; stroke-opacity:1; fill:none" points="
  535.959,1440.69 535.959,1445.72 560.908,1445.72 560.908,1440.69 535.959,1440.69 
  "/>
<path clip-path="url(#clip762)" d="
M560.908 1442.37 L560.908 1445.72 L585.857 1445.72 L585.857 1442.37 L560.908 1442.37 L560.908 1442.37  Z
  " fill="#009af9" fill-rule="evenodd" fill-opacity="1"/>
<polyline clip-path="url(#clip762)" style="stroke:#000000; stroke-width:4; stroke-opacity:1; fill:none" points="
  560.908,1442.37 560.908,1445.72 585.857,1445.72 585.857,1442.37 560.908,1442.37 
  "/>
<path clip-path="url(#clip762)" d="
M585.857 1440.69 L585.857 1445.72 L610.806 1445.72 L610.806 1440.69 L585.857 1440.69 L585.857 1440.69  Z
  " fill="#009af9" fill-rule="evenodd" fill-opacity="1"/>
<polyline clip-path="url(#clip762)" style="stroke:#000000; stroke-width:4; stroke-opacity:1; fill:none" points="
  585.857,1440.69 585.857,1445.72 610.806,1445.72 610.806,1440.69 585.857,1440.69 
  "/>
<path clip-path="url(#clip762)" d="
M610.806 1442.37 L610.806 1445.72 L635.755 1445.72 L635.755 1442.37 L610.806 1442.37 L610.806 1442.37  Z
  " fill="#009af9" fill-rule="evenodd" fill-opacity="1"/>
<polyline clip-path="url(#clip762)" style="stroke:#000000; stroke-width:4; stroke-opacity:1; fill:none" points="
  610.806,1442.37 610.806,1445.72 635.755,1445.72 635.755,1442.37 610.806,1442.37 
  "/>
<path clip-path="url(#clip762)" d="
M635.755 1437.34 L635.755 1445.72 L660.704 1445.72 L660.704 1437.34 L635.755 1437.34 L635.755 1437.34  Z
  " fill="#009af9" fill-rule="evenodd" fill-opacity="1"/>
<polyline clip-path="url(#clip762)" style="stroke:#000000; stroke-width:4; stroke-opacity:1; fill:none" points="
  635.755,1437.34 635.755,1445.72 660.704,1445.72 660.704,1437.34 635.755,1437.34 
  "/>
<path clip-path="url(#clip762)" d="
M660.704 1439.02 L660.704 1445.72 L685.653 1445.72 L685.653 1439.02 L660.704 1439.02 L660.704 1439.02  Z
  " fill="#009af9" fill-rule="evenodd" fill-opacity="1"/>
<polyline clip-path="url(#clip762)" style="stroke:#000000; stroke-width:4; stroke-opacity:1; fill:none" points="
  660.704,1439.02 660.704,1445.72 685.653,1445.72 685.653,1439.02 660.704,1439.02 
  "/>
<path clip-path="url(#clip762)" d="
M685.653 1434 L685.653 1445.72 L710.602 1445.72 L710.602 1434 L685.653 1434 L685.653 1434  Z
  " fill="#009af9" fill-rule="evenodd" fill-opacity="1"/>
<polyline clip-path="url(#clip762)" style="stroke:#000000; stroke-width:4; stroke-opacity:1; fill:none" points="
  685.653,1434 685.653,1445.72 710.602,1445.72 710.602,1434 685.653,1434 
  "/>
<path clip-path="url(#clip762)" d="
M710.602 1427.3 L710.602 1445.72 L735.551 1445.72 L735.551 1427.3 L710.602 1427.3 L710.602 1427.3  Z
  " fill="#009af9" fill-rule="evenodd" fill-opacity="1"/>
<polyline clip-path="url(#clip762)" style="stroke:#000000; stroke-width:4; stroke-opacity:1; fill:none" points="
  710.602,1427.3 710.602,1445.72 735.551,1445.72 735.551,1427.3 710.602,1427.3 
  "/>
<path clip-path="url(#clip762)" d="
M735.551 1422.28 L735.551 1445.72 L760.5 1445.72 L760.5 1422.28 L735.551 1422.28 L735.551 1422.28  Z
  " fill="#009af9" fill-rule="evenodd" fill-opacity="1"/>
<polyline clip-path="url(#clip762)" style="stroke:#000000; stroke-width:4; stroke-opacity:1; fill:none" points="
  735.551,1422.28 735.551,1445.72 760.5,1445.72 760.5,1422.28 735.551,1422.28 
  "/>
<path clip-path="url(#clip762)" d="
M760.5 1410.56 L760.5 1445.72 L785.449 1445.72 L785.449 1410.56 L760.5 1410.56 L760.5 1410.56  Z
  " fill="#009af9" fill-rule="evenodd" fill-opacity="1"/>
<polyline clip-path="url(#clip762)" style="stroke:#000000; stroke-width:4; stroke-opacity:1; fill:none" points="
  760.5,1410.56 760.5,1445.72 785.449,1445.72 785.449,1410.56 760.5,1410.56 
  "/>
<path clip-path="url(#clip762)" d="
M785.449 1413.91 L785.449 1445.72 L810.398 1445.72 L810.398 1413.91 L785.449 1413.91 L785.449 1413.91  Z
  " fill="#009af9" fill-rule="evenodd" fill-opacity="1"/>
<polyline clip-path="url(#clip762)" style="stroke:#000000; stroke-width:4; stroke-opacity:1; fill:none" points="
  785.449,1413.91 785.449,1445.72 810.398,1445.72 810.398,1413.91 785.449,1413.91 
  "/>
<path clip-path="url(#clip762)" d="
M810.398 1402.19 L810.398 1445.72 L835.347 1445.72 L835.347 1402.19 L810.398 1402.19 L810.398 1402.19  Z
  " fill="#009af9" fill-rule="evenodd" fill-opacity="1"/>
<polyline clip-path="url(#clip762)" style="stroke:#000000; stroke-width:4; stroke-opacity:1; fill:none" points="
  810.398,1402.19 810.398,1445.72 835.347,1445.72 835.347,1402.19 810.398,1402.19 
  "/>
<path clip-path="url(#clip762)" d="
M835.347 1383.77 L835.347 1445.72 L860.296 1445.72 L860.296 1383.77 L835.347 1383.77 L835.347 1383.77  Z
  " fill="#009af9" fill-rule="evenodd" fill-opacity="1"/>
<polyline clip-path="url(#clip762)" style="stroke:#000000; stroke-width:4; stroke-opacity:1; fill:none" points="
  835.347,1383.77 835.347,1445.72 860.296,1445.72 860.296,1383.77 835.347,1383.77 
  "/>
<path clip-path="url(#clip762)" d="
M860.296 1412.23 L860.296 1445.72 L885.245 1445.72 L885.245 1412.23 L860.296 1412.23 L860.296 1412.23  Z
  " fill="#009af9" fill-rule="evenodd" fill-opacity="1"/>
<polyline clip-path="url(#clip762)" style="stroke:#000000; stroke-width:4; stroke-opacity:1; fill:none" points="
  860.296,1412.23 860.296,1445.72 885.245,1445.72 885.245,1412.23 860.296,1412.23 
  "/>
<path clip-path="url(#clip762)" d="
M885.245 1387.12 L885.245 1445.72 L910.194 1445.72 L910.194 1387.12 L885.245 1387.12 L885.245 1387.12  Z
  " fill="#009af9" fill-rule="evenodd" fill-opacity="1"/>
<polyline clip-path="url(#clip762)" style="stroke:#000000; stroke-width:4; stroke-opacity:1; fill:none" points="
  885.245,1387.12 885.245,1445.72 910.194,1445.72 910.194,1387.12 885.245,1387.12 
  "/>
<path clip-path="url(#clip762)" d="
M910.194 1388.79 L910.194 1445.72 L935.143 1445.72 L935.143 1388.79 L910.194 1388.79 L910.194 1388.79  Z
  " fill="#009af9" fill-rule="evenodd" fill-opacity="1"/>
<polyline clip-path="url(#clip762)" style="stroke:#000000; stroke-width:4; stroke-opacity:1; fill:none" points="
  910.194,1388.79 910.194,1445.72 935.143,1445.72 935.143,1388.79 910.194,1388.79 
  "/>
<path clip-path="url(#clip762)" d="
M935.143 1355.31 L935.143 1445.72 L960.092 1445.72 L960.092 1355.31 L935.143 1355.31 L935.143 1355.31  Z
  " fill="#009af9" fill-rule="evenodd" fill-opacity="1"/>
<polyline clip-path="url(#clip762)" style="stroke:#000000; stroke-width:4; stroke-opacity:1; fill:none" points="
  935.143,1355.31 935.143,1445.72 960.092,1445.72 960.092,1355.31 935.143,1355.31 
  "/>
<path clip-path="url(#clip762)" d="
M960.092 1345.27 L960.092 1445.72 L985.041 1445.72 L985.041 1345.27 L960.092 1345.27 L960.092 1345.27  Z
  " fill="#009af9" fill-rule="evenodd" fill-opacity="1"/>
<polyline clip-path="url(#clip762)" style="stroke:#000000; stroke-width:4; stroke-opacity:1; fill:none" points="
  960.092,1345.27 960.092,1445.72 985.041,1445.72 985.041,1345.27 960.092,1345.27 
  "/>
<path clip-path="url(#clip762)" d="
M985.041 1333.55 L985.041 1445.72 L1009.99 1445.72 L1009.99 1333.55 L985.041 1333.55 L985.041 1333.55  Z
  " fill="#009af9" fill-rule="evenodd" fill-opacity="1"/>
<polyline clip-path="url(#clip762)" style="stroke:#000000; stroke-width:4; stroke-opacity:1; fill:none" points="
  985.041,1333.55 985.041,1445.72 1009.99,1445.72 1009.99,1333.55 985.041,1333.55 
  "/>
<path clip-path="url(#clip762)" d="
M1009.99 1325.18 L1009.99 1445.72 L1034.94 1445.72 L1034.94 1325.18 L1009.99 1325.18 L1009.99 1325.18  Z
  " fill="#009af9" fill-rule="evenodd" fill-opacity="1"/>
<polyline clip-path="url(#clip762)" style="stroke:#000000; stroke-width:4; stroke-opacity:1; fill:none" points="
  1009.99,1325.18 1009.99,1445.72 1034.94,1445.72 1034.94,1325.18 1009.99,1325.18 
  "/>
<path clip-path="url(#clip762)" d="
M1034.94 1301.74 L1034.94 1445.72 L1059.89 1445.72 L1059.89 1301.74 L1034.94 1301.74 L1034.94 1301.74  Z
  " fill="#009af9" fill-rule="evenodd" fill-opacity="1"/>
<polyline clip-path="url(#clip762)" style="stroke:#000000; stroke-width:4; stroke-opacity:1; fill:none" points="
  1034.94,1301.74 1034.94,1445.72 1059.89,1445.72 1059.89,1301.74 1034.94,1301.74 
  "/>
<path clip-path="url(#clip762)" d="
M1059.89 1316.81 L1059.89 1445.72 L1084.84 1445.72 L1084.84 1316.81 L1059.89 1316.81 L1059.89 1316.81  Z
  " fill="#009af9" fill-rule="evenodd" fill-opacity="1"/>
<polyline clip-path="url(#clip762)" style="stroke:#000000; stroke-width:4; stroke-opacity:1; fill:none" points="
  1059.89,1316.81 1059.89,1445.72 1084.84,1445.72 1084.84,1316.81 1059.89,1316.81 
  "/>
<path clip-path="url(#clip762)" d="
M1084.84 1286.67 L1084.84 1445.72 L1109.79 1445.72 L1109.79 1286.67 L1084.84 1286.67 L1084.84 1286.67  Z
  " fill="#009af9" fill-rule="evenodd" fill-opacity="1"/>
<polyline clip-path="url(#clip762)" style="stroke:#000000; stroke-width:4; stroke-opacity:1; fill:none" points="
  1084.84,1286.67 1084.84,1445.72 1109.79,1445.72 1109.79,1286.67 1084.84,1286.67 
  "/>
<path clip-path="url(#clip762)" d="
M1109.79 1274.95 L1109.79 1445.72 L1134.74 1445.72 L1134.74 1274.95 L1109.79 1274.95 L1109.79 1274.95  Z
  " fill="#009af9" fill-rule="evenodd" fill-opacity="1"/>
<polyline clip-path="url(#clip762)" style="stroke:#000000; stroke-width:4; stroke-opacity:1; fill:none" points="
  1109.79,1274.95 1109.79,1445.72 1134.74,1445.72 1134.74,1274.95 1109.79,1274.95 
  "/>
<path clip-path="url(#clip762)" d="
M1134.74 1279.97 L1134.74 1445.72 L1159.68 1445.72 L1159.68 1279.97 L1134.74 1279.97 L1134.74 1279.97  Z
  " fill="#009af9" fill-rule="evenodd" fill-opacity="1"/>
<polyline clip-path="url(#clip762)" style="stroke:#000000; stroke-width:4; stroke-opacity:1; fill:none" points="
  1134.74,1279.97 1134.74,1445.72 1159.68,1445.72 1159.68,1279.97 1134.74,1279.97 
  "/>
<path clip-path="url(#clip762)" d="
M1159.68 1269.93 L1159.68 1445.72 L1184.63 1445.72 L1184.63 1269.93 L1159.68 1269.93 L1159.68 1269.93  Z
  " fill="#009af9" fill-rule="evenodd" fill-opacity="1"/>
<polyline clip-path="url(#clip762)" style="stroke:#000000; stroke-width:4; stroke-opacity:1; fill:none" points="
  1159.68,1269.93 1159.68,1445.72 1184.63,1445.72 1184.63,1269.93 1159.68,1269.93 
  "/>
<path clip-path="url(#clip762)" d="
M1184.63 1261.56 L1184.63 1445.72 L1209.58 1445.72 L1209.58 1261.56 L1184.63 1261.56 L1184.63 1261.56  Z
  " fill="#009af9" fill-rule="evenodd" fill-opacity="1"/>
<polyline clip-path="url(#clip762)" style="stroke:#000000; stroke-width:4; stroke-opacity:1; fill:none" points="
  1184.63,1261.56 1184.63,1445.72 1209.58,1445.72 1209.58,1261.56 1184.63,1261.56 
  "/>
<path clip-path="url(#clip762)" d="
M1209.58 1286.67 L1209.58 1445.72 L1234.53 1445.72 L1234.53 1286.67 L1209.58 1286.67 L1209.58 1286.67  Z
  " fill="#009af9" fill-rule="evenodd" fill-opacity="1"/>
<polyline clip-path="url(#clip762)" style="stroke:#000000; stroke-width:4; stroke-opacity:1; fill:none" points="
  1209.58,1286.67 1209.58,1445.72 1234.53,1445.72 1234.53,1286.67 1209.58,1286.67 
  "/>
<path clip-path="url(#clip762)" d="
M1234.53 1229.75 L1234.53 1445.72 L1259.48 1445.72 L1259.48 1229.75 L1234.53 1229.75 L1234.53 1229.75  Z
  " fill="#009af9" fill-rule="evenodd" fill-opacity="1"/>
<polyline clip-path="url(#clip762)" style="stroke:#000000; stroke-width:4; stroke-opacity:1; fill:none" points="
  1234.53,1229.75 1234.53,1445.72 1259.48,1445.72 1259.48,1229.75 1234.53,1229.75 
  "/>
<path clip-path="url(#clip762)" d="
M1259.48 1239.79 L1259.48 1445.72 L1284.43 1445.72 L1284.43 1239.79 L1259.48 1239.79 L1259.48 1239.79  Z
  " fill="#009af9" fill-rule="evenodd" fill-opacity="1"/>
<polyline clip-path="url(#clip762)" style="stroke:#000000; stroke-width:4; stroke-opacity:1; fill:none" points="
  1259.48,1239.79 1259.48,1445.72 1284.43,1445.72 1284.43,1239.79 1259.48,1239.79 
  "/>
<path clip-path="url(#clip762)" d="
M1284.43 1226.4 L1284.43 1445.72 L1309.38 1445.72 L1309.38 1226.4 L1284.43 1226.4 L1284.43 1226.4  Z
  " fill="#009af9" fill-rule="evenodd" fill-opacity="1"/>
<polyline clip-path="url(#clip762)" style="stroke:#000000; stroke-width:4; stroke-opacity:1; fill:none" points="
  1284.43,1226.4 1284.43,1445.72 1309.38,1445.72 1309.38,1226.4 1284.43,1226.4 
  "/>
<path clip-path="url(#clip762)" d="
M1309.38 1261.56 L1309.38 1445.72 L1334.33 1445.72 L1334.33 1261.56 L1309.38 1261.56 L1309.38 1261.56  Z
  " fill="#009af9" fill-rule="evenodd" fill-opacity="1"/>
<polyline clip-path="url(#clip762)" style="stroke:#000000; stroke-width:4; stroke-opacity:1; fill:none" points="
  1309.38,1261.56 1309.38,1445.72 1334.33,1445.72 1334.33,1261.56 1309.38,1261.56 
  "/>
<path clip-path="url(#clip762)" d="
M1334.33 1194.59 L1334.33 1445.72 L1359.28 1445.72 L1359.28 1194.59 L1334.33 1194.59 L1334.33 1194.59  Z
  " fill="#009af9" fill-rule="evenodd" fill-opacity="1"/>
<polyline clip-path="url(#clip762)" style="stroke:#000000; stroke-width:4; stroke-opacity:1; fill:none" points="
  1334.33,1194.59 1334.33,1445.72 1359.28,1445.72 1359.28,1194.59 1334.33,1194.59 
  "/>
<path clip-path="url(#clip762)" d="
M1359.28 797.818 L1359.28 1445.72 L1384.23 1445.72 L1384.23 797.818 L1359.28 797.818 L1359.28 797.818  Z
  " fill="#009af9" fill-rule="evenodd" fill-opacity="1"/>
<polyline clip-path="url(#clip762)" style="stroke:#000000; stroke-width:4; stroke-opacity:1; fill:none" points="
  1359.28,797.818 1359.28,1445.72 1384.23,1445.72 1384.23,797.818 1359.28,797.818 
  "/>
<path clip-path="url(#clip762)" d="
M1384.23 164.987 L1384.23 1445.72 L1409.17 1445.72 L1409.17 164.987 L1384.23 164.987 L1384.23 164.987  Z
  " fill="#009af9" fill-rule="evenodd" fill-opacity="1"/>
<polyline clip-path="url(#clip762)" style="stroke:#000000; stroke-width:4; stroke-opacity:1; fill:none" points="
  1384.23,164.987 1384.23,1445.72 1409.17,1445.72 1409.17,164.987 1384.23,164.987 
  "/>
<path clip-path="url(#clip762)" d="
M1409.17 87.9763 L1409.17 1445.72 L1434.12 1445.72 L1434.12 87.9763 L1409.17 87.9763 L1409.17 87.9763  Z
  " fill="#009af9" fill-rule="evenodd" fill-opacity="1"/>
<polyline clip-path="url(#clip762)" style="stroke:#000000; stroke-width:4; stroke-opacity:1; fill:none" points="
  1409.17,87.9763 1409.17,1445.72 1434.12,1445.72 1434.12,87.9763 1409.17,87.9763 
  "/>
<path clip-path="url(#clip762)" d="
M1434.12 827.953 L1434.12 1445.72 L1459.07 1445.72 L1459.07 827.953 L1434.12 827.953 L1434.12 827.953  Z
  " fill="#009af9" fill-rule="evenodd" fill-opacity="1"/>
<polyline clip-path="url(#clip762)" style="stroke:#000000; stroke-width:4; stroke-opacity:1; fill:none" points="
  1434.12,827.953 1434.12,1445.72 1459.07,1445.72 1459.07,827.953 1434.12,827.953 
  "/>
<path clip-path="url(#clip762)" d="
M1459.07 1238.12 L1459.07 1445.72 L1484.02 1445.72 L1484.02 1238.12 L1459.07 1238.12 L1459.07 1238.12  Z
  " fill="#009af9" fill-rule="evenodd" fill-opacity="1"/>
<polyline clip-path="url(#clip762)" style="stroke:#000000; stroke-width:4; stroke-opacity:1; fill:none" points="
  1459.07,1238.12 1459.07,1445.72 1484.02,1445.72 1484.02,1238.12 1459.07,1238.12 
  "/>
<path clip-path="url(#clip762)" d="
M1484.02 1315.13 L1484.02 1445.72 L1508.97 1445.72 L1508.97 1315.13 L1484.02 1315.13 L1484.02 1315.13  Z
  " fill="#009af9" fill-rule="evenodd" fill-opacity="1"/>
<polyline clip-path="url(#clip762)" style="stroke:#000000; stroke-width:4; stroke-opacity:1; fill:none" points="
  1484.02,1315.13 1484.02,1445.72 1508.97,1445.72 1508.97,1315.13 1484.02,1315.13 
  "/>
<path clip-path="url(#clip762)" d="
M1508.97 1318.48 L1508.97 1445.72 L1533.92 1445.72 L1533.92 1318.48 L1508.97 1318.48 L1508.97 1318.48  Z
  " fill="#009af9" fill-rule="evenodd" fill-opacity="1"/>
<polyline clip-path="url(#clip762)" style="stroke:#000000; stroke-width:4; stroke-opacity:1; fill:none" points="
  1508.97,1318.48 1508.97,1445.72 1533.92,1445.72 1533.92,1318.48 1508.97,1318.48 
  "/>
<path clip-path="url(#clip762)" d="
M1533.92 1338.57 L1533.92 1445.72 L1558.87 1445.72 L1558.87 1338.57 L1533.92 1338.57 L1533.92 1338.57  Z
  " fill="#009af9" fill-rule="evenodd" fill-opacity="1"/>
<polyline clip-path="url(#clip762)" style="stroke:#000000; stroke-width:4; stroke-opacity:1; fill:none" points="
  1533.92,1338.57 1533.92,1445.72 1558.87,1445.72 1558.87,1338.57 1533.92,1338.57 
  "/>
<path clip-path="url(#clip762)" d="
M1558.87 1348.61 L1558.87 1445.72 L1583.82 1445.72 L1583.82 1348.61 L1558.87 1348.61 L1558.87 1348.61  Z
  " fill="#009af9" fill-rule="evenodd" fill-opacity="1"/>
<polyline clip-path="url(#clip762)" style="stroke:#000000; stroke-width:4; stroke-opacity:1; fill:none" points="
  1558.87,1348.61 1558.87,1445.72 1583.82,1445.72 1583.82,1348.61 1558.87,1348.61 
  "/>
<path clip-path="url(#clip762)" d="
M1583.82 1335.22 L1583.82 1445.72 L1608.77 1445.72 L1608.77 1335.22 L1583.82 1335.22 L1583.82 1335.22  Z
  " fill="#009af9" fill-rule="evenodd" fill-opacity="1"/>
<polyline clip-path="url(#clip762)" style="stroke:#000000; stroke-width:4; stroke-opacity:1; fill:none" points="
  1583.82,1335.22 1583.82,1445.72 1608.77,1445.72 1608.77,1335.22 1583.82,1335.22 
  "/>
<path clip-path="url(#clip762)" d="
M1608.77 1368.7 L1608.77 1445.72 L1633.72 1445.72 L1633.72 1368.7 L1608.77 1368.7 L1608.77 1368.7  Z
  " fill="#009af9" fill-rule="evenodd" fill-opacity="1"/>
<polyline clip-path="url(#clip762)" style="stroke:#000000; stroke-width:4; stroke-opacity:1; fill:none" points="
  1608.77,1368.7 1608.77,1445.72 1633.72,1445.72 1633.72,1368.7 1608.77,1368.7 
  "/>
<path clip-path="url(#clip762)" d="
M1633.72 1375.4 L1633.72 1445.72 L1658.66 1445.72 L1658.66 1375.4 L1633.72 1375.4 L1633.72 1375.4  Z
  " fill="#009af9" fill-rule="evenodd" fill-opacity="1"/>
<polyline clip-path="url(#clip762)" style="stroke:#000000; stroke-width:4; stroke-opacity:1; fill:none" points="
  1633.72,1375.4 1633.72,1445.72 1658.66,1445.72 1658.66,1375.4 1633.72,1375.4 
  "/>
<path clip-path="url(#clip762)" d="
M1658.66 1392.14 L1658.66 1445.72 L1683.61 1445.72 L1683.61 1392.14 L1658.66 1392.14 L1658.66 1392.14  Z
  " fill="#009af9" fill-rule="evenodd" fill-opacity="1"/>
<polyline clip-path="url(#clip762)" style="stroke:#000000; stroke-width:4; stroke-opacity:1; fill:none" points="
  1658.66,1392.14 1658.66,1445.72 1683.61,1445.72 1683.61,1392.14 1658.66,1392.14 
  "/>
<path clip-path="url(#clip762)" d="
M1683.61 1387.12 L1683.61 1445.72 L1708.56 1445.72 L1708.56 1387.12 L1683.61 1387.12 L1683.61 1387.12  Z
  " fill="#009af9" fill-rule="evenodd" fill-opacity="1"/>
<polyline clip-path="url(#clip762)" style="stroke:#000000; stroke-width:4; stroke-opacity:1; fill:none" points="
  1683.61,1387.12 1683.61,1445.72 1708.56,1445.72 1708.56,1387.12 1683.61,1387.12 
  "/>
<path clip-path="url(#clip762)" d="
M1708.56 1405.54 L1708.56 1445.72 L1733.51 1445.72 L1733.51 1405.54 L1708.56 1405.54 L1708.56 1405.54  Z
  " fill="#009af9" fill-rule="evenodd" fill-opacity="1"/>
<polyline clip-path="url(#clip762)" style="stroke:#000000; stroke-width:4; stroke-opacity:1; fill:none" points="
  1708.56,1405.54 1708.56,1445.72 1733.51,1445.72 1733.51,1405.54 1708.56,1405.54 
  "/>
<path clip-path="url(#clip762)" d="
M1733.51 1413.91 L1733.51 1445.72 L1758.46 1445.72 L1758.46 1413.91 L1733.51 1413.91 L1733.51 1413.91  Z
  " fill="#009af9" fill-rule="evenodd" fill-opacity="1"/>
<polyline clip-path="url(#clip762)" style="stroke:#000000; stroke-width:4; stroke-opacity:1; fill:none" points="
  1733.51,1413.91 1733.51,1445.72 1758.46,1445.72 1758.46,1413.91 1733.51,1413.91 
  "/>
<path clip-path="url(#clip762)" d="
M1758.46 1415.58 L1758.46 1445.72 L1783.41 1445.72 L1783.41 1415.58 L1758.46 1415.58 L1758.46 1415.58  Z
  " fill="#009af9" fill-rule="evenodd" fill-opacity="1"/>
<polyline clip-path="url(#clip762)" style="stroke:#000000; stroke-width:4; stroke-opacity:1; fill:none" points="
  1758.46,1415.58 1758.46,1445.72 1783.41,1445.72 1783.41,1415.58 1758.46,1415.58 
  "/>
<path clip-path="url(#clip762)" d="
M1783.41 1422.28 L1783.41 1445.72 L1808.36 1445.72 L1808.36 1422.28 L1783.41 1422.28 L1783.41 1422.28  Z
  " fill="#009af9" fill-rule="evenodd" fill-opacity="1"/>
<polyline clip-path="url(#clip762)" style="stroke:#000000; stroke-width:4; stroke-opacity:1; fill:none" points="
  1783.41,1422.28 1783.41,1445.72 1808.36,1445.72 1808.36,1422.28 1783.41,1422.28 
  "/>
<path clip-path="url(#clip762)" d="
M1808.36 1430.65 L1808.36 1445.72 L1833.31 1445.72 L1833.31 1430.65 L1808.36 1430.65 L1808.36 1430.65  Z
  " fill="#009af9" fill-rule="evenodd" fill-opacity="1"/>
<polyline clip-path="url(#clip762)" style="stroke:#000000; stroke-width:4; stroke-opacity:1; fill:none" points="
  1808.36,1430.65 1808.36,1445.72 1833.31,1445.72 1833.31,1430.65 1808.36,1430.65 
  "/>
<path clip-path="url(#clip762)" d="
M1833.31 1428.97 L1833.31 1445.72 L1858.26 1445.72 L1858.26 1428.97 L1833.31 1428.97 L1833.31 1428.97  Z
  " fill="#009af9" fill-rule="evenodd" fill-opacity="1"/>
<polyline clip-path="url(#clip762)" style="stroke:#000000; stroke-width:4; stroke-opacity:1; fill:none" points="
  1833.31,1428.97 1833.31,1445.72 1858.26,1445.72 1858.26,1428.97 1833.31,1428.97 
  "/>
<path clip-path="url(#clip762)" d="
M1858.26 1432.32 L1858.26 1445.72 L1883.21 1445.72 L1883.21 1432.32 L1858.26 1432.32 L1858.26 1432.32  Z
  " fill="#009af9" fill-rule="evenodd" fill-opacity="1"/>
<polyline clip-path="url(#clip762)" style="stroke:#000000; stroke-width:4; stroke-opacity:1; fill:none" points="
  1858.26,1432.32 1858.26,1445.72 1883.21,1445.72 1883.21,1432.32 1858.26,1432.32 
  "/>
<path clip-path="url(#clip762)" d="
M1883.21 1425.63 L1883.21 1445.72 L1908.15 1445.72 L1908.15 1425.63 L1883.21 1425.63 L1883.21 1425.63  Z
  " fill="#009af9" fill-rule="evenodd" fill-opacity="1"/>
<polyline clip-path="url(#clip762)" style="stroke:#000000; stroke-width:4; stroke-opacity:1; fill:none" points="
  1883.21,1425.63 1883.21,1445.72 1908.15,1445.72 1908.15,1425.63 1883.21,1425.63 
  "/>
<path clip-path="url(#clip762)" d="
M1908.15 1434 L1908.15 1445.72 L1933.1 1445.72 L1933.1 1434 L1908.15 1434 L1908.15 1434  Z
  " fill="#009af9" fill-rule="evenodd" fill-opacity="1"/>
<polyline clip-path="url(#clip762)" style="stroke:#000000; stroke-width:4; stroke-opacity:1; fill:none" points="
  1908.15,1434 1908.15,1445.72 1933.1,1445.72 1933.1,1434 1908.15,1434 
  "/>
<path clip-path="url(#clip762)" d="
M1933.1 1440.69 L1933.1 1445.72 L1958.05 1445.72 L1958.05 1440.69 L1933.1 1440.69 L1933.1 1440.69  Z
  " fill="#009af9" fill-rule="evenodd" fill-opacity="1"/>
<polyline clip-path="url(#clip762)" style="stroke:#000000; stroke-width:4; stroke-opacity:1; fill:none" points="
  1933.1,1440.69 1933.1,1445.72 1958.05,1445.72 1958.05,1440.69 1933.1,1440.69 
  "/>
<path clip-path="url(#clip762)" d="
M1958.05 1444.04 L1958.05 1445.72 L1983 1445.72 L1983 1444.04 L1958.05 1444.04 L1958.05 1444.04  Z
  " fill="#009af9" fill-rule="evenodd" fill-opacity="1"/>
<polyline clip-path="url(#clip762)" style="stroke:#000000; stroke-width:4; stroke-opacity:1; fill:none" points="
  1958.05,1444.04 1958.05,1445.72 1983,1445.72 1983,1444.04 1958.05,1444.04 
  "/>
<path clip-path="url(#clip762)" d="
M1983 1442.37 L1983 1445.72 L2007.95 1445.72 L2007.95 1442.37 L1983 1442.37 L1983 1442.37  Z
  " fill="#009af9" fill-rule="evenodd" fill-opacity="1"/>
<polyline clip-path="url(#clip762)" style="stroke:#000000; stroke-width:4; stroke-opacity:1; fill:none" points="
  1983,1442.37 1983,1445.72 2007.95,1445.72 2007.95,1442.37 1983,1442.37 
  "/>
<path clip-path="url(#clip762)" d="
M2007.95 1444.04 L2007.95 1445.72 L2032.9 1445.72 L2032.9 1444.04 L2007.95 1444.04 L2007.95 1444.04  Z
  " fill="#009af9" fill-rule="evenodd" fill-opacity="1"/>
<polyline clip-path="url(#clip762)" style="stroke:#000000; stroke-width:4; stroke-opacity:1; fill:none" points="
  2007.95,1444.04 2007.95,1445.72 2032.9,1445.72 2032.9,1444.04 2007.95,1444.04 
  "/>
<path clip-path="url(#clip762)" d="
M2032.9 1444.04 L2032.9 1445.72 L2057.85 1445.72 L2057.85 1444.04 L2032.9 1444.04 L2032.9 1444.04  Z
  " fill="#009af9" fill-rule="evenodd" fill-opacity="1"/>
<polyline clip-path="url(#clip762)" style="stroke:#000000; stroke-width:4; stroke-opacity:1; fill:none" points="
  2032.9,1444.04 2032.9,1445.72 2057.85,1445.72 2057.85,1444.04 2032.9,1444.04 
  "/>
<path clip-path="url(#clip762)" d="
M2057.85 1445.72 L2057.85 1445.72 L2082.8 1445.72 L2082.8 1445.72 L2057.85 1445.72 L2057.85 1445.72  Z
  " fill="#009af9" fill-rule="evenodd" fill-opacity="1"/>
<polyline clip-path="url(#clip762)" style="stroke:#000000; stroke-width:4; stroke-opacity:1; fill:none" points="
  2057.85,1445.72 2057.85,1445.72 2082.8,1445.72 2057.85,1445.72 
  "/>
<path clip-path="url(#clip762)" d="
M2082.8 1444.04 L2082.8 1445.72 L2107.75 1445.72 L2107.75 1444.04 L2082.8 1444.04 L2082.8 1444.04  Z
  " fill="#009af9" fill-rule="evenodd" fill-opacity="1"/>
<polyline clip-path="url(#clip762)" style="stroke:#000000; stroke-width:4; stroke-opacity:1; fill:none" points="
  2082.8,1444.04 2082.8,1445.72 2107.75,1445.72 2107.75,1444.04 2082.8,1444.04 
  "/>
<path clip-path="url(#clip762)" d="
M2107.75 1445.72 L2107.75 1445.72 L2132.7 1445.72 L2132.7 1445.72 L2107.75 1445.72 L2107.75 1445.72  Z
  " fill="#009af9" fill-rule="evenodd" fill-opacity="1"/>
<polyline clip-path="url(#clip762)" style="stroke:#000000; stroke-width:4; stroke-opacity:1; fill:none" points="
  2107.75,1445.72 2107.75,1445.72 2132.7,1445.72 2107.75,1445.72 
  "/>
<path clip-path="url(#clip762)" d="
M2132.7 1444.04 L2132.7 1445.72 L2157.64 1445.72 L2157.64 1444.04 L2132.7 1444.04 L2132.7 1444.04  Z
  " fill="#009af9" fill-rule="evenodd" fill-opacity="1"/>
<polyline clip-path="url(#clip762)" style="stroke:#000000; stroke-width:4; stroke-opacity:1; fill:none" points="
  2132.7,1444.04 2132.7,1445.72 2157.64,1445.72 2157.64,1444.04 2132.7,1444.04 
  "/>
<path clip-path="url(#clip762)" d="
M2157.64 1445.72 L2157.64 1445.72 L2182.59 1445.72 L2182.59 1445.72 L2157.64 1445.72 L2157.64 1445.72  Z
  " fill="#009af9" fill-rule="evenodd" fill-opacity="1"/>
<polyline clip-path="url(#clip762)" style="stroke:#000000; stroke-width:4; stroke-opacity:1; fill:none" points="
  2157.64,1445.72 2157.64,1445.72 2182.59,1445.72 2157.64,1445.72 
  "/>
<path clip-path="url(#clip762)" d="
M2182.59 1445.72 L2182.59 1445.72 L2207.54 1445.72 L2207.54 1445.72 L2182.59 1445.72 L2182.59 1445.72  Z
  " fill="#009af9" fill-rule="evenodd" fill-opacity="1"/>
<polyline clip-path="url(#clip762)" style="stroke:#000000; stroke-width:4; stroke-opacity:1; fill:none" points="
  2182.59,1445.72 2182.59,1445.72 2207.54,1445.72 2182.59,1445.72 
  "/>
<path clip-path="url(#clip762)" d="
M2207.54 1444.04 L2207.54 1445.72 L2232.49 1445.72 L2232.49 1444.04 L2207.54 1444.04 L2207.54 1444.04  Z
  " fill="#009af9" fill-rule="evenodd" fill-opacity="1"/>
<polyline clip-path="url(#clip762)" style="stroke:#000000; stroke-width:4; stroke-opacity:1; fill:none" points="
  2207.54,1444.04 2207.54,1445.72 2232.49,1445.72 2232.49,1444.04 2207.54,1444.04 
  "/>
<path clip-path="url(#clip760)" d="
M1985.9 216.178 L2279.87 216.178 L2279.87 95.2176 L1985.9 95.2176  Z
  " fill="#ffffff" fill-rule="evenodd" fill-opacity="1"/>
<polyline clip-path="url(#clip760)" style="stroke:#000000; stroke-width:4; stroke-opacity:1; fill:none" points="
  1985.9,216.178 2279.87,216.178 2279.87,95.2176 1985.9,95.2176 1985.9,216.178 
  "/>
<path clip-path="url(#clip760)" d="
M2010.2 179.89 L2155.97 179.89 L2155.97 131.506 L2010.2 131.506 L2010.2 179.89  Z
  " fill="#009af9" fill-rule="evenodd" fill-opacity="1"/>
<polyline clip-path="url(#clip760)" style="stroke:#000000; stroke-width:4; stroke-opacity:1; fill:none" points="
  2010.2,179.89 2155.97,179.89 2155.97,131.506 2010.2,131.506 2010.2,179.89 
  "/>
<path clip-path="url(#clip760)" d="M 0 0 M2194.11 175.385 Q2192.3 180.015 2190.59 181.427 Q2188.87 182.839 2186 182.839 L2182.6 182.839 L2182.6 179.274 L2185.1 179.274 Q2186.86 179.274 2187.83 178.44 Q2188.8 177.607 2189.98 174.505 L2190.75 172.561 L2180.26 147.052 L2184.78 147.052 L2192.88 167.329 L2200.98 147.052 L2205.49 147.052 L2194.11 175.385 Z" fill="#000000" fill-rule="evenodd" fill-opacity="1" /><path clip-path="url(#clip760)" d="M 0 0 M2211.37 169.042 L2219.01 169.042 L2219.01 142.677 L2210.7 144.343 L2210.7 140.084 L2218.97 138.418 L2223.64 138.418 L2223.64 169.042 L2231.28 169.042 L2231.28 172.978 L2211.37 172.978 L2211.37 169.042 Z" fill="#000000" fill-rule="evenodd" fill-opacity="1" /></svg>
