<?xml version="1.0" encoding="utf-8"?>
<svg xmlns="http://www.w3.org/2000/svg" xmlns:xlink="http://www.w3.org/1999/xlink" width="600" height="400" viewBox="0 0 2400 1600">
<defs>
  <clipPath id="clip450">
    <rect x="0" y="0" width="2400" height="1600"/>
  </clipPath>
</defs>
<path clip-path="url(#clip450)" d="
M0 1600 L2400 1600 L2400 0 L0 0  Z
  " fill="#ffffff" fill-rule="evenodd" fill-opacity="1"/>
<defs>
  <clipPath id="clip451">
    <rect x="480" y="0" width="1681" height="1600"/>
  </clipPath>
</defs>
<path clip-path="url(#clip450)" d="
M166.205 1486.45 L2352.76 1486.45 L2352.76 47.2441 L166.205 47.2441  Z
  " fill="#ffffff" fill-rule="evenodd" fill-opacity="1"/>
<defs>
  <clipPath id="clip452">
    <rect x="166" y="47" width="2188" height="1440"/>
  </clipPath>
</defs>
<polyline clip-path="url(#clip452)" style="stroke:#000000; stroke-width:2; stroke-opacity:0.1; fill:none" points="
  315.514,1486.45 315.514,47.2441 
  "/>
<polyline clip-path="url(#clip452)" style="stroke:#000000; stroke-width:2; stroke-opacity:0.1; fill:none" points="
  751.191,1486.45 751.191,47.2441 
  "/>
<polyline clip-path="url(#clip452)" style="stroke:#000000; stroke-width:2; stroke-opacity:0.1; fill:none" points="
  1186.87,1486.45 1186.87,47.2441 
  "/>
<polyline clip-path="url(#clip452)" style="stroke:#000000; stroke-width:2; stroke-opacity:0.1; fill:none" points="
  1622.54,1486.45 1622.54,47.2441 
  "/>
<polyline clip-path="url(#clip452)" style="stroke:#000000; stroke-width:2; stroke-opacity:0.1; fill:none" points="
  2058.22,1486.45 2058.22,47.2441 
  "/>
<polyline clip-path="url(#clip452)" style="stroke:#000000; stroke-width:2; stroke-opacity:0.1; fill:none" points="
  166.205,1445.72 2352.76,1445.72 
  "/>
<polyline clip-path="url(#clip452)" style="stroke:#000000; stroke-width:2; stroke-opacity:0.1; fill:none" points="
  166.205,1105 2352.76,1105 
  "/>
<polyline clip-path="url(#clip452)" style="stroke:#000000; stroke-width:2; stroke-opacity:0.1; fill:none" points="
  166.205,764.291 2352.76,764.291 
  "/>
<polyline clip-path="url(#clip452)" style="stroke:#000000; stroke-width:2; stroke-opacity:0.1; fill:none" points="
  166.205,423.578 2352.76,423.578 
  "/>
<polyline clip-path="url(#clip452)" style="stroke:#000000; stroke-width:2; stroke-opacity:0.1; fill:none" points="
  166.205,82.8656 2352.76,82.8656 
  "/>
<polyline clip-path="url(#clip450)" style="stroke:#000000; stroke-width:4; stroke-opacity:1; fill:none" points="
  166.205,1486.45 2352.76,1486.45 
  "/>
<polyline clip-path="url(#clip450)" style="stroke:#000000; stroke-width:4; stroke-opacity:1; fill:none" points="
  166.205,1486.45 166.205,47.2441 
  "/>
<polyline clip-path="url(#clip450)" style="stroke:#000000; stroke-width:4; stroke-opacity:1; fill:none" points="
  315.514,1486.45 315.514,1469.18 
  "/>
<polyline clip-path="url(#clip450)" style="stroke:#000000; stroke-width:4; stroke-opacity:1; fill:none" points="
  751.191,1486.45 751.191,1469.18 
  "/>
<polyline clip-path="url(#clip450)" style="stroke:#000000; stroke-width:4; stroke-opacity:1; fill:none" points="
  1186.87,1486.45 1186.87,1469.18 
  "/>
<polyline clip-path="url(#clip450)" style="stroke:#000000; stroke-width:4; stroke-opacity:1; fill:none" points="
  1622.54,1486.45 1622.54,1469.18 
  "/>
<polyline clip-path="url(#clip450)" style="stroke:#000000; stroke-width:4; stroke-opacity:1; fill:none" points="
  2058.22,1486.45 2058.22,1469.18 
  "/>
<polyline clip-path="url(#clip450)" style="stroke:#000000; stroke-width:4; stroke-opacity:1; fill:none" points="
  166.205,1445.72 192.443,1445.72 
  "/>
<polyline clip-path="url(#clip450)" style="stroke:#000000; stroke-width:4; stroke-opacity:1; fill:none" points="
  166.205,1105 192.443,1105 
  "/>
<polyline clip-path="url(#clip450)" style="stroke:#000000; stroke-width:4; stroke-opacity:1; fill:none" points="
  166.205,764.291 192.443,764.291 
  "/>
<polyline clip-path="url(#clip450)" style="stroke:#000000; stroke-width:4; stroke-opacity:1; fill:none" points="
  166.205,423.578 192.443,423.578 
  "/>
<polyline clip-path="url(#clip450)" style="stroke:#000000; stroke-width:4; stroke-opacity:1; fill:none" points="
  166.205,82.8656 192.443,82.8656 
  "/>
<path clip-path="url(#clip450)" d="M 0 0 M287.088 1523.09 L316.764 1523.09 L316.764 1527.03 L287.088 1527.03 L287.088 1523.09 Z" fill="#000000" fill-rule="evenodd" fill-opacity="1" /><path clip-path="url(#clip450)" d="M 0 0 M332.412 1520.78 Q329.264 1520.78 327.412 1522.93 Q325.583 1525.08 325.583 1528.83 Q325.583 1532.56 327.412 1534.73 Q329.264 1536.89 332.412 1536.89 Q335.56 1536.89 337.389 1534.73 Q339.241 1532.56 339.241 1528.83 Q339.241 1525.08 337.389 1522.93 Q335.56 1520.78 332.412 1520.78 M341.694 1506.12 L341.694 1510.38 Q339.935 1509.55 338.13 1509.11 Q336.347 1508.67 334.588 1508.67 Q329.958 1508.67 327.505 1511.8 Q325.074 1514.92 324.727 1521.24 Q326.093 1519.23 328.153 1518.16 Q330.213 1517.07 332.69 1517.07 Q337.898 1517.07 340.907 1520.24 Q343.94 1523.39 343.94 1528.83 Q343.94 1534.16 340.792 1537.37 Q337.644 1540.59 332.412 1540.59 Q326.417 1540.59 323.245 1536.01 Q320.074 1531.4 320.074 1522.67 Q320.074 1514.48 323.963 1509.62 Q327.852 1504.73 334.403 1504.73 Q336.162 1504.73 337.944 1505.08 Q339.75 1505.43 341.694 1506.12 Z" fill="#000000" fill-rule="evenodd" fill-opacity="1" /><path clip-path="url(#clip450)" d="M 0 0 M723.17 1523.09 L752.846 1523.09 L752.846 1527.03 L723.17 1527.03 L723.17 1523.09 Z" fill="#000000" fill-rule="evenodd" fill-opacity="1" /><path clip-path="url(#clip450)" d="M 0 0 M772.082 1521.29 Q775.438 1522 777.313 1524.27 Q779.211 1526.54 779.211 1529.87 Q779.211 1534.99 775.693 1537.79 Q772.174 1540.59 765.693 1540.59 Q763.517 1540.59 761.202 1540.15 Q758.911 1539.73 756.457 1538.88 L756.457 1534.36 Q758.401 1535.5 760.716 1536.08 Q763.031 1536.66 765.554 1536.66 Q769.952 1536.66 772.244 1534.92 Q774.559 1533.18 774.559 1529.87 Q774.559 1526.82 772.406 1525.11 Q770.276 1523.37 766.457 1523.37 L762.429 1523.37 L762.429 1519.53 L766.642 1519.53 Q770.091 1519.53 771.92 1518.16 Q773.748 1516.77 773.748 1514.18 Q773.748 1511.52 771.85 1510.11 Q769.975 1508.67 766.457 1508.67 Q764.536 1508.67 762.337 1509.09 Q760.137 1509.5 757.499 1510.38 L757.499 1506.22 Q760.161 1505.48 762.475 1505.11 Q764.813 1504.73 766.874 1504.73 Q772.198 1504.73 775.299 1507.17 Q778.401 1509.57 778.401 1513.69 Q778.401 1516.56 776.758 1518.55 Q775.114 1520.52 772.082 1521.29 Z" fill="#000000" fill-rule="evenodd" fill-opacity="1" /><path clip-path="url(#clip450)" d="M 0 0 M1186.87 1508.44 Q1183.26 1508.44 1181.43 1512 Q1179.62 1515.55 1179.62 1522.67 Q1179.62 1529.78 1181.43 1533.35 Q1183.26 1536.89 1186.87 1536.89 Q1190.5 1536.89 1192.31 1533.35 Q1194.14 1529.78 1194.14 1522.67 Q1194.14 1515.55 1192.31 1512 Q1190.5 1508.44 1186.87 1508.44 M1186.87 1504.73 Q1192.68 1504.73 1195.73 1509.34 Q1198.81 1513.92 1198.81 1522.67 Q1198.81 1531.4 1195.73 1536.01 Q1192.68 1540.59 1186.87 1540.59 Q1181.06 1540.59 1177.98 1536.01 Q1174.92 1531.4 1174.92 1522.67 Q1174.92 1513.92 1177.98 1509.34 Q1181.06 1504.73 1186.87 1504.73 Z" fill="#000000" fill-rule="evenodd" fill-opacity="1" /><path clip-path="url(#clip450)" d="M 0 0 M1626.79 1521.29 Q1630.15 1522 1632.02 1524.27 Q1633.92 1526.54 1633.92 1529.87 Q1633.92 1534.99 1630.4 1537.79 Q1626.88 1540.59 1620.4 1540.59 Q1618.23 1540.59 1615.91 1540.15 Q1613.62 1539.73 1611.17 1538.88 L1611.17 1534.36 Q1613.11 1535.5 1615.43 1536.08 Q1617.74 1536.66 1620.26 1536.66 Q1624.66 1536.66 1626.95 1534.92 Q1629.27 1533.18 1629.27 1529.87 Q1629.27 1526.82 1627.12 1525.11 Q1624.99 1523.37 1621.17 1523.37 L1617.14 1523.37 L1617.14 1519.53 L1621.35 1519.53 Q1624.8 1519.53 1626.63 1518.16 Q1628.46 1516.77 1628.46 1514.18 Q1628.46 1511.52 1626.56 1510.11 Q1624.69 1508.67 1621.17 1508.67 Q1619.25 1508.67 1617.05 1509.09 Q1614.85 1509.5 1612.21 1510.38 L1612.21 1506.22 Q1614.87 1505.48 1617.19 1505.11 Q1619.52 1504.73 1621.58 1504.73 Q1626.91 1504.73 1630.01 1507.17 Q1633.11 1509.57 1633.11 1513.69 Q1633.11 1516.56 1631.47 1518.55 Q1629.82 1520.52 1626.79 1521.29 Z" fill="#000000" fill-rule="evenodd" fill-opacity="1" /><path clip-path="url(#clip450)" d="M 0 0 M2058.63 1520.78 Q2055.48 1520.78 2053.63 1522.93 Q2051.8 1525.08 2051.8 1528.83 Q2051.8 1532.56 2053.63 1534.73 Q2055.48 1536.89 2058.63 1536.89 Q2061.77 1536.89 2063.6 1534.73 Q2065.45 1532.56 2065.45 1528.83 Q2065.45 1525.08 2063.6 1522.93 Q2061.77 1520.78 2058.63 1520.78 M2067.91 1506.12 L2067.91 1510.38 Q2066.15 1509.55 2064.34 1509.11 Q2062.56 1508.67 2060.8 1508.67 Q2056.17 1508.67 2053.72 1511.8 Q2051.29 1514.92 2050.94 1521.24 Q2052.31 1519.23 2054.37 1518.16 Q2056.43 1517.07 2058.9 1517.07 Q2064.11 1517.07 2067.12 1520.24 Q2070.15 1523.39 2070.15 1528.83 Q2070.15 1534.16 2067.01 1537.37 Q2063.86 1540.59 2058.63 1540.59 Q2052.63 1540.59 2049.46 1536.01 Q2046.29 1531.4 2046.29 1522.67 Q2046.29 1514.48 2050.18 1509.62 Q2054.07 1504.73 2060.62 1504.73 Q2062.38 1504.73 2064.16 1505.08 Q2065.96 1505.43 2067.91 1506.12 Z" fill="#000000" fill-rule="evenodd" fill-opacity="1" /><path clip-path="url(#clip450)" d="M 0 0 M130.26 1431.51 Q126.649 1431.51 124.82 1435.08 Q123.015 1438.62 123.015 1445.75 Q123.015 1452.86 124.82 1456.42 Q126.649 1459.96 130.26 1459.96 Q133.895 1459.96 135.7 1456.42 Q137.529 1452.86 137.529 1445.75 Q137.529 1438.62 135.7 1435.08 Q133.895 1431.51 130.26 1431.51 M130.26 1427.81 Q136.07 1427.81 139.126 1432.42 Q142.205 1437 142.205 1445.75 Q142.205 1454.48 139.126 1459.08 Q136.07 1463.67 130.26 1463.67 Q124.45 1463.67 121.371 1459.08 Q118.316 1454.48 118.316 1445.75 Q118.316 1437 121.371 1432.42 Q124.45 1427.81 130.26 1427.81 Z" fill="#000000" fill-rule="evenodd" fill-opacity="1" /><path clip-path="url(#clip450)" d="M 0 0 M71.8578 1118.35 L88.1772 1118.35 L88.1772 1122.28 L66.2328 1122.28 L66.2328 1118.35 Q68.8949 1115.59 73.4782 1110.96 Q78.0846 1106.31 79.2652 1104.97 Q81.5105 1102.45 82.3902 1100.71 Q83.2929 1098.95 83.2929 1097.26 Q83.2929 1094.51 81.3485 1092.77 Q79.4272 1091.03 76.3254 1091.03 Q74.1263 1091.03 71.6726 1091.8 Q69.2421 1092.56 66.4643 1094.11 L66.4643 1089.39 Q69.2884 1088.26 71.7421 1087.68 Q74.1958 1087.1 76.2328 1087.1 Q81.6031 1087.1 84.7976 1089.78 Q87.992 1092.47 87.992 1096.96 Q87.992 1099.09 87.1818 1101.01 Q86.3948 1102.91 84.2883 1105.5 Q83.7096 1106.17 80.6078 1109.39 Q77.5059 1112.58 71.8578 1118.35 Z" fill="#000000" fill-rule="evenodd" fill-opacity="1" /><path clip-path="url(#clip450)" d="M 0 0 M103.247 1090.8 Q99.6354 1090.8 97.8068 1094.37 Q96.0012 1097.91 96.0012 1105.04 Q96.0012 1112.14 97.8068 1115.71 Q99.6354 1119.25 103.247 1119.25 Q106.881 1119.25 108.686 1115.71 Q110.515 1112.14 110.515 1105.04 Q110.515 1097.91 108.686 1094.37 Q106.881 1090.8 103.247 1090.8 M103.247 1087.1 Q109.057 1087.1 112.112 1091.7 Q115.191 1096.29 115.191 1105.04 Q115.191 1113.76 112.112 1118.37 Q109.057 1122.95 103.247 1122.95 Q97.4364 1122.95 94.3577 1118.37 Q91.3022 1113.76 91.3022 1105.04 Q91.3022 1096.29 94.3577 1091.7 Q97.4364 1087.1 103.247 1087.1 Z" fill="#000000" fill-rule="evenodd" fill-opacity="1" /><path clip-path="url(#clip450)" d="M 0 0 M130.26 1090.8 Q126.649 1090.8 124.82 1094.37 Q123.015 1097.91 123.015 1105.04 Q123.015 1112.14 124.82 1115.71 Q126.649 1119.25 130.26 1119.25 Q133.895 1119.25 135.7 1115.71 Q137.529 1112.14 137.529 1105.04 Q137.529 1097.91 135.7 1094.37 Q133.895 1090.8 130.26 1090.8 M130.26 1087.1 Q136.07 1087.1 139.126 1091.7 Q142.205 1096.29 142.205 1105.04 Q142.205 1113.76 139.126 1118.37 Q136.07 1122.95 130.26 1122.95 Q124.45 1122.95 121.371 1118.37 Q118.316 1113.76 118.316 1105.04 Q118.316 1096.29 121.371 1091.7 Q124.45 1087.1 130.26 1087.1 Z" fill="#000000" fill-rule="evenodd" fill-opacity="1" /><path clip-path="url(#clip450)" d="M 0 0 M78.5939 751.085 L66.7884 769.534 L78.5939 769.534 L78.5939 751.085 M77.367 747.011 L83.2466 747.011 L83.2466 769.534 L88.1772 769.534 L88.1772 773.423 L83.2466 773.423 L83.2466 781.571 L78.5939 781.571 L78.5939 773.423 L62.9921 773.423 L62.9921 768.909 L77.367 747.011 Z" fill="#000000" fill-rule="evenodd" fill-opacity="1" /><path clip-path="url(#clip450)" d="M 0 0 M103.247 750.089 Q99.6354 750.089 97.8068 753.654 Q96.0012 757.196 96.0012 764.325 Q96.0012 771.432 97.8068 774.997 Q99.6354 778.538 103.247 778.538 Q106.881 778.538 108.686 774.997 Q110.515 771.432 110.515 764.325 Q110.515 757.196 108.686 753.654 Q106.881 750.089 103.247 750.089 M103.247 746.386 Q109.057 746.386 112.112 750.992 Q115.191 755.575 115.191 764.325 Q115.191 773.052 112.112 777.659 Q109.057 782.242 103.247 782.242 Q97.4364 782.242 94.3577 777.659 Q91.3022 773.052 91.3022 764.325 Q91.3022 755.575 94.3577 750.992 Q97.4364 746.386 103.247 746.386 Z" fill="#000000" fill-rule="evenodd" fill-opacity="1" /><path clip-path="url(#clip450)" d="M 0 0 M130.26 750.089 Q126.649 750.089 124.82 753.654 Q123.015 757.196 123.015 764.325 Q123.015 771.432 124.82 774.997 Q126.649 778.538 130.26 778.538 Q133.895 778.538 135.7 774.997 Q137.529 771.432 137.529 764.325 Q137.529 757.196 135.7 753.654 Q133.895 750.089 130.26 750.089 M130.26 746.386 Q136.07 746.386 139.126 750.992 Q142.205 755.575 142.205 764.325 Q142.205 773.052 139.126 777.659 Q136.07 782.242 130.26 782.242 Q124.45 782.242 121.371 777.659 Q118.316 773.052 118.316 764.325 Q118.316 755.575 121.371 750.992 Q124.45 746.386 130.26 746.386 Z" fill="#000000" fill-rule="evenodd" fill-opacity="1" /><path clip-path="url(#clip450)" d="M 0 0 M76.6495 421.715 Q73.5013 421.715 71.6495 423.867 Q69.8208 426.02 69.8208 429.77 Q69.8208 433.497 71.6495 435.673 Q73.5013 437.826 76.6495 437.826 Q79.7976 437.826 81.6263 435.673 Q83.4781 433.497 83.4781 429.77 Q83.4781 426.02 81.6263 423.867 Q79.7976 421.715 76.6495 421.715 M85.9318 407.062 L85.9318 411.321 Q84.1726 410.488 82.367 410.048 Q80.5846 409.608 78.8254 409.608 Q74.1958 409.608 71.7421 412.733 Q69.3115 415.858 68.9643 422.178 Q70.33 420.164 72.3902 419.099 Q74.4504 418.011 76.9272 418.011 Q82.1355 418.011 85.1448 421.182 Q88.1772 424.33 88.1772 429.77 Q88.1772 435.094 85.029 438.312 Q81.8809 441.529 76.6495 441.529 Q70.6541 441.529 67.4828 436.946 Q64.3116 432.34 64.3116 423.613 Q64.3116 415.418 68.2004 410.557 Q72.0893 405.673 78.6402 405.673 Q80.3994 405.673 82.1818 406.02 Q83.9874 406.368 85.9318 407.062 Z" fill="#000000" fill-rule="evenodd" fill-opacity="1" /><path clip-path="url(#clip450)" d="M 0 0 M103.247 409.377 Q99.6354 409.377 97.8068 412.942 Q96.0012 416.483 96.0012 423.613 Q96.0012 430.719 97.8068 434.284 Q99.6354 437.826 103.247 437.826 Q106.881 437.826 108.686 434.284 Q110.515 430.719 110.515 423.613 Q110.515 416.483 108.686 412.942 Q106.881 409.377 103.247 409.377 M103.247 405.673 Q109.057 405.673 112.112 410.28 Q115.191 414.863 115.191 423.613 Q115.191 432.34 112.112 436.946 Q109.057 441.529 103.247 441.529 Q97.4364 441.529 94.3577 436.946 Q91.3022 432.34 91.3022 423.613 Q91.3022 414.863 94.3577 410.28 Q97.4364 405.673 103.247 405.673 Z" fill="#000000" fill-rule="evenodd" fill-opacity="1" /><path clip-path="url(#clip450)" d="M 0 0 M130.26 409.377 Q126.649 409.377 124.82 412.942 Q123.015 416.483 123.015 423.613 Q123.015 430.719 124.82 434.284 Q126.649 437.826 130.26 437.826 Q133.895 437.826 135.7 434.284 Q137.529 430.719 137.529 423.613 Q137.529 416.483 135.7 412.942 Q133.895 409.377 130.26 409.377 M130.26 405.673 Q136.07 405.673 139.126 410.28 Q142.205 414.863 142.205 423.613 Q142.205 432.34 139.126 436.946 Q136.07 441.529 130.26 441.529 Q124.45 441.529 121.371 436.946 Q118.316 432.34 118.316 423.613 Q118.316 414.863 121.371 410.28 Q124.45 405.673 130.26 405.673 Z" fill="#000000" fill-rule="evenodd" fill-opacity="1" /><path clip-path="url(#clip450)" d="M 0 0 M76.3254 83.7336 Q72.9921 83.7336 71.0708 85.516 Q69.1726 87.2984 69.1726 90.4234 Q69.1726 93.5484 71.0708 95.3308 Q72.9921 97.1132 76.3254 97.1132 Q79.6587 97.1132 81.58 95.3308 Q83.5013 93.5253 83.5013 90.4234 Q83.5013 87.2984 81.58 85.516 Q79.6819 83.7336 76.3254 83.7336 M71.6495 81.7429 Q68.6402 81.0022 66.9504 78.942 Q65.2838 76.8818 65.2838 73.9189 Q65.2838 69.7754 68.2236 67.368 Q71.1865 64.9606 76.3254 64.9606 Q81.4874 64.9606 84.4272 67.368 Q87.367 69.7754 87.367 73.9189 Q87.367 76.8818 85.6772 78.942 Q84.0105 81.0022 81.0244 81.7429 Q84.404 82.5299 86.279 84.8216 Q88.1772 87.1133 88.1772 90.4234 Q88.1772 95.4465 85.0985 98.1317 Q82.0429 100.817 76.3254 100.817 Q70.6078 100.817 67.5291 98.1317 Q64.4736 95.4465 64.4736 90.4234 Q64.4736 87.1133 66.3717 84.8216 Q68.2699 82.5299 71.6495 81.7429 M69.9365 74.3587 Q69.9365 77.0439 71.6032 78.5485 Q73.293 80.0531 76.3254 80.0531 Q79.3346 80.0531 81.0244 78.5485 Q82.7374 77.0439 82.7374 74.3587 Q82.7374 71.6735 81.0244 70.1689 Q79.3346 68.6643 76.3254 68.6643 Q73.293 68.6643 71.6032 70.1689 Q69.9365 71.6735 69.9365 74.3587 Z" fill="#000000" fill-rule="evenodd" fill-opacity="1" /><path clip-path="url(#clip450)" d="M 0 0 M103.247 68.6643 Q99.6354 68.6643 97.8068 72.2291 Q96.0012 75.7707 96.0012 82.9003 Q96.0012 90.0068 97.8068 93.5716 Q99.6354 97.1132 103.247 97.1132 Q106.881 97.1132 108.686 93.5716 Q110.515 90.0068 110.515 82.9003 Q110.515 75.7707 108.686 72.2291 Q106.881 68.6643 103.247 68.6643 M103.247 64.9606 Q109.057 64.9606 112.112 69.567 Q115.191 74.1504 115.191 82.9003 Q115.191 91.6271 112.112 96.2336 Q109.057 100.817 103.247 100.817 Q97.4364 100.817 94.3577 96.2336 Q91.3022 91.6271 91.3022 82.9003 Q91.3022 74.1504 94.3577 69.567 Q97.4364 64.9606 103.247 64.9606 Z" fill="#000000" fill-rule="evenodd" fill-opacity="1" /><path clip-path="url(#clip450)" d="M 0 0 M130.26 68.6643 Q126.649 68.6643 124.82 72.2291 Q123.015 75.7707 123.015 82.9003 Q123.015 90.0068 124.82 93.5716 Q126.649 97.1132 130.26 97.1132 Q133.895 97.1132 135.7 93.5716 Q137.529 90.0068 137.529 82.9003 Q137.529 75.7707 135.7 72.2291 Q133.895 68.6643 130.26 68.6643 M130.26 64.9606 Q136.07 64.9606 139.126 69.567 Q142.205 74.1504 142.205 82.9003 Q142.205 91.6271 139.126 96.2336 Q136.07 100.817 130.26 100.817 Q124.45 100.817 121.371 96.2336 Q118.316 91.6271 118.316 82.9003 Q118.316 74.1504 121.371 69.567 Q124.45 64.9606 130.26 64.9606 Z" fill="#000000" fill-rule="evenodd" fill-opacity="1" /><path clip-path="url(#clip452)" d="
M286.469 1442.31 L286.469 1445.72 L315.514 1445.72 L315.514 1442.31 L286.469 1442.31 L286.469 1442.31  Z
  " fill="#009af9" fill-rule="evenodd" fill-opacity="1"/>
<polyline clip-path="url(#clip452)" style="stroke:#000000; stroke-width:4; stroke-opacity:1; fill:none" points="
  286.469,1442.31 286.469,1445.72 315.514,1445.72 315.514,1442.31 286.469,1442.31 
  "/>
<path clip-path="url(#clip452)" d="
M315.514 1445.72 L315.514 1445.72 L344.559 1445.72 L344.559 1445.72 L315.514 1445.72 L315.514 1445.72  Z
  " fill="#009af9" fill-rule="evenodd" fill-opacity="1"/>
<polyline clip-path="url(#clip452)" style="stroke:#000000; stroke-width:4; stroke-opacity:1; fill:none" points="
  315.514,1445.72 315.514,1445.72 344.559,1445.72 315.514,1445.72 
  "/>
<path clip-path="url(#clip452)" d="
M344.559 1444.01 L344.559 1445.72 L373.604 1445.72 L373.604 1444.01 L344.559 1444.01 L344.559 1444.01  Z
  " fill="#009af9" fill-rule="evenodd" fill-opacity="1"/>
<polyline clip-path="url(#clip452)" style="stroke:#000000; stroke-width:4; stroke-opacity:1; fill:none" points="
  344.559,1444.01 344.559,1445.72 373.604,1445.72 373.604,1444.01 344.559,1444.01 
  "/>
<path clip-path="url(#clip452)" d="
M373.604 1444.01 L373.604 1445.72 L402.649 1445.72 L402.649 1444.01 L373.604 1444.01 L373.604 1444.01  Z
  " fill="#009af9" fill-rule="evenodd" fill-opacity="1"/>
<polyline clip-path="url(#clip452)" style="stroke:#000000; stroke-width:4; stroke-opacity:1; fill:none" points="
  373.604,1444.01 373.604,1445.72 402.649,1445.72 402.649,1444.01 373.604,1444.01 
  "/>
<path clip-path="url(#clip452)" d="
M402.649 1438.9 L402.649 1445.72 L431.694 1445.72 L431.694 1438.9 L402.649 1438.9 L402.649 1438.9  Z
  " fill="#009af9" fill-rule="evenodd" fill-opacity="1"/>
<polyline clip-path="url(#clip452)" style="stroke:#000000; stroke-width:4; stroke-opacity:1; fill:none" points="
  402.649,1438.9 402.649,1445.72 431.694,1445.72 431.694,1438.9 402.649,1438.9 
  "/>
<path clip-path="url(#clip452)" d="
M431.694 1440.61 L431.694 1445.72 L460.74 1445.72 L460.74 1440.61 L431.694 1440.61 L431.694 1440.61  Z
  " fill="#009af9" fill-rule="evenodd" fill-opacity="1"/>
<polyline clip-path="url(#clip452)" style="stroke:#000000; stroke-width:4; stroke-opacity:1; fill:none" points="
  431.694,1440.61 431.694,1445.72 460.74,1445.72 460.74,1440.61 431.694,1440.61 
  "/>
<path clip-path="url(#clip452)" d="
M460.74 1428.68 L460.74 1445.72 L489.785 1445.72 L489.785 1428.68 L460.74 1428.68 L460.74 1428.68  Z
  " fill="#009af9" fill-rule="evenodd" fill-opacity="1"/>
<polyline clip-path="url(#clip452)" style="stroke:#000000; stroke-width:4; stroke-opacity:1; fill:none" points="
  460.74,1428.68 460.74,1445.72 489.785,1445.72 489.785,1428.68 460.74,1428.68 
  "/>
<path clip-path="url(#clip452)" d="
M489.785 1428.68 L489.785 1445.72 L518.83 1445.72 L518.83 1428.68 L489.785 1428.68 L489.785 1428.68  Z
  " fill="#009af9" fill-rule="evenodd" fill-opacity="1"/>
<polyline clip-path="url(#clip452)" style="stroke:#000000; stroke-width:4; stroke-opacity:1; fill:none" points="
  489.785,1428.68 489.785,1445.72 518.83,1445.72 518.83,1428.68 489.785,1428.68 
  "/>
<path clip-path="url(#clip452)" d="
M518.83 1430.38 L518.83 1445.72 L547.875 1445.72 L547.875 1430.38 L518.83 1430.38 L518.83 1430.38  Z
  " fill="#009af9" fill-rule="evenodd" fill-opacity="1"/>
<polyline clip-path="url(#clip452)" style="stroke:#000000; stroke-width:4; stroke-opacity:1; fill:none" points="
  518.83,1430.38 518.83,1445.72 547.875,1445.72 547.875,1430.38 518.83,1430.38 
  "/>
<path clip-path="url(#clip452)" d="
M547.875 1420.16 L547.875 1445.72 L576.92 1445.72 L576.92 1420.16 L547.875 1420.16 L547.875 1420.16  Z
  " fill="#009af9" fill-rule="evenodd" fill-opacity="1"/>
<polyline clip-path="url(#clip452)" style="stroke:#000000; stroke-width:4; stroke-opacity:1; fill:none" points="
  547.875,1420.16 547.875,1445.72 576.92,1445.72 576.92,1420.16 547.875,1420.16 
  "/>
<path clip-path="url(#clip452)" d="
M576.92 1425.27 L576.92 1445.72 L605.965 1445.72 L605.965 1425.27 L576.92 1425.27 L576.92 1425.27  Z
  " fill="#009af9" fill-rule="evenodd" fill-opacity="1"/>
<polyline clip-path="url(#clip452)" style="stroke:#000000; stroke-width:4; stroke-opacity:1; fill:none" points="
  576.92,1425.27 576.92,1445.72 605.965,1445.72 605.965,1425.27 576.92,1425.27 
  "/>
<path clip-path="url(#clip452)" d="
M605.965 1408.24 L605.965 1445.72 L635.01 1445.72 L635.01 1408.24 L605.965 1408.24 L605.965 1408.24  Z
  " fill="#009af9" fill-rule="evenodd" fill-opacity="1"/>
<polyline clip-path="url(#clip452)" style="stroke:#000000; stroke-width:4; stroke-opacity:1; fill:none" points="
  605.965,1408.24 605.965,1445.72 635.01,1445.72 635.01,1408.24 605.965,1408.24 
  "/>
<path clip-path="url(#clip452)" d="
M635.01 1426.98 L635.01 1445.72 L664.055 1445.72 L664.055 1426.98 L635.01 1426.98 L635.01 1426.98  Z
  " fill="#009af9" fill-rule="evenodd" fill-opacity="1"/>
<polyline clip-path="url(#clip452)" style="stroke:#000000; stroke-width:4; stroke-opacity:1; fill:none" points="
  635.01,1426.98 635.01,1445.72 664.055,1445.72 664.055,1426.98 635.01,1426.98 
  "/>
<path clip-path="url(#clip452)" d="
M664.055 1409.94 L664.055 1445.72 L693.101 1445.72 L693.101 1409.94 L664.055 1409.94 L664.055 1409.94  Z
  " fill="#009af9" fill-rule="evenodd" fill-opacity="1"/>
<polyline clip-path="url(#clip452)" style="stroke:#000000; stroke-width:4; stroke-opacity:1; fill:none" points="
  664.055,1409.94 664.055,1445.72 693.101,1445.72 693.101,1409.94 664.055,1409.94 
  "/>
<path clip-path="url(#clip452)" d="
M693.101 1401.42 L693.101 1445.72 L722.146 1445.72 L722.146 1401.42 L693.101 1401.42 L693.101 1401.42  Z
  " fill="#009af9" fill-rule="evenodd" fill-opacity="1"/>
<polyline clip-path="url(#clip452)" style="stroke:#000000; stroke-width:4; stroke-opacity:1; fill:none" points="
  693.101,1401.42 693.101,1445.72 722.146,1445.72 722.146,1401.42 693.101,1401.42 
  "/>
<path clip-path="url(#clip452)" d="
M722.146 1372.46 L722.146 1445.72 L751.191 1445.72 L751.191 1372.46 L722.146 1372.46 L722.146 1372.46  Z
  " fill="#009af9" fill-rule="evenodd" fill-opacity="1"/>
<polyline clip-path="url(#clip452)" style="stroke:#000000; stroke-width:4; stroke-opacity:1; fill:none" points="
  722.146,1372.46 722.146,1445.72 751.191,1445.72 751.191,1372.46 722.146,1372.46 
  "/>
<path clip-path="url(#clip452)" d="
M751.191 1384.39 L751.191 1445.72 L780.236 1445.72 L780.236 1384.39 L751.191 1384.39 L751.191 1384.39  Z
  " fill="#009af9" fill-rule="evenodd" fill-opacity="1"/>
<polyline clip-path="url(#clip452)" style="stroke:#000000; stroke-width:4; stroke-opacity:1; fill:none" points="
  751.191,1384.39 751.191,1445.72 780.236,1445.72 780.236,1384.39 751.191,1384.39 
  "/>
<path clip-path="url(#clip452)" d="
M780.236 1370.76 L780.236 1445.72 L809.281 1445.72 L809.281 1370.76 L780.236 1370.76 L780.236 1370.76  Z
  " fill="#009af9" fill-rule="evenodd" fill-opacity="1"/>
<polyline clip-path="url(#clip452)" style="stroke:#000000; stroke-width:4; stroke-opacity:1; fill:none" points="
  780.236,1370.76 780.236,1445.72 809.281,1445.72 809.281,1370.76 780.236,1370.76 
  "/>
<path clip-path="url(#clip452)" d="
M809.281 1353.72 L809.281 1445.72 L838.326 1445.72 L838.326 1353.72 L809.281 1353.72 L809.281 1353.72  Z
  " fill="#009af9" fill-rule="evenodd" fill-opacity="1"/>
<polyline clip-path="url(#clip452)" style="stroke:#000000; stroke-width:4; stroke-opacity:1; fill:none" points="
  809.281,1353.72 809.281,1445.72 838.326,1445.72 838.326,1353.72 809.281,1353.72 
  "/>
<path clip-path="url(#clip452)" d="
M838.326 1333.28 L838.326 1445.72 L867.371 1445.72 L867.371 1333.28 L838.326 1333.28 L838.326 1333.28  Z
  " fill="#009af9" fill-rule="evenodd" fill-opacity="1"/>
<polyline clip-path="url(#clip452)" style="stroke:#000000; stroke-width:4; stroke-opacity:1; fill:none" points="
  838.326,1333.28 838.326,1445.72 867.371,1445.72 867.371,1333.28 838.326,1333.28 
  "/>
<path clip-path="url(#clip452)" d="
M867.371 1336.69 L867.371 1445.72 L896.416 1445.72 L896.416 1336.69 L867.371 1336.69 L867.371 1336.69  Z
  " fill="#009af9" fill-rule="evenodd" fill-opacity="1"/>
<polyline clip-path="url(#clip452)" style="stroke:#000000; stroke-width:4; stroke-opacity:1; fill:none" points="
  867.371,1336.69 867.371,1445.72 896.416,1445.72 896.416,1336.69 867.371,1336.69 
  "/>
<path clip-path="url(#clip452)" d="
M896.416 1277.06 L896.416 1445.72 L925.461 1445.72 L925.461 1277.06 L896.416 1277.06 L896.416 1277.06  Z
  " fill="#009af9" fill-rule="evenodd" fill-opacity="1"/>
<polyline clip-path="url(#clip452)" style="stroke:#000000; stroke-width:4; stroke-opacity:1; fill:none" points="
  896.416,1277.06 896.416,1445.72 925.461,1445.72 925.461,1277.06 896.416,1277.06 
  "/>
<path clip-path="url(#clip452)" d="
M925.461 1283.88 L925.461 1445.72 L954.507 1445.72 L954.507 1283.88 L925.461 1283.88 L925.461 1283.88  Z
  " fill="#009af9" fill-rule="evenodd" fill-opacity="1"/>
<polyline clip-path="url(#clip452)" style="stroke:#000000; stroke-width:4; stroke-opacity:1; fill:none" points="
  925.461,1283.88 925.461,1445.72 954.507,1445.72 954.507,1283.88 925.461,1283.88 
  "/>
<path clip-path="url(#clip452)" d="
M954.507 1312.84 L954.507 1445.72 L983.552 1445.72 L983.552 1312.84 L954.507 1312.84 L954.507 1312.84  Z
  " fill="#009af9" fill-rule="evenodd" fill-opacity="1"/>
<polyline clip-path="url(#clip452)" style="stroke:#000000; stroke-width:4; stroke-opacity:1; fill:none" points="
  954.507,1312.84 954.507,1445.72 983.552,1445.72 983.552,1312.84 954.507,1312.84 
  "/>
<path clip-path="url(#clip452)" d="
M983.552 1254.92 L983.552 1445.72 L1012.6 1445.72 L1012.6 1254.92 L983.552 1254.92 L983.552 1254.92  Z
  " fill="#009af9" fill-rule="evenodd" fill-opacity="1"/>
<polyline clip-path="url(#clip452)" style="stroke:#000000; stroke-width:4; stroke-opacity:1; fill:none" points="
  983.552,1254.92 983.552,1445.72 1012.6,1445.72 1012.6,1254.92 983.552,1254.92 
  "/>
<path clip-path="url(#clip452)" d="
M1012.6 1288.99 L1012.6 1445.72 L1041.64 1445.72 L1041.64 1288.99 L1012.6 1288.99 L1012.6 1288.99  Z
  " fill="#009af9" fill-rule="evenodd" fill-opacity="1"/>
<polyline clip-path="url(#clip452)" style="stroke:#000000; stroke-width:4; stroke-opacity:1; fill:none" points="
  1012.6,1288.99 1012.6,1445.72 1041.64,1445.72 1041.64,1288.99 1012.6,1288.99 
  "/>
<path clip-path="url(#clip452)" d="
M1041.64 1241.29 L1041.64 1445.72 L1070.69 1445.72 L1070.69 1241.29 L1041.64 1241.29 L1041.64 1241.29  Z
  " fill="#009af9" fill-rule="evenodd" fill-opacity="1"/>
<polyline clip-path="url(#clip452)" style="stroke:#000000; stroke-width:4; stroke-opacity:1; fill:none" points="
  1041.64,1241.29 1041.64,1445.72 1070.69,1445.72 1070.69,1241.29 1041.64,1241.29 
  "/>
<path clip-path="url(#clip452)" d="
M1070.69 1277.06 L1070.69 1445.72 L1099.73 1445.72 L1099.73 1277.06 L1070.69 1277.06 L1070.69 1277.06  Z
  " fill="#009af9" fill-rule="evenodd" fill-opacity="1"/>
<polyline clip-path="url(#clip452)" style="stroke:#000000; stroke-width:4; stroke-opacity:1; fill:none" points="
  1070.69,1277.06 1070.69,1445.72 1099.73,1445.72 1099.73,1277.06 1070.69,1277.06 
  "/>
<path clip-path="url(#clip452)" d="
M1099.73 1268.55 L1099.73 1445.72 L1128.78 1445.72 L1128.78 1268.55 L1099.73 1268.55 L1099.73 1268.55  Z
  " fill="#009af9" fill-rule="evenodd" fill-opacity="1"/>
<polyline clip-path="url(#clip452)" style="stroke:#000000; stroke-width:4; stroke-opacity:1; fill:none" points="
  1099.73,1268.55 1099.73,1445.72 1128.78,1445.72 1128.78,1268.55 1099.73,1268.55 
  "/>
<path clip-path="url(#clip452)" d="
M1128.78 1232.77 L1128.78 1445.72 L1157.82 1445.72 L1157.82 1232.77 L1128.78 1232.77 L1128.78 1232.77  Z
  " fill="#009af9" fill-rule="evenodd" fill-opacity="1"/>
<polyline clip-path="url(#clip452)" style="stroke:#000000; stroke-width:4; stroke-opacity:1; fill:none" points="
  1128.78,1232.77 1128.78,1445.72 1157.82,1445.72 1157.82,1232.77 1128.78,1232.77 
  "/>
<path clip-path="url(#clip452)" d="
M1157.82 1227.66 L1157.82 1445.72 L1186.87 1445.72 L1186.87 1227.66 L1157.82 1227.66 L1157.82 1227.66  Z
  " fill="#009af9" fill-rule="evenodd" fill-opacity="1"/>
<polyline clip-path="url(#clip452)" style="stroke:#000000; stroke-width:4; stroke-opacity:1; fill:none" points="
  1157.82,1227.66 1157.82,1445.72 1186.87,1445.72 1186.87,1227.66 1157.82,1227.66 
  "/>
<path clip-path="url(#clip452)" d="
M1186.87 1227.66 L1186.87 1445.72 L1215.91 1445.72 L1215.91 1227.66 L1186.87 1227.66 L1186.87 1227.66  Z
  " fill="#009af9" fill-rule="evenodd" fill-opacity="1"/>
<polyline clip-path="url(#clip452)" style="stroke:#000000; stroke-width:4; stroke-opacity:1; fill:none" points="
  1186.87,1227.66 1186.87,1445.72 1215.91,1445.72 1215.91,1227.66 1186.87,1227.66 
  "/>
<path clip-path="url(#clip452)" d="
M1215.91 1236.18 L1215.91 1445.72 L1244.96 1445.72 L1244.96 1236.18 L1215.91 1236.18 L1215.91 1236.18  Z
  " fill="#009af9" fill-rule="evenodd" fill-opacity="1"/>
<polyline clip-path="url(#clip452)" style="stroke:#000000; stroke-width:4; stroke-opacity:1; fill:none" points="
  1215.91,1236.18 1215.91,1445.72 1244.96,1445.72 1244.96,1236.18 1215.91,1236.18 
  "/>
<path clip-path="url(#clip452)" d="
M1244.96 1185.07 L1244.96 1445.72 L1274 1445.72 L1274 1185.07 L1244.96 1185.07 L1244.96 1185.07  Z
  " fill="#009af9" fill-rule="evenodd" fill-opacity="1"/>
<polyline clip-path="url(#clip452)" style="stroke:#000000; stroke-width:4; stroke-opacity:1; fill:none" points="
  1244.96,1185.07 1244.96,1445.72 1274,1445.72 1274,1185.07 1244.96,1185.07 
  "/>
<path clip-path="url(#clip452)" d="
M1274 806.88 L1274 1445.72 L1303.05 1445.72 L1303.05 806.88 L1274 806.88 L1274 806.88  Z
  " fill="#009af9" fill-rule="evenodd" fill-opacity="1"/>
<polyline clip-path="url(#clip452)" style="stroke:#000000; stroke-width:4; stroke-opacity:1; fill:none" points="
  1274,806.88 1274,1445.72 1303.05,1445.72 1303.05,806.88 1274,806.88 
  "/>
<path clip-path="url(#clip452)" d="
M1303.05 130.565 L1303.05 1445.72 L1332.09 1445.72 L1332.09 130.565 L1303.05 130.565 L1303.05 130.565  Z
  " fill="#009af9" fill-rule="evenodd" fill-opacity="1"/>
<polyline clip-path="url(#clip452)" style="stroke:#000000; stroke-width:4; stroke-opacity:1; fill:none" points="
  1303.05,130.565 1303.05,1445.72 1332.09,1445.72 1332.09,130.565 1303.05,130.565 
  "/>
<path clip-path="url(#clip452)" d="
M1332.09 87.9763 L1332.09 1445.72 L1361.14 1445.72 L1361.14 87.9763 L1332.09 87.9763 L1332.09 87.9763  Z
  " fill="#009af9" fill-rule="evenodd" fill-opacity="1"/>
<polyline clip-path="url(#clip452)" style="stroke:#000000; stroke-width:4; stroke-opacity:1; fill:none" points="
  1332.09,87.9763 1332.09,1445.72 1361.14,1445.72 1361.14,87.9763 1332.09,87.9763 
  "/>
<path clip-path="url(#clip452)" d="
M1361.14 808.583 L1361.14 1445.72 L1390.18 1445.72 L1390.18 808.583 L1361.14 808.583 L1361.14 808.583  Z
  " fill="#009af9" fill-rule="evenodd" fill-opacity="1"/>
<polyline clip-path="url(#clip452)" style="stroke:#000000; stroke-width:4; stroke-opacity:1; fill:none" points="
  1361.14,808.583 1361.14,1445.72 1390.18,1445.72 1390.18,808.583 1361.14,808.583 
  "/>
<path clip-path="url(#clip452)" d="
M1390.18 1253.21 L1390.18 1445.72 L1419.23 1445.72 L1419.23 1253.21 L1390.18 1253.21 L1390.18 1253.21  Z
  " fill="#009af9" fill-rule="evenodd" fill-opacity="1"/>
<polyline clip-path="url(#clip452)" style="stroke:#000000; stroke-width:4; stroke-opacity:1; fill:none" points="
  1390.18,1253.21 1390.18,1445.72 1419.23,1445.72 1419.23,1253.21 1390.18,1253.21 
  "/>
<path clip-path="url(#clip452)" d="
M1419.23 1306.02 L1419.23 1445.72 L1448.27 1445.72 L1448.27 1306.02 L1419.23 1306.02 L1419.23 1306.02  Z
  " fill="#009af9" fill-rule="evenodd" fill-opacity="1"/>
<polyline clip-path="url(#clip452)" style="stroke:#000000; stroke-width:4; stroke-opacity:1; fill:none" points="
  1419.23,1306.02 1419.23,1445.72 1448.27,1445.72 1448.27,1306.02 1419.23,1306.02 
  "/>
<path clip-path="url(#clip452)" d="
M1448.27 1316.24 L1448.27 1445.72 L1477.32 1445.72 L1477.32 1316.24 L1448.27 1316.24 L1448.27 1316.24  Z
  " fill="#009af9" fill-rule="evenodd" fill-opacity="1"/>
<polyline clip-path="url(#clip452)" style="stroke:#000000; stroke-width:4; stroke-opacity:1; fill:none" points="
  1448.27,1316.24 1448.27,1445.72 1477.32,1445.72 1477.32,1316.24 1448.27,1316.24 
  "/>
<path clip-path="url(#clip452)" d="
M1477.32 1338.39 L1477.32 1445.72 L1506.36 1445.72 L1506.36 1338.39 L1477.32 1338.39 L1477.32 1338.39  Z
  " fill="#009af9" fill-rule="evenodd" fill-opacity="1"/>
<polyline clip-path="url(#clip452)" style="stroke:#000000; stroke-width:4; stroke-opacity:1; fill:none" points="
  1477.32,1338.39 1477.32,1445.72 1506.36,1445.72 1506.36,1338.39 1477.32,1338.39 
  "/>
<path clip-path="url(#clip452)" d="
M1506.36 1334.98 L1506.36 1445.72 L1535.41 1445.72 L1535.41 1334.98 L1506.36 1334.98 L1506.36 1334.98  Z
  " fill="#009af9" fill-rule="evenodd" fill-opacity="1"/>
<polyline clip-path="url(#clip452)" style="stroke:#000000; stroke-width:4; stroke-opacity:1; fill:none" points="
  1506.36,1334.98 1506.36,1445.72 1535.41,1445.72 1535.41,1334.98 1506.36,1334.98 
  "/>
<path clip-path="url(#clip452)" d="
M1535.41 1345.21 L1535.41 1445.72 L1564.45 1445.72 L1564.45 1345.21 L1535.41 1345.21 L1535.41 1345.21  Z
  " fill="#009af9" fill-rule="evenodd" fill-opacity="1"/>
<polyline clip-path="url(#clip452)" style="stroke:#000000; stroke-width:4; stroke-opacity:1; fill:none" points="
  1535.41,1345.21 1535.41,1445.72 1564.45,1445.72 1564.45,1345.21 1535.41,1345.21 
  "/>
<path clip-path="url(#clip452)" d="
M1564.45 1358.83 L1564.45 1445.72 L1593.5 1445.72 L1593.5 1358.83 L1564.45 1358.83 L1564.45 1358.83  Z
  " fill="#009af9" fill-rule="evenodd" fill-opacity="1"/>
<polyline clip-path="url(#clip452)" style="stroke:#000000; stroke-width:4; stroke-opacity:1; fill:none" points="
  1564.45,1358.83 1564.45,1445.72 1593.5,1445.72 1593.5,1358.83 1564.45,1358.83 
  "/>
<path clip-path="url(#clip452)" d="
M1593.5 1374.17 L1593.5 1445.72 L1622.54 1445.72 L1622.54 1374.17 L1593.5 1374.17 L1593.5 1374.17  Z
  " fill="#009af9" fill-rule="evenodd" fill-opacity="1"/>
<polyline clip-path="url(#clip452)" style="stroke:#000000; stroke-width:4; stroke-opacity:1; fill:none" points="
  1593.5,1374.17 1593.5,1445.72 1622.54,1445.72 1622.54,1374.17 1593.5,1374.17 
  "/>
<path clip-path="url(#clip452)" d="
M1622.54 1379.28 L1622.54 1445.72 L1651.59 1445.72 L1651.59 1379.28 L1622.54 1379.28 L1622.54 1379.28  Z
  " fill="#009af9" fill-rule="evenodd" fill-opacity="1"/>
<polyline clip-path="url(#clip452)" style="stroke:#000000; stroke-width:4; stroke-opacity:1; fill:none" points="
  1622.54,1379.28 1622.54,1445.72 1651.59,1445.72 1651.59,1379.28 1622.54,1379.28 
  "/>
<path clip-path="url(#clip452)" d="
M1651.59 1391.2 L1651.59 1445.72 L1680.63 1445.72 L1680.63 1391.2 L1651.59 1391.2 L1651.59 1391.2  Z
  " fill="#009af9" fill-rule="evenodd" fill-opacity="1"/>
<polyline clip-path="url(#clip452)" style="stroke:#000000; stroke-width:4; stroke-opacity:1; fill:none" points="
  1651.59,1391.2 1651.59,1445.72 1680.63,1445.72 1680.63,1391.2 1651.59,1391.2 
  "/>
<path clip-path="url(#clip452)" d="
M1680.63 1394.61 L1680.63 1445.72 L1709.68 1445.72 L1709.68 1394.61 L1680.63 1394.61 L1680.63 1394.61  Z
  " fill="#009af9" fill-rule="evenodd" fill-opacity="1"/>
<polyline clip-path="url(#clip452)" style="stroke:#000000; stroke-width:4; stroke-opacity:1; fill:none" points="
  1680.63,1394.61 1680.63,1445.72 1709.68,1445.72 1709.68,1394.61 1680.63,1394.61 
  "/>
<path clip-path="url(#clip452)" d="
M1709.68 1394.61 L1709.68 1445.72 L1738.72 1445.72 L1738.72 1394.61 L1709.68 1394.61 L1709.68 1394.61  Z
  " fill="#009af9" fill-rule="evenodd" fill-opacity="1"/>
<polyline clip-path="url(#clip452)" style="stroke:#000000; stroke-width:4; stroke-opacity:1; fill:none" points="
  1709.68,1394.61 1709.68,1445.72 1738.72,1445.72 1738.72,1394.61 1709.68,1394.61 
  "/>
<path clip-path="url(#clip452)" d="
M1738.72 1413.35 L1738.72 1445.72 L1767.77 1445.72 L1767.77 1413.35 L1738.72 1413.35 L1738.72 1413.35  Z
  " fill="#009af9" fill-rule="evenodd" fill-opacity="1"/>
<polyline clip-path="url(#clip452)" style="stroke:#000000; stroke-width:4; stroke-opacity:1; fill:none" points="
  1738.72,1413.35 1738.72,1445.72 1767.77,1445.72 1767.77,1413.35 1738.72,1413.35 
  "/>
<path clip-path="url(#clip452)" d="
M1767.77 1426.98 L1767.77 1445.72 L1796.81 1445.72 L1796.81 1426.98 L1767.77 1426.98 L1767.77 1426.98  Z
  " fill="#009af9" fill-rule="evenodd" fill-opacity="1"/>
<polyline clip-path="url(#clip452)" style="stroke:#000000; stroke-width:4; stroke-opacity:1; fill:none" points="
  1767.77,1426.98 1767.77,1445.72 1796.81,1445.72 1796.81,1426.98 1767.77,1426.98 
  "/>
<path clip-path="url(#clip452)" d="
M1796.81 1425.27 L1796.81 1445.72 L1825.86 1445.72 L1825.86 1425.27 L1796.81 1425.27 L1796.81 1425.27  Z
  " fill="#009af9" fill-rule="evenodd" fill-opacity="1"/>
<polyline clip-path="url(#clip452)" style="stroke:#000000; stroke-width:4; stroke-opacity:1; fill:none" points="
  1796.81,1425.27 1796.81,1445.72 1825.86,1445.72 1825.86,1425.27 1796.81,1425.27 
  "/>
<path clip-path="url(#clip452)" d="
M1825.86 1437.2 L1825.86 1445.72 L1854.91 1445.72 L1854.91 1437.2 L1825.86 1437.2 L1825.86 1437.2  Z
  " fill="#009af9" fill-rule="evenodd" fill-opacity="1"/>
<polyline clip-path="url(#clip452)" style="stroke:#000000; stroke-width:4; stroke-opacity:1; fill:none" points="
  1825.86,1437.2 1825.86,1445.72 1854.91,1445.72 1854.91,1437.2 1825.86,1437.2 
  "/>
<path clip-path="url(#clip452)" d="
M1854.91 1426.98 L1854.91 1445.72 L1883.95 1445.72 L1883.95 1426.98 L1854.91 1426.98 L1854.91 1426.98  Z
  " fill="#009af9" fill-rule="evenodd" fill-opacity="1"/>
<polyline clip-path="url(#clip452)" style="stroke:#000000; stroke-width:4; stroke-opacity:1; fill:none" points="
  1854.91,1426.98 1854.91,1445.72 1883.95,1445.72 1883.95,1426.98 1854.91,1426.98 
  "/>
<path clip-path="url(#clip452)" d="
M1883.95 1428.68 L1883.95 1445.72 L1913 1445.72 L1913 1428.68 L1883.95 1428.68 L1883.95 1428.68  Z
  " fill="#009af9" fill-rule="evenodd" fill-opacity="1"/>
<polyline clip-path="url(#clip452)" style="stroke:#000000; stroke-width:4; stroke-opacity:1; fill:none" points="
  1883.95,1428.68 1883.95,1445.72 1913,1445.72 1913,1428.68 1883.95,1428.68 
  "/>
<path clip-path="url(#clip452)" d="
M1913 1433.79 L1913 1445.72 L1942.04 1445.72 L1942.04 1433.79 L1913 1433.79 L1913 1433.79  Z
  " fill="#009af9" fill-rule="evenodd" fill-opacity="1"/>
<polyline clip-path="url(#clip452)" style="stroke:#000000; stroke-width:4; stroke-opacity:1; fill:none" points="
  1913,1433.79 1913,1445.72 1942.04,1445.72 1942.04,1433.79 1913,1433.79 
  "/>
<path clip-path="url(#clip452)" d="
M1942.04 1437.2 L1942.04 1445.72 L1971.09 1445.72 L1971.09 1437.2 L1942.04 1437.2 L1942.04 1437.2  Z
  " fill="#009af9" fill-rule="evenodd" fill-opacity="1"/>
<polyline clip-path="url(#clip452)" style="stroke:#000000; stroke-width:4; stroke-opacity:1; fill:none" points="
  1942.04,1437.2 1942.04,1445.72 1971.09,1445.72 1971.09,1437.2 1942.04,1437.2 
  "/>
<path clip-path="url(#clip452)" d="
M1971.09 1440.61 L1971.09 1445.72 L2000.13 1445.72 L2000.13 1440.61 L1971.09 1440.61 L1971.09 1440.61  Z
  " fill="#009af9" fill-rule="evenodd" fill-opacity="1"/>
<polyline clip-path="url(#clip452)" style="stroke:#000000; stroke-width:4; stroke-opacity:1; fill:none" points="
  1971.09,1440.61 1971.09,1445.72 2000.13,1445.72 2000.13,1440.61 1971.09,1440.61 
  "/>
<path clip-path="url(#clip452)" d="
M2000.13 1444.01 L2000.13 1445.72 L2029.18 1445.72 L2029.18 1444.01 L2000.13 1444.01 L2000.13 1444.01  Z
  " fill="#009af9" fill-rule="evenodd" fill-opacity="1"/>
<polyline clip-path="url(#clip452)" style="stroke:#000000; stroke-width:4; stroke-opacity:1; fill:none" points="
  2000.13,1444.01 2000.13,1445.72 2029.18,1445.72 2029.18,1444.01 2000.13,1444.01 
  "/>
<path clip-path="url(#clip452)" d="
M2029.18 1442.31 L2029.18 1445.72 L2058.22 1445.72 L2058.22 1442.31 L2029.18 1442.31 L2029.18 1442.31  Z
  " fill="#009af9" fill-rule="evenodd" fill-opacity="1"/>
<polyline clip-path="url(#clip452)" style="stroke:#000000; stroke-width:4; stroke-opacity:1; fill:none" points="
  2029.18,1442.31 2029.18,1445.72 2058.22,1445.72 2058.22,1442.31 2029.18,1442.31 
  "/>
<path clip-path="url(#clip452)" d="
M2058.22 1444.01 L2058.22 1445.72 L2087.27 1445.72 L2087.27 1444.01 L2058.22 1444.01 L2058.22 1444.01  Z
  " fill="#009af9" fill-rule="evenodd" fill-opacity="1"/>
<polyline clip-path="url(#clip452)" style="stroke:#000000; stroke-width:4; stroke-opacity:1; fill:none" points="
  2058.22,1444.01 2058.22,1445.72 2087.27,1445.72 2087.27,1444.01 2058.22,1444.01 
  "/>
<path clip-path="url(#clip452)" d="
M2087.27 1445.72 L2087.27 1445.72 L2116.31 1445.72 L2116.31 1445.72 L2087.27 1445.72 L2087.27 1445.72  Z
  " fill="#009af9" fill-rule="evenodd" fill-opacity="1"/>
<polyline clip-path="url(#clip452)" style="stroke:#000000; stroke-width:4; stroke-opacity:1; fill:none" points="
  2087.27,1445.72 2087.27,1445.72 2116.31,1445.72 2087.27,1445.72 
  "/>
<path clip-path="url(#clip452)" d="
M2116.31 1442.31 L2116.31 1445.72 L2145.36 1445.72 L2145.36 1442.31 L2116.31 1442.31 L2116.31 1442.31  Z
  " fill="#009af9" fill-rule="evenodd" fill-opacity="1"/>
<polyline clip-path="url(#clip452)" style="stroke:#000000; stroke-width:4; stroke-opacity:1; fill:none" points="
  2116.31,1442.31 2116.31,1445.72 2145.36,1445.72 2145.36,1442.31 2116.31,1442.31 
  "/>
<path clip-path="url(#clip452)" d="
M2145.36 1445.72 L2145.36 1445.72 L2174.4 1445.72 L2174.4 1445.72 L2145.36 1445.72 L2145.36 1445.72  Z
  " fill="#009af9" fill-rule="evenodd" fill-opacity="1"/>
<polyline clip-path="url(#clip452)" style="stroke:#000000; stroke-width:4; stroke-opacity:1; fill:none" points="
  2145.36,1445.72 2145.36,1445.72 2174.4,1445.72 2145.36,1445.72 
  "/>
<path clip-path="url(#clip452)" d="
M2174.4 1445.72 L2174.4 1445.72 L2203.45 1445.72 L2203.45 1445.72 L2174.4 1445.72 L2174.4 1445.72  Z
  " fill="#009af9" fill-rule="evenodd" fill-opacity="1"/>
<polyline clip-path="url(#clip452)" style="stroke:#000000; stroke-width:4; stroke-opacity:1; fill:none" points="
  2174.4,1445.72 2174.4,1445.72 2203.45,1445.72 2174.4,1445.72 
  "/>
<path clip-path="url(#clip452)" d="
M2203.45 1444.01 L2203.45 1445.72 L2232.49 1445.72 L2232.49 1444.01 L2203.45 1444.01 L2203.45 1444.01  Z
  " fill="#009af9" fill-rule="evenodd" fill-opacity="1"/>
<polyline clip-path="url(#clip452)" style="stroke:#000000; stroke-width:4; stroke-opacity:1; fill:none" points="
  2203.45,1444.01 2203.45,1445.72 2232.49,1445.72 2232.49,1444.01 2203.45,1444.01 
  "/>
<path clip-path="url(#clip450)" d="
M1985.9 216.178 L2279.87 216.178 L2279.87 95.2176 L1985.9 95.2176  Z
  " fill="#ffffff" fill-rule="evenodd" fill-opacity="1"/>
<polyline clip-path="url(#clip450)" style="stroke:#000000; stroke-width:4; stroke-opacity:1; fill:none" points="
  1985.9,216.178 2279.87,216.178 2279.87,95.2176 1985.9,95.2176 1985.9,216.178 
  "/>
<path clip-path="url(#clip450)" d="
M2010.2 179.89 L2155.97 179.89 L2155.97 131.506 L2010.2 131.506 L2010.2 179.89  Z
  " fill="#009af9" fill-rule="evenodd" fill-opacity="1"/>
<polyline clip-path="url(#clip450)" style="stroke:#000000; stroke-width:4; stroke-opacity:1; fill:none" points="
  2010.2,179.89 2155.97,179.89 2155.97,131.506 2010.2,131.506 2010.2,179.89 
  "/>
<path clip-path="url(#clip450)" d="M 0 0 M2194.11 175.385 Q2192.3 180.015 2190.59 181.427 Q2188.87 182.839 2186 182.839 L2182.6 182.839 L2182.6 179.274 L2185.1 179.274 Q2186.86 179.274 2187.83 178.44 Q2188.8 177.607 2189.98 174.505 L2190.75 172.561 L2180.26 147.052 L2184.78 147.052 L2192.88 167.329 L2200.98 147.052 L2205.49 147.052 L2194.11 175.385 Z" fill="#000000" fill-rule="evenodd" fill-opacity="1" /><path clip-path="url(#clip450)" d="M 0 0 M2211.37 169.042 L2219.01 169.042 L2219.01 142.677 L2210.7 144.343 L2210.7 140.084 L2218.97 138.418 L2223.64 138.418 L2223.64 169.042 L2231.28 169.042 L2231.28 172.978 L2211.37 172.978 L2211.37 169.042 Z" fill="#000000" fill-rule="evenodd" fill-opacity="1" /></svg>
