<?xml version="1.0" encoding="utf-8"?>
<svg xmlns="http://www.w3.org/2000/svg" xmlns:xlink="http://www.w3.org/1999/xlink" width="600" height="400" viewBox="0 0 2400 1600">
<defs>
  <clipPath id="clip220">
    <rect x="0" y="0" width="2400" height="1600"/>
  </clipPath>
</defs>
<path clip-path="url(#clip220)" d="
M0 1600 L2400 1600 L2400 0 L0 0  Z
  " fill="#ffffff" fill-rule="evenodd" fill-opacity="1"/>
<defs>
  <clipPath id="clip221">
    <rect x="480" y="0" width="1681" height="1600"/>
  </clipPath>
</defs>
<path clip-path="url(#clip220)" d="
M148.334 623.18 L1145.04 623.18 L1145.04 47.2441 L148.334 47.2441  Z
  " fill="#ffffff" fill-rule="evenodd" fill-opacity="1"/>
<defs>
  <clipPath id="clip222">
    <rect x="148" y="47" width="998" height="577"/>
  </clipPath>
</defs>
<polyline clip-path="url(#clip222)" style="stroke:#000000; stroke-width:2; stroke-opacity:0.1; fill:none" points="
  148.334,623.18 148.334,47.2441 
  "/>
<polyline clip-path="url(#clip222)" style="stroke:#000000; stroke-width:2; stroke-opacity:0.1; fill:none" points="
  397.51,623.18 397.51,47.2441 
  "/>
<polyline clip-path="url(#clip222)" style="stroke:#000000; stroke-width:2; stroke-opacity:0.1; fill:none" points="
  646.685,623.18 646.685,47.2441 
  "/>
<polyline clip-path="url(#clip222)" style="stroke:#000000; stroke-width:2; stroke-opacity:0.1; fill:none" points="
  895.861,623.18 895.861,47.2441 
  "/>
<polyline clip-path="url(#clip222)" style="stroke:#000000; stroke-width:2; stroke-opacity:0.1; fill:none" points="
  1145.04,623.18 1145.04,47.2441 
  "/>
<polyline clip-path="url(#clip222)" style="stroke:#000000; stroke-width:2; stroke-opacity:0.1; fill:none" points="
  148.334,606.88 1145.04,606.88 
  "/>
<polyline clip-path="url(#clip222)" style="stroke:#000000; stroke-width:2; stroke-opacity:0.1; fill:none" points="
  148.334,513.603 1145.04,513.603 
  "/>
<polyline clip-path="url(#clip222)" style="stroke:#000000; stroke-width:2; stroke-opacity:0.1; fill:none" points="
  148.334,420.327 1145.04,420.327 
  "/>
<polyline clip-path="url(#clip222)" style="stroke:#000000; stroke-width:2; stroke-opacity:0.1; fill:none" points="
  148.334,327.05 1145.04,327.05 
  "/>
<polyline clip-path="url(#clip222)" style="stroke:#000000; stroke-width:2; stroke-opacity:0.1; fill:none" points="
  148.334,233.774 1145.04,233.774 
  "/>
<polyline clip-path="url(#clip222)" style="stroke:#000000; stroke-width:2; stroke-opacity:0.1; fill:none" points="
  148.334,140.497 1145.04,140.497 
  "/>
<polyline clip-path="url(#clip220)" style="stroke:#000000; stroke-width:4; stroke-opacity:1; fill:none" points="
  148.334,623.18 1145.04,623.18 
  "/>
<polyline clip-path="url(#clip220)" style="stroke:#000000; stroke-width:4; stroke-opacity:1; fill:none" points="
  148.334,623.18 148.334,47.2441 
  "/>
<polyline clip-path="url(#clip220)" style="stroke:#000000; stroke-width:4; stroke-opacity:1; fill:none" points="
  148.334,623.18 148.334,616.269 
  "/>
<polyline clip-path="url(#clip220)" style="stroke:#000000; stroke-width:4; stroke-opacity:1; fill:none" points="
  397.51,623.18 397.51,616.269 
  "/>
<polyline clip-path="url(#clip220)" style="stroke:#000000; stroke-width:4; stroke-opacity:1; fill:none" points="
  646.685,623.18 646.685,616.269 
  "/>
<polyline clip-path="url(#clip220)" style="stroke:#000000; stroke-width:4; stroke-opacity:1; fill:none" points="
  895.861,623.18 895.861,616.269 
  "/>
<polyline clip-path="url(#clip220)" style="stroke:#000000; stroke-width:4; stroke-opacity:1; fill:none" points="
  1145.04,623.18 1145.04,616.269 
  "/>
<polyline clip-path="url(#clip220)" style="stroke:#000000; stroke-width:4; stroke-opacity:1; fill:none" points="
  148.334,606.88 160.295,606.88 
  "/>
<polyline clip-path="url(#clip220)" style="stroke:#000000; stroke-width:4; stroke-opacity:1; fill:none" points="
  148.334,513.603 160.295,513.603 
  "/>
<polyline clip-path="url(#clip220)" style="stroke:#000000; stroke-width:4; stroke-opacity:1; fill:none" points="
  148.334,420.327 160.295,420.327 
  "/>
<polyline clip-path="url(#clip220)" style="stroke:#000000; stroke-width:4; stroke-opacity:1; fill:none" points="
  148.334,327.05 160.295,327.05 
  "/>
<polyline clip-path="url(#clip220)" style="stroke:#000000; stroke-width:4; stroke-opacity:1; fill:none" points="
  148.334,233.774 160.295,233.774 
  "/>
<polyline clip-path="url(#clip220)" style="stroke:#000000; stroke-width:4; stroke-opacity:1; fill:none" points="
  148.334,140.497 160.295,140.497 
  "/>
<path clip-path="url(#clip220)" d="M 0 0 M120.233 672.717 L127.872 672.717 L127.872 646.351 L119.561 648.018 L119.561 643.759 L127.825 642.092 L132.501 642.092 L132.501 672.717 L140.14 672.717 L140.14 676.652 L120.233 676.652 L120.233 672.717 Z" fill="#000000" fill-rule="evenodd" fill-opacity="1" /><path clip-path="url(#clip220)" d="M 0 0 M145.209 670.772 L150.094 670.772 L150.094 676.652 L145.209 676.652 L145.209 670.772 Z" fill="#000000" fill-rule="evenodd" fill-opacity="1" /><path clip-path="url(#clip220)" d="M 0 0 M165.163 645.171 Q161.552 645.171 159.723 648.735 Q157.918 652.277 157.918 659.407 Q157.918 666.513 159.723 670.078 Q161.552 673.619 165.163 673.619 Q168.797 673.619 170.603 670.078 Q172.431 666.513 172.431 659.407 Q172.431 652.277 170.603 648.735 Q168.797 645.171 165.163 645.171 M165.163 641.467 Q170.973 641.467 174.029 646.073 Q177.107 650.657 177.107 659.407 Q177.107 668.133 174.029 672.74 Q170.973 677.323 165.163 677.323 Q159.353 677.323 156.274 672.74 Q153.219 668.133 153.219 659.407 Q153.219 650.657 156.274 646.073 Q159.353 641.467 165.163 641.467 Z" fill="#000000" fill-rule="evenodd" fill-opacity="1" /><path clip-path="url(#clip220)" d="M 0 0 M369.906 672.717 L377.545 672.717 L377.545 646.351 L369.234 648.018 L369.234 643.759 L377.498 642.092 L382.174 642.092 L382.174 672.717 L389.813 672.717 L389.813 676.652 L369.906 676.652 L369.906 672.717 Z" fill="#000000" fill-rule="evenodd" fill-opacity="1" /><path clip-path="url(#clip220)" d="M 0 0 M394.883 670.772 L399.767 670.772 L399.767 676.652 L394.883 676.652 L394.883 670.772 Z" fill="#000000" fill-rule="evenodd" fill-opacity="1" /><path clip-path="url(#clip220)" d="M 0 0 M404.882 642.092 L423.239 642.092 L423.239 646.027 L409.165 646.027 L409.165 654.499 Q410.183 654.152 411.202 653.99 Q412.22 653.805 413.239 653.805 Q419.026 653.805 422.406 656.976 Q425.785 660.147 425.785 665.564 Q425.785 671.143 422.313 674.244 Q418.841 677.323 412.521 677.323 Q410.345 677.323 408.077 676.953 Q405.832 676.582 403.424 675.842 L403.424 671.143 Q405.507 672.277 407.73 672.832 Q409.952 673.388 412.429 673.388 Q416.433 673.388 418.771 671.282 Q421.109 669.175 421.109 665.564 Q421.109 661.953 418.771 659.846 Q416.433 657.74 412.429 657.74 Q410.554 657.74 408.679 658.157 Q406.827 658.573 404.882 659.453 L404.882 642.092 Z" fill="#000000" fill-rule="evenodd" fill-opacity="1" /><path clip-path="url(#clip220)" d="M 0 0 M622.854 672.717 L639.174 672.717 L639.174 676.652 L617.229 676.652 L617.229 672.717 Q619.891 669.962 624.475 665.332 Q629.081 660.68 630.262 659.337 Q632.507 656.814 633.387 655.078 Q634.289 653.319 634.289 651.629 Q634.289 648.874 632.345 647.138 Q630.424 645.402 627.322 645.402 Q625.123 645.402 622.669 646.166 Q620.239 646.93 617.461 648.481 L617.461 643.759 Q620.285 642.624 622.739 642.046 Q625.192 641.467 627.229 641.467 Q632.6 641.467 635.794 644.152 Q638.988 646.837 638.988 651.328 Q638.988 653.458 638.178 655.379 Q637.391 657.277 635.285 659.87 Q634.706 660.541 631.604 663.758 Q628.502 666.953 622.854 672.717 Z" fill="#000000" fill-rule="evenodd" fill-opacity="1" /><path clip-path="url(#clip220)" d="M 0 0 M644.243 670.772 L649.127 670.772 L649.127 676.652 L644.243 676.652 L644.243 670.772 Z" fill="#000000" fill-rule="evenodd" fill-opacity="1" /><path clip-path="url(#clip220)" d="M 0 0 M664.197 645.171 Q660.586 645.171 658.757 648.735 Q656.951 652.277 656.951 659.407 Q656.951 666.513 658.757 670.078 Q660.586 673.619 664.197 673.619 Q667.831 673.619 669.636 670.078 Q671.465 666.513 671.465 659.407 Q671.465 652.277 669.636 648.735 Q667.831 645.171 664.197 645.171 M664.197 641.467 Q670.007 641.467 673.062 646.073 Q676.141 650.657 676.141 659.407 Q676.141 668.133 673.062 672.74 Q670.007 677.323 664.197 677.323 Q658.387 677.323 655.308 672.74 Q652.252 668.133 652.252 659.407 Q652.252 650.657 655.308 646.073 Q658.387 641.467 664.197 641.467 Z" fill="#000000" fill-rule="evenodd" fill-opacity="1" /><path clip-path="url(#clip220)" d="M 0 0 M872.527 672.717 L888.847 672.717 L888.847 676.652 L866.902 676.652 L866.902 672.717 Q869.564 669.962 874.148 665.332 Q878.754 660.68 879.935 659.337 Q882.18 656.814 883.06 655.078 Q883.963 653.319 883.963 651.629 Q883.963 648.874 882.018 647.138 Q880.097 645.402 876.995 645.402 Q874.796 645.402 872.342 646.166 Q869.912 646.93 867.134 648.481 L867.134 643.759 Q869.958 642.624 872.412 642.046 Q874.865 641.467 876.902 641.467 Q882.273 641.467 885.467 644.152 Q888.662 646.837 888.662 651.328 Q888.662 653.458 887.851 655.379 Q887.064 657.277 884.958 659.87 Q884.379 660.541 881.277 663.758 Q878.176 666.953 872.527 672.717 Z" fill="#000000" fill-rule="evenodd" fill-opacity="1" /><path clip-path="url(#clip220)" d="M 0 0 M893.916 670.772 L898.8 670.772 L898.8 676.652 L893.916 676.652 L893.916 670.772 Z" fill="#000000" fill-rule="evenodd" fill-opacity="1" /><path clip-path="url(#clip220)" d="M 0 0 M903.916 642.092 L922.273 642.092 L922.273 646.027 L908.199 646.027 L908.199 654.499 Q909.217 654.152 910.236 653.99 Q911.254 653.805 912.273 653.805 Q918.06 653.805 921.439 656.976 Q924.819 660.147 924.819 665.564 Q924.819 671.143 921.347 674.244 Q917.874 677.323 911.555 677.323 Q909.379 677.323 907.111 676.953 Q904.865 676.582 902.458 675.842 L902.458 671.143 Q904.541 672.277 906.763 672.832 Q908.986 673.388 911.462 673.388 Q915.467 673.388 917.805 671.282 Q920.143 669.175 920.143 665.564 Q920.143 661.953 917.805 659.846 Q915.467 657.74 911.462 657.74 Q909.587 657.74 907.712 658.157 Q905.861 658.573 903.916 659.453 L903.916 642.092 Z" fill="#000000" fill-rule="evenodd" fill-opacity="1" /><path clip-path="url(#clip220)" d="M 0 0 M1130.8 658.018 Q1134.16 658.735 1136.03 661.004 Q1137.93 663.272 1137.93 666.606 Q1137.93 671.721 1134.41 674.522 Q1130.89 677.323 1124.41 677.323 Q1122.24 677.323 1119.92 676.883 Q1117.63 676.467 1115.18 675.61 L1115.18 671.096 Q1117.12 672.231 1119.43 672.809 Q1121.75 673.388 1124.27 673.388 Q1128.67 673.388 1130.96 671.652 Q1133.28 669.916 1133.28 666.606 Q1133.28 663.55 1131.12 661.837 Q1128.99 660.101 1125.18 660.101 L1121.15 660.101 L1121.15 656.258 L1125.36 656.258 Q1128.81 656.258 1130.64 654.893 Q1132.47 653.504 1132.47 650.911 Q1132.47 648.249 1130.57 646.837 Q1128.69 645.402 1125.18 645.402 Q1123.25 645.402 1121.05 645.819 Q1118.86 646.235 1116.22 647.115 L1116.22 642.948 Q1118.88 642.208 1121.19 641.837 Q1123.53 641.467 1125.59 641.467 Q1130.92 641.467 1134.02 643.897 Q1137.12 646.305 1137.12 650.425 Q1137.12 653.295 1135.48 655.286 Q1133.83 657.254 1130.8 658.018 Z" fill="#000000" fill-rule="evenodd" fill-opacity="1" /><path clip-path="url(#clip220)" d="M 0 0 M1143 670.772 L1147.88 670.772 L1147.88 676.652 L1143 676.652 L1143 670.772 Z" fill="#000000" fill-rule="evenodd" fill-opacity="1" /><path clip-path="url(#clip220)" d="M 0 0 M1162.95 645.171 Q1159.34 645.171 1157.51 648.735 Q1155.71 652.277 1155.71 659.407 Q1155.71 666.513 1157.51 670.078 Q1159.34 673.619 1162.95 673.619 Q1166.59 673.619 1168.39 670.078 Q1170.22 666.513 1170.22 659.407 Q1170.22 652.277 1168.39 648.735 Q1166.59 645.171 1162.95 645.171 M1162.95 641.467 Q1168.76 641.467 1171.82 646.073 Q1174.9 650.657 1174.9 659.407 Q1174.9 668.133 1171.82 672.74 Q1168.76 677.323 1162.95 677.323 Q1157.14 677.323 1154.06 672.74 Q1151.01 668.133 1151.01 659.407 Q1151.01 650.657 1154.06 646.073 Q1157.14 641.467 1162.95 641.467 Z" fill="#000000" fill-rule="evenodd" fill-opacity="1" /><path clip-path="url(#clip220)" d="M 0 0 M75.4226 592.678 Q71.8115 592.678 69.9828 596.243 Q68.1773 599.785 68.1773 606.914 Q68.1773 614.021 69.9828 617.586 Q71.8115 621.127 75.4226 621.127 Q79.0569 621.127 80.8624 617.586 Q82.6911 614.021 82.6911 606.914 Q82.6911 599.785 80.8624 596.243 Q79.0569 592.678 75.4226 592.678 M75.4226 588.975 Q81.2328 588.975 84.2883 593.581 Q87.367 598.165 87.367 606.914 Q87.367 615.641 84.2883 620.248 Q81.2328 624.831 75.4226 624.831 Q69.6125 624.831 66.5338 620.248 Q63.4782 615.641 63.4782 606.914 Q63.4782 598.165 66.5338 593.581 Q69.6125 588.975 75.4226 588.975 Z" fill="#000000" fill-rule="evenodd" fill-opacity="1" /><path clip-path="url(#clip220)" d="M 0 0 M92.4364 618.28 L97.3206 618.28 L97.3206 624.16 L92.4364 624.16 L92.4364 618.28 Z" fill="#000000" fill-rule="evenodd" fill-opacity="1" /><path clip-path="url(#clip220)" d="M 0 0 M112.39 592.678 Q108.779 592.678 106.95 596.243 Q105.145 599.785 105.145 606.914 Q105.145 614.021 106.95 617.586 Q108.779 621.127 112.39 621.127 Q116.024 621.127 117.83 617.586 Q119.658 614.021 119.658 606.914 Q119.658 599.785 117.83 596.243 Q116.024 592.678 112.39 592.678 M112.39 588.975 Q118.2 588.975 121.256 593.581 Q124.334 598.165 124.334 606.914 Q124.334 615.641 121.256 620.248 Q118.2 624.831 112.39 624.831 Q106.58 624.831 103.501 620.248 Q100.446 615.641 100.446 606.914 Q100.446 598.165 103.501 593.581 Q106.58 588.975 112.39 588.975 Z" fill="#000000" fill-rule="evenodd" fill-opacity="1" /><path clip-path="url(#clip220)" d="M 0 0 M76.6495 499.402 Q73.0384 499.402 71.2097 502.967 Q69.4041 506.508 69.4041 513.638 Q69.4041 520.744 71.2097 524.309 Q73.0384 527.851 76.6495 527.851 Q80.2837 527.851 82.0892 524.309 Q83.9179 520.744 83.9179 513.638 Q83.9179 506.508 82.0892 502.967 Q80.2837 499.402 76.6495 499.402 M76.6495 495.698 Q82.4596 495.698 85.5152 500.305 Q88.5938 504.888 88.5938 513.638 Q88.5938 522.365 85.5152 526.971 Q82.4596 531.555 76.6495 531.555 Q70.8393 531.555 67.7606 526.971 Q64.7051 522.365 64.7051 513.638 Q64.7051 504.888 67.7606 500.305 Q70.8393 495.698 76.6495 495.698 Z" fill="#000000" fill-rule="evenodd" fill-opacity="1" /><path clip-path="url(#clip220)" d="M 0 0 M93.6633 525.004 L98.5475 525.004 L98.5475 530.883 L93.6633 530.883 L93.6633 525.004 Z" fill="#000000" fill-rule="evenodd" fill-opacity="1" /><path clip-path="url(#clip220)" d="M 0 0 M104.427 526.948 L112.066 526.948 L112.066 500.583 L103.756 502.249 L103.756 497.99 L112.02 496.323 L116.696 496.323 L116.696 526.948 L124.334 526.948 L124.334 530.883 L104.427 530.883 L104.427 526.948 Z" fill="#000000" fill-rule="evenodd" fill-opacity="1" /><path clip-path="url(#clip220)" d="M 0 0 M77.0198 406.125 Q73.4087 406.125 71.58 409.69 Q69.7745 413.232 69.7745 420.361 Q69.7745 427.468 71.58 431.033 Q73.4087 434.574 77.0198 434.574 Q80.6541 434.574 82.4596 431.033 Q84.2883 427.468 84.2883 420.361 Q84.2883 413.232 82.4596 409.69 Q80.6541 406.125 77.0198 406.125 M77.0198 402.422 Q82.83 402.422 85.8855 407.028 Q88.9642 411.612 88.9642 420.361 Q88.9642 429.088 85.8855 433.695 Q82.83 438.278 77.0198 438.278 Q71.2097 438.278 68.131 433.695 Q65.0754 429.088 65.0754 420.361 Q65.0754 411.612 68.131 407.028 Q71.2097 402.422 77.0198 402.422 Z" fill="#000000" fill-rule="evenodd" fill-opacity="1" /><path clip-path="url(#clip220)" d="M 0 0 M94.0336 431.727 L98.9179 431.727 L98.9179 437.607 L94.0336 437.607 L94.0336 431.727 Z" fill="#000000" fill-rule="evenodd" fill-opacity="1" /><path clip-path="url(#clip220)" d="M 0 0 M108.015 433.672 L124.334 433.672 L124.334 437.607 L102.39 437.607 L102.39 433.672 Q105.052 430.917 109.635 426.287 Q114.242 421.635 115.422 420.292 Q117.668 417.769 118.547 416.033 Q119.45 414.274 119.45 412.584 Q119.45 409.829 117.506 408.093 Q115.584 406.357 112.483 406.357 Q110.284 406.357 107.83 407.121 Q105.399 407.885 102.622 409.436 L102.622 404.713 Q105.446 403.579 107.899 403 Q110.353 402.422 112.39 402.422 Q117.76 402.422 120.955 405.107 Q124.149 407.792 124.149 412.283 Q124.149 414.412 123.339 416.334 Q122.552 418.232 120.446 420.824 Q119.867 421.496 116.765 424.713 Q113.663 427.908 108.015 433.672 Z" fill="#000000" fill-rule="evenodd" fill-opacity="1" /><path clip-path="url(#clip220)" d="M 0 0 M76.0708 312.849 Q72.4597 312.849 70.631 316.414 Q68.8254 319.955 68.8254 327.085 Q68.8254 334.191 70.631 337.756 Q72.4597 341.298 76.0708 341.298 Q79.705 341.298 81.5105 337.756 Q83.3392 334.191 83.3392 327.085 Q83.3392 319.955 81.5105 316.414 Q79.705 312.849 76.0708 312.849 M76.0708 309.145 Q81.8809 309.145 84.9365 313.752 Q88.0151 318.335 88.0151 327.085 Q88.0151 335.812 84.9365 340.418 Q81.8809 345.002 76.0708 345.002 Q70.2606 345.002 67.1819 340.418 Q64.1264 335.812 64.1264 327.085 Q64.1264 318.335 67.1819 313.752 Q70.2606 309.145 76.0708 309.145 Z" fill="#000000" fill-rule="evenodd" fill-opacity="1" /><path clip-path="url(#clip220)" d="M 0 0 M93.0846 338.451 L97.9688 338.451 L97.9688 344.33 L93.0846 344.33 L93.0846 338.451 Z" fill="#000000" fill-rule="evenodd" fill-opacity="1" /><path clip-path="url(#clip220)" d="M 0 0 M117.205 325.696 Q120.561 326.414 122.436 328.682 Q124.334 330.951 124.334 334.284 Q124.334 339.4 120.816 342.201 Q117.297 345.002 110.816 345.002 Q108.64 345.002 106.325 344.562 Q104.034 344.145 101.58 343.289 L101.58 338.775 Q103.524 339.909 105.839 340.488 Q108.154 341.066 110.677 341.066 Q115.075 341.066 117.367 339.33 Q119.682 337.594 119.682 334.284 Q119.682 331.228 117.529 329.516 Q115.399 327.779 111.58 327.779 L107.552 327.779 L107.552 323.937 L111.765 323.937 Q115.214 323.937 117.043 322.571 Q118.871 321.182 118.871 318.59 Q118.871 315.928 116.973 314.516 Q115.098 313.08 111.58 313.08 Q109.659 313.08 107.459 313.497 Q105.26 313.914 102.622 314.793 L102.622 310.627 Q105.284 309.886 107.598 309.516 Q109.936 309.145 111.996 309.145 Q117.321 309.145 120.422 311.576 Q123.524 313.983 123.524 318.104 Q123.524 320.974 121.881 322.965 Q120.237 324.932 117.205 325.696 Z" fill="#000000" fill-rule="evenodd" fill-opacity="1" /><path clip-path="url(#clip220)" d="M 0 0 M74.9365 219.572 Q71.3254 219.572 69.4967 223.137 Q67.6912 226.679 67.6912 233.808 Q67.6912 240.915 69.4967 244.48 Q71.3254 248.021 74.9365 248.021 Q78.5707 248.021 80.3763 244.48 Q82.205 240.915 82.205 233.808 Q82.205 226.679 80.3763 223.137 Q78.5707 219.572 74.9365 219.572 M74.9365 215.869 Q80.7467 215.869 83.8022 220.475 Q86.8809 225.059 86.8809 233.808 Q86.8809 242.535 83.8022 247.142 Q80.7467 251.725 74.9365 251.725 Q69.1264 251.725 66.0477 247.142 Q62.9921 242.535 62.9921 233.808 Q62.9921 225.059 66.0477 220.475 Q69.1264 215.869 74.9365 215.869 Z" fill="#000000" fill-rule="evenodd" fill-opacity="1" /><path clip-path="url(#clip220)" d="M 0 0 M91.9503 245.174 L96.8345 245.174 L96.8345 251.054 L91.9503 251.054 L91.9503 245.174 Z" fill="#000000" fill-rule="evenodd" fill-opacity="1" /><path clip-path="url(#clip220)" d="M 0 0 M114.751 220.568 L102.946 239.017 L114.751 239.017 L114.751 220.568 M113.524 216.494 L119.404 216.494 L119.404 239.017 L124.334 239.017 L124.334 242.906 L119.404 242.906 L119.404 251.054 L114.751 251.054 L114.751 242.906 L99.1493 242.906 L99.1493 238.392 L113.524 216.494 Z" fill="#000000" fill-rule="evenodd" fill-opacity="1" /><path clip-path="url(#clip220)" d="M 0 0 M76.418 126.296 Q72.8069 126.296 70.9782 129.861 Q69.1726 133.402 69.1726 140.532 Q69.1726 147.638 70.9782 151.203 Q72.8069 154.745 76.418 154.745 Q80.0522 154.745 81.8578 151.203 Q83.6865 147.638 83.6865 140.532 Q83.6865 133.402 81.8578 129.861 Q80.0522 126.296 76.418 126.296 M76.418 122.592 Q82.2281 122.592 85.2837 127.199 Q88.3624 131.782 88.3624 140.532 Q88.3624 149.259 85.2837 153.865 Q82.2281 158.449 76.418 158.449 Q70.6078 158.449 67.5291 153.865 Q64.4736 149.259 64.4736 140.532 Q64.4736 131.782 67.5291 127.199 Q70.6078 122.592 76.418 122.592 Z" fill="#000000" fill-rule="evenodd" fill-opacity="1" /><path clip-path="url(#clip220)" d="M 0 0 M93.4318 151.898 L98.316 151.898 L98.316 157.777 L93.4318 157.777 L93.4318 151.898 Z" fill="#000000" fill-rule="evenodd" fill-opacity="1" /><path clip-path="url(#clip220)" d="M 0 0 M103.432 123.217 L121.788 123.217 L121.788 127.152 L107.714 127.152 L107.714 135.625 Q108.733 135.277 109.751 135.115 Q110.77 134.93 111.788 134.93 Q117.575 134.93 120.955 138.101 Q124.334 141.273 124.334 146.689 Q124.334 152.268 120.862 155.37 Q117.39 158.449 111.071 158.449 Q108.895 158.449 106.626 158.078 Q104.381 157.708 101.973 156.967 L101.973 152.268 Q104.057 153.402 106.279 153.958 Q108.501 154.513 110.978 154.513 Q114.983 154.513 117.321 152.407 Q119.658 150.3 119.658 146.689 Q119.658 143.078 117.321 140.972 Q114.983 138.865 110.978 138.865 Q109.103 138.865 107.228 139.282 Q105.376 139.699 103.432 140.578 L103.432 123.217 Z" fill="#000000" fill-rule="evenodd" fill-opacity="1" /><path clip-path="url(#clip220)" d="M 0 0 M549.29 769.603 L549.29 720.396 L555.146 720.396 L555.146 742.549 Q555.146 747.164 557.343 749.519 Q559.539 751.874 563.836 751.874 Q568.546 751.874 570.901 749.201 Q573.289 746.527 573.289 741.18 L573.289 720.396 L579.145 720.396 L579.145 747.832 Q579.145 749.742 579.686 750.665 Q580.259 751.556 581.437 751.556 Q581.723 751.556 582.232 751.397 Q582.742 751.206 583.633 750.824 L583.633 755.535 Q582.328 756.267 581.15 756.617 Q580.004 756.967 578.89 756.967 Q576.694 756.967 575.389 755.726 Q574.084 754.484 573.607 751.938 Q572.015 754.452 569.692 755.726 Q567.4 756.967 564.281 756.967 Q561.035 756.967 558.743 755.726 Q556.483 754.484 555.146 752.002 L555.146 769.603 L549.29 769.603 Z" fill="#000000" fill-rule="evenodd" fill-opacity="1" /><path clip-path="url(#clip220)" d="M 0 0 M616.162 750.697 L616.162 769.603 L610.273 769.603 L610.273 720.396 L616.162 720.396 L616.162 725.807 Q618.008 722.624 620.809 721.096 Q623.641 719.537 627.556 719.537 Q634.049 719.537 638.092 724.693 Q642.166 729.849 642.166 738.252 Q642.166 746.654 638.092 751.811 Q634.049 756.967 627.556 756.967 Q623.641 756.967 620.809 755.439 Q618.008 753.88 616.162 750.697 M636.086 738.252 Q636.086 731.791 633.413 728.13 Q630.771 724.438 626.124 724.438 Q621.477 724.438 618.803 728.13 Q616.162 731.791 616.162 738.252 Q616.162 744.713 618.803 748.405 Q621.477 752.065 626.124 752.065 Q630.771 752.065 633.413 748.405 Q636.086 744.713 636.086 738.252 Z" fill="#000000" fill-rule="evenodd" fill-opacity="1" /><path clip-path="url(#clip220)" d="M 0 0 M668.965 725.87 Q667.979 725.297 666.801 725.043 Q665.655 724.756 664.255 724.756 Q659.289 724.756 656.616 728.003 Q653.974 731.218 653.974 737.265 L653.974 756.044 L648.086 756.044 L648.086 720.396 L653.974 720.396 L653.974 725.934 Q655.82 722.688 658.78 721.128 Q661.74 719.537 665.973 719.537 Q666.578 719.537 667.31 719.632 Q668.042 719.696 668.933 719.855 L668.965 725.87 Z" fill="#000000" fill-rule="evenodd" fill-opacity="1" /><path clip-path="url(#clip220)" d="M 0 0 M675.108 720.396 L680.965 720.396 L680.965 756.044 L675.108 756.044 L675.108 720.396 M675.108 706.519 L680.965 706.519 L680.965 713.935 L675.108 713.935 L675.108 706.519 Z" fill="#000000" fill-rule="evenodd" fill-opacity="1" /><path clip-path="url(#clip220)" d="M 0 0 M700.921 724.502 Q696.21 724.502 693.473 728.194 Q690.736 731.854 690.736 738.252 Q690.736 744.649 693.441 748.341 Q696.179 752.002 700.921 752.002 Q705.6 752.002 708.337 748.31 Q711.074 744.617 711.074 738.252 Q711.074 731.918 708.337 728.226 Q705.6 724.502 700.921 724.502 M700.921 719.537 Q708.56 719.537 712.92 724.502 Q717.281 729.467 717.281 738.252 Q717.281 747.005 712.92 752.002 Q708.56 756.967 700.921 756.967 Q693.25 756.967 688.89 752.002 Q684.561 747.005 684.561 738.252 Q684.561 729.467 688.89 724.502 Q693.25 719.537 700.921 719.537 Z" fill="#000000" fill-rule="evenodd" fill-opacity="1" /><path clip-path="url(#clip220)" d="M 0 0 M744.081 725.87 Q743.094 725.297 741.916 725.043 Q740.77 724.756 739.37 724.756 Q734.405 724.756 731.731 728.003 Q729.089 731.218 729.089 737.265 L729.089 756.044 L723.201 756.044 L723.201 720.396 L729.089 720.396 L729.089 725.934 Q730.935 722.688 733.895 721.128 Q736.855 719.537 741.089 719.537 Q741.693 719.537 742.425 719.632 Q743.157 719.696 744.049 719.855 L744.081 725.87 Z" fill="#000000" fill-rule="evenodd" fill-opacity="1" /><polyline clip-path="url(#clip222)" style="stroke:#009af9; stroke-width:8; stroke-opacity:1; fill:none" points="
  148.334,606.88 148.334,126.506 248.005,126.506 248.005,149.825 347.675,149.825 347.675,145.161 447.345,145.161 447.345,149.825 547.015,149.825 547.015,119.51 
  646.685,119.51 646.685,63.5442 746.355,63.5442 746.355,154.489 846.026,154.489 846.026,170.812 945.696,170.812 945.696,140.497 1045.37,140.497 1045.37,184.804 
  1145.04,184.804 1145.04,606.88 
  "/>
<path clip-path="url(#clip220)" d="
M1356.05 623.18 L2352.76 623.18 L2352.76 47.2441 L1356.05 47.2441  Z
  " fill="#ffffff" fill-rule="evenodd" fill-opacity="1"/>
<defs>
  <clipPath id="clip223">
    <rect x="1356" y="47" width="998" height="577"/>
  </clipPath>
</defs>
<polyline clip-path="url(#clip223)" style="stroke:#000000; stroke-width:2; stroke-opacity:0.1; fill:none" points="
  1356.05,623.18 1356.05,47.2441 
  "/>
<polyline clip-path="url(#clip223)" style="stroke:#000000; stroke-width:2; stroke-opacity:0.1; fill:none" points="
  1605.23,623.18 1605.23,47.2441 
  "/>
<polyline clip-path="url(#clip223)" style="stroke:#000000; stroke-width:2; stroke-opacity:0.1; fill:none" points="
  1854.41,623.18 1854.41,47.2441 
  "/>
<polyline clip-path="url(#clip223)" style="stroke:#000000; stroke-width:2; stroke-opacity:0.1; fill:none" points="
  2103.58,623.18 2103.58,47.2441 
  "/>
<polyline clip-path="url(#clip223)" style="stroke:#000000; stroke-width:2; stroke-opacity:0.1; fill:none" points="
  2352.76,623.18 2352.76,47.2441 
  "/>
<polyline clip-path="url(#clip223)" style="stroke:#000000; stroke-width:2; stroke-opacity:0.1; fill:none" points="
  1356.05,606.88 2352.76,606.88 
  "/>
<polyline clip-path="url(#clip223)" style="stroke:#000000; stroke-width:2; stroke-opacity:0.1; fill:none" points="
  1356.05,520.292 2352.76,520.292 
  "/>
<polyline clip-path="url(#clip223)" style="stroke:#000000; stroke-width:2; stroke-opacity:0.1; fill:none" points="
  1356.05,433.705 2352.76,433.705 
  "/>
<polyline clip-path="url(#clip223)" style="stroke:#000000; stroke-width:2; stroke-opacity:0.1; fill:none" points="
  1356.05,347.118 2352.76,347.118 
  "/>
<polyline clip-path="url(#clip223)" style="stroke:#000000; stroke-width:2; stroke-opacity:0.1; fill:none" points="
  1356.05,260.53 2352.76,260.53 
  "/>
<polyline clip-path="url(#clip223)" style="stroke:#000000; stroke-width:2; stroke-opacity:0.1; fill:none" points="
  1356.05,173.943 2352.76,173.943 
  "/>
<polyline clip-path="url(#clip223)" style="stroke:#000000; stroke-width:2; stroke-opacity:0.1; fill:none" points="
  1356.05,87.3557 2352.76,87.3557 
  "/>
<polyline clip-path="url(#clip220)" style="stroke:#000000; stroke-width:4; stroke-opacity:1; fill:none" points="
  1356.05,623.18 2352.76,623.18 
  "/>
<polyline clip-path="url(#clip220)" style="stroke:#000000; stroke-width:4; stroke-opacity:1; fill:none" points="
  1356.05,623.18 1356.05,47.2441 
  "/>
<polyline clip-path="url(#clip220)" style="stroke:#000000; stroke-width:4; stroke-opacity:1; fill:none" points="
  1356.05,623.18 1356.05,616.269 
  "/>
<polyline clip-path="url(#clip220)" style="stroke:#000000; stroke-width:4; stroke-opacity:1; fill:none" points="
  1605.23,623.18 1605.23,616.269 
  "/>
<polyline clip-path="url(#clip220)" style="stroke:#000000; stroke-width:4; stroke-opacity:1; fill:none" points="
  1854.41,623.18 1854.41,616.269 
  "/>
<polyline clip-path="url(#clip220)" style="stroke:#000000; stroke-width:4; stroke-opacity:1; fill:none" points="
  2103.58,623.18 2103.58,616.269 
  "/>
<polyline clip-path="url(#clip220)" style="stroke:#000000; stroke-width:4; stroke-opacity:1; fill:none" points="
  2352.76,623.18 2352.76,616.269 
  "/>
<polyline clip-path="url(#clip220)" style="stroke:#000000; stroke-width:4; stroke-opacity:1; fill:none" points="
  1356.05,606.88 1368.01,606.88 
  "/>
<polyline clip-path="url(#clip220)" style="stroke:#000000; stroke-width:4; stroke-opacity:1; fill:none" points="
  1356.05,520.292 1368.01,520.292 
  "/>
<polyline clip-path="url(#clip220)" style="stroke:#000000; stroke-width:4; stroke-opacity:1; fill:none" points="
  1356.05,433.705 1368.01,433.705 
  "/>
<polyline clip-path="url(#clip220)" style="stroke:#000000; stroke-width:4; stroke-opacity:1; fill:none" points="
  1356.05,347.118 1368.01,347.118 
  "/>
<polyline clip-path="url(#clip220)" style="stroke:#000000; stroke-width:4; stroke-opacity:1; fill:none" points="
  1356.05,260.53 1368.01,260.53 
  "/>
<polyline clip-path="url(#clip220)" style="stroke:#000000; stroke-width:4; stroke-opacity:1; fill:none" points="
  1356.05,173.943 1368.01,173.943 
  "/>
<polyline clip-path="url(#clip220)" style="stroke:#000000; stroke-width:4; stroke-opacity:1; fill:none" points="
  1356.05,87.3557 1368.01,87.3557 
  "/>
<path clip-path="url(#clip220)" d="M 0 0 M1327.95 672.717 L1335.59 672.717 L1335.59 646.351 L1327.28 648.018 L1327.28 643.759 L1335.55 642.092 L1340.22 642.092 L1340.22 672.717 L1347.86 672.717 L1347.86 676.652 L1327.95 676.652 L1327.95 672.717 Z" fill="#000000" fill-rule="evenodd" fill-opacity="1" /><path clip-path="url(#clip220)" d="M 0 0 M1352.93 670.772 L1357.81 670.772 L1357.81 676.652 L1352.93 676.652 L1352.93 670.772 Z" fill="#000000" fill-rule="evenodd" fill-opacity="1" /><path clip-path="url(#clip220)" d="M 0 0 M1372.88 645.171 Q1369.27 645.171 1367.44 648.735 Q1365.64 652.277 1365.64 659.407 Q1365.64 666.513 1367.44 670.078 Q1369.27 673.619 1372.88 673.619 Q1376.52 673.619 1378.32 670.078 Q1380.15 666.513 1380.15 659.407 Q1380.15 652.277 1378.32 648.735 Q1376.52 645.171 1372.88 645.171 M1372.88 641.467 Q1378.69 641.467 1381.75 646.073 Q1384.83 650.657 1384.83 659.407 Q1384.83 668.133 1381.75 672.74 Q1378.69 677.323 1372.88 677.323 Q1367.07 677.323 1363.99 672.74 Q1360.94 668.133 1360.94 659.407 Q1360.94 650.657 1363.99 646.073 Q1367.07 641.467 1372.88 641.467 Z" fill="#000000" fill-rule="evenodd" fill-opacity="1" /><path clip-path="url(#clip220)" d="M 0 0 M1577.63 672.717 L1585.26 672.717 L1585.26 646.351 L1576.95 648.018 L1576.95 643.759 L1585.22 642.092 L1589.89 642.092 L1589.89 672.717 L1597.53 672.717 L1597.53 676.652 L1577.63 676.652 L1577.63 672.717 Z" fill="#000000" fill-rule="evenodd" fill-opacity="1" /><path clip-path="url(#clip220)" d="M 0 0 M1602.6 670.772 L1607.49 670.772 L1607.49 676.652 L1602.6 676.652 L1602.6 670.772 Z" fill="#000000" fill-rule="evenodd" fill-opacity="1" /><path clip-path="url(#clip220)" d="M 0 0 M1612.6 642.092 L1630.96 642.092 L1630.96 646.027 L1616.88 646.027 L1616.88 654.499 Q1617.9 654.152 1618.92 653.99 Q1619.94 653.805 1620.96 653.805 Q1626.75 653.805 1630.13 656.976 Q1633.5 660.147 1633.5 665.564 Q1633.5 671.143 1630.03 674.244 Q1626.56 677.323 1620.24 677.323 Q1618.07 677.323 1615.8 676.953 Q1613.55 676.582 1611.14 675.842 L1611.14 671.143 Q1613.23 672.277 1615.45 672.832 Q1617.67 673.388 1620.15 673.388 Q1624.15 673.388 1626.49 671.282 Q1628.83 669.175 1628.83 665.564 Q1628.83 661.953 1626.49 659.846 Q1624.15 657.74 1620.15 657.74 Q1618.27 657.74 1616.4 658.157 Q1614.55 658.573 1612.6 659.453 L1612.6 642.092 Z" fill="#000000" fill-rule="evenodd" fill-opacity="1" /><path clip-path="url(#clip220)" d="M 0 0 M1830.57 672.717 L1846.89 672.717 L1846.89 676.652 L1824.95 676.652 L1824.95 672.717 Q1827.61 669.962 1832.19 665.332 Q1836.8 660.68 1837.98 659.337 Q1840.23 656.814 1841.11 655.078 Q1842.01 653.319 1842.01 651.629 Q1842.01 648.874 1840.06 647.138 Q1838.14 645.402 1835.04 645.402 Q1832.84 645.402 1830.39 646.166 Q1827.96 646.93 1825.18 648.481 L1825.18 643.759 Q1828 642.624 1830.46 642.046 Q1832.91 641.467 1834.95 641.467 Q1840.32 641.467 1843.51 644.152 Q1846.71 646.837 1846.71 651.328 Q1846.71 653.458 1845.9 655.379 Q1845.11 657.277 1843 659.87 Q1842.43 660.541 1839.32 663.758 Q1836.22 666.953 1830.57 672.717 Z" fill="#000000" fill-rule="evenodd" fill-opacity="1" /><path clip-path="url(#clip220)" d="M 0 0 M1851.96 670.772 L1856.85 670.772 L1856.85 676.652 L1851.96 676.652 L1851.96 670.772 Z" fill="#000000" fill-rule="evenodd" fill-opacity="1" /><path clip-path="url(#clip220)" d="M 0 0 M1871.92 645.171 Q1868.31 645.171 1866.48 648.735 Q1864.67 652.277 1864.67 659.407 Q1864.67 666.513 1866.48 670.078 Q1868.31 673.619 1871.92 673.619 Q1875.55 673.619 1877.36 670.078 Q1879.19 666.513 1879.19 659.407 Q1879.19 652.277 1877.36 648.735 Q1875.55 645.171 1871.92 645.171 M1871.92 641.467 Q1877.73 641.467 1880.78 646.073 Q1883.86 650.657 1883.86 659.407 Q1883.86 668.133 1880.78 672.74 Q1877.73 677.323 1871.92 677.323 Q1866.11 677.323 1863.03 672.74 Q1859.97 668.133 1859.97 659.407 Q1859.97 650.657 1863.03 646.073 Q1866.11 641.467 1871.92 641.467 Z" fill="#000000" fill-rule="evenodd" fill-opacity="1" /><path clip-path="url(#clip220)" d="M 0 0 M2080.25 672.717 L2096.57 672.717 L2096.57 676.652 L2074.62 676.652 L2074.62 672.717 Q2077.28 669.962 2081.87 665.332 Q2086.47 660.68 2087.65 659.337 Q2089.9 656.814 2090.78 655.078 Q2091.68 653.319 2091.68 651.629 Q2091.68 648.874 2089.74 647.138 Q2087.82 645.402 2084.71 645.402 Q2082.52 645.402 2080.06 646.166 Q2077.63 646.93 2074.85 648.481 L2074.85 643.759 Q2077.68 642.624 2080.13 642.046 Q2082.59 641.467 2084.62 641.467 Q2089.99 641.467 2093.19 644.152 Q2096.38 646.837 2096.38 651.328 Q2096.38 653.458 2095.57 655.379 Q2094.78 657.277 2092.68 659.87 Q2092.1 660.541 2089 663.758 Q2085.9 666.953 2080.25 672.717 Z" fill="#000000" fill-rule="evenodd" fill-opacity="1" /><path clip-path="url(#clip220)" d="M 0 0 M2101.64 670.772 L2106.52 670.772 L2106.52 676.652 L2101.64 676.652 L2101.64 670.772 Z" fill="#000000" fill-rule="evenodd" fill-opacity="1" /><path clip-path="url(#clip220)" d="M 0 0 M2111.64 642.092 L2129.99 642.092 L2129.99 646.027 L2115.92 646.027 L2115.92 654.499 Q2116.94 654.152 2117.96 653.99 Q2118.97 653.805 2119.99 653.805 Q2125.78 653.805 2129.16 656.976 Q2132.54 660.147 2132.54 665.564 Q2132.54 671.143 2129.07 674.244 Q2125.59 677.323 2119.27 677.323 Q2117.1 677.323 2114.83 676.953 Q2112.59 676.582 2110.18 675.842 L2110.18 671.143 Q2112.26 672.277 2114.48 672.832 Q2116.71 673.388 2119.18 673.388 Q2123.19 673.388 2125.52 671.282 Q2127.86 669.175 2127.86 665.564 Q2127.86 661.953 2125.52 659.846 Q2123.19 657.74 2119.18 657.74 Q2117.31 657.74 2115.43 658.157 Q2113.58 658.573 2111.64 659.453 L2111.64 642.092 Z" fill="#000000" fill-rule="evenodd" fill-opacity="1" /><path clip-path="url(#clip220)" d="M 0 0 M2338.52 658.018 Q2341.88 658.735 2343.75 661.004 Q2345.65 663.272 2345.65 666.606 Q2345.65 671.721 2342.13 674.522 Q2338.61 677.323 2332.13 677.323 Q2329.96 677.323 2327.64 676.883 Q2325.35 676.467 2322.89 675.61 L2322.89 671.096 Q2324.84 672.231 2327.15 672.809 Q2329.47 673.388 2331.99 673.388 Q2336.39 673.388 2338.68 671.652 Q2341 669.916 2341 666.606 Q2341 663.55 2338.84 661.837 Q2336.71 660.101 2332.89 660.101 L2328.87 660.101 L2328.87 656.258 L2333.08 656.258 Q2336.53 656.258 2338.36 654.893 Q2340.19 653.504 2340.19 650.911 Q2340.19 648.249 2338.29 646.837 Q2336.41 645.402 2332.89 645.402 Q2330.97 645.402 2328.77 645.819 Q2326.58 646.235 2323.94 647.115 L2323.94 642.948 Q2326.6 642.208 2328.91 641.837 Q2331.25 641.467 2333.31 641.467 Q2338.64 641.467 2341.74 643.897 Q2344.84 646.305 2344.84 650.425 Q2344.84 653.295 2343.2 655.286 Q2341.55 657.254 2338.52 658.018 Z" fill="#000000" fill-rule="evenodd" fill-opacity="1" /><path clip-path="url(#clip220)" d="M 0 0 M2350.72 670.772 L2355.6 670.772 L2355.6 676.652 L2350.72 676.652 L2350.72 670.772 Z" fill="#000000" fill-rule="evenodd" fill-opacity="1" /><path clip-path="url(#clip220)" d="M 0 0 M2370.67 645.171 Q2367.06 645.171 2365.23 648.735 Q2363.43 652.277 2363.43 659.407 Q2363.43 666.513 2365.23 670.078 Q2367.06 673.619 2370.67 673.619 Q2374.31 673.619 2376.11 670.078 Q2377.94 666.513 2377.94 659.407 Q2377.94 652.277 2376.11 648.735 Q2374.31 645.171 2370.67 645.171 M2370.67 641.467 Q2376.48 641.467 2379.54 646.073 Q2382.62 650.657 2382.62 659.407 Q2382.62 668.133 2379.54 672.74 Q2376.48 677.323 2370.67 677.323 Q2364.86 677.323 2361.78 672.74 Q2358.73 668.133 2358.73 659.407 Q2358.73 650.657 2361.78 646.073 Q2364.86 641.467 2370.67 641.467 Z" fill="#000000" fill-rule="evenodd" fill-opacity="1" /><path clip-path="url(#clip220)" d="M 0 0 M1320.11 592.678 Q1316.5 592.678 1314.67 596.243 Q1312.86 599.785 1312.86 606.914 Q1312.86 614.021 1314.67 617.586 Q1316.5 621.127 1320.11 621.127 Q1323.74 621.127 1325.55 617.586 Q1327.38 614.021 1327.38 606.914 Q1327.38 599.785 1325.55 596.243 Q1323.74 592.678 1320.11 592.678 M1320.11 588.975 Q1325.92 588.975 1328.98 593.581 Q1332.05 598.165 1332.05 606.914 Q1332.05 615.641 1328.98 620.248 Q1325.92 624.831 1320.11 624.831 Q1314.3 624.831 1311.22 620.248 Q1308.17 615.641 1308.17 606.914 Q1308.17 598.165 1311.22 593.581 Q1314.3 588.975 1320.11 588.975 Z" fill="#000000" fill-rule="evenodd" fill-opacity="1" /><path clip-path="url(#clip220)" d="M 0 0 M1312.15 533.637 L1319.79 533.637 L1319.79 507.272 L1311.48 508.938 L1311.48 504.679 L1319.74 503.012 L1324.42 503.012 L1324.42 533.637 L1332.05 533.637 L1332.05 537.572 L1312.15 537.572 L1312.15 533.637 Z" fill="#000000" fill-rule="evenodd" fill-opacity="1" /><path clip-path="url(#clip220)" d="M 0 0 M1315.73 447.05 L1332.05 447.05 L1332.05 450.985 L1310.11 450.985 L1310.11 447.05 Q1312.77 444.295 1317.36 439.666 Q1321.96 435.013 1323.14 433.67 Q1325.39 431.147 1326.27 429.411 Q1327.17 427.652 1327.17 425.962 Q1327.17 423.207 1325.23 421.471 Q1323.3 419.735 1320.2 419.735 Q1318 419.735 1315.55 420.499 Q1313.12 421.263 1310.34 422.814 L1310.34 418.092 Q1313.17 416.957 1315.62 416.379 Q1318.07 415.8 1320.11 415.8 Q1325.48 415.8 1328.67 418.485 Q1331.87 421.17 1331.87 425.661 Q1331.87 427.791 1331.06 429.712 Q1330.27 431.61 1328.17 434.203 Q1327.59 434.874 1324.48 438.092 Q1321.38 441.286 1315.73 447.05 Z" fill="#000000" fill-rule="evenodd" fill-opacity="1" /><path clip-path="url(#clip220)" d="M 0 0 M1324.92 345.764 Q1328.28 346.481 1330.16 348.75 Q1332.05 351.018 1332.05 354.351 Q1332.05 359.467 1328.54 362.268 Q1325.02 365.069 1318.54 365.069 Q1316.36 365.069 1314.05 364.629 Q1311.75 364.213 1309.3 363.356 L1309.3 358.842 Q1311.24 359.976 1313.56 360.555 Q1315.87 361.134 1318.4 361.134 Q1322.8 361.134 1325.09 359.398 Q1327.4 357.662 1327.4 354.351 Q1327.4 351.296 1325.25 349.583 Q1323.12 347.847 1319.3 347.847 L1315.27 347.847 L1315.27 344.004 L1319.48 344.004 Q1322.93 344.004 1324.76 342.639 Q1326.59 341.25 1326.59 338.657 Q1326.59 335.995 1324.69 334.583 Q1322.82 333.148 1319.3 333.148 Q1317.38 333.148 1315.18 333.565 Q1312.98 333.981 1310.34 334.861 L1310.34 330.694 Q1313 329.953 1315.32 329.583 Q1317.66 329.213 1319.72 329.213 Q1325.04 329.213 1328.14 331.643 Q1331.24 334.051 1331.24 338.171 Q1331.24 341.041 1329.6 343.032 Q1327.96 345 1324.92 345.764 Z" fill="#000000" fill-rule="evenodd" fill-opacity="1" /><path clip-path="url(#clip220)" d="M 0 0 M1322.47 247.324 L1310.67 265.773 L1322.47 265.773 L1322.47 247.324 M1321.24 243.25 L1327.12 243.25 L1327.12 265.773 L1332.05 265.773 L1332.05 269.662 L1327.12 269.662 L1327.12 277.81 L1322.47 277.81 L1322.47 269.662 L1306.87 269.662 L1306.87 265.148 L1321.24 243.25 Z" fill="#000000" fill-rule="evenodd" fill-opacity="1" /><path clip-path="url(#clip220)" d="M 0 0 M1311.15 156.663 L1329.51 156.663 L1329.51 160.598 L1315.43 160.598 L1315.43 169.07 Q1316.45 168.723 1317.47 168.561 Q1318.49 168.376 1319.51 168.376 Q1325.3 168.376 1328.67 171.547 Q1332.05 174.718 1332.05 180.135 Q1332.05 185.714 1328.58 188.816 Q1325.11 191.894 1318.79 191.894 Q1316.61 191.894 1314.35 191.524 Q1312.1 191.154 1309.69 190.413 L1309.69 185.714 Q1311.78 186.848 1314 187.404 Q1316.22 187.959 1318.7 187.959 Q1322.7 187.959 1325.04 185.853 Q1327.38 183.746 1327.38 180.135 Q1327.38 176.524 1325.04 174.418 Q1322.7 172.311 1318.7 172.311 Q1316.82 172.311 1314.95 172.728 Q1313.1 173.144 1311.15 174.024 L1311.15 156.663 Z" fill="#000000" fill-rule="evenodd" fill-opacity="1" /><path clip-path="url(#clip220)" d="M 0 0 M1320.53 85.4923 Q1317.38 85.4923 1315.53 87.645 Q1313.7 89.7978 1313.7 93.5478 Q1313.7 97.2746 1315.53 99.4505 Q1317.38 101.603 1320.53 101.603 Q1323.67 101.603 1325.5 99.4505 Q1327.36 97.2746 1327.36 93.5478 Q1327.36 89.7978 1325.5 87.645 Q1323.67 85.4923 1320.53 85.4923 M1329.81 70.8396 L1329.81 75.0988 Q1328.05 74.2655 1326.24 73.8257 Q1324.46 73.3859 1322.7 73.3859 Q1318.07 73.3859 1315.62 76.5108 Q1313.19 79.6358 1312.84 85.9552 Q1314.21 83.9414 1316.27 82.8765 Q1318.33 81.7886 1320.8 81.7886 Q1326.01 81.7886 1329.02 84.9599 Q1332.05 88.108 1332.05 93.5478 Q1332.05 98.8718 1328.91 102.089 Q1325.76 105.307 1320.53 105.307 Q1314.53 105.307 1311.36 100.724 Q1308.19 96.1172 1308.19 87.3904 Q1308.19 79.196 1312.08 74.3349 Q1315.97 69.4507 1322.52 69.4507 Q1324.28 69.4507 1326.06 69.7979 Q1327.86 70.1451 1329.81 70.8396 Z" fill="#000000" fill-rule="evenodd" fill-opacity="1" /><path clip-path="url(#clip220)" d="M 0 0 M1693.15 769.603 L1693.15 720.396 L1699 720.396 L1699 742.549 Q1699 747.164 1701.2 749.519 Q1703.39 751.874 1707.69 751.874 Q1712.4 751.874 1714.76 749.201 Q1717.14 746.527 1717.14 741.18 L1717.14 720.396 L1723 720.396 L1723 747.832 Q1723 749.742 1723.54 750.665 Q1724.11 751.556 1725.29 751.556 Q1725.58 751.556 1726.09 751.397 Q1726.6 751.206 1727.49 750.824 L1727.49 755.535 Q1726.18 756.267 1725.01 756.617 Q1723.86 756.967 1722.75 756.967 Q1720.55 756.967 1719.25 755.726 Q1717.94 754.484 1717.46 751.938 Q1715.87 754.452 1713.55 755.726 Q1711.26 756.967 1708.14 756.967 Q1704.89 756.967 1702.6 755.726 Q1700.34 754.484 1699 752.002 L1699 769.603 L1693.15 769.603 Z" fill="#000000" fill-rule="evenodd" fill-opacity="1" /><path clip-path="url(#clip220)" d="M 0 0 M1760.02 750.697 L1760.02 769.603 L1754.13 769.603 L1754.13 720.396 L1760.02 720.396 L1760.02 725.807 Q1761.86 722.624 1764.66 721.096 Q1767.5 719.537 1771.41 719.537 Q1777.91 719.537 1781.95 724.693 Q1786.02 729.849 1786.02 738.252 Q1786.02 746.654 1781.95 751.811 Q1777.91 756.967 1771.41 756.967 Q1767.5 756.967 1764.66 755.439 Q1761.86 753.88 1760.02 750.697 M1779.94 738.252 Q1779.94 731.791 1777.27 728.13 Q1774.63 724.438 1769.98 724.438 Q1765.33 724.438 1762.66 728.13 Q1760.02 731.791 1760.02 738.252 Q1760.02 744.713 1762.66 748.405 Q1765.33 752.065 1769.98 752.065 Q1774.63 752.065 1777.27 748.405 Q1779.94 744.713 1779.94 738.252 Z" fill="#000000" fill-rule="evenodd" fill-opacity="1" /><path clip-path="url(#clip220)" d="M 0 0 M1805.98 724.502 Q1801.27 724.502 1798.53 728.194 Q1795.79 731.854 1795.79 738.252 Q1795.79 744.649 1798.5 748.341 Q1801.24 752.002 1805.98 752.002 Q1810.66 752.002 1813.39 748.31 Q1816.13 744.617 1816.13 738.252 Q1816.13 731.918 1813.39 728.226 Q1810.66 724.502 1805.98 724.502 M1805.98 719.537 Q1813.62 719.537 1817.98 724.502 Q1822.34 729.467 1822.34 738.252 Q1822.34 747.005 1817.98 752.002 Q1813.62 756.967 1805.98 756.967 Q1798.31 756.967 1793.95 752.002 Q1789.62 747.005 1789.62 738.252 Q1789.62 729.467 1793.95 724.502 Q1798.31 719.537 1805.98 719.537 Z" fill="#000000" fill-rule="evenodd" fill-opacity="1" /><path clip-path="url(#clip220)" d="M 0 0 M1851.21 721.446 L1851.21 726.984 Q1848.72 725.711 1846.05 725.075 Q1843.38 724.438 1840.51 724.438 Q1836.15 724.438 1833.96 725.775 Q1831.79 727.112 1831.79 729.785 Q1831.79 731.822 1833.35 733 Q1834.91 734.146 1839.62 735.196 L1841.63 735.642 Q1847.86 736.979 1850.47 739.429 Q1853.12 741.848 1853.12 746.209 Q1853.12 751.174 1849.17 754.07 Q1845.25 756.967 1838.38 756.967 Q1835.51 756.967 1832.4 756.394 Q1829.31 755.853 1825.87 754.739 L1825.87 748.691 Q1829.12 750.378 1832.27 751.238 Q1835.42 752.065 1838.51 752.065 Q1842.64 752.065 1844.87 750.665 Q1847.1 749.233 1847.1 746.654 Q1847.1 744.267 1845.48 742.994 Q1843.89 741.721 1838.44 740.543 L1836.41 740.066 Q1830.96 738.92 1828.54 736.565 Q1826.13 734.178 1826.13 730.04 Q1826.13 725.011 1829.69 722.274 Q1833.26 719.537 1839.81 719.537 Q1843.06 719.537 1845.92 720.014 Q1848.79 720.491 1851.21 721.446 Z" fill="#000000" fill-rule="evenodd" fill-opacity="1" /><path clip-path="url(#clip220)" d="M 0 0 M1865.05 710.274 L1865.05 720.396 L1877.11 720.396 L1877.11 724.947 L1865.05 724.947 L1865.05 744.299 Q1865.05 748.66 1866.23 749.901 Q1867.44 751.142 1871.1 751.142 L1877.11 751.142 L1877.11 756.044 L1871.1 756.044 Q1864.32 756.044 1861.74 753.529 Q1859.16 750.983 1859.16 744.299 L1859.16 724.947 L1854.87 724.947 L1854.87 720.396 L1859.16 720.396 L1859.16 710.274 L1865.05 710.274 Z" fill="#000000" fill-rule="evenodd" fill-opacity="1" /><path clip-path="url(#clip220)" d="M 0 0 M1913.75 736.756 L1913.75 739.62 L1886.82 739.62 Q1887.2 745.668 1890.45 748.851 Q1893.73 752.002 1899.55 752.002 Q1902.93 752.002 1906.08 751.174 Q1909.26 750.347 1912.38 748.691 L1912.38 754.23 Q1909.23 755.566 1905.92 756.267 Q1902.61 756.967 1899.2 756.967 Q1890.67 756.967 1885.68 752.002 Q1880.71 747.036 1880.71 738.57 Q1880.71 729.817 1885.42 724.693 Q1890.16 719.537 1898.19 719.537 Q1905.38 719.537 1909.55 724.183 Q1913.75 728.799 1913.75 736.756 M1907.89 735.037 Q1907.83 730.231 1905.19 727.366 Q1902.58 724.502 1898.25 724.502 Q1893.35 724.502 1890.39 727.271 Q1887.46 730.04 1887.01 735.069 L1907.89 735.037 Z" fill="#000000" fill-rule="evenodd" fill-opacity="1" /><path clip-path="url(#clip220)" d="M 0 0 M1940.55 725.87 Q1939.56 725.297 1938.38 725.043 Q1937.24 724.756 1935.84 724.756 Q1930.87 724.756 1928.2 728.003 Q1925.56 731.218 1925.56 737.265 L1925.56 756.044 L1919.67 756.044 L1919.67 720.396 L1925.56 720.396 L1925.56 725.934 Q1927.4 722.688 1930.36 721.128 Q1933.32 719.537 1937.56 719.537 Q1938.16 719.537 1938.89 719.632 Q1939.63 719.696 1940.52 719.855 L1940.55 725.87 Z" fill="#000000" fill-rule="evenodd" fill-opacity="1" /><path clip-path="url(#clip220)" d="M 0 0 M1946.69 720.396 L1952.55 720.396 L1952.55 756.044 L1946.69 756.044 L1946.69 720.396 M1946.69 706.519 L1952.55 706.519 L1952.55 713.935 L1946.69 713.935 L1946.69 706.519 Z" fill="#000000" fill-rule="evenodd" fill-opacity="1" /><path clip-path="url(#clip220)" d="M 0 0 M1972.5 724.502 Q1967.79 724.502 1965.06 728.194 Q1962.32 731.854 1962.32 738.252 Q1962.32 744.649 1965.03 748.341 Q1967.76 752.002 1972.5 752.002 Q1977.18 752.002 1979.92 748.31 Q1982.66 744.617 1982.66 738.252 Q1982.66 731.918 1979.92 728.226 Q1977.18 724.502 1972.5 724.502 M1972.5 719.537 Q1980.14 719.537 1984.5 724.502 Q1988.86 729.467 1988.86 738.252 Q1988.86 747.005 1984.5 752.002 Q1980.14 756.967 1972.5 756.967 Q1964.83 756.967 1960.47 752.002 Q1956.14 747.005 1956.14 738.252 Q1956.14 729.467 1960.47 724.502 Q1964.83 719.537 1972.5 719.537 Z" fill="#000000" fill-rule="evenodd" fill-opacity="1" /><path clip-path="url(#clip220)" d="M 0 0 M2015.66 725.87 Q2014.68 725.297 2013.5 725.043 Q2012.35 724.756 2010.95 724.756 Q2005.99 724.756 2003.31 728.003 Q2000.67 731.218 2000.67 737.265 L2000.67 756.044 L1994.78 756.044 L1994.78 720.396 L2000.67 720.396 L2000.67 725.934 Q2002.52 722.688 2005.48 721.128 Q2008.44 719.537 2012.67 719.537 Q2013.28 719.537 2014.01 719.632 Q2014.74 719.696 2015.63 719.855 L2015.66 725.87 Z" fill="#000000" fill-rule="evenodd" fill-opacity="1" /><polyline clip-path="url(#clip223)" style="stroke:#009af9; stroke-width:8; stroke-opacity:1; fill:none" points="
  1794.6,606.88 1794.6,589.562 1804.57,589.562 1804.57,360.106 1814.54,360.106 1814.54,186.931 1824.5,186.931 1824.5,89.5204 1834.47,89.5204 1834.47,63.5442 
  1844.44,63.5442 1844.44,93.8497 1854.41,93.8497 1854.41,67.8735 1864.37,67.8735 1864.37,102.508 1874.34,102.508 1874.34,197.755 1884.31,197.755 1884.31,191.261 
  1894.27,191.261 1894.27,403.4 1904.24,403.4 1904.24,606.88 
  "/>
<path clip-path="url(#clip220)" d="
M148.334 1423.18 L1145.04 1423.18 L1145.04 847.244 L148.334 847.244  Z
  " fill="#ffffff" fill-rule="evenodd" fill-opacity="1"/>
<defs>
  <clipPath id="clip224">
    <rect x="148" y="847" width="998" height="577"/>
  </clipPath>
</defs>
<polyline clip-path="url(#clip224)" style="stroke:#000000; stroke-width:2; stroke-opacity:0.1; fill:none" points="
  148.334,1423.18 148.334,847.244 
  "/>
<polyline clip-path="url(#clip224)" style="stroke:#000000; stroke-width:2; stroke-opacity:0.1; fill:none" points="
  314.451,1423.18 314.451,847.244 
  "/>
<polyline clip-path="url(#clip224)" style="stroke:#000000; stroke-width:2; stroke-opacity:0.1; fill:none" points="
  480.568,1423.18 480.568,847.244 
  "/>
<polyline clip-path="url(#clip224)" style="stroke:#000000; stroke-width:2; stroke-opacity:0.1; fill:none" points="
  646.685,1423.18 646.685,847.244 
  "/>
<polyline clip-path="url(#clip224)" style="stroke:#000000; stroke-width:2; stroke-opacity:0.1; fill:none" points="
  812.802,1423.18 812.802,847.244 
  "/>
<polyline clip-path="url(#clip224)" style="stroke:#000000; stroke-width:2; stroke-opacity:0.1; fill:none" points="
  978.919,1423.18 978.919,847.244 
  "/>
<polyline clip-path="url(#clip224)" style="stroke:#000000; stroke-width:2; stroke-opacity:0.1; fill:none" points="
  148.334,1406.88 1145.04,1406.88 
  "/>
<polyline clip-path="url(#clip224)" style="stroke:#000000; stroke-width:2; stroke-opacity:0.1; fill:none" points="
  148.334,1262.47 1145.04,1262.47 
  "/>
<polyline clip-path="url(#clip224)" style="stroke:#000000; stroke-width:2; stroke-opacity:0.1; fill:none" points="
  148.334,1118.06 1145.04,1118.06 
  "/>
<polyline clip-path="url(#clip224)" style="stroke:#000000; stroke-width:2; stroke-opacity:0.1; fill:none" points="
  148.334,973.655 1145.04,973.655 
  "/>
<polyline clip-path="url(#clip220)" style="stroke:#000000; stroke-width:4; stroke-opacity:1; fill:none" points="
  148.334,1423.18 1145.04,1423.18 
  "/>
<polyline clip-path="url(#clip220)" style="stroke:#000000; stroke-width:4; stroke-opacity:1; fill:none" points="
  148.334,1423.18 148.334,847.244 
  "/>
<polyline clip-path="url(#clip220)" style="stroke:#000000; stroke-width:4; stroke-opacity:1; fill:none" points="
  148.334,1423.18 148.334,1416.27 
  "/>
<polyline clip-path="url(#clip220)" style="stroke:#000000; stroke-width:4; stroke-opacity:1; fill:none" points="
  314.451,1423.18 314.451,1416.27 
  "/>
<polyline clip-path="url(#clip220)" style="stroke:#000000; stroke-width:4; stroke-opacity:1; fill:none" points="
  480.568,1423.18 480.568,1416.27 
  "/>
<polyline clip-path="url(#clip220)" style="stroke:#000000; stroke-width:4; stroke-opacity:1; fill:none" points="
  646.685,1423.18 646.685,1416.27 
  "/>
<polyline clip-path="url(#clip220)" style="stroke:#000000; stroke-width:4; stroke-opacity:1; fill:none" points="
  812.802,1423.18 812.802,1416.27 
  "/>
<polyline clip-path="url(#clip220)" style="stroke:#000000; stroke-width:4; stroke-opacity:1; fill:none" points="
  978.919,1423.18 978.919,1416.27 
  "/>
<polyline clip-path="url(#clip220)" style="stroke:#000000; stroke-width:4; stroke-opacity:1; fill:none" points="
  148.334,1406.88 160.295,1406.88 
  "/>
<polyline clip-path="url(#clip220)" style="stroke:#000000; stroke-width:4; stroke-opacity:1; fill:none" points="
  148.334,1262.47 160.295,1262.47 
  "/>
<polyline clip-path="url(#clip220)" style="stroke:#000000; stroke-width:4; stroke-opacity:1; fill:none" points="
  148.334,1118.06 160.295,1118.06 
  "/>
<polyline clip-path="url(#clip220)" style="stroke:#000000; stroke-width:4; stroke-opacity:1; fill:none" points="
  148.334,973.655 160.295,973.655 
  "/>
<path clip-path="url(#clip220)" d="M 0 0 M116.344 1445.17 Q112.733 1445.17 110.904 1448.74 Q109.098 1452.28 109.098 1459.41 Q109.098 1466.51 110.904 1470.08 Q112.733 1473.62 116.344 1473.62 Q119.978 1473.62 121.784 1470.08 Q123.612 1466.51 123.612 1459.41 Q123.612 1452.28 121.784 1448.74 Q119.978 1445.17 116.344 1445.17 M116.344 1441.47 Q122.154 1441.47 125.21 1446.07 Q128.288 1450.66 128.288 1459.41 Q128.288 1468.13 125.21 1472.74 Q122.154 1477.32 116.344 1477.32 Q110.534 1477.32 107.455 1472.74 Q104.399 1468.13 104.399 1459.41 Q104.399 1450.66 107.455 1446.07 Q110.534 1441.47 116.344 1441.47 Z" fill="#000000" fill-rule="evenodd" fill-opacity="1" /><path clip-path="url(#clip220)" d="M 0 0 M133.358 1470.77 L138.242 1470.77 L138.242 1476.65 L133.358 1476.65 L133.358 1470.77 Z" fill="#000000" fill-rule="evenodd" fill-opacity="1" /><path clip-path="url(#clip220)" d="M 0 0 M153.311 1445.17 Q149.7 1445.17 147.871 1448.74 Q146.066 1452.28 146.066 1459.41 Q146.066 1466.51 147.871 1470.08 Q149.7 1473.62 153.311 1473.62 Q156.945 1473.62 158.751 1470.08 Q160.58 1466.51 160.58 1459.41 Q160.58 1452.28 158.751 1448.74 Q156.945 1445.17 153.311 1445.17 M153.311 1441.47 Q159.121 1441.47 162.177 1446.07 Q165.256 1450.66 165.256 1459.41 Q165.256 1468.13 162.177 1472.74 Q159.121 1477.32 153.311 1477.32 Q147.501 1477.32 144.422 1472.74 Q141.367 1468.13 141.367 1459.41 Q141.367 1450.66 144.422 1446.07 Q147.501 1441.47 153.311 1441.47 Z" fill="#000000" fill-rule="evenodd" fill-opacity="1" /><path clip-path="url(#clip220)" d="M 0 0 M180.325 1445.17 Q176.714 1445.17 174.885 1448.74 Q173.08 1452.28 173.08 1459.41 Q173.08 1466.51 174.885 1470.08 Q176.714 1473.62 180.325 1473.62 Q183.959 1473.62 185.765 1470.08 Q187.593 1466.51 187.593 1459.41 Q187.593 1452.28 185.765 1448.74 Q183.959 1445.17 180.325 1445.17 M180.325 1441.47 Q186.135 1441.47 189.191 1446.07 Q192.269 1450.66 192.269 1459.41 Q192.269 1468.13 189.191 1472.74 Q186.135 1477.32 180.325 1477.32 Q174.515 1477.32 171.436 1472.74 Q168.381 1468.13 168.381 1459.41 Q168.381 1450.66 171.436 1446.07 Q174.515 1441.47 180.325 1441.47 Z" fill="#000000" fill-rule="evenodd" fill-opacity="1" /><path clip-path="url(#clip220)" d="M 0 0 M282.958 1445.17 Q279.347 1445.17 277.519 1448.74 Q275.713 1452.28 275.713 1459.41 Q275.713 1466.51 277.519 1470.08 Q279.347 1473.62 282.958 1473.62 Q286.593 1473.62 288.398 1470.08 Q290.227 1466.51 290.227 1459.41 Q290.227 1452.28 288.398 1448.74 Q286.593 1445.17 282.958 1445.17 M282.958 1441.47 Q288.769 1441.47 291.824 1446.07 Q294.903 1450.66 294.903 1459.41 Q294.903 1468.13 291.824 1472.74 Q288.769 1477.32 282.958 1477.32 Q277.148 1477.32 274.07 1472.74 Q271.014 1468.13 271.014 1459.41 Q271.014 1450.66 274.07 1446.07 Q277.148 1441.47 282.958 1441.47 Z" fill="#000000" fill-rule="evenodd" fill-opacity="1" /><path clip-path="url(#clip220)" d="M 0 0 M299.972 1470.77 L304.856 1470.77 L304.856 1476.65 L299.972 1476.65 L299.972 1470.77 Z" fill="#000000" fill-rule="evenodd" fill-opacity="1" /><path clip-path="url(#clip220)" d="M 0 0 M319.926 1445.17 Q316.315 1445.17 314.486 1448.74 Q312.681 1452.28 312.681 1459.41 Q312.681 1466.51 314.486 1470.08 Q316.315 1473.62 319.926 1473.62 Q323.56 1473.62 325.366 1470.08 Q327.194 1466.51 327.194 1459.41 Q327.194 1452.28 325.366 1448.74 Q323.56 1445.17 319.926 1445.17 M319.926 1441.47 Q325.736 1441.47 328.792 1446.07 Q331.87 1450.66 331.87 1459.41 Q331.87 1468.13 328.792 1472.74 Q325.736 1477.32 319.926 1477.32 Q314.116 1477.32 311.037 1472.74 Q307.981 1468.13 307.981 1459.41 Q307.981 1450.66 311.037 1446.07 Q314.116 1441.47 319.926 1441.47 Z" fill="#000000" fill-rule="evenodd" fill-opacity="1" /><path clip-path="url(#clip220)" d="M 0 0 M336.986 1442.09 L355.342 1442.09 L355.342 1446.03 L341.268 1446.03 L341.268 1454.5 Q342.287 1454.15 343.305 1453.99 Q344.324 1453.8 345.342 1453.8 Q351.129 1453.8 354.509 1456.98 Q357.889 1460.15 357.889 1465.56 Q357.889 1471.14 354.416 1474.24 Q350.944 1477.32 344.625 1477.32 Q342.449 1477.32 340.18 1476.95 Q337.935 1476.58 335.528 1475.84 L335.528 1471.14 Q337.611 1472.28 339.833 1472.83 Q342.055 1473.39 344.532 1473.39 Q348.537 1473.39 350.875 1471.28 Q353.213 1469.18 353.213 1465.56 Q353.213 1461.95 350.875 1459.85 Q348.537 1457.74 344.532 1457.74 Q342.657 1457.74 340.782 1458.16 Q338.93 1458.57 336.986 1459.45 L336.986 1442.09 Z" fill="#000000" fill-rule="evenodd" fill-opacity="1" /><path clip-path="url(#clip220)" d="M 0 0 M449.191 1445.17 Q445.58 1445.17 443.751 1448.74 Q441.946 1452.28 441.946 1459.41 Q441.946 1466.51 443.751 1470.08 Q445.58 1473.62 449.191 1473.62 Q452.825 1473.62 454.631 1470.08 Q456.46 1466.51 456.46 1459.41 Q456.46 1452.28 454.631 1448.74 Q452.825 1445.17 449.191 1445.17 M449.191 1441.47 Q455.001 1441.47 458.057 1446.07 Q461.136 1450.66 461.136 1459.41 Q461.136 1468.13 458.057 1472.74 Q455.001 1477.32 449.191 1477.32 Q443.381 1477.32 440.302 1472.74 Q437.247 1468.13 437.247 1459.41 Q437.247 1450.66 440.302 1446.07 Q443.381 1441.47 449.191 1441.47 Z" fill="#000000" fill-rule="evenodd" fill-opacity="1" /><path clip-path="url(#clip220)" d="M 0 0 M466.205 1470.77 L471.089 1470.77 L471.089 1476.65 L466.205 1476.65 L466.205 1470.77 Z" fill="#000000" fill-rule="evenodd" fill-opacity="1" /><path clip-path="url(#clip220)" d="M 0 0 M476.969 1472.72 L484.608 1472.72 L484.608 1446.35 L476.297 1448.02 L476.297 1443.76 L484.561 1442.09 L489.237 1442.09 L489.237 1472.72 L496.876 1472.72 L496.876 1476.65 L476.969 1476.65 L476.969 1472.72 Z" fill="#000000" fill-rule="evenodd" fill-opacity="1" /><path clip-path="url(#clip220)" d="M 0 0 M511.945 1445.17 Q508.334 1445.17 506.506 1448.74 Q504.7 1452.28 504.7 1459.41 Q504.7 1466.51 506.506 1470.08 Q508.334 1473.62 511.945 1473.62 Q515.58 1473.62 517.385 1470.08 Q519.214 1466.51 519.214 1459.41 Q519.214 1452.28 517.385 1448.74 Q515.58 1445.17 511.945 1445.17 M511.945 1441.47 Q517.756 1441.47 520.811 1446.07 Q523.89 1450.66 523.89 1459.41 Q523.89 1468.13 520.811 1472.74 Q517.756 1477.32 511.945 1477.32 Q506.135 1477.32 503.057 1472.74 Q500.001 1468.13 500.001 1459.41 Q500.001 1450.66 503.057 1446.07 Q506.135 1441.47 511.945 1441.47 Z" fill="#000000" fill-rule="evenodd" fill-opacity="1" /><path clip-path="url(#clip220)" d="M 0 0 M615.806 1445.17 Q612.195 1445.17 610.366 1448.74 Q608.56 1452.28 608.56 1459.41 Q608.56 1466.51 610.366 1470.08 Q612.195 1473.62 615.806 1473.62 Q619.44 1473.62 621.246 1470.08 Q623.074 1466.51 623.074 1459.41 Q623.074 1452.28 621.246 1448.74 Q619.44 1445.17 615.806 1445.17 M615.806 1441.47 Q621.616 1441.47 624.671 1446.07 Q627.75 1450.66 627.75 1459.41 Q627.75 1468.13 624.671 1472.74 Q621.616 1477.32 615.806 1477.32 Q609.996 1477.32 606.917 1472.74 Q603.861 1468.13 603.861 1459.41 Q603.861 1450.66 606.917 1446.07 Q609.996 1441.47 615.806 1441.47 Z" fill="#000000" fill-rule="evenodd" fill-opacity="1" /><path clip-path="url(#clip220)" d="M 0 0 M632.82 1470.77 L637.704 1470.77 L637.704 1476.65 L632.82 1476.65 L632.82 1470.77 Z" fill="#000000" fill-rule="evenodd" fill-opacity="1" /><path clip-path="url(#clip220)" d="M 0 0 M643.583 1472.72 L651.222 1472.72 L651.222 1446.35 L642.912 1448.02 L642.912 1443.76 L651.176 1442.09 L655.852 1442.09 L655.852 1472.72 L663.491 1472.72 L663.491 1476.65 L643.583 1476.65 L643.583 1472.72 Z" fill="#000000" fill-rule="evenodd" fill-opacity="1" /><path clip-path="url(#clip220)" d="M 0 0 M668.606 1442.09 L686.963 1442.09 L686.963 1446.03 L672.889 1446.03 L672.889 1454.5 Q673.907 1454.15 674.926 1453.99 Q675.944 1453.8 676.963 1453.8 Q682.75 1453.8 686.129 1456.98 Q689.509 1460.15 689.509 1465.56 Q689.509 1471.14 686.037 1474.24 Q682.565 1477.32 676.245 1477.32 Q674.069 1477.32 671.801 1476.95 Q669.555 1476.58 667.148 1475.84 L667.148 1471.14 Q669.231 1472.28 671.454 1472.83 Q673.676 1473.39 676.153 1473.39 Q680.157 1473.39 682.495 1471.28 Q684.833 1469.18 684.833 1465.56 Q684.833 1461.95 682.495 1459.85 Q680.157 1457.74 676.153 1457.74 Q674.278 1457.74 672.403 1458.16 Q670.551 1458.57 668.606 1459.45 L668.606 1442.09 Z" fill="#000000" fill-rule="evenodd" fill-opacity="1" /><path clip-path="url(#clip220)" d="M 0 0 M781.61 1445.17 Q777.999 1445.17 776.17 1448.74 Q774.365 1452.28 774.365 1459.41 Q774.365 1466.51 776.17 1470.08 Q777.999 1473.62 781.61 1473.62 Q785.244 1473.62 787.05 1470.08 Q788.879 1466.51 788.879 1459.41 Q788.879 1452.28 787.05 1448.74 Q785.244 1445.17 781.61 1445.17 M781.61 1441.47 Q787.42 1441.47 790.476 1446.07 Q793.555 1450.66 793.555 1459.41 Q793.555 1468.13 790.476 1472.74 Q787.42 1477.32 781.61 1477.32 Q775.8 1477.32 772.721 1472.74 Q769.666 1468.13 769.666 1459.41 Q769.666 1450.66 772.721 1446.07 Q775.8 1441.47 781.61 1441.47 Z" fill="#000000" fill-rule="evenodd" fill-opacity="1" /><path clip-path="url(#clip220)" d="M 0 0 M798.624 1470.77 L803.508 1470.77 L803.508 1476.65 L798.624 1476.65 L798.624 1470.77 Z" fill="#000000" fill-rule="evenodd" fill-opacity="1" /><path clip-path="url(#clip220)" d="M 0 0 M812.605 1472.72 L828.925 1472.72 L828.925 1476.65 L806.98 1476.65 L806.98 1472.72 Q809.642 1469.96 814.226 1465.33 Q818.832 1460.68 820.013 1459.34 Q822.258 1456.81 823.138 1455.08 Q824.041 1453.32 824.041 1451.63 Q824.041 1448.87 822.096 1447.14 Q820.175 1445.4 817.073 1445.4 Q814.874 1445.4 812.42 1446.17 Q809.99 1446.93 807.212 1448.48 L807.212 1443.76 Q810.036 1442.62 812.49 1442.05 Q814.943 1441.47 816.98 1441.47 Q822.351 1441.47 825.545 1444.15 Q828.74 1446.84 828.74 1451.33 Q828.74 1453.46 827.929 1455.38 Q827.142 1457.28 825.036 1459.87 Q824.457 1460.54 821.355 1463.76 Q818.254 1466.95 812.605 1472.72 Z" fill="#000000" fill-rule="evenodd" fill-opacity="1" /><path clip-path="url(#clip220)" d="M 0 0 M843.994 1445.17 Q840.383 1445.17 838.554 1448.74 Q836.749 1452.28 836.749 1459.41 Q836.749 1466.51 838.554 1470.08 Q840.383 1473.62 843.994 1473.62 Q847.628 1473.62 849.434 1470.08 Q851.263 1466.51 851.263 1459.41 Q851.263 1452.28 849.434 1448.74 Q847.628 1445.17 843.994 1445.17 M843.994 1441.47 Q849.804 1441.47 852.86 1446.07 Q855.938 1450.66 855.938 1459.41 Q855.938 1468.13 852.86 1472.74 Q849.804 1477.32 843.994 1477.32 Q838.184 1477.32 835.105 1472.74 Q832.05 1468.13 832.05 1459.41 Q832.05 1450.66 835.105 1446.07 Q838.184 1441.47 843.994 1441.47 Z" fill="#000000" fill-rule="evenodd" fill-opacity="1" /><path clip-path="url(#clip220)" d="M 0 0 M948.225 1445.17 Q944.614 1445.17 942.785 1448.74 Q940.979 1452.28 940.979 1459.41 Q940.979 1466.51 942.785 1470.08 Q944.614 1473.62 948.225 1473.62 Q951.859 1473.62 953.665 1470.08 Q955.493 1466.51 955.493 1459.41 Q955.493 1452.28 953.665 1448.74 Q951.859 1445.17 948.225 1445.17 M948.225 1441.47 Q954.035 1441.47 957.091 1446.07 Q960.169 1450.66 960.169 1459.41 Q960.169 1468.13 957.091 1472.74 Q954.035 1477.32 948.225 1477.32 Q942.415 1477.32 939.336 1472.74 Q936.28 1468.13 936.28 1459.41 Q936.28 1450.66 939.336 1446.07 Q942.415 1441.47 948.225 1441.47 Z" fill="#000000" fill-rule="evenodd" fill-opacity="1" /><path clip-path="url(#clip220)" d="M 0 0 M965.239 1470.77 L970.123 1470.77 L970.123 1476.65 L965.239 1476.65 L965.239 1470.77 Z" fill="#000000" fill-rule="evenodd" fill-opacity="1" /><path clip-path="url(#clip220)" d="M 0 0 M979.22 1472.72 L995.539 1472.72 L995.539 1476.65 L973.595 1476.65 L973.595 1472.72 Q976.257 1469.96 980.84 1465.33 Q985.447 1460.68 986.627 1459.34 Q988.873 1456.81 989.752 1455.08 Q990.655 1453.32 990.655 1451.63 Q990.655 1448.87 988.711 1447.14 Q986.789 1445.4 983.688 1445.4 Q981.489 1445.4 979.035 1446.17 Q976.604 1446.93 973.827 1448.48 L973.827 1443.76 Q976.651 1442.62 979.104 1442.05 Q981.558 1441.47 983.595 1441.47 Q988.965 1441.47 992.16 1444.15 Q995.354 1446.84 995.354 1451.33 Q995.354 1453.46 994.544 1455.38 Q993.757 1457.28 991.651 1459.87 Q991.072 1460.54 987.97 1463.76 Q984.868 1466.95 979.22 1472.72 Z" fill="#000000" fill-rule="evenodd" fill-opacity="1" /><path clip-path="url(#clip220)" d="M 0 0 M1000.66 1442.09 L1019.01 1442.09 L1019.01 1446.03 L1004.94 1446.03 L1004.94 1454.5 Q1005.96 1454.15 1006.97 1453.99 Q1007.99 1453.8 1009.01 1453.8 Q1014.8 1453.8 1018.18 1456.98 Q1021.56 1460.15 1021.56 1465.56 Q1021.56 1471.14 1018.09 1474.24 Q1014.61 1477.32 1008.29 1477.32 Q1006.12 1477.32 1003.85 1476.95 Q1001.6 1476.58 999.197 1475.84 L999.197 1471.14 Q1001.28 1472.28 1003.5 1472.83 Q1005.72 1473.39 1008.2 1473.39 Q1012.21 1473.39 1014.54 1471.28 Q1016.88 1469.18 1016.88 1465.56 Q1016.88 1461.95 1014.54 1459.85 Q1012.21 1457.74 1008.2 1457.74 Q1006.33 1457.74 1004.45 1458.16 Q1002.6 1458.57 1000.66 1459.45 L1000.66 1442.09 Z" fill="#000000" fill-rule="evenodd" fill-opacity="1" /><path clip-path="url(#clip220)" d="M 0 0 M112.39 1392.68 Q108.779 1392.68 106.95 1396.24 Q105.145 1399.78 105.145 1406.91 Q105.145 1414.02 106.95 1417.59 Q108.779 1421.13 112.39 1421.13 Q116.024 1421.13 117.83 1417.59 Q119.658 1414.02 119.658 1406.91 Q119.658 1399.78 117.83 1396.24 Q116.024 1392.68 112.39 1392.68 M112.39 1388.97 Q118.2 1388.97 121.256 1393.58 Q124.334 1398.16 124.334 1406.91 Q124.334 1415.64 121.256 1420.25 Q118.2 1424.83 112.39 1424.83 Q106.58 1424.83 103.501 1420.25 Q100.446 1415.64 100.446 1406.91 Q100.446 1398.16 103.501 1393.58 Q106.58 1388.97 112.39 1388.97 Z" fill="#000000" fill-rule="evenodd" fill-opacity="1" /><path clip-path="url(#clip220)" d="M 0 0 M108.015 1275.82 L124.334 1275.82 L124.334 1279.75 L102.39 1279.75 L102.39 1275.82 Q105.052 1273.06 109.635 1268.43 Q114.242 1263.78 115.422 1262.44 Q117.668 1259.91 118.547 1258.18 Q119.45 1256.42 119.45 1254.73 Q119.45 1251.97 117.506 1250.24 Q115.584 1248.5 112.483 1248.5 Q110.284 1248.5 107.83 1249.27 Q105.399 1250.03 102.622 1251.58 L102.622 1246.86 Q105.446 1245.72 107.899 1245.15 Q110.353 1244.57 112.39 1244.57 Q117.76 1244.57 120.955 1247.25 Q124.149 1249.94 124.149 1254.43 Q124.149 1256.56 123.339 1258.48 Q122.552 1260.38 120.446 1262.97 Q119.867 1263.64 116.765 1266.86 Q113.663 1270.05 108.015 1275.82 Z" fill="#000000" fill-rule="evenodd" fill-opacity="1" /><path clip-path="url(#clip220)" d="M 0 0 M114.751 1104.86 L102.946 1123.31 L114.751 1123.31 L114.751 1104.86 M113.524 1100.78 L119.404 1100.78 L119.404 1123.31 L124.334 1123.31 L124.334 1127.2 L119.404 1127.2 L119.404 1135.34 L114.751 1135.34 L114.751 1127.2 L99.1493 1127.2 L99.1493 1122.68 L113.524 1100.78 Z" fill="#000000" fill-rule="evenodd" fill-opacity="1" /><path clip-path="url(#clip220)" d="M 0 0 M112.807 971.792 Q109.659 971.792 107.807 973.945 Q105.978 976.097 105.978 979.847 Q105.978 983.574 107.807 985.75 Q109.659 987.903 112.807 987.903 Q115.955 987.903 117.783 985.75 Q119.635 983.574 119.635 979.847 Q119.635 976.097 117.783 973.945 Q115.955 971.792 112.807 971.792 M122.089 957.139 L122.089 961.398 Q120.33 960.565 118.524 960.125 Q116.742 959.686 114.983 959.686 Q110.353 959.686 107.899 962.811 Q105.469 965.936 105.122 972.255 Q106.487 970.241 108.547 969.176 Q110.608 968.088 113.084 968.088 Q118.293 968.088 121.302 971.26 Q124.334 974.408 124.334 979.847 Q124.334 985.172 121.186 988.389 Q118.038 991.607 112.807 991.607 Q106.811 991.607 103.64 987.023 Q100.469 982.417 100.469 973.69 Q100.469 965.496 104.358 960.635 Q108.247 955.75 114.797 955.75 Q116.557 955.75 118.339 956.098 Q120.145 956.445 122.089 957.139 Z" fill="#000000" fill-rule="evenodd" fill-opacity="1" /><path clip-path="url(#clip220)" d="M 0 0 M564.918 1525.04 Q560.08 1525.04 557.47 1528.54 Q554.733 1532.2 554.733 1538.25 Q554.733 1544.65 557.438 1548.34 Q560.175 1552 564.918 1552 Q569.597 1552 572.334 1548.31 Q575.071 1544.62 575.071 1538.25 Q575.071 1532.43 572.334 1528.54 Q569.819 1525.04 564.918 1525.04 M564.918 1520.4 L584.365 1520.4 L584.365 1526.25 L577.808 1526.25 Q581.278 1531.22 581.278 1538.25 Q581.278 1547 576.917 1551.97 Q572.557 1556.97 564.918 1556.97 Q557.247 1556.97 552.918 1551.97 Q548.558 1547 548.558 1538.25 Q548.558 1529.44 552.918 1524.5 Q556.515 1520.4 564.918 1520.4 Z" fill="#000000" fill-rule="evenodd" fill-opacity="1" /><path clip-path="url(#clip220)" d="M 0 0 M616.894 1550.7 L616.894 1569.6 L611.005 1569.6 L611.005 1520.4 L616.894 1520.4 L616.894 1525.81 Q618.74 1522.62 621.541 1521.1 Q624.373 1519.54 628.288 1519.54 Q634.781 1519.54 638.824 1524.69 Q642.898 1529.85 642.898 1538.25 Q642.898 1546.65 638.824 1551.81 Q634.781 1556.97 628.288 1556.97 Q624.373 1556.97 621.541 1555.44 Q618.74 1553.88 616.894 1550.7 M636.818 1538.25 Q636.818 1531.79 634.145 1528.13 Q631.503 1524.44 626.856 1524.44 Q622.209 1524.44 619.535 1528.13 Q616.894 1531.79 616.894 1538.25 Q616.894 1544.71 619.535 1548.4 Q622.209 1552.07 626.856 1552.07 Q631.503 1552.07 634.145 1548.4 Q636.818 1544.71 636.818 1538.25 Z" fill="#000000" fill-rule="evenodd" fill-opacity="1" /><path clip-path="url(#clip220)" d="M 0 0 M669.697 1525.87 Q668.711 1525.3 667.533 1525.04 Q666.387 1524.76 664.987 1524.76 Q660.021 1524.76 657.348 1528 Q654.706 1531.22 654.706 1537.27 L654.706 1556.04 L648.818 1556.04 L648.818 1520.4 L654.706 1520.4 L654.706 1525.93 Q656.552 1522.69 659.512 1521.13 Q662.472 1519.54 666.705 1519.54 Q667.31 1519.54 668.042 1519.63 Q668.774 1519.7 669.665 1519.85 L669.697 1525.87 Z" fill="#000000" fill-rule="evenodd" fill-opacity="1" /><path clip-path="url(#clip220)" d="M 0 0 M675.84 1520.4 L681.697 1520.4 L681.697 1556.04 L675.84 1556.04 L675.84 1520.4 M675.84 1506.52 L681.697 1506.52 L681.697 1513.93 L675.84 1513.93 L675.84 1506.52 Z" fill="#000000" fill-rule="evenodd" fill-opacity="1" /><path clip-path="url(#clip220)" d="M 0 0 M701.653 1524.5 Q696.942 1524.5 694.205 1528.19 Q691.468 1531.85 691.468 1538.25 Q691.468 1544.65 694.173 1548.34 Q696.911 1552 701.653 1552 Q706.332 1552 709.069 1548.31 Q711.806 1544.62 711.806 1538.25 Q711.806 1531.92 709.069 1528.23 Q706.332 1524.5 701.653 1524.5 M701.653 1519.54 Q709.292 1519.54 713.652 1524.5 Q718.013 1529.47 718.013 1538.25 Q718.013 1547 713.652 1552 Q709.292 1556.97 701.653 1556.97 Q693.982 1556.97 689.622 1552 Q685.293 1547 685.293 1538.25 Q685.293 1529.47 689.622 1524.5 Q693.982 1519.54 701.653 1519.54 Z" fill="#000000" fill-rule="evenodd" fill-opacity="1" /><path clip-path="url(#clip220)" d="M 0 0 M744.813 1525.87 Q743.826 1525.3 742.648 1525.04 Q741.502 1524.76 740.102 1524.76 Q735.137 1524.76 732.463 1528 Q729.821 1531.22 729.821 1537.27 L729.821 1556.04 L723.933 1556.04 L723.933 1520.4 L729.821 1520.4 L729.821 1525.93 Q731.667 1522.69 734.627 1521.13 Q737.588 1519.54 741.821 1519.54 Q742.425 1519.54 743.157 1519.63 Q743.89 1519.7 744.781 1519.85 L744.813 1525.87 Z" fill="#000000" fill-rule="evenodd" fill-opacity="1" /><polyline clip-path="url(#clip224)" style="stroke:#009af9; stroke-width:8; stroke-opacity:1; fill:none" points="
  148.334,1406.88 148.334,888.816 214.781,888.816 214.781,863.544 281.228,863.544 281.228,915.892 347.675,915.892 347.675,903.256 414.121,903.256 414.121,1013.37 
  480.568,1013.37 480.568,1076.55 547.015,1076.55 547.015,1155.97 613.462,1155.97 613.462,1228.17 679.909,1228.17 679.909,1267.89 746.355,1267.89 746.355,1300.38 
  812.802,1300.38 812.802,1345.51 879.249,1345.51 879.249,1365.36 945.696,1365.36 945.696,1374.39 1012.14,1374.39 1012.14,1396.05 1078.59,1396.05 1078.59,1401.46 
  1145.04,1401.46 1145.04,1403.27 1211.48,1403.27 1211.48,1406.88 
  "/>
<path clip-path="url(#clip220)" d="
M1356.05 1423.18 L2352.76 1423.18 L2352.76 847.244 L1356.05 847.244  Z
  " fill="#ffffff" fill-rule="evenodd" fill-opacity="1"/>
<defs>
  <clipPath id="clip225">
    <rect x="1356" y="847" width="998" height="577"/>
  </clipPath>
</defs>
<polyline clip-path="url(#clip225)" style="stroke:#000000; stroke-width:2; stroke-opacity:0.1; fill:none" points="
  1356.05,1423.18 1356.05,847.244 
  "/>
<polyline clip-path="url(#clip225)" style="stroke:#000000; stroke-width:2; stroke-opacity:0.1; fill:none" points="
  1522.17,1423.18 1522.17,847.244 
  "/>
<polyline clip-path="url(#clip225)" style="stroke:#000000; stroke-width:2; stroke-opacity:0.1; fill:none" points="
  1688.29,1423.18 1688.29,847.244 
  "/>
<polyline clip-path="url(#clip225)" style="stroke:#000000; stroke-width:2; stroke-opacity:0.1; fill:none" points="
  1854.41,1423.18 1854.41,847.244 
  "/>
<polyline clip-path="url(#clip225)" style="stroke:#000000; stroke-width:2; stroke-opacity:0.1; fill:none" points="
  2020.52,1423.18 2020.52,847.244 
  "/>
<polyline clip-path="url(#clip225)" style="stroke:#000000; stroke-width:2; stroke-opacity:0.1; fill:none" points="
  2186.64,1423.18 2186.64,847.244 
  "/>
<polyline clip-path="url(#clip225)" style="stroke:#000000; stroke-width:2; stroke-opacity:0.1; fill:none" points="
  1356.05,1406.88 2352.76,1406.88 
  "/>
<polyline clip-path="url(#clip225)" style="stroke:#000000; stroke-width:2; stroke-opacity:0.1; fill:none" points="
  1356.05,1220.81 2352.76,1220.81 
  "/>
<polyline clip-path="url(#clip225)" style="stroke:#000000; stroke-width:2; stroke-opacity:0.1; fill:none" points="
  1356.05,1034.73 2352.76,1034.73 
  "/>
<polyline clip-path="url(#clip225)" style="stroke:#000000; stroke-width:2; stroke-opacity:0.1; fill:none" points="
  1356.05,848.658 2352.76,848.658 
  "/>
<polyline clip-path="url(#clip220)" style="stroke:#000000; stroke-width:4; stroke-opacity:1; fill:none" points="
  1356.05,1423.18 2352.76,1423.18 
  "/>
<polyline clip-path="url(#clip220)" style="stroke:#000000; stroke-width:4; stroke-opacity:1; fill:none" points="
  1356.05,1423.18 1356.05,847.244 
  "/>
<polyline clip-path="url(#clip220)" style="stroke:#000000; stroke-width:4; stroke-opacity:1; fill:none" points="
  1356.05,1423.18 1356.05,1416.27 
  "/>
<polyline clip-path="url(#clip220)" style="stroke:#000000; stroke-width:4; stroke-opacity:1; fill:none" points="
  1522.17,1423.18 1522.17,1416.27 
  "/>
<polyline clip-path="url(#clip220)" style="stroke:#000000; stroke-width:4; stroke-opacity:1; fill:none" points="
  1688.29,1423.18 1688.29,1416.27 
  "/>
<polyline clip-path="url(#clip220)" style="stroke:#000000; stroke-width:4; stroke-opacity:1; fill:none" points="
  1854.41,1423.18 1854.41,1416.27 
  "/>
<polyline clip-path="url(#clip220)" style="stroke:#000000; stroke-width:4; stroke-opacity:1; fill:none" points="
  2020.52,1423.18 2020.52,1416.27 
  "/>
<polyline clip-path="url(#clip220)" style="stroke:#000000; stroke-width:4; stroke-opacity:1; fill:none" points="
  2186.64,1423.18 2186.64,1416.27 
  "/>
<polyline clip-path="url(#clip220)" style="stroke:#000000; stroke-width:4; stroke-opacity:1; fill:none" points="
  1356.05,1406.88 1368.01,1406.88 
  "/>
<polyline clip-path="url(#clip220)" style="stroke:#000000; stroke-width:4; stroke-opacity:1; fill:none" points="
  1356.05,1220.81 1368.01,1220.81 
  "/>
<polyline clip-path="url(#clip220)" style="stroke:#000000; stroke-width:4; stroke-opacity:1; fill:none" points="
  1356.05,1034.73 1368.01,1034.73 
  "/>
<polyline clip-path="url(#clip220)" style="stroke:#000000; stroke-width:4; stroke-opacity:1; fill:none" points="
  1356.05,848.658 1368.01,848.658 
  "/>
<path clip-path="url(#clip220)" d="M 0 0 M1324.06 1445.17 Q1320.45 1445.17 1318.62 1448.74 Q1316.82 1452.28 1316.82 1459.41 Q1316.82 1466.51 1318.62 1470.08 Q1320.45 1473.62 1324.06 1473.62 Q1327.7 1473.62 1329.5 1470.08 Q1331.33 1466.51 1331.33 1459.41 Q1331.33 1452.28 1329.5 1448.74 Q1327.7 1445.17 1324.06 1445.17 M1324.06 1441.47 Q1329.87 1441.47 1332.93 1446.07 Q1336.01 1450.66 1336.01 1459.41 Q1336.01 1468.13 1332.93 1472.74 Q1329.87 1477.32 1324.06 1477.32 Q1318.25 1477.32 1315.17 1472.74 Q1312.12 1468.13 1312.12 1459.41 Q1312.12 1450.66 1315.17 1446.07 Q1318.25 1441.47 1324.06 1441.47 Z" fill="#000000" fill-rule="evenodd" fill-opacity="1" /><path clip-path="url(#clip220)" d="M 0 0 M1341.08 1470.77 L1345.96 1470.77 L1345.96 1476.65 L1341.08 1476.65 L1341.08 1470.77 Z" fill="#000000" fill-rule="evenodd" fill-opacity="1" /><path clip-path="url(#clip220)" d="M 0 0 M1361.03 1445.17 Q1357.42 1445.17 1355.59 1448.74 Q1353.79 1452.28 1353.79 1459.41 Q1353.79 1466.51 1355.59 1470.08 Q1357.42 1473.62 1361.03 1473.62 Q1364.67 1473.62 1366.47 1470.08 Q1368.3 1466.51 1368.3 1459.41 Q1368.3 1452.28 1366.47 1448.74 Q1364.67 1445.17 1361.03 1445.17 M1361.03 1441.47 Q1366.84 1441.47 1369.9 1446.07 Q1372.98 1450.66 1372.98 1459.41 Q1372.98 1468.13 1369.9 1472.74 Q1366.84 1477.32 1361.03 1477.32 Q1355.22 1477.32 1352.14 1472.74 Q1349.09 1468.13 1349.09 1459.41 Q1349.09 1450.66 1352.14 1446.07 Q1355.22 1441.47 1361.03 1441.47 Z" fill="#000000" fill-rule="evenodd" fill-opacity="1" /><path clip-path="url(#clip220)" d="M 0 0 M1388.04 1445.17 Q1384.43 1445.17 1382.61 1448.74 Q1380.8 1452.28 1380.8 1459.41 Q1380.8 1466.51 1382.61 1470.08 Q1384.43 1473.62 1388.04 1473.62 Q1391.68 1473.62 1393.48 1470.08 Q1395.31 1466.51 1395.31 1459.41 Q1395.31 1452.28 1393.48 1448.74 Q1391.68 1445.17 1388.04 1445.17 M1388.04 1441.47 Q1393.85 1441.47 1396.91 1446.07 Q1399.99 1450.66 1399.99 1459.41 Q1399.99 1468.13 1396.91 1472.74 Q1393.85 1477.32 1388.04 1477.32 Q1382.23 1477.32 1379.16 1472.74 Q1376.1 1468.13 1376.1 1459.41 Q1376.1 1450.66 1379.16 1446.07 Q1382.23 1441.47 1388.04 1441.47 Z" fill="#000000" fill-rule="evenodd" fill-opacity="1" /><path clip-path="url(#clip220)" d="M 0 0 M1490.68 1445.17 Q1487.07 1445.17 1485.24 1448.74 Q1483.43 1452.28 1483.43 1459.41 Q1483.43 1466.51 1485.24 1470.08 Q1487.07 1473.62 1490.68 1473.62 Q1494.31 1473.62 1496.12 1470.08 Q1497.95 1466.51 1497.95 1459.41 Q1497.95 1452.28 1496.12 1448.74 Q1494.31 1445.17 1490.68 1445.17 M1490.68 1441.47 Q1496.49 1441.47 1499.54 1446.07 Q1502.62 1450.66 1502.62 1459.41 Q1502.62 1468.13 1499.54 1472.74 Q1496.49 1477.32 1490.68 1477.32 Q1484.87 1477.32 1481.79 1472.74 Q1478.73 1468.13 1478.73 1459.41 Q1478.73 1450.66 1481.79 1446.07 Q1484.87 1441.47 1490.68 1441.47 Z" fill="#000000" fill-rule="evenodd" fill-opacity="1" /><path clip-path="url(#clip220)" d="M 0 0 M1507.69 1470.77 L1512.58 1470.77 L1512.58 1476.65 L1507.69 1476.65 L1507.69 1470.77 Z" fill="#000000" fill-rule="evenodd" fill-opacity="1" /><path clip-path="url(#clip220)" d="M 0 0 M1527.65 1445.17 Q1524.03 1445.17 1522.21 1448.74 Q1520.4 1452.28 1520.4 1459.41 Q1520.4 1466.51 1522.21 1470.08 Q1524.03 1473.62 1527.65 1473.62 Q1531.28 1473.62 1533.09 1470.08 Q1534.91 1466.51 1534.91 1459.41 Q1534.91 1452.28 1533.09 1448.74 Q1531.28 1445.17 1527.65 1445.17 M1527.65 1441.47 Q1533.46 1441.47 1536.51 1446.07 Q1539.59 1450.66 1539.59 1459.41 Q1539.59 1468.13 1536.51 1472.74 Q1533.46 1477.32 1527.65 1477.32 Q1521.84 1477.32 1518.76 1472.74 Q1515.7 1468.13 1515.7 1459.41 Q1515.7 1450.66 1518.76 1446.07 Q1521.84 1441.47 1527.65 1441.47 Z" fill="#000000" fill-rule="evenodd" fill-opacity="1" /><path clip-path="url(#clip220)" d="M 0 0 M1544.71 1442.09 L1563.06 1442.09 L1563.06 1446.03 L1548.99 1446.03 L1548.99 1454.5 Q1550.01 1454.15 1551.03 1453.99 Q1552.04 1453.8 1553.06 1453.8 Q1558.85 1453.8 1562.23 1456.98 Q1565.61 1460.15 1565.61 1465.56 Q1565.61 1471.14 1562.14 1474.24 Q1558.66 1477.32 1552.34 1477.32 Q1550.17 1477.32 1547.9 1476.95 Q1545.65 1476.58 1543.25 1475.84 L1543.25 1471.14 Q1545.33 1472.28 1547.55 1472.83 Q1549.78 1473.39 1552.25 1473.39 Q1556.26 1473.39 1558.59 1471.28 Q1560.93 1469.18 1560.93 1465.56 Q1560.93 1461.95 1558.59 1459.85 Q1556.26 1457.74 1552.25 1457.74 Q1550.38 1457.74 1548.5 1458.16 Q1546.65 1458.57 1544.71 1459.45 L1544.71 1442.09 Z" fill="#000000" fill-rule="evenodd" fill-opacity="1" /><path clip-path="url(#clip220)" d="M 0 0 M1656.91 1445.17 Q1653.3 1445.17 1651.47 1448.74 Q1649.67 1452.28 1649.67 1459.41 Q1649.67 1466.51 1651.47 1470.08 Q1653.3 1473.62 1656.91 1473.62 Q1660.55 1473.62 1662.35 1470.08 Q1664.18 1466.51 1664.18 1459.41 Q1664.18 1452.28 1662.35 1448.74 Q1660.55 1445.17 1656.91 1445.17 M1656.91 1441.47 Q1662.72 1441.47 1665.78 1446.07 Q1668.86 1450.66 1668.86 1459.41 Q1668.86 1468.13 1665.78 1472.74 Q1662.72 1477.32 1656.91 1477.32 Q1651.1 1477.32 1648.02 1472.74 Q1644.97 1468.13 1644.97 1459.41 Q1644.97 1450.66 1648.02 1446.07 Q1651.1 1441.47 1656.91 1441.47 Z" fill="#000000" fill-rule="evenodd" fill-opacity="1" /><path clip-path="url(#clip220)" d="M 0 0 M1673.92 1470.77 L1678.81 1470.77 L1678.81 1476.65 L1673.92 1476.65 L1673.92 1470.77 Z" fill="#000000" fill-rule="evenodd" fill-opacity="1" /><path clip-path="url(#clip220)" d="M 0 0 M1684.69 1472.72 L1692.33 1472.72 L1692.33 1446.35 L1684.02 1448.02 L1684.02 1443.76 L1692.28 1442.09 L1696.96 1442.09 L1696.96 1472.72 L1704.6 1472.72 L1704.6 1476.65 L1684.69 1476.65 L1684.69 1472.72 Z" fill="#000000" fill-rule="evenodd" fill-opacity="1" /><path clip-path="url(#clip220)" d="M 0 0 M1719.67 1445.17 Q1716.05 1445.17 1714.23 1448.74 Q1712.42 1452.28 1712.42 1459.41 Q1712.42 1466.51 1714.23 1470.08 Q1716.05 1473.62 1719.67 1473.62 Q1723.3 1473.62 1725.11 1470.08 Q1726.93 1466.51 1726.93 1459.41 Q1726.93 1452.28 1725.11 1448.74 Q1723.3 1445.17 1719.67 1445.17 M1719.67 1441.47 Q1725.48 1441.47 1728.53 1446.07 Q1731.61 1450.66 1731.61 1459.41 Q1731.61 1468.13 1728.53 1472.74 Q1725.48 1477.32 1719.67 1477.32 Q1713.86 1477.32 1710.78 1472.74 Q1707.72 1468.13 1707.72 1459.41 Q1707.72 1450.66 1710.78 1446.07 Q1713.86 1441.47 1719.67 1441.47 Z" fill="#000000" fill-rule="evenodd" fill-opacity="1" /><path clip-path="url(#clip220)" d="M 0 0 M1823.53 1445.17 Q1819.91 1445.17 1818.09 1448.74 Q1816.28 1452.28 1816.28 1459.41 Q1816.28 1466.51 1818.09 1470.08 Q1819.91 1473.62 1823.53 1473.62 Q1827.16 1473.62 1828.97 1470.08 Q1830.79 1466.51 1830.79 1459.41 Q1830.79 1452.28 1828.97 1448.74 Q1827.16 1445.17 1823.53 1445.17 M1823.53 1441.47 Q1829.34 1441.47 1832.39 1446.07 Q1835.47 1450.66 1835.47 1459.41 Q1835.47 1468.13 1832.39 1472.74 Q1829.34 1477.32 1823.53 1477.32 Q1817.72 1477.32 1814.64 1472.74 Q1811.58 1468.13 1811.58 1459.41 Q1811.58 1450.66 1814.64 1446.07 Q1817.72 1441.47 1823.53 1441.47 Z" fill="#000000" fill-rule="evenodd" fill-opacity="1" /><path clip-path="url(#clip220)" d="M 0 0 M1840.54 1470.77 L1845.42 1470.77 L1845.42 1476.65 L1840.54 1476.65 L1840.54 1470.77 Z" fill="#000000" fill-rule="evenodd" fill-opacity="1" /><path clip-path="url(#clip220)" d="M 0 0 M1851.3 1472.72 L1858.94 1472.72 L1858.94 1446.35 L1850.63 1448.02 L1850.63 1443.76 L1858.9 1442.09 L1863.57 1442.09 L1863.57 1472.72 L1871.21 1472.72 L1871.21 1476.65 L1851.3 1476.65 L1851.3 1472.72 Z" fill="#000000" fill-rule="evenodd" fill-opacity="1" /><path clip-path="url(#clip220)" d="M 0 0 M1876.33 1442.09 L1894.68 1442.09 L1894.68 1446.03 L1880.61 1446.03 L1880.61 1454.5 Q1881.63 1454.15 1882.65 1453.99 Q1883.66 1453.8 1884.68 1453.8 Q1890.47 1453.8 1893.85 1456.98 Q1897.23 1460.15 1897.23 1465.56 Q1897.23 1471.14 1893.76 1474.24 Q1890.28 1477.32 1883.97 1477.32 Q1881.79 1477.32 1879.52 1476.95 Q1877.28 1476.58 1874.87 1475.84 L1874.87 1471.14 Q1876.95 1472.28 1879.17 1472.83 Q1881.4 1473.39 1883.87 1473.39 Q1887.88 1473.39 1890.22 1471.28 Q1892.55 1469.18 1892.55 1465.56 Q1892.55 1461.95 1890.22 1459.85 Q1887.88 1457.74 1883.87 1457.74 Q1882 1457.74 1880.12 1458.16 Q1878.27 1458.57 1876.33 1459.45 L1876.33 1442.09 Z" fill="#000000" fill-rule="evenodd" fill-opacity="1" /><path clip-path="url(#clip220)" d="M 0 0 M1989.33 1445.17 Q1985.72 1445.17 1983.89 1448.74 Q1982.08 1452.28 1982.08 1459.41 Q1982.08 1466.51 1983.89 1470.08 Q1985.72 1473.62 1989.33 1473.62 Q1992.96 1473.62 1994.77 1470.08 Q1996.6 1466.51 1996.6 1459.41 Q1996.6 1452.28 1994.77 1448.74 Q1992.96 1445.17 1989.33 1445.17 M1989.33 1441.47 Q1995.14 1441.47 1998.2 1446.07 Q2001.27 1450.66 2001.27 1459.41 Q2001.27 1468.13 1998.2 1472.74 Q1995.14 1477.32 1989.33 1477.32 Q1983.52 1477.32 1980.44 1472.74 Q1977.39 1468.13 1977.39 1459.41 Q1977.39 1450.66 1980.44 1446.07 Q1983.52 1441.47 1989.33 1441.47 Z" fill="#000000" fill-rule="evenodd" fill-opacity="1" /><path clip-path="url(#clip220)" d="M 0 0 M2006.34 1470.77 L2011.23 1470.77 L2011.23 1476.65 L2006.34 1476.65 L2006.34 1470.77 Z" fill="#000000" fill-rule="evenodd" fill-opacity="1" /><path clip-path="url(#clip220)" d="M 0 0 M2020.33 1472.72 L2036.64 1472.72 L2036.64 1476.65 L2014.7 1476.65 L2014.7 1472.72 Q2017.36 1469.96 2021.95 1465.33 Q2026.55 1460.68 2027.73 1459.34 Q2029.98 1456.81 2030.86 1455.08 Q2031.76 1453.32 2031.76 1451.63 Q2031.76 1448.87 2029.82 1447.14 Q2027.89 1445.4 2024.79 1445.4 Q2022.59 1445.4 2020.14 1446.17 Q2017.71 1446.93 2014.93 1448.48 L2014.93 1443.76 Q2017.76 1442.62 2020.21 1442.05 Q2022.66 1441.47 2024.7 1441.47 Q2030.07 1441.47 2033.27 1444.15 Q2036.46 1446.84 2036.46 1451.33 Q2036.46 1453.46 2035.65 1455.38 Q2034.86 1457.28 2032.76 1459.87 Q2032.18 1460.54 2029.08 1463.76 Q2025.97 1466.95 2020.33 1472.72 Z" fill="#000000" fill-rule="evenodd" fill-opacity="1" /><path clip-path="url(#clip220)" d="M 0 0 M2051.71 1445.17 Q2048.1 1445.17 2046.27 1448.74 Q2044.47 1452.28 2044.47 1459.41 Q2044.47 1466.51 2046.27 1470.08 Q2048.1 1473.62 2051.71 1473.62 Q2055.35 1473.62 2057.15 1470.08 Q2058.98 1466.51 2058.98 1459.41 Q2058.98 1452.28 2057.15 1448.74 Q2055.35 1445.17 2051.71 1445.17 M2051.71 1441.47 Q2057.52 1441.47 2060.58 1446.07 Q2063.66 1450.66 2063.66 1459.41 Q2063.66 1468.13 2060.58 1472.74 Q2057.52 1477.32 2051.71 1477.32 Q2045.9 1477.32 2042.83 1472.74 Q2039.77 1468.13 2039.77 1459.41 Q2039.77 1450.66 2042.83 1446.07 Q2045.9 1441.47 2051.71 1441.47 Z" fill="#000000" fill-rule="evenodd" fill-opacity="1" /><path clip-path="url(#clip220)" d="M 0 0 M2155.94 1445.17 Q2152.33 1445.17 2150.5 1448.74 Q2148.7 1452.28 2148.7 1459.41 Q2148.7 1466.51 2150.5 1470.08 Q2152.33 1473.62 2155.94 1473.62 Q2159.58 1473.62 2161.38 1470.08 Q2163.21 1466.51 2163.21 1459.41 Q2163.21 1452.28 2161.38 1448.74 Q2159.58 1445.17 2155.94 1445.17 M2155.94 1441.47 Q2161.75 1441.47 2164.81 1446.07 Q2167.89 1450.66 2167.89 1459.41 Q2167.89 1468.13 2164.81 1472.74 Q2161.75 1477.32 2155.94 1477.32 Q2150.13 1477.32 2147.06 1472.74 Q2144 1468.13 2144 1459.41 Q2144 1450.66 2147.06 1446.07 Q2150.13 1441.47 2155.94 1441.47 Z" fill="#000000" fill-rule="evenodd" fill-opacity="1" /><path clip-path="url(#clip220)" d="M 0 0 M2172.96 1470.77 L2177.84 1470.77 L2177.84 1476.65 L2172.96 1476.65 L2172.96 1470.77 Z" fill="#000000" fill-rule="evenodd" fill-opacity="1" /><path clip-path="url(#clip220)" d="M 0 0 M2186.94 1472.72 L2203.26 1472.72 L2203.26 1476.65 L2181.31 1476.65 L2181.31 1472.72 Q2183.98 1469.96 2188.56 1465.33 Q2193.17 1460.68 2194.35 1459.34 Q2196.59 1456.81 2197.47 1455.08 Q2198.38 1453.32 2198.38 1451.63 Q2198.38 1448.87 2196.43 1447.14 Q2194.51 1445.4 2191.41 1445.4 Q2189.21 1445.4 2186.75 1446.17 Q2184.32 1446.93 2181.55 1448.48 L2181.55 1443.76 Q2184.37 1442.62 2186.82 1442.05 Q2189.28 1441.47 2191.31 1441.47 Q2196.69 1441.47 2199.88 1444.15 Q2203.07 1446.84 2203.07 1451.33 Q2203.07 1453.46 2202.26 1455.38 Q2201.48 1457.28 2199.37 1459.87 Q2198.79 1460.54 2195.69 1463.76 Q2192.59 1466.95 2186.94 1472.72 Z" fill="#000000" fill-rule="evenodd" fill-opacity="1" /><path clip-path="url(#clip220)" d="M 0 0 M2208.37 1442.09 L2226.73 1442.09 L2226.73 1446.03 L2212.66 1446.03 L2212.66 1454.5 Q2213.68 1454.15 2214.69 1453.99 Q2215.71 1453.8 2216.73 1453.8 Q2222.52 1453.8 2225.9 1456.98 Q2229.28 1460.15 2229.28 1465.56 Q2229.28 1471.14 2225.81 1474.24 Q2222.33 1477.32 2216.01 1477.32 Q2213.84 1477.32 2211.57 1476.95 Q2209.32 1476.58 2206.92 1475.84 L2206.92 1471.14 Q2209 1472.28 2211.22 1472.83 Q2213.44 1473.39 2215.92 1473.39 Q2219.93 1473.39 2222.26 1471.28 Q2224.6 1469.18 2224.6 1465.56 Q2224.6 1461.95 2222.26 1459.85 Q2219.93 1457.74 2215.92 1457.74 Q2214.05 1457.74 2212.17 1458.16 Q2210.32 1458.57 2208.37 1459.45 L2208.37 1442.09 Z" fill="#000000" fill-rule="evenodd" fill-opacity="1" /><path clip-path="url(#clip220)" d="M 0 0 M1320.11 1392.68 Q1316.5 1392.68 1314.67 1396.24 Q1312.86 1399.78 1312.86 1406.91 Q1312.86 1414.02 1314.67 1417.59 Q1316.5 1421.13 1320.11 1421.13 Q1323.74 1421.13 1325.55 1417.59 Q1327.38 1414.02 1327.38 1406.91 Q1327.38 1399.78 1325.55 1396.24 Q1323.74 1392.68 1320.11 1392.68 M1320.11 1388.97 Q1325.92 1388.97 1328.98 1393.58 Q1332.05 1398.16 1332.05 1406.91 Q1332.05 1415.64 1328.98 1420.25 Q1325.92 1424.83 1320.11 1424.83 Q1314.3 1424.83 1311.22 1420.25 Q1308.17 1415.64 1308.17 1406.91 Q1308.17 1398.16 1311.22 1393.58 Q1314.3 1388.97 1320.11 1388.97 Z" fill="#000000" fill-rule="evenodd" fill-opacity="1" /><path clip-path="url(#clip220)" d="M 0 0 M1258.12 1234.15 L1265.76 1234.15 L1265.76 1207.79 L1257.45 1209.45 L1257.45 1205.19 L1265.71 1203.53 L1270.39 1203.53 L1270.39 1234.15 L1278.03 1234.15 L1278.03 1238.09 L1258.12 1238.09 L1258.12 1234.15 Z" fill="#000000" fill-rule="evenodd" fill-opacity="1" /><path clip-path="url(#clip220)" d="M 0 0 M1293.1 1206.6 Q1289.49 1206.6 1287.66 1210.17 Q1285.85 1213.71 1285.85 1220.84 Q1285.85 1227.95 1287.66 1231.51 Q1289.49 1235.05 1293.1 1235.05 Q1296.73 1235.05 1298.54 1231.51 Q1300.36 1227.95 1300.36 1220.84 Q1300.36 1213.71 1298.54 1210.17 Q1296.73 1206.6 1293.1 1206.6 M1293.1 1202.9 Q1298.91 1202.9 1301.96 1207.51 Q1305.04 1212.09 1305.04 1220.84 Q1305.04 1229.57 1301.96 1234.17 Q1298.91 1238.76 1293.1 1238.76 Q1287.29 1238.76 1284.21 1234.17 Q1281.15 1229.57 1281.15 1220.84 Q1281.15 1212.09 1284.21 1207.51 Q1287.29 1202.9 1293.1 1202.9 Z" fill="#000000" fill-rule="evenodd" fill-opacity="1" /><path clip-path="url(#clip220)" d="M 0 0 M1320.11 1206.6 Q1316.5 1206.6 1314.67 1210.17 Q1312.86 1213.71 1312.86 1220.84 Q1312.86 1227.95 1314.67 1231.51 Q1316.5 1235.05 1320.11 1235.05 Q1323.74 1235.05 1325.55 1231.51 Q1327.38 1227.95 1327.38 1220.84 Q1327.38 1213.71 1325.55 1210.17 Q1323.74 1206.6 1320.11 1206.6 M1320.11 1202.9 Q1325.92 1202.9 1328.98 1207.51 Q1332.05 1212.09 1332.05 1220.84 Q1332.05 1229.57 1328.98 1234.17 Q1325.92 1238.76 1320.11 1238.76 Q1314.3 1238.76 1311.22 1234.17 Q1308.17 1229.57 1308.17 1220.84 Q1308.17 1212.09 1311.22 1207.51 Q1314.3 1202.9 1320.11 1202.9 Z" fill="#000000" fill-rule="evenodd" fill-opacity="1" /><path clip-path="url(#clip220)" d="M 0 0 M1261.71 1048.08 L1278.03 1048.08 L1278.03 1052.01 L1256.08 1052.01 L1256.08 1048.08 Q1258.74 1045.32 1263.33 1040.69 Q1267.93 1036.04 1269.11 1034.7 Q1271.36 1032.17 1272.24 1030.44 Q1273.14 1028.68 1273.14 1026.99 Q1273.14 1024.23 1271.2 1022.5 Q1269.28 1020.76 1266.17 1020.76 Q1263.98 1020.76 1261.52 1021.53 Q1259.09 1022.29 1256.31 1023.84 L1256.31 1019.12 Q1259.14 1017.98 1261.59 1017.41 Q1264.05 1016.83 1266.08 1016.83 Q1271.45 1016.83 1274.65 1019.51 Q1277.84 1022.2 1277.84 1026.69 Q1277.84 1028.82 1277.03 1030.74 Q1276.24 1032.64 1274.14 1035.23 Q1273.56 1035.9 1270.46 1039.12 Q1267.36 1042.31 1261.71 1048.08 Z" fill="#000000" fill-rule="evenodd" fill-opacity="1" /><path clip-path="url(#clip220)" d="M 0 0 M1293.1 1020.53 Q1289.49 1020.53 1287.66 1024.1 Q1285.85 1027.64 1285.85 1034.77 Q1285.85 1041.87 1287.66 1045.44 Q1289.49 1048.98 1293.1 1048.98 Q1296.73 1048.98 1298.54 1045.44 Q1300.36 1041.87 1300.36 1034.77 Q1300.36 1027.64 1298.54 1024.1 Q1296.73 1020.53 1293.1 1020.53 M1293.1 1016.83 Q1298.91 1016.83 1301.96 1021.43 Q1305.04 1026.02 1305.04 1034.77 Q1305.04 1043.49 1301.96 1048.1 Q1298.91 1052.68 1293.1 1052.68 Q1287.29 1052.68 1284.21 1048.1 Q1281.15 1043.49 1281.15 1034.77 Q1281.15 1026.02 1284.21 1021.43 Q1287.29 1016.83 1293.1 1016.83 Z" fill="#000000" fill-rule="evenodd" fill-opacity="1" /><path clip-path="url(#clip220)" d="M 0 0 M1320.11 1020.53 Q1316.5 1020.53 1314.67 1024.1 Q1312.86 1027.64 1312.86 1034.77 Q1312.86 1041.87 1314.67 1045.44 Q1316.5 1048.98 1320.11 1048.98 Q1323.74 1048.98 1325.55 1045.44 Q1327.38 1041.87 1327.38 1034.77 Q1327.38 1027.64 1325.55 1024.1 Q1323.74 1020.53 1320.11 1020.53 M1320.11 1016.83 Q1325.92 1016.83 1328.98 1021.43 Q1332.05 1026.02 1332.05 1034.77 Q1332.05 1043.49 1328.98 1048.1 Q1325.92 1052.68 1320.11 1052.68 Q1314.3 1052.68 1311.22 1048.1 Q1308.17 1043.49 1308.17 1034.77 Q1308.17 1026.02 1311.22 1021.43 Q1314.3 1016.83 1320.11 1016.83 Z" fill="#000000" fill-rule="evenodd" fill-opacity="1" /><path clip-path="url(#clip220)" d="M 0 0 M1270.9 847.304 Q1274.25 848.022 1276.13 850.29 Q1278.03 852.559 1278.03 855.892 Q1278.03 861.008 1274.51 863.809 Q1270.99 866.61 1264.51 866.61 Q1262.33 866.61 1260.02 866.17 Q1257.73 865.753 1255.27 864.897 L1255.27 860.383 Q1257.22 861.517 1259.53 862.096 Q1261.85 862.674 1264.37 862.674 Q1268.77 862.674 1271.06 860.938 Q1273.37 859.202 1273.37 855.892 Q1273.37 852.836 1271.22 851.124 Q1269.09 849.387 1265.27 849.387 L1261.24 849.387 L1261.24 845.545 L1265.46 845.545 Q1268.91 845.545 1270.74 844.179 Q1272.56 842.79 1272.56 840.198 Q1272.56 837.536 1270.67 836.124 Q1268.79 834.688 1265.27 834.688 Q1263.35 834.688 1261.15 835.105 Q1258.95 835.522 1256.31 836.401 L1256.31 832.235 Q1258.98 831.494 1261.29 831.124 Q1263.63 830.753 1265.69 830.753 Q1271.01 830.753 1274.11 833.184 Q1277.22 835.591 1277.22 839.712 Q1277.22 842.582 1275.57 844.573 Q1273.93 846.54 1270.9 847.304 Z" fill="#000000" fill-rule="evenodd" fill-opacity="1" /><path clip-path="url(#clip220)" d="M 0 0 M1293.1 834.457 Q1289.49 834.457 1287.66 838.022 Q1285.85 841.563 1285.85 848.693 Q1285.85 855.799 1287.66 859.364 Q1289.49 862.906 1293.1 862.906 Q1296.73 862.906 1298.54 859.364 Q1300.36 855.799 1300.36 848.693 Q1300.36 841.563 1298.54 838.022 Q1296.73 834.457 1293.1 834.457 M1293.1 830.753 Q1298.91 830.753 1301.96 835.36 Q1305.04 839.943 1305.04 848.693 Q1305.04 857.42 1301.96 862.026 Q1298.91 866.61 1293.1 866.61 Q1287.29 866.61 1284.21 862.026 Q1281.15 857.42 1281.15 848.693 Q1281.15 839.943 1284.21 835.36 Q1287.29 830.753 1293.1 830.753 Z" fill="#000000" fill-rule="evenodd" fill-opacity="1" /><path clip-path="url(#clip220)" d="M 0 0 M1320.11 834.457 Q1316.5 834.457 1314.67 838.022 Q1312.86 841.563 1312.86 848.693 Q1312.86 855.799 1314.67 859.364 Q1316.5 862.906 1320.11 862.906 Q1323.74 862.906 1325.55 859.364 Q1327.38 855.799 1327.38 848.693 Q1327.38 841.563 1325.55 838.022 Q1323.74 834.457 1320.11 834.457 M1320.11 830.753 Q1325.92 830.753 1328.98 835.36 Q1332.05 839.943 1332.05 848.693 Q1332.05 857.42 1328.98 862.026 Q1325.92 866.61 1320.11 866.61 Q1314.3 866.61 1311.22 862.026 Q1308.17 857.42 1308.17 848.693 Q1308.17 839.943 1311.22 835.36 Q1314.3 830.753 1320.11 830.753 Z" fill="#000000" fill-rule="evenodd" fill-opacity="1" /><path clip-path="url(#clip220)" d="M 0 0 M1708.77 1525.04 Q1703.94 1525.04 1701.33 1528.54 Q1698.59 1532.2 1698.59 1538.25 Q1698.59 1544.65 1701.29 1548.34 Q1704.03 1552 1708.77 1552 Q1713.45 1552 1716.19 1548.31 Q1718.93 1544.62 1718.93 1538.25 Q1718.93 1532.43 1716.19 1528.54 Q1713.68 1525.04 1708.77 1525.04 M1708.77 1520.4 L1728.22 1520.4 L1728.22 1526.25 L1721.66 1526.25 Q1725.13 1531.22 1725.13 1538.25 Q1725.13 1547 1720.77 1551.97 Q1716.41 1556.97 1708.77 1556.97 Q1701.1 1556.97 1696.77 1551.97 Q1692.41 1547 1692.41 1538.25 Q1692.41 1529.44 1696.77 1524.5 Q1700.37 1520.4 1708.77 1520.4 Z" fill="#000000" fill-rule="evenodd" fill-opacity="1" /><path clip-path="url(#clip220)" d="M 0 0 M1760.75 1550.7 L1760.75 1569.6 L1754.86 1569.6 L1754.86 1520.4 L1760.75 1520.4 L1760.75 1525.81 Q1762.6 1522.62 1765.4 1521.1 Q1768.23 1519.54 1772.14 1519.54 Q1778.64 1519.54 1782.68 1524.69 Q1786.75 1529.85 1786.75 1538.25 Q1786.75 1546.65 1782.68 1551.81 Q1778.64 1556.97 1772.14 1556.97 Q1768.23 1556.97 1765.4 1555.44 Q1762.6 1553.88 1760.75 1550.7 M1780.67 1538.25 Q1780.67 1531.79 1778 1528.13 Q1775.36 1524.44 1770.71 1524.44 Q1766.06 1524.44 1763.39 1528.13 Q1760.75 1531.79 1760.75 1538.25 Q1760.75 1544.71 1763.39 1548.4 Q1766.06 1552.07 1770.71 1552.07 Q1775.36 1552.07 1778 1548.4 Q1780.67 1544.71 1780.67 1538.25 Z" fill="#000000" fill-rule="evenodd" fill-opacity="1" /><path clip-path="url(#clip220)" d="M 0 0 M1806.71 1524.5 Q1802 1524.5 1799.26 1528.19 Q1796.52 1531.85 1796.52 1538.25 Q1796.52 1544.65 1799.23 1548.34 Q1801.97 1552 1806.71 1552 Q1811.39 1552 1814.13 1548.31 Q1816.86 1544.62 1816.86 1538.25 Q1816.86 1531.92 1814.13 1528.23 Q1811.39 1524.5 1806.71 1524.5 M1806.71 1519.54 Q1814.35 1519.54 1818.71 1524.5 Q1823.07 1529.47 1823.07 1538.25 Q1823.07 1547 1818.71 1552 Q1814.35 1556.97 1806.71 1556.97 Q1799.04 1556.97 1794.68 1552 Q1790.35 1547 1790.35 1538.25 Q1790.35 1529.47 1794.68 1524.5 Q1799.04 1519.54 1806.71 1519.54 Z" fill="#000000" fill-rule="evenodd" fill-opacity="1" /><path clip-path="url(#clip220)" d="M 0 0 M1851.94 1521.45 L1851.94 1526.98 Q1849.46 1525.71 1846.78 1525.07 Q1844.11 1524.44 1841.24 1524.44 Q1836.88 1524.44 1834.69 1525.77 Q1832.52 1527.11 1832.52 1529.79 Q1832.52 1531.82 1834.08 1533 Q1835.64 1534.15 1840.35 1535.2 L1842.36 1535.64 Q1848.6 1536.98 1851.21 1539.43 Q1853.85 1541.85 1853.85 1546.21 Q1853.85 1551.17 1849.9 1554.07 Q1845.99 1556.97 1839.11 1556.97 Q1836.25 1556.97 1833.13 1556.39 Q1830.04 1555.85 1826.6 1554.74 L1826.6 1548.69 Q1829.85 1550.38 1833 1551.24 Q1836.15 1552.07 1839.24 1552.07 Q1843.38 1552.07 1845.6 1550.66 Q1847.83 1549.23 1847.83 1546.65 Q1847.83 1544.27 1846.21 1542.99 Q1844.62 1541.72 1839.18 1540.54 L1837.14 1540.07 Q1831.7 1538.92 1829.28 1536.56 Q1826.86 1534.18 1826.86 1530.04 Q1826.86 1525.01 1830.42 1522.27 Q1833.99 1519.54 1840.54 1519.54 Q1843.79 1519.54 1846.65 1520.01 Q1849.52 1520.49 1851.94 1521.45 Z" fill="#000000" fill-rule="evenodd" fill-opacity="1" /><path clip-path="url(#clip220)" d="M 0 0 M1865.78 1510.27 L1865.78 1520.4 L1877.85 1520.4 L1877.85 1524.95 L1865.78 1524.95 L1865.78 1544.3 Q1865.78 1548.66 1866.96 1549.9 Q1868.17 1551.14 1871.83 1551.14 L1877.85 1551.14 L1877.85 1556.04 L1871.83 1556.04 Q1865.05 1556.04 1862.47 1553.53 Q1859.9 1550.98 1859.9 1544.3 L1859.9 1524.95 L1855.6 1524.95 L1855.6 1520.4 L1859.9 1520.4 L1859.9 1510.27 L1865.78 1510.27 Z" fill="#000000" fill-rule="evenodd" fill-opacity="1" /><path clip-path="url(#clip220)" d="M 0 0 M1914.48 1536.76 L1914.48 1539.62 L1887.55 1539.62 Q1887.94 1545.67 1891.18 1548.85 Q1894.46 1552 1900.29 1552 Q1903.66 1552 1906.81 1551.17 Q1909.99 1550.35 1913.11 1548.69 L1913.11 1554.23 Q1909.96 1555.57 1906.65 1556.27 Q1903.34 1556.97 1899.94 1556.97 Q1891.41 1556.97 1886.41 1552 Q1881.44 1547.04 1881.44 1538.57 Q1881.44 1529.82 1886.15 1524.69 Q1890.9 1519.54 1898.92 1519.54 Q1906.11 1519.54 1910.28 1524.18 Q1914.48 1528.8 1914.48 1536.76 M1908.62 1535.04 Q1908.56 1530.23 1905.92 1527.37 Q1903.31 1524.5 1898.98 1524.5 Q1894.08 1524.5 1891.12 1527.27 Q1888.19 1530.04 1887.75 1535.07 L1908.62 1535.04 Z" fill="#000000" fill-rule="evenodd" fill-opacity="1" /><path clip-path="url(#clip220)" d="M 0 0 M1941.28 1525.87 Q1940.29 1525.3 1939.12 1525.04 Q1937.97 1524.76 1936.57 1524.76 Q1931.61 1524.76 1928.93 1528 Q1926.29 1531.22 1926.29 1537.27 L1926.29 1556.04 L1920.4 1556.04 L1920.4 1520.4 L1926.29 1520.4 L1926.29 1525.93 Q1928.14 1522.69 1931.1 1521.13 Q1934.06 1519.54 1938.29 1519.54 Q1938.89 1519.54 1939.63 1519.63 Q1940.36 1519.7 1941.25 1519.85 L1941.28 1525.87 Z" fill="#000000" fill-rule="evenodd" fill-opacity="1" /><path clip-path="url(#clip220)" d="M 0 0 M1947.42 1520.4 L1953.28 1520.4 L1953.28 1556.04 L1947.42 1556.04 L1947.42 1520.4 M1947.42 1506.52 L1953.28 1506.52 L1953.28 1513.93 L1947.42 1513.93 L1947.42 1506.52 Z" fill="#000000" fill-rule="evenodd" fill-opacity="1" /><path clip-path="url(#clip220)" d="M 0 0 M1973.24 1524.5 Q1968.53 1524.5 1965.79 1528.19 Q1963.05 1531.85 1963.05 1538.25 Q1963.05 1544.65 1965.76 1548.34 Q1968.49 1552 1973.24 1552 Q1977.92 1552 1980.65 1548.31 Q1983.39 1544.62 1983.39 1538.25 Q1983.39 1531.92 1980.65 1528.23 Q1977.92 1524.5 1973.24 1524.5 M1973.24 1519.54 Q1980.88 1519.54 1985.24 1524.5 Q1989.6 1529.47 1989.6 1538.25 Q1989.6 1547 1985.24 1552 Q1980.88 1556.97 1973.24 1556.97 Q1965.57 1556.97 1961.21 1552 Q1956.88 1547 1956.88 1538.25 Q1956.88 1529.47 1961.21 1524.5 Q1965.57 1519.54 1973.24 1519.54 Z" fill="#000000" fill-rule="evenodd" fill-opacity="1" /><path clip-path="url(#clip220)" d="M 0 0 M2016.4 1525.87 Q2015.41 1525.3 2014.23 1525.04 Q2013.09 1524.76 2011.69 1524.76 Q2006.72 1524.76 2004.05 1528 Q2001.41 1531.22 2001.41 1537.27 L2001.41 1556.04 L1995.52 1556.04 L1995.52 1520.4 L2001.41 1520.4 L2001.41 1525.93 Q2003.25 1522.69 2006.21 1521.13 Q2009.17 1519.54 2013.4 1519.54 Q2014.01 1519.54 2014.74 1519.63 Q2015.47 1519.7 2016.36 1519.85 L2016.4 1525.87 Z" fill="#000000" fill-rule="evenodd" fill-opacity="1" /><polyline clip-path="url(#clip225)" style="stroke:#009af9; stroke-width:8; stroke-opacity:1; fill:none" points="
  1470.67,1406.88 1470.67,1391.99 1472.34,1391.99 1472.34,1390.13 1474,1390.13 1474,1365.94 1475.66,1365.94 1475.66,1278.49 1477.32,1278.49 1477.32,1166.84 
  1478.98,1166.84 1478.98,1055.2 1480.64,1055.2 1480.64,928.67 1482.3,928.67 1482.3,956.581 1483.96,956.581 1483.96,893.316 1485.63,893.316 1485.63,863.544 
  1487.29,863.544 1487.29,1034.73 1488.95,1034.73 1488.95,1096.14 1490.61,1096.14 1490.61,1248.72 1492.27,1248.72 1492.27,1343.61 1493.93,1343.61 1493.93,1375.25 
  1495.59,1375.25 1495.59,1405.02 1497.25,1405.02 1497.25,1401.3 1498.91,1401.3 1498.91,1406.88 
  "/>
</svg>
