<?xml version="1.0" encoding="utf-8"?>
<svg xmlns="http://www.w3.org/2000/svg" xmlns:xlink="http://www.w3.org/1999/xlink" width="600" height="400" viewBox="0 0 2400 1600">
<defs>
  <clipPath id="clip740">
    <rect x="0" y="0" width="2400" height="1600"/>
  </clipPath>
</defs>
<path clip-path="url(#clip740)" d="
M0 1600 L2400 1600 L2400 0 L0 0  Z
  " fill="#ffffff" fill-rule="evenodd" fill-opacity="1"/>
<defs>
  <clipPath id="clip741">
    <rect x="480" y="0" width="1681" height="1600"/>
  </clipPath>
</defs>
<path clip-path="url(#clip740)" d="
M166.205 1486.45 L2352.76 1486.45 L2352.76 47.2441 L166.205 47.2441  Z
  " fill="#ffffff" fill-rule="evenodd" fill-opacity="1"/>
<defs>
  <clipPath id="clip742">
    <rect x="166" y="47" width="2188" height="1440"/>
  </clipPath>
</defs>
<polyline clip-path="url(#clip742)" style="stroke:#000000; stroke-width:2; stroke-opacity:0.1; fill:none" points="
  373.604,1486.45 373.604,47.2441 
  "/>
<polyline clip-path="url(#clip742)" style="stroke:#000000; stroke-width:2; stroke-opacity:0.1; fill:none" points="
  664.055,1486.45 664.055,47.2441 
  "/>
<polyline clip-path="url(#clip742)" style="stroke:#000000; stroke-width:2; stroke-opacity:0.1; fill:none" points="
  954.507,1486.45 954.507,47.2441 
  "/>
<polyline clip-path="url(#clip742)" style="stroke:#000000; stroke-width:2; stroke-opacity:0.1; fill:none" points="
  1244.96,1486.45 1244.96,47.2441 
  "/>
<polyline clip-path="url(#clip742)" style="stroke:#000000; stroke-width:2; stroke-opacity:0.1; fill:none" points="
  1535.41,1486.45 1535.41,47.2441 
  "/>
<polyline clip-path="url(#clip742)" style="stroke:#000000; stroke-width:2; stroke-opacity:0.1; fill:none" points="
  1825.86,1486.45 1825.86,47.2441 
  "/>
<polyline clip-path="url(#clip742)" style="stroke:#000000; stroke-width:2; stroke-opacity:0.1; fill:none" points="
  2116.31,1486.45 2116.31,47.2441 
  "/>
<polyline clip-path="url(#clip742)" style="stroke:#000000; stroke-width:2; stroke-opacity:0.1; fill:none" points="
  166.205,1445.72 2352.76,1445.72 
  "/>
<polyline clip-path="url(#clip742)" style="stroke:#000000; stroke-width:2; stroke-opacity:0.1; fill:none" points="
  166.205,1098.02 2352.76,1098.02 
  "/>
<polyline clip-path="url(#clip742)" style="stroke:#000000; stroke-width:2; stroke-opacity:0.1; fill:none" points="
  166.205,750.331 2352.76,750.331 
  "/>
<polyline clip-path="url(#clip742)" style="stroke:#000000; stroke-width:2; stroke-opacity:0.1; fill:none" points="
  166.205,402.638 2352.76,402.638 
  "/>
<polyline clip-path="url(#clip742)" style="stroke:#000000; stroke-width:2; stroke-opacity:0.1; fill:none" points="
  166.205,54.9455 2352.76,54.9455 
  "/>
<polyline clip-path="url(#clip740)" style="stroke:#000000; stroke-width:4; stroke-opacity:1; fill:none" points="
  166.205,1486.45 2352.76,1486.45 
  "/>
<polyline clip-path="url(#clip740)" style="stroke:#000000; stroke-width:4; stroke-opacity:1; fill:none" points="
  166.205,1486.45 166.205,47.2441 
  "/>
<polyline clip-path="url(#clip740)" style="stroke:#000000; stroke-width:4; stroke-opacity:1; fill:none" points="
  373.604,1486.45 373.604,1469.18 
  "/>
<polyline clip-path="url(#clip740)" style="stroke:#000000; stroke-width:4; stroke-opacity:1; fill:none" points="
  664.055,1486.45 664.055,1469.18 
  "/>
<polyline clip-path="url(#clip740)" style="stroke:#000000; stroke-width:4; stroke-opacity:1; fill:none" points="
  954.507,1486.45 954.507,1469.18 
  "/>
<polyline clip-path="url(#clip740)" style="stroke:#000000; stroke-width:4; stroke-opacity:1; fill:none" points="
  1244.96,1486.45 1244.96,1469.18 
  "/>
<polyline clip-path="url(#clip740)" style="stroke:#000000; stroke-width:4; stroke-opacity:1; fill:none" points="
  1535.41,1486.45 1535.41,1469.18 
  "/>
<polyline clip-path="url(#clip740)" style="stroke:#000000; stroke-width:4; stroke-opacity:1; fill:none" points="
  1825.86,1486.45 1825.86,1469.18 
  "/>
<polyline clip-path="url(#clip740)" style="stroke:#000000; stroke-width:4; stroke-opacity:1; fill:none" points="
  2116.31,1486.45 2116.31,1469.18 
  "/>
<polyline clip-path="url(#clip740)" style="stroke:#000000; stroke-width:4; stroke-opacity:1; fill:none" points="
  166.205,1445.72 192.443,1445.72 
  "/>
<polyline clip-path="url(#clip740)" style="stroke:#000000; stroke-width:4; stroke-opacity:1; fill:none" points="
  166.205,1098.02 192.443,1098.02 
  "/>
<polyline clip-path="url(#clip740)" style="stroke:#000000; stroke-width:4; stroke-opacity:1; fill:none" points="
  166.205,750.331 192.443,750.331 
  "/>
<polyline clip-path="url(#clip740)" style="stroke:#000000; stroke-width:4; stroke-opacity:1; fill:none" points="
  166.205,402.638 192.443,402.638 
  "/>
<polyline clip-path="url(#clip740)" style="stroke:#000000; stroke-width:4; stroke-opacity:1; fill:none" points="
  166.205,54.9455 192.443,54.9455 
  "/>
<path clip-path="url(#clip740)" d="M 0 0 M353.778 1525.04 L366.255 1525.04 L366.255 1528.83 L353.778 1528.83 L353.778 1525.04 Z" fill="#000000" fill-rule="evenodd" fill-opacity="1" /><path clip-path="url(#clip740)" d="M 0 0 M381.903 1520.78 Q378.755 1520.78 376.903 1522.93 Q375.074 1525.08 375.074 1528.83 Q375.074 1532.56 376.903 1534.73 Q378.755 1536.89 381.903 1536.89 Q385.051 1536.89 386.88 1534.73 Q388.731 1532.56 388.731 1528.83 Q388.731 1525.08 386.88 1522.93 Q385.051 1520.78 381.903 1520.78 M391.185 1506.12 L391.185 1510.38 Q389.426 1509.55 387.62 1509.11 Q385.838 1508.67 384.079 1508.67 Q379.449 1508.67 376.995 1511.8 Q374.565 1514.92 374.218 1521.24 Q375.583 1519.23 377.644 1518.16 Q379.704 1517.07 382.181 1517.07 Q387.389 1517.07 390.398 1520.24 Q393.431 1523.39 393.431 1528.83 Q393.431 1534.16 390.282 1537.37 Q387.134 1540.59 381.903 1540.59 Q375.907 1540.59 372.736 1536.01 Q369.565 1531.4 369.565 1522.67 Q369.565 1514.48 373.454 1509.62 Q377.343 1504.73 383.894 1504.73 Q385.653 1504.73 387.435 1505.08 Q389.241 1505.43 391.185 1506.12 Z" fill="#000000" fill-rule="evenodd" fill-opacity="1" /><path clip-path="url(#clip740)" d="M 0 0 M644.067 1525.04 L656.544 1525.04 L656.544 1528.83 L644.067 1528.83 L644.067 1525.04 Z" fill="#000000" fill-rule="evenodd" fill-opacity="1" /><path clip-path="url(#clip740)" d="M 0 0 M674.46 1509.43 L662.655 1527.88 L674.46 1527.88 L674.46 1509.43 M673.234 1505.36 L679.113 1505.36 L679.113 1527.88 L684.044 1527.88 L684.044 1531.77 L679.113 1531.77 L679.113 1539.92 L674.46 1539.92 L674.46 1531.77 L658.859 1531.77 L658.859 1527.26 L673.234 1505.36 Z" fill="#000000" fill-rule="evenodd" fill-opacity="1" /><path clip-path="url(#clip740)" d="M 0 0 M935.56 1525.04 L948.037 1525.04 L948.037 1528.83 L935.56 1528.83 L935.56 1525.04 Z" fill="#000000" fill-rule="evenodd" fill-opacity="1" /><path clip-path="url(#clip740)" d="M 0 0 M957.134 1535.98 L973.453 1535.98 L973.453 1539.92 L951.509 1539.92 L951.509 1535.98 Q954.171 1533.23 958.754 1528.6 Q963.361 1523.95 964.541 1522.61 Q966.787 1520.08 967.666 1518.35 Q968.569 1516.59 968.569 1514.9 Q968.569 1512.14 966.625 1510.41 Q964.703 1508.67 961.601 1508.67 Q959.402 1508.67 956.949 1509.43 Q954.518 1510.2 951.74 1511.75 L951.74 1507.03 Q954.564 1505.89 957.018 1505.31 Q959.472 1504.73 961.509 1504.73 Q966.879 1504.73 970.074 1507.42 Q973.268 1510.11 973.268 1514.6 Q973.268 1516.73 972.458 1518.65 Q971.671 1520.54 969.564 1523.14 Q968.986 1523.81 965.884 1527.03 Q962.782 1530.22 957.134 1535.98 Z" fill="#000000" fill-rule="evenodd" fill-opacity="1" /><path clip-path="url(#clip740)" d="M 0 0 M1244.96 1508.44 Q1241.35 1508.44 1239.52 1512 Q1237.71 1515.55 1237.71 1522.67 Q1237.71 1529.78 1239.52 1533.35 Q1241.35 1536.89 1244.96 1536.89 Q1248.59 1536.89 1250.4 1533.35 Q1252.23 1529.78 1252.23 1522.67 Q1252.23 1515.55 1250.4 1512 Q1248.59 1508.44 1244.96 1508.44 M1244.96 1504.73 Q1250.77 1504.73 1253.82 1509.34 Q1256.9 1513.92 1256.9 1522.67 Q1256.9 1531.4 1253.82 1536.01 Q1250.77 1540.59 1244.96 1540.59 Q1239.15 1540.59 1236.07 1536.01 Q1233.01 1531.4 1233.01 1522.67 Q1233.01 1513.92 1236.07 1509.34 Q1239.15 1504.73 1244.96 1504.73 Z" fill="#000000" fill-rule="evenodd" fill-opacity="1" /><path clip-path="url(#clip740)" d="M 0 0 M1530.06 1535.98 L1546.38 1535.98 L1546.38 1539.92 L1524.44 1539.92 L1524.44 1535.98 Q1527.1 1533.23 1531.68 1528.6 Q1536.29 1523.95 1537.47 1522.61 Q1539.71 1520.08 1540.59 1518.35 Q1541.5 1516.59 1541.5 1514.9 Q1541.5 1512.14 1539.55 1510.41 Q1537.63 1508.67 1534.53 1508.67 Q1532.33 1508.67 1529.88 1509.43 Q1527.45 1510.2 1524.67 1511.75 L1524.67 1507.03 Q1527.49 1505.89 1529.95 1505.31 Q1532.4 1504.73 1534.44 1504.73 Q1539.81 1504.73 1543 1507.42 Q1546.2 1510.11 1546.2 1514.6 Q1546.2 1516.73 1545.39 1518.65 Q1544.6 1520.54 1542.49 1523.14 Q1541.91 1523.81 1538.81 1527.03 Q1535.71 1530.22 1530.06 1535.98 Z" fill="#000000" fill-rule="evenodd" fill-opacity="1" /><path clip-path="url(#clip740)" d="M 0 0 M1828.87 1509.43 L1817.06 1527.88 L1828.87 1527.88 L1828.87 1509.43 M1827.64 1505.36 L1833.52 1505.36 L1833.52 1527.88 L1838.45 1527.88 L1838.45 1531.77 L1833.52 1531.77 L1833.52 1539.92 L1828.87 1539.92 L1828.87 1531.77 L1813.27 1531.77 L1813.27 1527.26 L1827.64 1505.36 Z" fill="#000000" fill-rule="evenodd" fill-opacity="1" /><path clip-path="url(#clip740)" d="M 0 0 M2116.72 1520.78 Q2113.57 1520.78 2111.72 1522.93 Q2109.89 1525.08 2109.89 1528.83 Q2109.89 1532.56 2111.72 1534.73 Q2113.57 1536.89 2116.72 1536.89 Q2119.86 1536.89 2121.69 1534.73 Q2123.54 1532.56 2123.54 1528.83 Q2123.54 1525.08 2121.69 1522.93 Q2119.86 1520.78 2116.72 1520.78 M2126 1506.12 L2126 1510.38 Q2124.24 1509.55 2122.43 1509.11 Q2120.65 1508.67 2118.89 1508.67 Q2114.26 1508.67 2111.81 1511.8 Q2109.38 1514.92 2109.03 1521.24 Q2110.4 1519.23 2112.46 1518.16 Q2114.52 1517.07 2116.99 1517.07 Q2122.2 1517.07 2125.21 1520.24 Q2128.24 1523.39 2128.24 1528.83 Q2128.24 1534.16 2125.1 1537.37 Q2121.95 1540.59 2116.72 1540.59 Q2110.72 1540.59 2107.55 1536.01 Q2104.38 1531.4 2104.38 1522.67 Q2104.38 1514.48 2108.27 1509.62 Q2112.16 1504.73 2118.71 1504.73 Q2120.47 1504.73 2122.25 1505.08 Q2124.05 1505.43 2126 1506.12 Z" fill="#000000" fill-rule="evenodd" fill-opacity="1" /><path clip-path="url(#clip740)" d="M 0 0 M130.26 1431.51 Q126.649 1431.51 124.82 1435.08 Q123.015 1438.62 123.015 1445.75 Q123.015 1452.86 124.82 1456.42 Q126.649 1459.96 130.26 1459.96 Q133.895 1459.96 135.7 1456.42 Q137.529 1452.86 137.529 1445.75 Q137.529 1438.62 135.7 1435.08 Q133.895 1431.51 130.26 1431.51 M130.26 1427.81 Q136.07 1427.81 139.126 1432.42 Q142.205 1437 142.205 1445.75 Q142.205 1454.48 139.126 1459.08 Q136.07 1463.67 130.26 1463.67 Q124.45 1463.67 121.371 1459.08 Q118.316 1454.48 118.316 1445.75 Q118.316 1437 121.371 1432.42 Q124.45 1427.81 130.26 1427.81 Z" fill="#000000" fill-rule="evenodd" fill-opacity="1" /><path clip-path="url(#clip740)" d="M 0 0 M71.8578 1111.37 L88.1772 1111.37 L88.1772 1115.3 L66.2328 1115.3 L66.2328 1111.37 Q68.8949 1108.61 73.4782 1103.98 Q78.0846 1099.33 79.2652 1097.99 Q81.5105 1095.47 82.3902 1093.73 Q83.2929 1091.97 83.2929 1090.28 Q83.2929 1087.53 81.3485 1085.79 Q79.4272 1084.05 76.3254 1084.05 Q74.1263 1084.05 71.6726 1084.82 Q69.2421 1085.58 66.4643 1087.13 L66.4643 1082.41 Q69.2884 1081.28 71.7421 1080.7 Q74.1958 1080.12 76.2328 1080.12 Q81.6031 1080.12 84.7976 1082.8 Q87.992 1085.49 87.992 1089.98 Q87.992 1092.11 87.1818 1094.03 Q86.3948 1095.93 84.2883 1098.52 Q83.7096 1099.19 80.6078 1102.41 Q77.5059 1105.6 71.8578 1111.37 Z" fill="#000000" fill-rule="evenodd" fill-opacity="1" /><path clip-path="url(#clip740)" d="M 0 0 M103.247 1083.82 Q99.6354 1083.82 97.8068 1087.39 Q96.0012 1090.93 96.0012 1098.06 Q96.0012 1105.16 97.8068 1108.73 Q99.6354 1112.27 103.247 1112.27 Q106.881 1112.27 108.686 1108.73 Q110.515 1105.16 110.515 1098.06 Q110.515 1090.93 108.686 1087.39 Q106.881 1083.82 103.247 1083.82 M103.247 1080.12 Q109.057 1080.12 112.112 1084.72 Q115.191 1089.31 115.191 1098.06 Q115.191 1106.78 112.112 1111.39 Q109.057 1115.97 103.247 1115.97 Q97.4364 1115.97 94.3577 1111.39 Q91.3022 1106.78 91.3022 1098.06 Q91.3022 1089.31 94.3577 1084.72 Q97.4364 1080.12 103.247 1080.12 Z" fill="#000000" fill-rule="evenodd" fill-opacity="1" /><path clip-path="url(#clip740)" d="M 0 0 M130.26 1083.82 Q126.649 1083.82 124.82 1087.39 Q123.015 1090.93 123.015 1098.06 Q123.015 1105.16 124.82 1108.73 Q126.649 1112.27 130.26 1112.27 Q133.895 1112.27 135.7 1108.73 Q137.529 1105.16 137.529 1098.06 Q137.529 1090.93 135.7 1087.39 Q133.895 1083.82 130.26 1083.82 M130.26 1080.12 Q136.07 1080.12 139.126 1084.72 Q142.205 1089.31 142.205 1098.06 Q142.205 1106.78 139.126 1111.39 Q136.07 1115.97 130.26 1115.97 Q124.45 1115.97 121.371 1111.39 Q118.316 1106.78 118.316 1098.06 Q118.316 1089.31 121.371 1084.72 Q124.45 1080.12 130.26 1080.12 Z" fill="#000000" fill-rule="evenodd" fill-opacity="1" /><path clip-path="url(#clip740)" d="M 0 0 M78.5939 737.125 L66.7884 755.574 L78.5939 755.574 L78.5939 737.125 M77.367 733.051 L83.2466 733.051 L83.2466 755.574 L88.1772 755.574 L88.1772 759.462 L83.2466 759.462 L83.2466 767.611 L78.5939 767.611 L78.5939 759.462 L62.9921 759.462 L62.9921 754.949 L77.367 733.051 Z" fill="#000000" fill-rule="evenodd" fill-opacity="1" /><path clip-path="url(#clip740)" d="M 0 0 M103.247 736.129 Q99.6354 736.129 97.8068 739.694 Q96.0012 743.236 96.0012 750.365 Q96.0012 757.472 97.8068 761.037 Q99.6354 764.578 103.247 764.578 Q106.881 764.578 108.686 761.037 Q110.515 757.472 110.515 750.365 Q110.515 743.236 108.686 739.694 Q106.881 736.129 103.247 736.129 M103.247 732.426 Q109.057 732.426 112.112 737.032 Q115.191 741.615 115.191 750.365 Q115.191 759.092 112.112 763.699 Q109.057 768.282 103.247 768.282 Q97.4364 768.282 94.3577 763.699 Q91.3022 759.092 91.3022 750.365 Q91.3022 741.615 94.3577 737.032 Q97.4364 732.426 103.247 732.426 Z" fill="#000000" fill-rule="evenodd" fill-opacity="1" /><path clip-path="url(#clip740)" d="M 0 0 M130.26 736.129 Q126.649 736.129 124.82 739.694 Q123.015 743.236 123.015 750.365 Q123.015 757.472 124.82 761.037 Q126.649 764.578 130.26 764.578 Q133.895 764.578 135.7 761.037 Q137.529 757.472 137.529 750.365 Q137.529 743.236 135.7 739.694 Q133.895 736.129 130.26 736.129 M130.26 732.426 Q136.07 732.426 139.126 737.032 Q142.205 741.615 142.205 750.365 Q142.205 759.092 139.126 763.699 Q136.07 768.282 130.26 768.282 Q124.45 768.282 121.371 763.699 Q118.316 759.092 118.316 750.365 Q118.316 741.615 121.371 737.032 Q124.45 732.426 130.26 732.426 Z" fill="#000000" fill-rule="evenodd" fill-opacity="1" /><path clip-path="url(#clip740)" d="M 0 0 M76.6495 400.775 Q73.5013 400.775 71.6495 402.927 Q69.8208 405.08 69.8208 408.83 Q69.8208 412.557 71.6495 414.733 Q73.5013 416.886 76.6495 416.886 Q79.7976 416.886 81.6263 414.733 Q83.4781 412.557 83.4781 408.83 Q83.4781 405.08 81.6263 402.927 Q79.7976 400.775 76.6495 400.775 M85.9318 386.122 L85.9318 390.381 Q84.1726 389.548 82.367 389.108 Q80.5846 388.668 78.8254 388.668 Q74.1958 388.668 71.7421 391.793 Q69.3115 394.918 68.9643 401.238 Q70.33 399.224 72.3902 398.159 Q74.4504 397.071 76.9272 397.071 Q82.1355 397.071 85.1448 400.242 Q88.1772 403.39 88.1772 408.83 Q88.1772 414.154 85.029 417.372 Q81.8809 420.589 76.6495 420.589 Q70.6541 420.589 67.4828 416.006 Q64.3116 411.4 64.3116 402.673 Q64.3116 394.478 68.2004 389.617 Q72.0893 384.733 78.6402 384.733 Q80.3994 384.733 82.1818 385.08 Q83.9874 385.427 85.9318 386.122 Z" fill="#000000" fill-rule="evenodd" fill-opacity="1" /><path clip-path="url(#clip740)" d="M 0 0 M103.247 388.437 Q99.6354 388.437 97.8068 392.002 Q96.0012 395.543 96.0012 402.673 Q96.0012 409.779 97.8068 413.344 Q99.6354 416.886 103.247 416.886 Q106.881 416.886 108.686 413.344 Q110.515 409.779 110.515 402.673 Q110.515 395.543 108.686 392.002 Q106.881 388.437 103.247 388.437 M103.247 384.733 Q109.057 384.733 112.112 389.339 Q115.191 393.923 115.191 402.673 Q115.191 411.4 112.112 416.006 Q109.057 420.589 103.247 420.589 Q97.4364 420.589 94.3577 416.006 Q91.3022 411.4 91.3022 402.673 Q91.3022 393.923 94.3577 389.339 Q97.4364 384.733 103.247 384.733 Z" fill="#000000" fill-rule="evenodd" fill-opacity="1" /><path clip-path="url(#clip740)" d="M 0 0 M130.26 388.437 Q126.649 388.437 124.82 392.002 Q123.015 395.543 123.015 402.673 Q123.015 409.779 124.82 413.344 Q126.649 416.886 130.26 416.886 Q133.895 416.886 135.7 413.344 Q137.529 409.779 137.529 402.673 Q137.529 395.543 135.7 392.002 Q133.895 388.437 130.26 388.437 M130.26 384.733 Q136.07 384.733 139.126 389.339 Q142.205 393.923 142.205 402.673 Q142.205 411.4 139.126 416.006 Q136.07 420.589 130.26 420.589 Q124.45 420.589 121.371 416.006 Q118.316 411.4 118.316 402.673 Q118.316 393.923 121.371 389.339 Q124.45 384.733 130.26 384.733 Z" fill="#000000" fill-rule="evenodd" fill-opacity="1" /><path clip-path="url(#clip740)" d="M 0 0 M76.3254 55.8135 Q72.9921 55.8135 71.0708 57.5959 Q69.1726 59.3783 69.1726 62.5033 Q69.1726 65.6283 71.0708 67.4107 Q72.9921 69.1931 76.3254 69.1931 Q79.6587 69.1931 81.58 67.4107 Q83.5013 65.6051 83.5013 62.5033 Q83.5013 59.3783 81.58 57.5959 Q79.6819 55.8135 76.3254 55.8135 M71.6495 53.8228 Q68.6402 53.0821 66.9504 51.0219 Q65.2838 48.9617 65.2838 45.9988 Q65.2838 41.8553 68.2236 39.4479 Q71.1865 37.0405 76.3254 37.0405 Q81.4874 37.0405 84.4272 39.4479 Q87.367 41.8553 87.367 45.9988 Q87.367 48.9617 85.6772 51.0219 Q84.0105 53.0821 81.0244 53.8228 Q84.404 54.6098 86.279 56.9015 Q88.1772 59.1931 88.1772 62.5033 Q88.1772 67.5264 85.0985 70.2116 Q82.0429 72.8968 76.3254 72.8968 Q70.6078 72.8968 67.5291 70.2116 Q64.4736 67.5264 64.4736 62.5033 Q64.4736 59.1931 66.3717 56.9015 Q68.2699 54.6098 71.6495 53.8228 M69.9365 46.4386 Q69.9365 49.1238 71.6032 50.6284 Q73.293 52.133 76.3254 52.133 Q79.3346 52.133 81.0244 50.6284 Q82.7374 49.1238 82.7374 46.4386 Q82.7374 43.7534 81.0244 42.2488 Q79.3346 40.7442 76.3254 40.7442 Q73.293 40.7442 71.6032 42.2488 Q69.9365 43.7534 69.9365 46.4386 Z" fill="#000000" fill-rule="evenodd" fill-opacity="1" /><path clip-path="url(#clip740)" d="M 0 0 M103.247 40.7442 Q99.6354 40.7442 97.8068 44.309 Q96.0012 47.8506 96.0012 54.9802 Q96.0012 62.0866 97.8068 65.6514 Q99.6354 69.1931 103.247 69.1931 Q106.881 69.1931 108.686 65.6514 Q110.515 62.0866 110.515 54.9802 Q110.515 47.8506 108.686 44.309 Q106.881 40.7442 103.247 40.7442 M103.247 37.0405 Q109.057 37.0405 112.112 41.6469 Q115.191 46.2303 115.191 54.9802 Q115.191 63.707 112.112 68.3135 Q109.057 72.8968 103.247 72.8968 Q97.4364 72.8968 94.3577 68.3135 Q91.3022 63.707 91.3022 54.9802 Q91.3022 46.2303 94.3577 41.6469 Q97.4364 37.0405 103.247 37.0405 Z" fill="#000000" fill-rule="evenodd" fill-opacity="1" /><path clip-path="url(#clip740)" d="M 0 0 M130.26 40.7442 Q126.649 40.7442 124.82 44.309 Q123.015 47.8506 123.015 54.9802 Q123.015 62.0866 124.82 65.6514 Q126.649 69.1931 130.26 69.1931 Q133.895 69.1931 135.7 65.6514 Q137.529 62.0866 137.529 54.9802 Q137.529 47.8506 135.7 44.309 Q133.895 40.7442 130.26 40.7442 M130.26 37.0405 Q136.07 37.0405 139.126 41.6469 Q142.205 46.2303 142.205 54.9802 Q142.205 63.707 139.126 68.3135 Q136.07 72.8968 130.26 72.8968 Q124.45 72.8968 121.371 68.3135 Q118.316 63.707 118.316 54.9802 Q118.316 46.2303 121.371 41.6469 Q124.45 37.0405 130.26 37.0405 Z" fill="#000000" fill-rule="evenodd" fill-opacity="1" /><path clip-path="url(#clip742)" d="
M286.469 1442.24 L286.469 1445.72 L315.514 1445.72 L315.514 1442.24 L286.469 1442.24 L286.469 1442.24  Z
  " fill="#009af9" fill-rule="evenodd" fill-opacity="1"/>
<polyline clip-path="url(#clip742)" style="stroke:#000000; stroke-width:4; stroke-opacity:1; fill:none" points="
  286.469,1442.24 286.469,1445.72 315.514,1445.72 315.514,1442.24 286.469,1442.24 
  "/>
<path clip-path="url(#clip742)" d="
M315.514 1442.24 L315.514 1445.72 L344.559 1445.72 L344.559 1442.24 L315.514 1442.24 L315.514 1442.24  Z
  " fill="#009af9" fill-rule="evenodd" fill-opacity="1"/>
<polyline clip-path="url(#clip742)" style="stroke:#000000; stroke-width:4; stroke-opacity:1; fill:none" points="
  315.514,1442.24 315.514,1445.72 344.559,1445.72 344.559,1442.24 315.514,1442.24 
  "/>
<path clip-path="url(#clip742)" d="
M344.559 1442.24 L344.559 1445.72 L373.604 1445.72 L373.604 1442.24 L344.559 1442.24 L344.559 1442.24  Z
  " fill="#009af9" fill-rule="evenodd" fill-opacity="1"/>
<polyline clip-path="url(#clip742)" style="stroke:#000000; stroke-width:4; stroke-opacity:1; fill:none" points="
  344.559,1442.24 344.559,1445.72 373.604,1445.72 373.604,1442.24 344.559,1442.24 
  "/>
<path clip-path="url(#clip742)" d="
M373.604 1442.24 L373.604 1445.72 L402.649 1445.72 L402.649 1442.24 L373.604 1442.24 L373.604 1442.24  Z
  " fill="#009af9" fill-rule="evenodd" fill-opacity="1"/>
<polyline clip-path="url(#clip742)" style="stroke:#000000; stroke-width:4; stroke-opacity:1; fill:none" points="
  373.604,1442.24 373.604,1445.72 402.649,1445.72 402.649,1442.24 373.604,1442.24 
  "/>
<path clip-path="url(#clip742)" d="
M402.649 1438.76 L402.649 1445.72 L431.694 1445.72 L431.694 1438.76 L402.649 1438.76 L402.649 1438.76  Z
  " fill="#009af9" fill-rule="evenodd" fill-opacity="1"/>
<polyline clip-path="url(#clip742)" style="stroke:#000000; stroke-width:4; stroke-opacity:1; fill:none" points="
  402.649,1438.76 402.649,1445.72 431.694,1445.72 431.694,1438.76 402.649,1438.76 
  "/>
<path clip-path="url(#clip742)" d="
M431.694 1445.72 L431.694 1445.72 L460.74 1445.72 L460.74 1445.72 L431.694 1445.72 L431.694 1445.72  Z
  " fill="#009af9" fill-rule="evenodd" fill-opacity="1"/>
<polyline clip-path="url(#clip742)" style="stroke:#000000; stroke-width:4; stroke-opacity:1; fill:none" points="
  431.694,1445.72 431.694,1445.72 460.74,1445.72 431.694,1445.72 
  "/>
<path clip-path="url(#clip742)" d="
M460.74 1442.24 L460.74 1445.72 L489.785 1445.72 L489.785 1442.24 L460.74 1442.24 L460.74 1442.24  Z
  " fill="#009af9" fill-rule="evenodd" fill-opacity="1"/>
<polyline clip-path="url(#clip742)" style="stroke:#000000; stroke-width:4; stroke-opacity:1; fill:none" points="
  460.74,1442.24 460.74,1445.72 489.785,1445.72 489.785,1442.24 460.74,1442.24 
  "/>
<path clip-path="url(#clip742)" d="
M489.785 1433.55 L489.785 1445.72 L518.83 1445.72 L518.83 1433.55 L489.785 1433.55 L489.785 1433.55  Z
  " fill="#009af9" fill-rule="evenodd" fill-opacity="1"/>
<polyline clip-path="url(#clip742)" style="stroke:#000000; stroke-width:4; stroke-opacity:1; fill:none" points="
  489.785,1433.55 489.785,1445.72 518.83,1445.72 518.83,1433.55 489.785,1433.55 
  "/>
<path clip-path="url(#clip742)" d="
M518.83 1435.28 L518.83 1445.72 L547.875 1445.72 L547.875 1435.28 L518.83 1435.28 L518.83 1435.28  Z
  " fill="#009af9" fill-rule="evenodd" fill-opacity="1"/>
<polyline clip-path="url(#clip742)" style="stroke:#000000; stroke-width:4; stroke-opacity:1; fill:none" points="
  518.83,1435.28 518.83,1445.72 547.875,1445.72 547.875,1435.28 518.83,1435.28 
  "/>
<path clip-path="url(#clip742)" d="
M547.875 1440.5 L547.875 1445.72 L576.92 1445.72 L576.92 1440.5 L547.875 1440.5 L547.875 1440.5  Z
  " fill="#009af9" fill-rule="evenodd" fill-opacity="1"/>
<polyline clip-path="url(#clip742)" style="stroke:#000000; stroke-width:4; stroke-opacity:1; fill:none" points="
  547.875,1440.5 547.875,1445.72 576.92,1445.72 576.92,1440.5 547.875,1440.5 
  "/>
<path clip-path="url(#clip742)" d="
M576.92 1435.28 L576.92 1445.72 L605.965 1445.72 L605.965 1435.28 L576.92 1435.28 L576.92 1435.28  Z
  " fill="#009af9" fill-rule="evenodd" fill-opacity="1"/>
<polyline clip-path="url(#clip742)" style="stroke:#000000; stroke-width:4; stroke-opacity:1; fill:none" points="
  576.92,1435.28 576.92,1445.72 605.965,1445.72 605.965,1435.28 576.92,1435.28 
  "/>
<path clip-path="url(#clip742)" d="
M605.965 1430.07 L605.965 1445.72 L635.01 1445.72 L635.01 1430.07 L605.965 1430.07 L605.965 1430.07  Z
  " fill="#009af9" fill-rule="evenodd" fill-opacity="1"/>
<polyline clip-path="url(#clip742)" style="stroke:#000000; stroke-width:4; stroke-opacity:1; fill:none" points="
  605.965,1430.07 605.965,1445.72 635.01,1445.72 635.01,1430.07 605.965,1430.07 
  "/>
<path clip-path="url(#clip742)" d="
M635.01 1424.85 L635.01 1445.72 L664.055 1445.72 L664.055 1424.85 L635.01 1424.85 L635.01 1424.85  Z
  " fill="#009af9" fill-rule="evenodd" fill-opacity="1"/>
<polyline clip-path="url(#clip742)" style="stroke:#000000; stroke-width:4; stroke-opacity:1; fill:none" points="
  635.01,1424.85 635.01,1445.72 664.055,1445.72 664.055,1424.85 635.01,1424.85 
  "/>
<path clip-path="url(#clip742)" d="
M664.055 1405.73 L664.055 1445.72 L693.101 1445.72 L693.101 1405.73 L664.055 1405.73 L664.055 1405.73  Z
  " fill="#009af9" fill-rule="evenodd" fill-opacity="1"/>
<polyline clip-path="url(#clip742)" style="stroke:#000000; stroke-width:4; stroke-opacity:1; fill:none" points="
  664.055,1405.73 664.055,1445.72 693.101,1445.72 693.101,1405.73 664.055,1405.73 
  "/>
<path clip-path="url(#clip742)" d="
M693.101 1400.52 L693.101 1445.72 L722.146 1445.72 L722.146 1400.52 L693.101 1400.52 L693.101 1400.52  Z
  " fill="#009af9" fill-rule="evenodd" fill-opacity="1"/>
<polyline clip-path="url(#clip742)" style="stroke:#000000; stroke-width:4; stroke-opacity:1; fill:none" points="
  693.101,1400.52 693.101,1445.72 722.146,1445.72 722.146,1400.52 693.101,1400.52 
  "/>
<path clip-path="url(#clip742)" d="
M722.146 1410.95 L722.146 1445.72 L751.191 1445.72 L751.191 1410.95 L722.146 1410.95 L722.146 1410.95  Z
  " fill="#009af9" fill-rule="evenodd" fill-opacity="1"/>
<polyline clip-path="url(#clip742)" style="stroke:#000000; stroke-width:4; stroke-opacity:1; fill:none" points="
  722.146,1410.95 722.146,1445.72 751.191,1445.72 751.191,1410.95 722.146,1410.95 
  "/>
<path clip-path="url(#clip742)" d="
M751.191 1388.35 L751.191 1445.72 L780.236 1445.72 L780.236 1388.35 L751.191 1388.35 L751.191 1388.35  Z
  " fill="#009af9" fill-rule="evenodd" fill-opacity="1"/>
<polyline clip-path="url(#clip742)" style="stroke:#000000; stroke-width:4; stroke-opacity:1; fill:none" points="
  751.191,1388.35 751.191,1445.72 780.236,1445.72 780.236,1388.35 751.191,1388.35 
  "/>
<path clip-path="url(#clip742)" d="
M780.236 1376.18 L780.236 1445.72 L809.281 1445.72 L809.281 1376.18 L780.236 1376.18 L780.236 1376.18  Z
  " fill="#009af9" fill-rule="evenodd" fill-opacity="1"/>
<polyline clip-path="url(#clip742)" style="stroke:#000000; stroke-width:4; stroke-opacity:1; fill:none" points="
  780.236,1376.18 780.236,1445.72 809.281,1445.72 809.281,1376.18 780.236,1376.18 
  "/>
<path clip-path="url(#clip742)" d="
M809.281 1379.65 L809.281 1445.72 L838.326 1445.72 L838.326 1379.65 L809.281 1379.65 L809.281 1379.65  Z
  " fill="#009af9" fill-rule="evenodd" fill-opacity="1"/>
<polyline clip-path="url(#clip742)" style="stroke:#000000; stroke-width:4; stroke-opacity:1; fill:none" points="
  809.281,1379.65 809.281,1445.72 838.326,1445.72 838.326,1379.65 809.281,1379.65 
  "/>
<path clip-path="url(#clip742)" d="
M838.326 1367.48 L838.326 1445.72 L867.371 1445.72 L867.371 1367.48 L838.326 1367.48 L838.326 1367.48  Z
  " fill="#009af9" fill-rule="evenodd" fill-opacity="1"/>
<polyline clip-path="url(#clip742)" style="stroke:#000000; stroke-width:4; stroke-opacity:1; fill:none" points="
  838.326,1367.48 838.326,1445.72 867.371,1445.72 867.371,1367.48 838.326,1367.48 
  "/>
<path clip-path="url(#clip742)" d="
M867.371 1355.32 L867.371 1445.72 L896.416 1445.72 L896.416 1355.32 L867.371 1355.32 L867.371 1355.32  Z
  " fill="#009af9" fill-rule="evenodd" fill-opacity="1"/>
<polyline clip-path="url(#clip742)" style="stroke:#000000; stroke-width:4; stroke-opacity:1; fill:none" points="
  867.371,1355.32 867.371,1445.72 896.416,1445.72 896.416,1355.32 867.371,1355.32 
  "/>
<path clip-path="url(#clip742)" d="
M896.416 1346.62 L896.416 1445.72 L925.461 1445.72 L925.461 1346.62 L896.416 1346.62 L896.416 1346.62  Z
  " fill="#009af9" fill-rule="evenodd" fill-opacity="1"/>
<polyline clip-path="url(#clip742)" style="stroke:#000000; stroke-width:4; stroke-opacity:1; fill:none" points="
  896.416,1346.62 896.416,1445.72 925.461,1445.72 925.461,1346.62 896.416,1346.62 
  "/>
<path clip-path="url(#clip742)" d="
M925.461 1317.07 L925.461 1445.72 L954.507 1445.72 L954.507 1317.07 L925.461 1317.07 L925.461 1317.07  Z
  " fill="#009af9" fill-rule="evenodd" fill-opacity="1"/>
<polyline clip-path="url(#clip742)" style="stroke:#000000; stroke-width:4; stroke-opacity:1; fill:none" points="
  925.461,1317.07 925.461,1445.72 954.507,1445.72 954.507,1317.07 925.461,1317.07 
  "/>
<path clip-path="url(#clip742)" d="
M954.507 1294.47 L954.507 1445.72 L983.552 1445.72 L983.552 1294.47 L954.507 1294.47 L954.507 1294.47  Z
  " fill="#009af9" fill-rule="evenodd" fill-opacity="1"/>
<polyline clip-path="url(#clip742)" style="stroke:#000000; stroke-width:4; stroke-opacity:1; fill:none" points="
  954.507,1294.47 954.507,1445.72 983.552,1445.72 983.552,1294.47 954.507,1294.47 
  "/>
<path clip-path="url(#clip742)" d="
M983.552 1303.16 L983.552 1445.72 L1012.6 1445.72 L1012.6 1303.16 L983.552 1303.16 L983.552 1303.16  Z
  " fill="#009af9" fill-rule="evenodd" fill-opacity="1"/>
<polyline clip-path="url(#clip742)" style="stroke:#000000; stroke-width:4; stroke-opacity:1; fill:none" points="
  983.552,1303.16 983.552,1445.72 1012.6,1445.72 1012.6,1303.16 983.552,1303.16 
  "/>
<path clip-path="url(#clip742)" d="
M1012.6 1290.99 L1012.6 1445.72 L1041.64 1445.72 L1041.64 1290.99 L1012.6 1290.99 L1012.6 1290.99  Z
  " fill="#009af9" fill-rule="evenodd" fill-opacity="1"/>
<polyline clip-path="url(#clip742)" style="stroke:#000000; stroke-width:4; stroke-opacity:1; fill:none" points="
  1012.6,1290.99 1012.6,1445.72 1041.64,1445.72 1041.64,1290.99 1012.6,1290.99 
  "/>
<path clip-path="url(#clip742)" d="
M1041.64 1257.96 L1041.64 1445.72 L1070.69 1445.72 L1070.69 1257.96 L1041.64 1257.96 L1041.64 1257.96  Z
  " fill="#009af9" fill-rule="evenodd" fill-opacity="1"/>
<polyline clip-path="url(#clip742)" style="stroke:#000000; stroke-width:4; stroke-opacity:1; fill:none" points="
  1041.64,1257.96 1041.64,1445.72 1070.69,1445.72 1070.69,1257.96 1041.64,1257.96 
  "/>
<path clip-path="url(#clip742)" d="
M1070.69 1297.95 L1070.69 1445.72 L1099.73 1445.72 L1099.73 1297.95 L1070.69 1297.95 L1070.69 1297.95  Z
  " fill="#009af9" fill-rule="evenodd" fill-opacity="1"/>
<polyline clip-path="url(#clip742)" style="stroke:#000000; stroke-width:4; stroke-opacity:1; fill:none" points="
  1070.69,1297.95 1070.69,1445.72 1099.73,1445.72 1099.73,1297.95 1070.69,1297.95 
  "/>
<path clip-path="url(#clip742)" d="
M1099.73 1256.22 L1099.73 1445.72 L1128.78 1445.72 L1128.78 1256.22 L1099.73 1256.22 L1099.73 1256.22  Z
  " fill="#009af9" fill-rule="evenodd" fill-opacity="1"/>
<polyline clip-path="url(#clip742)" style="stroke:#000000; stroke-width:4; stroke-opacity:1; fill:none" points="
  1099.73,1256.22 1099.73,1445.72 1128.78,1445.72 1128.78,1256.22 1099.73,1256.22 
  "/>
<path clip-path="url(#clip742)" d="
M1128.78 1257.96 L1128.78 1445.72 L1157.82 1445.72 L1157.82 1257.96 L1128.78 1257.96 L1128.78 1257.96  Z
  " fill="#009af9" fill-rule="evenodd" fill-opacity="1"/>
<polyline clip-path="url(#clip742)" style="stroke:#000000; stroke-width:4; stroke-opacity:1; fill:none" points="
  1128.78,1257.96 1128.78,1445.72 1157.82,1445.72 1157.82,1257.96 1128.78,1257.96 
  "/>
<path clip-path="url(#clip742)" d="
M1157.82 1228.41 L1157.82 1445.72 L1186.87 1445.72 L1186.87 1228.41 L1157.82 1228.41 L1157.82 1228.41  Z
  " fill="#009af9" fill-rule="evenodd" fill-opacity="1"/>
<polyline clip-path="url(#clip742)" style="stroke:#000000; stroke-width:4; stroke-opacity:1; fill:none" points="
  1157.82,1228.41 1157.82,1445.72 1186.87,1445.72 1186.87,1228.41 1157.82,1228.41 
  "/>
<path clip-path="url(#clip742)" d="
M1186.87 1230.15 L1186.87 1445.72 L1215.91 1445.72 L1215.91 1230.15 L1186.87 1230.15 L1186.87 1230.15  Z
  " fill="#009af9" fill-rule="evenodd" fill-opacity="1"/>
<polyline clip-path="url(#clip742)" style="stroke:#000000; stroke-width:4; stroke-opacity:1; fill:none" points="
  1186.87,1230.15 1186.87,1445.72 1215.91,1445.72 1215.91,1230.15 1186.87,1230.15 
  "/>
<path clip-path="url(#clip742)" d="
M1215.91 1242.32 L1215.91 1445.72 L1244.96 1445.72 L1244.96 1242.32 L1215.91 1242.32 L1215.91 1242.32  Z
  " fill="#009af9" fill-rule="evenodd" fill-opacity="1"/>
<polyline clip-path="url(#clip742)" style="stroke:#000000; stroke-width:4; stroke-opacity:1; fill:none" points="
  1215.91,1242.32 1215.91,1445.72 1244.96,1445.72 1244.96,1242.32 1215.91,1242.32 
  "/>
<path clip-path="url(#clip742)" d="
M1244.96 1251.01 L1244.96 1445.72 L1274 1445.72 L1274 1251.01 L1244.96 1251.01 L1244.96 1251.01  Z
  " fill="#009af9" fill-rule="evenodd" fill-opacity="1"/>
<polyline clip-path="url(#clip742)" style="stroke:#000000; stroke-width:4; stroke-opacity:1; fill:none" points="
  1244.96,1251.01 1244.96,1445.72 1274,1445.72 1274,1251.01 1244.96,1251.01 
  "/>
<path clip-path="url(#clip742)" d="
M1274 1238.84 L1274 1445.72 L1303.05 1445.72 L1303.05 1238.84 L1274 1238.84 L1274 1238.84  Z
  " fill="#009af9" fill-rule="evenodd" fill-opacity="1"/>
<polyline clip-path="url(#clip742)" style="stroke:#000000; stroke-width:4; stroke-opacity:1; fill:none" points="
  1274,1238.84 1274,1445.72 1303.05,1445.72 1303.05,1238.84 1274,1238.84 
  "/>
<path clip-path="url(#clip742)" d="
M1303.05 1162.35 L1303.05 1445.72 L1332.09 1445.72 L1332.09 1162.35 L1303.05 1162.35 L1303.05 1162.35  Z
  " fill="#009af9" fill-rule="evenodd" fill-opacity="1"/>
<polyline clip-path="url(#clip742)" style="stroke:#000000; stroke-width:4; stroke-opacity:1; fill:none" points="
  1303.05,1162.35 1303.05,1445.72 1332.09,1445.72 1332.09,1162.35 1303.05,1162.35 
  "/>
<path clip-path="url(#clip742)" d="
M1332.09 786.838 L1332.09 1445.72 L1361.14 1445.72 L1361.14 786.838 L1332.09 786.838 L1332.09 786.838  Z
  " fill="#009af9" fill-rule="evenodd" fill-opacity="1"/>
<polyline clip-path="url(#clip742)" style="stroke:#000000; stroke-width:4; stroke-opacity:1; fill:none" points="
  1332.09,786.838 1332.09,1445.72 1361.14,1445.72 1361.14,786.838 1332.09,786.838 
  "/>
<path clip-path="url(#clip742)" d="
M1361.14 87.9763 L1361.14 1445.72 L1390.18 1445.72 L1390.18 87.9763 L1361.14 87.9763 L1361.14 87.9763  Z
  " fill="#009af9" fill-rule="evenodd" fill-opacity="1"/>
<polyline clip-path="url(#clip742)" style="stroke:#000000; stroke-width:4; stroke-opacity:1; fill:none" points="
  1361.14,87.9763 1361.14,1445.72 1390.18,1445.72 1390.18,87.9763 1361.14,87.9763 
  "/>
<path clip-path="url(#clip742)" d="
M1390.18 209.669 L1390.18 1445.72 L1419.23 1445.72 L1419.23 209.669 L1390.18 209.669 L1390.18 209.669  Z
  " fill="#009af9" fill-rule="evenodd" fill-opacity="1"/>
<polyline clip-path="url(#clip742)" style="stroke:#000000; stroke-width:4; stroke-opacity:1; fill:none" points="
  1390.18,209.669 1390.18,1445.72 1419.23,1445.72 1419.23,209.669 1390.18,209.669 
  "/>
<path clip-path="url(#clip742)" d="
M1419.23 771.192 L1419.23 1445.72 L1448.27 1445.72 L1448.27 771.192 L1419.23 771.192 L1419.23 771.192  Z
  " fill="#009af9" fill-rule="evenodd" fill-opacity="1"/>
<polyline clip-path="url(#clip742)" style="stroke:#000000; stroke-width:4; stroke-opacity:1; fill:none" points="
  1419.23,771.192 1419.23,1445.72 1448.27,1445.72 1448.27,771.192 1419.23,771.192 
  "/>
<path clip-path="url(#clip742)" d="
M1448.27 1191.9 L1448.27 1445.72 L1477.32 1445.72 L1477.32 1191.9 L1448.27 1191.9 L1448.27 1191.9  Z
  " fill="#009af9" fill-rule="evenodd" fill-opacity="1"/>
<polyline clip-path="url(#clip742)" style="stroke:#000000; stroke-width:4; stroke-opacity:1; fill:none" points="
  1448.27,1191.9 1448.27,1445.72 1477.32,1445.72 1477.32,1191.9 1448.27,1191.9 
  "/>
<path clip-path="url(#clip742)" d="
M1477.32 1296.21 L1477.32 1445.72 L1506.36 1445.72 L1506.36 1296.21 L1477.32 1296.21 L1477.32 1296.21  Z
  " fill="#009af9" fill-rule="evenodd" fill-opacity="1"/>
<polyline clip-path="url(#clip742)" style="stroke:#000000; stroke-width:4; stroke-opacity:1; fill:none" points="
  1477.32,1296.21 1477.32,1445.72 1506.36,1445.72 1506.36,1296.21 1477.32,1296.21 
  "/>
<path clip-path="url(#clip742)" d="
M1506.36 1301.42 L1506.36 1445.72 L1535.41 1445.72 L1535.41 1301.42 L1506.36 1301.42 L1506.36 1301.42  Z
  " fill="#009af9" fill-rule="evenodd" fill-opacity="1"/>
<polyline clip-path="url(#clip742)" style="stroke:#000000; stroke-width:4; stroke-opacity:1; fill:none" points="
  1506.36,1301.42 1506.36,1445.72 1535.41,1445.72 1535.41,1301.42 1506.36,1301.42 
  "/>
<path clip-path="url(#clip742)" d="
M1535.41 1294.47 L1535.41 1445.72 L1564.45 1445.72 L1564.45 1294.47 L1535.41 1294.47 L1535.41 1294.47  Z
  " fill="#009af9" fill-rule="evenodd" fill-opacity="1"/>
<polyline clip-path="url(#clip742)" style="stroke:#000000; stroke-width:4; stroke-opacity:1; fill:none" points="
  1535.41,1294.47 1535.41,1445.72 1564.45,1445.72 1564.45,1294.47 1535.41,1294.47 
  "/>
<path clip-path="url(#clip742)" d="
M1564.45 1332.72 L1564.45 1445.72 L1593.5 1445.72 L1593.5 1332.72 L1564.45 1332.72 L1564.45 1332.72  Z
  " fill="#009af9" fill-rule="evenodd" fill-opacity="1"/>
<polyline clip-path="url(#clip742)" style="stroke:#000000; stroke-width:4; stroke-opacity:1; fill:none" points="
  1564.45,1332.72 1564.45,1445.72 1593.5,1445.72 1593.5,1332.72 1564.45,1332.72 
  "/>
<path clip-path="url(#clip742)" d="
M1593.5 1343.15 L1593.5 1445.72 L1622.54 1445.72 L1622.54 1343.15 L1593.5 1343.15 L1593.5 1343.15  Z
  " fill="#009af9" fill-rule="evenodd" fill-opacity="1"/>
<polyline clip-path="url(#clip742)" style="stroke:#000000; stroke-width:4; stroke-opacity:1; fill:none" points="
  1593.5,1343.15 1593.5,1445.72 1622.54,1445.72 1622.54,1343.15 1593.5,1343.15 
  "/>
<path clip-path="url(#clip742)" d="
M1622.54 1341.41 L1622.54 1445.72 L1651.59 1445.72 L1651.59 1341.41 L1622.54 1341.41 L1622.54 1341.41  Z
  " fill="#009af9" fill-rule="evenodd" fill-opacity="1"/>
<polyline clip-path="url(#clip742)" style="stroke:#000000; stroke-width:4; stroke-opacity:1; fill:none" points="
  1622.54,1341.41 1622.54,1445.72 1651.59,1445.72 1651.59,1341.41 1622.54,1341.41 
  "/>
<path clip-path="url(#clip742)" d="
M1651.59 1364.01 L1651.59 1445.72 L1680.63 1445.72 L1680.63 1364.01 L1651.59 1364.01 L1651.59 1364.01  Z
  " fill="#009af9" fill-rule="evenodd" fill-opacity="1"/>
<polyline clip-path="url(#clip742)" style="stroke:#000000; stroke-width:4; stroke-opacity:1; fill:none" points="
  1651.59,1364.01 1651.59,1445.72 1680.63,1445.72 1680.63,1364.01 1651.59,1364.01 
  "/>
<path clip-path="url(#clip742)" d="
M1680.63 1374.44 L1680.63 1445.72 L1709.68 1445.72 L1709.68 1374.44 L1680.63 1374.44 L1680.63 1374.44  Z
  " fill="#009af9" fill-rule="evenodd" fill-opacity="1"/>
<polyline clip-path="url(#clip742)" style="stroke:#000000; stroke-width:4; stroke-opacity:1; fill:none" points="
  1680.63,1374.44 1680.63,1445.72 1709.68,1445.72 1709.68,1374.44 1680.63,1374.44 
  "/>
<path clip-path="url(#clip742)" d="
M1709.68 1391.82 L1709.68 1445.72 L1738.72 1445.72 L1738.72 1391.82 L1709.68 1391.82 L1709.68 1391.82  Z
  " fill="#009af9" fill-rule="evenodd" fill-opacity="1"/>
<polyline clip-path="url(#clip742)" style="stroke:#000000; stroke-width:4; stroke-opacity:1; fill:none" points="
  1709.68,1391.82 1709.68,1445.72 1738.72,1445.72 1738.72,1391.82 1709.68,1391.82 
  "/>
<path clip-path="url(#clip742)" d="
M1738.72 1391.82 L1738.72 1445.72 L1767.77 1445.72 L1767.77 1391.82 L1738.72 1391.82 L1738.72 1391.82  Z
  " fill="#009af9" fill-rule="evenodd" fill-opacity="1"/>
<polyline clip-path="url(#clip742)" style="stroke:#000000; stroke-width:4; stroke-opacity:1; fill:none" points="
  1738.72,1391.82 1738.72,1445.72 1767.77,1445.72 1767.77,1391.82 1738.72,1391.82 
  "/>
<path clip-path="url(#clip742)" d="
M1767.77 1403.99 L1767.77 1445.72 L1796.81 1445.72 L1796.81 1403.99 L1767.77 1403.99 L1767.77 1403.99  Z
  " fill="#009af9" fill-rule="evenodd" fill-opacity="1"/>
<polyline clip-path="url(#clip742)" style="stroke:#000000; stroke-width:4; stroke-opacity:1; fill:none" points="
  1767.77,1403.99 1767.77,1445.72 1796.81,1445.72 1796.81,1403.99 1767.77,1403.99 
  "/>
<path clip-path="url(#clip742)" d="
M1796.81 1417.9 L1796.81 1445.72 L1825.86 1445.72 L1825.86 1417.9 L1796.81 1417.9 L1796.81 1417.9  Z
  " fill="#009af9" fill-rule="evenodd" fill-opacity="1"/>
<polyline clip-path="url(#clip742)" style="stroke:#000000; stroke-width:4; stroke-opacity:1; fill:none" points="
  1796.81,1417.9 1796.81,1445.72 1825.86,1445.72 1825.86,1417.9 1796.81,1417.9 
  "/>
<path clip-path="url(#clip742)" d="
M1825.86 1424.85 L1825.86 1445.72 L1854.91 1445.72 L1854.91 1424.85 L1825.86 1424.85 L1825.86 1424.85  Z
  " fill="#009af9" fill-rule="evenodd" fill-opacity="1"/>
<polyline clip-path="url(#clip742)" style="stroke:#000000; stroke-width:4; stroke-opacity:1; fill:none" points="
  1825.86,1424.85 1825.86,1445.72 1854.91,1445.72 1854.91,1424.85 1825.86,1424.85 
  "/>
<path clip-path="url(#clip742)" d="
M1854.91 1423.12 L1854.91 1445.72 L1883.95 1445.72 L1883.95 1423.12 L1854.91 1423.12 L1854.91 1423.12  Z
  " fill="#009af9" fill-rule="evenodd" fill-opacity="1"/>
<polyline clip-path="url(#clip742)" style="stroke:#000000; stroke-width:4; stroke-opacity:1; fill:none" points="
  1854.91,1423.12 1854.91,1445.72 1883.95,1445.72 1883.95,1423.12 1854.91,1423.12 
  "/>
<path clip-path="url(#clip742)" d="
M1883.95 1428.33 L1883.95 1445.72 L1913 1445.72 L1913 1428.33 L1883.95 1428.33 L1883.95 1428.33  Z
  " fill="#009af9" fill-rule="evenodd" fill-opacity="1"/>
<polyline clip-path="url(#clip742)" style="stroke:#000000; stroke-width:4; stroke-opacity:1; fill:none" points="
  1883.95,1428.33 1883.95,1445.72 1913,1445.72 1913,1428.33 1883.95,1428.33 
  "/>
<path clip-path="url(#clip742)" d="
M1913 1433.55 L1913 1445.72 L1942.04 1445.72 L1942.04 1433.55 L1913 1433.55 L1913 1433.55  Z
  " fill="#009af9" fill-rule="evenodd" fill-opacity="1"/>
<polyline clip-path="url(#clip742)" style="stroke:#000000; stroke-width:4; stroke-opacity:1; fill:none" points="
  1913,1433.55 1913,1445.72 1942.04,1445.72 1942.04,1433.55 1913,1433.55 
  "/>
<path clip-path="url(#clip742)" d="
M1942.04 1435.28 L1942.04 1445.72 L1971.09 1445.72 L1971.09 1435.28 L1942.04 1435.28 L1942.04 1435.28  Z
  " fill="#009af9" fill-rule="evenodd" fill-opacity="1"/>
<polyline clip-path="url(#clip742)" style="stroke:#000000; stroke-width:4; stroke-opacity:1; fill:none" points="
  1942.04,1435.28 1942.04,1445.72 1971.09,1445.72 1971.09,1435.28 1942.04,1435.28 
  "/>
<path clip-path="url(#clip742)" d="
M1971.09 1437.02 L1971.09 1445.72 L2000.13 1445.72 L2000.13 1437.02 L1971.09 1437.02 L1971.09 1437.02  Z
  " fill="#009af9" fill-rule="evenodd" fill-opacity="1"/>
<polyline clip-path="url(#clip742)" style="stroke:#000000; stroke-width:4; stroke-opacity:1; fill:none" points="
  1971.09,1437.02 1971.09,1445.72 2000.13,1445.72 2000.13,1437.02 1971.09,1437.02 
  "/>
<path clip-path="url(#clip742)" d="
M2000.13 1433.55 L2000.13 1445.72 L2029.18 1445.72 L2029.18 1433.55 L2000.13 1433.55 L2000.13 1433.55  Z
  " fill="#009af9" fill-rule="evenodd" fill-opacity="1"/>
<polyline clip-path="url(#clip742)" style="stroke:#000000; stroke-width:4; stroke-opacity:1; fill:none" points="
  2000.13,1433.55 2000.13,1445.72 2029.18,1445.72 2029.18,1433.55 2000.13,1433.55 
  "/>
<path clip-path="url(#clip742)" d="
M2029.18 1440.5 L2029.18 1445.72 L2058.22 1445.72 L2058.22 1440.5 L2029.18 1440.5 L2029.18 1440.5  Z
  " fill="#009af9" fill-rule="evenodd" fill-opacity="1"/>
<polyline clip-path="url(#clip742)" style="stroke:#000000; stroke-width:4; stroke-opacity:1; fill:none" points="
  2029.18,1440.5 2029.18,1445.72 2058.22,1445.72 2058.22,1440.5 2029.18,1440.5 
  "/>
<path clip-path="url(#clip742)" d="
M2058.22 1433.55 L2058.22 1445.72 L2087.27 1445.72 L2087.27 1433.55 L2058.22 1433.55 L2058.22 1433.55  Z
  " fill="#009af9" fill-rule="evenodd" fill-opacity="1"/>
<polyline clip-path="url(#clip742)" style="stroke:#000000; stroke-width:4; stroke-opacity:1; fill:none" points="
  2058.22,1433.55 2058.22,1445.72 2087.27,1445.72 2087.27,1433.55 2058.22,1433.55 
  "/>
<path clip-path="url(#clip742)" d="
M2087.27 1443.98 L2087.27 1445.72 L2116.31 1445.72 L2116.31 1443.98 L2087.27 1443.98 L2087.27 1443.98  Z
  " fill="#009af9" fill-rule="evenodd" fill-opacity="1"/>
<polyline clip-path="url(#clip742)" style="stroke:#000000; stroke-width:4; stroke-opacity:1; fill:none" points="
  2087.27,1443.98 2087.27,1445.72 2116.31,1445.72 2116.31,1443.98 2087.27,1443.98 
  "/>
<path clip-path="url(#clip742)" d="
M2116.31 1445.72 L2116.31 1445.72 L2145.36 1445.72 L2145.36 1445.72 L2116.31 1445.72 L2116.31 1445.72  Z
  " fill="#009af9" fill-rule="evenodd" fill-opacity="1"/>
<polyline clip-path="url(#clip742)" style="stroke:#000000; stroke-width:4; stroke-opacity:1; fill:none" points="
  2116.31,1445.72 2116.31,1445.72 2145.36,1445.72 2116.31,1445.72 
  "/>
<path clip-path="url(#clip742)" d="
M2145.36 1445.72 L2145.36 1445.72 L2174.4 1445.72 L2174.4 1445.72 L2145.36 1445.72 L2145.36 1445.72  Z
  " fill="#009af9" fill-rule="evenodd" fill-opacity="1"/>
<polyline clip-path="url(#clip742)" style="stroke:#000000; stroke-width:4; stroke-opacity:1; fill:none" points="
  2145.36,1445.72 2145.36,1445.72 2174.4,1445.72 2145.36,1445.72 
  "/>
<path clip-path="url(#clip742)" d="
M2174.4 1445.72 L2174.4 1445.72 L2203.45 1445.72 L2203.45 1445.72 L2174.4 1445.72 L2174.4 1445.72  Z
  " fill="#009af9" fill-rule="evenodd" fill-opacity="1"/>
<polyline clip-path="url(#clip742)" style="stroke:#000000; stroke-width:4; stroke-opacity:1; fill:none" points="
  2174.4,1445.72 2174.4,1445.72 2203.45,1445.72 2174.4,1445.72 
  "/>
<path clip-path="url(#clip742)" d="
M2203.45 1443.98 L2203.45 1445.72 L2232.49 1445.72 L2232.49 1443.98 L2203.45 1443.98 L2203.45 1443.98  Z
  " fill="#009af9" fill-rule="evenodd" fill-opacity="1"/>
<polyline clip-path="url(#clip742)" style="stroke:#000000; stroke-width:4; stroke-opacity:1; fill:none" points="
  2203.45,1443.98 2203.45,1445.72 2232.49,1445.72 2232.49,1443.98 2203.45,1443.98 
  "/>
<path clip-path="url(#clip740)" d="
M1989.74 251.724 L2280.76 251.724 L2280.76 130.764 L1989.74 130.764  Z
  " fill="#ffffff" fill-rule="evenodd" fill-opacity="1"/>
<polyline clip-path="url(#clip740)" style="stroke:#000000; stroke-width:4; stroke-opacity:1; fill:none" points="
  1989.74,251.724 2280.76,251.724 2280.76,130.764 1989.74,130.764 1989.74,251.724 
  "/>
<path clip-path="url(#clip740)" d="
M2013.74 215.436 L2157.74 215.436 L2157.74 167.052 L2013.74 167.052 L2013.74 215.436  Z
  " fill="#009af9" fill-rule="evenodd" fill-opacity="1"/>
<polyline clip-path="url(#clip740)" style="stroke:#000000; stroke-width:4; stroke-opacity:1; fill:none" points="
  2013.74,215.436 2157.74,215.436 2157.74,167.052 2013.74,167.052 2013.74,215.436 
  "/>
<path clip-path="url(#clip740)" d="M 0 0 M2195.58 210.931 Q2193.77 215.561 2192.06 216.973 Q2190.35 218.385 2187.48 218.385 L2184.08 218.385 L2184.08 214.82 L2186.58 214.82 Q2188.33 214.82 2189.31 213.987 Q2190.28 213.154 2191.46 210.052 L2192.22 208.107 L2181.74 182.598 L2186.25 182.598 L2194.35 202.876 L2202.46 182.598 L2206.97 182.598 L2195.58 210.931 Z" fill="#000000" fill-rule="evenodd" fill-opacity="1" /><path clip-path="url(#clip740)" d="M 0 0 M2212.85 204.589 L2220.49 204.589 L2220.49 178.223 L2212.18 179.89 L2212.18 175.631 L2220.44 173.964 L2225.12 173.964 L2225.12 204.589 L2232.76 204.589 L2232.76 208.524 L2212.85 208.524 L2212.85 204.589 Z" fill="#000000" fill-rule="evenodd" fill-opacity="1" /></svg>
