<?xml version="1.0" encoding="utf-8"?>
<svg xmlns="http://www.w3.org/2000/svg" xmlns:xlink="http://www.w3.org/1999/xlink" width="600" height="400" viewBox="0 0 2400 1600">
<defs>
  <clipPath id="clip990">
    <rect x="0" y="0" width="2400" height="1600"/>
  </clipPath>
</defs>
<path clip-path="url(#clip990)" d="
M0 1600 L2400 1600 L2400 0 L0 0  Z
  " fill="#ffffff" fill-rule="evenodd" fill-opacity="1"/>
<defs>
  <clipPath id="clip991">
    <rect x="480" y="0" width="1681" height="1600"/>
  </clipPath>
</defs>
<path clip-path="url(#clip990)" d="
M166.205 1486.45 L2352.76 1486.45 L2352.76 47.2441 L166.205 47.2441  Z
  " fill="#ffffff" fill-rule="evenodd" fill-opacity="1"/>
<defs>
  <clipPath id="clip992">
    <rect x="166" y="47" width="2188" height="1440"/>
  </clipPath>
</defs>
<polyline clip-path="url(#clip992)" style="stroke:#000000; stroke-width:2; stroke-opacity:0.1; fill:none" points="
  423.513,1486.45 423.513,47.2441 
  "/>
<polyline clip-path="url(#clip992)" style="stroke:#000000; stroke-width:2; stroke-opacity:0.1; fill:none" points="
  834.644,1486.45 834.644,47.2441 
  "/>
<polyline clip-path="url(#clip992)" style="stroke:#000000; stroke-width:2; stroke-opacity:0.1; fill:none" points="
  1245.78,1486.45 1245.78,47.2441 
  "/>
<polyline clip-path="url(#clip992)" style="stroke:#000000; stroke-width:2; stroke-opacity:0.1; fill:none" points="
  1656.91,1486.45 1656.91,47.2441 
  "/>
<polyline clip-path="url(#clip992)" style="stroke:#000000; stroke-width:2; stroke-opacity:0.1; fill:none" points="
  2068.04,1486.45 2068.04,47.2441 
  "/>
<polyline clip-path="url(#clip992)" style="stroke:#000000; stroke-width:2; stroke-opacity:0.1; fill:none" points="
  166.205,1445.72 2352.76,1445.72 
  "/>
<polyline clip-path="url(#clip992)" style="stroke:#000000; stroke-width:2; stroke-opacity:0.1; fill:none" points="
  166.205,1092.6 2352.76,1092.6 
  "/>
<polyline clip-path="url(#clip992)" style="stroke:#000000; stroke-width:2; stroke-opacity:0.1; fill:none" points="
  166.205,739.479 2352.76,739.479 
  "/>
<polyline clip-path="url(#clip992)" style="stroke:#000000; stroke-width:2; stroke-opacity:0.1; fill:none" points="
  166.205,386.361 2352.76,386.361 
  "/>
<polyline clip-path="url(#clip990)" style="stroke:#000000; stroke-width:4; stroke-opacity:1; fill:none" points="
  166.205,1486.45 2352.76,1486.45 
  "/>
<polyline clip-path="url(#clip990)" style="stroke:#000000; stroke-width:4; stroke-opacity:1; fill:none" points="
  166.205,1486.45 166.205,47.2441 
  "/>
<polyline clip-path="url(#clip990)" style="stroke:#000000; stroke-width:4; stroke-opacity:1; fill:none" points="
  423.513,1486.45 423.513,1469.18 
  "/>
<polyline clip-path="url(#clip990)" style="stroke:#000000; stroke-width:4; stroke-opacity:1; fill:none" points="
  834.644,1486.45 834.644,1469.18 
  "/>
<polyline clip-path="url(#clip990)" style="stroke:#000000; stroke-width:4; stroke-opacity:1; fill:none" points="
  1245.78,1486.45 1245.78,1469.18 
  "/>
<polyline clip-path="url(#clip990)" style="stroke:#000000; stroke-width:4; stroke-opacity:1; fill:none" points="
  1656.91,1486.45 1656.91,1469.18 
  "/>
<polyline clip-path="url(#clip990)" style="stroke:#000000; stroke-width:4; stroke-opacity:1; fill:none" points="
  2068.04,1486.45 2068.04,1469.18 
  "/>
<polyline clip-path="url(#clip990)" style="stroke:#000000; stroke-width:4; stroke-opacity:1; fill:none" points="
  166.205,1445.72 192.443,1445.72 
  "/>
<polyline clip-path="url(#clip990)" style="stroke:#000000; stroke-width:4; stroke-opacity:1; fill:none" points="
  166.205,1092.6 192.443,1092.6 
  "/>
<polyline clip-path="url(#clip990)" style="stroke:#000000; stroke-width:4; stroke-opacity:1; fill:none" points="
  166.205,739.479 192.443,739.479 
  "/>
<polyline clip-path="url(#clip990)" style="stroke:#000000; stroke-width:4; stroke-opacity:1; fill:none" points="
  166.205,386.361 192.443,386.361 
  "/>
<path clip-path="url(#clip990)" d="M 0 0 M403.686 1525.04 L416.163 1525.04 L416.163 1528.83 L403.686 1528.83 L403.686 1525.04 Z" fill="#000000" fill-rule="evenodd" fill-opacity="1" /><path clip-path="url(#clip990)" d="M 0 0 M431.811 1520.78 Q428.663 1520.78 426.811 1522.93 Q424.983 1525.08 424.983 1528.83 Q424.983 1532.56 426.811 1534.73 Q428.663 1536.89 431.811 1536.89 Q434.959 1536.89 436.788 1534.73 Q438.64 1532.56 438.64 1528.83 Q438.64 1525.08 436.788 1522.93 Q434.959 1520.78 431.811 1520.78 M441.094 1506.12 L441.094 1510.38 Q439.334 1509.55 437.529 1509.11 Q435.746 1508.67 433.987 1508.67 Q429.358 1508.67 426.904 1511.8 Q424.473 1514.92 424.126 1521.24 Q425.492 1519.23 427.552 1518.16 Q429.612 1517.07 432.089 1517.07 Q437.297 1517.07 440.307 1520.24 Q443.339 1523.39 443.339 1528.83 Q443.339 1534.16 440.191 1537.37 Q437.043 1540.59 431.811 1540.59 Q425.816 1540.59 422.645 1536.01 Q419.473 1531.4 419.473 1522.67 Q419.473 1514.48 423.362 1509.62 Q427.251 1504.73 433.802 1504.73 Q435.561 1504.73 437.344 1505.08 Q439.149 1505.43 441.094 1506.12 Z" fill="#000000" fill-rule="evenodd" fill-opacity="1" /><path clip-path="url(#clip990)" d="M 0 0 M815.223 1525.04 L827.7 1525.04 L827.7 1528.83 L815.223 1528.83 L815.223 1525.04 Z" fill="#000000" fill-rule="evenodd" fill-opacity="1" /><path clip-path="url(#clip990)" d="M 0 0 M846.936 1521.29 Q850.292 1522 852.167 1524.27 Q854.066 1526.54 854.066 1529.87 Q854.066 1534.99 850.547 1537.79 Q847.029 1540.59 840.547 1540.59 Q838.371 1540.59 836.056 1540.15 Q833.765 1539.73 831.311 1538.88 L831.311 1534.36 Q833.255 1535.5 835.57 1536.08 Q837.885 1536.66 840.408 1536.66 Q844.806 1536.66 847.098 1534.92 Q849.413 1533.18 849.413 1529.87 Q849.413 1526.82 847.26 1525.11 Q845.13 1523.37 841.311 1523.37 L837.283 1523.37 L837.283 1519.53 L841.496 1519.53 Q844.945 1519.53 846.774 1518.16 Q848.603 1516.77 848.603 1514.18 Q848.603 1511.52 846.704 1510.11 Q844.829 1508.67 841.311 1508.67 Q839.39 1508.67 837.191 1509.09 Q834.992 1509.5 832.353 1510.38 L832.353 1506.22 Q835.015 1505.48 837.329 1505.11 Q839.667 1504.73 841.728 1504.73 Q847.052 1504.73 850.153 1507.17 Q853.255 1509.57 853.255 1513.69 Q853.255 1516.56 851.612 1518.55 Q849.968 1520.52 846.936 1521.29 Z" fill="#000000" fill-rule="evenodd" fill-opacity="1" /><path clip-path="url(#clip990)" d="M 0 0 M1245.78 1508.44 Q1242.16 1508.44 1240.34 1512 Q1238.53 1515.55 1238.53 1522.67 Q1238.53 1529.78 1240.34 1533.35 Q1242.16 1536.89 1245.78 1536.89 Q1249.41 1536.89 1251.22 1533.35 Q1253.04 1529.78 1253.04 1522.67 Q1253.04 1515.55 1251.22 1512 Q1249.41 1508.44 1245.78 1508.44 M1245.78 1504.73 Q1251.59 1504.73 1254.64 1509.34 Q1257.72 1513.92 1257.72 1522.67 Q1257.72 1531.4 1254.64 1536.01 Q1251.59 1540.59 1245.78 1540.59 Q1239.97 1540.59 1236.89 1536.01 Q1233.83 1531.4 1233.83 1522.67 Q1233.83 1513.92 1236.89 1509.34 Q1239.97 1504.73 1245.78 1504.73 Z" fill="#000000" fill-rule="evenodd" fill-opacity="1" /><path clip-path="url(#clip990)" d="M 0 0 M1661.16 1521.29 Q1664.51 1522 1666.39 1524.27 Q1668.28 1526.54 1668.28 1529.87 Q1668.28 1534.99 1664.77 1537.79 Q1661.25 1540.59 1654.77 1540.59 Q1652.59 1540.59 1650.28 1540.15 Q1647.98 1539.73 1645.53 1538.88 L1645.53 1534.36 Q1647.47 1535.5 1649.79 1536.08 Q1652.1 1536.66 1654.63 1536.66 Q1659.03 1536.66 1661.32 1534.92 Q1663.63 1533.18 1663.63 1529.87 Q1663.63 1526.82 1661.48 1525.11 Q1659.35 1523.37 1655.53 1523.37 L1651.5 1523.37 L1651.5 1519.53 L1655.72 1519.53 Q1659.16 1519.53 1660.99 1518.16 Q1662.82 1516.77 1662.82 1514.18 Q1662.82 1511.52 1660.92 1510.11 Q1659.05 1508.67 1655.53 1508.67 Q1653.61 1508.67 1651.41 1509.09 Q1649.21 1509.5 1646.57 1510.38 L1646.57 1506.22 Q1649.23 1505.48 1651.55 1505.11 Q1653.89 1504.73 1655.95 1504.73 Q1661.27 1504.73 1664.37 1507.17 Q1667.47 1509.57 1667.47 1513.69 Q1667.47 1516.56 1665.83 1518.55 Q1664.19 1520.52 1661.16 1521.29 Z" fill="#000000" fill-rule="evenodd" fill-opacity="1" /><path clip-path="url(#clip990)" d="M 0 0 M2068.44 1520.78 Q2065.3 1520.78 2063.44 1522.93 Q2061.62 1525.08 2061.62 1528.83 Q2061.62 1532.56 2063.44 1534.73 Q2065.3 1536.89 2068.44 1536.89 Q2071.59 1536.89 2073.42 1534.73 Q2075.27 1532.56 2075.27 1528.83 Q2075.27 1525.08 2073.42 1522.93 Q2071.59 1520.78 2068.44 1520.78 M2077.73 1506.12 L2077.73 1510.38 Q2075.97 1509.55 2074.16 1509.11 Q2072.38 1508.67 2070.62 1508.67 Q2065.99 1508.67 2063.54 1511.8 Q2061.11 1514.92 2060.76 1521.24 Q2062.12 1519.23 2064.18 1518.16 Q2066.25 1517.07 2068.72 1517.07 Q2073.93 1517.07 2076.94 1520.24 Q2079.97 1523.39 2079.97 1528.83 Q2079.97 1534.16 2076.82 1537.37 Q2073.68 1540.59 2068.44 1540.59 Q2062.45 1540.59 2059.28 1536.01 Q2056.11 1531.4 2056.11 1522.67 Q2056.11 1514.48 2060 1509.62 Q2063.88 1504.73 2070.43 1504.73 Q2072.19 1504.73 2073.98 1505.08 Q2075.78 1505.43 2077.73 1506.12 Z" fill="#000000" fill-rule="evenodd" fill-opacity="1" /><path clip-path="url(#clip990)" d="M 0 0 M130.26 1431.51 Q126.649 1431.51 124.82 1435.08 Q123.015 1438.62 123.015 1445.75 Q123.015 1452.86 124.82 1456.42 Q126.649 1459.96 130.26 1459.96 Q133.895 1459.96 135.7 1456.42 Q137.529 1452.86 137.529 1445.75 Q137.529 1438.62 135.7 1435.08 Q133.895 1431.51 130.26 1431.51 M130.26 1427.81 Q136.07 1427.81 139.126 1432.42 Q142.205 1437 142.205 1445.75 Q142.205 1454.48 139.126 1459.08 Q136.07 1463.67 130.26 1463.67 Q124.45 1463.67 121.371 1459.08 Q118.316 1454.48 118.316 1445.75 Q118.316 1437 121.371 1432.42 Q124.45 1427.81 130.26 1427.81 Z" fill="#000000" fill-rule="evenodd" fill-opacity="1" /><path clip-path="url(#clip990)" d="M 0 0 M71.8578 1105.94 L88.1772 1105.94 L88.1772 1109.88 L66.2328 1109.88 L66.2328 1105.94 Q68.8949 1103.19 73.4782 1098.56 Q78.0846 1093.91 79.2652 1092.56 Q81.5105 1090.04 82.3902 1088.3 Q83.2929 1086.54 83.2929 1084.85 Q83.2929 1082.1 81.3485 1080.36 Q79.4272 1078.63 76.3254 1078.63 Q74.1263 1078.63 71.6726 1079.39 Q69.2421 1080.16 66.4643 1081.71 L66.4643 1076.98 Q69.2884 1075.85 71.7421 1075.27 Q74.1958 1074.69 76.2328 1074.69 Q81.6031 1074.69 84.7976 1077.38 Q87.992 1080.06 87.992 1084.55 Q87.992 1086.68 87.1818 1088.6 Q86.3948 1090.5 84.2883 1093.1 Q83.7096 1093.77 80.6078 1096.98 Q77.5059 1100.18 71.8578 1105.94 Z" fill="#000000" fill-rule="evenodd" fill-opacity="1" /><path clip-path="url(#clip990)" d="M 0 0 M103.247 1078.4 Q99.6354 1078.4 97.8068 1081.96 Q96.0012 1085.5 96.0012 1092.63 Q96.0012 1099.74 97.8068 1103.3 Q99.6354 1106.85 103.247 1106.85 Q106.881 1106.85 108.686 1103.3 Q110.515 1099.74 110.515 1092.63 Q110.515 1085.5 108.686 1081.96 Q106.881 1078.4 103.247 1078.4 M103.247 1074.69 Q109.057 1074.69 112.112 1079.3 Q115.191 1083.88 115.191 1092.63 Q115.191 1101.36 112.112 1105.97 Q109.057 1110.55 103.247 1110.55 Q97.4364 1110.55 94.3577 1105.97 Q91.3022 1101.36 91.3022 1092.63 Q91.3022 1083.88 94.3577 1079.3 Q97.4364 1074.69 103.247 1074.69 Z" fill="#000000" fill-rule="evenodd" fill-opacity="1" /><path clip-path="url(#clip990)" d="M 0 0 M130.26 1078.4 Q126.649 1078.4 124.82 1081.96 Q123.015 1085.5 123.015 1092.63 Q123.015 1099.74 124.82 1103.3 Q126.649 1106.85 130.26 1106.85 Q133.895 1106.85 135.7 1103.3 Q137.529 1099.74 137.529 1092.63 Q137.529 1085.5 135.7 1081.96 Q133.895 1078.4 130.26 1078.4 M130.26 1074.69 Q136.07 1074.69 139.126 1079.3 Q142.205 1083.88 142.205 1092.63 Q142.205 1101.36 139.126 1105.97 Q136.07 1110.55 130.26 1110.55 Q124.45 1110.55 121.371 1105.97 Q118.316 1101.36 118.316 1092.63 Q118.316 1083.88 121.371 1079.3 Q124.45 1074.69 130.26 1074.69 Z" fill="#000000" fill-rule="evenodd" fill-opacity="1" /><path clip-path="url(#clip990)" d="M 0 0 M78.5939 726.273 L66.7884 744.722 L78.5939 744.722 L78.5939 726.273 M77.367 722.199 L83.2466 722.199 L83.2466 744.722 L88.1772 744.722 L88.1772 748.611 L83.2466 748.611 L83.2466 756.759 L78.5939 756.759 L78.5939 748.611 L62.9921 748.611 L62.9921 744.097 L77.367 722.199 Z" fill="#000000" fill-rule="evenodd" fill-opacity="1" /><path clip-path="url(#clip990)" d="M 0 0 M103.247 725.278 Q99.6354 725.278 97.8068 728.843 Q96.0012 732.384 96.0012 739.514 Q96.0012 746.62 97.8068 750.185 Q99.6354 753.727 103.247 753.727 Q106.881 753.727 108.686 750.185 Q110.515 746.62 110.515 739.514 Q110.515 732.384 108.686 728.843 Q106.881 725.278 103.247 725.278 M103.247 721.574 Q109.057 721.574 112.112 726.181 Q115.191 730.764 115.191 739.514 Q115.191 748.241 112.112 752.847 Q109.057 757.431 103.247 757.431 Q97.4364 757.431 94.3577 752.847 Q91.3022 748.241 91.3022 739.514 Q91.3022 730.764 94.3577 726.181 Q97.4364 721.574 103.247 721.574 Z" fill="#000000" fill-rule="evenodd" fill-opacity="1" /><path clip-path="url(#clip990)" d="M 0 0 M130.26 725.278 Q126.649 725.278 124.82 728.843 Q123.015 732.384 123.015 739.514 Q123.015 746.62 124.82 750.185 Q126.649 753.727 130.26 753.727 Q133.895 753.727 135.7 750.185 Q137.529 746.62 137.529 739.514 Q137.529 732.384 135.7 728.843 Q133.895 725.278 130.26 725.278 M130.26 721.574 Q136.07 721.574 139.126 726.181 Q142.205 730.764 142.205 739.514 Q142.205 748.241 139.126 752.847 Q136.07 757.431 130.26 757.431 Q124.45 757.431 121.371 752.847 Q118.316 748.241 118.316 739.514 Q118.316 730.764 121.371 726.181 Q124.45 721.574 130.26 721.574 Z" fill="#000000" fill-rule="evenodd" fill-opacity="1" /><path clip-path="url(#clip990)" d="M 0 0 M76.6495 384.498 Q73.5013 384.498 71.6495 386.65 Q69.8208 388.803 69.8208 392.553 Q69.8208 396.28 71.6495 398.456 Q73.5013 400.609 76.6495 400.609 Q79.7976 400.609 81.6263 398.456 Q83.4781 396.28 83.4781 392.553 Q83.4781 388.803 81.6263 386.65 Q79.7976 384.498 76.6495 384.498 M85.9318 369.845 L85.9318 374.104 Q84.1726 373.271 82.367 372.831 Q80.5846 372.391 78.8254 372.391 Q74.1958 372.391 71.7421 375.516 Q69.3115 378.641 68.9643 384.961 Q70.33 382.947 72.3902 381.882 Q74.4504 380.794 76.9272 380.794 Q82.1355 380.794 85.1448 383.965 Q88.1772 387.113 88.1772 392.553 Q88.1772 397.877 85.029 401.095 Q81.8809 404.312 76.6495 404.312 Q70.6541 404.312 67.4828 399.729 Q64.3116 395.123 64.3116 386.396 Q64.3116 378.201 68.2004 373.34 Q72.0893 368.456 78.6402 368.456 Q80.3994 368.456 82.1818 368.803 Q83.9874 369.151 85.9318 369.845 Z" fill="#000000" fill-rule="evenodd" fill-opacity="1" /><path clip-path="url(#clip990)" d="M 0 0 M103.247 372.16 Q99.6354 372.16 97.8068 375.725 Q96.0012 379.266 96.0012 386.396 Q96.0012 393.502 97.8068 397.067 Q99.6354 400.609 103.247 400.609 Q106.881 400.609 108.686 397.067 Q110.515 393.502 110.515 386.396 Q110.515 379.266 108.686 375.725 Q106.881 372.16 103.247 372.16 M103.247 368.456 Q109.057 368.456 112.112 373.063 Q115.191 377.646 115.191 386.396 Q115.191 395.123 112.112 399.729 Q109.057 404.312 103.247 404.312 Q97.4364 404.312 94.3577 399.729 Q91.3022 395.123 91.3022 386.396 Q91.3022 377.646 94.3577 373.063 Q97.4364 368.456 103.247 368.456 Z" fill="#000000" fill-rule="evenodd" fill-opacity="1" /><path clip-path="url(#clip990)" d="M 0 0 M130.26 372.16 Q126.649 372.16 124.82 375.725 Q123.015 379.266 123.015 386.396 Q123.015 393.502 124.82 397.067 Q126.649 400.609 130.26 400.609 Q133.895 400.609 135.7 397.067 Q137.529 393.502 137.529 386.396 Q137.529 379.266 135.7 375.725 Q133.895 372.16 130.26 372.16 M130.26 368.456 Q136.07 368.456 139.126 373.063 Q142.205 377.646 142.205 386.396 Q142.205 395.123 139.126 399.729 Q136.07 404.312 130.26 404.312 Q124.45 404.312 121.371 399.729 Q118.316 395.123 118.316 386.396 Q118.316 377.646 121.371 373.063 Q124.45 368.456 130.26 368.456 Z" fill="#000000" fill-rule="evenodd" fill-opacity="1" /><path clip-path="url(#clip992)" d="
M286.469 1443.95 L286.469 1445.72 L313.878 1445.72 L313.878 1443.95 L286.469 1443.95 L286.469 1443.95  Z
  " fill="#009af9" fill-rule="evenodd" fill-opacity="1"/>
<polyline clip-path="url(#clip992)" style="stroke:#000000; stroke-width:4; stroke-opacity:1; fill:none" points="
  286.469,1443.95 286.469,1445.72 313.878,1445.72 313.878,1443.95 286.469,1443.95 
  "/>
<path clip-path="url(#clip992)" d="
M313.878 1445.72 L313.878 1445.72 L341.286 1445.72 L341.286 1445.72 L313.878 1445.72 L313.878 1445.72  Z
  " fill="#009af9" fill-rule="evenodd" fill-opacity="1"/>
<polyline clip-path="url(#clip992)" style="stroke:#000000; stroke-width:4; stroke-opacity:1; fill:none" points="
  313.878,1445.72 313.878,1445.72 341.286,1445.72 313.878,1445.72 
  "/>
<path clip-path="url(#clip992)" d="
M341.286 1443.95 L341.286 1445.72 L368.695 1445.72 L368.695 1443.95 L341.286 1443.95 L341.286 1443.95  Z
  " fill="#009af9" fill-rule="evenodd" fill-opacity="1"/>
<polyline clip-path="url(#clip992)" style="stroke:#000000; stroke-width:4; stroke-opacity:1; fill:none" points="
  341.286,1443.95 341.286,1445.72 368.695,1445.72 368.695,1443.95 341.286,1443.95 
  "/>
<path clip-path="url(#clip992)" d="
M368.695 1445.72 L368.695 1445.72 L396.104 1445.72 L396.104 1445.72 L368.695 1445.72 L368.695 1445.72  Z
  " fill="#009af9" fill-rule="evenodd" fill-opacity="1"/>
<polyline clip-path="url(#clip992)" style="stroke:#000000; stroke-width:4; stroke-opacity:1; fill:none" points="
  368.695,1445.72 368.695,1445.72 396.104,1445.72 368.695,1445.72 
  "/>
<path clip-path="url(#clip992)" d="
M396.104 1445.72 L396.104 1445.72 L423.513 1445.72 L423.513 1445.72 L396.104 1445.72 L396.104 1445.72  Z
  " fill="#009af9" fill-rule="evenodd" fill-opacity="1"/>
<polyline clip-path="url(#clip992)" style="stroke:#000000; stroke-width:4; stroke-opacity:1; fill:none" points="
  396.104,1445.72 396.104,1445.72 423.513,1445.72 396.104,1445.72 
  "/>
<path clip-path="url(#clip992)" d="
M423.513 1443.95 L423.513 1445.72 L450.922 1445.72 L450.922 1443.95 L423.513 1443.95 L423.513 1443.95  Z
  " fill="#009af9" fill-rule="evenodd" fill-opacity="1"/>
<polyline clip-path="url(#clip992)" style="stroke:#000000; stroke-width:4; stroke-opacity:1; fill:none" points="
  423.513,1443.95 423.513,1445.72 450.922,1445.72 450.922,1443.95 423.513,1443.95 
  "/>
<path clip-path="url(#clip992)" d="
M450.922 1445.72 L450.922 1445.72 L478.33 1445.72 L478.33 1445.72 L450.922 1445.72 L450.922 1445.72  Z
  " fill="#009af9" fill-rule="evenodd" fill-opacity="1"/>
<polyline clip-path="url(#clip992)" style="stroke:#000000; stroke-width:4; stroke-opacity:1; fill:none" points="
  450.922,1445.72 450.922,1445.72 478.33,1445.72 450.922,1445.72 
  "/>
<path clip-path="url(#clip992)" d="
M478.33 1442.18 L478.33 1445.72 L505.739 1445.72 L505.739 1442.18 L478.33 1442.18 L478.33 1442.18  Z
  " fill="#009af9" fill-rule="evenodd" fill-opacity="1"/>
<polyline clip-path="url(#clip992)" style="stroke:#000000; stroke-width:4; stroke-opacity:1; fill:none" points="
  478.33,1442.18 478.33,1445.72 505.739,1445.72 505.739,1442.18 478.33,1442.18 
  "/>
<path clip-path="url(#clip992)" d="
M505.739 1435.12 L505.739 1445.72 L533.148 1445.72 L533.148 1435.12 L505.739 1435.12 L505.739 1435.12  Z
  " fill="#009af9" fill-rule="evenodd" fill-opacity="1"/>
<polyline clip-path="url(#clip992)" style="stroke:#000000; stroke-width:4; stroke-opacity:1; fill:none" points="
  505.739,1435.12 505.739,1445.72 533.148,1445.72 533.148,1435.12 505.739,1435.12 
  "/>
<path clip-path="url(#clip992)" d="
M533.148 1435.12 L533.148 1445.72 L560.557 1445.72 L560.557 1435.12 L533.148 1435.12 L533.148 1435.12  Z
  " fill="#009af9" fill-rule="evenodd" fill-opacity="1"/>
<polyline clip-path="url(#clip992)" style="stroke:#000000; stroke-width:4; stroke-opacity:1; fill:none" points="
  533.148,1435.12 533.148,1445.72 560.557,1445.72 560.557,1435.12 533.148,1435.12 
  "/>
<path clip-path="url(#clip992)" d="
M560.557 1436.89 L560.557 1445.72 L587.965 1445.72 L587.965 1436.89 L560.557 1436.89 L560.557 1436.89  Z
  " fill="#009af9" fill-rule="evenodd" fill-opacity="1"/>
<polyline clip-path="url(#clip992)" style="stroke:#000000; stroke-width:4; stroke-opacity:1; fill:none" points="
  560.557,1436.89 560.557,1445.72 587.965,1445.72 587.965,1436.89 560.557,1436.89 
  "/>
<path clip-path="url(#clip992)" d="
M587.965 1429.83 L587.965 1445.72 L615.374 1445.72 L615.374 1429.83 L587.965 1429.83 L587.965 1429.83  Z
  " fill="#009af9" fill-rule="evenodd" fill-opacity="1"/>
<polyline clip-path="url(#clip992)" style="stroke:#000000; stroke-width:4; stroke-opacity:1; fill:none" points="
  587.965,1429.83 587.965,1445.72 615.374,1445.72 615.374,1429.83 587.965,1429.83 
  "/>
<path clip-path="url(#clip992)" d="
M615.374 1435.12 L615.374 1445.72 L642.783 1445.72 L642.783 1435.12 L615.374 1435.12 L615.374 1435.12  Z
  " fill="#009af9" fill-rule="evenodd" fill-opacity="1"/>
<polyline clip-path="url(#clip992)" style="stroke:#000000; stroke-width:4; stroke-opacity:1; fill:none" points="
  615.374,1435.12 615.374,1445.72 642.783,1445.72 642.783,1435.12 615.374,1435.12 
  "/>
<path clip-path="url(#clip992)" d="
M642.783 1415.7 L642.783 1445.72 L670.192 1445.72 L670.192 1415.7 L642.783 1415.7 L642.783 1415.7  Z
  " fill="#009af9" fill-rule="evenodd" fill-opacity="1"/>
<polyline clip-path="url(#clip992)" style="stroke:#000000; stroke-width:4; stroke-opacity:1; fill:none" points="
  642.783,1415.7 642.783,1445.72 670.192,1445.72 670.192,1415.7 642.783,1415.7 
  "/>
<path clip-path="url(#clip992)" d="
M670.192 1421 L670.192 1445.72 L697.6 1445.72 L697.6 1421 L670.192 1421 L670.192 1421  Z
  " fill="#009af9" fill-rule="evenodd" fill-opacity="1"/>
<polyline clip-path="url(#clip992)" style="stroke:#000000; stroke-width:4; stroke-opacity:1; fill:none" points="
  670.192,1421 670.192,1445.72 697.6,1445.72 697.6,1421 670.192,1421 
  "/>
<path clip-path="url(#clip992)" d="
M697.6 1408.64 L697.6 1445.72 L725.009 1445.72 L725.009 1408.64 L697.6 1408.64 L697.6 1408.64  Z
  " fill="#009af9" fill-rule="evenodd" fill-opacity="1"/>
<polyline clip-path="url(#clip992)" style="stroke:#000000; stroke-width:4; stroke-opacity:1; fill:none" points="
  697.6,1408.64 697.6,1445.72 725.009,1445.72 725.009,1408.64 697.6,1408.64 
  "/>
<path clip-path="url(#clip992)" d="
M725.009 1403.34 L725.009 1445.72 L752.418 1445.72 L752.418 1403.34 L725.009 1403.34 L725.009 1403.34  Z
  " fill="#009af9" fill-rule="evenodd" fill-opacity="1"/>
<polyline clip-path="url(#clip992)" style="stroke:#000000; stroke-width:4; stroke-opacity:1; fill:none" points="
  725.009,1403.34 725.009,1445.72 752.418,1445.72 752.418,1403.34 725.009,1403.34 
  "/>
<path clip-path="url(#clip992)" d="
M752.418 1392.75 L752.418 1445.72 L779.827 1445.72 L779.827 1392.75 L752.418 1392.75 L752.418 1392.75  Z
  " fill="#009af9" fill-rule="evenodd" fill-opacity="1"/>
<polyline clip-path="url(#clip992)" style="stroke:#000000; stroke-width:4; stroke-opacity:1; fill:none" points="
  752.418,1392.75 752.418,1445.72 779.827,1445.72 779.827,1392.75 752.418,1392.75 
  "/>
<path clip-path="url(#clip992)" d="
M779.827 1380.39 L779.827 1445.72 L807.236 1445.72 L807.236 1380.39 L779.827 1380.39 L779.827 1380.39  Z
  " fill="#009af9" fill-rule="evenodd" fill-opacity="1"/>
<polyline clip-path="url(#clip992)" style="stroke:#000000; stroke-width:4; stroke-opacity:1; fill:none" points="
  779.827,1380.39 779.827,1445.72 807.236,1445.72 807.236,1380.39 779.827,1380.39 
  "/>
<path clip-path="url(#clip992)" d="
M807.236 1375.09 L807.236 1445.72 L834.644 1445.72 L834.644 1375.09 L807.236 1375.09 L807.236 1375.09  Z
  " fill="#009af9" fill-rule="evenodd" fill-opacity="1"/>
<polyline clip-path="url(#clip992)" style="stroke:#000000; stroke-width:4; stroke-opacity:1; fill:none" points="
  807.236,1375.09 807.236,1445.72 834.644,1445.72 834.644,1375.09 807.236,1375.09 
  "/>
<path clip-path="url(#clip992)" d="
M834.644 1368.03 L834.644 1445.72 L862.053 1445.72 L862.053 1368.03 L834.644 1368.03 L834.644 1368.03  Z
  " fill="#009af9" fill-rule="evenodd" fill-opacity="1"/>
<polyline clip-path="url(#clip992)" style="stroke:#000000; stroke-width:4; stroke-opacity:1; fill:none" points="
  834.644,1368.03 834.644,1445.72 862.053,1445.72 862.053,1368.03 834.644,1368.03 
  "/>
<path clip-path="url(#clip992)" d="
M862.053 1375.09 L862.053 1445.72 L889.462 1445.72 L889.462 1375.09 L862.053 1375.09 L862.053 1375.09  Z
  " fill="#009af9" fill-rule="evenodd" fill-opacity="1"/>
<polyline clip-path="url(#clip992)" style="stroke:#000000; stroke-width:4; stroke-opacity:1; fill:none" points="
  862.053,1375.09 862.053,1445.72 889.462,1445.72 889.462,1375.09 862.053,1375.09 
  "/>
<path clip-path="url(#clip992)" d="
M889.462 1353.9 L889.462 1445.72 L916.871 1445.72 L916.871 1353.9 L889.462 1353.9 L889.462 1353.9  Z
  " fill="#009af9" fill-rule="evenodd" fill-opacity="1"/>
<polyline clip-path="url(#clip992)" style="stroke:#000000; stroke-width:4; stroke-opacity:1; fill:none" points="
  889.462,1353.9 889.462,1445.72 916.871,1445.72 916.871,1353.9 889.462,1353.9 
  "/>
<path clip-path="url(#clip992)" d="
M916.871 1325.66 L916.871 1445.72 L944.279 1445.72 L944.279 1325.66 L916.871 1325.66 L916.871 1325.66  Z
  " fill="#009af9" fill-rule="evenodd" fill-opacity="1"/>
<polyline clip-path="url(#clip992)" style="stroke:#000000; stroke-width:4; stroke-opacity:1; fill:none" points="
  916.871,1325.66 916.871,1445.72 944.279,1445.72 944.279,1325.66 916.871,1325.66 
  "/>
<path clip-path="url(#clip992)" d="
M944.279 1332.72 L944.279 1445.72 L971.688 1445.72 L971.688 1332.72 L944.279 1332.72 L944.279 1332.72  Z
  " fill="#009af9" fill-rule="evenodd" fill-opacity="1"/>
<polyline clip-path="url(#clip992)" style="stroke:#000000; stroke-width:4; stroke-opacity:1; fill:none" points="
  944.279,1332.72 944.279,1445.72 971.688,1445.72 971.688,1332.72 944.279,1332.72 
  "/>
<path clip-path="url(#clip992)" d="
M971.688 1316.83 L971.688 1445.72 L999.097 1445.72 L999.097 1316.83 L971.688 1316.83 L971.688 1316.83  Z
  " fill="#009af9" fill-rule="evenodd" fill-opacity="1"/>
<polyline clip-path="url(#clip992)" style="stroke:#000000; stroke-width:4; stroke-opacity:1; fill:none" points="
  971.688,1316.83 971.688,1445.72 999.097,1445.72 999.097,1316.83 971.688,1316.83 
  "/>
<path clip-path="url(#clip992)" d="
M999.097 1297.41 L999.097 1445.72 L1026.51 1445.72 L1026.51 1297.41 L999.097 1297.41 L999.097 1297.41  Z
  " fill="#009af9" fill-rule="evenodd" fill-opacity="1"/>
<polyline clip-path="url(#clip992)" style="stroke:#000000; stroke-width:4; stroke-opacity:1; fill:none" points="
  999.097,1297.41 999.097,1445.72 1026.51,1445.72 1026.51,1297.41 999.097,1297.41 
  "/>
<path clip-path="url(#clip992)" d="
M1026.51 1286.81 L1026.51 1445.72 L1053.91 1445.72 L1053.91 1286.81 L1026.51 1286.81 L1026.51 1286.81  Z
  " fill="#009af9" fill-rule="evenodd" fill-opacity="1"/>
<polyline clip-path="url(#clip992)" style="stroke:#000000; stroke-width:4; stroke-opacity:1; fill:none" points="
  1026.51,1286.81 1026.51,1445.72 1053.91,1445.72 1053.91,1286.81 1026.51,1286.81 
  "/>
<path clip-path="url(#clip992)" d="
M1053.91 1260.33 L1053.91 1445.72 L1081.32 1445.72 L1081.32 1260.33 L1053.91 1260.33 L1053.91 1260.33  Z
  " fill="#009af9" fill-rule="evenodd" fill-opacity="1"/>
<polyline clip-path="url(#clip992)" style="stroke:#000000; stroke-width:4; stroke-opacity:1; fill:none" points="
  1053.91,1260.33 1053.91,1445.72 1081.32,1445.72 1081.32,1260.33 1053.91,1260.33 
  "/>
<path clip-path="url(#clip992)" d="
M1081.32 1269.16 L1081.32 1445.72 L1108.73 1445.72 L1108.73 1269.16 L1081.32 1269.16 L1081.32 1269.16  Z
  " fill="#009af9" fill-rule="evenodd" fill-opacity="1"/>
<polyline clip-path="url(#clip992)" style="stroke:#000000; stroke-width:4; stroke-opacity:1; fill:none" points="
  1081.32,1269.16 1081.32,1445.72 1108.73,1445.72 1108.73,1269.16 1081.32,1269.16 
  "/>
<path clip-path="url(#clip992)" d="
M1108.73 1267.39 L1108.73 1445.72 L1136.14 1445.72 L1136.14 1267.39 L1108.73 1267.39 L1108.73 1267.39  Z
  " fill="#009af9" fill-rule="evenodd" fill-opacity="1"/>
<polyline clip-path="url(#clip992)" style="stroke:#000000; stroke-width:4; stroke-opacity:1; fill:none" points="
  1108.73,1267.39 1108.73,1445.72 1136.14,1445.72 1136.14,1267.39 1108.73,1267.39 
  "/>
<path clip-path="url(#clip992)" d="
M1136.14 1263.86 L1136.14 1445.72 L1163.55 1445.72 L1163.55 1263.86 L1136.14 1263.86 L1136.14 1263.86  Z
  " fill="#009af9" fill-rule="evenodd" fill-opacity="1"/>
<polyline clip-path="url(#clip992)" style="stroke:#000000; stroke-width:4; stroke-opacity:1; fill:none" points="
  1136.14,1263.86 1136.14,1445.72 1163.55,1445.72 1163.55,1263.86 1136.14,1263.86 
  "/>
<path clip-path="url(#clip992)" d="
M1163.55 1221.49 L1163.55 1445.72 L1190.96 1445.72 L1190.96 1221.49 L1163.55 1221.49 L1163.55 1221.49  Z
  " fill="#009af9" fill-rule="evenodd" fill-opacity="1"/>
<polyline clip-path="url(#clip992)" style="stroke:#000000; stroke-width:4; stroke-opacity:1; fill:none" points="
  1163.55,1221.49 1163.55,1445.72 1190.96,1445.72 1190.96,1221.49 1163.55,1221.49 
  "/>
<path clip-path="url(#clip992)" d="
M1190.96 1242.67 L1190.96 1445.72 L1218.37 1445.72 L1218.37 1242.67 L1190.96 1242.67 L1190.96 1242.67  Z
  " fill="#009af9" fill-rule="evenodd" fill-opacity="1"/>
<polyline clip-path="url(#clip992)" style="stroke:#000000; stroke-width:4; stroke-opacity:1; fill:none" points="
  1190.96,1242.67 1190.96,1445.72 1218.37,1445.72 1218.37,1242.67 1190.96,1242.67 
  "/>
<path clip-path="url(#clip992)" d="
M1218.37 1228.55 L1218.37 1445.72 L1245.78 1445.72 L1245.78 1228.55 L1218.37 1228.55 L1218.37 1228.55  Z
  " fill="#009af9" fill-rule="evenodd" fill-opacity="1"/>
<polyline clip-path="url(#clip992)" style="stroke:#000000; stroke-width:4; stroke-opacity:1; fill:none" points="
  1218.37,1228.55 1218.37,1445.72 1245.78,1445.72 1245.78,1228.55 1218.37,1228.55 
  "/>
<path clip-path="url(#clip992)" d="
M1245.78 1249.74 L1245.78 1445.72 L1273.18 1445.72 L1273.18 1249.74 L1245.78 1249.74 L1245.78 1249.74  Z
  " fill="#009af9" fill-rule="evenodd" fill-opacity="1"/>
<polyline clip-path="url(#clip992)" style="stroke:#000000; stroke-width:4; stroke-opacity:1; fill:none" points="
  1245.78,1249.74 1245.78,1445.72 1273.18,1445.72 1273.18,1249.74 1245.78,1249.74 
  "/>
<path clip-path="url(#clip992)" d="
M1273.18 1214.42 L1273.18 1445.72 L1300.59 1445.72 L1300.59 1214.42 L1273.18 1214.42 L1273.18 1214.42  Z
  " fill="#009af9" fill-rule="evenodd" fill-opacity="1"/>
<polyline clip-path="url(#clip992)" style="stroke:#000000; stroke-width:4; stroke-opacity:1; fill:none" points="
  1273.18,1214.42 1273.18,1445.72 1300.59,1445.72 1300.59,1214.42 1273.18,1214.42 
  "/>
<path clip-path="url(#clip992)" d="
M1300.59 1143.8 L1300.59 1445.72 L1328 1445.72 L1328 1143.8 L1300.59 1143.8 L1300.59 1143.8  Z
  " fill="#009af9" fill-rule="evenodd" fill-opacity="1"/>
<polyline clip-path="url(#clip992)" style="stroke:#000000; stroke-width:4; stroke-opacity:1; fill:none" points="
  1300.59,1143.8 1300.59,1445.72 1328,1445.72 1328,1143.8 1300.59,1143.8 
  "/>
<path clip-path="url(#clip992)" d="
M1328 753.604 L1328 1445.72 L1355.41 1445.72 L1355.41 753.604 L1328 753.604 L1328 753.604  Z
  " fill="#009af9" fill-rule="evenodd" fill-opacity="1"/>
<polyline clip-path="url(#clip992)" style="stroke:#000000; stroke-width:4; stroke-opacity:1; fill:none" points="
  1328,753.604 1328,1445.72 1355.41,1445.72 1355.41,753.604 1328,753.604 
  "/>
<path clip-path="url(#clip992)" d="
M1355.41 87.9763 L1355.41 1445.72 L1382.82 1445.72 L1382.82 87.9763 L1355.41 87.9763 L1355.41 87.9763  Z
  " fill="#009af9" fill-rule="evenodd" fill-opacity="1"/>
<polyline clip-path="url(#clip992)" style="stroke:#000000; stroke-width:4; stroke-opacity:1; fill:none" points="
  1355.41,87.9763 1355.41,1445.72 1382.82,1445.72 1382.82,87.9763 1355.41,87.9763 
  "/>
<path clip-path="url(#clip992)" d="
M1382.82 148.006 L1382.82 1445.72 L1410.23 1445.72 L1410.23 148.006 L1382.82 148.006 L1382.82 148.006  Z
  " fill="#009af9" fill-rule="evenodd" fill-opacity="1"/>
<polyline clip-path="url(#clip992)" style="stroke:#000000; stroke-width:4; stroke-opacity:1; fill:none" points="
  1382.82,148.006 1382.82,1445.72 1410.23,1445.72 1410.23,148.006 1382.82,148.006 
  "/>
<path clip-path="url(#clip992)" d="
M1410.23 806.572 L1410.23 1445.72 L1437.64 1445.72 L1437.64 806.572 L1410.23 806.572 L1410.23 806.572  Z
  " fill="#009af9" fill-rule="evenodd" fill-opacity="1"/>
<polyline clip-path="url(#clip992)" style="stroke:#000000; stroke-width:4; stroke-opacity:1; fill:none" points="
  1410.23,806.572 1410.23,1445.72 1437.64,1445.72 1437.64,806.572 1410.23,806.572 
  "/>
<path clip-path="url(#clip992)" d="
M1437.64 1214.42 L1437.64 1445.72 L1465.05 1445.72 L1465.05 1214.42 L1437.64 1214.42 L1437.64 1214.42  Z
  " fill="#009af9" fill-rule="evenodd" fill-opacity="1"/>
<polyline clip-path="url(#clip992)" style="stroke:#000000; stroke-width:4; stroke-opacity:1; fill:none" points="
  1437.64,1214.42 1437.64,1445.72 1465.05,1445.72 1465.05,1214.42 1437.64,1214.42 
  "/>
<path clip-path="url(#clip992)" d="
M1465.05 1283.28 L1465.05 1445.72 L1492.45 1445.72 L1492.45 1283.28 L1465.05 1283.28 L1465.05 1283.28  Z
  " fill="#009af9" fill-rule="evenodd" fill-opacity="1"/>
<polyline clip-path="url(#clip992)" style="stroke:#000000; stroke-width:4; stroke-opacity:1; fill:none" points="
  1465.05,1283.28 1465.05,1445.72 1492.45,1445.72 1492.45,1283.28 1465.05,1283.28 
  "/>
<path clip-path="url(#clip992)" d="
M1492.45 1322.12 L1492.45 1445.72 L1519.86 1445.72 L1519.86 1322.12 L1492.45 1322.12 L1492.45 1322.12  Z
  " fill="#009af9" fill-rule="evenodd" fill-opacity="1"/>
<polyline clip-path="url(#clip992)" style="stroke:#000000; stroke-width:4; stroke-opacity:1; fill:none" points="
  1492.45,1322.12 1492.45,1445.72 1519.86,1445.72 1519.86,1322.12 1492.45,1322.12 
  "/>
<path clip-path="url(#clip992)" d="
M1519.86 1299.17 L1519.86 1445.72 L1547.27 1445.72 L1547.27 1299.17 L1519.86 1299.17 L1519.86 1299.17  Z
  " fill="#009af9" fill-rule="evenodd" fill-opacity="1"/>
<polyline clip-path="url(#clip992)" style="stroke:#000000; stroke-width:4; stroke-opacity:1; fill:none" points="
  1519.86,1299.17 1519.86,1445.72 1547.27,1445.72 1547.27,1299.17 1519.86,1299.17 
  "/>
<path clip-path="url(#clip992)" d="
M1547.27 1304.47 L1547.27 1445.72 L1574.68 1445.72 L1574.68 1304.47 L1547.27 1304.47 L1547.27 1304.47  Z
  " fill="#009af9" fill-rule="evenodd" fill-opacity="1"/>
<polyline clip-path="url(#clip992)" style="stroke:#000000; stroke-width:4; stroke-opacity:1; fill:none" points="
  1547.27,1304.47 1547.27,1445.72 1574.68,1445.72 1574.68,1304.47 1547.27,1304.47 
  "/>
<path clip-path="url(#clip992)" d="
M1574.68 1353.9 L1574.68 1445.72 L1602.09 1445.72 L1602.09 1353.9 L1574.68 1353.9 L1574.68 1353.9  Z
  " fill="#009af9" fill-rule="evenodd" fill-opacity="1"/>
<polyline clip-path="url(#clip992)" style="stroke:#000000; stroke-width:4; stroke-opacity:1; fill:none" points="
  1574.68,1353.9 1574.68,1445.72 1602.09,1445.72 1602.09,1353.9 1574.68,1353.9 
  "/>
<path clip-path="url(#clip992)" d="
M1602.09 1332.72 L1602.09 1445.72 L1629.5 1445.72 L1629.5 1332.72 L1602.09 1332.72 L1602.09 1332.72  Z
  " fill="#009af9" fill-rule="evenodd" fill-opacity="1"/>
<polyline clip-path="url(#clip992)" style="stroke:#000000; stroke-width:4; stroke-opacity:1; fill:none" points="
  1602.09,1332.72 1602.09,1445.72 1629.5,1445.72 1629.5,1332.72 1602.09,1332.72 
  "/>
<path clip-path="url(#clip992)" d="
M1629.5 1355.67 L1629.5 1445.72 L1656.91 1445.72 L1656.91 1355.67 L1629.5 1355.67 L1629.5 1355.67  Z
  " fill="#009af9" fill-rule="evenodd" fill-opacity="1"/>
<polyline clip-path="url(#clip992)" style="stroke:#000000; stroke-width:4; stroke-opacity:1; fill:none" points="
  1629.5,1355.67 1629.5,1445.72 1656.91,1445.72 1656.91,1355.67 1629.5,1355.67 
  "/>
<path clip-path="url(#clip992)" d="
M1656.91 1380.39 L1656.91 1445.72 L1684.32 1445.72 L1684.32 1380.39 L1656.91 1380.39 L1656.91 1380.39  Z
  " fill="#009af9" fill-rule="evenodd" fill-opacity="1"/>
<polyline clip-path="url(#clip992)" style="stroke:#000000; stroke-width:4; stroke-opacity:1; fill:none" points="
  1656.91,1380.39 1656.91,1445.72 1684.32,1445.72 1684.32,1380.39 1656.91,1380.39 
  "/>
<path clip-path="url(#clip992)" d="
M1684.32 1401.58 L1684.32 1445.72 L1711.73 1445.72 L1711.73 1401.58 L1684.32 1401.58 L1684.32 1401.58  Z
  " fill="#009af9" fill-rule="evenodd" fill-opacity="1"/>
<polyline clip-path="url(#clip992)" style="stroke:#000000; stroke-width:4; stroke-opacity:1; fill:none" points="
  1684.32,1401.58 1684.32,1445.72 1711.73,1445.72 1711.73,1401.58 1684.32,1401.58 
  "/>
<path clip-path="url(#clip992)" d="
M1711.73 1401.58 L1711.73 1445.72 L1739.13 1445.72 L1739.13 1401.58 L1711.73 1401.58 L1711.73 1401.58  Z
  " fill="#009af9" fill-rule="evenodd" fill-opacity="1"/>
<polyline clip-path="url(#clip992)" style="stroke:#000000; stroke-width:4; stroke-opacity:1; fill:none" points="
  1711.73,1401.58 1711.73,1445.72 1739.13,1445.72 1739.13,1401.58 1711.73,1401.58 
  "/>
<path clip-path="url(#clip992)" d="
M1739.13 1405.11 L1739.13 1445.72 L1766.54 1445.72 L1766.54 1405.11 L1739.13 1405.11 L1739.13 1405.11  Z
  " fill="#009af9" fill-rule="evenodd" fill-opacity="1"/>
<polyline clip-path="url(#clip992)" style="stroke:#000000; stroke-width:4; stroke-opacity:1; fill:none" points="
  1739.13,1405.11 1739.13,1445.72 1766.54,1445.72 1766.54,1405.11 1739.13,1405.11 
  "/>
<path clip-path="url(#clip992)" d="
M1766.54 1415.7 L1766.54 1445.72 L1793.95 1445.72 L1793.95 1415.7 L1766.54 1415.7 L1766.54 1415.7  Z
  " fill="#009af9" fill-rule="evenodd" fill-opacity="1"/>
<polyline clip-path="url(#clip992)" style="stroke:#000000; stroke-width:4; stroke-opacity:1; fill:none" points="
  1766.54,1415.7 1766.54,1445.72 1793.95,1445.72 1793.95,1415.7 1766.54,1415.7 
  "/>
<path clip-path="url(#clip992)" d="
M1793.95 1419.23 L1793.95 1445.72 L1821.36 1445.72 L1821.36 1419.23 L1793.95 1419.23 L1793.95 1419.23  Z
  " fill="#009af9" fill-rule="evenodd" fill-opacity="1"/>
<polyline clip-path="url(#clip992)" style="stroke:#000000; stroke-width:4; stroke-opacity:1; fill:none" points="
  1793.95,1419.23 1793.95,1445.72 1821.36,1445.72 1821.36,1419.23 1793.95,1419.23 
  "/>
<path clip-path="url(#clip992)" d="
M1821.36 1426.29 L1821.36 1445.72 L1848.77 1445.72 L1848.77 1426.29 L1821.36 1426.29 L1821.36 1426.29  Z
  " fill="#009af9" fill-rule="evenodd" fill-opacity="1"/>
<polyline clip-path="url(#clip992)" style="stroke:#000000; stroke-width:4; stroke-opacity:1; fill:none" points="
  1821.36,1426.29 1821.36,1445.72 1848.77,1445.72 1848.77,1426.29 1821.36,1426.29 
  "/>
<path clip-path="url(#clip992)" d="
M1848.77 1431.59 L1848.77 1445.72 L1876.18 1445.72 L1876.18 1431.59 L1848.77 1431.59 L1848.77 1431.59  Z
  " fill="#009af9" fill-rule="evenodd" fill-opacity="1"/>
<polyline clip-path="url(#clip992)" style="stroke:#000000; stroke-width:4; stroke-opacity:1; fill:none" points="
  1848.77,1431.59 1848.77,1445.72 1876.18,1445.72 1876.18,1431.59 1848.77,1431.59 
  "/>
<path clip-path="url(#clip992)" d="
M1876.18 1429.83 L1876.18 1445.72 L1903.59 1445.72 L1903.59 1429.83 L1876.18 1429.83 L1876.18 1429.83  Z
  " fill="#009af9" fill-rule="evenodd" fill-opacity="1"/>
<polyline clip-path="url(#clip992)" style="stroke:#000000; stroke-width:4; stroke-opacity:1; fill:none" points="
  1876.18,1429.83 1876.18,1445.72 1903.59,1445.72 1903.59,1429.83 1876.18,1429.83 
  "/>
<path clip-path="url(#clip992)" d="
M1903.59 1433.36 L1903.59 1445.72 L1931 1445.72 L1931 1433.36 L1903.59 1433.36 L1903.59 1433.36  Z
  " fill="#009af9" fill-rule="evenodd" fill-opacity="1"/>
<polyline clip-path="url(#clip992)" style="stroke:#000000; stroke-width:4; stroke-opacity:1; fill:none" points="
  1903.59,1433.36 1903.59,1445.72 1931,1445.72 1931,1433.36 1903.59,1433.36 
  "/>
<path clip-path="url(#clip992)" d="
M1931 1438.65 L1931 1445.72 L1958.4 1445.72 L1958.4 1438.65 L1931 1438.65 L1931 1438.65  Z
  " fill="#009af9" fill-rule="evenodd" fill-opacity="1"/>
<polyline clip-path="url(#clip992)" style="stroke:#000000; stroke-width:4; stroke-opacity:1; fill:none" points="
  1931,1438.65 1931,1445.72 1958.4,1445.72 1958.4,1438.65 1931,1438.65 
  "/>
<path clip-path="url(#clip992)" d="
M1958.4 1440.42 L1958.4 1445.72 L1985.81 1445.72 L1985.81 1440.42 L1958.4 1440.42 L1958.4 1440.42  Z
  " fill="#009af9" fill-rule="evenodd" fill-opacity="1"/>
<polyline clip-path="url(#clip992)" style="stroke:#000000; stroke-width:4; stroke-opacity:1; fill:none" points="
  1958.4,1440.42 1958.4,1445.72 1985.81,1445.72 1985.81,1440.42 1958.4,1440.42 
  "/>
<path clip-path="url(#clip992)" d="
M1985.81 1442.18 L1985.81 1445.72 L2013.22 1445.72 L2013.22 1442.18 L1985.81 1442.18 L1985.81 1442.18  Z
  " fill="#009af9" fill-rule="evenodd" fill-opacity="1"/>
<polyline clip-path="url(#clip992)" style="stroke:#000000; stroke-width:4; stroke-opacity:1; fill:none" points="
  1985.81,1442.18 1985.81,1445.72 2013.22,1445.72 2013.22,1442.18 1985.81,1442.18 
  "/>
<path clip-path="url(#clip992)" d="
M2013.22 1442.18 L2013.22 1445.72 L2040.63 1445.72 L2040.63 1442.18 L2013.22 1442.18 L2013.22 1442.18  Z
  " fill="#009af9" fill-rule="evenodd" fill-opacity="1"/>
<polyline clip-path="url(#clip992)" style="stroke:#000000; stroke-width:4; stroke-opacity:1; fill:none" points="
  2013.22,1442.18 2013.22,1445.72 2040.63,1445.72 2040.63,1442.18 2013.22,1442.18 
  "/>
<path clip-path="url(#clip992)" d="
M2040.63 1440.42 L2040.63 1445.72 L2068.04 1445.72 L2068.04 1440.42 L2040.63 1440.42 L2040.63 1440.42  Z
  " fill="#009af9" fill-rule="evenodd" fill-opacity="1"/>
<polyline clip-path="url(#clip992)" style="stroke:#000000; stroke-width:4; stroke-opacity:1; fill:none" points="
  2040.63,1440.42 2040.63,1445.72 2068.04,1445.72 2068.04,1440.42 2040.63,1440.42 
  "/>
<path clip-path="url(#clip992)" d="
M2068.04 1443.95 L2068.04 1445.72 L2095.45 1445.72 L2095.45 1443.95 L2068.04 1443.95 L2068.04 1443.95  Z
  " fill="#009af9" fill-rule="evenodd" fill-opacity="1"/>
<polyline clip-path="url(#clip992)" style="stroke:#000000; stroke-width:4; stroke-opacity:1; fill:none" points="
  2068.04,1443.95 2068.04,1445.72 2095.45,1445.72 2095.45,1443.95 2068.04,1443.95 
  "/>
<path clip-path="url(#clip992)" d="
M2095.45 1443.95 L2095.45 1445.72 L2122.86 1445.72 L2122.86 1443.95 L2095.45 1443.95 L2095.45 1443.95  Z
  " fill="#009af9" fill-rule="evenodd" fill-opacity="1"/>
<polyline clip-path="url(#clip992)" style="stroke:#000000; stroke-width:4; stroke-opacity:1; fill:none" points="
  2095.45,1443.95 2095.45,1445.72 2122.86,1445.72 2122.86,1443.95 2095.45,1443.95 
  "/>
<path clip-path="url(#clip992)" d="
M2122.86 1443.95 L2122.86 1445.72 L2150.27 1445.72 L2150.27 1443.95 L2122.86 1443.95 L2122.86 1443.95  Z
  " fill="#009af9" fill-rule="evenodd" fill-opacity="1"/>
<polyline clip-path="url(#clip992)" style="stroke:#000000; stroke-width:4; stroke-opacity:1; fill:none" points="
  2122.86,1443.95 2122.86,1445.72 2150.27,1445.72 2150.27,1443.95 2122.86,1443.95 
  "/>
<path clip-path="url(#clip992)" d="
M2150.27 1443.95 L2150.27 1445.72 L2177.67 1445.72 L2177.67 1443.95 L2150.27 1443.95 L2150.27 1443.95  Z
  " fill="#009af9" fill-rule="evenodd" fill-opacity="1"/>
<polyline clip-path="url(#clip992)" style="stroke:#000000; stroke-width:4; stroke-opacity:1; fill:none" points="
  2150.27,1443.95 2150.27,1445.72 2177.67,1445.72 2177.67,1443.95 2150.27,1443.95 
  "/>
<path clip-path="url(#clip992)" d="
M2177.67 1443.95 L2177.67 1445.72 L2205.08 1445.72 L2205.08 1443.95 L2177.67 1443.95 L2177.67 1443.95  Z
  " fill="#009af9" fill-rule="evenodd" fill-opacity="1"/>
<polyline clip-path="url(#clip992)" style="stroke:#000000; stroke-width:4; stroke-opacity:1; fill:none" points="
  2177.67,1443.95 2177.67,1445.72 2205.08,1445.72 2205.08,1443.95 2177.67,1443.95 
  "/>
<path clip-path="url(#clip992)" d="
M2205.08 1443.95 L2205.08 1445.72 L2232.49 1445.72 L2232.49 1443.95 L2205.08 1443.95 L2205.08 1443.95  Z
  " fill="#009af9" fill-rule="evenodd" fill-opacity="1"/>
<polyline clip-path="url(#clip992)" style="stroke:#000000; stroke-width:4; stroke-opacity:1; fill:none" points="
  2205.08,1443.95 2205.08,1445.72 2232.49,1445.72 2232.49,1443.95 2205.08,1443.95 
  "/>
<path clip-path="url(#clip990)" d="
M1989.74 251.724 L2280.76 251.724 L2280.76 130.764 L1989.74 130.764  Z
  " fill="#ffffff" fill-rule="evenodd" fill-opacity="1"/>
<polyline clip-path="url(#clip990)" style="stroke:#000000; stroke-width:4; stroke-opacity:1; fill:none" points="
  1989.74,251.724 2280.76,251.724 2280.76,130.764 1989.74,130.764 1989.74,251.724 
  "/>
<path clip-path="url(#clip990)" d="
M2013.74 215.436 L2157.74 215.436 L2157.74 167.052 L2013.74 167.052 L2013.74 215.436  Z
  " fill="#009af9" fill-rule="evenodd" fill-opacity="1"/>
<polyline clip-path="url(#clip990)" style="stroke:#000000; stroke-width:4; stroke-opacity:1; fill:none" points="
  2013.74,215.436 2157.74,215.436 2157.74,167.052 2013.74,167.052 2013.74,215.436 
  "/>
<path clip-path="url(#clip990)" d="M 0 0 M2195.58 210.931 Q2193.77 215.561 2192.06 216.973 Q2190.35 218.385 2187.48 218.385 L2184.08 218.385 L2184.08 214.82 L2186.58 214.82 Q2188.33 214.82 2189.31 213.987 Q2190.28 213.154 2191.46 210.052 L2192.22 208.107 L2181.74 182.598 L2186.25 182.598 L2194.35 202.876 L2202.46 182.598 L2206.97 182.598 L2195.58 210.931 Z" fill="#000000" fill-rule="evenodd" fill-opacity="1" /><path clip-path="url(#clip990)" d="M 0 0 M2212.85 204.589 L2220.49 204.589 L2220.49 178.223 L2212.18 179.89 L2212.18 175.631 L2220.44 173.964 L2225.12 173.964 L2225.12 204.589 L2232.76 204.589 L2232.76 208.524 L2212.85 208.524 L2212.85 204.589 Z" fill="#000000" fill-rule="evenodd" fill-opacity="1" /></svg>
