<?xml version="1.0" encoding="utf-8"?>
<svg xmlns="http://www.w3.org/2000/svg" xmlns:xlink="http://www.w3.org/1999/xlink" width="600" height="400" viewBox="0 0 2400 1600">
<defs>
  <clipPath id="clip120">
    <rect x="0" y="0" width="2400" height="1600"/>
  </clipPath>
</defs>
<path clip-path="url(#clip120)" d="
M0 1600 L2400 1600 L2400 0 L0 0  Z
  " fill="#ffffff" fill-rule="evenodd" fill-opacity="1"/>
<defs>
  <clipPath id="clip121">
    <rect x="480" y="0" width="1681" height="1600"/>
  </clipPath>
</defs>
<path clip-path="url(#clip120)" d="
M166.205 1486.45 L2352.76 1486.45 L2352.76 47.2441 L166.205 47.2441  Z
  " fill="#ffffff" fill-rule="evenodd" fill-opacity="1"/>
<defs>
  <clipPath id="clip122">
    <rect x="166" y="47" width="2188" height="1440"/>
  </clipPath>
</defs>
<polyline clip-path="url(#clip122)" style="stroke:#000000; stroke-width:2; stroke-opacity:0.1; fill:none" points="
  496.041,1486.45 496.041,47.2441 
  "/>
<polyline clip-path="url(#clip122)" style="stroke:#000000; stroke-width:2; stroke-opacity:0.1; fill:none" points="
  870.276,1486.45 870.276,47.2441 
  "/>
<polyline clip-path="url(#clip122)" style="stroke:#000000; stroke-width:2; stroke-opacity:0.1; fill:none" points="
  1244.51,1486.45 1244.51,47.2441 
  "/>
<polyline clip-path="url(#clip122)" style="stroke:#000000; stroke-width:2; stroke-opacity:0.1; fill:none" points="
  1618.75,1486.45 1618.75,47.2441 
  "/>
<polyline clip-path="url(#clip122)" style="stroke:#000000; stroke-width:2; stroke-opacity:0.1; fill:none" points="
  1992.98,1486.45 1992.98,47.2441 
  "/>
<polyline clip-path="url(#clip122)" style="stroke:#000000; stroke-width:2; stroke-opacity:0.1; fill:none" points="
  166.205,1445.72 2352.76,1445.72 
  "/>
<polyline clip-path="url(#clip122)" style="stroke:#000000; stroke-width:2; stroke-opacity:0.1; fill:none" points="
  166.205,1114.16 2352.76,1114.16 
  "/>
<polyline clip-path="url(#clip122)" style="stroke:#000000; stroke-width:2; stroke-opacity:0.1; fill:none" points="
  166.205,782.595 2352.76,782.595 
  "/>
<polyline clip-path="url(#clip122)" style="stroke:#000000; stroke-width:2; stroke-opacity:0.1; fill:none" points="
  166.205,451.035 2352.76,451.035 
  "/>
<polyline clip-path="url(#clip122)" style="stroke:#000000; stroke-width:2; stroke-opacity:0.1; fill:none" points="
  166.205,119.475 2352.76,119.475 
  "/>
<polyline clip-path="url(#clip120)" style="stroke:#000000; stroke-width:4; stroke-opacity:1; fill:none" points="
  166.205,1486.45 2352.76,1486.45 
  "/>
<polyline clip-path="url(#clip120)" style="stroke:#000000; stroke-width:4; stroke-opacity:1; fill:none" points="
  166.205,1486.45 166.205,47.2441 
  "/>
<polyline clip-path="url(#clip120)" style="stroke:#000000; stroke-width:4; stroke-opacity:1; fill:none" points="
  496.041,1486.45 496.041,1469.18 
  "/>
<polyline clip-path="url(#clip120)" style="stroke:#000000; stroke-width:4; stroke-opacity:1; fill:none" points="
  870.276,1486.45 870.276,1469.18 
  "/>
<polyline clip-path="url(#clip120)" style="stroke:#000000; stroke-width:4; stroke-opacity:1; fill:none" points="
  1244.51,1486.45 1244.51,1469.18 
  "/>
<polyline clip-path="url(#clip120)" style="stroke:#000000; stroke-width:4; stroke-opacity:1; fill:none" points="
  1618.75,1486.45 1618.75,1469.18 
  "/>
<polyline clip-path="url(#clip120)" style="stroke:#000000; stroke-width:4; stroke-opacity:1; fill:none" points="
  1992.98,1486.45 1992.98,1469.18 
  "/>
<polyline clip-path="url(#clip120)" style="stroke:#000000; stroke-width:4; stroke-opacity:1; fill:none" points="
  166.205,1445.72 192.443,1445.72 
  "/>
<polyline clip-path="url(#clip120)" style="stroke:#000000; stroke-width:4; stroke-opacity:1; fill:none" points="
  166.205,1114.16 192.443,1114.16 
  "/>
<polyline clip-path="url(#clip120)" style="stroke:#000000; stroke-width:4; stroke-opacity:1; fill:none" points="
  166.205,782.595 192.443,782.595 
  "/>
<polyline clip-path="url(#clip120)" style="stroke:#000000; stroke-width:4; stroke-opacity:1; fill:none" points="
  166.205,451.035 192.443,451.035 
  "/>
<polyline clip-path="url(#clip120)" style="stroke:#000000; stroke-width:4; stroke-opacity:1; fill:none" points="
  166.205,119.475 192.443,119.475 
  "/>
<path clip-path="url(#clip120)" d="M 0 0 M449.71 1523.09 L479.386 1523.09 L479.386 1527.03 L449.71 1527.03 L449.71 1523.09 Z" fill="#000000" fill-rule="evenodd" fill-opacity="1" /><path clip-path="url(#clip120)" d="M 0 0 M484.501 1505.36 L502.858 1505.36 L502.858 1509.3 L488.784 1509.3 L488.784 1517.77 Q489.802 1517.42 490.821 1517.26 Q491.839 1517.07 492.858 1517.07 Q498.645 1517.07 502.024 1520.24 Q505.404 1523.42 505.404 1528.83 Q505.404 1534.41 501.932 1537.51 Q498.46 1540.59 492.14 1540.59 Q489.964 1540.59 487.696 1540.22 Q485.45 1539.85 483.043 1539.11 L483.043 1534.41 Q485.126 1535.54 487.348 1536.1 Q489.571 1536.66 492.048 1536.66 Q496.052 1536.66 498.39 1534.55 Q500.728 1532.44 500.728 1528.83 Q500.728 1525.22 498.39 1523.11 Q496.052 1521.01 492.048 1521.01 Q490.173 1521.01 488.298 1521.42 Q486.446 1521.84 484.501 1522.72 L484.501 1505.36 Z" fill="#000000" fill-rule="evenodd" fill-opacity="1" /><path clip-path="url(#clip120)" d="M 0 0 M510.473 1534.04 L515.358 1534.04 L515.358 1539.92 L510.473 1539.92 L510.473 1534.04 Z" fill="#000000" fill-rule="evenodd" fill-opacity="1" /><path clip-path="url(#clip120)" d="M 0 0 M530.427 1508.44 Q526.816 1508.44 524.987 1512 Q523.182 1515.55 523.182 1522.67 Q523.182 1529.78 524.987 1533.35 Q526.816 1536.89 530.427 1536.89 Q534.061 1536.89 535.867 1533.35 Q537.695 1529.78 537.695 1522.67 Q537.695 1515.55 535.867 1512 Q534.061 1508.44 530.427 1508.44 M530.427 1504.73 Q536.237 1504.73 539.293 1509.34 Q542.371 1513.92 542.371 1522.67 Q542.371 1531.4 539.293 1536.01 Q536.237 1540.59 530.427 1540.59 Q524.617 1540.59 521.538 1536.01 Q518.483 1531.4 518.483 1522.67 Q518.483 1513.92 521.538 1509.34 Q524.617 1504.73 530.427 1504.73 Z" fill="#000000" fill-rule="evenodd" fill-opacity="1" /><path clip-path="url(#clip120)" d="M 0 0 M824.744 1523.09 L854.419 1523.09 L854.419 1527.03 L824.744 1527.03 L824.744 1523.09 Z" fill="#000000" fill-rule="evenodd" fill-opacity="1" /><path clip-path="url(#clip120)" d="M 0 0 M863.516 1535.98 L879.836 1535.98 L879.836 1539.92 L857.892 1539.92 L857.892 1535.98 Q860.554 1533.23 865.137 1528.6 Q869.743 1523.95 870.924 1522.61 Q873.169 1520.08 874.049 1518.35 Q874.952 1516.59 874.952 1514.9 Q874.952 1512.14 873.007 1510.41 Q871.086 1508.67 867.984 1508.67 Q865.785 1508.67 863.331 1509.43 Q860.901 1510.2 858.123 1511.75 L858.123 1507.03 Q860.947 1505.89 863.401 1505.31 Q865.854 1504.73 867.891 1504.73 Q873.262 1504.73 876.456 1507.42 Q879.651 1510.11 879.651 1514.6 Q879.651 1516.73 878.84 1518.65 Q878.053 1520.54 875.947 1523.14 Q875.368 1523.81 872.266 1527.03 Q869.165 1530.22 863.516 1535.98 Z" fill="#000000" fill-rule="evenodd" fill-opacity="1" /><path clip-path="url(#clip120)" d="M 0 0 M884.905 1534.04 L889.79 1534.04 L889.79 1539.92 L884.905 1539.92 L884.905 1534.04 Z" fill="#000000" fill-rule="evenodd" fill-opacity="1" /><path clip-path="url(#clip120)" d="M 0 0 M894.905 1505.36 L913.262 1505.36 L913.262 1509.3 L899.188 1509.3 L899.188 1517.77 Q900.206 1517.42 901.225 1517.26 Q902.243 1517.07 903.262 1517.07 Q909.049 1517.07 912.428 1520.24 Q915.808 1523.42 915.808 1528.83 Q915.808 1534.41 912.336 1537.51 Q908.863 1540.59 902.544 1540.59 Q900.368 1540.59 898.1 1540.22 Q895.854 1539.85 893.447 1539.11 L893.447 1534.41 Q895.53 1535.54 897.752 1536.1 Q899.975 1536.66 902.451 1536.66 Q906.456 1536.66 908.794 1534.55 Q911.132 1532.44 911.132 1528.83 Q911.132 1525.22 908.794 1523.11 Q906.456 1521.01 902.451 1521.01 Q900.576 1521.01 898.701 1521.42 Q896.85 1521.84 894.905 1522.72 L894.905 1505.36 Z" fill="#000000" fill-rule="evenodd" fill-opacity="1" /><path clip-path="url(#clip120)" d="M 0 0 M1226.03 1508.44 Q1222.42 1508.44 1220.59 1512 Q1218.78 1515.55 1218.78 1522.67 Q1218.78 1529.78 1220.59 1533.35 Q1222.42 1536.89 1226.03 1536.89 Q1229.66 1536.89 1231.47 1533.35 Q1233.3 1529.78 1233.3 1522.67 Q1233.3 1515.55 1231.47 1512 Q1229.66 1508.44 1226.03 1508.44 M1226.03 1504.73 Q1231.84 1504.73 1234.89 1509.34 Q1237.97 1513.92 1237.97 1522.67 Q1237.97 1531.4 1234.89 1536.01 Q1231.84 1540.59 1226.03 1540.59 Q1220.22 1540.59 1217.14 1536.01 Q1214.08 1531.4 1214.08 1522.67 Q1214.08 1513.92 1217.14 1509.34 Q1220.22 1504.73 1226.03 1504.73 Z" fill="#000000" fill-rule="evenodd" fill-opacity="1" /><path clip-path="url(#clip120)" d="M 0 0 M1243.04 1534.04 L1247.93 1534.04 L1247.93 1539.92 L1243.04 1539.92 L1243.04 1534.04 Z" fill="#000000" fill-rule="evenodd" fill-opacity="1" /><path clip-path="url(#clip120)" d="M 0 0 M1262.99 1508.44 Q1259.38 1508.44 1257.55 1512 Q1255.75 1515.55 1255.75 1522.67 Q1255.75 1529.78 1257.55 1533.35 Q1259.38 1536.89 1262.99 1536.89 Q1266.63 1536.89 1268.43 1533.35 Q1270.26 1529.78 1270.26 1522.67 Q1270.26 1515.55 1268.43 1512 Q1266.63 1508.44 1262.99 1508.44 M1262.99 1504.73 Q1268.8 1504.73 1271.86 1509.34 Q1274.94 1513.92 1274.94 1522.67 Q1274.94 1531.4 1271.86 1536.01 Q1268.8 1540.59 1262.99 1540.59 Q1257.18 1540.59 1254.11 1536.01 Q1251.05 1531.4 1251.05 1522.67 Q1251.05 1513.92 1254.11 1509.34 Q1257.18 1504.73 1262.99 1504.73 Z" fill="#000000" fill-rule="evenodd" fill-opacity="1" /><path clip-path="url(#clip120)" d="M 0 0 M1595.41 1535.98 L1611.73 1535.98 L1611.73 1539.92 L1589.79 1539.92 L1589.79 1535.98 Q1592.45 1533.23 1597.03 1528.6 Q1601.64 1523.95 1602.82 1522.61 Q1605.07 1520.08 1605.95 1518.35 Q1606.85 1516.59 1606.85 1514.9 Q1606.85 1512.14 1604.9 1510.41 Q1602.98 1508.67 1599.88 1508.67 Q1597.68 1508.67 1595.23 1509.43 Q1592.8 1510.2 1590.02 1511.75 L1590.02 1507.03 Q1592.84 1505.89 1595.3 1505.31 Q1597.75 1504.73 1599.79 1504.73 Q1605.16 1504.73 1608.35 1507.42 Q1611.55 1510.11 1611.55 1514.6 Q1611.55 1516.73 1610.74 1518.65 Q1609.95 1520.54 1607.84 1523.14 Q1607.26 1523.81 1604.16 1527.03 Q1601.06 1530.22 1595.41 1535.98 Z" fill="#000000" fill-rule="evenodd" fill-opacity="1" /><path clip-path="url(#clip120)" d="M 0 0 M1616.8 1534.04 L1621.69 1534.04 L1621.69 1539.92 L1616.8 1539.92 L1616.8 1534.04 Z" fill="#000000" fill-rule="evenodd" fill-opacity="1" /><path clip-path="url(#clip120)" d="M 0 0 M1626.8 1505.36 L1645.16 1505.36 L1645.16 1509.3 L1631.08 1509.3 L1631.08 1517.77 Q1632.1 1517.42 1633.12 1517.26 Q1634.14 1517.07 1635.16 1517.07 Q1640.94 1517.07 1644.32 1520.24 Q1647.7 1523.42 1647.7 1528.83 Q1647.7 1534.41 1644.23 1537.51 Q1640.76 1540.59 1634.44 1540.59 Q1632.26 1540.59 1630 1540.22 Q1627.75 1539.85 1625.34 1539.11 L1625.34 1534.41 Q1627.43 1535.54 1629.65 1536.1 Q1631.87 1536.66 1634.35 1536.66 Q1638.35 1536.66 1640.69 1534.55 Q1643.03 1532.44 1643.03 1528.83 Q1643.03 1525.22 1640.69 1523.11 Q1638.35 1521.01 1634.35 1521.01 Q1632.47 1521.01 1630.6 1521.42 Q1628.75 1521.84 1626.8 1522.72 L1626.8 1505.36 Z" fill="#000000" fill-rule="evenodd" fill-opacity="1" /><path clip-path="url(#clip120)" d="M 0 0 M1964.78 1505.36 L1983.13 1505.36 L1983.13 1509.3 L1969.06 1509.3 L1969.06 1517.77 Q1970.08 1517.42 1971.09 1517.26 Q1972.11 1517.07 1973.13 1517.07 Q1978.92 1517.07 1982.3 1520.24 Q1985.68 1523.42 1985.68 1528.83 Q1985.68 1534.41 1982.21 1537.51 Q1978.73 1540.59 1972.41 1540.59 Q1970.24 1540.59 1967.97 1540.22 Q1965.72 1539.85 1963.32 1539.11 L1963.32 1534.41 Q1965.4 1535.54 1967.62 1536.1 Q1969.84 1536.66 1972.32 1536.66 Q1976.33 1536.66 1978.66 1534.55 Q1981 1532.44 1981 1528.83 Q1981 1525.22 1978.66 1523.11 Q1976.33 1521.01 1972.32 1521.01 Q1970.45 1521.01 1968.57 1521.42 Q1966.72 1521.84 1964.78 1522.72 L1964.78 1505.36 Z" fill="#000000" fill-rule="evenodd" fill-opacity="1" /><path clip-path="url(#clip120)" d="M 0 0 M1990.75 1534.04 L1995.63 1534.04 L1995.63 1539.92 L1990.75 1539.92 L1990.75 1534.04 Z" fill="#000000" fill-rule="evenodd" fill-opacity="1" /><path clip-path="url(#clip120)" d="M 0 0 M2010.7 1508.44 Q2007.09 1508.44 2005.26 1512 Q2003.46 1515.55 2003.46 1522.67 Q2003.46 1529.78 2005.26 1533.35 Q2007.09 1536.89 2010.7 1536.89 Q2014.34 1536.89 2016.14 1533.35 Q2017.97 1529.78 2017.97 1522.67 Q2017.97 1515.55 2016.14 1512 Q2014.34 1508.44 2010.7 1508.44 M2010.7 1504.73 Q2016.51 1504.73 2019.57 1509.34 Q2022.65 1513.92 2022.65 1522.67 Q2022.65 1531.4 2019.57 1536.01 Q2016.51 1540.59 2010.7 1540.59 Q2004.89 1540.59 2001.81 1536.01 Q1998.76 1531.4 1998.76 1522.67 Q1998.76 1513.92 2001.81 1509.34 Q2004.89 1504.73 2010.7 1504.73 Z" fill="#000000" fill-rule="evenodd" fill-opacity="1" /><path clip-path="url(#clip120)" d="M 0 0 M130.26 1431.51 Q126.649 1431.51 124.82 1435.08 Q123.015 1438.62 123.015 1445.75 Q123.015 1452.86 124.82 1456.42 Q126.649 1459.96 130.26 1459.96 Q133.895 1459.96 135.7 1456.42 Q137.529 1452.86 137.529 1445.75 Q137.529 1438.62 135.7 1435.08 Q133.895 1431.51 130.26 1431.51 M130.26 1427.81 Q136.07 1427.81 139.126 1432.42 Q142.205 1437 142.205 1445.75 Q142.205 1454.48 139.126 1459.08 Q136.07 1463.67 130.26 1463.67 Q124.45 1463.67 121.371 1459.08 Q118.316 1454.48 118.316 1445.75 Q118.316 1437 121.371 1432.42 Q124.45 1427.81 130.26 1427.81 Z" fill="#000000" fill-rule="evenodd" fill-opacity="1" /><path clip-path="url(#clip120)" d="M 0 0 M71.8578 1127.5 L88.1772 1127.5 L88.1772 1131.44 L66.2328 1131.44 L66.2328 1127.5 Q68.8949 1124.75 73.4782 1120.12 Q78.0846 1115.46 79.2652 1114.12 Q81.5105 1111.6 82.3902 1109.86 Q83.2929 1108.1 83.2929 1106.41 Q83.2929 1103.66 81.3485 1101.92 Q79.4272 1100.19 76.3254 1100.19 Q74.1263 1100.19 71.6726 1100.95 Q69.2421 1101.71 66.4643 1103.26 L66.4643 1098.54 Q69.2884 1097.41 71.7421 1096.83 Q74.1958 1096.25 76.2328 1096.25 Q81.6031 1096.25 84.7976 1098.94 Q87.992 1101.62 87.992 1106.11 Q87.992 1108.24 87.1818 1110.16 Q86.3948 1112.06 84.2883 1114.65 Q83.7096 1115.32 80.6078 1118.54 Q77.5059 1121.74 71.8578 1127.5 Z" fill="#000000" fill-rule="evenodd" fill-opacity="1" /><path clip-path="url(#clip120)" d="M 0 0 M103.247 1099.95 Q99.6354 1099.95 97.8068 1103.52 Q96.0012 1107.06 96.0012 1114.19 Q96.0012 1121.3 97.8068 1124.86 Q99.6354 1128.4 103.247 1128.4 Q106.881 1128.4 108.686 1124.86 Q110.515 1121.3 110.515 1114.19 Q110.515 1107.06 108.686 1103.52 Q106.881 1099.95 103.247 1099.95 M103.247 1096.25 Q109.057 1096.25 112.112 1100.86 Q115.191 1105.44 115.191 1114.19 Q115.191 1122.92 112.112 1127.52 Q109.057 1132.11 103.247 1132.11 Q97.4364 1132.11 94.3577 1127.52 Q91.3022 1122.92 91.3022 1114.19 Q91.3022 1105.44 94.3577 1100.86 Q97.4364 1096.25 103.247 1096.25 Z" fill="#000000" fill-rule="evenodd" fill-opacity="1" /><path clip-path="url(#clip120)" d="M 0 0 M130.26 1099.95 Q126.649 1099.95 124.82 1103.52 Q123.015 1107.06 123.015 1114.19 Q123.015 1121.3 124.82 1124.86 Q126.649 1128.4 130.26 1128.4 Q133.895 1128.4 135.7 1124.86 Q137.529 1121.3 137.529 1114.19 Q137.529 1107.06 135.7 1103.52 Q133.895 1099.95 130.26 1099.95 M130.26 1096.25 Q136.07 1096.25 139.126 1100.86 Q142.205 1105.44 142.205 1114.19 Q142.205 1122.92 139.126 1127.52 Q136.07 1132.11 130.26 1132.11 Q124.45 1132.11 121.371 1127.52 Q118.316 1122.92 118.316 1114.19 Q118.316 1105.44 121.371 1100.86 Q124.45 1096.25 130.26 1096.25 Z" fill="#000000" fill-rule="evenodd" fill-opacity="1" /><path clip-path="url(#clip120)" d="M 0 0 M78.5939 769.389 L66.7884 787.838 L78.5939 787.838 L78.5939 769.389 M77.367 765.315 L83.2466 765.315 L83.2466 787.838 L88.1772 787.838 L88.1772 791.727 L83.2466 791.727 L83.2466 799.875 L78.5939 799.875 L78.5939 791.727 L62.9921 791.727 L62.9921 787.213 L77.367 765.315 Z" fill="#000000" fill-rule="evenodd" fill-opacity="1" /><path clip-path="url(#clip120)" d="M 0 0 M103.247 768.394 Q99.6354 768.394 97.8068 771.959 Q96.0012 775.5 96.0012 782.63 Q96.0012 789.736 97.8068 793.301 Q99.6354 796.843 103.247 796.843 Q106.881 796.843 108.686 793.301 Q110.515 789.736 110.515 782.63 Q110.515 775.5 108.686 771.959 Q106.881 768.394 103.247 768.394 M103.247 764.69 Q109.057 764.69 112.112 769.297 Q115.191 773.88 115.191 782.63 Q115.191 791.357 112.112 795.963 Q109.057 800.546 103.247 800.546 Q97.4364 800.546 94.3577 795.963 Q91.3022 791.357 91.3022 782.63 Q91.3022 773.88 94.3577 769.297 Q97.4364 764.69 103.247 764.69 Z" fill="#000000" fill-rule="evenodd" fill-opacity="1" /><path clip-path="url(#clip120)" d="M 0 0 M130.26 768.394 Q126.649 768.394 124.82 771.959 Q123.015 775.5 123.015 782.63 Q123.015 789.736 124.82 793.301 Q126.649 796.843 130.26 796.843 Q133.895 796.843 135.7 793.301 Q137.529 789.736 137.529 782.63 Q137.529 775.5 135.7 771.959 Q133.895 768.394 130.26 768.394 M130.26 764.69 Q136.07 764.69 139.126 769.297 Q142.205 773.88 142.205 782.63 Q142.205 791.357 139.126 795.963 Q136.07 800.546 130.26 800.546 Q124.45 800.546 121.371 795.963 Q118.316 791.357 118.316 782.63 Q118.316 773.88 121.371 769.297 Q124.45 764.69 130.26 764.69 Z" fill="#000000" fill-rule="evenodd" fill-opacity="1" /><path clip-path="url(#clip120)" d="M 0 0 M76.6495 449.171 Q73.5013 449.171 71.6495 451.324 Q69.8208 453.477 69.8208 457.227 Q69.8208 460.954 71.6495 463.13 Q73.5013 465.282 76.6495 465.282 Q79.7976 465.282 81.6263 463.13 Q83.4781 460.954 83.4781 457.227 Q83.4781 453.477 81.6263 451.324 Q79.7976 449.171 76.6495 449.171 M85.9318 434.519 L85.9318 438.778 Q84.1726 437.945 82.367 437.505 Q80.5846 437.065 78.8254 437.065 Q74.1958 437.065 71.7421 440.19 Q69.3115 443.315 68.9643 449.634 Q70.33 447.62 72.3902 446.556 Q74.4504 445.468 76.9272 445.468 Q82.1355 445.468 85.1448 448.639 Q88.1772 451.787 88.1772 457.227 Q88.1772 462.551 85.029 465.769 Q81.8809 468.986 76.6495 468.986 Q70.6541 468.986 67.4828 464.403 Q64.3116 459.796 64.3116 451.07 Q64.3116 442.875 68.2004 438.014 Q72.0893 433.13 78.6402 433.13 Q80.3994 433.13 82.1818 433.477 Q83.9874 433.824 85.9318 434.519 Z" fill="#000000" fill-rule="evenodd" fill-opacity="1" /><path clip-path="url(#clip120)" d="M 0 0 M103.247 436.833 Q99.6354 436.833 97.8068 440.398 Q96.0012 443.94 96.0012 451.07 Q96.0012 458.176 97.8068 461.741 Q99.6354 465.282 103.247 465.282 Q106.881 465.282 108.686 461.741 Q110.515 458.176 110.515 451.07 Q110.515 443.94 108.686 440.398 Q106.881 436.833 103.247 436.833 M103.247 433.13 Q109.057 433.13 112.112 437.736 Q115.191 442.32 115.191 451.07 Q115.191 459.796 112.112 464.403 Q109.057 468.986 103.247 468.986 Q97.4364 468.986 94.3577 464.403 Q91.3022 459.796 91.3022 451.07 Q91.3022 442.32 94.3577 437.736 Q97.4364 433.13 103.247 433.13 Z" fill="#000000" fill-rule="evenodd" fill-opacity="1" /><path clip-path="url(#clip120)" d="M 0 0 M130.26 436.833 Q126.649 436.833 124.82 440.398 Q123.015 443.94 123.015 451.07 Q123.015 458.176 124.82 461.741 Q126.649 465.282 130.26 465.282 Q133.895 465.282 135.7 461.741 Q137.529 458.176 137.529 451.07 Q137.529 443.94 135.7 440.398 Q133.895 436.833 130.26 436.833 M130.26 433.13 Q136.07 433.13 139.126 437.736 Q142.205 442.32 142.205 451.07 Q142.205 459.796 139.126 464.403 Q136.07 468.986 130.26 468.986 Q124.45 468.986 121.371 464.403 Q118.316 459.796 118.316 451.07 Q118.316 442.32 121.371 437.736 Q124.45 433.13 130.26 433.13 Z" fill="#000000" fill-rule="evenodd" fill-opacity="1" /><path clip-path="url(#clip120)" d="M 0 0 M76.3254 120.343 Q72.9921 120.343 71.0708 122.125 Q69.1726 123.907 69.1726 127.032 Q69.1726 130.157 71.0708 131.94 Q72.9921 133.722 76.3254 133.722 Q79.6587 133.722 81.58 131.94 Q83.5013 130.134 83.5013 127.032 Q83.5013 123.907 81.58 122.125 Q79.6819 120.343 76.3254 120.343 M71.6495 118.352 Q68.6402 117.611 66.9504 115.551 Q65.2838 113.491 65.2838 110.528 Q65.2838 106.384 68.2236 103.977 Q71.1865 101.57 76.3254 101.57 Q81.4874 101.57 84.4272 103.977 Q87.367 106.384 87.367 110.528 Q87.367 113.491 85.6772 115.551 Q84.0105 117.611 81.0244 118.352 Q84.404 119.139 86.279 121.431 Q88.1772 123.722 88.1772 127.032 Q88.1772 132.055 85.0985 134.741 Q82.0429 137.426 76.3254 137.426 Q70.6078 137.426 67.5291 134.741 Q64.4736 132.055 64.4736 127.032 Q64.4736 123.722 66.3717 121.431 Q68.2699 119.139 71.6495 118.352 M69.9365 110.968 Q69.9365 113.653 71.6032 115.157 Q73.293 116.662 76.3254 116.662 Q79.3346 116.662 81.0244 115.157 Q82.7374 113.653 82.7374 110.968 Q82.7374 108.282 81.0244 106.778 Q79.3346 105.273 76.3254 105.273 Q73.293 105.273 71.6032 106.778 Q69.9365 108.282 69.9365 110.968 Z" fill="#000000" fill-rule="evenodd" fill-opacity="1" /><path clip-path="url(#clip120)" d="M 0 0 M103.247 105.273 Q99.6354 105.273 97.8068 108.838 Q96.0012 112.38 96.0012 119.509 Q96.0012 126.616 97.8068 130.18 Q99.6354 133.722 103.247 133.722 Q106.881 133.722 108.686 130.18 Q110.515 126.616 110.515 119.509 Q110.515 112.38 108.686 108.838 Q106.881 105.273 103.247 105.273 M103.247 101.57 Q109.057 101.57 112.112 106.176 Q115.191 110.759 115.191 119.509 Q115.191 128.236 112.112 132.842 Q109.057 137.426 103.247 137.426 Q97.4364 137.426 94.3577 132.842 Q91.3022 128.236 91.3022 119.509 Q91.3022 110.759 94.3577 106.176 Q97.4364 101.57 103.247 101.57 Z" fill="#000000" fill-rule="evenodd" fill-opacity="1" /><path clip-path="url(#clip120)" d="M 0 0 M130.26 105.273 Q126.649 105.273 124.82 108.838 Q123.015 112.38 123.015 119.509 Q123.015 126.616 124.82 130.18 Q126.649 133.722 130.26 133.722 Q133.895 133.722 135.7 130.18 Q137.529 126.616 137.529 119.509 Q137.529 112.38 135.7 108.838 Q133.895 105.273 130.26 105.273 M130.26 101.57 Q136.07 101.57 139.126 106.176 Q142.205 110.759 142.205 119.509 Q142.205 128.236 139.126 132.842 Q136.07 137.426 130.26 137.426 Q124.45 137.426 121.371 132.842 Q118.316 128.236 118.316 119.509 Q118.316 110.759 121.371 106.176 Q124.45 101.57 130.26 101.57 Z" fill="#000000" fill-rule="evenodd" fill-opacity="1" /><path clip-path="url(#clip122)" d="
M286.469 1440.74 L286.469 1445.72 L316.408 1445.72 L316.408 1440.74 L286.469 1440.74 L286.469 1440.74  Z
  " fill="#009af9" fill-rule="evenodd" fill-opacity="1"/>
<polyline clip-path="url(#clip122)" style="stroke:#000000; stroke-width:4; stroke-opacity:1; fill:none" points="
  286.469,1440.74 286.469,1445.72 316.408,1445.72 316.408,1440.74 286.469,1440.74 
  "/>
<path clip-path="url(#clip122)" d="
M316.408 1445.72 L316.408 1445.72 L346.347 1445.72 L346.347 1445.72 L316.408 1445.72 L316.408 1445.72  Z
  " fill="#009af9" fill-rule="evenodd" fill-opacity="1"/>
<polyline clip-path="url(#clip122)" style="stroke:#000000; stroke-width:4; stroke-opacity:1; fill:none" points="
  316.408,1445.72 316.408,1445.72 346.347,1445.72 316.408,1445.72 
  "/>
<path clip-path="url(#clip122)" d="
M346.347 1440.74 L346.347 1445.72 L376.285 1445.72 L376.285 1440.74 L346.347 1440.74 L346.347 1440.74  Z
  " fill="#009af9" fill-rule="evenodd" fill-opacity="1"/>
<polyline clip-path="url(#clip122)" style="stroke:#000000; stroke-width:4; stroke-opacity:1; fill:none" points="
  346.347,1440.74 346.347,1445.72 376.285,1445.72 376.285,1440.74 346.347,1440.74 
  "/>
<path clip-path="url(#clip122)" d="
M376.285 1445.72 L376.285 1445.72 L406.224 1445.72 L406.224 1445.72 L376.285 1445.72 L376.285 1445.72  Z
  " fill="#009af9" fill-rule="evenodd" fill-opacity="1"/>
<polyline clip-path="url(#clip122)" style="stroke:#000000; stroke-width:4; stroke-opacity:1; fill:none" points="
  376.285,1445.72 376.285,1445.72 406.224,1445.72 376.285,1445.72 
  "/>
<path clip-path="url(#clip122)" d="
M406.224 1440.74 L406.224 1445.72 L436.163 1445.72 L436.163 1440.74 L406.224 1440.74 L406.224 1440.74  Z
  " fill="#009af9" fill-rule="evenodd" fill-opacity="1"/>
<polyline clip-path="url(#clip122)" style="stroke:#000000; stroke-width:4; stroke-opacity:1; fill:none" points="
  406.224,1440.74 406.224,1445.72 436.163,1445.72 436.163,1440.74 406.224,1440.74 
  "/>
<path clip-path="url(#clip122)" d="
M436.163 1442.4 L436.163 1445.72 L466.102 1445.72 L466.102 1442.4 L436.163 1442.4 L436.163 1442.4  Z
  " fill="#009af9" fill-rule="evenodd" fill-opacity="1"/>
<polyline clip-path="url(#clip122)" style="stroke:#000000; stroke-width:4; stroke-opacity:1; fill:none" points="
  436.163,1442.4 436.163,1445.72 466.102,1445.72 466.102,1442.4 436.163,1442.4 
  "/>
<path clip-path="url(#clip122)" d="
M466.102 1435.77 L466.102 1445.72 L496.041 1445.72 L496.041 1435.77 L466.102 1435.77 L466.102 1435.77  Z
  " fill="#009af9" fill-rule="evenodd" fill-opacity="1"/>
<polyline clip-path="url(#clip122)" style="stroke:#000000; stroke-width:4; stroke-opacity:1; fill:none" points="
  466.102,1435.77 466.102,1445.72 496.041,1445.72 496.041,1435.77 466.102,1435.77 
  "/>
<path clip-path="url(#clip122)" d="
M496.041 1432.45 L496.041 1445.72 L525.979 1445.72 L525.979 1432.45 L496.041 1432.45 L496.041 1432.45  Z
  " fill="#009af9" fill-rule="evenodd" fill-opacity="1"/>
<polyline clip-path="url(#clip122)" style="stroke:#000000; stroke-width:4; stroke-opacity:1; fill:none" points="
  496.041,1432.45 496.041,1445.72 525.979,1445.72 525.979,1432.45 496.041,1432.45 
  "/>
<path clip-path="url(#clip122)" d="
M525.979 1430.8 L525.979 1445.72 L555.918 1445.72 L555.918 1430.8 L525.979 1430.8 L525.979 1430.8  Z
  " fill="#009af9" fill-rule="evenodd" fill-opacity="1"/>
<polyline clip-path="url(#clip122)" style="stroke:#000000; stroke-width:4; stroke-opacity:1; fill:none" points="
  525.979,1430.8 525.979,1445.72 555.918,1445.72 555.918,1430.8 525.979,1430.8 
  "/>
<path clip-path="url(#clip122)" d="
M555.918 1430.8 L555.918 1445.72 L585.857 1445.72 L585.857 1430.8 L555.918 1430.8 L555.918 1430.8  Z
  " fill="#009af9" fill-rule="evenodd" fill-opacity="1"/>
<polyline clip-path="url(#clip122)" style="stroke:#000000; stroke-width:4; stroke-opacity:1; fill:none" points="
  555.918,1430.8 555.918,1445.72 585.857,1445.72 585.857,1430.8 555.918,1430.8 
  "/>
<path clip-path="url(#clip122)" d="
M585.857 1430.8 L585.857 1445.72 L615.796 1445.72 L615.796 1430.8 L585.857 1430.8 L585.857 1430.8  Z
  " fill="#009af9" fill-rule="evenodd" fill-opacity="1"/>
<polyline clip-path="url(#clip122)" style="stroke:#000000; stroke-width:4; stroke-opacity:1; fill:none" points="
  585.857,1430.8 585.857,1445.72 615.796,1445.72 615.796,1430.8 585.857,1430.8 
  "/>
<path clip-path="url(#clip122)" d="
M615.796 1422.51 L615.796 1445.72 L645.735 1445.72 L645.735 1422.51 L615.796 1422.51 L615.796 1422.51  Z
  " fill="#009af9" fill-rule="evenodd" fill-opacity="1"/>
<polyline clip-path="url(#clip122)" style="stroke:#000000; stroke-width:4; stroke-opacity:1; fill:none" points="
  615.796,1422.51 615.796,1445.72 645.735,1445.72 645.735,1422.51 615.796,1422.51 
  "/>
<path clip-path="url(#clip122)" d="
M645.735 1419.19 L645.735 1445.72 L675.673 1445.72 L675.673 1419.19 L645.735 1419.19 L645.735 1419.19  Z
  " fill="#009af9" fill-rule="evenodd" fill-opacity="1"/>
<polyline clip-path="url(#clip122)" style="stroke:#000000; stroke-width:4; stroke-opacity:1; fill:none" points="
  645.735,1419.19 645.735,1445.72 675.673,1445.72 675.673,1419.19 645.735,1419.19 
  "/>
<path clip-path="url(#clip122)" d="
M675.673 1409.24 L675.673 1445.72 L705.612 1445.72 L705.612 1409.24 L675.673 1409.24 L675.673 1409.24  Z
  " fill="#009af9" fill-rule="evenodd" fill-opacity="1"/>
<polyline clip-path="url(#clip122)" style="stroke:#000000; stroke-width:4; stroke-opacity:1; fill:none" points="
  675.673,1409.24 675.673,1445.72 705.612,1445.72 705.612,1409.24 675.673,1409.24 
  "/>
<path clip-path="url(#clip122)" d="
M705.612 1394.32 L705.612 1445.72 L735.551 1445.72 L735.551 1394.32 L705.612 1394.32 L705.612 1394.32  Z
  " fill="#009af9" fill-rule="evenodd" fill-opacity="1"/>
<polyline clip-path="url(#clip122)" style="stroke:#000000; stroke-width:4; stroke-opacity:1; fill:none" points="
  705.612,1394.32 705.612,1445.72 735.551,1445.72 735.551,1394.32 705.612,1394.32 
  "/>
<path clip-path="url(#clip122)" d="
M735.551 1395.98 L735.551 1445.72 L765.49 1445.72 L765.49 1395.98 L735.551 1395.98 L735.551 1395.98  Z
  " fill="#009af9" fill-rule="evenodd" fill-opacity="1"/>
<polyline clip-path="url(#clip122)" style="stroke:#000000; stroke-width:4; stroke-opacity:1; fill:none" points="
  735.551,1395.98 735.551,1445.72 765.49,1445.72 765.49,1395.98 735.551,1395.98 
  "/>
<path clip-path="url(#clip122)" d="
M765.49 1392.67 L765.49 1445.72 L795.429 1445.72 L795.429 1392.67 L765.49 1392.67 L765.49 1392.67  Z
  " fill="#009af9" fill-rule="evenodd" fill-opacity="1"/>
<polyline clip-path="url(#clip122)" style="stroke:#000000; stroke-width:4; stroke-opacity:1; fill:none" points="
  765.49,1392.67 765.49,1445.72 795.429,1445.72 795.429,1392.67 765.49,1392.67 
  "/>
<path clip-path="url(#clip122)" d="
M795.429 1392.67 L795.429 1445.72 L825.368 1445.72 L825.368 1392.67 L795.429 1392.67 L795.429 1392.67  Z
  " fill="#009af9" fill-rule="evenodd" fill-opacity="1"/>
<polyline clip-path="url(#clip122)" style="stroke:#000000; stroke-width:4; stroke-opacity:1; fill:none" points="
  795.429,1392.67 795.429,1445.72 825.368,1445.72 825.368,1392.67 795.429,1392.67 
  "/>
<path clip-path="url(#clip122)" d="
M825.368 1354.54 L825.368 1445.72 L855.306 1445.72 L855.306 1354.54 L825.368 1354.54 L825.368 1354.54  Z
  " fill="#009af9" fill-rule="evenodd" fill-opacity="1"/>
<polyline clip-path="url(#clip122)" style="stroke:#000000; stroke-width:4; stroke-opacity:1; fill:none" points="
  825.368,1354.54 825.368,1445.72 855.306,1445.72 855.306,1354.54 825.368,1354.54 
  "/>
<path clip-path="url(#clip122)" d="
M855.306 1352.88 L855.306 1445.72 L885.245 1445.72 L885.245 1352.88 L855.306 1352.88 L855.306 1352.88  Z
  " fill="#009af9" fill-rule="evenodd" fill-opacity="1"/>
<polyline clip-path="url(#clip122)" style="stroke:#000000; stroke-width:4; stroke-opacity:1; fill:none" points="
  855.306,1352.88 855.306,1445.72 885.245,1445.72 885.245,1352.88 855.306,1352.88 
  "/>
<path clip-path="url(#clip122)" d="
M885.245 1332.99 L885.245 1445.72 L915.184 1445.72 L915.184 1332.99 L885.245 1332.99 L885.245 1332.99  Z
  " fill="#009af9" fill-rule="evenodd" fill-opacity="1"/>
<polyline clip-path="url(#clip122)" style="stroke:#000000; stroke-width:4; stroke-opacity:1; fill:none" points="
  885.245,1332.99 885.245,1445.72 915.184,1445.72 915.184,1332.99 885.245,1332.99 
  "/>
<path clip-path="url(#clip122)" d="
M915.184 1334.64 L915.184 1445.72 L945.123 1445.72 L945.123 1334.64 L915.184 1334.64 L915.184 1334.64  Z
  " fill="#009af9" fill-rule="evenodd" fill-opacity="1"/>
<polyline clip-path="url(#clip122)" style="stroke:#000000; stroke-width:4; stroke-opacity:1; fill:none" points="
  915.184,1334.64 915.184,1445.72 945.123,1445.72 945.123,1334.64 915.184,1334.64 
  "/>
<path clip-path="url(#clip122)" d="
M945.123 1334.64 L945.123 1445.72 L975.062 1445.72 L975.062 1334.64 L945.123 1334.64 L945.123 1334.64  Z
  " fill="#009af9" fill-rule="evenodd" fill-opacity="1"/>
<polyline clip-path="url(#clip122)" style="stroke:#000000; stroke-width:4; stroke-opacity:1; fill:none" points="
  945.123,1334.64 945.123,1445.72 975.062,1445.72 975.062,1334.64 945.123,1334.64 
  "/>
<path clip-path="url(#clip122)" d="
M975.062 1323.04 L975.062 1445.72 L1005 1445.72 L1005 1323.04 L975.062 1323.04 L975.062 1323.04  Z
  " fill="#009af9" fill-rule="evenodd" fill-opacity="1"/>
<polyline clip-path="url(#clip122)" style="stroke:#000000; stroke-width:4; stroke-opacity:1; fill:none" points="
  975.062,1323.04 975.062,1445.72 1005,1445.72 1005,1323.04 975.062,1323.04 
  "/>
<path clip-path="url(#clip122)" d="
M1005 1281.59 L1005 1445.72 L1034.94 1445.72 L1034.94 1281.59 L1005 1281.59 L1005 1281.59  Z
  " fill="#009af9" fill-rule="evenodd" fill-opacity="1"/>
<polyline clip-path="url(#clip122)" style="stroke:#000000; stroke-width:4; stroke-opacity:1; fill:none" points="
  1005,1281.59 1005,1445.72 1034.94,1445.72 1034.94,1281.59 1005,1281.59 
  "/>
<path clip-path="url(#clip122)" d="
M1034.94 1273.3 L1034.94 1445.72 L1064.88 1445.72 L1064.88 1273.3 L1034.94 1273.3 L1034.94 1273.3  Z
  " fill="#009af9" fill-rule="evenodd" fill-opacity="1"/>
<polyline clip-path="url(#clip122)" style="stroke:#000000; stroke-width:4; stroke-opacity:1; fill:none" points="
  1034.94,1273.3 1034.94,1445.72 1064.88,1445.72 1064.88,1273.3 1034.94,1273.3 
  "/>
<path clip-path="url(#clip122)" d="
M1064.88 1314.75 L1064.88 1445.72 L1094.82 1445.72 L1094.82 1314.75 L1064.88 1314.75 L1064.88 1314.75  Z
  " fill="#009af9" fill-rule="evenodd" fill-opacity="1"/>
<polyline clip-path="url(#clip122)" style="stroke:#000000; stroke-width:4; stroke-opacity:1; fill:none" points="
  1064.88,1314.75 1064.88,1445.72 1094.82,1445.72 1094.82,1314.75 1064.88,1314.75 
  "/>
<path clip-path="url(#clip122)" d="
M1094.82 1253.41 L1094.82 1445.72 L1124.76 1445.72 L1124.76 1253.41 L1094.82 1253.41 L1094.82 1253.41  Z
  " fill="#009af9" fill-rule="evenodd" fill-opacity="1"/>
<polyline clip-path="url(#clip122)" style="stroke:#000000; stroke-width:4; stroke-opacity:1; fill:none" points="
  1094.82,1253.41 1094.82,1445.72 1124.76,1445.72 1124.76,1253.41 1094.82,1253.41 
  "/>
<path clip-path="url(#clip122)" d="
M1124.76 1273.3 L1124.76 1445.72 L1154.69 1445.72 L1154.69 1273.3 L1124.76 1273.3 L1124.76 1273.3  Z
  " fill="#009af9" fill-rule="evenodd" fill-opacity="1"/>
<polyline clip-path="url(#clip122)" style="stroke:#000000; stroke-width:4; stroke-opacity:1; fill:none" points="
  1124.76,1273.3 1124.76,1445.72 1154.69,1445.72 1154.69,1273.3 1124.76,1273.3 
  "/>
<path clip-path="url(#clip122)" d="
M1154.69 1233.52 L1154.69 1445.72 L1184.63 1445.72 L1184.63 1233.52 L1154.69 1233.52 L1154.69 1233.52  Z
  " fill="#009af9" fill-rule="evenodd" fill-opacity="1"/>
<polyline clip-path="url(#clip122)" style="stroke:#000000; stroke-width:4; stroke-opacity:1; fill:none" points="
  1154.69,1233.52 1154.69,1445.72 1184.63,1445.72 1184.63,1233.52 1154.69,1233.52 
  "/>
<path clip-path="url(#clip122)" d="
M1184.63 1273.3 L1184.63 1445.72 L1214.57 1445.72 L1214.57 1273.3 L1184.63 1273.3 L1184.63 1273.3  Z
  " fill="#009af9" fill-rule="evenodd" fill-opacity="1"/>
<polyline clip-path="url(#clip122)" style="stroke:#000000; stroke-width:4; stroke-opacity:1; fill:none" points="
  1184.63,1273.3 1184.63,1445.72 1214.57,1445.72 1214.57,1273.3 1184.63,1273.3 
  "/>
<path clip-path="url(#clip122)" d="
M1214.57 1211.97 L1214.57 1445.72 L1244.51 1445.72 L1244.51 1211.97 L1214.57 1211.97 L1214.57 1211.97  Z
  " fill="#009af9" fill-rule="evenodd" fill-opacity="1"/>
<polyline clip-path="url(#clip122)" style="stroke:#000000; stroke-width:4; stroke-opacity:1; fill:none" points="
  1214.57,1211.97 1214.57,1445.72 1244.51,1445.72 1244.51,1211.97 1214.57,1211.97 
  "/>
<path clip-path="url(#clip122)" d="
M1244.51 1255.07 L1244.51 1445.72 L1274.45 1445.72 L1274.45 1255.07 L1244.51 1255.07 L1244.51 1255.07  Z
  " fill="#009af9" fill-rule="evenodd" fill-opacity="1"/>
<polyline clip-path="url(#clip122)" style="stroke:#000000; stroke-width:4; stroke-opacity:1; fill:none" points="
  1244.51,1255.07 1244.51,1445.72 1274.45,1445.72 1274.45,1255.07 1244.51,1255.07 
  "/>
<path clip-path="url(#clip122)" d="
M1274.45 1250.1 L1274.45 1445.72 L1304.39 1445.72 L1304.39 1250.1 L1274.45 1250.1 L1274.45 1250.1  Z
  " fill="#009af9" fill-rule="evenodd" fill-opacity="1"/>
<polyline clip-path="url(#clip122)" style="stroke:#000000; stroke-width:4; stroke-opacity:1; fill:none" points="
  1274.45,1250.1 1274.45,1445.72 1304.39,1445.72 1304.39,1250.1 1274.45,1250.1 
  "/>
<path clip-path="url(#clip122)" d="
M1304.39 1190.41 L1304.39 1445.72 L1334.33 1445.72 L1334.33 1190.41 L1304.39 1190.41 L1304.39 1190.41  Z
  " fill="#009af9" fill-rule="evenodd" fill-opacity="1"/>
<polyline clip-path="url(#clip122)" style="stroke:#000000; stroke-width:4; stroke-opacity:1; fill:none" points="
  1304.39,1190.41 1304.39,1445.72 1334.33,1445.72 1334.33,1190.41 1304.39,1190.41 
  "/>
<path clip-path="url(#clip122)" d="
M1334.33 830.671 L1334.33 1445.72 L1364.27 1445.72 L1364.27 830.671 L1334.33 830.671 L1334.33 830.671  Z
  " fill="#009af9" fill-rule="evenodd" fill-opacity="1"/>
<polyline clip-path="url(#clip122)" style="stroke:#000000; stroke-width:4; stroke-opacity:1; fill:none" points="
  1334.33,830.671 1334.33,1445.72 1364.27,1445.72 1364.27,830.671 1334.33,830.671 
  "/>
<path clip-path="url(#clip122)" d="
M1364.27 87.9763 L1364.27 1445.72 L1394.2 1445.72 L1394.2 87.9763 L1364.27 87.9763 L1364.27 87.9763  Z
  " fill="#009af9" fill-rule="evenodd" fill-opacity="1"/>
<polyline clip-path="url(#clip122)" style="stroke:#000000; stroke-width:4; stroke-opacity:1; fill:none" points="
  1364.27,87.9763 1364.27,1445.72 1394.2,1445.72 1394.2,87.9763 1364.27,87.9763 
  "/>
<path clip-path="url(#clip122)" d="
M1394.2 149.315 L1394.2 1445.72 L1424.14 1445.72 L1424.14 149.315 L1394.2 149.315 L1394.2 149.315  Z
  " fill="#009af9" fill-rule="evenodd" fill-opacity="1"/>
<polyline clip-path="url(#clip122)" style="stroke:#000000; stroke-width:4; stroke-opacity:1; fill:none" points="
  1394.2,149.315 1394.2,1445.72 1424.14,1445.72 1424.14,149.315 1394.2,149.315 
  "/>
<path clip-path="url(#clip122)" d="
M1424.14 807.462 L1424.14 1445.72 L1454.08 1445.72 L1454.08 807.462 L1424.14 807.462 L1424.14 807.462  Z
  " fill="#009af9" fill-rule="evenodd" fill-opacity="1"/>
<polyline clip-path="url(#clip122)" style="stroke:#000000; stroke-width:4; stroke-opacity:1; fill:none" points="
  1424.14,807.462 1424.14,1445.72 1454.08,1445.72 1454.08,807.462 1424.14,807.462 
  "/>
<path clip-path="url(#clip122)" d="
M1454.08 1216.94 L1454.08 1445.72 L1484.02 1445.72 L1484.02 1216.94 L1454.08 1216.94 L1454.08 1216.94  Z
  " fill="#009af9" fill-rule="evenodd" fill-opacity="1"/>
<polyline clip-path="url(#clip122)" style="stroke:#000000; stroke-width:4; stroke-opacity:1; fill:none" points="
  1454.08,1216.94 1454.08,1445.72 1484.02,1445.72 1484.02,1216.94 1454.08,1216.94 
  "/>
<path clip-path="url(#clip122)" d="
M1484.02 1291.54 L1484.02 1445.72 L1513.96 1445.72 L1513.96 1291.54 L1484.02 1291.54 L1484.02 1291.54  Z
  " fill="#009af9" fill-rule="evenodd" fill-opacity="1"/>
<polyline clip-path="url(#clip122)" style="stroke:#000000; stroke-width:4; stroke-opacity:1; fill:none" points="
  1484.02,1291.54 1484.02,1445.72 1513.96,1445.72 1513.96,1291.54 1484.02,1291.54 
  "/>
<path clip-path="url(#clip122)" d="
M1513.96 1329.67 L1513.96 1445.72 L1543.9 1445.72 L1543.9 1329.67 L1513.96 1329.67 L1513.96 1329.67  Z
  " fill="#009af9" fill-rule="evenodd" fill-opacity="1"/>
<polyline clip-path="url(#clip122)" style="stroke:#000000; stroke-width:4; stroke-opacity:1; fill:none" points="
  1513.96,1329.67 1513.96,1445.72 1543.9,1445.72 1543.9,1329.67 1513.96,1329.67 
  "/>
<path clip-path="url(#clip122)" d="
M1543.9 1329.67 L1543.9 1445.72 L1573.84 1445.72 L1573.84 1329.67 L1543.9 1329.67 L1543.9 1329.67  Z
  " fill="#009af9" fill-rule="evenodd" fill-opacity="1"/>
<polyline clip-path="url(#clip122)" style="stroke:#000000; stroke-width:4; stroke-opacity:1; fill:none" points="
  1543.9,1329.67 1543.9,1445.72 1573.84,1445.72 1573.84,1329.67 1543.9,1329.67 
  "/>
<path clip-path="url(#clip122)" d="
M1573.84 1349.56 L1573.84 1445.72 L1603.78 1445.72 L1603.78 1349.56 L1573.84 1349.56 L1573.84 1349.56  Z
  " fill="#009af9" fill-rule="evenodd" fill-opacity="1"/>
<polyline clip-path="url(#clip122)" style="stroke:#000000; stroke-width:4; stroke-opacity:1; fill:none" points="
  1573.84,1349.56 1573.84,1445.72 1603.78,1445.72 1603.78,1349.56 1573.84,1349.56 
  "/>
<path clip-path="url(#clip122)" d="
M1603.78 1346.25 L1603.78 1445.72 L1633.72 1445.72 L1633.72 1346.25 L1603.78 1346.25 L1603.78 1346.25  Z
  " fill="#009af9" fill-rule="evenodd" fill-opacity="1"/>
<polyline clip-path="url(#clip122)" style="stroke:#000000; stroke-width:4; stroke-opacity:1; fill:none" points="
  1603.78,1346.25 1603.78,1445.72 1633.72,1445.72 1633.72,1346.25 1603.78,1346.25 
  "/>
<path clip-path="url(#clip122)" d="
M1633.72 1391.01 L1633.72 1445.72 L1663.65 1445.72 L1663.65 1391.01 L1633.72 1391.01 L1633.72 1391.01  Z
  " fill="#009af9" fill-rule="evenodd" fill-opacity="1"/>
<polyline clip-path="url(#clip122)" style="stroke:#000000; stroke-width:4; stroke-opacity:1; fill:none" points="
  1633.72,1391.01 1633.72,1445.72 1663.65,1445.72 1663.65,1391.01 1633.72,1391.01 
  "/>
<path clip-path="url(#clip122)" d="
M1663.65 1372.77 L1663.65 1445.72 L1693.59 1445.72 L1693.59 1372.77 L1663.65 1372.77 L1663.65 1372.77  Z
  " fill="#009af9" fill-rule="evenodd" fill-opacity="1"/>
<polyline clip-path="url(#clip122)" style="stroke:#000000; stroke-width:4; stroke-opacity:1; fill:none" points="
  1663.65,1372.77 1663.65,1445.72 1693.59,1445.72 1693.59,1372.77 1663.65,1372.77 
  "/>
<path clip-path="url(#clip122)" d="
M1693.59 1391.01 L1693.59 1445.72 L1723.53 1445.72 L1723.53 1391.01 L1693.59 1391.01 L1693.59 1391.01  Z
  " fill="#009af9" fill-rule="evenodd" fill-opacity="1"/>
<polyline clip-path="url(#clip122)" style="stroke:#000000; stroke-width:4; stroke-opacity:1; fill:none" points="
  1693.59,1391.01 1693.59,1445.72 1723.53,1445.72 1723.53,1391.01 1693.59,1391.01 
  "/>
<path clip-path="url(#clip122)" d="
M1723.53 1405.93 L1723.53 1445.72 L1753.47 1445.72 L1753.47 1405.93 L1723.53 1405.93 L1723.53 1405.93  Z
  " fill="#009af9" fill-rule="evenodd" fill-opacity="1"/>
<polyline clip-path="url(#clip122)" style="stroke:#000000; stroke-width:4; stroke-opacity:1; fill:none" points="
  1723.53,1405.93 1723.53,1445.72 1753.47,1445.72 1753.47,1405.93 1723.53,1405.93 
  "/>
<path clip-path="url(#clip122)" d="
M1753.47 1395.98 L1753.47 1445.72 L1783.41 1445.72 L1783.41 1395.98 L1753.47 1395.98 L1753.47 1395.98  Z
  " fill="#009af9" fill-rule="evenodd" fill-opacity="1"/>
<polyline clip-path="url(#clip122)" style="stroke:#000000; stroke-width:4; stroke-opacity:1; fill:none" points="
  1753.47,1395.98 1753.47,1445.72 1783.41,1445.72 1783.41,1395.98 1753.47,1395.98 
  "/>
<path clip-path="url(#clip122)" d="
M1783.41 1409.24 L1783.41 1445.72 L1813.35 1445.72 L1813.35 1409.24 L1783.41 1409.24 L1783.41 1409.24  Z
  " fill="#009af9" fill-rule="evenodd" fill-opacity="1"/>
<polyline clip-path="url(#clip122)" style="stroke:#000000; stroke-width:4; stroke-opacity:1; fill:none" points="
  1783.41,1409.24 1783.41,1445.72 1813.35,1445.72 1813.35,1409.24 1783.41,1409.24 
  "/>
<path clip-path="url(#clip122)" d="
M1813.35 1417.53 L1813.35 1445.72 L1843.29 1445.72 L1843.29 1417.53 L1813.35 1417.53 L1813.35 1417.53  Z
  " fill="#009af9" fill-rule="evenodd" fill-opacity="1"/>
<polyline clip-path="url(#clip122)" style="stroke:#000000; stroke-width:4; stroke-opacity:1; fill:none" points="
  1813.35,1417.53 1813.35,1445.72 1843.29,1445.72 1843.29,1417.53 1813.35,1417.53 
  "/>
<path clip-path="url(#clip122)" d="
M1843.29 1429.14 L1843.29 1445.72 L1873.23 1445.72 L1873.23 1429.14 L1843.29 1429.14 L1843.29 1429.14  Z
  " fill="#009af9" fill-rule="evenodd" fill-opacity="1"/>
<polyline clip-path="url(#clip122)" style="stroke:#000000; stroke-width:4; stroke-opacity:1; fill:none" points="
  1843.29,1429.14 1843.29,1445.72 1873.23,1445.72 1873.23,1429.14 1843.29,1429.14 
  "/>
<path clip-path="url(#clip122)" d="
M1873.23 1422.51 L1873.23 1445.72 L1903.16 1445.72 L1903.16 1422.51 L1873.23 1422.51 L1873.23 1422.51  Z
  " fill="#009af9" fill-rule="evenodd" fill-opacity="1"/>
<polyline clip-path="url(#clip122)" style="stroke:#000000; stroke-width:4; stroke-opacity:1; fill:none" points="
  1873.23,1422.51 1873.23,1445.72 1903.16,1445.72 1903.16,1422.51 1873.23,1422.51 
  "/>
<path clip-path="url(#clip122)" d="
M1903.16 1432.45 L1903.16 1445.72 L1933.1 1445.72 L1933.1 1432.45 L1903.16 1432.45 L1903.16 1432.45  Z
  " fill="#009af9" fill-rule="evenodd" fill-opacity="1"/>
<polyline clip-path="url(#clip122)" style="stroke:#000000; stroke-width:4; stroke-opacity:1; fill:none" points="
  1903.16,1432.45 1903.16,1445.72 1933.1,1445.72 1933.1,1432.45 1903.16,1432.45 
  "/>
<path clip-path="url(#clip122)" d="
M1933.1 1424.16 L1933.1 1445.72 L1963.04 1445.72 L1963.04 1424.16 L1933.1 1424.16 L1933.1 1424.16  Z
  " fill="#009af9" fill-rule="evenodd" fill-opacity="1"/>
<polyline clip-path="url(#clip122)" style="stroke:#000000; stroke-width:4; stroke-opacity:1; fill:none" points="
  1933.1,1424.16 1933.1,1445.72 1963.04,1445.72 1963.04,1424.16 1933.1,1424.16 
  "/>
<path clip-path="url(#clip122)" d="
M1963.04 1435.77 L1963.04 1445.72 L1992.98 1445.72 L1992.98 1435.77 L1963.04 1435.77 L1963.04 1435.77  Z
  " fill="#009af9" fill-rule="evenodd" fill-opacity="1"/>
<polyline clip-path="url(#clip122)" style="stroke:#000000; stroke-width:4; stroke-opacity:1; fill:none" points="
  1963.04,1435.77 1963.04,1445.72 1992.98,1445.72 1992.98,1435.77 1963.04,1435.77 
  "/>
<path clip-path="url(#clip122)" d="
M1992.98 1440.74 L1992.98 1445.72 L2022.92 1445.72 L2022.92 1440.74 L1992.98 1440.74 L1992.98 1440.74  Z
  " fill="#009af9" fill-rule="evenodd" fill-opacity="1"/>
<polyline clip-path="url(#clip122)" style="stroke:#000000; stroke-width:4; stroke-opacity:1; fill:none" points="
  1992.98,1440.74 1992.98,1445.72 2022.92,1445.72 2022.92,1440.74 1992.98,1440.74 
  "/>
<path clip-path="url(#clip122)" d="
M2022.92 1435.77 L2022.92 1445.72 L2052.86 1445.72 L2052.86 1435.77 L2022.92 1435.77 L2022.92 1435.77  Z
  " fill="#009af9" fill-rule="evenodd" fill-opacity="1"/>
<polyline clip-path="url(#clip122)" style="stroke:#000000; stroke-width:4; stroke-opacity:1; fill:none" points="
  2022.92,1435.77 2022.92,1445.72 2052.86,1445.72 2052.86,1435.77 2022.92,1435.77 
  "/>
<path clip-path="url(#clip122)" d="
M2052.86 1439.08 L2052.86 1445.72 L2082.8 1445.72 L2082.8 1439.08 L2052.86 1439.08 L2052.86 1439.08  Z
  " fill="#009af9" fill-rule="evenodd" fill-opacity="1"/>
<polyline clip-path="url(#clip122)" style="stroke:#000000; stroke-width:4; stroke-opacity:1; fill:none" points="
  2052.86,1439.08 2052.86,1445.72 2082.8,1445.72 2082.8,1439.08 2052.86,1439.08 
  "/>
<path clip-path="url(#clip122)" d="
M2082.8 1440.74 L2082.8 1445.72 L2112.74 1445.72 L2112.74 1440.74 L2082.8 1440.74 L2082.8 1440.74  Z
  " fill="#009af9" fill-rule="evenodd" fill-opacity="1"/>
<polyline clip-path="url(#clip122)" style="stroke:#000000; stroke-width:4; stroke-opacity:1; fill:none" points="
  2082.8,1440.74 2082.8,1445.72 2112.74,1445.72 2112.74,1440.74 2082.8,1440.74 
  "/>
<path clip-path="url(#clip122)" d="
M2112.74 1440.74 L2112.74 1445.72 L2142.68 1445.72 L2142.68 1440.74 L2112.74 1440.74 L2112.74 1440.74  Z
  " fill="#009af9" fill-rule="evenodd" fill-opacity="1"/>
<polyline clip-path="url(#clip122)" style="stroke:#000000; stroke-width:4; stroke-opacity:1; fill:none" points="
  2112.74,1440.74 2112.74,1445.72 2142.68,1445.72 2142.68,1440.74 2112.74,1440.74 
  "/>
<path clip-path="url(#clip122)" d="
M2142.68 1444.06 L2142.68 1445.72 L2172.61 1445.72 L2172.61 1444.06 L2142.68 1444.06 L2142.68 1444.06  Z
  " fill="#009af9" fill-rule="evenodd" fill-opacity="1"/>
<polyline clip-path="url(#clip122)" style="stroke:#000000; stroke-width:4; stroke-opacity:1; fill:none" points="
  2142.68,1444.06 2142.68,1445.72 2172.61,1445.72 2172.61,1444.06 2142.68,1444.06 
  "/>
<path clip-path="url(#clip122)" d="
M2172.61 1445.72 L2172.61 1445.72 L2202.55 1445.72 L2202.55 1445.72 L2172.61 1445.72 L2172.61 1445.72  Z
  " fill="#009af9" fill-rule="evenodd" fill-opacity="1"/>
<polyline clip-path="url(#clip122)" style="stroke:#000000; stroke-width:4; stroke-opacity:1; fill:none" points="
  2172.61,1445.72 2172.61,1445.72 2202.55,1445.72 2172.61,1445.72 
  "/>
<path clip-path="url(#clip122)" d="
M2202.55 1442.4 L2202.55 1445.72 L2232.49 1445.72 L2232.49 1442.4 L2202.55 1442.4 L2202.55 1442.4  Z
  " fill="#009af9" fill-rule="evenodd" fill-opacity="1"/>
<polyline clip-path="url(#clip122)" style="stroke:#000000; stroke-width:4; stroke-opacity:1; fill:none" points="
  2202.55,1442.4 2202.55,1445.72 2232.49,1445.72 2232.49,1442.4 2202.55,1442.4 
  "/>
<path clip-path="url(#clip120)" d="
M1985.9 216.178 L2279.87 216.178 L2279.87 95.2176 L1985.9 95.2176  Z
  " fill="#ffffff" fill-rule="evenodd" fill-opacity="1"/>
<polyline clip-path="url(#clip120)" style="stroke:#000000; stroke-width:4; stroke-opacity:1; fill:none" points="
  1985.9,216.178 2279.87,216.178 2279.87,95.2176 1985.9,95.2176 1985.9,216.178 
  "/>
<path clip-path="url(#clip120)" d="
M2010.2 179.89 L2155.97 179.89 L2155.97 131.506 L2010.2 131.506 L2010.2 179.89  Z
  " fill="#009af9" fill-rule="evenodd" fill-opacity="1"/>
<polyline clip-path="url(#clip120)" style="stroke:#000000; stroke-width:4; stroke-opacity:1; fill:none" points="
  2010.2,179.89 2155.97,179.89 2155.97,131.506 2010.2,131.506 2010.2,179.89 
  "/>
<path clip-path="url(#clip120)" d="M 0 0 M2194.11 175.385 Q2192.3 180.015 2190.59 181.427 Q2188.87 182.839 2186 182.839 L2182.6 182.839 L2182.6 179.274 L2185.1 179.274 Q2186.86 179.274 2187.83 178.44 Q2188.8 177.607 2189.98 174.505 L2190.75 172.561 L2180.26 147.052 L2184.78 147.052 L2192.88 167.329 L2200.98 147.052 L2205.49 147.052 L2194.11 175.385 Z" fill="#000000" fill-rule="evenodd" fill-opacity="1" /><path clip-path="url(#clip120)" d="M 0 0 M2211.37 169.042 L2219.01 169.042 L2219.01 142.677 L2210.7 144.343 L2210.7 140.084 L2218.97 138.418 L2223.64 138.418 L2223.64 169.042 L2231.28 169.042 L2231.28 172.978 L2211.37 172.978 L2211.37 169.042 Z" fill="#000000" fill-rule="evenodd" fill-opacity="1" /></svg>
