<?xml version="1.0" encoding="utf-8"?>
<svg xmlns="http://www.w3.org/2000/svg" xmlns:xlink="http://www.w3.org/1999/xlink" width="600" height="400" viewBox="0 0 2400 1600">
<defs>
  <clipPath id="clip000">
    <rect x="0" y="0" width="2400" height="1600"/>
  </clipPath>
</defs>
<path clip-path="url(#clip000)" d="
M0 1600 L2400 1600 L2400 0 L0 0  Z
  " fill="#ffffff" fill-rule="evenodd" fill-opacity="1"/>
<defs>
  <clipPath id="clip001">
    <rect x="480" y="0" width="1681" height="1600"/>
  </clipPath>
</defs>
<path clip-path="url(#clip000)" d="
M166.205 1486.45 L2352.76 1486.45 L2352.76 47.2441 L166.205 47.2441  Z
  " fill="#ffffff" fill-rule="evenodd" fill-opacity="1"/>
<defs>
  <clipPath id="clip002">
    <rect x="166" y="47" width="2188" height="1440"/>
  </clipPath>
</defs>
<polyline clip-path="url(#clip002)" style="stroke:#000000; stroke-width:2; stroke-opacity:0.1; fill:none" points="
  473.074,1486.45 473.074,47.2441 
  "/>
<polyline clip-path="url(#clip002)" style="stroke:#000000; stroke-width:2; stroke-opacity:0.1; fill:none" points="
  872.942,1486.45 872.942,47.2441 
  "/>
<polyline clip-path="url(#clip002)" style="stroke:#000000; stroke-width:2; stroke-opacity:0.1; fill:none" points="
  1272.81,1486.45 1272.81,47.2441 
  "/>
<polyline clip-path="url(#clip002)" style="stroke:#000000; stroke-width:2; stroke-opacity:0.1; fill:none" points="
  1672.68,1486.45 1672.68,47.2441 
  "/>
<polyline clip-path="url(#clip002)" style="stroke:#000000; stroke-width:2; stroke-opacity:0.1; fill:none" points="
  2072.54,1486.45 2072.54,47.2441 
  "/>
<polyline clip-path="url(#clip002)" style="stroke:#000000; stroke-width:2; stroke-opacity:0.1; fill:none" points="
  166.205,1445.72 2352.76,1445.72 
  "/>
<polyline clip-path="url(#clip002)" style="stroke:#000000; stroke-width:2; stroke-opacity:0.1; fill:none" points="
  166.205,1113.75 2352.76,1113.75 
  "/>
<polyline clip-path="url(#clip002)" style="stroke:#000000; stroke-width:2; stroke-opacity:0.1; fill:none" points="
  166.205,781.784 2352.76,781.784 
  "/>
<polyline clip-path="url(#clip002)" style="stroke:#000000; stroke-width:2; stroke-opacity:0.1; fill:none" points="
  166.205,449.819 2352.76,449.819 
  "/>
<polyline clip-path="url(#clip002)" style="stroke:#000000; stroke-width:2; stroke-opacity:0.1; fill:none" points="
  166.205,117.853 2352.76,117.853 
  "/>
<polyline clip-path="url(#clip000)" style="stroke:#000000; stroke-width:4; stroke-opacity:1; fill:none" points="
  166.205,1486.45 2352.76,1486.45 
  "/>
<polyline clip-path="url(#clip000)" style="stroke:#000000; stroke-width:4; stroke-opacity:1; fill:none" points="
  166.205,1486.45 166.205,47.2441 
  "/>
<polyline clip-path="url(#clip000)" style="stroke:#000000; stroke-width:4; stroke-opacity:1; fill:none" points="
  473.074,1486.45 473.074,1469.18 
  "/>
<polyline clip-path="url(#clip000)" style="stroke:#000000; stroke-width:4; stroke-opacity:1; fill:none" points="
  872.942,1486.45 872.942,1469.18 
  "/>
<polyline clip-path="url(#clip000)" style="stroke:#000000; stroke-width:4; stroke-opacity:1; fill:none" points="
  1272.81,1486.45 1272.81,1469.18 
  "/>
<polyline clip-path="url(#clip000)" style="stroke:#000000; stroke-width:4; stroke-opacity:1; fill:none" points="
  1672.68,1486.45 1672.68,1469.18 
  "/>
<polyline clip-path="url(#clip000)" style="stroke:#000000; stroke-width:4; stroke-opacity:1; fill:none" points="
  2072.54,1486.45 2072.54,1469.18 
  "/>
<polyline clip-path="url(#clip000)" style="stroke:#000000; stroke-width:4; stroke-opacity:1; fill:none" points="
  166.205,1445.72 192.443,1445.72 
  "/>
<polyline clip-path="url(#clip000)" style="stroke:#000000; stroke-width:4; stroke-opacity:1; fill:none" points="
  166.205,1113.75 192.443,1113.75 
  "/>
<polyline clip-path="url(#clip000)" style="stroke:#000000; stroke-width:4; stroke-opacity:1; fill:none" points="
  166.205,781.784 192.443,781.784 
  "/>
<polyline clip-path="url(#clip000)" style="stroke:#000000; stroke-width:4; stroke-opacity:1; fill:none" points="
  166.205,449.819 192.443,449.819 
  "/>
<polyline clip-path="url(#clip000)" style="stroke:#000000; stroke-width:4; stroke-opacity:1; fill:none" points="
  166.205,117.853 192.443,117.853 
  "/>
<path clip-path="url(#clip000)" d="M 0 0 M453.248 1525.04 L465.724 1525.04 L465.724 1528.83 L453.248 1528.83 L453.248 1525.04 Z" fill="#000000" fill-rule="evenodd" fill-opacity="1" /><path clip-path="url(#clip000)" d="M 0 0 M481.372 1520.78 Q478.224 1520.78 476.372 1522.93 Q474.544 1525.08 474.544 1528.83 Q474.544 1532.56 476.372 1534.73 Q478.224 1536.89 481.372 1536.89 Q484.521 1536.89 486.349 1534.73 Q488.201 1532.56 488.201 1528.83 Q488.201 1525.08 486.349 1522.93 Q484.521 1520.78 481.372 1520.78 M490.655 1506.12 L490.655 1510.38 Q488.895 1509.55 487.09 1509.11 Q485.308 1508.67 483.548 1508.67 Q478.919 1508.67 476.465 1511.8 Q474.034 1514.92 473.687 1521.24 Q475.053 1519.23 477.113 1518.16 Q479.173 1517.07 481.65 1517.07 Q486.858 1517.07 489.868 1520.24 Q492.9 1523.39 492.9 1528.83 Q492.9 1534.16 489.752 1537.37 Q486.604 1540.59 481.372 1540.59 Q475.377 1540.59 472.206 1536.01 Q469.034 1531.4 469.034 1522.67 Q469.034 1514.48 472.923 1509.62 Q476.812 1504.73 483.363 1504.73 Q485.122 1504.73 486.905 1505.08 Q488.71 1505.43 490.655 1506.12 Z" fill="#000000" fill-rule="evenodd" fill-opacity="1" /><path clip-path="url(#clip000)" d="M 0 0 M853.52 1525.04 L865.997 1525.04 L865.997 1528.83 L853.52 1528.83 L853.52 1525.04 Z" fill="#000000" fill-rule="evenodd" fill-opacity="1" /><path clip-path="url(#clip000)" d="M 0 0 M885.233 1521.29 Q888.59 1522 890.465 1524.27 Q892.363 1526.54 892.363 1529.87 Q892.363 1534.99 888.844 1537.79 Q885.326 1540.59 878.844 1540.59 Q876.668 1540.59 874.354 1540.15 Q872.062 1539.73 869.608 1538.88 L869.608 1534.36 Q871.553 1535.5 873.867 1536.08 Q876.182 1536.66 878.705 1536.66 Q883.103 1536.66 885.395 1534.92 Q887.71 1533.18 887.71 1529.87 Q887.71 1526.82 885.557 1525.11 Q883.428 1523.37 879.608 1523.37 L875.58 1523.37 L875.58 1519.53 L879.793 1519.53 Q883.242 1519.53 885.071 1518.16 Q886.9 1516.77 886.9 1514.18 Q886.9 1511.52 885.002 1510.11 Q883.127 1508.67 879.608 1508.67 Q877.687 1508.67 875.488 1509.09 Q873.289 1509.5 870.65 1510.38 L870.65 1506.22 Q873.312 1505.48 875.627 1505.11 Q877.965 1504.73 880.025 1504.73 Q885.349 1504.73 888.451 1507.17 Q891.553 1509.57 891.553 1513.69 Q891.553 1516.56 889.909 1518.55 Q888.265 1520.52 885.233 1521.29 Z" fill="#000000" fill-rule="evenodd" fill-opacity="1" /><path clip-path="url(#clip000)" d="M 0 0 M1272.81 1508.44 Q1269.2 1508.44 1267.37 1512 Q1265.56 1515.55 1265.56 1522.67 Q1265.56 1529.78 1267.37 1533.35 Q1269.2 1536.89 1272.81 1536.89 Q1276.44 1536.89 1278.25 1533.35 Q1280.08 1529.78 1280.08 1522.67 Q1280.08 1515.55 1278.25 1512 Q1276.44 1508.44 1272.81 1508.44 M1272.81 1504.73 Q1278.62 1504.73 1281.67 1509.34 Q1284.75 1513.92 1284.75 1522.67 Q1284.75 1531.4 1281.67 1536.01 Q1278.62 1540.59 1272.81 1540.59 Q1267 1540.59 1263.92 1536.01 Q1260.86 1531.4 1260.86 1522.67 Q1260.86 1513.92 1263.92 1509.34 Q1267 1504.73 1272.81 1504.73 Z" fill="#000000" fill-rule="evenodd" fill-opacity="1" /><path clip-path="url(#clip000)" d="M 0 0 M1676.92 1521.29 Q1680.28 1522 1682.16 1524.27 Q1684.05 1526.54 1684.05 1529.87 Q1684.05 1534.99 1680.54 1537.79 Q1677.02 1540.59 1670.54 1540.59 Q1668.36 1540.59 1666.05 1540.15 Q1663.75 1539.73 1661.3 1538.88 L1661.3 1534.36 Q1663.24 1535.5 1665.56 1536.08 Q1667.87 1536.66 1670.4 1536.66 Q1674.79 1536.66 1677.09 1534.92 Q1679.4 1533.18 1679.4 1529.87 Q1679.4 1526.82 1677.25 1525.11 Q1675.12 1523.37 1671.3 1523.37 L1667.27 1523.37 L1667.27 1519.53 L1671.48 1519.53 Q1674.93 1519.53 1676.76 1518.16 Q1678.59 1516.77 1678.59 1514.18 Q1678.59 1511.52 1676.69 1510.11 Q1674.82 1508.67 1671.3 1508.67 Q1669.38 1508.67 1667.18 1509.09 Q1664.98 1509.5 1662.34 1510.38 L1662.34 1506.22 Q1665 1505.48 1667.32 1505.11 Q1669.66 1504.73 1671.72 1504.73 Q1677.04 1504.73 1680.14 1507.17 Q1683.24 1509.57 1683.24 1513.69 Q1683.24 1516.56 1681.6 1518.55 Q1679.96 1520.52 1676.92 1521.29 Z" fill="#000000" fill-rule="evenodd" fill-opacity="1" /><path clip-path="url(#clip000)" d="M 0 0 M2072.95 1520.78 Q2069.8 1520.78 2067.95 1522.93 Q2066.12 1525.08 2066.12 1528.83 Q2066.12 1532.56 2067.95 1534.73 Q2069.8 1536.89 2072.95 1536.89 Q2076.1 1536.89 2077.93 1534.73 Q2079.78 1532.56 2079.78 1528.83 Q2079.78 1525.08 2077.93 1522.93 Q2076.1 1520.78 2072.95 1520.78 M2082.23 1506.12 L2082.23 1510.38 Q2080.47 1509.55 2078.67 1509.11 Q2076.88 1508.67 2075.13 1508.67 Q2070.5 1508.67 2068.04 1511.8 Q2065.61 1514.92 2065.26 1521.24 Q2066.63 1519.23 2068.69 1518.16 Q2070.75 1517.07 2073.23 1517.07 Q2078.44 1517.07 2081.45 1520.24 Q2084.48 1523.39 2084.48 1528.83 Q2084.48 1534.16 2081.33 1537.37 Q2078.18 1540.59 2072.95 1540.59 Q2066.95 1540.59 2063.78 1536.01 Q2060.61 1531.4 2060.61 1522.67 Q2060.61 1514.48 2064.5 1509.62 Q2068.39 1504.73 2074.94 1504.73 Q2076.7 1504.73 2078.48 1505.08 Q2080.29 1505.43 2082.23 1506.12 Z" fill="#000000" fill-rule="evenodd" fill-opacity="1" /><path clip-path="url(#clip000)" d="M 0 0 M130.26 1431.51 Q126.649 1431.51 124.82 1435.08 Q123.015 1438.62 123.015 1445.75 Q123.015 1452.86 124.82 1456.42 Q126.649 1459.96 130.26 1459.96 Q133.895 1459.96 135.7 1456.42 Q137.529 1452.86 137.529 1445.75 Q137.529 1438.62 135.7 1435.08 Q133.895 1431.51 130.26 1431.51 M130.26 1427.81 Q136.07 1427.81 139.126 1432.42 Q142.205 1437 142.205 1445.75 Q142.205 1454.48 139.126 1459.08 Q136.07 1463.67 130.26 1463.67 Q124.45 1463.67 121.371 1459.08 Q118.316 1454.48 118.316 1445.75 Q118.316 1437 121.371 1432.42 Q124.45 1427.81 130.26 1427.81 Z" fill="#000000" fill-rule="evenodd" fill-opacity="1" /><path clip-path="url(#clip000)" d="M 0 0 M71.8578 1127.09 L88.1772 1127.09 L88.1772 1131.03 L66.2328 1131.03 L66.2328 1127.09 Q68.8949 1124.34 73.4782 1119.71 Q78.0846 1115.06 79.2652 1113.72 Q81.5105 1111.19 82.3902 1109.46 Q83.2929 1107.7 83.2929 1106.01 Q83.2929 1103.25 81.3485 1101.52 Q79.4272 1099.78 76.3254 1099.78 Q74.1263 1099.78 71.6726 1100.54 Q69.2421 1101.31 66.4643 1102.86 L66.4643 1098.14 Q69.2884 1097 71.7421 1096.42 Q74.1958 1095.85 76.2328 1095.85 Q81.6031 1095.85 84.7976 1098.53 Q87.992 1101.22 87.992 1105.71 Q87.992 1107.84 87.1818 1109.76 Q86.3948 1111.66 84.2883 1114.25 Q83.7096 1114.92 80.6078 1118.14 Q77.5059 1121.33 71.8578 1127.09 Z" fill="#000000" fill-rule="evenodd" fill-opacity="1" /><path clip-path="url(#clip000)" d="M 0 0 M103.247 1099.55 Q99.6354 1099.55 97.8068 1103.11 Q96.0012 1106.66 96.0012 1113.78 Q96.0012 1120.89 97.8068 1124.46 Q99.6354 1128 103.247 1128 Q106.881 1128 108.686 1124.46 Q110.515 1120.89 110.515 1113.78 Q110.515 1106.66 108.686 1103.11 Q106.881 1099.55 103.247 1099.55 M103.247 1095.85 Q109.057 1095.85 112.112 1100.45 Q115.191 1105.03 115.191 1113.78 Q115.191 1122.51 112.112 1127.12 Q109.057 1131.7 103.247 1131.7 Q97.4364 1131.7 94.3577 1127.12 Q91.3022 1122.51 91.3022 1113.78 Q91.3022 1105.03 94.3577 1100.45 Q97.4364 1095.85 103.247 1095.85 Z" fill="#000000" fill-rule="evenodd" fill-opacity="1" /><path clip-path="url(#clip000)" d="M 0 0 M130.26 1099.55 Q126.649 1099.55 124.82 1103.11 Q123.015 1106.66 123.015 1113.78 Q123.015 1120.89 124.82 1124.46 Q126.649 1128 130.26 1128 Q133.895 1128 135.7 1124.46 Q137.529 1120.89 137.529 1113.78 Q137.529 1106.66 135.7 1103.11 Q133.895 1099.55 130.26 1099.55 M130.26 1095.85 Q136.07 1095.85 139.126 1100.45 Q142.205 1105.03 142.205 1113.78 Q142.205 1122.51 139.126 1127.12 Q136.07 1131.7 130.26 1131.7 Q124.45 1131.7 121.371 1127.12 Q118.316 1122.51 118.316 1113.78 Q118.316 1105.03 121.371 1100.45 Q124.45 1095.85 130.26 1095.85 Z" fill="#000000" fill-rule="evenodd" fill-opacity="1" /><path clip-path="url(#clip000)" d="M 0 0 M78.5939 768.578 L66.7884 787.027 L78.5939 787.027 L78.5939 768.578 M77.367 764.504 L83.2466 764.504 L83.2466 787.027 L88.1772 787.027 L88.1772 790.916 L83.2466 790.916 L83.2466 799.064 L78.5939 799.064 L78.5939 790.916 L62.9921 790.916 L62.9921 786.402 L77.367 764.504 Z" fill="#000000" fill-rule="evenodd" fill-opacity="1" /><path clip-path="url(#clip000)" d="M 0 0 M103.247 767.583 Q99.6354 767.583 97.8068 771.148 Q96.0012 774.69 96.0012 781.819 Q96.0012 788.926 97.8068 792.49 Q99.6354 796.032 103.247 796.032 Q106.881 796.032 108.686 792.49 Q110.515 788.926 110.515 781.819 Q110.515 774.69 108.686 771.148 Q106.881 767.583 103.247 767.583 M103.247 763.879 Q109.057 763.879 112.112 768.486 Q115.191 773.069 115.191 781.819 Q115.191 790.546 112.112 795.152 Q109.057 799.736 103.247 799.736 Q97.4364 799.736 94.3577 795.152 Q91.3022 790.546 91.3022 781.819 Q91.3022 773.069 94.3577 768.486 Q97.4364 763.879 103.247 763.879 Z" fill="#000000" fill-rule="evenodd" fill-opacity="1" /><path clip-path="url(#clip000)" d="M 0 0 M130.26 767.583 Q126.649 767.583 124.82 771.148 Q123.015 774.69 123.015 781.819 Q123.015 788.926 124.82 792.49 Q126.649 796.032 130.26 796.032 Q133.895 796.032 135.7 792.49 Q137.529 788.926 137.529 781.819 Q137.529 774.69 135.7 771.148 Q133.895 767.583 130.26 767.583 M130.26 763.879 Q136.07 763.879 139.126 768.486 Q142.205 773.069 142.205 781.819 Q142.205 790.546 139.126 795.152 Q136.07 799.736 130.26 799.736 Q124.45 799.736 121.371 795.152 Q118.316 790.546 118.316 781.819 Q118.316 773.069 121.371 768.486 Q124.45 763.879 130.26 763.879 Z" fill="#000000" fill-rule="evenodd" fill-opacity="1" /><path clip-path="url(#clip000)" d="M 0 0 M76.6495 447.955 Q73.5013 447.955 71.6495 450.108 Q69.8208 452.261 69.8208 456.011 Q69.8208 459.738 71.6495 461.914 Q73.5013 464.066 76.6495 464.066 Q79.7976 464.066 81.6263 461.914 Q83.4781 459.738 83.4781 456.011 Q83.4781 452.261 81.6263 450.108 Q79.7976 447.955 76.6495 447.955 M85.9318 433.303 L85.9318 437.562 Q84.1726 436.729 82.367 436.289 Q80.5846 435.849 78.8254 435.849 Q74.1958 435.849 71.7421 438.974 Q69.3115 442.099 68.9643 448.418 Q70.33 446.404 72.3902 445.34 Q74.4504 444.252 76.9272 444.252 Q82.1355 444.252 85.1448 447.423 Q88.1772 450.571 88.1772 456.011 Q88.1772 461.335 85.029 464.553 Q81.8809 467.77 76.6495 467.77 Q70.6541 467.77 67.4828 463.187 Q64.3116 458.58 64.3116 449.854 Q64.3116 441.659 68.2004 436.798 Q72.0893 431.914 78.6402 431.914 Q80.3994 431.914 82.1818 432.261 Q83.9874 432.608 85.9318 433.303 Z" fill="#000000" fill-rule="evenodd" fill-opacity="1" /><path clip-path="url(#clip000)" d="M 0 0 M103.247 435.617 Q99.6354 435.617 97.8068 439.182 Q96.0012 442.724 96.0012 449.854 Q96.0012 456.96 97.8068 460.525 Q99.6354 464.066 103.247 464.066 Q106.881 464.066 108.686 460.525 Q110.515 456.96 110.515 449.854 Q110.515 442.724 108.686 439.182 Q106.881 435.617 103.247 435.617 M103.247 431.914 Q109.057 431.914 112.112 436.52 Q115.191 441.104 115.191 449.854 Q115.191 458.58 112.112 463.187 Q109.057 467.77 103.247 467.77 Q97.4364 467.77 94.3577 463.187 Q91.3022 458.58 91.3022 449.854 Q91.3022 441.104 94.3577 436.52 Q97.4364 431.914 103.247 431.914 Z" fill="#000000" fill-rule="evenodd" fill-opacity="1" /><path clip-path="url(#clip000)" d="M 0 0 M130.26 435.617 Q126.649 435.617 124.82 439.182 Q123.015 442.724 123.015 449.854 Q123.015 456.96 124.82 460.525 Q126.649 464.066 130.26 464.066 Q133.895 464.066 135.7 460.525 Q137.529 456.96 137.529 449.854 Q137.529 442.724 135.7 439.182 Q133.895 435.617 130.26 435.617 M130.26 431.914 Q136.07 431.914 139.126 436.52 Q142.205 441.104 142.205 449.854 Q142.205 458.58 139.126 463.187 Q136.07 467.77 130.26 467.77 Q124.45 467.77 121.371 463.187 Q118.316 458.58 118.316 449.854 Q118.316 441.104 121.371 436.52 Q124.45 431.914 130.26 431.914 Z" fill="#000000" fill-rule="evenodd" fill-opacity="1" /><path clip-path="url(#clip000)" d="M 0 0 M76.3254 118.721 Q72.9921 118.721 71.0708 120.504 Q69.1726 122.286 69.1726 125.411 Q69.1726 128.536 71.0708 130.318 Q72.9921 132.101 76.3254 132.101 Q79.6587 132.101 81.58 130.318 Q83.5013 128.513 83.5013 125.411 Q83.5013 122.286 81.58 120.504 Q79.6819 118.721 76.3254 118.721 M71.6495 116.731 Q68.6402 115.99 66.9504 113.93 Q65.2838 111.869 65.2838 108.906 Q65.2838 104.763 68.2236 102.356 Q71.1865 99.9482 76.3254 99.9482 Q81.4874 99.9482 84.4272 102.356 Q87.367 104.763 87.367 108.906 Q87.367 111.869 85.6772 113.93 Q84.0105 115.99 81.0244 116.731 Q84.404 117.518 86.279 119.809 Q88.1772 122.101 88.1772 125.411 Q88.1772 130.434 85.0985 133.119 Q82.0429 135.804 76.3254 135.804 Q70.6078 135.804 67.5291 133.119 Q64.4736 130.434 64.4736 125.411 Q64.4736 122.101 66.3717 119.809 Q68.2699 117.518 71.6495 116.731 M69.9365 109.346 Q69.9365 112.031 71.6032 113.536 Q73.293 115.041 76.3254 115.041 Q79.3346 115.041 81.0244 113.536 Q82.7374 112.031 82.7374 109.346 Q82.7374 106.661 81.0244 105.156 Q79.3346 103.652 76.3254 103.652 Q73.293 103.652 71.6032 105.156 Q69.9365 106.661 69.9365 109.346 Z" fill="#000000" fill-rule="evenodd" fill-opacity="1" /><path clip-path="url(#clip000)" d="M 0 0 M103.247 103.652 Q99.6354 103.652 97.8068 107.217 Q96.0012 110.758 96.0012 117.888 Q96.0012 124.994 97.8068 128.559 Q99.6354 132.101 103.247 132.101 Q106.881 132.101 108.686 128.559 Q110.515 124.994 110.515 117.888 Q110.515 110.758 108.686 107.217 Q106.881 103.652 103.247 103.652 M103.247 99.9482 Q109.057 99.9482 112.112 104.555 Q115.191 109.138 115.191 117.888 Q115.191 126.615 112.112 131.221 Q109.057 135.804 103.247 135.804 Q97.4364 135.804 94.3577 131.221 Q91.3022 126.615 91.3022 117.888 Q91.3022 109.138 94.3577 104.555 Q97.4364 99.9482 103.247 99.9482 Z" fill="#000000" fill-rule="evenodd" fill-opacity="1" /><path clip-path="url(#clip000)" d="M 0 0 M130.26 103.652 Q126.649 103.652 124.82 107.217 Q123.015 110.758 123.015 117.888 Q123.015 124.994 124.82 128.559 Q126.649 132.101 130.26 132.101 Q133.895 132.101 135.7 128.559 Q137.529 124.994 137.529 117.888 Q137.529 110.758 135.7 107.217 Q133.895 103.652 130.26 103.652 M130.26 99.9482 Q136.07 99.9482 139.126 104.555 Q142.205 109.138 142.205 117.888 Q142.205 126.615 139.126 131.221 Q136.07 135.804 130.26 135.804 Q124.45 135.804 121.371 131.221 Q118.316 126.615 118.316 117.888 Q118.316 109.138 121.371 104.555 Q124.45 99.9482 130.26 99.9482 Z" fill="#000000" fill-rule="evenodd" fill-opacity="1" /><path clip-path="url(#clip002)" d="
M286.469 1444.06 L286.469 1445.72 L313.127 1445.72 L313.127 1444.06 L286.469 1444.06 L286.469 1444.06  Z
  " fill="#009af9" fill-rule="evenodd" fill-opacity="1"/>
<polyline clip-path="url(#clip002)" style="stroke:#000000; stroke-width:4; stroke-opacity:1; fill:none" points="
  286.469,1444.06 286.469,1445.72 313.127,1445.72 313.127,1444.06 286.469,1444.06 
  "/>
<path clip-path="url(#clip002)" d="
M313.127 1445.72 L313.127 1445.72 L339.785 1445.72 L339.785 1445.72 L313.127 1445.72 L313.127 1445.72  Z
  " fill="#009af9" fill-rule="evenodd" fill-opacity="1"/>
<polyline clip-path="url(#clip002)" style="stroke:#000000; stroke-width:4; stroke-opacity:1; fill:none" points="
  313.127,1445.72 313.127,1445.72 339.785,1445.72 313.127,1445.72 
  "/>
<path clip-path="url(#clip002)" d="
M339.785 1445.72 L339.785 1445.72 L366.442 1445.72 L366.442 1445.72 L339.785 1445.72 L339.785 1445.72  Z
  " fill="#009af9" fill-rule="evenodd" fill-opacity="1"/>
<polyline clip-path="url(#clip002)" style="stroke:#000000; stroke-width:4; stroke-opacity:1; fill:none" points="
  339.785,1445.72 339.785,1445.72 366.442,1445.72 339.785,1445.72 
  "/>
<path clip-path="url(#clip002)" d="
M366.442 1444.06 L366.442 1445.72 L393.1 1445.72 L393.1 1444.06 L366.442 1444.06 L366.442 1444.06  Z
  " fill="#009af9" fill-rule="evenodd" fill-opacity="1"/>
<polyline clip-path="url(#clip002)" style="stroke:#000000; stroke-width:4; stroke-opacity:1; fill:none" points="
  366.442,1444.06 366.442,1445.72 393.1,1445.72 393.1,1444.06 366.442,1444.06 
  "/>
<path clip-path="url(#clip002)" d="
M393.1 1445.72 L393.1 1445.72 L419.758 1445.72 L419.758 1445.72 L393.1 1445.72 L393.1 1445.72  Z
  " fill="#009af9" fill-rule="evenodd" fill-opacity="1"/>
<polyline clip-path="url(#clip002)" style="stroke:#000000; stroke-width:4; stroke-opacity:1; fill:none" points="
  393.1,1445.72 393.1,1445.72 419.758,1445.72 393.1,1445.72 
  "/>
<path clip-path="url(#clip002)" d="
M419.758 1445.72 L419.758 1445.72 L446.416 1445.72 L446.416 1445.72 L419.758 1445.72 L419.758 1445.72  Z
  " fill="#009af9" fill-rule="evenodd" fill-opacity="1"/>
<polyline clip-path="url(#clip002)" style="stroke:#000000; stroke-width:4; stroke-opacity:1; fill:none" points="
  419.758,1445.72 419.758,1445.72 446.416,1445.72 419.758,1445.72 
  "/>
<path clip-path="url(#clip002)" d="
M446.416 1440.74 L446.416 1445.72 L473.074 1445.72 L473.074 1440.74 L446.416 1440.74 L446.416 1440.74  Z
  " fill="#009af9" fill-rule="evenodd" fill-opacity="1"/>
<polyline clip-path="url(#clip002)" style="stroke:#000000; stroke-width:4; stroke-opacity:1; fill:none" points="
  446.416,1440.74 446.416,1445.72 473.074,1445.72 473.074,1440.74 446.416,1440.74 
  "/>
<path clip-path="url(#clip002)" d="
M473.074 1442.4 L473.074 1445.72 L499.732 1445.72 L499.732 1442.4 L473.074 1442.4 L473.074 1442.4  Z
  " fill="#009af9" fill-rule="evenodd" fill-opacity="1"/>
<polyline clip-path="url(#clip002)" style="stroke:#000000; stroke-width:4; stroke-opacity:1; fill:none" points="
  473.074,1442.4 473.074,1445.72 499.732,1445.72 499.732,1442.4 473.074,1442.4 
  "/>
<path clip-path="url(#clip002)" d="
M499.732 1444.06 L499.732 1445.72 L526.389 1445.72 L526.389 1444.06 L499.732 1444.06 L499.732 1444.06  Z
  " fill="#009af9" fill-rule="evenodd" fill-opacity="1"/>
<polyline clip-path="url(#clip002)" style="stroke:#000000; stroke-width:4; stroke-opacity:1; fill:none" points="
  499.732,1444.06 499.732,1445.72 526.389,1445.72 526.389,1444.06 499.732,1444.06 
  "/>
<path clip-path="url(#clip002)" d="
M526.389 1444.06 L526.389 1445.72 L553.047 1445.72 L553.047 1444.06 L526.389 1444.06 L526.389 1444.06  Z
  " fill="#009af9" fill-rule="evenodd" fill-opacity="1"/>
<polyline clip-path="url(#clip002)" style="stroke:#000000; stroke-width:4; stroke-opacity:1; fill:none" points="
  526.389,1444.06 526.389,1445.72 553.047,1445.72 553.047,1444.06 526.389,1444.06 
  "/>
<path clip-path="url(#clip002)" d="
M553.047 1445.72 L553.047 1445.72 L579.705 1445.72 L579.705 1445.72 L553.047 1445.72 L553.047 1445.72  Z
  " fill="#009af9" fill-rule="evenodd" fill-opacity="1"/>
<polyline clip-path="url(#clip002)" style="stroke:#000000; stroke-width:4; stroke-opacity:1; fill:none" points="
  553.047,1445.72 553.047,1445.72 579.705,1445.72 553.047,1445.72 
  "/>
<path clip-path="url(#clip002)" d="
M579.705 1435.76 L579.705 1445.72 L606.363 1445.72 L606.363 1435.76 L579.705 1435.76 L579.705 1435.76  Z
  " fill="#009af9" fill-rule="evenodd" fill-opacity="1"/>
<polyline clip-path="url(#clip002)" style="stroke:#000000; stroke-width:4; stroke-opacity:1; fill:none" points="
  579.705,1435.76 579.705,1445.72 606.363,1445.72 606.363,1435.76 579.705,1435.76 
  "/>
<path clip-path="url(#clip002)" d="
M606.363 1437.42 L606.363 1445.72 L633.021 1445.72 L633.021 1437.42 L606.363 1437.42 L606.363 1437.42  Z
  " fill="#009af9" fill-rule="evenodd" fill-opacity="1"/>
<polyline clip-path="url(#clip002)" style="stroke:#000000; stroke-width:4; stroke-opacity:1; fill:none" points="
  606.363,1437.42 606.363,1445.72 633.021,1445.72 633.021,1437.42 606.363,1437.42 
  "/>
<path clip-path="url(#clip002)" d="
M633.021 1424.14 L633.021 1445.72 L659.679 1445.72 L659.679 1424.14 L633.021 1424.14 L633.021 1424.14  Z
  " fill="#009af9" fill-rule="evenodd" fill-opacity="1"/>
<polyline clip-path="url(#clip002)" style="stroke:#000000; stroke-width:4; stroke-opacity:1; fill:none" points="
  633.021,1424.14 633.021,1445.72 659.679,1445.72 659.679,1424.14 633.021,1424.14 
  "/>
<path clip-path="url(#clip002)" d="
M659.679 1429.12 L659.679 1445.72 L686.337 1445.72 L686.337 1429.12 L659.679 1429.12 L659.679 1429.12  Z
  " fill="#009af9" fill-rule="evenodd" fill-opacity="1"/>
<polyline clip-path="url(#clip002)" style="stroke:#000000; stroke-width:4; stroke-opacity:1; fill:none" points="
  659.679,1429.12 659.679,1445.72 686.337,1445.72 686.337,1429.12 659.679,1429.12 
  "/>
<path clip-path="url(#clip002)" d="
M686.337 1435.76 L686.337 1445.72 L712.994 1445.72 L712.994 1435.76 L686.337 1435.76 L686.337 1435.76  Z
  " fill="#009af9" fill-rule="evenodd" fill-opacity="1"/>
<polyline clip-path="url(#clip002)" style="stroke:#000000; stroke-width:4; stroke-opacity:1; fill:none" points="
  686.337,1435.76 686.337,1445.72 712.994,1445.72 712.994,1435.76 686.337,1435.76 
  "/>
<path clip-path="url(#clip002)" d="
M712.994 1417.5 L712.994 1445.72 L739.652 1445.72 L739.652 1417.5 L712.994 1417.5 L712.994 1417.5  Z
  " fill="#009af9" fill-rule="evenodd" fill-opacity="1"/>
<polyline clip-path="url(#clip002)" style="stroke:#000000; stroke-width:4; stroke-opacity:1; fill:none" points="
  712.994,1417.5 712.994,1445.72 739.652,1445.72 739.652,1417.5 712.994,1417.5 
  "/>
<path clip-path="url(#clip002)" d="
M739.652 1417.5 L739.652 1445.72 L766.31 1445.72 L766.31 1417.5 L739.652 1417.5 L739.652 1417.5  Z
  " fill="#009af9" fill-rule="evenodd" fill-opacity="1"/>
<polyline clip-path="url(#clip002)" style="stroke:#000000; stroke-width:4; stroke-opacity:1; fill:none" points="
  739.652,1417.5 739.652,1445.72 766.31,1445.72 766.31,1417.5 739.652,1417.5 
  "/>
<path clip-path="url(#clip002)" d="
M766.31 1424.14 L766.31 1445.72 L792.968 1445.72 L792.968 1424.14 L766.31 1424.14 L766.31 1424.14  Z
  " fill="#009af9" fill-rule="evenodd" fill-opacity="1"/>
<polyline clip-path="url(#clip002)" style="stroke:#000000; stroke-width:4; stroke-opacity:1; fill:none" points="
  766.31,1424.14 766.31,1445.72 792.968,1445.72 792.968,1424.14 766.31,1424.14 
  "/>
<path clip-path="url(#clip002)" d="
M792.968 1395.92 L792.968 1445.72 L819.626 1445.72 L819.626 1395.92 L792.968 1395.92 L792.968 1395.92  Z
  " fill="#009af9" fill-rule="evenodd" fill-opacity="1"/>
<polyline clip-path="url(#clip002)" style="stroke:#000000; stroke-width:4; stroke-opacity:1; fill:none" points="
  792.968,1395.92 792.968,1445.72 819.626,1445.72 819.626,1395.92 792.968,1395.92 
  "/>
<path clip-path="url(#clip002)" d="
M819.626 1395.92 L819.626 1445.72 L846.284 1445.72 L846.284 1395.92 L819.626 1395.92 L819.626 1395.92  Z
  " fill="#009af9" fill-rule="evenodd" fill-opacity="1"/>
<polyline clip-path="url(#clip002)" style="stroke:#000000; stroke-width:4; stroke-opacity:1; fill:none" points="
  819.626,1395.92 819.626,1445.72 846.284,1445.72 846.284,1395.92 819.626,1395.92 
  "/>
<path clip-path="url(#clip002)" d="
M846.284 1369.36 L846.284 1445.72 L872.942 1445.72 L872.942 1369.36 L846.284 1369.36 L846.284 1369.36  Z
  " fill="#009af9" fill-rule="evenodd" fill-opacity="1"/>
<polyline clip-path="url(#clip002)" style="stroke:#000000; stroke-width:4; stroke-opacity:1; fill:none" points="
  846.284,1369.36 846.284,1445.72 872.942,1445.72 872.942,1369.36 846.284,1369.36 
  "/>
<path clip-path="url(#clip002)" d="
M872.942 1376 L872.942 1445.72 L899.599 1445.72 L899.599 1376 L872.942 1376 L872.942 1376  Z
  " fill="#009af9" fill-rule="evenodd" fill-opacity="1"/>
<polyline clip-path="url(#clip002)" style="stroke:#000000; stroke-width:4; stroke-opacity:1; fill:none" points="
  872.942,1376 872.942,1445.72 899.599,1445.72 899.599,1376 872.942,1376 
  "/>
<path clip-path="url(#clip002)" d="
M899.599 1376 L899.599 1445.72 L926.257 1445.72 L926.257 1376 L899.599 1376 L899.599 1376  Z
  " fill="#009af9" fill-rule="evenodd" fill-opacity="1"/>
<polyline clip-path="url(#clip002)" style="stroke:#000000; stroke-width:4; stroke-opacity:1; fill:none" points="
  899.599,1376 899.599,1445.72 926.257,1445.72 926.257,1376 899.599,1376 
  "/>
<path clip-path="url(#clip002)" d="
M926.257 1344.47 L926.257 1445.72 L952.915 1445.72 L952.915 1344.47 L926.257 1344.47 L926.257 1344.47  Z
  " fill="#009af9" fill-rule="evenodd" fill-opacity="1"/>
<polyline clip-path="url(#clip002)" style="stroke:#000000; stroke-width:4; stroke-opacity:1; fill:none" points="
  926.257,1344.47 926.257,1445.72 952.915,1445.72 952.915,1344.47 926.257,1344.47 
  "/>
<path clip-path="url(#clip002)" d="
M952.915 1342.81 L952.915 1445.72 L979.573 1445.72 L979.573 1342.81 L952.915 1342.81 L952.915 1342.81  Z
  " fill="#009af9" fill-rule="evenodd" fill-opacity="1"/>
<polyline clip-path="url(#clip002)" style="stroke:#000000; stroke-width:4; stroke-opacity:1; fill:none" points="
  952.915,1342.81 952.915,1445.72 979.573,1445.72 979.573,1342.81 952.915,1342.81 
  "/>
<path clip-path="url(#clip002)" d="
M979.573 1332.85 L979.573 1445.72 L1006.23 1445.72 L1006.23 1332.85 L979.573 1332.85 L979.573 1332.85  Z
  " fill="#009af9" fill-rule="evenodd" fill-opacity="1"/>
<polyline clip-path="url(#clip002)" style="stroke:#000000; stroke-width:4; stroke-opacity:1; fill:none" points="
  979.573,1332.85 979.573,1445.72 1006.23,1445.72 1006.23,1332.85 979.573,1332.85 
  "/>
<path clip-path="url(#clip002)" d="
M1006.23 1334.51 L1006.23 1445.72 L1032.89 1445.72 L1032.89 1334.51 L1006.23 1334.51 L1006.23 1334.51  Z
  " fill="#009af9" fill-rule="evenodd" fill-opacity="1"/>
<polyline clip-path="url(#clip002)" style="stroke:#000000; stroke-width:4; stroke-opacity:1; fill:none" points="
  1006.23,1334.51 1006.23,1445.72 1032.89,1445.72 1032.89,1334.51 1006.23,1334.51 
  "/>
<path clip-path="url(#clip002)" d="
M1032.89 1349.45 L1032.89 1445.72 L1059.55 1445.72 L1059.55 1349.45 L1032.89 1349.45 L1032.89 1349.45  Z
  " fill="#009af9" fill-rule="evenodd" fill-opacity="1"/>
<polyline clip-path="url(#clip002)" style="stroke:#000000; stroke-width:4; stroke-opacity:1; fill:none" points="
  1032.89,1349.45 1032.89,1445.72 1059.55,1445.72 1059.55,1349.45 1032.89,1349.45 
  "/>
<path clip-path="url(#clip002)" d="
M1059.55 1288.03 L1059.55 1445.72 L1086.2 1445.72 L1086.2 1288.03 L1059.55 1288.03 L1059.55 1288.03  Z
  " fill="#009af9" fill-rule="evenodd" fill-opacity="1"/>
<polyline clip-path="url(#clip002)" style="stroke:#000000; stroke-width:4; stroke-opacity:1; fill:none" points="
  1059.55,1288.03 1059.55,1445.72 1086.2,1445.72 1086.2,1288.03 1059.55,1288.03 
  "/>
<path clip-path="url(#clip002)" d="
M1086.2 1278.07 L1086.2 1445.72 L1112.86 1445.72 L1112.86 1278.07 L1086.2 1278.07 L1086.2 1278.07  Z
  " fill="#009af9" fill-rule="evenodd" fill-opacity="1"/>
<polyline clip-path="url(#clip002)" style="stroke:#000000; stroke-width:4; stroke-opacity:1; fill:none" points="
  1086.2,1278.07 1086.2,1445.72 1112.86,1445.72 1112.86,1278.07 1086.2,1278.07 
  "/>
<path clip-path="url(#clip002)" d="
M1112.86 1279.73 L1112.86 1445.72 L1139.52 1445.72 L1139.52 1279.73 L1112.86 1279.73 L1112.86 1279.73  Z
  " fill="#009af9" fill-rule="evenodd" fill-opacity="1"/>
<polyline clip-path="url(#clip002)" style="stroke:#000000; stroke-width:4; stroke-opacity:1; fill:none" points="
  1112.86,1279.73 1112.86,1445.72 1139.52,1445.72 1139.52,1279.73 1112.86,1279.73 
  "/>
<path clip-path="url(#clip002)" d="
M1139.52 1268.11 L1139.52 1445.72 L1166.18 1445.72 L1166.18 1268.11 L1139.52 1268.11 L1139.52 1268.11  Z
  " fill="#009af9" fill-rule="evenodd" fill-opacity="1"/>
<polyline clip-path="url(#clip002)" style="stroke:#000000; stroke-width:4; stroke-opacity:1; fill:none" points="
  1139.52,1268.11 1139.52,1445.72 1166.18,1445.72 1166.18,1268.11 1139.52,1268.11 
  "/>
<path clip-path="url(#clip002)" d="
M1166.18 1268.11 L1166.18 1445.72 L1192.84 1445.72 L1192.84 1268.11 L1166.18 1268.11 L1166.18 1268.11  Z
  " fill="#009af9" fill-rule="evenodd" fill-opacity="1"/>
<polyline clip-path="url(#clip002)" style="stroke:#000000; stroke-width:4; stroke-opacity:1; fill:none" points="
  1166.18,1268.11 1166.18,1445.72 1192.84,1445.72 1192.84,1268.11 1166.18,1268.11 
  "/>
<path clip-path="url(#clip002)" d="
M1192.84 1224.96 L1192.84 1445.72 L1219.49 1445.72 L1219.49 1224.96 L1192.84 1224.96 L1192.84 1224.96  Z
  " fill="#009af9" fill-rule="evenodd" fill-opacity="1"/>
<polyline clip-path="url(#clip002)" style="stroke:#000000; stroke-width:4; stroke-opacity:1; fill:none" points="
  1192.84,1224.96 1192.84,1445.72 1219.49,1445.72 1219.49,1224.96 1192.84,1224.96 
  "/>
<path clip-path="url(#clip002)" d="
M1219.49 1233.26 L1219.49 1445.72 L1246.15 1445.72 L1246.15 1233.26 L1219.49 1233.26 L1219.49 1233.26  Z
  " fill="#009af9" fill-rule="evenodd" fill-opacity="1"/>
<polyline clip-path="url(#clip002)" style="stroke:#000000; stroke-width:4; stroke-opacity:1; fill:none" points="
  1219.49,1233.26 1219.49,1445.72 1246.15,1445.72 1246.15,1233.26 1219.49,1233.26 
  "/>
<path clip-path="url(#clip002)" d="
M1246.15 1234.92 L1246.15 1445.72 L1272.81 1445.72 L1272.81 1234.92 L1246.15 1234.92 L1246.15 1234.92  Z
  " fill="#009af9" fill-rule="evenodd" fill-opacity="1"/>
<polyline clip-path="url(#clip002)" style="stroke:#000000; stroke-width:4; stroke-opacity:1; fill:none" points="
  1246.15,1234.92 1246.15,1445.72 1272.81,1445.72 1272.81,1234.92 1246.15,1234.92 
  "/>
<path clip-path="url(#clip002)" d="
M1272.81 1236.58 L1272.81 1445.72 L1299.47 1445.72 L1299.47 1236.58 L1272.81 1236.58 L1272.81 1236.58  Z
  " fill="#009af9" fill-rule="evenodd" fill-opacity="1"/>
<polyline clip-path="url(#clip002)" style="stroke:#000000; stroke-width:4; stroke-opacity:1; fill:none" points="
  1272.81,1236.58 1272.81,1445.72 1299.47,1445.72 1299.47,1236.58 1272.81,1236.58 
  "/>
<path clip-path="url(#clip002)" d="
M1299.47 1261.47 L1299.47 1445.72 L1326.12 1445.72 L1326.12 1261.47 L1299.47 1261.47 L1299.47 1261.47  Z
  " fill="#009af9" fill-rule="evenodd" fill-opacity="1"/>
<polyline clip-path="url(#clip002)" style="stroke:#000000; stroke-width:4; stroke-opacity:1; fill:none" points="
  1299.47,1261.47 1299.47,1445.72 1326.12,1445.72 1326.12,1261.47 1299.47,1261.47 
  "/>
<path clip-path="url(#clip002)" d="
M1326.12 1200.06 L1326.12 1445.72 L1352.78 1445.72 L1352.78 1200.06 L1326.12 1200.06 L1326.12 1200.06  Z
  " fill="#009af9" fill-rule="evenodd" fill-opacity="1"/>
<polyline clip-path="url(#clip002)" style="stroke:#000000; stroke-width:4; stroke-opacity:1; fill:none" points="
  1326.12,1200.06 1326.12,1445.72 1352.78,1445.72 1352.78,1200.06 1326.12,1200.06 
  "/>
<path clip-path="url(#clip002)" d="
M1352.78 834.899 L1352.78 1445.72 L1379.44 1445.72 L1379.44 834.899 L1352.78 834.899 L1352.78 834.899  Z
  " fill="#009af9" fill-rule="evenodd" fill-opacity="1"/>
<polyline clip-path="url(#clip002)" style="stroke:#000000; stroke-width:4; stroke-opacity:1; fill:none" points="
  1352.78,834.899 1352.78,1445.72 1379.44,1445.72 1379.44,834.899 1352.78,834.899 
  "/>
<path clip-path="url(#clip002)" d="
M1379.44 87.9763 L1379.44 1445.72 L1406.1 1445.72 L1406.1 87.9763 L1379.44 87.9763 L1379.44 87.9763  Z
  " fill="#009af9" fill-rule="evenodd" fill-opacity="1"/>
<polyline clip-path="url(#clip002)" style="stroke:#000000; stroke-width:4; stroke-opacity:1; fill:none" points="
  1379.44,87.9763 1379.44,1445.72 1406.1,1445.72 1406.1,87.9763 1379.44,87.9763 
  "/>
<path clip-path="url(#clip002)" d="
M1406.1 126.152 L1406.1 1445.72 L1432.76 1445.72 L1432.76 126.152 L1406.1 126.152 L1406.1 126.152  Z
  " fill="#009af9" fill-rule="evenodd" fill-opacity="1"/>
<polyline clip-path="url(#clip002)" style="stroke:#000000; stroke-width:4; stroke-opacity:1; fill:none" points="
  1406.1,126.152 1406.1,1445.72 1432.76,1445.72 1432.76,126.152 1406.1,126.152 
  "/>
<path clip-path="url(#clip002)" d="
M1432.76 848.178 L1432.76 1445.72 L1459.41 1445.72 L1459.41 848.178 L1432.76 848.178 L1432.76 848.178  Z
  " fill="#009af9" fill-rule="evenodd" fill-opacity="1"/>
<polyline clip-path="url(#clip002)" style="stroke:#000000; stroke-width:4; stroke-opacity:1; fill:none" points="
  1432.76,848.178 1432.76,1445.72 1459.41,1445.72 1459.41,848.178 1432.76,848.178 
  "/>
<path clip-path="url(#clip002)" d="
M1459.41 1231.6 L1459.41 1445.72 L1486.07 1445.72 L1486.07 1231.6 L1459.41 1231.6 L1459.41 1231.6  Z
  " fill="#009af9" fill-rule="evenodd" fill-opacity="1"/>
<polyline clip-path="url(#clip002)" style="stroke:#000000; stroke-width:4; stroke-opacity:1; fill:none" points="
  1459.41,1231.6 1459.41,1445.72 1486.07,1445.72 1486.07,1231.6 1459.41,1231.6 
  "/>
<path clip-path="url(#clip002)" d="
M1486.07 1301.31 L1486.07 1445.72 L1512.73 1445.72 L1512.73 1301.31 L1486.07 1301.31 L1486.07 1301.31  Z
  " fill="#009af9" fill-rule="evenodd" fill-opacity="1"/>
<polyline clip-path="url(#clip002)" style="stroke:#000000; stroke-width:4; stroke-opacity:1; fill:none" points="
  1486.07,1301.31 1486.07,1445.72 1512.73,1445.72 1512.73,1301.31 1486.07,1301.31 
  "/>
<path clip-path="url(#clip002)" d="
M1512.73 1314.59 L1512.73 1445.72 L1539.39 1445.72 L1539.39 1314.59 L1512.73 1314.59 L1512.73 1314.59  Z
  " fill="#009af9" fill-rule="evenodd" fill-opacity="1"/>
<polyline clip-path="url(#clip002)" style="stroke:#000000; stroke-width:4; stroke-opacity:1; fill:none" points="
  1512.73,1314.59 1512.73,1445.72 1539.39,1445.72 1539.39,1314.59 1512.73,1314.59 
  "/>
<path clip-path="url(#clip002)" d="
M1539.39 1339.49 L1539.39 1445.72 L1566.05 1445.72 L1566.05 1339.49 L1539.39 1339.49 L1539.39 1339.49  Z
  " fill="#009af9" fill-rule="evenodd" fill-opacity="1"/>
<polyline clip-path="url(#clip002)" style="stroke:#000000; stroke-width:4; stroke-opacity:1; fill:none" points="
  1539.39,1339.49 1539.39,1445.72 1566.05,1445.72 1566.05,1339.49 1539.39,1339.49 
  "/>
<path clip-path="url(#clip002)" d="
M1566.05 1342.81 L1566.05 1445.72 L1592.7 1445.72 L1592.7 1342.81 L1566.05 1342.81 L1566.05 1342.81  Z
  " fill="#009af9" fill-rule="evenodd" fill-opacity="1"/>
<polyline clip-path="url(#clip002)" style="stroke:#000000; stroke-width:4; stroke-opacity:1; fill:none" points="
  1566.05,1342.81 1566.05,1445.72 1592.7,1445.72 1592.7,1342.81 1566.05,1342.81 
  "/>
<path clip-path="url(#clip002)" d="
M1592.7 1346.13 L1592.7 1445.72 L1619.36 1445.72 L1619.36 1346.13 L1592.7 1346.13 L1592.7 1346.13  Z
  " fill="#009af9" fill-rule="evenodd" fill-opacity="1"/>
<polyline clip-path="url(#clip002)" style="stroke:#000000; stroke-width:4; stroke-opacity:1; fill:none" points="
  1592.7,1346.13 1592.7,1445.72 1619.36,1445.72 1619.36,1346.13 1592.7,1346.13 
  "/>
<path clip-path="url(#clip002)" d="
M1619.36 1354.43 L1619.36 1445.72 L1646.02 1445.72 L1646.02 1354.43 L1619.36 1354.43 L1619.36 1354.43  Z
  " fill="#009af9" fill-rule="evenodd" fill-opacity="1"/>
<polyline clip-path="url(#clip002)" style="stroke:#000000; stroke-width:4; stroke-opacity:1; fill:none" points="
  1619.36,1354.43 1619.36,1445.72 1646.02,1445.72 1646.02,1354.43 1619.36,1354.43 
  "/>
<path clip-path="url(#clip002)" d="
M1646.02 1387.62 L1646.02 1445.72 L1672.68 1445.72 L1672.68 1387.62 L1646.02 1387.62 L1646.02 1387.62  Z
  " fill="#009af9" fill-rule="evenodd" fill-opacity="1"/>
<polyline clip-path="url(#clip002)" style="stroke:#000000; stroke-width:4; stroke-opacity:1; fill:none" points="
  1646.02,1387.62 1646.02,1445.72 1672.68,1445.72 1672.68,1387.62 1646.02,1387.62 
  "/>
<path clip-path="url(#clip002)" d="
M1672.68 1376 L1672.68 1445.72 L1699.33 1445.72 L1699.33 1376 L1672.68 1376 L1672.68 1376  Z
  " fill="#009af9" fill-rule="evenodd" fill-opacity="1"/>
<polyline clip-path="url(#clip002)" style="stroke:#000000; stroke-width:4; stroke-opacity:1; fill:none" points="
  1672.68,1376 1672.68,1445.72 1699.33,1445.72 1699.33,1376 1672.68,1376 
  "/>
<path clip-path="url(#clip002)" d="
M1699.33 1390.94 L1699.33 1445.72 L1725.99 1445.72 L1725.99 1390.94 L1699.33 1390.94 L1699.33 1390.94  Z
  " fill="#009af9" fill-rule="evenodd" fill-opacity="1"/>
<polyline clip-path="url(#clip002)" style="stroke:#000000; stroke-width:4; stroke-opacity:1; fill:none" points="
  1699.33,1390.94 1699.33,1445.72 1725.99,1445.72 1725.99,1390.94 1699.33,1390.94 
  "/>
<path clip-path="url(#clip002)" d="
M1725.99 1400.9 L1725.99 1445.72 L1752.65 1445.72 L1752.65 1400.9 L1725.99 1400.9 L1725.99 1400.9  Z
  " fill="#009af9" fill-rule="evenodd" fill-opacity="1"/>
<polyline clip-path="url(#clip002)" style="stroke:#000000; stroke-width:4; stroke-opacity:1; fill:none" points="
  1725.99,1400.9 1725.99,1445.72 1752.65,1445.72 1752.65,1400.9 1725.99,1400.9 
  "/>
<path clip-path="url(#clip002)" d="
M1752.65 1410.86 L1752.65 1445.72 L1779.31 1445.72 L1779.31 1410.86 L1752.65 1410.86 L1752.65 1410.86  Z
  " fill="#009af9" fill-rule="evenodd" fill-opacity="1"/>
<polyline clip-path="url(#clip002)" style="stroke:#000000; stroke-width:4; stroke-opacity:1; fill:none" points="
  1752.65,1410.86 1752.65,1445.72 1779.31,1445.72 1779.31,1410.86 1752.65,1410.86 
  "/>
<path clip-path="url(#clip002)" d="
M1779.31 1424.14 L1779.31 1445.72 L1805.97 1445.72 L1805.97 1424.14 L1779.31 1424.14 L1779.31 1424.14  Z
  " fill="#009af9" fill-rule="evenodd" fill-opacity="1"/>
<polyline clip-path="url(#clip002)" style="stroke:#000000; stroke-width:4; stroke-opacity:1; fill:none" points="
  1779.31,1424.14 1779.31,1445.72 1805.97,1445.72 1805.97,1424.14 1779.31,1424.14 
  "/>
<path clip-path="url(#clip002)" d="
M1805.97 1417.5 L1805.97 1445.72 L1832.62 1445.72 L1832.62 1417.5 L1805.97 1417.5 L1805.97 1417.5  Z
  " fill="#009af9" fill-rule="evenodd" fill-opacity="1"/>
<polyline clip-path="url(#clip002)" style="stroke:#000000; stroke-width:4; stroke-opacity:1; fill:none" points="
  1805.97,1417.5 1805.97,1445.72 1832.62,1445.72 1832.62,1417.5 1805.97,1417.5 
  "/>
<path clip-path="url(#clip002)" d="
M1832.62 1427.46 L1832.62 1445.72 L1859.28 1445.72 L1859.28 1427.46 L1832.62 1427.46 L1832.62 1427.46  Z
  " fill="#009af9" fill-rule="evenodd" fill-opacity="1"/>
<polyline clip-path="url(#clip002)" style="stroke:#000000; stroke-width:4; stroke-opacity:1; fill:none" points="
  1832.62,1427.46 1832.62,1445.72 1859.28,1445.72 1859.28,1427.46 1832.62,1427.46 
  "/>
<path clip-path="url(#clip002)" d="
M1859.28 1432.44 L1859.28 1445.72 L1885.94 1445.72 L1885.94 1432.44 L1859.28 1432.44 L1859.28 1432.44  Z
  " fill="#009af9" fill-rule="evenodd" fill-opacity="1"/>
<polyline clip-path="url(#clip002)" style="stroke:#000000; stroke-width:4; stroke-opacity:1; fill:none" points="
  1859.28,1432.44 1859.28,1445.72 1885.94,1445.72 1885.94,1432.44 1859.28,1432.44 
  "/>
<path clip-path="url(#clip002)" d="
M1885.94 1432.44 L1885.94 1445.72 L1912.6 1445.72 L1912.6 1432.44 L1885.94 1432.44 L1885.94 1432.44  Z
  " fill="#009af9" fill-rule="evenodd" fill-opacity="1"/>
<polyline clip-path="url(#clip002)" style="stroke:#000000; stroke-width:4; stroke-opacity:1; fill:none" points="
  1885.94,1432.44 1885.94,1445.72 1912.6,1445.72 1912.6,1432.44 1885.94,1432.44 
  "/>
<path clip-path="url(#clip002)" d="
M1912.6 1434.1 L1912.6 1445.72 L1939.26 1445.72 L1939.26 1434.1 L1912.6 1434.1 L1912.6 1434.1  Z
  " fill="#009af9" fill-rule="evenodd" fill-opacity="1"/>
<polyline clip-path="url(#clip002)" style="stroke:#000000; stroke-width:4; stroke-opacity:1; fill:none" points="
  1912.6,1434.1 1912.6,1445.72 1939.26,1445.72 1939.26,1434.1 1912.6,1434.1 
  "/>
<path clip-path="url(#clip002)" d="
M1939.26 1442.4 L1939.26 1445.72 L1965.91 1445.72 L1965.91 1442.4 L1939.26 1442.4 L1939.26 1442.4  Z
  " fill="#009af9" fill-rule="evenodd" fill-opacity="1"/>
<polyline clip-path="url(#clip002)" style="stroke:#000000; stroke-width:4; stroke-opacity:1; fill:none" points="
  1939.26,1442.4 1939.26,1445.72 1965.91,1445.72 1965.91,1442.4 1939.26,1442.4 
  "/>
<path clip-path="url(#clip002)" d="
M1965.91 1444.06 L1965.91 1445.72 L1992.57 1445.72 L1992.57 1444.06 L1965.91 1444.06 L1965.91 1444.06  Z
  " fill="#009af9" fill-rule="evenodd" fill-opacity="1"/>
<polyline clip-path="url(#clip002)" style="stroke:#000000; stroke-width:4; stroke-opacity:1; fill:none" points="
  1965.91,1444.06 1965.91,1445.72 1992.57,1445.72 1992.57,1444.06 1965.91,1444.06 
  "/>
<path clip-path="url(#clip002)" d="
M1992.57 1444.06 L1992.57 1445.72 L2019.23 1445.72 L2019.23 1444.06 L1992.57 1444.06 L1992.57 1444.06  Z
  " fill="#009af9" fill-rule="evenodd" fill-opacity="1"/>
<polyline clip-path="url(#clip002)" style="stroke:#000000; stroke-width:4; stroke-opacity:1; fill:none" points="
  1992.57,1444.06 1992.57,1445.72 2019.23,1445.72 2019.23,1444.06 1992.57,1444.06 
  "/>
<path clip-path="url(#clip002)" d="
M2019.23 1439.08 L2019.23 1445.72 L2045.89 1445.72 L2045.89 1439.08 L2019.23 1439.08 L2019.23 1439.08  Z
  " fill="#009af9" fill-rule="evenodd" fill-opacity="1"/>
<polyline clip-path="url(#clip002)" style="stroke:#000000; stroke-width:4; stroke-opacity:1; fill:none" points="
  2019.23,1439.08 2019.23,1445.72 2045.89,1445.72 2045.89,1439.08 2019.23,1439.08 
  "/>
<path clip-path="url(#clip002)" d="
M2045.89 1442.4 L2045.89 1445.72 L2072.54 1445.72 L2072.54 1442.4 L2045.89 1442.4 L2045.89 1442.4  Z
  " fill="#009af9" fill-rule="evenodd" fill-opacity="1"/>
<polyline clip-path="url(#clip002)" style="stroke:#000000; stroke-width:4; stroke-opacity:1; fill:none" points="
  2045.89,1442.4 2045.89,1445.72 2072.54,1445.72 2072.54,1442.4 2045.89,1442.4 
  "/>
<path clip-path="url(#clip002)" d="
M2072.54 1442.4 L2072.54 1445.72 L2099.2 1445.72 L2099.2 1442.4 L2072.54 1442.4 L2072.54 1442.4  Z
  " fill="#009af9" fill-rule="evenodd" fill-opacity="1"/>
<polyline clip-path="url(#clip002)" style="stroke:#000000; stroke-width:4; stroke-opacity:1; fill:none" points="
  2072.54,1442.4 2072.54,1445.72 2099.2,1445.72 2099.2,1442.4 2072.54,1442.4 
  "/>
<path clip-path="url(#clip002)" d="
M2099.2 1442.4 L2099.2 1445.72 L2125.86 1445.72 L2125.86 1442.4 L2099.2 1442.4 L2099.2 1442.4  Z
  " fill="#009af9" fill-rule="evenodd" fill-opacity="1"/>
<polyline clip-path="url(#clip002)" style="stroke:#000000; stroke-width:4; stroke-opacity:1; fill:none" points="
  2099.2,1442.4 2099.2,1445.72 2125.86,1445.72 2125.86,1442.4 2099.2,1442.4 
  "/>
<path clip-path="url(#clip002)" d="
M2125.86 1444.06 L2125.86 1445.72 L2152.52 1445.72 L2152.52 1444.06 L2125.86 1444.06 L2125.86 1444.06  Z
  " fill="#009af9" fill-rule="evenodd" fill-opacity="1"/>
<polyline clip-path="url(#clip002)" style="stroke:#000000; stroke-width:4; stroke-opacity:1; fill:none" points="
  2125.86,1444.06 2125.86,1445.72 2152.52,1445.72 2152.52,1444.06 2125.86,1444.06 
  "/>
<path clip-path="url(#clip002)" d="
M2152.52 1445.72 L2152.52 1445.72 L2179.18 1445.72 L2179.18 1445.72 L2152.52 1445.72 L2152.52 1445.72  Z
  " fill="#009af9" fill-rule="evenodd" fill-opacity="1"/>
<polyline clip-path="url(#clip002)" style="stroke:#000000; stroke-width:4; stroke-opacity:1; fill:none" points="
  2152.52,1445.72 2152.52,1445.72 2179.18,1445.72 2152.52,1445.72 
  "/>
<path clip-path="url(#clip002)" d="
M2179.18 1445.72 L2179.18 1445.72 L2205.83 1445.72 L2205.83 1445.72 L2179.18 1445.72 L2179.18 1445.72  Z
  " fill="#009af9" fill-rule="evenodd" fill-opacity="1"/>
<polyline clip-path="url(#clip002)" style="stroke:#000000; stroke-width:4; stroke-opacity:1; fill:none" points="
  2179.18,1445.72 2179.18,1445.72 2205.83,1445.72 2179.18,1445.72 
  "/>
<path clip-path="url(#clip002)" d="
M2205.83 1444.06 L2205.83 1445.72 L2232.49 1445.72 L2232.49 1444.06 L2205.83 1444.06 L2205.83 1444.06  Z
  " fill="#009af9" fill-rule="evenodd" fill-opacity="1"/>
<polyline clip-path="url(#clip002)" style="stroke:#000000; stroke-width:4; stroke-opacity:1; fill:none" points="
  2205.83,1444.06 2205.83,1445.72 2232.49,1445.72 2232.49,1444.06 2205.83,1444.06 
  "/>
<path clip-path="url(#clip000)" d="
M1989.74 251.724 L2280.76 251.724 L2280.76 130.764 L1989.74 130.764  Z
  " fill="#ffffff" fill-rule="evenodd" fill-opacity="1"/>
<polyline clip-path="url(#clip000)" style="stroke:#000000; stroke-width:4; stroke-opacity:1; fill:none" points="
  1989.74,251.724 2280.76,251.724 2280.76,130.764 1989.74,130.764 1989.74,251.724 
  "/>
<path clip-path="url(#clip000)" d="
M2013.74 215.436 L2157.74 215.436 L2157.74 167.052 L2013.74 167.052 L2013.74 215.436  Z
  " fill="#009af9" fill-rule="evenodd" fill-opacity="1"/>
<polyline clip-path="url(#clip000)" style="stroke:#000000; stroke-width:4; stroke-opacity:1; fill:none" points="
  2013.74,215.436 2157.74,215.436 2157.74,167.052 2013.74,167.052 2013.74,215.436 
  "/>
<path clip-path="url(#clip000)" d="M 0 0 M2195.58 210.931 Q2193.77 215.561 2192.06 216.973 Q2190.35 218.385 2187.48 218.385 L2184.08 218.385 L2184.08 214.82 L2186.58 214.82 Q2188.33 214.82 2189.31 213.987 Q2190.28 213.154 2191.46 210.052 L2192.22 208.107 L2181.74 182.598 L2186.25 182.598 L2194.35 202.876 L2202.46 182.598 L2206.97 182.598 L2195.58 210.931 Z" fill="#000000" fill-rule="evenodd" fill-opacity="1" /><path clip-path="url(#clip000)" d="M 0 0 M2212.85 204.589 L2220.49 204.589 L2220.49 178.223 L2212.18 179.89 L2212.18 175.631 L2220.44 173.964 L2225.12 173.964 L2225.12 204.589 L2232.76 204.589 L2232.76 208.524 L2212.85 208.524 L2212.85 204.589 Z" fill="#000000" fill-rule="evenodd" fill-opacity="1" /></svg>
